%FSLAX34Y34*%
G04 Gerber Fmt 3.4, Leading zero omitted, Abs format*
G04 (created by PCBNEW (2014-02-02 BZR 4653)-product) date 2014-03-31 11:22:45 AM*
%MOIN*%
G01*
G70*
G90*
G04 APERTURE LIST*
%ADD10C,0.005906*%
%ADD11R,0.045000X0.032000*%
%ADD12O,0.053150X0.157480*%
%ADD13R,0.039370X0.049213*%
%ADD14R,0.047244X0.049213*%
G04 APERTURE END LIST*
G54D10*
G54D11*
X30511Y-42854D03*
X30511Y-42184D03*
X25590Y-44429D03*
X25590Y-43759D03*
X26771Y-43759D03*
X26771Y-44429D03*
X25590Y-42854D03*
X25590Y-42184D03*
X34055Y-45334D03*
X34055Y-46004D03*
X34055Y-43759D03*
X34055Y-44429D03*
X34055Y-41279D03*
X34055Y-40609D03*
X32874Y-41279D03*
X32874Y-40609D03*
X34055Y-42184D03*
X34055Y-42854D03*
X22047Y-46004D03*
X22047Y-45334D03*
X31692Y-42854D03*
X31692Y-42184D03*
X31692Y-41279D03*
X31692Y-40609D03*
X25590Y-46004D03*
X25590Y-45334D03*
X26771Y-45334D03*
X26771Y-46004D03*
X24409Y-46004D03*
X24409Y-45334D03*
X23228Y-46004D03*
X23228Y-45334D03*
X35236Y-42972D03*
X35236Y-43642D03*
X29330Y-44429D03*
X29330Y-43759D03*
X29330Y-41279D03*
X29330Y-40609D03*
X30511Y-45334D03*
X30511Y-46004D03*
X29330Y-45334D03*
X29330Y-46004D03*
X31692Y-46004D03*
X31692Y-45334D03*
X30511Y-43759D03*
X30511Y-44429D03*
X29330Y-42184D03*
X29330Y-42854D03*
X32874Y-42854D03*
X32874Y-42184D03*
X32874Y-45334D03*
X32874Y-46004D03*
X32874Y-44429D03*
X32874Y-43759D03*
X35236Y-41279D03*
X35236Y-40609D03*
X35236Y-45334D03*
X35236Y-46004D03*
X22047Y-43759D03*
X22047Y-44429D03*
X23228Y-42854D03*
X23228Y-42184D03*
X22047Y-42184D03*
X22047Y-42854D03*
X22047Y-40609D03*
X22047Y-41279D03*
X23228Y-41279D03*
X23228Y-40609D03*
X26771Y-40609D03*
X26771Y-41279D03*
X25590Y-41279D03*
X25590Y-40609D03*
X24409Y-41279D03*
X24409Y-40609D03*
X31692Y-44429D03*
X31692Y-43759D03*
X30511Y-41279D03*
X30511Y-40609D03*
G54D12*
X34921Y-47519D03*
X33921Y-47519D03*
X32921Y-47519D03*
X31921Y-47519D03*
X30921Y-47519D03*
X29921Y-47519D03*
X28921Y-47519D03*
X27921Y-47519D03*
X26921Y-47519D03*
X25921Y-47519D03*
X24921Y-47519D03*
X23921Y-47519D03*
G54D13*
X37460Y-41397D03*
X36555Y-41397D03*
G54D14*
X37007Y-42854D03*
G54D13*
X37460Y-44940D03*
X36555Y-44940D03*
G54D14*
X37007Y-46397D03*
M02*
