%FSLAX34Y34*%
G04 Gerber Fmt 3.4, Leading zero omitted, Abs format*
G04 (created by PCBNEW (2014-02-02 BZR 4653)-product) date 2014-03-31 11:22:45 AM*
%MOIN*%
G01*
G70*
G90*
G04 APERTURE LIST*
%ADD10C,0.005906*%
%ADD11R,0.011800X0.051200*%
%ADD12R,0.023600X0.086600*%
%ADD13R,0.045000X0.032000*%
%ADD14R,0.015700X0.031400*%
%ADD15C,0.035000*%
%ADD16C,0.010000*%
G04 APERTURE END LIST*
G54D10*
G54D11*
X34663Y-44367D03*
X34913Y-44367D03*
X35173Y-44367D03*
X35423Y-44367D03*
X35423Y-42167D03*
X35168Y-42167D03*
X34913Y-42167D03*
X34658Y-42167D03*
G54D12*
X28958Y-44330D03*
X29458Y-44330D03*
X29958Y-44330D03*
X30458Y-44330D03*
X30958Y-44330D03*
X31458Y-44330D03*
X31958Y-44330D03*
X32458Y-44330D03*
X32458Y-42284D03*
X31958Y-42284D03*
X31458Y-42284D03*
X30958Y-42284D03*
X30458Y-42284D03*
X29958Y-42284D03*
X29458Y-42284D03*
X28958Y-42284D03*
G54D13*
X33464Y-42972D03*
X33464Y-43642D03*
X31889Y-46201D03*
X31889Y-45531D03*
X34251Y-45531D03*
X34251Y-46201D03*
X33070Y-45531D03*
X33070Y-46201D03*
X30708Y-45531D03*
X30708Y-46201D03*
X22834Y-43642D03*
X22834Y-42972D03*
G54D11*
X23649Y-44407D03*
X23899Y-44407D03*
X24159Y-44407D03*
X24409Y-44407D03*
X24669Y-44407D03*
X24924Y-44407D03*
X25179Y-44407D03*
X25179Y-42207D03*
X24924Y-42207D03*
X24669Y-42207D03*
X24409Y-42207D03*
X24154Y-42207D03*
X23899Y-42207D03*
X23644Y-42207D03*
G54D14*
X27814Y-42205D03*
X27559Y-42205D03*
X27304Y-42205D03*
X27304Y-42833D03*
X27559Y-42833D03*
X27814Y-42833D03*
G54D15*
X35983Y-43019D03*
X37171Y-43957D03*
X35907Y-43593D03*
X35787Y-44783D03*
X25000Y-46082D03*
X26141Y-45629D03*
X27814Y-41594D03*
X31200Y-46299D03*
X28464Y-46338D03*
X33484Y-40610D03*
X31161Y-40629D03*
X32381Y-46491D03*
X24905Y-42721D03*
X22540Y-42083D03*
X31179Y-45224D03*
X29811Y-45157D03*
X30183Y-46440D03*
X33554Y-46287D03*
X34749Y-41365D03*
X32283Y-43453D03*
X25000Y-40609D03*
X26895Y-42920D03*
X27182Y-43262D03*
X34055Y-44881D03*
X34541Y-43761D03*
X25108Y-41365D03*
X32193Y-41365D03*
X23924Y-45122D03*
X22502Y-44724D03*
X24924Y-44972D03*
X25590Y-44881D03*
X23710Y-40620D03*
X34748Y-42932D03*
X31081Y-41121D03*
X30005Y-41220D03*
G54D16*
X24409Y-44407D02*
X24409Y-44020D01*
X24409Y-43881D02*
X24409Y-44020D01*
X24707Y-43583D02*
X24409Y-43881D01*
X25162Y-43583D02*
X24707Y-43583D01*
X27436Y-45857D02*
X25162Y-43583D01*
X31465Y-45857D02*
X27436Y-45857D01*
X31519Y-45911D02*
X31465Y-45857D01*
X33464Y-42972D02*
X33464Y-42972D01*
X33464Y-42972D02*
X33464Y-42972D01*
X22923Y-44020D02*
X24409Y-44020D01*
X22834Y-43932D02*
X22923Y-44020D01*
X22834Y-43642D02*
X22834Y-43932D01*
X33464Y-42972D02*
X33464Y-42972D01*
X33464Y-42972D02*
X33464Y-42972D01*
X34239Y-42972D02*
X34218Y-42972D01*
X34658Y-42553D02*
X34239Y-42972D01*
X34658Y-42167D02*
X34658Y-42553D01*
X34218Y-42972D02*
X33464Y-42972D01*
X35983Y-43245D02*
X35983Y-43019D01*
X34491Y-43245D02*
X34218Y-42972D01*
X35983Y-43245D02*
X34491Y-43245D01*
X36413Y-43957D02*
X37171Y-43957D01*
X36413Y-44610D02*
X36413Y-43957D01*
X34221Y-46802D02*
X36413Y-44610D01*
X31918Y-46802D02*
X34221Y-46802D01*
X31519Y-46403D02*
X31918Y-46802D01*
X31519Y-45911D02*
X31519Y-46403D01*
X35991Y-43245D02*
X35983Y-43245D01*
X36413Y-43668D02*
X35991Y-43245D01*
X36413Y-43957D02*
X36413Y-43668D01*
X33070Y-45821D02*
X33070Y-45531D01*
X31608Y-45821D02*
X33070Y-45821D01*
X31519Y-45911D02*
X31608Y-45821D01*
X22834Y-43642D02*
X22834Y-43642D01*
X33070Y-45531D02*
X34251Y-45531D01*
X33070Y-45531D02*
X33070Y-45531D01*
X34251Y-45531D02*
X34251Y-45531D01*
X34251Y-45531D02*
X34251Y-45531D01*
X33464Y-42972D02*
X33464Y-42972D01*
X31458Y-42847D02*
X31458Y-42284D01*
X32984Y-42847D02*
X31458Y-42847D01*
X33109Y-42972D02*
X32984Y-42847D01*
X33464Y-42972D02*
X33109Y-42972D01*
X31458Y-42284D02*
X31458Y-42284D01*
X35736Y-43593D02*
X35423Y-43906D01*
X35907Y-43593D02*
X35736Y-43593D01*
X35423Y-43906D02*
X35423Y-44367D01*
X31458Y-44893D02*
X31458Y-44330D01*
X31506Y-44940D02*
X31458Y-44893D01*
X31506Y-45531D02*
X31506Y-44940D01*
X22834Y-42972D02*
X22834Y-42972D01*
X22834Y-42972D02*
X22834Y-42972D01*
X30708Y-45531D02*
X31506Y-45531D01*
X31889Y-45531D02*
X31889Y-45531D01*
X31889Y-45531D02*
X31506Y-45531D01*
X31889Y-45531D02*
X31889Y-45531D01*
X33464Y-43642D02*
X33464Y-43642D01*
X33109Y-43642D02*
X33464Y-43642D01*
X32984Y-43766D02*
X33109Y-43642D01*
X31458Y-43766D02*
X32984Y-43766D01*
X31458Y-44330D02*
X31458Y-43766D01*
X34953Y-43436D02*
X35423Y-43906D01*
X34025Y-43436D02*
X34953Y-43436D01*
X33819Y-43642D02*
X34025Y-43436D01*
X33464Y-43642D02*
X33819Y-43642D01*
X22834Y-42972D02*
X24409Y-42972D01*
X24409Y-42972D02*
X24409Y-42207D01*
X28654Y-45531D02*
X30708Y-45531D01*
X26211Y-43087D02*
X28654Y-45531D01*
X24524Y-43087D02*
X26211Y-43087D01*
X24409Y-42972D02*
X24524Y-43087D01*
X30708Y-45531D02*
X30708Y-45531D01*
X35173Y-44367D02*
X35173Y-44666D01*
X35173Y-44666D02*
X35289Y-44783D01*
X35289Y-44783D02*
X35787Y-44783D01*
X24159Y-44407D02*
X24159Y-44763D01*
X24159Y-44763D02*
X25000Y-45603D01*
X25000Y-45603D02*
X25000Y-46082D01*
X27814Y-42205D02*
X27559Y-42205D01*
X27814Y-41948D02*
X27814Y-42205D01*
X27814Y-41947D02*
X27814Y-41948D01*
X27814Y-41594D02*
X27814Y-41947D01*
X24669Y-44793D02*
X24669Y-44407D01*
X24159Y-44793D02*
X24669Y-44793D01*
X24159Y-44407D02*
X24159Y-44793D01*
X31889Y-46491D02*
X31889Y-46201D01*
X32381Y-46491D02*
X31889Y-46491D01*
X24154Y-41820D02*
X24154Y-42207D01*
X24669Y-41820D02*
X24154Y-41820D01*
X24669Y-42207D02*
X24669Y-41820D01*
X24669Y-44020D02*
X24669Y-44407D01*
X24708Y-44020D02*
X24669Y-44020D01*
X24835Y-43894D02*
X24708Y-44020D01*
X34251Y-46201D02*
X34251Y-46201D01*
X34074Y-46201D02*
X34251Y-46201D01*
X33682Y-46592D02*
X34074Y-46201D01*
X32483Y-46592D02*
X33682Y-46592D01*
X32381Y-46491D02*
X32483Y-46592D01*
X35173Y-45207D02*
X35173Y-44367D01*
X34469Y-45911D02*
X35173Y-45207D01*
X34251Y-45911D02*
X34469Y-45911D01*
X34251Y-46201D02*
X34251Y-45911D01*
X24669Y-42593D02*
X24669Y-42207D01*
X24777Y-42593D02*
X24669Y-42593D01*
X24905Y-42721D02*
X24777Y-42593D01*
X35423Y-42553D02*
X35423Y-42167D01*
X35720Y-42553D02*
X35423Y-42553D01*
X22803Y-41820D02*
X22540Y-42083D01*
X23644Y-41820D02*
X22803Y-41820D01*
X23644Y-42207D02*
X23644Y-41820D01*
X30458Y-44893D02*
X30458Y-44330D01*
X30790Y-45224D02*
X30458Y-44893D01*
X31179Y-45224D02*
X30790Y-45224D01*
X30458Y-44330D02*
X30458Y-44329D01*
X29958Y-45010D02*
X29958Y-44330D01*
X29811Y-45157D02*
X29958Y-45010D01*
X29958Y-44330D02*
X29958Y-44329D01*
X30353Y-46201D02*
X30708Y-46201D01*
X30353Y-46270D02*
X30353Y-46201D01*
X30183Y-46440D02*
X30353Y-46270D01*
X30708Y-46201D02*
X30708Y-46201D01*
X30708Y-46201D02*
X30708Y-46201D01*
X33070Y-46201D02*
X33070Y-46201D01*
X33425Y-46201D02*
X33070Y-46201D01*
X33512Y-46287D02*
X33425Y-46201D01*
X33554Y-46287D02*
X33512Y-46287D01*
X33070Y-46201D02*
X33070Y-46201D01*
X35165Y-41781D02*
X34749Y-41365D01*
X35168Y-41781D02*
X35165Y-41781D01*
X35168Y-42167D02*
X35168Y-41781D01*
X31272Y-43453D02*
X32283Y-43453D01*
X30958Y-43766D02*
X31272Y-43453D01*
X30958Y-44329D02*
X30958Y-43766D01*
X30958Y-44329D02*
X30958Y-44330D01*
X24793Y-40816D02*
X25000Y-40609D01*
X24793Y-41605D02*
X24793Y-40816D01*
X24924Y-41736D02*
X24793Y-41605D01*
X24924Y-42207D02*
X24924Y-41736D01*
X26895Y-42822D02*
X26895Y-42920D01*
X27171Y-42546D02*
X26895Y-42822D01*
X27559Y-42546D02*
X27171Y-42546D01*
X27559Y-42833D02*
X27559Y-42546D01*
X27230Y-43766D02*
X28958Y-43766D01*
X26590Y-43127D02*
X27230Y-43766D01*
X26590Y-42793D02*
X26590Y-43127D01*
X27178Y-42205D02*
X26590Y-42793D01*
X27304Y-42205D02*
X27178Y-42205D01*
X28958Y-44330D02*
X28958Y-43766D01*
X27304Y-43140D02*
X27182Y-43262D01*
X27304Y-42833D02*
X27304Y-43140D01*
X28772Y-42847D02*
X28958Y-42847D01*
X28471Y-42546D02*
X28772Y-42847D01*
X27814Y-42546D02*
X28471Y-42546D01*
X27814Y-42833D02*
X27814Y-42546D01*
X28958Y-42284D02*
X28958Y-42847D01*
X34535Y-44881D02*
X34055Y-44881D01*
X34663Y-44753D02*
X34535Y-44881D01*
X34663Y-44367D02*
X34663Y-44753D01*
X34693Y-43761D02*
X34541Y-43761D01*
X34913Y-43981D02*
X34693Y-43761D01*
X34913Y-44367D02*
X34913Y-43981D01*
X25179Y-41436D02*
X25108Y-41365D01*
X25179Y-42207D02*
X25179Y-41436D01*
X30958Y-41720D02*
X30958Y-42284D01*
X31838Y-41720D02*
X30958Y-41720D01*
X32193Y-41365D02*
X31838Y-41720D01*
X30958Y-42284D02*
X30958Y-42284D01*
X23924Y-44817D02*
X23924Y-45122D01*
X23899Y-44793D02*
X23924Y-44817D01*
X23899Y-44407D02*
X23899Y-44793D01*
X22571Y-44793D02*
X22502Y-44724D01*
X23649Y-44793D02*
X22571Y-44793D01*
X23649Y-44407D02*
X23649Y-44793D01*
X24924Y-44972D02*
X24924Y-44407D01*
X25501Y-44793D02*
X25590Y-44881D01*
X25179Y-44793D02*
X25501Y-44793D01*
X25179Y-44407D02*
X25179Y-44793D01*
X23899Y-40809D02*
X23710Y-40620D01*
X23899Y-42207D02*
X23899Y-40809D01*
X34913Y-42768D02*
X34748Y-42932D01*
X34913Y-42167D02*
X34913Y-42768D01*
X30458Y-41720D02*
X30458Y-42284D01*
X30481Y-41720D02*
X30458Y-41720D01*
X31081Y-41121D02*
X30481Y-41720D01*
X30458Y-42284D02*
X30458Y-42284D01*
X29958Y-41267D02*
X29958Y-42284D01*
X30005Y-41220D02*
X29958Y-41267D01*
X29958Y-42284D02*
X29958Y-42284D01*
G54D10*
G36*
X24200Y-44457D02*
X24188Y-44457D01*
X24188Y-44464D01*
X24129Y-44464D01*
X24129Y-44457D01*
X24108Y-44457D01*
X24108Y-44357D01*
X24129Y-44357D01*
X24129Y-44349D01*
X24188Y-44349D01*
X24188Y-44357D01*
X24200Y-44357D01*
X24200Y-44457D01*
X24200Y-44457D01*
G37*
G54D16*
X24200Y-44457D02*
X24188Y-44457D01*
X24188Y-44464D01*
X24129Y-44464D01*
X24129Y-44457D01*
X24108Y-44457D01*
X24108Y-44357D01*
X24129Y-44357D01*
X24129Y-44349D01*
X24188Y-44349D01*
X24188Y-44357D01*
X24200Y-44357D01*
X24200Y-44457D01*
G54D10*
G36*
X24715Y-44457D02*
X24698Y-44457D01*
X24698Y-44464D01*
X24639Y-44464D01*
X24639Y-44457D01*
X24618Y-44457D01*
X24618Y-44357D01*
X24639Y-44357D01*
X24639Y-44349D01*
X24698Y-44349D01*
X24698Y-44357D01*
X24715Y-44357D01*
X24715Y-44457D01*
X24715Y-44457D01*
G37*
G54D16*
X24715Y-44457D02*
X24698Y-44457D01*
X24698Y-44464D01*
X24639Y-44464D01*
X24639Y-44457D01*
X24618Y-44457D01*
X24618Y-44357D01*
X24639Y-44357D01*
X24639Y-44349D01*
X24698Y-44349D01*
X24698Y-44357D01*
X24715Y-44357D01*
X24715Y-44457D01*
G54D10*
G36*
X25317Y-44021D02*
X25268Y-44001D01*
X25208Y-44001D01*
X25090Y-44001D01*
X25051Y-44017D01*
X25013Y-44001D01*
X24953Y-44001D01*
X24932Y-44001D01*
X24870Y-43939D01*
X24778Y-43901D01*
X24761Y-43901D01*
X24719Y-43943D01*
X24719Y-43901D01*
X24672Y-43901D01*
X24789Y-43783D01*
X25080Y-43783D01*
X25317Y-44021D01*
X25317Y-44021D01*
G37*
G54D16*
X25317Y-44021D02*
X25268Y-44001D01*
X25208Y-44001D01*
X25090Y-44001D01*
X25051Y-44017D01*
X25013Y-44001D01*
X24953Y-44001D01*
X24932Y-44001D01*
X24870Y-43939D01*
X24778Y-43901D01*
X24761Y-43901D01*
X24719Y-43943D01*
X24719Y-43901D01*
X24672Y-43901D01*
X24789Y-43783D01*
X25080Y-43783D01*
X25317Y-44021D01*
G54D10*
G36*
X33464Y-46602D02*
X32185Y-46602D01*
X32256Y-46573D01*
X32326Y-46502D01*
X32364Y-46410D01*
X32364Y-46313D01*
X32302Y-46251D01*
X31939Y-46251D01*
X31939Y-46259D01*
X31839Y-46259D01*
X31839Y-46251D01*
X31831Y-46251D01*
X31831Y-46151D01*
X31839Y-46151D01*
X31839Y-46143D01*
X31939Y-46143D01*
X31939Y-46151D01*
X32302Y-46151D01*
X32364Y-46088D01*
X32364Y-46021D01*
X32695Y-46021D01*
X32695Y-46070D01*
X32695Y-46390D01*
X32718Y-46446D01*
X32760Y-46488D01*
X32816Y-46511D01*
X32875Y-46511D01*
X33318Y-46511D01*
X33370Y-46563D01*
X33464Y-46602D01*
X33464Y-46602D01*
G37*
G54D16*
X33464Y-46602D02*
X32185Y-46602D01*
X32256Y-46573D01*
X32326Y-46502D01*
X32364Y-46410D01*
X32364Y-46313D01*
X32302Y-46251D01*
X31939Y-46251D01*
X31939Y-46259D01*
X31839Y-46259D01*
X31839Y-46251D01*
X31831Y-46251D01*
X31831Y-46151D01*
X31839Y-46151D01*
X31839Y-46143D01*
X31939Y-46143D01*
X31939Y-46151D01*
X32302Y-46151D01*
X32364Y-46088D01*
X32364Y-46021D01*
X32695Y-46021D01*
X32695Y-46070D01*
X32695Y-46390D01*
X32718Y-46446D01*
X32760Y-46488D01*
X32816Y-46511D01*
X32875Y-46511D01*
X33318Y-46511D01*
X33370Y-46563D01*
X33464Y-46602D01*
G54D10*
G36*
X33956Y-46602D02*
X33644Y-46602D01*
X33738Y-46563D01*
X33810Y-46491D01*
X33815Y-46502D01*
X33885Y-46573D01*
X33956Y-46602D01*
X33956Y-46602D01*
G37*
G54D16*
X33956Y-46602D02*
X33644Y-46602D01*
X33738Y-46563D01*
X33810Y-46491D01*
X33815Y-46502D01*
X33885Y-46573D01*
X33956Y-46602D01*
G54D10*
G36*
X34309Y-46251D02*
X34301Y-46251D01*
X34301Y-46259D01*
X34201Y-46259D01*
X34201Y-46251D01*
X34194Y-46251D01*
X34194Y-46151D01*
X34201Y-46151D01*
X34201Y-46143D01*
X34301Y-46143D01*
X34301Y-46151D01*
X34309Y-46151D01*
X34309Y-46251D01*
X34309Y-46251D01*
G37*
G54D16*
X34309Y-46251D02*
X34301Y-46251D01*
X34301Y-46259D01*
X34201Y-46259D01*
X34201Y-46251D01*
X34194Y-46251D01*
X34194Y-46151D01*
X34201Y-46151D01*
X34201Y-46143D01*
X34301Y-46143D01*
X34301Y-46151D01*
X34309Y-46151D01*
X34309Y-46251D01*
G54D10*
G36*
X36213Y-44527D02*
X34726Y-46014D01*
X34726Y-45991D01*
X34688Y-45899D01*
X34618Y-45829D01*
X34570Y-45809D01*
X34604Y-45776D01*
X34626Y-45720D01*
X34626Y-45661D01*
X34626Y-45341D01*
X34604Y-45286D01*
X34561Y-45243D01*
X34506Y-45221D01*
X34447Y-45221D01*
X33997Y-45221D01*
X33942Y-45243D01*
X33899Y-45286D01*
X33881Y-45331D01*
X33441Y-45331D01*
X33423Y-45286D01*
X33380Y-45243D01*
X33325Y-45221D01*
X33266Y-45221D01*
X32816Y-45221D01*
X32760Y-45243D01*
X32718Y-45286D01*
X32695Y-45341D01*
X32695Y-45400D01*
X32695Y-45621D01*
X32264Y-45621D01*
X32264Y-45341D01*
X32241Y-45286D01*
X32199Y-45243D01*
X32144Y-45221D01*
X32084Y-45221D01*
X31706Y-45221D01*
X31706Y-44940D01*
X31691Y-44864D01*
X31689Y-44862D01*
X31703Y-44848D01*
X31708Y-44836D01*
X31713Y-44848D01*
X31755Y-44890D01*
X31810Y-44913D01*
X31870Y-44913D01*
X32106Y-44913D01*
X32161Y-44890D01*
X32203Y-44848D01*
X32208Y-44836D01*
X32213Y-44848D01*
X32255Y-44890D01*
X32310Y-44913D01*
X32370Y-44913D01*
X32606Y-44913D01*
X32661Y-44890D01*
X32703Y-44848D01*
X32726Y-44792D01*
X32726Y-44733D01*
X32726Y-43966D01*
X32984Y-43966D01*
X32984Y-43966D01*
X33022Y-43959D01*
X33061Y-43951D01*
X33061Y-43951D01*
X33061Y-43951D01*
X33093Y-43930D01*
X33125Y-43908D01*
X33125Y-43908D01*
X33129Y-43904D01*
X33154Y-43929D01*
X33209Y-43952D01*
X33269Y-43952D01*
X33719Y-43952D01*
X33774Y-43929D01*
X33816Y-43887D01*
X33836Y-43838D01*
X33857Y-43834D01*
X33896Y-43826D01*
X33896Y-43826D01*
X33896Y-43826D01*
X33928Y-43805D01*
X33961Y-43783D01*
X33961Y-43783D01*
X33961Y-43783D01*
X34107Y-43636D01*
X34241Y-43636D01*
X34216Y-43696D01*
X34216Y-43826D01*
X34265Y-43945D01*
X34356Y-44037D01*
X34455Y-44078D01*
X34454Y-44081D01*
X34454Y-44141D01*
X34454Y-44653D01*
X34461Y-44672D01*
X34452Y-44681D01*
X34314Y-44681D01*
X34239Y-44606D01*
X34120Y-44556D01*
X33990Y-44556D01*
X33871Y-44606D01*
X33779Y-44697D01*
X33730Y-44816D01*
X33730Y-44946D01*
X33779Y-45065D01*
X33870Y-45157D01*
X33990Y-45206D01*
X34119Y-45206D01*
X34238Y-45157D01*
X34314Y-45081D01*
X34535Y-45081D01*
X34535Y-45081D01*
X34573Y-45074D01*
X34611Y-45066D01*
X34611Y-45066D01*
X34611Y-45066D01*
X34644Y-45044D01*
X34676Y-45023D01*
X34676Y-45023D01*
X34804Y-44895D01*
X34804Y-44895D01*
X34804Y-44895D01*
X34826Y-44863D01*
X34847Y-44830D01*
X34847Y-44830D01*
X34848Y-44830D01*
X34855Y-44792D01*
X34859Y-44773D01*
X34884Y-44773D01*
X34910Y-44773D01*
X34972Y-44835D01*
X35064Y-44873D01*
X35081Y-44873D01*
X35143Y-44811D01*
X35143Y-44417D01*
X35122Y-44417D01*
X35122Y-44317D01*
X35143Y-44317D01*
X35143Y-44309D01*
X35202Y-44309D01*
X35202Y-44317D01*
X35214Y-44317D01*
X35214Y-44417D01*
X35202Y-44417D01*
X35202Y-44811D01*
X35265Y-44873D01*
X35281Y-44873D01*
X35373Y-44835D01*
X35435Y-44773D01*
X35512Y-44773D01*
X35567Y-44750D01*
X35609Y-44708D01*
X35632Y-44653D01*
X35632Y-44593D01*
X35632Y-44081D01*
X35623Y-44060D01*
X35623Y-43989D01*
X35737Y-43874D01*
X35842Y-43918D01*
X35971Y-43918D01*
X36091Y-43868D01*
X36182Y-43777D01*
X36199Y-43736D01*
X36213Y-43750D01*
X36213Y-43957D01*
X36213Y-44527D01*
X36213Y-44527D01*
G37*
G54D16*
X36213Y-44527D02*
X34726Y-46014D01*
X34726Y-45991D01*
X34688Y-45899D01*
X34618Y-45829D01*
X34570Y-45809D01*
X34604Y-45776D01*
X34626Y-45720D01*
X34626Y-45661D01*
X34626Y-45341D01*
X34604Y-45286D01*
X34561Y-45243D01*
X34506Y-45221D01*
X34447Y-45221D01*
X33997Y-45221D01*
X33942Y-45243D01*
X33899Y-45286D01*
X33881Y-45331D01*
X33441Y-45331D01*
X33423Y-45286D01*
X33380Y-45243D01*
X33325Y-45221D01*
X33266Y-45221D01*
X32816Y-45221D01*
X32760Y-45243D01*
X32718Y-45286D01*
X32695Y-45341D01*
X32695Y-45400D01*
X32695Y-45621D01*
X32264Y-45621D01*
X32264Y-45341D01*
X32241Y-45286D01*
X32199Y-45243D01*
X32144Y-45221D01*
X32084Y-45221D01*
X31706Y-45221D01*
X31706Y-44940D01*
X31691Y-44864D01*
X31689Y-44862D01*
X31703Y-44848D01*
X31708Y-44836D01*
X31713Y-44848D01*
X31755Y-44890D01*
X31810Y-44913D01*
X31870Y-44913D01*
X32106Y-44913D01*
X32161Y-44890D01*
X32203Y-44848D01*
X32208Y-44836D01*
X32213Y-44848D01*
X32255Y-44890D01*
X32310Y-44913D01*
X32370Y-44913D01*
X32606Y-44913D01*
X32661Y-44890D01*
X32703Y-44848D01*
X32726Y-44792D01*
X32726Y-44733D01*
X32726Y-43966D01*
X32984Y-43966D01*
X32984Y-43966D01*
X33022Y-43959D01*
X33061Y-43951D01*
X33061Y-43951D01*
X33061Y-43951D01*
X33093Y-43930D01*
X33125Y-43908D01*
X33125Y-43908D01*
X33129Y-43904D01*
X33154Y-43929D01*
X33209Y-43952D01*
X33269Y-43952D01*
X33719Y-43952D01*
X33774Y-43929D01*
X33816Y-43887D01*
X33836Y-43838D01*
X33857Y-43834D01*
X33896Y-43826D01*
X33896Y-43826D01*
X33896Y-43826D01*
X33928Y-43805D01*
X33961Y-43783D01*
X33961Y-43783D01*
X33961Y-43783D01*
X34107Y-43636D01*
X34241Y-43636D01*
X34216Y-43696D01*
X34216Y-43826D01*
X34265Y-43945D01*
X34356Y-44037D01*
X34455Y-44078D01*
X34454Y-44081D01*
X34454Y-44141D01*
X34454Y-44653D01*
X34461Y-44672D01*
X34452Y-44681D01*
X34314Y-44681D01*
X34239Y-44606D01*
X34120Y-44556D01*
X33990Y-44556D01*
X33871Y-44606D01*
X33779Y-44697D01*
X33730Y-44816D01*
X33730Y-44946D01*
X33779Y-45065D01*
X33870Y-45157D01*
X33990Y-45206D01*
X34119Y-45206D01*
X34238Y-45157D01*
X34314Y-45081D01*
X34535Y-45081D01*
X34535Y-45081D01*
X34573Y-45074D01*
X34611Y-45066D01*
X34611Y-45066D01*
X34611Y-45066D01*
X34644Y-45044D01*
X34676Y-45023D01*
X34676Y-45023D01*
X34804Y-44895D01*
X34804Y-44895D01*
X34804Y-44895D01*
X34826Y-44863D01*
X34847Y-44830D01*
X34847Y-44830D01*
X34848Y-44830D01*
X34855Y-44792D01*
X34859Y-44773D01*
X34884Y-44773D01*
X34910Y-44773D01*
X34972Y-44835D01*
X35064Y-44873D01*
X35081Y-44873D01*
X35143Y-44811D01*
X35143Y-44417D01*
X35122Y-44417D01*
X35122Y-44317D01*
X35143Y-44317D01*
X35143Y-44309D01*
X35202Y-44309D01*
X35202Y-44317D01*
X35214Y-44317D01*
X35214Y-44417D01*
X35202Y-44417D01*
X35202Y-44811D01*
X35265Y-44873D01*
X35281Y-44873D01*
X35373Y-44835D01*
X35435Y-44773D01*
X35512Y-44773D01*
X35567Y-44750D01*
X35609Y-44708D01*
X35632Y-44653D01*
X35632Y-44593D01*
X35632Y-44081D01*
X35623Y-44060D01*
X35623Y-43989D01*
X35737Y-43874D01*
X35842Y-43918D01*
X35971Y-43918D01*
X36091Y-43868D01*
X36182Y-43777D01*
X36199Y-43736D01*
X36213Y-43750D01*
X36213Y-43957D01*
X36213Y-44527D01*
G54D10*
G36*
X38019Y-48255D02*
X37496Y-48255D01*
X37496Y-43893D01*
X37447Y-43773D01*
X37355Y-43682D01*
X37236Y-43632D01*
X37107Y-43632D01*
X36987Y-43681D01*
X36911Y-43757D01*
X36613Y-43757D01*
X36613Y-43668D01*
X36613Y-43668D01*
X36613Y-43668D01*
X36606Y-43630D01*
X36598Y-43591D01*
X36598Y-43591D01*
X36598Y-43591D01*
X36577Y-43559D01*
X36555Y-43526D01*
X36555Y-43526D01*
X36555Y-43526D01*
X36245Y-43216D01*
X36258Y-43203D01*
X36308Y-43084D01*
X36308Y-42954D01*
X36258Y-42835D01*
X36167Y-42743D01*
X36048Y-42694D01*
X35918Y-42694D01*
X35799Y-42743D01*
X35732Y-42810D01*
X35732Y-42473D01*
X35732Y-42373D01*
X35732Y-42280D01*
X35732Y-42055D01*
X35732Y-41961D01*
X35732Y-41861D01*
X35694Y-41770D01*
X35623Y-41699D01*
X35531Y-41661D01*
X35515Y-41661D01*
X35452Y-41724D01*
X35452Y-42117D01*
X35669Y-42117D01*
X35732Y-42055D01*
X35732Y-42280D01*
X35669Y-42217D01*
X35452Y-42217D01*
X35452Y-42611D01*
X35515Y-42673D01*
X35531Y-42673D01*
X35623Y-42635D01*
X35694Y-42565D01*
X35732Y-42473D01*
X35732Y-42810D01*
X35707Y-42834D01*
X35658Y-42954D01*
X35658Y-43045D01*
X35053Y-43045D01*
X35073Y-42997D01*
X35073Y-42881D01*
X35076Y-42877D01*
X35097Y-42844D01*
X35097Y-42844D01*
X35098Y-42844D01*
X35105Y-42806D01*
X35113Y-42768D01*
X35113Y-42768D01*
X35113Y-42768D01*
X35113Y-42573D01*
X35139Y-42573D01*
X35160Y-42573D01*
X35222Y-42635D01*
X35314Y-42673D01*
X35331Y-42673D01*
X35393Y-42611D01*
X35393Y-42217D01*
X35377Y-42217D01*
X35377Y-42117D01*
X35393Y-42117D01*
X35393Y-41724D01*
X35331Y-41661D01*
X35324Y-41661D01*
X35309Y-41640D01*
X35301Y-41634D01*
X35074Y-41407D01*
X35074Y-41301D01*
X35025Y-41181D01*
X34934Y-41090D01*
X34814Y-41040D01*
X34685Y-41040D01*
X34565Y-41090D01*
X34474Y-41181D01*
X34424Y-41300D01*
X34424Y-41430D01*
X34474Y-41549D01*
X34565Y-41641D01*
X34684Y-41690D01*
X34792Y-41690D01*
X34862Y-41761D01*
X34824Y-41761D01*
X34785Y-41777D01*
X34747Y-41761D01*
X34687Y-41761D01*
X34569Y-41761D01*
X34514Y-41784D01*
X34472Y-41826D01*
X34449Y-41881D01*
X34449Y-41941D01*
X34449Y-42453D01*
X34456Y-42472D01*
X34157Y-42772D01*
X33835Y-42772D01*
X33816Y-42727D01*
X33774Y-42684D01*
X33719Y-42662D01*
X33659Y-42662D01*
X33209Y-42662D01*
X33154Y-42684D01*
X33129Y-42709D01*
X33125Y-42705D01*
X33093Y-42683D01*
X33061Y-42662D01*
X33061Y-42662D01*
X33061Y-42662D01*
X33022Y-42654D01*
X32984Y-42647D01*
X32984Y-42647D01*
X32726Y-42647D01*
X32726Y-41821D01*
X32703Y-41766D01*
X32661Y-41723D01*
X32606Y-41701D01*
X32546Y-41701D01*
X32310Y-41701D01*
X32255Y-41723D01*
X32213Y-41766D01*
X32208Y-41777D01*
X32203Y-41766D01*
X32161Y-41723D01*
X32130Y-41711D01*
X32151Y-41690D01*
X32257Y-41690D01*
X32377Y-41641D01*
X32468Y-41550D01*
X32518Y-41430D01*
X32518Y-41301D01*
X32469Y-41181D01*
X32377Y-41090D01*
X32258Y-41040D01*
X32129Y-41040D01*
X32009Y-41090D01*
X31918Y-41181D01*
X31868Y-41300D01*
X31868Y-41407D01*
X31755Y-41520D01*
X30964Y-41520D01*
X31038Y-41446D01*
X31145Y-41446D01*
X31264Y-41396D01*
X31356Y-41305D01*
X31405Y-41186D01*
X31406Y-41056D01*
X31356Y-40937D01*
X31265Y-40845D01*
X31145Y-40796D01*
X31016Y-40796D01*
X30897Y-40845D01*
X30805Y-40936D01*
X30756Y-41056D01*
X30755Y-41163D01*
X30383Y-41535D01*
X30382Y-41536D01*
X30317Y-41579D01*
X30273Y-41644D01*
X30258Y-41720D01*
X30258Y-41722D01*
X30255Y-41723D01*
X30213Y-41766D01*
X30208Y-41777D01*
X30203Y-41766D01*
X30161Y-41723D01*
X30158Y-41722D01*
X30158Y-41509D01*
X30189Y-41496D01*
X30280Y-41405D01*
X30330Y-41285D01*
X30330Y-41156D01*
X30281Y-41037D01*
X30189Y-40945D01*
X30070Y-40895D01*
X29941Y-40895D01*
X29821Y-40945D01*
X29730Y-41036D01*
X29680Y-41155D01*
X29680Y-41285D01*
X29729Y-41404D01*
X29758Y-41433D01*
X29758Y-41722D01*
X29755Y-41723D01*
X29713Y-41766D01*
X29708Y-41777D01*
X29703Y-41766D01*
X29661Y-41723D01*
X29606Y-41701D01*
X29546Y-41701D01*
X29310Y-41701D01*
X29255Y-41723D01*
X29213Y-41766D01*
X29208Y-41777D01*
X29203Y-41766D01*
X29161Y-41723D01*
X29106Y-41701D01*
X29046Y-41701D01*
X28810Y-41701D01*
X28755Y-41723D01*
X28713Y-41766D01*
X28690Y-41821D01*
X28690Y-41880D01*
X28690Y-42482D01*
X28613Y-42405D01*
X28548Y-42361D01*
X28471Y-42346D01*
X28142Y-42346D01*
X28142Y-42318D01*
X28080Y-42255D01*
X27853Y-42255D01*
X27853Y-42263D01*
X27832Y-42263D01*
X27825Y-42255D01*
X27774Y-42255D01*
X27756Y-42255D01*
X27756Y-42155D01*
X27774Y-42155D01*
X27825Y-42155D01*
X27853Y-42127D01*
X27853Y-42155D01*
X28080Y-42155D01*
X28142Y-42093D01*
X28142Y-41998D01*
X28104Y-41907D01*
X28034Y-41836D01*
X27942Y-41798D01*
X27915Y-41798D01*
X27853Y-41861D01*
X27853Y-41916D01*
X27849Y-41907D01*
X27779Y-41836D01*
X27729Y-41816D01*
X27712Y-41798D01*
X27687Y-41798D01*
X27685Y-41798D01*
X27660Y-41798D01*
X27643Y-41816D01*
X27593Y-41836D01*
X27523Y-41907D01*
X27519Y-41916D01*
X27519Y-41861D01*
X27457Y-41798D01*
X27430Y-41798D01*
X27338Y-41836D01*
X27277Y-41898D01*
X27195Y-41898D01*
X27140Y-41921D01*
X27098Y-41963D01*
X27075Y-42018D01*
X27075Y-42038D01*
X27037Y-42064D01*
X26449Y-42652D01*
X26405Y-42717D01*
X26390Y-42793D01*
X26390Y-42984D01*
X26352Y-42946D01*
X26287Y-42902D01*
X26211Y-42887D01*
X25433Y-42887D01*
X24609Y-42887D01*
X24609Y-42681D01*
X24639Y-42650D01*
X24639Y-42257D01*
X24618Y-42257D01*
X24618Y-42157D01*
X24639Y-42157D01*
X24639Y-42149D01*
X24698Y-42149D01*
X24698Y-42157D01*
X24715Y-42157D01*
X24715Y-42257D01*
X24698Y-42257D01*
X24698Y-42650D01*
X24761Y-42713D01*
X24778Y-42713D01*
X24870Y-42675D01*
X24932Y-42613D01*
X25013Y-42613D01*
X25051Y-42597D01*
X25090Y-42613D01*
X25150Y-42613D01*
X25268Y-42613D01*
X25323Y-42590D01*
X25365Y-42548D01*
X25388Y-42492D01*
X25388Y-42433D01*
X25388Y-41921D01*
X25379Y-41899D01*
X25379Y-41554D01*
X25384Y-41550D01*
X25433Y-41430D01*
X25433Y-41301D01*
X25384Y-41181D01*
X25293Y-41090D01*
X25173Y-41040D01*
X25044Y-41040D01*
X24993Y-41061D01*
X24993Y-40934D01*
X25064Y-40934D01*
X25183Y-40885D01*
X25275Y-40794D01*
X25324Y-40674D01*
X25325Y-40545D01*
X25275Y-40425D01*
X25184Y-40334D01*
X25064Y-40284D01*
X24935Y-40284D01*
X24816Y-40334D01*
X24724Y-40425D01*
X24675Y-40544D01*
X24674Y-40651D01*
X24651Y-40675D01*
X24651Y-40675D01*
X24651Y-40675D01*
X24630Y-40707D01*
X24608Y-40739D01*
X24608Y-40739D01*
X24608Y-40739D01*
X24600Y-40778D01*
X24593Y-40816D01*
X24593Y-40816D01*
X24593Y-40816D01*
X24593Y-41605D01*
X24593Y-41605D01*
X24593Y-41605D01*
X24600Y-41643D01*
X24608Y-41682D01*
X24608Y-41682D01*
X24608Y-41682D01*
X24620Y-41701D01*
X24619Y-41701D01*
X24619Y-41743D01*
X24577Y-41701D01*
X24560Y-41701D01*
X24468Y-41739D01*
X24411Y-41796D01*
X24355Y-41739D01*
X24263Y-41701D01*
X24246Y-41701D01*
X24183Y-41763D01*
X24183Y-42157D01*
X24200Y-42157D01*
X24200Y-42257D01*
X24183Y-42257D01*
X24183Y-42650D01*
X24209Y-42676D01*
X24209Y-42772D01*
X24124Y-42772D01*
X24124Y-42650D01*
X24124Y-42257D01*
X24108Y-42257D01*
X24108Y-42157D01*
X24124Y-42157D01*
X24124Y-41763D01*
X24099Y-41738D01*
X24099Y-40809D01*
X24084Y-40732D01*
X24040Y-40668D01*
X24035Y-40662D01*
X24035Y-40555D01*
X23985Y-40436D01*
X23894Y-40344D01*
X23775Y-40295D01*
X23645Y-40295D01*
X23526Y-40344D01*
X23434Y-40435D01*
X23385Y-40555D01*
X23385Y-40684D01*
X23434Y-40803D01*
X23525Y-40895D01*
X23645Y-40945D01*
X23699Y-40945D01*
X23699Y-41631D01*
X23644Y-41620D01*
X22803Y-41620D01*
X22803Y-41620D01*
X22803Y-41620D01*
X22766Y-41628D01*
X22726Y-41636D01*
X22726Y-41636D01*
X22726Y-41636D01*
X22695Y-41657D01*
X22661Y-41679D01*
X22661Y-41679D01*
X22661Y-41679D01*
X22582Y-41758D01*
X22476Y-41758D01*
X22356Y-41807D01*
X22265Y-41899D01*
X22215Y-42018D01*
X22215Y-42147D01*
X22265Y-42267D01*
X22356Y-42358D01*
X22475Y-42408D01*
X22605Y-42408D01*
X22724Y-42359D01*
X22816Y-42267D01*
X22865Y-42148D01*
X22865Y-42041D01*
X22886Y-42020D01*
X23435Y-42020D01*
X23435Y-42492D01*
X23458Y-42548D01*
X23500Y-42590D01*
X23555Y-42613D01*
X23615Y-42613D01*
X23733Y-42613D01*
X23771Y-42597D01*
X23810Y-42613D01*
X23870Y-42613D01*
X23891Y-42613D01*
X23953Y-42675D01*
X24045Y-42713D01*
X24062Y-42713D01*
X24124Y-42650D01*
X24124Y-42772D01*
X23205Y-42772D01*
X23186Y-42727D01*
X23144Y-42684D01*
X23089Y-42662D01*
X23029Y-42662D01*
X22579Y-42662D01*
X22524Y-42684D01*
X22482Y-42727D01*
X22459Y-42782D01*
X22459Y-42841D01*
X22459Y-43161D01*
X22482Y-43217D01*
X22524Y-43259D01*
X22579Y-43282D01*
X22639Y-43282D01*
X23089Y-43282D01*
X23144Y-43259D01*
X23186Y-43217D01*
X23205Y-43172D01*
X24326Y-43172D01*
X24383Y-43228D01*
X24448Y-43272D01*
X24448Y-43272D01*
X24461Y-43274D01*
X24524Y-43287D01*
X26128Y-43287D01*
X28497Y-45657D01*
X27519Y-45657D01*
X25304Y-43442D01*
X25270Y-43419D01*
X25239Y-43399D01*
X25239Y-43399D01*
X25239Y-43399D01*
X25202Y-43391D01*
X25162Y-43383D01*
X25162Y-43383D01*
X24707Y-43383D01*
X24706Y-43383D01*
X24706Y-43383D01*
X24668Y-43391D01*
X24630Y-43399D01*
X24630Y-43399D01*
X24630Y-43399D01*
X24596Y-43421D01*
X24565Y-43442D01*
X24565Y-43442D01*
X24565Y-43442D01*
X24268Y-43740D01*
X24245Y-43773D01*
X24224Y-43804D01*
X24224Y-43804D01*
X24224Y-43804D01*
X24221Y-43820D01*
X23209Y-43820D01*
X23209Y-43772D01*
X23209Y-43452D01*
X23186Y-43397D01*
X23144Y-43354D01*
X23089Y-43332D01*
X23029Y-43332D01*
X22579Y-43332D01*
X22524Y-43354D01*
X22482Y-43397D01*
X22459Y-43452D01*
X22459Y-43511D01*
X22459Y-43831D01*
X22482Y-43887D01*
X22524Y-43929D01*
X22579Y-43952D01*
X22638Y-43952D01*
X22642Y-43970D01*
X22649Y-44008D01*
X22649Y-44008D01*
X22649Y-44009D01*
X22671Y-44041D01*
X22693Y-44073D01*
X22693Y-44073D01*
X22693Y-44073D01*
X22782Y-44162D01*
X22782Y-44162D01*
X22814Y-44184D01*
X22846Y-44205D01*
X22846Y-44205D01*
X22847Y-44205D01*
X22885Y-44213D01*
X22923Y-44220D01*
X23440Y-44220D01*
X23440Y-44593D01*
X22800Y-44593D01*
X22778Y-44540D01*
X22686Y-44448D01*
X22567Y-44399D01*
X22438Y-44398D01*
X22318Y-44448D01*
X22227Y-44539D01*
X22177Y-44659D01*
X22177Y-44788D01*
X22226Y-44907D01*
X22318Y-44999D01*
X22437Y-45048D01*
X22566Y-45049D01*
X22686Y-44999D01*
X22692Y-44993D01*
X23625Y-44993D01*
X23599Y-45057D01*
X23599Y-45186D01*
X23648Y-45306D01*
X23739Y-45397D01*
X23859Y-45447D01*
X23988Y-45447D01*
X24107Y-45398D01*
X24199Y-45306D01*
X24249Y-45187D01*
X24249Y-45058D01*
X24199Y-44938D01*
X24174Y-44913D01*
X24209Y-44913D01*
X24209Y-44871D01*
X24251Y-44913D01*
X24268Y-44913D01*
X24360Y-44875D01*
X24414Y-44820D01*
X24468Y-44875D01*
X24560Y-44913D01*
X24577Y-44913D01*
X24611Y-44879D01*
X24599Y-44907D01*
X24599Y-45037D01*
X24648Y-45156D01*
X24740Y-45248D01*
X24859Y-45297D01*
X24988Y-45297D01*
X25108Y-45248D01*
X25199Y-45157D01*
X25249Y-45037D01*
X25249Y-44993D01*
X25284Y-44993D01*
X25314Y-45065D01*
X25406Y-45157D01*
X25525Y-45206D01*
X25654Y-45206D01*
X25774Y-45157D01*
X25865Y-45066D01*
X25915Y-44946D01*
X25915Y-44817D01*
X25866Y-44698D01*
X25774Y-44606D01*
X25655Y-44556D01*
X25526Y-44556D01*
X25437Y-44593D01*
X25388Y-44593D01*
X25388Y-44121D01*
X25367Y-44071D01*
X27294Y-45998D01*
X27294Y-45998D01*
X27327Y-46020D01*
X27359Y-46041D01*
X27359Y-46041D01*
X27359Y-46041D01*
X27396Y-46049D01*
X27436Y-46057D01*
X27436Y-46057D01*
X30216Y-46057D01*
X30212Y-46059D01*
X30174Y-46115D01*
X30119Y-46115D01*
X30000Y-46164D01*
X29908Y-46256D01*
X29858Y-46375D01*
X29858Y-46504D01*
X29908Y-46624D01*
X29999Y-46715D01*
X30118Y-46765D01*
X30248Y-46765D01*
X30367Y-46716D01*
X30459Y-46624D01*
X30506Y-46511D01*
X30513Y-46511D01*
X30963Y-46511D01*
X31018Y-46488D01*
X31060Y-46446D01*
X31083Y-46390D01*
X31083Y-46331D01*
X31083Y-46057D01*
X31319Y-46057D01*
X31319Y-46403D01*
X31319Y-46403D01*
X31327Y-46443D01*
X31334Y-46479D01*
X31334Y-46479D01*
X31334Y-46479D01*
X31355Y-46511D01*
X31377Y-46544D01*
X31776Y-46943D01*
X31776Y-46943D01*
X31776Y-46943D01*
X31808Y-46964D01*
X31841Y-46987D01*
X31841Y-46987D01*
X31841Y-46987D01*
X31881Y-46995D01*
X31918Y-47002D01*
X31918Y-47002D01*
X31918Y-47002D01*
X34221Y-47002D01*
X34221Y-47002D01*
X34258Y-46994D01*
X34298Y-46987D01*
X34298Y-46987D01*
X34298Y-46987D01*
X34328Y-46967D01*
X34362Y-46943D01*
X34362Y-46943D01*
X36555Y-44751D01*
X36555Y-44751D01*
X36555Y-44751D01*
X36576Y-44719D01*
X36598Y-44686D01*
X36598Y-44686D01*
X36598Y-44686D01*
X36606Y-44648D01*
X36613Y-44610D01*
X36613Y-44610D01*
X36613Y-44610D01*
X36613Y-44157D01*
X36911Y-44157D01*
X36987Y-44232D01*
X37106Y-44282D01*
X37235Y-44282D01*
X37355Y-44233D01*
X37446Y-44141D01*
X37496Y-44022D01*
X37496Y-43893D01*
X37496Y-48255D01*
X21429Y-48255D01*
X21429Y-39933D01*
X38019Y-39933D01*
X38019Y-48255D01*
X38019Y-48255D01*
G37*
G54D16*
X38019Y-48255D02*
X37496Y-48255D01*
X37496Y-43893D01*
X37447Y-43773D01*
X37355Y-43682D01*
X37236Y-43632D01*
X37107Y-43632D01*
X36987Y-43681D01*
X36911Y-43757D01*
X36613Y-43757D01*
X36613Y-43668D01*
X36613Y-43668D01*
X36613Y-43668D01*
X36606Y-43630D01*
X36598Y-43591D01*
X36598Y-43591D01*
X36598Y-43591D01*
X36577Y-43559D01*
X36555Y-43526D01*
X36555Y-43526D01*
X36555Y-43526D01*
X36245Y-43216D01*
X36258Y-43203D01*
X36308Y-43084D01*
X36308Y-42954D01*
X36258Y-42835D01*
X36167Y-42743D01*
X36048Y-42694D01*
X35918Y-42694D01*
X35799Y-42743D01*
X35732Y-42810D01*
X35732Y-42473D01*
X35732Y-42373D01*
X35732Y-42280D01*
X35732Y-42055D01*
X35732Y-41961D01*
X35732Y-41861D01*
X35694Y-41770D01*
X35623Y-41699D01*
X35531Y-41661D01*
X35515Y-41661D01*
X35452Y-41724D01*
X35452Y-42117D01*
X35669Y-42117D01*
X35732Y-42055D01*
X35732Y-42280D01*
X35669Y-42217D01*
X35452Y-42217D01*
X35452Y-42611D01*
X35515Y-42673D01*
X35531Y-42673D01*
X35623Y-42635D01*
X35694Y-42565D01*
X35732Y-42473D01*
X35732Y-42810D01*
X35707Y-42834D01*
X35658Y-42954D01*
X35658Y-43045D01*
X35053Y-43045D01*
X35073Y-42997D01*
X35073Y-42881D01*
X35076Y-42877D01*
X35097Y-42844D01*
X35097Y-42844D01*
X35098Y-42844D01*
X35105Y-42806D01*
X35113Y-42768D01*
X35113Y-42768D01*
X35113Y-42768D01*
X35113Y-42573D01*
X35139Y-42573D01*
X35160Y-42573D01*
X35222Y-42635D01*
X35314Y-42673D01*
X35331Y-42673D01*
X35393Y-42611D01*
X35393Y-42217D01*
X35377Y-42217D01*
X35377Y-42117D01*
X35393Y-42117D01*
X35393Y-41724D01*
X35331Y-41661D01*
X35324Y-41661D01*
X35309Y-41640D01*
X35301Y-41634D01*
X35074Y-41407D01*
X35074Y-41301D01*
X35025Y-41181D01*
X34934Y-41090D01*
X34814Y-41040D01*
X34685Y-41040D01*
X34565Y-41090D01*
X34474Y-41181D01*
X34424Y-41300D01*
X34424Y-41430D01*
X34474Y-41549D01*
X34565Y-41641D01*
X34684Y-41690D01*
X34792Y-41690D01*
X34862Y-41761D01*
X34824Y-41761D01*
X34785Y-41777D01*
X34747Y-41761D01*
X34687Y-41761D01*
X34569Y-41761D01*
X34514Y-41784D01*
X34472Y-41826D01*
X34449Y-41881D01*
X34449Y-41941D01*
X34449Y-42453D01*
X34456Y-42472D01*
X34157Y-42772D01*
X33835Y-42772D01*
X33816Y-42727D01*
X33774Y-42684D01*
X33719Y-42662D01*
X33659Y-42662D01*
X33209Y-42662D01*
X33154Y-42684D01*
X33129Y-42709D01*
X33125Y-42705D01*
X33093Y-42683D01*
X33061Y-42662D01*
X33061Y-42662D01*
X33061Y-42662D01*
X33022Y-42654D01*
X32984Y-42647D01*
X32984Y-42647D01*
X32726Y-42647D01*
X32726Y-41821D01*
X32703Y-41766D01*
X32661Y-41723D01*
X32606Y-41701D01*
X32546Y-41701D01*
X32310Y-41701D01*
X32255Y-41723D01*
X32213Y-41766D01*
X32208Y-41777D01*
X32203Y-41766D01*
X32161Y-41723D01*
X32130Y-41711D01*
X32151Y-41690D01*
X32257Y-41690D01*
X32377Y-41641D01*
X32468Y-41550D01*
X32518Y-41430D01*
X32518Y-41301D01*
X32469Y-41181D01*
X32377Y-41090D01*
X32258Y-41040D01*
X32129Y-41040D01*
X32009Y-41090D01*
X31918Y-41181D01*
X31868Y-41300D01*
X31868Y-41407D01*
X31755Y-41520D01*
X30964Y-41520D01*
X31038Y-41446D01*
X31145Y-41446D01*
X31264Y-41396D01*
X31356Y-41305D01*
X31405Y-41186D01*
X31406Y-41056D01*
X31356Y-40937D01*
X31265Y-40845D01*
X31145Y-40796D01*
X31016Y-40796D01*
X30897Y-40845D01*
X30805Y-40936D01*
X30756Y-41056D01*
X30755Y-41163D01*
X30383Y-41535D01*
X30382Y-41536D01*
X30317Y-41579D01*
X30273Y-41644D01*
X30258Y-41720D01*
X30258Y-41722D01*
X30255Y-41723D01*
X30213Y-41766D01*
X30208Y-41777D01*
X30203Y-41766D01*
X30161Y-41723D01*
X30158Y-41722D01*
X30158Y-41509D01*
X30189Y-41496D01*
X30280Y-41405D01*
X30330Y-41285D01*
X30330Y-41156D01*
X30281Y-41037D01*
X30189Y-40945D01*
X30070Y-40895D01*
X29941Y-40895D01*
X29821Y-40945D01*
X29730Y-41036D01*
X29680Y-41155D01*
X29680Y-41285D01*
X29729Y-41404D01*
X29758Y-41433D01*
X29758Y-41722D01*
X29755Y-41723D01*
X29713Y-41766D01*
X29708Y-41777D01*
X29703Y-41766D01*
X29661Y-41723D01*
X29606Y-41701D01*
X29546Y-41701D01*
X29310Y-41701D01*
X29255Y-41723D01*
X29213Y-41766D01*
X29208Y-41777D01*
X29203Y-41766D01*
X29161Y-41723D01*
X29106Y-41701D01*
X29046Y-41701D01*
X28810Y-41701D01*
X28755Y-41723D01*
X28713Y-41766D01*
X28690Y-41821D01*
X28690Y-41880D01*
X28690Y-42482D01*
X28613Y-42405D01*
X28548Y-42361D01*
X28471Y-42346D01*
X28142Y-42346D01*
X28142Y-42318D01*
X28080Y-42255D01*
X27853Y-42255D01*
X27853Y-42263D01*
X27832Y-42263D01*
X27825Y-42255D01*
X27774Y-42255D01*
X27756Y-42255D01*
X27756Y-42155D01*
X27774Y-42155D01*
X27825Y-42155D01*
X27853Y-42127D01*
X27853Y-42155D01*
X28080Y-42155D01*
X28142Y-42093D01*
X28142Y-41998D01*
X28104Y-41907D01*
X28034Y-41836D01*
X27942Y-41798D01*
X27915Y-41798D01*
X27853Y-41861D01*
X27853Y-41916D01*
X27849Y-41907D01*
X27779Y-41836D01*
X27729Y-41816D01*
X27712Y-41798D01*
X27687Y-41798D01*
X27685Y-41798D01*
X27660Y-41798D01*
X27643Y-41816D01*
X27593Y-41836D01*
X27523Y-41907D01*
X27519Y-41916D01*
X27519Y-41861D01*
X27457Y-41798D01*
X27430Y-41798D01*
X27338Y-41836D01*
X27277Y-41898D01*
X27195Y-41898D01*
X27140Y-41921D01*
X27098Y-41963D01*
X27075Y-42018D01*
X27075Y-42038D01*
X27037Y-42064D01*
X26449Y-42652D01*
X26405Y-42717D01*
X26390Y-42793D01*
X26390Y-42984D01*
X26352Y-42946D01*
X26287Y-42902D01*
X26211Y-42887D01*
X25433Y-42887D01*
X24609Y-42887D01*
X24609Y-42681D01*
X24639Y-42650D01*
X24639Y-42257D01*
X24618Y-42257D01*
X24618Y-42157D01*
X24639Y-42157D01*
X24639Y-42149D01*
X24698Y-42149D01*
X24698Y-42157D01*
X24715Y-42157D01*
X24715Y-42257D01*
X24698Y-42257D01*
X24698Y-42650D01*
X24761Y-42713D01*
X24778Y-42713D01*
X24870Y-42675D01*
X24932Y-42613D01*
X25013Y-42613D01*
X25051Y-42597D01*
X25090Y-42613D01*
X25150Y-42613D01*
X25268Y-42613D01*
X25323Y-42590D01*
X25365Y-42548D01*
X25388Y-42492D01*
X25388Y-42433D01*
X25388Y-41921D01*
X25379Y-41899D01*
X25379Y-41554D01*
X25384Y-41550D01*
X25433Y-41430D01*
X25433Y-41301D01*
X25384Y-41181D01*
X25293Y-41090D01*
X25173Y-41040D01*
X25044Y-41040D01*
X24993Y-41061D01*
X24993Y-40934D01*
X25064Y-40934D01*
X25183Y-40885D01*
X25275Y-40794D01*
X25324Y-40674D01*
X25325Y-40545D01*
X25275Y-40425D01*
X25184Y-40334D01*
X25064Y-40284D01*
X24935Y-40284D01*
X24816Y-40334D01*
X24724Y-40425D01*
X24675Y-40544D01*
X24674Y-40651D01*
X24651Y-40675D01*
X24651Y-40675D01*
X24651Y-40675D01*
X24630Y-40707D01*
X24608Y-40739D01*
X24608Y-40739D01*
X24608Y-40739D01*
X24600Y-40778D01*
X24593Y-40816D01*
X24593Y-40816D01*
X24593Y-40816D01*
X24593Y-41605D01*
X24593Y-41605D01*
X24593Y-41605D01*
X24600Y-41643D01*
X24608Y-41682D01*
X24608Y-41682D01*
X24608Y-41682D01*
X24620Y-41701D01*
X24619Y-41701D01*
X24619Y-41743D01*
X24577Y-41701D01*
X24560Y-41701D01*
X24468Y-41739D01*
X24411Y-41796D01*
X24355Y-41739D01*
X24263Y-41701D01*
X24246Y-41701D01*
X24183Y-41763D01*
X24183Y-42157D01*
X24200Y-42157D01*
X24200Y-42257D01*
X24183Y-42257D01*
X24183Y-42650D01*
X24209Y-42676D01*
X24209Y-42772D01*
X24124Y-42772D01*
X24124Y-42650D01*
X24124Y-42257D01*
X24108Y-42257D01*
X24108Y-42157D01*
X24124Y-42157D01*
X24124Y-41763D01*
X24099Y-41738D01*
X24099Y-40809D01*
X24084Y-40732D01*
X24040Y-40668D01*
X24035Y-40662D01*
X24035Y-40555D01*
X23985Y-40436D01*
X23894Y-40344D01*
X23775Y-40295D01*
X23645Y-40295D01*
X23526Y-40344D01*
X23434Y-40435D01*
X23385Y-40555D01*
X23385Y-40684D01*
X23434Y-40803D01*
X23525Y-40895D01*
X23645Y-40945D01*
X23699Y-40945D01*
X23699Y-41631D01*
X23644Y-41620D01*
X22803Y-41620D01*
X22803Y-41620D01*
X22803Y-41620D01*
X22766Y-41628D01*
X22726Y-41636D01*
X22726Y-41636D01*
X22726Y-41636D01*
X22695Y-41657D01*
X22661Y-41679D01*
X22661Y-41679D01*
X22661Y-41679D01*
X22582Y-41758D01*
X22476Y-41758D01*
X22356Y-41807D01*
X22265Y-41899D01*
X22215Y-42018D01*
X22215Y-42147D01*
X22265Y-42267D01*
X22356Y-42358D01*
X22475Y-42408D01*
X22605Y-42408D01*
X22724Y-42359D01*
X22816Y-42267D01*
X22865Y-42148D01*
X22865Y-42041D01*
X22886Y-42020D01*
X23435Y-42020D01*
X23435Y-42492D01*
X23458Y-42548D01*
X23500Y-42590D01*
X23555Y-42613D01*
X23615Y-42613D01*
X23733Y-42613D01*
X23771Y-42597D01*
X23810Y-42613D01*
X23870Y-42613D01*
X23891Y-42613D01*
X23953Y-42675D01*
X24045Y-42713D01*
X24062Y-42713D01*
X24124Y-42650D01*
X24124Y-42772D01*
X23205Y-42772D01*
X23186Y-42727D01*
X23144Y-42684D01*
X23089Y-42662D01*
X23029Y-42662D01*
X22579Y-42662D01*
X22524Y-42684D01*
X22482Y-42727D01*
X22459Y-42782D01*
X22459Y-42841D01*
X22459Y-43161D01*
X22482Y-43217D01*
X22524Y-43259D01*
X22579Y-43282D01*
X22639Y-43282D01*
X23089Y-43282D01*
X23144Y-43259D01*
X23186Y-43217D01*
X23205Y-43172D01*
X24326Y-43172D01*
X24383Y-43228D01*
X24448Y-43272D01*
X24448Y-43272D01*
X24461Y-43274D01*
X24524Y-43287D01*
X26128Y-43287D01*
X28497Y-45657D01*
X27519Y-45657D01*
X25304Y-43442D01*
X25270Y-43419D01*
X25239Y-43399D01*
X25239Y-43399D01*
X25239Y-43399D01*
X25202Y-43391D01*
X25162Y-43383D01*
X25162Y-43383D01*
X24707Y-43383D01*
X24706Y-43383D01*
X24706Y-43383D01*
X24668Y-43391D01*
X24630Y-43399D01*
X24630Y-43399D01*
X24630Y-43399D01*
X24596Y-43421D01*
X24565Y-43442D01*
X24565Y-43442D01*
X24565Y-43442D01*
X24268Y-43740D01*
X24245Y-43773D01*
X24224Y-43804D01*
X24224Y-43804D01*
X24224Y-43804D01*
X24221Y-43820D01*
X23209Y-43820D01*
X23209Y-43772D01*
X23209Y-43452D01*
X23186Y-43397D01*
X23144Y-43354D01*
X23089Y-43332D01*
X23029Y-43332D01*
X22579Y-43332D01*
X22524Y-43354D01*
X22482Y-43397D01*
X22459Y-43452D01*
X22459Y-43511D01*
X22459Y-43831D01*
X22482Y-43887D01*
X22524Y-43929D01*
X22579Y-43952D01*
X22638Y-43952D01*
X22642Y-43970D01*
X22649Y-44008D01*
X22649Y-44008D01*
X22649Y-44009D01*
X22671Y-44041D01*
X22693Y-44073D01*
X22693Y-44073D01*
X22693Y-44073D01*
X22782Y-44162D01*
X22782Y-44162D01*
X22814Y-44184D01*
X22846Y-44205D01*
X22846Y-44205D01*
X22847Y-44205D01*
X22885Y-44213D01*
X22923Y-44220D01*
X23440Y-44220D01*
X23440Y-44593D01*
X22800Y-44593D01*
X22778Y-44540D01*
X22686Y-44448D01*
X22567Y-44399D01*
X22438Y-44398D01*
X22318Y-44448D01*
X22227Y-44539D01*
X22177Y-44659D01*
X22177Y-44788D01*
X22226Y-44907D01*
X22318Y-44999D01*
X22437Y-45048D01*
X22566Y-45049D01*
X22686Y-44999D01*
X22692Y-44993D01*
X23625Y-44993D01*
X23599Y-45057D01*
X23599Y-45186D01*
X23648Y-45306D01*
X23739Y-45397D01*
X23859Y-45447D01*
X23988Y-45447D01*
X24107Y-45398D01*
X24199Y-45306D01*
X24249Y-45187D01*
X24249Y-45058D01*
X24199Y-44938D01*
X24174Y-44913D01*
X24209Y-44913D01*
X24209Y-44871D01*
X24251Y-44913D01*
X24268Y-44913D01*
X24360Y-44875D01*
X24414Y-44820D01*
X24468Y-44875D01*
X24560Y-44913D01*
X24577Y-44913D01*
X24611Y-44879D01*
X24599Y-44907D01*
X24599Y-45037D01*
X24648Y-45156D01*
X24740Y-45248D01*
X24859Y-45297D01*
X24988Y-45297D01*
X25108Y-45248D01*
X25199Y-45157D01*
X25249Y-45037D01*
X25249Y-44993D01*
X25284Y-44993D01*
X25314Y-45065D01*
X25406Y-45157D01*
X25525Y-45206D01*
X25654Y-45206D01*
X25774Y-45157D01*
X25865Y-45066D01*
X25915Y-44946D01*
X25915Y-44817D01*
X25866Y-44698D01*
X25774Y-44606D01*
X25655Y-44556D01*
X25526Y-44556D01*
X25437Y-44593D01*
X25388Y-44593D01*
X25388Y-44121D01*
X25367Y-44071D01*
X27294Y-45998D01*
X27294Y-45998D01*
X27327Y-46020D01*
X27359Y-46041D01*
X27359Y-46041D01*
X27359Y-46041D01*
X27396Y-46049D01*
X27436Y-46057D01*
X27436Y-46057D01*
X30216Y-46057D01*
X30212Y-46059D01*
X30174Y-46115D01*
X30119Y-46115D01*
X30000Y-46164D01*
X29908Y-46256D01*
X29858Y-46375D01*
X29858Y-46504D01*
X29908Y-46624D01*
X29999Y-46715D01*
X30118Y-46765D01*
X30248Y-46765D01*
X30367Y-46716D01*
X30459Y-46624D01*
X30506Y-46511D01*
X30513Y-46511D01*
X30963Y-46511D01*
X31018Y-46488D01*
X31060Y-46446D01*
X31083Y-46390D01*
X31083Y-46331D01*
X31083Y-46057D01*
X31319Y-46057D01*
X31319Y-46403D01*
X31319Y-46403D01*
X31327Y-46443D01*
X31334Y-46479D01*
X31334Y-46479D01*
X31334Y-46479D01*
X31355Y-46511D01*
X31377Y-46544D01*
X31776Y-46943D01*
X31776Y-46943D01*
X31776Y-46943D01*
X31808Y-46964D01*
X31841Y-46987D01*
X31841Y-46987D01*
X31841Y-46987D01*
X31881Y-46995D01*
X31918Y-47002D01*
X31918Y-47002D01*
X31918Y-47002D01*
X34221Y-47002D01*
X34221Y-47002D01*
X34258Y-46994D01*
X34298Y-46987D01*
X34298Y-46987D01*
X34298Y-46987D01*
X34328Y-46967D01*
X34362Y-46943D01*
X34362Y-46943D01*
X36555Y-44751D01*
X36555Y-44751D01*
X36555Y-44751D01*
X36576Y-44719D01*
X36598Y-44686D01*
X36598Y-44686D01*
X36598Y-44686D01*
X36606Y-44648D01*
X36613Y-44610D01*
X36613Y-44610D01*
X36613Y-44610D01*
X36613Y-44157D01*
X36911Y-44157D01*
X36987Y-44232D01*
X37106Y-44282D01*
X37235Y-44282D01*
X37355Y-44233D01*
X37446Y-44141D01*
X37496Y-44022D01*
X37496Y-43893D01*
X37496Y-48255D01*
X21429Y-48255D01*
X21429Y-39933D01*
X38019Y-39933D01*
X38019Y-48255D01*
M02*
