M48
INCH,TZ
T1C0.015
%
G90
G05
T1
X022502Y-044724
X022541Y-042083
X023710Y-040620
X023924Y-045122
X024906Y-042721
X024924Y-044973
X025000Y-040610
X025000Y-046083
X025109Y-041366
X025591Y-044882
X026142Y-045630
X026896Y-042920
X027182Y-043263
X027815Y-041594
X028465Y-046339
X029811Y-045158
X030006Y-041221
X030184Y-046441
X031081Y-041121
X031161Y-040630
X031179Y-045225
X031201Y-046299
X032193Y-041366
X032283Y-043453
X032382Y-046491
X033484Y-040610
X033555Y-046288
X034055Y-044882
X034541Y-043762
X034748Y-042933
X034750Y-041366
X035787Y-044783
X035908Y-043593
X035983Y-043019
X037171Y-043957
T0
M30
