%FSLAX34Y34*%
G04 Gerber Fmt 3.4, Leading zero omitted, Abs format*
G04 (created by PCBNEW (2014-02-02 BZR 4653)-product) date 2014-03-31 11:22:45 AM*
%MOIN*%
G01*
G70*
G90*
G04 APERTURE LIST*
%ADD10C,0.005906*%
%ADD11R,0.011800X0.051200*%
%ADD12R,0.023600X0.086600*%
%ADD13R,0.045000X0.032000*%
%ADD14R,0.015700X0.031400*%
G04 APERTURE END LIST*
G54D10*
G54D11*
X34663Y-44367D03*
X34913Y-44367D03*
X35173Y-44367D03*
X35423Y-44367D03*
X35423Y-42167D03*
X35168Y-42167D03*
X34913Y-42167D03*
X34658Y-42167D03*
G54D12*
X28958Y-44330D03*
X29458Y-44330D03*
X29958Y-44330D03*
X30458Y-44330D03*
X30958Y-44330D03*
X31458Y-44330D03*
X31958Y-44330D03*
X32458Y-44330D03*
X32458Y-42284D03*
X31958Y-42284D03*
X31458Y-42284D03*
X30958Y-42284D03*
X30458Y-42284D03*
X29958Y-42284D03*
X29458Y-42284D03*
X28958Y-42284D03*
G54D13*
X33464Y-42972D03*
X33464Y-43642D03*
X31889Y-46201D03*
X31889Y-45531D03*
X34251Y-45531D03*
X34251Y-46201D03*
X33070Y-45531D03*
X33070Y-46201D03*
X30708Y-45531D03*
X30708Y-46201D03*
X22834Y-43642D03*
X22834Y-42972D03*
G54D11*
X23649Y-44407D03*
X23899Y-44407D03*
X24159Y-44407D03*
X24409Y-44407D03*
X24669Y-44407D03*
X24924Y-44407D03*
X25179Y-44407D03*
X25179Y-42207D03*
X24924Y-42207D03*
X24669Y-42207D03*
X24409Y-42207D03*
X24154Y-42207D03*
X23899Y-42207D03*
X23644Y-42207D03*
G54D14*
X27814Y-42205D03*
X27559Y-42205D03*
X27304Y-42205D03*
X27304Y-42833D03*
X27559Y-42833D03*
X27814Y-42833D03*
M02*
