  0
SECTION
  2
HEADER
  9
$ANGBASE
  50
0.0
  9
$ANGDIR
  70
  1
  9
$MEASUREMENT
  70
0
  0
ENDSEC
  0
SECTION
  2
TABLES
  0
TABLE
  2
LTYPE
  70
1
  0
LTYPE
  2
CONTINUOUS
  70
0
  3
Solid line
  72
65
  73
0
  40
0.0
  0
ENDTAB
  0
TABLE
  2
STYLE
  70
4
  0
STYLE
  2
KICAD
  70
0
  40
0
  41
1
  42
1
  50
0
  71
0
  3
isocp.shx
  0
STYLE
  2
KICADB
  70
0
  40
0
  41
1
  42
1
  50
0
  71
0
  3
isocp.shx
  0
STYLE
  2
KICADI
  70
0
  40
0
  41
1
  42
1
  50
15
  71
0
  3
isocp.shx
  0
STYLE
  2
KICADBI
  70
0
  40
0
  41
1
  42
1
  50
15
  71
0
  3
isocp.shx
  0
ENDTAB
  0
TABLE
  2
LAYER
  70
24
  0
LAYER
  2
BLACK
  70
0
  62
250
  6
CONTINUOUS
  0
LAYER
  2
BLUE
  70
0
  62
5
  6
CONTINUOUS
  0
LAYER
  2
GREEN
  70
0
  62
3
  6
CONTINUOUS
  0
LAYER
  2
CYAN
  70
0
  62
4
  6
CONTINUOUS
  0
LAYER
  2
RED
  70
0
  62
1
  6
CONTINUOUS
  0
LAYER
  2
MAGENTA
  70
0
  62
6
  6
CONTINUOUS
  0
LAYER
  2
BROWN
  70
0
  62
54
  6
CONTINUOUS
  0
LAYER
  2
LIGHTGRAY
  70
0
  62
9
  6
CONTINUOUS
  0
LAYER
  2
DARKGRAY
  70
0
  62
8
  6
CONTINUOUS
  0
LAYER
  2
LIGHTBLUE
  70
0
  62
171
  6
CONTINUOUS
  0
LAYER
  2
LIGHTGREEN
  70
0
  62
91
  6
CONTINUOUS
  0
LAYER
  2
LIGHTCYAN
  70
0
  62
131
  6
CONTINUOUS
  0
LAYER
  2
LIGHTRED
  70
0
  62
11
  6
CONTINUOUS
  0
LAYER
  2
LIGHTMAGENTA
  70
0
  62
221
  6
CONTINUOUS
  0
LAYER
  2
YELLOW
  70
0
  62
2
  6
CONTINUOUS
  0
LAYER
  2
WHITE
  70
0
  62
7
  6
CONTINUOUS
  0
LAYER
  2
DARKDARKGRAY
  70
0
  62
251
  6
CONTINUOUS
  0
LAYER
  2
DARKBLUE
  70
0
  62
178
  6
CONTINUOUS
  0
LAYER
  2
DARKGREEN
  70
0
  62
98
  6
CONTINUOUS
  0
LAYER
  2
DARKCYAN
  70
0
  62
138
  6
CONTINUOUS
  0
LAYER
  2
DARKRED
  70
0
  62
18
  6
CONTINUOUS
  0
LAYER
  2
DARKMAGENTA
  70
0
  62
228
  6
CONTINUOUS
  0
LAYER
  2
DARKBROWN
  70
0
  62
58
  6
CONTINUOUS
  0
LAYER
  2
LIGHTYELLOW
  70
0
  62
51
  6
CONTINUOUS
  0
ENDTAB
  0
ENDSEC
  0
SECTION
  2
ENTITIES
0
LINE
8
BLACK
10
26
20
-20.125
11
82
21
-20.125
0
LINE
8
BLACK
10
26
20
-19.875
11
82
21
-19.875
0
ARC
8
BLACK
10
82
20
-20
40
0.125
50
270
51
450
0
ARC
8
BLACK
10
26
20
-20
40
0.125
50
90
51
270
0
LINE
8
BLACK
10
82.125
20
-51
11
82.125
21
-20
0
LINE
8
BLACK
10
81.875
20
-51
11
81.875
21
-20
0
ARC
8
BLACK
10
82
20
-20
40
0.125
50
360
51
540
0
ARC
8
BLACK
10
82
20
-51
40
0.125
50
180
51
360
0
LINE
8
BLACK
10
26
20
-51.125
11
82
21
-51.125
0
LINE
8
BLACK
10
26
20
-50.875
11
82
21
-50.875
0
ARC
8
BLACK
10
82
20
-51
40
0.125
50
270
51
450
0
ARC
8
BLACK
10
26
20
-51
40
0.125
50
90
51
270
0
LINE
8
BLACK
10
26.125
20
-51
11
26.125
21
-20
0
LINE
8
BLACK
10
25.875
20
-51
11
25.875
21
-20
0
ARC
8
BLACK
10
26
20
-20
40
0.125
50
360
51
540
0
ARC
8
BLACK
10
26
20
-51
40
0.125
50
180
51
360
0
LINE
8
BLACK
10
37.475
20
-48.6
11
37.475
21
-45.6
0
LINE
8
BLACK
10
37.325
20
-48.6
11
37.325
21
-45.6
0
ARC
8
BLACK
10
37.4
20
-45.6
40
0.075
50
360
51
540
0
ARC
8
BLACK
10
37.4
20
-48.6
40
0.075
50
180
51
360
0
LINE
8
BLACK
10
37.4
20
-48.675
11
41.4
21
-48.675
0
LINE
8
BLACK
10
37.4
20
-48.525
11
41.4
21
-48.525
0
ARC
8
BLACK
10
41.4
20
-48.6
40
0.075
50
270
51
450
0
ARC
8
BLACK
10
37.4
20
-48.6
40
0.075
50
90
51
270
0
LINE
8
BLACK
10
32.475
20
-48.6
11
32.475
21
-45.6
0
LINE
8
BLACK
10
32.325
20
-48.6
11
32.325
21
-45.6
0
ARC
8
BLACK
10
32.4
20
-45.6
40
0.075
50
360
51
540
0
ARC
8
BLACK
10
32.4
20
-48.6
40
0.075
50
180
51
360
0
LINE
8
BLACK
10
32.4
20
-48.675
11
36.4
21
-48.675
0
LINE
8
BLACK
10
32.4
20
-48.525
11
36.4
21
-48.525
0
ARC
8
BLACK
10
36.4
20
-48.6
40
0.075
50
270
51
450
0
ARC
8
BLACK
10
32.4
20
-48.6
40
0.075
50
90
51
270
0
LINE
8
BLACK
10
36.475
20
-48.6
11
36.475
21
-45.6
0
LINE
8
BLACK
10
36.325
20
-48.6
11
36.325
21
-45.6
0
ARC
8
BLACK
10
36.4
20
-45.6
40
0.075
50
360
51
540
0
ARC
8
BLACK
10
36.4
20
-48.6
40
0.075
50
180
51
360
0
LINE
8
BLACK
10
27.4
20
-48.675
11
31.4
21
-48.675
0
LINE
8
BLACK
10
27.4
20
-48.525
11
31.4
21
-48.525
0
ARC
8
BLACK
10
31.4
20
-48.6
40
0.075
50
270
51
450
0
ARC
8
BLACK
10
27.4
20
-48.6
40
0.075
50
90
51
270
0
LINE
8
BLACK
10
31.475
20
-48.6
11
31.475
21
-45.6
0
LINE
8
BLACK
10
31.325
20
-48.6
11
31.325
21
-45.6
0
ARC
8
BLACK
10
31.4
20
-45.6
40
0.075
50
360
51
540
0
ARC
8
BLACK
10
31.4
20
-48.6
40
0.075
50
180
51
360
0
LINE
8
BLACK
10
27.4
20
-45.675
11
41.4
21
-45.675
0
LINE
8
BLACK
10
27.4
20
-45.525
11
41.4
21
-45.525
0
ARC
8
BLACK
10
41.4
20
-45.6
40
0.075
50
270
51
450
0
ARC
8
BLACK
10
27.4
20
-45.6
40
0.075
50
90
51
270
0
LINE
8
BLACK
10
27.475
20
-48.6
11
27.475
21
-37.6
0
LINE
8
BLACK
10
27.325
20
-48.6
11
27.325
21
-37.6
0
ARC
8
BLACK
10
27.4
20
-37.6
40
0.075
50
360
51
540
0
ARC
8
BLACK
10
27.4
20
-48.6
40
0.075
50
180
51
360
0
LINE
8
BLACK
10
41.475
20
-48.6
11
41.475
21
-37.6
0
LINE
8
BLACK
10
41.325
20
-48.6
11
41.325
21
-37.6
0
ARC
8
BLACK
10
41.4
20
-37.6
40
0.075
50
360
51
540
0
ARC
8
BLACK
10
41.4
20
-48.6
40
0.075
50
180
51
360
0
CIRCLE
8
BLACK
10
34.4
20
-32.6
40
3
0
CIRCLE
8
BLACK
10
34.4
20
-32.6
40
8.5
0
LINE
8
BLACK
10
83.325
20
-37.62
11
83.325
21
-27.62
0
LINE
8
BLACK
10
83.175
20
-37.62
11
83.175
21
-27.62
0
ARC
8
BLACK
10
83.25
20
-27.62
40
0.075
50
360
51
540
0
ARC
8
BLACK
10
83.25
20
-37.62
40
0.075
50
180
51
360
0
LINE
8
BLACK
10
81.25
20
-27.695
11
83.25
21
-27.695
0
LINE
8
BLACK
10
81.25
20
-27.545
11
83.25
21
-27.545
0
ARC
8
BLACK
10
83.25
20
-27.62
40
0.075
50
270
51
450
0
ARC
8
BLACK
10
81.25
20
-27.62
40
0.075
50
90
51
270
0
LINE
8
BLACK
10
81.25
20
-37.695
11
83.25
21
-37.695
0
LINE
8
BLACK
10
81.25
20
-37.545
11
83.25
21
-37.545
0
ARC
8
BLACK
10
83.25
20
-37.62
40
0.075
50
270
51
450
0
ARC
8
BLACK
10
81.25
20
-37.62
40
0.075
50
90
51
270
0
ARC
8
BLACK
10
78.75
20
-32.62
40
6.36396
50
45
51
-45
0
ARC
8
BLACK
10
70.75
20
-33.12
40
12.3491
50
-21.4
51
-111.4
0
ARC
8
BLACK
10
70.75
20
-32.18
40
12.3491
50
21.4
51
111.4
0
ARC
8
BLACK
10
68.81
20
-32.08
40
12.3491
50
158.6
51
68.6
0
ARC
8
BLACK
10
68.8
20
-33.1
40
12.3491
50
-158.6
51
-68.6
0
ARC
8
BLACK
10
60.8
20
-32.6
40
6.36396
50
135
51
225
0
LINE
8
BLACK
10
56.3
20
-37.675
11
58.3
21
-37.675
0
LINE
8
BLACK
10
56.3
20
-37.525
11
58.3
21
-37.525
0
ARC
8
BLACK
10
58.3
20
-37.6
40
0.075
50
270
51
450
0
ARC
8
BLACK
10
56.3
20
-37.6
40
0.075
50
90
51
270
0
LINE
8
BLACK
10
56.3
20
-27.675
11
58.3
21
-27.675
0
LINE
8
BLACK
10
56.3
20
-27.525
11
58.3
21
-27.525
0
ARC
8
BLACK
10
58.3
20
-27.6
40
0.075
50
270
51
450
0
ARC
8
BLACK
10
56.3
20
-27.6
40
0.075
50
90
51
270
0
LINE
8
BLACK
10
56.375
20
-37.6
11
56.375
21
-27.6
0
LINE
8
BLACK
10
56.225
20
-37.6
11
56.225
21
-27.6
0
ARC
8
BLACK
10
56.3
20
-27.6
40
0.075
50
360
51
540
0
ARC
8
BLACK
10
56.3
20
-37.6
40
0.075
50
180
51
360
0
CIRCLE
8
BLACK
10
69.8
20
-32.6
40
12.5
0
CIRCLE
8
BLACK
10
69.8
20
-32.6
40
10
  0
ENDSEC
  0
EOF
