M48
INCH,TZ
T1C0.025
T2C0.040
T3C0.049
T4C0.051
%
G90
G05
T1
X012995Y-018505
X015759Y-018168
X016173Y-014889
X017546Y-011731
X017745Y-015039
X018420Y-011680
X022539Y-012303
X023085Y-016319
X024180Y-014781
T2
X016217Y-008858
X017217Y-008858
X018217Y-008858
X019217Y-008858
X020654Y-018898
X021654Y-018898
X022654Y-018898
X024803Y-018898
T3
X023677Y-011815
X023677Y-013854
X024697Y-010051
X024697Y-015618
X025315Y-012835
X026461Y-009031
X026461Y-016638
X028500Y-009031
X028500Y-016638
X029646Y-012835
X030264Y-010051
X030264Y-015618
X031283Y-011815
X031283Y-013854
T4
X011575Y-019134
X013543Y-019134
X015512Y-019134
T0
M30
