G04 (created by PCBNEW (2013-07-07 BZR 4022)-stable) date 2014-05-25 11:14:29 PM*
%MOIN*%
G04 Gerber Fmt 3.4, Leading zero omitted, Abs format*
%FSLAX34Y34*%
G01*
G70*
G90*
G04 APERTURE LIST*
%ADD10C,0.00590551*%
%ADD11C,0.005*%
%ADD12C,0.015*%
%ADD13C,0.006*%
%ADD14R,0.045X0.055*%
%ADD15O,0.0984252X0.137795*%
%ADD16C,0.0688976*%
%ADD17O,0.137795X0.19685*%
%ADD18O,0.0787402X0.137795*%
%ADD19O,0.137795X0.137795*%
%ADD20C,0.0787*%
%ADD21R,0.0787X0.0787*%
%ADD22R,0.0551181X0.0551181*%
%ADD23C,0.0551181*%
G04 APERTURE END LIST*
G54D10*
G54D11*
X87712Y-56992D02*
X87312Y-56992D01*
X87312Y-56992D02*
X87312Y-56392D01*
X87312Y-56392D02*
X87712Y-56392D01*
X88272Y-56392D02*
X88672Y-56392D01*
X88672Y-56392D02*
X88672Y-56992D01*
X88672Y-56992D02*
X88272Y-56992D01*
X87712Y-57780D02*
X87312Y-57780D01*
X87312Y-57780D02*
X87312Y-57180D01*
X87312Y-57180D02*
X87712Y-57180D01*
X88272Y-57180D02*
X88672Y-57180D01*
X88672Y-57180D02*
X88672Y-57780D01*
X88672Y-57780D02*
X88272Y-57780D01*
G54D12*
X84738Y-59842D02*
G75*
G03X84738Y-59842I-880J0D01*
G74*
G01*
X81889Y-59842D02*
X81889Y-57874D01*
X81889Y-57874D02*
X85826Y-57874D01*
X85826Y-57874D02*
X85826Y-62204D01*
X85826Y-62204D02*
X81889Y-62204D01*
X81889Y-62204D02*
X81889Y-59842D01*
X84738Y-51968D02*
G75*
G03X84738Y-51968I-880J0D01*
G74*
G01*
X81889Y-51968D02*
X81889Y-50000D01*
X81889Y-50000D02*
X85826Y-50000D01*
X85826Y-50000D02*
X85826Y-54330D01*
X85826Y-54330D02*
X81889Y-54330D01*
X81889Y-54330D02*
X81889Y-51968D01*
X84738Y-44094D02*
G75*
G03X84738Y-44094I-880J0D01*
G74*
G01*
X81889Y-44094D02*
X81889Y-42125D01*
X81889Y-42125D02*
X85826Y-42125D01*
X85826Y-42125D02*
X85826Y-46456D01*
X85826Y-46456D02*
X81889Y-46456D01*
X81889Y-46456D02*
X81889Y-44094D01*
X93006Y-44094D02*
G75*
G03X93006Y-44094I-880J0D01*
G74*
G01*
X90157Y-44094D02*
X90157Y-42125D01*
X90157Y-42125D02*
X94094Y-42125D01*
X94094Y-42125D02*
X94094Y-46456D01*
X94094Y-46456D02*
X90157Y-46456D01*
X90157Y-46456D02*
X90157Y-44094D01*
X93006Y-51968D02*
G75*
G03X93006Y-51968I-880J0D01*
G74*
G01*
X90157Y-51968D02*
X90157Y-50000D01*
X90157Y-50000D02*
X94094Y-50000D01*
X94094Y-50000D02*
X94094Y-54330D01*
X94094Y-54330D02*
X90157Y-54330D01*
X90157Y-54330D02*
X90157Y-51968D01*
X93006Y-59842D02*
G75*
G03X93006Y-59842I-880J0D01*
G74*
G01*
X90157Y-59842D02*
X90157Y-57874D01*
X90157Y-57874D02*
X94094Y-57874D01*
X94094Y-57874D02*
X94094Y-62204D01*
X94094Y-62204D02*
X90157Y-62204D01*
X90157Y-62204D02*
X90157Y-59842D01*
G54D10*
X84218Y-68110D02*
G75*
G03X84218Y-68110I-1147J0D01*
G74*
G01*
X85039Y-70078D02*
X81102Y-70078D01*
X81102Y-70078D02*
X81102Y-65748D01*
X81102Y-65748D02*
X85039Y-65748D01*
X85039Y-65748D02*
X85039Y-70078D01*
X83858Y-68110D02*
G75*
G03X83858Y-68110I-787J0D01*
G74*
G01*
X89139Y-76181D02*
G75*
G03X89139Y-76181I-1147J0D01*
G74*
G01*
X89960Y-78149D02*
X86023Y-78149D01*
X86023Y-78149D02*
X86023Y-73818D01*
X86023Y-73818D02*
X89960Y-73818D01*
X89960Y-73818D02*
X89960Y-78149D01*
X88779Y-76181D02*
G75*
G03X88779Y-76181I-787J0D01*
G74*
G01*
X94061Y-79133D02*
G75*
G03X94061Y-79133I-1147J0D01*
G74*
G01*
X94881Y-81102D02*
X90944Y-81102D01*
X90944Y-81102D02*
X90944Y-76771D01*
X90944Y-76771D02*
X94881Y-76771D01*
X94881Y-76771D02*
X94881Y-81102D01*
X93700Y-79133D02*
G75*
G03X93700Y-79133I-787J0D01*
G74*
G01*
X94061Y-73622D02*
G75*
G03X94061Y-73622I-1147J0D01*
G74*
G01*
X94881Y-75590D02*
X90944Y-75590D01*
X90944Y-75590D02*
X90944Y-71259D01*
X90944Y-71259D02*
X94881Y-71259D01*
X94881Y-71259D02*
X94881Y-75590D01*
X93700Y-73622D02*
G75*
G03X93700Y-73622I-787J0D01*
G74*
G01*
X94061Y-68110D02*
G75*
G03X94061Y-68110I-1147J0D01*
G74*
G01*
X94881Y-70078D02*
X90944Y-70078D01*
X90944Y-70078D02*
X90944Y-65748D01*
X90944Y-65748D02*
X94881Y-65748D01*
X94881Y-65748D02*
X94881Y-70078D01*
X93700Y-68110D02*
G75*
G03X93700Y-68110I-787J0D01*
G74*
G01*
X89139Y-70669D02*
G75*
G03X89139Y-70669I-1147J0D01*
G74*
G01*
X89960Y-72637D02*
X86023Y-72637D01*
X86023Y-72637D02*
X86023Y-68307D01*
X86023Y-68307D02*
X89960Y-68307D01*
X89960Y-68307D02*
X89960Y-72637D01*
X88779Y-70669D02*
G75*
G03X88779Y-70669I-787J0D01*
G74*
G01*
X84218Y-79133D02*
G75*
G03X84218Y-79133I-1147J0D01*
G74*
G01*
X85039Y-81102D02*
X81102Y-81102D01*
X81102Y-81102D02*
X81102Y-76771D01*
X81102Y-76771D02*
X85039Y-76771D01*
X85039Y-76771D02*
X85039Y-81102D01*
X83858Y-79133D02*
G75*
G03X83858Y-79133I-787J0D01*
G74*
G01*
X84218Y-73622D02*
G75*
G03X84218Y-73622I-1147J0D01*
G74*
G01*
X85039Y-75590D02*
X81102Y-75590D01*
X81102Y-75590D02*
X81102Y-71259D01*
X81102Y-71259D02*
X85039Y-71259D01*
X85039Y-71259D02*
X85039Y-75590D01*
X83858Y-73622D02*
G75*
G03X83858Y-73622I-787J0D01*
G74*
G01*
G54D13*
X89119Y-56791D02*
X89104Y-56807D01*
X89058Y-56822D01*
X89028Y-56822D01*
X88982Y-56807D01*
X88952Y-56776D01*
X88937Y-56746D01*
X88921Y-56685D01*
X88921Y-56639D01*
X88937Y-56578D01*
X88952Y-56548D01*
X88982Y-56517D01*
X89028Y-56502D01*
X89058Y-56502D01*
X89104Y-56517D01*
X89119Y-56532D01*
X89409Y-56502D02*
X89257Y-56502D01*
X89241Y-56654D01*
X89257Y-56639D01*
X89287Y-56624D01*
X89363Y-56624D01*
X89394Y-56639D01*
X89409Y-56654D01*
X89424Y-56685D01*
X89424Y-56761D01*
X89409Y-56791D01*
X89394Y-56807D01*
X89363Y-56822D01*
X89287Y-56822D01*
X89257Y-56807D01*
X89241Y-56791D01*
X89119Y-57579D02*
X89104Y-57594D01*
X89058Y-57609D01*
X89028Y-57609D01*
X88982Y-57594D01*
X88952Y-57564D01*
X88937Y-57533D01*
X88921Y-57472D01*
X88921Y-57426D01*
X88937Y-57366D01*
X88952Y-57335D01*
X88982Y-57305D01*
X89028Y-57289D01*
X89058Y-57289D01*
X89104Y-57305D01*
X89119Y-57320D01*
X89394Y-57289D02*
X89333Y-57289D01*
X89302Y-57305D01*
X89287Y-57320D01*
X89257Y-57366D01*
X89241Y-57426D01*
X89241Y-57548D01*
X89257Y-57579D01*
X89272Y-57594D01*
X89302Y-57609D01*
X89363Y-57609D01*
X89394Y-57594D01*
X89409Y-57579D01*
X89424Y-57548D01*
X89424Y-57472D01*
X89409Y-57442D01*
X89394Y-57426D01*
X89363Y-57411D01*
X89302Y-57411D01*
X89272Y-57426D01*
X89257Y-57442D01*
X89241Y-57472D01*
G54D10*
X83567Y-61773D02*
X83567Y-61379D01*
X83717Y-61379D01*
X83755Y-61398D01*
X83773Y-61417D01*
X83792Y-61454D01*
X83792Y-61511D01*
X83773Y-61548D01*
X83755Y-61567D01*
X83717Y-61586D01*
X83567Y-61586D01*
X83923Y-61379D02*
X84167Y-61379D01*
X84036Y-61529D01*
X84092Y-61529D01*
X84130Y-61548D01*
X84148Y-61567D01*
X84167Y-61604D01*
X84167Y-61698D01*
X84148Y-61736D01*
X84130Y-61754D01*
X84092Y-61773D01*
X83980Y-61773D01*
X83942Y-61754D01*
X83923Y-61736D01*
X83567Y-53899D02*
X83567Y-53505D01*
X83717Y-53505D01*
X83755Y-53524D01*
X83773Y-53543D01*
X83792Y-53580D01*
X83792Y-53637D01*
X83773Y-53674D01*
X83755Y-53693D01*
X83717Y-53712D01*
X83567Y-53712D01*
X83942Y-53543D02*
X83961Y-53524D01*
X83998Y-53505D01*
X84092Y-53505D01*
X84130Y-53524D01*
X84148Y-53543D01*
X84167Y-53580D01*
X84167Y-53618D01*
X84148Y-53674D01*
X83923Y-53899D01*
X84167Y-53899D01*
X83567Y-46025D02*
X83567Y-45631D01*
X83717Y-45631D01*
X83755Y-45650D01*
X83773Y-45669D01*
X83792Y-45706D01*
X83792Y-45763D01*
X83773Y-45800D01*
X83755Y-45819D01*
X83717Y-45838D01*
X83567Y-45838D01*
X84167Y-46025D02*
X83942Y-46025D01*
X84055Y-46025D02*
X84055Y-45631D01*
X84017Y-45688D01*
X83980Y-45725D01*
X83942Y-45744D01*
X91835Y-46025D02*
X91835Y-45631D01*
X91985Y-45631D01*
X92022Y-45650D01*
X92041Y-45669D01*
X92060Y-45706D01*
X92060Y-45763D01*
X92041Y-45800D01*
X92022Y-45819D01*
X91985Y-45838D01*
X91835Y-45838D01*
X92397Y-45763D02*
X92397Y-46025D01*
X92304Y-45613D02*
X92210Y-45894D01*
X92454Y-45894D01*
X91835Y-53899D02*
X91835Y-53505D01*
X91985Y-53505D01*
X92022Y-53524D01*
X92041Y-53543D01*
X92060Y-53580D01*
X92060Y-53637D01*
X92041Y-53674D01*
X92022Y-53693D01*
X91985Y-53712D01*
X91835Y-53712D01*
X92416Y-53505D02*
X92229Y-53505D01*
X92210Y-53693D01*
X92229Y-53674D01*
X92266Y-53655D01*
X92360Y-53655D01*
X92397Y-53674D01*
X92416Y-53693D01*
X92435Y-53730D01*
X92435Y-53824D01*
X92416Y-53862D01*
X92397Y-53880D01*
X92360Y-53899D01*
X92266Y-53899D01*
X92229Y-53880D01*
X92210Y-53862D01*
X91835Y-61773D02*
X91835Y-61379D01*
X91985Y-61379D01*
X92022Y-61398D01*
X92041Y-61417D01*
X92060Y-61454D01*
X92060Y-61511D01*
X92041Y-61548D01*
X92022Y-61567D01*
X91985Y-61586D01*
X91835Y-61586D01*
X92397Y-61379D02*
X92322Y-61379D01*
X92285Y-61398D01*
X92266Y-61417D01*
X92229Y-61473D01*
X92210Y-61548D01*
X92210Y-61698D01*
X92229Y-61736D01*
X92247Y-61754D01*
X92285Y-61773D01*
X92360Y-61773D01*
X92397Y-61754D01*
X92416Y-61736D01*
X92435Y-61698D01*
X92435Y-61604D01*
X92416Y-61567D01*
X92397Y-61548D01*
X92360Y-61529D01*
X92285Y-61529D01*
X92247Y-61548D01*
X92229Y-61567D01*
X92210Y-61604D01*
%LPC*%
G54D14*
X87567Y-56692D03*
X88417Y-56692D03*
X87567Y-57480D03*
X88417Y-57480D03*
G54D15*
X85748Y-59842D03*
X81968Y-59842D03*
G54D16*
X84842Y-62795D03*
X83858Y-62795D03*
X82874Y-62795D03*
G54D15*
X85748Y-51968D03*
X81968Y-51968D03*
G54D16*
X84842Y-54921D03*
X83858Y-54921D03*
X82874Y-54921D03*
G54D15*
X85748Y-44094D03*
X81968Y-44094D03*
G54D16*
X84842Y-47047D03*
X83858Y-47047D03*
X82874Y-47047D03*
G54D15*
X94015Y-44094D03*
X90236Y-44094D03*
G54D16*
X93110Y-47047D03*
X92125Y-47047D03*
X91141Y-47047D03*
G54D15*
X94015Y-51968D03*
X90236Y-51968D03*
G54D16*
X93110Y-54921D03*
X92125Y-54921D03*
X91141Y-54921D03*
G54D15*
X94015Y-59842D03*
X90236Y-59842D03*
G54D16*
X93110Y-62795D03*
X92125Y-62795D03*
X91141Y-62795D03*
G54D17*
X81220Y-68110D03*
G54D18*
X84921Y-68110D03*
G54D19*
X83070Y-66181D03*
X83070Y-69409D03*
G54D17*
X86141Y-76181D03*
G54D18*
X89842Y-76181D03*
G54D19*
X87992Y-74251D03*
X87992Y-77480D03*
G54D17*
X91062Y-79133D03*
G54D18*
X94763Y-79133D03*
G54D19*
X92913Y-77204D03*
X92913Y-80433D03*
G54D17*
X91062Y-73622D03*
G54D18*
X94763Y-73622D03*
G54D19*
X92913Y-71692D03*
X92913Y-74921D03*
G54D17*
X91062Y-68110D03*
G54D18*
X94763Y-68110D03*
G54D19*
X92913Y-66181D03*
X92913Y-69409D03*
G54D17*
X86141Y-70669D03*
G54D18*
X89842Y-70669D03*
G54D19*
X87992Y-68740D03*
X87992Y-71968D03*
G54D17*
X81220Y-79133D03*
G54D18*
X84921Y-79133D03*
G54D19*
X83070Y-77204D03*
X83070Y-80433D03*
G54D17*
X81220Y-73622D03*
G54D18*
X84921Y-73622D03*
G54D19*
X83070Y-71692D03*
X83070Y-74921D03*
G54D20*
X88492Y-48440D03*
X88492Y-47440D03*
X88492Y-49440D03*
X88492Y-46440D03*
G54D21*
X88492Y-45440D03*
G54D20*
X87492Y-45440D03*
X87492Y-46440D03*
X87492Y-47440D03*
X87492Y-48440D03*
X87492Y-49440D03*
G54D22*
X88385Y-43503D03*
G54D23*
X87598Y-43503D03*
G54D22*
X87598Y-51574D03*
G54D23*
X88385Y-51574D03*
M02*
