  0
SECTION
  2
HEADER
  9
$ANGBASE
  50
0.0
  9
$ANGDIR
  70
  1
  9
$MEASUREMENT
  70
0
  0
ENDSEC
  0
SECTION
  2
TABLES
  0
TABLE
  2
LTYPE
  70
1
  0
LTYPE
  2
CONTINUOUS
  70
0
  3
Solid line
  72
65
  73
0
  40
0.0
  0
ENDTAB
  0
TABLE
  2
STYLE
  70
4
  0
STYLE
  2
KICAD
  70
0
  40
0
  41
1
  42
1
  50
0
  71
0
  3
isocp.shx
  0
STYLE
  2
KICADB
  70
0
  40
0
  41
1
  42
1
  50
0
  71
0
  3
isocp.shx
  0
STYLE
  2
KICADI
  70
0
  40
0
  41
1
  42
1
  50
15
  71
0
  3
isocp.shx
  0
STYLE
  2
KICADBI
  70
0
  40
0
  41
1
  42
1
  50
15
  71
0
  3
isocp.shx
  0
ENDTAB
  0
TABLE
  2
LAYER
  70
24
  0
LAYER
  2
BLACK
  70
0
  62
250
  6
CONTINUOUS
  0
LAYER
  2
BLUE
  70
0
  62
5
  6
CONTINUOUS
  0
LAYER
  2
GREEN
  70
0
  62
3
  6
CONTINUOUS
  0
LAYER
  2
CYAN
  70
0
  62
4
  6
CONTINUOUS
  0
LAYER
  2
RED
  70
0
  62
1
  6
CONTINUOUS
  0
LAYER
  2
MAGENTA
  70
0
  62
6
  6
CONTINUOUS
  0
LAYER
  2
BROWN
  70
0
  62
54
  6
CONTINUOUS
  0
LAYER
  2
LIGHTGRAY
  70
0
  62
9
  6
CONTINUOUS
  0
LAYER
  2
DARKGRAY
  70
0
  62
8
  6
CONTINUOUS
  0
LAYER
  2
LIGHTBLUE
  70
0
  62
171
  6
CONTINUOUS
  0
LAYER
  2
LIGHTGREEN
  70
0
  62
91
  6
CONTINUOUS
  0
LAYER
  2
LIGHTCYAN
  70
0
  62
131
  6
CONTINUOUS
  0
LAYER
  2
LIGHTRED
  70
0
  62
11
  6
CONTINUOUS
  0
LAYER
  2
LIGHTMAGENTA
  70
0
  62
221
  6
CONTINUOUS
  0
LAYER
  2
YELLOW
  70
0
  62
2
  6
CONTINUOUS
  0
LAYER
  2
WHITE
  70
0
  62
7
  6
CONTINUOUS
  0
LAYER
  2
DARKDARKGRAY
  70
0
  62
251
  6
CONTINUOUS
  0
LAYER
  2
DARKBLUE
  70
0
  62
178
  6
CONTINUOUS
  0
LAYER
  2
DARKGREEN
  70
0
  62
98
  6
CONTINUOUS
  0
LAYER
  2
DARKCYAN
  70
0
  62
138
  6
CONTINUOUS
  0
LAYER
  2
DARKRED
  70
0
  62
18
  6
CONTINUOUS
  0
LAYER
  2
DARKMAGENTA
  70
0
  62
228
  6
CONTINUOUS
  0
LAYER
  2
DARKBROWN
  70
0
  62
58
  6
CONTINUOUS
  0
LAYER
  2
LIGHTYELLOW
  70
0
  62
51
  6
CONTINUOUS
  0
ENDTAB
  0
ENDSEC
  0
SECTION
  2
ENTITIES
0
LINE
8
BLACK
10
221.773
20
-144.826
11
222.789
21
-144.826
0
LINE
8
BLACK
10
221.773
20
-144.699
11
222.789
21
-144.699
0
ARC
8
BLACK
10
222.789
20
-144.762
40
0.0635
50
270
51
450
0
ARC
8
BLACK
10
221.773
20
-144.762
40
0.0635
50
90
51
270
0
LINE
8
BLACK
10
221.836
20
-144.762
11
221.836
21
-143.238
0
LINE
8
BLACK
10
221.709
20
-144.762
11
221.709
21
-143.238
0
ARC
8
BLACK
10
221.773
20
-143.238
40
0.0635
50
360
51
540
0
ARC
8
BLACK
10
221.773
20
-144.762
40
0.0635
50
180
51
360
0
LINE
8
BLACK
10
221.773
20
-143.302
11
222.789
21
-143.302
0
LINE
8
BLACK
10
221.773
20
-143.175
11
222.789
21
-143.175
0
ARC
8
BLACK
10
222.789
20
-143.238
40
0.0635
50
270
51
450
0
ARC
8
BLACK
10
221.773
20
-143.238
40
0.0635
50
90
51
270
0
LINE
8
BLACK
10
224.211
20
-143.302
11
225.227
21
-143.302
0
LINE
8
BLACK
10
224.211
20
-143.175
11
225.227
21
-143.175
0
ARC
8
BLACK
10
225.227
20
-143.238
40
0.0635
50
270
51
450
0
ARC
8
BLACK
10
224.211
20
-143.238
40
0.0635
50
90
51
270
0
LINE
8
BLACK
10
225.291
20
-144.762
11
225.291
21
-143.238
0
LINE
8
BLACK
10
225.164
20
-144.762
11
225.164
21
-143.238
0
ARC
8
BLACK
10
225.227
20
-143.238
40
0.0635
50
360
51
540
0
ARC
8
BLACK
10
225.227
20
-144.762
40
0.0635
50
180
51
360
0
LINE
8
BLACK
10
224.211
20
-144.826
11
225.227
21
-144.826
0
LINE
8
BLACK
10
224.211
20
-144.699
11
225.227
21
-144.699
0
ARC
8
BLACK
10
225.227
20
-144.762
40
0.0635
50
270
51
450
0
ARC
8
BLACK
10
224.211
20
-144.762
40
0.0635
50
90
51
270
0
LINE
8
BLACK
10
221.773
20
-146.826
11
222.789
21
-146.826
0
LINE
8
BLACK
10
221.773
20
-146.699
11
222.789
21
-146.699
0
ARC
8
BLACK
10
222.789
20
-146.762
40
0.0635
50
270
51
450
0
ARC
8
BLACK
10
221.773
20
-146.762
40
0.0635
50
90
51
270
0
LINE
8
BLACK
10
221.836
20
-146.762
11
221.836
21
-145.238
0
LINE
8
BLACK
10
221.709
20
-146.762
11
221.709
21
-145.238
0
ARC
8
BLACK
10
221.773
20
-145.238
40
0.0635
50
360
51
540
0
ARC
8
BLACK
10
221.773
20
-146.762
40
0.0635
50
180
51
360
0
LINE
8
BLACK
10
221.773
20
-145.302
11
222.789
21
-145.302
0
LINE
8
BLACK
10
221.773
20
-145.175
11
222.789
21
-145.175
0
ARC
8
BLACK
10
222.789
20
-145.238
40
0.0635
50
270
51
450
0
ARC
8
BLACK
10
221.773
20
-145.238
40
0.0635
50
90
51
270
0
LINE
8
BLACK
10
224.211
20
-145.302
11
225.227
21
-145.302
0
LINE
8
BLACK
10
224.211
20
-145.175
11
225.227
21
-145.175
0
ARC
8
BLACK
10
225.227
20
-145.238
40
0.0635
50
270
51
450
0
ARC
8
BLACK
10
224.211
20
-145.238
40
0.0635
50
90
51
270
0
LINE
8
BLACK
10
225.291
20
-146.762
11
225.291
21
-145.238
0
LINE
8
BLACK
10
225.164
20
-146.762
11
225.164
21
-145.238
0
ARC
8
BLACK
10
225.227
20
-145.238
40
0.0635
50
360
51
540
0
ARC
8
BLACK
10
225.227
20
-146.762
40
0.0635
50
180
51
360
0
LINE
8
BLACK
10
224.211
20
-146.826
11
225.227
21
-146.826
0
LINE
8
BLACK
10
224.211
20
-146.699
11
225.227
21
-146.699
0
ARC
8
BLACK
10
225.227
20
-146.762
40
0.0635
50
270
51
450
0
ARC
8
BLACK
10
224.211
20
-146.762
40
0.0635
50
90
51
270
0
CIRCLE
8
BLACK
10
213
20
-152
40
2.23607
0
LINE
8
BLACK
10
208.191
20
-152
11
208.191
21
-147
0
LINE
8
BLACK
10
207.81
20
-152
11
207.81
21
-147
0
ARC
8
BLACK
10
208
20
-147
40
0.1905
50
360
51
540
0
ARC
8
BLACK
10
208
20
-152
40
0.1905
50
180
51
360
0
LINE
8
BLACK
10
208
20
-147.191
11
218
21
-147.191
0
LINE
8
BLACK
10
208
20
-146.81
11
218
21
-146.81
0
ARC
8
BLACK
10
218
20
-147
40
0.1905
50
270
51
450
0
ARC
8
BLACK
10
208
20
-147
40
0.1905
50
90
51
270
0
LINE
8
BLACK
10
218.191
20
-158
11
218.191
21
-147
0
LINE
8
BLACK
10
217.81
20
-158
11
217.81
21
-147
0
ARC
8
BLACK
10
218
20
-147
40
0.1905
50
360
51
540
0
ARC
8
BLACK
10
218
20
-158
40
0.1905
50
180
51
360
0
LINE
8
BLACK
10
208
20
-158.191
11
218
21
-158.191
0
LINE
8
BLACK
10
208
20
-157.81
11
218
21
-157.81
0
ARC
8
BLACK
10
218
20
-158
40
0.1905
50
270
51
450
0
ARC
8
BLACK
10
208
20
-158
40
0.1905
50
90
51
270
0
LINE
8
BLACK
10
208.191
20
-158
11
208.191
21
-152
0
LINE
8
BLACK
10
207.81
20
-158
11
207.81
21
-152
0
ARC
8
BLACK
10
208
20
-152
40
0.1905
50
360
51
540
0
ARC
8
BLACK
10
208
20
-158
40
0.1905
50
180
51
360
0
CIRCLE
8
BLACK
10
213
20
-132
40
2.23607
0
LINE
8
BLACK
10
208.191
20
-132
11
208.191
21
-127
0
LINE
8
BLACK
10
207.81
20
-132
11
207.81
21
-127
0
ARC
8
BLACK
10
208
20
-127
40
0.1905
50
360
51
540
0
ARC
8
BLACK
10
208
20
-132
40
0.1905
50
180
51
360
0
LINE
8
BLACK
10
208
20
-127.191
11
218
21
-127.191
0
LINE
8
BLACK
10
208
20
-126.81
11
218
21
-126.81
0
ARC
8
BLACK
10
218
20
-127
40
0.1905
50
270
51
450
0
ARC
8
BLACK
10
208
20
-127
40
0.1905
50
90
51
270
0
LINE
8
BLACK
10
218.191
20
-138
11
218.191
21
-127
0
LINE
8
BLACK
10
217.81
20
-138
11
217.81
21
-127
0
ARC
8
BLACK
10
218
20
-127
40
0.1905
50
360
51
540
0
ARC
8
BLACK
10
218
20
-138
40
0.1905
50
180
51
360
0
LINE
8
BLACK
10
208
20
-138.191
11
218
21
-138.191
0
LINE
8
BLACK
10
208
20
-137.81
11
218
21
-137.81
0
ARC
8
BLACK
10
218
20
-138
40
0.1905
50
270
51
450
0
ARC
8
BLACK
10
208
20
-138
40
0.1905
50
90
51
270
0
LINE
8
BLACK
10
208.191
20
-138
11
208.191
21
-132
0
LINE
8
BLACK
10
207.81
20
-138
11
207.81
21
-132
0
ARC
8
BLACK
10
208
20
-132
40
0.1905
50
360
51
540
0
ARC
8
BLACK
10
208
20
-138
40
0.1905
50
180
51
360
0
CIRCLE
8
BLACK
10
213
20
-112
40
2.23607
0
LINE
8
BLACK
10
208.191
20
-112
11
208.191
21
-107
0
LINE
8
BLACK
10
207.81
20
-112
11
207.81
21
-107
0
ARC
8
BLACK
10
208
20
-107
40
0.1905
50
360
51
540
0
ARC
8
BLACK
10
208
20
-112
40
0.1905
50
180
51
360
0
LINE
8
BLACK
10
208
20
-107.191
11
218
21
-107.191
0
LINE
8
BLACK
10
208
20
-106.81
11
218
21
-106.81
0
ARC
8
BLACK
10
218
20
-107
40
0.1905
50
270
51
450
0
ARC
8
BLACK
10
208
20
-107
40
0.1905
50
90
51
270
0
LINE
8
BLACK
10
218.191
20
-118
11
218.191
21
-107
0
LINE
8
BLACK
10
217.81
20
-118
11
217.81
21
-107
0
ARC
8
BLACK
10
218
20
-107
40
0.1905
50
360
51
540
0
ARC
8
BLACK
10
218
20
-118
40
0.1905
50
180
51
360
0
LINE
8
BLACK
10
208
20
-118.191
11
218
21
-118.191
0
LINE
8
BLACK
10
208
20
-117.81
11
218
21
-117.81
0
ARC
8
BLACK
10
218
20
-118
40
0.1905
50
270
51
450
0
ARC
8
BLACK
10
208
20
-118
40
0.1905
50
90
51
270
0
LINE
8
BLACK
10
208.191
20
-118
11
208.191
21
-112
0
LINE
8
BLACK
10
207.81
20
-118
11
207.81
21
-112
0
ARC
8
BLACK
10
208
20
-112
40
0.1905
50
360
51
540
0
ARC
8
BLACK
10
208
20
-118
40
0.1905
50
180
51
360
0
CIRCLE
8
BLACK
10
234
20
-112
40
2.23607
0
LINE
8
BLACK
10
229.191
20
-112
11
229.191
21
-107
0
LINE
8
BLACK
10
228.81
20
-112
11
228.81
21
-107
0
ARC
8
BLACK
10
229
20
-107
40
0.1905
50
360
51
540
0
ARC
8
BLACK
10
229
20
-112
40
0.1905
50
180
51
360
0
LINE
8
BLACK
10
229
20
-107.191
11
239
21
-107.191
0
LINE
8
BLACK
10
229
20
-106.81
11
239
21
-106.81
0
ARC
8
BLACK
10
239
20
-107
40
0.1905
50
270
51
450
0
ARC
8
BLACK
10
229
20
-107
40
0.1905
50
90
51
270
0
LINE
8
BLACK
10
239.191
20
-118
11
239.191
21
-107
0
LINE
8
BLACK
10
238.81
20
-118
11
238.81
21
-107
0
ARC
8
BLACK
10
239
20
-107
40
0.1905
50
360
51
540
0
ARC
8
BLACK
10
239
20
-118
40
0.1905
50
180
51
360
0
LINE
8
BLACK
10
229
20
-118.191
11
239
21
-118.191
0
LINE
8
BLACK
10
229
20
-117.81
11
239
21
-117.81
0
ARC
8
BLACK
10
239
20
-118
40
0.1905
50
270
51
450
0
ARC
8
BLACK
10
229
20
-118
40
0.1905
50
90
51
270
0
LINE
8
BLACK
10
229.191
20
-118
11
229.191
21
-112
0
LINE
8
BLACK
10
228.81
20
-118
11
228.81
21
-112
0
ARC
8
BLACK
10
229
20
-112
40
0.1905
50
360
51
540
0
ARC
8
BLACK
10
229
20
-118
40
0.1905
50
180
51
360
0
CIRCLE
8
BLACK
10
234
20
-132
40
2.23607
0
LINE
8
BLACK
10
229.191
20
-132
11
229.191
21
-127
0
LINE
8
BLACK
10
228.81
20
-132
11
228.81
21
-127
0
ARC
8
BLACK
10
229
20
-127
40
0.1905
50
360
51
540
0
ARC
8
BLACK
10
229
20
-132
40
0.1905
50
180
51
360
0
LINE
8
BLACK
10
229
20
-127.191
11
239
21
-127.191
0
LINE
8
BLACK
10
229
20
-126.81
11
239
21
-126.81
0
ARC
8
BLACK
10
239
20
-127
40
0.1905
50
270
51
450
0
ARC
8
BLACK
10
229
20
-127
40
0.1905
50
90
51
270
0
LINE
8
BLACK
10
239.191
20
-138
11
239.191
21
-127
0
LINE
8
BLACK
10
238.81
20
-138
11
238.81
21
-127
0
ARC
8
BLACK
10
239
20
-127
40
0.1905
50
360
51
540
0
ARC
8
BLACK
10
239
20
-138
40
0.1905
50
180
51
360
0
LINE
8
BLACK
10
229
20
-138.191
11
239
21
-138.191
0
LINE
8
BLACK
10
229
20
-137.81
11
239
21
-137.81
0
ARC
8
BLACK
10
239
20
-138
40
0.1905
50
270
51
450
0
ARC
8
BLACK
10
229
20
-138
40
0.1905
50
90
51
270
0
LINE
8
BLACK
10
229.191
20
-138
11
229.191
21
-132
0
LINE
8
BLACK
10
228.81
20
-138
11
228.81
21
-132
0
ARC
8
BLACK
10
229
20
-132
40
0.1905
50
360
51
540
0
ARC
8
BLACK
10
229
20
-138
40
0.1905
50
180
51
360
0
CIRCLE
8
BLACK
10
234
20
-152
40
2.23607
0
LINE
8
BLACK
10
229.191
20
-152
11
229.191
21
-147
0
LINE
8
BLACK
10
228.81
20
-152
11
228.81
21
-147
0
ARC
8
BLACK
10
229
20
-147
40
0.1905
50
360
51
540
0
ARC
8
BLACK
10
229
20
-152
40
0.1905
50
180
51
360
0
LINE
8
BLACK
10
229
20
-147.191
11
239
21
-147.191
0
LINE
8
BLACK
10
229
20
-146.81
11
239
21
-146.81
0
ARC
8
BLACK
10
239
20
-147
40
0.1905
50
270
51
450
0
ARC
8
BLACK
10
229
20
-147
40
0.1905
50
90
51
270
0
LINE
8
BLACK
10
239.191
20
-158
11
239.191
21
-147
0
LINE
8
BLACK
10
238.81
20
-158
11
238.81
21
-147
0
ARC
8
BLACK
10
239
20
-147
40
0.1905
50
360
51
540
0
ARC
8
BLACK
10
239
20
-158
40
0.1905
50
180
51
360
0
LINE
8
BLACK
10
229
20
-158.191
11
239
21
-158.191
0
LINE
8
BLACK
10
229
20
-157.81
11
239
21
-157.81
0
ARC
8
BLACK
10
239
20
-158
40
0.1905
50
270
51
450
0
ARC
8
BLACK
10
229
20
-158
40
0.1905
50
90
51
270
0
LINE
8
BLACK
10
229.191
20
-158
11
229.191
21
-152
0
LINE
8
BLACK
10
228.81
20
-158
11
228.81
21
-152
0
ARC
8
BLACK
10
229
20
-152
40
0.1905
50
360
51
540
0
ARC
8
BLACK
10
229
20
-158
40
0.1905
50
180
51
360
0
CIRCLE
8
BLACK
10
211
20
-173
40
2.91548
0
LINE
8
BLACK
10
206
20
-178.075
11
216
21
-178.075
0
LINE
8
BLACK
10
206
20
-177.925
11
216
21
-177.925
0
ARC
8
BLACK
10
216
20
-178
40
0.075
50
270
51
450
0
ARC
8
BLACK
10
206
20
-178
40
0.075
50
90
51
270
0
LINE
8
BLACK
10
206.075
20
-178
11
206.075
21
-167
0
LINE
8
BLACK
10
205.925
20
-178
11
205.925
21
-167
0
ARC
8
BLACK
10
206
20
-167
40
0.075
50
360
51
540
0
ARC
8
BLACK
10
206
20
-178
40
0.075
50
180
51
360
0
LINE
8
BLACK
10
206
20
-167.075
11
216
21
-167.075
0
LINE
8
BLACK
10
206
20
-166.925
11
216
21
-166.925
0
ARC
8
BLACK
10
216
20
-167
40
0.075
50
270
51
450
0
ARC
8
BLACK
10
206
20
-167
40
0.075
50
90
51
270
0
LINE
8
BLACK
10
216.075
20
-178
11
216.075
21
-167
0
LINE
8
BLACK
10
215.925
20
-178
11
215.925
21
-167
0
ARC
8
BLACK
10
216
20
-167
40
0.075
50
360
51
540
0
ARC
8
BLACK
10
216
20
-178
40
0.075
50
180
51
360
0
CIRCLE
8
BLACK
10
211
20
-173
40
2
0
CIRCLE
8
BLACK
10
223.5
20
-193.5
40
2.91548
0
LINE
8
BLACK
10
218.5
20
-198.575
11
228.5
21
-198.575
0
LINE
8
BLACK
10
218.5
20
-198.425
11
228.5
21
-198.425
0
ARC
8
BLACK
10
228.5
20
-198.5
40
0.075
50
270
51
450
0
ARC
8
BLACK
10
218.5
20
-198.5
40
0.075
50
90
51
270
0
LINE
8
BLACK
10
218.575
20
-198.5
11
218.575
21
-187.5
0
LINE
8
BLACK
10
218.425
20
-198.5
11
218.425
21
-187.5
0
ARC
8
BLACK
10
218.5
20
-187.5
40
0.075
50
360
51
540
0
ARC
8
BLACK
10
218.5
20
-198.5
40
0.075
50
180
51
360
0
LINE
8
BLACK
10
218.5
20
-187.575
11
228.5
21
-187.575
0
LINE
8
BLACK
10
218.5
20
-187.425
11
228.5
21
-187.425
0
ARC
8
BLACK
10
228.5
20
-187.5
40
0.075
50
270
51
450
0
ARC
8
BLACK
10
218.5
20
-187.5
40
0.075
50
90
51
270
0
LINE
8
BLACK
10
228.575
20
-198.5
11
228.575
21
-187.5
0
LINE
8
BLACK
10
228.425
20
-198.5
11
228.425
21
-187.5
0
ARC
8
BLACK
10
228.5
20
-187.5
40
0.075
50
360
51
540
0
ARC
8
BLACK
10
228.5
20
-198.5
40
0.075
50
180
51
360
0
CIRCLE
8
BLACK
10
223.5
20
-193.5
40
2
0
CIRCLE
8
BLACK
10
236
20
-201
40
2.91548
0
LINE
8
BLACK
10
231
20
-206.075
11
241
21
-206.075
0
LINE
8
BLACK
10
231
20
-205.925
11
241
21
-205.925
0
ARC
8
BLACK
10
241
20
-206
40
0.075
50
270
51
450
0
ARC
8
BLACK
10
231
20
-206
40
0.075
50
90
51
270
0
LINE
8
BLACK
10
231.075
20
-206
11
231.075
21
-195
0
LINE
8
BLACK
10
230.925
20
-206
11
230.925
21
-195
0
ARC
8
BLACK
10
231
20
-195
40
0.075
50
360
51
540
0
ARC
8
BLACK
10
231
20
-206
40
0.075
50
180
51
360
0
LINE
8
BLACK
10
231
20
-195.075
11
241
21
-195.075
0
LINE
8
BLACK
10
231
20
-194.925
11
241
21
-194.925
0
ARC
8
BLACK
10
241
20
-195
40
0.075
50
270
51
450
0
ARC
8
BLACK
10
231
20
-195
40
0.075
50
90
51
270
0
LINE
8
BLACK
10
241.075
20
-206
11
241.075
21
-195
0
LINE
8
BLACK
10
240.925
20
-206
11
240.925
21
-195
0
ARC
8
BLACK
10
241
20
-195
40
0.075
50
360
51
540
0
ARC
8
BLACK
10
241
20
-206
40
0.075
50
180
51
360
0
CIRCLE
8
BLACK
10
236
20
-201
40
2
0
CIRCLE
8
BLACK
10
236
20
-187
40
2.91548
0
LINE
8
BLACK
10
231
20
-192.075
11
241
21
-192.075
0
LINE
8
BLACK
10
231
20
-191.925
11
241
21
-191.925
0
ARC
8
BLACK
10
241
20
-192
40
0.075
50
270
51
450
0
ARC
8
BLACK
10
231
20
-192
40
0.075
50
90
51
270
0
LINE
8
BLACK
10
231.075
20
-192
11
231.075
21
-181
0
LINE
8
BLACK
10
230.925
20
-192
11
230.925
21
-181
0
ARC
8
BLACK
10
231
20
-181
40
0.075
50
360
51
540
0
ARC
8
BLACK
10
231
20
-192
40
0.075
50
180
51
360
0
LINE
8
BLACK
10
231
20
-181.075
11
241
21
-181.075
0
LINE
8
BLACK
10
231
20
-180.925
11
241
21
-180.925
0
ARC
8
BLACK
10
241
20
-181
40
0.075
50
270
51
450
0
ARC
8
BLACK
10
231
20
-181
40
0.075
50
90
51
270
0
LINE
8
BLACK
10
241.075
20
-192
11
241.075
21
-181
0
LINE
8
BLACK
10
240.925
20
-192
11
240.925
21
-181
0
ARC
8
BLACK
10
241
20
-181
40
0.075
50
360
51
540
0
ARC
8
BLACK
10
241
20
-192
40
0.075
50
180
51
360
0
CIRCLE
8
BLACK
10
236
20
-187
40
2
0
CIRCLE
8
BLACK
10
236
20
-173
40
2.91548
0
LINE
8
BLACK
10
231
20
-178.075
11
241
21
-178.075
0
LINE
8
BLACK
10
231
20
-177.925
11
241
21
-177.925
0
ARC
8
BLACK
10
241
20
-178
40
0.075
50
270
51
450
0
ARC
8
BLACK
10
231
20
-178
40
0.075
50
90
51
270
0
LINE
8
BLACK
10
231.075
20
-178
11
231.075
21
-167
0
LINE
8
BLACK
10
230.925
20
-178
11
230.925
21
-167
0
ARC
8
BLACK
10
231
20
-167
40
0.075
50
360
51
540
0
ARC
8
BLACK
10
231
20
-178
40
0.075
50
180
51
360
0
LINE
8
BLACK
10
231
20
-167.075
11
241
21
-167.075
0
LINE
8
BLACK
10
231
20
-166.925
11
241
21
-166.925
0
ARC
8
BLACK
10
241
20
-167
40
0.075
50
270
51
450
0
ARC
8
BLACK
10
231
20
-167
40
0.075
50
90
51
270
0
LINE
8
BLACK
10
241.075
20
-178
11
241.075
21
-167
0
LINE
8
BLACK
10
240.925
20
-178
11
240.925
21
-167
0
ARC
8
BLACK
10
241
20
-167
40
0.075
50
360
51
540
0
ARC
8
BLACK
10
241
20
-178
40
0.075
50
180
51
360
0
CIRCLE
8
BLACK
10
236
20
-173
40
2
0
CIRCLE
8
BLACK
10
223.5
20
-179.5
40
2.91548
0
LINE
8
BLACK
10
218.5
20
-184.575
11
228.5
21
-184.575
0
LINE
8
BLACK
10
218.5
20
-184.425
11
228.5
21
-184.425
0
ARC
8
BLACK
10
228.5
20
-184.5
40
0.075
50
270
51
450
0
ARC
8
BLACK
10
218.5
20
-184.5
40
0.075
50
90
51
270
0
LINE
8
BLACK
10
218.575
20
-184.5
11
218.575
21
-173.5
0
LINE
8
BLACK
10
218.425
20
-184.5
11
218.425
21
-173.5
0
ARC
8
BLACK
10
218.5
20
-173.5
40
0.075
50
360
51
540
0
ARC
8
BLACK
10
218.5
20
-184.5
40
0.075
50
180
51
360
0
LINE
8
BLACK
10
218.5
20
-173.575
11
228.5
21
-173.575
0
LINE
8
BLACK
10
218.5
20
-173.425
11
228.5
21
-173.425
0
ARC
8
BLACK
10
228.5
20
-173.5
40
0.075
50
270
51
450
0
ARC
8
BLACK
10
218.5
20
-173.5
40
0.075
50
90
51
270
0
LINE
8
BLACK
10
228.575
20
-184.5
11
228.575
21
-173.5
0
LINE
8
BLACK
10
228.425
20
-184.5
11
228.425
21
-173.5
0
ARC
8
BLACK
10
228.5
20
-173.5
40
0.075
50
360
51
540
0
ARC
8
BLACK
10
228.5
20
-184.5
40
0.075
50
180
51
360
0
CIRCLE
8
BLACK
10
223.5
20
-179.5
40
2
0
CIRCLE
8
BLACK
10
211
20
-201
40
2.91548
0
LINE
8
BLACK
10
206
20
-206.075
11
216
21
-206.075
0
LINE
8
BLACK
10
206
20
-205.925
11
216
21
-205.925
0
ARC
8
BLACK
10
216
20
-206
40
0.075
50
270
51
450
0
ARC
8
BLACK
10
206
20
-206
40
0.075
50
90
51
270
0
LINE
8
BLACK
10
206.075
20
-206
11
206.075
21
-195
0
LINE
8
BLACK
10
205.925
20
-206
11
205.925
21
-195
0
ARC
8
BLACK
10
206
20
-195
40
0.075
50
360
51
540
0
ARC
8
BLACK
10
206
20
-206
40
0.075
50
180
51
360
0
LINE
8
BLACK
10
206
20
-195.075
11
216
21
-195.075
0
LINE
8
BLACK
10
206
20
-194.925
11
216
21
-194.925
0
ARC
8
BLACK
10
216
20
-195
40
0.075
50
270
51
450
0
ARC
8
BLACK
10
206
20
-195
40
0.075
50
90
51
270
0
LINE
8
BLACK
10
216.075
20
-206
11
216.075
21
-195
0
LINE
8
BLACK
10
215.925
20
-206
11
215.925
21
-195
0
ARC
8
BLACK
10
216
20
-195
40
0.075
50
360
51
540
0
ARC
8
BLACK
10
216
20
-206
40
0.075
50
180
51
360
0
CIRCLE
8
BLACK
10
211
20
-201
40
2
0
CIRCLE
8
BLACK
10
211
20
-187
40
2.91548
0
LINE
8
BLACK
10
206
20
-192.075
11
216
21
-192.075
0
LINE
8
BLACK
10
206
20
-191.925
11
216
21
-191.925
0
ARC
8
BLACK
10
216
20
-192
40
0.075
50
270
51
450
0
ARC
8
BLACK
10
206
20
-192
40
0.075
50
90
51
270
0
LINE
8
BLACK
10
206.075
20
-192
11
206.075
21
-181
0
LINE
8
BLACK
10
205.925
20
-192
11
205.925
21
-181
0
ARC
8
BLACK
10
206
20
-181
40
0.075
50
360
51
540
0
ARC
8
BLACK
10
206
20
-192
40
0.075
50
180
51
360
0
LINE
8
BLACK
10
206
20
-181.075
11
216
21
-181.075
0
LINE
8
BLACK
10
206
20
-180.925
11
216
21
-180.925
0
ARC
8
BLACK
10
216
20
-181
40
0.075
50
270
51
450
0
ARC
8
BLACK
10
206
20
-181
40
0.075
50
90
51
270
0
LINE
8
BLACK
10
216.075
20
-192
11
216.075
21
-181
0
LINE
8
BLACK
10
215.925
20
-192
11
215.925
21
-181
0
ARC
8
BLACK
10
216
20
-181
40
0.075
50
360
51
540
0
ARC
8
BLACK
10
216
20
-192
40
0.075
50
180
51
360
0
CIRCLE
8
BLACK
10
211
20
-187
40
2
0
LINE
8
BLACK
10
226.365
20
-144.252
11
226.326
21
-144.29
0
LINE
8
BLACK
10
226.326
20
-144.29
11
226.21
21
-144.329
0
LINE
8
BLACK
10
226.21
20
-144.329
11
226.132
21
-144.329
0
LINE
8
BLACK
10
226.132
20
-144.329
11
226.016
21
-144.29
0
LINE
8
BLACK
10
226.016
20
-144.29
11
225.939
21
-144.213
0
LINE
8
BLACK
10
225.939
20
-144.213
11
225.9
21
-144.135
0
LINE
8
BLACK
10
225.9
20
-144.135
11
225.861
21
-143.981
0
LINE
8
BLACK
10
225.861
20
-143.981
11
225.861
21
-143.865
0
LINE
8
BLACK
10
225.861
20
-143.865
11
225.9
21
-143.71
0
LINE
8
BLACK
10
225.9
20
-143.71
11
225.939
21
-143.632
0
LINE
8
BLACK
10
225.939
20
-143.632
11
226.016
21
-143.555
0
LINE
8
BLACK
10
226.016
20
-143.555
11
226.132
21
-143.516
0
LINE
8
BLACK
10
226.132
20
-143.516
11
226.21
21
-143.516
0
LINE
8
BLACK
10
226.21
20
-143.516
11
226.326
21
-143.555
0
LINE
8
BLACK
10
226.326
20
-143.555
11
226.365
21
-143.594
0
LINE
8
BLACK
10
227.1
20
-143.516
11
226.713
21
-143.516
0
LINE
8
BLACK
10
226.713
20
-143.516
11
226.674
21
-143.903
0
LINE
8
BLACK
10
226.674
20
-143.903
11
226.713
21
-143.865
0
LINE
8
BLACK
10
226.713
20
-143.865
11
226.79
21
-143.826
0
LINE
8
BLACK
10
226.79
20
-143.826
11
226.984
21
-143.826
0
LINE
8
BLACK
10
226.984
20
-143.826
11
227.061
21
-143.865
0
LINE
8
BLACK
10
227.061
20
-143.865
11
227.1
21
-143.903
0
LINE
8
BLACK
10
227.1
20
-143.903
11
227.139
21
-143.981
0
LINE
8
BLACK
10
227.139
20
-143.981
11
227.139
21
-144.174
0
LINE
8
BLACK
10
227.139
20
-144.174
11
227.1
21
-144.252
0
LINE
8
BLACK
10
227.1
20
-144.252
11
227.061
21
-144.29
0
LINE
8
BLACK
10
227.061
20
-144.29
11
226.984
21
-144.329
0
LINE
8
BLACK
10
226.984
20
-144.329
11
226.79
21
-144.329
0
LINE
8
BLACK
10
226.79
20
-144.329
11
226.713
21
-144.29
0
LINE
8
BLACK
10
226.713
20
-144.29
11
226.674
21
-144.252
0
LINE
8
BLACK
10
226.365
20
-146.252
11
226.326
21
-146.29
0
LINE
8
BLACK
10
226.326
20
-146.29
11
226.21
21
-146.329
0
LINE
8
BLACK
10
226.21
20
-146.329
11
226.132
21
-146.329
0
LINE
8
BLACK
10
226.132
20
-146.329
11
226.016
21
-146.29
0
LINE
8
BLACK
10
226.016
20
-146.29
11
225.939
21
-146.213
0
LINE
8
BLACK
10
225.939
20
-146.213
11
225.9
21
-146.135
0
LINE
8
BLACK
10
225.9
20
-146.135
11
225.861
21
-145.981
0
LINE
8
BLACK
10
225.861
20
-145.981
11
225.861
21
-145.865
0
LINE
8
BLACK
10
225.861
20
-145.865
11
225.9
21
-145.71
0
LINE
8
BLACK
10
225.9
20
-145.71
11
225.939
21
-145.632
0
LINE
8
BLACK
10
225.939
20
-145.632
11
226.016
21
-145.555
0
LINE
8
BLACK
10
226.016
20
-145.555
11
226.132
21
-145.516
0
LINE
8
BLACK
10
226.132
20
-145.516
11
226.21
21
-145.516
0
LINE
8
BLACK
10
226.21
20
-145.516
11
226.326
21
-145.555
0
LINE
8
BLACK
10
226.326
20
-145.555
11
226.365
21
-145.594
0
LINE
8
BLACK
10
227.061
20
-145.516
11
226.906
21
-145.516
0
LINE
8
BLACK
10
226.906
20
-145.516
11
226.829
21
-145.555
0
LINE
8
BLACK
10
226.829
20
-145.555
11
226.79
21
-145.594
0
LINE
8
BLACK
10
226.79
20
-145.594
11
226.713
21
-145.71
0
LINE
8
BLACK
10
226.713
20
-145.71
11
226.674
21
-145.865
0
LINE
8
BLACK
10
226.674
20
-145.865
11
226.674
21
-146.174
0
LINE
8
BLACK
10
226.674
20
-146.174
11
226.713
21
-146.252
0
LINE
8
BLACK
10
226.713
20
-146.252
11
226.752
21
-146.29
0
LINE
8
BLACK
10
226.752
20
-146.29
11
226.829
21
-146.329
0
LINE
8
BLACK
10
226.829
20
-146.329
11
226.984
21
-146.329
0
LINE
8
BLACK
10
226.984
20
-146.329
11
227.061
21
-146.29
0
LINE
8
BLACK
10
227.061
20
-146.29
11
227.1
21
-146.252
0
LINE
8
BLACK
10
227.1
20
-146.252
11
227.139
21
-146.174
0
LINE
8
BLACK
10
227.139
20
-146.174
11
227.139
21
-145.981
0
LINE
8
BLACK
10
227.139
20
-145.981
11
227.1
21
-145.903
0
LINE
8
BLACK
10
227.1
20
-145.903
11
227.061
21
-145.865
0
LINE
8
BLACK
10
227.061
20
-145.865
11
226.984
21
-145.826
0
LINE
8
BLACK
10
226.984
20
-145.826
11
226.829
21
-145.826
0
LINE
8
BLACK
10
226.829
20
-145.826
11
226.752
21
-145.865
0
LINE
8
BLACK
10
226.752
20
-145.865
11
226.713
21
-145.903
0
LINE
8
BLACK
10
226.713
20
-145.903
11
226.674
21
-145.981
0
LINE
8
BLACK
10
212.262
20
-156.905
11
212.262
21
-155.905
0
LINE
8
BLACK
10
212.262
20
-155.905
11
212.643
21
-155.905
0
LINE
8
BLACK
10
212.643
20
-155.905
11
212.738
21
-155.952
0
LINE
8
BLACK
10
212.738
20
-155.952
11
212.786
21
-156
0
LINE
8
BLACK
10
212.786
20
-156
11
212.833
21
-156.095
0
LINE
8
BLACK
10
212.833
20
-156.095
11
212.833
21
-156.238
0
LINE
8
BLACK
10
212.833
20
-156.238
11
212.786
21
-156.333
0
LINE
8
BLACK
10
212.786
20
-156.333
11
212.738
21
-156.381
0
LINE
8
BLACK
10
212.738
20
-156.381
11
212.643
21
-156.429
0
LINE
8
BLACK
10
212.643
20
-156.429
11
212.262
21
-156.429
0
LINE
8
BLACK
10
213.167
20
-155.905
11
213.786
21
-155.905
0
LINE
8
BLACK
10
213.786
20
-155.905
11
213.452
21
-156.286
0
LINE
8
BLACK
10
213.452
20
-156.286
11
213.595
21
-156.286
0
LINE
8
BLACK
10
213.595
20
-156.286
11
213.69
21
-156.333
0
LINE
8
BLACK
10
213.69
20
-156.333
11
213.738
21
-156.381
0
LINE
8
BLACK
10
213.738
20
-156.381
11
213.786
21
-156.476
0
LINE
8
BLACK
10
213.786
20
-156.476
11
213.786
21
-156.714
0
LINE
8
BLACK
10
213.786
20
-156.714
11
213.738
21
-156.81
0
LINE
8
BLACK
10
213.738
20
-156.81
11
213.69
21
-156.857
0
LINE
8
BLACK
10
213.69
20
-156.857
11
213.595
21
-156.905
0
LINE
8
BLACK
10
213.595
20
-156.905
11
213.31
21
-156.905
0
LINE
8
BLACK
10
213.31
20
-156.905
11
213.214
21
-156.857
0
LINE
8
BLACK
10
213.214
20
-156.857
11
213.167
21
-156.81
0
LINE
8
BLACK
10
212.262
20
-136.905
11
212.262
21
-135.905
0
LINE
8
BLACK
10
212.262
20
-135.905
11
212.643
21
-135.905
0
LINE
8
BLACK
10
212.643
20
-135.905
11
212.738
21
-135.952
0
LINE
8
BLACK
10
212.738
20
-135.952
11
212.786
21
-136
0
LINE
8
BLACK
10
212.786
20
-136
11
212.833
21
-136.095
0
LINE
8
BLACK
10
212.833
20
-136.095
11
212.833
21
-136.238
0
LINE
8
BLACK
10
212.833
20
-136.238
11
212.786
21
-136.333
0
LINE
8
BLACK
10
212.786
20
-136.333
11
212.738
21
-136.381
0
LINE
8
BLACK
10
212.738
20
-136.381
11
212.643
21
-136.429
0
LINE
8
BLACK
10
212.643
20
-136.429
11
212.262
21
-136.429
0
LINE
8
BLACK
10
213.214
20
-136
11
213.262
21
-135.952
0
LINE
8
BLACK
10
213.262
20
-135.952
11
213.357
21
-135.905
0
LINE
8
BLACK
10
213.357
20
-135.905
11
213.595
21
-135.905
0
LINE
8
BLACK
10
213.595
20
-135.905
11
213.69
21
-135.952
0
LINE
8
BLACK
10
213.69
20
-135.952
11
213.738
21
-136
0
LINE
8
BLACK
10
213.738
20
-136
11
213.786
21
-136.095
0
LINE
8
BLACK
10
213.786
20
-136.095
11
213.786
21
-136.19
0
LINE
8
BLACK
10
213.786
20
-136.19
11
213.738
21
-136.333
0
LINE
8
BLACK
10
213.738
20
-136.333
11
213.167
21
-136.905
0
LINE
8
BLACK
10
213.167
20
-136.905
11
213.786
21
-136.905
0
LINE
8
BLACK
10
212.262
20
-116.905
11
212.262
21
-115.905
0
LINE
8
BLACK
10
212.262
20
-115.905
11
212.643
21
-115.905
0
LINE
8
BLACK
10
212.643
20
-115.905
11
212.738
21
-115.952
0
LINE
8
BLACK
10
212.738
20
-115.952
11
212.786
21
-116
0
LINE
8
BLACK
10
212.786
20
-116
11
212.833
21
-116.095
0
LINE
8
BLACK
10
212.833
20
-116.095
11
212.833
21
-116.238
0
LINE
8
BLACK
10
212.833
20
-116.238
11
212.786
21
-116.333
0
LINE
8
BLACK
10
212.786
20
-116.333
11
212.738
21
-116.381
0
LINE
8
BLACK
10
212.738
20
-116.381
11
212.643
21
-116.429
0
LINE
8
BLACK
10
212.643
20
-116.429
11
212.262
21
-116.429
0
LINE
8
BLACK
10
213.786
20
-116.905
11
213.214
21
-116.905
0
LINE
8
BLACK
10
213.5
20
-116.905
11
213.5
21
-115.905
0
LINE
8
BLACK
10
213.5
20
-115.905
11
213.405
21
-116.048
0
LINE
8
BLACK
10
213.405
20
-116.048
11
213.31
21
-116.143
0
LINE
8
BLACK
10
213.31
20
-116.143
11
213.214
21
-116.19
0
LINE
8
BLACK
10
233.262
20
-116.905
11
233.262
21
-115.905
0
LINE
8
BLACK
10
233.262
20
-115.905
11
233.643
21
-115.905
0
LINE
8
BLACK
10
233.643
20
-115.905
11
233.738
21
-115.952
0
LINE
8
BLACK
10
233.738
20
-115.952
11
233.786
21
-116
0
LINE
8
BLACK
10
233.786
20
-116
11
233.833
21
-116.095
0
LINE
8
BLACK
10
233.833
20
-116.095
11
233.833
21
-116.238
0
LINE
8
BLACK
10
233.833
20
-116.238
11
233.786
21
-116.333
0
LINE
8
BLACK
10
233.786
20
-116.333
11
233.738
21
-116.381
0
LINE
8
BLACK
10
233.738
20
-116.381
11
233.643
21
-116.429
0
LINE
8
BLACK
10
233.643
20
-116.429
11
233.262
21
-116.429
0
LINE
8
BLACK
10
234.69
20
-116.238
11
234.69
21
-116.905
0
LINE
8
BLACK
10
234.452
20
-115.857
11
234.214
21
-116.571
0
LINE
8
BLACK
10
234.214
20
-116.571
11
234.833
21
-116.571
0
LINE
8
BLACK
10
233.262
20
-136.905
11
233.262
21
-135.905
0
LINE
8
BLACK
10
233.262
20
-135.905
11
233.643
21
-135.905
0
LINE
8
BLACK
10
233.643
20
-135.905
11
233.738
21
-135.952
0
LINE
8
BLACK
10
233.738
20
-135.952
11
233.786
21
-136
0
LINE
8
BLACK
10
233.786
20
-136
11
233.833
21
-136.095
0
LINE
8
BLACK
10
233.833
20
-136.095
11
233.833
21
-136.238
0
LINE
8
BLACK
10
233.833
20
-136.238
11
233.786
21
-136.333
0
LINE
8
BLACK
10
233.786
20
-136.333
11
233.738
21
-136.381
0
LINE
8
BLACK
10
233.738
20
-136.381
11
233.643
21
-136.429
0
LINE
8
BLACK
10
233.643
20
-136.429
11
233.262
21
-136.429
0
LINE
8
BLACK
10
234.738
20
-135.905
11
234.262
21
-135.905
0
LINE
8
BLACK
10
234.262
20
-135.905
11
234.214
21
-136.381
0
LINE
8
BLACK
10
234.214
20
-136.381
11
234.262
21
-136.333
0
LINE
8
BLACK
10
234.262
20
-136.333
11
234.357
21
-136.286
0
LINE
8
BLACK
10
234.357
20
-136.286
11
234.595
21
-136.286
0
LINE
8
BLACK
10
234.595
20
-136.286
11
234.69
21
-136.333
0
LINE
8
BLACK
10
234.69
20
-136.333
11
234.738
21
-136.381
0
LINE
8
BLACK
10
234.738
20
-136.381
11
234.786
21
-136.476
0
LINE
8
BLACK
10
234.786
20
-136.476
11
234.786
21
-136.714
0
LINE
8
BLACK
10
234.786
20
-136.714
11
234.738
21
-136.81
0
LINE
8
BLACK
10
234.738
20
-136.81
11
234.69
21
-136.857
0
LINE
8
BLACK
10
234.69
20
-136.857
11
234.595
21
-136.905
0
LINE
8
BLACK
10
234.595
20
-136.905
11
234.357
21
-136.905
0
LINE
8
BLACK
10
234.357
20
-136.905
11
234.262
21
-136.857
0
LINE
8
BLACK
10
234.262
20
-136.857
11
234.214
21
-136.81
0
LINE
8
BLACK
10
233.262
20
-156.905
11
233.262
21
-155.905
0
LINE
8
BLACK
10
233.262
20
-155.905
11
233.643
21
-155.905
0
LINE
8
BLACK
10
233.643
20
-155.905
11
233.738
21
-155.952
0
LINE
8
BLACK
10
233.738
20
-155.952
11
233.786
21
-156
0
LINE
8
BLACK
10
233.786
20
-156
11
233.833
21
-156.095
0
LINE
8
BLACK
10
233.833
20
-156.095
11
233.833
21
-156.238
0
LINE
8
BLACK
10
233.833
20
-156.238
11
233.786
21
-156.333
0
LINE
8
BLACK
10
233.786
20
-156.333
11
233.738
21
-156.381
0
LINE
8
BLACK
10
233.738
20
-156.381
11
233.643
21
-156.429
0
LINE
8
BLACK
10
233.643
20
-156.429
11
233.262
21
-156.429
0
LINE
8
BLACK
10
234.69
20
-155.905
11
234.5
21
-155.905
0
LINE
8
BLACK
10
234.5
20
-155.905
11
234.405
21
-155.952
0
LINE
8
BLACK
10
234.405
20
-155.952
11
234.357
21
-156
0
LINE
8
BLACK
10
234.357
20
-156
11
234.262
21
-156.143
0
LINE
8
BLACK
10
234.262
20
-156.143
11
234.214
21
-156.333
0
LINE
8
BLACK
10
234.214
20
-156.333
11
234.214
21
-156.714
0
LINE
8
BLACK
10
234.214
20
-156.714
11
234.262
21
-156.81
0
LINE
8
BLACK
10
234.262
20
-156.81
11
234.31
21
-156.857
0
LINE
8
BLACK
10
234.31
20
-156.857
11
234.405
21
-156.905
0
LINE
8
BLACK
10
234.405
20
-156.905
11
234.595
21
-156.905
0
LINE
8
BLACK
10
234.595
20
-156.905
11
234.69
21
-156.857
0
LINE
8
BLACK
10
234.69
20
-156.857
11
234.738
21
-156.81
0
LINE
8
BLACK
10
234.738
20
-156.81
11
234.786
21
-156.714
0
LINE
8
BLACK
10
234.786
20
-156.714
11
234.786
21
-156.476
0
LINE
8
BLACK
10
234.786
20
-156.476
11
234.738
21
-156.381
0
LINE
8
BLACK
10
234.738
20
-156.381
11
234.69
21
-156.333
0
LINE
8
BLACK
10
234.69
20
-156.333
11
234.595
21
-156.286
0
LINE
8
BLACK
10
234.595
20
-156.286
11
234.405
21
-156.286
0
LINE
8
BLACK
10
234.405
20
-156.286
11
234.31
21
-156.333
0
LINE
8
BLACK
10
234.31
20
-156.333
11
234.262
21
-156.381
0
LINE
8
BLACK
10
234.262
20
-156.381
11
234.214
21
-156.476
  0
ENDSEC
  0
EOF
