M48
INCH,TZ
T1C0.025
T2C0.031
T3C0.039
T4C0.040
T5C0.049
T6C0.071
T7C0.089
%
G90
G05
T1
X085478Y-053886
X085756Y-057874
X086181Y-056732
X087750Y-058104
X089776Y-055284
X089796Y-057099
X089797Y-056294
T2
X087598Y-043504
X087598Y-051575
X088386Y-043504
X088386Y-051575
T3
X082874Y-047047
X082874Y-054921
X082874Y-062795
X083858Y-047047
X083858Y-054921
X083858Y-062795
X084843Y-047047
X084843Y-054921
X084843Y-062795
X091142Y-047047
X091142Y-054921
X091142Y-062795
X092126Y-047047
X092126Y-054921
X092126Y-062795
X093110Y-047047
X093110Y-054921
X093110Y-062795
T4
X087492Y-045441
X087492Y-046441
X087492Y-047441
X087492Y-048441
X087492Y-049441
X088492Y-045441
X088492Y-046441
X088492Y-047441
X088492Y-048441
X088492Y-049441
T5
X084921Y-068110
X084921Y-073622
X084921Y-079134
X089843Y-070669
X089843Y-076181
X094764Y-068110
X094764Y-073622
X094764Y-079134
T6
X081969Y-044094
X081969Y-051969
X081969Y-059843
X085748Y-044094
X085748Y-051969
X085748Y-059843
X090236Y-044094
X090236Y-051969
X090236Y-059843
X094016Y-044094
X094016Y-051969
X094016Y-059843
T7
X081220Y-068110
X081220Y-073622
X081220Y-079134
X083071Y-066181
X083071Y-069409
X083071Y-071693
X083071Y-074921
X083071Y-077205
X083071Y-080433
X086142Y-070669
X086142Y-076181
X087992Y-068740
X087992Y-071969
X087992Y-074252
X087992Y-077480
X091063Y-068110
X091063Y-073622
X091063Y-079134
X092913Y-066181
X092913Y-069409
X092913Y-071693
X092913Y-074921
X092913Y-077205
X092913Y-080433
T0
M30
