G04 (created by PCBNEW (2013-07-07 BZR 4022)-stable) date 2014-05-25 11:14:29 PM*
%MOIN*%
G04 Gerber Fmt 3.4, Leading zero omitted, Abs format*
%FSLAX34Y34*%
G01*
G70*
G90*
G04 APERTURE LIST*
%ADD10C,0.00590551*%
%ADD11R,0.045X0.055*%
%ADD12O,0.0984252X0.137795*%
%ADD13C,0.0688976*%
%ADD14O,0.137795X0.19685*%
%ADD15O,0.0787402X0.137795*%
%ADD16O,0.137795X0.137795*%
%ADD17C,0.0787*%
%ADD18R,0.0787X0.0787*%
%ADD19R,0.0551181X0.0551181*%
%ADD20C,0.0551181*%
G04 APERTURE END LIST*
G54D10*
G54D11*
X87567Y-56692D03*
X88417Y-56692D03*
X87567Y-57480D03*
X88417Y-57480D03*
G54D12*
X85748Y-59842D03*
X81968Y-59842D03*
G54D13*
X84842Y-62795D03*
X83858Y-62795D03*
X82874Y-62795D03*
G54D12*
X85748Y-51968D03*
X81968Y-51968D03*
G54D13*
X84842Y-54921D03*
X83858Y-54921D03*
X82874Y-54921D03*
G54D12*
X85748Y-44094D03*
X81968Y-44094D03*
G54D13*
X84842Y-47047D03*
X83858Y-47047D03*
X82874Y-47047D03*
G54D12*
X94015Y-44094D03*
X90236Y-44094D03*
G54D13*
X93110Y-47047D03*
X92125Y-47047D03*
X91141Y-47047D03*
G54D12*
X94015Y-51968D03*
X90236Y-51968D03*
G54D13*
X93110Y-54921D03*
X92125Y-54921D03*
X91141Y-54921D03*
G54D12*
X94015Y-59842D03*
X90236Y-59842D03*
G54D13*
X93110Y-62795D03*
X92125Y-62795D03*
X91141Y-62795D03*
G54D14*
X81220Y-68110D03*
G54D15*
X84921Y-68110D03*
G54D16*
X83070Y-66181D03*
X83070Y-69409D03*
G54D14*
X86141Y-76181D03*
G54D15*
X89842Y-76181D03*
G54D16*
X87992Y-74251D03*
X87992Y-77480D03*
G54D14*
X91062Y-79133D03*
G54D15*
X94763Y-79133D03*
G54D16*
X92913Y-77204D03*
X92913Y-80433D03*
G54D14*
X91062Y-73622D03*
G54D15*
X94763Y-73622D03*
G54D16*
X92913Y-71692D03*
X92913Y-74921D03*
G54D14*
X91062Y-68110D03*
G54D15*
X94763Y-68110D03*
G54D16*
X92913Y-66181D03*
X92913Y-69409D03*
G54D14*
X86141Y-70669D03*
G54D15*
X89842Y-70669D03*
G54D16*
X87992Y-68740D03*
X87992Y-71968D03*
G54D14*
X81220Y-79133D03*
G54D15*
X84921Y-79133D03*
G54D16*
X83070Y-77204D03*
X83070Y-80433D03*
G54D14*
X81220Y-73622D03*
G54D15*
X84921Y-73622D03*
G54D16*
X83070Y-71692D03*
X83070Y-74921D03*
G54D17*
X88492Y-48440D03*
X88492Y-47440D03*
X88492Y-49440D03*
X88492Y-46440D03*
G54D18*
X88492Y-45440D03*
G54D17*
X87492Y-45440D03*
X87492Y-46440D03*
X87492Y-47440D03*
X87492Y-48440D03*
X87492Y-49440D03*
G54D19*
X88385Y-43503D03*
G54D20*
X87598Y-43503D03*
G54D19*
X87598Y-51574D03*
G54D20*
X88385Y-51574D03*
M02*
