G04 (created by PCBNEW (2013-07-07 BZR 4022)-stable) date 2014-05-25 11:14:29 PM*
%MOIN*%
G04 Gerber Fmt 3.4, Leading zero omitted, Abs format*
%FSLAX34Y34*%
G01*
G70*
G90*
G04 APERTURE LIST*
%ADD10C,0.00590551*%
%ADD11R,0.0866X0.0236*%
%ADD12R,0.055X0.045*%
%ADD13R,0.045X0.055*%
%ADD14O,0.0984252X0.137795*%
%ADD15C,0.0688976*%
%ADD16O,0.137795X0.19685*%
%ADD17O,0.0787402X0.137795*%
%ADD18O,0.137795X0.137795*%
%ADD19C,0.0787*%
%ADD20R,0.0787X0.0787*%
%ADD21R,0.0551181X0.0551181*%
%ADD22C,0.0551181*%
G04 APERTURE END LIST*
G54D10*
G54D11*
X86969Y-58783D03*
X86969Y-58283D03*
X86969Y-57783D03*
X86969Y-57283D03*
X86969Y-56783D03*
X86969Y-56283D03*
X86969Y-55783D03*
X89015Y-55783D03*
X89015Y-56283D03*
X89015Y-56783D03*
X89015Y-57283D03*
X89015Y-57783D03*
X89015Y-58283D03*
X89015Y-58783D03*
G54D12*
X87992Y-66504D03*
X87992Y-67354D03*
G54D13*
X88157Y-59645D03*
X89007Y-59645D03*
X90716Y-56102D03*
X91566Y-56102D03*
X86189Y-73228D03*
X87039Y-73228D03*
X89007Y-53937D03*
X88157Y-53937D03*
X89007Y-54921D03*
X88157Y-54921D03*
X93141Y-58464D03*
X92291Y-58464D03*
X93141Y-56102D03*
X92291Y-56102D03*
X93141Y-57283D03*
X92291Y-57283D03*
X88157Y-60629D03*
X89007Y-60629D03*
X85267Y-56299D03*
X84417Y-56299D03*
X84417Y-57283D03*
X85267Y-57283D03*
X91566Y-58464D03*
X90716Y-58464D03*
X87236Y-53937D03*
X86386Y-53937D03*
X86386Y-54921D03*
X87236Y-54921D03*
X84417Y-58464D03*
X85267Y-58464D03*
X82842Y-58464D03*
X83692Y-58464D03*
X82842Y-56299D03*
X83692Y-56299D03*
X82842Y-57283D03*
X83692Y-57283D03*
G54D14*
X85748Y-59842D03*
X81968Y-59842D03*
G54D15*
X84842Y-62795D03*
X83858Y-62795D03*
X82874Y-62795D03*
G54D14*
X85748Y-51968D03*
X81968Y-51968D03*
G54D15*
X84842Y-54921D03*
X83858Y-54921D03*
X82874Y-54921D03*
G54D14*
X85748Y-44094D03*
X81968Y-44094D03*
G54D15*
X84842Y-47047D03*
X83858Y-47047D03*
X82874Y-47047D03*
G54D14*
X94015Y-44094D03*
X90236Y-44094D03*
G54D15*
X93110Y-47047D03*
X92125Y-47047D03*
X91141Y-47047D03*
G54D14*
X94015Y-51968D03*
X90236Y-51968D03*
G54D15*
X93110Y-54921D03*
X92125Y-54921D03*
X91141Y-54921D03*
G54D14*
X94015Y-59842D03*
X90236Y-59842D03*
G54D15*
X93110Y-62795D03*
X92125Y-62795D03*
X91141Y-62795D03*
G54D16*
X81220Y-68110D03*
G54D17*
X84921Y-68110D03*
G54D18*
X83070Y-66181D03*
X83070Y-69409D03*
G54D16*
X86141Y-76181D03*
G54D17*
X89842Y-76181D03*
G54D18*
X87992Y-74251D03*
X87992Y-77480D03*
G54D16*
X91062Y-79133D03*
G54D17*
X94763Y-79133D03*
G54D18*
X92913Y-77204D03*
X92913Y-80433D03*
G54D16*
X91062Y-73622D03*
G54D17*
X94763Y-73622D03*
G54D18*
X92913Y-71692D03*
X92913Y-74921D03*
G54D16*
X91062Y-68110D03*
G54D17*
X94763Y-68110D03*
G54D18*
X92913Y-66181D03*
X92913Y-69409D03*
G54D16*
X86141Y-70669D03*
G54D17*
X89842Y-70669D03*
G54D18*
X87992Y-68740D03*
X87992Y-71968D03*
G54D16*
X81220Y-79133D03*
G54D17*
X84921Y-79133D03*
G54D18*
X83070Y-77204D03*
X83070Y-80433D03*
G54D16*
X81220Y-73622D03*
G54D17*
X84921Y-73622D03*
G54D18*
X83070Y-71692D03*
X83070Y-74921D03*
G54D19*
X88492Y-48440D03*
X88492Y-47440D03*
X88492Y-49440D03*
X88492Y-46440D03*
G54D20*
X88492Y-45440D03*
G54D19*
X87492Y-45440D03*
X87492Y-46440D03*
X87492Y-47440D03*
X87492Y-48440D03*
X87492Y-49440D03*
G54D21*
X88385Y-43503D03*
G54D22*
X87598Y-43503D03*
G54D21*
X87598Y-51574D03*
G54D22*
X88385Y-51574D03*
M02*
