  0
SECTION
  2
HEADER
  9
$ANGBASE
  50
0.0
  9
$ANGDIR
  70
  1
  9
$MEASUREMENT
  70
0
  0
ENDSEC
  0
SECTION
  2
TABLES
  0
TABLE
  2
LTYPE
  70
1
  0
LTYPE
  2
CONTINUOUS
  70
0
  3
Solid line
  72
65
  73
0
  40
0.0
  0
ENDTAB
  0
TABLE
  2
STYLE
  70
4
  0
STYLE
  2
KICAD
  70
0
  40
0
  41
1
  42
1
  50
0
  71
0
  3
isocp.shx
  0
STYLE
  2
KICADB
  70
0
  40
0
  41
1
  42
1
  50
0
  71
0
  3
isocp.shx
  0
STYLE
  2
KICADI
  70
0
  40
0
  41
1
  42
1
  50
15
  71
0
  3
isocp.shx
  0
STYLE
  2
KICADBI
  70
0
  40
0
  41
1
  42
1
  50
15
  71
0
  3
isocp.shx
  0
ENDTAB
  0
TABLE
  2
LAYER
  70
30
  0
LAYER
  2
BLACK
  70
0
  62
7
  6
CONTINUOUS
  0
LAYER
  2
GRAY1
  70
0
  62
251
  6
CONTINUOUS
  0
LAYER
  2
GRAY2
  70
0
  62
8
  6
CONTINUOUS
  0
LAYER
  2
GRAY3
  70
0
  62
9
  6
CONTINUOUS
  0
LAYER
  2
WHITE
  70
0
  62
7
  6
CONTINUOUS
  0
LAYER
  2
LYELLOW
  70
0
  62
51
  6
CONTINUOUS
  0
LAYER
  2
BLUE1
  70
0
  62
178
  6
CONTINUOUS
  0
LAYER
  2
GREEN1
  70
0
  62
98
  6
CONTINUOUS
  0
LAYER
  2
CYAN1
  70
0
  62
138
  6
CONTINUOUS
  0
LAYER
  2
RED1
  70
0
  62
18
  6
CONTINUOUS
  0
LAYER
  2
MAGENTA1
  70
0
  62
228
  6
CONTINUOUS
  0
LAYER
  2
BROWN1
  70
0
  62
58
  6
CONTINUOUS
  0
LAYER
  2
BLUE2
  70
0
  62
5
  6
CONTINUOUS
  0
LAYER
  2
GREEN2
  70
0
  62
3
  6
CONTINUOUS
  0
LAYER
  2
CYAN2
  70
0
  62
4
  6
CONTINUOUS
  0
LAYER
  2
RED2
  70
0
  62
1
  6
CONTINUOUS
  0
LAYER
  2
MAGENTA2
  70
0
  62
6
  6
CONTINUOUS
  0
LAYER
  2
BROWN2
  70
0
  62
54
  6
CONTINUOUS
  0
LAYER
  2
BLUE3
  70
0
  62
171
  6
CONTINUOUS
  0
LAYER
  2
GREEN3
  70
0
  62
91
  6
CONTINUOUS
  0
LAYER
  2
CYAN3
  70
0
  62
131
  6
CONTINUOUS
  0
LAYER
  2
RED3
  70
0
  62
11
  6
CONTINUOUS
  0
LAYER
  2
MAGENTA3
  70
0
  62
221
  6
CONTINUOUS
  0
LAYER
  2
YELLOW3
  70
0
  62
2
  6
CONTINUOUS
  0
LAYER
  2
BLUE4
  70
0
  62
5
  6
CONTINUOUS
  0
LAYER
  2
GREEN4
  70
0
  62
3
  6
CONTINUOUS
  0
LAYER
  2
CYAN4
  70
0
  62
4
  6
CONTINUOUS
  0
LAYER
  2
RED4
  70
0
  62
1
  6
CONTINUOUS
  0
LAYER
  2
MAGENTA4
  70
0
  62
6
  6
CONTINUOUS
  0
LAYER
  2
YELLOW4
  70
0
  62
2
  6
CONTINUOUS
  0
ENDTAB
  0
ENDSEC
  0
SECTION
  2
ENTITIES
0
LINE
8
Black
10
120.605
20
-80.4562
11
120.605
21
-79.1558
0
LINE
8
Black
10
120.605
20
-79.1558
11
120.306
21
-79.1558
0
LINE
8
Black
10
120.306
20
-79.1558
11
120.306
21
-80.4562
0
LINE
8
Black
10
120.306
20
-80.4562
11
120.605
21
-80.4562
0
LINE
8
Black
10
119.97
20
-80.4562
11
119.97
21
-79.1558
0
LINE
8
Black
10
119.97
20
-79.1558
11
119.671
21
-79.1558
0
LINE
8
Black
10
119.671
20
-79.1558
11
119.671
21
-80.4562
0
LINE
8
Black
10
119.671
20
-80.4562
11
119.97
21
-80.4562
0
LINE
8
Black
10
119.31
20
-80.4562
11
119.31
21
-79.1558
0
LINE
8
Black
10
119.31
20
-79.1558
11
119.01
21
-79.1558
0
LINE
8
Black
10
119.01
20
-79.1558
11
119.01
21
-80.4562
0
LINE
8
Black
10
119.01
20
-80.4562
11
119.31
21
-80.4562
0
LINE
8
Black
10
118.675
20
-80.4562
11
118.675
21
-79.1558
0
LINE
8
Black
10
118.675
20
-79.1558
11
118.375
21
-79.1558
0
LINE
8
Black
10
118.375
20
-79.1558
11
118.375
21
-80.4562
0
LINE
8
Black
10
118.375
20
-80.4562
11
118.675
21
-80.4562
0
LINE
8
Black
10
118.675
20
-86.0442
11
118.675
21
-84.7438
0
LINE
8
Black
10
118.675
20
-84.7438
11
118.375
21
-84.7438
0
LINE
8
Black
10
118.375
20
-84.7438
11
118.375
21
-86.0442
0
LINE
8
Black
10
118.375
20
-86.0442
11
118.675
21
-86.0442
0
LINE
8
Black
10
119.323
20
-86.0442
11
119.323
21
-84.7438
0
LINE
8
Black
10
119.323
20
-84.7438
11
119.023
21
-84.7438
0
LINE
8
Black
10
119.023
20
-84.7438
11
119.023
21
-86.0442
0
LINE
8
Black
10
119.023
20
-86.0442
11
119.323
21
-86.0442
0
LINE
8
Black
10
119.97
20
-86.0442
11
119.97
21
-84.7438
0
LINE
8
Black
10
119.97
20
-84.7438
11
119.671
21
-84.7438
0
LINE
8
Black
10
119.671
20
-84.7438
11
119.671
21
-86.0442
0
LINE
8
Black
10
119.671
20
-86.0442
11
119.97
21
-86.0442
0
LINE
8
Black
10
120.618
20
-86.0442
11
120.618
21
-84.7438
0
LINE
8
Black
10
120.618
20
-84.7438
11
120.318
21
-84.7438
0
LINE
8
Black
10
120.318
20
-84.7438
11
120.318
21
-86.0442
0
LINE
8
Black
10
120.318
20
-86.0442
11
120.618
21
-86.0442
0
LINE
8
Black
10
109.034
20
-85.1641
11
109.034
21
-86.4341
0
LINE
8
Black
10
109.034
20
-86.4341
11
109.415
21
-86.4341
0
LINE
8
Black
10
109.415
20
-86.4341
11
109.415
21
-85.1641
0
LINE
8
Black
10
109.415
20
-85.1641
11
109.034
21
-85.1641
0
LINE
8
Black
10
109.684
20
-85.1641
11
109.684
21
-86.4341
0
LINE
8
Black
10
109.684
20
-86.4341
11
110.065
21
-86.4341
0
LINE
8
Black
10
110.065
20
-86.4341
11
110.065
21
-85.1641
0
LINE
8
Black
10
110.065
20
-85.1641
11
109.684
21
-85.1641
0
LINE
8
Black
10
110.334
20
-85.1641
11
110.334
21
-86.4341
0
LINE
8
Black
10
110.334
20
-86.4341
11
110.715
21
-86.4341
0
LINE
8
Black
10
110.715
20
-86.4341
11
110.715
21
-85.1641
0
LINE
8
Black
10
110.715
20
-85.1641
11
110.334
21
-85.1641
0
LINE
8
Black
10
110.984
20
-85.1641
11
110.984
21
-86.4341
0
LINE
8
Black
10
110.984
20
-86.4341
11
111.365
21
-86.4341
0
LINE
8
Black
10
111.365
20
-86.4341
11
111.365
21
-85.1641
0
LINE
8
Black
10
111.365
20
-85.1641
11
110.984
21
-85.1641
0
LINE
8
Black
10
111.635
20
-85.1641
11
111.635
21
-86.4341
0
LINE
8
Black
10
111.635
20
-86.4341
11
112.016
21
-86.4341
0
LINE
8
Black
10
112.016
20
-86.4341
11
112.016
21
-85.1641
0
LINE
8
Black
10
112.016
20
-85.1641
11
111.635
21
-85.1641
0
LINE
8
Black
10
112.285
20
-85.1641
11
112.285
21
-86.4341
0
LINE
8
Black
10
112.285
20
-86.4341
11
112.666
21
-86.4341
0
LINE
8
Black
10
112.666
20
-86.4341
11
112.666
21
-85.1641
0
LINE
8
Black
10
112.666
20
-85.1641
11
112.285
21
-85.1641
0
LINE
8
Black
10
112.935
20
-85.1641
11
112.935
21
-86.4341
0
LINE
8
Black
10
112.935
20
-86.4341
11
113.316
21
-86.4341
0
LINE
8
Black
10
113.316
20
-86.4341
11
113.316
21
-85.1641
0
LINE
8
Black
10
113.316
20
-85.1641
11
112.935
21
-85.1641
0
LINE
8
Black
10
113.585
20
-85.1641
11
113.585
21
-86.4341
0
LINE
8
Black
10
113.585
20
-86.4341
11
113.966
21
-86.4341
0
LINE
8
Black
10
113.966
20
-86.4341
11
113.966
21
-85.1641
0
LINE
8
Black
10
113.966
20
-85.1641
11
113.585
21
-85.1641
0
LINE
8
Black
10
113.585
20
-79.5659
11
113.585
21
-80.8359
0
LINE
8
Black
10
113.585
20
-80.8359
11
113.966
21
-80.8359
0
LINE
8
Black
10
113.966
20
-80.8359
11
113.966
21
-79.5659
0
LINE
8
Black
10
113.966
20
-79.5659
11
113.585
21
-79.5659
0
LINE
8
Black
10
112.935
20
-79.5659
11
112.935
21
-80.8359
0
LINE
8
Black
10
112.935
20
-80.8359
11
113.316
21
-80.8359
0
LINE
8
Black
10
113.316
20
-80.8359
11
113.316
21
-79.5659
0
LINE
8
Black
10
113.316
20
-79.5659
11
112.935
21
-79.5659
0
LINE
8
Black
10
112.285
20
-79.5659
11
112.285
21
-80.8359
0
LINE
8
Black
10
112.285
20
-80.8359
11
112.666
21
-80.8359
0
LINE
8
Black
10
112.666
20
-80.8359
11
112.666
21
-79.5659
0
LINE
8
Black
10
112.666
20
-79.5659
11
112.285
21
-79.5659
0
LINE
8
Black
10
111.635
20
-79.5659
11
111.635
21
-80.8359
0
LINE
8
Black
10
111.635
20
-80.8359
11
112.016
21
-80.8359
0
LINE
8
Black
10
112.016
20
-80.8359
11
112.016
21
-79.5659
0
LINE
8
Black
10
112.016
20
-79.5659
11
111.635
21
-79.5659
0
LINE
8
Black
10
110.984
20
-79.5659
11
110.984
21
-80.8359
0
LINE
8
Black
10
110.984
20
-80.8359
11
111.365
21
-80.8359
0
LINE
8
Black
10
111.365
20
-80.8359
11
111.365
21
-79.5659
0
LINE
8
Black
10
111.365
20
-79.5659
11
110.984
21
-79.5659
0
LINE
8
Black
10
110.334
20
-79.5659
11
110.334
21
-80.8359
0
LINE
8
Black
10
110.334
20
-80.8359
11
110.715
21
-80.8359
0
LINE
8
Black
10
110.715
20
-80.8359
11
110.715
21
-79.5659
0
LINE
8
Black
10
110.715
20
-79.5659
11
110.334
21
-79.5659
0
LINE
8
Black
10
109.684
20
-79.5659
11
109.684
21
-80.8359
0
LINE
8
Black
10
109.684
20
-80.8359
11
110.065
21
-80.8359
0
LINE
8
Black
10
110.065
20
-80.8359
11
110.065
21
-79.5659
0
LINE
8
Black
10
110.065
20
-79.5659
11
109.684
21
-79.5659
0
LINE
8
Black
10
109.034
20
-79.5659
11
109.034
21
-80.8359
0
LINE
8
Black
10
109.034
20
-80.8359
11
109.415
21
-80.8359
0
LINE
8
Black
10
109.415
20
-80.8359
11
109.415
21
-79.5659
0
LINE
8
Black
10
109.415
20
-79.5659
11
109.034
21
-79.5659
0
LINE
8
Black
10
114.23
20
-77.3505
11
115.23
21
-77.3505
0
LINE
8
Black
10
115.23
20
-77.3505
11
115.23
21
-76.6495
0
LINE
8
Black
10
115.23
20
-76.6495
11
114.23
21
-76.6495
0
LINE
8
Black
10
114.23
20
-76.6495
11
114.23
21
-77.3505
0
LINE
8
Black
10
116.77
20
-76.398
11
117.77
21
-76.398
0
LINE
8
Black
10
117.77
20
-76.398
11
117.77
21
-75.697
0
LINE
8
Black
10
117.77
20
-75.697
11
116.77
21
-75.697
0
LINE
8
Black
10
116.77
20
-75.697
11
116.77
21
-76.398
0
LINE
8
Black
10
116.77
20
-78.303
11
117.77
21
-78.303
0
LINE
8
Black
10
117.77
20
-78.303
11
117.77
21
-77.602
0
LINE
8
Black
10
117.77
20
-77.602
11
116.77
21
-77.602
0
LINE
8
Black
10
116.77
20
-77.602
11
116.77
21
-78.303
0
LINE
8
Black
10
128.572
20
-77.2427
11
127.429
21
-77.2427
0
LINE
8
Black
10
127.429
20
-77.2427
11
127.429
21
-78.0555
0
LINE
8
Black
10
127.429
20
-78.0555
11
128.572
21
-78.0555
0
LINE
8
Black
10
128.572
20
-78.0555
11
128.572
21
-77.2427
0
LINE
8
Black
10
128.572
20
-78.9445
11
127.429
21
-78.9445
0
LINE
8
Black
10
127.429
20
-78.9445
11
127.429
21
-79.7573
0
LINE
8
Black
10
127.429
20
-79.7573
11
128.572
21
-79.7573
0
LINE
8
Black
10
128.572
20
-79.7573
11
128.572
21
-78.9445
0
LINE
8
Black
10
121.929
20
-79.7573
11
123.072
21
-79.7573
0
LINE
8
Black
10
123.072
20
-79.7573
11
123.072
21
-78.9445
0
LINE
8
Black
10
123.072
20
-78.9445
11
121.929
21
-78.9445
0
LINE
8
Black
10
121.929
20
-78.9445
11
121.929
21
-79.7573
0
LINE
8
Black
10
121.929
20
-78.0555
11
123.072
21
-78.0555
0
LINE
8
Black
10
123.072
20
-78.0555
11
123.072
21
-77.2427
0
LINE
8
Black
10
123.072
20
-77.2427
11
121.929
21
-77.2427
0
LINE
8
Black
10
121.929
20
-77.2427
11
121.929
21
-78.0555
0
LINE
8
Black
10
124.929
20
-79.7573
11
126.072
21
-79.7573
0
LINE
8
Black
10
126.072
20
-79.7573
11
126.072
21
-78.9445
0
LINE
8
Black
10
126.072
20
-78.9445
11
124.929
21
-78.9445
0
LINE
8
Black
10
124.929
20
-78.9445
11
124.929
21
-79.7573
0
LINE
8
Black
10
124.929
20
-78.0555
11
126.072
21
-78.0555
0
LINE
8
Black
10
126.072
20
-78.0555
11
126.072
21
-77.2427
0
LINE
8
Black
10
126.072
20
-77.2427
11
124.929
21
-77.2427
0
LINE
8
Black
10
124.929
20
-77.2427
11
124.929
21
-78.0555
0
LINE
8
Black
10
115.929
20
-83.7573
11
117.072
21
-83.7573
0
LINE
8
Black
10
117.072
20
-83.7573
11
117.072
21
-82.9445
0
LINE
8
Black
10
117.072
20
-82.9445
11
115.929
21
-82.9445
0
LINE
8
Black
10
115.929
20
-82.9445
11
115.929
21
-83.7573
0
LINE
8
Black
10
115.929
20
-82.0555
11
117.072
21
-82.0555
0
LINE
8
Black
10
117.072
20
-82.0555
11
117.072
21
-81.2427
0
LINE
8
Black
10
117.072
20
-81.2427
11
115.929
21
-81.2427
0
LINE
8
Black
10
115.929
20
-81.2427
11
115.929
21
-82.0555
0
LINE
8
Black
10
121.929
20
-83.7573
11
123.072
21
-83.7573
0
LINE
8
Black
10
123.072
20
-83.7573
11
123.072
21
-82.9445
0
LINE
8
Black
10
123.072
20
-82.9445
11
121.929
21
-82.9445
0
LINE
8
Black
10
121.929
20
-82.9445
11
121.929
21
-83.7573
0
LINE
8
Black
10
121.929
20
-82.0555
11
123.072
21
-82.0555
0
LINE
8
Black
10
123.072
20
-82.0555
11
123.072
21
-81.2427
0
LINE
8
Black
10
123.072
20
-81.2427
11
121.929
21
-81.2427
0
LINE
8
Black
10
121.929
20
-81.2427
11
121.929
21
-82.0555
0
LINE
8
Black
10
131.072
20
-81.2427
11
129.929
21
-81.2427
0
LINE
8
Black
10
129.929
20
-81.2427
11
129.929
21
-82.0555
0
LINE
8
Black
10
129.929
20
-82.0555
11
131.072
21
-82.0555
0
LINE
8
Black
10
131.072
20
-82.0555
11
131.072
21
-81.2427
0
LINE
8
Black
10
131.072
20
-82.9445
11
129.929
21
-82.9445
0
LINE
8
Black
10
129.929
20
-82.9445
11
129.929
21
-83.7573
0
LINE
8
Black
10
129.929
20
-83.7573
11
131.072
21
-83.7573
0
LINE
8
Black
10
131.072
20
-83.7573
11
131.072
21
-82.9445
0
LINE
8
Black
10
131.072
20
-77.2427
11
129.929
21
-77.2427
0
LINE
8
Black
10
129.929
20
-77.2427
11
129.929
21
-78.0555
0
LINE
8
Black
10
129.929
20
-78.0555
11
131.072
21
-78.0555
0
LINE
8
Black
10
131.072
20
-78.0555
11
131.072
21
-77.2427
0
LINE
8
Black
10
131.072
20
-78.9445
11
129.929
21
-78.9445
0
LINE
8
Black
10
129.929
20
-78.9445
11
129.929
21
-79.7573
0
LINE
8
Black
10
129.929
20
-79.7573
11
131.072
21
-79.7573
0
LINE
8
Black
10
131.072
20
-79.7573
11
131.072
21
-78.9445
0
LINE
8
Black
10
126.072
20
-81.2427
11
124.929
21
-81.2427
0
LINE
8
Black
10
124.929
20
-81.2427
11
124.929
21
-82.0555
0
LINE
8
Black
10
124.929
20
-82.0555
11
126.072
21
-82.0555
0
LINE
8
Black
10
126.072
20
-82.0555
11
126.072
21
-81.2427
0
LINE
8
Black
10
126.072
20
-82.9445
11
124.929
21
-82.9445
0
LINE
8
Black
10
124.929
20
-82.9445
11
124.929
21
-83.7573
0
LINE
8
Black
10
124.929
20
-83.7573
11
126.072
21
-83.7573
0
LINE
8
Black
10
126.072
20
-83.7573
11
126.072
21
-82.9445
0
LINE
8
Black
10
110.572
20
-75.7427
11
109.429
21
-75.7427
0
LINE
8
Black
10
109.429
20
-75.7427
11
109.429
21
-76.5555
0
LINE
8
Black
10
109.429
20
-76.5555
11
110.572
21
-76.5555
0
LINE
8
Black
10
110.572
20
-76.5555
11
110.572
21
-75.7427
0
LINE
8
Black
10
110.572
20
-77.4445
11
109.429
21
-77.4445
0
LINE
8
Black
10
109.429
20
-77.4445
11
109.429
21
-78.2573
0
LINE
8
Black
10
109.429
20
-78.2573
11
110.572
21
-78.2573
0
LINE
8
Black
10
110.572
20
-78.2573
11
110.572
21
-77.4445
0
LINE
8
Black
10
103.571
20
-91.0005
11
103.571
21
-92.9995
0
LINE
8
Black
10
103.571
20
-92.9995
11
105.569
21
-92.9995
0
LINE
8
Black
10
105.569
20
-92.9995
11
105.569
21
-91.0005
0
LINE
8
Black
10
105.569
20
-91.0005
11
103.571
21
-91.0005
0
CIRCLE
8
Black
10
107.11
20
-92
40
0.99949
0
CIRCLE
8
Black
10
109.65
20
-92
40
0.99949
0
CIRCLE
8
Black
10
112.19
20
-92
40
0.99949
0
CIRCLE
8
Black
10
114.73
20
-92
40
0.99949
0
CIRCLE
8
Black
10
117.27
20
-92
40
0.99949
0
CIRCLE
8
Black
10
119.81
20
-92
40
0.99949
0
CIRCLE
8
Black
10
122.35
20
-92
40
0.99949
0
CIRCLE
8
Black
10
124.89
20
-92
40
0.99949
0
CIRCLE
8
Black
10
127.43
20
-92
40
0.99949
0
LINE
8
Black
10
103.929
20
-89.7573
11
105.072
21
-89.7573
0
LINE
8
Black
10
105.072
20
-89.7573
11
105.072
21
-88.9445
0
LINE
8
Black
10
105.072
20
-88.9445
11
103.929
21
-88.9445
0
LINE
8
Black
10
103.929
20
-88.9445
11
103.929
21
-89.7573
0
LINE
8
Black
10
103.929
20
-88.0555
11
105.072
21
-88.0555
0
LINE
8
Black
10
105.072
20
-88.0555
11
105.072
21
-87.2427
0
LINE
8
Black
10
105.072
20
-87.2427
11
103.929
21
-87.2427
0
LINE
8
Black
10
103.929
20
-87.2427
11
103.929
21
-88.0555
0
LINE
8
Black
10
110.072
20
-87.2427
11
108.929
21
-87.2427
0
LINE
8
Black
10
108.929
20
-87.2427
11
108.929
21
-88.0555
0
LINE
8
Black
10
108.929
20
-88.0555
11
110.072
21
-88.0555
0
LINE
8
Black
10
110.072
20
-88.0555
11
110.072
21
-87.2427
0
LINE
8
Black
10
110.072
20
-88.9445
11
108.929
21
-88.9445
0
LINE
8
Black
10
108.929
20
-88.9445
11
108.929
21
-89.7573
0
LINE
8
Black
10
108.929
20
-89.7573
11
110.072
21
-89.7573
0
LINE
8
Black
10
110.072
20
-89.7573
11
110.072
21
-88.9445
0
CIRCLE
8
Black
10
107.715
20
-84.4899
40
0.5715
0
CIRCLE
8
Black
10
127.692
20
-81.2171
40
0.5715
0
CIRCLE
8
Black
10
107.841
20
-82.9492
40
0.5715
0
CIRCLE
8
Black
10
100.15
20
-90.05
40
0.4445
0
CIRCLE
8
Black
10
119.74
20
-81.5
40
0.4445
0
CIRCLE
8
Black
10
121.85
20
-85.75
40
0.4445
0
CIRCLE
8
Black
10
126.77
20
-83.7
40
0.4445
0
CIRCLE
8
Black
10
121.1
20
-82.6
40
0.4445
0
CIRCLE
8
Black
10
121.85
20
-88.85
40
0.4445
0
CIRCLE
8
Black
10
112.55
20
-83.5
40
0.4445
0
CIRCLE
8
Black
10
115.33
20
-81.65
40
0.4445
0
CIRCLE
8
Black
10
130.5
20
-84.52
40
0.4445
0
CIRCLE
8
Black
10
104.49
20
-86.62
40
0.4445
0
CIRCLE
8
Black
10
114.55
20
-85.83
40
0.4445
0
CIRCLE
8
Black
10
118.27
20
-76.04
40
0.4445
0
CIRCLE
8
Black
10
111.545
20
-76.3808
40
0.4445
0
CIRCLE
8
Black
10
121.321
20
-87.7029
40
0.4445
0
CIRCLE
8
Black
10
114.738
20
-89.6925
40
0.4445
0
CIRCLE
8
Black
10
116.134
20
-90.6637
40
0.4445
0
LINE
8
Black
10
116.6
20
-78.978
11
118.02
21
-78.978
0
LINE
8
Black
10
116.6
20
-78.6224
11
118.02
21
-78.6224
0
ARC
8
Black
10
118.02
20
-78.8002
40
0.1778
50
270
51
450
0
ARC
8
Black
10
116.6
20
-78.8002
40
0.1778
50
90
51
270
0
LINE
8
Black
10
116.726
20
-78.6744
11
116.463
21
-78.4117
0
LINE
8
Black
10
116.475
20
-78.9259
11
116.212
21
-78.6631
0
ARC
8
Black
10
116.338
20
-78.5374
40
0.1778
50
405
51
585
0
ARC
8
Black
10
116.6
20
-78.8002
40
0.1778
50
225
51
405
0
LINE
8
Black
10
116.515
20
-78.5374
11
116.515
21
-77.1366
0
LINE
8
Black
10
116.16
20
-78.5374
11
116.16
21
-77.1366
0
ARC
8
Black
10
116.338
20
-77.1366
40
0.1778
50
360
51
540
0
ARC
8
Black
10
116.338
20
-78.5374
40
0.1778
50
180
51
360
0
LINE
8
Black
10
118.703
20
-79.806
11
118.703
21
-79.3056
0
LINE
8
Black
10
118.347
20
-79.806
11
118.347
21
-79.3056
0
ARC
8
Black
10
118.525
20
-79.3056
40
0.1778
50
360
51
540
0
ARC
8
Black
10
118.525
20
-79.806
40
0.1778
50
180
51
360
0
LINE
8
Black
10
118.651
20
-79.1799
11
118.145
21
-78.6744
0
LINE
8
Black
10
118.399
20
-79.4313
11
117.894
21
-78.9259
0
ARC
8
Black
10
118.02
20
-78.8002
40
0.1778
50
405
51
585
0
ARC
8
Black
10
118.525
20
-79.3056
40
0.1778
50
225
51
405
0
LINE
8
Black
10
120.646
20
-85.394
11
120.646
21
-84.3117
0
LINE
8
Black
10
120.29
20
-85.394
11
120.29
21
-84.3117
0
ARC
8
Black
10
120.468
20
-84.3117
40
0.1778
50
360
51
540
0
ARC
8
Black
10
120.468
20
-85.394
40
0.1778
50
180
51
360
0
LINE
8
Black
10
120.465
20
-84.0637
11
120.342
21
-84.186
0
LINE
8
Black
10
120.716
20
-84.3151
11
120.594
21
-84.4374
0
ARC
8
Black
10
120.468
20
-84.3117
40
0.1778
50
495
51
675
0
ARC
8
Black
10
120.59
20
-84.1894
40
0.1778
50
315
51
495
0
LINE
8
Black
10
120.59
20
-84.3672
11
122.5
21
-84.3672
0
LINE
8
Black
10
120.59
20
-84.0116
11
122.5
21
-84.0116
0
ARC
8
Black
10
122.5
20
-84.1894
40
0.1778
50
270
51
450
0
ARC
8
Black
10
120.59
20
-84.1894
40
0.1778
50
90
51
270
0
LINE
8
Black
10
122.678
20
-84.1894
11
122.678
21
-83.3509
0
LINE
8
Black
10
122.322
20
-84.1894
11
122.322
21
-83.3509
0
ARC
8
Black
10
122.5
20
-83.3509
40
0.1778
50
360
51
540
0
ARC
8
Black
10
122.5
20
-84.1894
40
0.1778
50
180
51
360
0
LINE
8
Black
10
125.5
20
-80.3672
11
125.71
21
-80.3672
0
LINE
8
Black
10
125.5
20
-80.0116
11
125.71
21
-80.0116
0
ARC
8
Black
10
125.71
20
-80.1894
40
0.1778
50
270
51
450
0
ARC
8
Black
10
125.5
20
-80.1894
40
0.1778
50
90
51
270
0
LINE
8
Black
10
126.632
20
-80.8601
11
125.835
21
-80.0637
0
LINE
8
Black
10
126.38
20
-81.1115
11
125.584
21
-80.3151
0
ARC
8
Black
10
125.71
20
-80.1894
40
0.1778
50
405
51
585
0
ARC
8
Black
10
126.506
20
-80.9858
40
0.1778
50
225
51
405
0
LINE
8
Black
10
126.684
20
-82.2401
11
126.684
21
-80.9858
0
LINE
8
Black
10
126.328
20
-82.2401
11
126.328
21
-80.9858
0
ARC
8
Black
10
126.506
20
-80.9858
40
0.1778
50
360
51
540
0
ARC
8
Black
10
126.506
20
-82.2401
40
0.1778
50
180
51
360
0
LINE
8
Black
10
126.359
20
-82.6381
11
126.632
21
-82.3658
0
LINE
8
Black
10
126.108
20
-82.3867
11
126.38
21
-82.1144
0
ARC
8
Black
10
126.506
20
-82.2401
40
0.1778
50
315
51
495
0
ARC
8
Black
10
126.234
20
-82.5124
40
0.1778
50
135
51
315
0
LINE
8
Black
10
125.5
20
-82.6902
11
126.234
21
-82.6902
0
LINE
8
Black
10
125.5
20
-82.3346
11
126.234
21
-82.3346
0
ARC
8
Black
10
126.234
20
-82.5124
40
0.1778
50
270
51
450
0
ARC
8
Black
10
125.5
20
-82.5124
40
0.1778
50
90
51
270
0
LINE
8
Black
10
125.678
20
-83.3509
11
125.678
21
-83.0424
0
LINE
8
Black
10
125.322
20
-83.3509
11
125.322
21
-83.0424
0
ARC
8
Black
10
125.5
20
-83.0424
40
0.1778
50
360
51
540
0
ARC
8
Black
10
125.5
20
-83.3509
40
0.1778
50
180
51
360
0
LINE
8
Black
10
125.678
20
-83.0424
11
125.678
21
-82.5124
0
LINE
8
Black
10
125.322
20
-83.0424
11
125.322
21
-82.5124
0
ARC
8
Black
10
125.5
20
-82.5124
40
0.1778
50
360
51
540
0
ARC
8
Black
10
125.5
20
-83.0424
40
0.1778
50
180
51
360
0
LINE
8
Black
10
123.686
20
-82.9167
11
123.378
21
-83.2252
0
LINE
8
Black
10
123.938
20
-83.1681
11
123.629
21
-83.4766
0
ARC
8
Black
10
123.504
20
-83.3509
40
0.1778
50
495
51
675
0
ARC
8
Black
10
123.812
20
-83.0424
40
0.1778
50
315
51
495
0
LINE
8
Black
10
123.812
20
-83.2202
11
125.5
21
-83.2202
0
LINE
8
Black
10
123.812
20
-82.8646
11
125.5
21
-82.8646
0
ARC
8
Black
10
125.5
20
-83.0424
40
0.1778
50
270
51
450
0
ARC
8
Black
10
123.812
20
-83.0424
40
0.1778
50
90
51
270
0
LINE
8
Black
10
122.5
20
-83.5287
11
123.504
21
-83.5287
0
LINE
8
Black
10
122.5
20
-83.1731
11
123.504
21
-83.1731
0
ARC
8
Black
10
123.504
20
-83.3509
40
0.1778
50
270
51
450
0
ARC
8
Black
10
122.5
20
-83.3509
40
0.1778
50
90
51
270
0
LINE
8
Black
10
104.748
20
-92
11
104.748
21
-90.5684
0
LINE
8
Black
10
104.392
20
-92
11
104.392
21
-90.5684
0
ARC
8
Black
10
104.57
20
-90.5684
40
0.1778
50
360
51
540
0
ARC
8
Black
10
104.57
20
-92
40
0.1778
50
180
51
360
0
LINE
8
Black
10
104.678
20
-90.4984
11
104.678
21
-89.3509
0
LINE
8
Black
10
104.322
20
-90.4984
11
104.322
21
-89.3509
0
ARC
8
Black
10
104.5
20
-89.3509
40
0.1778
50
360
51
540
0
ARC
8
Black
10
104.5
20
-90.4984
40
0.1778
50
180
51
360
0
LINE
8
Black
10
104.696
20
-90.4427
11
104.626
21
-90.3727
0
LINE
8
Black
10
104.444
20
-90.6941
11
104.374
21
-90.6241
0
ARC
8
Black
10
104.5
20
-90.4984
40
0.1778
50
405
51
585
0
ARC
8
Black
10
104.57
20
-90.5684
40
0.1778
50
225
51
405
0
LINE
8
Black
10
104.678
20
-89.3509
11
104.678
21
-88.5124
0
LINE
8
Black
10
104.322
20
-89.3509
11
104.322
21
-88.5124
0
ARC
8
Black
10
104.5
20
-88.5124
40
0.1778
50
360
51
540
0
ARC
8
Black
10
104.5
20
-89.3509
40
0.1778
50
180
51
360
0
LINE
8
Black
10
107.893
20
-86.031
11
107.893
21
-84.4899
0
LINE
8
Black
10
107.537
20
-86.031
11
107.537
21
-84.4899
0
ARC
8
Black
10
107.715
20
-84.4899
40
0.1778
50
360
51
540
0
ARC
8
Black
10
107.715
20
-86.031
40
0.1778
50
180
51
360
0
LINE
8
Black
10
105.359
20
-88.6381
11
107.841
21
-86.1567
0
LINE
8
Black
10
105.108
20
-88.3867
11
107.589
21
-85.9053
0
ARC
8
Black
10
107.715
20
-86.031
40
0.1778
50
315
51
495
0
ARC
8
Black
10
105.234
20
-88.5124
40
0.1778
50
135
51
315
0
LINE
8
Black
10
104.5
20
-88.6902
11
105.234
21
-88.6902
0
LINE
8
Black
10
104.5
20
-88.3346
11
105.234
21
-88.3346
0
ARC
8
Black
10
105.234
20
-88.5124
40
0.1778
50
270
51
450
0
ARC
8
Black
10
104.5
20
-88.5124
40
0.1778
50
90
51
270
0
LINE
8
Black
10
109.402
20
-83.0784
11
109.402
21
-80.2009
0
LINE
8
Black
10
109.046
20
-83.0784
11
109.046
21
-80.2009
0
ARC
8
Black
10
109.224
20
-80.2009
40
0.1778
50
360
51
540
0
ARC
8
Black
10
109.224
20
-83.0784
40
0.1778
50
180
51
360
0
LINE
8
Black
10
107.938
20
-84.6156
11
109.35
21
-83.2041
0
LINE
8
Black
10
107.687
20
-84.3642
11
109.098
21
-82.9527
0
ARC
8
Black
10
109.224
20
-83.0784
40
0.1778
50
315
51
495
0
ARC
8
Black
10
107.813
20
-84.4899
40
0.1778
50
135
51
315
0
LINE
8
Black
10
107.715
20
-84.6677
11
107.813
21
-84.6677
0
LINE
8
Black
10
107.715
20
-84.3121
11
107.813
21
-84.3121
0
ARC
8
Black
10
107.813
20
-84.4899
40
0.1778
50
270
51
450
0
ARC
8
Black
10
107.715
20
-84.4899
40
0.1778
50
90
51
270
0
LINE
8
Black
10
108.871
20
-79.0316
11
109.098
21
-79.2595
0
LINE
8
Black
10
109.122
20
-78.7802
11
109.35
21
-79.0081
0
ARC
8
Black
10
109.224
20
-79.1338
40
0.1778
50
225
51
405
0
ARC
8
Black
10
108.996
20
-78.9059
40
0.1778
50
45
51
225
0
LINE
8
Black
10
109.174
20
-78.9059
11
109.174
21
-77.2576
0
LINE
8
Black
10
108.819
20
-78.9059
11
108.819
21
-77.2576
0
ARC
8
Black
10
108.996
20
-77.2576
40
0.1778
50
360
51
540
0
ARC
8
Black
10
108.996
20
-78.9059
40
0.1778
50
180
51
360
0
LINE
8
Black
10
109.141
20
-76.8619
11
108.871
21
-77.1319
0
LINE
8
Black
10
109.392
20
-77.1133
11
109.122
21
-77.3833
0
ARC
8
Black
10
108.996
20
-77.2576
40
0.1778
50
495
51
675
0
ARC
8
Black
10
109.266
20
-76.9876
40
0.1778
50
315
51
495
0
LINE
8
Black
10
109.266
20
-77.1654
11
110
21
-77.1654
0
LINE
8
Black
10
109.266
20
-76.8098
11
110
21
-76.8098
0
ARC
8
Black
10
110
20
-76.9876
40
0.1778
50
270
51
450
0
ARC
8
Black
10
109.266
20
-76.9876
40
0.1778
50
90
51
270
0
LINE
8
Black
10
110.178
20
-76.9876
11
110.178
21
-76.1491
0
LINE
8
Black
10
109.822
20
-76.9876
11
109.822
21
-76.1491
0
ARC
8
Black
10
110
20
-76.1491
40
0.1778
50
360
51
540
0
ARC
8
Black
10
110
20
-76.9876
40
0.1778
50
180
51
360
0
LINE
8
Black
10
109.402
20
-80.2009
11
109.402
21
-79.1338
0
LINE
8
Black
10
109.046
20
-80.2009
11
109.046
21
-79.1338
0
ARC
8
Black
10
109.224
20
-79.1338
40
0.1778
50
360
51
540
0
ARC
8
Black
10
109.224
20
-80.2009
40
0.1778
50
180
51
360
0
LINE
8
Black
10
125.678
20
-80.1894
11
125.678
21
-79.3509
0
LINE
8
Black
10
125.322
20
-80.1894
11
125.322
21
-79.3509
0
ARC
8
Black
10
125.5
20
-79.3509
40
0.1778
50
360
51
540
0
ARC
8
Black
10
125.5
20
-80.1894
40
0.1778
50
180
51
360
0
LINE
8
Black
10
125.678
20
-79.3509
11
125.678
21
-78.5124
0
LINE
8
Black
10
125.322
20
-79.3509
11
125.322
21
-78.5124
0
ARC
8
Black
10
125.5
20
-78.5124
40
0.1778
50
360
51
540
0
ARC
8
Black
10
125.5
20
-79.3509
40
0.1778
50
180
51
360
0
LINE
8
Black
10
125.5
20
-78.6902
11
131.292
21
-78.6902
0
LINE
8
Black
10
125.5
20
-78.3346
11
131.292
21
-78.3346
0
ARC
8
Black
10
131.292
20
-78.5124
40
0.1778
50
270
51
450
0
ARC
8
Black
10
125.5
20
-78.5124
40
0.1778
50
90
51
270
0
LINE
8
Black
10
131.378
20
-78.1754
11
131.167
21
-78.3867
0
LINE
8
Black
10
131.629
20
-78.4268
11
131.418
21
-78.6381
0
ARC
8
Black
10
131.292
20
-78.5124
40
0.1778
50
495
51
675
0
ARC
8
Black
10
131.504
20
-78.3011
40
0.1778
50
315
51
495
0
LINE
8
Black
10
131.682
20
-78.3011
11
131.682
21
-76.9949
0
LINE
8
Black
10
131.326
20
-78.3011
11
131.326
21
-76.9949
0
ARC
8
Black
10
131.504
20
-76.9949
40
0.1778
50
360
51
540
0
ARC
8
Black
10
131.504
20
-78.3011
40
0.1778
50
180
51
360
0
LINE
8
Black
10
130.639
20
-76.3821
11
131.378
21
-77.1206
0
LINE
8
Black
10
130.891
20
-76.1307
11
131.629
21
-76.8692
0
ARC
8
Black
10
131.504
20
-76.9949
40
0.1778
50
225
51
405
0
ARC
8
Black
10
130.765
20
-76.2564
40
0.1778
50
45
51
225
0
LINE
8
Black
10
119.399
20
-76.4342
11
130.765
21
-76.4342
0
LINE
8
Black
10
119.399
20
-76.0786
11
130.765
21
-76.0786
0
ARC
8
Black
10
130.765
20
-76.2564
40
0.1778
50
270
51
450
0
ARC
8
Black
10
119.399
20
-76.2564
40
0.1778
50
90
51
270
0
LINE
8
Black
10
118.645
20
-77.2623
11
119.525
21
-76.3821
0
LINE
8
Black
10
118.393
20
-77.0109
11
119.273
21
-76.1307
0
ARC
8
Black
10
119.399
20
-76.2564
40
0.1778
50
315
51
495
0
ARC
8
Black
10
118.519
20
-77.1366
40
0.1778
50
135
51
315
0
LINE
8
Black
10
116.338
20
-77.3144
11
118.519
21
-77.3144
0
LINE
8
Black
10
116.338
20
-76.9588
11
118.519
21
-76.9588
0
ARC
8
Black
10
118.519
20
-77.1366
40
0.1778
50
270
51
450
0
ARC
8
Black
10
116.338
20
-77.1366
40
0.1778
50
90
51
270
0
LINE
8
Black
10
110.604
20
-75.2934
11
109.874
21
-76.0234
0
LINE
8
Black
10
110.856
20
-75.5448
11
110.126
21
-76.2748
0
ARC
8
Black
10
110
20
-76.1491
40
0.1778
50
495
51
675
0
ARC
8
Black
10
110.73
20
-75.4191
40
0.1778
50
315
51
495
0
LINE
8
Black
10
110.73
20
-75.5969
11
114.62
21
-75.5969
0
LINE
8
Black
10
110.73
20
-75.2413
11
114.62
21
-75.2413
0
ARC
8
Black
10
114.62
20
-75.4191
40
0.1778
50
270
51
450
0
ARC
8
Black
10
110.73
20
-75.4191
40
0.1778
50
90
51
270
0
LINE
8
Black
10
116.463
20
-77.0109
11
114.746
21
-75.2934
0
LINE
8
Black
10
116.212
20
-77.2623
11
114.494
21
-75.5448
0
ARC
8
Black
10
114.62
20
-75.4191
40
0.1778
50
405
51
585
0
ARC
8
Black
10
116.338
20
-77.1366
40
0.1778
50
225
51
405
0
LINE
8
Black
10
127.87
20
-81.2171
11
127.87
21
-80.4975
0
LINE
8
Black
10
127.514
20
-81.2171
11
127.514
21
-80.4975
0
ARC
8
Black
10
127.692
20
-80.4975
40
0.1778
50
360
51
540
0
ARC
8
Black
10
127.692
20
-81.2171
40
0.1778
50
180
51
360
0
LINE
8
Black
10
127.874
20
-80.0637
11
127.566
21
-80.3718
0
LINE
8
Black
10
128.126
20
-80.3151
11
127.818
21
-80.6232
0
ARC
8
Black
10
127.692
20
-80.4975
40
0.1778
50
495
51
675
0
ARC
8
Black
10
128
20
-80.1894
40
0.1778
50
315
51
495
0
LINE
8
Black
10
128.178
20
-80.1894
11
128.178
21
-79.3509
0
LINE
8
Black
10
127.822
20
-80.1894
11
127.822
21
-79.3509
0
ARC
8
Black
10
128
20
-79.3509
40
0.1778
50
360
51
540
0
ARC
8
Black
10
128
20
-80.1894
40
0.1778
50
180
51
360
0
LINE
8
Black
10
106.908
20
-83.127
11
107.841
21
-83.127
0
LINE
8
Black
10
106.908
20
-82.7714
11
107.841
21
-82.7714
0
ARC
8
Black
10
107.841
20
-82.9492
40
0.1778
50
270
51
450
0
ARC
8
Black
10
106.908
20
-82.9492
40
0.1778
50
90
51
270
0
LINE
8
Black
10
103.26
20
-86.8481
11
107.034
21
-83.0749
0
LINE
8
Black
10
103.009
20
-86.5967
11
106.782
21
-82.8235
0
ARC
8
Black
10
106.908
20
-82.9492
40
0.1778
50
315
51
495
0
ARC
8
Black
10
103.135
20
-86.7224
40
0.1778
50
135
51
315
0
LINE
8
Black
10
103.312
20
-93.1959
11
103.312
21
-86.7224
0
LINE
8
Black
10
102.957
20
-93.1959
11
102.957
21
-86.7224
0
ARC
8
Black
10
103.135
20
-86.7224
40
0.1778
50
360
51
540
0
ARC
8
Black
10
103.135
20
-93.1959
40
0.1778
50
180
51
360
0
LINE
8
Black
10
103.496
20
-93.306
11
103.26
21
-93.0702
0
LINE
8
Black
10
103.245
20
-93.5574
11
103.009
21
-93.3216
0
ARC
8
Black
10
103.135
20
-93.1959
40
0.1778
50
405
51
585
0
ARC
8
Black
10
103.37
20
-93.4317
40
0.1778
50
225
51
405
0
LINE
8
Black
10
103.37
20
-93.6095
11
107.918
21
-93.6095
0
LINE
8
Black
10
103.37
20
-93.2539
11
107.918
21
-93.2539
0
ARC
8
Black
10
107.918
20
-93.4317
40
0.1778
50
270
51
450
0
ARC
8
Black
10
103.37
20
-93.4317
40
0.1778
50
90
51
270
0
LINE
8
Black
10
109.374
20
-91.7243
11
107.793
21
-93.306
0
LINE
8
Black
10
109.626
20
-91.9757
11
108.044
21
-93.5574
0
ARC
8
Black
10
107.918
20
-93.4317
40
0.1778
50
495
51
675
0
ARC
8
Black
10
109.5
20
-91.85
40
0.1778
50
315
51
495
0
LINE
8
Black
10
109.776
20
-91.8743
11
109.626
21
-91.7243
0
LINE
8
Black
10
109.524
20
-92.1257
11
109.374
21
-91.9757
0
ARC
8
Black
10
109.5
20
-91.85
40
0.1778
50
405
51
585
0
ARC
8
Black
10
109.65
20
-92
40
0.1778
50
225
51
405
0
LINE
8
Black
10
109.678
20
-91.85
11
109.678
21
-89.3509
0
LINE
8
Black
10
109.322
20
-91.85
11
109.322
21
-89.3509
0
ARC
8
Black
10
109.5
20
-89.3509
40
0.1778
50
360
51
540
0
ARC
8
Black
10
109.5
20
-91.85
40
0.1778
50
180
51
360
0
LINE
8
Black
10
108.795
20
-86.9424
11
109.224
21
-86.9424
0
LINE
8
Black
10
108.795
20
-86.6884
11
109.224
21
-86.6884
0
ARC
8
Black
10
109.224
20
-86.8154
40
0.127
50
270
51
450
0
ARC
8
Black
10
108.795
20
-86.8154
40
0.127
50
90
51
270
0
LINE
8
Black
10
107.2
20
-88.5905
11
108.885
21
-86.9052
0
LINE
8
Black
10
107.02
20
-88.4109
11
108.705
21
-86.7256
0
ARC
8
Black
10
108.795
20
-86.8154
40
0.127
50
315
51
495
0
ARC
8
Black
10
107.11
20
-88.5007
40
0.127
50
135
51
315
0
LINE
8
Black
10
107.237
20
-92
11
107.237
21
-88.5007
0
LINE
8
Black
10
106.983
20
-92
11
106.983
21
-88.5007
0
ARC
8
Black
10
107.11
20
-88.5007
40
0.127
50
360
51
540
0
ARC
8
Black
10
107.11
20
-92
40
0.127
50
180
51
360
0
LINE
8
Black
10
109.351
20
-86.8154
11
109.351
21
-85.7991
0
LINE
8
Black
10
109.097
20
-86.8154
11
109.097
21
-85.7991
0
ARC
8
Black
10
109.224
20
-85.7991
40
0.127
50
360
51
540
0
ARC
8
Black
10
109.224
20
-86.8154
40
0.127
50
180
51
360
0
LINE
8
Black
10
130.627
20
-81.6491
11
130.627
21
-79.3509
0
LINE
8
Black
10
130.373
20
-81.6491
11
130.373
21
-79.3509
0
ARC
8
Black
10
130.5
20
-79.3509
40
0.127
50
360
51
540
0
ARC
8
Black
10
130.5
20
-81.6491
40
0.127
50
180
51
360
0
LINE
8
Black
10
129.897
20
-82.5638
11
130.5
21
-82.5638
0
LINE
8
Black
10
129.897
20
-82.3098
11
130.5
21
-82.3098
0
ARC
8
Black
10
130.5
20
-82.4368
40
0.127
50
270
51
450
0
ARC
8
Black
10
129.897
20
-82.4368
40
0.127
50
90
51
270
0
LINE
8
Black
10
127.52
20
-84.9935
11
129.987
21
-82.5266
0
LINE
8
Black
10
127.34
20
-84.8139
11
129.807
21
-82.347
0
ARC
8
Black
10
129.897
20
-82.4368
40
0.127
50
315
51
495
0
ARC
8
Black
10
127.43
20
-84.9037
40
0.127
50
135
51
315
0
LINE
8
Black
10
127.557
20
-92
11
127.557
21
-84.9037
0
LINE
8
Black
10
127.303
20
-92
11
127.303
21
-84.9037
0
ARC
8
Black
10
127.43
20
-84.9037
40
0.127
50
360
51
540
0
ARC
8
Black
10
127.43
20
-92
40
0.127
50
180
51
360
0
LINE
8
Black
10
130.627
20
-82.4368
11
130.627
21
-81.6491
0
LINE
8
Black
10
130.373
20
-82.4368
11
130.373
21
-81.6491
0
ARC
8
Black
10
130.5
20
-81.6491
40
0.127
50
360
51
540
0
ARC
8
Black
10
130.5
20
-82.4368
40
0.127
50
180
51
360
0
LINE
8
Black
10
110.435
20
-81.5644
11
112.46
21
-83.5898
0
LINE
8
Black
10
110.614
20
-81.3848
11
112.64
21
-83.4102
0
ARC
8
Black
10
112.55
20
-83.5
40
0.127
50
225
51
405
0
ARC
8
Black
10
110.525
20
-81.4746
40
0.127
50
45
51
225
0
LINE
8
Black
10
110.652
20
-81.4746
11
110.652
21
-80.2009
0
LINE
8
Black
10
110.398
20
-81.4746
11
110.398
21
-80.2009
0
ARC
8
Black
10
110.525
20
-80.2009
40
0.127
50
360
51
540
0
ARC
8
Black
10
110.525
20
-81.4746
40
0.127
50
180
51
360
0
LINE
8
Black
10
110.001
20
-85.7991
11
110.001
21
-84.9101
0
LINE
8
Black
10
109.747
20
-85.7991
11
109.747
21
-84.9101
0
ARC
8
Black
10
109.874
20
-84.9101
40
0.127
50
360
51
540
0
ARC
8
Black
10
109.874
20
-85.7991
40
0.127
50
180
51
360
0
LINE
8
Black
10
109.912
20
-84.6933
11
109.785
21
-84.8203
0
LINE
8
Black
10
110.091
20
-84.8729
11
109.964
21
-84.9999
0
ARC
8
Black
10
109.874
20
-84.9101
40
0.127
50
495
51
675
0
ARC
8
Black
10
110.001
20
-84.7831
40
0.127
50
315
51
495
0
LINE
8
Black
10
110.001
20
-84.9101
11
111.267
21
-84.9101
0
LINE
8
Black
10
110.001
20
-84.6561
11
111.267
21
-84.6561
0
ARC
8
Black
10
111.267
20
-84.7831
40
0.127
50
270
51
450
0
ARC
8
Black
10
110.001
20
-84.7831
40
0.127
50
90
51
270
0
LINE
8
Black
10
112.46
20
-83.4102
11
111.177
21
-84.6933
0
LINE
8
Black
10
112.64
20
-83.5898
11
111.357
21
-84.8729
0
ARC
8
Black
10
111.267
20
-84.7831
40
0.127
50
495
51
675
0
ARC
8
Black
10
112.55
20
-83.5
40
0.127
50
315
51
495
0
LINE
8
Black
10
126.65
20
-83.827
11
126.77
21
-83.827
0
LINE
8
Black
10
126.65
20
-83.573
11
126.77
21
-83.573
0
ARC
8
Black
10
126.77
20
-83.7
40
0.127
50
270
51
450
0
ARC
8
Black
10
126.65
20
-83.7
40
0.127
50
90
51
270
0
LINE
8
Black
10
122.051
20
-81.7761
11
122.5
21
-81.7761
0
LINE
8
Black
10
122.051
20
-81.5221
11
122.5
21
-81.5221
0
ARC
8
Black
10
122.5
20
-81.6491
40
0.127
50
270
51
450
0
ARC
8
Black
10
122.051
20
-81.6491
40
0.127
50
90
51
270
0
LINE
8
Black
10
121.961
20
-81.5593
11
121.01
21
-82.5102
0
LINE
8
Black
10
122.141
20
-81.7389
11
121.19
21
-82.6898
0
ARC
8
Black
10
121.1
20
-82.6
40
0.127
50
495
51
675
0
ARC
8
Black
10
122.051
20
-81.6491
40
0.127
50
315
51
495
0
LINE
8
Black
10
121.76
20
-91.5898
11
122.26
21
-92.0898
0
LINE
8
Black
10
121.94
20
-91.4102
11
122.44
21
-91.9102
0
ARC
8
Black
10
122.35
20
-92
40
0.127
50
225
51
405
0
ARC
8
Black
10
121.85
20
-91.5
40
0.127
50
45
51
225
0
LINE
8
Black
10
121.977
20
-91.5
11
121.977
21
-88.85
0
LINE
8
Black
10
121.723
20
-91.5
11
121.723
21
-88.85
0
ARC
8
Black
10
121.85
20
-88.85
40
0.127
50
360
51
540
0
ARC
8
Black
10
121.85
20
-91.5
40
0.127
50
180
51
360
0
LINE
8
Black
10
114.561
20
-81.8898
11
114.711
21
-81.7398
0
LINE
8
Black
10
114.381
20
-81.7102
11
114.531
21
-81.5602
0
ARC
8
Black
10
114.621
20
-81.65
40
0.127
50
315
51
495
0
ARC
8
Black
10
114.471
20
-81.8
40
0.127
50
135
51
315
0
LINE
8
Black
10
113.185
20
-81.927
11
114.471
21
-81.927
0
LINE
8
Black
10
113.185
20
-81.673
11
114.471
21
-81.673
0
ARC
8
Black
10
114.471
20
-81.8
40
0.127
50
270
51
450
0
ARC
8
Black
10
113.185
20
-81.8
40
0.127
50
90
51
270
0
LINE
8
Black
10
112.386
20
-81.1797
11
113.096
21
-81.8898
0
LINE
8
Black
10
112.565
20
-81.0001
11
113.275
21
-81.7102
0
ARC
8
Black
10
113.185
20
-81.8
40
0.127
50
225
51
405
0
ARC
8
Black
10
112.475
20
-81.0899
40
0.127
50
45
51
225
0
LINE
8
Black
10
112.602
20
-81.0899
11
112.602
21
-80.2009
0
LINE
8
Black
10
112.348
20
-81.0899
11
112.348
21
-80.2009
0
ARC
8
Black
10
112.475
20
-80.2009
40
0.127
50
360
51
540
0
ARC
8
Black
10
112.475
20
-81.0899
40
0.127
50
180
51
360
0
LINE
8
Black
10
114.621
20
-81.777
11
115.33
21
-81.777
0
LINE
8
Black
10
114.621
20
-81.523
11
115.33
21
-81.523
0
ARC
8
Black
10
115.33
20
-81.65
40
0.127
50
270
51
450
0
ARC
8
Black
10
114.621
20
-81.65
40
0.127
50
90
51
270
0
LINE
8
Black
10
113.253
20
-85.7991
11
113.253
21
-84.0756
0
LINE
8
Black
10
112.999
20
-85.7991
11
112.999
21
-84.0756
0
ARC
8
Black
10
113.126
20
-84.0756
40
0.127
50
360
51
540
0
ARC
8
Black
10
113.126
20
-85.7991
40
0.127
50
180
51
360
0
LINE
8
Black
10
112.46
20
-83.5898
11
113.036
21
-84.1654
0
LINE
8
Black
10
112.64
20
-83.4102
11
113.215
21
-83.9858
0
ARC
8
Black
10
113.126
20
-84.0756
40
0.127
50
225
51
405
0
ARC
8
Black
10
112.55
20
-83.5
40
0.127
50
45
51
225
0
LINE
8
Black
10
120.365
20
-80.6948
11
119.65
21
-81.4102
0
LINE
8
Black
10
120.545
20
-80.8744
11
119.83
21
-81.5898
0
ARC
8
Black
10
119.74
20
-81.5
40
0.127
50
495.016
51
675.016
0
ARC
8
Black
10
120.455
20
-80.7846
40
0.127
50
315.016
51
495.016
0
LINE
8
Black
10
120.582
20
-80.7846
11
120.582
21
-79.806
0
LINE
8
Black
10
120.328
20
-80.7846
11
120.328
21
-79.806
0
ARC
8
Black
10
120.455
20
-79.806
40
0.127
50
360
51
540
0
ARC
8
Black
10
120.455
20
-80.7846
40
0.127
50
180
51
360
0
LINE
8
Black
10
115.246
20
-81.5547
11
115.245
21
-81.5556
0
LINE
8
Black
10
115.416
20
-81.7435
11
115.415
21
-81.7444
0
ARC
8
Black
10
115.33
20
-81.65
40
0.127
50
491.987
51
671.987
0
ARC
8
Black
10
115.331
20
-81.6491
40
0.127
50
311.987
51
491.987
0
LINE
8
Black
10
115.331
20
-81.7761
11
116.5
21
-81.7761
0
LINE
8
Black
10
115.331
20
-81.5221
11
116.5
21
-81.5221
0
ARC
8
Black
10
116.5
20
-81.6491
40
0.127
50
270
51
450
0
ARC
8
Black
10
115.331
20
-81.6491
40
0.127
50
90
51
270
0
LINE
8
Black
10
130.627
20
-84.52
11
130.627
21
-83.3509
0
LINE
8
Black
10
130.373
20
-84.52
11
130.373
21
-83.3509
0
ARC
8
Black
10
130.5
20
-83.3509
40
0.127
50
360
51
540
0
ARC
8
Black
10
130.5
20
-84.52
40
0.127
50
180
51
360
0
LINE
8
Black
10
104.617
20
-86.9787
11
104.617
21
-86.62
0
LINE
8
Black
10
104.363
20
-86.9787
11
104.363
21
-86.62
0
ARC
8
Black
10
104.49
20
-86.62
40
0.127
50
360
51
540
0
ARC
8
Black
10
104.49
20
-86.9787
40
0.127
50
180
51
360
0
LINE
8
Black
10
104.59
20
-86.8989
11
104.58
21
-86.8889
0
LINE
8
Black
10
104.41
20
-87.0785
11
104.4
21
-87.0685
0
ARC
8
Black
10
104.49
20
-86.9787
40
0.127
50
405
51
585
0
ARC
8
Black
10
104.5
20
-86.9887
40
0.127
50
225
51
405
0
LINE
8
Black
10
104.627
20
-87.6491
11
104.627
21
-86.9887
0
LINE
8
Black
10
104.373
20
-87.6491
11
104.373
21
-86.9887
0
ARC
8
Black
10
104.5
20
-86.9887
40
0.127
50
360
51
540
0
ARC
8
Black
10
104.5
20
-87.6491
40
0.127
50
180
51
360
0
LINE
8
Black
10
109.784
20
-87.1849
11
109.41
21
-87.5593
0
LINE
8
Black
10
109.964
20
-87.3645
11
109.59
21
-87.7389
0
ARC
8
Black
10
109.5
20
-87.6491
40
0.127
50
495.031
51
675.031
0
ARC
8
Black
10
109.874
20
-87.2747
40
0.127
50
315.031
51
495.031
0
LINE
8
Black
10
110.001
20
-87.2747
11
110.001
21
-85.7991
0
LINE
8
Black
10
109.747
20
-87.2747
11
109.747
21
-85.7991
0
ARC
8
Black
10
109.874
20
-85.7991
40
0.127
50
360
51
540
0
ARC
8
Black
10
109.874
20
-87.2747
40
0.127
50
180
51
360
0
LINE
8
Black
10
114.429
20
-85.889
11
114.46
21
-85.9199
0
LINE
8
Black
10
114.609
20
-85.7092
11
114.64
21
-85.7401
0
ARC
8
Black
10
114.55
20
-85.83
40
0.127
50
225.093
51
405.093
0
ARC
8
Black
10
114.519
20
-85.7991
40
0.127
50
45.0926
51
225.093
0
LINE
8
Black
10
113.776
20
-85.9261
11
114.519
21
-85.9261
0
LINE
8
Black
10
113.776
20
-85.6721
11
114.519
21
-85.6721
0
ARC
8
Black
10
114.519
20
-85.7991
40
0.127
50
270
51
450
0
ARC
8
Black
10
113.776
20
-85.7991
40
0.127
50
90
51
270
0
LINE
8
Black
10
118.349
20
-76.1402
11
118.357
21
-76.1327
0
LINE
8
Black
10
118.175
20
-75.9548
11
118.183
21
-75.9473
0
ARC
8
Black
10
118.27
20
-76.04
40
0.127
50
313.152
51
493.152
0
ARC
8
Black
10
118.262
20
-76.0475
40
0.127
50
133.152
51
313.152
0
LINE
8
Black
10
117.27
20
-76.1745
11
118.262
21
-76.1745
0
LINE
8
Black
10
117.27
20
-75.9205
11
118.262
21
-75.9205
0
ARC
8
Black
10
118.262
20
-76.0475
40
0.127
50
270
51
450
0
ARC
8
Black
10
117.27
20
-76.0475
40
0.127
50
90
51
270
0
LINE
8
Black
10
112.475
20
-85.9261
11
112.475
21
-85.9261
0
LINE
8
Black
10
112.475
20
-85.6721
11
112.475
21
-85.6721
0
ARC
8
Black
10
112.475
20
-85.7991
40
0.127
50
270
51
450
0
ARC
8
Black
10
112.475
20
-85.7991
40
0.127
50
90
51
270
0
LINE
8
Black
10
112.475
20
-85.9261
11
113.126
21
-85.9261
0
LINE
8
Black
10
112.475
20
-85.6721
11
113.126
21
-85.6721
0
ARC
8
Black
10
113.126
20
-85.7991
40
0.127
50
270
51
450
0
ARC
8
Black
10
112.475
20
-85.7991
40
0.127
50
90
51
270
0
LINE
8
Black
10
113.126
20
-85.9261
11
113.776
21
-85.9261
0
LINE
8
Black
10
113.126
20
-85.6721
11
113.776
21
-85.6721
0
ARC
8
Black
10
113.776
20
-85.7991
40
0.127
50
270
51
450
0
ARC
8
Black
10
113.126
20
-85.7991
40
0.127
50
90
51
270
0
LINE
8
Black
10
113.253
20
-80.2009
11
113.253
21
-79.3119
0
LINE
8
Black
10
112.999
20
-80.2009
11
112.999
21
-79.3119
0
ARC
8
Black
10
113.126
20
-79.3119
40
0.127
50
360
51
540
0
ARC
8
Black
10
113.126
20
-80.2009
40
0.127
50
180
51
360
0
LINE
8
Black
10
113.253
20
-79.3119
11
113.253
21
-79.2089
0
LINE
8
Black
10
112.999
20
-79.3119
11
112.999
21
-79.2089
0
ARC
8
Black
10
113.126
20
-79.2089
40
0.127
50
360
51
540
0
ARC
8
Black
10
113.126
20
-79.3119
40
0.127
50
180
51
360
0
LINE
8
Black
10
114.64
20
-77.5147
11
113.036
21
-79.1191
0
LINE
8
Black
10
114.82
20
-77.6943
11
113.215
21
-79.2987
0
ARC
8
Black
10
113.126
20
-79.2089
40
0.127
50
495
51
675
0
ARC
8
Black
10
114.73
20
-77.6045
40
0.127
50
315
51
495
0
LINE
8
Black
10
114.857
20
-77.6045
11
114.857
21
-77
0
LINE
8
Black
10
114.603
20
-77.6045
11
114.603
21
-77
0
ARC
8
Black
10
114.73
20
-77
40
0.127
50
360
51
540
0
ARC
8
Black
10
114.73
20
-77.6045
40
0.127
50
180
51
360
0
LINE
8
Black
10
113.253
20
-80.9213
11
113.253
21
-80.2009
0
LINE
8
Black
10
112.999
20
-80.9213
11
112.999
21
-80.2009
0
ARC
8
Black
10
113.126
20
-80.2009
40
0.127
50
360
51
540
0
ARC
8
Black
10
113.126
20
-80.9213
40
0.127
50
180
51
360
0
LINE
8
Black
10
113.55
20
-81.1663
11
113.215
21
-80.8315
0
LINE
8
Black
10
113.371
20
-81.3459
11
113.036
21
-81.0111
0
ARC
8
Black
10
113.126
20
-80.9213
40
0.127
50
405
51
585
0
ARC
8
Black
10
113.46
20
-81.2561
40
0.127
50
225
51
405
0
LINE
8
Black
10
113.587
20
-81.292
11
113.587
21
-81.2561
0
LINE
8
Black
10
113.333
20
-81.292
11
113.333
21
-81.2561
0
ARC
8
Black
10
113.46
20
-81.2561
40
0.127
50
360
51
540
0
ARC
8
Black
10
113.46
20
-81.292
40
0.127
50
180
51
360
0
LINE
8
Black
10
119.095
20
-82.4004
11
117.429
21
-80.7347
0
LINE
8
Black
10
118.915
20
-82.58
11
117.249
21
-80.9143
0
ARC
8
Black
10
117.339
20
-80.8245
40
0.127
50
405
51
585
0
ARC
8
Black
10
119.005
20
-82.4902
40
0.127
50
225
51
405
0
LINE
8
Black
10
119.005
20
-82.6172
11
119.958
21
-82.6172
0
LINE
8
Black
10
119.005
20
-82.3632
11
119.958
21
-82.3632
0
ARC
8
Black
10
119.958
20
-82.4902
40
0.127
50
270
51
450
0
ARC
8
Black
10
119.005
20
-82.4902
40
0.127
50
90
51
270
0
LINE
8
Black
10
114.728
20
-80.9515
11
117.339
21
-80.9515
0
LINE
8
Black
10
114.728
20
-80.6975
11
117.339
21
-80.6975
0
ARC
8
Black
10
117.339
20
-80.8245
40
0.127
50
270
51
450
0
ARC
8
Black
10
114.728
20
-80.8245
40
0.127
50
90
51
270
0
LINE
8
Black
10
122.41
20
-79.8584
11
119.868
21
-82.4004
0
LINE
8
Black
10
122.59
20
-80.038
11
120.048
21
-82.58
0
ARC
8
Black
10
119.958
20
-82.4902
40
0.127
50
495
51
675
0
ARC
8
Black
10
122.5
20
-79.9482
40
0.127
50
315
51
495
0
LINE
8
Black
10
114.638
20
-80.7347
11
114.171
21
-81.2022
0
LINE
8
Black
10
114.818
20
-80.9143
11
114.35
21
-81.3818
0
ARC
8
Black
10
114.26
20
-81.292
40
0.127
50
495
51
675
0
ARC
8
Black
10
114.728
20
-80.8245
40
0.127
50
315
51
495
0
LINE
8
Black
10
113.46
20
-81.419
11
114.26
21
-81.419
0
LINE
8
Black
10
113.46
20
-81.165
11
114.26
21
-81.165
0
ARC
8
Black
10
114.26
20
-81.292
40
0.127
50
270
51
450
0
ARC
8
Black
10
113.46
20
-81.292
40
0.127
50
90
51
270
0
LINE
8
Black
10
122.5
20
-80.2656
11
123.037
21
-80.2656
0
LINE
8
Black
10
122.5
20
-80.0116
11
123.037
21
-80.0116
0
ARC
8
Black
10
123.037
20
-80.1386
40
0.127
50
270
51
450
0
ARC
8
Black
10
122.5
20
-80.1386
40
0.127
50
90
51
270
0
LINE
8
Black
10
124.637
20
-81.5593
11
123.127
21
-80.0488
0
LINE
8
Black
10
124.457
20
-81.7389
11
122.947
21
-80.2284
0
ARC
8
Black
10
123.037
20
-80.1386
40
0.127
50
405
51
585
0
ARC
8
Black
10
124.547
20
-81.6491
40
0.127
50
225
51
405
0
LINE
8
Black
10
124.547
20
-81.7761
11
125.5
21
-81.7761
0
LINE
8
Black
10
124.547
20
-81.5221
11
125.5
21
-81.5221
0
ARC
8
Black
10
125.5
20
-81.6491
40
0.127
50
270
51
450
0
ARC
8
Black
10
124.547
20
-81.6491
40
0.127
50
90
51
270
0
LINE
8
Black
10
122.627
20
-79.7447
11
122.627
21
-79.3509
0
LINE
8
Black
10
122.373
20
-79.7447
11
122.373
21
-79.3509
0
ARC
8
Black
10
122.5
20
-79.3509
40
0.127
50
360
51
540
0
ARC
8
Black
10
122.5
20
-79.7447
40
0.127
50
180
51
360
0
LINE
8
Black
10
122.627
20
-80.1386
11
122.627
21
-79.9482
0
LINE
8
Black
10
122.373
20
-80.1386
11
122.373
21
-79.9482
0
ARC
8
Black
10
122.5
20
-79.9482
40
0.127
50
360
51
540
0
ARC
8
Black
10
122.5
20
-80.1386
40
0.127
50
180
51
360
0
LINE
8
Black
10
122.627
20
-79.9482
11
122.627
21
-79.7447
0
LINE
8
Black
10
122.373
20
-79.9482
11
122.373
21
-79.7447
0
ARC
8
Black
10
122.5
20
-79.7447
40
0.127
50
360
51
540
0
ARC
8
Black
10
122.5
20
-79.9482
40
0.127
50
180
51
360
0
LINE
8
Black
10
118.211
20
-84.2284
11
118.435
21
-84.4523
0
LINE
8
Black
10
118.391
20
-84.0488
11
118.615
21
-84.2727
0
ARC
8
Black
10
118.525
20
-84.3625
40
0.127
50
225
51
405
0
ARC
8
Black
10
118.301
20
-84.1386
40
0.127
50
45
51
225
0
LINE
8
Black
10
116.5
20
-84.2656
11
118.301
21
-84.2656
0
LINE
8
Black
10
116.5
20
-84.0116
11
118.301
21
-84.0116
0
ARC
8
Black
10
118.301
20
-84.1386
40
0.127
50
270
51
450
0
ARC
8
Black
10
116.5
20
-84.1386
40
0.127
50
90
51
270
0
LINE
8
Black
10
116.627
20
-84.1386
11
116.627
21
-83.3509
0
LINE
8
Black
10
116.373
20
-84.1386
11
116.373
21
-83.3509
0
ARC
8
Black
10
116.5
20
-83.3509
40
0.127
50
360
51
540
0
ARC
8
Black
10
116.5
20
-84.1386
40
0.127
50
180
51
360
0
LINE
8
Black
10
118.652
20
-85.394
11
118.652
21
-84.3625
0
LINE
8
Black
10
118.398
20
-85.394
11
118.398
21
-84.3625
0
ARC
8
Black
10
118.525
20
-84.3625
40
0.127
50
360
51
540
0
ARC
8
Black
10
118.525
20
-85.394
40
0.127
50
180
51
360
0
LINE
8
Black
10
122.5
20
-77.7761
11
125.5
21
-77.7761
0
LINE
8
Black
10
122.5
20
-77.5221
11
125.5
21
-77.5221
0
ARC
8
Black
10
125.5
20
-77.6491
40
0.127
50
270
51
450
0
ARC
8
Black
10
122.5
20
-77.6491
40
0.127
50
90
51
270
0
LINE
8
Black
10
120.856
20
-77.5593
11
119.731
21
-78.6847
0
LINE
8
Black
10
121.036
20
-77.7389
11
119.91
21
-78.8643
0
ARC
8
Black
10
119.82
20
-78.7745
40
0.127
50
495
51
675
0
ARC
8
Black
10
120.946
20
-77.6491
40
0.127
50
315
51
495
0
LINE
8
Black
10
120.946
20
-77.7761
11
122.5
21
-77.7761
0
LINE
8
Black
10
120.946
20
-77.5221
11
122.5
21
-77.5221
0
ARC
8
Black
10
122.5
20
-77.6491
40
0.127
50
270
51
450
0
ARC
8
Black
10
120.946
20
-77.6491
40
0.127
50
90
51
270
0
LINE
8
Black
10
119.947
20
-79.806
11
119.947
21
-78.7745
0
LINE
8
Black
10
119.693
20
-79.806
11
119.693
21
-78.7745
0
ARC
8
Black
10
119.82
20
-78.7745
40
0.127
50
360
51
540
0
ARC
8
Black
10
119.82
20
-79.806
40
0.127
50
180
51
360
0
LINE
8
Black
10
111.302
20
-80.2009
11
111.302
21
-76.7506
0
LINE
8
Black
10
111.048
20
-80.2009
11
111.048
21
-76.7506
0
ARC
8
Black
10
111.175
20
-76.7506
40
0.127
50
360
51
540
0
ARC
8
Black
10
111.175
20
-80.2009
40
0.127
50
180
51
360
0
LINE
8
Black
10
111.455
20
-76.291
11
111.085
21
-76.6608
0
LINE
8
Black
10
111.635
20
-76.4706
11
111.265
21
-76.8404
0
ARC
8
Black
10
111.175
20
-76.7506
40
0.127
50
495
51
675
0
ARC
8
Black
10
111.545
20
-76.3808
40
0.127
50
315
51
495
0
LINE
8
Black
10
110.001
20
-80.2009
11
110.001
21
-78.7642
0
LINE
8
Black
10
109.747
20
-80.2009
11
109.747
21
-78.7642
0
ARC
8
Black
10
109.874
20
-78.7642
40
0.127
50
360
51
540
0
ARC
8
Black
10
109.874
20
-80.2009
40
0.127
50
180
51
360
0
LINE
8
Black
10
109.91
20
-78.5488
11
109.785
21
-78.6744
0
LINE
8
Black
10
110.09
20
-78.7284
11
109.964
21
-78.854
0
ARC
8
Black
10
109.874
20
-78.7642
40
0.127
50
495
51
675
0
ARC
8
Black
10
110
20
-78.6386
40
0.127
50
315
51
495
0
LINE
8
Black
10
110.127
20
-78.6386
11
110.127
21
-77.8509
0
LINE
8
Black
10
109.873
20
-78.6386
11
109.873
21
-77.8509
0
ARC
8
Black
10
110
20
-77.8509
40
0.127
50
360
51
540
0
ARC
8
Black
10
110
20
-78.6386
40
0.127
50
180
51
360
0
LINE
8
Black
10
120.54
20
-87.6131
11
119.263
21
-86.3357
0
LINE
8
Black
10
120.36
20
-87.7927
11
119.083
21
-86.5153
0
ARC
8
Black
10
119.173
20
-86.4255
40
0.127
50
405
51
585
0
ARC
8
Black
10
120.45
20
-87.7029
40
0.127
50
225
51
405
0
LINE
8
Black
10
120.45
20
-87.8299
11
121.321
21
-87.8299
0
LINE
8
Black
10
120.45
20
-87.5759
11
121.321
21
-87.5759
0
ARC
8
Black
10
121.321
20
-87.7029
40
0.127
50
270
51
450
0
ARC
8
Black
10
120.45
20
-87.7029
40
0.127
50
90
51
270
0
LINE
8
Black
10
119.3
20
-86.4255
11
119.3
21
-85.394
0
LINE
8
Black
10
119.046
20
-86.4255
11
119.046
21
-85.394
0
ARC
8
Black
10
119.173
20
-85.394
40
0.127
50
360
51
540
0
ARC
8
Black
10
119.173
20
-86.4255
40
0.127
50
180
51
360
0
LINE
8
Black
10
113.776
20
-80.3279
11
117.434
21
-80.3279
0
LINE
8
Black
10
113.776
20
-80.0739
11
117.434
21
-80.0739
0
ARC
8
Black
10
117.434
20
-80.2009
40
0.127
50
270
51
450
0
ARC
8
Black
10
113.776
20
-80.2009
40
0.127
50
90
51
270
0
LINE
8
Black
10
117.344
20
-80.2907
11
117.981
21
-80.9273
0
LINE
8
Black
10
117.524
20
-80.1111
11
118.16
21
-80.7477
0
ARC
8
Black
10
118.071
20
-80.8375
40
0.127
50
225
51
405
0
ARC
8
Black
10
117.434
20
-80.2009
40
0.127
50
45
51
225
0
LINE
8
Black
10
119.287
20
-80.7102
11
119.287
21
-79.806
0
LINE
8
Black
10
119.033
20
-80.7102
11
119.033
21
-79.806
0
ARC
8
Black
10
119.16
20
-79.806
40
0.127
50
360
51
540
0
ARC
8
Black
10
119.16
20
-80.7102
40
0.127
50
180
51
360
0
LINE
8
Black
10
118.071
20
-80.9645
11
119.033
21
-80.9645
0
LINE
8
Black
10
118.071
20
-80.7105
11
119.033
21
-80.7105
0
ARC
8
Black
10
119.033
20
-80.8375
40
0.127
50
270
51
450
0
ARC
8
Black
10
118.071
20
-80.8375
40
0.127
50
90
51
270
0
LINE
8
Black
10
119.123
20
-80.9273
11
119.25
21
-80.8
0
LINE
8
Black
10
118.943
20
-80.7477
11
119.07
21
-80.6204
0
ARC
8
Black
10
119.16
20
-80.7102
40
0.127
50
315
51
495
0
ARC
8
Black
10
119.033
20
-80.8375
40
0.127
50
135
51
315
0
LINE
8
Black
10
110.652
20
-86.9076
11
110.652
21
-85.7991
0
LINE
8
Black
10
110.398
20
-86.9076
11
110.398
21
-85.7991
0
ARC
8
Black
10
110.525
20
-85.7991
40
0.127
50
360
51
540
0
ARC
8
Black
10
110.525
20
-86.9076
40
0.127
50
180
51
360
0
LINE
8
Black
10
113.399
20
-89.6027
11
110.614
21
-86.8178
0
LINE
8
Black
10
113.22
20
-89.7823
11
110.435
21
-86.9974
0
ARC
8
Black
10
110.525
20
-86.9076
40
0.127
50
405
51
585
0
ARC
8
Black
10
113.31
20
-89.6925
40
0.127
50
225
51
405
0
LINE
8
Black
10
113.31
20
-89.8195
11
114.738
21
-89.8195
0
LINE
8
Black
10
113.31
20
-89.5655
11
114.738
21
-89.5655
0
ARC
8
Black
10
114.738
20
-89.6925
40
0.127
50
270
51
450
0
ARC
8
Black
10
113.31
20
-89.6925
40
0.127
50
90
51
270
0
LINE
8
Black
10
128
20
-77.7761
11
130.5
21
-77.7761
0
LINE
8
Black
10
128
20
-77.5221
11
130.5
21
-77.5221
0
ARC
8
Black
10
130.5
20
-77.6491
40
0.127
50
270
51
450
0
ARC
8
Black
10
128
20
-77.6491
40
0.127
50
90
51
270
0
LINE
8
Black
10
117.27
20
-78.0795
11
118.962
21
-78.0795
0
LINE
8
Black
10
117.27
20
-77.8255
11
118.962
21
-77.8255
0
ARC
8
Black
10
118.962
20
-77.9525
40
0.127
50
270
51
450
0
ARC
8
Black
10
117.27
20
-77.9525
40
0.127
50
90
51
270
0
LINE
8
Black
10
119.963
20
-76.7716
11
118.872
21
-77.8627
0
LINE
8
Black
10
120.143
20
-76.9512
11
119.052
21
-78.0423
0
ARC
8
Black
10
118.962
20
-77.9525
40
0.127
50
495
51
675
0
ARC
8
Black
10
120.053
20
-76.8614
40
0.127
50
315
51
495
0
LINE
8
Black
10
120.053
20
-76.9884
11
128
21
-76.9884
0
LINE
8
Black
10
120.053
20
-76.7344
11
128
21
-76.7344
0
ARC
8
Black
10
128
20
-76.8614
40
0.127
50
270
51
450
0
ARC
8
Black
10
120.053
20
-76.8614
40
0.127
50
90
51
270
0
LINE
8
Black
10
128.127
20
-77.6491
11
128.127
21
-76.8614
0
LINE
8
Black
10
127.873
20
-77.6491
11
127.873
21
-76.8614
0
ARC
8
Black
10
128
20
-76.8614
40
0.127
50
360
51
540
0
ARC
8
Black
10
128
20
-77.6491
40
0.127
50
180
51
360
0
LINE
8
Black
10
111.952
20
-86.3072
11
111.952
21
-85.7991
0
LINE
8
Black
10
111.698
20
-86.3072
11
111.698
21
-85.7991
0
ARC
8
Black
10
111.825
20
-85.7991
40
0.127
50
360
51
540
0
ARC
8
Black
10
111.825
20
-86.3072
40
0.127
50
180
51
360
0
LINE
8
Black
10
111.302
20
-86.8154
11
111.302
21
-85.7991
0
LINE
8
Black
10
111.048
20
-86.8154
11
111.048
21
-85.7991
0
ARC
8
Black
10
111.175
20
-85.7991
40
0.127
50
360
51
540
0
ARC
8
Black
10
111.175
20
-86.8154
40
0.127
50
180
51
360
0
LINE
8
Black
10
111.952
20
-86.8154
11
111.952
21
-86.5614
0
LINE
8
Black
10
111.698
20
-86.8154
11
111.698
21
-86.5614
0
ARC
8
Black
10
111.825
20
-86.5614
40
0.127
50
360
51
540
0
ARC
8
Black
10
111.825
20
-86.8154
40
0.127
50
180
51
360
0
LINE
8
Black
10
111.952
20
-86.5614
11
111.952
21
-86.3072
0
LINE
8
Black
10
111.698
20
-86.5614
11
111.698
21
-86.3072
0
ARC
8
Black
10
111.825
20
-86.3072
40
0.127
50
360
51
540
0
ARC
8
Black
10
111.825
20
-86.5614
40
0.127
50
180
51
360
0
LINE
8
Black
10
111.175
20
-86.9424
11
111.571
21
-86.9424
0
LINE
8
Black
10
111.175
20
-86.6884
11
111.571
21
-86.6884
0
ARC
8
Black
10
111.571
20
-86.8154
40
0.127
50
270
51
450
0
ARC
8
Black
10
111.175
20
-86.8154
40
0.127
50
90
51
270
0
LINE
8
Black
10
111.735
20
-86.4716
11
111.481
21
-86.7256
0
LINE
8
Black
10
111.915
20
-86.6512
11
111.661
21
-86.9052
0
ARC
8
Black
10
111.571
20
-86.8154
40
0.127
50
495
51
675
0
ARC
8
Black
10
111.825
20
-86.5614
40
0.127
50
315
51
495
0
LINE
8
Black
10
111.825
20
-86.9424
11
113.028
21
-86.9424
0
LINE
8
Black
10
111.825
20
-86.6884
11
113.028
21
-86.6884
0
ARC
8
Black
10
113.028
20
-86.8154
40
0.127
50
270
51
450
0
ARC
8
Black
10
111.825
20
-86.8154
40
0.127
50
90
51
270
0
LINE
8
Black
10
116.223
20
-89.8307
11
113.118
21
-86.7256
0
LINE
8
Black
10
116.044
20
-90.0103
11
112.939
21
-86.9052
0
ARC
8
Black
10
113.028
20
-86.8154
40
0.127
50
405
51
585
0
ARC
8
Black
10
116.134
20
-89.9205
40
0.127
50
225
51
405
0
LINE
8
Black
10
116.261
20
-90.6637
11
116.261
21
-89.9205
0
LINE
8
Black
10
116.007
20
-90.6637
11
116.007
21
-89.9205
0
ARC
8
Black
10
116.134
20
-89.9205
40
0.127
50
360
51
540
0
ARC
8
Black
10
116.134
20
-90.6637
40
0.127
50
180
51
360
0
LINE
8
Black
10
111.952
20
-81.3301
11
111.952
21
-80.2009
0
LINE
8
Black
10
111.698
20
-81.3301
11
111.698
21
-80.2009
0
ARC
8
Black
10
111.825
20
-80.2009
40
0.127
50
360
51
540
0
ARC
8
Black
10
111.825
20
-81.3301
40
0.127
50
180
51
360
0
LINE
8
Black
10
117.36
20
-86.6852
11
111.915
21
-81.2403
0
LINE
8
Black
10
117.18
20
-86.8648
11
111.735
21
-81.4199
0
ARC
8
Black
10
111.825
20
-81.3301
40
0.127
50
405
51
585
0
ARC
8
Black
10
117.27
20
-86.775
40
0.127
50
225
51
405
0
LINE
8
Black
10
117.397
20
-92
11
117.397
21
-86.775
0
LINE
8
Black
10
117.143
20
-92
11
117.143
21
-86.775
0
ARC
8
Black
10
117.27
20
-86.775
40
0.127
50
360
51
540
0
ARC
8
Black
10
117.27
20
-92
40
0.127
50
180
51
360
0
LINE
8
Black
10
107.212
20
-83.6673
11
107.176
21
-83.6819
0
LINE
8
Black
10
107.176
20
-83.6819
11
106.908
21
-83.9496
0
LINE
8
Black
10
106.908
20
-83.9496
11
106.763
21
-84.2996
0
LINE
8
Black
10
106.763
20
-84.2996
11
106.762
21
-84.6785
0
LINE
8
Black
10
106.762
20
-84.6785
11
106.907
21
-85.0287
0
LINE
8
Black
10
106.907
20
-85.0287
11
107.156
21
-85.2783
0
LINE
8
Black
10
107.156
20
-85.2783
11
107.156
21
-85.7995
0
LINE
8
Black
10
107.156
20
-85.7995
11
105.707
21
-87.2493
0
LINE
8
Black
10
105.707
20
-87.2493
11
105.707
21
-87.1164
0
LINE
8
Black
10
105.707
20
-87.1164
11
105.61
21
-86.883
0
LINE
8
Black
10
105.61
20
-86.883
11
105.431
21
-86.7044
0
LINE
8
Black
10
105.431
20
-86.7044
11
105.198
21
-86.6077
0
LINE
8
Black
10
105.198
20
-86.6077
11
104.945
21
-86.6077
0
LINE
8
Black
10
104.945
20
-86.6077
11
104.786
21
-86.6077
0
LINE
8
Black
10
104.786
20
-86.6077
11
104.627
21
-86.7665
0
LINE
8
Black
10
104.627
20
-86.7665
11
104.627
21
-87.5221
0
LINE
8
Black
10
104.627
20
-87.5221
11
104.647
21
-87.5221
0
LINE
8
Black
10
104.647
20
-87.5221
11
104.647
21
-87.7761
0
LINE
8
Black
10
104.647
20
-87.7761
11
104.627
21
-87.7761
0
LINE
8
Black
10
104.627
20
-87.7761
11
104.627
21
-87.7961
0
LINE
8
Black
10
104.627
20
-87.7961
11
104.373
21
-87.7961
0
LINE
8
Black
10
104.373
20
-87.7961
11
104.373
21
-87.7761
0
LINE
8
Black
10
104.373
20
-87.7761
11
104.353
21
-87.7761
0
LINE
8
Black
10
104.353
20
-87.7761
11
104.353
21
-87.5221
0
LINE
8
Black
10
104.353
20
-87.5221
11
104.373
21
-87.5221
0
LINE
8
Black
10
104.373
20
-87.5221
11
104.373
21
-86.7665
0
LINE
8
Black
10
104.373
20
-86.7665
11
104.214
21
-86.6077
0
LINE
8
Black
10
104.214
20
-86.6077
11
104.055
21
-86.6077
0
LINE
8
Black
10
104.055
20
-86.6077
11
104.04
21
-86.6077
0
LINE
8
Black
10
104.04
20
-86.6077
11
107.096
21
-83.5513
0
LINE
8
Black
10
107.096
20
-83.5513
11
107.212
21
-83.6673
0
LINE
8
Black
10
107.212
20
-83.6673
11
107.176
21
-83.6819
0
LINE
8
Black
10
107.176
20
-83.6819
11
106.908
21
-83.9496
0
LINE
8
Black
10
106.908
20
-83.9496
11
106.763
21
-84.2996
0
LINE
8
Black
10
106.763
20
-84.2996
11
106.762
21
-84.6785
0
LINE
8
Black
10
106.762
20
-84.6785
11
106.907
21
-85.0287
0
LINE
8
Black
10
106.907
20
-85.0287
11
107.156
21
-85.2783
0
LINE
8
Black
10
107.156
20
-85.2783
11
107.156
21
-85.7995
0
LINE
8
Black
10
107.156
20
-85.7995
11
105.707
21
-87.2493
0
LINE
8
Black
10
105.707
20
-87.2493
11
105.707
21
-87.1164
0
LINE
8
Black
10
105.707
20
-87.1164
11
105.61
21
-86.883
0
LINE
8
Black
10
105.61
20
-86.883
11
105.431
21
-86.7044
0
LINE
8
Black
10
105.431
20
-86.7044
11
105.198
21
-86.6077
0
LINE
8
Black
10
105.198
20
-86.6077
11
104.945
21
-86.6077
0
LINE
8
Black
10
104.945
20
-86.6077
11
104.786
21
-86.6077
0
LINE
8
Black
10
104.786
20
-86.6077
11
104.627
21
-86.7665
0
LINE
8
Black
10
104.627
20
-86.7665
11
104.627
21
-87.5221
0
LINE
8
Black
10
104.627
20
-87.5221
11
104.647
21
-87.5221
0
LINE
8
Black
10
104.647
20
-87.5221
11
104.647
21
-87.7761
0
LINE
8
Black
10
104.647
20
-87.7761
11
104.627
21
-87.7761
0
LINE
8
Black
10
104.627
20
-87.7761
11
104.627
21
-87.7961
0
LINE
8
Black
10
104.627
20
-87.7961
11
104.373
21
-87.7961
0
LINE
8
Black
10
104.373
20
-87.7961
11
104.373
21
-87.7761
0
LINE
8
Black
10
104.373
20
-87.7761
11
104.353
21
-87.7761
0
LINE
8
Black
10
104.353
20
-87.7761
11
104.353
21
-87.5221
0
LINE
8
Black
10
104.353
20
-87.5221
11
104.373
21
-87.5221
0
LINE
8
Black
10
104.373
20
-87.5221
11
104.373
21
-86.7665
0
LINE
8
Black
10
104.373
20
-86.7665
11
104.214
21
-86.6077
0
LINE
8
Black
10
104.214
20
-86.6077
11
104.055
21
-86.6077
0
LINE
8
Black
10
104.055
20
-86.6077
11
104.04
21
-86.6077
0
LINE
8
Black
10
104.04
20
-86.6077
11
107.096
21
-83.5513
0
LINE
8
Black
10
107.096
20
-83.5513
11
107.212
21
-83.6673
0
LINE
8
Black
10
109.647
20
-87.7761
11
109.627
21
-87.7761
0
LINE
8
Black
10
109.627
20
-87.7761
11
109.627
21
-87.7961
0
LINE
8
Black
10
109.627
20
-87.7961
11
109.373
21
-87.7961
0
LINE
8
Black
10
109.373
20
-87.7961
11
109.373
21
-87.7761
0
LINE
8
Black
10
109.373
20
-87.7761
11
109.353
21
-87.7761
0
LINE
8
Black
10
109.353
20
-87.7761
11
109.353
21
-87.5221
0
LINE
8
Black
10
109.353
20
-87.5221
11
109.373
21
-87.5221
0
LINE
8
Black
10
109.373
20
-87.5221
11
109.373
21
-87.5021
0
LINE
8
Black
10
109.373
20
-87.5021
11
109.627
21
-87.5021
0
LINE
8
Black
10
109.627
20
-87.5021
11
109.627
21
-87.5221
0
LINE
8
Black
10
109.627
20
-87.5221
11
109.647
21
-87.5221
0
LINE
8
Black
10
109.647
20
-87.5221
11
109.647
21
-87.7761
0
LINE
8
Black
10
109.647
20
-87.7761
11
109.627
21
-87.7761
0
LINE
8
Black
10
109.627
20
-87.7761
11
109.627
21
-87.7961
0
LINE
8
Black
10
109.627
20
-87.7961
11
109.373
21
-87.7961
0
LINE
8
Black
10
109.373
20
-87.7961
11
109.373
21
-87.7761
0
LINE
8
Black
10
109.373
20
-87.7761
11
109.353
21
-87.7761
0
LINE
8
Black
10
109.353
20
-87.7761
11
109.353
21
-87.5221
0
LINE
8
Black
10
109.353
20
-87.5221
11
109.373
21
-87.5221
0
LINE
8
Black
10
109.373
20
-87.5221
11
109.373
21
-87.5021
0
LINE
8
Black
10
109.373
20
-87.5021
11
109.627
21
-87.5021
0
LINE
8
Black
10
109.627
20
-87.5021
11
109.627
21
-87.5221
0
LINE
8
Black
10
109.627
20
-87.5221
11
109.647
21
-87.5221
0
LINE
8
Black
10
109.647
20
-87.5221
11
109.647
21
-87.7761
0
LINE
8
Black
10
114.679
20
-76.2685
11
114.154
21
-76.2685
0
LINE
8
Black
10
114.154
20
-76.2685
11
114.014
21
-76.3265
0
LINE
8
Black
10
114.014
20
-76.3265
11
113.907
21
-76.4337
0
LINE
8
Black
10
113.907
20
-76.4337
11
113.849
21
-76.5737
0
LINE
8
Black
10
113.849
20
-76.5737
11
113.849
21
-76.7253
0
LINE
8
Black
10
113.849
20
-76.7253
11
113.849
21
-77.4263
0
LINE
8
Black
10
113.849
20
-77.4263
11
113.907
21
-77.5663
0
LINE
8
Black
10
113.907
20
-77.5663
11
113.978
21
-77.6379
0
LINE
8
Black
10
113.978
20
-77.6379
11
112.766
21
-78.8497
0
LINE
8
Black
10
112.766
20
-78.8497
11
112.677
21
-78.9829
0
LINE
8
Black
10
112.677
20
-78.9829
11
112.571
21
-79.0897
0
LINE
8
Black
10
112.571
20
-79.0897
11
112.571
21
-79.4503
0
LINE
8
Black
10
112.571
20
-79.4503
11
112.554
21
-79.4901
0
LINE
8
Black
10
112.554
20
-79.4901
11
112.554
21
-79.6417
0
LINE
8
Black
10
112.554
20
-79.6417
11
112.554
21
-80.3479
0
LINE
8
Black
10
112.554
20
-80.3479
11
112.397
21
-80.3479
0
LINE
8
Black
10
112.397
20
-80.3479
11
112.397
21
-79.4901
0
LINE
8
Black
10
112.397
20
-79.4901
11
112.38
21
-79.4503
0
LINE
8
Black
10
112.38
20
-79.4503
11
112.38
21
-79.0897
0
LINE
8
Black
10
112.38
20
-79.0897
11
112.221
21
-78.9309
0
LINE
8
Black
10
112.221
20
-78.9309
11
112.159
21
-78.9309
0
LINE
8
Black
10
112.159
20
-78.9309
11
111.925
21
-79.0276
0
LINE
8
Black
10
111.925
20
-79.0276
11
111.768
21
-79.1849
0
LINE
8
Black
10
111.768
20
-79.1849
11
111.683
21
-79.1849
0
LINE
8
Black
10
111.683
20
-79.1849
11
111.683
21
-77.2064
0
LINE
8
Black
10
111.683
20
-77.2064
11
111.708
21
-77.2064
0
LINE
8
Black
10
111.708
20
-77.2064
11
112.012
21
-77.081
0
LINE
8
Black
10
112.012
20
-77.081
11
112.244
21
-76.849
0
LINE
8
Black
10
112.244
20
-76.849
11
112.37
21
-76.5457
0
LINE
8
Black
10
112.37
20
-76.5457
11
112.37
21
-76.2173
0
LINE
8
Black
10
112.37
20
-76.2173
11
112.271
21
-75.9779
0
LINE
8
Black
10
112.271
20
-75.9779
11
114.389
21
-75.9779
0
LINE
8
Black
10
114.389
20
-75.9779
11
114.679
21
-76.2685
0
LINE
8
Black
10
114.679
20
-76.2685
11
114.154
21
-76.2685
0
LINE
8
Black
10
114.154
20
-76.2685
11
114.014
21
-76.3265
0
LINE
8
Black
10
114.014
20
-76.3265
11
113.907
21
-76.4337
0
LINE
8
Black
10
113.907
20
-76.4337
11
113.849
21
-76.5737
0
LINE
8
Black
10
113.849
20
-76.5737
11
113.849
21
-76.7253
0
LINE
8
Black
10
113.849
20
-76.7253
11
113.849
21
-77.4263
0
LINE
8
Black
10
113.849
20
-77.4263
11
113.907
21
-77.5663
0
LINE
8
Black
10
113.907
20
-77.5663
11
113.978
21
-77.6379
0
LINE
8
Black
10
113.978
20
-77.6379
11
112.766
21
-78.8497
0
LINE
8
Black
10
112.766
20
-78.8497
11
112.677
21
-78.9829
0
LINE
8
Black
10
112.677
20
-78.9829
11
112.571
21
-79.0897
0
LINE
8
Black
10
112.571
20
-79.0897
11
112.571
21
-79.4503
0
LINE
8
Black
10
112.571
20
-79.4503
11
112.554
21
-79.4901
0
LINE
8
Black
10
112.554
20
-79.4901
11
112.554
21
-79.6417
0
LINE
8
Black
10
112.554
20
-79.6417
11
112.554
21
-80.3479
0
LINE
8
Black
10
112.554
20
-80.3479
11
112.397
21
-80.3479
0
LINE
8
Black
10
112.397
20
-80.3479
11
112.397
21
-79.4901
0
LINE
8
Black
10
112.397
20
-79.4901
11
112.38
21
-79.4503
0
LINE
8
Black
10
112.38
20
-79.4503
11
112.38
21
-79.0897
0
LINE
8
Black
10
112.38
20
-79.0897
11
112.221
21
-78.9309
0
LINE
8
Black
10
112.221
20
-78.9309
11
112.159
21
-78.9309
0
LINE
8
Black
10
112.159
20
-78.9309
11
111.925
21
-79.0276
0
LINE
8
Black
10
111.925
20
-79.0276
11
111.768
21
-79.1849
0
LINE
8
Black
10
111.768
20
-79.1849
11
111.683
21
-79.1849
0
LINE
8
Black
10
111.683
20
-79.1849
11
111.683
21
-77.2064
0
LINE
8
Black
10
111.683
20
-77.2064
11
111.708
21
-77.2064
0
LINE
8
Black
10
111.708
20
-77.2064
11
112.012
21
-77.081
0
LINE
8
Black
10
112.012
20
-77.081
11
112.244
21
-76.849
0
LINE
8
Black
10
112.244
20
-76.849
11
112.37
21
-76.5457
0
LINE
8
Black
10
112.37
20
-76.5457
11
112.37
21
-76.2173
0
LINE
8
Black
10
112.37
20
-76.2173
11
112.271
21
-75.9779
0
LINE
8
Black
10
112.271
20
-75.9779
11
114.389
21
-75.9779
0
LINE
8
Black
10
114.389
20
-75.9779
11
114.679
21
-76.2685
0
LINE
8
Black
10
116.762
20
-90.1248
11
116.642
21
-90.0041
0
LINE
8
Black
10
116.642
20
-90.0041
11
116.642
21
-89.9205
0
LINE
8
Black
10
116.642
20
-89.9205
11
116.603
21
-89.7261
0
LINE
8
Black
10
116.603
20
-89.7261
11
116.493
21
-89.5613
0
LINE
8
Black
10
116.493
20
-89.5613
11
113.903
21
-86.9714
0
LINE
8
Black
10
113.903
20
-86.9714
11
113.903
21
-86.9421
0
LINE
8
Black
10
113.903
20
-86.9421
11
114.03
21
-87.0691
0
LINE
8
Black
10
114.03
20
-87.0691
11
114.093
21
-87.0691
0
LINE
8
Black
10
114.093
20
-87.0691
11
114.326
21
-86.9724
0
LINE
8
Black
10
114.326
20
-86.9724
11
114.505
21
-86.7938
0
LINE
8
Black
10
114.505
20
-86.7938
11
114.601
21
-86.5604
0
LINE
8
Black
10
114.601
20
-86.5604
11
114.601
21
-86.3078
0
LINE
8
Black
10
114.601
20
-86.3078
11
114.601
21
-86.0848
0
LINE
8
Black
10
114.601
20
-86.0848
11
114.443
21
-85.9261
0
LINE
8
Black
10
114.443
20
-85.9261
11
113.871
21
-85.9261
0
LINE
8
Black
10
113.871
20
-85.9261
11
113.871
21
-85.9461
0
LINE
8
Black
10
113.871
20
-85.9461
11
113.812
21
-85.9461
0
LINE
8
Black
10
113.812
20
-85.9461
11
113.792
21
-85.9261
0
LINE
8
Black
10
113.792
20
-85.9261
11
113.681
21
-85.9261
0
LINE
8
Black
10
113.681
20
-85.9261
11
113.221
21
-85.9261
0
LINE
8
Black
10
113.221
20
-85.9261
11
113.142
21
-85.9261
0
LINE
8
Black
10
113.142
20
-85.9261
11
113.109
21
-85.9261
0
LINE
8
Black
10
113.109
20
-85.9261
11
113.03
21
-85.9261
0
LINE
8
Black
10
113.03
20
-85.9261
11
112.979
21
-85.9261
0
LINE
8
Black
10
112.979
20
-85.9261
11
112.979
21
-85.6721
0
LINE
8
Black
10
112.979
20
-85.6721
11
113.03
21
-85.6721
0
LINE
8
Black
10
113.03
20
-85.6721
11
113.109
21
-85.6721
0
LINE
8
Black
10
113.109
20
-85.6721
11
113.142
21
-85.6721
0
LINE
8
Black
10
113.142
20
-85.6721
11
113.221
21
-85.6721
0
LINE
8
Black
10
113.221
20
-85.6721
11
113.681
21
-85.6721
0
LINE
8
Black
10
113.681
20
-85.6721
11
113.792
21
-85.6721
0
LINE
8
Black
10
113.792
20
-85.6721
11
113.871
21
-85.5933
0
LINE
8
Black
10
113.871
20
-85.5933
11
113.871
21
-85.6721
0
LINE
8
Black
10
113.871
20
-85.6721
11
114.443
21
-85.6721
0
LINE
8
Black
10
114.443
20
-85.6721
11
114.601
21
-85.5133
0
LINE
8
Black
10
114.601
20
-85.5133
11
114.601
21
-85.2904
0
LINE
8
Black
10
114.601
20
-85.2904
11
114.601
21
-85.0378
0
LINE
8
Black
10
114.601
20
-85.0378
11
114.505
21
-84.8044
0
LINE
8
Black
10
114.505
20
-84.8044
11
114.326
21
-84.6258
0
LINE
8
Black
10
114.326
20
-84.6258
11
114.093
21
-84.5291
0
LINE
8
Black
10
114.093
20
-84.5291
11
114.03
21
-84.5291
0
LINE
8
Black
10
114.03
20
-84.5291
11
113.871
21
-84.6878
0
LINE
8
Black
10
113.871
20
-84.6878
11
113.871
21
-84.8446
0
LINE
8
Black
10
113.871
20
-84.8446
11
113.854
21
-84.8044
0
LINE
8
Black
10
113.854
20
-84.8044
11
113.676
21
-84.6258
0
LINE
8
Black
10
113.676
20
-84.6258
11
113.578
21
-84.5852
0
LINE
8
Black
10
113.578
20
-84.5852
11
113.522
21
-84.5291
0
LINE
8
Black
10
113.522
20
-84.5291
11
113.459
21
-84.5291
0
LINE
8
Black
10
113.459
20
-84.5291
11
113.451
21
-84.5325
0
LINE
8
Black
10
113.451
20
-84.5325
11
113.442
21
-84.5291
0
LINE
8
Black
10
113.442
20
-84.5291
11
113.38
21
-84.5291
0
LINE
8
Black
10
113.38
20
-84.5291
11
113.323
21
-84.5852
0
LINE
8
Black
10
113.323
20
-84.5852
11
113.226
21
-84.6258
0
LINE
8
Black
10
113.226
20
-84.6258
11
113.126
21
-84.7258
0
LINE
8
Black
10
113.126
20
-84.7258
11
113.026
21
-84.6258
0
LINE
8
Black
10
113.026
20
-84.6258
11
112.928
21
-84.5852
0
LINE
8
Black
10
112.928
20
-84.5852
11
112.872
21
-84.5291
0
LINE
8
Black
10
112.872
20
-84.5291
11
112.809
21
-84.5291
0
LINE
8
Black
10
112.809
20
-84.5291
11
112.8
21
-84.5325
0
LINE
8
Black
10
112.8
20
-84.5325
11
112.792
21
-84.5291
0
LINE
8
Black
10
112.792
20
-84.5291
11
112.729
21
-84.5291
0
LINE
8
Black
10
112.729
20
-84.5291
11
112.673
21
-84.5852
0
LINE
8
Black
10
112.673
20
-84.5852
11
112.575
21
-84.6258
0
LINE
8
Black
10
112.575
20
-84.6258
11
112.397
21
-84.8044
0
LINE
8
Black
10
112.397
20
-84.8044
11
112.38
21
-84.8446
0
LINE
8
Black
10
112.38
20
-84.8446
11
112.38
21
-84.6878
0
LINE
8
Black
10
112.38
20
-84.6878
11
112.221
21
-84.5291
0
LINE
8
Black
10
112.221
20
-84.5291
11
112.159
21
-84.5291
0
LINE
8
Black
10
112.159
20
-84.5291
11
111.925
21
-84.6258
0
LINE
8
Black
10
111.925
20
-84.6258
11
111.768
21
-84.7831
0
LINE
8
Black
10
111.768
20
-84.7831
11
111.559
21
-84.7831
0
LINE
8
Black
10
111.559
20
-84.7831
11
111.5
21
-84.8075
0
LINE
8
Black
10
111.5
20
-84.8075
11
111.441
21
-84.7831
0
LINE
8
Black
10
111.441
20
-84.7831
11
111.29
21
-84.7831
0
LINE
8
Black
10
111.29
20
-84.7831
11
110.909
21
-84.7831
0
LINE
8
Black
10
110.909
20
-84.7831
11
110.85
21
-84.8075
0
LINE
8
Black
10
110.85
20
-84.8075
11
110.791
21
-84.7831
0
LINE
8
Black
10
110.791
20
-84.7831
11
110.639
21
-84.7831
0
LINE
8
Black
10
110.639
20
-84.7831
11
110.582
21
-84.7831
0
LINE
8
Black
10
110.582
20
-84.7831
11
110.425
21
-84.6258
0
LINE
8
Black
10
110.425
20
-84.6258
11
110.191
21
-84.5291
0
LINE
8
Black
10
110.191
20
-84.5291
11
110.128
21
-84.5291
0
LINE
8
Black
10
110.128
20
-84.5291
11
109.97
21
-84.6878
0
LINE
8
Black
10
109.97
20
-84.6878
11
109.97
21
-85.0484
0
LINE
8
Black
10
109.97
20
-85.0484
11
109.953
21
-85.0883
0
LINE
8
Black
10
109.953
20
-85.0883
11
109.953
21
-85.2399
0
LINE
8
Black
10
109.953
20
-85.2399
11
109.953
21
-85.9461
0
LINE
8
Black
10
109.953
20
-85.9461
11
109.796
21
-85.9461
0
LINE
8
Black
10
109.796
20
-85.9461
11
109.796
21
-85.0883
0
LINE
8
Black
10
109.796
20
-85.0883
11
109.779
21
-85.0484
0
LINE
8
Black
10
109.779
20
-85.0484
11
109.779
21
-84.6878
0
LINE
8
Black
10
109.779
20
-84.6878
11
109.62
21
-84.5291
0
LINE
8
Black
10
109.62
20
-84.5291
11
109.558
21
-84.5291
0
LINE
8
Black
10
109.558
20
-84.5291
11
109.324
21
-84.6258
0
LINE
8
Black
10
109.324
20
-84.6258
11
109.167
21
-84.7831
0
LINE
8
Black
10
109.167
20
-84.7831
11
108.958
21
-84.7831
0
LINE
8
Black
10
108.958
20
-84.7831
11
108.818
21
-84.8411
0
LINE
8
Black
10
108.818
20
-84.8411
11
108.711
21
-84.9483
0
LINE
8
Black
10
108.711
20
-84.9483
11
108.653
21
-85.0883
0
LINE
8
Black
10
108.653
20
-85.0883
11
108.653
21
-85.2399
0
LINE
8
Black
10
108.653
20
-85.2399
11
108.653
21
-86.3358
0
LINE
8
Black
10
108.653
20
-86.3358
11
108.601
21
-86.3461
0
LINE
8
Black
10
108.601
20
-86.3461
11
108.436
21
-86.4562
0
LINE
8
Black
10
108.436
20
-86.4562
11
106.751
21
-88.1415
0
LINE
8
Black
10
106.751
20
-88.1415
11
106.641
21
-88.3063
0
LINE
8
Black
10
106.641
20
-88.3063
11
106.602
21
-88.5007
0
LINE
8
Black
10
106.602
20
-88.5007
11
106.602
21
-90.7162
0
LINE
8
Black
10
106.602
20
-90.7162
11
106.329
21
-90.829
0
LINE
8
Black
10
106.329
20
-90.829
11
105.95
21
-91.2069
0
LINE
8
Black
10
105.95
20
-91.2069
11
105.95
21
-90.9247
0
LINE
8
Black
10
105.95
20
-90.9247
11
105.892
21
-90.7847
0
LINE
8
Black
10
105.892
20
-90.7847
11
105.785
21
-90.6775
0
LINE
8
Black
10
105.785
20
-90.6775
11
105.645
21
-90.6195
0
LINE
8
Black
10
105.645
20
-90.6195
11
105.494
21
-90.6195
0
LINE
8
Black
10
105.494
20
-90.6195
11
105.129
21
-90.6195
0
LINE
8
Black
10
105.129
20
-90.6195
11
105.129
21
-90.5684
0
LINE
8
Black
10
105.129
20
-90.5684
11
105.086
21
-90.3546
0
LINE
8
Black
10
105.086
20
-90.3546
11
105.086
21
-90.3546
0
LINE
8
Black
10
105.086
20
-90.3546
11
105.059
21
-90.3135
0
LINE
8
Black
10
105.059
20
-90.3135
11
105.059
21
-90.3135
0
LINE
8
Black
10
105.059
20
-90.3135
11
105.059
21
-90.1383
0
LINE
8
Black
10
105.059
20
-90.1383
11
105.147
21
-90.1383
0
LINE
8
Black
10
105.147
20
-90.1383
11
105.287
21
-90.0803
0
LINE
8
Black
10
105.287
20
-90.0803
11
105.394
21
-89.9731
0
LINE
8
Black
10
105.394
20
-89.9731
11
105.453
21
-89.8331
0
LINE
8
Black
10
105.453
20
-89.8331
11
105.453
21
-89.6815
0
LINE
8
Black
10
105.453
20
-89.6815
11
105.453
21
-89.0254
0
LINE
8
Black
10
105.453
20
-89.0254
11
105.453
21
-89.0254
0
LINE
8
Black
10
105.453
20
-89.0254
11
105.629
21
-88.9075
0
LINE
8
Black
10
105.629
20
-88.9075
11
108.11
21
-86.4261
0
LINE
8
Black
10
108.11
20
-86.4261
11
108.11
21
-86.4261
0
LINE
8
Black
10
108.11
20
-86.4261
11
108.231
21
-86.2448
0
LINE
8
Black
10
108.231
20
-86.2448
11
108.231
21
-86.2448
0
LINE
8
Black
10
108.231
20
-86.2448
11
108.274
21
-86.031
0
LINE
8
Black
10
108.274
20
-86.031
11
108.274
21
-85.2779
0
LINE
8
Black
10
108.274
20
-85.2779
11
108.522
21
-85.0302
0
LINE
8
Black
10
108.522
20
-85.0302
11
108.667
21
-84.6802
0
LINE
8
Black
10
108.667
20
-84.6802
11
108.668
21
-84.4252
0
LINE
8
Black
10
108.668
20
-84.4252
11
109.619
21
-83.4735
0
LINE
8
Black
10
109.619
20
-83.4735
11
109.619
21
-83.4735
0
LINE
8
Black
10
109.619
20
-83.4735
11
109.74
21
-83.2922
0
LINE
8
Black
10
109.74
20
-83.2922
11
109.783
21
-83.0784
0
LINE
8
Black
10
109.783
20
-83.0784
11
109.783
21
-83.0784
0
LINE
8
Black
10
109.783
20
-83.0784
11
109.783
21
-81.2169
0
LINE
8
Black
10
109.783
20
-81.2169
11
109.817
21
-81.2169
0
LINE
8
Black
10
109.817
20
-81.2169
11
109.974
21
-81.3742
0
LINE
8
Black
10
109.974
20
-81.3742
11
110.208
21
-81.4709
0
LINE
8
Black
10
110.208
20
-81.4709
11
110.271
21
-81.4709
0
LINE
8
Black
10
110.271
20
-81.4709
11
110.429
21
-81.3122
0
LINE
8
Black
10
110.429
20
-81.3122
11
110.429
21
-80.9516
0
LINE
8
Black
10
110.429
20
-80.9516
11
110.446
21
-80.9117
0
LINE
8
Black
10
110.446
20
-80.9117
11
110.446
21
-80.7601
0
LINE
8
Black
10
110.446
20
-80.7601
11
110.446
21
-79.4901
0
LINE
8
Black
10
110.446
20
-79.4901
11
110.429
21
-79.4503
0
LINE
8
Black
10
110.429
20
-79.4503
11
110.429
21
-79.0897
0
LINE
8
Black
10
110.429
20
-79.0897
11
110.382
21
-79.0427
0
LINE
8
Black
10
110.382
20
-79.0427
11
110.382
21
-78.9631
0
LINE
8
Black
10
110.382
20
-78.9631
11
110.382
21
-78.9631
0
LINE
8
Black
10
110.382
20
-78.9631
11
110.469
21
-78.833
0
LINE
8
Black
10
110.469
20
-78.833
11
110.469
21
-78.833
0
LINE
8
Black
10
110.469
20
-78.833
11
110.476
21
-78.8008
0
LINE
8
Black
10
110.476
20
-78.8008
11
110.508
21
-78.6386
0
LINE
8
Black
10
110.508
20
-78.6386
11
110.508
21
-78.6386
0
LINE
8
Black
10
110.508
20
-78.6386
11
110.508
21
-78.6383
0
LINE
8
Black
10
110.508
20
-78.6383
11
110.647
21
-78.6383
0
LINE
8
Black
10
110.647
20
-78.6383
11
110.667
21
-78.6302
0
LINE
8
Black
10
110.667
20
-78.6302
11
110.667
21
-79.0427
0
LINE
8
Black
10
110.667
20
-79.0427
11
110.62
21
-79.0897
0
LINE
8
Black
10
110.62
20
-79.0897
11
110.62
21
-79.4503
0
LINE
8
Black
10
110.62
20
-79.4503
11
110.603
21
-79.4901
0
LINE
8
Black
10
110.603
20
-79.4901
11
110.603
21
-79.6417
0
LINE
8
Black
10
110.603
20
-79.6417
11
110.603
21
-80.9117
0
LINE
8
Black
10
110.603
20
-80.9117
11
110.62
21
-80.9516
0
LINE
8
Black
10
110.62
20
-80.9516
11
110.62
21
-81.3122
0
LINE
8
Black
10
110.62
20
-81.3122
11
110.779
21
-81.4709
0
LINE
8
Black
10
110.779
20
-81.4709
11
110.841
21
-81.4709
0
LINE
8
Black
10
110.841
20
-81.4709
11
111.075
21
-81.3742
0
LINE
8
Black
10
111.075
20
-81.3742
11
111.232
21
-81.2169
0
LINE
8
Black
10
111.232
20
-81.2169
11
111.317
21
-81.2169
0
LINE
8
Black
10
111.317
20
-81.2169
11
111.317
21
-81.3301
0
LINE
8
Black
10
111.317
20
-81.3301
11
111.356
21
-81.5245
0
LINE
8
Black
10
111.356
20
-81.5245
11
111.466
21
-81.6893
0
LINE
8
Black
10
111.466
20
-81.6893
11
116.762
21
-86.9854
0
LINE
8
Black
10
116.762
20
-86.9854
11
116.762
21
-90.1248
0
LINE
8
Black
10
116.762
20
-90.1248
11
116.642
21
-90.0041
0
LINE
8
Black
10
116.642
20
-90.0041
11
116.642
21
-89.9205
0
LINE
8
Black
10
116.642
20
-89.9205
11
116.603
21
-89.7261
0
LINE
8
Black
10
116.603
20
-89.7261
11
116.493
21
-89.5613
0
LINE
8
Black
10
116.493
20
-89.5613
11
113.903
21
-86.9714
0
LINE
8
Black
10
113.903
20
-86.9714
11
113.903
21
-86.9421
0
LINE
8
Black
10
113.903
20
-86.9421
11
114.03
21
-87.0691
0
LINE
8
Black
10
114.03
20
-87.0691
11
114.093
21
-87.0691
0
LINE
8
Black
10
114.093
20
-87.0691
11
114.326
21
-86.9724
0
LINE
8
Black
10
114.326
20
-86.9724
11
114.505
21
-86.7938
0
LINE
8
Black
10
114.505
20
-86.7938
11
114.601
21
-86.5604
0
LINE
8
Black
10
114.601
20
-86.5604
11
114.601
21
-86.3078
0
LINE
8
Black
10
114.601
20
-86.3078
11
114.601
21
-86.0848
0
LINE
8
Black
10
114.601
20
-86.0848
11
114.443
21
-85.9261
0
LINE
8
Black
10
114.443
20
-85.9261
11
113.871
21
-85.9261
0
LINE
8
Black
10
113.871
20
-85.9261
11
113.871
21
-85.9461
0
LINE
8
Black
10
113.871
20
-85.9461
11
113.812
21
-85.9461
0
LINE
8
Black
10
113.812
20
-85.9461
11
113.792
21
-85.9261
0
LINE
8
Black
10
113.792
20
-85.9261
11
113.681
21
-85.9261
0
LINE
8
Black
10
113.681
20
-85.9261
11
113.221
21
-85.9261
0
LINE
8
Black
10
113.221
20
-85.9261
11
113.142
21
-85.9261
0
LINE
8
Black
10
113.142
20
-85.9261
11
113.109
21
-85.9261
0
LINE
8
Black
10
113.109
20
-85.9261
11
113.03
21
-85.9261
0
LINE
8
Black
10
113.03
20
-85.9261
11
112.979
21
-85.9261
0
LINE
8
Black
10
112.979
20
-85.9261
11
112.979
21
-85.6721
0
LINE
8
Black
10
112.979
20
-85.6721
11
113.03
21
-85.6721
0
LINE
8
Black
10
113.03
20
-85.6721
11
113.109
21
-85.6721
0
LINE
8
Black
10
113.109
20
-85.6721
11
113.142
21
-85.6721
0
LINE
8
Black
10
113.142
20
-85.6721
11
113.221
21
-85.6721
0
LINE
8
Black
10
113.221
20
-85.6721
11
113.681
21
-85.6721
0
LINE
8
Black
10
113.681
20
-85.6721
11
113.792
21
-85.6721
0
LINE
8
Black
10
113.792
20
-85.6721
11
113.871
21
-85.5933
0
LINE
8
Black
10
113.871
20
-85.5933
11
113.871
21
-85.6721
0
LINE
8
Black
10
113.871
20
-85.6721
11
114.443
21
-85.6721
0
LINE
8
Black
10
114.443
20
-85.6721
11
114.601
21
-85.5133
0
LINE
8
Black
10
114.601
20
-85.5133
11
114.601
21
-85.2904
0
LINE
8
Black
10
114.601
20
-85.2904
11
114.601
21
-85.0378
0
LINE
8
Black
10
114.601
20
-85.0378
11
114.505
21
-84.8044
0
LINE
8
Black
10
114.505
20
-84.8044
11
114.326
21
-84.6258
0
LINE
8
Black
10
114.326
20
-84.6258
11
114.093
21
-84.5291
0
LINE
8
Black
10
114.093
20
-84.5291
11
114.03
21
-84.5291
0
LINE
8
Black
10
114.03
20
-84.5291
11
113.871
21
-84.6878
0
LINE
8
Black
10
113.871
20
-84.6878
11
113.871
21
-84.8446
0
LINE
8
Black
10
113.871
20
-84.8446
11
113.854
21
-84.8044
0
LINE
8
Black
10
113.854
20
-84.8044
11
113.676
21
-84.6258
0
LINE
8
Black
10
113.676
20
-84.6258
11
113.578
21
-84.5852
0
LINE
8
Black
10
113.578
20
-84.5852
11
113.522
21
-84.5291
0
LINE
8
Black
10
113.522
20
-84.5291
11
113.459
21
-84.5291
0
LINE
8
Black
10
113.459
20
-84.5291
11
113.451
21
-84.5325
0
LINE
8
Black
10
113.451
20
-84.5325
11
113.442
21
-84.5291
0
LINE
8
Black
10
113.442
20
-84.5291
11
113.38
21
-84.5291
0
LINE
8
Black
10
113.38
20
-84.5291
11
113.323
21
-84.5852
0
LINE
8
Black
10
113.323
20
-84.5852
11
113.226
21
-84.6258
0
LINE
8
Black
10
113.226
20
-84.6258
11
113.126
21
-84.7258
0
LINE
8
Black
10
113.126
20
-84.7258
11
113.026
21
-84.6258
0
LINE
8
Black
10
113.026
20
-84.6258
11
112.928
21
-84.5852
0
LINE
8
Black
10
112.928
20
-84.5852
11
112.872
21
-84.5291
0
LINE
8
Black
10
112.872
20
-84.5291
11
112.809
21
-84.5291
0
LINE
8
Black
10
112.809
20
-84.5291
11
112.8
21
-84.5325
0
LINE
8
Black
10
112.8
20
-84.5325
11
112.792
21
-84.5291
0
LINE
8
Black
10
112.792
20
-84.5291
11
112.729
21
-84.5291
0
LINE
8
Black
10
112.729
20
-84.5291
11
112.673
21
-84.5852
0
LINE
8
Black
10
112.673
20
-84.5852
11
112.575
21
-84.6258
0
LINE
8
Black
10
112.575
20
-84.6258
11
112.397
21
-84.8044
0
LINE
8
Black
10
112.397
20
-84.8044
11
112.38
21
-84.8446
0
LINE
8
Black
10
112.38
20
-84.8446
11
112.38
21
-84.6878
0
LINE
8
Black
10
112.38
20
-84.6878
11
112.221
21
-84.5291
0
LINE
8
Black
10
112.221
20
-84.5291
11
112.159
21
-84.5291
0
LINE
8
Black
10
112.159
20
-84.5291
11
111.925
21
-84.6258
0
LINE
8
Black
10
111.925
20
-84.6258
11
111.768
21
-84.7831
0
LINE
8
Black
10
111.768
20
-84.7831
11
111.559
21
-84.7831
0
LINE
8
Black
10
111.559
20
-84.7831
11
111.5
21
-84.8075
0
LINE
8
Black
10
111.5
20
-84.8075
11
111.441
21
-84.7831
0
LINE
8
Black
10
111.441
20
-84.7831
11
111.29
21
-84.7831
0
LINE
8
Black
10
111.29
20
-84.7831
11
110.909
21
-84.7831
0
LINE
8
Black
10
110.909
20
-84.7831
11
110.85
21
-84.8075
0
LINE
8
Black
10
110.85
20
-84.8075
11
110.791
21
-84.7831
0
LINE
8
Black
10
110.791
20
-84.7831
11
110.639
21
-84.7831
0
LINE
8
Black
10
110.639
20
-84.7831
11
110.582
21
-84.7831
0
LINE
8
Black
10
110.582
20
-84.7831
11
110.425
21
-84.6258
0
LINE
8
Black
10
110.425
20
-84.6258
11
110.191
21
-84.5291
0
LINE
8
Black
10
110.191
20
-84.5291
11
110.128
21
-84.5291
0
LINE
8
Black
10
110.128
20
-84.5291
11
109.97
21
-84.6878
0
LINE
8
Black
10
109.97
20
-84.6878
11
109.97
21
-85.0484
0
LINE
8
Black
10
109.97
20
-85.0484
11
109.953
21
-85.0883
0
LINE
8
Black
10
109.953
20
-85.0883
11
109.953
21
-85.2399
0
LINE
8
Black
10
109.953
20
-85.2399
11
109.953
21
-85.9461
0
LINE
8
Black
10
109.953
20
-85.9461
11
109.796
21
-85.9461
0
LINE
8
Black
10
109.796
20
-85.9461
11
109.796
21
-85.0883
0
LINE
8
Black
10
109.796
20
-85.0883
11
109.779
21
-85.0484
0
LINE
8
Black
10
109.779
20
-85.0484
11
109.779
21
-84.6878
0
LINE
8
Black
10
109.779
20
-84.6878
11
109.62
21
-84.5291
0
LINE
8
Black
10
109.62
20
-84.5291
11
109.558
21
-84.5291
0
LINE
8
Black
10
109.558
20
-84.5291
11
109.324
21
-84.6258
0
LINE
8
Black
10
109.324
20
-84.6258
11
109.167
21
-84.7831
0
LINE
8
Black
10
109.167
20
-84.7831
11
108.958
21
-84.7831
0
LINE
8
Black
10
108.958
20
-84.7831
11
108.818
21
-84.8411
0
LINE
8
Black
10
108.818
20
-84.8411
11
108.711
21
-84.9483
0
LINE
8
Black
10
108.711
20
-84.9483
11
108.653
21
-85.0883
0
LINE
8
Black
10
108.653
20
-85.0883
11
108.653
21
-85.2399
0
LINE
8
Black
10
108.653
20
-85.2399
11
108.653
21
-86.3358
0
LINE
8
Black
10
108.653
20
-86.3358
11
108.601
21
-86.3461
0
LINE
8
Black
10
108.601
20
-86.3461
11
108.436
21
-86.4562
0
LINE
8
Black
10
108.436
20
-86.4562
11
106.751
21
-88.1415
0
LINE
8
Black
10
106.751
20
-88.1415
11
106.641
21
-88.3063
0
LINE
8
Black
10
106.641
20
-88.3063
11
106.602
21
-88.5007
0
LINE
8
Black
10
106.602
20
-88.5007
11
106.602
21
-90.7162
0
LINE
8
Black
10
106.602
20
-90.7162
11
106.329
21
-90.829
0
LINE
8
Black
10
106.329
20
-90.829
11
105.95
21
-91.2069
0
LINE
8
Black
10
105.95
20
-91.2069
11
105.95
21
-90.9247
0
LINE
8
Black
10
105.95
20
-90.9247
11
105.892
21
-90.7847
0
LINE
8
Black
10
105.892
20
-90.7847
11
105.785
21
-90.6775
0
LINE
8
Black
10
105.785
20
-90.6775
11
105.645
21
-90.6195
0
LINE
8
Black
10
105.645
20
-90.6195
11
105.494
21
-90.6195
0
LINE
8
Black
10
105.494
20
-90.6195
11
105.129
21
-90.6195
0
LINE
8
Black
10
105.129
20
-90.6195
11
105.129
21
-90.5684
0
LINE
8
Black
10
105.129
20
-90.5684
11
105.086
21
-90.3546
0
LINE
8
Black
10
105.086
20
-90.3546
11
105.086
21
-90.3546
0
LINE
8
Black
10
105.086
20
-90.3546
11
105.059
21
-90.3135
0
LINE
8
Black
10
105.059
20
-90.3135
11
105.059
21
-90.3135
0
LINE
8
Black
10
105.059
20
-90.3135
11
105.059
21
-90.1383
0
LINE
8
Black
10
105.059
20
-90.1383
11
105.147
21
-90.1383
0
LINE
8
Black
10
105.147
20
-90.1383
11
105.287
21
-90.0803
0
LINE
8
Black
10
105.287
20
-90.0803
11
105.394
21
-89.9731
0
LINE
8
Black
10
105.394
20
-89.9731
11
105.453
21
-89.8331
0
LINE
8
Black
10
105.453
20
-89.8331
11
105.453
21
-89.6815
0
LINE
8
Black
10
105.453
20
-89.6815
11
105.453
21
-89.0254
0
LINE
8
Black
10
105.453
20
-89.0254
11
105.453
21
-89.0254
0
LINE
8
Black
10
105.453
20
-89.0254
11
105.629
21
-88.9075
0
LINE
8
Black
10
105.629
20
-88.9075
11
108.11
21
-86.4261
0
LINE
8
Black
10
108.11
20
-86.4261
11
108.11
21
-86.4261
0
LINE
8
Black
10
108.11
20
-86.4261
11
108.231
21
-86.2448
0
LINE
8
Black
10
108.231
20
-86.2448
11
108.231
21
-86.2448
0
LINE
8
Black
10
108.231
20
-86.2448
11
108.274
21
-86.031
0
LINE
8
Black
10
108.274
20
-86.031
11
108.274
21
-85.2779
0
LINE
8
Black
10
108.274
20
-85.2779
11
108.522
21
-85.0302
0
LINE
8
Black
10
108.522
20
-85.0302
11
108.667
21
-84.6802
0
LINE
8
Black
10
108.667
20
-84.6802
11
108.668
21
-84.4252
0
LINE
8
Black
10
108.668
20
-84.4252
11
109.619
21
-83.4735
0
LINE
8
Black
10
109.619
20
-83.4735
11
109.619
21
-83.4735
0
LINE
8
Black
10
109.619
20
-83.4735
11
109.74
21
-83.2922
0
LINE
8
Black
10
109.74
20
-83.2922
11
109.783
21
-83.0784
0
LINE
8
Black
10
109.783
20
-83.0784
11
109.783
21
-83.0784
0
LINE
8
Black
10
109.783
20
-83.0784
11
109.783
21
-81.2169
0
LINE
8
Black
10
109.783
20
-81.2169
11
109.817
21
-81.2169
0
LINE
8
Black
10
109.817
20
-81.2169
11
109.974
21
-81.3742
0
LINE
8
Black
10
109.974
20
-81.3742
11
110.208
21
-81.4709
0
LINE
8
Black
10
110.208
20
-81.4709
11
110.271
21
-81.4709
0
LINE
8
Black
10
110.271
20
-81.4709
11
110.429
21
-81.3122
0
LINE
8
Black
10
110.429
20
-81.3122
11
110.429
21
-80.9516
0
LINE
8
Black
10
110.429
20
-80.9516
11
110.446
21
-80.9117
0
LINE
8
Black
10
110.446
20
-80.9117
11
110.446
21
-80.7601
0
LINE
8
Black
10
110.446
20
-80.7601
11
110.446
21
-79.4901
0
LINE
8
Black
10
110.446
20
-79.4901
11
110.429
21
-79.4503
0
LINE
8
Black
10
110.429
20
-79.4503
11
110.429
21
-79.0897
0
LINE
8
Black
10
110.429
20
-79.0897
11
110.382
21
-79.0427
0
LINE
8
Black
10
110.382
20
-79.0427
11
110.382
21
-78.9631
0
LINE
8
Black
10
110.382
20
-78.9631
11
110.382
21
-78.9631
0
LINE
8
Black
10
110.382
20
-78.9631
11
110.469
21
-78.833
0
LINE
8
Black
10
110.469
20
-78.833
11
110.469
21
-78.833
0
LINE
8
Black
10
110.469
20
-78.833
11
110.476
21
-78.8008
0
LINE
8
Black
10
110.476
20
-78.8008
11
110.508
21
-78.6386
0
LINE
8
Black
10
110.508
20
-78.6386
11
110.508
21
-78.6386
0
LINE
8
Black
10
110.508
20
-78.6386
11
110.508
21
-78.6383
0
LINE
8
Black
10
110.508
20
-78.6383
11
110.647
21
-78.6383
0
LINE
8
Black
10
110.647
20
-78.6383
11
110.667
21
-78.6302
0
LINE
8
Black
10
110.667
20
-78.6302
11
110.667
21
-79.0427
0
LINE
8
Black
10
110.667
20
-79.0427
11
110.62
21
-79.0897
0
LINE
8
Black
10
110.62
20
-79.0897
11
110.62
21
-79.4503
0
LINE
8
Black
10
110.62
20
-79.4503
11
110.603
21
-79.4901
0
LINE
8
Black
10
110.603
20
-79.4901
11
110.603
21
-79.6417
0
LINE
8
Black
10
110.603
20
-79.6417
11
110.603
21
-80.9117
0
LINE
8
Black
10
110.603
20
-80.9117
11
110.62
21
-80.9516
0
LINE
8
Black
10
110.62
20
-80.9516
11
110.62
21
-81.3122
0
LINE
8
Black
10
110.62
20
-81.3122
11
110.779
21
-81.4709
0
LINE
8
Black
10
110.779
20
-81.4709
11
110.841
21
-81.4709
0
LINE
8
Black
10
110.841
20
-81.4709
11
111.075
21
-81.3742
0
LINE
8
Black
10
111.075
20
-81.3742
11
111.232
21
-81.2169
0
LINE
8
Black
10
111.232
20
-81.2169
11
111.317
21
-81.2169
0
LINE
8
Black
10
111.317
20
-81.2169
11
111.317
21
-81.3301
0
LINE
8
Black
10
111.317
20
-81.3301
11
111.356
21
-81.5245
0
LINE
8
Black
10
111.356
20
-81.5245
11
111.466
21
-81.6893
0
LINE
8
Black
10
111.466
20
-81.6893
11
116.762
21
-86.9854
0
LINE
8
Black
10
116.762
20
-86.9854
11
116.762
21
-90.1248
0
LINE
8
Black
10
121.69
20
-82.6441
11
121.606
21
-82.7287
0
LINE
8
Black
10
121.606
20
-82.7287
11
121.548
21
-82.8687
0
LINE
8
Black
10
121.548
20
-82.8687
11
121.548
21
-83.0203
0
LINE
8
Black
10
121.548
20
-83.0203
11
121.548
21
-83.6306
0
LINE
8
Black
10
121.548
20
-83.6306
11
120.59
21
-83.6306
0
LINE
8
Black
10
120.59
20
-83.6306
11
120.377
21
-83.6731
0
LINE
8
Black
10
120.377
20
-83.6731
11
120.195
21
-83.7943
0
LINE
8
Black
10
120.195
20
-83.7943
11
120.073
21
-83.9166
0
LINE
8
Black
10
120.073
20
-83.9166
11
119.952
21
-84.0979
0
LINE
8
Black
10
119.952
20
-84.0979
11
119.909
21
-84.3117
0
LINE
8
Black
10
119.909
20
-84.3117
11
119.909
21
-84.3628
0
LINE
8
Black
10
119.909
20
-84.3628
11
119.894
21
-84.3628
0
LINE
8
Black
10
119.894
20
-84.3628
11
119.595
21
-84.3628
0
LINE
8
Black
10
119.595
20
-84.3628
11
119.497
21
-84.4034
0
LINE
8
Black
10
119.497
20
-84.4034
11
119.398
21
-84.3628
0
LINE
8
Black
10
119.398
20
-84.3628
11
119.247
21
-84.3628
0
LINE
8
Black
10
119.247
20
-84.3628
11
119.033
21
-84.3628
0
LINE
8
Black
10
119.033
20
-84.3628
11
119.033
21
-84.3625
0
LINE
8
Black
10
119.033
20
-84.3625
11
119.001
21
-84.2003
0
LINE
8
Black
10
119.001
20
-84.2003
11
118.994
21
-84.1681
0
LINE
8
Black
10
118.994
20
-84.1681
11
118.994
21
-84.1681
0
LINE
8
Black
10
118.994
20
-84.1681
11
118.884
21
-84.0033
0
LINE
8
Black
10
118.884
20
-84.0033
11
118.884
21
-84.0033
0
LINE
8
Black
10
118.884
20
-84.0033
11
118.66
21
-83.7794
0
LINE
8
Black
10
118.66
20
-83.7794
11
118.496
21
-83.6693
0
LINE
8
Black
10
118.496
20
-83.6693
11
118.301
21
-83.6306
0
LINE
8
Black
10
118.301
20
-83.6306
11
117.453
21
-83.6306
0
LINE
8
Black
10
117.453
20
-83.6306
11
117.453
21
-82.8687
0
LINE
8
Black
10
117.453
20
-82.8687
11
117.394
21
-82.7287
0
LINE
8
Black
10
117.394
20
-82.7287
11
117.31
21
-82.6441
0
LINE
8
Black
10
117.31
20
-82.6441
11
117.431
21
-82.5938
0
LINE
8
Black
10
117.431
20
-82.5938
11
117.61
21
-82.4152
0
LINE
8
Black
10
117.61
20
-82.4152
11
117.707
21
-82.1818
0
LINE
8
Black
10
117.707
20
-82.1818
11
117.707
21
-81.9349
0
LINE
8
Black
10
117.707
20
-81.9349
11
117.548
21
-81.7761
0
LINE
8
Black
10
117.548
20
-81.7761
11
117.572
21
-81.7761
0
LINE
8
Black
10
117.572
20
-81.7761
11
118.646
21
-82.8494
0
LINE
8
Black
10
118.646
20
-82.8494
11
118.81
21
-82.9595
0
LINE
8
Black
10
118.81
20
-82.9595
11
119.005
21
-82.9982
0
LINE
8
Black
10
119.005
20
-82.9982
11
119.958
21
-82.9982
0
LINE
8
Black
10
119.958
20
-82.9982
11
120.152
21
-82.9595
0
LINE
8
Black
10
120.152
20
-82.9595
11
120.317
21
-82.8494
0
LINE
8
Black
10
120.317
20
-82.8494
11
121.391
21
-81.7761
0
LINE
8
Black
10
121.391
20
-81.7761
11
121.452
21
-81.7761
0
LINE
8
Black
10
121.452
20
-81.7761
11
121.294
21
-81.9349
0
LINE
8
Black
10
121.294
20
-81.9349
11
121.294
21
-82.1818
0
LINE
8
Black
10
121.294
20
-82.1818
11
121.39
21
-82.4152
0
LINE
8
Black
10
121.39
20
-82.4152
11
121.569
21
-82.5938
0
LINE
8
Black
10
121.569
20
-82.5938
11
121.69
21
-82.6441
0
LINE
8
Black
10
121.69
20
-82.6441
11
121.606
21
-82.7287
0
LINE
8
Black
10
121.606
20
-82.7287
11
121.548
21
-82.8687
0
LINE
8
Black
10
121.548
20
-82.8687
11
121.548
21
-83.0203
0
LINE
8
Black
10
121.548
20
-83.0203
11
121.548
21
-83.6306
0
LINE
8
Black
10
121.548
20
-83.6306
11
120.59
21
-83.6306
0
LINE
8
Black
10
120.59
20
-83.6306
11
120.377
21
-83.6731
0
LINE
8
Black
10
120.377
20
-83.6731
11
120.195
21
-83.7943
0
LINE
8
Black
10
120.195
20
-83.7943
11
120.073
21
-83.9166
0
LINE
8
Black
10
120.073
20
-83.9166
11
119.952
21
-84.0979
0
LINE
8
Black
10
119.952
20
-84.0979
11
119.909
21
-84.3117
0
LINE
8
Black
10
119.909
20
-84.3117
11
119.909
21
-84.3628
0
LINE
8
Black
10
119.909
20
-84.3628
11
119.894
21
-84.3628
0
LINE
8
Black
10
119.894
20
-84.3628
11
119.595
21
-84.3628
0
LINE
8
Black
10
119.595
20
-84.3628
11
119.497
21
-84.4034
0
LINE
8
Black
10
119.497
20
-84.4034
11
119.398
21
-84.3628
0
LINE
8
Black
10
119.398
20
-84.3628
11
119.247
21
-84.3628
0
LINE
8
Black
10
119.247
20
-84.3628
11
119.033
21
-84.3628
0
LINE
8
Black
10
119.033
20
-84.3628
11
119.033
21
-84.3625
0
LINE
8
Black
10
119.033
20
-84.3625
11
119.001
21
-84.2003
0
LINE
8
Black
10
119.001
20
-84.2003
11
118.994
21
-84.1681
0
LINE
8
Black
10
118.994
20
-84.1681
11
118.994
21
-84.1681
0
LINE
8
Black
10
118.994
20
-84.1681
11
118.884
21
-84.0033
0
LINE
8
Black
10
118.884
20
-84.0033
11
118.884
21
-84.0033
0
LINE
8
Black
10
118.884
20
-84.0033
11
118.66
21
-83.7794
0
LINE
8
Black
10
118.66
20
-83.7794
11
118.496
21
-83.6693
0
LINE
8
Black
10
118.496
20
-83.6693
11
118.301
21
-83.6306
0
LINE
8
Black
10
118.301
20
-83.6306
11
117.453
21
-83.6306
0
LINE
8
Black
10
117.453
20
-83.6306
11
117.453
21
-82.8687
0
LINE
8
Black
10
117.453
20
-82.8687
11
117.394
21
-82.7287
0
LINE
8
Black
10
117.394
20
-82.7287
11
117.31
21
-82.6441
0
LINE
8
Black
10
117.31
20
-82.6441
11
117.431
21
-82.5938
0
LINE
8
Black
10
117.431
20
-82.5938
11
117.61
21
-82.4152
0
LINE
8
Black
10
117.61
20
-82.4152
11
117.707
21
-82.1818
0
LINE
8
Black
10
117.707
20
-82.1818
11
117.707
21
-81.9349
0
LINE
8
Black
10
117.707
20
-81.9349
11
117.548
21
-81.7761
0
LINE
8
Black
10
117.548
20
-81.7761
11
117.572
21
-81.7761
0
LINE
8
Black
10
117.572
20
-81.7761
11
118.646
21
-82.8494
0
LINE
8
Black
10
118.646
20
-82.8494
11
118.81
21
-82.9595
0
LINE
8
Black
10
118.81
20
-82.9595
11
119.005
21
-82.9982
0
LINE
8
Black
10
119.005
20
-82.9982
11
119.958
21
-82.9982
0
LINE
8
Black
10
119.958
20
-82.9982
11
120.152
21
-82.9595
0
LINE
8
Black
10
120.152
20
-82.9595
11
120.317
21
-82.8494
0
LINE
8
Black
10
120.317
20
-82.8494
11
121.391
21
-81.7761
0
LINE
8
Black
10
121.391
20
-81.7761
11
121.452
21
-81.7761
0
LINE
8
Black
10
121.452
20
-81.7761
11
121.294
21
-81.9349
0
LINE
8
Black
10
121.294
20
-81.9349
11
121.294
21
-82.1818
0
LINE
8
Black
10
121.294
20
-82.1818
11
121.39
21
-82.4152
0
LINE
8
Black
10
121.39
20
-82.4152
11
121.569
21
-82.5938
0
LINE
8
Black
10
121.569
20
-82.5938
11
121.69
21
-82.6441
0
LINE
8
Black
10
124.956
20
-82.4365
11
124.947
21
-82.4836
0
LINE
8
Black
10
124.947
20
-82.4836
11
123.812
21
-82.4836
0
LINE
8
Black
10
123.812
20
-82.4836
11
123.598
21
-82.5261
0
LINE
8
Black
10
123.598
20
-82.5261
11
123.417
21
-82.6473
0
LINE
8
Black
10
123.417
20
-82.6473
11
123.365
21
-82.6992
0
LINE
8
Black
10
123.365
20
-82.6992
11
123.31
21
-82.6441
0
LINE
8
Black
10
123.31
20
-82.6441
11
123.431
21
-82.5938
0
LINE
8
Black
10
123.431
20
-82.5938
11
123.61
21
-82.4152
0
LINE
8
Black
10
123.61
20
-82.4152
11
123.707
21
-82.1818
0
LINE
8
Black
10
123.707
20
-82.1818
11
123.707
21
-81.9349
0
LINE
8
Black
10
123.707
20
-81.9349
11
123.548
21
-81.7761
0
LINE
8
Black
10
123.548
20
-81.7761
11
122.627
21
-81.7761
0
LINE
8
Black
10
122.627
20
-81.7761
11
122.627
21
-81.7961
0
LINE
8
Black
10
122.627
20
-81.7961
11
122.373
21
-81.7961
0
LINE
8
Black
10
122.373
20
-81.7961
11
122.373
21
-81.7761
0
LINE
8
Black
10
122.373
20
-81.7761
11
122.353
21
-81.7761
0
LINE
8
Black
10
122.353
20
-81.7761
11
122.353
21
-81.5221
0
LINE
8
Black
10
122.353
20
-81.5221
11
122.373
21
-81.5221
0
LINE
8
Black
10
122.373
20
-81.5221
11
122.373
21
-81.5021
0
LINE
8
Black
10
122.373
20
-81.5021
11
122.627
21
-81.5021
0
LINE
8
Black
10
122.627
20
-81.5021
11
122.627
21
-81.5221
0
LINE
8
Black
10
122.627
20
-81.5221
11
123.548
21
-81.5221
0
LINE
8
Black
10
123.548
20
-81.5221
11
123.625
21
-81.4451
0
LINE
8
Black
10
123.625
20
-81.4451
11
124.188
21
-82.0083
0
LINE
8
Black
10
124.188
20
-82.0083
11
124.353
21
-82.1184
0
LINE
8
Black
10
124.353
20
-82.1184
11
124.547
21
-82.1571
0
LINE
8
Black
10
124.547
20
-82.1571
11
124.558
21
-82.1571
0
LINE
8
Black
10
124.558
20
-82.1571
11
124.606
21
-82.2713
0
LINE
8
Black
10
124.606
20
-82.2713
11
124.713
21
-82.3785
0
LINE
8
Black
10
124.713
20
-82.3785
11
124.853
21
-82.4365
0
LINE
8
Black
10
124.853
20
-82.4365
11
124.956
21
-82.4365
0
LINE
8
Black
10
124.956
20
-82.4365
11
124.947
21
-82.4836
0
LINE
8
Black
10
124.947
20
-82.4836
11
123.812
21
-82.4836
0
LINE
8
Black
10
123.812
20
-82.4836
11
123.598
21
-82.5261
0
LINE
8
Black
10
123.598
20
-82.5261
11
123.417
21
-82.6473
0
LINE
8
Black
10
123.417
20
-82.6473
11
123.365
21
-82.6992
0
LINE
8
Black
10
123.365
20
-82.6992
11
123.31
21
-82.6441
0
LINE
8
Black
10
123.31
20
-82.6441
11
123.431
21
-82.5938
0
LINE
8
Black
10
123.431
20
-82.5938
11
123.61
21
-82.4152
0
LINE
8
Black
10
123.61
20
-82.4152
11
123.707
21
-82.1818
0
LINE
8
Black
10
123.707
20
-82.1818
11
123.707
21
-81.9349
0
LINE
8
Black
10
123.707
20
-81.9349
11
123.548
21
-81.7761
0
LINE
8
Black
10
123.548
20
-81.7761
11
122.627
21
-81.7761
0
LINE
8
Black
10
122.627
20
-81.7761
11
122.627
21
-81.7961
0
LINE
8
Black
10
122.627
20
-81.7961
11
122.373
21
-81.7961
0
LINE
8
Black
10
122.373
20
-81.7961
11
122.373
21
-81.7761
0
LINE
8
Black
10
122.373
20
-81.7761
11
122.353
21
-81.7761
0
LINE
8
Black
10
122.353
20
-81.7761
11
122.353
21
-81.5221
0
LINE
8
Black
10
122.353
20
-81.5221
11
122.373
21
-81.5221
0
LINE
8
Black
10
122.373
20
-81.5221
11
122.373
21
-81.5021
0
LINE
8
Black
10
122.373
20
-81.5021
11
122.627
21
-81.5021
0
LINE
8
Black
10
122.627
20
-81.5021
11
122.627
21
-81.5221
0
LINE
8
Black
10
122.627
20
-81.5221
11
123.548
21
-81.5221
0
LINE
8
Black
10
123.548
20
-81.5221
11
123.625
21
-81.4451
0
LINE
8
Black
10
123.625
20
-81.4451
11
124.188
21
-82.0083
0
LINE
8
Black
10
124.188
20
-82.0083
11
124.353
21
-82.1184
0
LINE
8
Black
10
124.353
20
-82.1184
11
124.547
21
-82.1571
0
LINE
8
Black
10
124.547
20
-82.1571
11
124.558
21
-82.1571
0
LINE
8
Black
10
124.558
20
-82.1571
11
124.606
21
-82.2713
0
LINE
8
Black
10
124.606
20
-82.2713
11
124.713
21
-82.3785
0
LINE
8
Black
10
124.713
20
-82.3785
11
124.853
21
-82.4365
0
LINE
8
Black
10
124.853
20
-82.4365
11
124.956
21
-82.4365
0
LINE
8
Black
10
125.592
20
-80.8617
11
124.853
21
-80.8617
0
LINE
8
Black
10
124.853
20
-80.8617
11
124.713
21
-80.9197
0
LINE
8
Black
10
124.713
20
-80.9197
11
124.624
21
-81.0079
0
LINE
8
Black
10
124.624
20
-81.0079
11
123.452
21
-79.8351
0
LINE
8
Black
10
123.452
20
-79.8351
11
123.453
21
-79.8331
0
LINE
8
Black
10
123.453
20
-79.8331
11
123.453
21
-79.6815
0
LINE
8
Black
10
123.453
20
-79.6815
11
123.453
21
-78.8687
0
LINE
8
Black
10
123.453
20
-78.8687
11
123.394
21
-78.7287
0
LINE
8
Black
10
123.394
20
-78.7287
11
123.287
21
-78.6215
0
LINE
8
Black
10
123.287
20
-78.6215
11
123.147
21
-78.5635
0
LINE
8
Black
10
123.147
20
-78.5635
11
122.996
21
-78.5635
0
LINE
8
Black
10
122.996
20
-78.5635
11
121.853
21
-78.5635
0
LINE
8
Black
10
121.853
20
-78.5635
11
121.713
21
-78.6215
0
LINE
8
Black
10
121.713
20
-78.6215
11
121.606
21
-78.7287
0
LINE
8
Black
10
121.606
20
-78.7287
11
121.548
21
-78.8687
0
LINE
8
Black
10
121.548
20
-78.8687
11
121.548
21
-79.0203
0
LINE
8
Black
10
121.548
20
-79.0203
11
121.548
21
-79.8331
0
LINE
8
Black
10
121.548
20
-79.8331
11
121.606
21
-79.9731
0
LINE
8
Black
10
121.606
20
-79.9731
11
121.681
21
-80.0487
0
LINE
8
Black
10
121.681
20
-80.0487
11
121.24
21
-80.4895
0
LINE
8
Black
10
121.24
20
-80.4895
11
121.24
21
-80.3299
0
LINE
8
Black
10
121.24
20
-80.3299
11
121.24
21
-80.0918
0
LINE
8
Black
10
121.24
20
-80.0918
11
121.082
21
-79.933
0
LINE
8
Black
10
121.082
20
-79.933
11
120.53
21
-79.933
0
LINE
8
Black
10
120.53
20
-79.933
11
120.53
21
-80.9325
0
LINE
8
Black
10
120.53
20
-80.9325
11
120.664
21
-81.066
0
LINE
8
Black
10
120.664
20
-81.066
11
119.748
21
-81.9822
0
LINE
8
Black
10
119.748
20
-81.9822
11
119.215
21
-81.9822
0
LINE
8
Black
10
119.215
20
-81.9822
11
118.579
21
-81.3455
0
LINE
8
Black
10
118.579
20
-81.3455
11
119.033
21
-81.3455
0
LINE
8
Black
10
119.033
20
-81.3455
11
119.227
21
-81.3068
0
LINE
8
Black
10
119.227
20
-81.3068
11
119.392
21
-81.1967
0
LINE
8
Black
10
119.392
20
-81.1967
11
119.519
21
-81.0695
0
LINE
8
Black
10
119.519
20
-81.0695
11
119.629
21
-80.9046
0
LINE
8
Black
10
119.629
20
-80.9046
11
119.643
21
-80.8372
0
LINE
8
Black
10
119.643
20
-80.8372
11
119.746
21
-80.8372
0
LINE
8
Black
10
119.746
20
-80.8372
11
119.789
21
-80.8372
0
LINE
8
Black
10
119.789
20
-80.8372
11
119.946
21
-80.9946
0
LINE
8
Black
10
119.946
20
-80.9946
11
120.179
21
-81.0912
0
LINE
8
Black
10
120.179
20
-81.0912
11
120.222
21
-81.0912
0
LINE
8
Black
10
120.222
20
-81.0912
11
120.38
21
-80.9325
0
LINE
8
Black
10
120.38
20
-80.9325
11
120.38
21
-79.933
0
LINE
8
Black
10
120.38
20
-79.933
11
120.351
21
-79.933
0
LINE
8
Black
10
120.351
20
-79.933
11
120.351
21
-79.679
0
LINE
8
Black
10
120.351
20
-79.679
11
120.38
21
-79.679
0
LINE
8
Black
10
120.38
20
-79.679
11
120.38
21
-79.659
0
LINE
8
Black
10
120.38
20
-79.659
11
120.53
21
-79.659
0
LINE
8
Black
10
120.53
20
-79.659
11
120.53
21
-79.679
0
LINE
8
Black
10
120.53
20
-79.679
11
121.082
21
-79.679
0
LINE
8
Black
10
121.082
20
-79.679
11
121.24
21
-79.5203
0
LINE
8
Black
10
121.24
20
-79.5203
11
121.24
21
-79.2821
0
LINE
8
Black
10
121.24
20
-79.2821
11
121.24
21
-79.0295
0
LINE
8
Black
10
121.24
20
-79.0295
11
121.144
21
-78.7961
0
LINE
8
Black
10
121.144
20
-78.7961
11
120.965
21
-78.6174
0
LINE
8
Black
10
120.965
20
-78.6174
11
120.775
21
-78.5386
0
LINE
8
Black
10
120.775
20
-78.5386
11
121.156
21
-78.1571
0
LINE
8
Black
10
121.156
20
-78.1571
11
121.558
21
-78.1571
0
LINE
8
Black
10
121.558
20
-78.1571
11
121.606
21
-78.2713
0
LINE
8
Black
10
121.606
20
-78.2713
11
121.713
21
-78.3785
0
LINE
8
Black
10
121.713
20
-78.3785
11
121.853
21
-78.4365
0
LINE
8
Black
10
121.853
20
-78.4365
11
122.004
21
-78.4365
0
LINE
8
Black
10
122.004
20
-78.4365
11
123.147
21
-78.4365
0
LINE
8
Black
10
123.147
20
-78.4365
11
123.287
21
-78.3785
0
LINE
8
Black
10
123.287
20
-78.3785
11
123.394
21
-78.2713
0
LINE
8
Black
10
123.394
20
-78.2713
11
123.442
21
-78.1571
0
LINE
8
Black
10
123.442
20
-78.1571
11
124.558
21
-78.1571
0
LINE
8
Black
10
124.558
20
-78.1571
11
124.606
21
-78.2713
0
LINE
8
Black
10
124.606
20
-78.2713
11
124.713
21
-78.3785
0
LINE
8
Black
10
124.713
20
-78.3785
11
124.853
21
-78.4365
0
LINE
8
Black
10
124.853
20
-78.4365
11
124.956
21
-78.4365
0
LINE
8
Black
10
124.956
20
-78.4365
11
124.941
21
-78.5124
0
LINE
8
Black
10
124.941
20
-78.5124
11
124.941
21
-78.5635
0
LINE
8
Black
10
124.941
20
-78.5635
11
124.853
21
-78.5635
0
LINE
8
Black
10
124.853
20
-78.5635
11
124.713
21
-78.6215
0
LINE
8
Black
10
124.713
20
-78.6215
11
124.606
21
-78.7287
0
LINE
8
Black
10
124.606
20
-78.7287
11
124.548
21
-78.8687
0
LINE
8
Black
10
124.548
20
-78.8687
11
124.548
21
-79.0203
0
LINE
8
Black
10
124.548
20
-79.0203
11
124.548
21
-79.8331
0
LINE
8
Black
10
124.548
20
-79.8331
11
124.606
21
-79.9731
0
LINE
8
Black
10
124.606
20
-79.9731
11
124.713
21
-80.0803
0
LINE
8
Black
10
124.713
20
-80.0803
11
124.853
21
-80.1383
0
LINE
8
Black
10
124.853
20
-80.1383
11
124.941
21
-80.1383
0
LINE
8
Black
10
124.941
20
-80.1383
11
124.941
21
-80.1894
0
LINE
8
Black
10
124.941
20
-80.1894
11
124.984
21
-80.4032
0
LINE
8
Black
10
124.984
20
-80.4032
11
125.105
21
-80.5845
0
LINE
8
Black
10
125.105
20
-80.5845
11
125.286
21
-80.7057
0
LINE
8
Black
10
125.286
20
-80.7057
11
125.473
21
-80.7428
0
LINE
8
Black
10
125.473
20
-80.7428
11
125.592
21
-80.8617
0
LINE
8
Black
10
125.592
20
-80.8617
11
124.853
21
-80.8617
0
LINE
8
Black
10
124.853
20
-80.8617
11
124.713
21
-80.9197
0
LINE
8
Black
10
124.713
20
-80.9197
11
124.624
21
-81.0079
0
LINE
8
Black
10
124.624
20
-81.0079
11
123.452
21
-79.8351
0
LINE
8
Black
10
123.452
20
-79.8351
11
123.453
21
-79.8331
0
LINE
8
Black
10
123.453
20
-79.8331
11
123.453
21
-79.6815
0
LINE
8
Black
10
123.453
20
-79.6815
11
123.453
21
-78.8687
0
LINE
8
Black
10
123.453
20
-78.8687
11
123.394
21
-78.7287
0
LINE
8
Black
10
123.394
20
-78.7287
11
123.287
21
-78.6215
0
LINE
8
Black
10
123.287
20
-78.6215
11
123.147
21
-78.5635
0
LINE
8
Black
10
123.147
20
-78.5635
11
122.996
21
-78.5635
0
LINE
8
Black
10
122.996
20
-78.5635
11
121.853
21
-78.5635
0
LINE
8
Black
10
121.853
20
-78.5635
11
121.713
21
-78.6215
0
LINE
8
Black
10
121.713
20
-78.6215
11
121.606
21
-78.7287
0
LINE
8
Black
10
121.606
20
-78.7287
11
121.548
21
-78.8687
0
LINE
8
Black
10
121.548
20
-78.8687
11
121.548
21
-79.0203
0
LINE
8
Black
10
121.548
20
-79.0203
11
121.548
21
-79.8331
0
LINE
8
Black
10
121.548
20
-79.8331
11
121.606
21
-79.9731
0
LINE
8
Black
10
121.606
20
-79.9731
11
121.681
21
-80.0487
0
LINE
8
Black
10
121.681
20
-80.0487
11
121.24
21
-80.4895
0
LINE
8
Black
10
121.24
20
-80.4895
11
121.24
21
-80.3299
0
LINE
8
Black
10
121.24
20
-80.3299
11
121.24
21
-80.0918
0
LINE
8
Black
10
121.24
20
-80.0918
11
121.082
21
-79.933
0
LINE
8
Black
10
121.082
20
-79.933
11
120.53
21
-79.933
0
LINE
8
Black
10
120.53
20
-79.933
11
120.53
21
-80.9325
0
LINE
8
Black
10
120.53
20
-80.9325
11
120.664
21
-81.066
0
LINE
8
Black
10
120.664
20
-81.066
11
119.748
21
-81.9822
0
LINE
8
Black
10
119.748
20
-81.9822
11
119.215
21
-81.9822
0
LINE
8
Black
10
119.215
20
-81.9822
11
118.579
21
-81.3455
0
LINE
8
Black
10
118.579
20
-81.3455
11
119.033
21
-81.3455
0
LINE
8
Black
10
119.033
20
-81.3455
11
119.227
21
-81.3068
0
LINE
8
Black
10
119.227
20
-81.3068
11
119.392
21
-81.1967
0
LINE
8
Black
10
119.392
20
-81.1967
11
119.519
21
-81.0695
0
LINE
8
Black
10
119.519
20
-81.0695
11
119.629
21
-80.9046
0
LINE
8
Black
10
119.629
20
-80.9046
11
119.643
21
-80.8372
0
LINE
8
Black
10
119.643
20
-80.8372
11
119.746
21
-80.8372
0
LINE
8
Black
10
119.746
20
-80.8372
11
119.789
21
-80.8372
0
LINE
8
Black
10
119.789
20
-80.8372
11
119.946
21
-80.9946
0
LINE
8
Black
10
119.946
20
-80.9946
11
120.179
21
-81.0912
0
LINE
8
Black
10
120.179
20
-81.0912
11
120.222
21
-81.0912
0
LINE
8
Black
10
120.222
20
-81.0912
11
120.38
21
-80.9325
0
LINE
8
Black
10
120.38
20
-80.9325
11
120.38
21
-79.933
0
LINE
8
Black
10
120.38
20
-79.933
11
120.351
21
-79.933
0
LINE
8
Black
10
120.351
20
-79.933
11
120.351
21
-79.679
0
LINE
8
Black
10
120.351
20
-79.679
11
120.38
21
-79.679
0
LINE
8
Black
10
120.38
20
-79.679
11
120.38
21
-79.659
0
LINE
8
Black
10
120.38
20
-79.659
11
120.53
21
-79.659
0
LINE
8
Black
10
120.53
20
-79.659
11
120.53
21
-79.679
0
LINE
8
Black
10
120.53
20
-79.679
11
121.082
21
-79.679
0
LINE
8
Black
10
121.082
20
-79.679
11
121.24
21
-79.5203
0
LINE
8
Black
10
121.24
20
-79.5203
11
121.24
21
-79.2821
0
LINE
8
Black
10
121.24
20
-79.2821
11
121.24
21
-79.0295
0
LINE
8
Black
10
121.24
20
-79.0295
11
121.144
21
-78.7961
0
LINE
8
Black
10
121.144
20
-78.7961
11
120.965
21
-78.6174
0
LINE
8
Black
10
120.965
20
-78.6174
11
120.775
21
-78.5386
0
LINE
8
Black
10
120.775
20
-78.5386
11
121.156
21
-78.1571
0
LINE
8
Black
10
121.156
20
-78.1571
11
121.558
21
-78.1571
0
LINE
8
Black
10
121.558
20
-78.1571
11
121.606
21
-78.2713
0
LINE
8
Black
10
121.606
20
-78.2713
11
121.713
21
-78.3785
0
LINE
8
Black
10
121.713
20
-78.3785
11
121.853
21
-78.4365
0
LINE
8
Black
10
121.853
20
-78.4365
11
122.004
21
-78.4365
0
LINE
8
Black
10
122.004
20
-78.4365
11
123.147
21
-78.4365
0
LINE
8
Black
10
123.147
20
-78.4365
11
123.287
21
-78.3785
0
LINE
8
Black
10
123.287
20
-78.3785
11
123.394
21
-78.2713
0
LINE
8
Black
10
123.394
20
-78.2713
11
123.442
21
-78.1571
0
LINE
8
Black
10
123.442
20
-78.1571
11
124.558
21
-78.1571
0
LINE
8
Black
10
124.558
20
-78.1571
11
124.606
21
-78.2713
0
LINE
8
Black
10
124.606
20
-78.2713
11
124.713
21
-78.3785
0
LINE
8
Black
10
124.713
20
-78.3785
11
124.853
21
-78.4365
0
LINE
8
Black
10
124.853
20
-78.4365
11
124.956
21
-78.4365
0
LINE
8
Black
10
124.956
20
-78.4365
11
124.941
21
-78.5124
0
LINE
8
Black
10
124.941
20
-78.5124
11
124.941
21
-78.5635
0
LINE
8
Black
10
124.941
20
-78.5635
11
124.853
21
-78.5635
0
LINE
8
Black
10
124.853
20
-78.5635
11
124.713
21
-78.6215
0
LINE
8
Black
10
124.713
20
-78.6215
11
124.606
21
-78.7287
0
LINE
8
Black
10
124.606
20
-78.7287
11
124.548
21
-78.8687
0
LINE
8
Black
10
124.548
20
-78.8687
11
124.548
21
-79.0203
0
LINE
8
Black
10
124.548
20
-79.0203
11
124.548
21
-79.8331
0
LINE
8
Black
10
124.548
20
-79.8331
11
124.606
21
-79.9731
0
LINE
8
Black
10
124.606
20
-79.9731
11
124.713
21
-80.0803
0
LINE
8
Black
10
124.713
20
-80.0803
11
124.853
21
-80.1383
0
LINE
8
Black
10
124.853
20
-80.1383
11
124.941
21
-80.1383
0
LINE
8
Black
10
124.941
20
-80.1383
11
124.941
21
-80.1894
0
LINE
8
Black
10
124.941
20
-80.1894
11
124.984
21
-80.4032
0
LINE
8
Black
10
124.984
20
-80.4032
11
125.105
21
-80.5845
0
LINE
8
Black
10
125.105
20
-80.5845
11
125.286
21
-80.7057
0
LINE
8
Black
10
125.286
20
-80.7057
11
125.473
21
-80.7428
0
LINE
8
Black
10
125.473
20
-80.7428
11
125.592
21
-80.8617
0
LINE
8
Black
10
132.873
20
-94.373
11
132.063
21
-94.373
0
LINE
8
Black
10
132.063
20
-94.373
11
132.063
21
-78.3011
0
LINE
8
Black
10
132.063
20
-78.3011
11
132.063
21
-76.9949
0
LINE
8
Black
10
132.063
20
-76.9949
11
132.02
21
-76.7811
0
LINE
8
Black
10
132.02
20
-76.7811
11
132.02
21
-76.7811
0
LINE
8
Black
10
132.02
20
-76.7811
11
131.899
21
-76.5998
0
LINE
8
Black
10
131.899
20
-76.5998
11
131.16
21
-75.8613
0
LINE
8
Black
10
131.16
20
-75.8613
11
130.979
21
-75.7401
0
LINE
8
Black
10
130.979
20
-75.7401
11
130.765
21
-75.6976
0
LINE
8
Black
10
130.765
20
-75.6976
11
119.399
21
-75.6976
0
LINE
8
Black
10
119.399
20
-75.6976
11
119.185
21
-75.7401
0
LINE
8
Black
10
119.185
20
-75.7401
11
119.004
21
-75.8613
0
LINE
8
Black
10
119.004
20
-75.8613
11
118.405
21
-76.4599
0
LINE
8
Black
10
118.405
20
-76.4599
11
118.405
21
-76.3333
0
LINE
8
Black
10
118.405
20
-76.3333
11
118.405
21
-75.7618
0
LINE
8
Black
10
118.405
20
-75.7618
11
118.405
21
-75.5707
0
LINE
8
Black
10
118.405
20
-75.5707
11
118.309
21
-75.3373
0
LINE
8
Black
10
118.309
20
-75.3373
11
118.13
21
-75.1587
0
LINE
8
Black
10
118.13
20
-75.1587
11
117.897
21
-75.062
0
LINE
8
Black
10
117.897
20
-75.062
11
117.644
21
-75.062
0
LINE
8
Black
10
117.644
20
-75.062
11
117.556
21
-75.062
0
LINE
8
Black
10
117.556
20
-75.062
11
117.397
21
-75.2207
0
LINE
8
Black
10
117.397
20
-75.2207
11
117.397
21
-75.9205
0
LINE
8
Black
10
117.397
20
-75.9205
11
118.247
21
-75.9205
0
LINE
8
Black
10
118.247
20
-75.9205
11
118.405
21
-75.7618
0
LINE
8
Black
10
118.405
20
-75.7618
11
118.405
21
-76.3333
0
LINE
8
Black
10
118.405
20
-76.3333
11
118.247
21
-76.1745
0
LINE
8
Black
10
118.247
20
-76.1745
11
117.397
21
-76.1745
0
LINE
8
Black
10
117.397
20
-76.1745
11
117.397
21
-76.1945
0
LINE
8
Black
10
117.397
20
-76.1945
11
117.143
21
-76.1945
0
LINE
8
Black
10
117.143
20
-76.1945
11
117.143
21
-76.1745
0
LINE
8
Black
10
117.143
20
-76.1745
11
117.143
21
-75.9205
0
LINE
8
Black
10
117.143
20
-75.9205
11
117.143
21
-75.2207
0
LINE
8
Black
10
117.143
20
-75.2207
11
116.984
21
-75.062
0
LINE
8
Black
10
116.984
20
-75.062
11
116.896
21
-75.062
0
LINE
8
Black
10
116.896
20
-75.062
11
116.643
21
-75.062
0
LINE
8
Black
10
116.643
20
-75.062
11
116.41
21
-75.1587
0
LINE
8
Black
10
116.41
20
-75.1587
11
116.231
21
-75.3373
0
LINE
8
Black
10
116.231
20
-75.3373
11
116.135
21
-75.5707
0
LINE
8
Black
10
116.135
20
-75.5707
11
116.135
21
-75.7618
0
LINE
8
Black
10
116.135
20
-75.7618
11
116.293
21
-75.9205
0
LINE
8
Black
10
116.293
20
-75.9205
11
117.143
21
-75.9205
0
LINE
8
Black
10
117.143
20
-75.9205
11
117.143
21
-76.1745
0
LINE
8
Black
10
117.143
20
-76.1745
11
116.293
21
-76.1745
0
LINE
8
Black
10
116.293
20
-76.1745
11
116.23
21
-76.2384
0
LINE
8
Black
10
116.23
20
-76.2384
11
115.015
21
-75.024
0
LINE
8
Black
10
115.015
20
-75.024
11
114.834
21
-74.9028
0
LINE
8
Black
10
114.834
20
-74.9028
11
114.62
21
-74.8603
0
LINE
8
Black
10
114.62
20
-74.8603
11
110.73
21
-74.8603
0
LINE
8
Black
10
110.73
20
-74.8603
11
110.516
21
-74.9028
0
LINE
8
Black
10
110.516
20
-74.9028
11
110.335
21
-75.024
0
LINE
8
Black
10
110.335
20
-75.024
11
109.997
21
-75.3617
0
LINE
8
Black
10
109.997
20
-75.3617
11
109.353
21
-75.3617
0
LINE
8
Black
10
109.353
20
-75.3617
11
109.213
21
-75.4197
0
LINE
8
Black
10
109.213
20
-75.4197
11
109.106
21
-75.5269
0
LINE
8
Black
10
109.106
20
-75.5269
11
109.048
21
-75.6669
0
LINE
8
Black
10
109.048
20
-75.6669
11
109.048
21
-75.8185
0
LINE
8
Black
10
109.048
20
-75.8185
11
109.048
21
-76.4746
0
LINE
8
Black
10
109.048
20
-76.4746
11
108.871
21
-76.5925
0
LINE
8
Black
10
108.871
20
-76.5925
11
108.601
21
-76.8625
0
LINE
8
Black
10
108.601
20
-76.8625
11
108.48
21
-77.0438
0
LINE
8
Black
10
108.48
20
-77.0438
11
108.438
21
-77.2576
0
LINE
8
Black
10
108.438
20
-77.2576
11
108.438
21
-78.9059
0
LINE
8
Black
10
108.438
20
-78.9059
11
108.48
21
-79.1197
0
LINE
8
Black
10
108.48
20
-79.1197
11
108.601
21
-79.301
0
LINE
8
Black
10
108.601
20
-79.301
11
108.665
21
-79.3653
0
LINE
8
Black
10
108.665
20
-79.3653
11
108.665
21
-79.4594
0
LINE
8
Black
10
108.665
20
-79.4594
11
108.653
21
-79.4901
0
LINE
8
Black
10
108.653
20
-79.4901
11
108.653
21
-79.6417
0
LINE
8
Black
10
108.653
20
-79.6417
11
108.653
21
-80.9117
0
LINE
8
Black
10
108.653
20
-80.9117
11
108.665
21
-80.9425
0
LINE
8
Black
10
108.665
20
-80.9425
11
108.665
21
-82.4506
0
LINE
8
Black
10
108.665
20
-82.4506
11
108.649
21
-82.4104
0
LINE
8
Black
10
108.649
20
-82.4104
11
108.381
21
-82.1422
0
LINE
8
Black
10
108.381
20
-82.1422
11
108.031
21
-81.9969
0
LINE
8
Black
10
108.031
20
-81.9969
11
107.652
21
-81.9965
0
LINE
8
Black
10
107.652
20
-81.9965
11
107.302
21
-82.1412
0
LINE
8
Black
10
107.302
20
-82.1412
11
107.052
21
-82.3904
0
LINE
8
Black
10
107.052
20
-82.3904
11
106.908
21
-82.3904
0
LINE
8
Black
10
106.908
20
-82.3904
11
106.694
21
-82.4329
0
LINE
8
Black
10
106.694
20
-82.4329
11
106.513
21
-82.5541
0
LINE
8
Black
10
106.513
20
-82.5541
11
102.739
21
-86.3273
0
LINE
8
Black
10
102.739
20
-86.3273
11
102.618
21
-86.5086
0
LINE
8
Black
10
102.618
20
-86.5086
11
102.576
21
-86.7224
0
LINE
8
Black
10
102.576
20
-86.7224
11
102.576
21
-93.1959
0
LINE
8
Black
10
102.576
20
-93.1959
11
102.618
21
-93.4097
0
LINE
8
Black
10
102.618
20
-93.4097
11
102.739
21
-93.591
0
LINE
8
Black
10
102.739
20
-93.591
11
102.975
21
-93.8268
0
LINE
8
Black
10
102.975
20
-93.8268
11
103.157
21
-93.948
0
LINE
8
Black
10
103.157
20
-93.948
11
103.157
21
-93.948
0
LINE
8
Black
10
103.157
20
-93.948
11
103.37
21
-93.9905
0
LINE
8
Black
10
103.37
20
-93.9905
11
107.918
21
-93.9905
0
LINE
8
Black
10
107.918
20
-93.9905
11
108.132
21
-93.948
0
LINE
8
Black
10
108.132
20
-93.948
11
108.132
21
-93.948
0
LINE
8
Black
10
108.132
20
-93.948
11
108.313
21
-93.8268
0
LINE
8
Black
10
108.313
20
-93.8268
11
108.94
21
-93.2
0
LINE
8
Black
10
108.94
20
-93.2
11
109.374
21
-93.3802
0
LINE
8
Black
10
109.374
20
-93.3802
11
109.923
21
-93.3807
0
LINE
8
Black
10
109.923
20
-93.3807
11
110.431
21
-93.171
0
LINE
8
Black
10
110.431
20
-93.171
11
110.82
21
-92.783
0
LINE
8
Black
10
110.82
20
-92.783
11
110.92
21
-92.5413
0
LINE
8
Black
10
110.92
20
-92.5413
11
111.019
21
-92.781
0
LINE
8
Black
10
111.019
20
-92.781
11
111.407
21
-93.1696
0
LINE
8
Black
10
111.407
20
-93.1696
11
111.914
21
-93.3802
0
LINE
8
Black
10
111.914
20
-93.3802
11
112.463
21
-93.3807
0
LINE
8
Black
10
112.463
20
-93.3807
11
112.971
21
-93.171
0
LINE
8
Black
10
112.971
20
-93.171
11
113.299
21
-92.8439
0
LINE
8
Black
10
113.299
20
-92.8439
11
113.311
21
-92.874
0
LINE
8
Black
10
113.311
20
-92.874
11
113.578
21
-92.9726
0
LINE
8
Black
10
113.578
20
-92.9726
11
114.55
21
-92
0
LINE
8
Black
10
114.55
20
-92
11
113.578
21
-91.0274
0
LINE
8
Black
10
113.578
20
-91.0274
11
113.311
21
-91.126
0
LINE
8
Black
10
113.311
20
-91.126
11
113.299
21
-91.1573
0
LINE
8
Black
10
113.299
20
-91.1573
11
112.973
21
-90.8304
0
LINE
8
Black
10
112.973
20
-90.8304
11
112.466
21
-90.6198
0
LINE
8
Black
10
112.466
20
-90.6198
11
111.917
21
-90.6193
0
LINE
8
Black
10
111.917
20
-90.6193
11
111.409
21
-90.829
0
LINE
8
Black
10
111.409
20
-90.829
11
111.02
21
-91.217
0
LINE
8
Black
10
111.02
20
-91.217
11
110.92
21
-91.4587
0
LINE
8
Black
10
110.92
20
-91.4587
11
110.821
21
-91.219
0
LINE
8
Black
10
110.821
20
-91.219
11
110.433
21
-90.8304
0
LINE
8
Black
10
110.433
20
-90.8304
11
110.059
21
-90.675
0
LINE
8
Black
10
110.059
20
-90.675
11
110.059
21
-90.1383
0
LINE
8
Black
10
110.059
20
-90.1383
11
110.147
21
-90.1383
0
LINE
8
Black
10
110.147
20
-90.1383
11
110.287
21
-90.0803
0
LINE
8
Black
10
110.287
20
-90.0803
11
110.394
21
-89.9731
0
LINE
8
Black
10
110.394
20
-89.9731
11
110.453
21
-89.8331
0
LINE
8
Black
10
110.453
20
-89.8331
11
110.453
21
-89.6815
0
LINE
8
Black
10
110.453
20
-89.6815
11
110.453
21
-88.8687
0
LINE
8
Black
10
110.453
20
-88.8687
11
110.394
21
-88.7287
0
LINE
8
Black
10
110.394
20
-88.7287
11
110.31
21
-88.6441
0
LINE
8
Black
10
110.31
20
-88.6441
11
110.431
21
-88.5938
0
LINE
8
Black
10
110.431
20
-88.5938
11
110.61
21
-88.4152
0
LINE
8
Black
10
110.61
20
-88.4152
11
110.707
21
-88.1818
0
LINE
8
Black
10
110.707
20
-88.1818
11
110.707
21
-87.9349
0
LINE
8
Black
10
110.707
20
-87.9349
11
110.548
21
-87.7761
0
LINE
8
Black
10
110.548
20
-87.7761
11
110.675
21
-87.7761
0
LINE
8
Black
10
110.675
20
-87.7761
11
112.95
21
-90.0517
0
LINE
8
Black
10
112.95
20
-90.0517
11
113.115
21
-90.1618
0
LINE
8
Black
10
113.115
20
-90.1618
11
113.115
21
-90.1618
0
LINE
8
Black
10
113.115
20
-90.1618
11
113.147
21
-90.1682
0
LINE
8
Black
10
113.147
20
-90.1682
11
113.31
21
-90.2005
0
LINE
8
Black
10
113.31
20
-90.2005
11
114.078
21
-90.2005
0
LINE
8
Black
10
114.078
20
-90.2005
11
114.269
21
-90.3919
0
LINE
8
Black
10
114.269
20
-90.3919
11
114.291
21
-90.4009
0
LINE
8
Black
10
114.291
20
-90.4009
11
113.856
21
-90.581
0
LINE
8
Black
10
113.856
20
-90.581
11
113.757
21
-90.8478
0
LINE
8
Black
10
113.757
20
-90.8478
11
114.73
21
-91.8204
0
LINE
8
Black
10
114.73
20
-91.8204
11
114.744
21
-91.8063
0
LINE
8
Black
10
114.744
20
-91.8063
11
114.924
21
-91.9859
0
LINE
8
Black
10
114.924
20
-91.9859
11
114.91
21
-92
0
LINE
8
Black
10
114.91
20
-92
11
115.882
21
-92.9726
0
LINE
8
Black
10
115.882
20
-92.9726
11
116.149
21
-92.874
0
LINE
8
Black
10
116.149
20
-92.874
11
116.161
21
-92.8427
0
LINE
8
Black
10
116.161
20
-92.8427
11
116.487
21
-93.1696
0
LINE
8
Black
10
116.487
20
-93.1696
11
116.994
21
-93.3802
0
LINE
8
Black
10
116.994
20
-93.3802
11
117.543
21
-93.3807
0
LINE
8
Black
10
117.543
20
-93.3807
11
118.051
21
-93.171
0
LINE
8
Black
10
118.051
20
-93.171
11
118.44
21
-92.783
0
LINE
8
Black
10
118.44
20
-92.783
11
118.54
21
-92.5413
0
LINE
8
Black
10
118.54
20
-92.5413
11
118.639
21
-92.781
0
LINE
8
Black
10
118.639
20
-92.781
11
119.027
21
-93.1696
0
LINE
8
Black
10
119.027
20
-93.1696
11
119.534
21
-93.3802
0
LINE
8
Black
10
119.534
20
-93.3802
11
120.083
21
-93.3807
0
LINE
8
Black
10
120.083
20
-93.3807
11
120.591
21
-93.171
0
LINE
8
Black
10
120.591
20
-93.171
11
120.919
21
-92.8439
0
LINE
8
Black
10
120.919
20
-92.8439
11
120.931
21
-92.874
0
LINE
8
Black
10
120.931
20
-92.874
11
121.198
21
-92.9726
0
LINE
8
Black
10
121.198
20
-92.9726
11
122.17
21
-92
0
LINE
8
Black
10
122.17
20
-92
11
121.198
21
-91.0274
0
LINE
8
Black
10
121.198
20
-91.0274
11
120.931
21
-91.126
0
LINE
8
Black
10
120.931
20
-91.126
11
120.919
21
-91.1573
0
LINE
8
Black
10
120.919
20
-91.1573
11
120.593
21
-90.8304
0
LINE
8
Black
10
120.593
20
-90.8304
11
120.086
21
-90.6198
0
LINE
8
Black
10
120.086
20
-90.6198
11
119.537
21
-90.6193
0
LINE
8
Black
10
119.537
20
-90.6193
11
119.029
21
-90.829
0
LINE
8
Black
10
119.029
20
-90.829
11
118.64
21
-91.217
0
LINE
8
Black
10
118.64
20
-91.217
11
118.54
21
-91.4587
0
LINE
8
Black
10
118.54
20
-91.4587
11
118.441
21
-91.219
0
LINE
8
Black
10
118.441
20
-91.219
11
118.053
21
-90.8304
0
LINE
8
Black
10
118.053
20
-90.8304
11
117.778
21
-90.7162
0
LINE
8
Black
10
117.778
20
-90.7162
11
117.778
21
-86.775
0
LINE
8
Black
10
117.778
20
-86.775
11
117.746
21
-86.6128
0
LINE
8
Black
10
117.746
20
-86.6128
11
117.739
21
-86.5806
0
LINE
8
Black
10
117.739
20
-86.5806
11
117.739
21
-86.5806
0
LINE
8
Black
10
117.739
20
-86.5806
11
117.629
21
-86.4158
0
LINE
8
Black
10
117.629
20
-86.4158
11
117.629
21
-86.4158
0
LINE
8
Black
10
117.629
20
-86.4158
11
112.602
21
-81.3889
0
LINE
8
Black
10
112.602
20
-81.3889
11
112.602
21
-81.3439
0
LINE
8
Black
10
112.602
20
-81.3439
11
112.729
21
-81.4709
0
LINE
8
Black
10
112.729
20
-81.4709
11
112.792
21
-81.4709
0
LINE
8
Black
10
112.792
20
-81.4709
11
112.909
21
-81.4227
0
LINE
8
Black
10
112.909
20
-81.4227
11
113.029
21
-81.543
0
LINE
8
Black
10
113.029
20
-81.543
11
113.101
21
-81.6512
0
LINE
8
Black
10
113.101
20
-81.6512
11
113.266
21
-81.7613
0
LINE
8
Black
10
113.266
20
-81.7613
11
113.46
21
-81.8
0
LINE
8
Black
10
113.46
20
-81.8
11
114.26
21
-81.8
0
LINE
8
Black
10
114.26
20
-81.8
11
114.455
21
-81.7613
0
LINE
8
Black
10
114.455
20
-81.7613
11
114.62
21
-81.6512
0
LINE
8
Black
10
114.62
20
-81.6512
11
114.938
21
-81.3325
0
LINE
8
Black
10
114.938
20
-81.3325
11
115.294
21
-81.3325
0
LINE
8
Black
10
115.294
20
-81.3325
11
115.294
21
-81.3634
0
LINE
8
Black
10
115.294
20
-81.3634
11
115.452
21
-81.5221
0
LINE
8
Black
10
115.452
20
-81.5221
11
116.373
21
-81.5221
0
LINE
8
Black
10
116.373
20
-81.5221
11
116.373
21
-81.5021
0
LINE
8
Black
10
116.373
20
-81.5021
11
116.627
21
-81.5021
0
LINE
8
Black
10
116.627
20
-81.5021
11
116.627
21
-81.5221
0
LINE
8
Black
10
116.627
20
-81.5221
11
116.647
21
-81.5221
0
LINE
8
Black
10
116.647
20
-81.5221
11
116.647
21
-81.7761
0
LINE
8
Black
10
116.647
20
-81.7761
11
116.627
21
-81.7761
0
LINE
8
Black
10
116.627
20
-81.7761
11
116.627
21
-81.7961
0
LINE
8
Black
10
116.627
20
-81.7961
11
116.373
21
-81.7961
0
LINE
8
Black
10
116.373
20
-81.7961
11
116.373
21
-81.7761
0
LINE
8
Black
10
116.373
20
-81.7761
11
115.452
21
-81.7761
0
LINE
8
Black
10
115.452
20
-81.7761
11
115.294
21
-81.9349
0
LINE
8
Black
10
115.294
20
-81.9349
11
115.294
21
-82.1818
0
LINE
8
Black
10
115.294
20
-82.1818
11
115.39
21
-82.4152
0
LINE
8
Black
10
115.39
20
-82.4152
11
115.569
21
-82.5938
0
LINE
8
Black
10
115.569
20
-82.5938
11
115.69
21
-82.6441
0
LINE
8
Black
10
115.69
20
-82.6441
11
115.606
21
-82.7287
0
LINE
8
Black
10
115.606
20
-82.7287
11
115.548
21
-82.8687
0
LINE
8
Black
10
115.548
20
-82.8687
11
115.548
21
-83.0203
0
LINE
8
Black
10
115.548
20
-83.0203
11
115.548
21
-83.8331
0
LINE
8
Black
10
115.548
20
-83.8331
11
115.606
21
-83.9731
0
LINE
8
Black
10
115.606
20
-83.9731
11
115.713
21
-84.0803
0
LINE
8
Black
10
115.713
20
-84.0803
11
115.853
21
-84.1383
0
LINE
8
Black
10
115.853
20
-84.1383
11
115.992
21
-84.1383
0
LINE
8
Black
10
115.992
20
-84.1383
11
115.992
21
-84.1386
0
LINE
8
Black
10
115.992
20
-84.1386
11
116.031
21
-84.333
0
LINE
8
Black
10
116.031
20
-84.333
11
116.141
21
-84.4978
0
LINE
8
Black
10
116.141
20
-84.4978
11
116.306
21
-84.6079
0
LINE
8
Black
10
116.306
20
-84.6079
11
116.5
21
-84.6466
0
LINE
8
Black
10
116.5
20
-84.6466
11
118.003
21
-84.6466
0
LINE
8
Black
10
118.003
20
-84.6466
11
117.994
21
-84.668
0
LINE
8
Black
10
117.994
20
-84.668
11
117.994
21
-84.8195
0
LINE
8
Black
10
117.994
20
-84.8195
11
117.994
21
-86.12
0
LINE
8
Black
10
117.994
20
-86.12
11
118.052
21
-86.2601
0
LINE
8
Black
10
118.052
20
-86.2601
11
118.159
21
-86.3672
0
LINE
8
Black
10
118.159
20
-86.3672
11
118.299
21
-86.4252
0
LINE
8
Black
10
118.299
20
-86.4252
11
118.451
21
-86.4252
0
LINE
8
Black
10
118.451
20
-86.4252
11
118.665
21
-86.4252
0
LINE
8
Black
10
118.665
20
-86.4252
11
118.665
21
-86.4255
0
LINE
8
Black
10
118.665
20
-86.4255
11
118.703
21
-86.6199
0
LINE
8
Black
10
118.703
20
-86.6199
11
118.813
21
-86.7847
0
LINE
8
Black
10
118.813
20
-86.7847
11
120.091
21
-88.0621
0
LINE
8
Black
10
120.091
20
-88.0621
11
120.091
21
-88.0621
0
LINE
8
Black
10
120.091
20
-88.0621
11
120.256
21
-88.1722
0
LINE
8
Black
10
120.256
20
-88.1722
11
120.256
21
-88.1722
0
LINE
8
Black
10
120.256
20
-88.1722
11
120.288
21
-88.1786
0
LINE
8
Black
10
120.288
20
-88.1786
11
120.45
21
-88.2109
0
LINE
8
Black
10
120.45
20
-88.2109
11
120.662
21
-88.2109
0
LINE
8
Black
10
120.662
20
-88.2109
11
120.853
21
-88.4023
0
LINE
8
Black
10
120.853
20
-88.4023
11
121.156
21
-88.5283
0
LINE
8
Black
10
121.156
20
-88.5283
11
121.485
21
-88.5285
0
LINE
8
Black
10
121.485
20
-88.5285
11
121.788
21
-88.4031
0
LINE
8
Black
10
121.788
20
-88.4031
11
122.021
21
-88.1711
0
LINE
8
Black
10
122.021
20
-88.1711
11
122.147
21
-87.8678
0
LINE
8
Black
10
122.147
20
-87.8678
11
122.147
21
-87.5394
0
LINE
8
Black
10
122.147
20
-87.5394
11
122.022
21
-87.2359
0
LINE
8
Black
10
122.022
20
-87.2359
11
121.79
21
-87.0035
0
LINE
8
Black
10
121.79
20
-87.0035
11
121.486
21
-86.8775
0
LINE
8
Black
10
121.486
20
-86.8775
11
121.158
21
-86.8773
0
LINE
8
Black
10
121.158
20
-86.8773
11
120.854
21
-87.0027
0
LINE
8
Black
10
120.854
20
-87.0027
11
120.662
21
-87.1949
0
LINE
8
Black
10
120.662
20
-87.1949
11
120.661
21
-87.1949
0
LINE
8
Black
10
120.661
20
-87.1949
11
119.891
21
-86.4252
0
LINE
8
Black
10
119.891
20
-86.4252
11
120.046
21
-86.4252
0
LINE
8
Black
10
120.046
20
-86.4252
11
120.144
21
-86.3846
0
LINE
8
Black
10
120.144
20
-86.3846
11
120.242
21
-86.4252
0
LINE
8
Black
10
120.242
20
-86.4252
11
120.394
21
-86.4252
0
LINE
8
Black
10
120.394
20
-86.4252
11
120.694
21
-86.4252
0
LINE
8
Black
10
120.694
20
-86.4252
11
120.834
21
-86.3672
0
LINE
8
Black
10
120.834
20
-86.3672
11
120.941
21
-86.2601
0
LINE
8
Black
10
120.941
20
-86.2601
11
120.999
21
-86.12
0
LINE
8
Black
10
120.999
20
-86.12
11
120.999
21
-85.9685
0
LINE
8
Black
10
120.999
20
-85.9685
11
120.999
21
-85.5345
0
LINE
8
Black
10
120.999
20
-85.5345
11
121.027
21
-85.394
0
LINE
8
Black
10
121.027
20
-85.394
11
121.027
21
-84.7482
0
LINE
8
Black
10
121.027
20
-84.7482
11
122.5
21
-84.7482
0
LINE
8
Black
10
122.5
20
-84.7482
11
122.714
21
-84.7057
0
LINE
8
Black
10
122.714
20
-84.7057
11
122.895
21
-84.5845
0
LINE
8
Black
10
122.895
20
-84.5845
11
123.016
21
-84.4032
0
LINE
8
Black
10
123.016
20
-84.4032
11
123.059
21
-84.1894
0
LINE
8
Black
10
123.059
20
-84.1894
11
123.059
21
-84.1383
0
LINE
8
Black
10
123.059
20
-84.1383
11
123.147
21
-84.1383
0
LINE
8
Black
10
123.147
20
-84.1383
11
123.287
21
-84.0803
0
LINE
8
Black
10
123.287
20
-84.0803
11
123.394
21
-83.9731
0
LINE
8
Black
10
123.394
20
-83.9731
11
123.421
21
-83.9097
0
LINE
8
Black
10
123.421
20
-83.9097
11
123.504
21
-83.9097
0
LINE
8
Black
10
123.504
20
-83.9097
11
123.717
21
-83.8672
0
LINE
8
Black
10
123.717
20
-83.8672
11
123.717
21
-83.8672
0
LINE
8
Black
10
123.717
20
-83.8672
11
123.899
21
-83.746
0
LINE
8
Black
10
123.899
20
-83.746
11
124.044
21
-83.6012
0
LINE
8
Black
10
124.044
20
-83.6012
11
124.548
21
-83.6012
0
LINE
8
Black
10
124.548
20
-83.6012
11
124.548
21
-83.8331
0
LINE
8
Black
10
124.548
20
-83.8331
11
124.606
21
-83.9731
0
LINE
8
Black
10
124.606
20
-83.9731
11
124.713
21
-84.0803
0
LINE
8
Black
10
124.713
20
-84.0803
11
124.853
21
-84.1383
0
LINE
8
Black
10
124.853
20
-84.1383
11
125.004
21
-84.1383
0
LINE
8
Black
10
125.004
20
-84.1383
11
126.147
21
-84.1383
0
LINE
8
Black
10
126.147
20
-84.1383
11
126.287
21
-84.0803
0
LINE
8
Black
10
126.287
20
-84.0803
11
126.394
21
-83.9731
0
LINE
8
Black
10
126.394
20
-83.9731
11
126.453
21
-83.8331
0
LINE
8
Black
10
126.453
20
-83.8331
11
126.453
21
-83.6815
0
LINE
8
Black
10
126.453
20
-83.6815
11
126.453
21
-83.0254
0
LINE
8
Black
10
126.453
20
-83.0254
11
126.453
21
-83.0254
0
LINE
8
Black
10
126.453
20
-83.0254
11
126.629
21
-82.9075
0
LINE
8
Black
10
126.629
20
-82.9075
11
126.901
21
-82.6352
0
LINE
8
Black
10
126.901
20
-82.6352
11
126.901
21
-82.6352
0
LINE
8
Black
10
126.901
20
-82.6352
11
126.962
21
-82.5446
0
LINE
8
Black
10
126.962
20
-82.5446
11
127.022
21
-82.4539
0
LINE
8
Black
10
127.022
20
-82.4539
11
127.022
21
-82.4539
0
LINE
8
Black
10
127.022
20
-82.4539
11
127.065
21
-82.2401
0
LINE
8
Black
10
127.065
20
-82.2401
11
127.065
21
-82.2401
0
LINE
8
Black
10
127.065
20
-82.2401
11
127.065
21
-81.9371
0
LINE
8
Black
10
127.065
20
-81.9371
11
127.152
21
-82.0241
0
LINE
8
Black
10
127.152
20
-82.0241
11
127.502
21
-82.1694
0
LINE
8
Black
10
127.502
20
-82.1694
11
127.881
21
-82.1698
0
LINE
8
Black
10
127.881
20
-82.1698
11
128.231
21
-82.0251
0
LINE
8
Black
10
128.231
20
-82.0251
11
128.499
21
-81.7574
0
LINE
8
Black
10
128.499
20
-81.7574
11
128.644
21
-81.4074
0
LINE
8
Black
10
128.644
20
-81.4074
11
128.645
21
-81.0285
0
LINE
8
Black
10
128.645
20
-81.0285
11
128.5
21
-80.6783
0
LINE
8
Black
10
128.5
20
-80.6783
11
128.4
21
-80.5778
0
LINE
8
Black
10
128.4
20
-80.5778
11
128.516
21
-80.4032
0
LINE
8
Black
10
128.516
20
-80.4032
11
128.516
21
-80.4032
0
LINE
8
Black
10
128.516
20
-80.4032
11
128.559
21
-80.1894
0
LINE
8
Black
10
128.559
20
-80.1894
11
128.559
21
-80.1894
0
LINE
8
Black
10
128.559
20
-80.1894
11
128.559
21
-80.1383
0
LINE
8
Black
10
128.559
20
-80.1383
11
128.647
21
-80.1383
0
LINE
8
Black
10
128.647
20
-80.1383
11
128.787
21
-80.0803
0
LINE
8
Black
10
128.787
20
-80.0803
11
128.894
21
-79.9731
0
LINE
8
Black
10
128.894
20
-79.9731
11
128.953
21
-79.8331
0
LINE
8
Black
10
128.953
20
-79.8331
11
128.953
21
-79.6815
0
LINE
8
Black
10
128.953
20
-79.6815
11
128.953
21
-79.0712
0
LINE
8
Black
10
128.953
20
-79.0712
11
129.548
21
-79.0712
0
LINE
8
Black
10
129.548
20
-79.0712
11
129.548
21
-79.8331
0
LINE
8
Black
10
129.548
20
-79.8331
11
129.606
21
-79.9731
0
LINE
8
Black
10
129.606
20
-79.9731
11
129.713
21
-80.0803
0
LINE
8
Black
10
129.713
20
-80.0803
11
129.853
21
-80.1383
0
LINE
8
Black
10
129.853
20
-80.1383
11
129.992
21
-80.1383
0
LINE
8
Black
10
129.992
20
-80.1383
11
129.992
21
-80.8617
0
LINE
8
Black
10
129.992
20
-80.8617
11
129.853
21
-80.8617
0
LINE
8
Black
10
129.853
20
-80.8617
11
129.713
21
-80.9197
0
LINE
8
Black
10
129.713
20
-80.9197
11
129.606
21
-81.0269
0
LINE
8
Black
10
129.606
20
-81.0269
11
129.548
21
-81.1669
0
LINE
8
Black
10
129.548
20
-81.1669
11
129.548
21
-81.3185
0
LINE
8
Black
10
129.548
20
-81.3185
11
129.548
21
-82.071
0
LINE
8
Black
10
129.548
20
-82.071
11
129.538
21
-82.0776
0
LINE
8
Black
10
129.538
20
-82.0776
11
127.071
21
-84.5445
0
LINE
8
Black
10
127.071
20
-84.5445
11
126.961
21
-84.7093
0
LINE
8
Black
10
126.961
20
-84.7093
11
126.922
21
-84.9037
0
LINE
8
Black
10
126.922
20
-84.9037
11
126.922
21
-90.7162
0
LINE
8
Black
10
126.922
20
-90.7162
11
126.649
21
-90.829
0
LINE
8
Black
10
126.649
20
-90.829
11
126.26
21
-91.217
0
LINE
8
Black
10
126.26
20
-91.217
11
126.16
21
-91.4587
0
LINE
8
Black
10
126.16
20
-91.4587
11
126.061
21
-91.219
0
LINE
8
Black
10
126.061
20
-91.219
11
125.673
21
-90.8304
0
LINE
8
Black
10
125.673
20
-90.8304
11
125.166
21
-90.6198
0
LINE
8
Black
10
125.166
20
-90.6198
11
124.617
21
-90.6193
0
LINE
8
Black
10
124.617
20
-90.6193
11
124.109
21
-90.829
0
LINE
8
Black
10
124.109
20
-90.829
11
123.781
21
-91.1561
0
LINE
8
Black
10
123.781
20
-91.1561
11
123.769
21
-91.126
0
LINE
8
Black
10
123.769
20
-91.126
11
123.502
21
-91.0274
0
LINE
8
Black
10
123.502
20
-91.0274
11
123.323
21
-91.207
0
LINE
8
Black
10
123.323
20
-91.207
11
123.323
21
-90.8478
0
LINE
8
Black
10
123.323
20
-90.8478
11
123.224
21
-90.581
0
LINE
8
Black
10
123.224
20
-90.581
11
122.614
21
-90.3546
0
LINE
8
Black
10
122.614
20
-90.3546
11
121.965
21
-90.3787
0
LINE
8
Black
10
121.965
20
-90.3787
11
121.476
21
-90.581
0
LINE
8
Black
10
121.476
20
-90.581
11
121.377
21
-90.8478
0
LINE
8
Black
10
121.377
20
-90.8478
11
122.35
21
-91.8204
0
LINE
8
Black
10
122.35
20
-91.8204
11
123.323
21
-90.8478
0
LINE
8
Black
10
123.323
20
-90.8478
11
123.323
21
-91.207
0
LINE
8
Black
10
123.323
20
-91.207
11
122.53
21
-92
0
LINE
8
Black
10
122.53
20
-92
11
123.502
21
-92.9726
0
LINE
8
Black
10
123.502
20
-92.9726
11
123.769
21
-92.874
0
LINE
8
Black
10
123.769
20
-92.874
11
123.781
21
-92.8427
0
LINE
8
Black
10
123.781
20
-92.8427
11
124.107
21
-93.1696
0
LINE
8
Black
10
124.107
20
-93.1696
11
124.614
21
-93.3802
0
LINE
8
Black
10
124.614
20
-93.3802
11
125.163
21
-93.3807
0
LINE
8
Black
10
125.163
20
-93.3807
11
125.671
21
-93.171
0
LINE
8
Black
10
125.671
20
-93.171
11
126.06
21
-92.783
0
LINE
8
Black
10
126.06
20
-92.783
11
126.16
21
-92.5413
0
LINE
8
Black
10
126.16
20
-92.5413
11
126.259
21
-92.781
0
LINE
8
Black
10
126.259
20
-92.781
11
126.647
21
-93.1696
0
LINE
8
Black
10
126.647
20
-93.1696
11
127.154
21
-93.3802
0
LINE
8
Black
10
127.154
20
-93.3802
11
127.703
21
-93.3807
0
LINE
8
Black
10
127.703
20
-93.3807
11
128.211
21
-93.171
0
LINE
8
Black
10
128.211
20
-93.171
11
128.6
21
-92.783
0
LINE
8
Black
10
128.6
20
-92.783
11
128.81
21
-92.2758
0
LINE
8
Black
10
128.81
20
-92.2758
11
128.811
21
-91.7266
0
LINE
8
Black
10
128.811
20
-91.7266
11
128.601
21
-91.219
0
LINE
8
Black
10
128.601
20
-91.219
11
128.213
21
-90.8304
0
LINE
8
Black
10
128.213
20
-90.8304
11
127.938
21
-90.7162
0
LINE
8
Black
10
127.938
20
-90.7162
11
127.938
21
-85.1141
0
LINE
8
Black
10
127.938
20
-85.1141
11
129.294
21
-83.7586
0
LINE
8
Black
10
129.294
20
-83.7586
11
129.294
21
-83.8836
0
LINE
8
Black
10
129.294
20
-83.8836
11
129.39
21
-84.117
0
LINE
8
Black
10
129.39
20
-84.117
11
129.569
21
-84.2956
0
LINE
8
Black
10
129.569
20
-84.2956
11
129.802
21
-84.3923
0
LINE
8
Black
10
129.802
20
-84.3923
11
130.055
21
-84.3923
0
LINE
8
Black
10
130.055
20
-84.3923
11
130.214
21
-84.3923
0
LINE
8
Black
10
130.214
20
-84.3923
11
130.373
21
-84.2336
0
LINE
8
Black
10
130.373
20
-84.2336
11
130.373
21
-83.4779
0
LINE
8
Black
10
130.373
20
-83.4779
11
130.353
21
-83.4779
0
LINE
8
Black
10
130.353
20
-83.4779
11
130.353
21
-83.2239
0
LINE
8
Black
10
130.353
20
-83.2239
11
130.373
21
-83.2239
0
LINE
8
Black
10
130.373
20
-83.2239
11
130.373
21
-83.2039
0
LINE
8
Black
10
130.373
20
-83.2039
11
130.627
21
-83.2039
0
LINE
8
Black
10
130.627
20
-83.2039
11
130.627
21
-83.2239
0
LINE
8
Black
10
130.627
20
-83.2239
11
131.548
21
-83.2239
0
LINE
8
Black
10
131.548
20
-83.2239
11
131.707
21
-83.0652
0
LINE
8
Black
10
131.707
20
-83.0652
11
131.707
21
-82.8182
0
LINE
8
Black
10
131.707
20
-82.8182
11
131.61
21
-82.5848
0
LINE
8
Black
10
131.61
20
-82.5848
11
131.431
21
-82.4062
0
LINE
8
Black
10
131.431
20
-82.4062
11
131.31
21
-82.3559
0
LINE
8
Black
10
131.31
20
-82.3559
11
131.394
21
-82.2713
0
LINE
8
Black
10
131.394
20
-82.2713
11
131.453
21
-82.1313
0
LINE
8
Black
10
131.453
20
-82.1313
11
131.453
21
-81.9797
0
LINE
8
Black
10
131.453
20
-81.9797
11
131.453
21
-81.1669
0
LINE
8
Black
10
131.453
20
-81.1669
11
131.394
21
-81.0269
0
LINE
8
Black
10
131.394
20
-81.0269
11
131.287
21
-80.9197
0
LINE
8
Black
10
131.287
20
-80.9197
11
131.147
21
-80.8617
0
LINE
8
Black
10
131.147
20
-80.8617
11
131.008
21
-80.8617
0
LINE
8
Black
10
131.008
20
-80.8617
11
131.008
21
-80.1383
0
LINE
8
Black
10
131.008
20
-80.1383
11
131.147
21
-80.1383
0
LINE
8
Black
10
131.147
20
-80.1383
11
131.287
21
-80.0803
0
LINE
8
Black
10
131.287
20
-80.0803
11
131.394
21
-79.9731
0
LINE
8
Black
10
131.394
20
-79.9731
11
131.453
21
-79.8331
0
LINE
8
Black
10
131.453
20
-79.8331
11
131.453
21
-79.6815
0
LINE
8
Black
10
131.453
20
-79.6815
11
131.453
21
-79.0394
0
LINE
8
Black
10
131.453
20
-79.0394
11
131.506
21
-79.0287
0
LINE
8
Black
10
131.506
20
-79.0287
11
131.506
21
-79.0287
0
LINE
8
Black
10
131.506
20
-79.0287
11
131.688
21
-78.9075
0
LINE
8
Black
10
131.688
20
-78.9075
11
131.899
21
-78.6962
0
LINE
8
Black
10
131.899
20
-78.6962
11
132.02
21
-78.5149
0
LINE
8
Black
10
132.02
20
-78.5149
11
132.02
21
-78.5149
0
LINE
8
Black
10
132.02
20
-78.5149
11
132.062
21
-78.3011
0
LINE
8
Black
10
132.062
20
-78.3011
11
132.063
21
-78.3011
0
LINE
8
Black
10
132.063
20
-78.3011
11
132.063
21
-94.373
0
LINE
8
Black
10
132.063
20
-94.373
11
131.707
21
-94.373
0
LINE
8
Black
10
131.707
20
-94.373
11
131.707
21
-83.8836
0
LINE
8
Black
10
131.707
20
-83.8836
11
131.707
21
-83.6367
0
LINE
8
Black
10
131.707
20
-83.6367
11
131.548
21
-83.4779
0
LINE
8
Black
10
131.548
20
-83.4779
11
130.627
21
-83.4779
0
LINE
8
Black
10
130.627
20
-83.4779
11
130.627
21
-84.2336
0
LINE
8
Black
10
130.627
20
-84.2336
11
130.786
21
-84.3923
0
LINE
8
Black
10
130.786
20
-84.3923
11
130.945
21
-84.3923
0
LINE
8
Black
10
130.945
20
-84.3923
11
131.198
21
-84.3923
0
LINE
8
Black
10
131.198
20
-84.3923
11
131.431
21
-84.2956
0
LINE
8
Black
10
131.431
20
-84.2956
11
131.61
21
-84.117
0
LINE
8
Black
10
131.61
20
-84.117
11
131.707
21
-83.8836
0
LINE
8
Black
10
131.707
20
-83.8836
11
131.707
21
-94.373
0
LINE
8
Black
10
131.707
20
-94.373
11
123.323
21
-94.373
0
LINE
8
Black
10
123.323
20
-94.373
11
123.323
21
-93.1522
0
LINE
8
Black
10
123.323
20
-93.1522
11
122.35
21
-92.1796
0
LINE
8
Black
10
122.35
20
-92.1796
11
121.377
21
-93.1522
0
LINE
8
Black
10
121.377
20
-93.1522
11
121.476
21
-93.419
0
LINE
8
Black
10
121.476
20
-93.419
11
122.086
21
-93.6454
0
LINE
8
Black
10
122.086
20
-93.6454
11
122.735
21
-93.6213
0
LINE
8
Black
10
122.735
20
-93.6213
11
123.224
21
-93.419
0
LINE
8
Black
10
123.224
20
-93.419
11
123.323
21
-93.1522
0
LINE
8
Black
10
123.323
20
-93.1522
11
123.323
21
-94.373
0
LINE
8
Black
10
123.323
20
-94.373
11
115.703
21
-94.373
0
LINE
8
Black
10
115.703
20
-94.373
11
115.703
21
-93.1522
0
LINE
8
Black
10
115.703
20
-93.1522
11
114.73
21
-92.1796
0
LINE
8
Black
10
114.73
20
-92.1796
11
113.757
21
-93.1522
0
LINE
8
Black
10
113.757
20
-93.1522
11
113.856
21
-93.419
0
LINE
8
Black
10
113.856
20
-93.419
11
114.466
21
-93.6454
0
LINE
8
Black
10
114.466
20
-93.6454
11
115.115
21
-93.6213
0
LINE
8
Black
10
115.115
20
-93.6213
11
115.604
21
-93.419
0
LINE
8
Black
10
115.604
20
-93.419
11
115.703
21
-93.1522
0
LINE
8
Black
10
115.703
20
-93.1522
11
115.703
21
-94.373
0
LINE
8
Black
10
115.703
20
-94.373
11
98.127
21
-94.373
0
LINE
8
Black
10
98.127
20
-94.373
11
98.127
21
-74.627
0
LINE
8
Black
10
98.127
20
-74.627
11
132.873
21
-74.627
0
LINE
8
Black
10
132.873
20
-74.627
11
132.873
21
-94.373
0
LINE
8
Black
10
132.873
20
-94.373
11
132.063
21
-94.373
0
LINE
8
Black
10
132.063
20
-94.373
11
132.063
21
-78.3011
0
LINE
8
Black
10
132.063
20
-78.3011
11
132.063
21
-76.9949
0
LINE
8
Black
10
132.063
20
-76.9949
11
132.02
21
-76.7811
0
LINE
8
Black
10
132.02
20
-76.7811
11
132.02
21
-76.7811
0
LINE
8
Black
10
132.02
20
-76.7811
11
131.899
21
-76.5998
0
LINE
8
Black
10
131.899
20
-76.5998
11
131.16
21
-75.8613
0
LINE
8
Black
10
131.16
20
-75.8613
11
130.979
21
-75.7401
0
LINE
8
Black
10
130.979
20
-75.7401
11
130.765
21
-75.6976
0
LINE
8
Black
10
130.765
20
-75.6976
11
119.399
21
-75.6976
0
LINE
8
Black
10
119.399
20
-75.6976
11
119.185
21
-75.7401
0
LINE
8
Black
10
119.185
20
-75.7401
11
119.004
21
-75.8613
0
LINE
8
Black
10
119.004
20
-75.8613
11
118.405
21
-76.4599
0
LINE
8
Black
10
118.405
20
-76.4599
11
118.405
21
-76.3333
0
LINE
8
Black
10
118.405
20
-76.3333
11
118.405
21
-75.7618
0
LINE
8
Black
10
118.405
20
-75.7618
11
118.405
21
-75.5707
0
LINE
8
Black
10
118.405
20
-75.5707
11
118.309
21
-75.3373
0
LINE
8
Black
10
118.309
20
-75.3373
11
118.13
21
-75.1587
0
LINE
8
Black
10
118.13
20
-75.1587
11
117.897
21
-75.062
0
LINE
8
Black
10
117.897
20
-75.062
11
117.644
21
-75.062
0
LINE
8
Black
10
117.644
20
-75.062
11
117.556
21
-75.062
0
LINE
8
Black
10
117.556
20
-75.062
11
117.397
21
-75.2207
0
LINE
8
Black
10
117.397
20
-75.2207
11
117.397
21
-75.9205
0
LINE
8
Black
10
117.397
20
-75.9205
11
118.247
21
-75.9205
0
LINE
8
Black
10
118.247
20
-75.9205
11
118.405
21
-75.7618
0
LINE
8
Black
10
118.405
20
-75.7618
11
118.405
21
-76.3333
0
LINE
8
Black
10
118.405
20
-76.3333
11
118.247
21
-76.1745
0
LINE
8
Black
10
118.247
20
-76.1745
11
117.397
21
-76.1745
0
LINE
8
Black
10
117.397
20
-76.1745
11
117.397
21
-76.1945
0
LINE
8
Black
10
117.397
20
-76.1945
11
117.143
21
-76.1945
0
LINE
8
Black
10
117.143
20
-76.1945
11
117.143
21
-76.1745
0
LINE
8
Black
10
117.143
20
-76.1745
11
117.143
21
-75.9205
0
LINE
8
Black
10
117.143
20
-75.9205
11
117.143
21
-75.2207
0
LINE
8
Black
10
117.143
20
-75.2207
11
116.984
21
-75.062
0
LINE
8
Black
10
116.984
20
-75.062
11
116.896
21
-75.062
0
LINE
8
Black
10
116.896
20
-75.062
11
116.643
21
-75.062
0
LINE
8
Black
10
116.643
20
-75.062
11
116.41
21
-75.1587
0
LINE
8
Black
10
116.41
20
-75.1587
11
116.231
21
-75.3373
0
LINE
8
Black
10
116.231
20
-75.3373
11
116.135
21
-75.5707
0
LINE
8
Black
10
116.135
20
-75.5707
11
116.135
21
-75.7618
0
LINE
8
Black
10
116.135
20
-75.7618
11
116.293
21
-75.9205
0
LINE
8
Black
10
116.293
20
-75.9205
11
117.143
21
-75.9205
0
LINE
8
Black
10
117.143
20
-75.9205
11
117.143
21
-76.1745
0
LINE
8
Black
10
117.143
20
-76.1745
11
116.293
21
-76.1745
0
LINE
8
Black
10
116.293
20
-76.1745
11
116.23
21
-76.2384
0
LINE
8
Black
10
116.23
20
-76.2384
11
115.015
21
-75.024
0
LINE
8
Black
10
115.015
20
-75.024
11
114.834
21
-74.9028
0
LINE
8
Black
10
114.834
20
-74.9028
11
114.62
21
-74.8603
0
LINE
8
Black
10
114.62
20
-74.8603
11
110.73
21
-74.8603
0
LINE
8
Black
10
110.73
20
-74.8603
11
110.516
21
-74.9028
0
LINE
8
Black
10
110.516
20
-74.9028
11
110.335
21
-75.024
0
LINE
8
Black
10
110.335
20
-75.024
11
109.997
21
-75.3617
0
LINE
8
Black
10
109.997
20
-75.3617
11
109.353
21
-75.3617
0
LINE
8
Black
10
109.353
20
-75.3617
11
109.213
21
-75.4197
0
LINE
8
Black
10
109.213
20
-75.4197
11
109.106
21
-75.5269
0
LINE
8
Black
10
109.106
20
-75.5269
11
109.048
21
-75.6669
0
LINE
8
Black
10
109.048
20
-75.6669
11
109.048
21
-75.8185
0
LINE
8
Black
10
109.048
20
-75.8185
11
109.048
21
-76.4746
0
LINE
8
Black
10
109.048
20
-76.4746
11
108.871
21
-76.5925
0
LINE
8
Black
10
108.871
20
-76.5925
11
108.601
21
-76.8625
0
LINE
8
Black
10
108.601
20
-76.8625
11
108.48
21
-77.0438
0
LINE
8
Black
10
108.48
20
-77.0438
11
108.438
21
-77.2576
0
LINE
8
Black
10
108.438
20
-77.2576
11
108.438
21
-78.9059
0
LINE
8
Black
10
108.438
20
-78.9059
11
108.48
21
-79.1197
0
LINE
8
Black
10
108.48
20
-79.1197
11
108.601
21
-79.301
0
LINE
8
Black
10
108.601
20
-79.301
11
108.665
21
-79.3653
0
LINE
8
Black
10
108.665
20
-79.3653
11
108.665
21
-79.4594
0
LINE
8
Black
10
108.665
20
-79.4594
11
108.653
21
-79.4901
0
LINE
8
Black
10
108.653
20
-79.4901
11
108.653
21
-79.6417
0
LINE
8
Black
10
108.653
20
-79.6417
11
108.653
21
-80.9117
0
LINE
8
Black
10
108.653
20
-80.9117
11
108.665
21
-80.9425
0
LINE
8
Black
10
108.665
20
-80.9425
11
108.665
21
-82.4506
0
LINE
8
Black
10
108.665
20
-82.4506
11
108.649
21
-82.4104
0
LINE
8
Black
10
108.649
20
-82.4104
11
108.381
21
-82.1422
0
LINE
8
Black
10
108.381
20
-82.1422
11
108.031
21
-81.9969
0
LINE
8
Black
10
108.031
20
-81.9969
11
107.652
21
-81.9965
0
LINE
8
Black
10
107.652
20
-81.9965
11
107.302
21
-82.1412
0
LINE
8
Black
10
107.302
20
-82.1412
11
107.052
21
-82.3904
0
LINE
8
Black
10
107.052
20
-82.3904
11
106.908
21
-82.3904
0
LINE
8
Black
10
106.908
20
-82.3904
11
106.694
21
-82.4329
0
LINE
8
Black
10
106.694
20
-82.4329
11
106.513
21
-82.5541
0
LINE
8
Black
10
106.513
20
-82.5541
11
102.739
21
-86.3273
0
LINE
8
Black
10
102.739
20
-86.3273
11
102.618
21
-86.5086
0
LINE
8
Black
10
102.618
20
-86.5086
11
102.576
21
-86.7224
0
LINE
8
Black
10
102.576
20
-86.7224
11
102.576
21
-93.1959
0
LINE
8
Black
10
102.576
20
-93.1959
11
102.618
21
-93.4097
0
LINE
8
Black
10
102.618
20
-93.4097
11
102.739
21
-93.591
0
LINE
8
Black
10
102.739
20
-93.591
11
102.975
21
-93.8268
0
LINE
8
Black
10
102.975
20
-93.8268
11
103.157
21
-93.948
0
LINE
8
Black
10
103.157
20
-93.948
11
103.157
21
-93.948
0
LINE
8
Black
10
103.157
20
-93.948
11
103.37
21
-93.9905
0
LINE
8
Black
10
103.37
20
-93.9905
11
107.918
21
-93.9905
0
LINE
8
Black
10
107.918
20
-93.9905
11
108.132
21
-93.948
0
LINE
8
Black
10
108.132
20
-93.948
11
108.132
21
-93.948
0
LINE
8
Black
10
108.132
20
-93.948
11
108.313
21
-93.8268
0
LINE
8
Black
10
108.313
20
-93.8268
11
108.94
21
-93.2
0
LINE
8
Black
10
108.94
20
-93.2
11
109.374
21
-93.3802
0
LINE
8
Black
10
109.374
20
-93.3802
11
109.923
21
-93.3807
0
LINE
8
Black
10
109.923
20
-93.3807
11
110.431
21
-93.171
0
LINE
8
Black
10
110.431
20
-93.171
11
110.82
21
-92.783
0
LINE
8
Black
10
110.82
20
-92.783
11
110.92
21
-92.5413
0
LINE
8
Black
10
110.92
20
-92.5413
11
111.019
21
-92.781
0
LINE
8
Black
10
111.019
20
-92.781
11
111.407
21
-93.1696
0
LINE
8
Black
10
111.407
20
-93.1696
11
111.914
21
-93.3802
0
LINE
8
Black
10
111.914
20
-93.3802
11
112.463
21
-93.3807
0
LINE
8
Black
10
112.463
20
-93.3807
11
112.971
21
-93.171
0
LINE
8
Black
10
112.971
20
-93.171
11
113.299
21
-92.8439
0
LINE
8
Black
10
113.299
20
-92.8439
11
113.311
21
-92.874
0
LINE
8
Black
10
113.311
20
-92.874
11
113.578
21
-92.9726
0
LINE
8
Black
10
113.578
20
-92.9726
11
114.55
21
-92
0
LINE
8
Black
10
114.55
20
-92
11
113.578
21
-91.0274
0
LINE
8
Black
10
113.578
20
-91.0274
11
113.311
21
-91.126
0
LINE
8
Black
10
113.311
20
-91.126
11
113.299
21
-91.1573
0
LINE
8
Black
10
113.299
20
-91.1573
11
112.973
21
-90.8304
0
LINE
8
Black
10
112.973
20
-90.8304
11
112.466
21
-90.6198
0
LINE
8
Black
10
112.466
20
-90.6198
11
111.917
21
-90.6193
0
LINE
8
Black
10
111.917
20
-90.6193
11
111.409
21
-90.829
0
LINE
8
Black
10
111.409
20
-90.829
11
111.02
21
-91.217
0
LINE
8
Black
10
111.02
20
-91.217
11
110.92
21
-91.4587
0
LINE
8
Black
10
110.92
20
-91.4587
11
110.821
21
-91.219
0
LINE
8
Black
10
110.821
20
-91.219
11
110.433
21
-90.8304
0
LINE
8
Black
10
110.433
20
-90.8304
11
110.059
21
-90.675
0
LINE
8
Black
10
110.059
20
-90.675
11
110.059
21
-90.1383
0
LINE
8
Black
10
110.059
20
-90.1383
11
110.147
21
-90.1383
0
LINE
8
Black
10
110.147
20
-90.1383
11
110.287
21
-90.0803
0
LINE
8
Black
10
110.287
20
-90.0803
11
110.394
21
-89.9731
0
LINE
8
Black
10
110.394
20
-89.9731
11
110.453
21
-89.8331
0
LINE
8
Black
10
110.453
20
-89.8331
11
110.453
21
-89.6815
0
LINE
8
Black
10
110.453
20
-89.6815
11
110.453
21
-88.8687
0
LINE
8
Black
10
110.453
20
-88.8687
11
110.394
21
-88.7287
0
LINE
8
Black
10
110.394
20
-88.7287
11
110.31
21
-88.6441
0
LINE
8
Black
10
110.31
20
-88.6441
11
110.431
21
-88.5938
0
LINE
8
Black
10
110.431
20
-88.5938
11
110.61
21
-88.4152
0
LINE
8
Black
10
110.61
20
-88.4152
11
110.707
21
-88.1818
0
LINE
8
Black
10
110.707
20
-88.1818
11
110.707
21
-87.9349
0
LINE
8
Black
10
110.707
20
-87.9349
11
110.548
21
-87.7761
0
LINE
8
Black
10
110.548
20
-87.7761
11
110.675
21
-87.7761
0
LINE
8
Black
10
110.675
20
-87.7761
11
112.95
21
-90.0517
0
LINE
8
Black
10
112.95
20
-90.0517
11
113.115
21
-90.1618
0
LINE
8
Black
10
113.115
20
-90.1618
11
113.115
21
-90.1618
0
LINE
8
Black
10
113.115
20
-90.1618
11
113.147
21
-90.1682
0
LINE
8
Black
10
113.147
20
-90.1682
11
113.31
21
-90.2005
0
LINE
8
Black
10
113.31
20
-90.2005
11
114.078
21
-90.2005
0
LINE
8
Black
10
114.078
20
-90.2005
11
114.269
21
-90.3919
0
LINE
8
Black
10
114.269
20
-90.3919
11
114.291
21
-90.4009
0
LINE
8
Black
10
114.291
20
-90.4009
11
113.856
21
-90.581
0
LINE
8
Black
10
113.856
20
-90.581
11
113.757
21
-90.8478
0
LINE
8
Black
10
113.757
20
-90.8478
11
114.73
21
-91.8204
0
LINE
8
Black
10
114.73
20
-91.8204
11
114.744
21
-91.8063
0
LINE
8
Black
10
114.744
20
-91.8063
11
114.924
21
-91.9859
0
LINE
8
Black
10
114.924
20
-91.9859
11
114.91
21
-92
0
LINE
8
Black
10
114.91
20
-92
11
115.882
21
-92.9726
0
LINE
8
Black
10
115.882
20
-92.9726
11
116.149
21
-92.874
0
LINE
8
Black
10
116.149
20
-92.874
11
116.161
21
-92.8427
0
LINE
8
Black
10
116.161
20
-92.8427
11
116.487
21
-93.1696
0
LINE
8
Black
10
116.487
20
-93.1696
11
116.994
21
-93.3802
0
LINE
8
Black
10
116.994
20
-93.3802
11
117.543
21
-93.3807
0
LINE
8
Black
10
117.543
20
-93.3807
11
118.051
21
-93.171
0
LINE
8
Black
10
118.051
20
-93.171
11
118.44
21
-92.783
0
LINE
8
Black
10
118.44
20
-92.783
11
118.54
21
-92.5413
0
LINE
8
Black
10
118.54
20
-92.5413
11
118.639
21
-92.781
0
LINE
8
Black
10
118.639
20
-92.781
11
119.027
21
-93.1696
0
LINE
8
Black
10
119.027
20
-93.1696
11
119.534
21
-93.3802
0
LINE
8
Black
10
119.534
20
-93.3802
11
120.083
21
-93.3807
0
LINE
8
Black
10
120.083
20
-93.3807
11
120.591
21
-93.171
0
LINE
8
Black
10
120.591
20
-93.171
11
120.919
21
-92.8439
0
LINE
8
Black
10
120.919
20
-92.8439
11
120.931
21
-92.874
0
LINE
8
Black
10
120.931
20
-92.874
11
121.198
21
-92.9726
0
LINE
8
Black
10
121.198
20
-92.9726
11
122.17
21
-92
0
LINE
8
Black
10
122.17
20
-92
11
121.198
21
-91.0274
0
LINE
8
Black
10
121.198
20
-91.0274
11
120.931
21
-91.126
0
LINE
8
Black
10
120.931
20
-91.126
11
120.919
21
-91.1573
0
LINE
8
Black
10
120.919
20
-91.1573
11
120.593
21
-90.8304
0
LINE
8
Black
10
120.593
20
-90.8304
11
120.086
21
-90.6198
0
LINE
8
Black
10
120.086
20
-90.6198
11
119.537
21
-90.6193
0
LINE
8
Black
10
119.537
20
-90.6193
11
119.029
21
-90.829
0
LINE
8
Black
10
119.029
20
-90.829
11
118.64
21
-91.217
0
LINE
8
Black
10
118.64
20
-91.217
11
118.54
21
-91.4587
0
LINE
8
Black
10
118.54
20
-91.4587
11
118.441
21
-91.219
0
LINE
8
Black
10
118.441
20
-91.219
11
118.053
21
-90.8304
0
LINE
8
Black
10
118.053
20
-90.8304
11
117.778
21
-90.7162
0
LINE
8
Black
10
117.778
20
-90.7162
11
117.778
21
-86.775
0
LINE
8
Black
10
117.778
20
-86.775
11
117.746
21
-86.6128
0
LINE
8
Black
10
117.746
20
-86.6128
11
117.739
21
-86.5806
0
LINE
8
Black
10
117.739
20
-86.5806
11
117.739
21
-86.5806
0
LINE
8
Black
10
117.739
20
-86.5806
11
117.629
21
-86.4158
0
LINE
8
Black
10
117.629
20
-86.4158
11
117.629
21
-86.4158
0
LINE
8
Black
10
117.629
20
-86.4158
11
112.602
21
-81.3889
0
LINE
8
Black
10
112.602
20
-81.3889
11
112.602
21
-81.3439
0
LINE
8
Black
10
112.602
20
-81.3439
11
112.729
21
-81.4709
0
LINE
8
Black
10
112.729
20
-81.4709
11
112.792
21
-81.4709
0
LINE
8
Black
10
112.792
20
-81.4709
11
112.909
21
-81.4227
0
LINE
8
Black
10
112.909
20
-81.4227
11
113.029
21
-81.543
0
LINE
8
Black
10
113.029
20
-81.543
11
113.101
21
-81.6512
0
LINE
8
Black
10
113.101
20
-81.6512
11
113.266
21
-81.7613
0
LINE
8
Black
10
113.266
20
-81.7613
11
113.46
21
-81.8
0
LINE
8
Black
10
113.46
20
-81.8
11
114.26
21
-81.8
0
LINE
8
Black
10
114.26
20
-81.8
11
114.455
21
-81.7613
0
LINE
8
Black
10
114.455
20
-81.7613
11
114.62
21
-81.6512
0
LINE
8
Black
10
114.62
20
-81.6512
11
114.938
21
-81.3325
0
LINE
8
Black
10
114.938
20
-81.3325
11
115.294
21
-81.3325
0
LINE
8
Black
10
115.294
20
-81.3325
11
115.294
21
-81.3634
0
LINE
8
Black
10
115.294
20
-81.3634
11
115.452
21
-81.5221
0
LINE
8
Black
10
115.452
20
-81.5221
11
116.373
21
-81.5221
0
LINE
8
Black
10
116.373
20
-81.5221
11
116.373
21
-81.5021
0
LINE
8
Black
10
116.373
20
-81.5021
11
116.627
21
-81.5021
0
LINE
8
Black
10
116.627
20
-81.5021
11
116.627
21
-81.5221
0
LINE
8
Black
10
116.627
20
-81.5221
11
116.647
21
-81.5221
0
LINE
8
Black
10
116.647
20
-81.5221
11
116.647
21
-81.7761
0
LINE
8
Black
10
116.647
20
-81.7761
11
116.627
21
-81.7761
0
LINE
8
Black
10
116.627
20
-81.7761
11
116.627
21
-81.7961
0
LINE
8
Black
10
116.627
20
-81.7961
11
116.373
21
-81.7961
0
LINE
8
Black
10
116.373
20
-81.7961
11
116.373
21
-81.7761
0
LINE
8
Black
10
116.373
20
-81.7761
11
115.452
21
-81.7761
0
LINE
8
Black
10
115.452
20
-81.7761
11
115.294
21
-81.9349
0
LINE
8
Black
10
115.294
20
-81.9349
11
115.294
21
-82.1818
0
LINE
8
Black
10
115.294
20
-82.1818
11
115.39
21
-82.4152
0
LINE
8
Black
10
115.39
20
-82.4152
11
115.569
21
-82.5938
0
LINE
8
Black
10
115.569
20
-82.5938
11
115.69
21
-82.6441
0
LINE
8
Black
10
115.69
20
-82.6441
11
115.606
21
-82.7287
0
LINE
8
Black
10
115.606
20
-82.7287
11
115.548
21
-82.8687
0
LINE
8
Black
10
115.548
20
-82.8687
11
115.548
21
-83.0203
0
LINE
8
Black
10
115.548
20
-83.0203
11
115.548
21
-83.8331
0
LINE
8
Black
10
115.548
20
-83.8331
11
115.606
21
-83.9731
0
LINE
8
Black
10
115.606
20
-83.9731
11
115.713
21
-84.0803
0
LINE
8
Black
10
115.713
20
-84.0803
11
115.853
21
-84.1383
0
LINE
8
Black
10
115.853
20
-84.1383
11
115.992
21
-84.1383
0
LINE
8
Black
10
115.992
20
-84.1383
11
115.992
21
-84.1386
0
LINE
8
Black
10
115.992
20
-84.1386
11
116.031
21
-84.333
0
LINE
8
Black
10
116.031
20
-84.333
11
116.141
21
-84.4978
0
LINE
8
Black
10
116.141
20
-84.4978
11
116.306
21
-84.6079
0
LINE
8
Black
10
116.306
20
-84.6079
11
116.5
21
-84.6466
0
LINE
8
Black
10
116.5
20
-84.6466
11
118.003
21
-84.6466
0
LINE
8
Black
10
118.003
20
-84.6466
11
117.994
21
-84.668
0
LINE
8
Black
10
117.994
20
-84.668
11
117.994
21
-84.8195
0
LINE
8
Black
10
117.994
20
-84.8195
11
117.994
21
-86.12
0
LINE
8
Black
10
117.994
20
-86.12
11
118.052
21
-86.2601
0
LINE
8
Black
10
118.052
20
-86.2601
11
118.159
21
-86.3672
0
LINE
8
Black
10
118.159
20
-86.3672
11
118.299
21
-86.4252
0
LINE
8
Black
10
118.299
20
-86.4252
11
118.451
21
-86.4252
0
LINE
8
Black
10
118.451
20
-86.4252
11
118.665
21
-86.4252
0
LINE
8
Black
10
118.665
20
-86.4252
11
118.665
21
-86.4255
0
LINE
8
Black
10
118.665
20
-86.4255
11
118.703
21
-86.6199
0
LINE
8
Black
10
118.703
20
-86.6199
11
118.813
21
-86.7847
0
LINE
8
Black
10
118.813
20
-86.7847
11
120.091
21
-88.0621
0
LINE
8
Black
10
120.091
20
-88.0621
11
120.091
21
-88.0621
0
LINE
8
Black
10
120.091
20
-88.0621
11
120.256
21
-88.1722
0
LINE
8
Black
10
120.256
20
-88.1722
11
120.256
21
-88.1722
0
LINE
8
Black
10
120.256
20
-88.1722
11
120.288
21
-88.1786
0
LINE
8
Black
10
120.288
20
-88.1786
11
120.45
21
-88.2109
0
LINE
8
Black
10
120.45
20
-88.2109
11
120.662
21
-88.2109
0
LINE
8
Black
10
120.662
20
-88.2109
11
120.853
21
-88.4023
0
LINE
8
Black
10
120.853
20
-88.4023
11
121.156
21
-88.5283
0
LINE
8
Black
10
121.156
20
-88.5283
11
121.485
21
-88.5285
0
LINE
8
Black
10
121.485
20
-88.5285
11
121.788
21
-88.4031
0
LINE
8
Black
10
121.788
20
-88.4031
11
122.021
21
-88.1711
0
LINE
8
Black
10
122.021
20
-88.1711
11
122.147
21
-87.8678
0
LINE
8
Black
10
122.147
20
-87.8678
11
122.147
21
-87.5394
0
LINE
8
Black
10
122.147
20
-87.5394
11
122.022
21
-87.2359
0
LINE
8
Black
10
122.022
20
-87.2359
11
121.79
21
-87.0035
0
LINE
8
Black
10
121.79
20
-87.0035
11
121.486
21
-86.8775
0
LINE
8
Black
10
121.486
20
-86.8775
11
121.158
21
-86.8773
0
LINE
8
Black
10
121.158
20
-86.8773
11
120.854
21
-87.0027
0
LINE
8
Black
10
120.854
20
-87.0027
11
120.662
21
-87.1949
0
LINE
8
Black
10
120.662
20
-87.1949
11
120.661
21
-87.1949
0
LINE
8
Black
10
120.661
20
-87.1949
11
119.891
21
-86.4252
0
LINE
8
Black
10
119.891
20
-86.4252
11
120.046
21
-86.4252
0
LINE
8
Black
10
120.046
20
-86.4252
11
120.144
21
-86.3846
0
LINE
8
Black
10
120.144
20
-86.3846
11
120.242
21
-86.4252
0
LINE
8
Black
10
120.242
20
-86.4252
11
120.394
21
-86.4252
0
LINE
8
Black
10
120.394
20
-86.4252
11
120.694
21
-86.4252
0
LINE
8
Black
10
120.694
20
-86.4252
11
120.834
21
-86.3672
0
LINE
8
Black
10
120.834
20
-86.3672
11
120.941
21
-86.2601
0
LINE
8
Black
10
120.941
20
-86.2601
11
120.999
21
-86.12
0
LINE
8
Black
10
120.999
20
-86.12
11
120.999
21
-85.9685
0
LINE
8
Black
10
120.999
20
-85.9685
11
120.999
21
-85.5345
0
LINE
8
Black
10
120.999
20
-85.5345
11
121.027
21
-85.394
0
LINE
8
Black
10
121.027
20
-85.394
11
121.027
21
-84.7482
0
LINE
8
Black
10
121.027
20
-84.7482
11
122.5
21
-84.7482
0
LINE
8
Black
10
122.5
20
-84.7482
11
122.714
21
-84.7057
0
LINE
8
Black
10
122.714
20
-84.7057
11
122.895
21
-84.5845
0
LINE
8
Black
10
122.895
20
-84.5845
11
123.016
21
-84.4032
0
LINE
8
Black
10
123.016
20
-84.4032
11
123.059
21
-84.1894
0
LINE
8
Black
10
123.059
20
-84.1894
11
123.059
21
-84.1383
0
LINE
8
Black
10
123.059
20
-84.1383
11
123.147
21
-84.1383
0
LINE
8
Black
10
123.147
20
-84.1383
11
123.287
21
-84.0803
0
LINE
8
Black
10
123.287
20
-84.0803
11
123.394
21
-83.9731
0
LINE
8
Black
10
123.394
20
-83.9731
11
123.421
21
-83.9097
0
LINE
8
Black
10
123.421
20
-83.9097
11
123.504
21
-83.9097
0
LINE
8
Black
10
123.504
20
-83.9097
11
123.717
21
-83.8672
0
LINE
8
Black
10
123.717
20
-83.8672
11
123.717
21
-83.8672
0
LINE
8
Black
10
123.717
20
-83.8672
11
123.899
21
-83.746
0
LINE
8
Black
10
123.899
20
-83.746
11
124.044
21
-83.6012
0
LINE
8
Black
10
124.044
20
-83.6012
11
124.548
21
-83.6012
0
LINE
8
Black
10
124.548
20
-83.6012
11
124.548
21
-83.8331
0
LINE
8
Black
10
124.548
20
-83.8331
11
124.606
21
-83.9731
0
LINE
8
Black
10
124.606
20
-83.9731
11
124.713
21
-84.0803
0
LINE
8
Black
10
124.713
20
-84.0803
11
124.853
21
-84.1383
0
LINE
8
Black
10
124.853
20
-84.1383
11
125.004
21
-84.1383
0
LINE
8
Black
10
125.004
20
-84.1383
11
126.147
21
-84.1383
0
LINE
8
Black
10
126.147
20
-84.1383
11
126.287
21
-84.0803
0
LINE
8
Black
10
126.287
20
-84.0803
11
126.394
21
-83.9731
0
LINE
8
Black
10
126.394
20
-83.9731
11
126.453
21
-83.8331
0
LINE
8
Black
10
126.453
20
-83.8331
11
126.453
21
-83.6815
0
LINE
8
Black
10
126.453
20
-83.6815
11
126.453
21
-83.0254
0
LINE
8
Black
10
126.453
20
-83.0254
11
126.453
21
-83.0254
0
LINE
8
Black
10
126.453
20
-83.0254
11
126.629
21
-82.9075
0
LINE
8
Black
10
126.629
20
-82.9075
11
126.901
21
-82.6352
0
LINE
8
Black
10
126.901
20
-82.6352
11
126.901
21
-82.6352
0
LINE
8
Black
10
126.901
20
-82.6352
11
126.962
21
-82.5446
0
LINE
8
Black
10
126.962
20
-82.5446
11
127.022
21
-82.4539
0
LINE
8
Black
10
127.022
20
-82.4539
11
127.022
21
-82.4539
0
LINE
8
Black
10
127.022
20
-82.4539
11
127.065
21
-82.2401
0
LINE
8
Black
10
127.065
20
-82.2401
11
127.065
21
-82.2401
0
LINE
8
Black
10
127.065
20
-82.2401
11
127.065
21
-81.9371
0
LINE
8
Black
10
127.065
20
-81.9371
11
127.152
21
-82.0241
0
LINE
8
Black
10
127.152
20
-82.0241
11
127.502
21
-82.1694
0
LINE
8
Black
10
127.502
20
-82.1694
11
127.881
21
-82.1698
0
LINE
8
Black
10
127.881
20
-82.1698
11
128.231
21
-82.0251
0
LINE
8
Black
10
128.231
20
-82.0251
11
128.499
21
-81.7574
0
LINE
8
Black
10
128.499
20
-81.7574
11
128.644
21
-81.4074
0
LINE
8
Black
10
128.644
20
-81.4074
11
128.645
21
-81.0285
0
LINE
8
Black
10
128.645
20
-81.0285
11
128.5
21
-80.6783
0
LINE
8
Black
10
128.5
20
-80.6783
11
128.4
21
-80.5778
0
LINE
8
Black
10
128.4
20
-80.5778
11
128.516
21
-80.4032
0
LINE
8
Black
10
128.516
20
-80.4032
11
128.516
21
-80.4032
0
LINE
8
Black
10
128.516
20
-80.4032
11
128.559
21
-80.1894
0
LINE
8
Black
10
128.559
20
-80.1894
11
128.559
21
-80.1894
0
LINE
8
Black
10
128.559
20
-80.1894
11
128.559
21
-80.1383
0
LINE
8
Black
10
128.559
20
-80.1383
11
128.647
21
-80.1383
0
LINE
8
Black
10
128.647
20
-80.1383
11
128.787
21
-80.0803
0
LINE
8
Black
10
128.787
20
-80.0803
11
128.894
21
-79.9731
0
LINE
8
Black
10
128.894
20
-79.9731
11
128.953
21
-79.8331
0
LINE
8
Black
10
128.953
20
-79.8331
11
128.953
21
-79.6815
0
LINE
8
Black
10
128.953
20
-79.6815
11
128.953
21
-79.0712
0
LINE
8
Black
10
128.953
20
-79.0712
11
129.548
21
-79.0712
0
LINE
8
Black
10
129.548
20
-79.0712
11
129.548
21
-79.8331
0
LINE
8
Black
10
129.548
20
-79.8331
11
129.606
21
-79.9731
0
LINE
8
Black
10
129.606
20
-79.9731
11
129.713
21
-80.0803
0
LINE
8
Black
10
129.713
20
-80.0803
11
129.853
21
-80.1383
0
LINE
8
Black
10
129.853
20
-80.1383
11
129.992
21
-80.1383
0
LINE
8
Black
10
129.992
20
-80.1383
11
129.992
21
-80.8617
0
LINE
8
Black
10
129.992
20
-80.8617
11
129.853
21
-80.8617
0
LINE
8
Black
10
129.853
20
-80.8617
11
129.713
21
-80.9197
0
LINE
8
Black
10
129.713
20
-80.9197
11
129.606
21
-81.0269
0
LINE
8
Black
10
129.606
20
-81.0269
11
129.548
21
-81.1669
0
LINE
8
Black
10
129.548
20
-81.1669
11
129.548
21
-81.3185
0
LINE
8
Black
10
129.548
20
-81.3185
11
129.548
21
-82.071
0
LINE
8
Black
10
129.548
20
-82.071
11
129.538
21
-82.0776
0
LINE
8
Black
10
129.538
20
-82.0776
11
127.071
21
-84.5445
0
LINE
8
Black
10
127.071
20
-84.5445
11
126.961
21
-84.7093
0
LINE
8
Black
10
126.961
20
-84.7093
11
126.922
21
-84.9037
0
LINE
8
Black
10
126.922
20
-84.9037
11
126.922
21
-90.7162
0
LINE
8
Black
10
126.922
20
-90.7162
11
126.649
21
-90.829
0
LINE
8
Black
10
126.649
20
-90.829
11
126.26
21
-91.217
0
LINE
8
Black
10
126.26
20
-91.217
11
126.16
21
-91.4587
0
LINE
8
Black
10
126.16
20
-91.4587
11
126.061
21
-91.219
0
LINE
8
Black
10
126.061
20
-91.219
11
125.673
21
-90.8304
0
LINE
8
Black
10
125.673
20
-90.8304
11
125.166
21
-90.6198
0
LINE
8
Black
10
125.166
20
-90.6198
11
124.617
21
-90.6193
0
LINE
8
Black
10
124.617
20
-90.6193
11
124.109
21
-90.829
0
LINE
8
Black
10
124.109
20
-90.829
11
123.781
21
-91.1561
0
LINE
8
Black
10
123.781
20
-91.1561
11
123.769
21
-91.126
0
LINE
8
Black
10
123.769
20
-91.126
11
123.502
21
-91.0274
0
LINE
8
Black
10
123.502
20
-91.0274
11
123.323
21
-91.207
0
LINE
8
Black
10
123.323
20
-91.207
11
123.323
21
-90.8478
0
LINE
8
Black
10
123.323
20
-90.8478
11
123.224
21
-90.581
0
LINE
8
Black
10
123.224
20
-90.581
11
122.614
21
-90.3546
0
LINE
8
Black
10
122.614
20
-90.3546
11
121.965
21
-90.3787
0
LINE
8
Black
10
121.965
20
-90.3787
11
121.476
21
-90.581
0
LINE
8
Black
10
121.476
20
-90.581
11
121.377
21
-90.8478
0
LINE
8
Black
10
121.377
20
-90.8478
11
122.35
21
-91.8204
0
LINE
8
Black
10
122.35
20
-91.8204
11
123.323
21
-90.8478
0
LINE
8
Black
10
123.323
20
-90.8478
11
123.323
21
-91.207
0
LINE
8
Black
10
123.323
20
-91.207
11
122.53
21
-92
0
LINE
8
Black
10
122.53
20
-92
11
123.502
21
-92.9726
0
LINE
8
Black
10
123.502
20
-92.9726
11
123.769
21
-92.874
0
LINE
8
Black
10
123.769
20
-92.874
11
123.781
21
-92.8427
0
LINE
8
Black
10
123.781
20
-92.8427
11
124.107
21
-93.1696
0
LINE
8
Black
10
124.107
20
-93.1696
11
124.614
21
-93.3802
0
LINE
8
Black
10
124.614
20
-93.3802
11
125.163
21
-93.3807
0
LINE
8
Black
10
125.163
20
-93.3807
11
125.671
21
-93.171
0
LINE
8
Black
10
125.671
20
-93.171
11
126.06
21
-92.783
0
LINE
8
Black
10
126.06
20
-92.783
11
126.16
21
-92.5413
0
LINE
8
Black
10
126.16
20
-92.5413
11
126.259
21
-92.781
0
LINE
8
Black
10
126.259
20
-92.781
11
126.647
21
-93.1696
0
LINE
8
Black
10
126.647
20
-93.1696
11
127.154
21
-93.3802
0
LINE
8
Black
10
127.154
20
-93.3802
11
127.703
21
-93.3807
0
LINE
8
Black
10
127.703
20
-93.3807
11
128.211
21
-93.171
0
LINE
8
Black
10
128.211
20
-93.171
11
128.6
21
-92.783
0
LINE
8
Black
10
128.6
20
-92.783
11
128.81
21
-92.2758
0
LINE
8
Black
10
128.81
20
-92.2758
11
128.811
21
-91.7266
0
LINE
8
Black
10
128.811
20
-91.7266
11
128.601
21
-91.219
0
LINE
8
Black
10
128.601
20
-91.219
11
128.213
21
-90.8304
0
LINE
8
Black
10
128.213
20
-90.8304
11
127.938
21
-90.7162
0
LINE
8
Black
10
127.938
20
-90.7162
11
127.938
21
-85.1141
0
LINE
8
Black
10
127.938
20
-85.1141
11
129.294
21
-83.7586
0
LINE
8
Black
10
129.294
20
-83.7586
11
129.294
21
-83.8836
0
LINE
8
Black
10
129.294
20
-83.8836
11
129.39
21
-84.117
0
LINE
8
Black
10
129.39
20
-84.117
11
129.569
21
-84.2956
0
LINE
8
Black
10
129.569
20
-84.2956
11
129.802
21
-84.3923
0
LINE
8
Black
10
129.802
20
-84.3923
11
130.055
21
-84.3923
0
LINE
8
Black
10
130.055
20
-84.3923
11
130.214
21
-84.3923
0
LINE
8
Black
10
130.214
20
-84.3923
11
130.373
21
-84.2336
0
LINE
8
Black
10
130.373
20
-84.2336
11
130.373
21
-83.4779
0
LINE
8
Black
10
130.373
20
-83.4779
11
130.353
21
-83.4779
0
LINE
8
Black
10
130.353
20
-83.4779
11
130.353
21
-83.2239
0
LINE
8
Black
10
130.353
20
-83.2239
11
130.373
21
-83.2239
0
LINE
8
Black
10
130.373
20
-83.2239
11
130.373
21
-83.2039
0
LINE
8
Black
10
130.373
20
-83.2039
11
130.627
21
-83.2039
0
LINE
8
Black
10
130.627
20
-83.2039
11
130.627
21
-83.2239
0
LINE
8
Black
10
130.627
20
-83.2239
11
131.548
21
-83.2239
0
LINE
8
Black
10
131.548
20
-83.2239
11
131.707
21
-83.0652
0
LINE
8
Black
10
131.707
20
-83.0652
11
131.707
21
-82.8182
0
LINE
8
Black
10
131.707
20
-82.8182
11
131.61
21
-82.5848
0
LINE
8
Black
10
131.61
20
-82.5848
11
131.431
21
-82.4062
0
LINE
8
Black
10
131.431
20
-82.4062
11
131.31
21
-82.3559
0
LINE
8
Black
10
131.31
20
-82.3559
11
131.394
21
-82.2713
0
LINE
8
Black
10
131.394
20
-82.2713
11
131.453
21
-82.1313
0
LINE
8
Black
10
131.453
20
-82.1313
11
131.453
21
-81.9797
0
LINE
8
Black
10
131.453
20
-81.9797
11
131.453
21
-81.1669
0
LINE
8
Black
10
131.453
20
-81.1669
11
131.394
21
-81.0269
0
LINE
8
Black
10
131.394
20
-81.0269
11
131.287
21
-80.9197
0
LINE
8
Black
10
131.287
20
-80.9197
11
131.147
21
-80.8617
0
LINE
8
Black
10
131.147
20
-80.8617
11
131.008
21
-80.8617
0
LINE
8
Black
10
131.008
20
-80.8617
11
131.008
21
-80.1383
0
LINE
8
Black
10
131.008
20
-80.1383
11
131.147
21
-80.1383
0
LINE
8
Black
10
131.147
20
-80.1383
11
131.287
21
-80.0803
0
LINE
8
Black
10
131.287
20
-80.0803
11
131.394
21
-79.9731
0
LINE
8
Black
10
131.394
20
-79.9731
11
131.453
21
-79.8331
0
LINE
8
Black
10
131.453
20
-79.8331
11
131.453
21
-79.6815
0
LINE
8
Black
10
131.453
20
-79.6815
11
131.453
21
-79.0394
0
LINE
8
Black
10
131.453
20
-79.0394
11
131.506
21
-79.0287
0
LINE
8
Black
10
131.506
20
-79.0287
11
131.506
21
-79.0287
0
LINE
8
Black
10
131.506
20
-79.0287
11
131.688
21
-78.9075
0
LINE
8
Black
10
131.688
20
-78.9075
11
131.899
21
-78.6962
0
LINE
8
Black
10
131.899
20
-78.6962
11
132.02
21
-78.5149
0
LINE
8
Black
10
132.02
20
-78.5149
11
132.02
21
-78.5149
0
LINE
8
Black
10
132.02
20
-78.5149
11
132.062
21
-78.3011
0
LINE
8
Black
10
132.062
20
-78.3011
11
132.063
21
-78.3011
0
LINE
8
Black
10
132.063
20
-78.3011
11
132.063
21
-94.373
0
LINE
8
Black
10
132.063
20
-94.373
11
131.707
21
-94.373
0
LINE
8
Black
10
131.707
20
-94.373
11
131.707
21
-83.8836
0
LINE
8
Black
10
131.707
20
-83.8836
11
131.707
21
-83.6367
0
LINE
8
Black
10
131.707
20
-83.6367
11
131.548
21
-83.4779
0
LINE
8
Black
10
131.548
20
-83.4779
11
130.627
21
-83.4779
0
LINE
8
Black
10
130.627
20
-83.4779
11
130.627
21
-84.2336
0
LINE
8
Black
10
130.627
20
-84.2336
11
130.786
21
-84.3923
0
LINE
8
Black
10
130.786
20
-84.3923
11
130.945
21
-84.3923
0
LINE
8
Black
10
130.945
20
-84.3923
11
131.198
21
-84.3923
0
LINE
8
Black
10
131.198
20
-84.3923
11
131.431
21
-84.2956
0
LINE
8
Black
10
131.431
20
-84.2956
11
131.61
21
-84.117
0
LINE
8
Black
10
131.61
20
-84.117
11
131.707
21
-83.8836
0
LINE
8
Black
10
131.707
20
-83.8836
11
131.707
21
-94.373
0
LINE
8
Black
10
131.707
20
-94.373
11
123.323
21
-94.373
0
LINE
8
Black
10
123.323
20
-94.373
11
123.323
21
-93.1522
0
LINE
8
Black
10
123.323
20
-93.1522
11
122.35
21
-92.1796
0
LINE
8
Black
10
122.35
20
-92.1796
11
121.377
21
-93.1522
0
LINE
8
Black
10
121.377
20
-93.1522
11
121.476
21
-93.419
0
LINE
8
Black
10
121.476
20
-93.419
11
122.086
21
-93.6454
0
LINE
8
Black
10
122.086
20
-93.6454
11
122.735
21
-93.6213
0
LINE
8
Black
10
122.735
20
-93.6213
11
123.224
21
-93.419
0
LINE
8
Black
10
123.224
20
-93.419
11
123.323
21
-93.1522
0
LINE
8
Black
10
123.323
20
-93.1522
11
123.323
21
-94.373
0
LINE
8
Black
10
123.323
20
-94.373
11
115.703
21
-94.373
0
LINE
8
Black
10
115.703
20
-94.373
11
115.703
21
-93.1522
0
LINE
8
Black
10
115.703
20
-93.1522
11
114.73
21
-92.1796
0
LINE
8
Black
10
114.73
20
-92.1796
11
113.757
21
-93.1522
0
LINE
8
Black
10
113.757
20
-93.1522
11
113.856
21
-93.419
0
LINE
8
Black
10
113.856
20
-93.419
11
114.466
21
-93.6454
0
LINE
8
Black
10
114.466
20
-93.6454
11
115.115
21
-93.6213
0
LINE
8
Black
10
115.115
20
-93.6213
11
115.604
21
-93.419
0
LINE
8
Black
10
115.604
20
-93.419
11
115.703
21
-93.1522
0
LINE
8
Black
10
115.703
20
-93.1522
11
115.703
21
-94.373
0
LINE
8
Black
10
115.703
20
-94.373
11
98.127
21
-94.373
0
LINE
8
Black
10
98.127
20
-94.373
11
98.127
21
-74.627
0
LINE
8
Black
10
98.127
20
-74.627
11
132.873
21
-74.627
0
LINE
8
Black
10
132.873
20
-74.627
11
132.873
21
-94.373
  0
ENDSEC
  0
EOF
