  0
SECTION
  2
HEADER
  9
$ANGBASE
  50
0.0
  9
$ANGDIR
  70
  1
  9
$MEASUREMENT
  70
0
  0
ENDSEC
  0
SECTION
  2
TABLES
  0
TABLE
  2
LTYPE
  70
1
  0
LTYPE
  2
CONTINUOUS
  70
0
  3
Solid line
  72
65
  73
0
  40
0.0
  0
ENDTAB
  0
TABLE
  2
STYLE
  70
4
  0
STYLE
  2
KICAD
  70
0
  40
0
  41
1
  42
1
  50
0
  71
0
  3
isocp.shx
  0
STYLE
  2
KICADB
  70
0
  40
0
  41
1
  42
1
  50
0
  71
0
  3
isocp.shx
  0
STYLE
  2
KICADI
  70
0
  40
0
  41
1
  42
1
  50
15
  71
0
  3
isocp.shx
  0
STYLE
  2
KICADBI
  70
0
  40
0
  41
1
  42
1
  50
15
  71
0
  3
isocp.shx
  0
ENDTAB
  0
TABLE
  2
LAYER
  70
30
  0
LAYER
  2
BLACK
  70
0
  62
7
  6
CONTINUOUS
  0
LAYER
  2
GRAY1
  70
0
  62
251
  6
CONTINUOUS
  0
LAYER
  2
GRAY2
  70
0
  62
8
  6
CONTINUOUS
  0
LAYER
  2
GRAY3
  70
0
  62
9
  6
CONTINUOUS
  0
LAYER
  2
WHITE
  70
0
  62
7
  6
CONTINUOUS
  0
LAYER
  2
LYELLOW
  70
0
  62
51
  6
CONTINUOUS
  0
LAYER
  2
BLUE1
  70
0
  62
178
  6
CONTINUOUS
  0
LAYER
  2
GREEN1
  70
0
  62
98
  6
CONTINUOUS
  0
LAYER
  2
CYAN1
  70
0
  62
138
  6
CONTINUOUS
  0
LAYER
  2
RED1
  70
0
  62
18
  6
CONTINUOUS
  0
LAYER
  2
MAGENTA1
  70
0
  62
228
  6
CONTINUOUS
  0
LAYER
  2
BROWN1
  70
0
  62
58
  6
CONTINUOUS
  0
LAYER
  2
BLUE2
  70
0
  62
5
  6
CONTINUOUS
  0
LAYER
  2
GREEN2
  70
0
  62
3
  6
CONTINUOUS
  0
LAYER
  2
CYAN2
  70
0
  62
4
  6
CONTINUOUS
  0
LAYER
  2
RED2
  70
0
  62
1
  6
CONTINUOUS
  0
LAYER
  2
MAGENTA2
  70
0
  62
6
  6
CONTINUOUS
  0
LAYER
  2
BROWN2
  70
0
  62
54
  6
CONTINUOUS
  0
LAYER
  2
BLUE3
  70
0
  62
171
  6
CONTINUOUS
  0
LAYER
  2
GREEN3
  70
0
  62
91
  6
CONTINUOUS
  0
LAYER
  2
CYAN3
  70
0
  62
131
  6
CONTINUOUS
  0
LAYER
  2
RED3
  70
0
  62
11
  6
CONTINUOUS
  0
LAYER
  2
MAGENTA3
  70
0
  62
221
  6
CONTINUOUS
  0
LAYER
  2
YELLOW3
  70
0
  62
2
  6
CONTINUOUS
  0
LAYER
  2
BLUE4
  70
0
  62
5
  6
CONTINUOUS
  0
LAYER
  2
GREEN4
  70
0
  62
3
  6
CONTINUOUS
  0
LAYER
  2
CYAN4
  70
0
  62
4
  6
CONTINUOUS
  0
LAYER
  2
RED4
  70
0
  62
1
  6
CONTINUOUS
  0
LAYER
  2
MAGENTA4
  70
0
  62
6
  6
CONTINUOUS
  0
LAYER
  2
YELLOW4
  70
0
  62
2
  6
CONTINUOUS
  0
ENDTAB
  0
ENDSEC
  0
SECTION
  2
ENTITIES
0
LINE
8
Black
10
120.605
20
-80.4562
11
120.605
21
-79.1558
0
LINE
8
Black
10
120.605
20
-79.1558
11
120.306
21
-79.1558
0
LINE
8
Black
10
120.306
20
-79.1558
11
120.306
21
-80.4562
0
LINE
8
Black
10
120.306
20
-80.4562
11
120.605
21
-80.4562
0
LINE
8
Black
10
119.97
20
-80.4562
11
119.97
21
-79.1558
0
LINE
8
Black
10
119.97
20
-79.1558
11
119.671
21
-79.1558
0
LINE
8
Black
10
119.671
20
-79.1558
11
119.671
21
-80.4562
0
LINE
8
Black
10
119.671
20
-80.4562
11
119.97
21
-80.4562
0
LINE
8
Black
10
119.31
20
-80.4562
11
119.31
21
-79.1558
0
LINE
8
Black
10
119.31
20
-79.1558
11
119.01
21
-79.1558
0
LINE
8
Black
10
119.01
20
-79.1558
11
119.01
21
-80.4562
0
LINE
8
Black
10
119.01
20
-80.4562
11
119.31
21
-80.4562
0
LINE
8
Black
10
118.675
20
-80.4562
11
118.675
21
-79.1558
0
LINE
8
Black
10
118.675
20
-79.1558
11
118.375
21
-79.1558
0
LINE
8
Black
10
118.375
20
-79.1558
11
118.375
21
-80.4562
0
LINE
8
Black
10
118.375
20
-80.4562
11
118.675
21
-80.4562
0
LINE
8
Black
10
118.675
20
-86.0442
11
118.675
21
-84.7438
0
LINE
8
Black
10
118.675
20
-84.7438
11
118.375
21
-84.7438
0
LINE
8
Black
10
118.375
20
-84.7438
11
118.375
21
-86.0442
0
LINE
8
Black
10
118.375
20
-86.0442
11
118.675
21
-86.0442
0
LINE
8
Black
10
119.323
20
-86.0442
11
119.323
21
-84.7438
0
LINE
8
Black
10
119.323
20
-84.7438
11
119.023
21
-84.7438
0
LINE
8
Black
10
119.023
20
-84.7438
11
119.023
21
-86.0442
0
LINE
8
Black
10
119.023
20
-86.0442
11
119.323
21
-86.0442
0
LINE
8
Black
10
119.97
20
-86.0442
11
119.97
21
-84.7438
0
LINE
8
Black
10
119.97
20
-84.7438
11
119.671
21
-84.7438
0
LINE
8
Black
10
119.671
20
-84.7438
11
119.671
21
-86.0442
0
LINE
8
Black
10
119.671
20
-86.0442
11
119.97
21
-86.0442
0
LINE
8
Black
10
120.618
20
-86.0442
11
120.618
21
-84.7438
0
LINE
8
Black
10
120.618
20
-84.7438
11
120.318
21
-84.7438
0
LINE
8
Black
10
120.318
20
-84.7438
11
120.318
21
-86.0442
0
LINE
8
Black
10
120.318
20
-86.0442
11
120.618
21
-86.0442
0
LINE
8
Black
10
109.034
20
-85.1641
11
109.034
21
-86.4341
0
LINE
8
Black
10
109.034
20
-86.4341
11
109.415
21
-86.4341
0
LINE
8
Black
10
109.415
20
-86.4341
11
109.415
21
-85.1641
0
LINE
8
Black
10
109.415
20
-85.1641
11
109.034
21
-85.1641
0
LINE
8
Black
10
109.684
20
-85.1641
11
109.684
21
-86.4341
0
LINE
8
Black
10
109.684
20
-86.4341
11
110.065
21
-86.4341
0
LINE
8
Black
10
110.065
20
-86.4341
11
110.065
21
-85.1641
0
LINE
8
Black
10
110.065
20
-85.1641
11
109.684
21
-85.1641
0
LINE
8
Black
10
110.334
20
-85.1641
11
110.334
21
-86.4341
0
LINE
8
Black
10
110.334
20
-86.4341
11
110.715
21
-86.4341
0
LINE
8
Black
10
110.715
20
-86.4341
11
110.715
21
-85.1641
0
LINE
8
Black
10
110.715
20
-85.1641
11
110.334
21
-85.1641
0
LINE
8
Black
10
110.984
20
-85.1641
11
110.984
21
-86.4341
0
LINE
8
Black
10
110.984
20
-86.4341
11
111.365
21
-86.4341
0
LINE
8
Black
10
111.365
20
-86.4341
11
111.365
21
-85.1641
0
LINE
8
Black
10
111.365
20
-85.1641
11
110.984
21
-85.1641
0
LINE
8
Black
10
111.635
20
-85.1641
11
111.635
21
-86.4341
0
LINE
8
Black
10
111.635
20
-86.4341
11
112.016
21
-86.4341
0
LINE
8
Black
10
112.016
20
-86.4341
11
112.016
21
-85.1641
0
LINE
8
Black
10
112.016
20
-85.1641
11
111.635
21
-85.1641
0
LINE
8
Black
10
112.285
20
-85.1641
11
112.285
21
-86.4341
0
LINE
8
Black
10
112.285
20
-86.4341
11
112.666
21
-86.4341
0
LINE
8
Black
10
112.666
20
-86.4341
11
112.666
21
-85.1641
0
LINE
8
Black
10
112.666
20
-85.1641
11
112.285
21
-85.1641
0
LINE
8
Black
10
112.935
20
-85.1641
11
112.935
21
-86.4341
0
LINE
8
Black
10
112.935
20
-86.4341
11
113.316
21
-86.4341
0
LINE
8
Black
10
113.316
20
-86.4341
11
113.316
21
-85.1641
0
LINE
8
Black
10
113.316
20
-85.1641
11
112.935
21
-85.1641
0
LINE
8
Black
10
113.585
20
-85.1641
11
113.585
21
-86.4341
0
LINE
8
Black
10
113.585
20
-86.4341
11
113.966
21
-86.4341
0
LINE
8
Black
10
113.966
20
-86.4341
11
113.966
21
-85.1641
0
LINE
8
Black
10
113.966
20
-85.1641
11
113.585
21
-85.1641
0
LINE
8
Black
10
113.585
20
-79.5659
11
113.585
21
-80.8359
0
LINE
8
Black
10
113.585
20
-80.8359
11
113.966
21
-80.8359
0
LINE
8
Black
10
113.966
20
-80.8359
11
113.966
21
-79.5659
0
LINE
8
Black
10
113.966
20
-79.5659
11
113.585
21
-79.5659
0
LINE
8
Black
10
112.935
20
-79.5659
11
112.935
21
-80.8359
0
LINE
8
Black
10
112.935
20
-80.8359
11
113.316
21
-80.8359
0
LINE
8
Black
10
113.316
20
-80.8359
11
113.316
21
-79.5659
0
LINE
8
Black
10
113.316
20
-79.5659
11
112.935
21
-79.5659
0
LINE
8
Black
10
112.285
20
-79.5659
11
112.285
21
-80.8359
0
LINE
8
Black
10
112.285
20
-80.8359
11
112.666
21
-80.8359
0
LINE
8
Black
10
112.666
20
-80.8359
11
112.666
21
-79.5659
0
LINE
8
Black
10
112.666
20
-79.5659
11
112.285
21
-79.5659
0
LINE
8
Black
10
111.635
20
-79.5659
11
111.635
21
-80.8359
0
LINE
8
Black
10
111.635
20
-80.8359
11
112.016
21
-80.8359
0
LINE
8
Black
10
112.016
20
-80.8359
11
112.016
21
-79.5659
0
LINE
8
Black
10
112.016
20
-79.5659
11
111.635
21
-79.5659
0
LINE
8
Black
10
110.984
20
-79.5659
11
110.984
21
-80.8359
0
LINE
8
Black
10
110.984
20
-80.8359
11
111.365
21
-80.8359
0
LINE
8
Black
10
111.365
20
-80.8359
11
111.365
21
-79.5659
0
LINE
8
Black
10
111.365
20
-79.5659
11
110.984
21
-79.5659
0
LINE
8
Black
10
110.334
20
-79.5659
11
110.334
21
-80.8359
0
LINE
8
Black
10
110.334
20
-80.8359
11
110.715
21
-80.8359
0
LINE
8
Black
10
110.715
20
-80.8359
11
110.715
21
-79.5659
0
LINE
8
Black
10
110.715
20
-79.5659
11
110.334
21
-79.5659
0
LINE
8
Black
10
109.684
20
-79.5659
11
109.684
21
-80.8359
0
LINE
8
Black
10
109.684
20
-80.8359
11
110.065
21
-80.8359
0
LINE
8
Black
10
110.065
20
-80.8359
11
110.065
21
-79.5659
0
LINE
8
Black
10
110.065
20
-79.5659
11
109.684
21
-79.5659
0
LINE
8
Black
10
109.034
20
-79.5659
11
109.034
21
-80.8359
0
LINE
8
Black
10
109.034
20
-80.8359
11
109.415
21
-80.8359
0
LINE
8
Black
10
109.415
20
-80.8359
11
109.415
21
-79.5659
0
LINE
8
Black
10
109.415
20
-79.5659
11
109.034
21
-79.5659
0
LINE
8
Black
10
114.23
20
-77.3505
11
115.23
21
-77.3505
0
LINE
8
Black
10
115.23
20
-77.3505
11
115.23
21
-76.6495
0
LINE
8
Black
10
115.23
20
-76.6495
11
114.23
21
-76.6495
0
LINE
8
Black
10
114.23
20
-76.6495
11
114.23
21
-77.3505
0
LINE
8
Black
10
116.77
20
-76.398
11
117.77
21
-76.398
0
LINE
8
Black
10
117.77
20
-76.398
11
117.77
21
-75.697
0
LINE
8
Black
10
117.77
20
-75.697
11
116.77
21
-75.697
0
LINE
8
Black
10
116.77
20
-75.697
11
116.77
21
-76.398
0
LINE
8
Black
10
116.77
20
-78.303
11
117.77
21
-78.303
0
LINE
8
Black
10
117.77
20
-78.303
11
117.77
21
-77.602
0
LINE
8
Black
10
117.77
20
-77.602
11
116.77
21
-77.602
0
LINE
8
Black
10
116.77
20
-77.602
11
116.77
21
-78.303
0
LINE
8
Black
10
128.572
20
-77.2427
11
127.429
21
-77.2427
0
LINE
8
Black
10
127.429
20
-77.2427
11
127.429
21
-78.0555
0
LINE
8
Black
10
127.429
20
-78.0555
11
128.572
21
-78.0555
0
LINE
8
Black
10
128.572
20
-78.0555
11
128.572
21
-77.2427
0
LINE
8
Black
10
128.572
20
-78.9445
11
127.429
21
-78.9445
0
LINE
8
Black
10
127.429
20
-78.9445
11
127.429
21
-79.7573
0
LINE
8
Black
10
127.429
20
-79.7573
11
128.572
21
-79.7573
0
LINE
8
Black
10
128.572
20
-79.7573
11
128.572
21
-78.9445
0
LINE
8
Black
10
121.929
20
-79.7573
11
123.072
21
-79.7573
0
LINE
8
Black
10
123.072
20
-79.7573
11
123.072
21
-78.9445
0
LINE
8
Black
10
123.072
20
-78.9445
11
121.929
21
-78.9445
0
LINE
8
Black
10
121.929
20
-78.9445
11
121.929
21
-79.7573
0
LINE
8
Black
10
121.929
20
-78.0555
11
123.072
21
-78.0555
0
LINE
8
Black
10
123.072
20
-78.0555
11
123.072
21
-77.2427
0
LINE
8
Black
10
123.072
20
-77.2427
11
121.929
21
-77.2427
0
LINE
8
Black
10
121.929
20
-77.2427
11
121.929
21
-78.0555
0
LINE
8
Black
10
124.929
20
-79.7573
11
126.072
21
-79.7573
0
LINE
8
Black
10
126.072
20
-79.7573
11
126.072
21
-78.9445
0
LINE
8
Black
10
126.072
20
-78.9445
11
124.929
21
-78.9445
0
LINE
8
Black
10
124.929
20
-78.9445
11
124.929
21
-79.7573
0
LINE
8
Black
10
124.929
20
-78.0555
11
126.072
21
-78.0555
0
LINE
8
Black
10
126.072
20
-78.0555
11
126.072
21
-77.2427
0
LINE
8
Black
10
126.072
20
-77.2427
11
124.929
21
-77.2427
0
LINE
8
Black
10
124.929
20
-77.2427
11
124.929
21
-78.0555
0
LINE
8
Black
10
115.929
20
-83.7573
11
117.072
21
-83.7573
0
LINE
8
Black
10
117.072
20
-83.7573
11
117.072
21
-82.9445
0
LINE
8
Black
10
117.072
20
-82.9445
11
115.929
21
-82.9445
0
LINE
8
Black
10
115.929
20
-82.9445
11
115.929
21
-83.7573
0
LINE
8
Black
10
115.929
20
-82.0555
11
117.072
21
-82.0555
0
LINE
8
Black
10
117.072
20
-82.0555
11
117.072
21
-81.2427
0
LINE
8
Black
10
117.072
20
-81.2427
11
115.929
21
-81.2427
0
LINE
8
Black
10
115.929
20
-81.2427
11
115.929
21
-82.0555
0
LINE
8
Black
10
121.929
20
-83.7573
11
123.072
21
-83.7573
0
LINE
8
Black
10
123.072
20
-83.7573
11
123.072
21
-82.9445
0
LINE
8
Black
10
123.072
20
-82.9445
11
121.929
21
-82.9445
0
LINE
8
Black
10
121.929
20
-82.9445
11
121.929
21
-83.7573
0
LINE
8
Black
10
121.929
20
-82.0555
11
123.072
21
-82.0555
0
LINE
8
Black
10
123.072
20
-82.0555
11
123.072
21
-81.2427
0
LINE
8
Black
10
123.072
20
-81.2427
11
121.929
21
-81.2427
0
LINE
8
Black
10
121.929
20
-81.2427
11
121.929
21
-82.0555
0
LINE
8
Black
10
131.072
20
-81.2427
11
129.929
21
-81.2427
0
LINE
8
Black
10
129.929
20
-81.2427
11
129.929
21
-82.0555
0
LINE
8
Black
10
129.929
20
-82.0555
11
131.072
21
-82.0555
0
LINE
8
Black
10
131.072
20
-82.0555
11
131.072
21
-81.2427
0
LINE
8
Black
10
131.072
20
-82.9445
11
129.929
21
-82.9445
0
LINE
8
Black
10
129.929
20
-82.9445
11
129.929
21
-83.7573
0
LINE
8
Black
10
129.929
20
-83.7573
11
131.072
21
-83.7573
0
LINE
8
Black
10
131.072
20
-83.7573
11
131.072
21
-82.9445
0
LINE
8
Black
10
131.072
20
-77.2427
11
129.929
21
-77.2427
0
LINE
8
Black
10
129.929
20
-77.2427
11
129.929
21
-78.0555
0
LINE
8
Black
10
129.929
20
-78.0555
11
131.072
21
-78.0555
0
LINE
8
Black
10
131.072
20
-78.0555
11
131.072
21
-77.2427
0
LINE
8
Black
10
131.072
20
-78.9445
11
129.929
21
-78.9445
0
LINE
8
Black
10
129.929
20
-78.9445
11
129.929
21
-79.7573
0
LINE
8
Black
10
129.929
20
-79.7573
11
131.072
21
-79.7573
0
LINE
8
Black
10
131.072
20
-79.7573
11
131.072
21
-78.9445
0
LINE
8
Black
10
126.072
20
-81.2427
11
124.929
21
-81.2427
0
LINE
8
Black
10
124.929
20
-81.2427
11
124.929
21
-82.0555
0
LINE
8
Black
10
124.929
20
-82.0555
11
126.072
21
-82.0555
0
LINE
8
Black
10
126.072
20
-82.0555
11
126.072
21
-81.2427
0
LINE
8
Black
10
126.072
20
-82.9445
11
124.929
21
-82.9445
0
LINE
8
Black
10
124.929
20
-82.9445
11
124.929
21
-83.7573
0
LINE
8
Black
10
124.929
20
-83.7573
11
126.072
21
-83.7573
0
LINE
8
Black
10
126.072
20
-83.7573
11
126.072
21
-82.9445
0
LINE
8
Black
10
110.572
20
-75.7427
11
109.429
21
-75.7427
0
LINE
8
Black
10
109.429
20
-75.7427
11
109.429
21
-76.5555
0
LINE
8
Black
10
109.429
20
-76.5555
11
110.572
21
-76.5555
0
LINE
8
Black
10
110.572
20
-76.5555
11
110.572
21
-75.7427
0
LINE
8
Black
10
110.572
20
-77.4445
11
109.429
21
-77.4445
0
LINE
8
Black
10
109.429
20
-77.4445
11
109.429
21
-78.2573
0
LINE
8
Black
10
109.429
20
-78.2573
11
110.572
21
-78.2573
0
LINE
8
Black
10
110.572
20
-78.2573
11
110.572
21
-77.4445
0
LINE
8
Black
10
103.571
20
-91.0005
11
103.571
21
-92.9995
0
LINE
8
Black
10
103.571
20
-92.9995
11
105.569
21
-92.9995
0
LINE
8
Black
10
105.569
20
-92.9995
11
105.569
21
-91.0005
0
LINE
8
Black
10
105.569
20
-91.0005
11
103.571
21
-91.0005
0
CIRCLE
8
Black
10
107.11
20
-92
40
0.99949
0
CIRCLE
8
Black
10
109.65
20
-92
40
0.99949
0
CIRCLE
8
Black
10
112.19
20
-92
40
0.99949
0
CIRCLE
8
Black
10
114.73
20
-92
40
0.99949
0
CIRCLE
8
Black
10
117.27
20
-92
40
0.99949
0
CIRCLE
8
Black
10
119.81
20
-92
40
0.99949
0
CIRCLE
8
Black
10
122.35
20
-92
40
0.99949
0
CIRCLE
8
Black
10
124.89
20
-92
40
0.99949
0
CIRCLE
8
Black
10
127.43
20
-92
40
0.99949
0
LINE
8
Black
10
103.929
20
-89.7573
11
105.072
21
-89.7573
0
LINE
8
Black
10
105.072
20
-89.7573
11
105.072
21
-88.9445
0
LINE
8
Black
10
105.072
20
-88.9445
11
103.929
21
-88.9445
0
LINE
8
Black
10
103.929
20
-88.9445
11
103.929
21
-89.7573
0
LINE
8
Black
10
103.929
20
-88.0555
11
105.072
21
-88.0555
0
LINE
8
Black
10
105.072
20
-88.0555
11
105.072
21
-87.2427
0
LINE
8
Black
10
105.072
20
-87.2427
11
103.929
21
-87.2427
0
LINE
8
Black
10
103.929
20
-87.2427
11
103.929
21
-88.0555
0
LINE
8
Black
10
110.072
20
-87.2427
11
108.929
21
-87.2427
0
LINE
8
Black
10
108.929
20
-87.2427
11
108.929
21
-88.0555
0
LINE
8
Black
10
108.929
20
-88.0555
11
110.072
21
-88.0555
0
LINE
8
Black
10
110.072
20
-88.0555
11
110.072
21
-87.2427
0
LINE
8
Black
10
110.072
20
-88.9445
11
108.929
21
-88.9445
0
LINE
8
Black
10
108.929
20
-88.9445
11
108.929
21
-89.7573
0
LINE
8
Black
10
108.929
20
-89.7573
11
110.072
21
-89.7573
0
LINE
8
Black
10
110.072
20
-89.7573
11
110.072
21
-88.9445
  0
ENDSEC
  0
EOF
