  0
SECTION
  2
HEADER
  9
$ANGBASE
  50
0.0
  9
$ANGDIR
  70
  1
  9
$MEASUREMENT
  70
0
  0
ENDSEC
  0
SECTION
  2
TABLES
  0
TABLE
  2
LTYPE
  70
1
  0
LTYPE
  2
CONTINUOUS
  70
0
  3
Solid line
  72
65
  73
0
  40
0.0
  0
ENDTAB
  0
TABLE
  2
STYLE
  70
4
  0
STYLE
  2
KICAD
  70
0
  40
0
  41
1
  42
1
  50
0
  71
0
  3
isocp.shx
  0
STYLE
  2
KICADB
  70
0
  40
0
  41
1
  42
1
  50
0
  71
0
  3
isocp.shx
  0
STYLE
  2
KICADI
  70
0
  40
0
  41
1
  42
1
  50
15
  71
0
  3
isocp.shx
  0
STYLE
  2
KICADBI
  70
0
  40
0
  41
1
  42
1
  50
15
  71
0
  3
isocp.shx
  0
ENDTAB
  0
TABLE
  2
LAYER
  70
30
  0
LAYER
  2
BLACK
  70
0
  62
7
  6
CONTINUOUS
  0
LAYER
  2
GRAY1
  70
0
  62
251
  6
CONTINUOUS
  0
LAYER
  2
GRAY2
  70
0
  62
8
  6
CONTINUOUS
  0
LAYER
  2
GRAY3
  70
0
  62
9
  6
CONTINUOUS
  0
LAYER
  2
WHITE
  70
0
  62
7
  6
CONTINUOUS
  0
LAYER
  2
LYELLOW
  70
0
  62
51
  6
CONTINUOUS
  0
LAYER
  2
BLUE1
  70
0
  62
178
  6
CONTINUOUS
  0
LAYER
  2
GREEN1
  70
0
  62
98
  6
CONTINUOUS
  0
LAYER
  2
CYAN1
  70
0
  62
138
  6
CONTINUOUS
  0
LAYER
  2
RED1
  70
0
  62
18
  6
CONTINUOUS
  0
LAYER
  2
MAGENTA1
  70
0
  62
228
  6
CONTINUOUS
  0
LAYER
  2
BROWN1
  70
0
  62
58
  6
CONTINUOUS
  0
LAYER
  2
BLUE2
  70
0
  62
5
  6
CONTINUOUS
  0
LAYER
  2
GREEN2
  70
0
  62
3
  6
CONTINUOUS
  0
LAYER
  2
CYAN2
  70
0
  62
4
  6
CONTINUOUS
  0
LAYER
  2
RED2
  70
0
  62
1
  6
CONTINUOUS
  0
LAYER
  2
MAGENTA2
  70
0
  62
6
  6
CONTINUOUS
  0
LAYER
  2
BROWN2
  70
0
  62
54
  6
CONTINUOUS
  0
LAYER
  2
BLUE3
  70
0
  62
171
  6
CONTINUOUS
  0
LAYER
  2
GREEN3
  70
0
  62
91
  6
CONTINUOUS
  0
LAYER
  2
CYAN3
  70
0
  62
131
  6
CONTINUOUS
  0
LAYER
  2
RED3
  70
0
  62
11
  6
CONTINUOUS
  0
LAYER
  2
MAGENTA3
  70
0
  62
221
  6
CONTINUOUS
  0
LAYER
  2
YELLOW3
  70
0
  62
2
  6
CONTINUOUS
  0
LAYER
  2
BLUE4
  70
0
  62
5
  6
CONTINUOUS
  0
LAYER
  2
GREEN4
  70
0
  62
3
  6
CONTINUOUS
  0
LAYER
  2
CYAN4
  70
0
  62
4
  6
CONTINUOUS
  0
LAYER
  2
RED4
  70
0
  62
1
  6
CONTINUOUS
  0
LAYER
  2
MAGENTA4
  70
0
  62
6
  6
CONTINUOUS
  0
LAYER
  2
YELLOW4
  70
0
  62
2
  6
CONTINUOUS
  0
ENDTAB
  0
ENDSEC
  0
SECTION
  2
ENTITIES
0
LINE
8
Black
10
104.056
20
-85.0803
11
105.356
21
-85.0803
0
LINE
8
Black
10
105.356
20
-85.0803
11
105.356
21
-84.7805
0
LINE
8
Black
10
105.356
20
-84.7805
11
104.056
21
-84.7805
0
LINE
8
Black
10
104.056
20
-84.7805
11
104.056
21
-85.0803
0
LINE
8
Black
10
104.056
20
-84.4453
11
105.356
21
-84.4453
0
LINE
8
Black
10
105.356
20
-84.4453
11
105.356
21
-84.1455
0
LINE
8
Black
10
105.356
20
-84.1455
11
104.056
21
-84.1455
0
LINE
8
Black
10
104.056
20
-84.1455
11
104.056
21
-84.4453
0
LINE
8
Black
10
104.056
20
-83.7849
11
105.356
21
-83.7849
0
LINE
8
Black
10
105.356
20
-83.7849
11
105.356
21
-83.4851
0
LINE
8
Black
10
105.356
20
-83.4851
11
104.056
21
-83.4851
0
LINE
8
Black
10
104.056
20
-83.4851
11
104.056
21
-83.7849
0
LINE
8
Black
10
104.056
20
-83.1499
11
105.356
21
-83.1499
0
LINE
8
Black
10
105.356
20
-83.1499
11
105.356
21
-82.8501
0
LINE
8
Black
10
105.356
20
-82.8501
11
104.056
21
-82.8501
0
LINE
8
Black
10
104.056
20
-82.8501
11
104.056
21
-83.1499
0
LINE
8
Black
10
104.056
20
-82.4895
11
105.356
21
-82.4895
0
LINE
8
Black
10
105.356
20
-82.4895
11
105.356
21
-82.1897
0
LINE
8
Black
10
105.356
20
-82.1897
11
104.056
21
-82.1897
0
LINE
8
Black
10
104.056
20
-82.1897
11
104.056
21
-82.4895
0
LINE
8
Black
10
104.056
20
-81.8418
11
105.356
21
-81.8418
0
LINE
8
Black
10
105.356
20
-81.8418
11
105.356
21
-81.542
0
LINE
8
Black
10
105.356
20
-81.542
11
104.056
21
-81.542
0
LINE
8
Black
10
104.056
20
-81.542
11
104.056
21
-81.8418
0
LINE
8
Black
10
104.056
20
-81.1941
11
105.356
21
-81.1941
0
LINE
8
Black
10
105.356
20
-81.1941
11
105.356
21
-80.8943
0
LINE
8
Black
10
105.356
20
-80.8943
11
104.056
21
-80.8943
0
LINE
8
Black
10
104.056
20
-80.8943
11
104.056
21
-81.1941
0
LINE
8
Black
10
109.644
20
-81.1941
11
110.944
21
-81.1941
0
LINE
8
Black
10
110.944
20
-81.1941
11
110.944
21
-80.8943
0
LINE
8
Black
10
110.944
20
-80.8943
11
109.644
21
-80.8943
0
LINE
8
Black
10
109.644
20
-80.8943
11
109.644
21
-81.1941
0
LINE
8
Black
10
109.644
20
-81.8418
11
110.944
21
-81.8418
0
LINE
8
Black
10
110.944
20
-81.8418
11
110.944
21
-81.542
0
LINE
8
Black
10
110.944
20
-81.542
11
109.644
21
-81.542
0
LINE
8
Black
10
109.644
20
-81.542
11
109.644
21
-81.8418
0
LINE
8
Black
10
109.644
20
-82.4895
11
110.944
21
-82.4895
0
LINE
8
Black
10
110.944
20
-82.4895
11
110.944
21
-82.1897
0
LINE
8
Black
10
110.944
20
-82.1897
11
109.644
21
-82.1897
0
LINE
8
Black
10
109.644
20
-82.1897
11
109.644
21
-82.4895
0
LINE
8
Black
10
109.644
20
-83.1499
11
110.944
21
-83.1499
0
LINE
8
Black
10
110.944
20
-83.1499
11
110.944
21
-82.8501
0
LINE
8
Black
10
110.944
20
-82.8501
11
109.644
21
-82.8501
0
LINE
8
Black
10
109.644
20
-82.8501
11
109.644
21
-83.1499
0
LINE
8
Black
10
109.644
20
-83.7976
11
110.944
21
-83.7976
0
LINE
8
Black
10
110.944
20
-83.7976
11
110.944
21
-83.4978
0
LINE
8
Black
10
110.944
20
-83.4978
11
109.644
21
-83.4978
0
LINE
8
Black
10
109.644
20
-83.4978
11
109.644
21
-83.7976
0
LINE
8
Black
10
109.644
20
-84.4453
11
110.944
21
-84.4453
0
LINE
8
Black
10
110.944
20
-84.4453
11
110.944
21
-84.1455
0
LINE
8
Black
10
110.944
20
-84.1455
11
109.644
21
-84.1455
0
LINE
8
Black
10
109.644
20
-84.1455
11
109.644
21
-84.4453
0
LINE
8
Black
10
109.644
20
-85.093
11
110.944
21
-85.093
0
LINE
8
Black
10
110.944
20
-85.093
11
110.944
21
-84.7932
0
LINE
8
Black
10
110.944
20
-84.7932
11
109.644
21
-84.7932
0
LINE
8
Black
10
109.644
20
-84.7932
11
109.644
21
-85.093
0
LINE
8
Black
10
119.196
20
-84.1529
11
118.399
21
-84.1529
0
LINE
8
Black
10
118.399
20
-84.1529
11
118.399
21
-84.5517
0
LINE
8
Black
10
118.399
20
-84.5517
11
119.196
21
-84.5517
0
LINE
8
Black
10
119.196
20
-84.5517
11
119.196
21
-84.1529
0
LINE
8
Black
10
119.196
20
-84.8006
11
118.399
21
-84.8006
0
LINE
8
Black
10
118.399
20
-84.8006
11
118.399
21
-85.1994
0
LINE
8
Black
10
118.399
20
-85.1994
11
119.196
21
-85.1994
0
LINE
8
Black
10
119.196
20
-85.1994
11
119.196
21
-84.8006
0
LINE
8
Black
10
119.196
20
-85.4483
11
118.399
21
-85.4483
0
LINE
8
Black
10
118.399
20
-85.4483
11
118.399
21
-85.8471
0
LINE
8
Black
10
118.399
20
-85.8471
11
119.196
21
-85.8471
0
LINE
8
Black
10
119.196
20
-85.8471
11
119.196
21
-85.4483
0
LINE
8
Black
10
117.601
20
-85.4483
11
116.804
21
-85.4483
0
LINE
8
Black
10
116.804
20
-85.4483
11
116.804
21
-85.8471
0
LINE
8
Black
10
116.804
20
-85.8471
11
117.601
21
-85.8471
0
LINE
8
Black
10
117.601
20
-85.8471
11
117.601
21
-85.4483
0
LINE
8
Black
10
117.601
20
-84.8006
11
116.804
21
-84.8006
0
LINE
8
Black
10
116.804
20
-84.8006
11
116.804
21
-85.1994
0
LINE
8
Black
10
116.804
20
-85.1994
11
117.601
21
-85.1994
0
LINE
8
Black
10
117.601
20
-85.1994
11
117.601
21
-84.8006
0
LINE
8
Black
10
117.601
20
-84.1529
11
116.804
21
-84.1529
0
LINE
8
Black
10
116.804
20
-84.1529
11
116.804
21
-84.5517
0
LINE
8
Black
10
116.804
20
-84.5517
11
117.601
21
-84.5517
0
LINE
8
Black
10
117.601
20
-84.5517
11
117.601
21
-84.1529
0
LINE
8
Black
10
119.196
20
-80.6529
11
118.399
21
-80.6529
0
LINE
8
Black
10
118.399
20
-80.6529
11
118.399
21
-81.0517
0
LINE
8
Black
10
118.399
20
-81.0517
11
119.196
21
-81.0517
0
LINE
8
Black
10
119.196
20
-81.0517
11
119.196
21
-80.6529
0
LINE
8
Black
10
119.196
20
-81.3006
11
118.399
21
-81.3006
0
LINE
8
Black
10
118.399
20
-81.3006
11
118.399
21
-81.6994
0
LINE
8
Black
10
118.399
20
-81.6994
11
119.196
21
-81.6994
0
LINE
8
Black
10
119.196
20
-81.6994
11
119.196
21
-81.3006
0
LINE
8
Black
10
119.196
20
-81.9483
11
118.399
21
-81.9483
0
LINE
8
Black
10
118.399
20
-81.9483
11
118.399
21
-82.3471
0
LINE
8
Black
10
118.399
20
-82.3471
11
119.196
21
-82.3471
0
LINE
8
Black
10
119.196
20
-82.3471
11
119.196
21
-81.9483
0
LINE
8
Black
10
117.601
20
-81.9483
11
116.804
21
-81.9483
0
LINE
8
Black
10
116.804
20
-81.9483
11
116.804
21
-82.3471
0
LINE
8
Black
10
116.804
20
-82.3471
11
117.601
21
-82.3471
0
LINE
8
Black
10
117.601
20
-82.3471
11
117.601
21
-81.9483
0
LINE
8
Black
10
117.601
20
-81.3006
11
116.804
21
-81.3006
0
LINE
8
Black
10
116.804
20
-81.3006
11
116.804
21
-81.6994
0
LINE
8
Black
10
116.804
20
-81.6994
11
117.601
21
-81.6994
0
LINE
8
Black
10
117.601
20
-81.6994
11
117.601
21
-81.3006
0
LINE
8
Black
10
117.601
20
-80.6529
11
116.804
21
-80.6529
0
LINE
8
Black
10
116.804
20
-80.6529
11
116.804
21
-81.0517
0
LINE
8
Black
10
116.804
20
-81.0517
11
117.601
21
-81.0517
0
LINE
8
Black
10
117.601
20
-81.0517
11
117.601
21
-80.6529
0
LINE
8
Black
10
122.743
20
-87.4285
11
122.743
21
-88.5715
0
LINE
8
Black
10
122.743
20
-88.5715
11
123.556
21
-88.5715
0
LINE
8
Black
10
123.556
20
-88.5715
11
123.556
21
-87.4285
0
LINE
8
Black
10
123.556
20
-87.4285
11
122.743
21
-87.4285
0
LINE
8
Black
10
124.445
20
-87.4285
11
124.445
21
-88.5715
0
LINE
8
Black
10
124.445
20
-88.5715
11
125.257
21
-88.5715
0
LINE
8
Black
10
125.257
20
-88.5715
11
125.257
21
-87.4285
0
LINE
8
Black
10
125.257
20
-87.4285
11
124.445
21
-87.4285
0
LINE
8
Black
10
108.257
20
-88.5715
11
108.257
21
-87.4285
0
LINE
8
Black
10
108.257
20
-87.4285
11
107.445
21
-87.4285
0
LINE
8
Black
10
107.445
20
-87.4285
11
107.445
21
-88.5715
0
LINE
8
Black
10
107.445
20
-88.5715
11
108.257
21
-88.5715
0
LINE
8
Black
10
106.556
20
-88.5715
11
106.556
21
-87.4285
0
LINE
8
Black
10
106.556
20
-87.4285
11
105.743
21
-87.4285
0
LINE
8
Black
10
105.743
20
-87.4285
11
105.743
21
-88.5715
0
LINE
8
Black
10
105.743
20
-88.5715
11
106.556
21
-88.5715
0
LINE
8
Black
10
102.257
20
-88.5715
11
102.257
21
-87.4285
0
LINE
8
Black
10
102.257
20
-87.4285
11
101.445
21
-87.4285
0
LINE
8
Black
10
101.445
20
-87.4285
11
101.445
21
-88.5715
0
LINE
8
Black
10
101.445
20
-88.5715
11
102.257
21
-88.5715
0
LINE
8
Black
10
100.556
20
-88.5715
11
100.556
21
-87.4285
0
LINE
8
Black
10
100.556
20
-87.4285
11
99.7427
21
-87.4285
0
LINE
8
Black
10
99.7427
20
-87.4285
11
99.7427
21
-88.5715
0
LINE
8
Black
10
99.7427
20
-88.5715
11
100.556
21
-88.5715
0
LINE
8
Black
10
125.257
20
-86.0715
11
125.257
21
-84.9285
0
LINE
8
Black
10
125.257
20
-84.9285
11
124.445
21
-84.9285
0
LINE
8
Black
10
124.445
20
-84.9285
11
124.445
21
-86.0715
0
LINE
8
Black
10
124.445
20
-86.0715
11
125.257
21
-86.0715
0
LINE
8
Black
10
123.556
20
-86.0715
11
123.556
21
-84.9285
0
LINE
8
Black
10
123.556
20
-84.9285
11
122.743
21
-84.9285
0
LINE
8
Black
10
122.743
20
-84.9285
11
122.743
21
-86.0715
0
LINE
8
Black
10
122.743
20
-86.0715
11
123.556
21
-86.0715
0
LINE
8
Black
10
125.257
20
-83.5715
11
125.257
21
-82.4285
0
LINE
8
Black
10
125.257
20
-82.4285
11
124.445
21
-82.4285
0
LINE
8
Black
10
124.445
20
-82.4285
11
124.445
21
-83.5715
0
LINE
8
Black
10
124.445
20
-83.5715
11
125.257
21
-83.5715
0
LINE
8
Black
10
123.556
20
-83.5715
11
123.556
21
-82.4285
0
LINE
8
Black
10
123.556
20
-82.4285
11
122.743
21
-82.4285
0
LINE
8
Black
10
122.743
20
-82.4285
11
122.743
21
-83.5715
0
LINE
8
Black
10
122.743
20
-83.5715
11
123.556
21
-83.5715
0
LINE
8
Black
10
125.257
20
-81.0715
11
125.257
21
-79.9285
0
LINE
8
Black
10
125.257
20
-79.9285
11
124.445
21
-79.9285
0
LINE
8
Black
10
124.445
20
-79.9285
11
124.445
21
-81.0715
0
LINE
8
Black
10
124.445
20
-81.0715
11
125.257
21
-81.0715
0
LINE
8
Black
10
123.556
20
-81.0715
11
123.556
21
-79.9285
0
LINE
8
Black
10
123.556
20
-79.9285
11
122.743
21
-79.9285
0
LINE
8
Black
10
122.743
20
-79.9285
11
122.743
21
-81.0715
0
LINE
8
Black
10
122.743
20
-81.0715
11
123.556
21
-81.0715
0
LINE
8
Black
10
125.257
20
-78.5715
11
125.257
21
-77.4285
0
LINE
8
Black
10
125.257
20
-77.4285
11
124.445
21
-77.4285
0
LINE
8
Black
10
124.445
20
-77.4285
11
124.445
21
-78.5715
0
LINE
8
Black
10
124.445
20
-78.5715
11
125.257
21
-78.5715
0
LINE
8
Black
10
123.556
20
-78.5715
11
123.556
21
-77.4285
0
LINE
8
Black
10
123.556
20
-77.4285
11
122.743
21
-77.4285
0
LINE
8
Black
10
122.743
20
-77.4285
11
122.743
21
-78.5715
0
LINE
8
Black
10
122.743
20
-78.5715
11
123.556
21
-78.5715
0
LINE
8
Black
10
113.257
20
-88.5715
11
113.257
21
-87.4285
0
LINE
8
Black
10
113.257
20
-87.4285
11
112.445
21
-87.4285
0
LINE
8
Black
10
112.445
20
-87.4285
11
112.445
21
-88.5715
0
LINE
8
Black
10
112.445
20
-88.5715
11
113.257
21
-88.5715
0
LINE
8
Black
10
111.556
20
-88.5715
11
111.556
21
-87.4285
0
LINE
8
Black
10
111.556
20
-87.4285
11
110.743
21
-87.4285
0
LINE
8
Black
10
110.743
20
-87.4285
11
110.743
21
-88.5715
0
LINE
8
Black
10
110.743
20
-88.5715
11
111.556
21
-88.5715
0
LINE
8
Black
10
116.743
20
-87.4285
11
116.743
21
-88.5715
0
LINE
8
Black
10
116.743
20
-88.5715
11
117.556
21
-88.5715
0
LINE
8
Black
10
117.556
20
-88.5715
11
117.556
21
-87.4285
0
LINE
8
Black
10
117.556
20
-87.4285
11
116.743
21
-87.4285
0
LINE
8
Black
10
118.445
20
-87.4285
11
118.445
21
-88.5715
0
LINE
8
Black
10
118.445
20
-88.5715
11
119.257
21
-88.5715
0
LINE
8
Black
10
119.257
20
-88.5715
11
119.257
21
-87.4285
0
LINE
8
Black
10
119.257
20
-87.4285
11
118.445
21
-87.4285
0
LINE
8
Black
10
116.743
20
-77.4285
11
116.743
21
-78.5715
0
LINE
8
Black
10
116.743
20
-78.5715
11
117.556
21
-78.5715
0
LINE
8
Black
10
117.556
20
-78.5715
11
117.556
21
-77.4285
0
LINE
8
Black
10
117.556
20
-77.4285
11
116.743
21
-77.4285
0
LINE
8
Black
10
118.445
20
-77.4285
11
118.445
21
-78.5715
0
LINE
8
Black
10
118.445
20
-78.5715
11
119.257
21
-78.5715
0
LINE
8
Black
10
119.257
20
-78.5715
11
119.257
21
-77.4285
0
LINE
8
Black
10
119.257
20
-77.4285
11
118.445
21
-77.4285
0
LINE
8
Black
10
102.257
20
-78.5715
11
102.257
21
-77.4285
0
LINE
8
Black
10
102.257
20
-77.4285
11
101.445
21
-77.4285
0
LINE
8
Black
10
101.445
20
-77.4285
11
101.445
21
-78.5715
0
LINE
8
Black
10
101.445
20
-78.5715
11
102.257
21
-78.5715
0
LINE
8
Black
10
100.556
20
-78.5715
11
100.556
21
-77.4285
0
LINE
8
Black
10
100.556
20
-77.4285
11
99.7427
21
-77.4285
0
LINE
8
Black
10
99.7427
20
-77.4285
11
99.7427
21
-78.5715
0
LINE
8
Black
10
99.7427
20
-78.5715
11
100.556
21
-78.5715
0
LINE
8
Black
10
99.7427
20
-82.4285
11
99.7427
21
-83.5715
0
LINE
8
Black
10
99.7427
20
-83.5715
11
100.556
21
-83.5715
0
LINE
8
Black
10
100.556
20
-83.5715
11
100.556
21
-82.4285
0
LINE
8
Black
10
100.556
20
-82.4285
11
99.7427
21
-82.4285
0
LINE
8
Black
10
101.445
20
-82.4285
11
101.445
21
-83.5715
0
LINE
8
Black
10
101.445
20
-83.5715
11
102.257
21
-83.5715
0
LINE
8
Black
10
102.257
20
-83.5715
11
102.257
21
-82.4285
0
LINE
8
Black
10
102.257
20
-82.4285
11
101.445
21
-82.4285
0
LINE
8
Black
10
99.7427
20
-84.9285
11
99.7427
21
-86.0715
0
LINE
8
Black
10
99.7427
20
-86.0715
11
100.556
21
-86.0715
0
LINE
8
Black
10
100.556
20
-86.0715
11
100.556
21
-84.9285
0
LINE
8
Black
10
100.556
20
-84.9285
11
99.7427
21
-84.9285
0
LINE
8
Black
10
101.445
20
-84.9285
11
101.445
21
-86.0715
0
LINE
8
Black
10
101.445
20
-86.0715
11
102.257
21
-86.0715
0
LINE
8
Black
10
102.257
20
-86.0715
11
102.257
21
-84.9285
0
LINE
8
Black
10
102.257
20
-84.9285
11
101.445
21
-84.9285
0
LINE
8
Black
10
102.257
20
-81.0715
11
102.257
21
-79.9285
0
LINE
8
Black
10
102.257
20
-79.9285
11
101.445
21
-79.9285
0
LINE
8
Black
10
101.445
20
-79.9285
11
101.445
21
-81.0715
0
LINE
8
Black
10
101.445
20
-81.0715
11
102.257
21
-81.0715
0
LINE
8
Black
10
100.556
20
-81.0715
11
100.556
21
-79.9285
0
LINE
8
Black
10
100.556
20
-79.9285
11
99.7427
21
-79.9285
0
LINE
8
Black
10
99.7427
20
-79.9285
11
99.7427
21
-81.0715
0
LINE
8
Black
10
99.7427
20
-81.0715
11
100.556
21
-81.0715
0
LINE
8
Black
10
108.257
20
-78.5715
11
108.257
21
-77.4285
0
LINE
8
Black
10
108.257
20
-77.4285
11
107.445
21
-77.4285
0
LINE
8
Black
10
107.445
20
-77.4285
11
107.445
21
-78.5715
0
LINE
8
Black
10
107.445
20
-78.5715
11
108.257
21
-78.5715
0
LINE
8
Black
10
106.556
20
-78.5715
11
106.556
21
-77.4285
0
LINE
8
Black
10
106.556
20
-77.4285
11
105.743
21
-77.4285
0
LINE
8
Black
10
105.743
20
-77.4285
11
105.743
21
-78.5715
0
LINE
8
Black
10
105.743
20
-78.5715
11
106.556
21
-78.5715
0
LINE
8
Black
10
128.757
20
-88.5715
11
128.757
21
-87.4285
0
LINE
8
Black
10
128.757
20
-87.4285
11
127.945
21
-87.4285
0
LINE
8
Black
10
127.945
20
-87.4285
11
127.945
21
-88.5715
0
LINE
8
Black
10
127.945
20
-88.5715
11
128.757
21
-88.5715
0
LINE
8
Black
10
127.056
20
-88.5715
11
127.056
21
-87.4285
0
LINE
8
Black
10
127.056
20
-87.4285
11
126.243
21
-87.4285
0
LINE
8
Black
10
126.243
20
-87.4285
11
126.243
21
-88.5715
0
LINE
8
Black
10
126.243
20
-88.5715
11
127.056
21
-88.5715
0
LINE
8
Black
10
113.257
20
-78.5715
11
113.257
21
-77.4285
0
LINE
8
Black
10
113.257
20
-77.4285
11
112.445
21
-77.4285
0
LINE
8
Black
10
112.445
20
-77.4285
11
112.445
21
-78.5715
0
LINE
8
Black
10
112.445
20
-78.5715
11
113.257
21
-78.5715
0
LINE
8
Black
10
111.556
20
-78.5715
11
111.556
21
-77.4285
0
LINE
8
Black
10
111.556
20
-77.4285
11
110.743
21
-77.4285
0
LINE
8
Black
10
110.743
20
-77.4285
11
110.743
21
-78.5715
0
LINE
8
Black
10
110.743
20
-78.5715
11
111.556
21
-78.5715
0
LINE
8
Black
10
103.571
20
-91.0005
11
103.571
21
-92.9995
0
LINE
8
Black
10
103.571
20
-92.9995
11
105.569
21
-92.9995
0
LINE
8
Black
10
105.569
20
-92.9995
11
105.569
21
-91.0005
0
LINE
8
Black
10
105.569
20
-91.0005
11
103.571
21
-91.0005
0
CIRCLE
8
Black
10
107.11
20
-92
40
0.99949
0
CIRCLE
8
Black
10
109.65
20
-92
40
0.99949
0
CIRCLE
8
Black
10
112.19
20
-92
40
0.99949
0
CIRCLE
8
Black
10
114.73
20
-92
40
0.99949
0
CIRCLE
8
Black
10
117.27
20
-92
40
0.99949
0
CIRCLE
8
Black
10
119.81
20
-92
40
0.99949
0
CIRCLE
8
Black
10
122.35
20
-92
40
0.99949
0
CIRCLE
8
Black
10
124.89
20
-92
40
0.99949
0
CIRCLE
8
Black
10
127.43
20
-92
40
0.99949
0
CIRCLE
8
Black
10
107.715
20
-84.4899
40
0.5715
0
CIRCLE
8
Black
10
127.692
20
-81.2171
40
0.5715
0
CIRCLE
8
Black
10
107.841
20
-82.9492
40
0.5715
0
CIRCLE
8
Black
10
100.15
20
-90.05
40
0.4445
0
CIRCLE
8
Black
10
119.74
20
-81.5
40
0.4445
0
CIRCLE
8
Black
10
121.85
20
-85.75
40
0.4445
0
CIRCLE
8
Black
10
126.77
20
-83.7
40
0.4445
0
CIRCLE
8
Black
10
121.1
20
-82.6
40
0.4445
0
CIRCLE
8
Black
10
121.85
20
-88.85
40
0.4445
0
CIRCLE
8
Black
10
112.55
20
-83.5
40
0.4445
0
CIRCLE
8
Black
10
115.33
20
-81.65
40
0.4445
0
CIRCLE
8
Black
10
130.5
20
-84.52
40
0.4445
0
CIRCLE
8
Black
10
104.49
20
-86.62
40
0.4445
0
CIRCLE
8
Black
10
114.55
20
-85.83
40
0.4445
0
CIRCLE
8
Black
10
118.27
20
-76.04
40
0.4445
0
CIRCLE
8
Black
10
111.545
20
-76.3808
40
0.4445
0
CIRCLE
8
Black
10
121.321
20
-87.7029
40
0.4445
0
CIRCLE
8
Black
10
114.738
20
-89.6925
40
0.4445
0
CIRCLE
8
Black
10
116.134
20
-90.6637
40
0.4445
0
LINE
8
Black
10
104.706
20
-83.1778
11
106.225
21
-83.1778
0
LINE
8
Black
10
104.706
20
-82.8222
11
106.225
21
-82.8222
0
ARC
8
Black
10
106.225
20
-83
40
0.1778
50
270
51
450
0
ARC
8
Black
10
104.706
20
-83
40
0.1778
50
90
51
270
0
LINE
8
Black
10
107.841
20
-84.3642
11
106.351
21
-82.8743
0
LINE
8
Black
10
107.589
20
-84.6156
11
106.099
21
-83.1257
0
ARC
8
Black
10
106.225
20
-83
40
0.1778
50
405
51
585
0
ARC
8
Black
10
107.715
20
-84.4899
40
0.1778
50
225
51
405
0
LINE
8
Black
10
124.851
20
-78.1778
11
125.689
21
-78.1778
0
LINE
8
Black
10
124.851
20
-77.8222
11
125.689
21
-77.8222
0
ARC
8
Black
10
125.689
20
-78
40
0.1778
50
270
51
450
0
ARC
8
Black
10
124.851
20
-78
40
0.1778
50
90
51
270
0
LINE
8
Black
10
125.564
20
-79.3403
11
127.566
21
-81.3428
0
LINE
8
Black
10
125.815
20
-79.0889
11
127.818
21
-81.0914
0
ARC
8
Black
10
127.692
20
-81.2171
40
0.1778
50
225
51
405
0
ARC
8
Black
10
125.689
20
-79.2146
40
0.1778
50
45
51
225
0
LINE
8
Black
10
125.867
20
-79.2146
11
125.867
21
-78
0
LINE
8
Black
10
125.512
20
-79.2146
11
125.512
21
-78
0
ARC
8
Black
10
125.689
20
-78
40
0.1778
50
360
51
540
0
ARC
8
Black
10
125.689
20
-79.2146
40
0.1778
50
180
51
360
0
LINE
8
Black
10
124.851
20
-85.6778
11
125.689
21
-85.6778
0
LINE
8
Black
10
124.851
20
-85.3222
11
125.689
21
-85.3222
0
ARC
8
Black
10
125.689
20
-85.5
40
0.1778
50
270
51
450
0
ARC
8
Black
10
124.851
20
-85.5
40
0.1778
50
90
51
270
0
LINE
8
Black
10
127.87
20
-84.8997
11
127.87
21
-81.2171
0
LINE
8
Black
10
127.514
20
-84.8997
11
127.514
21
-81.2171
0
ARC
8
Black
10
127.692
20
-81.2171
40
0.1778
50
360
51
540
0
ARC
8
Black
10
127.692
20
-84.8997
40
0.1778
50
180
51
360
0
LINE
8
Black
10
129.857
20
-86.8129
11
127.818
21
-84.774
0
LINE
8
Black
10
129.605
20
-87.0643
11
127.566
21
-85.0254
0
ARC
8
Black
10
127.692
20
-84.8997
40
0.1778
50
405
51
585
0
ARC
8
Black
10
129.731
20
-86.9386
40
0.1778
50
225
51
405
0
LINE
8
Black
10
129.909
20
-91.766
11
129.909
21
-86.9386
0
LINE
8
Black
10
129.553
20
-91.766
11
129.553
21
-86.9386
0
ARC
8
Black
10
129.731
20
-86.9386
40
0.1778
50
360
51
540
0
ARC
8
Black
10
129.731
20
-91.766
40
0.1778
50
180
51
360
0
LINE
8
Black
10
128.18
20
-93.5682
11
129.857
21
-91.8917
0
LINE
8
Black
10
127.929
20
-93.3168
11
129.605
21
-91.6403
0
ARC
8
Black
10
129.731
20
-91.766
40
0.1778
50
315
51
495
0
ARC
8
Black
10
128.054
20
-93.4425
40
0.1778
50
135
51
315
0
LINE
8
Black
10
111.093
20
-93.6203
11
128.054
21
-93.6203
0
LINE
8
Black
10
111.093
20
-93.2647
11
128.054
21
-93.2647
0
ARC
8
Black
10
128.054
20
-93.4425
40
0.1778
50
270
51
450
0
ARC
8
Black
10
111.093
20
-93.4425
40
0.1778
50
90
51
270
0
LINE
8
Black
10
109.524
20
-92.1257
11
110.967
21
-93.5682
0
LINE
8
Black
10
109.776
20
-91.8743
11
111.218
21
-93.3168
0
ARC
8
Black
10
111.093
20
-93.4425
40
0.1778
50
225
51
405
0
ARC
8
Black
10
109.65
20
-92
40
0.1778
50
45
51
225
0
LINE
8
Black
10
126.164
20
-84.774
11
125.564
21
-85.3743
0
LINE
8
Black
10
126.415
20
-85.0254
11
125.815
21
-85.6257
0
ARC
8
Black
10
125.689
20
-85.5
40
0.1778
50
495
51
675
0
ARC
8
Black
10
126.29
20
-84.8997
40
0.1778
50
315
51
495
0
LINE
8
Black
10
126.29
20
-85.0775
11
127.692
21
-85.0775
0
LINE
8
Black
10
126.29
20
-84.7219
11
127.692
21
-84.7219
0
ARC
8
Black
10
127.692
20
-84.8997
40
0.1778
50
270
51
450
0
ARC
8
Black
10
126.29
20
-84.8997
40
0.1778
50
90
51
270
0
LINE
8
Black
10
109.035
20
-83.0749
11
109.086
21
-83.1257
0
LINE
8
Black
10
109.287
20
-82.8235
11
109.337
21
-82.8743
0
ARC
8
Black
10
109.212
20
-83
40
0.1778
50
225
51
405
0
ARC
8
Black
10
109.161
20
-82.9492
40
0.1778
50
45
51
225
0
LINE
8
Black
10
107.841
20
-83.127
11
109.161
21
-83.127
0
LINE
8
Black
10
107.841
20
-82.7714
11
109.161
21
-82.7714
0
ARC
8
Black
10
109.161
20
-82.9492
40
0.1778
50
270
51
450
0
ARC
8
Black
10
107.841
20
-82.9492
40
0.1778
50
90
51
270
0
LINE
8
Black
10
109.212
20
-83.1778
11
110.294
21
-83.1778
0
LINE
8
Black
10
109.212
20
-82.8222
11
110.294
21
-82.8222
0
ARC
8
Black
10
110.294
20
-83
40
0.1778
50
270
51
450
0
ARC
8
Black
10
109.212
20
-83
40
0.1778
50
90
51
270
0
LINE
8
Black
10
124.19
20
-86.2913
11
124.19
21
-83
0
LINE
8
Black
10
123.936
20
-86.2913
11
123.936
21
-83
0
ARC
8
Black
10
124.063
20
-83
40
0.127
50
360
51
540
0
ARC
8
Black
10
124.063
20
-86.2913
40
0.127
50
180
51
360
0
LINE
8
Black
10
124.51
20
-86.558
11
124.153
21
-86.2015
0
LINE
8
Black
10
124.33
20
-86.7376
11
123.973
21
-86.3811
0
ARC
8
Black
10
124.063
20
-86.2913
40
0.127
50
405
51
585
0
ARC
8
Black
10
124.42
20
-86.6478
40
0.127
50
225
51
405
0
LINE
8
Black
10
124.42
20
-86.7748
11
128.526
21
-86.7748
0
LINE
8
Black
10
124.42
20
-86.5208
11
128.526
21
-86.5208
0
ARC
8
Black
10
128.526
20
-86.6478
40
0.127
50
270
51
450
0
ARC
8
Black
10
124.42
20
-86.6478
40
0.127
50
90
51
270
0
LINE
8
Black
10
129.229
20
-87.1711
11
128.615
21
-86.558
0
LINE
8
Black
10
129.049
20
-87.3507
11
128.436
21
-86.7376
0
ARC
8
Black
10
128.526
20
-86.6478
40
0.127
50
405
51
585
0
ARC
8
Black
10
129.139
20
-87.2609
40
0.127
50
225
51
405
0
LINE
8
Black
10
129.266
20
-88.7573
11
129.266
21
-87.2609
0
LINE
8
Black
10
129.012
20
-88.7573
11
129.012
21
-87.2609
0
ARC
8
Black
10
129.139
20
-87.2609
40
0.127
50
360
51
540
0
ARC
8
Black
10
129.139
20
-88.7573
40
0.127
50
180
51
360
0
LINE
8
Black
10
128.012
20
-90.0638
11
129.229
21
-88.8471
0
LINE
8
Black
10
127.832
20
-89.8842
11
129.049
21
-88.6675
0
ARC
8
Black
10
129.139
20
-88.7573
40
0.127
50
315
51
495
0
ARC
8
Black
10
127.922
20
-89.974
40
0.127
50
135
51
315
0
LINE
8
Black
10
126.916
20
-90.101
11
127.922
21
-90.101
0
LINE
8
Black
10
126.916
20
-89.847
11
127.922
21
-89.847
0
ARC
8
Black
10
127.922
20
-89.974
40
0.127
50
270
51
450
0
ARC
8
Black
10
126.916
20
-89.974
40
0.127
50
90
51
270
0
LINE
8
Black
10
124.98
20
-92.0898
11
127.006
21
-90.0638
0
LINE
8
Black
10
124.8
20
-91.9102
11
126.826
21
-89.8842
0
ARC
8
Black
10
126.916
20
-89.974
40
0.127
50
315
51
495
0
ARC
8
Black
10
124.89
20
-92
40
0.127
50
135
51
315
0
LINE
8
Black
10
124.063
20
-83.127
11
124.851
21
-83.127
0
LINE
8
Black
10
124.063
20
-82.873
11
124.851
21
-82.873
0
ARC
8
Black
10
124.851
20
-83
40
0.127
50
270
51
450
0
ARC
8
Black
10
124.063
20
-83
40
0.127
50
90
51
270
0
LINE
8
Black
10
111.059
20
-91.0489
11
112.1
21
-92.0898
0
LINE
8
Black
10
111.239
20
-90.8693
11
112.28
21
-91.9102
0
ARC
8
Black
10
112.19
20
-92
40
0.127
50
225
51
405
0
ARC
8
Black
10
111.149
20
-90.9591
40
0.127
50
45
51
225
0
LINE
8
Black
10
111.276
20
-90.9591
11
111.276
21
-88.9528
0
LINE
8
Black
10
111.022
20
-90.9591
11
111.022
21
-88.9528
0
ARC
8
Black
10
111.149
20
-88.9528
40
0.127
50
360
51
540
0
ARC
8
Black
10
111.149
20
-90.9591
40
0.127
50
180
51
360
0
LINE
8
Black
10
111.276
20
-88.9528
11
111.276
21
-88
0
LINE
8
Black
10
111.022
20
-88.9528
11
111.022
21
-88
0
ARC
8
Black
10
111.149
20
-88
40
0.127
50
360
51
540
0
ARC
8
Black
10
111.149
20
-88.9528
40
0.127
50
180
51
360
0
LINE
8
Black
10
112.016
20
-83.1453
11
112.46
21
-83.5898
0
LINE
8
Black
10
112.195
20
-82.9657
11
112.64
21
-83.4102
0
ARC
8
Black
10
112.55
20
-83.5
40
0.127
50
225
51
405
0
ARC
8
Black
10
112.106
20
-83.0555
40
0.127
50
45
51
225
0
LINE
8
Black
10
111.429
20
-82.5589
11
112.016
21
-83.1453
0
LINE
8
Black
10
111.609
20
-82.3793
11
112.195
21
-82.9657
0
ARC
8
Black
10
112.106
20
-83.0555
40
0.127
50
225
51
405
0
ARC
8
Black
10
111.519
20
-82.4691
40
0.127
50
45
51
225
0
LINE
8
Black
10
110.719
20
-82.5961
11
111.519
21
-82.5961
0
LINE
8
Black
10
110.719
20
-82.3421
11
111.519
21
-82.3421
0
ARC
8
Black
10
111.519
20
-82.4691
40
0.127
50
270
51
450
0
ARC
8
Black
10
110.719
20
-82.4691
40
0.127
50
90
51
270
0
LINE
8
Black
10
110.5
20
-82.4294
11
110.629
21
-82.5589
0
LINE
8
Black
10
110.679
20
-82.2498
11
110.809
21
-82.3793
0
ARC
8
Black
10
110.719
20
-82.4691
40
0.127
50
225
51
405
0
ARC
8
Black
10
110.59
20
-82.3396
40
0.127
50
45
51
225
0
LINE
8
Black
10
110.294
20
-82.4666
11
110.59
21
-82.4666
0
LINE
8
Black
10
110.294
20
-82.2126
11
110.59
21
-82.2126
0
ARC
8
Black
10
110.59
20
-82.3396
40
0.127
50
270
51
450
0
ARC
8
Black
10
110.294
20
-82.3396
40
0.127
50
90
51
270
0
LINE
8
Black
10
100.276
20
-88.8255
11
100.276
21
-88
0
LINE
8
Black
10
100.022
20
-88.8255
11
100.022
21
-88
0
ARC
8
Black
10
100.149
20
-88
40
0.127
50
360
51
540
0
ARC
8
Black
10
100.149
20
-88.8255
40
0.127
50
180
51
360
0
LINE
8
Black
10
100.059
20
-88.9153
11
100.06
21
-88.9162
0
LINE
8
Black
10
100.239
20
-88.7357
11
100.24
21
-88.7366
0
ARC
8
Black
10
100.15
20
-88.8264
40
0.127
50
225
51
405
0
ARC
8
Black
10
100.149
20
-88.8255
40
0.127
50
45
51
225
0
LINE
8
Black
10
100.277
20
-90.05
11
100.277
21
-88.8264
0
LINE
8
Black
10
100.023
20
-90.05
11
100.023
21
-88.8264
0
ARC
8
Black
10
100.15
20
-88.8264
40
0.127
50
360
51
540
0
ARC
8
Black
10
100.15
20
-90.05
40
0.127
50
180
51
360
0
LINE
8
Black
10
121.01
20
-85.0898
11
121.76
21
-85.8398
0
LINE
8
Black
10
121.19
20
-84.9102
11
121.94
21
-85.6602
0
ARC
8
Black
10
121.85
20
-85.75
40
0.127
50
225
51
405
0
ARC
8
Black
10
121.1
20
-85
40
0.127
50
45
51
225
0
LINE
8
Black
10
121.227
20
-85
11
121.227
21
-82.6
0
LINE
8
Black
10
120.973
20
-85
11
120.973
21
-82.6
0
ARC
8
Black
10
121.1
20
-82.6
40
0.127
50
360
51
540
0
ARC
8
Black
10
121.1
20
-85
40
0.127
50
180
51
360
0
LINE
8
Black
10
124.851
20
-80.627
11
125.511
21
-80.627
0
LINE
8
Black
10
124.851
20
-80.373
11
125.511
21
-80.373
0
ARC
8
Black
10
125.511
20
-80.5
40
0.127
50
270
51
450
0
ARC
8
Black
10
124.851
20
-80.5
40
0.127
50
90
51
270
0
LINE
8
Black
10
125.421
20
-80.5898
11
126.68
21
-81.8485
0
LINE
8
Black
10
125.601
20
-80.4102
11
126.86
21
-81.6689
0
ARC
8
Black
10
126.77
20
-81.7587
40
0.127
50
225
51
405
0
ARC
8
Black
10
125.511
20
-80.5
40
0.127
50
45
51
225
0
LINE
8
Black
10
126.897
20
-83.7
11
126.897
21
-81.7587
0
LINE
8
Black
10
126.643
20
-83.7
11
126.643
21
-81.7587
0
ARC
8
Black
10
126.77
20
-81.7587
40
0.127
50
360
51
540
0
ARC
8
Black
10
126.77
20
-83.7
40
0.127
50
180
51
360
0
LINE
8
Black
10
119.74
20
-81.627
11
120
21
-81.627
0
LINE
8
Black
10
119.74
20
-81.373
11
120
21
-81.373
0
ARC
8
Black
10
120
20
-81.5
40
0.127
50
270
51
450
0
ARC
8
Black
10
119.74
20
-81.5
40
0.127
50
90
51
270
0
LINE
8
Black
10
121.19
20
-82.5102
11
120.09
21
-81.4102
0
LINE
8
Black
10
121.01
20
-82.6898
11
119.91
21
-81.5898
0
ARC
8
Black
10
120
20
-81.5
40
0.127
50
405
51
585
0
ARC
8
Black
10
121.1
20
-82.6
40
0.127
50
225
51
405
0
LINE
8
Black
10
123.276
20
-88.1651
11
123.276
21
-88
0
LINE
8
Black
10
123.022
20
-88.1651
11
123.022
21
-88
0
ARC
8
Black
10
123.149
20
-88
40
0.127
50
360
51
540
0
ARC
8
Black
10
123.149
20
-88.1651
40
0.127
50
180
51
360
0
LINE
8
Black
10
123.059
20
-88.0753
11
122.374
21
-88.7602
0
LINE
8
Black
10
123.239
20
-88.2549
11
122.554
21
-88.9398
0
ARC
8
Black
10
122.464
20
-88.85
40
0.127
50
495
51
675
0
ARC
8
Black
10
123.149
20
-88.1651
40
0.127
50
315
51
495
0
LINE
8
Black
10
121.85
20
-88.977
11
122.464
21
-88.977
0
LINE
8
Black
10
121.85
20
-88.723
11
122.464
21
-88.723
0
ARC
8
Black
10
122.464
20
-88.85
40
0.127
50
270
51
450
0
ARC
8
Black
10
121.85
20
-88.85
40
0.127
50
90
51
270
0
LINE
8
Black
10
110.294
20
-83.7747
11
111.198
21
-83.7747
0
LINE
8
Black
10
110.294
20
-83.5207
11
111.198
21
-83.5207
0
ARC
8
Black
10
111.198
20
-83.6477
40
0.127
50
270
51
450
0
ARC
8
Black
10
110.294
20
-83.6477
40
0.127
50
90
51
270
0
LINE
8
Black
10
111.288
20
-83.7375
11
111.436
21
-83.5898
0
LINE
8
Black
10
111.108
20
-83.5579
11
111.256
21
-83.4102
0
ARC
8
Black
10
111.346
20
-83.5
40
0.127
50
315
51
495
0
ARC
8
Black
10
111.198
20
-83.6477
40
0.127
50
135
51
315
0
LINE
8
Black
10
111.346
20
-83.627
11
112.55
21
-83.627
0
LINE
8
Black
10
111.346
20
-83.373
11
112.55
21
-83.373
0
ARC
8
Black
10
112.55
20
-83.5
40
0.127
50
270
51
450
0
ARC
8
Black
10
111.346
20
-83.5
40
0.127
50
90
51
270
0
LINE
8
Black
10
119.867
20
-83.73
11
119.867
21
-81.5
0
LINE
8
Black
10
119.613
20
-83.73
11
119.613
21
-81.5
0
ARC
8
Black
10
119.74
20
-81.5
40
0.127
50
360
51
540
0
ARC
8
Black
10
119.74
20
-83.73
40
0.127
50
180
51
360
0
LINE
8
Black
10
119.82
20
-83.8298
11
119.83
21
-83.8198
0
LINE
8
Black
10
119.64
20
-83.6502
11
119.65
21
-83.6402
0
ARC
8
Black
10
119.74
20
-83.73
40
0.127
50
315
51
495
0
ARC
8
Black
10
119.73
20
-83.74
40
0.127
50
135
51
315
0
LINE
8
Black
10
119.857
20
-84.0726
11
119.857
21
-83.74
0
LINE
8
Black
10
119.603
20
-84.0726
11
119.603
21
-83.74
0
ARC
8
Black
10
119.73
20
-83.74
40
0.127
50
360
51
540
0
ARC
8
Black
10
119.73
20
-84.0726
40
0.127
50
180
51
360
0
LINE
8
Black
10
119.54
20
-84.4422
11
119.82
21
-84.1625
0
LINE
8
Black
10
119.36
20
-84.2624
11
119.64
21
-83.9827
0
ARC
8
Black
10
119.73
20
-84.0726
40
0.127
50
314.969
51
494.969
0
ARC
8
Black
10
119.45
20
-84.3523
40
0.127
50
134.969
51
314.969
0
LINE
8
Black
10
118.798
20
-84.4793
11
119.45
21
-84.4793
0
LINE
8
Black
10
118.798
20
-84.2253
11
119.45
21
-84.2253
0
ARC
8
Black
10
119.45
20
-84.3523
40
0.127
50
270
51
450
0
ARC
8
Black
10
118.798
20
-84.3523
40
0.127
50
90
51
270
0
LINE
8
Black
10
118.798
20
-81.627
11
119.74
21
-81.627
0
LINE
8
Black
10
118.798
20
-81.373
11
119.74
21
-81.373
0
ARC
8
Black
10
119.74
20
-81.5
40
0.127
50
270
51
450
0
ARC
8
Black
10
118.798
20
-81.5
40
0.127
50
90
51
270
0
LINE
8
Black
10
116.642
20
-81.627
11
117.202
21
-81.627
0
LINE
8
Black
10
116.642
20
-81.373
11
117.202
21
-81.373
0
ARC
8
Black
10
117.202
20
-81.5
40
0.127
50
270
51
450
0
ARC
8
Black
10
116.642
20
-81.5
40
0.127
50
90
51
270
0
LINE
8
Black
10
116.328
20
-81.365
11
116.553
21
-81.5898
0
LINE
8
Black
10
116.507
20
-81.1854
11
116.732
21
-81.4102
0
ARC
8
Black
10
116.642
20
-81.5
40
0.127
50
225
51
405
0
ARC
8
Black
10
116.418
20
-81.2752
40
0.127
50
45
51
225
0
LINE
8
Black
10
116.545
20
-81.2752
11
116.545
21
-80.4333
0
LINE
8
Black
10
116.291
20
-81.2752
11
116.291
21
-80.4333
0
ARC
8
Black
10
116.418
20
-80.4333
40
0.127
50
360
51
540
0
ARC
8
Black
10
116.418
20
-81.2752
40
0.127
50
180
51
360
0
LINE
8
Black
10
117.973
20
-78.6979
11
116.328
21
-80.3435
0
LINE
8
Black
10
118.153
20
-78.8775
11
116.507
21
-80.5231
0
ARC
8
Black
10
116.418
20
-80.4333
40
0.127
50
495
51
675
0
ARC
8
Black
10
118.063
20
-78.7877
40
0.127
50
315
51
495
0
LINE
8
Black
10
118.19
20
-78.7877
11
118.19
21
-78
0
LINE
8
Black
10
117.936
20
-78.7877
11
117.936
21
-78
0
ARC
8
Black
10
118.063
20
-78
40
0.127
50
360
51
540
0
ARC
8
Black
10
118.063
20
-78.7877
40
0.127
50
180
51
360
0
LINE
8
Black
10
118.063
20
-78.127
11
118.851
21
-78.127
0
LINE
8
Black
10
118.063
20
-77.873
11
118.851
21
-77.873
0
ARC
8
Black
10
118.851
20
-78
40
0.127
50
270
51
450
0
ARC
8
Black
10
118.063
20
-78
40
0.127
50
90
51
270
0
LINE
8
Black
10
116.876
20
-85.127
11
117.202
21
-85.127
0
LINE
8
Black
10
116.876
20
-84.873
11
117.202
21
-84.873
0
ARC
8
Black
10
117.202
20
-85
40
0.127
50
270
51
450
0
ARC
8
Black
10
116.876
20
-85
40
0.127
50
90
51
270
0
LINE
8
Black
10
117.329
20
-85.3238
11
117.329
21
-85
0
LINE
8
Black
10
117.075
20
-85.3238
11
117.075
21
-85
0
ARC
8
Black
10
117.202
20
-85
40
0.127
50
360
51
540
0
ARC
8
Black
10
117.202
20
-85.3238
40
0.127
50
180
51
360
0
LINE
8
Black
10
116.876
20
-85.127
11
117.202
21
-85.127
0
LINE
8
Black
10
116.876
20
-84.873
11
117.202
21
-84.873
0
ARC
8
Black
10
117.202
20
-85
40
0.127
50
270
51
450
0
ARC
8
Black
10
116.876
20
-85
40
0.127
50
90
51
270
0
LINE
8
Black
10
117.329
20
-85.6477
11
117.329
21
-85.3238
0
LINE
8
Black
10
117.075
20
-85.6477
11
117.075
21
-85.3238
0
ARC
8
Black
10
117.202
20
-85.3238
40
0.127
50
360
51
540
0
ARC
8
Black
10
117.202
20
-85.6477
40
0.127
50
180
51
360
0
LINE
8
Black
10
117.329
20
-85.6477
11
117.329
21
-85.3242
0
LINE
8
Black
10
117.075
20
-85.6477
11
117.075
21
-85.3242
0
ARC
8
Black
10
117.202
20
-85.3242
40
0.127
50
360
51
540
0
ARC
8
Black
10
117.202
20
-85.6477
40
0.127
50
180
51
360
0
LINE
8
Black
10
117.112
20
-85.4136
11
117.113
21
-85.414
0
LINE
8
Black
10
117.292
20
-85.234
11
117.292
21
-85.2344
0
ARC
8
Black
10
117.202
20
-85.3242
40
0.127
50
225
51
405
0
ARC
8
Black
10
117.202
20
-85.3238
40
0.127
50
45
51
225
0
LINE
8
Black
10
117.329
20
-81.867
11
117.329
21
-81.5
0
LINE
8
Black
10
117.075
20
-81.867
11
117.075
21
-81.5
0
ARC
8
Black
10
117.202
20
-81.5
40
0.127
50
360
51
540
0
ARC
8
Black
10
117.202
20
-81.867
40
0.127
50
180
51
360
0
LINE
8
Black
10
117.329
20
-81.8666
11
117.329
21
-81.5
0
LINE
8
Black
10
117.075
20
-81.8666
11
117.075
21
-81.5
0
ARC
8
Black
10
117.202
20
-81.5
40
0.127
50
360
51
540
0
ARC
8
Black
10
117.202
20
-81.8666
40
0.127
50
180
51
360
0
LINE
8
Black
10
117.292
20
-81.9568
11
117.292
21
-81.9564
0
LINE
8
Black
10
117.112
20
-81.7772
11
117.113
21
-81.7768
0
ARC
8
Black
10
117.202
20
-81.8666
40
0.127
50
315
51
495
0
ARC
8
Black
10
117.202
20
-81.867
40
0.127
50
135
51
315
0
LINE
8
Black
10
117.329
20
-82.234
11
117.329
21
-81.867
0
LINE
8
Black
10
117.075
20
-82.234
11
117.075
21
-81.867
0
ARC
8
Black
10
117.202
20
-81.867
40
0.127
50
360
51
540
0
ARC
8
Black
10
117.202
20
-82.234
40
0.127
50
180
51
360
0
LINE
8
Black
10
116.55
20
-85.127
11
116.876
21
-85.127
0
LINE
8
Black
10
116.55
20
-84.873
11
116.876
21
-84.873
0
ARC
8
Black
10
116.876
20
-85
40
0.127
50
270
51
450
0
ARC
8
Black
10
116.55
20
-85
40
0.127
50
90
51
270
0
LINE
8
Black
10
116.333
20
-84.9628
11
116.46
21
-85.0898
0
LINE
8
Black
10
116.513
20
-84.7832
11
116.64
21
-84.9102
0
ARC
8
Black
10
116.55
20
-85
40
0.127
50
225
51
405
0
ARC
8
Black
10
116.423
20
-84.873
40
0.127
50
45
51
225
0
LINE
8
Black
10
116.55
20
-84.873
11
116.55
21
-83.3809
0
LINE
8
Black
10
116.296
20
-84.873
11
116.296
21
-83.3809
0
ARC
8
Black
10
116.423
20
-83.3809
40
0.127
50
360
51
540
0
ARC
8
Black
10
116.423
20
-84.873
40
0.127
50
180
51
360
0
LINE
8
Black
10
117.112
20
-82.5113
11
116.333
21
-83.2911
0
LINE
8
Black
10
117.292
20
-82.6909
11
116.513
21
-83.4707
0
ARC
8
Black
10
116.423
20
-83.3809
40
0.127
50
495.029
51
675.029
0
ARC
8
Black
10
117.202
20
-82.6011
40
0.127
50
315.029
51
495.029
0
LINE
8
Black
10
117.329
20
-82.6011
11
117.329
21
-82.234
0
LINE
8
Black
10
117.075
20
-82.6011
11
117.075
21
-82.234
0
ARC
8
Black
10
117.202
20
-82.234
40
0.127
50
360
51
540
0
ARC
8
Black
10
117.202
20
-82.6011
40
0.127
50
180
51
360
0
LINE
8
Black
10
117.329
20
-82.2336
11
117.329
21
-82.1477
0
LINE
8
Black
10
117.075
20
-82.2336
11
117.075
21
-82.1477
0
ARC
8
Black
10
117.202
20
-82.1477
40
0.127
50
360
51
540
0
ARC
8
Black
10
117.202
20
-82.2336
40
0.127
50
180
51
360
0
LINE
8
Black
10
117.292
20
-82.3238
11
117.292
21
-82.3234
0
LINE
8
Black
10
117.112
20
-82.1442
11
117.113
21
-82.1438
0
ARC
8
Black
10
117.202
20
-82.2336
40
0.127
50
315
51
495
0
ARC
8
Black
10
117.202
20
-82.234
40
0.127
50
135
51
315
0
LINE
8
Black
10
123.276
20
-83
11
123.276
21
-80.5
0
LINE
8
Black
10
123.022
20
-83
11
123.022
21
-80.5
0
ARC
8
Black
10
123.149
20
-80.5
40
0.127
50
360
51
540
0
ARC
8
Black
10
123.149
20
-83
40
0.127
50
180
51
360
0
LINE
8
Black
10
123.276
20
-80.5
11
123.276
21
-78
0
LINE
8
Black
10
123.022
20
-80.5
11
123.022
21
-78
0
ARC
8
Black
10
123.149
20
-78
40
0.127
50
360
51
540
0
ARC
8
Black
10
123.149
20
-80.5
40
0.127
50
180
51
360
0
LINE
8
Black
10
119.06
20
-80.4102
11
118.708
21
-80.7625
0
LINE
8
Black
10
119.24
20
-80.5898
11
118.887
21
-80.9421
0
ARC
8
Black
10
118.798
20
-80.8523
40
0.127
50
495
51
675
0
ARC
8
Black
10
119.15
20
-80.5
40
0.127
50
315
51
495
0
LINE
8
Black
10
119.15
20
-80.627
11
123.149
21
-80.627
0
LINE
8
Black
10
119.15
20
-80.373
11
123.149
21
-80.373
0
ARC
8
Black
10
123.149
20
-80.5
40
0.127
50
270
51
450
0
ARC
8
Black
10
119.15
20
-80.5
40
0.127
50
90
51
270
0
LINE
8
Black
10
101.851
20
-88.127
11
102.639
21
-88.127
0
LINE
8
Black
10
101.851
20
-87.873
11
102.639
21
-87.873
0
ARC
8
Black
10
102.639
20
-88
40
0.127
50
270
51
450
0
ARC
8
Black
10
101.851
20
-88
40
0.127
50
90
51
270
0
LINE
8
Black
10
104.625
20
-87.9102
11
103.677
21
-86.9619
0
LINE
8
Black
10
104.445
20
-88.0898
11
103.497
21
-87.1415
0
ARC
8
Black
10
103.587
20
-87.0517
40
0.127
50
405
51
585
0
ARC
8
Black
10
104.535
20
-88
40
0.127
50
225
51
405
0
LINE
8
Black
10
104.535
20
-88.127
11
106.149
21
-88.127
0
LINE
8
Black
10
104.535
20
-87.873
11
106.149
21
-87.873
0
ARC
8
Black
10
106.149
20
-88
40
0.127
50
270
51
450
0
ARC
8
Black
10
104.535
20
-88
40
0.127
50
90
51
270
0
LINE
8
Black
10
102.728
20
-88.0898
11
103.677
21
-87.1415
0
LINE
8
Black
10
102.549
20
-87.9102
11
103.497
21
-86.9619
0
ARC
8
Black
10
103.587
20
-87.0517
40
0.127
50
315
51
495
0
ARC
8
Black
10
102.639
20
-88
40
0.127
50
135
51
315
0
LINE
8
Black
10
103.677
20
-84.4728
11
103.764
21
-84.3852
0
LINE
8
Black
10
103.497
20
-84.2932
11
103.585
21
-84.2056
0
ARC
8
Black
10
103.675
20
-84.2954
40
0.127
50
315
51
495
0
ARC
8
Black
10
103.587
20
-84.383
40
0.127
50
135
51
315
0
LINE
8
Black
10
103.714
20
-87.0517
11
103.714
21
-84.383
0
LINE
8
Black
10
103.46
20
-87.0517
11
103.46
21
-84.383
0
ARC
8
Black
10
103.587
20
-84.383
40
0.127
50
360
51
540
0
ARC
8
Black
10
103.587
20
-87.0517
40
0.127
50
180
51
360
0
LINE
8
Black
10
103.675
20
-84.4224
11
104.706
21
-84.4224
0
LINE
8
Black
10
103.675
20
-84.1684
11
104.706
21
-84.1684
0
ARC
8
Black
10
104.706
20
-84.2954
40
0.127
50
270
51
450
0
ARC
8
Black
10
103.675
20
-84.2954
40
0.127
50
90
51
270
0
LINE
8
Black
10
117.202
20
-80.9793
11
117.202
21
-80.9793
0
LINE
8
Black
10
117.202
20
-80.7253
11
117.202
21
-80.7253
0
ARC
8
Black
10
117.202
20
-80.8523
40
0.127
50
270
51
450
0
ARC
8
Black
10
117.202
20
-80.8523
40
0.127
50
90
51
270
0
LINE
8
Black
10
117.329
20
-84.3523
11
117.329
21
-84.1256
0
LINE
8
Black
10
117.075
20
-84.3523
11
117.075
21
-84.1256
0
ARC
8
Black
10
117.202
20
-84.1256
40
0.127
50
360
51
540
0
ARC
8
Black
10
117.202
20
-84.3523
40
0.127
50
180
51
360
0
LINE
8
Black
10
117.329
20
-84.3523
11
117.329
21
-84.126
0
LINE
8
Black
10
117.075
20
-84.3523
11
117.075
21
-84.126
0
ARC
8
Black
10
117.202
20
-84.126
40
0.127
50
360
51
540
0
ARC
8
Black
10
117.202
20
-84.3523
40
0.127
50
180
51
360
0
LINE
8
Black
10
117.112
20
-84.2154
11
117.113
21
-84.2158
0
LINE
8
Black
10
117.292
20
-84.0358
11
117.292
21
-84.0362
0
ARC
8
Black
10
117.202
20
-84.126
40
0.127
50
225
51
405
0
ARC
8
Black
10
117.202
20
-84.1256
40
0.127
50
45
51
225
0
LINE
8
Black
10
109.263
20
-81.8189
11
110.294
21
-81.8189
0
LINE
8
Black
10
109.263
20
-81.5649
11
110.294
21
-81.5649
0
ARC
8
Black
10
110.294
20
-81.6919
40
0.127
50
270
51
450
0
ARC
8
Black
10
109.263
20
-81.6919
40
0.127
50
90
51
270
0
LINE
8
Black
10
109.39
20
-81.6919
11
109.39
21
-78
0
LINE
8
Black
10
109.136
20
-81.6919
11
109.136
21
-78
0
ARC
8
Black
10
109.263
20
-78
40
0.127
50
360
51
540
0
ARC
8
Black
10
109.263
20
-81.6919
40
0.127
50
180
51
360
0
LINE
8
Black
10
107.851
20
-78.127
11
109.263
21
-78.127
0
LINE
8
Black
10
107.851
20
-77.873
11
109.263
21
-77.873
0
ARC
8
Black
10
109.263
20
-78
40
0.127
50
270
51
450
0
ARC
8
Black
10
107.851
20
-78
40
0.127
50
90
51
270
0
LINE
8
Black
10
109.263
20
-78.127
11
111.149
21
-78.127
0
LINE
8
Black
10
109.263
20
-77.873
11
111.149
21
-77.873
0
ARC
8
Black
10
111.149
20
-78
40
0.127
50
270
51
450
0
ARC
8
Black
10
109.263
20
-78
40
0.127
50
90
51
270
0
LINE
8
Black
10
117.529
20
-80.9793
11
117.855
21
-80.9793
0
LINE
8
Black
10
117.529
20
-80.7253
11
117.855
21
-80.7253
0
ARC
8
Black
10
117.855
20
-80.8523
40
0.127
50
270
51
450
0
ARC
8
Black
10
117.529
20
-80.8523
40
0.127
50
90
51
270
0
LINE
8
Black
10
118.072
20
-80.8895
11
117.945
21
-80.7625
0
LINE
8
Black
10
117.892
20
-81.0691
11
117.765
21
-80.9421
0
ARC
8
Black
10
117.855
20
-80.8523
40
0.127
50
405
51
585
0
ARC
8
Black
10
117.982
20
-80.9793
40
0.127
50
225
51
405
0
LINE
8
Black
10
118.109
20
-83.1191
11
118.109
21
-80.9793
0
LINE
8
Black
10
117.855
20
-83.1191
11
117.855
21
-80.9793
0
ARC
8
Black
10
117.982
20
-80.9793
40
0.127
50
360
51
540
0
ARC
8
Black
10
117.982
20
-83.1191
40
0.127
50
180
51
360
0
LINE
8
Black
10
117.292
20
-83.9887
11
118.072
21
-83.2089
0
LINE
8
Black
10
117.112
20
-83.8091
11
117.892
21
-83.0293
0
ARC
8
Black
10
117.982
20
-83.1191
40
0.127
50
314.993
51
494.993
0
ARC
8
Black
10
117.202
20
-83.8989
40
0.127
50
134.993
51
314.993
0
LINE
8
Black
10
117.329
20
-84.1256
11
117.329
21
-83.8989
0
LINE
8
Black
10
117.075
20
-84.1256
11
117.075
21
-83.8989
0
ARC
8
Black
10
117.202
20
-83.8989
40
0.127
50
360
51
540
0
ARC
8
Black
10
117.202
20
-84.1256
40
0.127
50
180
51
360
0
LINE
8
Black
10
117.202
20
-80.9793
11
117.529
21
-80.9793
0
LINE
8
Black
10
117.202
20
-80.7253
11
117.529
21
-80.7253
0
ARC
8
Black
10
117.529
20
-80.8523
40
0.127
50
270
51
450
0
ARC
8
Black
10
117.202
20
-80.8523
40
0.127
50
90
51
270
0
LINE
8
Black
10
112.064
20
-78
11
112.064
21
-77.3969
0
LINE
8
Black
10
111.81
20
-78
11
111.81
21
-77.3969
0
ARC
8
Black
10
111.937
20
-77.3969
40
0.127
50
360
51
540
0
ARC
8
Black
10
111.937
20
-78
40
0.127
50
180
51
360
0
LINE
8
Black
10
112.243
20
-76.9112
11
111.847
21
-77.3071
0
LINE
8
Black
10
112.423
20
-77.0908
11
112.027
21
-77.4867
0
ARC
8
Black
10
111.937
20
-77.3969
40
0.127
50
495
51
675
0
ARC
8
Black
10
112.333
20
-77.001
40
0.127
50
315
51
495
0
LINE
8
Black
10
112.333
20
-77.128
11
119.421
21
-77.128
0
LINE
8
Black
10
112.333
20
-76.874
11
119.421
21
-76.874
0
ARC
8
Black
10
119.421
20
-77.001
40
0.127
50
270
51
450
0
ARC
8
Black
10
112.333
20
-77.001
40
0.127
50
90
51
270
0
LINE
8
Black
10
119.729
20
-77.1289
11
119.511
21
-76.9112
0
LINE
8
Black
10
119.549
20
-77.3085
11
119.331
21
-77.0908
0
ARC
8
Black
10
119.421
20
-77.001
40
0.127
50
405
51
585
0
ARC
8
Black
10
119.639
20
-77.2187
40
0.127
50
225
51
405
0
LINE
8
Black
10
119.766
20
-78.7423
11
119.766
21
-77.2187
0
LINE
8
Black
10
119.512
20
-78.7423
11
119.512
21
-77.2187
0
ARC
8
Black
10
119.639
20
-77.2187
40
0.127
50
360
51
540
0
ARC
8
Black
10
119.639
20
-78.7423
40
0.127
50
180
51
360
0
LINE
8
Black
10
117.619
20
-80.9421
11
119.729
21
-78.8321
0
LINE
8
Black
10
117.439
20
-80.7625
11
119.549
21
-78.6525
0
ARC
8
Black
10
119.639
20
-78.7423
40
0.127
50
315
51
495
0
ARC
8
Black
10
117.529
20
-80.8523
40
0.127
50
135
51
315
0
LINE
8
Black
10
111.149
20
-78.127
11
111.937
21
-78.127
0
LINE
8
Black
10
111.149
20
-77.873
11
111.937
21
-77.873
0
ARC
8
Black
10
111.937
20
-78
40
0.127
50
270
51
450
0
ARC
8
Black
10
111.149
20
-78
40
0.127
50
90
51
270
0
LINE
8
Black
10
116.361
20
-78.127
11
117.149
21
-78.127
0
LINE
8
Black
10
116.361
20
-77.873
11
117.149
21
-77.873
0
ARC
8
Black
10
117.149
20
-78
40
0.127
50
270
51
450
0
ARC
8
Black
10
116.361
20
-78
40
0.127
50
90
51
270
0
LINE
8
Black
10
112.851
20
-78.127
11
116.361
21
-78.127
0
LINE
8
Black
10
112.851
20
-77.873
11
116.361
21
-77.873
0
ARC
8
Black
10
116.361
20
-78
40
0.127
50
270
51
450
0
ARC
8
Black
10
112.851
20
-78
40
0.127
50
90
51
270
0
LINE
8
Black
10
112.761
20
-79.429
11
111.236
21
-80.9544
0
LINE
8
Black
10
112.941
20
-79.6086
11
111.415
21
-81.134
0
ARC
8
Black
10
111.326
20
-81.0442
40
0.127
50
495
51
675
0
ARC
8
Black
10
112.851
20
-79.5188
40
0.127
50
315
51
495
0
LINE
8
Black
10
112.978
20
-79.5188
11
112.978
21
-78.9528
0
LINE
8
Black
10
112.724
20
-79.5188
11
112.724
21
-78.9528
0
ARC
8
Black
10
112.851
20
-78.9528
40
0.127
50
360
51
540
0
ARC
8
Black
10
112.851
20
-79.5188
40
0.127
50
180
51
360
0
LINE
8
Black
10
112.978
20
-78.9528
11
112.978
21
-78
0
LINE
8
Black
10
112.724
20
-78.9528
11
112.724
21
-78
0
ARC
8
Black
10
112.851
20
-78
40
0.127
50
360
51
540
0
ARC
8
Black
10
112.851
20
-78.9528
40
0.127
50
180
51
360
0
LINE
8
Black
10
110.294
20
-81.1712
11
111.326
21
-81.1712
0
LINE
8
Black
10
110.294
20
-80.9172
11
111.326
21
-80.9172
0
ARC
8
Black
10
111.326
20
-81.0442
40
0.127
50
270
51
450
0
ARC
8
Black
10
110.294
20
-81.0442
40
0.127
50
90
51
270
0
LINE
8
Black
10
103.802
20
-81.8189
11
104.706
21
-81.8189
0
LINE
8
Black
10
103.802
20
-81.5649
11
104.706
21
-81.5649
0
ARC
8
Black
10
104.706
20
-81.6919
40
0.127
50
270
51
450
0
ARC
8
Black
10
103.802
20
-81.6919
40
0.127
50
90
51
270
0
LINE
8
Black
10
103.703
20
-81.8189
11
103.802
21
-81.8189
0
LINE
8
Black
10
103.703
20
-81.5649
11
103.802
21
-81.5649
0
ARC
8
Black
10
103.802
20
-81.6919
40
0.127
50
270
51
450
0
ARC
8
Black
10
103.703
20
-81.6919
40
0.127
50
90
51
270
0
LINE
8
Black
10
102.421
20
-80.5898
11
103.613
21
-81.7817
0
LINE
8
Black
10
102.601
20
-80.4102
11
103.793
21
-81.6021
0
ARC
8
Black
10
103.703
20
-81.6919
40
0.127
50
225
51
405
0
ARC
8
Black
10
102.511
20
-80.5
40
0.127
50
45
51
225
0
LINE
8
Black
10
101.851
20
-80.627
11
102.511
21
-80.627
0
LINE
8
Black
10
101.851
20
-80.373
11
102.511
21
-80.373
0
ARC
8
Black
10
102.511
20
-80.5
40
0.127
50
270
51
450
0
ARC
8
Black
10
101.851
20
-80.5
40
0.127
50
90
51
270
0
LINE
8
Black
10
100.847
20
-80.4634
11
100.973
21
-80.5898
0
LINE
8
Black
10
101.027
20
-80.2838
11
101.153
21
-80.4102
0
ARC
8
Black
10
101.063
20
-80.5
40
0.127
50
225
51
405
0
ARC
8
Black
10
100.937
20
-80.3736
40
0.127
50
45
51
225
0
LINE
8
Black
10
101.064
20
-80.3736
11
101.064
21
-78
0
LINE
8
Black
10
100.81
20
-80.3736
11
100.81
21
-78
0
ARC
8
Black
10
100.937
20
-78
40
0.127
50
360
51
540
0
ARC
8
Black
10
100.937
20
-80.3736
40
0.127
50
180
51
360
0
LINE
8
Black
10
100.149
20
-78.127
11
100.937
21
-78.127
0
LINE
8
Black
10
100.149
20
-77.873
11
100.937
21
-77.873
0
ARC
8
Black
10
100.937
20
-78
40
0.127
50
270
51
450
0
ARC
8
Black
10
100.149
20
-78
40
0.127
50
90
51
270
0
LINE
8
Black
10
101.063
20
-80.627
11
101.851
21
-80.627
0
LINE
8
Black
10
101.063
20
-80.373
11
101.851
21
-80.373
0
ARC
8
Black
10
101.851
20
-80.5
40
0.127
50
270
51
450
0
ARC
8
Black
10
101.063
20
-80.5
40
0.127
50
90
51
270
0
LINE
8
Black
10
99.4918
20
-76.5078
11
111.545
21
-76.5078
0
LINE
8
Black
10
99.4918
20
-76.2538
11
111.545
21
-76.2538
0
ARC
8
Black
10
111.545
20
-76.3808
40
0.127
50
270
51
450
0
ARC
8
Black
10
99.4918
20
-76.3808
40
0.127
50
90
51
270
0
LINE
8
Black
10
98.9222
20
-77.13
11
99.5816
21
-76.4706
0
LINE
8
Black
10
98.7426
20
-76.9504
11
99.402
21
-76.291
0
ARC
8
Black
10
99.4918
20
-76.3808
40
0.127
50
315
51
495
0
ARC
8
Black
10
98.8324
20
-77.0402
40
0.127
50
135
51
315
0
LINE
8
Black
10
98.9594
20
-82.471
11
98.9594
21
-77.0402
0
LINE
8
Black
10
98.7054
20
-82.471
11
98.7054
21
-77.0402
0
ARC
8
Black
10
98.8324
20
-77.0402
40
0.127
50
360
51
540
0
ARC
8
Black
10
98.8324
20
-82.471
40
0.127
50
180
51
360
0
LINE
8
Black
10
99.4512
20
-82.9102
11
98.9222
21
-82.3812
0
LINE
8
Black
10
99.2716
20
-83.0898
11
98.7426
21
-82.5608
0
ARC
8
Black
10
98.8324
20
-82.471
40
0.127
50
405
51
585
0
ARC
8
Black
10
99.3614
20
-83
40
0.127
50
225
51
405
0
LINE
8
Black
10
99.3614
20
-83.127
11
100.149
21
-83.127
0
LINE
8
Black
10
99.3614
20
-82.873
11
100.149
21
-82.873
0
ARC
8
Black
10
100.149
20
-83
40
0.127
50
270
51
450
0
ARC
8
Black
10
99.3614
20
-83
40
0.127
50
90
51
270
0
LINE
8
Black
10
104.833
20
-81.0442
11
104.833
21
-80.6403
0
LINE
8
Black
10
104.579
20
-81.0442
11
104.579
21
-80.6403
0
ARC
8
Black
10
104.706
20
-80.6403
40
0.127
50
360
51
540
0
ARC
8
Black
10
104.706
20
-81.0442
40
0.127
50
180
51
360
0
LINE
8
Black
10
104.833
20
-80.6403
11
104.833
21
-80.1947
0
LINE
8
Black
10
104.579
20
-80.6403
11
104.579
21
-80.1947
0
ARC
8
Black
10
104.706
20
-80.1947
40
0.127
50
360
51
540
0
ARC
8
Black
10
104.706
20
-80.6403
40
0.127
50
180
51
360
0
LINE
8
Black
10
102.421
20
-78.0898
11
104.616
21
-80.2845
0
LINE
8
Black
10
102.601
20
-77.9102
11
104.796
21
-80.1049
0
ARC
8
Black
10
104.706
20
-80.1947
40
0.127
50
225
51
405
0
ARC
8
Black
10
102.511
20
-78
40
0.127
50
45
51
225
0
LINE
8
Black
10
101.851
20
-78.127
11
102.511
21
-78.127
0
LINE
8
Black
10
101.851
20
-77.873
11
102.511
21
-77.873
0
ARC
8
Black
10
102.511
20
-78
40
0.127
50
270
51
450
0
ARC
8
Black
10
101.851
20
-78
40
0.127
50
90
51
270
0
LINE
8
Black
10
106.059
20
-80.5428
11
105.648
21
-80.9544
0
LINE
8
Black
10
106.239
20
-80.7224
11
105.827
21
-81.134
0
ARC
8
Black
10
105.738
20
-81.0442
40
0.127
50
495
51
675
0
ARC
8
Black
10
106.149
20
-80.6326
40
0.127
50
315
51
495
0
LINE
8
Black
10
106.276
20
-80.6326
11
106.276
21
-78
0
LINE
8
Black
10
106.022
20
-80.6326
11
106.022
21
-78
0
ARC
8
Black
10
106.149
20
-78
40
0.127
50
360
51
540
0
ARC
8
Black
10
106.149
20
-80.6326
40
0.127
50
180
51
360
0
LINE
8
Black
10
104.706
20
-81.1712
11
105.738
21
-81.1712
0
LINE
8
Black
10
104.706
20
-80.9172
11
105.738
21
-80.9172
0
ARC
8
Black
10
105.738
20
-81.0442
40
0.127
50
270
51
450
0
ARC
8
Black
10
104.706
20
-81.0442
40
0.127
50
90
51
270
0
LINE
8
Black
10
116.686
20
-86.1469
11
114.775
21
-84.2357
0
LINE
8
Black
10
116.506
20
-86.3265
11
114.595
21
-84.4153
0
ARC
8
Black
10
114.685
20
-84.3255
40
0.127
50
405
51
585
0
ARC
8
Black
10
116.596
20
-86.2367
40
0.127
50
225
51
405
0
LINE
8
Black
10
116.596
20
-86.3637
11
118.471
21
-86.3637
0
LINE
8
Black
10
116.596
20
-86.1097
11
118.471
21
-86.1097
0
ARC
8
Black
10
118.471
20
-86.2367
40
0.127
50
270
51
450
0
ARC
8
Black
10
116.596
20
-86.2367
40
0.127
50
90
51
270
0
LINE
8
Black
10
111.228
20
-84.4525
11
114.685
21
-84.4525
0
LINE
8
Black
10
111.228
20
-84.1985
11
114.685
21
-84.1985
0
ARC
8
Black
10
114.685
20
-84.3255
40
0.127
50
270
51
450
0
ARC
8
Black
10
111.228
20
-84.3255
40
0.127
50
90
51
270
0
LINE
8
Black
10
111.318
20
-84.2357
11
111.288
21
-84.2056
0
LINE
8
Black
10
111.139
20
-84.4153
11
111.108
21
-84.3852
0
ARC
8
Black
10
111.198
20
-84.2954
40
0.127
50
405
51
585
0
ARC
8
Black
10
111.228
20
-84.3255
40
0.127
50
225
51
405
0
LINE
8
Black
10
110.294
20
-84.4224
11
111.198
21
-84.4224
0
LINE
8
Black
10
110.294
20
-84.1684
11
111.198
21
-84.1684
0
ARC
8
Black
10
111.198
20
-84.2954
40
0.127
50
270
51
450
0
ARC
8
Black
10
110.294
20
-84.2954
40
0.127
50
90
51
270
0
LINE
8
Black
10
118.925
20
-82.5849
11
118.925
21
-82.1477
0
LINE
8
Black
10
118.671
20
-82.5849
11
118.671
21
-82.1477
0
ARC
8
Black
10
118.798
20
-82.1477
40
0.127
50
360
51
540
0
ARC
8
Black
10
118.798
20
-82.5849
40
0.127
50
180
51
360
0
LINE
8
Black
10
118.925
20
-82.5845
11
118.925
21
-82.1477
0
LINE
8
Black
10
118.671
20
-82.5845
11
118.671
21
-82.1477
0
ARC
8
Black
10
118.798
20
-82.1477
40
0.127
50
360
51
540
0
ARC
8
Black
10
118.798
20
-82.5845
40
0.127
50
180
51
360
0
LINE
8
Black
10
118.888
20
-82.4951
11
118.887
21
-82.4947
0
LINE
8
Black
10
118.708
20
-82.6747
11
118.708
21
-82.6743
0
ARC
8
Black
10
118.798
20
-82.5845
40
0.127
50
405
51
585
0
ARC
8
Black
10
118.798
20
-82.5849
40
0.127
50
225
51
405
0
LINE
8
Black
10
118.798
20
-85.7747
11
118.798
21
-85.7747
0
LINE
8
Black
10
118.798
20
-85.5207
11
118.798
21
-85.5207
0
ARC
8
Black
10
118.798
20
-85.6477
40
0.127
50
270
51
450
0
ARC
8
Black
10
118.798
20
-85.6477
40
0.127
50
90
51
270
0
LINE
8
Black
10
118.471
20
-85.7747
11
118.798
21
-85.7747
0
LINE
8
Black
10
118.471
20
-85.5207
11
118.798
21
-85.5207
0
ARC
8
Black
10
118.798
20
-85.6477
40
0.127
50
270
51
450
0
ARC
8
Black
10
118.471
20
-85.6477
40
0.127
50
90
51
270
0
LINE
8
Black
10
118.925
20
-83.0222
11
118.925
21
-82.5849
0
LINE
8
Black
10
118.671
20
-83.0222
11
118.671
21
-82.5849
0
ARC
8
Black
10
118.798
20
-82.5849
40
0.127
50
360
51
540
0
ARC
8
Black
10
118.798
20
-83.0222
40
0.127
50
180
51
360
0
LINE
8
Black
10
118.108
20
-83.8918
11
118.888
21
-83.112
0
LINE
8
Black
10
117.928
20
-83.7122
11
118.708
21
-82.9324
0
ARC
8
Black
10
118.798
20
-83.0222
40
0.127
50
314.993
51
494.993
0
ARC
8
Black
10
118.018
20
-83.802
40
0.127
50
134.993
51
314.993
0
LINE
8
Black
10
118.145
20
-85.5207
11
118.145
21
-83.802
0
LINE
8
Black
10
117.891
20
-85.5207
11
117.891
21
-83.802
0
ARC
8
Black
10
118.018
20
-83.802
40
0.127
50
360
51
540
0
ARC
8
Black
10
118.018
20
-85.5207
40
0.127
50
180
51
360
0
LINE
8
Black
10
118.235
20
-85.5579
11
118.108
21
-85.4309
0
LINE
8
Black
10
118.055
20
-85.7375
11
117.928
21
-85.6105
0
ARC
8
Black
10
118.018
20
-85.5207
40
0.127
50
405
51
585
0
ARC
8
Black
10
118.145
20
-85.6477
40
0.127
50
225
51
405
0
LINE
8
Black
10
118.145
20
-85.7747
11
118.471
21
-85.7747
0
LINE
8
Black
10
118.145
20
-85.5207
11
118.471
21
-85.5207
0
ARC
8
Black
10
118.471
20
-85.6477
40
0.127
50
270
51
450
0
ARC
8
Black
10
118.145
20
-85.6477
40
0.127
50
90
51
270
0
LINE
8
Black
10
118.978
20
-88
11
118.978
21
-87.0472
0
LINE
8
Black
10
118.724
20
-88
11
118.724
21
-87.0472
0
ARC
8
Black
10
118.851
20
-87.0472
40
0.127
50
360
51
540
0
ARC
8
Black
10
118.851
20
-88
40
0.127
50
180
51
360
0
LINE
8
Black
10
118.598
20
-86.2367
11
118.598
21
-85.6477
0
LINE
8
Black
10
118.344
20
-86.2367
11
118.344
21
-85.6477
0
ARC
8
Black
10
118.471
20
-85.6477
40
0.127
50
360
51
540
0
ARC
8
Black
10
118.471
20
-86.2367
40
0.127
50
180
51
360
0
LINE
8
Black
10
118.381
20
-86.7574
11
118.761
21
-87.137
0
LINE
8
Black
10
118.561
20
-86.5778
11
118.941
21
-86.9574
0
ARC
8
Black
10
118.851
20
-87.0472
40
0.127
50
225
51
405
0
ARC
8
Black
10
118.471
20
-86.6676
40
0.127
50
45
51
225
0
LINE
8
Black
10
118.598
20
-86.6676
11
118.598
21
-86.2367
0
LINE
8
Black
10
118.344
20
-86.6676
11
118.344
21
-86.2367
0
ARC
8
Black
10
118.471
20
-86.2367
40
0.127
50
360
51
540
0
ARC
8
Black
10
118.471
20
-86.6676
40
0.127
50
180
51
360
0
LINE
8
Black
10
112.941
20
-86.3787
11
111.415
21
-84.8533
0
LINE
8
Black
10
112.761
20
-86.5583
11
111.236
21
-85.0329
0
ARC
8
Black
10
111.326
20
-84.9431
40
0.127
50
405
51
585
0
ARC
8
Black
10
112.851
20
-86.4685
40
0.127
50
225
51
405
0
LINE
8
Black
10
112.978
20
-87.0472
11
112.978
21
-86.4685
0
LINE
8
Black
10
112.724
20
-87.0472
11
112.724
21
-86.4685
0
ARC
8
Black
10
112.851
20
-86.4685
40
0.127
50
360
51
540
0
ARC
8
Black
10
112.851
20
-87.0472
40
0.127
50
180
51
360
0
LINE
8
Black
10
112.978
20
-87.5236
11
112.978
21
-87.0472
0
LINE
8
Black
10
112.724
20
-87.5236
11
112.724
21
-87.0472
0
ARC
8
Black
10
112.851
20
-87.0472
40
0.127
50
360
51
540
0
ARC
8
Black
10
112.851
20
-87.5236
40
0.127
50
180
51
360
0
LINE
8
Black
10
115.795
20
-87.6134
11
116.272
21
-88.0898
0
LINE
8
Black
10
115.975
20
-87.4338
11
116.451
21
-87.9102
0
ARC
8
Black
10
116.361
20
-88
40
0.127
50
225
51
405
0
ARC
8
Black
10
115.885
20
-87.5236
40
0.127
50
45
51
225
0
LINE
8
Black
10
112.851
20
-87.6506
11
115.885
21
-87.6506
0
LINE
8
Black
10
112.851
20
-87.3966
11
115.885
21
-87.3966
0
ARC
8
Black
10
115.885
20
-87.5236
40
0.127
50
270
51
450
0
ARC
8
Black
10
112.851
20
-87.5236
40
0.127
50
90
51
270
0
LINE
8
Black
10
116.361
20
-88.127
11
117.149
21
-88.127
0
LINE
8
Black
10
116.361
20
-87.873
11
117.149
21
-87.873
0
ARC
8
Black
10
117.149
20
-88
40
0.127
50
270
51
450
0
ARC
8
Black
10
116.361
20
-88
40
0.127
50
90
51
270
0
LINE
8
Black
10
110.455
20
-85.0701
11
111.326
21
-85.0701
0
LINE
8
Black
10
110.455
20
-84.8161
11
111.326
21
-84.8161
0
ARC
8
Black
10
111.326
20
-84.9431
40
0.127
50
270
51
450
0
ARC
8
Black
10
110.455
20
-84.9431
40
0.127
50
90
51
270
0
LINE
8
Black
10
110.361
20
-85.0701
11
110.455
21
-85.0701
0
LINE
8
Black
10
110.361
20
-84.8161
11
110.455
21
-84.8161
0
ARC
8
Black
10
110.455
20
-84.9431
40
0.127
50
270
51
450
0
ARC
8
Black
10
110.361
20
-84.9431
40
0.127
50
90
51
270
0
LINE
8
Black
10
112.978
20
-88
11
112.978
21
-87.5236
0
LINE
8
Black
10
112.724
20
-88
11
112.724
21
-87.5236
0
ARC
8
Black
10
112.851
20
-87.5236
40
0.127
50
360
51
540
0
ARC
8
Black
10
112.851
20
-88
40
0.127
50
180
51
360
0
LINE
8
Black
10
110.328
20
-85.0701
11
110.361
21
-85.0701
0
LINE
8
Black
10
110.328
20
-84.8161
11
110.361
21
-84.8161
0
ARC
8
Black
10
110.361
20
-84.9431
40
0.127
50
270
51
450
0
ARC
8
Black
10
110.328
20
-84.9431
40
0.127
50
90
51
270
0
LINE
8
Black
10
110.294
20
-85.0701
11
110.328
21
-85.0701
0
LINE
8
Black
10
110.294
20
-84.8161
11
110.328
21
-84.8161
0
ARC
8
Black
10
110.328
20
-84.9431
40
0.127
50
270
51
450
0
ARC
8
Black
10
110.294
20
-84.9431
40
0.127
50
90
51
270
0
LINE
8
Black
10
105.865
20
-83.9314
11
105.865
21
-83.635
0
LINE
8
Black
10
105.611
20
-83.9314
11
105.611
21
-83.635
0
ARC
8
Black
10
105.738
20
-83.635
40
0.127
50
360
51
540
0
ARC
8
Black
10
105.738
20
-83.9314
40
0.127
50
180
51
360
0
LINE
8
Black
10
107.37
20
-85.3846
11
105.827
21
-83.8416
0
LINE
8
Black
10
107.191
20
-85.5642
11
105.648
21
-84.0212
0
ARC
8
Black
10
105.738
20
-83.9314
40
0.127
50
405
51
585
0
ARC
8
Black
10
107.281
20
-85.4744
40
0.127
50
225
51
405
0
LINE
8
Black
10
107.281
20
-85.6014
11
108.731
21
-85.6014
0
LINE
8
Black
10
107.281
20
-85.3474
11
108.731
21
-85.3474
0
ARC
8
Black
10
108.731
20
-85.4744
40
0.127
50
270
51
450
0
ARC
8
Black
10
107.281
20
-85.4744
40
0.127
50
90
51
270
0
LINE
8
Black
10
109.173
20
-84.8533
11
108.641
21
-85.3846
0
LINE
8
Black
10
109.352
20
-85.0329
11
108.821
21
-85.5642
0
ARC
8
Black
10
108.731
20
-85.4744
40
0.127
50
495
51
675
0
ARC
8
Black
10
109.263
20
-84.9431
40
0.127
50
315
51
495
0
LINE
8
Black
10
109.263
20
-85.0701
11
110.294
21
-85.0701
0
LINE
8
Black
10
109.263
20
-84.8161
11
110.294
21
-84.8161
0
ARC
8
Black
10
110.294
20
-84.9431
40
0.127
50
270
51
450
0
ARC
8
Black
10
109.263
20
-84.9431
40
0.127
50
90
51
270
0
LINE
8
Black
10
104.706
20
-83.762
11
105.738
21
-83.762
0
LINE
8
Black
10
104.706
20
-83.508
11
105.738
21
-83.508
0
ARC
8
Black
10
105.738
20
-83.635
40
0.127
50
270
51
450
0
ARC
8
Black
10
104.706
20
-83.635
40
0.127
50
90
51
270
0
LINE
8
Black
10
103.802
20
-83.635
11
103.802
21
-83.2798
0
LINE
8
Black
10
103.548
20
-83.635
11
103.548
21
-83.2798
0
ARC
8
Black
10
103.675
20
-83.2798
40
0.127
50
360
51
540
0
ARC
8
Black
10
103.675
20
-83.635
40
0.127
50
180
51
360
0
LINE
8
Black
10
102.274
20
-82.0587
11
103.585
21
-83.3696
0
LINE
8
Black
10
102.453
20
-81.8791
11
103.764
21
-83.19
0
ARC
8
Black
10
103.675
20
-83.2798
40
0.127
50
225
51
405
0
ARC
8
Black
10
102.364
20
-81.9689
40
0.127
50
45
51
225
0
LINE
8
Black
10
101.618
20
-82.0959
11
102.364
21
-82.0959
0
LINE
8
Black
10
101.618
20
-81.8419
11
102.364
21
-81.8419
0
ARC
8
Black
10
102.364
20
-81.9689
40
0.127
50
270
51
450
0
ARC
8
Black
10
101.618
20
-81.9689
40
0.127
50
90
51
270
0
LINE
8
Black
10
100.059
20
-80.5898
11
101.528
21
-82.0587
0
LINE
8
Black
10
100.239
20
-80.4102
11
101.708
21
-81.8791
0
ARC
8
Black
10
101.618
20
-81.9689
40
0.127
50
225
51
405
0
ARC
8
Black
10
100.149
20
-80.5
40
0.127
50
45
51
225
0
LINE
8
Black
10
103.675
20
-83.762
11
104.706
21
-83.762
0
LINE
8
Black
10
103.675
20
-83.508
11
104.706
21
-83.508
0
ARC
8
Black
10
104.706
20
-83.635
40
0.127
50
270
51
450
0
ARC
8
Black
10
103.675
20
-83.635
40
0.127
50
90
51
270
0
LINE
8
Black
10
104.706
20
-85.0574
11
105.738
21
-85.0574
0
LINE
8
Black
10
104.706
20
-84.8034
11
105.738
21
-84.8034
0
ARC
8
Black
10
105.738
20
-84.9304
40
0.127
50
270
51
450
0
ARC
8
Black
10
104.706
20
-84.9304
40
0.127
50
90
51
270
0
LINE
8
Black
10
107.978
20
-88
11
107.978
21
-87.0471
0
LINE
8
Black
10
107.724
20
-88
11
107.724
21
-87.0471
0
ARC
8
Black
10
107.851
20
-87.0471
40
0.127
50
360
51
540
0
ARC
8
Black
10
107.851
20
-88
40
0.127
50
180
51
360
0
LINE
8
Black
10
107.941
20
-86.954
11
105.827
21
-84.8406
0
LINE
8
Black
10
107.761
20
-87.1336
11
105.648
21
-85.0202
0
ARC
8
Black
10
105.738
20
-84.9304
40
0.127
50
405
51
585
0
ARC
8
Black
10
107.851
20
-87.0438
40
0.127
50
225
51
405
0
LINE
8
Black
10
107.978
20
-87.0471
11
107.978
21
-87.0438
0
LINE
8
Black
10
107.724
20
-87.0471
11
107.724
21
-87.0438
0
ARC
8
Black
10
107.851
20
-87.0438
40
0.127
50
360
51
540
0
ARC
8
Black
10
107.851
20
-87.0471
40
0.127
50
180
51
360
0
LINE
8
Black
10
107.851
20
-87.1741
11
111.713
21
-87.1741
0
LINE
8
Black
10
107.851
20
-86.9201
11
111.713
21
-86.9201
0
ARC
8
Black
10
111.713
20
-87.0471
40
0.127
50
270
51
450
0
ARC
8
Black
10
107.851
20
-87.0471
40
0.127
50
90
51
270
0
LINE
8
Black
10
112.027
20
-87.1809
11
111.803
21
-86.9573
0
LINE
8
Black
10
111.847
20
-87.3605
11
111.623
21
-87.1369
0
ARC
8
Black
10
111.713
20
-87.0471
40
0.127
50
405
51
585
0
ARC
8
Black
10
111.937
20
-87.2707
40
0.127
50
225
51
405
0
LINE
8
Black
10
112.064
20
-88.6375
11
112.064
21
-87.2707
0
LINE
8
Black
10
111.81
20
-88.6375
11
111.81
21
-87.2707
0
ARC
8
Black
10
111.937
20
-87.2707
40
0.127
50
360
51
540
0
ARC
8
Black
10
111.937
20
-88.6375
40
0.127
50
180
51
360
0
LINE
8
Black
10
112.342
20
-88.8631
11
112.027
21
-88.5477
0
LINE
8
Black
10
112.162
20
-89.0427
11
111.847
21
-88.7273
0
ARC
8
Black
10
111.937
20
-88.6375
40
0.127
50
405
51
585
0
ARC
8
Black
10
112.252
20
-88.9529
40
0.127
50
225
51
405
0
LINE
8
Black
10
112.252
20
-89.0799
11
114.309
21
-89.0799
0
LINE
8
Black
10
112.252
20
-88.8259
11
114.309
21
-88.8259
0
ARC
8
Black
10
114.309
20
-88.9529
40
0.127
50
270
51
450
0
ARC
8
Black
10
112.252
20
-88.9529
40
0.127
50
90
51
270
0
LINE
8
Black
10
114.306
20
-88.7769
11
114.22
21
-88.8631
0
LINE
8
Black
10
114.485
20
-88.9565
11
114.399
21
-89.0427
0
ARC
8
Black
10
114.309
20
-88.9529
40
0.127
50
495
51
675
0
ARC
8
Black
10
114.396
20
-88.8667
40
0.127
50
315
51
495
0
LINE
8
Black
10
114.396
20
-88.9937
11
115.08
21
-88.9937
0
LINE
8
Black
10
114.396
20
-88.7397
11
115.08
21
-88.7397
0
ARC
8
Black
10
115.08
20
-88.8667
40
0.127
50
270
51
450
0
ARC
8
Black
10
114.396
20
-88.8667
40
0.127
50
90
51
270
0
LINE
8
Black
10
115.256
20
-88.8631
11
115.17
21
-88.7769
0
LINE
8
Black
10
115.076
20
-89.0427
11
114.99
21
-88.9565
0
ARC
8
Black
10
115.08
20
-88.8667
40
0.127
50
405
51
585
0
ARC
8
Black
10
115.166
20
-88.9529
40
0.127
50
225
51
405
0
LINE
8
Black
10
115.166
20
-89.0799
11
120.071
21
-89.0799
0
LINE
8
Black
10
115.166
20
-88.8259
11
120.071
21
-88.8259
0
ARC
8
Black
10
120.071
20
-88.9529
40
0.127
50
270
51
450
0
ARC
8
Black
10
115.166
20
-88.9529
40
0.127
50
90
51
270
0
LINE
8
Black
10
121.232
20
-87.6131
11
119.982
21
-88.8631
0
LINE
8
Black
10
121.411
20
-87.7927
11
120.161
21
-89.0427
0
ARC
8
Black
10
120.071
20
-88.9529
40
0.127
50
495
51
675
0
ARC
8
Black
10
121.321
20
-87.7029
40
0.127
50
315
51
495
0
LINE
8
Black
10
101.19
20
-83.6331
11
101.19
21
-83
0
LINE
8
Black
10
100.936
20
-83.6331
11
100.936
21
-83
0
ARC
8
Black
10
101.063
20
-83
40
0.127
50
360
51
540
0
ARC
8
Black
10
101.063
20
-83.6331
40
0.127
50
180
51
360
0
LINE
8
Black
10
100.239
20
-84.637
11
101.153
21
-83.7229
0
LINE
8
Black
10
100.059
20
-84.4574
11
100.973
21
-83.5433
0
ARC
8
Black
10
101.063
20
-83.6331
40
0.127
50
315
51
495
0
ARC
8
Black
10
100.149
20
-84.5472
40
0.127
50
135
51
315
0
LINE
8
Black
10
100.276
20
-85.5
11
100.276
21
-84.5472
0
LINE
8
Black
10
100.022
20
-85.5
11
100.022
21
-84.5472
0
ARC
8
Black
10
100.149
20
-84.5472
40
0.127
50
360
51
540
0
ARC
8
Black
10
100.149
20
-85.5
40
0.127
50
180
51
360
0
LINE
8
Black
10
101.26
20
-83.127
11
101.851
21
-83.127
0
LINE
8
Black
10
101.26
20
-82.873
11
101.851
21
-82.873
0
ARC
8
Black
10
101.851
20
-83
40
0.127
50
270
51
450
0
ARC
8
Black
10
101.26
20
-83
40
0.127
50
90
51
270
0
LINE
8
Black
10
101.063
20
-83.127
11
101.26
21
-83.127
0
LINE
8
Black
10
101.063
20
-82.873
11
101.26
21
-82.873
0
ARC
8
Black
10
101.26
20
-83
40
0.127
50
270
51
450
0
ARC
8
Black
10
101.063
20
-83
40
0.127
50
90
51
270
0
LINE
8
Black
10
106.856
20
-81.0416
11
105.648
21
-82.2498
0
LINE
8
Black
10
107.036
20
-81.2212
11
105.827
21
-82.4294
0
ARC
8
Black
10
105.738
20
-82.3396
40
0.127
50
495
51
675
0
ARC
8
Black
10
106.946
20
-81.1314
40
0.127
50
315
51
495
0
LINE
8
Black
10
107.073
20
-81.1314
11
107.073
21
-77.2623
0
LINE
8
Black
10
106.819
20
-81.1314
11
106.819
21
-77.2623
0
ARC
8
Black
10
106.946
20
-77.2623
40
0.127
50
360
51
540
0
ARC
8
Black
10
106.946
20
-81.1314
40
0.127
50
180
51
360
0
LINE
8
Black
10
106.641
20
-77.1369
11
106.856
21
-77.3521
0
LINE
8
Black
10
106.82
20
-76.9573
11
107.036
21
-77.1725
0
ARC
8
Black
10
106.946
20
-77.2623
40
0.127
50
225
51
405
0
ARC
8
Black
10
106.731
20
-77.0471
40
0.127
50
45
51
225
0
LINE
8
Black
10
99.5632
20
-77.1741
11
106.731
21
-77.1741
0
LINE
8
Black
10
99.5632
20
-76.9201
11
106.731
21
-76.9201
0
ARC
8
Black
10
106.731
20
-77.0471
40
0.127
50
270
51
450
0
ARC
8
Black
10
99.5632
20
-77.0471
40
0.127
50
90
51
270
0
LINE
8
Black
10
99.4511
20
-77.3388
11
99.653
21
-77.1369
0
LINE
8
Black
10
99.2715
20
-77.1592
11
99.4734
21
-76.9573
0
ARC
8
Black
10
99.5632
20
-77.0471
40
0.127
50
315
51
495
0
ARC
8
Black
10
99.3613
20
-77.249
40
0.127
50
135
51
315
0
LINE
8
Black
10
99.4883
20
-81.2293
11
99.4883
21
-77.249
0
LINE
8
Black
10
99.2343
20
-81.2293
11
99.2343
21
-77.249
0
ARC
8
Black
10
99.3613
20
-77.249
40
0.127
50
360
51
540
0
ARC
8
Black
10
99.3613
20
-81.2293
40
0.127
50
180
51
360
0
LINE
8
Black
10
99.6746
20
-81.363
11
99.4511
21
-81.1395
0
LINE
8
Black
10
99.495
20
-81.5426
11
99.2715
21
-81.3191
0
ARC
8
Black
10
99.3613
20
-81.2293
40
0.127
50
405
51
585
0
ARC
8
Black
10
99.5848
20
-81.4528
40
0.127
50
225
51
405
0
LINE
8
Black
10
99.5848
20
-81.5798
11
100.132
21
-81.5798
0
LINE
8
Black
10
99.5848
20
-81.3258
11
100.132
21
-81.3258
0
ARC
8
Black
10
100.132
20
-81.4528
40
0.127
50
270
51
450
0
ARC
8
Black
10
99.5848
20
-81.4528
40
0.127
50
90
51
270
0
LINE
8
Black
10
101.35
20
-82.4915
11
100.222
21
-81.363
0
LINE
8
Black
10
101.17
20
-82.6711
11
100.042
21
-81.5426
0
ARC
8
Black
10
100.132
20
-81.4528
40
0.127
50
405
51
585
0
ARC
8
Black
10
101.26
20
-82.5813
40
0.127
50
225
51
405
0
LINE
8
Black
10
101.387
20
-83
11
101.387
21
-82.5813
0
LINE
8
Black
10
101.133
20
-83
11
101.133
21
-82.5813
0
ARC
8
Black
10
101.26
20
-82.5813
40
0.127
50
360
51
540
0
ARC
8
Black
10
101.26
20
-83
40
0.127
50
180
51
360
0
LINE
8
Black
10
104.706
20
-82.4666
11
105.738
21
-82.4666
0
LINE
8
Black
10
104.706
20
-82.2126
11
105.738
21
-82.2126
0
ARC
8
Black
10
105.738
20
-82.3396
40
0.127
50
270
51
450
0
ARC
8
Black
10
104.706
20
-82.3396
40
0.127
50
90
51
270
0
LINE
8
Black
10
123.276
20
-85.6651
11
123.276
21
-85.5
0
LINE
8
Black
10
123.022
20
-85.6651
11
123.022
21
-85.5
0
ARC
8
Black
10
123.149
20
-85.5
40
0.127
50
360
51
540
0
ARC
8
Black
10
123.149
20
-85.6651
40
0.127
50
180
51
360
0
LINE
8
Black
10
123.059
20
-85.5753
11
122.149
21
-86.4857
0
LINE
8
Black
10
123.239
20
-85.7549
11
122.329
21
-86.6653
0
ARC
8
Black
10
122.239
20
-86.5755
40
0.127
50
495
51
675
0
ARC
8
Black
10
123.149
20
-85.6651
40
0.127
50
315
51
495
0
LINE
8
Black
10
121.454
20
-86.7025
11
122.239
21
-86.7025
0
LINE
8
Black
10
121.454
20
-86.4485
11
122.239
21
-86.4485
0
ARC
8
Black
10
122.239
20
-86.5755
40
0.127
50
270
51
450
0
ARC
8
Black
10
121.454
20
-86.5755
40
0.127
50
90
51
270
0
LINE
8
Black
10
121.544
20
-86.4857
11
119.968
21
-84.9102
0
LINE
8
Black
10
121.364
20
-86.6653
11
119.788
21
-85.0898
0
ARC
8
Black
10
119.878
20
-85
40
0.127
50
405
51
585
0
ARC
8
Black
10
121.454
20
-86.5755
40
0.127
50
225
51
405
0
LINE
8
Black
10
118.798
20
-85.127
11
119.878
21
-85.127
0
LINE
8
Black
10
118.798
20
-84.873
11
119.878
21
-84.873
0
ARC
8
Black
10
119.878
20
-85
40
0.127
50
270
51
450
0
ARC
8
Black
10
118.798
20
-85
40
0.127
50
90
51
270
0
LINE
8
Black
10
123.276
20
-86.4528
11
123.276
21
-85.5
0
LINE
8
Black
10
123.022
20
-86.4528
11
123.022
21
-85.5
0
ARC
8
Black
10
123.149
20
-85.5
40
0.127
50
360
51
540
0
ARC
8
Black
10
123.149
20
-86.4528
40
0.127
50
180
51
360
0
LINE
8
Black
10
124.851
20
-88.127
11
126.649
21
-88.127
0
LINE
8
Black
10
124.851
20
-87.873
11
126.649
21
-87.873
0
ARC
8
Black
10
126.649
20
-88
40
0.127
50
270
51
450
0
ARC
8
Black
10
124.851
20
-88
40
0.127
50
90
51
270
0
LINE
8
Black
10
124.153
20
-87.2771
11
123.239
21
-86.363
0
LINE
8
Black
10
123.973
20
-87.4567
11
123.059
21
-86.5426
0
ARC
8
Black
10
123.149
20
-86.4528
40
0.127
50
405
51
585
0
ARC
8
Black
10
124.063
20
-87.3669
40
0.127
50
225
51
405
0
LINE
8
Black
10
124.19
20
-88
11
124.19
21
-87.3669
0
LINE
8
Black
10
123.936
20
-88
11
123.936
21
-87.3669
0
ARC
8
Black
10
124.063
20
-87.3669
40
0.127
50
360
51
540
0
ARC
8
Black
10
124.063
20
-88
40
0.127
50
180
51
360
0
LINE
8
Black
10
124.063
20
-88.127
11
124.851
21
-88.127
0
LINE
8
Black
10
124.063
20
-87.873
11
124.851
21
-87.873
0
ARC
8
Black
10
124.851
20
-88
40
0.127
50
270
51
450
0
ARC
8
Black
10
124.063
20
-88
40
0.127
50
90
51
270
0
LINE
8
Black
10
114.738
20
-89.8195
11
126.474
21
-89.8195
0
LINE
8
Black
10
114.738
20
-89.5655
11
126.474
21
-89.5655
0
ARC
8
Black
10
126.474
20
-89.6925
40
0.127
50
270
51
450
0
ARC
8
Black
10
114.738
20
-89.6925
40
0.127
50
90
51
270
0
LINE
8
Black
10
127.473
20
-88.5132
11
126.384
21
-89.6027
0
LINE
8
Black
10
127.653
20
-88.6928
11
126.564
21
-89.7823
0
ARC
8
Black
10
126.474
20
-89.6925
40
0.127
50
495
51
675
0
ARC
8
Black
10
127.563
20
-88.603
40
0.127
50
315
51
495
0
LINE
8
Black
10
127.69
20
-88.603
11
127.69
21
-88
0
LINE
8
Black
10
127.436
20
-88.603
11
127.436
21
-88
0
ARC
8
Black
10
127.563
20
-88
40
0.127
50
360
51
540
0
ARC
8
Black
10
127.563
20
-88.603
40
0.127
50
180
51
360
0
LINE
8
Black
10
127.563
20
-88.127
11
128.351
21
-88.127
0
LINE
8
Black
10
127.563
20
-87.873
11
128.351
21
-87.873
0
ARC
8
Black
10
128.351
20
-88
40
0.127
50
270
51
450
0
ARC
8
Black
10
127.563
20
-88
40
0.127
50
90
51
270
0
LINE
8
Black
10
116.088
20
-90.5293
11
116.044
21
-90.5739
0
LINE
8
Black
10
116.268
20
-90.7089
11
116.223
21
-90.7535
0
ARC
8
Black
10
116.134
20
-90.6637
40
0.127
50
495
51
675
0
ARC
8
Black
10
116.178
20
-90.6191
40
0.127
50
315
51
495
0
LINE
8
Black
10
116.178
20
-90.7461
11
118.429
21
-90.7461
0
LINE
8
Black
10
116.178
20
-90.4921
11
118.429
21
-90.4921
0
ARC
8
Black
10
118.429
20
-90.6191
40
0.127
50
270
51
450
0
ARC
8
Black
10
116.178
20
-90.6191
40
0.127
50
90
51
270
0
LINE
8
Black
10
119.9
20
-91.9102
11
118.519
21
-90.5293
0
LINE
8
Black
10
119.72
20
-92.0898
11
118.339
21
-90.7089
0
ARC
8
Black
10
118.429
20
-90.6191
40
0.127
50
405
51
585
0
ARC
8
Black
10
119.81
20
-92
40
0.127
50
225
51
405
0
LINE
8
Black
10
114.924
20
-92.0141
11
114.744
21
-92.1937
0
LINE
8
Black
10
114.744
20
-92.1937
11
114.73
21
-92.1796
0
LINE
8
Black
10
114.73
20
-92.1796
11
114.716
21
-92.1937
0
LINE
8
Black
10
114.716
20
-92.1937
11
114.536
21
-92.0141
0
LINE
8
Black
10
114.536
20
-92.0141
11
114.55
21
-92
0
LINE
8
Black
10
114.55
20
-92
11
113.578
21
-91.0274
0
LINE
8
Black
10
113.578
20
-91.0274
11
113.311
21
-91.126
0
LINE
8
Black
10
113.311
20
-91.126
11
113.299
21
-91.1573
0
LINE
8
Black
10
113.299
20
-91.1573
11
112.973
21
-90.8304
0
LINE
8
Black
10
112.973
20
-90.8304
11
112.466
21
-90.6198
0
LINE
8
Black
10
112.466
20
-90.6198
11
111.917
21
-90.6193
0
LINE
8
Black
10
111.917
20
-90.6193
11
111.657
21
-90.7265
0
LINE
8
Black
10
111.657
20
-90.7265
11
111.657
21
-89.0761
0
LINE
8
Black
10
111.657
20
-89.0761
11
111.893
21
-89.3121
0
LINE
8
Black
10
111.893
20
-89.3121
11
112.058
21
-89.4222
0
LINE
8
Black
10
112.058
20
-89.4222
11
112.252
21
-89.4609
0
LINE
8
Black
10
112.252
20
-89.4609
11
113.94
21
-89.4609
0
LINE
8
Black
10
113.94
20
-89.4609
11
113.912
21
-89.5276
0
LINE
8
Black
10
113.912
20
-89.5276
11
113.912
21
-89.856
0
LINE
8
Black
10
113.912
20
-89.856
11
114.037
21
-90.1595
0
LINE
8
Black
10
114.037
20
-90.1595
11
114.269
21
-90.3919
0
LINE
8
Black
10
114.269
20
-90.3919
11
114.291
21
-90.4009
0
LINE
8
Black
10
114.291
20
-90.4009
11
113.856
21
-90.581
0
LINE
8
Black
10
113.856
20
-90.581
11
113.757
21
-90.8478
0
LINE
8
Black
10
113.757
20
-90.8478
11
114.73
21
-91.8204
0
LINE
8
Black
10
114.73
20
-91.8204
11
114.744
21
-91.8063
0
LINE
8
Black
10
114.744
20
-91.8063
11
114.924
21
-91.9859
0
LINE
8
Black
10
114.924
20
-91.9859
11
114.91
21
-92
0
LINE
8
Black
10
114.91
20
-92
11
114.924
21
-92.0141
0
LINE
8
Black
10
114.924
20
-92.0141
11
114.744
21
-92.1937
0
LINE
8
Black
10
114.744
20
-92.1937
11
114.73
21
-92.1796
0
LINE
8
Black
10
114.73
20
-92.1796
11
114.716
21
-92.1937
0
LINE
8
Black
10
114.716
20
-92.1937
11
114.536
21
-92.0141
0
LINE
8
Black
10
114.536
20
-92.0141
11
114.55
21
-92
0
LINE
8
Black
10
114.55
20
-92
11
113.578
21
-91.0274
0
LINE
8
Black
10
113.578
20
-91.0274
11
113.311
21
-91.126
0
LINE
8
Black
10
113.311
20
-91.126
11
113.299
21
-91.1573
0
LINE
8
Black
10
113.299
20
-91.1573
11
112.973
21
-90.8304
0
LINE
8
Black
10
112.973
20
-90.8304
11
112.466
21
-90.6198
0
LINE
8
Black
10
112.466
20
-90.6198
11
111.917
21
-90.6193
0
LINE
8
Black
10
111.917
20
-90.6193
11
111.657
21
-90.7265
0
LINE
8
Black
10
111.657
20
-90.7265
11
111.657
21
-89.0761
0
LINE
8
Black
10
111.657
20
-89.0761
11
111.893
21
-89.3121
0
LINE
8
Black
10
111.893
20
-89.3121
11
112.058
21
-89.4222
0
LINE
8
Black
10
112.058
20
-89.4222
11
112.252
21
-89.4609
0
LINE
8
Black
10
112.252
20
-89.4609
11
113.94
21
-89.4609
0
LINE
8
Black
10
113.94
20
-89.4609
11
113.912
21
-89.5276
0
LINE
8
Black
10
113.912
20
-89.5276
11
113.912
21
-89.856
0
LINE
8
Black
10
113.912
20
-89.856
11
114.037
21
-90.1595
0
LINE
8
Black
10
114.037
20
-90.1595
11
114.269
21
-90.3919
0
LINE
8
Black
10
114.269
20
-90.3919
11
114.291
21
-90.4009
0
LINE
8
Black
10
114.291
20
-90.4009
11
113.856
21
-90.581
0
LINE
8
Black
10
113.856
20
-90.581
11
113.757
21
-90.8478
0
LINE
8
Black
10
113.757
20
-90.8478
11
114.73
21
-91.8204
0
LINE
8
Black
10
114.73
20
-91.8204
11
114.744
21
-91.8063
0
LINE
8
Black
10
114.744
20
-91.8063
11
114.924
21
-91.9859
0
LINE
8
Black
10
114.924
20
-91.9859
11
114.91
21
-92
0
LINE
8
Black
10
114.91
20
-92
11
114.924
21
-92.0141
0
LINE
8
Black
10
117.18
20
-78.9525
11
116.058
21
-80.0741
0
LINE
8
Black
10
116.058
20
-80.0741
11
115.948
21
-80.2389
0
LINE
8
Black
10
115.948
20
-80.2389
11
115.91
21
-80.4333
0
LINE
8
Black
10
115.91
20
-80.4333
11
115.91
21
-81.2752
0
LINE
8
Black
10
115.91
20
-81.2752
11
115.948
21
-81.4696
0
LINE
8
Black
10
115.948
20
-81.4696
11
116.058
21
-81.6344
0
LINE
8
Black
10
116.058
20
-81.6344
11
116.283
21
-81.8592
0
LINE
8
Black
10
116.283
20
-81.8592
11
116.423
21
-81.9524
0
LINE
8
Black
10
116.423
20
-81.9524
11
116.423
21
-82.0241
0
LINE
8
Black
10
116.423
20
-82.0241
11
116.423
21
-82.4229
0
LINE
8
Black
10
116.423
20
-82.4229
11
116.481
21
-82.5629
0
LINE
8
Black
10
116.481
20
-82.5629
11
116.501
21
-82.5836
0
LINE
8
Black
10
116.501
20
-82.5836
11
116.064
21
-83.0219
0
LINE
8
Black
10
116.064
20
-83.0219
11
116.008
21
-83.1054
0
LINE
8
Black
10
116.008
20
-83.1054
11
115.954
21
-83.1865
0
LINE
8
Black
10
115.954
20
-83.1865
11
115.954
21
-83.1866
0
LINE
8
Black
10
115.954
20
-83.1866
11
115.954
21
-83.1867
0
LINE
8
Black
10
115.954
20
-83.1867
11
115.934
21
-83.2843
0
LINE
8
Black
10
115.934
20
-83.2843
11
115.915
21
-83.3809
0
LINE
8
Black
10
115.915
20
-83.3809
11
115.915
21
-83.3812
0
LINE
8
Black
10
115.915
20
-83.3812
11
115.915
21
-84.837
0
LINE
8
Black
10
115.915
20
-84.837
11
115.044
21
-83.9663
0
LINE
8
Black
10
115.044
20
-83.9663
11
114.88
21
-83.8562
0
LINE
8
Black
10
114.88
20
-83.8562
11
114.685
21
-83.8175
0
LINE
8
Black
10
114.685
20
-83.8175
11
111.515
21
-83.8175
0
LINE
8
Black
10
111.515
20
-83.8175
11
111.42
21
-83.7226
0
LINE
8
Black
10
111.42
20
-83.7226
11
110.421
21
-83.7226
0
LINE
8
Black
10
110.421
20
-83.7226
11
110.421
21
-83.7645
0
LINE
8
Black
10
110.421
20
-83.7645
11
110.167
21
-83.7645
0
LINE
8
Black
10
110.167
20
-83.7645
11
110.167
21
-83.7226
0
LINE
8
Black
10
110.167
20
-83.7226
11
109.168
21
-83.7226
0
LINE
8
Black
10
109.168
20
-83.7226
11
109.009
21
-83.8814
0
LINE
8
Black
10
109.009
20
-83.8814
11
109.009
21
-83.9239
0
LINE
8
Black
10
109.009
20
-83.9239
11
109.105
21
-84.1573
0
LINE
8
Black
10
109.105
20
-84.1573
11
109.263
21
-84.3146
0
LINE
8
Black
10
109.263
20
-84.3146
11
109.263
21
-84.4351
0
LINE
8
Black
10
109.263
20
-84.4351
11
109.263
21
-84.4351
0
LINE
8
Black
10
109.263
20
-84.4351
11
109.068
21
-84.4738
0
LINE
8
Black
10
109.068
20
-84.4738
11
108.903
21
-84.5839
0
LINE
8
Black
10
108.903
20
-84.5839
11
108.568
21
-84.9188
0
LINE
8
Black
10
108.568
20
-84.9188
11
108.667
21
-84.6802
0
LINE
8
Black
10
108.667
20
-84.6802
11
108.668
21
-84.3013
0
LINE
8
Black
10
108.668
20
-84.3013
11
108.523
21
-83.9511
0
LINE
8
Black
10
108.523
20
-83.9511
11
108.344
21
-83.7718
0
LINE
8
Black
10
108.344
20
-83.7718
11
108.38
21
-83.7572
0
LINE
8
Black
10
108.38
20
-83.7572
11
108.629
21
-83.508
0
LINE
8
Black
10
108.629
20
-83.508
11
108.985
21
-83.508
0
LINE
8
Black
10
108.985
20
-83.508
11
108.985
21
-83.508
0
LINE
8
Black
10
108.985
20
-83.508
11
108.998
21
-83.5163
0
LINE
8
Black
10
108.998
20
-83.5163
11
108.998
21
-83.5163
0
LINE
8
Black
10
108.998
20
-83.5163
11
109.139
21
-83.5444
0
LINE
8
Black
10
109.139
20
-83.5444
11
109.168
21
-83.5728
0
LINE
8
Black
10
109.168
20
-83.5728
11
110.167
21
-83.5728
0
LINE
8
Black
10
110.167
20
-83.5728
11
110.167
21
-83.5588
0
LINE
8
Black
10
110.167
20
-83.5588
11
110.294
21
-83.5588
0
LINE
8
Black
10
110.294
20
-83.5588
11
110.421
21
-83.5335
0
LINE
8
Black
10
110.421
20
-83.5335
11
110.421
21
-83.5728
0
LINE
8
Black
10
110.421
20
-83.5728
11
111.42
21
-83.5728
0
LINE
8
Black
10
111.42
20
-83.5728
11
111.579
21
-83.414
0
LINE
8
Black
10
111.579
20
-83.414
11
111.579
21
-83.3715
0
LINE
8
Black
10
111.579
20
-83.3715
11
111.483
21
-83.1381
0
LINE
8
Black
10
111.483
20
-83.1381
11
111.338
21
-82.9937
0
LINE
8
Black
10
111.338
20
-82.9937
11
111.483
21
-82.8492
0
LINE
8
Black
10
111.483
20
-82.8492
11
111.579
21
-82.6158
0
LINE
8
Black
10
111.579
20
-82.6158
11
111.579
21
-82.5733
0
LINE
8
Black
10
111.579
20
-82.5733
11
111.42
21
-82.4145
0
LINE
8
Black
10
111.42
20
-82.4145
11
110.421
21
-82.4145
0
LINE
8
Black
10
110.421
20
-82.4145
11
110.421
21
-82.4665
0
LINE
8
Black
10
110.421
20
-82.4665
11
110.294
21
-82.4412
0
LINE
8
Black
10
110.294
20
-82.4412
11
110.167
21
-82.4412
0
LINE
8
Black
10
110.167
20
-82.4412
11
110.167
21
-82.4145
0
LINE
8
Black
10
110.167
20
-82.4145
11
109.282
21
-82.4145
0
LINE
8
Black
10
109.282
20
-82.4145
11
109.161
21
-82.3904
0
LINE
8
Black
10
109.161
20
-82.3904
11
108.629
21
-82.3904
0
LINE
8
Black
10
108.629
20
-82.3904
11
108.381
21
-82.1422
0
LINE
8
Black
10
108.381
20
-82.1422
11
108.031
21
-81.9969
0
LINE
8
Black
10
108.031
20
-81.9969
11
107.652
21
-81.9965
0
LINE
8
Black
10
107.652
20
-81.9965
11
107.302
21
-82.1412
0
LINE
8
Black
10
107.302
20
-82.1412
11
107.034
21
-82.4089
0
LINE
8
Black
10
107.034
20
-82.4089
11
106.888
21
-82.7589
0
LINE
8
Black
10
106.888
20
-82.7589
11
106.888
21
-82.8729
0
LINE
8
Black
10
106.888
20
-82.8729
11
106.62
21
-82.6049
0
LINE
8
Black
10
106.62
20
-82.6049
11
106.439
21
-82.4837
0
LINE
8
Black
10
106.439
20
-82.4837
11
106.333
21
-82.4626
0
LINE
8
Black
10
106.333
20
-82.4626
11
107.305
21
-81.4906
0
LINE
8
Black
10
107.305
20
-81.4906
11
107.415
21
-81.3258
0
LINE
8
Black
10
107.415
20
-81.3258
11
107.454
21
-81.1314
0
LINE
8
Black
10
107.454
20
-81.1314
11
107.454
21
-78.9525
0
LINE
8
Black
10
107.454
20
-78.9525
11
107.52
21
-78.9525
0
LINE
8
Black
10
107.52
20
-78.9525
11
108.333
21
-78.9525
0
LINE
8
Black
10
108.333
20
-78.9525
11
108.473
21
-78.8945
0
LINE
8
Black
10
108.473
20
-78.8945
11
108.58
21
-78.7873
0
LINE
8
Black
10
108.58
20
-78.7873
11
108.638
21
-78.6473
0
LINE
8
Black
10
108.638
20
-78.6473
11
108.638
21
-78.508
0
LINE
8
Black
10
108.638
20
-78.508
11
108.755
21
-78.508
0
LINE
8
Black
10
108.755
20
-78.508
11
108.755
21
-81.6919
0
LINE
8
Black
10
108.755
20
-81.6919
11
108.793
21
-81.8863
0
LINE
8
Black
10
108.793
20
-81.8863
11
108.903
21
-82.0511
0
LINE
8
Black
10
108.903
20
-82.0511
11
109.056
21
-82.1531
0
LINE
8
Black
10
109.056
20
-82.1531
11
109.168
21
-82.2647
0
LINE
8
Black
10
109.168
20
-82.2647
11
110.167
21
-82.2647
0
LINE
8
Black
10
110.167
20
-82.2647
11
110.167
21
-82.2228
0
LINE
8
Black
10
110.167
20
-82.2228
11
110.421
21
-82.2228
0
LINE
8
Black
10
110.421
20
-82.2228
11
110.421
21
-82.2647
0
LINE
8
Black
10
110.421
20
-82.2647
11
111.42
21
-82.2647
0
LINE
8
Black
10
111.42
20
-82.2647
11
111.579
21
-82.1059
0
LINE
8
Black
10
111.579
20
-82.1059
11
111.579
21
-82.0634
0
LINE
8
Black
10
111.579
20
-82.0634
11
111.483
21
-81.83
0
LINE
8
Black
10
111.483
20
-81.83
11
111.325
21
-81.6727
0
LINE
8
Black
10
111.325
20
-81.6727
11
111.325
21
-81.5522
0
LINE
8
Black
10
111.325
20
-81.5522
11
111.326
21
-81.5522
0
LINE
8
Black
10
111.326
20
-81.5522
11
111.52
21
-81.5135
0
LINE
8
Black
10
111.52
20
-81.5135
11
111.685
21
-81.4034
0
LINE
8
Black
10
111.685
20
-81.4034
11
113.21
21
-79.878
0
LINE
8
Black
10
113.21
20
-79.878
11
113.21
21
-79.878
0
LINE
8
Black
10
113.21
20
-79.878
11
113.32
21
-79.7132
0
LINE
8
Black
10
113.32
20
-79.7132
11
113.32
21
-79.7132
0
LINE
8
Black
10
113.32
20
-79.7132
11
113.327
21
-79.681
0
LINE
8
Black
10
113.327
20
-79.681
11
113.359
21
-79.5188
0
LINE
8
Black
10
113.359
20
-79.5188
11
113.359
21
-79.5188
0
LINE
8
Black
10
113.359
20
-79.5188
11
113.359
21
-78.9528
0
LINE
8
Black
10
113.359
20
-78.9528
11
113.359
21
-78.9418
0
LINE
8
Black
10
113.359
20
-78.9418
11
113.473
21
-78.8945
0
LINE
8
Black
10
113.473
20
-78.8945
11
113.58
21
-78.7873
0
LINE
8
Black
10
113.58
20
-78.7873
11
113.638
21
-78.6473
0
LINE
8
Black
10
113.638
20
-78.6473
11
113.638
21
-78.508
0
LINE
8
Black
10
113.638
20
-78.508
11
116.361
21
-78.508
0
LINE
8
Black
10
116.361
20
-78.508
11
116.362
21
-78.508
0
LINE
8
Black
10
116.362
20
-78.508
11
116.362
21
-78.6473
0
LINE
8
Black
10
116.362
20
-78.6473
11
116.42
21
-78.7873
0
LINE
8
Black
10
116.42
20
-78.7873
11
116.527
21
-78.8945
0
LINE
8
Black
10
116.527
20
-78.8945
11
116.667
21
-78.9525
0
LINE
8
Black
10
116.667
20
-78.9525
11
116.818
21
-78.9525
0
LINE
8
Black
10
116.818
20
-78.9525
11
117.18
21
-78.9525
0
LINE
8
Black
10
117.18
20
-78.9525
11
116.058
21
-80.0741
0
LINE
8
Black
10
116.058
20
-80.0741
11
115.948
21
-80.2389
0
LINE
8
Black
10
115.948
20
-80.2389
11
115.91
21
-80.4333
0
LINE
8
Black
10
115.91
20
-80.4333
11
115.91
21
-81.2752
0
LINE
8
Black
10
115.91
20
-81.2752
11
115.948
21
-81.4696
0
LINE
8
Black
10
115.948
20
-81.4696
11
116.058
21
-81.6344
0
LINE
8
Black
10
116.058
20
-81.6344
11
116.283
21
-81.8592
0
LINE
8
Black
10
116.283
20
-81.8592
11
116.423
21
-81.9524
0
LINE
8
Black
10
116.423
20
-81.9524
11
116.423
21
-82.0241
0
LINE
8
Black
10
116.423
20
-82.0241
11
116.423
21
-82.4229
0
LINE
8
Black
10
116.423
20
-82.4229
11
116.481
21
-82.5629
0
LINE
8
Black
10
116.481
20
-82.5629
11
116.501
21
-82.5836
0
LINE
8
Black
10
116.501
20
-82.5836
11
116.064
21
-83.0219
0
LINE
8
Black
10
116.064
20
-83.0219
11
116.008
21
-83.1054
0
LINE
8
Black
10
116.008
20
-83.1054
11
115.954
21
-83.1865
0
LINE
8
Black
10
115.954
20
-83.1865
11
115.954
21
-83.1866
0
LINE
8
Black
10
115.954
20
-83.1866
11
115.954
21
-83.1867
0
LINE
8
Black
10
115.954
20
-83.1867
11
115.934
21
-83.2843
0
LINE
8
Black
10
115.934
20
-83.2843
11
115.915
21
-83.3809
0
LINE
8
Black
10
115.915
20
-83.3809
11
115.915
21
-83.3812
0
LINE
8
Black
10
115.915
20
-83.3812
11
115.915
21
-84.837
0
LINE
8
Black
10
115.915
20
-84.837
11
115.044
21
-83.9663
0
LINE
8
Black
10
115.044
20
-83.9663
11
114.88
21
-83.8562
0
LINE
8
Black
10
114.88
20
-83.8562
11
114.685
21
-83.8175
0
LINE
8
Black
10
114.685
20
-83.8175
11
111.515
21
-83.8175
0
LINE
8
Black
10
111.515
20
-83.8175
11
111.42
21
-83.7226
0
LINE
8
Black
10
111.42
20
-83.7226
11
110.421
21
-83.7226
0
LINE
8
Black
10
110.421
20
-83.7226
11
110.421
21
-83.7645
0
LINE
8
Black
10
110.421
20
-83.7645
11
110.167
21
-83.7645
0
LINE
8
Black
10
110.167
20
-83.7645
11
110.167
21
-83.7226
0
LINE
8
Black
10
110.167
20
-83.7226
11
109.168
21
-83.7226
0
LINE
8
Black
10
109.168
20
-83.7226
11
109.009
21
-83.8814
0
LINE
8
Black
10
109.009
20
-83.8814
11
109.009
21
-83.9239
0
LINE
8
Black
10
109.009
20
-83.9239
11
109.105
21
-84.1573
0
LINE
8
Black
10
109.105
20
-84.1573
11
109.263
21
-84.3146
0
LINE
8
Black
10
109.263
20
-84.3146
11
109.263
21
-84.4351
0
LINE
8
Black
10
109.263
20
-84.4351
11
109.263
21
-84.4351
0
LINE
8
Black
10
109.263
20
-84.4351
11
109.068
21
-84.4738
0
LINE
8
Black
10
109.068
20
-84.4738
11
108.903
21
-84.5839
0
LINE
8
Black
10
108.903
20
-84.5839
11
108.568
21
-84.9188
0
LINE
8
Black
10
108.568
20
-84.9188
11
108.667
21
-84.6802
0
LINE
8
Black
10
108.667
20
-84.6802
11
108.668
21
-84.3013
0
LINE
8
Black
10
108.668
20
-84.3013
11
108.523
21
-83.9511
0
LINE
8
Black
10
108.523
20
-83.9511
11
108.344
21
-83.7718
0
LINE
8
Black
10
108.344
20
-83.7718
11
108.38
21
-83.7572
0
LINE
8
Black
10
108.38
20
-83.7572
11
108.629
21
-83.508
0
LINE
8
Black
10
108.629
20
-83.508
11
108.985
21
-83.508
0
LINE
8
Black
10
108.985
20
-83.508
11
108.985
21
-83.508
0
LINE
8
Black
10
108.985
20
-83.508
11
108.998
21
-83.5163
0
LINE
8
Black
10
108.998
20
-83.5163
11
108.998
21
-83.5163
0
LINE
8
Black
10
108.998
20
-83.5163
11
109.139
21
-83.5444
0
LINE
8
Black
10
109.139
20
-83.5444
11
109.168
21
-83.5728
0
LINE
8
Black
10
109.168
20
-83.5728
11
110.167
21
-83.5728
0
LINE
8
Black
10
110.167
20
-83.5728
11
110.167
21
-83.5588
0
LINE
8
Black
10
110.167
20
-83.5588
11
110.294
21
-83.5588
0
LINE
8
Black
10
110.294
20
-83.5588
11
110.421
21
-83.5335
0
LINE
8
Black
10
110.421
20
-83.5335
11
110.421
21
-83.5728
0
LINE
8
Black
10
110.421
20
-83.5728
11
111.42
21
-83.5728
0
LINE
8
Black
10
111.42
20
-83.5728
11
111.579
21
-83.414
0
LINE
8
Black
10
111.579
20
-83.414
11
111.579
21
-83.3715
0
LINE
8
Black
10
111.579
20
-83.3715
11
111.483
21
-83.1381
0
LINE
8
Black
10
111.483
20
-83.1381
11
111.338
21
-82.9937
0
LINE
8
Black
10
111.338
20
-82.9937
11
111.483
21
-82.8492
0
LINE
8
Black
10
111.483
20
-82.8492
11
111.579
21
-82.6158
0
LINE
8
Black
10
111.579
20
-82.6158
11
111.579
21
-82.5733
0
LINE
8
Black
10
111.579
20
-82.5733
11
111.42
21
-82.4145
0
LINE
8
Black
10
111.42
20
-82.4145
11
110.421
21
-82.4145
0
LINE
8
Black
10
110.421
20
-82.4145
11
110.421
21
-82.4665
0
LINE
8
Black
10
110.421
20
-82.4665
11
110.294
21
-82.4412
0
LINE
8
Black
10
110.294
20
-82.4412
11
110.167
21
-82.4412
0
LINE
8
Black
10
110.167
20
-82.4412
11
110.167
21
-82.4145
0
LINE
8
Black
10
110.167
20
-82.4145
11
109.282
21
-82.4145
0
LINE
8
Black
10
109.282
20
-82.4145
11
109.161
21
-82.3904
0
LINE
8
Black
10
109.161
20
-82.3904
11
108.629
21
-82.3904
0
LINE
8
Black
10
108.629
20
-82.3904
11
108.381
21
-82.1422
0
LINE
8
Black
10
108.381
20
-82.1422
11
108.031
21
-81.9969
0
LINE
8
Black
10
108.031
20
-81.9969
11
107.652
21
-81.9965
0
LINE
8
Black
10
107.652
20
-81.9965
11
107.302
21
-82.1412
0
LINE
8
Black
10
107.302
20
-82.1412
11
107.034
21
-82.4089
0
LINE
8
Black
10
107.034
20
-82.4089
11
106.888
21
-82.7589
0
LINE
8
Black
10
106.888
20
-82.7589
11
106.888
21
-82.8729
0
LINE
8
Black
10
106.888
20
-82.8729
11
106.62
21
-82.6049
0
LINE
8
Black
10
106.62
20
-82.6049
11
106.439
21
-82.4837
0
LINE
8
Black
10
106.439
20
-82.4837
11
106.333
21
-82.4626
0
LINE
8
Black
10
106.333
20
-82.4626
11
107.305
21
-81.4906
0
LINE
8
Black
10
107.305
20
-81.4906
11
107.415
21
-81.3258
0
LINE
8
Black
10
107.415
20
-81.3258
11
107.454
21
-81.1314
0
LINE
8
Black
10
107.454
20
-81.1314
11
107.454
21
-78.9525
0
LINE
8
Black
10
107.454
20
-78.9525
11
107.52
21
-78.9525
0
LINE
8
Black
10
107.52
20
-78.9525
11
108.333
21
-78.9525
0
LINE
8
Black
10
108.333
20
-78.9525
11
108.473
21
-78.8945
0
LINE
8
Black
10
108.473
20
-78.8945
11
108.58
21
-78.7873
0
LINE
8
Black
10
108.58
20
-78.7873
11
108.638
21
-78.6473
0
LINE
8
Black
10
108.638
20
-78.6473
11
108.638
21
-78.508
0
LINE
8
Black
10
108.638
20
-78.508
11
108.755
21
-78.508
0
LINE
8
Black
10
108.755
20
-78.508
11
108.755
21
-81.6919
0
LINE
8
Black
10
108.755
20
-81.6919
11
108.793
21
-81.8863
0
LINE
8
Black
10
108.793
20
-81.8863
11
108.903
21
-82.0511
0
LINE
8
Black
10
108.903
20
-82.0511
11
109.056
21
-82.1531
0
LINE
8
Black
10
109.056
20
-82.1531
11
109.168
21
-82.2647
0
LINE
8
Black
10
109.168
20
-82.2647
11
110.167
21
-82.2647
0
LINE
8
Black
10
110.167
20
-82.2647
11
110.167
21
-82.2228
0
LINE
8
Black
10
110.167
20
-82.2228
11
110.421
21
-82.2228
0
LINE
8
Black
10
110.421
20
-82.2228
11
110.421
21
-82.2647
0
LINE
8
Black
10
110.421
20
-82.2647
11
111.42
21
-82.2647
0
LINE
8
Black
10
111.42
20
-82.2647
11
111.579
21
-82.1059
0
LINE
8
Black
10
111.579
20
-82.1059
11
111.579
21
-82.0634
0
LINE
8
Black
10
111.579
20
-82.0634
11
111.483
21
-81.83
0
LINE
8
Black
10
111.483
20
-81.83
11
111.325
21
-81.6727
0
LINE
8
Black
10
111.325
20
-81.6727
11
111.325
21
-81.5522
0
LINE
8
Black
10
111.325
20
-81.5522
11
111.326
21
-81.5522
0
LINE
8
Black
10
111.326
20
-81.5522
11
111.52
21
-81.5135
0
LINE
8
Black
10
111.52
20
-81.5135
11
111.685
21
-81.4034
0
LINE
8
Black
10
111.685
20
-81.4034
11
113.21
21
-79.878
0
LINE
8
Black
10
113.21
20
-79.878
11
113.21
21
-79.878
0
LINE
8
Black
10
113.21
20
-79.878
11
113.32
21
-79.7132
0
LINE
8
Black
10
113.32
20
-79.7132
11
113.32
21
-79.7132
0
LINE
8
Black
10
113.32
20
-79.7132
11
113.327
21
-79.681
0
LINE
8
Black
10
113.327
20
-79.681
11
113.359
21
-79.5188
0
LINE
8
Black
10
113.359
20
-79.5188
11
113.359
21
-79.5188
0
LINE
8
Black
10
113.359
20
-79.5188
11
113.359
21
-78.9528
0
LINE
8
Black
10
113.359
20
-78.9528
11
113.359
21
-78.9418
0
LINE
8
Black
10
113.359
20
-78.9418
11
113.473
21
-78.8945
0
LINE
8
Black
10
113.473
20
-78.8945
11
113.58
21
-78.7873
0
LINE
8
Black
10
113.58
20
-78.7873
11
113.638
21
-78.6473
0
LINE
8
Black
10
113.638
20
-78.6473
11
113.638
21
-78.508
0
LINE
8
Black
10
113.638
20
-78.508
11
116.361
21
-78.508
0
LINE
8
Black
10
116.361
20
-78.508
11
116.362
21
-78.508
0
LINE
8
Black
10
116.362
20
-78.508
11
116.362
21
-78.6473
0
LINE
8
Black
10
116.362
20
-78.6473
11
116.42
21
-78.7873
0
LINE
8
Black
10
116.42
20
-78.7873
11
116.527
21
-78.8945
0
LINE
8
Black
10
116.527
20
-78.8945
11
116.667
21
-78.9525
0
LINE
8
Black
10
116.667
20
-78.9525
11
116.818
21
-78.9525
0
LINE
8
Black
10
116.818
20
-78.9525
11
117.18
21
-78.9525
0
LINE
8
Black
10
118.21
20
-87.1245
11
118.122
21
-87.2127
0
LINE
8
Black
10
118.122
20
-87.2127
11
118.064
21
-87.3527
0
LINE
8
Black
10
118.064
20
-87.3527
11
118.064
21
-87.5043
0
LINE
8
Black
10
118.064
20
-87.5043
11
118.064
21
-88.4449
0
LINE
8
Black
10
118.064
20
-88.4449
11
117.937
21
-88.4449
0
LINE
8
Black
10
117.937
20
-88.4449
11
117.937
21
-87.3527
0
LINE
8
Black
10
117.937
20
-87.3527
11
117.878
21
-87.2127
0
LINE
8
Black
10
117.878
20
-87.2127
11
117.771
21
-87.1055
0
LINE
8
Black
10
117.771
20
-87.1055
11
117.631
21
-87.0475
0
LINE
8
Black
10
117.631
20
-87.0475
11
117.48
21
-87.0475
0
LINE
8
Black
10
117.48
20
-87.0475
11
116.667
21
-87.0475
0
LINE
8
Black
10
116.667
20
-87.0475
11
116.527
21
-87.1055
0
LINE
8
Black
10
116.527
20
-87.1055
11
116.42
21
-87.2127
0
LINE
8
Black
10
116.42
20
-87.2127
11
116.382
21
-87.3026
0
LINE
8
Black
10
116.382
20
-87.3026
11
116.244
21
-87.1644
0
LINE
8
Black
10
116.244
20
-87.1644
11
116.079
21
-87.0543
0
LINE
8
Black
10
116.079
20
-87.0543
11
115.885
21
-87.0156
0
LINE
8
Black
10
115.885
20
-87.0156
11
113.359
21
-87.0156
0
LINE
8
Black
10
113.359
20
-87.0156
11
113.359
21
-86.4685
0
LINE
8
Black
10
113.359
20
-86.4685
11
113.327
21
-86.3063
0
LINE
8
Black
10
113.327
20
-86.3063
11
113.32
21
-86.2741
0
LINE
8
Black
10
113.32
20
-86.2741
11
113.32
21
-86.2741
0
LINE
8
Black
10
113.32
20
-86.2741
11
113.21
21
-86.1093
0
LINE
8
Black
10
113.21
20
-86.1093
11
113.21
21
-86.1093
0
LINE
8
Black
10
113.21
20
-86.1093
11
111.934
21
-84.8335
0
LINE
8
Black
10
111.934
20
-84.8335
11
114.475
21
-84.8335
0
LINE
8
Black
10
114.475
20
-84.8335
11
116.237
21
-86.5959
0
LINE
8
Black
10
116.237
20
-86.5959
11
116.402
21
-86.706
0
LINE
8
Black
10
116.402
20
-86.706
11
116.596
21
-86.7447
0
LINE
8
Black
10
116.596
20
-86.7447
11
117.979
21
-86.7447
0
LINE
8
Black
10
117.979
20
-86.7447
11
118.002
21
-86.862
0
LINE
8
Black
10
118.002
20
-86.862
11
118.112
21
-87.0268
0
LINE
8
Black
10
118.112
20
-87.0268
11
118.21
21
-87.1245
0
LINE
8
Black
10
118.21
20
-87.1245
11
118.122
21
-87.2127
0
LINE
8
Black
10
118.122
20
-87.2127
11
118.064
21
-87.3527
0
LINE
8
Black
10
118.064
20
-87.3527
11
118.064
21
-87.5043
0
LINE
8
Black
10
118.064
20
-87.5043
11
118.064
21
-88.4449
0
LINE
8
Black
10
118.064
20
-88.4449
11
117.937
21
-88.4449
0
LINE
8
Black
10
117.937
20
-88.4449
11
117.937
21
-87.3527
0
LINE
8
Black
10
117.937
20
-87.3527
11
117.878
21
-87.2127
0
LINE
8
Black
10
117.878
20
-87.2127
11
117.771
21
-87.1055
0
LINE
8
Black
10
117.771
20
-87.1055
11
117.631
21
-87.0475
0
LINE
8
Black
10
117.631
20
-87.0475
11
117.48
21
-87.0475
0
LINE
8
Black
10
117.48
20
-87.0475
11
116.667
21
-87.0475
0
LINE
8
Black
10
116.667
20
-87.0475
11
116.527
21
-87.1055
0
LINE
8
Black
10
116.527
20
-87.1055
11
116.42
21
-87.2127
0
LINE
8
Black
10
116.42
20
-87.2127
11
116.382
21
-87.3026
0
LINE
8
Black
10
116.382
20
-87.3026
11
116.244
21
-87.1644
0
LINE
8
Black
10
116.244
20
-87.1644
11
116.079
21
-87.0543
0
LINE
8
Black
10
116.079
20
-87.0543
11
115.885
21
-87.0156
0
LINE
8
Black
10
115.885
20
-87.0156
11
113.359
21
-87.0156
0
LINE
8
Black
10
113.359
20
-87.0156
11
113.359
21
-86.4685
0
LINE
8
Black
10
113.359
20
-86.4685
11
113.327
21
-86.3063
0
LINE
8
Black
10
113.327
20
-86.3063
11
113.32
21
-86.2741
0
LINE
8
Black
10
113.32
20
-86.2741
11
113.32
21
-86.2741
0
LINE
8
Black
10
113.32
20
-86.2741
11
113.21
21
-86.1093
0
LINE
8
Black
10
113.21
20
-86.1093
11
113.21
21
-86.1093
0
LINE
8
Black
10
113.21
20
-86.1093
11
111.934
21
-84.8335
0
LINE
8
Black
10
111.934
20
-84.8335
11
114.475
21
-84.8335
0
LINE
8
Black
10
114.475
20
-84.8335
11
116.237
21
-86.5959
0
LINE
8
Black
10
116.237
20
-86.5959
11
116.402
21
-86.706
0
LINE
8
Black
10
116.402
20
-86.706
11
116.596
21
-86.7447
0
LINE
8
Black
10
116.596
20
-86.7447
11
117.979
21
-86.7447
0
LINE
8
Black
10
117.979
20
-86.7447
11
118.002
21
-86.862
0
LINE
8
Black
10
118.002
20
-86.862
11
118.112
21
-87.0268
0
LINE
8
Black
10
118.112
20
-87.0268
11
118.21
21
-87.1245
0
LINE
8
Black
10
123.296
20
-88.127
11
123.276
21
-88.127
0
LINE
8
Black
10
123.276
20
-88.127
11
123.276
21
-88.147
0
LINE
8
Black
10
123.276
20
-88.147
11
123.022
21
-88.147
0
LINE
8
Black
10
123.022
20
-88.147
11
123.022
21
-88.127
0
LINE
8
Black
10
123.022
20
-88.127
11
122.266
21
-88.127
0
LINE
8
Black
10
122.266
20
-88.127
11
122.108
21
-88.2858
0
LINE
8
Black
10
122.108
20
-88.2858
11
122.108
21
-88.4452
0
LINE
8
Black
10
122.108
20
-88.4452
11
122.108
21
-88.6978
0
LINE
8
Black
10
122.108
20
-88.6978
11
122.204
21
-88.9312
0
LINE
8
Black
10
122.204
20
-88.9312
11
122.383
21
-89.1098
0
LINE
8
Black
10
122.383
20
-89.1098
11
122.563
21
-89.1845
0
LINE
8
Black
10
122.563
20
-89.1845
11
120.558
21
-89.1845
0
LINE
8
Black
10
120.558
20
-89.1845
11
121.214
21
-88.5283
0
LINE
8
Black
10
121.214
20
-88.5283
11
121.485
21
-88.5285
0
LINE
8
Black
10
121.485
20
-88.5285
11
121.788
21
-88.4031
0
LINE
8
Black
10
121.788
20
-88.4031
11
122.021
21
-88.1711
0
LINE
8
Black
10
122.021
20
-88.1711
11
122.147
21
-87.8678
0
LINE
8
Black
10
122.147
20
-87.8678
11
122.147
21
-87.7534
0
LINE
8
Black
10
122.147
20
-87.7534
11
122.266
21
-87.873
0
LINE
8
Black
10
122.266
20
-87.873
11
123.022
21
-87.873
0
LINE
8
Black
10
123.022
20
-87.873
11
123.022
21
-87.853
0
LINE
8
Black
10
123.022
20
-87.853
11
123.276
21
-87.853
0
LINE
8
Black
10
123.276
20
-87.853
11
123.276
21
-87.873
0
LINE
8
Black
10
123.276
20
-87.873
11
123.296
21
-87.873
0
LINE
8
Black
10
123.296
20
-87.873
11
123.296
21
-88.127
0
LINE
8
Black
10
123.296
20
-88.127
11
123.276
21
-88.127
0
LINE
8
Black
10
123.276
20
-88.127
11
123.276
21
-88.147
0
LINE
8
Black
10
123.276
20
-88.147
11
123.022
21
-88.147
0
LINE
8
Black
10
123.022
20
-88.147
11
123.022
21
-88.127
0
LINE
8
Black
10
123.022
20
-88.127
11
122.266
21
-88.127
0
LINE
8
Black
10
122.266
20
-88.127
11
122.108
21
-88.2858
0
LINE
8
Black
10
122.108
20
-88.2858
11
122.108
21
-88.4452
0
LINE
8
Black
10
122.108
20
-88.4452
11
122.108
21
-88.6978
0
LINE
8
Black
10
122.108
20
-88.6978
11
122.204
21
-88.9312
0
LINE
8
Black
10
122.204
20
-88.9312
11
122.383
21
-89.1098
0
LINE
8
Black
10
122.383
20
-89.1098
11
122.563
21
-89.1845
0
LINE
8
Black
10
122.563
20
-89.1845
11
120.558
21
-89.1845
0
LINE
8
Black
10
120.558
20
-89.1845
11
121.214
21
-88.5283
0
LINE
8
Black
10
121.214
20
-88.5283
11
121.485
21
-88.5285
0
LINE
8
Black
10
121.485
20
-88.5285
11
121.788
21
-88.4031
0
LINE
8
Black
10
121.788
20
-88.4031
11
122.021
21
-88.1711
0
LINE
8
Black
10
122.021
20
-88.1711
11
122.147
21
-87.8678
0
LINE
8
Black
10
122.147
20
-87.8678
11
122.147
21
-87.7534
0
LINE
8
Black
10
122.147
20
-87.7534
11
122.266
21
-87.873
0
LINE
8
Black
10
122.266
20
-87.873
11
123.022
21
-87.873
0
LINE
8
Black
10
123.022
20
-87.873
11
123.022
21
-87.853
0
LINE
8
Black
10
123.022
20
-87.853
11
123.276
21
-87.853
0
LINE
8
Black
10
123.276
20
-87.853
11
123.276
21
-87.873
0
LINE
8
Black
10
123.276
20
-87.873
11
123.296
21
-87.873
0
LINE
8
Black
10
123.296
20
-87.873
11
123.296
21
-88.127
0
LINE
8
Black
10
123.555
20
-84.5475
11
123.48
21
-84.5475
0
LINE
8
Black
10
123.48
20
-84.5475
11
122.667
21
-84.5475
0
LINE
8
Black
10
122.667
20
-84.5475
11
122.527
21
-84.6055
0
LINE
8
Black
10
122.527
20
-84.6055
11
122.42
21
-84.7127
0
LINE
8
Black
10
122.42
20
-84.7127
11
122.362
21
-84.8527
0
LINE
8
Black
10
122.362
20
-84.8527
11
122.362
21
-85.0043
0
LINE
8
Black
10
122.362
20
-85.0043
11
122.362
21
-85.7341
0
LINE
8
Black
10
122.362
20
-85.7341
11
122.028
21
-86.0675
0
LINE
8
Black
10
122.028
20
-86.0675
11
121.664
21
-86.0675
0
LINE
8
Black
10
121.664
20
-86.0675
11
120.237
21
-84.6408
0
LINE
8
Black
10
120.237
20
-84.6408
11
120.073
21
-84.5307
0
LINE
8
Black
10
120.073
20
-84.5307
11
119.878
21
-84.492
0
LINE
8
Black
10
119.878
20
-84.492
11
119.831
21
-84.492
0
LINE
8
Black
10
119.831
20
-84.492
11
119.713
21
-84.492
0
LINE
8
Black
10
119.713
20
-84.492
11
119.673
21
-84.452
0
LINE
8
Black
10
119.673
20
-84.452
11
119.35
21
-84.452
0
LINE
8
Black
10
119.35
20
-84.452
11
119.272
21
-84.4196
0
LINE
8
Black
10
119.272
20
-84.4196
11
119.121
21
-84.4196
0
LINE
8
Black
10
119.121
20
-84.4196
11
118.651
21
-84.4196
0
LINE
8
Black
10
118.651
20
-84.4196
11
118.651
21
-84.2526
0
LINE
8
Black
10
118.651
20
-84.2526
11
118.671
21
-84.2526
0
LINE
8
Black
10
118.671
20
-84.2526
11
118.671
21
-84.2053
0
LINE
8
Black
10
118.671
20
-84.2053
11
118.925
21
-84.2053
0
LINE
8
Black
10
118.925
20
-84.2053
11
118.925
21
-84.2526
0
LINE
8
Black
10
118.925
20
-84.2526
11
119.673
21
-84.2526
0
LINE
8
Black
10
119.673
20
-84.2526
11
119.831
21
-84.0939
0
LINE
8
Black
10
119.831
20
-84.0939
11
119.831
21
-84.0266
0
LINE
8
Black
10
119.831
20
-84.0266
11
119.735
21
-83.7932
0
LINE
8
Black
10
119.735
20
-83.7932
11
119.556
21
-83.6146
0
LINE
8
Black
10
119.556
20
-83.6146
11
119.323
21
-83.5179
0
LINE
8
Black
10
119.323
20
-83.5179
11
119.083
21
-83.5179
0
LINE
8
Black
10
119.083
20
-83.5179
11
118.925
21
-83.6767
0
LINE
8
Black
10
118.925
20
-83.6767
11
118.925
21
-83.614
0
LINE
8
Black
10
118.925
20
-83.614
11
119.157
21
-83.3815
0
LINE
8
Black
10
119.157
20
-83.3815
11
119.157
21
-83.3814
0
LINE
8
Black
10
119.157
20
-83.3814
11
119.157
21
-83.3814
0
LINE
8
Black
10
119.157
20
-83.3814
11
119.211
21
-83.3004
0
LINE
8
Black
10
119.211
20
-83.3004
11
119.267
21
-83.2167
0
LINE
8
Black
10
119.267
20
-83.2167
11
119.267
21
-83.2166
0
LINE
8
Black
10
119.267
20
-83.2166
11
119.267
21
-83.2166
0
LINE
8
Black
10
119.267
20
-83.2166
11
119.287
21
-83.1197
0
LINE
8
Black
10
119.287
20
-83.1197
11
119.306
21
-83.0223
0
LINE
8
Black
10
119.306
20
-83.0223
11
119.306
21
-83.0222
0
LINE
8
Black
10
119.306
20
-83.0222
11
119.306
21
-83.0222
0
LINE
8
Black
10
119.306
20
-83.0222
11
119.306
21
-82.7141
0
LINE
8
Black
10
119.306
20
-82.7141
11
119.412
21
-82.6701
0
LINE
8
Black
10
119.412
20
-82.6701
11
119.519
21
-82.5629
0
LINE
8
Black
10
119.519
20
-82.5629
11
119.577
21
-82.4229
0
LINE
8
Black
10
119.577
20
-82.4229
11
119.577
21
-82.2713
0
LINE
8
Black
10
119.577
20
-82.2713
11
119.577
21
-82.2164
0
LINE
8
Black
10
119.577
20
-82.2164
11
119.735
21
-82.0591
0
LINE
8
Black
10
119.735
20
-82.0591
11
119.831
21
-81.8257
0
LINE
8
Black
10
119.831
20
-81.8257
11
119.831
21
-81.7584
0
LINE
8
Black
10
119.831
20
-81.7584
11
119.673
21
-81.5997
0
LINE
8
Black
10
119.673
20
-81.5997
11
119.35
21
-81.5997
0
LINE
8
Black
10
119.35
20
-81.5997
11
119.272
21
-81.5673
0
LINE
8
Black
10
119.272
20
-81.5673
11
119.121
21
-81.5673
0
LINE
8
Black
10
119.121
20
-81.5673
11
118.651
21
-81.5673
0
LINE
8
Black
10
118.651
20
-81.5673
11
118.651
21
-81.4327
0
LINE
8
Black
10
118.651
20
-81.4327
11
119.272
21
-81.4327
0
LINE
8
Black
10
119.272
20
-81.4327
11
119.35
21
-81.4003
0
LINE
8
Black
10
119.35
20
-81.4003
11
119.673
21
-81.4003
0
LINE
8
Black
10
119.673
20
-81.4003
11
119.831
21
-81.2416
0
LINE
8
Black
10
119.831
20
-81.2416
11
119.831
21
-81.1743
0
LINE
8
Black
10
119.831
20
-81.1743
11
119.762
21
-81.008
0
LINE
8
Black
10
119.762
20
-81.008
11
122.362
21
-81.008
0
LINE
8
Black
10
122.362
20
-81.008
11
122.362
21
-81.1473
0
LINE
8
Black
10
122.362
20
-81.1473
11
122.42
21
-81.2873
0
LINE
8
Black
10
122.42
20
-81.2873
11
122.527
21
-81.3945
0
LINE
8
Black
10
122.527
20
-81.3945
11
122.641
21
-81.4418
0
LINE
8
Black
10
122.641
20
-81.4418
11
122.641
21
-82.0582
0
LINE
8
Black
10
122.641
20
-82.0582
11
122.527
21
-82.1055
0
LINE
8
Black
10
122.527
20
-82.1055
11
122.42
21
-82.2127
0
LINE
8
Black
10
122.42
20
-82.2127
11
122.362
21
-82.3527
0
LINE
8
Black
10
122.362
20
-82.3527
11
122.362
21
-82.5043
0
LINE
8
Black
10
122.362
20
-82.5043
11
122.362
21
-83.6473
0
LINE
8
Black
10
122.362
20
-83.6473
11
122.42
21
-83.7873
0
LINE
8
Black
10
122.42
20
-83.7873
11
122.527
21
-83.8945
0
LINE
8
Black
10
122.527
20
-83.8945
11
122.667
21
-83.9525
0
LINE
8
Black
10
122.667
20
-83.9525
11
122.818
21
-83.9525
0
LINE
8
Black
10
122.818
20
-83.9525
11
123.555
21
-83.9525
0
LINE
8
Black
10
123.555
20
-83.9525
11
123.555
21
-84.5475
0
LINE
8
Black
10
123.555
20
-84.5475
11
123.48
21
-84.5475
0
LINE
8
Black
10
123.48
20
-84.5475
11
122.667
21
-84.5475
0
LINE
8
Black
10
122.667
20
-84.5475
11
122.527
21
-84.6055
0
LINE
8
Black
10
122.527
20
-84.6055
11
122.42
21
-84.7127
0
LINE
8
Black
10
122.42
20
-84.7127
11
122.362
21
-84.8527
0
LINE
8
Black
10
122.362
20
-84.8527
11
122.362
21
-85.0043
0
LINE
8
Black
10
122.362
20
-85.0043
11
122.362
21
-85.7341
0
LINE
8
Black
10
122.362
20
-85.7341
11
122.028
21
-86.0675
0
LINE
8
Black
10
122.028
20
-86.0675
11
121.664
21
-86.0675
0
LINE
8
Black
10
121.664
20
-86.0675
11
120.237
21
-84.6408
0
LINE
8
Black
10
120.237
20
-84.6408
11
120.073
21
-84.5307
0
LINE
8
Black
10
120.073
20
-84.5307
11
119.878
21
-84.492
0
LINE
8
Black
10
119.878
20
-84.492
11
119.831
21
-84.492
0
LINE
8
Black
10
119.831
20
-84.492
11
119.713
21
-84.492
0
LINE
8
Black
10
119.713
20
-84.492
11
119.673
21
-84.452
0
LINE
8
Black
10
119.673
20
-84.452
11
119.35
21
-84.452
0
LINE
8
Black
10
119.35
20
-84.452
11
119.272
21
-84.4196
0
LINE
8
Black
10
119.272
20
-84.4196
11
119.121
21
-84.4196
0
LINE
8
Black
10
119.121
20
-84.4196
11
118.651
21
-84.4196
0
LINE
8
Black
10
118.651
20
-84.4196
11
118.651
21
-84.2526
0
LINE
8
Black
10
118.651
20
-84.2526
11
118.671
21
-84.2526
0
LINE
8
Black
10
118.671
20
-84.2526
11
118.671
21
-84.2053
0
LINE
8
Black
10
118.671
20
-84.2053
11
118.925
21
-84.2053
0
LINE
8
Black
10
118.925
20
-84.2053
11
118.925
21
-84.2526
0
LINE
8
Black
10
118.925
20
-84.2526
11
119.673
21
-84.2526
0
LINE
8
Black
10
119.673
20
-84.2526
11
119.831
21
-84.0939
0
LINE
8
Black
10
119.831
20
-84.0939
11
119.831
21
-84.0266
0
LINE
8
Black
10
119.831
20
-84.0266
11
119.735
21
-83.7932
0
LINE
8
Black
10
119.735
20
-83.7932
11
119.556
21
-83.6146
0
LINE
8
Black
10
119.556
20
-83.6146
11
119.323
21
-83.5179
0
LINE
8
Black
10
119.323
20
-83.5179
11
119.083
21
-83.5179
0
LINE
8
Black
10
119.083
20
-83.5179
11
118.925
21
-83.6767
0
LINE
8
Black
10
118.925
20
-83.6767
11
118.925
21
-83.614
0
LINE
8
Black
10
118.925
20
-83.614
11
119.157
21
-83.3815
0
LINE
8
Black
10
119.157
20
-83.3815
11
119.157
21
-83.3814
0
LINE
8
Black
10
119.157
20
-83.3814
11
119.157
21
-83.3814
0
LINE
8
Black
10
119.157
20
-83.3814
11
119.211
21
-83.3004
0
LINE
8
Black
10
119.211
20
-83.3004
11
119.267
21
-83.2167
0
LINE
8
Black
10
119.267
20
-83.2167
11
119.267
21
-83.2166
0
LINE
8
Black
10
119.267
20
-83.2166
11
119.267
21
-83.2166
0
LINE
8
Black
10
119.267
20
-83.2166
11
119.287
21
-83.1197
0
LINE
8
Black
10
119.287
20
-83.1197
11
119.306
21
-83.0223
0
LINE
8
Black
10
119.306
20
-83.0223
11
119.306
21
-83.0222
0
LINE
8
Black
10
119.306
20
-83.0222
11
119.306
21
-83.0222
0
LINE
8
Black
10
119.306
20
-83.0222
11
119.306
21
-82.7141
0
LINE
8
Black
10
119.306
20
-82.7141
11
119.412
21
-82.6701
0
LINE
8
Black
10
119.412
20
-82.6701
11
119.519
21
-82.5629
0
LINE
8
Black
10
119.519
20
-82.5629
11
119.577
21
-82.4229
0
LINE
8
Black
10
119.577
20
-82.4229
11
119.577
21
-82.2713
0
LINE
8
Black
10
119.577
20
-82.2713
11
119.577
21
-82.2164
0
LINE
8
Black
10
119.577
20
-82.2164
11
119.735
21
-82.0591
0
LINE
8
Black
10
119.735
20
-82.0591
11
119.831
21
-81.8257
0
LINE
8
Black
10
119.831
20
-81.8257
11
119.831
21
-81.7584
0
LINE
8
Black
10
119.831
20
-81.7584
11
119.673
21
-81.5997
0
LINE
8
Black
10
119.673
20
-81.5997
11
119.35
21
-81.5997
0
LINE
8
Black
10
119.35
20
-81.5997
11
119.272
21
-81.5673
0
LINE
8
Black
10
119.272
20
-81.5673
11
119.121
21
-81.5673
0
LINE
8
Black
10
119.121
20
-81.5673
11
118.651
21
-81.5673
0
LINE
8
Black
10
118.651
20
-81.5673
11
118.651
21
-81.4327
0
LINE
8
Black
10
118.651
20
-81.4327
11
119.272
21
-81.4327
0
LINE
8
Black
10
119.272
20
-81.4327
11
119.35
21
-81.4003
0
LINE
8
Black
10
119.35
20
-81.4003
11
119.673
21
-81.4003
0
LINE
8
Black
10
119.673
20
-81.4003
11
119.831
21
-81.2416
0
LINE
8
Black
10
119.831
20
-81.2416
11
119.831
21
-81.1743
0
LINE
8
Black
10
119.831
20
-81.1743
11
119.762
21
-81.008
0
LINE
8
Black
10
119.762
20
-81.008
11
122.362
21
-81.008
0
LINE
8
Black
10
122.362
20
-81.008
11
122.362
21
-81.1473
0
LINE
8
Black
10
122.362
20
-81.1473
11
122.42
21
-81.2873
0
LINE
8
Black
10
122.42
20
-81.2873
11
122.527
21
-81.3945
0
LINE
8
Black
10
122.527
20
-81.3945
11
122.641
21
-81.4418
0
LINE
8
Black
10
122.641
20
-81.4418
11
122.641
21
-82.0582
0
LINE
8
Black
10
122.641
20
-82.0582
11
122.527
21
-82.1055
0
LINE
8
Black
10
122.527
20
-82.1055
11
122.42
21
-82.2127
0
LINE
8
Black
10
122.42
20
-82.2127
11
122.362
21
-82.3527
0
LINE
8
Black
10
122.362
20
-82.3527
11
122.362
21
-82.5043
0
LINE
8
Black
10
122.362
20
-82.5043
11
122.362
21
-83.6473
0
LINE
8
Black
10
122.362
20
-83.6473
11
122.42
21
-83.7873
0
LINE
8
Black
10
122.42
20
-83.7873
11
122.527
21
-83.8945
0
LINE
8
Black
10
122.527
20
-83.8945
11
122.667
21
-83.9525
0
LINE
8
Black
10
122.667
20
-83.9525
11
122.818
21
-83.9525
0
LINE
8
Black
10
122.818
20
-83.9525
11
123.555
21
-83.9525
0
LINE
8
Black
10
123.555
20
-83.9525
11
123.555
21
-84.5475
0
LINE
8
Black
10
125.971
20
-90.2005
11
125.439
21
-90.733
0
LINE
8
Black
10
125.439
20
-90.733
11
125.166
21
-90.6198
0
LINE
8
Black
10
125.166
20
-90.6198
11
124.617
21
-90.6193
0
LINE
8
Black
10
124.617
20
-90.6193
11
124.109
21
-90.829
0
LINE
8
Black
10
124.109
20
-90.829
11
123.781
21
-91.1561
0
LINE
8
Black
10
123.781
20
-91.1561
11
123.769
21
-91.126
0
LINE
8
Black
10
123.769
20
-91.126
11
123.502
21
-91.0274
0
LINE
8
Black
10
123.502
20
-91.0274
11
123.323
21
-91.207
0
LINE
8
Black
10
123.323
20
-91.207
11
123.323
21
-90.8478
0
LINE
8
Black
10
123.323
20
-90.8478
11
123.224
21
-90.581
0
LINE
8
Black
10
123.224
20
-90.581
11
122.614
21
-90.3546
0
LINE
8
Black
10
122.614
20
-90.3546
11
121.965
21
-90.3787
0
LINE
8
Black
10
121.965
20
-90.3787
11
121.476
21
-90.581
0
LINE
8
Black
10
121.476
20
-90.581
11
121.377
21
-90.8478
0
LINE
8
Black
10
121.377
20
-90.8478
11
122.35
21
-91.8204
0
LINE
8
Black
10
122.35
20
-91.8204
11
123.323
21
-90.8478
0
LINE
8
Black
10
123.323
20
-90.8478
11
123.323
21
-91.207
0
LINE
8
Black
10
123.323
20
-91.207
11
122.53
21
-92
0
LINE
8
Black
10
122.53
20
-92
11
122.544
21
-92.0141
0
LINE
8
Black
10
122.544
20
-92.0141
11
122.364
21
-92.1937
0
LINE
8
Black
10
122.364
20
-92.1937
11
122.35
21
-92.1796
0
LINE
8
Black
10
122.35
20
-92.1796
11
122.336
21
-92.1937
0
LINE
8
Black
10
122.336
20
-92.1937
11
122.156
21
-92.0141
0
LINE
8
Black
10
122.156
20
-92.0141
11
122.17
21
-92
0
LINE
8
Black
10
122.17
20
-92
11
121.198
21
-91.0274
0
LINE
8
Black
10
121.198
20
-91.0274
11
120.931
21
-91.126
0
LINE
8
Black
10
120.931
20
-91.126
11
120.919
21
-91.1573
0
LINE
8
Black
10
120.919
20
-91.1573
11
120.593
21
-90.8304
0
LINE
8
Black
10
120.593
20
-90.8304
11
120.086
21
-90.6198
0
LINE
8
Black
10
120.086
20
-90.6198
11
119.537
21
-90.6193
0
LINE
8
Black
10
119.537
20
-90.6193
11
119.261
21
-90.733
0
LINE
8
Black
10
119.261
20
-90.733
11
118.788
21
-90.2599
0
LINE
8
Black
10
118.788
20
-90.2599
11
118.699
21
-90.2005
0
LINE
8
Black
10
118.699
20
-90.2005
11
125.971
21
-90.2005
0
LINE
8
Black
10
125.971
20
-90.2005
11
125.439
21
-90.733
0
LINE
8
Black
10
125.439
20
-90.733
11
125.166
21
-90.6198
0
LINE
8
Black
10
125.166
20
-90.6198
11
124.617
21
-90.6193
0
LINE
8
Black
10
124.617
20
-90.6193
11
124.109
21
-90.829
0
LINE
8
Black
10
124.109
20
-90.829
11
123.781
21
-91.1561
0
LINE
8
Black
10
123.781
20
-91.1561
11
123.769
21
-91.126
0
LINE
8
Black
10
123.769
20
-91.126
11
123.502
21
-91.0274
0
LINE
8
Black
10
123.502
20
-91.0274
11
123.323
21
-91.207
0
LINE
8
Black
10
123.323
20
-91.207
11
123.323
21
-90.8478
0
LINE
8
Black
10
123.323
20
-90.8478
11
123.224
21
-90.581
0
LINE
8
Black
10
123.224
20
-90.581
11
122.614
21
-90.3546
0
LINE
8
Black
10
122.614
20
-90.3546
11
121.965
21
-90.3787
0
LINE
8
Black
10
121.965
20
-90.3787
11
121.476
21
-90.581
0
LINE
8
Black
10
121.476
20
-90.581
11
121.377
21
-90.8478
0
LINE
8
Black
10
121.377
20
-90.8478
11
122.35
21
-91.8204
0
LINE
8
Black
10
122.35
20
-91.8204
11
123.323
21
-90.8478
0
LINE
8
Black
10
123.323
20
-90.8478
11
123.323
21
-91.207
0
LINE
8
Black
10
123.323
20
-91.207
11
122.53
21
-92
0
LINE
8
Black
10
122.53
20
-92
11
122.544
21
-92.0141
0
LINE
8
Black
10
122.544
20
-92.0141
11
122.364
21
-92.1937
0
LINE
8
Black
10
122.364
20
-92.1937
11
122.35
21
-92.1796
0
LINE
8
Black
10
122.35
20
-92.1796
11
122.336
21
-92.1937
0
LINE
8
Black
10
122.336
20
-92.1937
11
122.156
21
-92.0141
0
LINE
8
Black
10
122.156
20
-92.0141
11
122.17
21
-92
0
LINE
8
Black
10
122.17
20
-92
11
121.198
21
-91.0274
0
LINE
8
Black
10
121.198
20
-91.0274
11
120.931
21
-91.126
0
LINE
8
Black
10
120.931
20
-91.126
11
120.919
21
-91.1573
0
LINE
8
Black
10
120.919
20
-91.1573
11
120.593
21
-90.8304
0
LINE
8
Black
10
120.593
20
-90.8304
11
120.086
21
-90.6198
0
LINE
8
Black
10
120.086
20
-90.6198
11
119.537
21
-90.6193
0
LINE
8
Black
10
119.537
20
-90.6193
11
119.261
21
-90.733
0
LINE
8
Black
10
119.261
20
-90.733
11
118.788
21
-90.2599
0
LINE
8
Black
10
118.788
20
-90.2599
11
118.699
21
-90.2005
0
LINE
8
Black
10
118.699
20
-90.2005
11
125.971
21
-90.2005
0
LINE
8
Black
10
132.873
20
-94.373
11
130.29
21
-94.373
0
LINE
8
Black
10
130.29
20
-94.373
11
130.29
21
-91.766
0
LINE
8
Black
10
130.29
20
-91.766
11
130.29
21
-86.9386
0
LINE
8
Black
10
130.29
20
-86.9386
11
130.247
21
-86.7248
0
LINE
8
Black
10
130.247
20
-86.7248
11
130.247
21
-86.7248
0
LINE
8
Black
10
130.247
20
-86.7248
11
130.126
21
-86.5435
0
LINE
8
Black
10
130.126
20
-86.5435
11
128.251
21
-84.6682
0
LINE
8
Black
10
128.251
20
-84.6682
11
128.251
21
-82.0051
0
LINE
8
Black
10
128.251
20
-82.0051
11
128.499
21
-81.7574
0
LINE
8
Black
10
128.499
20
-81.7574
11
128.644
21
-81.4074
0
LINE
8
Black
10
128.644
20
-81.4074
11
128.645
21
-81.0285
0
LINE
8
Black
10
128.645
20
-81.0285
11
128.5
21
-80.6783
0
LINE
8
Black
10
128.5
20
-80.6783
11
128.232
21
-80.4101
0
LINE
8
Black
10
128.232
20
-80.4101
11
127.882
21
-80.2648
0
LINE
8
Black
10
127.882
20
-80.2648
11
127.53
21
-80.2645
0
LINE
8
Black
10
127.53
20
-80.2645
11
126.248
21
-78.9831
0
LINE
8
Black
10
126.248
20
-78.9831
11
126.248
21
-78
0
LINE
8
Black
10
126.248
20
-78
11
126.206
21
-77.7862
0
LINE
8
Black
10
126.206
20
-77.7862
11
126.085
21
-77.6049
0
LINE
8
Black
10
126.085
20
-77.6049
11
125.903
21
-77.4837
0
LINE
8
Black
10
125.903
20
-77.4837
11
125.689
21
-77.4412
0
LINE
8
Black
10
125.689
20
-77.4412
11
125.638
21
-77.4412
0
LINE
8
Black
10
125.638
20
-77.4412
11
125.638
21
-77.3527
0
LINE
8
Black
10
125.638
20
-77.3527
11
125.58
21
-77.2127
0
LINE
8
Black
10
125.58
20
-77.2127
11
125.473
21
-77.1055
0
LINE
8
Black
10
125.473
20
-77.1055
11
125.333
21
-77.0475
0
LINE
8
Black
10
125.333
20
-77.0475
11
125.182
21
-77.0475
0
LINE
8
Black
10
125.182
20
-77.0475
11
124.369
21
-77.0475
0
LINE
8
Black
10
124.369
20
-77.0475
11
124.229
21
-77.1055
0
LINE
8
Black
10
124.229
20
-77.1055
11
124.122
21
-77.2127
0
LINE
8
Black
10
124.122
20
-77.2127
11
124.064
21
-77.3527
0
LINE
8
Black
10
124.064
20
-77.3527
11
124.064
21
-77.5043
0
LINE
8
Black
10
124.064
20
-77.5043
11
124.064
21
-78.6473
0
LINE
8
Black
10
124.064
20
-78.6473
11
124.122
21
-78.7873
0
LINE
8
Black
10
124.122
20
-78.7873
11
124.229
21
-78.8945
0
LINE
8
Black
10
124.229
20
-78.8945
11
124.369
21
-78.9525
0
LINE
8
Black
10
124.369
20
-78.9525
11
124.52
21
-78.9525
0
LINE
8
Black
10
124.52
20
-78.9525
11
125.131
21
-78.9525
0
LINE
8
Black
10
125.131
20
-78.9525
11
125.131
21
-79.2146
0
LINE
8
Black
10
125.131
20
-79.2146
11
125.146
21
-79.2935
0
LINE
8
Black
10
125.146
20
-79.2935
11
125.137
21
-79.2935
0
LINE
8
Black
10
125.137
20
-79.2935
11
124.978
21
-79.4523
0
LINE
8
Black
10
124.978
20
-79.4523
11
124.978
21
-80.373
0
LINE
8
Black
10
124.978
20
-80.373
11
125.734
21
-80.373
0
LINE
8
Black
10
125.734
20
-80.373
11
125.892
21
-80.2143
0
LINE
8
Black
10
125.892
20
-80.2143
11
125.892
21
-80.2078
0
LINE
8
Black
10
125.892
20
-80.2078
11
126.74
21
-81.055
0
LINE
8
Black
10
126.74
20
-81.055
11
126.739
21
-81.4057
0
LINE
8
Black
10
126.739
20
-81.4057
11
126.884
21
-81.7559
0
LINE
8
Black
10
126.884
20
-81.7559
11
127.133
21
-82.0055
0
LINE
8
Black
10
127.133
20
-82.0055
11
127.133
21
-84.3409
0
LINE
8
Black
10
127.133
20
-84.3409
11
126.29
21
-84.3409
0
LINE
8
Black
10
126.29
20
-84.3409
11
126.076
21
-84.3834
0
LINE
8
Black
10
126.076
20
-84.3834
11
125.895
21
-84.5046
0
LINE
8
Black
10
125.895
20
-84.5046
11
125.892
21
-84.5068
0
LINE
8
Black
10
125.892
20
-84.5068
11
125.892
21
-81.1978
0
LINE
8
Black
10
125.892
20
-81.1978
11
125.892
21
-80.9452
0
LINE
8
Black
10
125.892
20
-80.9452
11
125.892
21
-80.7858
0
LINE
8
Black
10
125.892
20
-80.7858
11
125.734
21
-80.627
0
LINE
8
Black
10
125.734
20
-80.627
11
124.978
21
-80.627
0
LINE
8
Black
10
124.978
20
-80.627
11
124.978
21
-81.5478
0
LINE
8
Black
10
124.978
20
-81.5478
11
125.137
21
-81.7065
0
LINE
8
Black
10
125.137
20
-81.7065
11
125.384
21
-81.7065
0
LINE
8
Black
10
125.384
20
-81.7065
11
125.617
21
-81.6098
0
LINE
8
Black
10
125.617
20
-81.6098
11
125.796
21
-81.4312
0
LINE
8
Black
10
125.796
20
-81.4312
11
125.892
21
-81.1978
0
LINE
8
Black
10
125.892
20
-81.1978
11
125.892
21
-84.5068
0
LINE
8
Black
10
125.892
20
-84.5068
11
125.611
21
-84.7877
0
LINE
8
Black
10
125.611
20
-84.7877
11
125.58
21
-84.7127
0
LINE
8
Black
10
125.58
20
-84.7127
11
125.473
21
-84.6055
0
LINE
8
Black
10
125.473
20
-84.6055
11
125.333
21
-84.5475
0
LINE
8
Black
10
125.333
20
-84.5475
11
125.182
21
-84.5475
0
LINE
8
Black
10
125.182
20
-84.5475
11
124.571
21
-84.5475
0
LINE
8
Black
10
124.571
20
-84.5475
11
124.571
21
-83.9525
0
LINE
8
Black
10
124.571
20
-83.9525
11
125.333
21
-83.9525
0
LINE
8
Black
10
125.333
20
-83.9525
11
125.473
21
-83.8945
0
LINE
8
Black
10
125.473
20
-83.8945
11
125.58
21
-83.7873
0
LINE
8
Black
10
125.58
20
-83.7873
11
125.638
21
-83.6473
0
LINE
8
Black
10
125.638
20
-83.6473
11
125.638
21
-83.4957
0
LINE
8
Black
10
125.638
20
-83.4957
11
125.638
21
-82.3527
0
LINE
8
Black
10
125.638
20
-82.3527
11
125.58
21
-82.2127
0
LINE
8
Black
10
125.58
20
-82.2127
11
125.473
21
-82.1055
0
LINE
8
Black
10
125.473
20
-82.1055
11
125.333
21
-82.0475
0
LINE
8
Black
10
125.333
20
-82.0475
11
125.182
21
-82.0475
0
LINE
8
Black
10
125.182
20
-82.0475
11
124.369
21
-82.0475
0
LINE
8
Black
10
124.369
20
-82.0475
11
124.229
21
-82.1055
0
LINE
8
Black
10
124.229
20
-82.1055
11
124.122
21
-82.2127
0
LINE
8
Black
10
124.122
20
-82.2127
11
124.064
21
-82.3527
0
LINE
8
Black
10
124.064
20
-82.3527
11
124.064
21
-82.492
0
LINE
8
Black
10
124.064
20
-82.492
11
124.063
21
-82.492
0
LINE
8
Black
10
124.063
20
-82.492
11
123.937
21
-82.5172
0
LINE
8
Black
10
123.937
20
-82.5172
11
123.937
21
-82.3527
0
LINE
8
Black
10
123.937
20
-82.3527
11
123.878
21
-82.2127
0
LINE
8
Black
10
123.878
20
-82.2127
11
123.771
21
-82.1055
0
LINE
8
Black
10
123.771
20
-82.1055
11
123.657
21
-82.0582
0
LINE
8
Black
10
123.657
20
-82.0582
11
123.657
21
-81.4418
0
LINE
8
Black
10
123.657
20
-81.4418
11
123.771
21
-81.3945
0
LINE
8
Black
10
123.771
20
-81.3945
11
123.856
21
-81.3099
0
LINE
8
Black
10
123.856
20
-81.3099
11
123.906
21
-81.4312
0
LINE
8
Black
10
123.906
20
-81.4312
11
124.085
21
-81.6098
0
LINE
8
Black
10
124.085
20
-81.6098
11
124.318
21
-81.7065
0
LINE
8
Black
10
124.318
20
-81.7065
11
124.565
21
-81.7065
0
LINE
8
Black
10
124.565
20
-81.7065
11
124.724
21
-81.5478
0
LINE
8
Black
10
124.724
20
-81.5478
11
124.724
21
-80.627
0
LINE
8
Black
10
124.724
20
-80.627
11
124.704
21
-80.627
0
LINE
8
Black
10
124.704
20
-80.627
11
124.704
21
-80.373
0
LINE
8
Black
10
124.704
20
-80.373
11
124.724
21
-80.373
0
LINE
8
Black
10
124.724
20
-80.373
11
124.724
21
-79.4523
0
LINE
8
Black
10
124.724
20
-79.4523
11
124.565
21
-79.2935
0
LINE
8
Black
10
124.565
20
-79.2935
11
124.318
21
-79.2935
0
LINE
8
Black
10
124.318
20
-79.2935
11
124.085
21
-79.3902
0
LINE
8
Black
10
124.085
20
-79.3902
11
123.906
21
-79.5688
0
LINE
8
Black
10
123.906
20
-79.5688
11
123.856
21
-79.6901
0
LINE
8
Black
10
123.856
20
-79.6901
11
123.771
21
-79.6055
0
LINE
8
Black
10
123.771
20
-79.6055
11
123.657
21
-79.5582
0
LINE
8
Black
10
123.657
20
-79.5582
11
123.657
21
-78.9418
0
LINE
8
Black
10
123.657
20
-78.9418
11
123.771
21
-78.8945
0
LINE
8
Black
10
123.771
20
-78.8945
11
123.878
21
-78.7873
0
LINE
8
Black
10
123.878
20
-78.7873
11
123.937
21
-78.6473
0
LINE
8
Black
10
123.937
20
-78.6473
11
123.937
21
-78.4957
0
LINE
8
Black
10
123.937
20
-78.4957
11
123.937
21
-77.3527
0
LINE
8
Black
10
123.937
20
-77.3527
11
123.878
21
-77.2127
0
LINE
8
Black
10
123.878
20
-77.2127
11
123.771
21
-77.1055
0
LINE
8
Black
10
123.771
20
-77.1055
11
123.631
21
-77.0475
0
LINE
8
Black
10
123.631
20
-77.0475
11
123.48
21
-77.0475
0
LINE
8
Black
10
123.48
20
-77.0475
11
122.667
21
-77.0475
0
LINE
8
Black
10
122.667
20
-77.0475
11
122.527
21
-77.1055
0
LINE
8
Black
10
122.527
20
-77.1055
11
122.42
21
-77.2127
0
LINE
8
Black
10
122.42
20
-77.2127
11
122.362
21
-77.3527
0
LINE
8
Black
10
122.362
20
-77.3527
11
122.362
21
-77.5043
0
LINE
8
Black
10
122.362
20
-77.5043
11
122.362
21
-78.6473
0
LINE
8
Black
10
122.362
20
-78.6473
11
122.42
21
-78.7873
0
LINE
8
Black
10
122.42
20
-78.7873
11
122.527
21
-78.8945
0
LINE
8
Black
10
122.527
20
-78.8945
11
122.641
21
-78.9418
0
LINE
8
Black
10
122.641
20
-78.9418
11
122.641
21
-79.5582
0
LINE
8
Black
10
122.641
20
-79.5582
11
122.527
21
-79.6055
0
LINE
8
Black
10
122.527
20
-79.6055
11
122.42
21
-79.7127
0
LINE
8
Black
10
122.42
20
-79.7127
11
122.362
21
-79.8527
0
LINE
8
Black
10
122.362
20
-79.8527
11
122.362
21
-79.992
0
LINE
8
Black
10
122.362
20
-79.992
11
119.15
21
-79.992
0
LINE
8
Black
10
119.15
20
-79.992
11
119.097
21
-80.0025
0
LINE
8
Black
10
119.097
20
-80.0025
11
119.998
21
-79.1015
0
LINE
8
Black
10
119.998
20
-79.1015
11
119.998
21
-79.1015
0
LINE
8
Black
10
119.998
20
-79.1015
11
120.108
21
-78.9367
0
LINE
8
Black
10
120.108
20
-78.9367
11
120.147
21
-78.7423
0
LINE
8
Black
10
120.147
20
-78.7423
11
120.147
21
-77.2187
0
LINE
8
Black
10
120.147
20
-77.2187
11
120.114
21
-77.0565
0
LINE
8
Black
10
120.114
20
-77.0565
11
120.108
21
-77.0243
0
LINE
8
Black
10
120.108
20
-77.0243
11
120.108
21
-77.0243
0
LINE
8
Black
10
120.108
20
-77.0243
11
119.998
21
-76.8595
0
LINE
8
Black
10
119.998
20
-76.8595
11
119.78
21
-76.6418
0
LINE
8
Black
10
119.78
20
-76.6418
11
119.615
21
-76.5317
0
LINE
8
Black
10
119.615
20
-76.5317
11
119.421
21
-76.493
0
LINE
8
Black
10
119.421
20
-76.493
11
112.37
21
-76.493
0
LINE
8
Black
10
112.37
20
-76.493
11
112.37
21
-76.2173
0
LINE
8
Black
10
112.37
20
-76.2173
11
112.245
21
-75.9138
0
LINE
8
Black
10
112.245
20
-75.9138
11
112.013
21
-75.6814
0
LINE
8
Black
10
112.013
20
-75.6814
11
111.71
21
-75.5554
0
LINE
8
Black
10
111.71
20
-75.5554
11
111.381
21
-75.5552
0
LINE
8
Black
10
111.381
20
-75.5552
11
111.078
21
-75.6806
0
LINE
8
Black
10
111.078
20
-75.6806
11
110.885
21
-75.8728
0
LINE
8
Black
10
110.885
20
-75.8728
11
99.4918
21
-75.8728
0
LINE
8
Black
10
99.4918
20
-75.8728
11
99.3296
21
-75.9051
0
LINE
8
Black
10
99.3296
20
-75.9051
11
99.2974
21
-75.9115
0
LINE
8
Black
10
99.2974
20
-75.9115
11
99.1326
21
-76.0216
0
LINE
8
Black
10
99.1326
20
-76.0216
11
98.4732
21
-76.681
0
LINE
8
Black
10
98.4732
20
-76.681
11
98.3631
21
-76.8458
0
LINE
8
Black
10
98.3631
20
-76.8458
11
98.3244
21
-77.0402
0
LINE
8
Black
10
98.3244
20
-77.0402
11
98.3244
21
-82.471
0
LINE
8
Black
10
98.3244
20
-82.471
11
98.3631
21
-82.6654
0
LINE
8
Black
10
98.3631
20
-82.6654
11
98.4732
21
-82.8302
0
LINE
8
Black
10
98.4732
20
-82.8302
11
99.0022
21
-83.3592
0
LINE
8
Black
10
99.0022
20
-83.3592
11
99.167
21
-83.4693
0
LINE
8
Black
10
99.167
20
-83.4693
11
99.3614
21
-83.508
0
LINE
8
Black
10
99.3614
20
-83.508
11
99.3617
21
-83.508
0
LINE
8
Black
10
99.3617
20
-83.508
11
99.3617
21
-83.6473
0
LINE
8
Black
10
99.3617
20
-83.6473
11
99.4197
21
-83.7873
0
LINE
8
Black
10
99.4197
20
-83.7873
11
99.5269
21
-83.8945
0
LINE
8
Black
10
99.5269
20
-83.8945
11
99.6669
21
-83.9525
0
LINE
8
Black
10
99.6669
20
-83.9525
11
99.8185
21
-83.9525
0
LINE
8
Black
10
99.8185
20
-83.9525
11
100.025
21
-83.9525
0
LINE
8
Black
10
100.025
20
-83.9525
11
99.7899
21
-84.188
0
LINE
8
Black
10
99.7899
20
-84.188
11
99.6798
21
-84.3528
0
LINE
8
Black
10
99.6798
20
-84.3528
11
99.6411
21
-84.5472
0
LINE
8
Black
10
99.6411
20
-84.5472
11
99.6411
21
-84.5582
0
LINE
8
Black
10
99.6411
20
-84.5582
11
99.5269
21
-84.6055
0
LINE
8
Black
10
99.5269
20
-84.6055
11
99.4197
21
-84.7127
0
LINE
8
Black
10
99.4197
20
-84.7127
11
99.3617
21
-84.8527
0
LINE
8
Black
10
99.3617
20
-84.8527
11
99.3617
21
-85.0043
0
LINE
8
Black
10
99.3617
20
-85.0043
11
99.3617
21
-86.1473
0
LINE
8
Black
10
99.3617
20
-86.1473
11
99.4197
21
-86.2873
0
LINE
8
Black
10
99.4197
20
-86.2873
11
99.5269
21
-86.3945
0
LINE
8
Black
10
99.5269
20
-86.3945
11
99.6669
21
-86.4525
0
LINE
8
Black
10
99.6669
20
-86.4525
11
99.8185
21
-86.4525
0
LINE
8
Black
10
99.8185
20
-86.4525
11
100.631
21
-86.4525
0
LINE
8
Black
10
100.631
20
-86.4525
11
100.771
21
-86.3945
0
LINE
8
Black
10
100.771
20
-86.3945
11
100.856
21
-86.3099
0
LINE
8
Black
10
100.856
20
-86.3099
11
100.906
21
-86.4312
0
LINE
8
Black
10
100.906
20
-86.4312
11
101.085
21
-86.6098
0
LINE
8
Black
10
101.085
20
-86.6098
11
101.318
21
-86.7065
0
LINE
8
Black
10
101.318
20
-86.7065
11
101.565
21
-86.7065
0
LINE
8
Black
10
101.565
20
-86.7065
11
101.724
21
-86.5478
0
LINE
8
Black
10
101.724
20
-86.5478
11
101.724
21
-85.627
0
LINE
8
Black
10
101.724
20
-85.627
11
101.704
21
-85.627
0
LINE
8
Black
10
101.704
20
-85.627
11
101.704
21
-85.373
0
LINE
8
Black
10
101.704
20
-85.373
11
101.724
21
-85.373
0
LINE
8
Black
10
101.724
20
-85.373
11
101.724
21
-84.4523
0
LINE
8
Black
10
101.724
20
-84.4523
11
101.565
21
-84.2935
0
LINE
8
Black
10
101.565
20
-84.2935
11
101.318
21
-84.2935
0
LINE
8
Black
10
101.318
20
-84.2935
11
101.085
21
-84.3902
0
LINE
8
Black
10
101.085
20
-84.3902
11
100.906
21
-84.5688
0
LINE
8
Black
10
100.906
20
-84.5688
11
100.856
21
-84.6901
0
LINE
8
Black
10
100.856
20
-84.6901
11
100.79
21
-84.6245
0
LINE
8
Black
10
100.79
20
-84.6245
11
101.422
21
-83.9923
0
LINE
8
Black
10
101.422
20
-83.9923
11
101.422
21
-83.9923
0
LINE
8
Black
10
101.422
20
-83.9923
11
101.449
21
-83.9525
0
LINE
8
Black
10
101.449
20
-83.9525
11
101.449
21
-83.9525
0
LINE
8
Black
10
101.449
20
-83.9525
11
101.52
21
-83.9525
0
LINE
8
Black
10
101.52
20
-83.9525
11
102.333
21
-83.9525
0
LINE
8
Black
10
102.333
20
-83.9525
11
102.473
21
-83.8945
0
LINE
8
Black
10
102.473
20
-83.8945
11
102.58
21
-83.7873
0
LINE
8
Black
10
102.58
20
-83.7873
11
102.638
21
-83.6473
0
LINE
8
Black
10
102.638
20
-83.6473
11
102.638
21
-83.4957
0
LINE
8
Black
10
102.638
20
-83.4957
11
102.638
21
-82.962
0
LINE
8
Black
10
102.638
20
-82.962
11
103.167
21
-83.4902
0
LINE
8
Black
10
103.167
20
-83.4902
11
103.167
21
-83.635
0
LINE
8
Black
10
103.167
20
-83.635
11
103.205
21
-83.8294
0
LINE
8
Black
10
103.205
20
-83.8294
11
103.292
21
-83.9594
0
LINE
8
Black
10
103.292
20
-83.9594
11
103.228
21
-84.0238
0
LINE
8
Black
10
103.228
20
-84.0238
11
103.118
21
-84.1886
0
LINE
8
Black
10
103.118
20
-84.1886
11
103.079
21
-84.383
0
LINE
8
Black
10
103.079
20
-84.383
11
103.079
21
-86.8413
0
LINE
8
Black
10
103.079
20
-86.8413
11
102.892
21
-87.0279
0
LINE
8
Black
10
102.892
20
-87.0279
11
102.892
21
-86.1978
0
LINE
8
Black
10
102.892
20
-86.1978
11
102.892
21
-85.9452
0
LINE
8
Black
10
102.892
20
-85.9452
11
102.892
21
-85.7858
0
LINE
8
Black
10
102.892
20
-85.7858
11
102.892
21
-85.2143
0
LINE
8
Black
10
102.892
20
-85.2143
11
102.892
21
-85.0548
0
LINE
8
Black
10
102.892
20
-85.0548
11
102.892
21
-84.8022
0
LINE
8
Black
10
102.892
20
-84.8022
11
102.796
21
-84.5688
0
LINE
8
Black
10
102.796
20
-84.5688
11
102.617
21
-84.3902
0
LINE
8
Black
10
102.617
20
-84.3902
11
102.384
21
-84.2935
0
LINE
8
Black
10
102.384
20
-84.2935
11
102.137
21
-84.2935
0
LINE
8
Black
10
102.137
20
-84.2935
11
101.978
21
-84.4523
0
LINE
8
Black
10
101.978
20
-84.4523
11
101.978
21
-85.373
0
LINE
8
Black
10
101.978
20
-85.373
11
102.734
21
-85.373
0
LINE
8
Black
10
102.734
20
-85.373
11
102.892
21
-85.2143
0
LINE
8
Black
10
102.892
20
-85.2143
11
102.892
21
-85.7858
0
LINE
8
Black
10
102.892
20
-85.7858
11
102.734
21
-85.627
0
LINE
8
Black
10
102.734
20
-85.627
11
101.978
21
-85.627
0
LINE
8
Black
10
101.978
20
-85.627
11
101.978
21
-86.5478
0
LINE
8
Black
10
101.978
20
-86.5478
11
102.137
21
-86.7065
0
LINE
8
Black
10
102.137
20
-86.7065
11
102.384
21
-86.7065
0
LINE
8
Black
10
102.384
20
-86.7065
11
102.617
21
-86.6098
0
LINE
8
Black
10
102.617
20
-86.6098
11
102.796
21
-86.4312
0
LINE
8
Black
10
102.796
20
-86.4312
11
102.892
21
-86.1978
0
LINE
8
Black
10
102.892
20
-86.1978
11
102.892
21
-87.0279
0
LINE
8
Black
10
102.892
20
-87.0279
11
102.618
21
-87.3026
0
LINE
8
Black
10
102.618
20
-87.3026
11
102.58
21
-87.2127
0
LINE
8
Black
10
102.58
20
-87.2127
11
102.473
21
-87.1055
0
LINE
8
Black
10
102.473
20
-87.1055
11
102.333
21
-87.0475
0
LINE
8
Black
10
102.333
20
-87.0475
11
102.182
21
-87.0475
0
LINE
8
Black
10
102.182
20
-87.0475
11
101.369
21
-87.0475
0
LINE
8
Black
10
101.369
20
-87.0475
11
101.229
21
-87.1055
0
LINE
8
Black
10
101.229
20
-87.1055
11
101.144
21
-87.1901
0
LINE
8
Black
10
101.144
20
-87.1901
11
101.094
21
-87.0688
0
LINE
8
Black
10
101.094
20
-87.0688
11
100.915
21
-86.8902
0
LINE
8
Black
10
100.915
20
-86.8902
11
100.682
21
-86.7935
0
LINE
8
Black
10
100.682
20
-86.7935
11
100.435
21
-86.7935
0
LINE
8
Black
10
100.435
20
-86.7935
11
100.276
21
-86.9523
0
LINE
8
Black
10
100.276
20
-86.9523
11
100.276
21
-87.873
0
LINE
8
Black
10
100.276
20
-87.873
11
100.296
21
-87.873
0
LINE
8
Black
10
100.296
20
-87.873
11
100.296
21
-88.127
0
LINE
8
Black
10
100.296
20
-88.127
11
100.276
21
-88.127
0
LINE
8
Black
10
100.276
20
-88.127
11
100.276
21
-89.0478
0
LINE
8
Black
10
100.276
20
-89.0478
11
100.435
21
-89.2065
0
LINE
8
Black
10
100.435
20
-89.2065
11
100.682
21
-89.2065
0
LINE
8
Black
10
100.682
20
-89.2065
11
100.915
21
-89.1098
0
LINE
8
Black
10
100.915
20
-89.1098
11
101.094
21
-88.9312
0
LINE
8
Black
10
101.094
20
-88.9312
11
101.144
21
-88.8099
0
LINE
8
Black
10
101.144
20
-88.8099
11
101.229
21
-88.8945
0
LINE
8
Black
10
101.229
20
-88.8945
11
101.369
21
-88.9525
0
LINE
8
Black
10
101.369
20
-88.9525
11
101.52
21
-88.9525
0
LINE
8
Black
10
101.52
20
-88.9525
11
102.333
21
-88.9525
0
LINE
8
Black
10
102.333
20
-88.9525
11
102.473
21
-88.8945
0
LINE
8
Black
10
102.473
20
-88.8945
11
102.58
21
-88.7873
0
LINE
8
Black
10
102.58
20
-88.7873
11
102.638
21
-88.6473
0
LINE
8
Black
10
102.638
20
-88.6473
11
102.638
21
-88.508
0
LINE
8
Black
10
102.638
20
-88.508
11
102.639
21
-88.508
0
LINE
8
Black
10
102.639
20
-88.508
11
102.833
21
-88.4693
0
LINE
8
Black
10
102.833
20
-88.4693
11
102.998
21
-88.3592
0
LINE
8
Black
10
102.998
20
-88.3592
11
103.587
21
-87.7701
0
LINE
8
Black
10
103.587
20
-87.7701
11
104.176
21
-88.3592
0
LINE
8
Black
10
104.176
20
-88.3592
11
104.341
21
-88.4693
0
LINE
8
Black
10
104.341
20
-88.4693
11
104.535
21
-88.508
0
LINE
8
Black
10
104.535
20
-88.508
11
105.362
21
-88.508
0
LINE
8
Black
10
105.362
20
-88.508
11
105.362
21
-88.6473
0
LINE
8
Black
10
105.362
20
-88.6473
11
105.42
21
-88.7873
0
LINE
8
Black
10
105.42
20
-88.7873
11
105.527
21
-88.8945
0
LINE
8
Black
10
105.527
20
-88.8945
11
105.667
21
-88.9525
0
LINE
8
Black
10
105.667
20
-88.9525
11
105.818
21
-88.9525
0
LINE
8
Black
10
105.818
20
-88.9525
11
106.631
21
-88.9525
0
LINE
8
Black
10
106.631
20
-88.9525
11
106.771
21
-88.8945
0
LINE
8
Black
10
106.771
20
-88.8945
11
106.878
21
-88.7873
0
LINE
8
Black
10
106.878
20
-88.7873
11
106.937
21
-88.6473
0
LINE
8
Black
10
106.937
20
-88.6473
11
106.937
21
-88.4957
0
LINE
8
Black
10
106.937
20
-88.4957
11
106.937
21
-87.3527
0
LINE
8
Black
10
106.937
20
-87.3527
11
106.878
21
-87.2127
0
LINE
8
Black
10
106.878
20
-87.2127
11
106.771
21
-87.1055
0
LINE
8
Black
10
106.771
20
-87.1055
11
106.631
21
-87.0475
0
LINE
8
Black
10
106.631
20
-87.0475
11
106.48
21
-87.0475
0
LINE
8
Black
10
106.48
20
-87.0475
11
105.667
21
-87.0475
0
LINE
8
Black
10
105.667
20
-87.0475
11
105.527
21
-87.1055
0
LINE
8
Black
10
105.527
20
-87.1055
11
105.42
21
-87.2127
0
LINE
8
Black
10
105.42
20
-87.2127
11
105.362
21
-87.3527
0
LINE
8
Black
10
105.362
20
-87.3527
11
105.362
21
-87.492
0
LINE
8
Black
10
105.362
20
-87.492
11
104.746
21
-87.492
0
LINE
8
Black
10
104.746
20
-87.492
11
104.095
21
-86.8413
0
LINE
8
Black
10
104.095
20
-86.8413
11
104.095
21
-85.4613
0
LINE
8
Black
10
104.095
20
-85.4613
11
104.132
21
-85.4613
0
LINE
8
Black
10
104.132
20
-85.4613
11
105.432
21
-85.4613
0
LINE
8
Black
10
105.432
20
-85.4613
11
105.487
21
-85.4384
0
LINE
8
Black
10
105.487
20
-85.4384
11
105.527
21
-85.4384
0
LINE
8
Black
10
105.527
20
-85.4384
11
107.211
21
-87.1228
0
LINE
8
Black
10
107.211
20
-87.1228
11
107.122
21
-87.2127
0
LINE
8
Black
10
107.122
20
-87.2127
11
107.064
21
-87.3527
0
LINE
8
Black
10
107.064
20
-87.3527
11
107.064
21
-87.5043
0
LINE
8
Black
10
107.064
20
-87.5043
11
107.064
21
-88.6473
0
LINE
8
Black
10
107.064
20
-88.6473
11
107.122
21
-88.7873
0
LINE
8
Black
10
107.122
20
-88.7873
11
107.229
21
-88.8945
0
LINE
8
Black
10
107.229
20
-88.8945
11
107.369
21
-88.9525
0
LINE
8
Black
10
107.369
20
-88.9525
11
107.52
21
-88.9525
0
LINE
8
Black
10
107.52
20
-88.9525
11
108.333
21
-88.9525
0
LINE
8
Black
10
108.333
20
-88.9525
11
108.473
21
-88.8945
0
LINE
8
Black
10
108.473
20
-88.8945
11
108.58
21
-88.7873
0
LINE
8
Black
10
108.58
20
-88.7873
11
108.638
21
-88.6473
0
LINE
8
Black
10
108.638
20
-88.6473
11
108.638
21
-88.4957
0
LINE
8
Black
10
108.638
20
-88.4957
11
108.638
21
-87.5551
0
LINE
8
Black
10
108.638
20
-87.5551
11
110.362
21
-87.5551
0
LINE
8
Black
10
110.362
20
-87.5551
11
110.362
21
-88.6473
0
LINE
8
Black
10
110.362
20
-88.6473
11
110.42
21
-88.7873
0
LINE
8
Black
10
110.42
20
-88.7873
11
110.527
21
-88.8945
0
LINE
8
Black
10
110.527
20
-88.8945
11
110.641
21
-88.9418
0
LINE
8
Black
10
110.641
20
-88.9418
11
110.641
21
-88.9528
0
LINE
8
Black
10
110.641
20
-88.9528
11
110.641
21
-90.9591
0
LINE
8
Black
10
110.641
20
-90.9591
11
110.661
21
-91.0587
0
LINE
8
Black
10
110.661
20
-91.0587
11
110.433
21
-90.8304
0
LINE
8
Black
10
110.433
20
-90.8304
11
109.926
21
-90.6198
0
LINE
8
Black
10
109.926
20
-90.6198
11
109.377
21
-90.6193
0
LINE
8
Black
10
109.377
20
-90.6193
11
108.869
21
-90.829
0
LINE
8
Black
10
108.869
20
-90.829
11
108.48
21
-91.217
0
LINE
8
Black
10
108.48
20
-91.217
11
108.38
21
-91.4587
0
LINE
8
Black
10
108.38
20
-91.4587
11
108.281
21
-91.219
0
LINE
8
Black
10
108.281
20
-91.219
11
107.893
21
-90.8304
0
LINE
8
Black
10
107.893
20
-90.8304
11
107.386
21
-90.6198
0
LINE
8
Black
10
107.386
20
-90.6198
11
106.837
21
-90.6193
0
LINE
8
Black
10
106.837
20
-90.6193
11
106.329
21
-90.829
0
LINE
8
Black
10
106.329
20
-90.829
11
105.95
21
-91.2069
0
LINE
8
Black
10
105.95
20
-91.2069
11
105.95
21
-90.9247
0
LINE
8
Black
10
105.95
20
-90.9247
11
105.892
21
-90.7847
0
LINE
8
Black
10
105.892
20
-90.7847
11
105.785
21
-90.6775
0
LINE
8
Black
10
105.785
20
-90.6775
11
105.645
21
-90.6195
0
LINE
8
Black
10
105.645
20
-90.6195
11
105.494
21
-90.6195
0
LINE
8
Black
10
105.494
20
-90.6195
11
103.495
21
-90.6195
0
LINE
8
Black
10
103.495
20
-90.6195
11
103.355
21
-90.6775
0
LINE
8
Black
10
103.355
20
-90.6775
11
103.248
21
-90.7847
0
LINE
8
Black
10
103.248
20
-90.7847
11
103.19
21
-90.9247
0
LINE
8
Black
10
103.19
20
-90.9247
11
103.19
21
-91.0763
0
LINE
8
Black
10
103.19
20
-91.0763
11
103.19
21
-93.0753
0
LINE
8
Black
10
103.19
20
-93.0753
11
103.248
21
-93.2153
0
LINE
8
Black
10
103.248
20
-93.2153
11
103.355
21
-93.3225
0
LINE
8
Black
10
103.355
20
-93.3225
11
103.495
21
-93.3805
0
LINE
8
Black
10
103.495
20
-93.3805
11
103.646
21
-93.3805
0
LINE
8
Black
10
103.646
20
-93.3805
11
105.645
21
-93.3805
0
LINE
8
Black
10
105.645
20
-93.3805
11
105.785
21
-93.3225
0
LINE
8
Black
10
105.785
20
-93.3225
11
105.892
21
-93.2153
0
LINE
8
Black
10
105.892
20
-93.2153
11
105.95
21
-93.0753
0
LINE
8
Black
10
105.95
20
-93.0753
11
105.95
21
-92.9237
0
LINE
8
Black
10
105.95
20
-92.9237
11
105.95
21
-92.7925
0
LINE
8
Black
10
105.95
20
-92.7925
11
106.327
21
-93.1696
0
LINE
8
Black
10
106.327
20
-93.1696
11
106.834
21
-93.3802
0
LINE
8
Black
10
106.834
20
-93.3802
11
107.383
21
-93.3807
0
LINE
8
Black
10
107.383
20
-93.3807
11
107.891
21
-93.171
0
LINE
8
Black
10
107.891
20
-93.171
11
108.28
21
-92.783
0
LINE
8
Black
10
108.28
20
-92.783
11
108.38
21
-92.5413
0
LINE
8
Black
10
108.38
20
-92.5413
11
108.479
21
-92.781
0
LINE
8
Black
10
108.479
20
-92.781
11
108.867
21
-93.1696
0
LINE
8
Black
10
108.867
20
-93.1696
11
109.374
21
-93.3802
0
LINE
8
Black
10
109.374
20
-93.3802
11
109.923
21
-93.3807
0
LINE
8
Black
10
109.923
20
-93.3807
11
110.148
21
-93.288
0
LINE
8
Black
10
110.148
20
-93.288
11
110.697
21
-93.8376
0
LINE
8
Black
10
110.697
20
-93.8376
11
110.879
21
-93.9588
0
LINE
8
Black
10
110.879
20
-93.9588
11
110.879
21
-93.9588
0
LINE
8
Black
10
110.879
20
-93.9588
11
111.093
21
-94.0013
0
LINE
8
Black
10
111.093
20
-94.0013
11
128.054
21
-94.0013
0
LINE
8
Black
10
128.054
20
-94.0013
11
128.268
21
-93.9588
0
LINE
8
Black
10
128.268
20
-93.9588
11
128.268
21
-93.9588
0
LINE
8
Black
10
128.268
20
-93.9588
11
128.449
21
-93.8376
0
LINE
8
Black
10
128.449
20
-93.8376
11
130.126
21
-92.1611
0
LINE
8
Black
10
130.126
20
-92.1611
11
130.247
21
-91.9798
0
LINE
8
Black
10
130.247
20
-91.9798
11
130.247
21
-91.9798
0
LINE
8
Black
10
130.247
20
-91.9798
11
130.29
21
-91.766
0
LINE
8
Black
10
130.29
20
-91.766
11
130.29
21
-94.373
0
LINE
8
Black
10
130.29
20
-94.373
11
100.022
21
-94.373
0
LINE
8
Black
10
100.022
20
-94.373
11
100.022
21
-89.0478
0
LINE
8
Black
10
100.022
20
-89.0478
11
100.022
21
-88.127
0
LINE
8
Black
10
100.022
20
-88.127
11
100.022
21
-87.873
0
LINE
8
Black
10
100.022
20
-87.873
11
100.022
21
-86.9523
0
LINE
8
Black
10
100.022
20
-86.9523
11
99.8634
21
-86.7935
0
LINE
8
Black
10
99.8634
20
-86.7935
11
99.6164
21
-86.7935
0
LINE
8
Black
10
99.6164
20
-86.7935
11
99.383
21
-86.8902
0
LINE
8
Black
10
99.383
20
-86.8902
11
99.2044
21
-87.0688
0
LINE
8
Black
10
99.2044
20
-87.0688
11
99.1077
21
-87.3022
0
LINE
8
Black
10
99.1077
20
-87.3022
11
99.1077
21
-87.5548
0
LINE
8
Black
10
99.1077
20
-87.5548
11
99.1077
21
-87.7143
0
LINE
8
Black
10
99.1077
20
-87.7143
11
99.2665
21
-87.873
0
LINE
8
Black
10
99.2665
20
-87.873
11
100.022
21
-87.873
0
LINE
8
Black
10
100.022
20
-87.873
11
100.022
21
-88.127
0
LINE
8
Black
10
100.022
20
-88.127
11
99.2665
21
-88.127
0
LINE
8
Black
10
99.2665
20
-88.127
11
99.1077
21
-88.2858
0
LINE
8
Black
10
99.1077
20
-88.2858
11
99.1077
21
-88.4452
0
LINE
8
Black
10
99.1077
20
-88.4452
11
99.1077
21
-88.6978
0
LINE
8
Black
10
99.1077
20
-88.6978
11
99.2044
21
-88.9312
0
LINE
8
Black
10
99.2044
20
-88.9312
11
99.383
21
-89.1098
0
LINE
8
Black
10
99.383
20
-89.1098
11
99.6164
21
-89.2065
0
LINE
8
Black
10
99.6164
20
-89.2065
11
99.8634
21
-89.2065
0
LINE
8
Black
10
99.8634
20
-89.2065
11
100.022
21
-89.0478
0
LINE
8
Black
10
100.022
20
-89.0478
11
100.022
21
-94.373
0
LINE
8
Black
10
100.022
20
-94.373
11
98.127
21
-94.373
0
LINE
8
Black
10
98.127
20
-94.373
11
98.127
21
-74.627
0
LINE
8
Black
10
98.127
20
-74.627
11
132.873
21
-74.627
0
LINE
8
Black
10
132.873
20
-74.627
11
132.873
21
-94.373
0
LINE
8
Black
10
132.873
20
-94.373
11
130.29
21
-94.373
0
LINE
8
Black
10
130.29
20
-94.373
11
130.29
21
-91.766
0
LINE
8
Black
10
130.29
20
-91.766
11
130.29
21
-86.9386
0
LINE
8
Black
10
130.29
20
-86.9386
11
130.247
21
-86.7248
0
LINE
8
Black
10
130.247
20
-86.7248
11
130.247
21
-86.7248
0
LINE
8
Black
10
130.247
20
-86.7248
11
130.126
21
-86.5435
0
LINE
8
Black
10
130.126
20
-86.5435
11
128.251
21
-84.6682
0
LINE
8
Black
10
128.251
20
-84.6682
11
128.251
21
-82.0051
0
LINE
8
Black
10
128.251
20
-82.0051
11
128.499
21
-81.7574
0
LINE
8
Black
10
128.499
20
-81.7574
11
128.644
21
-81.4074
0
LINE
8
Black
10
128.644
20
-81.4074
11
128.645
21
-81.0285
0
LINE
8
Black
10
128.645
20
-81.0285
11
128.5
21
-80.6783
0
LINE
8
Black
10
128.5
20
-80.6783
11
128.232
21
-80.4101
0
LINE
8
Black
10
128.232
20
-80.4101
11
127.882
21
-80.2648
0
LINE
8
Black
10
127.882
20
-80.2648
11
127.53
21
-80.2645
0
LINE
8
Black
10
127.53
20
-80.2645
11
126.248
21
-78.9831
0
LINE
8
Black
10
126.248
20
-78.9831
11
126.248
21
-78
0
LINE
8
Black
10
126.248
20
-78
11
126.206
21
-77.7862
0
LINE
8
Black
10
126.206
20
-77.7862
11
126.085
21
-77.6049
0
LINE
8
Black
10
126.085
20
-77.6049
11
125.903
21
-77.4837
0
LINE
8
Black
10
125.903
20
-77.4837
11
125.689
21
-77.4412
0
LINE
8
Black
10
125.689
20
-77.4412
11
125.638
21
-77.4412
0
LINE
8
Black
10
125.638
20
-77.4412
11
125.638
21
-77.3527
0
LINE
8
Black
10
125.638
20
-77.3527
11
125.58
21
-77.2127
0
LINE
8
Black
10
125.58
20
-77.2127
11
125.473
21
-77.1055
0
LINE
8
Black
10
125.473
20
-77.1055
11
125.333
21
-77.0475
0
LINE
8
Black
10
125.333
20
-77.0475
11
125.182
21
-77.0475
0
LINE
8
Black
10
125.182
20
-77.0475
11
124.369
21
-77.0475
0
LINE
8
Black
10
124.369
20
-77.0475
11
124.229
21
-77.1055
0
LINE
8
Black
10
124.229
20
-77.1055
11
124.122
21
-77.2127
0
LINE
8
Black
10
124.122
20
-77.2127
11
124.064
21
-77.3527
0
LINE
8
Black
10
124.064
20
-77.3527
11
124.064
21
-77.5043
0
LINE
8
Black
10
124.064
20
-77.5043
11
124.064
21
-78.6473
0
LINE
8
Black
10
124.064
20
-78.6473
11
124.122
21
-78.7873
0
LINE
8
Black
10
124.122
20
-78.7873
11
124.229
21
-78.8945
0
LINE
8
Black
10
124.229
20
-78.8945
11
124.369
21
-78.9525
0
LINE
8
Black
10
124.369
20
-78.9525
11
124.52
21
-78.9525
0
LINE
8
Black
10
124.52
20
-78.9525
11
125.131
21
-78.9525
0
LINE
8
Black
10
125.131
20
-78.9525
11
125.131
21
-79.2146
0
LINE
8
Black
10
125.131
20
-79.2146
11
125.146
21
-79.2935
0
LINE
8
Black
10
125.146
20
-79.2935
11
125.137
21
-79.2935
0
LINE
8
Black
10
125.137
20
-79.2935
11
124.978
21
-79.4523
0
LINE
8
Black
10
124.978
20
-79.4523
11
124.978
21
-80.373
0
LINE
8
Black
10
124.978
20
-80.373
11
125.734
21
-80.373
0
LINE
8
Black
10
125.734
20
-80.373
11
125.892
21
-80.2143
0
LINE
8
Black
10
125.892
20
-80.2143
11
125.892
21
-80.2078
0
LINE
8
Black
10
125.892
20
-80.2078
11
126.74
21
-81.055
0
LINE
8
Black
10
126.74
20
-81.055
11
126.739
21
-81.4057
0
LINE
8
Black
10
126.739
20
-81.4057
11
126.884
21
-81.7559
0
LINE
8
Black
10
126.884
20
-81.7559
11
127.133
21
-82.0055
0
LINE
8
Black
10
127.133
20
-82.0055
11
127.133
21
-84.3409
0
LINE
8
Black
10
127.133
20
-84.3409
11
126.29
21
-84.3409
0
LINE
8
Black
10
126.29
20
-84.3409
11
126.076
21
-84.3834
0
LINE
8
Black
10
126.076
20
-84.3834
11
125.895
21
-84.5046
0
LINE
8
Black
10
125.895
20
-84.5046
11
125.892
21
-84.5068
0
LINE
8
Black
10
125.892
20
-84.5068
11
125.892
21
-81.1978
0
LINE
8
Black
10
125.892
20
-81.1978
11
125.892
21
-80.9452
0
LINE
8
Black
10
125.892
20
-80.9452
11
125.892
21
-80.7858
0
LINE
8
Black
10
125.892
20
-80.7858
11
125.734
21
-80.627
0
LINE
8
Black
10
125.734
20
-80.627
11
124.978
21
-80.627
0
LINE
8
Black
10
124.978
20
-80.627
11
124.978
21
-81.5478
0
LINE
8
Black
10
124.978
20
-81.5478
11
125.137
21
-81.7065
0
LINE
8
Black
10
125.137
20
-81.7065
11
125.384
21
-81.7065
0
LINE
8
Black
10
125.384
20
-81.7065
11
125.617
21
-81.6098
0
LINE
8
Black
10
125.617
20
-81.6098
11
125.796
21
-81.4312
0
LINE
8
Black
10
125.796
20
-81.4312
11
125.892
21
-81.1978
0
LINE
8
Black
10
125.892
20
-81.1978
11
125.892
21
-84.5068
0
LINE
8
Black
10
125.892
20
-84.5068
11
125.611
21
-84.7877
0
LINE
8
Black
10
125.611
20
-84.7877
11
125.58
21
-84.7127
0
LINE
8
Black
10
125.58
20
-84.7127
11
125.473
21
-84.6055
0
LINE
8
Black
10
125.473
20
-84.6055
11
125.333
21
-84.5475
0
LINE
8
Black
10
125.333
20
-84.5475
11
125.182
21
-84.5475
0
LINE
8
Black
10
125.182
20
-84.5475
11
124.571
21
-84.5475
0
LINE
8
Black
10
124.571
20
-84.5475
11
124.571
21
-83.9525
0
LINE
8
Black
10
124.571
20
-83.9525
11
125.333
21
-83.9525
0
LINE
8
Black
10
125.333
20
-83.9525
11
125.473
21
-83.8945
0
LINE
8
Black
10
125.473
20
-83.8945
11
125.58
21
-83.7873
0
LINE
8
Black
10
125.58
20
-83.7873
11
125.638
21
-83.6473
0
LINE
8
Black
10
125.638
20
-83.6473
11
125.638
21
-83.4957
0
LINE
8
Black
10
125.638
20
-83.4957
11
125.638
21
-82.3527
0
LINE
8
Black
10
125.638
20
-82.3527
11
125.58
21
-82.2127
0
LINE
8
Black
10
125.58
20
-82.2127
11
125.473
21
-82.1055
0
LINE
8
Black
10
125.473
20
-82.1055
11
125.333
21
-82.0475
0
LINE
8
Black
10
125.333
20
-82.0475
11
125.182
21
-82.0475
0
LINE
8
Black
10
125.182
20
-82.0475
11
124.369
21
-82.0475
0
LINE
8
Black
10
124.369
20
-82.0475
11
124.229
21
-82.1055
0
LINE
8
Black
10
124.229
20
-82.1055
11
124.122
21
-82.2127
0
LINE
8
Black
10
124.122
20
-82.2127
11
124.064
21
-82.3527
0
LINE
8
Black
10
124.064
20
-82.3527
11
124.064
21
-82.492
0
LINE
8
Black
10
124.064
20
-82.492
11
124.063
21
-82.492
0
LINE
8
Black
10
124.063
20
-82.492
11
123.937
21
-82.5172
0
LINE
8
Black
10
123.937
20
-82.5172
11
123.937
21
-82.3527
0
LINE
8
Black
10
123.937
20
-82.3527
11
123.878
21
-82.2127
0
LINE
8
Black
10
123.878
20
-82.2127
11
123.771
21
-82.1055
0
LINE
8
Black
10
123.771
20
-82.1055
11
123.657
21
-82.0582
0
LINE
8
Black
10
123.657
20
-82.0582
11
123.657
21
-81.4418
0
LINE
8
Black
10
123.657
20
-81.4418
11
123.771
21
-81.3945
0
LINE
8
Black
10
123.771
20
-81.3945
11
123.856
21
-81.3099
0
LINE
8
Black
10
123.856
20
-81.3099
11
123.906
21
-81.4312
0
LINE
8
Black
10
123.906
20
-81.4312
11
124.085
21
-81.6098
0
LINE
8
Black
10
124.085
20
-81.6098
11
124.318
21
-81.7065
0
LINE
8
Black
10
124.318
20
-81.7065
11
124.565
21
-81.7065
0
LINE
8
Black
10
124.565
20
-81.7065
11
124.724
21
-81.5478
0
LINE
8
Black
10
124.724
20
-81.5478
11
124.724
21
-80.627
0
LINE
8
Black
10
124.724
20
-80.627
11
124.704
21
-80.627
0
LINE
8
Black
10
124.704
20
-80.627
11
124.704
21
-80.373
0
LINE
8
Black
10
124.704
20
-80.373
11
124.724
21
-80.373
0
LINE
8
Black
10
124.724
20
-80.373
11
124.724
21
-79.4523
0
LINE
8
Black
10
124.724
20
-79.4523
11
124.565
21
-79.2935
0
LINE
8
Black
10
124.565
20
-79.2935
11
124.318
21
-79.2935
0
LINE
8
Black
10
124.318
20
-79.2935
11
124.085
21
-79.3902
0
LINE
8
Black
10
124.085
20
-79.3902
11
123.906
21
-79.5688
0
LINE
8
Black
10
123.906
20
-79.5688
11
123.856
21
-79.6901
0
LINE
8
Black
10
123.856
20
-79.6901
11
123.771
21
-79.6055
0
LINE
8
Black
10
123.771
20
-79.6055
11
123.657
21
-79.5582
0
LINE
8
Black
10
123.657
20
-79.5582
11
123.657
21
-78.9418
0
LINE
8
Black
10
123.657
20
-78.9418
11
123.771
21
-78.8945
0
LINE
8
Black
10
123.771
20
-78.8945
11
123.878
21
-78.7873
0
LINE
8
Black
10
123.878
20
-78.7873
11
123.937
21
-78.6473
0
LINE
8
Black
10
123.937
20
-78.6473
11
123.937
21
-78.4957
0
LINE
8
Black
10
123.937
20
-78.4957
11
123.937
21
-77.3527
0
LINE
8
Black
10
123.937
20
-77.3527
11
123.878
21
-77.2127
0
LINE
8
Black
10
123.878
20
-77.2127
11
123.771
21
-77.1055
0
LINE
8
Black
10
123.771
20
-77.1055
11
123.631
21
-77.0475
0
LINE
8
Black
10
123.631
20
-77.0475
11
123.48
21
-77.0475
0
LINE
8
Black
10
123.48
20
-77.0475
11
122.667
21
-77.0475
0
LINE
8
Black
10
122.667
20
-77.0475
11
122.527
21
-77.1055
0
LINE
8
Black
10
122.527
20
-77.1055
11
122.42
21
-77.2127
0
LINE
8
Black
10
122.42
20
-77.2127
11
122.362
21
-77.3527
0
LINE
8
Black
10
122.362
20
-77.3527
11
122.362
21
-77.5043
0
LINE
8
Black
10
122.362
20
-77.5043
11
122.362
21
-78.6473
0
LINE
8
Black
10
122.362
20
-78.6473
11
122.42
21
-78.7873
0
LINE
8
Black
10
122.42
20
-78.7873
11
122.527
21
-78.8945
0
LINE
8
Black
10
122.527
20
-78.8945
11
122.641
21
-78.9418
0
LINE
8
Black
10
122.641
20
-78.9418
11
122.641
21
-79.5582
0
LINE
8
Black
10
122.641
20
-79.5582
11
122.527
21
-79.6055
0
LINE
8
Black
10
122.527
20
-79.6055
11
122.42
21
-79.7127
0
LINE
8
Black
10
122.42
20
-79.7127
11
122.362
21
-79.8527
0
LINE
8
Black
10
122.362
20
-79.8527
11
122.362
21
-79.992
0
LINE
8
Black
10
122.362
20
-79.992
11
119.15
21
-79.992
0
LINE
8
Black
10
119.15
20
-79.992
11
119.097
21
-80.0025
0
LINE
8
Black
10
119.097
20
-80.0025
11
119.998
21
-79.1015
0
LINE
8
Black
10
119.998
20
-79.1015
11
119.998
21
-79.1015
0
LINE
8
Black
10
119.998
20
-79.1015
11
120.108
21
-78.9367
0
LINE
8
Black
10
120.108
20
-78.9367
11
120.147
21
-78.7423
0
LINE
8
Black
10
120.147
20
-78.7423
11
120.147
21
-77.2187
0
LINE
8
Black
10
120.147
20
-77.2187
11
120.114
21
-77.0565
0
LINE
8
Black
10
120.114
20
-77.0565
11
120.108
21
-77.0243
0
LINE
8
Black
10
120.108
20
-77.0243
11
120.108
21
-77.0243
0
LINE
8
Black
10
120.108
20
-77.0243
11
119.998
21
-76.8595
0
LINE
8
Black
10
119.998
20
-76.8595
11
119.78
21
-76.6418
0
LINE
8
Black
10
119.78
20
-76.6418
11
119.615
21
-76.5317
0
LINE
8
Black
10
119.615
20
-76.5317
11
119.421
21
-76.493
0
LINE
8
Black
10
119.421
20
-76.493
11
112.37
21
-76.493
0
LINE
8
Black
10
112.37
20
-76.493
11
112.37
21
-76.2173
0
LINE
8
Black
10
112.37
20
-76.2173
11
112.245
21
-75.9138
0
LINE
8
Black
10
112.245
20
-75.9138
11
112.013
21
-75.6814
0
LINE
8
Black
10
112.013
20
-75.6814
11
111.71
21
-75.5554
0
LINE
8
Black
10
111.71
20
-75.5554
11
111.381
21
-75.5552
0
LINE
8
Black
10
111.381
20
-75.5552
11
111.078
21
-75.6806
0
LINE
8
Black
10
111.078
20
-75.6806
11
110.885
21
-75.8728
0
LINE
8
Black
10
110.885
20
-75.8728
11
99.4918
21
-75.8728
0
LINE
8
Black
10
99.4918
20
-75.8728
11
99.3296
21
-75.9051
0
LINE
8
Black
10
99.3296
20
-75.9051
11
99.2974
21
-75.9115
0
LINE
8
Black
10
99.2974
20
-75.9115
11
99.1326
21
-76.0216
0
LINE
8
Black
10
99.1326
20
-76.0216
11
98.4732
21
-76.681
0
LINE
8
Black
10
98.4732
20
-76.681
11
98.3631
21
-76.8458
0
LINE
8
Black
10
98.3631
20
-76.8458
11
98.3244
21
-77.0402
0
LINE
8
Black
10
98.3244
20
-77.0402
11
98.3244
21
-82.471
0
LINE
8
Black
10
98.3244
20
-82.471
11
98.3631
21
-82.6654
0
LINE
8
Black
10
98.3631
20
-82.6654
11
98.4732
21
-82.8302
0
LINE
8
Black
10
98.4732
20
-82.8302
11
99.0022
21
-83.3592
0
LINE
8
Black
10
99.0022
20
-83.3592
11
99.167
21
-83.4693
0
LINE
8
Black
10
99.167
20
-83.4693
11
99.3614
21
-83.508
0
LINE
8
Black
10
99.3614
20
-83.508
11
99.3617
21
-83.508
0
LINE
8
Black
10
99.3617
20
-83.508
11
99.3617
21
-83.6473
0
LINE
8
Black
10
99.3617
20
-83.6473
11
99.4197
21
-83.7873
0
LINE
8
Black
10
99.4197
20
-83.7873
11
99.5269
21
-83.8945
0
LINE
8
Black
10
99.5269
20
-83.8945
11
99.6669
21
-83.9525
0
LINE
8
Black
10
99.6669
20
-83.9525
11
99.8185
21
-83.9525
0
LINE
8
Black
10
99.8185
20
-83.9525
11
100.025
21
-83.9525
0
LINE
8
Black
10
100.025
20
-83.9525
11
99.7899
21
-84.188
0
LINE
8
Black
10
99.7899
20
-84.188
11
99.6798
21
-84.3528
0
LINE
8
Black
10
99.6798
20
-84.3528
11
99.6411
21
-84.5472
0
LINE
8
Black
10
99.6411
20
-84.5472
11
99.6411
21
-84.5582
0
LINE
8
Black
10
99.6411
20
-84.5582
11
99.5269
21
-84.6055
0
LINE
8
Black
10
99.5269
20
-84.6055
11
99.4197
21
-84.7127
0
LINE
8
Black
10
99.4197
20
-84.7127
11
99.3617
21
-84.8527
0
LINE
8
Black
10
99.3617
20
-84.8527
11
99.3617
21
-85.0043
0
LINE
8
Black
10
99.3617
20
-85.0043
11
99.3617
21
-86.1473
0
LINE
8
Black
10
99.3617
20
-86.1473
11
99.4197
21
-86.2873
0
LINE
8
Black
10
99.4197
20
-86.2873
11
99.5269
21
-86.3945
0
LINE
8
Black
10
99.5269
20
-86.3945
11
99.6669
21
-86.4525
0
LINE
8
Black
10
99.6669
20
-86.4525
11
99.8185
21
-86.4525
0
LINE
8
Black
10
99.8185
20
-86.4525
11
100.631
21
-86.4525
0
LINE
8
Black
10
100.631
20
-86.4525
11
100.771
21
-86.3945
0
LINE
8
Black
10
100.771
20
-86.3945
11
100.856
21
-86.3099
0
LINE
8
Black
10
100.856
20
-86.3099
11
100.906
21
-86.4312
0
LINE
8
Black
10
100.906
20
-86.4312
11
101.085
21
-86.6098
0
LINE
8
Black
10
101.085
20
-86.6098
11
101.318
21
-86.7065
0
LINE
8
Black
10
101.318
20
-86.7065
11
101.565
21
-86.7065
0
LINE
8
Black
10
101.565
20
-86.7065
11
101.724
21
-86.5478
0
LINE
8
Black
10
101.724
20
-86.5478
11
101.724
21
-85.627
0
LINE
8
Black
10
101.724
20
-85.627
11
101.704
21
-85.627
0
LINE
8
Black
10
101.704
20
-85.627
11
101.704
21
-85.373
0
LINE
8
Black
10
101.704
20
-85.373
11
101.724
21
-85.373
0
LINE
8
Black
10
101.724
20
-85.373
11
101.724
21
-84.4523
0
LINE
8
Black
10
101.724
20
-84.4523
11
101.565
21
-84.2935
0
LINE
8
Black
10
101.565
20
-84.2935
11
101.318
21
-84.2935
0
LINE
8
Black
10
101.318
20
-84.2935
11
101.085
21
-84.3902
0
LINE
8
Black
10
101.085
20
-84.3902
11
100.906
21
-84.5688
0
LINE
8
Black
10
100.906
20
-84.5688
11
100.856
21
-84.6901
0
LINE
8
Black
10
100.856
20
-84.6901
11
100.79
21
-84.6245
0
LINE
8
Black
10
100.79
20
-84.6245
11
101.422
21
-83.9923
0
LINE
8
Black
10
101.422
20
-83.9923
11
101.422
21
-83.9923
0
LINE
8
Black
10
101.422
20
-83.9923
11
101.449
21
-83.9525
0
LINE
8
Black
10
101.449
20
-83.9525
11
101.449
21
-83.9525
0
LINE
8
Black
10
101.449
20
-83.9525
11
101.52
21
-83.9525
0
LINE
8
Black
10
101.52
20
-83.9525
11
102.333
21
-83.9525
0
LINE
8
Black
10
102.333
20
-83.9525
11
102.473
21
-83.8945
0
LINE
8
Black
10
102.473
20
-83.8945
11
102.58
21
-83.7873
0
LINE
8
Black
10
102.58
20
-83.7873
11
102.638
21
-83.6473
0
LINE
8
Black
10
102.638
20
-83.6473
11
102.638
21
-83.4957
0
LINE
8
Black
10
102.638
20
-83.4957
11
102.638
21
-82.962
0
LINE
8
Black
10
102.638
20
-82.962
11
103.167
21
-83.4902
0
LINE
8
Black
10
103.167
20
-83.4902
11
103.167
21
-83.635
0
LINE
8
Black
10
103.167
20
-83.635
11
103.205
21
-83.8294
0
LINE
8
Black
10
103.205
20
-83.8294
11
103.292
21
-83.9594
0
LINE
8
Black
10
103.292
20
-83.9594
11
103.228
21
-84.0238
0
LINE
8
Black
10
103.228
20
-84.0238
11
103.118
21
-84.1886
0
LINE
8
Black
10
103.118
20
-84.1886
11
103.079
21
-84.383
0
LINE
8
Black
10
103.079
20
-84.383
11
103.079
21
-86.8413
0
LINE
8
Black
10
103.079
20
-86.8413
11
102.892
21
-87.0279
0
LINE
8
Black
10
102.892
20
-87.0279
11
102.892
21
-86.1978
0
LINE
8
Black
10
102.892
20
-86.1978
11
102.892
21
-85.9452
0
LINE
8
Black
10
102.892
20
-85.9452
11
102.892
21
-85.7858
0
LINE
8
Black
10
102.892
20
-85.7858
11
102.892
21
-85.2143
0
LINE
8
Black
10
102.892
20
-85.2143
11
102.892
21
-85.0548
0
LINE
8
Black
10
102.892
20
-85.0548
11
102.892
21
-84.8022
0
LINE
8
Black
10
102.892
20
-84.8022
11
102.796
21
-84.5688
0
LINE
8
Black
10
102.796
20
-84.5688
11
102.617
21
-84.3902
0
LINE
8
Black
10
102.617
20
-84.3902
11
102.384
21
-84.2935
0
LINE
8
Black
10
102.384
20
-84.2935
11
102.137
21
-84.2935
0
LINE
8
Black
10
102.137
20
-84.2935
11
101.978
21
-84.4523
0
LINE
8
Black
10
101.978
20
-84.4523
11
101.978
21
-85.373
0
LINE
8
Black
10
101.978
20
-85.373
11
102.734
21
-85.373
0
LINE
8
Black
10
102.734
20
-85.373
11
102.892
21
-85.2143
0
LINE
8
Black
10
102.892
20
-85.2143
11
102.892
21
-85.7858
0
LINE
8
Black
10
102.892
20
-85.7858
11
102.734
21
-85.627
0
LINE
8
Black
10
102.734
20
-85.627
11
101.978
21
-85.627
0
LINE
8
Black
10
101.978
20
-85.627
11
101.978
21
-86.5478
0
LINE
8
Black
10
101.978
20
-86.5478
11
102.137
21
-86.7065
0
LINE
8
Black
10
102.137
20
-86.7065
11
102.384
21
-86.7065
0
LINE
8
Black
10
102.384
20
-86.7065
11
102.617
21
-86.6098
0
LINE
8
Black
10
102.617
20
-86.6098
11
102.796
21
-86.4312
0
LINE
8
Black
10
102.796
20
-86.4312
11
102.892
21
-86.1978
0
LINE
8
Black
10
102.892
20
-86.1978
11
102.892
21
-87.0279
0
LINE
8
Black
10
102.892
20
-87.0279
11
102.618
21
-87.3026
0
LINE
8
Black
10
102.618
20
-87.3026
11
102.58
21
-87.2127
0
LINE
8
Black
10
102.58
20
-87.2127
11
102.473
21
-87.1055
0
LINE
8
Black
10
102.473
20
-87.1055
11
102.333
21
-87.0475
0
LINE
8
Black
10
102.333
20
-87.0475
11
102.182
21
-87.0475
0
LINE
8
Black
10
102.182
20
-87.0475
11
101.369
21
-87.0475
0
LINE
8
Black
10
101.369
20
-87.0475
11
101.229
21
-87.1055
0
LINE
8
Black
10
101.229
20
-87.1055
11
101.144
21
-87.1901
0
LINE
8
Black
10
101.144
20
-87.1901
11
101.094
21
-87.0688
0
LINE
8
Black
10
101.094
20
-87.0688
11
100.915
21
-86.8902
0
LINE
8
Black
10
100.915
20
-86.8902
11
100.682
21
-86.7935
0
LINE
8
Black
10
100.682
20
-86.7935
11
100.435
21
-86.7935
0
LINE
8
Black
10
100.435
20
-86.7935
11
100.276
21
-86.9523
0
LINE
8
Black
10
100.276
20
-86.9523
11
100.276
21
-87.873
0
LINE
8
Black
10
100.276
20
-87.873
11
100.296
21
-87.873
0
LINE
8
Black
10
100.296
20
-87.873
11
100.296
21
-88.127
0
LINE
8
Black
10
100.296
20
-88.127
11
100.276
21
-88.127
0
LINE
8
Black
10
100.276
20
-88.127
11
100.276
21
-89.0478
0
LINE
8
Black
10
100.276
20
-89.0478
11
100.435
21
-89.2065
0
LINE
8
Black
10
100.435
20
-89.2065
11
100.682
21
-89.2065
0
LINE
8
Black
10
100.682
20
-89.2065
11
100.915
21
-89.1098
0
LINE
8
Black
10
100.915
20
-89.1098
11
101.094
21
-88.9312
0
LINE
8
Black
10
101.094
20
-88.9312
11
101.144
21
-88.8099
0
LINE
8
Black
10
101.144
20
-88.8099
11
101.229
21
-88.8945
0
LINE
8
Black
10
101.229
20
-88.8945
11
101.369
21
-88.9525
0
LINE
8
Black
10
101.369
20
-88.9525
11
101.52
21
-88.9525
0
LINE
8
Black
10
101.52
20
-88.9525
11
102.333
21
-88.9525
0
LINE
8
Black
10
102.333
20
-88.9525
11
102.473
21
-88.8945
0
LINE
8
Black
10
102.473
20
-88.8945
11
102.58
21
-88.7873
0
LINE
8
Black
10
102.58
20
-88.7873
11
102.638
21
-88.6473
0
LINE
8
Black
10
102.638
20
-88.6473
11
102.638
21
-88.508
0
LINE
8
Black
10
102.638
20
-88.508
11
102.639
21
-88.508
0
LINE
8
Black
10
102.639
20
-88.508
11
102.833
21
-88.4693
0
LINE
8
Black
10
102.833
20
-88.4693
11
102.998
21
-88.3592
0
LINE
8
Black
10
102.998
20
-88.3592
11
103.587
21
-87.7701
0
LINE
8
Black
10
103.587
20
-87.7701
11
104.176
21
-88.3592
0
LINE
8
Black
10
104.176
20
-88.3592
11
104.341
21
-88.4693
0
LINE
8
Black
10
104.341
20
-88.4693
11
104.535
21
-88.508
0
LINE
8
Black
10
104.535
20
-88.508
11
105.362
21
-88.508
0
LINE
8
Black
10
105.362
20
-88.508
11
105.362
21
-88.6473
0
LINE
8
Black
10
105.362
20
-88.6473
11
105.42
21
-88.7873
0
LINE
8
Black
10
105.42
20
-88.7873
11
105.527
21
-88.8945
0
LINE
8
Black
10
105.527
20
-88.8945
11
105.667
21
-88.9525
0
LINE
8
Black
10
105.667
20
-88.9525
11
105.818
21
-88.9525
0
LINE
8
Black
10
105.818
20
-88.9525
11
106.631
21
-88.9525
0
LINE
8
Black
10
106.631
20
-88.9525
11
106.771
21
-88.8945
0
LINE
8
Black
10
106.771
20
-88.8945
11
106.878
21
-88.7873
0
LINE
8
Black
10
106.878
20
-88.7873
11
106.937
21
-88.6473
0
LINE
8
Black
10
106.937
20
-88.6473
11
106.937
21
-88.4957
0
LINE
8
Black
10
106.937
20
-88.4957
11
106.937
21
-87.3527
0
LINE
8
Black
10
106.937
20
-87.3527
11
106.878
21
-87.2127
0
LINE
8
Black
10
106.878
20
-87.2127
11
106.771
21
-87.1055
0
LINE
8
Black
10
106.771
20
-87.1055
11
106.631
21
-87.0475
0
LINE
8
Black
10
106.631
20
-87.0475
11
106.48
21
-87.0475
0
LINE
8
Black
10
106.48
20
-87.0475
11
105.667
21
-87.0475
0
LINE
8
Black
10
105.667
20
-87.0475
11
105.527
21
-87.1055
0
LINE
8
Black
10
105.527
20
-87.1055
11
105.42
21
-87.2127
0
LINE
8
Black
10
105.42
20
-87.2127
11
105.362
21
-87.3527
0
LINE
8
Black
10
105.362
20
-87.3527
11
105.362
21
-87.492
0
LINE
8
Black
10
105.362
20
-87.492
11
104.746
21
-87.492
0
LINE
8
Black
10
104.746
20
-87.492
11
104.095
21
-86.8413
0
LINE
8
Black
10
104.095
20
-86.8413
11
104.095
21
-85.4613
0
LINE
8
Black
10
104.095
20
-85.4613
11
104.132
21
-85.4613
0
LINE
8
Black
10
104.132
20
-85.4613
11
105.432
21
-85.4613
0
LINE
8
Black
10
105.432
20
-85.4613
11
105.487
21
-85.4384
0
LINE
8
Black
10
105.487
20
-85.4384
11
105.527
21
-85.4384
0
LINE
8
Black
10
105.527
20
-85.4384
11
107.211
21
-87.1228
0
LINE
8
Black
10
107.211
20
-87.1228
11
107.122
21
-87.2127
0
LINE
8
Black
10
107.122
20
-87.2127
11
107.064
21
-87.3527
0
LINE
8
Black
10
107.064
20
-87.3527
11
107.064
21
-87.5043
0
LINE
8
Black
10
107.064
20
-87.5043
11
107.064
21
-88.6473
0
LINE
8
Black
10
107.064
20
-88.6473
11
107.122
21
-88.7873
0
LINE
8
Black
10
107.122
20
-88.7873
11
107.229
21
-88.8945
0
LINE
8
Black
10
107.229
20
-88.8945
11
107.369
21
-88.9525
0
LINE
8
Black
10
107.369
20
-88.9525
11
107.52
21
-88.9525
0
LINE
8
Black
10
107.52
20
-88.9525
11
108.333
21
-88.9525
0
LINE
8
Black
10
108.333
20
-88.9525
11
108.473
21
-88.8945
0
LINE
8
Black
10
108.473
20
-88.8945
11
108.58
21
-88.7873
0
LINE
8
Black
10
108.58
20
-88.7873
11
108.638
21
-88.6473
0
LINE
8
Black
10
108.638
20
-88.6473
11
108.638
21
-88.4957
0
LINE
8
Black
10
108.638
20
-88.4957
11
108.638
21
-87.5551
0
LINE
8
Black
10
108.638
20
-87.5551
11
110.362
21
-87.5551
0
LINE
8
Black
10
110.362
20
-87.5551
11
110.362
21
-88.6473
0
LINE
8
Black
10
110.362
20
-88.6473
11
110.42
21
-88.7873
0
LINE
8
Black
10
110.42
20
-88.7873
11
110.527
21
-88.8945
0
LINE
8
Black
10
110.527
20
-88.8945
11
110.641
21
-88.9418
0
LINE
8
Black
10
110.641
20
-88.9418
11
110.641
21
-88.9528
0
LINE
8
Black
10
110.641
20
-88.9528
11
110.641
21
-90.9591
0
LINE
8
Black
10
110.641
20
-90.9591
11
110.661
21
-91.0587
0
LINE
8
Black
10
110.661
20
-91.0587
11
110.433
21
-90.8304
0
LINE
8
Black
10
110.433
20
-90.8304
11
109.926
21
-90.6198
0
LINE
8
Black
10
109.926
20
-90.6198
11
109.377
21
-90.6193
0
LINE
8
Black
10
109.377
20
-90.6193
11
108.869
21
-90.829
0
LINE
8
Black
10
108.869
20
-90.829
11
108.48
21
-91.217
0
LINE
8
Black
10
108.48
20
-91.217
11
108.38
21
-91.4587
0
LINE
8
Black
10
108.38
20
-91.4587
11
108.281
21
-91.219
0
LINE
8
Black
10
108.281
20
-91.219
11
107.893
21
-90.8304
0
LINE
8
Black
10
107.893
20
-90.8304
11
107.386
21
-90.6198
0
LINE
8
Black
10
107.386
20
-90.6198
11
106.837
21
-90.6193
0
LINE
8
Black
10
106.837
20
-90.6193
11
106.329
21
-90.829
0
LINE
8
Black
10
106.329
20
-90.829
11
105.95
21
-91.2069
0
LINE
8
Black
10
105.95
20
-91.2069
11
105.95
21
-90.9247
0
LINE
8
Black
10
105.95
20
-90.9247
11
105.892
21
-90.7847
0
LINE
8
Black
10
105.892
20
-90.7847
11
105.785
21
-90.6775
0
LINE
8
Black
10
105.785
20
-90.6775
11
105.645
21
-90.6195
0
LINE
8
Black
10
105.645
20
-90.6195
11
105.494
21
-90.6195
0
LINE
8
Black
10
105.494
20
-90.6195
11
103.495
21
-90.6195
0
LINE
8
Black
10
103.495
20
-90.6195
11
103.355
21
-90.6775
0
LINE
8
Black
10
103.355
20
-90.6775
11
103.248
21
-90.7847
0
LINE
8
Black
10
103.248
20
-90.7847
11
103.19
21
-90.9247
0
LINE
8
Black
10
103.19
20
-90.9247
11
103.19
21
-91.0763
0
LINE
8
Black
10
103.19
20
-91.0763
11
103.19
21
-93.0753
0
LINE
8
Black
10
103.19
20
-93.0753
11
103.248
21
-93.2153
0
LINE
8
Black
10
103.248
20
-93.2153
11
103.355
21
-93.3225
0
LINE
8
Black
10
103.355
20
-93.3225
11
103.495
21
-93.3805
0
LINE
8
Black
10
103.495
20
-93.3805
11
103.646
21
-93.3805
0
LINE
8
Black
10
103.646
20
-93.3805
11
105.645
21
-93.3805
0
LINE
8
Black
10
105.645
20
-93.3805
11
105.785
21
-93.3225
0
LINE
8
Black
10
105.785
20
-93.3225
11
105.892
21
-93.2153
0
LINE
8
Black
10
105.892
20
-93.2153
11
105.95
21
-93.0753
0
LINE
8
Black
10
105.95
20
-93.0753
11
105.95
21
-92.9237
0
LINE
8
Black
10
105.95
20
-92.9237
11
105.95
21
-92.7925
0
LINE
8
Black
10
105.95
20
-92.7925
11
106.327
21
-93.1696
0
LINE
8
Black
10
106.327
20
-93.1696
11
106.834
21
-93.3802
0
LINE
8
Black
10
106.834
20
-93.3802
11
107.383
21
-93.3807
0
LINE
8
Black
10
107.383
20
-93.3807
11
107.891
21
-93.171
0
LINE
8
Black
10
107.891
20
-93.171
11
108.28
21
-92.783
0
LINE
8
Black
10
108.28
20
-92.783
11
108.38
21
-92.5413
0
LINE
8
Black
10
108.38
20
-92.5413
11
108.479
21
-92.781
0
LINE
8
Black
10
108.479
20
-92.781
11
108.867
21
-93.1696
0
LINE
8
Black
10
108.867
20
-93.1696
11
109.374
21
-93.3802
0
LINE
8
Black
10
109.374
20
-93.3802
11
109.923
21
-93.3807
0
LINE
8
Black
10
109.923
20
-93.3807
11
110.148
21
-93.288
0
LINE
8
Black
10
110.148
20
-93.288
11
110.697
21
-93.8376
0
LINE
8
Black
10
110.697
20
-93.8376
11
110.879
21
-93.9588
0
LINE
8
Black
10
110.879
20
-93.9588
11
110.879
21
-93.9588
0
LINE
8
Black
10
110.879
20
-93.9588
11
111.093
21
-94.0013
0
LINE
8
Black
10
111.093
20
-94.0013
11
128.054
21
-94.0013
0
LINE
8
Black
10
128.054
20
-94.0013
11
128.268
21
-93.9588
0
LINE
8
Black
10
128.268
20
-93.9588
11
128.268
21
-93.9588
0
LINE
8
Black
10
128.268
20
-93.9588
11
128.449
21
-93.8376
0
LINE
8
Black
10
128.449
20
-93.8376
11
130.126
21
-92.1611
0
LINE
8
Black
10
130.126
20
-92.1611
11
130.247
21
-91.9798
0
LINE
8
Black
10
130.247
20
-91.9798
11
130.247
21
-91.9798
0
LINE
8
Black
10
130.247
20
-91.9798
11
130.29
21
-91.766
0
LINE
8
Black
10
130.29
20
-91.766
11
130.29
21
-94.373
0
LINE
8
Black
10
130.29
20
-94.373
11
100.022
21
-94.373
0
LINE
8
Black
10
100.022
20
-94.373
11
100.022
21
-89.0478
0
LINE
8
Black
10
100.022
20
-89.0478
11
100.022
21
-88.127
0
LINE
8
Black
10
100.022
20
-88.127
11
100.022
21
-87.873
0
LINE
8
Black
10
100.022
20
-87.873
11
100.022
21
-86.9523
0
LINE
8
Black
10
100.022
20
-86.9523
11
99.8634
21
-86.7935
0
LINE
8
Black
10
99.8634
20
-86.7935
11
99.6164
21
-86.7935
0
LINE
8
Black
10
99.6164
20
-86.7935
11
99.383
21
-86.8902
0
LINE
8
Black
10
99.383
20
-86.8902
11
99.2044
21
-87.0688
0
LINE
8
Black
10
99.2044
20
-87.0688
11
99.1077
21
-87.3022
0
LINE
8
Black
10
99.1077
20
-87.3022
11
99.1077
21
-87.5548
0
LINE
8
Black
10
99.1077
20
-87.5548
11
99.1077
21
-87.7143
0
LINE
8
Black
10
99.1077
20
-87.7143
11
99.2665
21
-87.873
0
LINE
8
Black
10
99.2665
20
-87.873
11
100.022
21
-87.873
0
LINE
8
Black
10
100.022
20
-87.873
11
100.022
21
-88.127
0
LINE
8
Black
10
100.022
20
-88.127
11
99.2665
21
-88.127
0
LINE
8
Black
10
99.2665
20
-88.127
11
99.1077
21
-88.2858
0
LINE
8
Black
10
99.1077
20
-88.2858
11
99.1077
21
-88.4452
0
LINE
8
Black
10
99.1077
20
-88.4452
11
99.1077
21
-88.6978
0
LINE
8
Black
10
99.1077
20
-88.6978
11
99.2044
21
-88.9312
0
LINE
8
Black
10
99.2044
20
-88.9312
11
99.383
21
-89.1098
0
LINE
8
Black
10
99.383
20
-89.1098
11
99.6164
21
-89.2065
0
LINE
8
Black
10
99.6164
20
-89.2065
11
99.8634
21
-89.2065
0
LINE
8
Black
10
99.8634
20
-89.2065
11
100.022
21
-89.0478
0
LINE
8
Black
10
100.022
20
-89.0478
11
100.022
21
-94.373
0
LINE
8
Black
10
100.022
20
-94.373
11
98.127
21
-94.373
0
LINE
8
Black
10
98.127
20
-94.373
11
98.127
21
-74.627
0
LINE
8
Black
10
98.127
20
-74.627
11
132.873
21
-74.627
0
LINE
8
Black
10
132.873
20
-74.627
11
132.873
21
-94.373
  0
ENDSEC
  0
EOF
