  0
SECTION
  2
HEADER
  9
$ANGBASE
  50
0.0
  9
$ANGDIR
  70
  1
  9
$MEASUREMENT
  70
0
  0
ENDSEC
  0
SECTION
  2
TABLES
  0
TABLE
  2
LTYPE
  70
1
  0
LTYPE
  2
CONTINUOUS
  70
0
  3
Solid line
  72
65
  73
0
  40
0.0
  0
ENDTAB
  0
TABLE
  2
STYLE
  70
4
  0
STYLE
  2
KICAD
  70
0
  40
0
  41
1
  42
1
  50
0
  71
0
  3
isocp.shx
  0
STYLE
  2
KICADB
  70
0
  40
0
  41
1
  42
1
  50
0
  71
0
  3
isocp.shx
  0
STYLE
  2
KICADI
  70
0
  40
0
  41
1
  42
1
  50
15
  71
0
  3
isocp.shx
  0
STYLE
  2
KICADBI
  70
0
  40
0
  41
1
  42
1
  50
15
  71
0
  3
isocp.shx
  0
ENDTAB
  0
TABLE
  2
LAYER
  70
30
  0
LAYER
  2
BLACK
  70
0
  62
7
  6
CONTINUOUS
  0
LAYER
  2
GRAY1
  70
0
  62
251
  6
CONTINUOUS
  0
LAYER
  2
GRAY2
  70
0
  62
8
  6
CONTINUOUS
  0
LAYER
  2
GRAY3
  70
0
  62
9
  6
CONTINUOUS
  0
LAYER
  2
WHITE
  70
0
  62
7
  6
CONTINUOUS
  0
LAYER
  2
LYELLOW
  70
0
  62
51
  6
CONTINUOUS
  0
LAYER
  2
BLUE1
  70
0
  62
178
  6
CONTINUOUS
  0
LAYER
  2
GREEN1
  70
0
  62
98
  6
CONTINUOUS
  0
LAYER
  2
CYAN1
  70
0
  62
138
  6
CONTINUOUS
  0
LAYER
  2
RED1
  70
0
  62
18
  6
CONTINUOUS
  0
LAYER
  2
MAGENTA1
  70
0
  62
228
  6
CONTINUOUS
  0
LAYER
  2
BROWN1
  70
0
  62
58
  6
CONTINUOUS
  0
LAYER
  2
BLUE2
  70
0
  62
5
  6
CONTINUOUS
  0
LAYER
  2
GREEN2
  70
0
  62
3
  6
CONTINUOUS
  0
LAYER
  2
CYAN2
  70
0
  62
4
  6
CONTINUOUS
  0
LAYER
  2
RED2
  70
0
  62
1
  6
CONTINUOUS
  0
LAYER
  2
MAGENTA2
  70
0
  62
6
  6
CONTINUOUS
  0
LAYER
  2
BROWN2
  70
0
  62
54
  6
CONTINUOUS
  0
LAYER
  2
BLUE3
  70
0
  62
171
  6
CONTINUOUS
  0
LAYER
  2
GREEN3
  70
0
  62
91
  6
CONTINUOUS
  0
LAYER
  2
CYAN3
  70
0
  62
131
  6
CONTINUOUS
  0
LAYER
  2
RED3
  70
0
  62
11
  6
CONTINUOUS
  0
LAYER
  2
MAGENTA3
  70
0
  62
221
  6
CONTINUOUS
  0
LAYER
  2
YELLOW3
  70
0
  62
2
  6
CONTINUOUS
  0
LAYER
  2
BLUE4
  70
0
  62
5
  6
CONTINUOUS
  0
LAYER
  2
GREEN4
  70
0
  62
3
  6
CONTINUOUS
  0
LAYER
  2
CYAN4
  70
0
  62
4
  6
CONTINUOUS
  0
LAYER
  2
RED4
  70
0
  62
1
  6
CONTINUOUS
  0
LAYER
  2
MAGENTA4
  70
0
  62
6
  6
CONTINUOUS
  0
LAYER
  2
YELLOW4
  70
0
  62
2
  6
CONTINUOUS
  0
ENDTAB
  0
ENDSEC
  0
SECTION
  2
ENTITIES
0
LINE
8
Black
10
104.056
20
-85.0803
11
105.356
21
-85.0803
0
LINE
8
Black
10
105.356
20
-85.0803
11
105.356
21
-84.7805
0
LINE
8
Black
10
105.356
20
-84.7805
11
104.056
21
-84.7805
0
LINE
8
Black
10
104.056
20
-84.7805
11
104.056
21
-85.0803
0
LINE
8
Black
10
104.056
20
-84.4453
11
105.356
21
-84.4453
0
LINE
8
Black
10
105.356
20
-84.4453
11
105.356
21
-84.1455
0
LINE
8
Black
10
105.356
20
-84.1455
11
104.056
21
-84.1455
0
LINE
8
Black
10
104.056
20
-84.1455
11
104.056
21
-84.4453
0
LINE
8
Black
10
104.056
20
-83.7849
11
105.356
21
-83.7849
0
LINE
8
Black
10
105.356
20
-83.7849
11
105.356
21
-83.4851
0
LINE
8
Black
10
105.356
20
-83.4851
11
104.056
21
-83.4851
0
LINE
8
Black
10
104.056
20
-83.4851
11
104.056
21
-83.7849
0
LINE
8
Black
10
104.056
20
-83.1499
11
105.356
21
-83.1499
0
LINE
8
Black
10
105.356
20
-83.1499
11
105.356
21
-82.8501
0
LINE
8
Black
10
105.356
20
-82.8501
11
104.056
21
-82.8501
0
LINE
8
Black
10
104.056
20
-82.8501
11
104.056
21
-83.1499
0
LINE
8
Black
10
104.056
20
-82.4895
11
105.356
21
-82.4895
0
LINE
8
Black
10
105.356
20
-82.4895
11
105.356
21
-82.1897
0
LINE
8
Black
10
105.356
20
-82.1897
11
104.056
21
-82.1897
0
LINE
8
Black
10
104.056
20
-82.1897
11
104.056
21
-82.4895
0
LINE
8
Black
10
104.056
20
-81.8418
11
105.356
21
-81.8418
0
LINE
8
Black
10
105.356
20
-81.8418
11
105.356
21
-81.542
0
LINE
8
Black
10
105.356
20
-81.542
11
104.056
21
-81.542
0
LINE
8
Black
10
104.056
20
-81.542
11
104.056
21
-81.8418
0
LINE
8
Black
10
104.056
20
-81.1941
11
105.356
21
-81.1941
0
LINE
8
Black
10
105.356
20
-81.1941
11
105.356
21
-80.8943
0
LINE
8
Black
10
105.356
20
-80.8943
11
104.056
21
-80.8943
0
LINE
8
Black
10
104.056
20
-80.8943
11
104.056
21
-81.1941
0
LINE
8
Black
10
109.644
20
-81.1941
11
110.944
21
-81.1941
0
LINE
8
Black
10
110.944
20
-81.1941
11
110.944
21
-80.8943
0
LINE
8
Black
10
110.944
20
-80.8943
11
109.644
21
-80.8943
0
LINE
8
Black
10
109.644
20
-80.8943
11
109.644
21
-81.1941
0
LINE
8
Black
10
109.644
20
-81.8418
11
110.944
21
-81.8418
0
LINE
8
Black
10
110.944
20
-81.8418
11
110.944
21
-81.542
0
LINE
8
Black
10
110.944
20
-81.542
11
109.644
21
-81.542
0
LINE
8
Black
10
109.644
20
-81.542
11
109.644
21
-81.8418
0
LINE
8
Black
10
109.644
20
-82.4895
11
110.944
21
-82.4895
0
LINE
8
Black
10
110.944
20
-82.4895
11
110.944
21
-82.1897
0
LINE
8
Black
10
110.944
20
-82.1897
11
109.644
21
-82.1897
0
LINE
8
Black
10
109.644
20
-82.1897
11
109.644
21
-82.4895
0
LINE
8
Black
10
109.644
20
-83.1499
11
110.944
21
-83.1499
0
LINE
8
Black
10
110.944
20
-83.1499
11
110.944
21
-82.8501
0
LINE
8
Black
10
110.944
20
-82.8501
11
109.644
21
-82.8501
0
LINE
8
Black
10
109.644
20
-82.8501
11
109.644
21
-83.1499
0
LINE
8
Black
10
109.644
20
-83.7976
11
110.944
21
-83.7976
0
LINE
8
Black
10
110.944
20
-83.7976
11
110.944
21
-83.4978
0
LINE
8
Black
10
110.944
20
-83.4978
11
109.644
21
-83.4978
0
LINE
8
Black
10
109.644
20
-83.4978
11
109.644
21
-83.7976
0
LINE
8
Black
10
109.644
20
-84.4453
11
110.944
21
-84.4453
0
LINE
8
Black
10
110.944
20
-84.4453
11
110.944
21
-84.1455
0
LINE
8
Black
10
110.944
20
-84.1455
11
109.644
21
-84.1455
0
LINE
8
Black
10
109.644
20
-84.1455
11
109.644
21
-84.4453
0
LINE
8
Black
10
109.644
20
-85.093
11
110.944
21
-85.093
0
LINE
8
Black
10
110.944
20
-85.093
11
110.944
21
-84.7932
0
LINE
8
Black
10
110.944
20
-84.7932
11
109.644
21
-84.7932
0
LINE
8
Black
10
109.644
20
-84.7932
11
109.644
21
-85.093
0
LINE
8
Black
10
119.196
20
-84.1529
11
118.399
21
-84.1529
0
LINE
8
Black
10
118.399
20
-84.1529
11
118.399
21
-84.5517
0
LINE
8
Black
10
118.399
20
-84.5517
11
119.196
21
-84.5517
0
LINE
8
Black
10
119.196
20
-84.5517
11
119.196
21
-84.1529
0
LINE
8
Black
10
119.196
20
-84.8006
11
118.399
21
-84.8006
0
LINE
8
Black
10
118.399
20
-84.8006
11
118.399
21
-85.1994
0
LINE
8
Black
10
118.399
20
-85.1994
11
119.196
21
-85.1994
0
LINE
8
Black
10
119.196
20
-85.1994
11
119.196
21
-84.8006
0
LINE
8
Black
10
119.196
20
-85.4483
11
118.399
21
-85.4483
0
LINE
8
Black
10
118.399
20
-85.4483
11
118.399
21
-85.8471
0
LINE
8
Black
10
118.399
20
-85.8471
11
119.196
21
-85.8471
0
LINE
8
Black
10
119.196
20
-85.8471
11
119.196
21
-85.4483
0
LINE
8
Black
10
117.601
20
-85.4483
11
116.804
21
-85.4483
0
LINE
8
Black
10
116.804
20
-85.4483
11
116.804
21
-85.8471
0
LINE
8
Black
10
116.804
20
-85.8471
11
117.601
21
-85.8471
0
LINE
8
Black
10
117.601
20
-85.8471
11
117.601
21
-85.4483
0
LINE
8
Black
10
117.601
20
-84.8006
11
116.804
21
-84.8006
0
LINE
8
Black
10
116.804
20
-84.8006
11
116.804
21
-85.1994
0
LINE
8
Black
10
116.804
20
-85.1994
11
117.601
21
-85.1994
0
LINE
8
Black
10
117.601
20
-85.1994
11
117.601
21
-84.8006
0
LINE
8
Black
10
117.601
20
-84.1529
11
116.804
21
-84.1529
0
LINE
8
Black
10
116.804
20
-84.1529
11
116.804
21
-84.5517
0
LINE
8
Black
10
116.804
20
-84.5517
11
117.601
21
-84.5517
0
LINE
8
Black
10
117.601
20
-84.5517
11
117.601
21
-84.1529
0
LINE
8
Black
10
119.196
20
-80.6529
11
118.399
21
-80.6529
0
LINE
8
Black
10
118.399
20
-80.6529
11
118.399
21
-81.0517
0
LINE
8
Black
10
118.399
20
-81.0517
11
119.196
21
-81.0517
0
LINE
8
Black
10
119.196
20
-81.0517
11
119.196
21
-80.6529
0
LINE
8
Black
10
119.196
20
-81.3006
11
118.399
21
-81.3006
0
LINE
8
Black
10
118.399
20
-81.3006
11
118.399
21
-81.6994
0
LINE
8
Black
10
118.399
20
-81.6994
11
119.196
21
-81.6994
0
LINE
8
Black
10
119.196
20
-81.6994
11
119.196
21
-81.3006
0
LINE
8
Black
10
119.196
20
-81.9483
11
118.399
21
-81.9483
0
LINE
8
Black
10
118.399
20
-81.9483
11
118.399
21
-82.3471
0
LINE
8
Black
10
118.399
20
-82.3471
11
119.196
21
-82.3471
0
LINE
8
Black
10
119.196
20
-82.3471
11
119.196
21
-81.9483
0
LINE
8
Black
10
117.601
20
-81.9483
11
116.804
21
-81.9483
0
LINE
8
Black
10
116.804
20
-81.9483
11
116.804
21
-82.3471
0
LINE
8
Black
10
116.804
20
-82.3471
11
117.601
21
-82.3471
0
LINE
8
Black
10
117.601
20
-82.3471
11
117.601
21
-81.9483
0
LINE
8
Black
10
117.601
20
-81.3006
11
116.804
21
-81.3006
0
LINE
8
Black
10
116.804
20
-81.3006
11
116.804
21
-81.6994
0
LINE
8
Black
10
116.804
20
-81.6994
11
117.601
21
-81.6994
0
LINE
8
Black
10
117.601
20
-81.6994
11
117.601
21
-81.3006
0
LINE
8
Black
10
117.601
20
-80.6529
11
116.804
21
-80.6529
0
LINE
8
Black
10
116.804
20
-80.6529
11
116.804
21
-81.0517
0
LINE
8
Black
10
116.804
20
-81.0517
11
117.601
21
-81.0517
0
LINE
8
Black
10
117.601
20
-81.0517
11
117.601
21
-80.6529
0
LINE
8
Black
10
122.743
20
-87.4285
11
122.743
21
-88.5715
0
LINE
8
Black
10
122.743
20
-88.5715
11
123.556
21
-88.5715
0
LINE
8
Black
10
123.556
20
-88.5715
11
123.556
21
-87.4285
0
LINE
8
Black
10
123.556
20
-87.4285
11
122.743
21
-87.4285
0
LINE
8
Black
10
124.445
20
-87.4285
11
124.445
21
-88.5715
0
LINE
8
Black
10
124.445
20
-88.5715
11
125.257
21
-88.5715
0
LINE
8
Black
10
125.257
20
-88.5715
11
125.257
21
-87.4285
0
LINE
8
Black
10
125.257
20
-87.4285
11
124.445
21
-87.4285
0
LINE
8
Black
10
108.257
20
-88.5715
11
108.257
21
-87.4285
0
LINE
8
Black
10
108.257
20
-87.4285
11
107.445
21
-87.4285
0
LINE
8
Black
10
107.445
20
-87.4285
11
107.445
21
-88.5715
0
LINE
8
Black
10
107.445
20
-88.5715
11
108.257
21
-88.5715
0
LINE
8
Black
10
106.556
20
-88.5715
11
106.556
21
-87.4285
0
LINE
8
Black
10
106.556
20
-87.4285
11
105.743
21
-87.4285
0
LINE
8
Black
10
105.743
20
-87.4285
11
105.743
21
-88.5715
0
LINE
8
Black
10
105.743
20
-88.5715
11
106.556
21
-88.5715
0
LINE
8
Black
10
102.257
20
-88.5715
11
102.257
21
-87.4285
0
LINE
8
Black
10
102.257
20
-87.4285
11
101.445
21
-87.4285
0
LINE
8
Black
10
101.445
20
-87.4285
11
101.445
21
-88.5715
0
LINE
8
Black
10
101.445
20
-88.5715
11
102.257
21
-88.5715
0
LINE
8
Black
10
100.556
20
-88.5715
11
100.556
21
-87.4285
0
LINE
8
Black
10
100.556
20
-87.4285
11
99.7427
21
-87.4285
0
LINE
8
Black
10
99.7427
20
-87.4285
11
99.7427
21
-88.5715
0
LINE
8
Black
10
99.7427
20
-88.5715
11
100.556
21
-88.5715
0
LINE
8
Black
10
125.257
20
-86.0715
11
125.257
21
-84.9285
0
LINE
8
Black
10
125.257
20
-84.9285
11
124.445
21
-84.9285
0
LINE
8
Black
10
124.445
20
-84.9285
11
124.445
21
-86.0715
0
LINE
8
Black
10
124.445
20
-86.0715
11
125.257
21
-86.0715
0
LINE
8
Black
10
123.556
20
-86.0715
11
123.556
21
-84.9285
0
LINE
8
Black
10
123.556
20
-84.9285
11
122.743
21
-84.9285
0
LINE
8
Black
10
122.743
20
-84.9285
11
122.743
21
-86.0715
0
LINE
8
Black
10
122.743
20
-86.0715
11
123.556
21
-86.0715
0
LINE
8
Black
10
125.257
20
-83.5715
11
125.257
21
-82.4285
0
LINE
8
Black
10
125.257
20
-82.4285
11
124.445
21
-82.4285
0
LINE
8
Black
10
124.445
20
-82.4285
11
124.445
21
-83.5715
0
LINE
8
Black
10
124.445
20
-83.5715
11
125.257
21
-83.5715
0
LINE
8
Black
10
123.556
20
-83.5715
11
123.556
21
-82.4285
0
LINE
8
Black
10
123.556
20
-82.4285
11
122.743
21
-82.4285
0
LINE
8
Black
10
122.743
20
-82.4285
11
122.743
21
-83.5715
0
LINE
8
Black
10
122.743
20
-83.5715
11
123.556
21
-83.5715
0
LINE
8
Black
10
125.257
20
-81.0715
11
125.257
21
-79.9285
0
LINE
8
Black
10
125.257
20
-79.9285
11
124.445
21
-79.9285
0
LINE
8
Black
10
124.445
20
-79.9285
11
124.445
21
-81.0715
0
LINE
8
Black
10
124.445
20
-81.0715
11
125.257
21
-81.0715
0
LINE
8
Black
10
123.556
20
-81.0715
11
123.556
21
-79.9285
0
LINE
8
Black
10
123.556
20
-79.9285
11
122.743
21
-79.9285
0
LINE
8
Black
10
122.743
20
-79.9285
11
122.743
21
-81.0715
0
LINE
8
Black
10
122.743
20
-81.0715
11
123.556
21
-81.0715
0
LINE
8
Black
10
125.257
20
-78.5715
11
125.257
21
-77.4285
0
LINE
8
Black
10
125.257
20
-77.4285
11
124.445
21
-77.4285
0
LINE
8
Black
10
124.445
20
-77.4285
11
124.445
21
-78.5715
0
LINE
8
Black
10
124.445
20
-78.5715
11
125.257
21
-78.5715
0
LINE
8
Black
10
123.556
20
-78.5715
11
123.556
21
-77.4285
0
LINE
8
Black
10
123.556
20
-77.4285
11
122.743
21
-77.4285
0
LINE
8
Black
10
122.743
20
-77.4285
11
122.743
21
-78.5715
0
LINE
8
Black
10
122.743
20
-78.5715
11
123.556
21
-78.5715
0
LINE
8
Black
10
113.257
20
-88.5715
11
113.257
21
-87.4285
0
LINE
8
Black
10
113.257
20
-87.4285
11
112.445
21
-87.4285
0
LINE
8
Black
10
112.445
20
-87.4285
11
112.445
21
-88.5715
0
LINE
8
Black
10
112.445
20
-88.5715
11
113.257
21
-88.5715
0
LINE
8
Black
10
111.556
20
-88.5715
11
111.556
21
-87.4285
0
LINE
8
Black
10
111.556
20
-87.4285
11
110.743
21
-87.4285
0
LINE
8
Black
10
110.743
20
-87.4285
11
110.743
21
-88.5715
0
LINE
8
Black
10
110.743
20
-88.5715
11
111.556
21
-88.5715
0
LINE
8
Black
10
116.743
20
-87.4285
11
116.743
21
-88.5715
0
LINE
8
Black
10
116.743
20
-88.5715
11
117.556
21
-88.5715
0
LINE
8
Black
10
117.556
20
-88.5715
11
117.556
21
-87.4285
0
LINE
8
Black
10
117.556
20
-87.4285
11
116.743
21
-87.4285
0
LINE
8
Black
10
118.445
20
-87.4285
11
118.445
21
-88.5715
0
LINE
8
Black
10
118.445
20
-88.5715
11
119.257
21
-88.5715
0
LINE
8
Black
10
119.257
20
-88.5715
11
119.257
21
-87.4285
0
LINE
8
Black
10
119.257
20
-87.4285
11
118.445
21
-87.4285
0
LINE
8
Black
10
116.743
20
-77.4285
11
116.743
21
-78.5715
0
LINE
8
Black
10
116.743
20
-78.5715
11
117.556
21
-78.5715
0
LINE
8
Black
10
117.556
20
-78.5715
11
117.556
21
-77.4285
0
LINE
8
Black
10
117.556
20
-77.4285
11
116.743
21
-77.4285
0
LINE
8
Black
10
118.445
20
-77.4285
11
118.445
21
-78.5715
0
LINE
8
Black
10
118.445
20
-78.5715
11
119.257
21
-78.5715
0
LINE
8
Black
10
119.257
20
-78.5715
11
119.257
21
-77.4285
0
LINE
8
Black
10
119.257
20
-77.4285
11
118.445
21
-77.4285
0
LINE
8
Black
10
102.257
20
-78.5715
11
102.257
21
-77.4285
0
LINE
8
Black
10
102.257
20
-77.4285
11
101.445
21
-77.4285
0
LINE
8
Black
10
101.445
20
-77.4285
11
101.445
21
-78.5715
0
LINE
8
Black
10
101.445
20
-78.5715
11
102.257
21
-78.5715
0
LINE
8
Black
10
100.556
20
-78.5715
11
100.556
21
-77.4285
0
LINE
8
Black
10
100.556
20
-77.4285
11
99.7427
21
-77.4285
0
LINE
8
Black
10
99.7427
20
-77.4285
11
99.7427
21
-78.5715
0
LINE
8
Black
10
99.7427
20
-78.5715
11
100.556
21
-78.5715
0
LINE
8
Black
10
99.7427
20
-82.4285
11
99.7427
21
-83.5715
0
LINE
8
Black
10
99.7427
20
-83.5715
11
100.556
21
-83.5715
0
LINE
8
Black
10
100.556
20
-83.5715
11
100.556
21
-82.4285
0
LINE
8
Black
10
100.556
20
-82.4285
11
99.7427
21
-82.4285
0
LINE
8
Black
10
101.445
20
-82.4285
11
101.445
21
-83.5715
0
LINE
8
Black
10
101.445
20
-83.5715
11
102.257
21
-83.5715
0
LINE
8
Black
10
102.257
20
-83.5715
11
102.257
21
-82.4285
0
LINE
8
Black
10
102.257
20
-82.4285
11
101.445
21
-82.4285
0
LINE
8
Black
10
99.7427
20
-84.9285
11
99.7427
21
-86.0715
0
LINE
8
Black
10
99.7427
20
-86.0715
11
100.556
21
-86.0715
0
LINE
8
Black
10
100.556
20
-86.0715
11
100.556
21
-84.9285
0
LINE
8
Black
10
100.556
20
-84.9285
11
99.7427
21
-84.9285
0
LINE
8
Black
10
101.445
20
-84.9285
11
101.445
21
-86.0715
0
LINE
8
Black
10
101.445
20
-86.0715
11
102.257
21
-86.0715
0
LINE
8
Black
10
102.257
20
-86.0715
11
102.257
21
-84.9285
0
LINE
8
Black
10
102.257
20
-84.9285
11
101.445
21
-84.9285
0
LINE
8
Black
10
102.257
20
-81.0715
11
102.257
21
-79.9285
0
LINE
8
Black
10
102.257
20
-79.9285
11
101.445
21
-79.9285
0
LINE
8
Black
10
101.445
20
-79.9285
11
101.445
21
-81.0715
0
LINE
8
Black
10
101.445
20
-81.0715
11
102.257
21
-81.0715
0
LINE
8
Black
10
100.556
20
-81.0715
11
100.556
21
-79.9285
0
LINE
8
Black
10
100.556
20
-79.9285
11
99.7427
21
-79.9285
0
LINE
8
Black
10
99.7427
20
-79.9285
11
99.7427
21
-81.0715
0
LINE
8
Black
10
99.7427
20
-81.0715
11
100.556
21
-81.0715
0
LINE
8
Black
10
108.257
20
-78.5715
11
108.257
21
-77.4285
0
LINE
8
Black
10
108.257
20
-77.4285
11
107.445
21
-77.4285
0
LINE
8
Black
10
107.445
20
-77.4285
11
107.445
21
-78.5715
0
LINE
8
Black
10
107.445
20
-78.5715
11
108.257
21
-78.5715
0
LINE
8
Black
10
106.556
20
-78.5715
11
106.556
21
-77.4285
0
LINE
8
Black
10
106.556
20
-77.4285
11
105.743
21
-77.4285
0
LINE
8
Black
10
105.743
20
-77.4285
11
105.743
21
-78.5715
0
LINE
8
Black
10
105.743
20
-78.5715
11
106.556
21
-78.5715
0
LINE
8
Black
10
128.757
20
-88.5715
11
128.757
21
-87.4285
0
LINE
8
Black
10
128.757
20
-87.4285
11
127.945
21
-87.4285
0
LINE
8
Black
10
127.945
20
-87.4285
11
127.945
21
-88.5715
0
LINE
8
Black
10
127.945
20
-88.5715
11
128.757
21
-88.5715
0
LINE
8
Black
10
127.056
20
-88.5715
11
127.056
21
-87.4285
0
LINE
8
Black
10
127.056
20
-87.4285
11
126.243
21
-87.4285
0
LINE
8
Black
10
126.243
20
-87.4285
11
126.243
21
-88.5715
0
LINE
8
Black
10
126.243
20
-88.5715
11
127.056
21
-88.5715
0
LINE
8
Black
10
113.257
20
-78.5715
11
113.257
21
-77.4285
0
LINE
8
Black
10
113.257
20
-77.4285
11
112.445
21
-77.4285
0
LINE
8
Black
10
112.445
20
-77.4285
11
112.445
21
-78.5715
0
LINE
8
Black
10
112.445
20
-78.5715
11
113.257
21
-78.5715
0
LINE
8
Black
10
111.556
20
-78.5715
11
111.556
21
-77.4285
0
LINE
8
Black
10
111.556
20
-77.4285
11
110.743
21
-77.4285
0
LINE
8
Black
10
110.743
20
-77.4285
11
110.743
21
-78.5715
0
LINE
8
Black
10
110.743
20
-78.5715
11
111.556
21
-78.5715
0
LINE
8
Black
10
103.571
20
-91.0005
11
103.571
21
-92.9995
0
LINE
8
Black
10
103.571
20
-92.9995
11
105.569
21
-92.9995
0
LINE
8
Black
10
105.569
20
-92.9995
11
105.569
21
-91.0005
0
LINE
8
Black
10
105.569
20
-91.0005
11
103.571
21
-91.0005
0
CIRCLE
8
Black
10
107.11
20
-92
40
0.99949
0
CIRCLE
8
Black
10
109.65
20
-92
40
0.99949
0
CIRCLE
8
Black
10
112.19
20
-92
40
0.99949
0
CIRCLE
8
Black
10
114.73
20
-92
40
0.99949
0
CIRCLE
8
Black
10
117.27
20
-92
40
0.99949
0
CIRCLE
8
Black
10
119.81
20
-92
40
0.99949
0
CIRCLE
8
Black
10
122.35
20
-92
40
0.99949
0
CIRCLE
8
Black
10
124.89
20
-92
40
0.99949
0
CIRCLE
8
Black
10
127.43
20
-92
40
0.99949
  0
ENDSEC
  0
EOF
