G04 (created by PCBNEW (2013-07-07 BZR 4022)-stable) date 2014-07-07 10:16:25 AM*
%MOIN*%
G04 Gerber Fmt 3.4, Leading zero omitted, Abs format*
%FSLAX34Y34*%
G01*
G70*
G90*
G04 APERTURE LIST*
%ADD10C,0.00590551*%
%ADD11C,0.00787402*%
%ADD12C,0.00984252*%
%ADD13C,0.006*%
%ADD14C,0.005*%
%ADD15C,0.015*%
%ADD16C,0.0026*%
%ADD17C,0.008*%
%ADD18C,0.01*%
%ADD19R,0.0118X0.0512*%
%ADD20R,0.0276X0.0394*%
%ADD21R,0.0236X0.0866*%
%ADD22R,0.045X0.032*%
G04 APERTURE END LIST*
G54D10*
G54D11*
X23248Y-47244D02*
G75*
G03X23248Y-47244I-807J0D01*
G74*
G01*
G54D12*
X21962Y-46834D02*
X22356Y-46834D01*
X22103Y-47621D01*
X22609Y-47621D02*
X22722Y-47621D01*
X22778Y-47584D01*
X22806Y-47546D01*
X22862Y-47434D01*
X22890Y-47284D01*
X22890Y-46984D01*
X22862Y-46909D01*
X22834Y-46871D01*
X22778Y-46834D01*
X22665Y-46834D01*
X22609Y-46871D01*
X22581Y-46909D01*
X22553Y-46984D01*
X22553Y-47171D01*
X22581Y-47246D01*
X22609Y-47284D01*
X22665Y-47321D01*
X22778Y-47321D01*
X22834Y-47284D01*
X22862Y-47246D01*
X22890Y-47171D01*
G54D13*
X31714Y-48078D02*
X31699Y-48108D01*
X31699Y-48154D01*
X31714Y-48200D01*
X31745Y-48230D01*
X31775Y-48246D01*
X31836Y-48261D01*
X31882Y-48261D01*
X31943Y-48246D01*
X31973Y-48230D01*
X32004Y-48200D01*
X32019Y-48154D01*
X32019Y-48124D01*
X32004Y-48078D01*
X31988Y-48063D01*
X31882Y-48063D01*
X31882Y-48124D01*
X32019Y-47926D02*
X31699Y-47926D01*
X32019Y-47743D01*
X31699Y-47743D01*
X32019Y-47590D02*
X31699Y-47590D01*
X31699Y-47514D01*
X31714Y-47468D01*
X31745Y-47438D01*
X31775Y-47423D01*
X31836Y-47407D01*
X31882Y-47407D01*
X31943Y-47423D01*
X31973Y-47438D01*
X32004Y-47468D01*
X32019Y-47514D01*
X32019Y-47590D01*
X28761Y-48078D02*
X28746Y-48108D01*
X28746Y-48154D01*
X28761Y-48200D01*
X28792Y-48230D01*
X28822Y-48246D01*
X28883Y-48261D01*
X28929Y-48261D01*
X28990Y-48246D01*
X29020Y-48230D01*
X29051Y-48200D01*
X29066Y-48154D01*
X29066Y-48124D01*
X29051Y-48078D01*
X29036Y-48063D01*
X28929Y-48063D01*
X28929Y-48124D01*
X29066Y-47926D02*
X28746Y-47926D01*
X29066Y-47743D01*
X28746Y-47743D01*
X29066Y-47590D02*
X28746Y-47590D01*
X28746Y-47514D01*
X28761Y-47468D01*
X28792Y-47438D01*
X28822Y-47423D01*
X28883Y-47407D01*
X28929Y-47407D01*
X28990Y-47423D01*
X29020Y-47438D01*
X29051Y-47468D01*
X29066Y-47514D01*
X29066Y-47590D01*
X30913Y-48201D02*
X30913Y-47957D01*
X31035Y-47637D02*
X31035Y-47820D01*
X31035Y-47729D02*
X30715Y-47729D01*
X30760Y-47759D01*
X30791Y-47790D01*
X30806Y-47820D01*
X30745Y-47515D02*
X30730Y-47500D01*
X30715Y-47470D01*
X30715Y-47393D01*
X30730Y-47363D01*
X30745Y-47348D01*
X30775Y-47333D01*
X30806Y-47333D01*
X30852Y-47348D01*
X31035Y-47531D01*
X31035Y-47333D01*
X30715Y-47241D02*
X31035Y-47134D01*
X30715Y-47028D01*
X32980Y-48201D02*
X32980Y-47957D01*
X33101Y-48079D02*
X32858Y-48079D01*
X33101Y-47637D02*
X33101Y-47820D01*
X33101Y-47729D02*
X32781Y-47729D01*
X32827Y-47759D01*
X32858Y-47790D01*
X32873Y-47820D01*
X32812Y-47515D02*
X32797Y-47500D01*
X32781Y-47470D01*
X32781Y-47393D01*
X32797Y-47363D01*
X32812Y-47348D01*
X32842Y-47333D01*
X32873Y-47333D01*
X32919Y-47348D01*
X33101Y-47531D01*
X33101Y-47333D01*
X32781Y-47241D02*
X33101Y-47134D01*
X32781Y-47028D01*
X33766Y-48110D02*
X33766Y-48049D01*
X33781Y-48018D01*
X33811Y-47988D01*
X33872Y-47973D01*
X33979Y-47973D01*
X34040Y-47988D01*
X34070Y-48018D01*
X34086Y-48049D01*
X34086Y-48110D01*
X34070Y-48140D01*
X34040Y-48171D01*
X33979Y-48186D01*
X33872Y-48186D01*
X33811Y-48171D01*
X33781Y-48140D01*
X33766Y-48110D01*
X33766Y-47835D02*
X34025Y-47835D01*
X34055Y-47820D01*
X34070Y-47805D01*
X34086Y-47774D01*
X34086Y-47713D01*
X34070Y-47683D01*
X34055Y-47668D01*
X34025Y-47653D01*
X33766Y-47653D01*
X33766Y-47546D02*
X33766Y-47363D01*
X34086Y-47454D02*
X33766Y-47454D01*
X34086Y-47089D02*
X34086Y-47272D01*
X34086Y-47180D02*
X33766Y-47180D01*
X33811Y-47211D01*
X33842Y-47241D01*
X33857Y-47272D01*
X34750Y-48110D02*
X34750Y-48049D01*
X34765Y-48018D01*
X34796Y-47988D01*
X34857Y-47973D01*
X34963Y-47973D01*
X35024Y-47988D01*
X35055Y-48018D01*
X35070Y-48049D01*
X35070Y-48110D01*
X35055Y-48140D01*
X35024Y-48171D01*
X34963Y-48186D01*
X34857Y-48186D01*
X34796Y-48171D01*
X34765Y-48140D01*
X34750Y-48110D01*
X34750Y-47835D02*
X35009Y-47835D01*
X35039Y-47820D01*
X35055Y-47805D01*
X35070Y-47774D01*
X35070Y-47713D01*
X35055Y-47683D01*
X35039Y-47668D01*
X35009Y-47653D01*
X34750Y-47653D01*
X34750Y-47546D02*
X34750Y-47363D01*
X35070Y-47454D02*
X34750Y-47454D01*
X34780Y-47272D02*
X34765Y-47256D01*
X34750Y-47226D01*
X34750Y-47150D01*
X34765Y-47119D01*
X34780Y-47104D01*
X34811Y-47089D01*
X34841Y-47089D01*
X34887Y-47104D01*
X35070Y-47287D01*
X35070Y-47089D01*
X30050Y-48154D02*
X29730Y-48154D01*
X30050Y-48002D02*
X29730Y-48002D01*
X30050Y-47819D01*
X29730Y-47819D01*
X30050Y-47499D02*
X30050Y-47682D01*
X30050Y-47590D02*
X29730Y-47590D01*
X29776Y-47621D01*
X29806Y-47651D01*
X29822Y-47682D01*
X28082Y-48154D02*
X27762Y-48154D01*
X28082Y-48002D02*
X27762Y-48002D01*
X28082Y-47819D01*
X27762Y-47819D01*
X27792Y-47682D02*
X27777Y-47667D01*
X27762Y-47636D01*
X27762Y-47560D01*
X27777Y-47529D01*
X27792Y-47514D01*
X27823Y-47499D01*
X27853Y-47499D01*
X27899Y-47514D01*
X28082Y-47697D01*
X28082Y-47499D01*
X26969Y-48065D02*
X26984Y-48080D01*
X26999Y-48126D01*
X26999Y-48156D01*
X26984Y-48202D01*
X26953Y-48232D01*
X26923Y-48247D01*
X26862Y-48263D01*
X26816Y-48263D01*
X26755Y-48247D01*
X26725Y-48232D01*
X26694Y-48202D01*
X26679Y-48156D01*
X26679Y-48126D01*
X26694Y-48080D01*
X26710Y-48065D01*
X26679Y-47973D02*
X26999Y-47866D01*
X26679Y-47760D01*
X26710Y-47668D02*
X26694Y-47653D01*
X26679Y-47623D01*
X26679Y-47546D01*
X26694Y-47516D01*
X26710Y-47501D01*
X26740Y-47486D01*
X26771Y-47486D01*
X26816Y-47501D01*
X26999Y-47684D01*
X26999Y-47486D01*
X26877Y-47348D02*
X26877Y-47105D01*
X26908Y-46967D02*
X26908Y-46815D01*
X26999Y-46998D02*
X26679Y-46891D01*
X26999Y-46785D01*
X25984Y-48087D02*
X26000Y-48103D01*
X26015Y-48148D01*
X26015Y-48179D01*
X26000Y-48225D01*
X25969Y-48255D01*
X25939Y-48270D01*
X25878Y-48286D01*
X25832Y-48286D01*
X25771Y-48270D01*
X25741Y-48255D01*
X25710Y-48225D01*
X25695Y-48179D01*
X25695Y-48148D01*
X25710Y-48103D01*
X25725Y-48087D01*
X25695Y-47996D02*
X26015Y-47889D01*
X25695Y-47783D01*
X25725Y-47691D02*
X25710Y-47676D01*
X25695Y-47646D01*
X25695Y-47569D01*
X25710Y-47539D01*
X25725Y-47524D01*
X25756Y-47508D01*
X25786Y-47508D01*
X25832Y-47524D01*
X26015Y-47706D01*
X26015Y-47508D01*
X25893Y-47371D02*
X25893Y-47127D01*
X25847Y-46868D02*
X25862Y-46823D01*
X25878Y-46807D01*
X25908Y-46792D01*
X25954Y-46792D01*
X25984Y-46807D01*
X26000Y-46823D01*
X26015Y-46853D01*
X26015Y-46975D01*
X25695Y-46975D01*
X25695Y-46868D01*
X25710Y-46838D01*
X25725Y-46823D01*
X25756Y-46807D01*
X25786Y-46807D01*
X25817Y-46823D01*
X25832Y-46838D01*
X25847Y-46868D01*
X25847Y-46975D01*
X25000Y-48065D02*
X25015Y-48080D01*
X25031Y-48126D01*
X25031Y-48156D01*
X25015Y-48202D01*
X24985Y-48232D01*
X24954Y-48247D01*
X24893Y-48263D01*
X24848Y-48263D01*
X24787Y-48247D01*
X24756Y-48232D01*
X24726Y-48202D01*
X24711Y-48156D01*
X24711Y-48126D01*
X24726Y-48080D01*
X24741Y-48065D01*
X24711Y-47973D02*
X25031Y-47866D01*
X24711Y-47760D01*
X25031Y-47486D02*
X25031Y-47668D01*
X25031Y-47577D02*
X24711Y-47577D01*
X24756Y-47607D01*
X24787Y-47638D01*
X24802Y-47668D01*
X24909Y-47348D02*
X24909Y-47105D01*
X24939Y-46967D02*
X24939Y-46815D01*
X25031Y-46998D02*
X24711Y-46891D01*
X25031Y-46785D01*
X24016Y-48087D02*
X24031Y-48103D01*
X24046Y-48148D01*
X24046Y-48179D01*
X24031Y-48225D01*
X24001Y-48255D01*
X23970Y-48270D01*
X23909Y-48286D01*
X23863Y-48286D01*
X23803Y-48270D01*
X23772Y-48255D01*
X23742Y-48225D01*
X23726Y-48179D01*
X23726Y-48148D01*
X23742Y-48103D01*
X23757Y-48087D01*
X23726Y-47996D02*
X24046Y-47889D01*
X23726Y-47783D01*
X24046Y-47508D02*
X24046Y-47691D01*
X24046Y-47600D02*
X23726Y-47600D01*
X23772Y-47630D01*
X23803Y-47661D01*
X23818Y-47691D01*
X23924Y-47371D02*
X23924Y-47127D01*
X23879Y-46868D02*
X23894Y-46823D01*
X23909Y-46807D01*
X23940Y-46792D01*
X23985Y-46792D01*
X24016Y-46807D01*
X24031Y-46823D01*
X24046Y-46853D01*
X24046Y-46975D01*
X23726Y-46975D01*
X23726Y-46868D01*
X23742Y-46838D01*
X23757Y-46823D01*
X23787Y-46807D01*
X23818Y-46807D01*
X23848Y-46823D01*
X23863Y-46838D01*
X23879Y-46868D01*
X23879Y-46975D01*
X26660Y-41148D02*
X26690Y-41148D01*
X26720Y-41163D01*
X26736Y-41178D01*
X26751Y-41209D01*
X26766Y-41270D01*
X26766Y-41346D01*
X26751Y-41407D01*
X26736Y-41437D01*
X26720Y-41452D01*
X26690Y-41468D01*
X26660Y-41468D01*
X26629Y-41452D01*
X26614Y-41437D01*
X26599Y-41407D01*
X26583Y-41346D01*
X26583Y-41270D01*
X26599Y-41209D01*
X26614Y-41178D01*
X26629Y-41163D01*
X26660Y-41148D01*
X26873Y-41148D02*
X27086Y-41148D01*
X26949Y-41468D01*
X27437Y-41178D02*
X27452Y-41163D01*
X27482Y-41148D01*
X27559Y-41148D01*
X27589Y-41163D01*
X27604Y-41178D01*
X27620Y-41209D01*
X27620Y-41239D01*
X27604Y-41285D01*
X27421Y-41468D01*
X27620Y-41468D01*
X27818Y-41148D02*
X27848Y-41148D01*
X27879Y-41163D01*
X27894Y-41178D01*
X27909Y-41209D01*
X27924Y-41270D01*
X27924Y-41346D01*
X27909Y-41407D01*
X27894Y-41437D01*
X27879Y-41452D01*
X27848Y-41468D01*
X27818Y-41468D01*
X27787Y-41452D01*
X27772Y-41437D01*
X27757Y-41407D01*
X27741Y-41346D01*
X27741Y-41270D01*
X27757Y-41209D01*
X27772Y-41178D01*
X27787Y-41163D01*
X27818Y-41148D01*
X28229Y-41468D02*
X28046Y-41468D01*
X28138Y-41468D02*
X28138Y-41148D01*
X28107Y-41193D01*
X28077Y-41224D01*
X28046Y-41239D01*
X28503Y-41254D02*
X28503Y-41468D01*
X28427Y-41132D02*
X28351Y-41361D01*
X28549Y-41361D01*
X25860Y-40877D02*
X25860Y-40557D01*
X25936Y-40557D01*
X25981Y-40572D01*
X26012Y-40603D01*
X26027Y-40633D01*
X26042Y-40694D01*
X26042Y-40740D01*
X26027Y-40801D01*
X26012Y-40831D01*
X25981Y-40862D01*
X25936Y-40877D01*
X25860Y-40877D01*
X26180Y-40557D02*
X26180Y-40816D01*
X26195Y-40847D01*
X26210Y-40862D01*
X26240Y-40877D01*
X26301Y-40877D01*
X26332Y-40862D01*
X26347Y-40847D01*
X26362Y-40816D01*
X26362Y-40557D01*
X26500Y-40786D02*
X26652Y-40786D01*
X26469Y-40877D02*
X26576Y-40557D01*
X26682Y-40877D01*
X26941Y-40877D02*
X26789Y-40877D01*
X26789Y-40557D01*
X27246Y-40557D02*
X27353Y-40877D01*
X27460Y-40557D01*
X27749Y-40847D02*
X27734Y-40862D01*
X27688Y-40877D01*
X27658Y-40877D01*
X27612Y-40862D01*
X27581Y-40831D01*
X27566Y-40801D01*
X27551Y-40740D01*
X27551Y-40694D01*
X27566Y-40633D01*
X27581Y-40603D01*
X27612Y-40572D01*
X27658Y-40557D01*
X27688Y-40557D01*
X27734Y-40572D01*
X27749Y-40588D01*
X27871Y-40786D02*
X28023Y-40786D01*
X27840Y-40877D02*
X27947Y-40557D01*
X28054Y-40877D01*
X28374Y-40664D02*
X28450Y-40877D01*
X28526Y-40664D01*
X28816Y-40877D02*
X28633Y-40877D01*
X28724Y-40877D02*
X28724Y-40557D01*
X28694Y-40603D01*
X28663Y-40633D01*
X28633Y-40648D01*
X28953Y-40847D02*
X28968Y-40862D01*
X28953Y-40877D01*
X28938Y-40862D01*
X28953Y-40847D01*
X28953Y-40877D01*
X29090Y-40588D02*
X29105Y-40572D01*
X29136Y-40557D01*
X29212Y-40557D01*
X29242Y-40572D01*
X29258Y-40588D01*
X29273Y-40618D01*
X29273Y-40648D01*
X29258Y-40694D01*
X29075Y-40877D01*
X29273Y-40877D01*
G54D11*
X34476Y-42559D02*
X35602Y-42559D01*
X35602Y-42559D02*
X35602Y-43976D01*
X35602Y-43976D02*
X34476Y-43976D01*
X34473Y-43967D02*
X34473Y-42567D01*
X34873Y-43717D02*
G75*
G03X34873Y-43717I-150J0D01*
G74*
G01*
G54D14*
X27059Y-44188D02*
X28084Y-44188D01*
X28084Y-44188D02*
X28084Y-44788D01*
X28084Y-44788D02*
X27059Y-44788D01*
X27059Y-44788D02*
X27059Y-44188D01*
X27059Y-42219D02*
X28084Y-42219D01*
X28084Y-42219D02*
X28084Y-42819D01*
X28084Y-42819D02*
X27059Y-42819D01*
X27059Y-42819D02*
X27059Y-42219D01*
G54D15*
X29071Y-43503D02*
G75*
G03X29071Y-43503I-55J0D01*
G74*
G01*
G54D16*
X28862Y-44527D02*
X29055Y-44527D01*
X29055Y-44527D02*
X29055Y-44094D01*
X28862Y-44094D02*
X29055Y-44094D01*
X28862Y-44527D02*
X28862Y-44094D01*
X29362Y-44527D02*
X29555Y-44527D01*
X29555Y-44527D02*
X29555Y-44094D01*
X29362Y-44094D02*
X29555Y-44094D01*
X29362Y-44527D02*
X29362Y-44094D01*
X29862Y-44527D02*
X30055Y-44527D01*
X30055Y-44527D02*
X30055Y-44094D01*
X29862Y-44094D02*
X30055Y-44094D01*
X29862Y-44527D02*
X29862Y-44094D01*
X30362Y-44527D02*
X30555Y-44527D01*
X30555Y-44527D02*
X30555Y-44094D01*
X30362Y-44094D02*
X30555Y-44094D01*
X30362Y-44527D02*
X30362Y-44094D01*
X31361Y-42520D02*
X31554Y-42520D01*
X31554Y-42520D02*
X31554Y-42087D01*
X31361Y-42087D02*
X31554Y-42087D01*
X31361Y-42520D02*
X31361Y-42087D01*
X30861Y-42520D02*
X31054Y-42520D01*
X31054Y-42520D02*
X31054Y-42087D01*
X30861Y-42087D02*
X31054Y-42087D01*
X30861Y-42520D02*
X30861Y-42087D01*
X30362Y-42520D02*
X30555Y-42520D01*
X30555Y-42520D02*
X30555Y-42087D01*
X30362Y-42087D02*
X30555Y-42087D01*
X30362Y-42520D02*
X30362Y-42087D01*
X29862Y-42520D02*
X30055Y-42520D01*
X30055Y-42520D02*
X30055Y-42087D01*
X29862Y-42087D02*
X30055Y-42087D01*
X29862Y-42520D02*
X29862Y-42087D01*
X30861Y-44527D02*
X31054Y-44527D01*
X31054Y-44527D02*
X31054Y-44094D01*
X30861Y-44094D02*
X31054Y-44094D01*
X30861Y-44527D02*
X30861Y-44094D01*
X31361Y-44527D02*
X31554Y-44527D01*
X31554Y-44527D02*
X31554Y-44094D01*
X31361Y-44094D02*
X31554Y-44094D01*
X31361Y-44527D02*
X31361Y-44094D01*
X31861Y-44527D02*
X32054Y-44527D01*
X32054Y-44527D02*
X32054Y-44094D01*
X31861Y-44094D02*
X32054Y-44094D01*
X31861Y-44527D02*
X31861Y-44094D01*
X32361Y-44527D02*
X32554Y-44527D01*
X32554Y-44527D02*
X32554Y-44094D01*
X32361Y-44094D02*
X32554Y-44094D01*
X32361Y-44527D02*
X32361Y-44094D01*
X32361Y-42520D02*
X32554Y-42520D01*
X32554Y-42520D02*
X32554Y-42087D01*
X32361Y-42087D02*
X32554Y-42087D01*
X32361Y-42520D02*
X32361Y-42087D01*
X31861Y-42520D02*
X32054Y-42520D01*
X32054Y-42520D02*
X32054Y-42087D01*
X31861Y-42087D02*
X32054Y-42087D01*
X31861Y-42520D02*
X31861Y-42087D01*
X29362Y-42520D02*
X29555Y-42520D01*
X29555Y-42520D02*
X29555Y-42087D01*
X29362Y-42087D02*
X29555Y-42087D01*
X29362Y-42520D02*
X29362Y-42087D01*
X28862Y-42520D02*
X29055Y-42520D01*
X29055Y-42520D02*
X29055Y-42087D01*
X28862Y-42087D02*
X29055Y-42087D01*
X28862Y-42520D02*
X28862Y-42087D01*
G54D17*
X32652Y-44055D02*
X28764Y-44055D01*
X28764Y-44055D02*
X28764Y-43858D01*
X28764Y-43858D02*
X28764Y-42559D01*
X28764Y-42559D02*
X32652Y-42559D01*
X32652Y-43759D02*
X28764Y-43759D01*
X32652Y-42559D02*
X32652Y-43858D01*
X32652Y-43858D02*
X32652Y-44055D01*
G54D18*
X33110Y-42755D02*
X33110Y-43858D01*
X33110Y-43858D02*
X33818Y-43858D01*
X33818Y-43858D02*
X33818Y-42755D01*
X33818Y-42755D02*
X33110Y-42755D01*
X32244Y-46417D02*
X32244Y-45314D01*
X32244Y-45314D02*
X31535Y-45314D01*
X31535Y-45314D02*
X31535Y-46417D01*
X31535Y-46417D02*
X32244Y-46417D01*
X33897Y-45314D02*
X33897Y-46417D01*
X33897Y-46417D02*
X34606Y-46417D01*
X34606Y-46417D02*
X34606Y-45314D01*
X34606Y-45314D02*
X33897Y-45314D01*
X32716Y-45314D02*
X32716Y-46417D01*
X32716Y-46417D02*
X33425Y-46417D01*
X33425Y-46417D02*
X33425Y-45314D01*
X33425Y-45314D02*
X32716Y-45314D01*
X30354Y-45314D02*
X30354Y-46417D01*
X30354Y-46417D02*
X31062Y-46417D01*
X31062Y-46417D02*
X31062Y-45314D01*
X31062Y-45314D02*
X30354Y-45314D01*
X23188Y-43858D02*
X23188Y-42755D01*
X23188Y-42755D02*
X22480Y-42755D01*
X22480Y-42755D02*
X22480Y-43858D01*
X22480Y-43858D02*
X23188Y-43858D01*
G54D17*
X23459Y-42607D02*
X25359Y-42607D01*
X25359Y-42607D02*
X25359Y-44007D01*
X25359Y-44007D02*
X23459Y-44007D01*
X23459Y-44007D02*
X23459Y-42607D01*
X23859Y-43757D02*
G75*
G03X23859Y-43757I-149J0D01*
G74*
G01*
G54D13*
X34109Y-43489D02*
X34303Y-43489D01*
X34326Y-43478D01*
X34337Y-43467D01*
X34349Y-43444D01*
X34349Y-43398D01*
X34337Y-43375D01*
X34326Y-43364D01*
X34303Y-43352D01*
X34109Y-43352D01*
X34109Y-43261D02*
X34109Y-43112D01*
X34200Y-43192D01*
X34200Y-43158D01*
X34211Y-43135D01*
X34223Y-43124D01*
X34246Y-43112D01*
X34303Y-43112D01*
X34326Y-43124D01*
X34337Y-43135D01*
X34349Y-43158D01*
X34349Y-43227D01*
X34337Y-43249D01*
X34326Y-43261D01*
X26892Y-44550D02*
X26880Y-44572D01*
X26857Y-44595D01*
X26823Y-44630D01*
X26812Y-44652D01*
X26812Y-44675D01*
X26869Y-44664D02*
X26857Y-44687D01*
X26834Y-44710D01*
X26789Y-44721D01*
X26709Y-44721D01*
X26663Y-44710D01*
X26640Y-44687D01*
X26629Y-44664D01*
X26629Y-44618D01*
X26640Y-44595D01*
X26663Y-44572D01*
X26709Y-44561D01*
X26789Y-44561D01*
X26834Y-44572D01*
X26857Y-44595D01*
X26869Y-44618D01*
X26869Y-44664D01*
X26652Y-44470D02*
X26640Y-44458D01*
X26629Y-44435D01*
X26629Y-44378D01*
X26640Y-44355D01*
X26652Y-44344D01*
X26674Y-44332D01*
X26697Y-44332D01*
X26732Y-44344D01*
X26869Y-44481D01*
X26869Y-44332D01*
X26892Y-42581D02*
X26880Y-42604D01*
X26857Y-42627D01*
X26823Y-42661D01*
X26812Y-42684D01*
X26812Y-42707D01*
X26869Y-42695D02*
X26857Y-42718D01*
X26834Y-42741D01*
X26789Y-42752D01*
X26709Y-42752D01*
X26663Y-42741D01*
X26640Y-42718D01*
X26629Y-42695D01*
X26629Y-42650D01*
X26640Y-42627D01*
X26663Y-42604D01*
X26709Y-42592D01*
X26789Y-42592D01*
X26834Y-42604D01*
X26857Y-42627D01*
X26869Y-42650D01*
X26869Y-42695D01*
X26869Y-42364D02*
X26869Y-42501D01*
X26869Y-42432D02*
X26629Y-42432D01*
X26663Y-42455D01*
X26686Y-42478D01*
X26697Y-42501D01*
X28400Y-43489D02*
X28594Y-43489D01*
X28617Y-43478D01*
X28629Y-43467D01*
X28640Y-43444D01*
X28640Y-43398D01*
X28629Y-43375D01*
X28617Y-43364D01*
X28594Y-43352D01*
X28400Y-43352D01*
X28423Y-43249D02*
X28411Y-43238D01*
X28400Y-43215D01*
X28400Y-43158D01*
X28411Y-43135D01*
X28423Y-43124D01*
X28446Y-43112D01*
X28469Y-43112D01*
X28503Y-43124D01*
X28640Y-43261D01*
X28640Y-43112D01*
X33424Y-42593D02*
X33413Y-42605D01*
X33378Y-42616D01*
X33355Y-42616D01*
X33321Y-42605D01*
X33298Y-42582D01*
X33287Y-42559D01*
X33275Y-42513D01*
X33275Y-42479D01*
X33287Y-42433D01*
X33298Y-42411D01*
X33321Y-42388D01*
X33355Y-42376D01*
X33378Y-42376D01*
X33413Y-42388D01*
X33424Y-42399D01*
X33641Y-42376D02*
X33527Y-42376D01*
X33515Y-42491D01*
X33527Y-42479D01*
X33550Y-42468D01*
X33607Y-42468D01*
X33630Y-42479D01*
X33641Y-42491D01*
X33653Y-42513D01*
X33653Y-42571D01*
X33641Y-42593D01*
X33630Y-42605D01*
X33607Y-42616D01*
X33550Y-42616D01*
X33527Y-42605D01*
X33515Y-42593D01*
X31735Y-46727D02*
X31724Y-46739D01*
X31689Y-46750D01*
X31666Y-46750D01*
X31632Y-46739D01*
X31609Y-46716D01*
X31598Y-46693D01*
X31586Y-46647D01*
X31586Y-46613D01*
X31598Y-46567D01*
X31609Y-46544D01*
X31632Y-46522D01*
X31666Y-46510D01*
X31689Y-46510D01*
X31724Y-46522D01*
X31735Y-46533D01*
X31964Y-46750D02*
X31826Y-46750D01*
X31895Y-46750D02*
X31895Y-46510D01*
X31872Y-46544D01*
X31849Y-46567D01*
X31826Y-46579D01*
X32112Y-46510D02*
X32135Y-46510D01*
X32158Y-46522D01*
X32169Y-46533D01*
X32181Y-46556D01*
X32192Y-46602D01*
X32192Y-46659D01*
X32181Y-46704D01*
X32169Y-46727D01*
X32158Y-46739D01*
X32135Y-46750D01*
X32112Y-46750D01*
X32089Y-46739D01*
X32078Y-46727D01*
X32066Y-46704D01*
X32055Y-46659D01*
X32055Y-46602D01*
X32066Y-46556D01*
X32078Y-46533D01*
X32089Y-46522D01*
X32112Y-46510D01*
X34097Y-46727D02*
X34086Y-46739D01*
X34051Y-46750D01*
X34029Y-46750D01*
X33994Y-46739D01*
X33971Y-46716D01*
X33960Y-46693D01*
X33949Y-46647D01*
X33949Y-46613D01*
X33960Y-46567D01*
X33971Y-46544D01*
X33994Y-46522D01*
X34029Y-46510D01*
X34051Y-46510D01*
X34086Y-46522D01*
X34097Y-46533D01*
X34326Y-46750D02*
X34189Y-46750D01*
X34257Y-46750D02*
X34257Y-46510D01*
X34234Y-46544D01*
X34211Y-46567D01*
X34189Y-46579D01*
X34554Y-46750D02*
X34417Y-46750D01*
X34486Y-46750D02*
X34486Y-46510D01*
X34463Y-46544D01*
X34440Y-46567D01*
X34417Y-46579D01*
X32916Y-46750D02*
X32836Y-46636D01*
X32779Y-46750D02*
X32779Y-46510D01*
X32870Y-46510D01*
X32893Y-46522D01*
X32905Y-46533D01*
X32916Y-46556D01*
X32916Y-46590D01*
X32905Y-46613D01*
X32893Y-46624D01*
X32870Y-46636D01*
X32779Y-46636D01*
X32996Y-46510D02*
X33145Y-46510D01*
X33065Y-46602D01*
X33099Y-46602D01*
X33122Y-46613D01*
X33133Y-46624D01*
X33145Y-46647D01*
X33145Y-46704D01*
X33133Y-46727D01*
X33122Y-46739D01*
X33099Y-46750D01*
X33030Y-46750D01*
X33008Y-46739D01*
X32996Y-46727D01*
X33225Y-46510D02*
X33373Y-46510D01*
X33293Y-46602D01*
X33328Y-46602D01*
X33350Y-46613D01*
X33362Y-46624D01*
X33373Y-46647D01*
X33373Y-46704D01*
X33362Y-46727D01*
X33350Y-46739D01*
X33328Y-46750D01*
X33259Y-46750D01*
X33236Y-46739D01*
X33225Y-46727D01*
X30554Y-46750D02*
X30474Y-46636D01*
X30417Y-46750D02*
X30417Y-46510D01*
X30508Y-46510D01*
X30531Y-46522D01*
X30542Y-46533D01*
X30554Y-46556D01*
X30554Y-46590D01*
X30542Y-46613D01*
X30531Y-46624D01*
X30508Y-46636D01*
X30417Y-46636D01*
X30634Y-46510D02*
X30782Y-46510D01*
X30702Y-46602D01*
X30737Y-46602D01*
X30760Y-46613D01*
X30771Y-46624D01*
X30782Y-46647D01*
X30782Y-46704D01*
X30771Y-46727D01*
X30760Y-46739D01*
X30737Y-46750D01*
X30668Y-46750D01*
X30645Y-46739D01*
X30634Y-46727D01*
X30988Y-46590D02*
X30988Y-46750D01*
X30931Y-46499D02*
X30874Y-46670D01*
X31022Y-46670D01*
X22794Y-42593D02*
X22783Y-42605D01*
X22748Y-42616D01*
X22726Y-42616D01*
X22691Y-42605D01*
X22668Y-42582D01*
X22657Y-42559D01*
X22646Y-42513D01*
X22646Y-42479D01*
X22657Y-42433D01*
X22668Y-42411D01*
X22691Y-42388D01*
X22726Y-42376D01*
X22748Y-42376D01*
X22783Y-42388D01*
X22794Y-42399D01*
X22931Y-42479D02*
X22908Y-42468D01*
X22897Y-42456D01*
X22886Y-42433D01*
X22886Y-42422D01*
X22897Y-42399D01*
X22908Y-42388D01*
X22931Y-42376D01*
X22977Y-42376D01*
X23000Y-42388D01*
X23011Y-42399D01*
X23023Y-42422D01*
X23023Y-42433D01*
X23011Y-42456D01*
X23000Y-42468D01*
X22977Y-42479D01*
X22931Y-42479D01*
X22908Y-42491D01*
X22897Y-42502D01*
X22886Y-42525D01*
X22886Y-42571D01*
X22897Y-42593D01*
X22908Y-42605D01*
X22931Y-42616D01*
X22977Y-42616D01*
X23000Y-42605D01*
X23011Y-42593D01*
X23023Y-42571D01*
X23023Y-42525D01*
X23011Y-42502D01*
X23000Y-42491D01*
X22977Y-42479D01*
X25447Y-43489D02*
X25641Y-43489D01*
X25664Y-43478D01*
X25676Y-43467D01*
X25687Y-43444D01*
X25687Y-43398D01*
X25676Y-43375D01*
X25664Y-43364D01*
X25641Y-43352D01*
X25447Y-43352D01*
X25687Y-43112D02*
X25687Y-43249D01*
X25687Y-43181D02*
X25447Y-43181D01*
X25481Y-43204D01*
X25504Y-43227D01*
X25516Y-43249D01*
%LPC*%
G54D19*
X34663Y-44367D03*
X34913Y-44367D03*
X35173Y-44367D03*
X35423Y-44367D03*
X35423Y-42167D03*
X35168Y-42167D03*
X34913Y-42167D03*
X34658Y-42167D03*
G54D20*
X27559Y-44988D03*
X27184Y-43988D03*
X27934Y-43988D03*
X27559Y-43019D03*
X27184Y-42019D03*
X27934Y-42019D03*
G54D21*
X28958Y-44330D03*
X29458Y-44330D03*
X29958Y-44330D03*
X30458Y-44330D03*
X30958Y-44330D03*
X31458Y-44330D03*
X31958Y-44330D03*
X32458Y-44330D03*
X32458Y-42284D03*
X31958Y-42284D03*
X31458Y-42284D03*
X30958Y-42284D03*
X30458Y-42284D03*
X29958Y-42284D03*
X29458Y-42284D03*
X28958Y-42284D03*
G54D22*
X33464Y-42972D03*
X33464Y-43642D03*
X31889Y-46201D03*
X31889Y-45531D03*
X34251Y-45531D03*
X34251Y-46201D03*
X33070Y-45531D03*
X33070Y-46201D03*
X30708Y-45531D03*
X30708Y-46201D03*
X22834Y-43642D03*
X22834Y-42972D03*
G54D19*
X23649Y-44407D03*
X23899Y-44407D03*
X24159Y-44407D03*
X24409Y-44407D03*
X24669Y-44407D03*
X24924Y-44407D03*
X25179Y-44407D03*
X25179Y-42207D03*
X24924Y-42207D03*
X24669Y-42207D03*
X24409Y-42207D03*
X24154Y-42207D03*
X23899Y-42207D03*
X23644Y-42207D03*
M02*
