G04 (created by PCBNEW (2013-07-07 BZR 4022)-stable) date 2014-05-25 11:12:15 PM*
%MOIN*%
G04 Gerber Fmt 3.4, Leading zero omitted, Abs format*
%FSLAX34Y34*%
G01*
G70*
G90*
G04 APERTURE LIST*
%ADD10C,0.00590551*%
%ADD11R,0.045X0.055*%
%ADD12O,0.137795X0.19685*%
%ADD13O,0.0787402X0.137795*%
%ADD14O,0.137795X0.137795*%
%ADD15R,0.0787X0.0787*%
%ADD16C,0.0787*%
%ADD17O,0.0984252X0.137795*%
%ADD18C,0.0688976*%
%ADD19R,0.0551181X0.0551181*%
%ADD20C,0.0551181*%
%ADD21C,0.014*%
%ADD22C,0.012*%
%ADD23C,0.01*%
G04 APERTURE END LIST*
G54D10*
G54D11*
X94716Y-48228D03*
X93866Y-48228D03*
X85661Y-48228D03*
X84811Y-48228D03*
G54D12*
X90275Y-73425D03*
G54D13*
X93976Y-73425D03*
G54D14*
X92125Y-71496D03*
X92125Y-74724D03*
G54D12*
X82007Y-73425D03*
G54D13*
X85708Y-73425D03*
G54D14*
X83858Y-71496D03*
X83858Y-74724D03*
G54D12*
X90275Y-79330D03*
G54D13*
X93976Y-79330D03*
G54D14*
X92125Y-77401D03*
X92125Y-80629D03*
G54D12*
X82007Y-79330D03*
G54D13*
X85708Y-79330D03*
G54D14*
X83858Y-77401D03*
X83858Y-80629D03*
G54D12*
X82007Y-67519D03*
G54D13*
X85708Y-67519D03*
G54D14*
X83858Y-65590D03*
X83858Y-68818D03*
G54D12*
X90275Y-67519D03*
G54D13*
X93976Y-67519D03*
G54D14*
X92125Y-65590D03*
X92125Y-68818D03*
G54D15*
X88188Y-70066D03*
G54D16*
X88188Y-69066D03*
X88188Y-68066D03*
X88188Y-67066D03*
X88188Y-66066D03*
X88188Y-65066D03*
X88188Y-64066D03*
X88188Y-63066D03*
X88188Y-62066D03*
X88188Y-61066D03*
X88188Y-60066D03*
X88188Y-59066D03*
X88492Y-48440D03*
X88492Y-47440D03*
X88492Y-49440D03*
X88492Y-46440D03*
G54D15*
X88492Y-45440D03*
G54D16*
X87492Y-45440D03*
X87492Y-46440D03*
X87492Y-47440D03*
X87492Y-48440D03*
X87492Y-49440D03*
G54D17*
X94015Y-59842D03*
X90236Y-59842D03*
G54D18*
X93110Y-62795D03*
X92125Y-62795D03*
X91141Y-62795D03*
G54D17*
X85748Y-44094D03*
X81968Y-44094D03*
G54D18*
X84842Y-47047D03*
X83858Y-47047D03*
X82874Y-47047D03*
G54D17*
X85748Y-51968D03*
X81968Y-51968D03*
G54D18*
X84842Y-54921D03*
X83858Y-54921D03*
X82874Y-54921D03*
G54D17*
X85748Y-59842D03*
X81968Y-59842D03*
G54D18*
X84842Y-62795D03*
X83858Y-62795D03*
X82874Y-62795D03*
G54D17*
X94015Y-51968D03*
X90236Y-51968D03*
G54D18*
X93110Y-54921D03*
X92125Y-54921D03*
X91141Y-54921D03*
G54D17*
X94015Y-44094D03*
X90236Y-44094D03*
G54D18*
X93110Y-47047D03*
X92125Y-47047D03*
X91141Y-47047D03*
G54D19*
X88385Y-43503D03*
G54D20*
X87598Y-43503D03*
G54D19*
X88385Y-51574D03*
G54D20*
X87598Y-51574D03*
G54D21*
X94716Y-48228D02*
X94716Y-47763D01*
X93457Y-46504D02*
X89828Y-46504D01*
X94716Y-47763D02*
X93457Y-46504D01*
X89828Y-45412D02*
X89828Y-46504D01*
X88385Y-43969D02*
X89828Y-45412D01*
X89828Y-48104D02*
X88492Y-49440D01*
X89828Y-46504D02*
X89828Y-48104D01*
X88385Y-43503D02*
X88385Y-43969D01*
X87288Y-49440D02*
X86076Y-48228D01*
X87492Y-49440D02*
X87288Y-49440D01*
X85661Y-48228D02*
X86076Y-48228D01*
X87598Y-65476D02*
X87598Y-51574D01*
X88188Y-66066D02*
X87598Y-65476D01*
X83858Y-47047D02*
X83858Y-48641D01*
X83858Y-48641D02*
X86138Y-50921D01*
X88851Y-58404D02*
X88188Y-59066D01*
X86138Y-50921D02*
X88573Y-50921D01*
X88573Y-50921D02*
X88851Y-51199D01*
X88851Y-51199D02*
X88851Y-58404D01*
X89427Y-56635D02*
X91141Y-54921D01*
X89427Y-60828D02*
X89427Y-56635D01*
X88188Y-62066D02*
X89427Y-60828D01*
X89167Y-60088D02*
X88188Y-61066D01*
X89167Y-50005D02*
X89167Y-60088D01*
X92125Y-47047D02*
X89167Y-50005D01*
X91807Y-70616D02*
X92125Y-70616D01*
X89387Y-68196D02*
X91807Y-70616D01*
X89387Y-64265D02*
X89387Y-68196D01*
X88188Y-63066D02*
X89387Y-64265D01*
X92125Y-71496D02*
X92125Y-70616D01*
G54D22*
X84811Y-47078D02*
X84811Y-48228D01*
X84842Y-47047D02*
X84811Y-47078D01*
X93866Y-47803D02*
X93110Y-47047D01*
X93866Y-48228D02*
X93866Y-47803D01*
G54D10*
G36*
X88611Y-58304D02*
X88380Y-58536D01*
X88301Y-58503D01*
X88077Y-58503D01*
X87870Y-58588D01*
X87838Y-58620D01*
X87838Y-51957D01*
X87850Y-51952D01*
X87872Y-51930D01*
X87898Y-51992D01*
X87968Y-52062D01*
X88060Y-52100D01*
X88273Y-52100D01*
X88335Y-52037D01*
X88335Y-51624D01*
X88327Y-51624D01*
X88327Y-51524D01*
X88335Y-51524D01*
X88335Y-51516D01*
X88435Y-51516D01*
X88435Y-51524D01*
X88443Y-51524D01*
X88443Y-51624D01*
X88435Y-51624D01*
X88435Y-52037D01*
X88498Y-52100D01*
X88611Y-52100D01*
X88611Y-58304D01*
X88611Y-58304D01*
G37*
G54D23*
X88611Y-58304D02*
X88380Y-58536D01*
X88301Y-58503D01*
X88077Y-58503D01*
X87870Y-58588D01*
X87838Y-58620D01*
X87838Y-51957D01*
X87850Y-51952D01*
X87872Y-51930D01*
X87898Y-51992D01*
X87968Y-52062D01*
X88060Y-52100D01*
X88273Y-52100D01*
X88335Y-52037D01*
X88335Y-51624D01*
X88327Y-51624D01*
X88327Y-51524D01*
X88335Y-51524D01*
X88335Y-51516D01*
X88435Y-51516D01*
X88435Y-51524D01*
X88443Y-51524D01*
X88443Y-51624D01*
X88435Y-51624D01*
X88435Y-52037D01*
X88498Y-52100D01*
X88611Y-52100D01*
X88611Y-58304D01*
G54D10*
G36*
X95499Y-81326D02*
X95111Y-81326D01*
X95111Y-48469D01*
X95111Y-47919D01*
X95085Y-47857D01*
X95037Y-47809D01*
X94975Y-47783D01*
X94956Y-47783D01*
X94956Y-47763D01*
X94938Y-47671D01*
X94886Y-47593D01*
X94886Y-47593D01*
X94677Y-47385D01*
X94677Y-44308D01*
X94677Y-43880D01*
X94627Y-43627D01*
X94483Y-43412D01*
X94269Y-43269D01*
X94015Y-43218D01*
X93762Y-43269D01*
X93547Y-43412D01*
X93404Y-43627D01*
X93353Y-43880D01*
X93353Y-44308D01*
X93404Y-44561D01*
X93547Y-44776D01*
X93762Y-44919D01*
X94015Y-44970D01*
X94269Y-44919D01*
X94483Y-44776D01*
X94627Y-44561D01*
X94677Y-44308D01*
X94677Y-47385D01*
X93627Y-46334D01*
X93549Y-46282D01*
X93457Y-46264D01*
X90898Y-46264D01*
X90898Y-44308D01*
X90898Y-43880D01*
X90847Y-43627D01*
X90704Y-43412D01*
X90489Y-43269D01*
X90236Y-43218D01*
X89982Y-43269D01*
X89768Y-43412D01*
X89624Y-43627D01*
X89574Y-43880D01*
X89574Y-44308D01*
X89624Y-44561D01*
X89768Y-44776D01*
X89982Y-44919D01*
X90236Y-44970D01*
X90489Y-44919D01*
X90704Y-44776D01*
X90847Y-44561D01*
X90898Y-44308D01*
X90898Y-46264D01*
X90068Y-46264D01*
X90068Y-45412D01*
X90050Y-45320D01*
X89998Y-45242D01*
X88702Y-43946D01*
X88757Y-43923D01*
X88805Y-43875D01*
X88831Y-43813D01*
X88831Y-43745D01*
X88831Y-43194D01*
X88805Y-43132D01*
X88757Y-43084D01*
X88695Y-43058D01*
X88627Y-43058D01*
X88076Y-43058D01*
X88014Y-43084D01*
X87974Y-43123D01*
X87941Y-43090D01*
X87895Y-43135D01*
X87871Y-43042D01*
X87674Y-42973D01*
X87465Y-42984D01*
X87325Y-43042D01*
X87300Y-43135D01*
X87598Y-43433D01*
X87603Y-43427D01*
X87674Y-43498D01*
X87669Y-43503D01*
X87674Y-43509D01*
X87603Y-43580D01*
X87598Y-43574D01*
X87527Y-43645D01*
X87527Y-43503D01*
X87230Y-43206D01*
X87137Y-43230D01*
X87067Y-43428D01*
X87079Y-43636D01*
X87137Y-43777D01*
X87230Y-43801D01*
X87527Y-43503D01*
X87527Y-43645D01*
X87300Y-43872D01*
X87325Y-43964D01*
X87522Y-44034D01*
X87731Y-44023D01*
X87871Y-43964D01*
X87895Y-43872D01*
X87895Y-43872D01*
X87941Y-43917D01*
X87974Y-43884D01*
X88013Y-43923D01*
X88076Y-43949D01*
X88143Y-43949D01*
X88145Y-43949D01*
X88145Y-43969D01*
X88164Y-44061D01*
X88216Y-44139D01*
X88978Y-44902D01*
X88919Y-44877D01*
X88851Y-44877D01*
X88064Y-44877D01*
X88002Y-44903D01*
X87954Y-44951D01*
X87928Y-45013D01*
X87928Y-45080D01*
X87895Y-45047D01*
X87811Y-44963D01*
X87604Y-44877D01*
X87380Y-44877D01*
X87173Y-44962D01*
X87014Y-45121D01*
X86928Y-45328D01*
X86928Y-45552D01*
X87014Y-45759D01*
X87144Y-45890D01*
X87109Y-45987D01*
X87492Y-46370D01*
X87875Y-45987D01*
X87839Y-45890D01*
X87928Y-45801D01*
X87928Y-45868D01*
X87954Y-45930D01*
X88002Y-45978D01*
X88020Y-45986D01*
X87993Y-46013D01*
X88038Y-46058D01*
X87992Y-46075D01*
X87945Y-46058D01*
X87562Y-46440D01*
X87945Y-46823D01*
X87992Y-46806D01*
X88038Y-46823D01*
X88421Y-46440D01*
X88415Y-46435D01*
X88486Y-46364D01*
X88492Y-46370D01*
X88497Y-46364D01*
X88568Y-46435D01*
X88562Y-46440D01*
X88945Y-46823D01*
X89050Y-46785D01*
X89139Y-46545D01*
X89130Y-46289D01*
X89050Y-46096D01*
X88945Y-46058D01*
X88990Y-46013D01*
X88963Y-45986D01*
X88981Y-45978D01*
X89029Y-45930D01*
X89055Y-45868D01*
X89055Y-45800D01*
X89055Y-45013D01*
X89031Y-44954D01*
X89588Y-45511D01*
X89588Y-46504D01*
X89588Y-48004D01*
X89139Y-48453D01*
X89139Y-47545D01*
X89130Y-47289D01*
X89050Y-47096D01*
X88945Y-47058D01*
X88875Y-47128D01*
X88875Y-46987D01*
X88857Y-46940D01*
X88875Y-46894D01*
X88492Y-46511D01*
X88421Y-46582D01*
X88109Y-46894D01*
X88126Y-46940D01*
X88109Y-46987D01*
X88492Y-47370D01*
X88875Y-46987D01*
X88875Y-47128D01*
X88562Y-47440D01*
X88945Y-47823D01*
X89050Y-47785D01*
X89139Y-47545D01*
X89139Y-48453D01*
X89136Y-48456D01*
X89130Y-48289D01*
X89050Y-48096D01*
X88945Y-48058D01*
X88875Y-48128D01*
X88875Y-47987D01*
X88857Y-47940D01*
X88875Y-47894D01*
X88492Y-47511D01*
X88421Y-47582D01*
X88421Y-47440D01*
X88038Y-47058D01*
X87992Y-47075D01*
X87945Y-47058D01*
X87875Y-47128D01*
X87875Y-46987D01*
X87857Y-46940D01*
X87875Y-46894D01*
X87492Y-46511D01*
X87421Y-46582D01*
X87421Y-46440D01*
X87038Y-46058D01*
X86933Y-46096D01*
X86844Y-46336D01*
X86853Y-46592D01*
X86933Y-46785D01*
X87038Y-46823D01*
X87421Y-46440D01*
X87421Y-46582D01*
X87109Y-46894D01*
X87126Y-46940D01*
X87109Y-46987D01*
X87492Y-47370D01*
X87875Y-46987D01*
X87875Y-47128D01*
X87562Y-47440D01*
X87945Y-47823D01*
X87992Y-47806D01*
X88038Y-47823D01*
X88421Y-47440D01*
X88421Y-47582D01*
X88109Y-47894D01*
X88126Y-47940D01*
X88109Y-47987D01*
X88492Y-48370D01*
X88875Y-47987D01*
X88875Y-48128D01*
X88562Y-48440D01*
X88568Y-48446D01*
X88497Y-48517D01*
X88492Y-48511D01*
X88421Y-48582D01*
X88421Y-48440D01*
X88038Y-48058D01*
X87992Y-48075D01*
X87945Y-48058D01*
X87875Y-48128D01*
X87875Y-47987D01*
X87857Y-47940D01*
X87875Y-47894D01*
X87492Y-47511D01*
X87421Y-47582D01*
X87421Y-47440D01*
X87038Y-47058D01*
X86933Y-47096D01*
X86844Y-47336D01*
X86853Y-47592D01*
X86933Y-47785D01*
X87038Y-47823D01*
X87421Y-47440D01*
X87421Y-47582D01*
X87109Y-47894D01*
X87126Y-47940D01*
X87109Y-47987D01*
X87492Y-48370D01*
X87875Y-47987D01*
X87875Y-48128D01*
X87562Y-48440D01*
X87945Y-48823D01*
X87992Y-48806D01*
X88038Y-48823D01*
X88421Y-48440D01*
X88421Y-48582D01*
X88109Y-48894D01*
X88144Y-48991D01*
X88014Y-49121D01*
X87992Y-49175D01*
X87970Y-49122D01*
X87839Y-48991D01*
X87875Y-48894D01*
X87492Y-48511D01*
X87486Y-48517D01*
X87415Y-48446D01*
X87421Y-48440D01*
X87038Y-48058D01*
X86933Y-48096D01*
X86844Y-48336D01*
X86853Y-48592D01*
X86905Y-48718D01*
X86410Y-48222D01*
X86410Y-44308D01*
X86410Y-43880D01*
X86359Y-43627D01*
X86216Y-43412D01*
X86001Y-43269D01*
X85748Y-43218D01*
X85494Y-43269D01*
X85279Y-43412D01*
X85136Y-43627D01*
X85085Y-43880D01*
X85085Y-44308D01*
X85136Y-44561D01*
X85279Y-44776D01*
X85494Y-44919D01*
X85748Y-44970D01*
X86001Y-44919D01*
X86216Y-44776D01*
X86359Y-44561D01*
X86410Y-44308D01*
X86410Y-48222D01*
X86246Y-48058D01*
X86168Y-48006D01*
X86076Y-47988D01*
X86056Y-47988D01*
X86056Y-47919D01*
X86030Y-47857D01*
X85982Y-47809D01*
X85920Y-47783D01*
X85852Y-47783D01*
X85402Y-47783D01*
X85340Y-47809D01*
X85292Y-47856D01*
X85266Y-47919D01*
X85266Y-47987D01*
X85266Y-48537D01*
X85292Y-48599D01*
X85339Y-48647D01*
X85402Y-48673D01*
X85469Y-48673D01*
X85919Y-48673D01*
X85982Y-48647D01*
X86030Y-48599D01*
X86053Y-48544D01*
X86928Y-49420D01*
X86928Y-49552D01*
X87014Y-49759D01*
X87172Y-49918D01*
X87379Y-50004D01*
X87603Y-50004D01*
X87810Y-49918D01*
X87969Y-49760D01*
X87992Y-49706D01*
X88014Y-49759D01*
X88172Y-49918D01*
X88379Y-50004D01*
X88603Y-50004D01*
X88810Y-49918D01*
X88969Y-49760D01*
X89055Y-49553D01*
X89055Y-49329D01*
X89022Y-49249D01*
X89998Y-48274D01*
X89998Y-48274D01*
X90050Y-48196D01*
X90068Y-48104D01*
X90068Y-48104D01*
X90068Y-46744D01*
X90619Y-46744D01*
X90542Y-46954D01*
X90552Y-47191D01*
X90623Y-47361D01*
X90723Y-47394D01*
X91071Y-47047D01*
X91065Y-47041D01*
X91136Y-46970D01*
X91141Y-46976D01*
X91147Y-46970D01*
X91218Y-47041D01*
X91212Y-47047D01*
X91218Y-47052D01*
X91147Y-47123D01*
X91141Y-47117D01*
X90794Y-47465D01*
X90827Y-47565D01*
X91049Y-47646D01*
X91193Y-47640D01*
X88998Y-49835D01*
X88945Y-49913D01*
X88927Y-50005D01*
X88927Y-50936D01*
X88743Y-50752D01*
X88665Y-50700D01*
X88573Y-50681D01*
X86237Y-50681D01*
X84098Y-48542D01*
X84098Y-47504D01*
X84149Y-47483D01*
X84294Y-47339D01*
X84350Y-47203D01*
X84406Y-47338D01*
X84550Y-47483D01*
X84581Y-47495D01*
X84581Y-47783D01*
X84552Y-47783D01*
X84490Y-47809D01*
X84442Y-47856D01*
X84416Y-47919D01*
X84416Y-47987D01*
X84416Y-48537D01*
X84442Y-48599D01*
X84489Y-48647D01*
X84552Y-48673D01*
X84619Y-48673D01*
X85069Y-48673D01*
X85132Y-48647D01*
X85180Y-48599D01*
X85206Y-48537D01*
X85206Y-48469D01*
X85206Y-47919D01*
X85180Y-47857D01*
X85132Y-47809D01*
X85070Y-47783D01*
X85041Y-47783D01*
X85041Y-47521D01*
X85133Y-47483D01*
X85278Y-47339D01*
X85356Y-47150D01*
X85357Y-46945D01*
X85278Y-46756D01*
X85134Y-46611D01*
X84945Y-46532D01*
X84740Y-46532D01*
X84551Y-46610D01*
X84406Y-46755D01*
X84350Y-46890D01*
X84294Y-46756D01*
X84150Y-46611D01*
X83961Y-46532D01*
X83756Y-46532D01*
X83567Y-46610D01*
X83422Y-46755D01*
X83411Y-46780D01*
X83392Y-46732D01*
X83292Y-46699D01*
X83221Y-46770D01*
X83221Y-46629D01*
X83188Y-46529D01*
X82966Y-46448D01*
X82730Y-46458D01*
X82630Y-46499D01*
X82630Y-44308D01*
X82630Y-43880D01*
X82580Y-43627D01*
X82436Y-43412D01*
X82221Y-43269D01*
X81968Y-43218D01*
X81715Y-43269D01*
X81500Y-43412D01*
X81356Y-43627D01*
X81306Y-43880D01*
X81306Y-44308D01*
X81356Y-44561D01*
X81500Y-44776D01*
X81715Y-44919D01*
X81968Y-44970D01*
X82221Y-44919D01*
X82436Y-44776D01*
X82580Y-44561D01*
X82630Y-44308D01*
X82630Y-46499D01*
X82559Y-46529D01*
X82526Y-46629D01*
X82874Y-46976D01*
X83221Y-46629D01*
X83221Y-46770D01*
X82944Y-47047D01*
X83292Y-47394D01*
X83392Y-47361D01*
X83410Y-47311D01*
X83421Y-47338D01*
X83566Y-47483D01*
X83618Y-47504D01*
X83618Y-48641D01*
X83636Y-48733D01*
X83688Y-48811D01*
X85968Y-51091D01*
X85968Y-51091D01*
X86046Y-51143D01*
X86138Y-51161D01*
X86138Y-51161D01*
X87431Y-51161D01*
X87346Y-51196D01*
X87220Y-51322D01*
X87152Y-51485D01*
X87152Y-51663D01*
X87220Y-51826D01*
X87345Y-51952D01*
X87358Y-51957D01*
X87358Y-65476D01*
X87376Y-65568D01*
X87428Y-65646D01*
X87658Y-65875D01*
X87625Y-65954D01*
X87625Y-66178D01*
X87710Y-66385D01*
X87841Y-66516D01*
X87806Y-66613D01*
X88188Y-66996D01*
X88571Y-66613D01*
X88536Y-66516D01*
X88666Y-66386D01*
X88752Y-66179D01*
X88752Y-65955D01*
X88666Y-65748D01*
X88508Y-65589D01*
X88454Y-65566D01*
X88507Y-65544D01*
X88666Y-65386D01*
X88752Y-65179D01*
X88752Y-64955D01*
X88666Y-64748D01*
X88536Y-64617D01*
X88571Y-64520D01*
X88188Y-64137D01*
X88183Y-64143D01*
X88112Y-64072D01*
X88118Y-64066D01*
X88112Y-64061D01*
X88183Y-63990D01*
X88188Y-63996D01*
X88194Y-63990D01*
X88265Y-64061D01*
X88259Y-64066D01*
X88642Y-64449D01*
X88747Y-64411D01*
X88836Y-64171D01*
X88832Y-64049D01*
X89147Y-64364D01*
X89147Y-68196D01*
X89165Y-68288D01*
X89217Y-68366D01*
X91637Y-70786D01*
X91637Y-70786D01*
X91646Y-70792D01*
X91646Y-70792D01*
X91501Y-70888D01*
X91315Y-71167D01*
X91250Y-71496D01*
X91315Y-71824D01*
X91501Y-72103D01*
X91780Y-72289D01*
X92109Y-72355D01*
X92142Y-72355D01*
X92471Y-72289D01*
X92750Y-72103D01*
X92936Y-71824D01*
X93001Y-71496D01*
X93001Y-68818D01*
X93001Y-65590D01*
X92936Y-65261D01*
X92750Y-64983D01*
X92471Y-64796D01*
X92142Y-64731D01*
X92109Y-64731D01*
X91780Y-64796D01*
X91501Y-64983D01*
X91489Y-65002D01*
X91489Y-63213D01*
X91141Y-62865D01*
X91071Y-62936D01*
X91071Y-62795D01*
X90723Y-62447D01*
X90623Y-62480D01*
X90542Y-62702D01*
X90552Y-62939D01*
X90623Y-63109D01*
X90723Y-63142D01*
X91071Y-62795D01*
X91071Y-62936D01*
X90794Y-63213D01*
X90827Y-63313D01*
X91049Y-63394D01*
X91285Y-63384D01*
X91456Y-63313D01*
X91489Y-63213D01*
X91489Y-65002D01*
X91315Y-65261D01*
X91250Y-65590D01*
X91315Y-65919D01*
X91501Y-66197D01*
X91780Y-66384D01*
X92109Y-66449D01*
X92142Y-66449D01*
X92471Y-66384D01*
X92750Y-66197D01*
X92936Y-65919D01*
X93001Y-65590D01*
X93001Y-68818D01*
X92936Y-68490D01*
X92750Y-68211D01*
X92471Y-68025D01*
X92142Y-67959D01*
X92109Y-67959D01*
X91780Y-68025D01*
X91501Y-68211D01*
X91315Y-68490D01*
X91250Y-68818D01*
X91315Y-69147D01*
X91501Y-69426D01*
X91780Y-69612D01*
X92109Y-69677D01*
X92142Y-69677D01*
X92471Y-69612D01*
X92750Y-69426D01*
X92936Y-69147D01*
X93001Y-68818D01*
X93001Y-71496D01*
X92936Y-71167D01*
X92750Y-70888D01*
X92471Y-70702D01*
X92365Y-70681D01*
X92365Y-70616D01*
X92347Y-70525D01*
X92295Y-70447D01*
X92217Y-70395D01*
X92125Y-70376D01*
X91906Y-70376D01*
X91214Y-69684D01*
X90283Y-68753D01*
X90325Y-68753D01*
X90325Y-68690D01*
X90471Y-68733D01*
X90588Y-68701D01*
X90904Y-68514D01*
X91123Y-68220D01*
X91214Y-67864D01*
X91214Y-67569D01*
X91214Y-67469D01*
X91214Y-67174D01*
X91123Y-66818D01*
X90904Y-66525D01*
X90588Y-66337D01*
X90471Y-66306D01*
X90325Y-66349D01*
X90325Y-67469D01*
X91214Y-67469D01*
X91214Y-67569D01*
X90325Y-67569D01*
X90325Y-67577D01*
X90225Y-67577D01*
X90225Y-67569D01*
X90217Y-67569D01*
X90217Y-67469D01*
X90225Y-67469D01*
X90225Y-66349D01*
X90079Y-66306D01*
X89962Y-66337D01*
X89646Y-66525D01*
X89627Y-66551D01*
X89627Y-64265D01*
X89627Y-64265D01*
X89609Y-64173D01*
X89556Y-64095D01*
X89556Y-64095D01*
X88719Y-63258D01*
X88752Y-63179D01*
X88752Y-62955D01*
X88666Y-62748D01*
X88508Y-62589D01*
X88454Y-62566D01*
X88507Y-62544D01*
X88666Y-62386D01*
X88752Y-62179D01*
X88752Y-61955D01*
X88719Y-61875D01*
X89597Y-60997D01*
X89649Y-60919D01*
X89667Y-60828D01*
X89667Y-60828D01*
X89667Y-60374D01*
X89768Y-60524D01*
X89982Y-60667D01*
X90236Y-60718D01*
X90489Y-60667D01*
X90704Y-60524D01*
X90847Y-60309D01*
X90898Y-60056D01*
X90898Y-59628D01*
X90847Y-59375D01*
X90704Y-59160D01*
X90489Y-59017D01*
X90236Y-58966D01*
X89982Y-59017D01*
X89768Y-59160D01*
X89667Y-59310D01*
X89667Y-56734D01*
X90987Y-55414D01*
X91038Y-55435D01*
X91243Y-55435D01*
X91432Y-55357D01*
X91577Y-55213D01*
X91633Y-55077D01*
X91689Y-55212D01*
X91834Y-55357D01*
X92023Y-55435D01*
X92227Y-55435D01*
X92417Y-55357D01*
X92561Y-55213D01*
X92618Y-55077D01*
X92673Y-55212D01*
X92818Y-55357D01*
X93007Y-55435D01*
X93212Y-55435D01*
X93401Y-55357D01*
X93546Y-55213D01*
X93624Y-55024D01*
X93624Y-54819D01*
X93546Y-54630D01*
X93402Y-54485D01*
X93213Y-54406D01*
X93008Y-54406D01*
X92819Y-54484D01*
X92674Y-54629D01*
X92618Y-54764D01*
X92562Y-54630D01*
X92417Y-54485D01*
X92228Y-54406D01*
X92024Y-54406D01*
X91834Y-54484D01*
X91690Y-54629D01*
X91633Y-54764D01*
X91578Y-54630D01*
X91433Y-54485D01*
X91244Y-54406D01*
X91039Y-54406D01*
X90898Y-54465D01*
X90898Y-52182D01*
X90898Y-51754D01*
X90847Y-51501D01*
X90704Y-51286D01*
X90489Y-51143D01*
X90236Y-51092D01*
X89982Y-51143D01*
X89768Y-51286D01*
X89624Y-51501D01*
X89574Y-51754D01*
X89574Y-52182D01*
X89624Y-52435D01*
X89768Y-52650D01*
X89982Y-52793D01*
X90236Y-52844D01*
X90489Y-52793D01*
X90704Y-52650D01*
X90847Y-52435D01*
X90898Y-52182D01*
X90898Y-54465D01*
X90850Y-54484D01*
X90705Y-54629D01*
X90627Y-54818D01*
X90627Y-55023D01*
X90648Y-55075D01*
X89407Y-56315D01*
X89407Y-50104D01*
X91972Y-47540D01*
X92023Y-47561D01*
X92227Y-47561D01*
X92417Y-47483D01*
X92561Y-47339D01*
X92618Y-47203D01*
X92673Y-47338D01*
X92818Y-47483D01*
X93007Y-47561D01*
X93212Y-47561D01*
X93273Y-47536D01*
X93546Y-47808D01*
X93545Y-47809D01*
X93497Y-47856D01*
X93471Y-47919D01*
X93471Y-47987D01*
X93471Y-48537D01*
X93497Y-48599D01*
X93544Y-48647D01*
X93607Y-48673D01*
X93675Y-48673D01*
X94125Y-48673D01*
X94187Y-48647D01*
X94235Y-48599D01*
X94261Y-48537D01*
X94261Y-48469D01*
X94261Y-47919D01*
X94235Y-47857D01*
X94187Y-47809D01*
X94125Y-47783D01*
X94092Y-47783D01*
X94078Y-47715D01*
X94078Y-47715D01*
X94028Y-47640D01*
X93599Y-47211D01*
X93624Y-47150D01*
X93624Y-47011D01*
X94414Y-47801D01*
X94395Y-47809D01*
X94347Y-47856D01*
X94321Y-47919D01*
X94321Y-47987D01*
X94321Y-48537D01*
X94347Y-48599D01*
X94394Y-48647D01*
X94457Y-48673D01*
X94525Y-48673D01*
X94975Y-48673D01*
X95037Y-48647D01*
X95085Y-48599D01*
X95111Y-48537D01*
X95111Y-48469D01*
X95111Y-81326D01*
X94677Y-81326D01*
X94677Y-60056D01*
X94677Y-59628D01*
X94677Y-52182D01*
X94677Y-51754D01*
X94627Y-51501D01*
X94483Y-51286D01*
X94269Y-51143D01*
X94015Y-51092D01*
X93762Y-51143D01*
X93547Y-51286D01*
X93404Y-51501D01*
X93353Y-51754D01*
X93353Y-52182D01*
X93404Y-52435D01*
X93547Y-52650D01*
X93762Y-52793D01*
X94015Y-52844D01*
X94269Y-52793D01*
X94483Y-52650D01*
X94627Y-52435D01*
X94677Y-52182D01*
X94677Y-59628D01*
X94627Y-59375D01*
X94483Y-59160D01*
X94269Y-59017D01*
X94015Y-58966D01*
X93762Y-59017D01*
X93547Y-59160D01*
X93404Y-59375D01*
X93353Y-59628D01*
X93353Y-60056D01*
X93404Y-60309D01*
X93547Y-60524D01*
X93762Y-60667D01*
X94015Y-60718D01*
X94269Y-60667D01*
X94483Y-60524D01*
X94627Y-60309D01*
X94677Y-60056D01*
X94677Y-81326D01*
X94620Y-81326D01*
X94620Y-79675D01*
X94620Y-79380D01*
X94620Y-79280D01*
X94620Y-78985D01*
X94620Y-73770D01*
X94620Y-73475D01*
X94620Y-73375D01*
X94620Y-73079D01*
X94620Y-67864D01*
X94620Y-67569D01*
X94620Y-67469D01*
X94620Y-67174D01*
X94551Y-66931D01*
X94396Y-66733D01*
X94176Y-66610D01*
X94126Y-66598D01*
X94026Y-66645D01*
X94026Y-67469D01*
X94620Y-67469D01*
X94620Y-67569D01*
X94026Y-67569D01*
X94026Y-68394D01*
X94126Y-68440D01*
X94176Y-68428D01*
X94396Y-68305D01*
X94551Y-68107D01*
X94620Y-67864D01*
X94620Y-73079D01*
X94551Y-72837D01*
X94396Y-72639D01*
X94176Y-72516D01*
X94126Y-72503D01*
X94026Y-72550D01*
X94026Y-73375D01*
X94620Y-73375D01*
X94620Y-73475D01*
X94026Y-73475D01*
X94026Y-74299D01*
X94126Y-74346D01*
X94176Y-74334D01*
X94396Y-74210D01*
X94551Y-74013D01*
X94620Y-73770D01*
X94620Y-78985D01*
X94551Y-78742D01*
X94396Y-78544D01*
X94176Y-78421D01*
X94126Y-78409D01*
X94026Y-78456D01*
X94026Y-79280D01*
X94620Y-79280D01*
X94620Y-79380D01*
X94026Y-79380D01*
X94026Y-80205D01*
X94126Y-80252D01*
X94176Y-80239D01*
X94396Y-80116D01*
X94551Y-79918D01*
X94620Y-79675D01*
X94620Y-81326D01*
X93926Y-81326D01*
X93926Y-80205D01*
X93926Y-79380D01*
X93926Y-79280D01*
X93926Y-78456D01*
X93926Y-74299D01*
X93926Y-73475D01*
X93926Y-73375D01*
X93926Y-72550D01*
X93926Y-68394D01*
X93926Y-67569D01*
X93926Y-67469D01*
X93926Y-66645D01*
X93826Y-66598D01*
X93776Y-66610D01*
X93624Y-66695D01*
X93624Y-62693D01*
X93546Y-62504D01*
X93402Y-62359D01*
X93213Y-62280D01*
X93008Y-62280D01*
X92819Y-62358D01*
X92674Y-62503D01*
X92618Y-62638D01*
X92562Y-62504D01*
X92417Y-62359D01*
X92228Y-62280D01*
X92024Y-62280D01*
X91834Y-62358D01*
X91690Y-62503D01*
X91679Y-62528D01*
X91659Y-62480D01*
X91559Y-62447D01*
X91489Y-62518D01*
X91489Y-62377D01*
X91456Y-62277D01*
X91234Y-62196D01*
X90997Y-62206D01*
X90827Y-62277D01*
X90794Y-62377D01*
X91141Y-62724D01*
X91489Y-62377D01*
X91489Y-62518D01*
X91212Y-62795D01*
X91559Y-63142D01*
X91659Y-63109D01*
X91678Y-63059D01*
X91689Y-63086D01*
X91834Y-63231D01*
X92023Y-63309D01*
X92227Y-63309D01*
X92417Y-63231D01*
X92561Y-63087D01*
X92618Y-62951D01*
X92673Y-63086D01*
X92818Y-63231D01*
X93007Y-63309D01*
X93212Y-63309D01*
X93401Y-63231D01*
X93546Y-63087D01*
X93624Y-62898D01*
X93624Y-62693D01*
X93624Y-66695D01*
X93556Y-66733D01*
X93400Y-66931D01*
X93332Y-67174D01*
X93332Y-67469D01*
X93926Y-67469D01*
X93926Y-67569D01*
X93332Y-67569D01*
X93332Y-67864D01*
X93400Y-68107D01*
X93556Y-68305D01*
X93776Y-68428D01*
X93826Y-68440D01*
X93926Y-68394D01*
X93926Y-72550D01*
X93826Y-72503D01*
X93776Y-72516D01*
X93556Y-72639D01*
X93400Y-72837D01*
X93332Y-73079D01*
X93332Y-73375D01*
X93926Y-73375D01*
X93926Y-73475D01*
X93332Y-73475D01*
X93332Y-73770D01*
X93400Y-74013D01*
X93556Y-74210D01*
X93776Y-74334D01*
X93826Y-74346D01*
X93926Y-74299D01*
X93926Y-78456D01*
X93826Y-78409D01*
X93776Y-78421D01*
X93556Y-78544D01*
X93400Y-78742D01*
X93332Y-78985D01*
X93332Y-79280D01*
X93926Y-79280D01*
X93926Y-79380D01*
X93332Y-79380D01*
X93332Y-79675D01*
X93400Y-79918D01*
X93556Y-80116D01*
X93776Y-80239D01*
X93826Y-80252D01*
X93926Y-80205D01*
X93926Y-81326D01*
X92616Y-81326D01*
X92750Y-81237D01*
X92936Y-80958D01*
X93001Y-80629D01*
X93001Y-77401D01*
X93001Y-74724D01*
X92936Y-74395D01*
X92750Y-74117D01*
X92471Y-73930D01*
X92142Y-73865D01*
X92109Y-73865D01*
X91780Y-73930D01*
X91501Y-74117D01*
X91315Y-74395D01*
X91250Y-74724D01*
X91315Y-75053D01*
X91501Y-75331D01*
X91780Y-75518D01*
X92109Y-75583D01*
X92142Y-75583D01*
X92471Y-75518D01*
X92750Y-75331D01*
X92936Y-75053D01*
X93001Y-74724D01*
X93001Y-77401D01*
X92936Y-77072D01*
X92750Y-76794D01*
X92471Y-76607D01*
X92142Y-76542D01*
X92109Y-76542D01*
X91780Y-76607D01*
X91501Y-76794D01*
X91315Y-77072D01*
X91250Y-77401D01*
X91315Y-77730D01*
X91501Y-78008D01*
X91780Y-78195D01*
X92109Y-78260D01*
X92142Y-78260D01*
X92471Y-78195D01*
X92750Y-78008D01*
X92936Y-77730D01*
X93001Y-77401D01*
X93001Y-80629D01*
X92936Y-80301D01*
X92750Y-80022D01*
X92471Y-79836D01*
X92142Y-79770D01*
X92109Y-79770D01*
X91780Y-79836D01*
X91501Y-80022D01*
X91315Y-80301D01*
X91250Y-80629D01*
X91315Y-80958D01*
X91501Y-81237D01*
X91635Y-81326D01*
X91214Y-81326D01*
X91214Y-79675D01*
X91214Y-79380D01*
X91214Y-79280D01*
X91214Y-78985D01*
X91214Y-73770D01*
X91214Y-73475D01*
X91214Y-73375D01*
X91214Y-73079D01*
X91123Y-72724D01*
X90904Y-72430D01*
X90588Y-72243D01*
X90471Y-72211D01*
X90325Y-72254D01*
X90325Y-73375D01*
X91214Y-73375D01*
X91214Y-73475D01*
X90325Y-73475D01*
X90325Y-74595D01*
X90471Y-74638D01*
X90588Y-74607D01*
X90904Y-74419D01*
X91123Y-74125D01*
X91214Y-73770D01*
X91214Y-78985D01*
X91123Y-78629D01*
X90904Y-78336D01*
X90588Y-78148D01*
X90471Y-78117D01*
X90325Y-78160D01*
X90325Y-79280D01*
X91214Y-79280D01*
X91214Y-79380D01*
X90325Y-79380D01*
X90325Y-80501D01*
X90471Y-80544D01*
X90588Y-80512D01*
X90904Y-80325D01*
X91123Y-80031D01*
X91214Y-79675D01*
X91214Y-81326D01*
X90225Y-81326D01*
X90225Y-80501D01*
X90225Y-79380D01*
X90225Y-79280D01*
X90225Y-78160D01*
X90225Y-74595D01*
X90225Y-73475D01*
X90225Y-73375D01*
X90225Y-72254D01*
X90079Y-72211D01*
X89962Y-72243D01*
X89646Y-72430D01*
X89427Y-72724D01*
X89336Y-73079D01*
X89336Y-73375D01*
X90225Y-73375D01*
X90225Y-73475D01*
X89336Y-73475D01*
X89336Y-73770D01*
X89427Y-74125D01*
X89646Y-74419D01*
X89962Y-74607D01*
X90079Y-74638D01*
X90225Y-74595D01*
X90225Y-78160D01*
X90079Y-78117D01*
X89962Y-78148D01*
X89646Y-78336D01*
X89427Y-78629D01*
X89336Y-78985D01*
X89336Y-79280D01*
X90225Y-79280D01*
X90225Y-79380D01*
X89336Y-79380D01*
X89336Y-79675D01*
X89427Y-80031D01*
X89646Y-80325D01*
X89962Y-80512D01*
X90079Y-80544D01*
X90225Y-80501D01*
X90225Y-81326D01*
X88836Y-81326D01*
X88836Y-67171D01*
X88827Y-66915D01*
X88747Y-66722D01*
X88642Y-66684D01*
X88259Y-67066D01*
X88642Y-67449D01*
X88747Y-67411D01*
X88836Y-67171D01*
X88836Y-81326D01*
X88752Y-81326D01*
X88752Y-68955D01*
X88666Y-68748D01*
X88508Y-68589D01*
X88454Y-68566D01*
X88507Y-68544D01*
X88666Y-68386D01*
X88752Y-68179D01*
X88752Y-67955D01*
X88666Y-67748D01*
X88536Y-67617D01*
X88571Y-67520D01*
X88188Y-67137D01*
X88118Y-67208D01*
X88118Y-67066D01*
X87735Y-66684D01*
X87630Y-66722D01*
X87541Y-66962D01*
X87550Y-67218D01*
X87630Y-67411D01*
X87735Y-67449D01*
X88118Y-67066D01*
X88118Y-67208D01*
X87806Y-67520D01*
X87841Y-67617D01*
X87711Y-67747D01*
X87625Y-67954D01*
X87625Y-68178D01*
X87710Y-68385D01*
X87869Y-68544D01*
X87923Y-68566D01*
X87870Y-68588D01*
X87711Y-68747D01*
X87625Y-68954D01*
X87625Y-69178D01*
X87710Y-69385D01*
X87828Y-69503D01*
X87761Y-69503D01*
X87699Y-69529D01*
X87651Y-69577D01*
X87625Y-69639D01*
X87625Y-69707D01*
X87625Y-70494D01*
X87651Y-70556D01*
X87699Y-70604D01*
X87761Y-70630D01*
X87829Y-70630D01*
X88616Y-70630D01*
X88678Y-70604D01*
X88726Y-70556D01*
X88752Y-70494D01*
X88752Y-70426D01*
X88752Y-69639D01*
X88726Y-69577D01*
X88678Y-69529D01*
X88616Y-69503D01*
X88549Y-69503D01*
X88666Y-69386D01*
X88752Y-69179D01*
X88752Y-68955D01*
X88752Y-81326D01*
X86410Y-81326D01*
X86410Y-60056D01*
X86410Y-59628D01*
X86410Y-52182D01*
X86410Y-51754D01*
X86359Y-51501D01*
X86216Y-51286D01*
X86001Y-51143D01*
X85748Y-51092D01*
X85494Y-51143D01*
X85279Y-51286D01*
X85136Y-51501D01*
X85085Y-51754D01*
X85085Y-52182D01*
X85136Y-52435D01*
X85279Y-52650D01*
X85494Y-52793D01*
X85748Y-52844D01*
X86001Y-52793D01*
X86216Y-52650D01*
X86359Y-52435D01*
X86410Y-52182D01*
X86410Y-59628D01*
X86359Y-59375D01*
X86216Y-59160D01*
X86001Y-59017D01*
X85748Y-58966D01*
X85494Y-59017D01*
X85357Y-59109D01*
X85357Y-54819D01*
X85278Y-54630D01*
X85134Y-54485D01*
X84945Y-54406D01*
X84740Y-54406D01*
X84551Y-54484D01*
X84406Y-54629D01*
X84350Y-54764D01*
X84294Y-54630D01*
X84150Y-54485D01*
X83961Y-54406D01*
X83756Y-54406D01*
X83567Y-54484D01*
X83422Y-54629D01*
X83366Y-54764D01*
X83310Y-54630D01*
X83221Y-54541D01*
X83221Y-47465D01*
X82874Y-47117D01*
X82803Y-47188D01*
X82803Y-47047D01*
X82455Y-46699D01*
X82355Y-46732D01*
X82274Y-46954D01*
X82285Y-47191D01*
X82355Y-47361D01*
X82455Y-47394D01*
X82803Y-47047D01*
X82803Y-47188D01*
X82526Y-47465D01*
X82559Y-47565D01*
X82781Y-47646D01*
X83017Y-47636D01*
X83188Y-47565D01*
X83221Y-47465D01*
X83221Y-54541D01*
X83165Y-54485D01*
X82976Y-54406D01*
X82772Y-54406D01*
X82630Y-54465D01*
X82630Y-52182D01*
X82630Y-51754D01*
X82580Y-51501D01*
X82436Y-51286D01*
X82221Y-51143D01*
X81968Y-51092D01*
X81715Y-51143D01*
X81500Y-51286D01*
X81356Y-51501D01*
X81306Y-51754D01*
X81306Y-52182D01*
X81356Y-52435D01*
X81500Y-52650D01*
X81715Y-52793D01*
X81968Y-52844D01*
X82221Y-52793D01*
X82436Y-52650D01*
X82580Y-52435D01*
X82630Y-52182D01*
X82630Y-54465D01*
X82582Y-54484D01*
X82438Y-54629D01*
X82359Y-54818D01*
X82359Y-55023D01*
X82437Y-55212D01*
X82582Y-55357D01*
X82771Y-55435D01*
X82975Y-55435D01*
X83165Y-55357D01*
X83309Y-55213D01*
X83366Y-55077D01*
X83421Y-55212D01*
X83566Y-55357D01*
X83755Y-55435D01*
X83960Y-55435D01*
X84149Y-55357D01*
X84294Y-55213D01*
X84350Y-55077D01*
X84406Y-55212D01*
X84550Y-55357D01*
X84739Y-55435D01*
X84944Y-55435D01*
X85133Y-55357D01*
X85278Y-55213D01*
X85356Y-55024D01*
X85357Y-54819D01*
X85357Y-59109D01*
X85279Y-59160D01*
X85136Y-59375D01*
X85085Y-59628D01*
X85085Y-60056D01*
X85136Y-60309D01*
X85279Y-60524D01*
X85494Y-60667D01*
X85748Y-60718D01*
X86001Y-60667D01*
X86216Y-60524D01*
X86359Y-60309D01*
X86410Y-60056D01*
X86410Y-81326D01*
X86352Y-81326D01*
X86352Y-79675D01*
X86352Y-79380D01*
X86352Y-79280D01*
X86352Y-78985D01*
X86352Y-73770D01*
X86352Y-73475D01*
X86352Y-73375D01*
X86352Y-73079D01*
X86352Y-67864D01*
X86352Y-67569D01*
X86352Y-67469D01*
X86352Y-67174D01*
X86284Y-66931D01*
X86128Y-66733D01*
X85908Y-66610D01*
X85858Y-66598D01*
X85758Y-66645D01*
X85758Y-67469D01*
X86352Y-67469D01*
X86352Y-67569D01*
X85758Y-67569D01*
X85758Y-68394D01*
X85858Y-68440D01*
X85908Y-68428D01*
X86128Y-68305D01*
X86284Y-68107D01*
X86352Y-67864D01*
X86352Y-73079D01*
X86284Y-72837D01*
X86128Y-72639D01*
X85908Y-72516D01*
X85858Y-72503D01*
X85758Y-72550D01*
X85758Y-73375D01*
X86352Y-73375D01*
X86352Y-73475D01*
X85758Y-73475D01*
X85758Y-74299D01*
X85858Y-74346D01*
X85908Y-74334D01*
X86128Y-74210D01*
X86284Y-74013D01*
X86352Y-73770D01*
X86352Y-78985D01*
X86284Y-78742D01*
X86128Y-78544D01*
X85908Y-78421D01*
X85858Y-78409D01*
X85758Y-78456D01*
X85758Y-79280D01*
X86352Y-79280D01*
X86352Y-79380D01*
X85758Y-79380D01*
X85758Y-80205D01*
X85858Y-80252D01*
X85908Y-80239D01*
X86128Y-80116D01*
X86284Y-79918D01*
X86352Y-79675D01*
X86352Y-81326D01*
X85658Y-81326D01*
X85658Y-80205D01*
X85658Y-79380D01*
X85658Y-79280D01*
X85658Y-78456D01*
X85658Y-74299D01*
X85658Y-73475D01*
X85658Y-73375D01*
X85658Y-72550D01*
X85658Y-68394D01*
X85658Y-67569D01*
X85658Y-67469D01*
X85658Y-66645D01*
X85558Y-66598D01*
X85508Y-66610D01*
X85357Y-66695D01*
X85357Y-62693D01*
X85278Y-62504D01*
X85134Y-62359D01*
X84945Y-62280D01*
X84740Y-62280D01*
X84551Y-62358D01*
X84406Y-62503D01*
X84350Y-62638D01*
X84294Y-62504D01*
X84150Y-62359D01*
X83961Y-62280D01*
X83756Y-62280D01*
X83567Y-62358D01*
X83422Y-62503D01*
X83411Y-62528D01*
X83392Y-62480D01*
X83292Y-62447D01*
X83221Y-62518D01*
X83221Y-62377D01*
X83188Y-62277D01*
X82966Y-62196D01*
X82730Y-62206D01*
X82630Y-62247D01*
X82630Y-60056D01*
X82630Y-59628D01*
X82580Y-59375D01*
X82436Y-59160D01*
X82221Y-59017D01*
X81968Y-58966D01*
X81715Y-59017D01*
X81500Y-59160D01*
X81356Y-59375D01*
X81306Y-59628D01*
X81306Y-60056D01*
X81356Y-60309D01*
X81500Y-60524D01*
X81715Y-60667D01*
X81968Y-60718D01*
X82221Y-60667D01*
X82436Y-60524D01*
X82580Y-60309D01*
X82630Y-60056D01*
X82630Y-62247D01*
X82559Y-62277D01*
X82526Y-62377D01*
X82874Y-62724D01*
X83221Y-62377D01*
X83221Y-62518D01*
X82944Y-62795D01*
X83292Y-63142D01*
X83392Y-63109D01*
X83410Y-63059D01*
X83421Y-63086D01*
X83566Y-63231D01*
X83755Y-63309D01*
X83960Y-63309D01*
X84149Y-63231D01*
X84294Y-63087D01*
X84350Y-62951D01*
X84406Y-63086D01*
X84550Y-63231D01*
X84739Y-63309D01*
X84944Y-63309D01*
X85133Y-63231D01*
X85278Y-63087D01*
X85356Y-62898D01*
X85357Y-62693D01*
X85357Y-66695D01*
X85288Y-66733D01*
X85133Y-66931D01*
X85064Y-67174D01*
X85064Y-67469D01*
X85658Y-67469D01*
X85658Y-67569D01*
X85064Y-67569D01*
X85064Y-67864D01*
X85133Y-68107D01*
X85288Y-68305D01*
X85508Y-68428D01*
X85558Y-68440D01*
X85658Y-68394D01*
X85658Y-72550D01*
X85558Y-72503D01*
X85508Y-72516D01*
X85288Y-72639D01*
X85133Y-72837D01*
X85064Y-73079D01*
X85064Y-73375D01*
X85658Y-73375D01*
X85658Y-73475D01*
X85064Y-73475D01*
X85064Y-73770D01*
X85133Y-74013D01*
X85288Y-74210D01*
X85508Y-74334D01*
X85558Y-74346D01*
X85658Y-74299D01*
X85658Y-78456D01*
X85558Y-78409D01*
X85508Y-78421D01*
X85288Y-78544D01*
X85133Y-78742D01*
X85064Y-78985D01*
X85064Y-79280D01*
X85658Y-79280D01*
X85658Y-79380D01*
X85064Y-79380D01*
X85064Y-79675D01*
X85133Y-79918D01*
X85288Y-80116D01*
X85508Y-80239D01*
X85558Y-80252D01*
X85658Y-80205D01*
X85658Y-81326D01*
X84349Y-81326D01*
X84482Y-81237D01*
X84668Y-80958D01*
X84734Y-80629D01*
X84734Y-77401D01*
X84734Y-74724D01*
X84734Y-71496D01*
X84734Y-68818D01*
X84734Y-65590D01*
X84668Y-65261D01*
X84482Y-64983D01*
X84203Y-64796D01*
X83875Y-64731D01*
X83841Y-64731D01*
X83512Y-64796D01*
X83234Y-64983D01*
X83221Y-65002D01*
X83221Y-63213D01*
X82874Y-62865D01*
X82803Y-62936D01*
X82803Y-62795D01*
X82455Y-62447D01*
X82355Y-62480D01*
X82274Y-62702D01*
X82285Y-62939D01*
X82355Y-63109D01*
X82455Y-63142D01*
X82803Y-62795D01*
X82803Y-62936D01*
X82526Y-63213D01*
X82559Y-63313D01*
X82781Y-63394D01*
X83017Y-63384D01*
X83188Y-63313D01*
X83221Y-63213D01*
X83221Y-65002D01*
X83047Y-65261D01*
X82982Y-65590D01*
X83047Y-65919D01*
X83234Y-66197D01*
X83512Y-66384D01*
X83841Y-66449D01*
X83875Y-66449D01*
X84203Y-66384D01*
X84482Y-66197D01*
X84668Y-65919D01*
X84734Y-65590D01*
X84734Y-68818D01*
X84668Y-68490D01*
X84482Y-68211D01*
X84203Y-68025D01*
X83875Y-67959D01*
X83841Y-67959D01*
X83512Y-68025D01*
X83234Y-68211D01*
X83047Y-68490D01*
X82982Y-68818D01*
X83047Y-69147D01*
X83234Y-69426D01*
X83512Y-69612D01*
X83841Y-69677D01*
X83875Y-69677D01*
X84203Y-69612D01*
X84482Y-69426D01*
X84668Y-69147D01*
X84734Y-68818D01*
X84734Y-71496D01*
X84668Y-71167D01*
X84482Y-70888D01*
X84203Y-70702D01*
X83875Y-70637D01*
X83841Y-70637D01*
X83512Y-70702D01*
X83234Y-70888D01*
X83047Y-71167D01*
X82982Y-71496D01*
X83047Y-71824D01*
X83234Y-72103D01*
X83512Y-72289D01*
X83841Y-72355D01*
X83875Y-72355D01*
X84203Y-72289D01*
X84482Y-72103D01*
X84668Y-71824D01*
X84734Y-71496D01*
X84734Y-74724D01*
X84668Y-74395D01*
X84482Y-74117D01*
X84203Y-73930D01*
X83875Y-73865D01*
X83841Y-73865D01*
X83512Y-73930D01*
X83234Y-74117D01*
X83047Y-74395D01*
X82982Y-74724D01*
X83047Y-75053D01*
X83234Y-75331D01*
X83512Y-75518D01*
X83841Y-75583D01*
X83875Y-75583D01*
X84203Y-75518D01*
X84482Y-75331D01*
X84668Y-75053D01*
X84734Y-74724D01*
X84734Y-77401D01*
X84668Y-77072D01*
X84482Y-76794D01*
X84203Y-76607D01*
X83875Y-76542D01*
X83841Y-76542D01*
X83512Y-76607D01*
X83234Y-76794D01*
X83047Y-77072D01*
X82982Y-77401D01*
X83047Y-77730D01*
X83234Y-78008D01*
X83512Y-78195D01*
X83841Y-78260D01*
X83875Y-78260D01*
X84203Y-78195D01*
X84482Y-78008D01*
X84668Y-77730D01*
X84734Y-77401D01*
X84734Y-80629D01*
X84668Y-80301D01*
X84482Y-80022D01*
X84203Y-79836D01*
X83875Y-79770D01*
X83841Y-79770D01*
X83512Y-79836D01*
X83234Y-80022D01*
X83047Y-80301D01*
X82982Y-80629D01*
X83047Y-80958D01*
X83234Y-81237D01*
X83367Y-81326D01*
X82946Y-81326D01*
X82946Y-79675D01*
X82946Y-79380D01*
X82946Y-79280D01*
X82946Y-78985D01*
X82946Y-73770D01*
X82946Y-73475D01*
X82946Y-73375D01*
X82946Y-73079D01*
X82946Y-67864D01*
X82946Y-67569D01*
X82946Y-67469D01*
X82946Y-67174D01*
X82856Y-66818D01*
X82636Y-66525D01*
X82321Y-66337D01*
X82203Y-66306D01*
X82057Y-66349D01*
X82057Y-67469D01*
X82946Y-67469D01*
X82946Y-67569D01*
X82057Y-67569D01*
X82057Y-68690D01*
X82203Y-68733D01*
X82321Y-68701D01*
X82636Y-68514D01*
X82856Y-68220D01*
X82946Y-67864D01*
X82946Y-73079D01*
X82856Y-72724D01*
X82636Y-72430D01*
X82321Y-72243D01*
X82203Y-72211D01*
X82057Y-72254D01*
X82057Y-73375D01*
X82946Y-73375D01*
X82946Y-73475D01*
X82057Y-73475D01*
X82057Y-74595D01*
X82203Y-74638D01*
X82321Y-74607D01*
X82636Y-74419D01*
X82856Y-74125D01*
X82946Y-73770D01*
X82946Y-78985D01*
X82856Y-78629D01*
X82636Y-78336D01*
X82321Y-78148D01*
X82203Y-78117D01*
X82057Y-78160D01*
X82057Y-79280D01*
X82946Y-79280D01*
X82946Y-79380D01*
X82057Y-79380D01*
X82057Y-80501D01*
X82203Y-80544D01*
X82321Y-80512D01*
X82636Y-80325D01*
X82856Y-80031D01*
X82946Y-79675D01*
X82946Y-81326D01*
X81957Y-81326D01*
X81957Y-80501D01*
X81957Y-79380D01*
X81957Y-79280D01*
X81957Y-78160D01*
X81957Y-74595D01*
X81957Y-73475D01*
X81957Y-73375D01*
X81957Y-72254D01*
X81957Y-68690D01*
X81957Y-67569D01*
X81957Y-67469D01*
X81957Y-66349D01*
X81811Y-66306D01*
X81694Y-66337D01*
X81379Y-66525D01*
X81159Y-66818D01*
X81068Y-67174D01*
X81068Y-67469D01*
X81957Y-67469D01*
X81957Y-67569D01*
X81068Y-67569D01*
X81068Y-67864D01*
X81159Y-68220D01*
X81379Y-68514D01*
X81694Y-68701D01*
X81811Y-68733D01*
X81957Y-68690D01*
X81957Y-72254D01*
X81811Y-72211D01*
X81694Y-72243D01*
X81379Y-72430D01*
X81159Y-72724D01*
X81068Y-73079D01*
X81068Y-73375D01*
X81957Y-73375D01*
X81957Y-73475D01*
X81068Y-73475D01*
X81068Y-73770D01*
X81159Y-74125D01*
X81379Y-74419D01*
X81694Y-74607D01*
X81811Y-74638D01*
X81957Y-74595D01*
X81957Y-78160D01*
X81811Y-78117D01*
X81694Y-78148D01*
X81379Y-78336D01*
X81159Y-78629D01*
X81068Y-78985D01*
X81068Y-79280D01*
X81957Y-79280D01*
X81957Y-79380D01*
X81068Y-79380D01*
X81068Y-79675D01*
X81159Y-80031D01*
X81379Y-80325D01*
X81694Y-80512D01*
X81811Y-80544D01*
X81957Y-80501D01*
X81957Y-81326D01*
X80484Y-81326D01*
X80484Y-42295D01*
X95499Y-42295D01*
X95499Y-81326D01*
X95499Y-81326D01*
G37*
G54D23*
X95499Y-81326D02*
X95111Y-81326D01*
X95111Y-48469D01*
X95111Y-47919D01*
X95085Y-47857D01*
X95037Y-47809D01*
X94975Y-47783D01*
X94956Y-47783D01*
X94956Y-47763D01*
X94938Y-47671D01*
X94886Y-47593D01*
X94886Y-47593D01*
X94677Y-47385D01*
X94677Y-44308D01*
X94677Y-43880D01*
X94627Y-43627D01*
X94483Y-43412D01*
X94269Y-43269D01*
X94015Y-43218D01*
X93762Y-43269D01*
X93547Y-43412D01*
X93404Y-43627D01*
X93353Y-43880D01*
X93353Y-44308D01*
X93404Y-44561D01*
X93547Y-44776D01*
X93762Y-44919D01*
X94015Y-44970D01*
X94269Y-44919D01*
X94483Y-44776D01*
X94627Y-44561D01*
X94677Y-44308D01*
X94677Y-47385D01*
X93627Y-46334D01*
X93549Y-46282D01*
X93457Y-46264D01*
X90898Y-46264D01*
X90898Y-44308D01*
X90898Y-43880D01*
X90847Y-43627D01*
X90704Y-43412D01*
X90489Y-43269D01*
X90236Y-43218D01*
X89982Y-43269D01*
X89768Y-43412D01*
X89624Y-43627D01*
X89574Y-43880D01*
X89574Y-44308D01*
X89624Y-44561D01*
X89768Y-44776D01*
X89982Y-44919D01*
X90236Y-44970D01*
X90489Y-44919D01*
X90704Y-44776D01*
X90847Y-44561D01*
X90898Y-44308D01*
X90898Y-46264D01*
X90068Y-46264D01*
X90068Y-45412D01*
X90050Y-45320D01*
X89998Y-45242D01*
X88702Y-43946D01*
X88757Y-43923D01*
X88805Y-43875D01*
X88831Y-43813D01*
X88831Y-43745D01*
X88831Y-43194D01*
X88805Y-43132D01*
X88757Y-43084D01*
X88695Y-43058D01*
X88627Y-43058D01*
X88076Y-43058D01*
X88014Y-43084D01*
X87974Y-43123D01*
X87941Y-43090D01*
X87895Y-43135D01*
X87871Y-43042D01*
X87674Y-42973D01*
X87465Y-42984D01*
X87325Y-43042D01*
X87300Y-43135D01*
X87598Y-43433D01*
X87603Y-43427D01*
X87674Y-43498D01*
X87669Y-43503D01*
X87674Y-43509D01*
X87603Y-43580D01*
X87598Y-43574D01*
X87527Y-43645D01*
X87527Y-43503D01*
X87230Y-43206D01*
X87137Y-43230D01*
X87067Y-43428D01*
X87079Y-43636D01*
X87137Y-43777D01*
X87230Y-43801D01*
X87527Y-43503D01*
X87527Y-43645D01*
X87300Y-43872D01*
X87325Y-43964D01*
X87522Y-44034D01*
X87731Y-44023D01*
X87871Y-43964D01*
X87895Y-43872D01*
X87895Y-43872D01*
X87941Y-43917D01*
X87974Y-43884D01*
X88013Y-43923D01*
X88076Y-43949D01*
X88143Y-43949D01*
X88145Y-43949D01*
X88145Y-43969D01*
X88164Y-44061D01*
X88216Y-44139D01*
X88978Y-44902D01*
X88919Y-44877D01*
X88851Y-44877D01*
X88064Y-44877D01*
X88002Y-44903D01*
X87954Y-44951D01*
X87928Y-45013D01*
X87928Y-45080D01*
X87895Y-45047D01*
X87811Y-44963D01*
X87604Y-44877D01*
X87380Y-44877D01*
X87173Y-44962D01*
X87014Y-45121D01*
X86928Y-45328D01*
X86928Y-45552D01*
X87014Y-45759D01*
X87144Y-45890D01*
X87109Y-45987D01*
X87492Y-46370D01*
X87875Y-45987D01*
X87839Y-45890D01*
X87928Y-45801D01*
X87928Y-45868D01*
X87954Y-45930D01*
X88002Y-45978D01*
X88020Y-45986D01*
X87993Y-46013D01*
X88038Y-46058D01*
X87992Y-46075D01*
X87945Y-46058D01*
X87562Y-46440D01*
X87945Y-46823D01*
X87992Y-46806D01*
X88038Y-46823D01*
X88421Y-46440D01*
X88415Y-46435D01*
X88486Y-46364D01*
X88492Y-46370D01*
X88497Y-46364D01*
X88568Y-46435D01*
X88562Y-46440D01*
X88945Y-46823D01*
X89050Y-46785D01*
X89139Y-46545D01*
X89130Y-46289D01*
X89050Y-46096D01*
X88945Y-46058D01*
X88990Y-46013D01*
X88963Y-45986D01*
X88981Y-45978D01*
X89029Y-45930D01*
X89055Y-45868D01*
X89055Y-45800D01*
X89055Y-45013D01*
X89031Y-44954D01*
X89588Y-45511D01*
X89588Y-46504D01*
X89588Y-48004D01*
X89139Y-48453D01*
X89139Y-47545D01*
X89130Y-47289D01*
X89050Y-47096D01*
X88945Y-47058D01*
X88875Y-47128D01*
X88875Y-46987D01*
X88857Y-46940D01*
X88875Y-46894D01*
X88492Y-46511D01*
X88421Y-46582D01*
X88109Y-46894D01*
X88126Y-46940D01*
X88109Y-46987D01*
X88492Y-47370D01*
X88875Y-46987D01*
X88875Y-47128D01*
X88562Y-47440D01*
X88945Y-47823D01*
X89050Y-47785D01*
X89139Y-47545D01*
X89139Y-48453D01*
X89136Y-48456D01*
X89130Y-48289D01*
X89050Y-48096D01*
X88945Y-48058D01*
X88875Y-48128D01*
X88875Y-47987D01*
X88857Y-47940D01*
X88875Y-47894D01*
X88492Y-47511D01*
X88421Y-47582D01*
X88421Y-47440D01*
X88038Y-47058D01*
X87992Y-47075D01*
X87945Y-47058D01*
X87875Y-47128D01*
X87875Y-46987D01*
X87857Y-46940D01*
X87875Y-46894D01*
X87492Y-46511D01*
X87421Y-46582D01*
X87421Y-46440D01*
X87038Y-46058D01*
X86933Y-46096D01*
X86844Y-46336D01*
X86853Y-46592D01*
X86933Y-46785D01*
X87038Y-46823D01*
X87421Y-46440D01*
X87421Y-46582D01*
X87109Y-46894D01*
X87126Y-46940D01*
X87109Y-46987D01*
X87492Y-47370D01*
X87875Y-46987D01*
X87875Y-47128D01*
X87562Y-47440D01*
X87945Y-47823D01*
X87992Y-47806D01*
X88038Y-47823D01*
X88421Y-47440D01*
X88421Y-47582D01*
X88109Y-47894D01*
X88126Y-47940D01*
X88109Y-47987D01*
X88492Y-48370D01*
X88875Y-47987D01*
X88875Y-48128D01*
X88562Y-48440D01*
X88568Y-48446D01*
X88497Y-48517D01*
X88492Y-48511D01*
X88421Y-48582D01*
X88421Y-48440D01*
X88038Y-48058D01*
X87992Y-48075D01*
X87945Y-48058D01*
X87875Y-48128D01*
X87875Y-47987D01*
X87857Y-47940D01*
X87875Y-47894D01*
X87492Y-47511D01*
X87421Y-47582D01*
X87421Y-47440D01*
X87038Y-47058D01*
X86933Y-47096D01*
X86844Y-47336D01*
X86853Y-47592D01*
X86933Y-47785D01*
X87038Y-47823D01*
X87421Y-47440D01*
X87421Y-47582D01*
X87109Y-47894D01*
X87126Y-47940D01*
X87109Y-47987D01*
X87492Y-48370D01*
X87875Y-47987D01*
X87875Y-48128D01*
X87562Y-48440D01*
X87945Y-48823D01*
X87992Y-48806D01*
X88038Y-48823D01*
X88421Y-48440D01*
X88421Y-48582D01*
X88109Y-48894D01*
X88144Y-48991D01*
X88014Y-49121D01*
X87992Y-49175D01*
X87970Y-49122D01*
X87839Y-48991D01*
X87875Y-48894D01*
X87492Y-48511D01*
X87486Y-48517D01*
X87415Y-48446D01*
X87421Y-48440D01*
X87038Y-48058D01*
X86933Y-48096D01*
X86844Y-48336D01*
X86853Y-48592D01*
X86905Y-48718D01*
X86410Y-48222D01*
X86410Y-44308D01*
X86410Y-43880D01*
X86359Y-43627D01*
X86216Y-43412D01*
X86001Y-43269D01*
X85748Y-43218D01*
X85494Y-43269D01*
X85279Y-43412D01*
X85136Y-43627D01*
X85085Y-43880D01*
X85085Y-44308D01*
X85136Y-44561D01*
X85279Y-44776D01*
X85494Y-44919D01*
X85748Y-44970D01*
X86001Y-44919D01*
X86216Y-44776D01*
X86359Y-44561D01*
X86410Y-44308D01*
X86410Y-48222D01*
X86246Y-48058D01*
X86168Y-48006D01*
X86076Y-47988D01*
X86056Y-47988D01*
X86056Y-47919D01*
X86030Y-47857D01*
X85982Y-47809D01*
X85920Y-47783D01*
X85852Y-47783D01*
X85402Y-47783D01*
X85340Y-47809D01*
X85292Y-47856D01*
X85266Y-47919D01*
X85266Y-47987D01*
X85266Y-48537D01*
X85292Y-48599D01*
X85339Y-48647D01*
X85402Y-48673D01*
X85469Y-48673D01*
X85919Y-48673D01*
X85982Y-48647D01*
X86030Y-48599D01*
X86053Y-48544D01*
X86928Y-49420D01*
X86928Y-49552D01*
X87014Y-49759D01*
X87172Y-49918D01*
X87379Y-50004D01*
X87603Y-50004D01*
X87810Y-49918D01*
X87969Y-49760D01*
X87992Y-49706D01*
X88014Y-49759D01*
X88172Y-49918D01*
X88379Y-50004D01*
X88603Y-50004D01*
X88810Y-49918D01*
X88969Y-49760D01*
X89055Y-49553D01*
X89055Y-49329D01*
X89022Y-49249D01*
X89998Y-48274D01*
X89998Y-48274D01*
X90050Y-48196D01*
X90068Y-48104D01*
X90068Y-48104D01*
X90068Y-46744D01*
X90619Y-46744D01*
X90542Y-46954D01*
X90552Y-47191D01*
X90623Y-47361D01*
X90723Y-47394D01*
X91071Y-47047D01*
X91065Y-47041D01*
X91136Y-46970D01*
X91141Y-46976D01*
X91147Y-46970D01*
X91218Y-47041D01*
X91212Y-47047D01*
X91218Y-47052D01*
X91147Y-47123D01*
X91141Y-47117D01*
X90794Y-47465D01*
X90827Y-47565D01*
X91049Y-47646D01*
X91193Y-47640D01*
X88998Y-49835D01*
X88945Y-49913D01*
X88927Y-50005D01*
X88927Y-50936D01*
X88743Y-50752D01*
X88665Y-50700D01*
X88573Y-50681D01*
X86237Y-50681D01*
X84098Y-48542D01*
X84098Y-47504D01*
X84149Y-47483D01*
X84294Y-47339D01*
X84350Y-47203D01*
X84406Y-47338D01*
X84550Y-47483D01*
X84581Y-47495D01*
X84581Y-47783D01*
X84552Y-47783D01*
X84490Y-47809D01*
X84442Y-47856D01*
X84416Y-47919D01*
X84416Y-47987D01*
X84416Y-48537D01*
X84442Y-48599D01*
X84489Y-48647D01*
X84552Y-48673D01*
X84619Y-48673D01*
X85069Y-48673D01*
X85132Y-48647D01*
X85180Y-48599D01*
X85206Y-48537D01*
X85206Y-48469D01*
X85206Y-47919D01*
X85180Y-47857D01*
X85132Y-47809D01*
X85070Y-47783D01*
X85041Y-47783D01*
X85041Y-47521D01*
X85133Y-47483D01*
X85278Y-47339D01*
X85356Y-47150D01*
X85357Y-46945D01*
X85278Y-46756D01*
X85134Y-46611D01*
X84945Y-46532D01*
X84740Y-46532D01*
X84551Y-46610D01*
X84406Y-46755D01*
X84350Y-46890D01*
X84294Y-46756D01*
X84150Y-46611D01*
X83961Y-46532D01*
X83756Y-46532D01*
X83567Y-46610D01*
X83422Y-46755D01*
X83411Y-46780D01*
X83392Y-46732D01*
X83292Y-46699D01*
X83221Y-46770D01*
X83221Y-46629D01*
X83188Y-46529D01*
X82966Y-46448D01*
X82730Y-46458D01*
X82630Y-46499D01*
X82630Y-44308D01*
X82630Y-43880D01*
X82580Y-43627D01*
X82436Y-43412D01*
X82221Y-43269D01*
X81968Y-43218D01*
X81715Y-43269D01*
X81500Y-43412D01*
X81356Y-43627D01*
X81306Y-43880D01*
X81306Y-44308D01*
X81356Y-44561D01*
X81500Y-44776D01*
X81715Y-44919D01*
X81968Y-44970D01*
X82221Y-44919D01*
X82436Y-44776D01*
X82580Y-44561D01*
X82630Y-44308D01*
X82630Y-46499D01*
X82559Y-46529D01*
X82526Y-46629D01*
X82874Y-46976D01*
X83221Y-46629D01*
X83221Y-46770D01*
X82944Y-47047D01*
X83292Y-47394D01*
X83392Y-47361D01*
X83410Y-47311D01*
X83421Y-47338D01*
X83566Y-47483D01*
X83618Y-47504D01*
X83618Y-48641D01*
X83636Y-48733D01*
X83688Y-48811D01*
X85968Y-51091D01*
X85968Y-51091D01*
X86046Y-51143D01*
X86138Y-51161D01*
X86138Y-51161D01*
X87431Y-51161D01*
X87346Y-51196D01*
X87220Y-51322D01*
X87152Y-51485D01*
X87152Y-51663D01*
X87220Y-51826D01*
X87345Y-51952D01*
X87358Y-51957D01*
X87358Y-65476D01*
X87376Y-65568D01*
X87428Y-65646D01*
X87658Y-65875D01*
X87625Y-65954D01*
X87625Y-66178D01*
X87710Y-66385D01*
X87841Y-66516D01*
X87806Y-66613D01*
X88188Y-66996D01*
X88571Y-66613D01*
X88536Y-66516D01*
X88666Y-66386D01*
X88752Y-66179D01*
X88752Y-65955D01*
X88666Y-65748D01*
X88508Y-65589D01*
X88454Y-65566D01*
X88507Y-65544D01*
X88666Y-65386D01*
X88752Y-65179D01*
X88752Y-64955D01*
X88666Y-64748D01*
X88536Y-64617D01*
X88571Y-64520D01*
X88188Y-64137D01*
X88183Y-64143D01*
X88112Y-64072D01*
X88118Y-64066D01*
X88112Y-64061D01*
X88183Y-63990D01*
X88188Y-63996D01*
X88194Y-63990D01*
X88265Y-64061D01*
X88259Y-64066D01*
X88642Y-64449D01*
X88747Y-64411D01*
X88836Y-64171D01*
X88832Y-64049D01*
X89147Y-64364D01*
X89147Y-68196D01*
X89165Y-68288D01*
X89217Y-68366D01*
X91637Y-70786D01*
X91637Y-70786D01*
X91646Y-70792D01*
X91646Y-70792D01*
X91501Y-70888D01*
X91315Y-71167D01*
X91250Y-71496D01*
X91315Y-71824D01*
X91501Y-72103D01*
X91780Y-72289D01*
X92109Y-72355D01*
X92142Y-72355D01*
X92471Y-72289D01*
X92750Y-72103D01*
X92936Y-71824D01*
X93001Y-71496D01*
X93001Y-68818D01*
X93001Y-65590D01*
X92936Y-65261D01*
X92750Y-64983D01*
X92471Y-64796D01*
X92142Y-64731D01*
X92109Y-64731D01*
X91780Y-64796D01*
X91501Y-64983D01*
X91489Y-65002D01*
X91489Y-63213D01*
X91141Y-62865D01*
X91071Y-62936D01*
X91071Y-62795D01*
X90723Y-62447D01*
X90623Y-62480D01*
X90542Y-62702D01*
X90552Y-62939D01*
X90623Y-63109D01*
X90723Y-63142D01*
X91071Y-62795D01*
X91071Y-62936D01*
X90794Y-63213D01*
X90827Y-63313D01*
X91049Y-63394D01*
X91285Y-63384D01*
X91456Y-63313D01*
X91489Y-63213D01*
X91489Y-65002D01*
X91315Y-65261D01*
X91250Y-65590D01*
X91315Y-65919D01*
X91501Y-66197D01*
X91780Y-66384D01*
X92109Y-66449D01*
X92142Y-66449D01*
X92471Y-66384D01*
X92750Y-66197D01*
X92936Y-65919D01*
X93001Y-65590D01*
X93001Y-68818D01*
X92936Y-68490D01*
X92750Y-68211D01*
X92471Y-68025D01*
X92142Y-67959D01*
X92109Y-67959D01*
X91780Y-68025D01*
X91501Y-68211D01*
X91315Y-68490D01*
X91250Y-68818D01*
X91315Y-69147D01*
X91501Y-69426D01*
X91780Y-69612D01*
X92109Y-69677D01*
X92142Y-69677D01*
X92471Y-69612D01*
X92750Y-69426D01*
X92936Y-69147D01*
X93001Y-68818D01*
X93001Y-71496D01*
X92936Y-71167D01*
X92750Y-70888D01*
X92471Y-70702D01*
X92365Y-70681D01*
X92365Y-70616D01*
X92347Y-70525D01*
X92295Y-70447D01*
X92217Y-70395D01*
X92125Y-70376D01*
X91906Y-70376D01*
X91214Y-69684D01*
X90283Y-68753D01*
X90325Y-68753D01*
X90325Y-68690D01*
X90471Y-68733D01*
X90588Y-68701D01*
X90904Y-68514D01*
X91123Y-68220D01*
X91214Y-67864D01*
X91214Y-67569D01*
X91214Y-67469D01*
X91214Y-67174D01*
X91123Y-66818D01*
X90904Y-66525D01*
X90588Y-66337D01*
X90471Y-66306D01*
X90325Y-66349D01*
X90325Y-67469D01*
X91214Y-67469D01*
X91214Y-67569D01*
X90325Y-67569D01*
X90325Y-67577D01*
X90225Y-67577D01*
X90225Y-67569D01*
X90217Y-67569D01*
X90217Y-67469D01*
X90225Y-67469D01*
X90225Y-66349D01*
X90079Y-66306D01*
X89962Y-66337D01*
X89646Y-66525D01*
X89627Y-66551D01*
X89627Y-64265D01*
X89627Y-64265D01*
X89609Y-64173D01*
X89556Y-64095D01*
X89556Y-64095D01*
X88719Y-63258D01*
X88752Y-63179D01*
X88752Y-62955D01*
X88666Y-62748D01*
X88508Y-62589D01*
X88454Y-62566D01*
X88507Y-62544D01*
X88666Y-62386D01*
X88752Y-62179D01*
X88752Y-61955D01*
X88719Y-61875D01*
X89597Y-60997D01*
X89649Y-60919D01*
X89667Y-60828D01*
X89667Y-60828D01*
X89667Y-60374D01*
X89768Y-60524D01*
X89982Y-60667D01*
X90236Y-60718D01*
X90489Y-60667D01*
X90704Y-60524D01*
X90847Y-60309D01*
X90898Y-60056D01*
X90898Y-59628D01*
X90847Y-59375D01*
X90704Y-59160D01*
X90489Y-59017D01*
X90236Y-58966D01*
X89982Y-59017D01*
X89768Y-59160D01*
X89667Y-59310D01*
X89667Y-56734D01*
X90987Y-55414D01*
X91038Y-55435D01*
X91243Y-55435D01*
X91432Y-55357D01*
X91577Y-55213D01*
X91633Y-55077D01*
X91689Y-55212D01*
X91834Y-55357D01*
X92023Y-55435D01*
X92227Y-55435D01*
X92417Y-55357D01*
X92561Y-55213D01*
X92618Y-55077D01*
X92673Y-55212D01*
X92818Y-55357D01*
X93007Y-55435D01*
X93212Y-55435D01*
X93401Y-55357D01*
X93546Y-55213D01*
X93624Y-55024D01*
X93624Y-54819D01*
X93546Y-54630D01*
X93402Y-54485D01*
X93213Y-54406D01*
X93008Y-54406D01*
X92819Y-54484D01*
X92674Y-54629D01*
X92618Y-54764D01*
X92562Y-54630D01*
X92417Y-54485D01*
X92228Y-54406D01*
X92024Y-54406D01*
X91834Y-54484D01*
X91690Y-54629D01*
X91633Y-54764D01*
X91578Y-54630D01*
X91433Y-54485D01*
X91244Y-54406D01*
X91039Y-54406D01*
X90898Y-54465D01*
X90898Y-52182D01*
X90898Y-51754D01*
X90847Y-51501D01*
X90704Y-51286D01*
X90489Y-51143D01*
X90236Y-51092D01*
X89982Y-51143D01*
X89768Y-51286D01*
X89624Y-51501D01*
X89574Y-51754D01*
X89574Y-52182D01*
X89624Y-52435D01*
X89768Y-52650D01*
X89982Y-52793D01*
X90236Y-52844D01*
X90489Y-52793D01*
X90704Y-52650D01*
X90847Y-52435D01*
X90898Y-52182D01*
X90898Y-54465D01*
X90850Y-54484D01*
X90705Y-54629D01*
X90627Y-54818D01*
X90627Y-55023D01*
X90648Y-55075D01*
X89407Y-56315D01*
X89407Y-50104D01*
X91972Y-47540D01*
X92023Y-47561D01*
X92227Y-47561D01*
X92417Y-47483D01*
X92561Y-47339D01*
X92618Y-47203D01*
X92673Y-47338D01*
X92818Y-47483D01*
X93007Y-47561D01*
X93212Y-47561D01*
X93273Y-47536D01*
X93546Y-47808D01*
X93545Y-47809D01*
X93497Y-47856D01*
X93471Y-47919D01*
X93471Y-47987D01*
X93471Y-48537D01*
X93497Y-48599D01*
X93544Y-48647D01*
X93607Y-48673D01*
X93675Y-48673D01*
X94125Y-48673D01*
X94187Y-48647D01*
X94235Y-48599D01*
X94261Y-48537D01*
X94261Y-48469D01*
X94261Y-47919D01*
X94235Y-47857D01*
X94187Y-47809D01*
X94125Y-47783D01*
X94092Y-47783D01*
X94078Y-47715D01*
X94078Y-47715D01*
X94028Y-47640D01*
X93599Y-47211D01*
X93624Y-47150D01*
X93624Y-47011D01*
X94414Y-47801D01*
X94395Y-47809D01*
X94347Y-47856D01*
X94321Y-47919D01*
X94321Y-47987D01*
X94321Y-48537D01*
X94347Y-48599D01*
X94394Y-48647D01*
X94457Y-48673D01*
X94525Y-48673D01*
X94975Y-48673D01*
X95037Y-48647D01*
X95085Y-48599D01*
X95111Y-48537D01*
X95111Y-48469D01*
X95111Y-81326D01*
X94677Y-81326D01*
X94677Y-60056D01*
X94677Y-59628D01*
X94677Y-52182D01*
X94677Y-51754D01*
X94627Y-51501D01*
X94483Y-51286D01*
X94269Y-51143D01*
X94015Y-51092D01*
X93762Y-51143D01*
X93547Y-51286D01*
X93404Y-51501D01*
X93353Y-51754D01*
X93353Y-52182D01*
X93404Y-52435D01*
X93547Y-52650D01*
X93762Y-52793D01*
X94015Y-52844D01*
X94269Y-52793D01*
X94483Y-52650D01*
X94627Y-52435D01*
X94677Y-52182D01*
X94677Y-59628D01*
X94627Y-59375D01*
X94483Y-59160D01*
X94269Y-59017D01*
X94015Y-58966D01*
X93762Y-59017D01*
X93547Y-59160D01*
X93404Y-59375D01*
X93353Y-59628D01*
X93353Y-60056D01*
X93404Y-60309D01*
X93547Y-60524D01*
X93762Y-60667D01*
X94015Y-60718D01*
X94269Y-60667D01*
X94483Y-60524D01*
X94627Y-60309D01*
X94677Y-60056D01*
X94677Y-81326D01*
X94620Y-81326D01*
X94620Y-79675D01*
X94620Y-79380D01*
X94620Y-79280D01*
X94620Y-78985D01*
X94620Y-73770D01*
X94620Y-73475D01*
X94620Y-73375D01*
X94620Y-73079D01*
X94620Y-67864D01*
X94620Y-67569D01*
X94620Y-67469D01*
X94620Y-67174D01*
X94551Y-66931D01*
X94396Y-66733D01*
X94176Y-66610D01*
X94126Y-66598D01*
X94026Y-66645D01*
X94026Y-67469D01*
X94620Y-67469D01*
X94620Y-67569D01*
X94026Y-67569D01*
X94026Y-68394D01*
X94126Y-68440D01*
X94176Y-68428D01*
X94396Y-68305D01*
X94551Y-68107D01*
X94620Y-67864D01*
X94620Y-73079D01*
X94551Y-72837D01*
X94396Y-72639D01*
X94176Y-72516D01*
X94126Y-72503D01*
X94026Y-72550D01*
X94026Y-73375D01*
X94620Y-73375D01*
X94620Y-73475D01*
X94026Y-73475D01*
X94026Y-74299D01*
X94126Y-74346D01*
X94176Y-74334D01*
X94396Y-74210D01*
X94551Y-74013D01*
X94620Y-73770D01*
X94620Y-78985D01*
X94551Y-78742D01*
X94396Y-78544D01*
X94176Y-78421D01*
X94126Y-78409D01*
X94026Y-78456D01*
X94026Y-79280D01*
X94620Y-79280D01*
X94620Y-79380D01*
X94026Y-79380D01*
X94026Y-80205D01*
X94126Y-80252D01*
X94176Y-80239D01*
X94396Y-80116D01*
X94551Y-79918D01*
X94620Y-79675D01*
X94620Y-81326D01*
X93926Y-81326D01*
X93926Y-80205D01*
X93926Y-79380D01*
X93926Y-79280D01*
X93926Y-78456D01*
X93926Y-74299D01*
X93926Y-73475D01*
X93926Y-73375D01*
X93926Y-72550D01*
X93926Y-68394D01*
X93926Y-67569D01*
X93926Y-67469D01*
X93926Y-66645D01*
X93826Y-66598D01*
X93776Y-66610D01*
X93624Y-66695D01*
X93624Y-62693D01*
X93546Y-62504D01*
X93402Y-62359D01*
X93213Y-62280D01*
X93008Y-62280D01*
X92819Y-62358D01*
X92674Y-62503D01*
X92618Y-62638D01*
X92562Y-62504D01*
X92417Y-62359D01*
X92228Y-62280D01*
X92024Y-62280D01*
X91834Y-62358D01*
X91690Y-62503D01*
X91679Y-62528D01*
X91659Y-62480D01*
X91559Y-62447D01*
X91489Y-62518D01*
X91489Y-62377D01*
X91456Y-62277D01*
X91234Y-62196D01*
X90997Y-62206D01*
X90827Y-62277D01*
X90794Y-62377D01*
X91141Y-62724D01*
X91489Y-62377D01*
X91489Y-62518D01*
X91212Y-62795D01*
X91559Y-63142D01*
X91659Y-63109D01*
X91678Y-63059D01*
X91689Y-63086D01*
X91834Y-63231D01*
X92023Y-63309D01*
X92227Y-63309D01*
X92417Y-63231D01*
X92561Y-63087D01*
X92618Y-62951D01*
X92673Y-63086D01*
X92818Y-63231D01*
X93007Y-63309D01*
X93212Y-63309D01*
X93401Y-63231D01*
X93546Y-63087D01*
X93624Y-62898D01*
X93624Y-62693D01*
X93624Y-66695D01*
X93556Y-66733D01*
X93400Y-66931D01*
X93332Y-67174D01*
X93332Y-67469D01*
X93926Y-67469D01*
X93926Y-67569D01*
X93332Y-67569D01*
X93332Y-67864D01*
X93400Y-68107D01*
X93556Y-68305D01*
X93776Y-68428D01*
X93826Y-68440D01*
X93926Y-68394D01*
X93926Y-72550D01*
X93826Y-72503D01*
X93776Y-72516D01*
X93556Y-72639D01*
X93400Y-72837D01*
X93332Y-73079D01*
X93332Y-73375D01*
X93926Y-73375D01*
X93926Y-73475D01*
X93332Y-73475D01*
X93332Y-73770D01*
X93400Y-74013D01*
X93556Y-74210D01*
X93776Y-74334D01*
X93826Y-74346D01*
X93926Y-74299D01*
X93926Y-78456D01*
X93826Y-78409D01*
X93776Y-78421D01*
X93556Y-78544D01*
X93400Y-78742D01*
X93332Y-78985D01*
X93332Y-79280D01*
X93926Y-79280D01*
X93926Y-79380D01*
X93332Y-79380D01*
X93332Y-79675D01*
X93400Y-79918D01*
X93556Y-80116D01*
X93776Y-80239D01*
X93826Y-80252D01*
X93926Y-80205D01*
X93926Y-81326D01*
X92616Y-81326D01*
X92750Y-81237D01*
X92936Y-80958D01*
X93001Y-80629D01*
X93001Y-77401D01*
X93001Y-74724D01*
X92936Y-74395D01*
X92750Y-74117D01*
X92471Y-73930D01*
X92142Y-73865D01*
X92109Y-73865D01*
X91780Y-73930D01*
X91501Y-74117D01*
X91315Y-74395D01*
X91250Y-74724D01*
X91315Y-75053D01*
X91501Y-75331D01*
X91780Y-75518D01*
X92109Y-75583D01*
X92142Y-75583D01*
X92471Y-75518D01*
X92750Y-75331D01*
X92936Y-75053D01*
X93001Y-74724D01*
X93001Y-77401D01*
X92936Y-77072D01*
X92750Y-76794D01*
X92471Y-76607D01*
X92142Y-76542D01*
X92109Y-76542D01*
X91780Y-76607D01*
X91501Y-76794D01*
X91315Y-77072D01*
X91250Y-77401D01*
X91315Y-77730D01*
X91501Y-78008D01*
X91780Y-78195D01*
X92109Y-78260D01*
X92142Y-78260D01*
X92471Y-78195D01*
X92750Y-78008D01*
X92936Y-77730D01*
X93001Y-77401D01*
X93001Y-80629D01*
X92936Y-80301D01*
X92750Y-80022D01*
X92471Y-79836D01*
X92142Y-79770D01*
X92109Y-79770D01*
X91780Y-79836D01*
X91501Y-80022D01*
X91315Y-80301D01*
X91250Y-80629D01*
X91315Y-80958D01*
X91501Y-81237D01*
X91635Y-81326D01*
X91214Y-81326D01*
X91214Y-79675D01*
X91214Y-79380D01*
X91214Y-79280D01*
X91214Y-78985D01*
X91214Y-73770D01*
X91214Y-73475D01*
X91214Y-73375D01*
X91214Y-73079D01*
X91123Y-72724D01*
X90904Y-72430D01*
X90588Y-72243D01*
X90471Y-72211D01*
X90325Y-72254D01*
X90325Y-73375D01*
X91214Y-73375D01*
X91214Y-73475D01*
X90325Y-73475D01*
X90325Y-74595D01*
X90471Y-74638D01*
X90588Y-74607D01*
X90904Y-74419D01*
X91123Y-74125D01*
X91214Y-73770D01*
X91214Y-78985D01*
X91123Y-78629D01*
X90904Y-78336D01*
X90588Y-78148D01*
X90471Y-78117D01*
X90325Y-78160D01*
X90325Y-79280D01*
X91214Y-79280D01*
X91214Y-79380D01*
X90325Y-79380D01*
X90325Y-80501D01*
X90471Y-80544D01*
X90588Y-80512D01*
X90904Y-80325D01*
X91123Y-80031D01*
X91214Y-79675D01*
X91214Y-81326D01*
X90225Y-81326D01*
X90225Y-80501D01*
X90225Y-79380D01*
X90225Y-79280D01*
X90225Y-78160D01*
X90225Y-74595D01*
X90225Y-73475D01*
X90225Y-73375D01*
X90225Y-72254D01*
X90079Y-72211D01*
X89962Y-72243D01*
X89646Y-72430D01*
X89427Y-72724D01*
X89336Y-73079D01*
X89336Y-73375D01*
X90225Y-73375D01*
X90225Y-73475D01*
X89336Y-73475D01*
X89336Y-73770D01*
X89427Y-74125D01*
X89646Y-74419D01*
X89962Y-74607D01*
X90079Y-74638D01*
X90225Y-74595D01*
X90225Y-78160D01*
X90079Y-78117D01*
X89962Y-78148D01*
X89646Y-78336D01*
X89427Y-78629D01*
X89336Y-78985D01*
X89336Y-79280D01*
X90225Y-79280D01*
X90225Y-79380D01*
X89336Y-79380D01*
X89336Y-79675D01*
X89427Y-80031D01*
X89646Y-80325D01*
X89962Y-80512D01*
X90079Y-80544D01*
X90225Y-80501D01*
X90225Y-81326D01*
X88836Y-81326D01*
X88836Y-67171D01*
X88827Y-66915D01*
X88747Y-66722D01*
X88642Y-66684D01*
X88259Y-67066D01*
X88642Y-67449D01*
X88747Y-67411D01*
X88836Y-67171D01*
X88836Y-81326D01*
X88752Y-81326D01*
X88752Y-68955D01*
X88666Y-68748D01*
X88508Y-68589D01*
X88454Y-68566D01*
X88507Y-68544D01*
X88666Y-68386D01*
X88752Y-68179D01*
X88752Y-67955D01*
X88666Y-67748D01*
X88536Y-67617D01*
X88571Y-67520D01*
X88188Y-67137D01*
X88118Y-67208D01*
X88118Y-67066D01*
X87735Y-66684D01*
X87630Y-66722D01*
X87541Y-66962D01*
X87550Y-67218D01*
X87630Y-67411D01*
X87735Y-67449D01*
X88118Y-67066D01*
X88118Y-67208D01*
X87806Y-67520D01*
X87841Y-67617D01*
X87711Y-67747D01*
X87625Y-67954D01*
X87625Y-68178D01*
X87710Y-68385D01*
X87869Y-68544D01*
X87923Y-68566D01*
X87870Y-68588D01*
X87711Y-68747D01*
X87625Y-68954D01*
X87625Y-69178D01*
X87710Y-69385D01*
X87828Y-69503D01*
X87761Y-69503D01*
X87699Y-69529D01*
X87651Y-69577D01*
X87625Y-69639D01*
X87625Y-69707D01*
X87625Y-70494D01*
X87651Y-70556D01*
X87699Y-70604D01*
X87761Y-70630D01*
X87829Y-70630D01*
X88616Y-70630D01*
X88678Y-70604D01*
X88726Y-70556D01*
X88752Y-70494D01*
X88752Y-70426D01*
X88752Y-69639D01*
X88726Y-69577D01*
X88678Y-69529D01*
X88616Y-69503D01*
X88549Y-69503D01*
X88666Y-69386D01*
X88752Y-69179D01*
X88752Y-68955D01*
X88752Y-81326D01*
X86410Y-81326D01*
X86410Y-60056D01*
X86410Y-59628D01*
X86410Y-52182D01*
X86410Y-51754D01*
X86359Y-51501D01*
X86216Y-51286D01*
X86001Y-51143D01*
X85748Y-51092D01*
X85494Y-51143D01*
X85279Y-51286D01*
X85136Y-51501D01*
X85085Y-51754D01*
X85085Y-52182D01*
X85136Y-52435D01*
X85279Y-52650D01*
X85494Y-52793D01*
X85748Y-52844D01*
X86001Y-52793D01*
X86216Y-52650D01*
X86359Y-52435D01*
X86410Y-52182D01*
X86410Y-59628D01*
X86359Y-59375D01*
X86216Y-59160D01*
X86001Y-59017D01*
X85748Y-58966D01*
X85494Y-59017D01*
X85357Y-59109D01*
X85357Y-54819D01*
X85278Y-54630D01*
X85134Y-54485D01*
X84945Y-54406D01*
X84740Y-54406D01*
X84551Y-54484D01*
X84406Y-54629D01*
X84350Y-54764D01*
X84294Y-54630D01*
X84150Y-54485D01*
X83961Y-54406D01*
X83756Y-54406D01*
X83567Y-54484D01*
X83422Y-54629D01*
X83366Y-54764D01*
X83310Y-54630D01*
X83221Y-54541D01*
X83221Y-47465D01*
X82874Y-47117D01*
X82803Y-47188D01*
X82803Y-47047D01*
X82455Y-46699D01*
X82355Y-46732D01*
X82274Y-46954D01*
X82285Y-47191D01*
X82355Y-47361D01*
X82455Y-47394D01*
X82803Y-47047D01*
X82803Y-47188D01*
X82526Y-47465D01*
X82559Y-47565D01*
X82781Y-47646D01*
X83017Y-47636D01*
X83188Y-47565D01*
X83221Y-47465D01*
X83221Y-54541D01*
X83165Y-54485D01*
X82976Y-54406D01*
X82772Y-54406D01*
X82630Y-54465D01*
X82630Y-52182D01*
X82630Y-51754D01*
X82580Y-51501D01*
X82436Y-51286D01*
X82221Y-51143D01*
X81968Y-51092D01*
X81715Y-51143D01*
X81500Y-51286D01*
X81356Y-51501D01*
X81306Y-51754D01*
X81306Y-52182D01*
X81356Y-52435D01*
X81500Y-52650D01*
X81715Y-52793D01*
X81968Y-52844D01*
X82221Y-52793D01*
X82436Y-52650D01*
X82580Y-52435D01*
X82630Y-52182D01*
X82630Y-54465D01*
X82582Y-54484D01*
X82438Y-54629D01*
X82359Y-54818D01*
X82359Y-55023D01*
X82437Y-55212D01*
X82582Y-55357D01*
X82771Y-55435D01*
X82975Y-55435D01*
X83165Y-55357D01*
X83309Y-55213D01*
X83366Y-55077D01*
X83421Y-55212D01*
X83566Y-55357D01*
X83755Y-55435D01*
X83960Y-55435D01*
X84149Y-55357D01*
X84294Y-55213D01*
X84350Y-55077D01*
X84406Y-55212D01*
X84550Y-55357D01*
X84739Y-55435D01*
X84944Y-55435D01*
X85133Y-55357D01*
X85278Y-55213D01*
X85356Y-55024D01*
X85357Y-54819D01*
X85357Y-59109D01*
X85279Y-59160D01*
X85136Y-59375D01*
X85085Y-59628D01*
X85085Y-60056D01*
X85136Y-60309D01*
X85279Y-60524D01*
X85494Y-60667D01*
X85748Y-60718D01*
X86001Y-60667D01*
X86216Y-60524D01*
X86359Y-60309D01*
X86410Y-60056D01*
X86410Y-81326D01*
X86352Y-81326D01*
X86352Y-79675D01*
X86352Y-79380D01*
X86352Y-79280D01*
X86352Y-78985D01*
X86352Y-73770D01*
X86352Y-73475D01*
X86352Y-73375D01*
X86352Y-73079D01*
X86352Y-67864D01*
X86352Y-67569D01*
X86352Y-67469D01*
X86352Y-67174D01*
X86284Y-66931D01*
X86128Y-66733D01*
X85908Y-66610D01*
X85858Y-66598D01*
X85758Y-66645D01*
X85758Y-67469D01*
X86352Y-67469D01*
X86352Y-67569D01*
X85758Y-67569D01*
X85758Y-68394D01*
X85858Y-68440D01*
X85908Y-68428D01*
X86128Y-68305D01*
X86284Y-68107D01*
X86352Y-67864D01*
X86352Y-73079D01*
X86284Y-72837D01*
X86128Y-72639D01*
X85908Y-72516D01*
X85858Y-72503D01*
X85758Y-72550D01*
X85758Y-73375D01*
X86352Y-73375D01*
X86352Y-73475D01*
X85758Y-73475D01*
X85758Y-74299D01*
X85858Y-74346D01*
X85908Y-74334D01*
X86128Y-74210D01*
X86284Y-74013D01*
X86352Y-73770D01*
X86352Y-78985D01*
X86284Y-78742D01*
X86128Y-78544D01*
X85908Y-78421D01*
X85858Y-78409D01*
X85758Y-78456D01*
X85758Y-79280D01*
X86352Y-79280D01*
X86352Y-79380D01*
X85758Y-79380D01*
X85758Y-80205D01*
X85858Y-80252D01*
X85908Y-80239D01*
X86128Y-80116D01*
X86284Y-79918D01*
X86352Y-79675D01*
X86352Y-81326D01*
X85658Y-81326D01*
X85658Y-80205D01*
X85658Y-79380D01*
X85658Y-79280D01*
X85658Y-78456D01*
X85658Y-74299D01*
X85658Y-73475D01*
X85658Y-73375D01*
X85658Y-72550D01*
X85658Y-68394D01*
X85658Y-67569D01*
X85658Y-67469D01*
X85658Y-66645D01*
X85558Y-66598D01*
X85508Y-66610D01*
X85357Y-66695D01*
X85357Y-62693D01*
X85278Y-62504D01*
X85134Y-62359D01*
X84945Y-62280D01*
X84740Y-62280D01*
X84551Y-62358D01*
X84406Y-62503D01*
X84350Y-62638D01*
X84294Y-62504D01*
X84150Y-62359D01*
X83961Y-62280D01*
X83756Y-62280D01*
X83567Y-62358D01*
X83422Y-62503D01*
X83411Y-62528D01*
X83392Y-62480D01*
X83292Y-62447D01*
X83221Y-62518D01*
X83221Y-62377D01*
X83188Y-62277D01*
X82966Y-62196D01*
X82730Y-62206D01*
X82630Y-62247D01*
X82630Y-60056D01*
X82630Y-59628D01*
X82580Y-59375D01*
X82436Y-59160D01*
X82221Y-59017D01*
X81968Y-58966D01*
X81715Y-59017D01*
X81500Y-59160D01*
X81356Y-59375D01*
X81306Y-59628D01*
X81306Y-60056D01*
X81356Y-60309D01*
X81500Y-60524D01*
X81715Y-60667D01*
X81968Y-60718D01*
X82221Y-60667D01*
X82436Y-60524D01*
X82580Y-60309D01*
X82630Y-60056D01*
X82630Y-62247D01*
X82559Y-62277D01*
X82526Y-62377D01*
X82874Y-62724D01*
X83221Y-62377D01*
X83221Y-62518D01*
X82944Y-62795D01*
X83292Y-63142D01*
X83392Y-63109D01*
X83410Y-63059D01*
X83421Y-63086D01*
X83566Y-63231D01*
X83755Y-63309D01*
X83960Y-63309D01*
X84149Y-63231D01*
X84294Y-63087D01*
X84350Y-62951D01*
X84406Y-63086D01*
X84550Y-63231D01*
X84739Y-63309D01*
X84944Y-63309D01*
X85133Y-63231D01*
X85278Y-63087D01*
X85356Y-62898D01*
X85357Y-62693D01*
X85357Y-66695D01*
X85288Y-66733D01*
X85133Y-66931D01*
X85064Y-67174D01*
X85064Y-67469D01*
X85658Y-67469D01*
X85658Y-67569D01*
X85064Y-67569D01*
X85064Y-67864D01*
X85133Y-68107D01*
X85288Y-68305D01*
X85508Y-68428D01*
X85558Y-68440D01*
X85658Y-68394D01*
X85658Y-72550D01*
X85558Y-72503D01*
X85508Y-72516D01*
X85288Y-72639D01*
X85133Y-72837D01*
X85064Y-73079D01*
X85064Y-73375D01*
X85658Y-73375D01*
X85658Y-73475D01*
X85064Y-73475D01*
X85064Y-73770D01*
X85133Y-74013D01*
X85288Y-74210D01*
X85508Y-74334D01*
X85558Y-74346D01*
X85658Y-74299D01*
X85658Y-78456D01*
X85558Y-78409D01*
X85508Y-78421D01*
X85288Y-78544D01*
X85133Y-78742D01*
X85064Y-78985D01*
X85064Y-79280D01*
X85658Y-79280D01*
X85658Y-79380D01*
X85064Y-79380D01*
X85064Y-79675D01*
X85133Y-79918D01*
X85288Y-80116D01*
X85508Y-80239D01*
X85558Y-80252D01*
X85658Y-80205D01*
X85658Y-81326D01*
X84349Y-81326D01*
X84482Y-81237D01*
X84668Y-80958D01*
X84734Y-80629D01*
X84734Y-77401D01*
X84734Y-74724D01*
X84734Y-71496D01*
X84734Y-68818D01*
X84734Y-65590D01*
X84668Y-65261D01*
X84482Y-64983D01*
X84203Y-64796D01*
X83875Y-64731D01*
X83841Y-64731D01*
X83512Y-64796D01*
X83234Y-64983D01*
X83221Y-65002D01*
X83221Y-63213D01*
X82874Y-62865D01*
X82803Y-62936D01*
X82803Y-62795D01*
X82455Y-62447D01*
X82355Y-62480D01*
X82274Y-62702D01*
X82285Y-62939D01*
X82355Y-63109D01*
X82455Y-63142D01*
X82803Y-62795D01*
X82803Y-62936D01*
X82526Y-63213D01*
X82559Y-63313D01*
X82781Y-63394D01*
X83017Y-63384D01*
X83188Y-63313D01*
X83221Y-63213D01*
X83221Y-65002D01*
X83047Y-65261D01*
X82982Y-65590D01*
X83047Y-65919D01*
X83234Y-66197D01*
X83512Y-66384D01*
X83841Y-66449D01*
X83875Y-66449D01*
X84203Y-66384D01*
X84482Y-66197D01*
X84668Y-65919D01*
X84734Y-65590D01*
X84734Y-68818D01*
X84668Y-68490D01*
X84482Y-68211D01*
X84203Y-68025D01*
X83875Y-67959D01*
X83841Y-67959D01*
X83512Y-68025D01*
X83234Y-68211D01*
X83047Y-68490D01*
X82982Y-68818D01*
X83047Y-69147D01*
X83234Y-69426D01*
X83512Y-69612D01*
X83841Y-69677D01*
X83875Y-69677D01*
X84203Y-69612D01*
X84482Y-69426D01*
X84668Y-69147D01*
X84734Y-68818D01*
X84734Y-71496D01*
X84668Y-71167D01*
X84482Y-70888D01*
X84203Y-70702D01*
X83875Y-70637D01*
X83841Y-70637D01*
X83512Y-70702D01*
X83234Y-70888D01*
X83047Y-71167D01*
X82982Y-71496D01*
X83047Y-71824D01*
X83234Y-72103D01*
X83512Y-72289D01*
X83841Y-72355D01*
X83875Y-72355D01*
X84203Y-72289D01*
X84482Y-72103D01*
X84668Y-71824D01*
X84734Y-71496D01*
X84734Y-74724D01*
X84668Y-74395D01*
X84482Y-74117D01*
X84203Y-73930D01*
X83875Y-73865D01*
X83841Y-73865D01*
X83512Y-73930D01*
X83234Y-74117D01*
X83047Y-74395D01*
X82982Y-74724D01*
X83047Y-75053D01*
X83234Y-75331D01*
X83512Y-75518D01*
X83841Y-75583D01*
X83875Y-75583D01*
X84203Y-75518D01*
X84482Y-75331D01*
X84668Y-75053D01*
X84734Y-74724D01*
X84734Y-77401D01*
X84668Y-77072D01*
X84482Y-76794D01*
X84203Y-76607D01*
X83875Y-76542D01*
X83841Y-76542D01*
X83512Y-76607D01*
X83234Y-76794D01*
X83047Y-77072D01*
X82982Y-77401D01*
X83047Y-77730D01*
X83234Y-78008D01*
X83512Y-78195D01*
X83841Y-78260D01*
X83875Y-78260D01*
X84203Y-78195D01*
X84482Y-78008D01*
X84668Y-77730D01*
X84734Y-77401D01*
X84734Y-80629D01*
X84668Y-80301D01*
X84482Y-80022D01*
X84203Y-79836D01*
X83875Y-79770D01*
X83841Y-79770D01*
X83512Y-79836D01*
X83234Y-80022D01*
X83047Y-80301D01*
X82982Y-80629D01*
X83047Y-80958D01*
X83234Y-81237D01*
X83367Y-81326D01*
X82946Y-81326D01*
X82946Y-79675D01*
X82946Y-79380D01*
X82946Y-79280D01*
X82946Y-78985D01*
X82946Y-73770D01*
X82946Y-73475D01*
X82946Y-73375D01*
X82946Y-73079D01*
X82946Y-67864D01*
X82946Y-67569D01*
X82946Y-67469D01*
X82946Y-67174D01*
X82856Y-66818D01*
X82636Y-66525D01*
X82321Y-66337D01*
X82203Y-66306D01*
X82057Y-66349D01*
X82057Y-67469D01*
X82946Y-67469D01*
X82946Y-67569D01*
X82057Y-67569D01*
X82057Y-68690D01*
X82203Y-68733D01*
X82321Y-68701D01*
X82636Y-68514D01*
X82856Y-68220D01*
X82946Y-67864D01*
X82946Y-73079D01*
X82856Y-72724D01*
X82636Y-72430D01*
X82321Y-72243D01*
X82203Y-72211D01*
X82057Y-72254D01*
X82057Y-73375D01*
X82946Y-73375D01*
X82946Y-73475D01*
X82057Y-73475D01*
X82057Y-74595D01*
X82203Y-74638D01*
X82321Y-74607D01*
X82636Y-74419D01*
X82856Y-74125D01*
X82946Y-73770D01*
X82946Y-78985D01*
X82856Y-78629D01*
X82636Y-78336D01*
X82321Y-78148D01*
X82203Y-78117D01*
X82057Y-78160D01*
X82057Y-79280D01*
X82946Y-79280D01*
X82946Y-79380D01*
X82057Y-79380D01*
X82057Y-80501D01*
X82203Y-80544D01*
X82321Y-80512D01*
X82636Y-80325D01*
X82856Y-80031D01*
X82946Y-79675D01*
X82946Y-81326D01*
X81957Y-81326D01*
X81957Y-80501D01*
X81957Y-79380D01*
X81957Y-79280D01*
X81957Y-78160D01*
X81957Y-74595D01*
X81957Y-73475D01*
X81957Y-73375D01*
X81957Y-72254D01*
X81957Y-68690D01*
X81957Y-67569D01*
X81957Y-67469D01*
X81957Y-66349D01*
X81811Y-66306D01*
X81694Y-66337D01*
X81379Y-66525D01*
X81159Y-66818D01*
X81068Y-67174D01*
X81068Y-67469D01*
X81957Y-67469D01*
X81957Y-67569D01*
X81068Y-67569D01*
X81068Y-67864D01*
X81159Y-68220D01*
X81379Y-68514D01*
X81694Y-68701D01*
X81811Y-68733D01*
X81957Y-68690D01*
X81957Y-72254D01*
X81811Y-72211D01*
X81694Y-72243D01*
X81379Y-72430D01*
X81159Y-72724D01*
X81068Y-73079D01*
X81068Y-73375D01*
X81957Y-73375D01*
X81957Y-73475D01*
X81068Y-73475D01*
X81068Y-73770D01*
X81159Y-74125D01*
X81379Y-74419D01*
X81694Y-74607D01*
X81811Y-74638D01*
X81957Y-74595D01*
X81957Y-78160D01*
X81811Y-78117D01*
X81694Y-78148D01*
X81379Y-78336D01*
X81159Y-78629D01*
X81068Y-78985D01*
X81068Y-79280D01*
X81957Y-79280D01*
X81957Y-79380D01*
X81068Y-79380D01*
X81068Y-79675D01*
X81159Y-80031D01*
X81379Y-80325D01*
X81694Y-80512D01*
X81811Y-80544D01*
X81957Y-80501D01*
X81957Y-81326D01*
X80484Y-81326D01*
X80484Y-42295D01*
X95499Y-42295D01*
X95499Y-81326D01*
M02*
