G04 (created by PCBNEW (2013-07-07 BZR 4022)-stable) date 2014-05-25 11:12:15 PM*
%MOIN*%
G04 Gerber Fmt 3.4, Leading zero omitted, Abs format*
%FSLAX34Y34*%
G01*
G70*
G90*
G04 APERTURE LIST*
%ADD10C,0.00590551*%
%ADD11R,0.045X0.055*%
%ADD12O,0.137795X0.19685*%
%ADD13O,0.0787402X0.137795*%
%ADD14O,0.137795X0.137795*%
%ADD15R,0.0787X0.0787*%
%ADD16C,0.0787*%
%ADD17O,0.0984252X0.137795*%
%ADD18C,0.0688976*%
%ADD19R,0.0551181X0.0551181*%
%ADD20C,0.0551181*%
G04 APERTURE END LIST*
G54D10*
G54D11*
X94716Y-48228D03*
X93866Y-48228D03*
X85661Y-48228D03*
X84811Y-48228D03*
G54D12*
X90275Y-73425D03*
G54D13*
X93976Y-73425D03*
G54D14*
X92125Y-71496D03*
X92125Y-74724D03*
G54D12*
X82007Y-73425D03*
G54D13*
X85708Y-73425D03*
G54D14*
X83858Y-71496D03*
X83858Y-74724D03*
G54D12*
X90275Y-79330D03*
G54D13*
X93976Y-79330D03*
G54D14*
X92125Y-77401D03*
X92125Y-80629D03*
G54D12*
X82007Y-79330D03*
G54D13*
X85708Y-79330D03*
G54D14*
X83858Y-77401D03*
X83858Y-80629D03*
G54D12*
X82007Y-67519D03*
G54D13*
X85708Y-67519D03*
G54D14*
X83858Y-65590D03*
X83858Y-68818D03*
G54D12*
X90275Y-67519D03*
G54D13*
X93976Y-67519D03*
G54D14*
X92125Y-65590D03*
X92125Y-68818D03*
G54D15*
X88188Y-70066D03*
G54D16*
X88188Y-69066D03*
X88188Y-68066D03*
X88188Y-67066D03*
X88188Y-66066D03*
X88188Y-65066D03*
X88188Y-64066D03*
X88188Y-63066D03*
X88188Y-62066D03*
X88188Y-61066D03*
X88188Y-60066D03*
X88188Y-59066D03*
X88492Y-48440D03*
X88492Y-47440D03*
X88492Y-49440D03*
X88492Y-46440D03*
G54D15*
X88492Y-45440D03*
G54D16*
X87492Y-45440D03*
X87492Y-46440D03*
X87492Y-47440D03*
X87492Y-48440D03*
X87492Y-49440D03*
G54D17*
X94015Y-59842D03*
X90236Y-59842D03*
G54D18*
X93110Y-62795D03*
X92125Y-62795D03*
X91141Y-62795D03*
G54D17*
X85748Y-44094D03*
X81968Y-44094D03*
G54D18*
X84842Y-47047D03*
X83858Y-47047D03*
X82874Y-47047D03*
G54D17*
X85748Y-51968D03*
X81968Y-51968D03*
G54D18*
X84842Y-54921D03*
X83858Y-54921D03*
X82874Y-54921D03*
G54D17*
X85748Y-59842D03*
X81968Y-59842D03*
G54D18*
X84842Y-62795D03*
X83858Y-62795D03*
X82874Y-62795D03*
G54D17*
X94015Y-51968D03*
X90236Y-51968D03*
G54D18*
X93110Y-54921D03*
X92125Y-54921D03*
X91141Y-54921D03*
G54D17*
X94015Y-44094D03*
X90236Y-44094D03*
G54D18*
X93110Y-47047D03*
X92125Y-47047D03*
X91141Y-47047D03*
G54D19*
X88385Y-43503D03*
G54D20*
X87598Y-43503D03*
G54D19*
X88385Y-51574D03*
G54D20*
X87598Y-51574D03*
M02*
