G04 (created by PCBNEW (2013-07-07 BZR 4022)-stable) date 2014-05-25 11:12:15 PM*
%MOIN*%
G04 Gerber Fmt 3.4, Leading zero omitted, Abs format*
%FSLAX34Y34*%
G01*
G70*
G90*
G04 APERTURE LIST*
%ADD10C,0.00590551*%
%ADD11C,0.005*%
%ADD12C,0.015*%
%ADD13C,0.006*%
%ADD14R,0.045X0.055*%
%ADD15O,0.137795X0.19685*%
%ADD16O,0.0787402X0.137795*%
%ADD17O,0.137795X0.137795*%
%ADD18R,0.0787X0.0787*%
%ADD19C,0.0787*%
%ADD20O,0.0984252X0.137795*%
%ADD21C,0.0688976*%
%ADD22R,0.0551181X0.0551181*%
%ADD23C,0.0551181*%
G04 APERTURE END LIST*
G54D10*
G54D11*
X94571Y-47928D02*
X94971Y-47928D01*
X94971Y-47928D02*
X94971Y-48528D01*
X94971Y-48528D02*
X94571Y-48528D01*
X94011Y-48528D02*
X93611Y-48528D01*
X93611Y-48528D02*
X93611Y-47928D01*
X93611Y-47928D02*
X94011Y-47928D01*
X85516Y-47928D02*
X85916Y-47928D01*
X85916Y-47928D02*
X85916Y-48528D01*
X85916Y-48528D02*
X85516Y-48528D01*
X84956Y-48528D02*
X84556Y-48528D01*
X84556Y-48528D02*
X84556Y-47928D01*
X84556Y-47928D02*
X84956Y-47928D01*
G54D10*
X93273Y-73425D02*
G75*
G03X93273Y-73425I-1147J0D01*
G74*
G01*
X94094Y-75393D02*
X90157Y-75393D01*
X90157Y-75393D02*
X90157Y-71062D01*
X90157Y-71062D02*
X94094Y-71062D01*
X94094Y-71062D02*
X94094Y-75393D01*
X92913Y-73425D02*
G75*
G03X92913Y-73425I-787J0D01*
G74*
G01*
X85006Y-73425D02*
G75*
G03X85006Y-73425I-1147J0D01*
G74*
G01*
X85826Y-75393D02*
X81889Y-75393D01*
X81889Y-75393D02*
X81889Y-71062D01*
X81889Y-71062D02*
X85826Y-71062D01*
X85826Y-71062D02*
X85826Y-75393D01*
X84645Y-73425D02*
G75*
G03X84645Y-73425I-787J0D01*
G74*
G01*
X93273Y-79330D02*
G75*
G03X93273Y-79330I-1147J0D01*
G74*
G01*
X94094Y-81299D02*
X90157Y-81299D01*
X90157Y-81299D02*
X90157Y-76968D01*
X90157Y-76968D02*
X94094Y-76968D01*
X94094Y-76968D02*
X94094Y-81299D01*
X92913Y-79330D02*
G75*
G03X92913Y-79330I-787J0D01*
G74*
G01*
X85006Y-79330D02*
G75*
G03X85006Y-79330I-1147J0D01*
G74*
G01*
X85826Y-81299D02*
X81889Y-81299D01*
X81889Y-81299D02*
X81889Y-76968D01*
X81889Y-76968D02*
X85826Y-76968D01*
X85826Y-76968D02*
X85826Y-81299D01*
X84645Y-79330D02*
G75*
G03X84645Y-79330I-787J0D01*
G74*
G01*
X85006Y-67519D02*
G75*
G03X85006Y-67519I-1147J0D01*
G74*
G01*
X85826Y-69488D02*
X81889Y-69488D01*
X81889Y-69488D02*
X81889Y-65157D01*
X81889Y-65157D02*
X85826Y-65157D01*
X85826Y-65157D02*
X85826Y-69488D01*
X84645Y-67519D02*
G75*
G03X84645Y-67519I-787J0D01*
G74*
G01*
X93273Y-67519D02*
G75*
G03X93273Y-67519I-1147J0D01*
G74*
G01*
X94094Y-69488D02*
X90157Y-69488D01*
X90157Y-69488D02*
X90157Y-65157D01*
X90157Y-65157D02*
X94094Y-65157D01*
X94094Y-65157D02*
X94094Y-69488D01*
X92913Y-67519D02*
G75*
G03X92913Y-67519I-787J0D01*
G74*
G01*
G54D12*
X93006Y-59842D02*
G75*
G03X93006Y-59842I-880J0D01*
G74*
G01*
X90157Y-59842D02*
X90157Y-57874D01*
X90157Y-57874D02*
X94094Y-57874D01*
X94094Y-57874D02*
X94094Y-62204D01*
X94094Y-62204D02*
X90157Y-62204D01*
X90157Y-62204D02*
X90157Y-59842D01*
X84738Y-44094D02*
G75*
G03X84738Y-44094I-880J0D01*
G74*
G01*
X81889Y-44094D02*
X81889Y-42125D01*
X81889Y-42125D02*
X85826Y-42125D01*
X85826Y-42125D02*
X85826Y-46456D01*
X85826Y-46456D02*
X81889Y-46456D01*
X81889Y-46456D02*
X81889Y-44094D01*
X84738Y-51968D02*
G75*
G03X84738Y-51968I-880J0D01*
G74*
G01*
X81889Y-51968D02*
X81889Y-50000D01*
X81889Y-50000D02*
X85826Y-50000D01*
X85826Y-50000D02*
X85826Y-54330D01*
X85826Y-54330D02*
X81889Y-54330D01*
X81889Y-54330D02*
X81889Y-51968D01*
X84738Y-59842D02*
G75*
G03X84738Y-59842I-880J0D01*
G74*
G01*
X81889Y-59842D02*
X81889Y-57874D01*
X81889Y-57874D02*
X85826Y-57874D01*
X85826Y-57874D02*
X85826Y-62204D01*
X85826Y-62204D02*
X81889Y-62204D01*
X81889Y-62204D02*
X81889Y-59842D01*
X93006Y-51968D02*
G75*
G03X93006Y-51968I-880J0D01*
G74*
G01*
X90157Y-51968D02*
X90157Y-50000D01*
X90157Y-50000D02*
X94094Y-50000D01*
X94094Y-50000D02*
X94094Y-54330D01*
X94094Y-54330D02*
X90157Y-54330D01*
X90157Y-54330D02*
X90157Y-51968D01*
X93006Y-44094D02*
G75*
G03X93006Y-44094I-880J0D01*
G74*
G01*
X90157Y-44094D02*
X90157Y-42125D01*
X90157Y-42125D02*
X94094Y-42125D01*
X94094Y-42125D02*
X94094Y-46456D01*
X94094Y-46456D02*
X90157Y-46456D01*
X90157Y-46456D02*
X90157Y-44094D01*
G54D13*
X94238Y-48948D02*
X94131Y-48796D01*
X94055Y-48948D02*
X94055Y-48628D01*
X94177Y-48628D01*
X94207Y-48643D01*
X94222Y-48658D01*
X94238Y-48689D01*
X94238Y-48735D01*
X94222Y-48765D01*
X94207Y-48780D01*
X94177Y-48796D01*
X94055Y-48796D01*
X94344Y-48628D02*
X94542Y-48628D01*
X94436Y-48750D01*
X94481Y-48750D01*
X94512Y-48765D01*
X94527Y-48780D01*
X94542Y-48811D01*
X94542Y-48887D01*
X94527Y-48917D01*
X94512Y-48933D01*
X94481Y-48948D01*
X94390Y-48948D01*
X94359Y-48933D01*
X94344Y-48917D01*
X85182Y-48948D02*
X85076Y-48796D01*
X85000Y-48948D02*
X85000Y-48628D01*
X85121Y-48628D01*
X85152Y-48643D01*
X85167Y-48658D01*
X85182Y-48689D01*
X85182Y-48735D01*
X85167Y-48765D01*
X85152Y-48780D01*
X85121Y-48796D01*
X85000Y-48796D01*
X85487Y-48948D02*
X85304Y-48948D01*
X85396Y-48948D02*
X85396Y-48628D01*
X85365Y-48674D01*
X85335Y-48704D01*
X85304Y-48719D01*
G54D10*
X91835Y-61773D02*
X91835Y-61379D01*
X91985Y-61379D01*
X92022Y-61398D01*
X92041Y-61417D01*
X92060Y-61454D01*
X92060Y-61511D01*
X92041Y-61548D01*
X92022Y-61567D01*
X91985Y-61586D01*
X91835Y-61586D01*
X92416Y-61379D02*
X92229Y-61379D01*
X92210Y-61567D01*
X92229Y-61548D01*
X92266Y-61529D01*
X92360Y-61529D01*
X92397Y-61548D01*
X92416Y-61567D01*
X92435Y-61604D01*
X92435Y-61698D01*
X92416Y-61736D01*
X92397Y-61754D01*
X92360Y-61773D01*
X92266Y-61773D01*
X92229Y-61754D01*
X92210Y-61736D01*
X83567Y-45828D02*
X83567Y-45434D01*
X83717Y-45434D01*
X83755Y-45453D01*
X83773Y-45472D01*
X83792Y-45509D01*
X83792Y-45566D01*
X83773Y-45603D01*
X83755Y-45622D01*
X83717Y-45641D01*
X83567Y-45641D01*
X84167Y-45828D02*
X83942Y-45828D01*
X84055Y-45828D02*
X84055Y-45434D01*
X84017Y-45491D01*
X83980Y-45528D01*
X83942Y-45547D01*
X83567Y-53899D02*
X83567Y-53505D01*
X83717Y-53505D01*
X83755Y-53524D01*
X83773Y-53543D01*
X83792Y-53580D01*
X83792Y-53637D01*
X83773Y-53674D01*
X83755Y-53693D01*
X83717Y-53712D01*
X83567Y-53712D01*
X83923Y-53505D02*
X84167Y-53505D01*
X84036Y-53655D01*
X84092Y-53655D01*
X84130Y-53674D01*
X84148Y-53693D01*
X84167Y-53730D01*
X84167Y-53824D01*
X84148Y-53862D01*
X84130Y-53880D01*
X84092Y-53899D01*
X83980Y-53899D01*
X83942Y-53880D01*
X83923Y-53862D01*
X83567Y-61773D02*
X83567Y-61379D01*
X83717Y-61379D01*
X83755Y-61398D01*
X83773Y-61417D01*
X83792Y-61454D01*
X83792Y-61511D01*
X83773Y-61548D01*
X83755Y-61567D01*
X83717Y-61586D01*
X83567Y-61586D01*
X83942Y-61417D02*
X83961Y-61398D01*
X83998Y-61379D01*
X84092Y-61379D01*
X84130Y-61398D01*
X84148Y-61417D01*
X84167Y-61454D01*
X84167Y-61492D01*
X84148Y-61548D01*
X83923Y-61773D01*
X84167Y-61773D01*
X91835Y-53702D02*
X91835Y-53308D01*
X91985Y-53308D01*
X92022Y-53327D01*
X92041Y-53346D01*
X92060Y-53383D01*
X92060Y-53440D01*
X92041Y-53477D01*
X92022Y-53496D01*
X91985Y-53515D01*
X91835Y-53515D01*
X92397Y-53308D02*
X92322Y-53308D01*
X92285Y-53327D01*
X92266Y-53346D01*
X92229Y-53402D01*
X92210Y-53477D01*
X92210Y-53627D01*
X92229Y-53665D01*
X92247Y-53683D01*
X92285Y-53702D01*
X92360Y-53702D01*
X92397Y-53683D01*
X92416Y-53665D01*
X92435Y-53627D01*
X92435Y-53533D01*
X92416Y-53496D01*
X92397Y-53477D01*
X92360Y-53458D01*
X92285Y-53458D01*
X92247Y-53477D01*
X92229Y-53496D01*
X92210Y-53533D01*
X91835Y-46025D02*
X91835Y-45631D01*
X91985Y-45631D01*
X92022Y-45650D01*
X92041Y-45669D01*
X92060Y-45706D01*
X92060Y-45763D01*
X92041Y-45800D01*
X92022Y-45819D01*
X91985Y-45838D01*
X91835Y-45838D01*
X92397Y-45763D02*
X92397Y-46025D01*
X92304Y-45613D02*
X92210Y-45894D01*
X92454Y-45894D01*
%LPC*%
G54D14*
X94716Y-48228D03*
X93866Y-48228D03*
X85661Y-48228D03*
X84811Y-48228D03*
G54D15*
X90275Y-73425D03*
G54D16*
X93976Y-73425D03*
G54D17*
X92125Y-71496D03*
X92125Y-74724D03*
G54D15*
X82007Y-73425D03*
G54D16*
X85708Y-73425D03*
G54D17*
X83858Y-71496D03*
X83858Y-74724D03*
G54D15*
X90275Y-79330D03*
G54D16*
X93976Y-79330D03*
G54D17*
X92125Y-77401D03*
X92125Y-80629D03*
G54D15*
X82007Y-79330D03*
G54D16*
X85708Y-79330D03*
G54D17*
X83858Y-77401D03*
X83858Y-80629D03*
G54D15*
X82007Y-67519D03*
G54D16*
X85708Y-67519D03*
G54D17*
X83858Y-65590D03*
X83858Y-68818D03*
G54D15*
X90275Y-67519D03*
G54D16*
X93976Y-67519D03*
G54D17*
X92125Y-65590D03*
X92125Y-68818D03*
G54D18*
X88188Y-70066D03*
G54D19*
X88188Y-69066D03*
X88188Y-68066D03*
X88188Y-67066D03*
X88188Y-66066D03*
X88188Y-65066D03*
X88188Y-64066D03*
X88188Y-63066D03*
X88188Y-62066D03*
X88188Y-61066D03*
X88188Y-60066D03*
X88188Y-59066D03*
X88492Y-48440D03*
X88492Y-47440D03*
X88492Y-49440D03*
X88492Y-46440D03*
G54D18*
X88492Y-45440D03*
G54D19*
X87492Y-45440D03*
X87492Y-46440D03*
X87492Y-47440D03*
X87492Y-48440D03*
X87492Y-49440D03*
G54D20*
X94015Y-59842D03*
X90236Y-59842D03*
G54D21*
X93110Y-62795D03*
X92125Y-62795D03*
X91141Y-62795D03*
G54D20*
X85748Y-44094D03*
X81968Y-44094D03*
G54D21*
X84842Y-47047D03*
X83858Y-47047D03*
X82874Y-47047D03*
G54D20*
X85748Y-51968D03*
X81968Y-51968D03*
G54D21*
X84842Y-54921D03*
X83858Y-54921D03*
X82874Y-54921D03*
G54D20*
X85748Y-59842D03*
X81968Y-59842D03*
G54D21*
X84842Y-62795D03*
X83858Y-62795D03*
X82874Y-62795D03*
G54D20*
X94015Y-51968D03*
X90236Y-51968D03*
G54D21*
X93110Y-54921D03*
X92125Y-54921D03*
X91141Y-54921D03*
G54D20*
X94015Y-44094D03*
X90236Y-44094D03*
G54D21*
X93110Y-47047D03*
X92125Y-47047D03*
X91141Y-47047D03*
G54D22*
X88385Y-43503D03*
G54D23*
X87598Y-43503D03*
G54D22*
X88385Y-51574D03*
G54D23*
X87598Y-51574D03*
M02*
