G04 (created by PCBNEW (2013-07-07 BZR 4022)-stable) date 2014-05-25 11:12:15 PM*
%MOIN*%
G04 Gerber Fmt 3.4, Leading zero omitted, Abs format*
%FSLAX34Y34*%
G01*
G70*
G90*
G04 APERTURE LIST*
%ADD10C,0.00590551*%
%ADD11C,0.011811*%
%ADD12C,0.00984252*%
%ADD13C,0.016*%
%ADD14C,0.0026*%
%ADD15C,0.008*%
%ADD16C,0.005*%
%ADD17C,0.015*%
%ADD18C,0.00787402*%
%ADD19C,0.006*%
%ADD20R,0.0866X0.0236*%
%ADD21R,0.045X0.055*%
%ADD22O,0.137795X0.19685*%
%ADD23O,0.0787402X0.137795*%
%ADD24O,0.137795X0.137795*%
%ADD25R,0.0787X0.0787*%
%ADD26C,0.0787*%
%ADD27O,0.0984252X0.137795*%
%ADD28C,0.0688976*%
%ADD29R,0.0551181X0.0551181*%
%ADD30C,0.0551181*%
G04 APERTURE END LIST*
G54D10*
G54D11*
X90973Y-71498D02*
X90832Y-71892D01*
X90691Y-71498D01*
X90157Y-71892D02*
X90494Y-71892D01*
X90326Y-71892D02*
X90326Y-71302D01*
X90382Y-71386D01*
X90438Y-71442D01*
X90494Y-71470D01*
X89904Y-71836D02*
X89876Y-71864D01*
X89904Y-71892D01*
X89932Y-71864D01*
X89904Y-71836D01*
X89904Y-71892D01*
X89510Y-71302D02*
X89454Y-71302D01*
X89398Y-71330D01*
X89370Y-71358D01*
X89341Y-71414D01*
X89313Y-71526D01*
X89313Y-71667D01*
X89341Y-71780D01*
X89370Y-71836D01*
X89398Y-71864D01*
X89454Y-71892D01*
X89510Y-71892D01*
X89566Y-71864D01*
X89595Y-71836D01*
X89623Y-71780D01*
X89651Y-71667D01*
X89651Y-71526D01*
X89623Y-71414D01*
X89595Y-71358D01*
X89566Y-71330D01*
X89510Y-71302D01*
X88498Y-71302D02*
X88442Y-71302D01*
X88385Y-71330D01*
X88357Y-71358D01*
X88329Y-71414D01*
X88301Y-71526D01*
X88301Y-71667D01*
X88329Y-71780D01*
X88357Y-71836D01*
X88385Y-71864D01*
X88442Y-71892D01*
X88498Y-71892D01*
X88554Y-71864D01*
X88582Y-71836D01*
X88610Y-71780D01*
X88638Y-71667D01*
X88638Y-71526D01*
X88610Y-71414D01*
X88582Y-71358D01*
X88554Y-71330D01*
X88498Y-71302D01*
X87767Y-71302D02*
X88048Y-71302D01*
X88076Y-71583D01*
X88048Y-71555D01*
X87992Y-71526D01*
X87851Y-71526D01*
X87795Y-71555D01*
X87767Y-71583D01*
X87739Y-71639D01*
X87739Y-71780D01*
X87767Y-71836D01*
X87795Y-71864D01*
X87851Y-71892D01*
X87992Y-71892D01*
X88048Y-71864D01*
X88076Y-71836D01*
X87064Y-71358D02*
X87035Y-71330D01*
X86979Y-71302D01*
X86839Y-71302D01*
X86782Y-71330D01*
X86754Y-71358D01*
X86726Y-71414D01*
X86726Y-71470D01*
X86754Y-71555D01*
X87092Y-71892D01*
X86726Y-71892D01*
X86361Y-71302D02*
X86304Y-71302D01*
X86248Y-71330D01*
X86220Y-71358D01*
X86192Y-71414D01*
X86164Y-71526D01*
X86164Y-71667D01*
X86192Y-71780D01*
X86220Y-71836D01*
X86248Y-71864D01*
X86304Y-71892D01*
X86361Y-71892D01*
X86417Y-71864D01*
X86445Y-71836D01*
X86473Y-71780D01*
X86501Y-71667D01*
X86501Y-71526D01*
X86473Y-71414D01*
X86445Y-71358D01*
X86417Y-71330D01*
X86361Y-71302D01*
X85601Y-71892D02*
X85939Y-71892D01*
X85770Y-71892D02*
X85770Y-71302D01*
X85826Y-71386D01*
X85883Y-71442D01*
X85939Y-71470D01*
X85095Y-71498D02*
X85095Y-71892D01*
X85236Y-71273D02*
X85376Y-71695D01*
X85011Y-71695D01*
X94811Y-69924D02*
X94924Y-69924D01*
X94980Y-69952D01*
X95008Y-69980D01*
X95064Y-70064D01*
X95092Y-70177D01*
X95092Y-70402D01*
X95064Y-70458D01*
X95036Y-70486D01*
X94980Y-70514D01*
X94867Y-70514D01*
X94811Y-70486D01*
X94783Y-70458D01*
X94755Y-70402D01*
X94755Y-70261D01*
X94783Y-70205D01*
X94811Y-70177D01*
X94867Y-70149D01*
X94980Y-70149D01*
X95036Y-70177D01*
X95064Y-70205D01*
X95092Y-70261D01*
X94249Y-69924D02*
X94361Y-69924D01*
X94417Y-69952D01*
X94446Y-69980D01*
X94502Y-70064D01*
X94530Y-70177D01*
X94530Y-70402D01*
X94502Y-70458D01*
X94474Y-70486D01*
X94417Y-70514D01*
X94305Y-70514D01*
X94249Y-70486D01*
X94221Y-70458D01*
X94192Y-70402D01*
X94192Y-70261D01*
X94221Y-70205D01*
X94249Y-70177D01*
X94305Y-70149D01*
X94417Y-70149D01*
X94474Y-70177D01*
X94502Y-70205D01*
X94530Y-70261D01*
X93967Y-69980D02*
X93939Y-69952D01*
X93883Y-69924D01*
X93742Y-69924D01*
X93686Y-69952D01*
X93658Y-69980D01*
X93630Y-70036D01*
X93630Y-70092D01*
X93658Y-70177D01*
X93996Y-70514D01*
X93630Y-70514D01*
X92927Y-70514D02*
X92927Y-69924D01*
X92786Y-69924D01*
X92702Y-69952D01*
X92646Y-70008D01*
X92618Y-70064D01*
X92589Y-70177D01*
X92589Y-70261D01*
X92618Y-70374D01*
X92646Y-70430D01*
X92702Y-70486D01*
X92786Y-70514D01*
X92927Y-70514D01*
X92083Y-70120D02*
X92083Y-70514D01*
X92336Y-70120D02*
X92336Y-70430D01*
X92308Y-70486D01*
X92252Y-70514D01*
X92168Y-70514D01*
X92111Y-70486D01*
X92083Y-70458D01*
X91549Y-70514D02*
X91549Y-70205D01*
X91577Y-70149D01*
X91633Y-70120D01*
X91746Y-70120D01*
X91802Y-70149D01*
X91549Y-70486D02*
X91605Y-70514D01*
X91746Y-70514D01*
X91802Y-70486D01*
X91830Y-70430D01*
X91830Y-70374D01*
X91802Y-70317D01*
X91746Y-70289D01*
X91605Y-70289D01*
X91549Y-70261D01*
X91183Y-70514D02*
X91240Y-70486D01*
X91268Y-70430D01*
X91268Y-69924D01*
X90593Y-69924D02*
X90396Y-70514D01*
X90199Y-69924D01*
X89665Y-70458D02*
X89693Y-70486D01*
X89777Y-70514D01*
X89834Y-70514D01*
X89918Y-70486D01*
X89974Y-70430D01*
X90002Y-70374D01*
X90030Y-70261D01*
X90030Y-70177D01*
X90002Y-70064D01*
X89974Y-70008D01*
X89918Y-69952D01*
X89834Y-69924D01*
X89777Y-69924D01*
X89693Y-69952D01*
X89665Y-69980D01*
X89440Y-70345D02*
X89159Y-70345D01*
X89496Y-70514D02*
X89299Y-69924D01*
X89102Y-70514D01*
X86881Y-70486D02*
X86825Y-70514D01*
X86712Y-70514D01*
X86656Y-70486D01*
X86628Y-70430D01*
X86628Y-70402D01*
X86656Y-70345D01*
X86712Y-70317D01*
X86796Y-70317D01*
X86853Y-70289D01*
X86881Y-70233D01*
X86881Y-70205D01*
X86853Y-70149D01*
X86796Y-70120D01*
X86712Y-70120D01*
X86656Y-70149D01*
X86431Y-70120D02*
X86290Y-70514D01*
X86150Y-70120D02*
X86290Y-70514D01*
X86347Y-70655D01*
X86375Y-70683D01*
X86431Y-70711D01*
X85953Y-70486D02*
X85897Y-70514D01*
X85784Y-70514D01*
X85728Y-70486D01*
X85700Y-70430D01*
X85700Y-70402D01*
X85728Y-70345D01*
X85784Y-70317D01*
X85868Y-70317D01*
X85925Y-70289D01*
X85953Y-70233D01*
X85953Y-70205D01*
X85925Y-70149D01*
X85868Y-70120D01*
X85784Y-70120D01*
X85728Y-70149D01*
X85531Y-70120D02*
X85306Y-70120D01*
X85447Y-69924D02*
X85447Y-70430D01*
X85419Y-70486D01*
X85362Y-70514D01*
X85306Y-70514D01*
X84884Y-70486D02*
X84940Y-70514D01*
X85053Y-70514D01*
X85109Y-70486D01*
X85137Y-70430D01*
X85137Y-70205D01*
X85109Y-70149D01*
X85053Y-70120D01*
X84940Y-70120D01*
X84884Y-70149D01*
X84856Y-70205D01*
X84856Y-70261D01*
X85137Y-70317D01*
X84603Y-70514D02*
X84603Y-70120D01*
X84603Y-70177D02*
X84575Y-70149D01*
X84519Y-70120D01*
X84434Y-70120D01*
X84378Y-70149D01*
X84350Y-70205D01*
X84350Y-70514D01*
X84350Y-70205D02*
X84322Y-70149D01*
X84266Y-70120D01*
X84181Y-70120D01*
X84125Y-70149D01*
X84097Y-70205D01*
X84097Y-70514D01*
X83872Y-69924D02*
X83478Y-69924D01*
X83731Y-70514D01*
X83225Y-70514D02*
X83113Y-70514D01*
X83056Y-70486D01*
X83028Y-70458D01*
X82972Y-70374D01*
X82944Y-70261D01*
X82944Y-70036D01*
X82972Y-69980D01*
X83000Y-69952D01*
X83056Y-69924D01*
X83169Y-69924D01*
X83225Y-69952D01*
X83253Y-69980D01*
X83281Y-70036D01*
X83281Y-70177D01*
X83253Y-70233D01*
X83225Y-70261D01*
X83169Y-70289D01*
X83056Y-70289D01*
X83000Y-70261D01*
X82972Y-70233D01*
X82944Y-70177D01*
X82691Y-70458D02*
X82663Y-70486D01*
X82691Y-70514D01*
X82719Y-70486D01*
X82691Y-70458D01*
X82691Y-70514D01*
X82156Y-70486D02*
X82213Y-70514D01*
X82325Y-70514D01*
X82381Y-70486D01*
X82410Y-70458D01*
X82438Y-70402D01*
X82438Y-70233D01*
X82410Y-70177D01*
X82381Y-70149D01*
X82325Y-70120D01*
X82213Y-70120D01*
X82156Y-70149D01*
X81819Y-70514D02*
X81875Y-70486D01*
X81903Y-70458D01*
X81931Y-70402D01*
X81931Y-70233D01*
X81903Y-70177D01*
X81875Y-70149D01*
X81819Y-70120D01*
X81735Y-70120D01*
X81678Y-70149D01*
X81650Y-70177D01*
X81622Y-70233D01*
X81622Y-70402D01*
X81650Y-70458D01*
X81678Y-70486D01*
X81735Y-70514D01*
X81819Y-70514D01*
X81369Y-70514D02*
X81369Y-70120D01*
X81369Y-70177D02*
X81341Y-70149D01*
X81285Y-70120D01*
X81200Y-70120D01*
X81144Y-70149D01*
X81116Y-70205D01*
X81116Y-70514D01*
X81116Y-70205D02*
X81088Y-70149D01*
X81032Y-70120D01*
X80947Y-70120D01*
X80891Y-70149D01*
X80863Y-70205D01*
X80863Y-70514D01*
G54D12*
X90851Y-45481D02*
X90551Y-45481D01*
X90157Y-45631D02*
X90382Y-45631D01*
X90269Y-45631D02*
X90269Y-45238D01*
X90307Y-45294D01*
X90344Y-45331D01*
X90382Y-45350D01*
X90007Y-45275D02*
X89988Y-45256D01*
X89951Y-45238D01*
X89857Y-45238D01*
X89820Y-45256D01*
X89801Y-45275D01*
X89782Y-45313D01*
X89782Y-45350D01*
X89801Y-45406D01*
X90026Y-45631D01*
X89782Y-45631D01*
X89670Y-45238D02*
X89538Y-45631D01*
X89407Y-45238D01*
G54D13*
X88070Y-56774D02*
G75*
G03X88070Y-56774I-70J0D01*
G74*
G01*
G54D14*
X86968Y-56948D02*
X86968Y-56755D01*
X86968Y-56755D02*
X87401Y-56755D01*
X87401Y-56948D02*
X87401Y-56755D01*
X86968Y-56948D02*
X87401Y-56948D01*
X86968Y-56448D02*
X86968Y-56255D01*
X86968Y-56255D02*
X87401Y-56255D01*
X87401Y-56448D02*
X87401Y-56255D01*
X86968Y-56448D02*
X87401Y-56448D01*
X86968Y-55949D02*
X86968Y-55756D01*
X86968Y-55756D02*
X87401Y-55756D01*
X87401Y-55949D02*
X87401Y-55756D01*
X86968Y-55949D02*
X87401Y-55949D01*
X86968Y-55449D02*
X86968Y-55256D01*
X86968Y-55256D02*
X87401Y-55256D01*
X87401Y-55449D02*
X87401Y-55256D01*
X86968Y-55449D02*
X87401Y-55449D01*
X88975Y-55449D02*
X88975Y-55256D01*
X88975Y-55256D02*
X89408Y-55256D01*
X89408Y-55449D02*
X89408Y-55256D01*
X88975Y-55449D02*
X89408Y-55449D01*
X88975Y-55949D02*
X88975Y-55756D01*
X88975Y-55756D02*
X89408Y-55756D01*
X89408Y-55949D02*
X89408Y-55756D01*
X88975Y-55949D02*
X89408Y-55949D01*
X88975Y-56448D02*
X88975Y-56255D01*
X88975Y-56255D02*
X89408Y-56255D01*
X89408Y-56448D02*
X89408Y-56255D01*
X88975Y-56448D02*
X89408Y-56448D01*
X88975Y-56948D02*
X88975Y-56755D01*
X88975Y-56755D02*
X89408Y-56755D01*
X89408Y-56948D02*
X89408Y-56755D01*
X88975Y-56948D02*
X89408Y-56948D01*
G54D15*
X88936Y-55158D02*
X87637Y-55158D01*
X87637Y-55158D02*
X87440Y-55158D01*
X87440Y-55158D02*
X87440Y-57046D01*
X87440Y-57046D02*
X87637Y-57046D01*
X87637Y-57046D02*
X88936Y-57046D01*
X88936Y-57046D02*
X88936Y-55158D01*
X87737Y-55158D02*
X87737Y-57046D01*
G54D16*
X88468Y-54827D02*
X88868Y-54827D01*
X88868Y-54827D02*
X88868Y-54227D01*
X88868Y-54227D02*
X88468Y-54227D01*
X87908Y-54227D02*
X87508Y-54227D01*
X87508Y-54227D02*
X87508Y-54827D01*
X87508Y-54827D02*
X87908Y-54827D01*
X92405Y-57386D02*
X92805Y-57386D01*
X92805Y-57386D02*
X92805Y-56786D01*
X92805Y-56786D02*
X92405Y-56786D01*
X91845Y-56786D02*
X91445Y-56786D01*
X91445Y-56786D02*
X91445Y-57386D01*
X91445Y-57386D02*
X91845Y-57386D01*
X83578Y-56589D02*
X83178Y-56589D01*
X83178Y-56589D02*
X83178Y-57189D01*
X83178Y-57189D02*
X83578Y-57189D01*
X84138Y-57189D02*
X84538Y-57189D01*
X84538Y-57189D02*
X84538Y-56589D01*
X84538Y-56589D02*
X84138Y-56589D01*
G54D17*
X87588Y-60466D02*
X87588Y-58466D01*
X88788Y-60466D02*
X88788Y-58466D01*
X87588Y-70666D02*
X87588Y-60466D01*
X88788Y-70666D02*
X88788Y-60466D01*
X88788Y-58466D02*
X87588Y-58466D01*
X88788Y-69566D02*
X87588Y-69566D01*
X88788Y-70666D02*
X87588Y-70666D01*
X86892Y-50040D02*
X89092Y-50040D01*
X89092Y-50040D02*
X89092Y-44840D01*
X86892Y-44840D02*
X86892Y-50040D01*
X87992Y-45940D02*
X89092Y-45940D01*
X87992Y-45940D02*
X87992Y-44840D01*
X89092Y-44840D02*
X86892Y-44840D01*
G54D10*
X87204Y-42913D02*
X87204Y-44094D01*
X88976Y-42519D02*
X88582Y-42519D01*
X88779Y-42716D02*
X88779Y-42322D01*
X88976Y-43503D02*
G75*
G03X88976Y-43503I-984J0D01*
G74*
G01*
X87204Y-50984D02*
X87204Y-52165D01*
X88976Y-50590D02*
X88582Y-50590D01*
X88779Y-50787D02*
X88779Y-50393D01*
X88976Y-51574D02*
G75*
G03X88976Y-51574I-984J0D01*
G74*
G01*
G54D18*
X90354Y-76377D02*
G75*
G03X90354Y-76377I-2362J0D01*
G74*
G01*
G54D19*
X88932Y-57411D02*
X88932Y-57670D01*
X88917Y-57701D01*
X88902Y-57716D01*
X88871Y-57731D01*
X88810Y-57731D01*
X88780Y-57716D01*
X88765Y-57701D01*
X88749Y-57670D01*
X88749Y-57411D01*
X88429Y-57731D02*
X88612Y-57731D01*
X88521Y-57731D02*
X88521Y-57411D01*
X88551Y-57457D01*
X88582Y-57488D01*
X88612Y-57503D01*
X88242Y-54076D02*
X88257Y-54091D01*
X88303Y-54107D01*
X88333Y-54107D01*
X88379Y-54091D01*
X88409Y-54061D01*
X88425Y-54030D01*
X88440Y-53969D01*
X88440Y-53924D01*
X88425Y-53863D01*
X88409Y-53832D01*
X88379Y-53802D01*
X88333Y-53787D01*
X88303Y-53787D01*
X88257Y-53802D01*
X88242Y-53817D01*
X87937Y-54107D02*
X88120Y-54107D01*
X88028Y-54107D02*
X88028Y-53787D01*
X88059Y-53832D01*
X88089Y-53863D01*
X88120Y-53878D01*
X92179Y-57806D02*
X92285Y-57654D01*
X92362Y-57806D02*
X92362Y-57486D01*
X92240Y-57486D01*
X92209Y-57501D01*
X92194Y-57517D01*
X92179Y-57547D01*
X92179Y-57593D01*
X92194Y-57623D01*
X92209Y-57639D01*
X92240Y-57654D01*
X92362Y-57654D01*
X91905Y-57593D02*
X91905Y-57806D01*
X91981Y-57471D02*
X92057Y-57700D01*
X91859Y-57700D01*
X83911Y-57609D02*
X84018Y-57457D01*
X84094Y-57609D02*
X84094Y-57289D01*
X83972Y-57289D01*
X83942Y-57305D01*
X83926Y-57320D01*
X83911Y-57350D01*
X83911Y-57396D01*
X83926Y-57426D01*
X83942Y-57442D01*
X83972Y-57457D01*
X84094Y-57457D01*
X83789Y-57320D02*
X83774Y-57305D01*
X83743Y-57289D01*
X83667Y-57289D01*
X83637Y-57305D01*
X83622Y-57320D01*
X83606Y-57350D01*
X83606Y-57381D01*
X83622Y-57426D01*
X83804Y-57609D01*
X83606Y-57609D01*
G54D10*
X89435Y-43035D02*
X89454Y-43053D01*
X89510Y-43072D01*
X89548Y-43072D01*
X89604Y-43053D01*
X89641Y-43016D01*
X89660Y-42979D01*
X89679Y-42904D01*
X89679Y-42847D01*
X89660Y-42772D01*
X89641Y-42735D01*
X89604Y-42697D01*
X89548Y-42679D01*
X89510Y-42679D01*
X89454Y-42697D01*
X89435Y-42716D01*
X89285Y-42716D02*
X89266Y-42697D01*
X89229Y-42679D01*
X89135Y-42679D01*
X89098Y-42697D01*
X89079Y-42716D01*
X89060Y-42754D01*
X89060Y-42791D01*
X89079Y-42847D01*
X89304Y-43072D01*
X89060Y-43072D01*
X89238Y-52680D02*
X89257Y-52699D01*
X89313Y-52718D01*
X89351Y-52718D01*
X89407Y-52699D01*
X89445Y-52662D01*
X89463Y-52624D01*
X89482Y-52549D01*
X89482Y-52493D01*
X89463Y-52418D01*
X89445Y-52380D01*
X89407Y-52343D01*
X89351Y-52324D01*
X89313Y-52324D01*
X89257Y-52343D01*
X89238Y-52362D01*
X89107Y-52324D02*
X88863Y-52324D01*
X88995Y-52474D01*
X88938Y-52474D01*
X88901Y-52493D01*
X88882Y-52512D01*
X88863Y-52549D01*
X88863Y-52643D01*
X88882Y-52680D01*
X88901Y-52699D01*
X88938Y-52718D01*
X89051Y-52718D01*
X89088Y-52699D01*
X89107Y-52680D01*
G54D18*
X89585Y-75131D02*
X88273Y-75131D01*
X89116Y-77887D01*
X87429Y-77887D02*
X87054Y-77887D01*
X86867Y-77755D01*
X86773Y-77624D01*
X86586Y-77230D01*
X86492Y-76706D01*
X86492Y-75656D01*
X86586Y-75393D01*
X86679Y-75262D01*
X86867Y-75131D01*
X87242Y-75131D01*
X87429Y-75262D01*
X87523Y-75393D01*
X87617Y-75656D01*
X87617Y-76312D01*
X87523Y-76574D01*
X87429Y-76706D01*
X87242Y-76837D01*
X86867Y-76837D01*
X86679Y-76706D01*
X86586Y-76574D01*
X86492Y-76312D01*
%LPC*%
G54D20*
X87165Y-56852D03*
X87165Y-56352D03*
X87165Y-55852D03*
X87165Y-55352D03*
X89211Y-55352D03*
X89211Y-55852D03*
X89211Y-56352D03*
X89211Y-56852D03*
G54D21*
X88613Y-54527D03*
X87763Y-54527D03*
X92550Y-57086D03*
X91700Y-57086D03*
X83433Y-56889D03*
X84283Y-56889D03*
G54D22*
X90275Y-73425D03*
G54D23*
X93976Y-73425D03*
G54D24*
X92125Y-71496D03*
X92125Y-74724D03*
G54D22*
X82007Y-73425D03*
G54D23*
X85708Y-73425D03*
G54D24*
X83858Y-71496D03*
X83858Y-74724D03*
G54D22*
X90275Y-79330D03*
G54D23*
X93976Y-79330D03*
G54D24*
X92125Y-77401D03*
X92125Y-80629D03*
G54D22*
X82007Y-79330D03*
G54D23*
X85708Y-79330D03*
G54D24*
X83858Y-77401D03*
X83858Y-80629D03*
G54D22*
X82007Y-67519D03*
G54D23*
X85708Y-67519D03*
G54D24*
X83858Y-65590D03*
X83858Y-68818D03*
G54D22*
X90275Y-67519D03*
G54D23*
X93976Y-67519D03*
G54D24*
X92125Y-65590D03*
X92125Y-68818D03*
G54D25*
X88188Y-70066D03*
G54D26*
X88188Y-69066D03*
X88188Y-68066D03*
X88188Y-67066D03*
X88188Y-66066D03*
X88188Y-65066D03*
X88188Y-64066D03*
X88188Y-63066D03*
X88188Y-62066D03*
X88188Y-61066D03*
X88188Y-60066D03*
X88188Y-59066D03*
X88492Y-48440D03*
X88492Y-47440D03*
X88492Y-49440D03*
X88492Y-46440D03*
G54D25*
X88492Y-45440D03*
G54D26*
X87492Y-45440D03*
X87492Y-46440D03*
X87492Y-47440D03*
X87492Y-48440D03*
X87492Y-49440D03*
G54D27*
X94015Y-59842D03*
X90236Y-59842D03*
G54D28*
X93110Y-62795D03*
X92125Y-62795D03*
X91141Y-62795D03*
G54D27*
X85748Y-44094D03*
X81968Y-44094D03*
G54D28*
X84842Y-47047D03*
X83858Y-47047D03*
X82874Y-47047D03*
G54D27*
X85748Y-51968D03*
X81968Y-51968D03*
G54D28*
X84842Y-54921D03*
X83858Y-54921D03*
X82874Y-54921D03*
G54D27*
X85748Y-59842D03*
X81968Y-59842D03*
G54D28*
X84842Y-62795D03*
X83858Y-62795D03*
X82874Y-62795D03*
G54D27*
X94015Y-51968D03*
X90236Y-51968D03*
G54D28*
X93110Y-54921D03*
X92125Y-54921D03*
X91141Y-54921D03*
G54D27*
X94015Y-44094D03*
X90236Y-44094D03*
G54D28*
X93110Y-47047D03*
X92125Y-47047D03*
X91141Y-47047D03*
G54D29*
X88385Y-43503D03*
G54D30*
X87598Y-43503D03*
G54D29*
X88385Y-51574D03*
G54D30*
X87598Y-51574D03*
M02*
