G04 (created by PCBNEW-RS274X (2012-01-19 BZR 3256)-stable) date 3/25/2013 8:41:05 PM*
G01*
G70*
G90*
%MOIN*%
G04 Gerber Fmt 3.4, Leading zero omitted, Abs format*
%FSLAX34Y34*%
G04 APERTURE LIST*
%ADD10C,0.006000*%
%ADD11R,0.066900X0.066900*%
%ADD12C,0.066900*%
%ADD13R,0.045000X0.055000*%
%ADD14R,0.070000X0.055000*%
%ADD15R,0.059800X0.070100*%
%ADD16R,0.122000X0.096500*%
%ADD17R,0.070000X0.110000*%
%ADD18C,0.160000*%
%ADD19C,0.035000*%
%ADD20C,0.020000*%
G04 APERTURE END LIST*
G54D10*
G54D11*
X18913Y-20669D03*
G54D12*
X17913Y-20669D03*
X16913Y-20669D03*
G54D13*
X16898Y-19291D03*
X17748Y-19291D03*
G54D14*
X25539Y-15339D03*
X25539Y-17339D03*
X22099Y-17339D03*
X22099Y-15339D03*
G54D15*
X20477Y-17339D03*
X20477Y-16339D03*
X20477Y-15339D03*
X16925Y-17339D03*
X16925Y-16339D03*
X16925Y-15339D03*
G54D16*
X28347Y-18858D03*
X29921Y-18858D03*
X29921Y-20512D03*
X28347Y-20512D03*
G54D17*
X27056Y-15354D03*
X28456Y-15354D03*
X24694Y-19685D03*
X26094Y-19685D03*
G54D13*
X20110Y-19291D03*
X19260Y-19291D03*
G54D18*
X30118Y-15157D03*
X22047Y-19882D03*
G54D19*
X17605Y-15261D03*
X18642Y-19201D03*
G54D20*
X16925Y-15339D02*
X17527Y-15339D01*
X17605Y-15261D02*
X17527Y-15339D01*
X19260Y-19291D02*
X18732Y-19291D01*
X18732Y-19291D02*
X18642Y-19201D01*
X28347Y-20512D02*
X28347Y-19727D01*
X26094Y-19685D02*
X27520Y-19685D01*
X28305Y-19685D02*
X28347Y-19727D01*
X27520Y-19685D02*
X28305Y-19685D01*
X27561Y-19644D02*
X28347Y-19644D01*
X27520Y-19685D02*
X27561Y-19644D01*
X28347Y-18858D02*
X28347Y-19644D01*
X28456Y-16608D02*
X29921Y-18073D01*
X28456Y-15354D02*
X28456Y-16608D01*
X29921Y-18858D02*
X29921Y-18073D01*
X29921Y-20512D02*
X29921Y-18858D01*
X24694Y-18762D02*
X25539Y-17917D01*
X24694Y-19685D02*
X24694Y-18762D01*
X25539Y-17339D02*
X25539Y-17917D01*
X26207Y-15354D02*
X26192Y-15339D01*
X27056Y-15354D02*
X26207Y-15354D01*
X25539Y-15339D02*
X26192Y-15339D01*
X22752Y-16570D02*
X22099Y-15917D01*
X22752Y-17762D02*
X22752Y-16570D01*
X22596Y-17918D02*
X22752Y-17762D01*
X21079Y-17861D02*
X21136Y-17918D01*
X22099Y-15339D02*
X22099Y-15917D01*
X21079Y-17339D02*
X21079Y-17861D01*
X20477Y-17339D02*
X21079Y-17339D01*
X21136Y-17918D02*
X22596Y-17918D01*
X21677Y-16339D02*
X22099Y-16761D01*
X20477Y-16339D02*
X21677Y-16339D01*
X22099Y-17339D02*
X22099Y-16761D01*
X17748Y-19291D02*
X18489Y-20032D01*
X18913Y-20669D02*
X18913Y-20032D01*
X20110Y-19291D02*
X20110Y-19869D01*
X19076Y-19869D02*
X18913Y-20032D01*
X18489Y-20032D02*
X18913Y-20032D01*
X20110Y-19869D02*
X19076Y-19869D01*
X16925Y-16339D02*
X17527Y-16339D01*
X16898Y-18661D02*
X16898Y-19291D01*
X17527Y-18032D02*
X16898Y-18661D01*
X17527Y-16339D02*
X17527Y-18032D01*
X16898Y-20654D02*
X16913Y-20669D01*
X16898Y-19291D02*
X16898Y-20654D01*
M02*
