G04 (created by PCBNEW-RS274X (2012-01-19 BZR 3256)-stable) date 3/25/2013 8:41:05 PM*
G01*
G70*
G90*
%MOIN*%
G04 Gerber Fmt 3.4, Leading zero omitted, Abs format*
%FSLAX34Y34*%
G04 APERTURE LIST*
%ADD10C,0.006000*%
%ADD11R,0.066900X0.066900*%
%ADD12C,0.066900*%
%ADD13C,0.160000*%
%ADD14C,0.035000*%
%ADD15C,0.010000*%
G04 APERTURE END LIST*
G54D10*
G54D11*
X18913Y-20669D03*
G54D12*
X17913Y-20669D03*
X16913Y-20669D03*
G54D13*
X30118Y-15157D03*
X22047Y-19882D03*
G54D14*
X17605Y-15261D03*
X18642Y-19201D03*
G54D10*
G36*
X23572Y-21329D02*
X23097Y-21329D01*
X23097Y-20092D01*
X23097Y-19674D01*
X22937Y-19288D01*
X22642Y-18992D01*
X22257Y-18832D01*
X21839Y-18832D01*
X21453Y-18992D01*
X21157Y-19287D01*
X20997Y-19672D01*
X20997Y-20090D01*
X21157Y-20476D01*
X21452Y-20772D01*
X21837Y-20932D01*
X22255Y-20932D01*
X22641Y-20772D01*
X22937Y-20477D01*
X23097Y-20092D01*
X23097Y-21329D01*
X19496Y-21329D01*
X19496Y-21053D01*
X19496Y-20954D01*
X19496Y-20286D01*
X19458Y-20194D01*
X19388Y-20124D01*
X19297Y-20086D01*
X19198Y-20086D01*
X18530Y-20086D01*
X18438Y-20124D01*
X18368Y-20194D01*
X18330Y-20285D01*
X18330Y-20384D01*
X18330Y-20464D01*
X18160Y-20634D01*
X18160Y-20210D01*
X18124Y-20125D01*
X17900Y-20086D01*
X17702Y-20125D01*
X17666Y-20210D01*
X17913Y-20457D01*
X18160Y-20210D01*
X18160Y-20634D01*
X18125Y-20669D01*
X18330Y-20874D01*
X18330Y-21052D01*
X18368Y-21144D01*
X18438Y-21214D01*
X18529Y-21252D01*
X18628Y-21252D01*
X19296Y-21252D01*
X19388Y-21214D01*
X19458Y-21144D01*
X19496Y-21053D01*
X19496Y-21329D01*
X18160Y-21329D01*
X18160Y-21128D01*
X17913Y-20881D01*
X17701Y-21093D01*
X17701Y-20669D01*
X17454Y-20422D01*
X17444Y-20426D01*
X17408Y-20338D01*
X17244Y-20174D01*
X17029Y-20085D01*
X16797Y-20085D01*
X16582Y-20174D01*
X16418Y-20338D01*
X16329Y-20553D01*
X16329Y-20785D01*
X16418Y-21000D01*
X16582Y-21164D01*
X16797Y-21253D01*
X17029Y-21253D01*
X17244Y-21164D01*
X17408Y-21000D01*
X17444Y-20911D01*
X17454Y-20916D01*
X17701Y-20669D01*
X17701Y-21093D01*
X17666Y-21128D01*
X17702Y-21213D01*
X17926Y-21252D01*
X18124Y-21213D01*
X18160Y-21128D01*
X18160Y-21329D01*
X16073Y-21329D01*
X16073Y-14105D01*
X23572Y-14105D01*
X23572Y-21329D01*
X23572Y-21329D01*
G37*
G54D15*
X23572Y-21329D02*
X23097Y-21329D01*
X23097Y-20092D01*
X23097Y-19674D01*
X22937Y-19288D01*
X22642Y-18992D01*
X22257Y-18832D01*
X21839Y-18832D01*
X21453Y-18992D01*
X21157Y-19287D01*
X20997Y-19672D01*
X20997Y-20090D01*
X21157Y-20476D01*
X21452Y-20772D01*
X21837Y-20932D01*
X22255Y-20932D01*
X22641Y-20772D01*
X22937Y-20477D01*
X23097Y-20092D01*
X23097Y-21329D01*
X19496Y-21329D01*
X19496Y-21053D01*
X19496Y-20954D01*
X19496Y-20286D01*
X19458Y-20194D01*
X19388Y-20124D01*
X19297Y-20086D01*
X19198Y-20086D01*
X18530Y-20086D01*
X18438Y-20124D01*
X18368Y-20194D01*
X18330Y-20285D01*
X18330Y-20384D01*
X18330Y-20464D01*
X18160Y-20634D01*
X18160Y-20210D01*
X18124Y-20125D01*
X17900Y-20086D01*
X17702Y-20125D01*
X17666Y-20210D01*
X17913Y-20457D01*
X18160Y-20210D01*
X18160Y-20634D01*
X18125Y-20669D01*
X18330Y-20874D01*
X18330Y-21052D01*
X18368Y-21144D01*
X18438Y-21214D01*
X18529Y-21252D01*
X18628Y-21252D01*
X19296Y-21252D01*
X19388Y-21214D01*
X19458Y-21144D01*
X19496Y-21053D01*
X19496Y-21329D01*
X18160Y-21329D01*
X18160Y-21128D01*
X17913Y-20881D01*
X17701Y-21093D01*
X17701Y-20669D01*
X17454Y-20422D01*
X17444Y-20426D01*
X17408Y-20338D01*
X17244Y-20174D01*
X17029Y-20085D01*
X16797Y-20085D01*
X16582Y-20174D01*
X16418Y-20338D01*
X16329Y-20553D01*
X16329Y-20785D01*
X16418Y-21000D01*
X16582Y-21164D01*
X16797Y-21253D01*
X17029Y-21253D01*
X17244Y-21164D01*
X17408Y-21000D01*
X17444Y-20911D01*
X17454Y-20916D01*
X17701Y-20669D01*
X17701Y-21093D01*
X17666Y-21128D01*
X17702Y-21213D01*
X17926Y-21252D01*
X18124Y-21213D01*
X18160Y-21128D01*
X18160Y-21329D01*
X16073Y-21329D01*
X16073Y-14105D01*
X23572Y-14105D01*
X23572Y-21329D01*
M02*
