<?xml version="1.0" standalone="no"?>
 <!DOCTYPE svg PUBLIC "-//W3C//DTD SVG 1.1//EN" 
 "http://www.w3.org/Graphics/SVG/1.1/DTD/svg11.dtd"> 
<svg xmlns="http://www.w3.org/2000/svg" version="1.1" 
    width="41.9989cm" height="29.7002cm" viewBox="0 0 165350 116930 ">
<title>SVG Picture created as Octave Switch--brd.svg date 2013/06/10 16:08:25 </title>
  <desc>Picture generated by PCBNEW </desc>
<g style="fill:#000000; fill-opacity:1;stroke:#000000; stroke-opacity:1;
stroke-linecap:round; stroke-linejoin:round; "
 transform="translate(0 0) scale(1 1)">
</g>
<g style="fill:#000000; fill-opacity:0.0; 
stroke:#000000; stroke-width:39.3701; stroke-opacity:1; 
stroke-linecap:round; stroke-linejoin:round;">
<path d="M4000 4000
L161350 4000
L161350 112930
L4000 112930
L4000 4000
" />
<path d="M4700 4700
L160650 4700
L160650 112230
L4700 112230
L4700 4700
" />
<path d="M26470 4000
L26470 4700
" />
<path d="M15382 4552
L15097 4552
" />
<path d="M15240 4552
L15240 4052
L15192 4123
L15144 4171
L15097 4195
" />
<path d="M26470 112930
L26470 112230
" />
<path d="M15382 112782
L15097 112782
" />
<path d="M15240 112782
L15240 112282
L15192 112353
L15144 112401
L15097 112425
" />
<path d="M48940 4000
L48940 4700
" />
<path d="M37567 4100
L37590 4076
L37638 4052
L37757 4052
L37805 4076
L37829 4100
L37852 4147
L37852 4195
L37829 4266
L37543 4552
L37852 4552
" />
<path d="M48940 112930
L48940 112230
" />
<path d="M37567 112330
L37590 112306
L37638 112282
L37757 112282
L37805 112306
L37829 112330
L37852 112377
L37852 112425
L37829 112496
L37543 112782
L37852 112782
" />
<path d="M71410 4000
L71410 4700
" />
<path d="M60013 4052
L60322 4052
L60156 4242
L60227 4242
L60275 4266
L60299 4290
L60322 4338
L60322 4457
L60299 4504
L60275 4528
L60227 4552
L60084 4552
L60037 4528
L60013 4504
" />
<path d="M71410 112930
L71410 112230
" />
<path d="M60013 112282
L60322 112282
L60156 112472
L60227 112472
L60275 112496
L60299 112520
L60322 112568
L60322 112687
L60299 112734
L60275 112758
L60227 112782
L60084 112782
L60037 112758
L60013 112734
" />
<path d="M93880 4000
L93880 4700
" />
<path d="M82745 4219
L82745 4552
" />
<path d="M82626 4028
L82507 4385
L82816 4385
" />
<path d="M93880 112930
L93880 112230
" />
<path d="M82745 112449
L82745 112782
" />
<path d="M82626 112258
L82507 112615
L82816 112615
" />
<path d="M116350 4000
L116350 4700
" />
<path d="M105239 4052
L105000 4052
L104977 4290
L105000 4266
L105048 4242
L105167 4242
L105215 4266
L105239 4290
L105262 4338
L105262 4457
L105239 4504
L105215 4528
L105167 4552
L105048 4552
L105000 4528
L104977 4504
" />
<path d="M116350 112930
L116350 112230
" />
<path d="M105239 112282
L105000 112282
L104977 112520
L105000 112496
L105048 112472
L105167 112472
L105215 112496
L105239 112520
L105262 112568
L105262 112687
L105239 112734
L105215 112758
L105167 112782
L105048 112782
L105000 112758
L104977 112734
" />
<path d="M138820 4000
L138820 4700
" />
<path d="M127685 4052
L127590 4052
L127542 4076
L127518 4100
L127470 4171
L127447 4266
L127447 4457
L127470 4504
L127494 4528
L127542 4552
L127637 4552
L127685 4528
L127709 4504
L127732 4457
L127732 4338
L127709 4290
L127685 4266
L127637 4242
L127542 4242
L127494 4266
L127470 4290
L127447 4338
" />
<path d="M138820 112930
L138820 112230
" />
<path d="M127685 112282
L127590 112282
L127542 112306
L127518 112330
L127470 112401
L127447 112496
L127447 112687
L127470 112734
L127494 112758
L127542 112782
L127637 112782
L127685 112758
L127709 112734
L127732 112687
L127732 112568
L127709 112520
L127685 112496
L127637 112472
L127542 112472
L127494 112496
L127470 112520
L127447 112568
" />
<path d="M149893 4052
L150226 4052
L150012 4552
" />
<path d="M149893 112282
L150226 112282
L150012 112782
" />
<path d="M4000 25780
L4700 25780
" />
<path d="M4230 14949
L4469 14949
" />
<path d="M4183 15092
L4350 14592
L4516 15092
" />
<path d="M161350 25780
L160650 25780
" />
<path d="M160880 14949
L161119 14949
" />
<path d="M160833 15092
L161000 14592
L161166 15092
" />
<path d="M4000 47560
L4700 47560
" />
<path d="M4385 36610
L4457 36634
L4480 36658
L4504 36705
L4504 36777
L4480 36824
L4457 36848
L4409 36872
L4219 36872
L4219 36372
L4385 36372
L4433 36396
L4457 36420
L4480 36467
L4480 36515
L4457 36562
L4433 36586
L4385 36610
L4219 36610
" />
<path d="M161350 47560
L160650 47560
" />
<path d="M161035 36610
L161107 36634
L161130 36658
L161154 36705
L161154 36777
L161130 36824
L161107 36848
L161059 36872
L160869 36872
L160869 36372
L161035 36372
L161083 36396
L161107 36420
L161130 36467
L161130 36515
L161107 36562
L161083 36586
L161035 36610
L160869 36610
" />
<path d="M4000 69340
L4700 69340
" />
<path d="M4504 58604
L4480 58628
L4409 58652
L4361 58652
L4290 58628
L4242 58580
L4219 58533
L4195 58438
L4195 58366
L4219 58271
L4242 58223
L4290 58176
L4361 58152
L4409 58152
L4480 58176
L4504 58200
" />
<path d="M161350 69340
L160650 69340
" />
<path d="M161154 58604
L161130 58628
L161059 58652
L161011 58652
L160940 58628
L160892 58580
L160869 58533
L160845 58438
L160845 58366
L160869 58271
L160892 58223
L160940 58176
L161011 58152
L161059 58152
L161130 58176
L161154 58200
" />
<path d="M4000 91120
L4700 91120
" />
<path d="M4219 80432
L4219 79932
L4338 79932
L4409 79956
L4457 80003
L4480 80051
L4504 80146
L4504 80218
L4480 80313
L4457 80360
L4409 80408
L4338 80432
L4219 80432
" />
<path d="M161350 91120
L160650 91120
" />
<path d="M160869 80432
L160869 79932
L160988 79932
L161059 79956
L161107 80003
L161130 80051
L161154 80146
L161154 80218
L161130 80313
L161107 80360
L161059 80408
L160988 80432
L160869 80432
" />
<path d="M4242 101950
L4409 101950
" />
<path d="M4480 102212
L4242 102212
L4242 101712
L4480 101712
" />
<path d="M160892 101950
L161059 101950
" />
<path d="M161130 102212
L160892 102212
L160892 101712
L161130 101712
" />
<path d="M127800 110672
L127875 110072
L128017 110072
L128100 110101
L128150 110158
L128171 110215
L128185 110330
L128175 110415
L128132 110530
L128096 110587
L128032 110644
L127942 110672
L127800 110672
" />
<path d="M128657 110672
L128696 110358
L128675 110301
L128621 110272
L128507 110272
L128446 110301
" />
<path d="M128660 110644
L128600 110672
L128457 110672
L128403 110644
L128382 110587
L128389 110530
L128425 110472
L128485 110444
L128628 110444
L128689 110415
" />
<path d="M128907 110272
L129135 110272
" />
<path d="M129017 110072
L128953 110587
L128975 110644
L129028 110672
L129085 110672
" />
<path d="M129517 110644
L129457 110672
L129342 110672
L129289 110644
L129267 110587
L129296 110358
L129332 110301
L129392 110272
L129507 110272
L129560 110301
L129582 110358
L129575 110415
L129282 110472
" />
<path d="M129807 110615
L129832 110644
L129800 110672
L129775 110644
L129807 110615
L129800 110672
" />
<path d="M129846 110301
L129871 110330
L129839 110358
L129814 110330
L129846 110301
L129839 110358
" />
<path d="M130857 110672
L130514 110672
" />
<path d="M130685 110672
L130760 110072
L130692 110158
L130628 110215
L130567 110244
" />
<path d="M131303 110072
L131360 110072
L131414 110101
L131439 110130
L131460 110187
L131475 110301
L131457 110444
L131414 110558
L131378 110615
L131346 110644
L131285 110672
L131228 110672
L131175 110644
L131150 110615
L131128 110558
L131114 110444
L131132 110301
L131175 110187
L131210 110130
L131242 110101
L131303 110072
" />
<path d="M132192 110272
L132128 110787
L132092 110844
L132032 110872
L132003 110872
" />
<path d="M132217 110072
L132185 110101
L132210 110130
L132242 110101
L132217 110072
L132210 110130
" />
<path d="M132735 110272
L132685 110672
" />
<path d="M132478 110272
L132439 110587
L132460 110644
L132514 110672
L132600 110672
L132660 110644
L132692 110615
" />
<path d="M133021 110272
L132971 110672
" />
<path d="M133014 110330
L133046 110301
L133107 110272
L133192 110272
L133246 110301
L133267 110358
L133228 110672
" />
<path d="M134010 110130
L134042 110101
L134103 110072
L134246 110072
L134300 110101
L134325 110130
L134346 110187
L134339 110244
L134300 110330
L133914 110672
L134285 110672
" />
<path d="M134732 110072
L134789 110072
L134842 110101
L134867 110130
L134889 110187
L134903 110301
L134885 110444
L134842 110558
L134807 110615
L134775 110644
L134714 110672
L134657 110672
L134603 110644
L134578 110615
L134557 110558
L134542 110444
L134560 110301
L134603 110187
L134639 110130
L134671 110101
L134732 110072
" />
<path d="M135428 110672
L135085 110672
" />
<path d="M135257 110672
L135332 110072
L135264 110158
L135200 110215
L135139 110244
" />
<path d="M135703 110072
L136075 110072
L135846 110301
L135932 110301
L135985 110330
L136010 110358
L136032 110415
L136014 110558
L135978 110615
L135946 110644
L135885 110672
L135714 110672
L135660 110644
L135635 110615
" />
<path d="M119392 111872
L119392 111272
" />
<path d="M119735 111872
L119478 111530
" />
<path d="M119735 111272
L119392 111615
" />
<path d="M119992 111872
L119992 111472
" />
<path d="M119992 111272
L119964 111301
L119992 111330
L120021 111301
L119992 111272
L119992 111330
" />
<path d="M120621 111815
L120592 111844
L120507 111872
L120450 111872
L120364 111844
L120307 111787
L120278 111730
L120250 111615
L120250 111530
L120278 111415
L120307 111358
L120364 111301
L120450 111272
L120507 111272
L120592 111301
L120621 111330
" />
<path d="M121135 111872
L121135 111558
L121107 111501
L121050 111472
L120935 111472
L120878 111501
" />
<path d="M121135 111844
L121078 111872
L120935 111872
L120878 111844
L120850 111787
L120850 111730
L120878 111672
L120935 111644
L121078 111644
L121135 111615
" />
<path d="M121678 111872
L121678 111272
" />
<path d="M121678 111844
L121621 111872
L121507 111872
L121450 111844
L121421 111815
L121392 111758
L121392 111587
L121421 111530
L121450 111501
L121507 111472
L121621 111472
L121678 111501
" />
<path d="M122421 111558
L122621 111558
" />
<path d="M122707 111872
L122421 111872
L122421 111272
L122707 111272
" />
<path d="M122964 111815
L122992 111844
L122964 111872
L122935 111844
L122964 111815
L122964 111872
" />
<path d="M123249 111872
L123249 111272
L123392 111272
L123478 111301
L123535 111358
L123564 111415
L123592 111530
L123592 111615
L123564 111730
L123535 111787
L123478 111844
L123392 111872
L123249 111872
" />
<path d="M123849 111815
L123878 111844
L123849 111872
L123821 111844
L123849 111815
L123849 111872
" />
<path d="M124107 111701
L124392 111701
" />
<path d="M124049 111872
L124249 111272
L124449 111872
" />
<path d="M124649 111815
L124678 111844
L124649 111872
L124621 111844
L124649 111815
L124649 111872
" />
<path d="M152942 110672
L152778 110387
" />
<path d="M152600 110672
L152675 110072
L152903 110072
L152957 110101
L152982 110130
L153003 110187
L152992 110272
L152957 110330
L152925 110358
L152864 110387
L152635 110387
" />
<path d="M153432 110644
L153371 110672
L153257 110672
L153203 110644
L153182 110587
L153210 110358
L153246 110301
L153307 110272
L153421 110272
L153475 110301
L153496 110358
L153489 110415
L153196 110472
" />
<path d="M153707 110272
L153800 110672
L153992 110272
" />
<path d="M154178 110615
L154203 110644
L154171 110672
L154146 110644
L154178 110615
L154171 110672
" />
<path d="M154217 110301
L154242 110330
L154210 110358
L154185 110330
L154217 110301
L154210 110358
" />
<path d="M119364 110644
L119450 110672
L119592 110672
L119650 110644
L119678 110615
L119707 110558
L119707 110501
L119678 110444
L119650 110415
L119592 110387
L119478 110358
L119421 110330
L119392 110301
L119364 110244
L119364 110187
L119392 110130
L119421 110101
L119478 110072
L119621 110072
L119707 110101
" />
<path d="M119964 110672
L119964 110272
" />
<path d="M119964 110072
L119935 110101
L119964 110130
L119992 110101
L119964 110072
L119964 110130
" />
<path d="M120192 110272
L120507 110272
L120192 110672
L120507 110672
" />
<path d="M120964 110644
L120907 110672
L120792 110672
L120735 110644
L120707 110587
L120707 110358
L120735 110301
L120792 110272
L120907 110272
L120964 110301
L120992 110358
L120992 110415
L120707 110472
" />
<path d="M121250 110615
L121278 110644
L121250 110672
L121221 110644
L121250 110615
L121250 110672
" />
<path d="M121250 110301
L121278 110330
L121250 110358
L121221 110330
L121250 110301
L121250 110358
" />
<path d="M121964 110501
L122250 110501
" />
<path d="M121907 110672
L122107 110072
L122307 110672
" />
<path d="M122450 110072
L122821 110072
L122621 110301
L122707 110301
L122764 110330
L122792 110358
L122821 110415
L122821 110558
L122792 110615
L122764 110644
L122707 110672
L122535 110672
L122478 110644
L122450 110615
" />
<path d="M152592 111872
L152592 111272
" />
<path d="M153135 111872
L153135 111272
" />
<path d="M153135 111844
L153078 111872
L152964 111872
L152907 111844
L152878 111815
L152850 111758
L152850 111587
L152878 111530
L152907 111501
L152964 111472
L153078 111472
L153135 111501
" />
<path d="M153421 111815
L153450 111844
L153421 111872
L153392 111844
L153421 111815
L153421 111872
" />
<path d="M153421 111501
L153450 111530
L153421 111558
L153392 111530
L153421 111501
L153421 111558
" />
<path d="M154478 111872
L154135 111872
" />
<path d="M154307 111872
L154307 111272
L154249 111358
L154192 111415
L154135 111444
" />
<path d="M155164 111244
L154650 112015
" />
<path d="M155678 111872
L155335 111872
" />
<path d="M155507 111872
L155507 111272
L155449 111358
L155392 111415
L155335 111444
" />
<path d="M119389 108872
L119732 108872
" />
<path d="M119485 109472
L119560 108872
" />
<path d="M119857 109472
L119907 109072
" />
<path d="M119932 108872
L119900 108901
L119925 108930
L119957 108901
L119932 108872
L119925 108930
" />
<path d="M120107 109072
L120335 109072
" />
<path d="M120217 108872
L120153 109387
L120175 109444
L120228 109472
L120285 109472
" />
<path d="M120571 109472
L120517 109444
L120496 109387
L120560 108872
" />
<path d="M121032 109444
L120971 109472
L120857 109472
L120803 109444
L120782 109387
L120810 109158
L120846 109101
L120907 109072
L121021 109072
L121075 109101
L121096 109158
L121089 109215
L120796 109272
" />
<path d="M121321 109415
L121346 109444
L121314 109472
L121289 109444
L121321 109415
L121314 109472
" />
<path d="M121360 109101
L121385 109130
L121353 109158
L121328 109130
L121360 109101
L121353 109158
" />
<path d="M119592 106758
L119392 106758
" />
<path d="M119392 107072
L119392 106472
L119678 106472
" />
<path d="M119907 107072
L119907 106672
" />
<path d="M119907 106472
L119878 106501
L119907 106530
L119935 106501
L119907 106472
L119907 106530
" />
<path d="M120278 107072
L120221 107044
L120192 106987
L120192 106472
" />
<path d="M120735 107044
L120678 107072
L120564 107072
L120507 107044
L120478 106987
L120478 106758
L120507 106701
L120564 106672
L120678 106672
L120735 106701
L120764 106758
L120764 106815
L120478 106872
" />
<path d="M121021 107015
L121050 107044
L121021 107072
L120992 107044
L121021 107015
L121021 107072
" />
<path d="M121021 106701
L121050 106730
L121021 106758
L120992 106730
L121021 106701
L121021 106758
" />
<path d="M121878 106472
L121992 106472
L122050 106501
L122107 106558
L122135 106672
L122135 106872
L122107 106987
L122050 107044
L121992 107072
L121878 107072
L121821 107044
L121764 106987
L121735 106872
L121735 106672
L121764 106558
L121821 106501
L121878 106472
" />
<path d="M122650 107044
L122592 107072
L122478 107072
L122421 107044
L122392 107015
L122364 106958
L122364 106787
L122392 106730
L122421 106701
L122478 106672
L122592 106672
L122650 106701
" />
<path d="M122821 106672
L123050 106672
" />
<path d="M122907 106472
L122907 106987
L122935 107044
L122992 107072
L123050 107072
" />
<path d="M123507 107072
L123507 106758
L123478 106701
L123421 106672
L123307 106672
L123250 106701
" />
<path d="M123507 107044
L123450 107072
L123307 107072
L123250 107044
L123221 106987
L123221 106930
L123250 106872
L123307 106844
L123450 106844
L123507 106815
" />
<path d="M123735 106672
L123878 107072
L124021 106672
" />
<path d="M124478 107044
L124421 107072
L124307 107072
L124250 107044
L124221 106987
L124221 106758
L124250 106701
L124307 106672
L124421 106672
L124478 106701
L124507 106758
L124507 106815
L124221 106872
" />
<path d="M125192 107044
L125278 107072
L125421 107072
L125478 107044
L125507 107015
L125535 106958
L125535 106901
L125507 106844
L125478 106815
L125421 106787
L125307 106758
L125250 106730
L125221 106701
L125192 106644
L125192 106587
L125221 106530
L125250 106501
L125307 106472
L125450 106472
L125535 106501
" />
<path d="M125735 106672
L125850 107072
L125964 106787
L126078 107072
L126192 106672
" />
<path d="M126421 107072
L126421 106672
" />
<path d="M126421 106472
L126392 106501
L126421 106530
L126450 106501
L126421 106472
L126421 106530
" />
<path d="M126621 106672
L126850 106672
" />
<path d="M126707 106472
L126707 106987
L126735 107044
L126792 107072
L126850 107072
" />
<path d="M127307 107044
L127250 107072
L127135 107072
L127078 107044
L127050 107015
L127021 106958
L127021 106787
L127050 106730
L127078 106701
L127135 106672
L127250 106672
L127307 106701
" />
<path d="M127564 107072
L127564 106472
" />
<path d="M127821 107072
L127821 106758
L127792 106701
L127735 106672
L127650 106672
L127592 106701
L127564 106730
" />
<path d="M128107 107015
L128135 107044
L128107 107072
L128078 107044
L128107 107015
L128107 107072
" />
<path d="M128392 107072
L128392 106472
" />
<path d="M128450 106844
L128621 107072
" />
<path d="M128621 106672
L128392 106901
" />
<path d="M128878 107072
L128878 106672
" />
<path d="M128878 106472
L128850 106501
L128878 106530
L128907 106501
L128878 106472
L128878 106530
" />
<path d="M129421 107044
L129364 107072
L129249 107072
L129192 107044
L129164 107015
L129135 106958
L129135 106787
L129164 106730
L129192 106701
L129249 106672
L129364 106672
L129421 106701
" />
<path d="M129935 107072
L129935 106758
L129907 106701
L129850 106672
L129735 106672
L129678 106701
" />
<path d="M129935 107044
L129878 107072
L129735 107072
L129678 107044
L129650 106987
L129650 106930
L129678 106872
L129735 106844
L129878 106844
L129935 106815
" />
<path d="M130478 107072
L130478 106472
" />
<path d="M130478 107044
L130421 107072
L130307 107072
L130250 107044
L130221 107015
L130192 106958
L130192 106787
L130221 106730
L130250 106701
L130307 106672
L130421 106672
L130478 106701
" />
<path d="M130621 107130
L131078 107130
" />
<path d="M131221 106672
L131221 107272
" />
<path d="M131221 106701
L131278 106672
L131392 106672
L131450 106701
L131478 106730
L131507 106787
L131507 106958
L131478 107015
L131450 107044
L131392 107072
L131278 107072
L131221 107044
" />
<path d="M132021 107044
L131964 107072
L131849 107072
L131792 107044
L131764 107015
L131735 106958
L131735 106787
L131764 106730
L131792 106701
L131849 106672
L131964 106672
L132021 106701
" />
<path d="M132278 107072
L132278 106472
" />
<path d="M132278 106701
L132335 106672
L132450 106672
L132507 106701
L132535 106730
L132564 106787
L132564 106958
L132535 107015
L132507 107044
L132450 107072
L132335 107072
L132278 107044
" />
<path d="M119364 108244
L119450 108272
L119592 108272
L119650 108244
L119678 108215
L119707 108158
L119707 108101
L119678 108044
L119650 108015
L119592 107987
L119478 107958
L119421 107930
L119392 107901
L119364 107844
L119364 107787
L119392 107730
L119421 107701
L119478 107672
L119621 107672
L119707 107701
" />
<path d="M119964 108272
L119964 107672
" />
<path d="M120221 108272
L120221 107958
L120192 107901
L120135 107872
L120050 107872
L119992 107901
L119964 107930
" />
<path d="M120735 108244
L120678 108272
L120564 108272
L120507 108244
L120478 108187
L120478 107958
L120507 107901
L120564 107872
L120678 107872
L120735 107901
L120764 107958
L120764 108015
L120478 108072
" />
<path d="M121250 108244
L121192 108272
L121078 108272
L121021 108244
L120992 108187
L120992 107958
L121021 107901
L121078 107872
L121192 107872
L121250 107901
L121278 107958
L121278 108015
L120992 108072
" />
<path d="M121450 107872
L121678 107872
" />
<path d="M121535 107672
L121535 108187
L121564 108244
L121621 108272
L121678 108272
" />
<path d="M121878 108215
L121907 108244
L121878 108272
L121850 108244
L121878 108215
L121878 108272
" />
<path d="M121878 107901
L121907 107930
L121878 107958
L121850 107930
L121878 107901
L121878 107958
" />
<path d="M118650 106230
L118650 112230
" />
<path d="M118650 106230
L160650 106230
" />
<path d="M118650 106230
L160650 106230
" />
<path d="M118650 108630
L160650 108630
" />
<path d="M151850 109830
L151850 112230
" />
<path d="M118650 111030
L160650 111030
" />
<path d="M118650 109830
L160650 109830
" />
<path d="M125250 109830
L125250 111030
" />
</g>
<g style="fill:#000000; fill-opacity:0.0; 
stroke:#000000; stroke-width:59.0551; stroke-opacity:1; 
stroke-linecap:round; stroke-linejoin:round;">
<path d="M10236 20078
L12598 20078
" />
<path d="M10236 7874
L10236 20078
" />
<path d="M12598 7874
L10236 7874
" />
<path d="M12598 20078
L32283 20078
" />
<path d="M32283 7874
L12598 7874
" />
<path d="M32283 7874
L32283 20078
" />
</g>
<g style="fill:#000000; fill-opacity:0.0; 
stroke:#000000; stroke-width:30; stroke-opacity:1; 
stroke-linecap:round; stroke-linejoin:round;">
<path d="M13793 18624
L13793 18324
L13865 18324
L13908 18339
L13936 18367
L13951 18396
L13965 18453
L13965 18496
L13951 18553
L13936 18582
L13908 18610
L13865 18624
L13793 18624
" />
<path d="M14251 18624
L14079 18624
" />
<path d="M14165 18624
L14165 18324
L14136 18367
L14108 18396
L14079 18410
" />
<path d="M14056 18168
L14056 18262
L13859 18262
" />
<path d="M14056 18102
L13859 18102
L13999 18037
L13859 17971
L14056 17971
" />
<path d="M13924 17793
L14056 17793
" />
<path d="M13849 17840
L13990 17886
L13990 17764
" />
<path d="M13859 17652
L13859 17633
L13868 17614
L13877 17605
L13896 17596
L13934 17586
L13981 17586
L14018 17596
L14037 17605
L14046 17614
L14056 17633
L14056 17652
L14046 17671
L14037 17680
L14018 17689
L13981 17699
L13934 17699
L13896 17689
L13877 17680
L13868 17671
L13859 17652
" />
<path d="M13924 17417
L14056 17417
" />
<path d="M13849 17464
L13990 17511
L13990 17389
" />
<path d="M13859 17277
L13859 17258
L13868 17239
L13877 17230
L13896 17220
L13934 17211
L13981 17211
L14018 17220
L14037 17230
L14046 17239
L14056 17258
L14056 17277
L14046 17295
L14037 17305
L14018 17314
L13981 17324
L13934 17324
L13896 17314
L13877 17305
L13868 17295
L13859 17277
" />
</g>
<g style="fill:#000000; fill-opacity:0.0; 
stroke:#000000; stroke-width:60; stroke-opacity:1; 
stroke-linecap:round; stroke-linejoin:round;">
<path d="M23076 14509
L23061 14524
L23015 14540
L22985 14540
L22939 14524
L22908 14494
L22893 14463
L22878 14403
L22878 14357
L22893 14296
L22908 14265
L22939 14235
L22985 14220
L23015 14220
L23061 14235
L23076 14250
" />
<path d="M23350 14220
L23289 14220
L23259 14235
L23244 14250
L23213 14296
L23198 14357
L23198 14479
L23213 14509
L23228 14524
L23259 14540
L23320 14540
L23350 14524
L23366 14509
L23381 14479
L23381 14403
L23366 14372
L23350 14357
L23320 14342
L23259 14342
L23228 14357
L23213 14372
L23198 14403
" />
<path d="M17663 12934
L17647 12950
L17602 12965
L17571 12965
L17526 12950
L17495 12919
L17480 12889
L17465 12828
L17465 12782
L17480 12721
L17495 12691
L17526 12660
L17571 12645
L17602 12645
L17647 12660
L17663 12675
" />
<path d="M17937 12752
L17937 12965
" />
<path d="M17861 12630
L17785 12858
L17983 12858
" />
<path d="M16803 10638
L16651 10745
" />
<path d="M16803 10821
L16483 10821
L16483 10699
L16499 10669
L16514 10654
L16544 10638
L16590 10638
L16621 10654
L16636 10669
L16651 10699
L16651 10821
" />
<path d="M16803 10334
L16803 10516
" />
<path d="M16803 10425
L16483 10425
L16529 10455
L16560 10486
L16575 10516
" />
<path d="M16483 10227
L16483 10029
L16605 10135
L16605 10090
L16621 10059
L16636 10044
L16666 10029
L16742 10029
L16773 10044
L16788 10059
L16803 10090
L16803 10181
L16788 10212
L16773 10227
" />
<path d="M26172 14737
L26065 14584
" />
<path d="M25989 14737
L25989 14417
L26111 14417
L26141 14432
L26157 14447
L26172 14477
L26172 14523
L26157 14554
L26141 14569
L26111 14584
L25989 14584
" />
<path d="M26477 14737
L26294 14737
" />
<path d="M26385 14737
L26385 14417
L26355 14462
L26324 14493
L26294 14508
" />
<path d="M26781 14737
L26598 14737
" />
<path d="M26690 14737
L26690 14417
L26659 14462
L26629 14493
L26598 14508
" />
<path d="M26172 13555
L26065 13403
" />
<path d="M25989 13555
L25989 13235
L26111 13235
L26141 13251
L26157 13266
L26172 13296
L26172 13342
L26157 13373
L26141 13388
L26111 13403
L25989 13403
" />
<path d="M26477 13555
L26294 13555
" />
<path d="M26385 13555
L26385 13235
L26355 13281
L26324 13312
L26294 13327
" />
<path d="M26675 13235
L26705 13235
L26736 13251
L26751 13266
L26766 13296
L26781 13357
L26781 13433
L26766 13494
L26751 13525
L26736 13540
L26705 13555
L26675 13555
L26644 13540
L26629 13525
L26614 13494
L26598 13433
L26598 13357
L26614 13296
L26629 13266
L26644 13251
L26675 13235
" />
<path d="M26324 12374
L26217 12222
" />
<path d="M26141 12374
L26141 12054
L26263 12054
L26294 12070
L26309 12085
L26324 12115
L26324 12161
L26309 12191
L26294 12207
L26263 12222
L26141 12222
" />
<path d="M26507 12191
L26477 12176
L26461 12161
L26446 12130
L26446 12115
L26461 12085
L26477 12070
L26507 12054
L26568 12054
L26598 12070
L26614 12085
L26629 12115
L26629 12130
L26614 12161
L26598 12176
L26568 12191
L26507 12191
L26477 12207
L26461 12222
L26446 12252
L26446 12313
L26461 12344
L26477 12359
L26507 12374
L26568 12374
L26598 12359
L26614 12344
L26629 12313
L26629 12252
L26614 12222
L26598 12207
L26568 12191
" />
<path d="M26324 11193
L26217 11041
" />
<path d="M26141 11193
L26141 10873
L26263 10873
L26294 10888
L26309 10904
L26324 10934
L26324 10980
L26309 11010
L26294 11026
L26263 11041
L26141 11041
" />
<path d="M26614 10873
L26461 10873
L26446 11026
L26461 11010
L26492 10995
L26568 10995
L26598 11010
L26614 11026
L26629 11056
L26629 11132
L26614 11163
L26598 11178
L26568 11193
L26492 11193
L26461 11178
L26446 11163
" />
<path d="M26324 10012
L26217 9860
" />
<path d="M26141 10012
L26141 9692
L26263 9692
L26294 9707
L26309 9723
L26324 9753
L26324 9799
L26309 9829
L26294 9844
L26263 9860
L26141 9860
" />
<path d="M26431 9692
L26629 9692
L26522 9814
L26568 9814
L26598 9829
L26614 9844
L26629 9875
L26629 9951
L26614 9982
L26598 9997
L26568 10012
L26477 10012
L26446 9997
L26431 9982
" />
<path d="M15694 16114
L15588 15962
" />
<path d="M15511 16114
L15511 15794
L15633 15794
L15664 15810
L15679 15825
L15694 15855
L15694 15901
L15679 15932
L15664 15947
L15633 15962
L15511 15962
" />
<path d="M15801 15794
L16014 15794
L15877 16114
" />
<path d="M13923 15130
L13816 14978
" />
<path d="M13740 15130
L13740 14810
L13862 14810
L13892 14825
L13907 14841
L13923 14871
L13923 14917
L13907 14947
L13892 14963
L13862 14978
L13740 14978
" />
<path d="M14044 14841
L14060 14825
L14090 14810
L14166 14810
L14197 14825
L14212 14841
L14227 14871
L14227 14902
L14212 14947
L14029 15130
L14227 15130
" />
<path d="M15694 15100
L15679 15115
L15633 15130
L15603 15130
L15557 15115
L15527 15084
L15511 15054
L15496 14993
L15496 14947
L15511 14886
L15527 14856
L15557 14825
L15603 14810
L15633 14810
L15679 14825
L15694 14841
" />
<path d="M15999 15130
L15816 15130
" />
<path d="M15908 15130
L15908 14810
L15877 14856
L15847 14886
L15816 14902
" />
<path d="M17788 10638
L17635 10745
" />
<path d="M17788 10821
L17468 10821
L17468 10699
L17483 10669
L17498 10654
L17529 10638
L17574 10638
L17605 10654
L17620 10669
L17635 10699
L17635 10821
" />
<path d="M17788 10334
L17788 10516
" />
<path d="M17788 10425
L17468 10425
L17513 10455
L17544 10486
L17559 10516
" />
<path d="M17498 10212
L17483 10196
L17468 10166
L17468 10090
L17483 10059
L17498 10044
L17529 10029
L17559 10029
L17605 10044
L17788 10227
L17788 10029
" />
<path d="M17663 13050
L17647 13065
L17602 13081
L17571 13081
L17526 13065
L17495 13035
L17480 13004
L17465 12943
L17465 12898
L17480 12837
L17495 12806
L17526 12776
L17571 12761
L17602 12761
L17647 12776
L17663 12791
" />
<path d="M17952 12761
L17800 12761
L17785 12913
L17800 12898
L17830 12883
L17907 12883
L17937 12898
L17952 12913
L17967 12943
L17967 13020
L17952 13050
L17937 13065
L17907 13081
L17830 13081
L17800 13065
L17785 13050
" />
<path d="M17663 13919
L17647 13934
L17602 13949
L17571 13949
L17526 13934
L17495 13903
L17480 13873
L17465 13812
L17465 13766
L17480 13705
L17495 13675
L17526 13644
L17571 13629
L17602 13629
L17647 13644
L17663 13660
" />
<path d="M17769 13629
L17967 13629
L17861 13751
L17907 13751
L17937 13766
L17952 13781
L17967 13812
L17967 13888
L17952 13919
L17937 13934
L17907 13949
L17815 13949
L17785 13934
L17769 13919
" />
<path d="M21009 18002
L20902 17849
" />
<path d="M20826 18002
L20826 17682
L20948 17682
L20979 17697
L20994 17712
L21009 17743
L21009 17789
L20994 17819
L20979 17834
L20948 17849
L20826 17849
" />
<path d="M21162 18002
L21222 18002
L21253 17987
L21268 17971
L21299 17926
L21314 17865
L21314 17743
L21299 17712
L21283 17697
L21253 17682
L21192 17682
L21162 17697
L21146 17712
L21131 17743
L21131 17819
L21146 17849
L21162 17865
L21192 17880
L21253 17880
L21283 17865
L21299 17849
L21314 17819
" />
<path d="M15694 17068
L15679 17083
L15633 17099
L15603 17099
L15557 17083
L15527 17053
L15511 17023
L15496 16962
L15496 16916
L15511 16855
L15527 16824
L15557 16794
L15603 16779
L15633 16779
L15679 16794
L15694 16809
" />
<path d="M15816 16809
L15831 16794
L15862 16779
L15938 16779
L15968 16794
L15984 16809
L15999 16840
L15999 16870
L15984 16916
L15801 17099
L15999 17099
" />
<path d="M21993 17018
L21887 16865
" />
<path d="M21811 17018
L21811 16698
L21932 16698
L21963 16713
L21978 16728
L21993 16759
L21993 16804
L21978 16835
L21963 16850
L21932 16865
L21811 16865
" />
<path d="M22268 16698
L22207 16698
L22176 16713
L22161 16728
L22131 16774
L22115 16835
L22115 16957
L22131 16987
L22146 17002
L22176 17018
L22237 17018
L22268 17002
L22283 16987
L22298 16957
L22298 16880
L22283 16850
L22268 16835
L22237 16820
L22176 16820
L22146 16835
L22131 16850
L22115 16880
" />
<path d="M13923 16114
L13816 15962
" />
<path d="M13740 16114
L13740 15794
L13862 15794
L13892 15810
L13907 15825
L13923 15855
L13923 15901
L13907 15932
L13892 15947
L13862 15962
L13740 15962
" />
<path d="M14197 15901
L14197 16114
" />
<path d="M14121 15779
L14044 16008
L14243 16008
" />
<path d="M13923 15246
L13816 15094
" />
<path d="M13740 15246
L13740 14926
L13862 14926
L13892 14941
L13907 14956
L13923 14987
L13923 15033
L13907 15063
L13892 15078
L13862 15094
L13740 15094
" />
<path d="M14227 15246
L14044 15246
" />
<path d="M14136 15246
L14136 14926
L14105 14972
L14075 15002
L14044 15017
" />
</g>
<g style="fill:#000000; fill-opacity:0.0; 
stroke:#000000; stroke-width:120; stroke-opacity:1; 
stroke-linecap:round; stroke-linejoin:round;">
<path d="M13957 17014
L14300 17014
" />
<path d="M14129 17014
L14129 16414
L14186 16500
L14243 16557
L14300 16585
" />
<path d="M13586 16414
L13529 16414
L13471 16443
L13443 16471
L13414 16528
L13386 16643
L13386 16785
L13414 16900
L13443 16957
L13471 16985
L13529 17014
L13586 17014
L13643 16985
L13671 16957
L13700 16900
L13729 16785
L13729 16643
L13700 16528
L13671 16471
L13643 16443
L13586 16414
" />
<path d="M13129 17014
L13129 16414
" />
<path d="M12786 17014
L13043 16671
" />
<path d="M12786 16414
L13129 16757
" />
</g>
<g style="fill:#000000; fill-opacity:0.0; 
stroke:#000000; stroke-width:59.0551; stroke-opacity:1; 
stroke-linecap:round; stroke-linejoin:round;">
<path d="M27719 9516
L27128 9516
L27128 9656
L27156 9741
L27213 9797
L27269 9825
L27381 9853
L27466 9853
L27578 9825
L27634 9797
L27691 9741
L27719 9656
L27719 9516
" />
<path d="M27719 10106
L27128 10106
L27128 10331
L27156 10388
L27185 10416
L27241 10444
L27325 10444
L27381 10416
L27410 10388
L27438 10331
L27438 10106
" />
<path d="M27128 10950
L27128 10838
L27156 10781
L27185 10753
L27269 10697
L27381 10669
L27606 10669
L27663 10697
L27691 10725
L27719 10781
L27719 10894
L27691 10950
L27663 10978
L27606 11006
L27466 11006
L27410 10978
L27381 10950
L27353 10894
L27353 10781
L27381 10725
L27410 10697
L27466 10669
" />
<path d="M27128 11175
L27128 11512
" />
<path d="M27719 11344
L27128 11344
" />
<path d="M27494 11709
L27494 12159
" />
<path d="M27775 12834
L27747 12778
L27691 12722
L27606 12637
L27578 12581
L27578 12525
" />
<path d="M27719 12553
L27691 12497
L27634 12440
L27522 12412
L27325 12412
L27213 12440
L27156 12497
L27128 12553
L27128 12665
L27156 12722
L27213 12778
L27325 12806
L27522 12806
L27634 12778
L27691 12722
L27719 12665
L27719 12553
" />
<path d="M27438 13172
L27719 13172
" />
<path d="M27128 12975
L27438 13172
L27128 13368
" />
<path d="M27494 13565
L27494 14015
" />
<path d="M27185 14268
L27156 14296
L27128 14353
L27128 14493
L27156 14550
L27185 14578
L27241 14606
L27297 14606
L27381 14578
L27719 14240
L27719 14606
" />
<path d="M27128 15140
L27128 14859
L27410 14831
L27381 14859
L27353 14915
L27353 15056
L27381 15112
L27410 15140
L27466 15168
L27606 15168
L27663 15140
L27691 15112
L27719 15056
L27719 14915
L27691 14859
L27663 14831
" />
<path d="M27691 15393
L27719 15478
L27719 15618
L27691 15674
L27663 15703
L27606 15731
L27550 15731
L27494 15703
L27466 15674
L27438 15618
L27410 15506
L27381 15449
L27353 15421
L27297 15393
L27241 15393
L27185 15421
L27156 15449
L27128 15506
L27128 15646
L27156 15731
" />
<path d="M27494 15984
L27494 16434
" />
<path d="M27550 16687
L27550 16968
" />
<path d="M27719 16631
L27128 16827
L27719 17024
" />
<path d="M25947 9966
L25947 9628
" />
<path d="M25947 9797
L25357 9797
L25441 9741
L25497 9685
L25525 9628
" />
<path d="M25413 10191
L25385 10219
L25357 10275
L25357 10416
L25385 10472
L25413 10500
L25469 10528
L25525 10528
L25610 10500
L25947 10163
L25947 10528
" />
<path d="M24766 11625
L24766 11287
" />
<path d="M24766 11456
L24176 11456
L24260 11400
L24316 11344
L24344 11287
" />
<path d="M30278 13467
L29687 13467
L29687 13607
L29715 13692
L29772 13748
L29828 13776
L29940 13804
L30025 13804
L30137 13776
L30194 13748
L30250 13692
L30278 13607
L30278 13467
" />
<path d="M24991 13481
L24991 13762
" />
<path d="M25160 13425
L24569 13622
L25160 13818
" />
</g>
<g style="fill:#000000; fill-opacity:0.0; 
stroke:#000000; stroke-width:120; stroke-opacity:1; 
stroke-linecap:round; stroke-linejoin:round;">
<path d="M16445 7271
L16416 7300
L16330 7329
L16273 7329
L16187 7300
L16130 7243
L16102 7186
L16073 7071
L16073 6986
L16102 6871
L16130 6814
L16187 6757
L16273 6729
L16330 6729
L16416 6757
L16445 6786
" />
<path d="M16816 6729
L16930 6729
L16987 6757
L17045 6814
L17073 6929
L17073 7129
L17045 7243
L16987 7300
L16930 7329
L16816 7329
L16759 7300
L16702 7243
L16673 7129
L16673 6929
L16702 6814
L16759 6757
L16816 6729
" />
<path d="M17330 7329
L17330 6729
L17673 7329
L17673 6729
" />
<path d="M17959 7329
L17959 6729
L18302 7329
L18302 6729
" />
<path d="M18445 7386
L18902 7386
" />
<path d="M19302 6929
L19302 7329
" />
<path d="M19159 6700
L19016 7129
L19387 7129
" />
<path d="M23531 20461
L23503 20489
L23417 20518
L23360 20518
L23274 20489
L23217 20432
L23188 20375
L23160 20261
L23160 20175
L23188 20061
L23217 20004
L23274 19947
L23360 19918
L23417 19918
L23503 19947
L23531 19975
" />
<path d="M23903 19918
L24017 19918
L24074 19947
L24131 20004
L24160 20118
L24160 20318
L24131 20432
L24074 20489
L24017 20518
L23903 20518
L23846 20489
L23788 20432
L23760 20318
L23760 20118
L23788 20004
L23846 19947
L23903 19918
" />
<path d="M24417 20518
L24417 19918
L24760 20518
L24760 19918
" />
<path d="M25046 20518
L25046 19918
L25388 20518
L25388 19918
" />
<path d="M25531 20575
L25988 20575
" />
<path d="M26446 20518
L26103 20518
" />
<path d="M26274 20518
L26274 19918
L26217 20004
L26160 20061
L26103 20089
" />
<path d="M21524 20912
L21182 20912
" />
<path d="M21353 20912
L21353 20312
L21296 20398
L21239 20455
L21182 20483
" />
<path d="M21782 20912
L21782 20312
" />
<path d="M22124 20912
L21867 20569
" />
<path d="M22124 20312
L21782 20655
" />
</g>
<g style="fill:#000000; fill-opacity:0.0; 
stroke:#000000; stroke-width:60; stroke-opacity:1; 
stroke-linecap:round; stroke-linejoin:round;">
<path d="M19728 15839
L19728 16098
L19743 16128
L19759 16143
L19789 16159
L19850 16159
L19881 16143
L19896 16128
L19911 16098
L19911 15839
" />
<path d="M20231 16159
L20048 16159
" />
<path d="M20140 16159
L20140 15839
L20109 15884
L20079 15915
L20048 15930
" />
<path d="M19044 11339
L19227 11339
" />
<path d="M19135 11659
L19135 11339
" />
<path d="M19486 11659
L19333 11659
L19333 11339
" />
<path d="M19653 11339
L19684 11339
L19714 11354
L19730 11369
L19745 11400
L19760 11460
L19760 11537
L19745 11598
L19730 11628
L19714 11643
L19684 11659
L19653 11659
L19623 11643
L19608 11628
L19592 11598
L19577 11537
L19577 11460
L19592 11400
L19608 11369
L19623 11354
L19653 11339
" />
<path d="M19867 11339
L20080 11339
L19943 11659
" />
<path d="M20339 11445
L20339 11659
" />
<path d="M20263 11323
L20187 11552
L20385 11552
" />
</g>
<g style="fill:#000000; fill-opacity:0.0; 
stroke:#000000; stroke-width:50; stroke-opacity:1; 
stroke-linecap:round; stroke-linejoin:round;">
<path d="M13676 17516
L13876 17216
" />
<path d="M13676 18216
L13676 17191
" />
<path d="M13676 17191
L14276 17191
" />
<path d="M14276 17191
L14276 18216
" />
<path d="M14276 18216
L13676 18216
" />
<path d="M22849 15260
L22449 15260
" />
<path d="M22449 15260
L22449 14660
" />
<path d="M22449 14660
L22849 14660
" />
<path d="M23409 14660
L23809 14660
" />
<path d="M23809 14660
L23809 15260
" />
<path d="M23809 15260
L23409 15260
" />
<path d="M17436 13685
L17036 13685
" />
<path d="M17036 13685
L17036 13085
" />
<path d="M17036 13085
L17436 13085
" />
<path d="M17996 13085
L18396 13085
" />
<path d="M18396 13085
L18396 13685
" />
<path d="M18396 13685
L17996 13685
" />
<path d="M17524 10713
L17524 11113
" />
<path d="M17524 11113
L16924 11113
" />
<path d="M16924 11113
L16924 10713
" />
<path d="M16924 10153
L16924 9753
" />
<path d="M16924 9753
L17524 9753
" />
<path d="M17524 9753
L17524 10153
" />
<path d="M26097 15457
L25697 15457
" />
<path d="M25697 15457
L25697 14857
" />
<path d="M25697 14857
L26097 14857
" />
<path d="M26657 14857
L27057 14857
" />
<path d="M27057 14857
L27057 15457
" />
<path d="M27057 15457
L26657 15457
" />
<path d="M26097 14276
L25697 14276
" />
<path d="M25697 14276
L25697 13676
" />
<path d="M25697 13676
L26097 13676
" />
<path d="M26657 13676
L27057 13676
" />
<path d="M27057 13676
L27057 14276
" />
<path d="M27057 14276
L26657 14276
" />
<path d="M26097 13095
L25697 13095
" />
<path d="M25697 13095
L25697 12495
" />
<path d="M25697 12495
L26097 12495
" />
<path d="M26657 12495
L27057 12495
" />
<path d="M27057 12495
L27057 13095
" />
<path d="M27057 13095
L26657 13095
" />
<path d="M26097 11914
L25697 11914
" />
<path d="M25697 11914
L25697 11314
" />
<path d="M25697 11314
L26097 11314
" />
<path d="M26657 11314
L27057 11314
" />
<path d="M27057 11314
L27057 11914
" />
<path d="M27057 11914
L26657 11914
" />
<path d="M26097 10733
L25697 10733
" />
<path d="M25697 10733
L25697 10133
" />
<path d="M25697 10133
L26097 10133
" />
<path d="M26657 10133
L27057 10133
" />
<path d="M27057 10133
L27057 10733
" />
<path d="M27057 10733
L26657 10733
" />
<path d="M15468 16835
L15068 16835
" />
<path d="M15068 16835
L15068 16235
" />
<path d="M15068 16235
L15468 16235
" />
<path d="M16028 16235
L16428 16235
" />
<path d="M16428 16235
L16428 16835
" />
<path d="M16428 16835
L16028 16835
" />
<path d="M13696 15851
L13296 15851
" />
<path d="M13296 15851
L13296 15251
" />
<path d="M13296 15251
L13696 15251
" />
<path d="M14256 15251
L14656 15251
" />
<path d="M14656 15251
L14656 15851
" />
<path d="M14656 15851
L14256 15851
" />
<path d="M15468 15851
L15068 15851
" />
<path d="M15068 15851
L15068 15251
" />
<path d="M15068 15251
L15468 15251
" />
<path d="M16028 15251
L16428 15251
" />
<path d="M16428 15251
L16428 15851
" />
<path d="M16428 15851
L16028 15851
" />
<path d="M18508 10713
L18508 11113
" />
<path d="M18508 11113
L17908 11113
" />
<path d="M17908 11113
L17908 10713
" />
<path d="M17908 10153
L17908 9753
" />
<path d="M17908 9753
L18508 9753
" />
<path d="M18508 9753
L18508 10153
" />
<path d="M17996 12101
L18396 12101
" />
<path d="M18396 12101
L18396 12701
" />
<path d="M18396 12701
L17996 12701
" />
<path d="M17436 12701
L17036 12701
" />
<path d="M17036 12701
L17036 12101
" />
<path d="M17036 12101
L17436 12101
" />
<path d="M17436 14670
L17036 14670
" />
<path d="M17036 14670
L17036 14070
" />
<path d="M17036 14070
L17436 14070
" />
<path d="M17996 14070
L18396 14070
" />
<path d="M18396 14070
L18396 14670
" />
<path d="M18396 14670
L17996 14670
" />
<path d="M21342 17022
L21742 17022
" />
<path d="M21742 17022
L21742 17622
" />
<path d="M21742 17622
L21342 17622
" />
<path d="M20782 17622
L20382 17622
" />
<path d="M20382 17622
L20382 17022
" />
<path d="M20382 17022
L20782 17022
" />
<path d="M15468 17819
L15068 17819
" />
<path d="M15068 17819
L15068 17219
" />
<path d="M15068 17219
L15468 17219
" />
<path d="M16028 17219
L16428 17219
" />
<path d="M16428 17219
L16428 17819
" />
<path d="M16428 17819
L16028 17819
" />
<path d="M22327 16038
L22727 16038
" />
<path d="M22727 16038
L22727 16638
" />
<path d="M22727 16638
L22327 16638
" />
<path d="M21767 16638
L21367 16638
" />
<path d="M21367 16638
L21367 16038
" />
<path d="M21367 16038
L21767 16038
" />
<path d="M13696 16835
L13296 16835
" />
<path d="M13296 16835
L13296 16235
" />
<path d="M13296 16235
L13696 16235
" />
<path d="M14256 16235
L14656 16235
" />
<path d="M14656 16235
L14656 16835
" />
<path d="M14656 16835
L14256 16835
" />
<path d="M14256 14266
L14656 14266
" />
<path d="M14656 14266
L14656 14866
" />
<path d="M14656 14866
L14256 14866
" />
<path d="M13696 14866
L13296 14866
" />
<path d="M13296 14866
L13296 14266
" />
<path d="M13296 14266
L13696 14266
" />
</g>
<g style="fill:#000000; fill-opacity:0.0; 
stroke:#000000; stroke-width:59.0551; stroke-opacity:1; 
stroke-linecap:round; stroke-linejoin:round;">
<path d="M14724 17952
L14724 19133
" />
<path d="M14724 19133
L16299 19133
" />
<path d="M12755 17952
L12755 19133
" />
<path d="M12755 19133
L14330 19133
" />
<path d="M14330 19133
L14330 17952
" />
<path d="M10787 19133
L12362 19133
" />
<path d="M12362 19133
L12362 17952
" />
<path d="M16299 17952
L10787 17952
" />
<path d="M10787 19133
L10787 14803
" />
<path d="M16299 19133
L16299 14803
" />
<circle cx="13543.3" cy="12834.6" r="1181.1" /> 
<circle cx="13543.3" cy="12834.6" r="3346.46" /> 
<path d="M32775 10874
L32775 14811
" />
<path d="M32775 10874
L31988 10874
" />
<path d="M32775 14811
L31988 14811
" />
<path d="M32775.6 14614.2 A2505.5 2505.5 0.0 0 0 32775.6 11070.9 " />
<path d="M26080.4 17566 A4861.85 4861.85 0.0 0 0 32381 14813.3 " />
<path d="M32381 10895.3 A4861.85 4861.85 0.0 0 0 26080.4 8142.64 " />
<path d="M28864.5 8103.27 A4861.85 4861.85 0.0 0 0 22563.9 10855.9 " />
<path d="M22560 14805.5 A4861.85 4861.85 0.0 0 0 28860.6 17558.1 " />
<path d="M22165.4 11063 A2505.5 2505.5 0.0 0 0 22165.4 14606.3 " />
<path d="M22165 14803
L22952 14803
" />
<path d="M22165 10866
L22952 10866
" />
<path d="M22165 10866
L22165 14803
" />
<circle cx="27480.3" cy="12834.6" r="4921.26" /> 
<circle cx="27480.3" cy="12834.6" r="3937.01" /> 
</g>
<g style="fill:#000000; fill-opacity:0.0; 
stroke:#000000; stroke-width:150; stroke-opacity:1; 
stroke-linecap:round; stroke-linejoin:round;">
<path d="M18716 9458
L18716 8258
" />
<path d="M19816 9458
L19816 8258
" />
<path d="M19816 8258
L15616 8258
" />
<path d="M15616 8258
L15616 9458
" />
<path d="M15616 9458
L19816 9458
" />
</g>
<g style="fill:#000000; fill-opacity:0.0; 
stroke:#000000; stroke-width:140; stroke-opacity:1; 
stroke-linecap:round; stroke-linejoin:round;">
<path d="M24253 19497
L25353 19497
" />
<path d="M24253 18297
L25403 18297
" />
<path d="M24203 19497
L24203 18297
" />
<path d="M25403 18297
L25403 19497
" />
<path d="M20275 18110
L20275 18897
" />
<circle cx="20275.6" cy="18503.9" r="393.701" /> 
<path d="M19685 19881
L19685 17913
" />
<path d="M19685 17913
L23622 17913
" />
<path d="M23622 17913
L23622 19881
" />
<path d="M23622 19881
L19685 19881
" />
</g>
<g style="fill:#000000; fill-opacity:0.0; 
stroke:#000000; stroke-width:26; stroke-opacity:1; 
stroke-linecap:round; stroke-linejoin:round;">
<path d="M21692 15375
L21692 15182
" />
<path d="M21692 15182
L21259 15182
" />
<path d="M21259 15375
L21259 15182
" />
<path d="M21692 15375
L21259 15375
" />
<path d="M21692 14875
L21692 14682
" />
<path d="M21692 14682
L21259 14682
" />
<path d="M21259 14875
L21259 14682
" />
<path d="M21692 14875
L21259 14875
" />
<path d="M21692 14375
L21692 14182
" />
<path d="M21692 14182
L21259 14182
" />
<path d="M21259 14375
L21259 14182
" />
<path d="M21692 14375
L21259 14375
" />
<path d="M21692 13875
L21692 13683
" />
<path d="M21692 13683
L21259 13683
" />
<path d="M21259 13875
L21259 13683
" />
<path d="M21692 13875
L21259 13875
" />
<path d="M19685 13875
L19685 13683
" />
<path d="M19685 13683
L19252 13683
" />
<path d="M19252 13875
L19252 13683
" />
<path d="M19685 13875
L19252 13875
" />
<path d="M19685 14375
L19685 14182
" />
<path d="M19685 14182
L19252 14182
" />
<path d="M19252 14375
L19252 14182
" />
<path d="M19685 14375
L19252 14375
" />
<path d="M19685 14875
L19685 14682
" />
<path d="M19685 14682
L19252 14682
" />
<path d="M19252 14875
L19252 14682
" />
<path d="M19685 14875
L19252 14875
" />
<path d="M19685 15375
L19685 15182
" />
<path d="M19685 15182
L19252 15182
" />
<path d="M19252 15375
L19252 15182
" />
<path d="M19685 15375
L19252 15375
" />
<path d="M21692 13376
L21692 13183
" />
<path d="M21692 13183
L21259 13183
" />
<path d="M21259 13376
L21259 13183
" />
<path d="M21692 13376
L21259 13376
" />
<path d="M21692 12876
L21692 12683
" />
<path d="M21692 12683
L21259 12683
" />
<path d="M21259 12876
L21259 12683
" />
<path d="M21692 12876
L21259 12876
" />
<path d="M21692 12376
L21692 12183
" />
<path d="M21692 12183
L21259 12183
" />
<path d="M21259 12376
L21259 12183
" />
<path d="M21692 12376
L21259 12376
" />
<path d="M19685 12376
L19685 12183
" />
<path d="M19685 12183
L19252 12183
" />
<path d="M19252 12376
L19252 12183
" />
<path d="M19685 12376
L19252 12376
" />
<path d="M19685 12876
L19685 12683
" />
<path d="M19685 12683
L19252 12683
" />
<path d="M19252 12876
L19252 12683
" />
<path d="M19685 12876
L19252 12876
" />
<path d="M19685 13376
L19685 13183
" />
<path d="M19685 13183
L19252 13183
" />
<path d="M19252 13376
L19252 13183
" />
<path d="M19685 13376
L19252 13376
" />
</g>
<g style="fill:#000000; fill-opacity:0.0; 
stroke:#000000; stroke-width:78; stroke-opacity:1; 
stroke-linecap:round; stroke-linejoin:round;">
<path d="M18937 15706
L18937 11852
" />
<path d="M22007 11852
L22007 15706
" />
<path d="M22007 15706
L18937 15706
" />
</g>
<g style="fill:#000000; fill-opacity:0.0; 
stroke:#000000; stroke-width:80; stroke-opacity:1; 
stroke-linecap:round; stroke-linejoin:round;">
<path d="M21220 12085
L21220 15473
" />
<path d="M21220 15473
L21023 15473
" />
<path d="M21023 15473
L19724 15473
" />
<path d="M21023 12085
L21023 15473
" />
<path d="M19724 12085
L21023 12085
" />
<path d="M21023 12085
L21220 12085
" />
</g>
<g style="fill:#000000; fill-opacity:0.0; 
stroke:#000000; stroke-width:78; stroke-opacity:1; 
stroke-linecap:round; stroke-linejoin:round;">
<path d="M18937 11852
L22007 11852
" />
</g>
<g style="fill:#000000; fill-opacity:0.0; 
stroke:#000000; stroke-width:80; stroke-opacity:1; 
stroke-linecap:round; stroke-linejoin:round;">
<path d="M19724 15473
L19724 12085
" />
</g>
<g style="fill:#000000; fill-opacity:0.0; 
stroke:#000000; stroke-width:39.3701; stroke-opacity:1; 
stroke-linecap:round; stroke-linejoin:round;">
</g>
<g style="fill:#000000; fill-opacity:1.0; 
stroke:#000000; stroke-width:39.3701; stroke-opacity:1; 
stroke-linecap:round; stroke-linejoin:round;">
<polyline style="fill-rule:evenodd;"
points="14299,17598
14653,17598
14653,17834
14299,17834
14299,17598
" /> 
<polyline style="fill-rule:evenodd;"
points="13299,17973
13653,17973
13653,18209
13299,18209
13299,17973
" /> 
<polyline style="fill-rule:evenodd;"
points="13299,17223
13653,17223
13653,17459
13299,17459
13299,17223
" /> 
<polyline style="fill-rule:evenodd;"
points="22499,15215
22499,14705
22910,14705
22910,15215
22499,15215
" /> 
<polyline style="fill-rule:evenodd;"
points="23349,15215
23349,14705
23760,14705
23760,15215
23349,15215
" /> 
<polyline style="fill-rule:evenodd;"
points="17086,13641
17086,13130
17496,13130
17496,13641
17086,13641
" /> 
<polyline style="fill-rule:evenodd;"
points="17936,13641
17936,13130
18346,13130
18346,13641
17936,13641
" /> 
<polyline style="fill-rule:evenodd;"
points="17479,11063
16969,11063
16969,10652
17479,10652
17479,11063
" /> 
<polyline style="fill-rule:evenodd;"
points="17479,10213
16969,10213
16969,9802
17479,9802
17479,10213
" /> 
<polyline style="fill-rule:evenodd;"
points="25747,15412
25747,14902
26158,14902
26158,15412
25747,15412
" /> 
<polyline style="fill-rule:evenodd;"
points="26597,15412
26597,14902
27008,14902
27008,15412
26597,15412
" /> 
<polyline style="fill-rule:evenodd;"
points="25747,14231
25747,13721
26158,13721
26158,14231
25747,14231
" /> 
<polyline style="fill-rule:evenodd;"
points="26597,14231
26597,13721
27008,13721
27008,14231
26597,14231
" /> 
<polyline style="fill-rule:evenodd;"
points="25747,13050
25747,12539
26158,12539
26158,13050
25747,13050
" /> 
<polyline style="fill-rule:evenodd;"
points="26597,13050
26597,12539
27008,12539
27008,13050
26597,13050
" /> 
<polyline style="fill-rule:evenodd;"
points="25747,11869
25747,11358
26158,11358
26158,11869
25747,11869
" /> 
<polyline style="fill-rule:evenodd;"
points="26597,11869
26597,11358
27008,11358
27008,11869
26597,11869
" /> 
<polyline style="fill-rule:evenodd;"
points="25747,10688
25747,10177
26158,10177
26158,10688
25747,10688
" /> 
<polyline style="fill-rule:evenodd;"
points="26597,10688
26597,10177
27008,10177
27008,10688
26597,10688
" /> 
<polyline style="fill-rule:evenodd;"
points="15117,16790
15117,16280
15528,16280
15528,16790
15117,16790
" /> 
<polyline style="fill-rule:evenodd;"
points="15967,16790
15967,16280
16378,16280
16378,16790
15967,16790
" /> 
<polyline style="fill-rule:evenodd;"
points="13346,15806
13346,15295
13756,15295
13756,15806
13346,15806
" /> 
<polyline style="fill-rule:evenodd;"
points="14196,15806
14196,15295
14606,15295
14606,15806
14196,15806
" /> 
<polyline style="fill-rule:evenodd;"
points="15117,15806
15117,15295
15528,15295
15528,15806
15117,15806
" /> 
<polyline style="fill-rule:evenodd;"
points="15967,15806
15967,15295
16378,15295
16378,15806
15967,15806
" /> 
<polyline style="fill-rule:evenodd;"
points="18463,11063
17953,11063
17953,10652
18463,10652
18463,11063
" /> 
<polyline style="fill-rule:evenodd;"
points="18463,10213
17953,10213
17953,9802
18463,9802
18463,10213
" /> 
<polyline style="fill-rule:evenodd;"
points="18346,12146
18346,12656
17936,12656
17936,12146
18346,12146
" /> 
<polyline style="fill-rule:evenodd;"
points="17496,12146
17496,12656
17086,12656
17086,12146
17496,12146
" /> 
<polyline style="fill-rule:evenodd;"
points="17086,14625
17086,14114
17496,14114
17496,14625
17086,14625
" /> 
<polyline style="fill-rule:evenodd;"
points="17936,14625
17936,14114
18346,14114
18346,14625
17936,14625
" /> 
<polyline style="fill-rule:evenodd;"
points="21693,17067
21693,17578
21282,17578
21282,17067
21693,17067
" /> 
<polyline style="fill-rule:evenodd;"
points="20843,17067
20843,17578
20432,17578
20432,17067
20843,17067
" /> 
<polyline style="fill-rule:evenodd;"
points="15117,17775
15117,17264
15528,17264
15528,17775
15117,17775
" /> 
<polyline style="fill-rule:evenodd;"
points="15967,17775
15967,17264
16378,17264
16378,17775
15967,17775
" /> 
<polyline style="fill-rule:evenodd;"
points="22677,16083
22677,16593
22266,16593
22266,16083
22677,16083
" /> 
<polyline style="fill-rule:evenodd;"
points="21827,16083
21827,16593
21416,16593
21416,16083
21827,16083
" /> 
<polyline style="fill-rule:evenodd;"
points="13346,16790
13346,16280
13756,16280
13756,16790
13346,16790
" /> 
<polyline style="fill-rule:evenodd;"
points="14196,16790
14196,16280
14606,16280
14606,16790
14196,16790
" /> 
<polyline style="fill-rule:evenodd;"
points="14606,14311
14606,14822
14196,14822
14196,14311
14606,14311
" /> 
<polyline style="fill-rule:evenodd;"
points="13756,14311
13756,14822
13346,14822
13346,14311
13756,14311
" /> 
<circle cx="13543.3" cy="19133.9" r="373.815" /> 
<circle cx="11574.8" cy="19133.9" r="373.815" /> 
<circle cx="15511.8" cy="19133.9" r="373.815" /> 
<circle cx="23677.2" cy="11815" r="374.016" /> 
<circle cx="24696.9" cy="10051.2" r="374.016" /> 
<circle cx="26460.6" cy="9031.5" r="374.016" /> 
<circle cx="28500" cy="9031.5" r="374.016" /> 
<circle cx="30263.8" cy="10051.2" r="374.016" /> 
<circle cx="31283.5" cy="11815" r="374.016" /> 
<circle cx="30039.4" cy="12834.6" r="374.016" /> 
<circle cx="24921.3" cy="12834.6" r="374.016" /> 
<circle cx="23677.2" cy="13854.3" r="374.016" /> 
<circle cx="24696.9" cy="15618.1" r="374.016" /> 
<circle cx="26460.6" cy="16637.8" r="374.016" /> 
<circle cx="28500" cy="16637.8" r="374.016" /> 
<circle cx="30263.8" cy="15618.1" r="374.016" /> 
<circle cx="31283.5" cy="13854.3" r="374.016" /> 
<polyline style="fill-rule:evenodd;"
points="19590,8484
19590,9232
18842,9232
18842,8484
19590,8484
" /> 
<circle cx="18216.5" cy="8858.27" r="373.815" /> 
<circle cx="17216.5" cy="8858.27" r="373.815" /> 
<circle cx="16216.5" cy="8858.27" r="373.815" /> 
<polyline style="fill-rule:evenodd;"
points="24429,19271
24429,18523
25176,18523
25176,19271
24429,19271
" /> 
<circle cx="21653.5" cy="18897.6" r="373.815" /> 
<circle cx="22653.5" cy="18897.6" r="373.815" /> 
<polyline style="fill-rule:evenodd;"
points="20279,19271
20279,18523
21027,18523
21027,19271
20279,19271
" /> 
<polyline style="fill-rule:evenodd;"
points="21908,15377
21082,15377
21082,15181
21908,15181
21908,15377
" /> 
<polyline style="fill-rule:evenodd;"
points="21908,14877
21082,14877
21082,14681
21908,14681
21908,14877
" /> 
<polyline style="fill-rule:evenodd;"
points="21908,14377
21082,14377
21082,14181
21908,14181
21908,14377
" /> 
<polyline style="fill-rule:evenodd;"
points="21908,13877
21082,13877
21082,13681
21908,13681
21908,13877
" /> 
<polyline style="fill-rule:evenodd;"
points="21908,13377
21082,13377
21082,13181
21908,13181
21908,13377
" /> 
<polyline style="fill-rule:evenodd;"
points="21908,12877
21082,12877
21082,12681
21908,12681
21908,12877
" /> 
<polyline style="fill-rule:evenodd;"
points="21908,12377
21082,12377
21082,12181
21908,12181
21908,12377
" /> 
<polyline style="fill-rule:evenodd;"
points="19862,12377
19036,12377
19036,12181
19862,12181
19862,12377
" /> 
<polyline style="fill-rule:evenodd;"
points="19862,12877
19036,12877
19036,12681
19862,12681
19862,12877
" /> 
<polyline style="fill-rule:evenodd;"
points="19862,13377
19036,13377
19036,13181
19862,13181
19862,13377
" /> 
<polyline style="fill-rule:evenodd;"
points="19862,13877
19036,13877
19036,13681
19862,13681
19862,13877
" /> 
<polyline style="fill-rule:evenodd;"
points="19862,14377
19036,14377
19036,14181
19862,14181
19862,14377
" /> 
<polyline style="fill-rule:evenodd;"
points="19862,14877
19036,14877
19036,14681
19862,14681
19862,14877
" /> 
<polyline style="fill-rule:evenodd;"
points="19862,15377
19036,15377
19036,15181
19862,15181
19862,15377
" /> 
<circle cx="23084.8" cy="16318.6" r="205.315" /> 
<circle cx="16173" cy="14888.7" r="205.315" /> 
<circle cx="24174.9" cy="14785.7" r="205.315" /> 
<circle cx="12995" cy="18504.7" r="205.315" /> 
<circle cx="17546.2" cy="11730.6" r="205.315" /> 
<circle cx="15758.9" cy="18168.3" r="205.315" /> 
<circle cx="22539.4" cy="12303.1" r="205.315" /> 
<circle cx="17744.5" cy="15039.1" r="205.315" /> 
<circle cx="18419.7" cy="11679.8" r="205.315" /> 
</g>
<g style="fill:#000000; fill-opacity:1.0; 
stroke:#000000; stroke-width:120; stroke-opacity:1; 
stroke-linecap:round; stroke-linejoin:round;">
<path d="M13551 10640
L13551 14566
" />
<path d="M15947 8243
L13551 10640
" />
<path d="M18601 8243
L15947 8243
" />
<path d="M19216 8858
L18601 8243
" />
<path d="M22704 14437
L22704 14960
" />
<path d="M22047 13779
L22704 14437
" />
<path d="M21495 13779
L22047 13779
" />
<path d="M20842 11097
L19216 9471
" />
<path d="M20842 13779
L20842 11097
" />
<path d="M21495 13779
L20842 13779
" />
<path d="M19216 8858
L19216 9471
" />
<path d="M18503 13385
L18141 13385
" />
<path d="M18897 13779
L18503 13385
" />
<path d="M19449 13779
L18897 13779
" />
<path d="M20102 10893
L20102 13779
" />
<path d="M18216 9007
L20102 10893
" />
<path d="M18216 8858
L18216 9007
" />
<path d="M19449 13779
L20102 13779
" />
<path d="M22937 16318
L22917 16338
" />
<path d="M23084 16318
L22937 16318
" />
<path d="M22472 16338
L22917 16338
" />
<path d="M23554 14960
L24000 14960
" />
<path d="M24174 14785
L24000 14960
" />
<path d="M13476 18091
L13476 18449
" />
<path d="M13421 18504
L13476 18449
" />
<path d="M12995 18504
L13421 18504
" />
<path d="M17291 12401
L17291 13385
" />
<path d="M17291 13385
L17291 14370
" />
<path d="M17291 12401
L17291 11906
" />
<path d="M17370 11906
L17291 11906
" />
<path d="M17546 11730
L17370 11906
" />
<path d="M16173 17519
L16173 18014
" />
<path d="M15912 18014
L16173 18014
" />
<path d="M15758 18168
L15912 18014
" />
<path d="M16173 15551
L16173 14888
" />
<path d="M25952 9539
L25952 10433
" />
<path d="M26460 9031
L25952 9539
" />
<path d="M14401 16535
L15323 16535
" />
<path d="M15323 17519
L15323 16535
" />
<path d="M21653 18897
L22653 18897
" />
<path d="M22653 18897
L24803 18897
" />
<path d="M26802 15157
L26802 15632
" />
<path d="M23990 16211
L26460 16211
" />
<path d="M23361 15582
L23990 16211
" />
<path d="M22431 15582
L23361 15582
" />
<path d="M22128 15279
L22431 15582
" />
<path d="M26460 16637
L26460 16211
" />
<path d="M26460 15974
L26802 15632
" />
<path d="M26460 16211
L26460 15974
" />
<path d="M21495 15279
L22128 15279
" />
<path d="M21487 17322
L21487 16847
" />
<path d="M21522 16813
L21487 16847
" />
<path d="M21622 16813
L21522 16813
" />
<path d="M21622 16338
L21622 16813
" />
<path d="M20862 16003
L21197 16338
" />
<path d="M20862 14779
L20862 16003
" />
<path d="M21495 14779
L20862 14779
" />
<path d="M21622 16338
L21197 16338
" />
<path d="M20637 18288
L20637 17322
" />
<path d="M20653 18304
L20637 18288
" />
<path d="M20653 18897
L20653 18304
" />
<path d="M25067 15618
L25527 15157
" />
<path d="M24696 15618
L25067 15618
" />
<path d="M25952 15157
L25527 15157
" />
<path d="M26658 14451
L25952 15157
" />
<path d="M26802 14451
L26658 14451
" />
<path d="M26802 13976
L26802 14451
" />
<path d="M26658 10908
L25952 11614
" />
<path d="M26802 10908
L26658 10908
" />
<path d="M26802 10433
L26802 10908
" />
<path d="M25952 11614
L25527 11614
" />
<path d="M24696 10930
L24696 10051
" />
<path d="M23712 10930
L24696 10930
" />
<path d="M23048 11594
L23712 10930
" />
<path d="M23048 12421
L23048 11594
" />
<path d="M22189 13279
L23048 12421
" />
<path d="M21495 13279
L22189 13279
" />
<path d="M24843 10930
L25527 11614
" />
<path d="M24696 10930
L24843 10930
" />
<path d="M25405 13854
L25527 13976
" />
<path d="M23677 13854
L25405 13854
" />
<path d="M25952 13976
L25527 13976
" />
<path d="M26658 13270
L25952 13976
" />
<path d="M26802 13270
L26658 13270
" />
<path d="M26802 12795
L26802 13270
" />
<path d="M26096 12320
L25952 12320
" />
<path d="M26802 11614
L26096 12320
" />
<path d="M25952 12795
L25952 12320
" />
<path d="M25722 12089
L25952 12320
" />
<path d="M23951 12089
L25722 12089
" />
<path d="M23677 11814
L23951 12089
" />
<path d="M13551 15551
L13551 16535
" />
<path d="M13476 17085
L13476 17341
" />
<path d="M13551 17010
L13476 17085
" />
<path d="M13551 16535
L13551 17010
" />
<path d="M22515 12279
L22539 12303
" />
<path d="M21495 12279
L22515 12279
" />
<path d="M21495 12779
L21495 12279
" />
<path d="M18657 14279
L18566 14370
" />
<path d="M19449 14279
L18657 14279
" />
<path d="M18141 14370
L18354 14370
" />
<path d="M18354 14370
L18566 14370
" />
<path d="M18354 14429
L17744 15039
" />
<path d="M18354 14370
L18354 14429
" />
<path d="M15323 15551
L14897 15551
" />
<path d="M14401 14566
L14401 15551
" />
<path d="M14401 15551
L14897 15551
" />
<path d="M19449 15279
L18816 15279
" />
<path d="M19449 14779
L18816 14779
" />
<path d="M18816 15279
L18816 14779
" />
<path d="M17224 10858
L17224 11283
" />
<path d="M18627 15468
L18816 15279
" />
<path d="M17560 15468
L18627 15468
" />
<path d="M16828 14736
L17560 15468
" />
<path d="M16828 11679
L16828 14736
" />
<path d="M17224 11283
L16828 11679
" />
<path d="M18173 11926
L18141 11926
" />
<path d="M18419 11679
L18173 11926
" />
<path d="M18141 12401
L18141 11926
" />
<path d="M18816 12651
L18566 12401
" />
<path d="M18816 13279
L18816 12651
" />
<path d="M19449 13279
L18816 13279
" />
<path d="M18141 12401
L18566 12401
" />
<path d="M19449 12779
L19449 12279
" />
<path d="M18856 11505
L18208 10858
" />
<path d="M18856 12001
L18856 11505
" />
<path d="M18816 12040
L18856 12001
" />
<path d="M18816 12279
L18816 12040
" />
<path d="M19449 12279
L18816 12279
" />
<path d="M20380 14761
L20862 14279
" />
<path d="M20380 15184
L20380 14761
" />
<path d="M19029 16535
L20380 15184
" />
<path d="M16173 16535
L19029 16535
" />
<path d="M21495 14279
L20862 14279
" />
<path d="M17224 8866
L17224 10008
" />
<path d="M17216 8858
L17224 8866
" />
<path d="M18208 10008
L17733 10008
" />
<path d="M17224 10008
L17733 10008
" />
</g>
<g style="fill:#FFFFFF; fill-opacity:1.0; 
stroke:#FFFFFF; stroke-width:39.3701; stroke-opacity:1; 
stroke-linecap:round; stroke-linejoin:round;">
<circle cx="23084.8" cy="16318.6" r="105.315" /> 
<circle cx="16173" cy="14888.7" r="105.315" /> 
<circle cx="24174.9" cy="14785.7" r="105.315" /> 
<circle cx="12995" cy="18504.7" r="105.315" /> 
<circle cx="17546.2" cy="11730.6" r="105.315" /> 
<circle cx="15758.9" cy="18168.3" r="105.315" /> 
<circle cx="22539.4" cy="12303.1" r="105.315" /> 
<circle cx="17744.5" cy="15039.1" r="105.315" /> 
<circle cx="18419.7" cy="11679.8" r="105.315" /> 
<circle cx="13543.3" cy="19133.9" r="236.315" /> 
<circle cx="11574.8" cy="19133.9" r="236.315" /> 
<circle cx="15511.8" cy="19133.9" r="236.315" /> 
<circle cx="23677.2" cy="11815" r="226.378" /> 
<circle cx="24696.9" cy="10051.2" r="226.378" /> 
<circle cx="26460.6" cy="9031.5" r="226.378" /> 
<circle cx="28500" cy="9031.5" r="226.378" /> 
<circle cx="30263.8" cy="10051.2" r="226.378" /> 
<circle cx="31283.5" cy="11815" r="226.378" /> 
<circle cx="30039.4" cy="12834.6" r="226.378" /> 
<circle cx="24921.3" cy="12834.6" r="226.378" /> 
<circle cx="23677.2" cy="13854.3" r="226.378" /> 
<circle cx="24696.9" cy="15618.1" r="226.378" /> 
<circle cx="26460.6" cy="16637.8" r="226.378" /> 
<circle cx="28500" cy="16637.8" r="226.378" /> 
<circle cx="30263.8" cy="15618.1" r="226.378" /> 
<circle cx="31283.5" cy="13854.3" r="226.378" /> 
<circle cx="19216.5" cy="8858.27" r="180.315" /> 
<circle cx="18216.5" cy="8858.27" r="180.315" /> 
<circle cx="17216.5" cy="8858.27" r="180.315" /> 
<circle cx="16216.5" cy="8858.27" r="180.315" /> 
<circle cx="24803.1" cy="18897.6" r="180.315" /> 
<circle cx="21653.5" cy="18897.6" r="180.315" /> 
<circle cx="22653.5" cy="18897.6" r="180.315" /> 
<circle cx="20653.5" cy="18897.6" r="180.315" /> 
</g> 
</svg>
