G04 (created by PCBNEW (2013-03-31 BZR 4008)-stable) date 2013-07-27 3:47:37 PM*
%MOIN*%
G04 Gerber Fmt 3.4, Leading zero omitted, Abs format*
%FSLAX34Y34*%
G01*
G70*
G90*
G04 APERTURE LIST*
%ADD10C,0.006*%
%ADD11C,0.00787402*%
%ADD12C,0.011811*%
%ADD13C,0.00984252*%
%ADD14C,0.005*%
%ADD15C,0.015*%
%ADD16C,0.014*%
%ADD17C,0.0026*%
%ADD18C,0.0078*%
%ADD19C,0.008*%
%ADD20R,0.0409748X0.0291748*%
%ADD21R,0.0465748X0.0565748*%
%ADD22R,0.0565748X0.0465748*%
%ADD23C,0.0802748*%
%ADD24R,0.0802748X0.0802748*%
%ADD25R,0.0881748X0.0251748*%
%ADD26C,0.080315*%
G04 APERTURE END LIST*
G54D10*
G54D11*
X25944Y-8818D02*
X25787Y-8818D01*
X25944Y-8818D02*
X25944Y-8661D01*
X25748Y-8622D02*
X25511Y-8622D01*
X25944Y-8818D02*
X25748Y-8622D01*
G54D12*
X24156Y-8338D02*
X24100Y-8309D01*
X24015Y-8309D01*
X23931Y-8338D01*
X23875Y-8394D01*
X23847Y-8450D01*
X23818Y-8562D01*
X23818Y-8647D01*
X23847Y-8759D01*
X23875Y-8816D01*
X23931Y-8872D01*
X24015Y-8900D01*
X24071Y-8900D01*
X24156Y-8872D01*
X24184Y-8844D01*
X24184Y-8647D01*
X24071Y-8647D01*
X24437Y-8900D02*
X24437Y-8309D01*
X24775Y-8900D01*
X24775Y-8309D01*
X25056Y-8900D02*
X25056Y-8309D01*
X25196Y-8309D01*
X25281Y-8338D01*
X25337Y-8394D01*
X25365Y-8450D01*
X25393Y-8562D01*
X25393Y-8647D01*
X25365Y-8759D01*
X25337Y-8816D01*
X25281Y-8872D01*
X25196Y-8900D01*
X25056Y-8900D01*
X25759Y-18546D02*
X25899Y-18939D01*
X26040Y-18546D01*
X26574Y-18939D02*
X26237Y-18939D01*
X26406Y-18939D02*
X26406Y-18349D01*
X26349Y-18433D01*
X26293Y-18489D01*
X26237Y-18517D01*
X26827Y-18883D02*
X26856Y-18911D01*
X26827Y-18939D01*
X26799Y-18911D01*
X26827Y-18883D01*
X26827Y-18939D01*
X27221Y-18349D02*
X27277Y-18349D01*
X27334Y-18377D01*
X27362Y-18405D01*
X27390Y-18461D01*
X27418Y-18574D01*
X27418Y-18714D01*
X27390Y-18827D01*
X27362Y-18883D01*
X27334Y-18911D01*
X27277Y-18939D01*
X27221Y-18939D01*
X27165Y-18911D01*
X27137Y-18883D01*
X27109Y-18827D01*
X27080Y-18714D01*
X27080Y-18574D01*
X27109Y-18461D01*
X27137Y-18405D01*
X27165Y-18377D01*
X27221Y-18349D01*
X28233Y-18349D02*
X28290Y-18349D01*
X28346Y-18377D01*
X28374Y-18405D01*
X28402Y-18461D01*
X28430Y-18574D01*
X28430Y-18714D01*
X28402Y-18827D01*
X28374Y-18883D01*
X28346Y-18911D01*
X28290Y-18939D01*
X28233Y-18939D01*
X28177Y-18911D01*
X28149Y-18883D01*
X28121Y-18827D01*
X28093Y-18714D01*
X28093Y-18574D01*
X28121Y-18461D01*
X28149Y-18405D01*
X28177Y-18377D01*
X28233Y-18349D01*
X28937Y-18349D02*
X28824Y-18349D01*
X28768Y-18377D01*
X28740Y-18405D01*
X28683Y-18489D01*
X28655Y-18602D01*
X28655Y-18827D01*
X28683Y-18883D01*
X28712Y-18911D01*
X28768Y-18939D01*
X28880Y-18939D01*
X28937Y-18911D01*
X28965Y-18883D01*
X28993Y-18827D01*
X28993Y-18686D01*
X28965Y-18630D01*
X28937Y-18602D01*
X28880Y-18574D01*
X28768Y-18574D01*
X28712Y-18602D01*
X28683Y-18630D01*
X28655Y-18686D01*
X29668Y-18405D02*
X29696Y-18377D01*
X29752Y-18349D01*
X29893Y-18349D01*
X29949Y-18377D01*
X29977Y-18405D01*
X30005Y-18461D01*
X30005Y-18517D01*
X29977Y-18602D01*
X29640Y-18939D01*
X30005Y-18939D01*
X30371Y-18349D02*
X30427Y-18349D01*
X30483Y-18377D01*
X30511Y-18405D01*
X30539Y-18461D01*
X30568Y-18574D01*
X30568Y-18714D01*
X30539Y-18827D01*
X30511Y-18883D01*
X30483Y-18911D01*
X30427Y-18939D01*
X30371Y-18939D01*
X30314Y-18911D01*
X30286Y-18883D01*
X30258Y-18827D01*
X30230Y-18714D01*
X30230Y-18574D01*
X30258Y-18461D01*
X30286Y-18405D01*
X30314Y-18377D01*
X30371Y-18349D01*
X31130Y-18939D02*
X30793Y-18939D01*
X30961Y-18939D02*
X30961Y-18349D01*
X30905Y-18433D01*
X30849Y-18489D01*
X30793Y-18517D01*
X31327Y-18349D02*
X31692Y-18349D01*
X31496Y-18574D01*
X31580Y-18574D01*
X31636Y-18602D01*
X31664Y-18630D01*
X31692Y-18686D01*
X31692Y-18827D01*
X31664Y-18883D01*
X31636Y-18911D01*
X31580Y-18939D01*
X31411Y-18939D01*
X31355Y-18911D01*
X31327Y-18883D01*
X10835Y-11392D02*
X10891Y-11420D01*
X11003Y-11420D01*
X11060Y-11392D01*
X11088Y-11335D01*
X11088Y-11307D01*
X11060Y-11251D01*
X11003Y-11223D01*
X10919Y-11223D01*
X10863Y-11195D01*
X10835Y-11138D01*
X10835Y-11110D01*
X10863Y-11054D01*
X10919Y-11026D01*
X11003Y-11026D01*
X11060Y-11054D01*
X11285Y-11026D02*
X11425Y-11420D01*
X11566Y-11026D02*
X11425Y-11420D01*
X11369Y-11560D01*
X11341Y-11588D01*
X11285Y-11616D01*
X11763Y-11392D02*
X11819Y-11420D01*
X11931Y-11420D01*
X11988Y-11392D01*
X12016Y-11335D01*
X12016Y-11307D01*
X11988Y-11251D01*
X11931Y-11223D01*
X11847Y-11223D01*
X11791Y-11195D01*
X11763Y-11138D01*
X11763Y-11110D01*
X11791Y-11054D01*
X11847Y-11026D01*
X11931Y-11026D01*
X11988Y-11054D01*
X12185Y-11026D02*
X12410Y-11026D01*
X12269Y-10829D02*
X12269Y-11335D01*
X12297Y-11392D01*
X12353Y-11420D01*
X12410Y-11420D01*
X12831Y-11392D02*
X12775Y-11420D01*
X12663Y-11420D01*
X12606Y-11392D01*
X12578Y-11335D01*
X12578Y-11110D01*
X12606Y-11054D01*
X12663Y-11026D01*
X12775Y-11026D01*
X12831Y-11054D01*
X12859Y-11110D01*
X12859Y-11167D01*
X12578Y-11223D01*
X13113Y-11420D02*
X13113Y-11026D01*
X13113Y-11082D02*
X13141Y-11054D01*
X13197Y-11026D01*
X13281Y-11026D01*
X13338Y-11054D01*
X13366Y-11110D01*
X13366Y-11420D01*
X13366Y-11110D02*
X13394Y-11054D01*
X13450Y-11026D01*
X13534Y-11026D01*
X13591Y-11054D01*
X13619Y-11110D01*
X13619Y-11420D01*
X13844Y-10829D02*
X14237Y-10829D01*
X13984Y-11420D01*
X14491Y-11420D02*
X14603Y-11420D01*
X14659Y-11392D01*
X14687Y-11363D01*
X14744Y-11279D01*
X14772Y-11167D01*
X14772Y-10942D01*
X14744Y-10885D01*
X14715Y-10857D01*
X14659Y-10829D01*
X14547Y-10829D01*
X14491Y-10857D01*
X14462Y-10885D01*
X14434Y-10942D01*
X14434Y-11082D01*
X14462Y-11138D01*
X14491Y-11167D01*
X14547Y-11195D01*
X14659Y-11195D01*
X14715Y-11167D01*
X14744Y-11138D01*
X14772Y-11082D01*
X15025Y-11363D02*
X15053Y-11392D01*
X15025Y-11420D01*
X14997Y-11392D01*
X15025Y-11363D01*
X15025Y-11420D01*
X15559Y-11392D02*
X15503Y-11420D01*
X15390Y-11420D01*
X15334Y-11392D01*
X15306Y-11363D01*
X15278Y-11307D01*
X15278Y-11138D01*
X15306Y-11082D01*
X15334Y-11054D01*
X15390Y-11026D01*
X15503Y-11026D01*
X15559Y-11054D01*
X15897Y-11420D02*
X15840Y-11392D01*
X15812Y-11363D01*
X15784Y-11307D01*
X15784Y-11138D01*
X15812Y-11082D01*
X15840Y-11054D01*
X15897Y-11026D01*
X15981Y-11026D01*
X16037Y-11054D01*
X16065Y-11082D01*
X16093Y-11138D01*
X16093Y-11307D01*
X16065Y-11363D01*
X16037Y-11392D01*
X15981Y-11420D01*
X15897Y-11420D01*
X16347Y-11420D02*
X16347Y-11026D01*
X16347Y-11082D02*
X16375Y-11054D01*
X16431Y-11026D01*
X16515Y-11026D01*
X16571Y-11054D01*
X16600Y-11110D01*
X16600Y-11420D01*
X16600Y-11110D02*
X16628Y-11054D01*
X16684Y-11026D01*
X16768Y-11026D01*
X16825Y-11054D01*
X16853Y-11110D01*
X16853Y-11420D01*
G54D11*
X14691Y-12814D02*
G75*
G03X14691Y-12814I-1147J0D01*
G74*
G01*
G54D13*
X12985Y-12327D02*
X13444Y-12327D01*
X13149Y-13311D01*
X13740Y-13311D02*
X13871Y-13311D01*
X13937Y-13264D01*
X13969Y-13218D01*
X14035Y-13077D01*
X14068Y-12889D01*
X14068Y-12514D01*
X14035Y-12421D01*
X14002Y-12374D01*
X13937Y-12327D01*
X13805Y-12327D01*
X13740Y-12374D01*
X13707Y-12421D01*
X13674Y-12514D01*
X13674Y-12749D01*
X13707Y-12843D01*
X13740Y-12889D01*
X13805Y-12936D01*
X13937Y-12936D01*
X14002Y-12889D01*
X14035Y-12843D01*
X14068Y-12749D01*
G54D12*
X25379Y-17365D02*
X25492Y-17365D01*
X25548Y-17393D01*
X25604Y-17449D01*
X25632Y-17561D01*
X25632Y-17758D01*
X25604Y-17871D01*
X25548Y-17927D01*
X25492Y-17955D01*
X25379Y-17955D01*
X25323Y-17927D01*
X25267Y-17871D01*
X25239Y-17758D01*
X25239Y-17561D01*
X25267Y-17449D01*
X25323Y-17393D01*
X25379Y-17365D01*
X26223Y-17899D02*
X26195Y-17927D01*
X26110Y-17955D01*
X26054Y-17955D01*
X25970Y-17927D01*
X25913Y-17871D01*
X25885Y-17814D01*
X25857Y-17702D01*
X25857Y-17618D01*
X25885Y-17505D01*
X25913Y-17449D01*
X25970Y-17393D01*
X26054Y-17365D01*
X26110Y-17365D01*
X26195Y-17393D01*
X26223Y-17421D01*
X26392Y-17365D02*
X26729Y-17365D01*
X26560Y-17955D02*
X26560Y-17365D01*
X26898Y-17786D02*
X27179Y-17786D01*
X26841Y-17955D02*
X27038Y-17365D01*
X27235Y-17955D01*
X27348Y-17365D02*
X27544Y-17955D01*
X27741Y-17365D01*
X27938Y-17646D02*
X28135Y-17646D01*
X28219Y-17955D02*
X27938Y-17955D01*
X27938Y-17365D01*
X28219Y-17365D01*
X28894Y-17927D02*
X28979Y-17955D01*
X29119Y-17955D01*
X29176Y-17927D01*
X29204Y-17899D01*
X29232Y-17843D01*
X29232Y-17786D01*
X29204Y-17730D01*
X29176Y-17702D01*
X29119Y-17674D01*
X29007Y-17646D01*
X28951Y-17618D01*
X28922Y-17589D01*
X28894Y-17533D01*
X28894Y-17477D01*
X28922Y-17421D01*
X28951Y-17393D01*
X29007Y-17365D01*
X29147Y-17365D01*
X29232Y-17393D01*
X29429Y-17365D02*
X29569Y-17955D01*
X29682Y-17533D01*
X29794Y-17955D01*
X29935Y-17365D01*
X30160Y-17955D02*
X30160Y-17365D01*
X30357Y-17365D02*
X30694Y-17365D01*
X30525Y-17955D02*
X30525Y-17365D01*
X31228Y-17899D02*
X31200Y-17927D01*
X31116Y-17955D01*
X31060Y-17955D01*
X30975Y-17927D01*
X30919Y-17871D01*
X30891Y-17814D01*
X30863Y-17702D01*
X30863Y-17618D01*
X30891Y-17505D01*
X30919Y-17449D01*
X30975Y-17393D01*
X31060Y-17365D01*
X31116Y-17365D01*
X31200Y-17393D01*
X31228Y-17421D01*
X31482Y-17955D02*
X31482Y-17365D01*
X31482Y-17646D02*
X31819Y-17646D01*
X31819Y-17955D02*
X31819Y-17365D01*
G54D14*
X13676Y-17516D02*
X13876Y-17216D01*
X13676Y-18216D02*
X13676Y-17191D01*
X13676Y-17191D02*
X14276Y-17191D01*
X14276Y-17191D02*
X14276Y-18216D01*
X14276Y-18216D02*
X13676Y-18216D01*
X22849Y-15260D02*
X22449Y-15260D01*
X22449Y-15260D02*
X22449Y-14660D01*
X22449Y-14660D02*
X22849Y-14660D01*
X23409Y-14660D02*
X23809Y-14660D01*
X23809Y-14660D02*
X23809Y-15260D01*
X23809Y-15260D02*
X23409Y-15260D01*
X17436Y-13685D02*
X17036Y-13685D01*
X17036Y-13685D02*
X17036Y-13085D01*
X17036Y-13085D02*
X17436Y-13085D01*
X17996Y-13085D02*
X18396Y-13085D01*
X18396Y-13085D02*
X18396Y-13685D01*
X18396Y-13685D02*
X17996Y-13685D01*
X17524Y-10713D02*
X17524Y-11113D01*
X17524Y-11113D02*
X16924Y-11113D01*
X16924Y-11113D02*
X16924Y-10713D01*
X16924Y-10153D02*
X16924Y-9753D01*
X16924Y-9753D02*
X17524Y-9753D01*
X17524Y-9753D02*
X17524Y-10153D01*
X26688Y-15457D02*
X26288Y-15457D01*
X26288Y-15457D02*
X26288Y-14857D01*
X26288Y-14857D02*
X26688Y-14857D01*
X27248Y-14857D02*
X27648Y-14857D01*
X27648Y-14857D02*
X27648Y-15457D01*
X27648Y-15457D02*
X27248Y-15457D01*
X26688Y-14276D02*
X26288Y-14276D01*
X26288Y-14276D02*
X26288Y-13676D01*
X26288Y-13676D02*
X26688Y-13676D01*
X27248Y-13676D02*
X27648Y-13676D01*
X27648Y-13676D02*
X27648Y-14276D01*
X27648Y-14276D02*
X27248Y-14276D01*
X26688Y-13095D02*
X26288Y-13095D01*
X26288Y-13095D02*
X26288Y-12495D01*
X26288Y-12495D02*
X26688Y-12495D01*
X27248Y-12495D02*
X27648Y-12495D01*
X27648Y-12495D02*
X27648Y-13095D01*
X27648Y-13095D02*
X27248Y-13095D01*
X26688Y-11914D02*
X26288Y-11914D01*
X26288Y-11914D02*
X26288Y-11314D01*
X26288Y-11314D02*
X26688Y-11314D01*
X27248Y-11314D02*
X27648Y-11314D01*
X27648Y-11314D02*
X27648Y-11914D01*
X27648Y-11914D02*
X27248Y-11914D01*
X26688Y-10733D02*
X26288Y-10733D01*
X26288Y-10733D02*
X26288Y-10133D01*
X26288Y-10133D02*
X26688Y-10133D01*
X27248Y-10133D02*
X27648Y-10133D01*
X27648Y-10133D02*
X27648Y-10733D01*
X27648Y-10733D02*
X27248Y-10733D01*
X15468Y-16835D02*
X15068Y-16835D01*
X15068Y-16835D02*
X15068Y-16235D01*
X15068Y-16235D02*
X15468Y-16235D01*
X16028Y-16235D02*
X16428Y-16235D01*
X16428Y-16235D02*
X16428Y-16835D01*
X16428Y-16835D02*
X16028Y-16835D01*
X13696Y-15851D02*
X13296Y-15851D01*
X13296Y-15851D02*
X13296Y-15251D01*
X13296Y-15251D02*
X13696Y-15251D01*
X14256Y-15251D02*
X14656Y-15251D01*
X14656Y-15251D02*
X14656Y-15851D01*
X14656Y-15851D02*
X14256Y-15851D01*
X15468Y-15851D02*
X15068Y-15851D01*
X15068Y-15851D02*
X15068Y-15251D01*
X15068Y-15251D02*
X15468Y-15251D01*
X16028Y-15251D02*
X16428Y-15251D01*
X16428Y-15251D02*
X16428Y-15851D01*
X16428Y-15851D02*
X16028Y-15851D01*
X18508Y-10713D02*
X18508Y-11113D01*
X18508Y-11113D02*
X17908Y-11113D01*
X17908Y-11113D02*
X17908Y-10713D01*
X17908Y-10153D02*
X17908Y-9753D01*
X17908Y-9753D02*
X18508Y-9753D01*
X18508Y-9753D02*
X18508Y-10153D01*
X17996Y-12101D02*
X18396Y-12101D01*
X18396Y-12101D02*
X18396Y-12701D01*
X18396Y-12701D02*
X17996Y-12701D01*
X17436Y-12701D02*
X17036Y-12701D01*
X17036Y-12701D02*
X17036Y-12101D01*
X17036Y-12101D02*
X17436Y-12101D01*
X17436Y-14670D02*
X17036Y-14670D01*
X17036Y-14670D02*
X17036Y-14070D01*
X17036Y-14070D02*
X17436Y-14070D01*
X17996Y-14070D02*
X18396Y-14070D01*
X18396Y-14070D02*
X18396Y-14670D01*
X18396Y-14670D02*
X17996Y-14670D01*
X21342Y-17022D02*
X21742Y-17022D01*
X21742Y-17022D02*
X21742Y-17622D01*
X21742Y-17622D02*
X21342Y-17622D01*
X20782Y-17622D02*
X20382Y-17622D01*
X20382Y-17622D02*
X20382Y-17022D01*
X20382Y-17022D02*
X20782Y-17022D01*
X15468Y-17819D02*
X15068Y-17819D01*
X15068Y-17819D02*
X15068Y-17219D01*
X15068Y-17219D02*
X15468Y-17219D01*
X16028Y-17219D02*
X16428Y-17219D01*
X16428Y-17219D02*
X16428Y-17819D01*
X16428Y-17819D02*
X16028Y-17819D01*
X22327Y-16038D02*
X22727Y-16038D01*
X22727Y-16038D02*
X22727Y-16638D01*
X22727Y-16638D02*
X22327Y-16638D01*
X21767Y-16638D02*
X21367Y-16638D01*
X21367Y-16638D02*
X21367Y-16038D01*
X21367Y-16038D02*
X21767Y-16038D01*
X13696Y-16835D02*
X13296Y-16835D01*
X13296Y-16835D02*
X13296Y-16235D01*
X13296Y-16235D02*
X13696Y-16235D01*
X14256Y-16235D02*
X14656Y-16235D01*
X14656Y-16235D02*
X14656Y-16835D01*
X14656Y-16835D02*
X14256Y-16835D01*
X14256Y-14266D02*
X14656Y-14266D01*
X14656Y-14266D02*
X14656Y-14866D01*
X14656Y-14866D02*
X14256Y-14866D01*
X13696Y-14866D02*
X13296Y-14866D01*
X13296Y-14866D02*
X13296Y-14266D01*
X13296Y-14266D02*
X13696Y-14266D01*
G54D15*
X18716Y-9458D02*
X18716Y-8258D01*
X19816Y-9458D02*
X19816Y-8258D01*
X19816Y-8258D02*
X15616Y-8258D01*
X15616Y-8258D02*
X15616Y-9458D01*
X15616Y-9458D02*
X19816Y-9458D01*
G54D16*
X24253Y-19497D02*
X25353Y-19497D01*
X24253Y-18297D02*
X25403Y-18297D01*
X24203Y-19497D02*
X24203Y-18297D01*
X25403Y-18297D02*
X25403Y-19497D01*
X20275Y-18110D02*
X20275Y-18897D01*
X20669Y-18503D02*
G75*
G03X20669Y-18503I-393J0D01*
G74*
G01*
X19685Y-19881D02*
X19685Y-17913D01*
X19685Y-17913D02*
X23622Y-17913D01*
X23622Y-17913D02*
X23622Y-19881D01*
X23622Y-19881D02*
X19685Y-19881D01*
G54D17*
X21692Y-15375D02*
X21692Y-15182D01*
X21692Y-15182D02*
X21259Y-15182D01*
X21259Y-15375D02*
X21259Y-15182D01*
X21692Y-15375D02*
X21259Y-15375D01*
X21692Y-14875D02*
X21692Y-14682D01*
X21692Y-14682D02*
X21259Y-14682D01*
X21259Y-14875D02*
X21259Y-14682D01*
X21692Y-14875D02*
X21259Y-14875D01*
X21692Y-14375D02*
X21692Y-14182D01*
X21692Y-14182D02*
X21259Y-14182D01*
X21259Y-14375D02*
X21259Y-14182D01*
X21692Y-14375D02*
X21259Y-14375D01*
X21692Y-13875D02*
X21692Y-13683D01*
X21692Y-13683D02*
X21259Y-13683D01*
X21259Y-13875D02*
X21259Y-13683D01*
X21692Y-13875D02*
X21259Y-13875D01*
X19685Y-13875D02*
X19685Y-13683D01*
X19685Y-13683D02*
X19252Y-13683D01*
X19252Y-13875D02*
X19252Y-13683D01*
X19685Y-13875D02*
X19252Y-13875D01*
X19685Y-14375D02*
X19685Y-14182D01*
X19685Y-14182D02*
X19252Y-14182D01*
X19252Y-14375D02*
X19252Y-14182D01*
X19685Y-14375D02*
X19252Y-14375D01*
X19685Y-14875D02*
X19685Y-14682D01*
X19685Y-14682D02*
X19252Y-14682D01*
X19252Y-14875D02*
X19252Y-14682D01*
X19685Y-14875D02*
X19252Y-14875D01*
X19685Y-15375D02*
X19685Y-15182D01*
X19685Y-15182D02*
X19252Y-15182D01*
X19252Y-15375D02*
X19252Y-15182D01*
X19685Y-15375D02*
X19252Y-15375D01*
X21692Y-13376D02*
X21692Y-13183D01*
X21692Y-13183D02*
X21259Y-13183D01*
X21259Y-13376D02*
X21259Y-13183D01*
X21692Y-13376D02*
X21259Y-13376D01*
X21692Y-12876D02*
X21692Y-12683D01*
X21692Y-12683D02*
X21259Y-12683D01*
X21259Y-12876D02*
X21259Y-12683D01*
X21692Y-12876D02*
X21259Y-12876D01*
X21692Y-12376D02*
X21692Y-12183D01*
X21692Y-12183D02*
X21259Y-12183D01*
X21259Y-12376D02*
X21259Y-12183D01*
X21692Y-12376D02*
X21259Y-12376D01*
X19685Y-12376D02*
X19685Y-12183D01*
X19685Y-12183D02*
X19252Y-12183D01*
X19252Y-12376D02*
X19252Y-12183D01*
X19685Y-12376D02*
X19252Y-12376D01*
X19685Y-12876D02*
X19685Y-12683D01*
X19685Y-12683D02*
X19252Y-12683D01*
X19252Y-12876D02*
X19252Y-12683D01*
X19685Y-12876D02*
X19252Y-12876D01*
X19685Y-13376D02*
X19685Y-13183D01*
X19685Y-13183D02*
X19252Y-13183D01*
X19252Y-13376D02*
X19252Y-13183D01*
X19685Y-13376D02*
X19252Y-13376D01*
G54D18*
X18937Y-15706D02*
X18937Y-11852D01*
X22007Y-11852D02*
X22007Y-15706D01*
X22007Y-15706D02*
X18937Y-15706D01*
G54D19*
X21220Y-12085D02*
X21220Y-15473D01*
X21220Y-15473D02*
X21023Y-15473D01*
X21023Y-15473D02*
X19724Y-15473D01*
X21023Y-12085D02*
X21023Y-15473D01*
X19724Y-12085D02*
X21023Y-12085D01*
X21023Y-12085D02*
X21220Y-12085D01*
G54D18*
X18937Y-11852D02*
X22007Y-11852D01*
G54D19*
X19724Y-15473D02*
X19724Y-12085D01*
G54D10*
X12559Y-17846D02*
X12559Y-17526D01*
X12635Y-17526D01*
X12680Y-17541D01*
X12711Y-17571D01*
X12726Y-17602D01*
X12741Y-17663D01*
X12741Y-17708D01*
X12726Y-17769D01*
X12711Y-17800D01*
X12680Y-17830D01*
X12635Y-17846D01*
X12559Y-17846D01*
X13046Y-17846D02*
X12863Y-17846D01*
X12955Y-17846D02*
X12955Y-17526D01*
X12924Y-17571D01*
X12894Y-17602D01*
X12863Y-17617D01*
X22584Y-14370D02*
X22569Y-14385D01*
X22523Y-14401D01*
X22493Y-14401D01*
X22447Y-14385D01*
X22416Y-14355D01*
X22401Y-14324D01*
X22386Y-14264D01*
X22386Y-14218D01*
X22401Y-14157D01*
X22416Y-14126D01*
X22447Y-14096D01*
X22493Y-14081D01*
X22523Y-14081D01*
X22569Y-14096D01*
X22584Y-14111D01*
X22858Y-14081D02*
X22797Y-14081D01*
X22767Y-14096D01*
X22752Y-14111D01*
X22721Y-14157D01*
X22706Y-14218D01*
X22706Y-14340D01*
X22721Y-14370D01*
X22736Y-14385D01*
X22767Y-14401D01*
X22828Y-14401D01*
X22858Y-14385D01*
X22873Y-14370D01*
X22889Y-14340D01*
X22889Y-14264D01*
X22873Y-14233D01*
X22858Y-14218D01*
X22828Y-14203D01*
X22767Y-14203D01*
X22736Y-14218D01*
X22721Y-14233D01*
X22706Y-14264D01*
X16580Y-13484D02*
X16565Y-13500D01*
X16519Y-13515D01*
X16489Y-13515D01*
X16443Y-13500D01*
X16412Y-13469D01*
X16397Y-13439D01*
X16382Y-13378D01*
X16382Y-13332D01*
X16397Y-13271D01*
X16412Y-13241D01*
X16443Y-13210D01*
X16489Y-13195D01*
X16519Y-13195D01*
X16565Y-13210D01*
X16580Y-13225D01*
X16854Y-13302D02*
X16854Y-13515D01*
X16778Y-13180D02*
X16702Y-13408D01*
X16900Y-13408D01*
X16664Y-10638D02*
X16512Y-10745D01*
X16664Y-10821D02*
X16344Y-10821D01*
X16344Y-10699D01*
X16360Y-10669D01*
X16375Y-10654D01*
X16405Y-10638D01*
X16451Y-10638D01*
X16482Y-10654D01*
X16497Y-10669D01*
X16512Y-10699D01*
X16512Y-10821D01*
X16664Y-10334D02*
X16664Y-10516D01*
X16664Y-10425D02*
X16344Y-10425D01*
X16390Y-10455D01*
X16421Y-10486D01*
X16436Y-10516D01*
X16344Y-10227D02*
X16344Y-10029D01*
X16466Y-10135D01*
X16466Y-10090D01*
X16482Y-10059D01*
X16497Y-10044D01*
X16527Y-10029D01*
X16604Y-10029D01*
X16634Y-10044D01*
X16649Y-10059D01*
X16664Y-10090D01*
X16664Y-10181D01*
X16649Y-10212D01*
X16634Y-10227D01*
X26762Y-14737D02*
X26656Y-14584D01*
X26579Y-14737D02*
X26579Y-14417D01*
X26701Y-14417D01*
X26732Y-14432D01*
X26747Y-14447D01*
X26762Y-14477D01*
X26762Y-14523D01*
X26747Y-14554D01*
X26732Y-14569D01*
X26701Y-14584D01*
X26579Y-14584D01*
X27067Y-14737D02*
X26884Y-14737D01*
X26976Y-14737D02*
X26976Y-14417D01*
X26945Y-14462D01*
X26915Y-14493D01*
X26884Y-14508D01*
X27372Y-14737D02*
X27189Y-14737D01*
X27280Y-14737D02*
X27280Y-14417D01*
X27250Y-14462D01*
X27219Y-14493D01*
X27189Y-14508D01*
X26762Y-13555D02*
X26656Y-13403D01*
X26579Y-13555D02*
X26579Y-13235D01*
X26701Y-13235D01*
X26732Y-13251D01*
X26747Y-13266D01*
X26762Y-13296D01*
X26762Y-13342D01*
X26747Y-13373D01*
X26732Y-13388D01*
X26701Y-13403D01*
X26579Y-13403D01*
X27067Y-13555D02*
X26884Y-13555D01*
X26976Y-13555D02*
X26976Y-13235D01*
X26945Y-13281D01*
X26915Y-13312D01*
X26884Y-13327D01*
X27265Y-13235D02*
X27296Y-13235D01*
X27326Y-13251D01*
X27341Y-13266D01*
X27357Y-13296D01*
X27372Y-13357D01*
X27372Y-13433D01*
X27357Y-13494D01*
X27341Y-13525D01*
X27326Y-13540D01*
X27296Y-13555D01*
X27265Y-13555D01*
X27235Y-13540D01*
X27219Y-13525D01*
X27204Y-13494D01*
X27189Y-13433D01*
X27189Y-13357D01*
X27204Y-13296D01*
X27219Y-13266D01*
X27235Y-13251D01*
X27265Y-13235D01*
X26915Y-12374D02*
X26808Y-12222D01*
X26732Y-12374D02*
X26732Y-12054D01*
X26854Y-12054D01*
X26884Y-12070D01*
X26899Y-12085D01*
X26915Y-12115D01*
X26915Y-12161D01*
X26899Y-12191D01*
X26884Y-12207D01*
X26854Y-12222D01*
X26732Y-12222D01*
X27098Y-12191D02*
X27067Y-12176D01*
X27052Y-12161D01*
X27037Y-12130D01*
X27037Y-12115D01*
X27052Y-12085D01*
X27067Y-12070D01*
X27098Y-12054D01*
X27158Y-12054D01*
X27189Y-12070D01*
X27204Y-12085D01*
X27219Y-12115D01*
X27219Y-12130D01*
X27204Y-12161D01*
X27189Y-12176D01*
X27158Y-12191D01*
X27098Y-12191D01*
X27067Y-12207D01*
X27052Y-12222D01*
X27037Y-12252D01*
X27037Y-12313D01*
X27052Y-12344D01*
X27067Y-12359D01*
X27098Y-12374D01*
X27158Y-12374D01*
X27189Y-12359D01*
X27204Y-12344D01*
X27219Y-12313D01*
X27219Y-12252D01*
X27204Y-12222D01*
X27189Y-12207D01*
X27158Y-12191D01*
X26915Y-11193D02*
X26808Y-11041D01*
X26732Y-11193D02*
X26732Y-10873D01*
X26854Y-10873D01*
X26884Y-10888D01*
X26899Y-10904D01*
X26915Y-10934D01*
X26915Y-10980D01*
X26899Y-11010D01*
X26884Y-11026D01*
X26854Y-11041D01*
X26732Y-11041D01*
X27204Y-10873D02*
X27052Y-10873D01*
X27037Y-11026D01*
X27052Y-11010D01*
X27082Y-10995D01*
X27158Y-10995D01*
X27189Y-11010D01*
X27204Y-11026D01*
X27219Y-11056D01*
X27219Y-11132D01*
X27204Y-11163D01*
X27189Y-11178D01*
X27158Y-11193D01*
X27082Y-11193D01*
X27052Y-11178D01*
X27037Y-11163D01*
X26915Y-10012D02*
X26808Y-9860D01*
X26732Y-10012D02*
X26732Y-9692D01*
X26854Y-9692D01*
X26884Y-9707D01*
X26899Y-9723D01*
X26915Y-9753D01*
X26915Y-9799D01*
X26899Y-9829D01*
X26884Y-9844D01*
X26854Y-9860D01*
X26732Y-9860D01*
X27021Y-9692D02*
X27219Y-9692D01*
X27113Y-9814D01*
X27158Y-9814D01*
X27189Y-9829D01*
X27204Y-9844D01*
X27219Y-9875D01*
X27219Y-9951D01*
X27204Y-9982D01*
X27189Y-9997D01*
X27158Y-10012D01*
X27067Y-10012D01*
X27037Y-9997D01*
X27021Y-9982D01*
X16875Y-16664D02*
X16769Y-16512D01*
X16692Y-16664D02*
X16692Y-16344D01*
X16814Y-16344D01*
X16845Y-16360D01*
X16860Y-16375D01*
X16875Y-16405D01*
X16875Y-16451D01*
X16860Y-16482D01*
X16845Y-16497D01*
X16814Y-16512D01*
X16692Y-16512D01*
X16982Y-16344D02*
X17195Y-16344D01*
X17058Y-16664D01*
X12741Y-15680D02*
X12635Y-15528D01*
X12559Y-15680D02*
X12559Y-15360D01*
X12680Y-15360D01*
X12711Y-15375D01*
X12726Y-15391D01*
X12741Y-15421D01*
X12741Y-15467D01*
X12726Y-15497D01*
X12711Y-15513D01*
X12680Y-15528D01*
X12559Y-15528D01*
X12863Y-15391D02*
X12879Y-15375D01*
X12909Y-15360D01*
X12985Y-15360D01*
X13016Y-15375D01*
X13031Y-15391D01*
X13046Y-15421D01*
X13046Y-15452D01*
X13031Y-15497D01*
X12848Y-15680D01*
X13046Y-15680D01*
X16875Y-15650D02*
X16860Y-15665D01*
X16814Y-15680D01*
X16784Y-15680D01*
X16738Y-15665D01*
X16708Y-15634D01*
X16692Y-15604D01*
X16677Y-15543D01*
X16677Y-15497D01*
X16692Y-15436D01*
X16708Y-15406D01*
X16738Y-15375D01*
X16784Y-15360D01*
X16814Y-15360D01*
X16860Y-15375D01*
X16875Y-15391D01*
X17180Y-15680D02*
X16997Y-15680D01*
X17089Y-15680D02*
X17089Y-15360D01*
X17058Y-15406D01*
X17028Y-15436D01*
X16997Y-15452D01*
X19027Y-10638D02*
X18874Y-10745D01*
X19027Y-10821D02*
X18707Y-10821D01*
X18707Y-10699D01*
X18722Y-10669D01*
X18737Y-10654D01*
X18768Y-10638D01*
X18813Y-10638D01*
X18844Y-10654D01*
X18859Y-10669D01*
X18874Y-10699D01*
X18874Y-10821D01*
X19027Y-10334D02*
X19027Y-10516D01*
X19027Y-10425D02*
X18707Y-10425D01*
X18752Y-10455D01*
X18783Y-10486D01*
X18798Y-10516D01*
X18737Y-10212D02*
X18722Y-10196D01*
X18707Y-10166D01*
X18707Y-10090D01*
X18722Y-10059D01*
X18737Y-10044D01*
X18768Y-10029D01*
X18798Y-10029D01*
X18844Y-10044D01*
X19027Y-10227D01*
X19027Y-10029D01*
X16580Y-12500D02*
X16565Y-12515D01*
X16519Y-12531D01*
X16489Y-12531D01*
X16443Y-12515D01*
X16412Y-12485D01*
X16397Y-12454D01*
X16382Y-12393D01*
X16382Y-12348D01*
X16397Y-12287D01*
X16412Y-12256D01*
X16443Y-12226D01*
X16489Y-12211D01*
X16519Y-12211D01*
X16565Y-12226D01*
X16580Y-12241D01*
X16870Y-12211D02*
X16717Y-12211D01*
X16702Y-12363D01*
X16717Y-12348D01*
X16748Y-12333D01*
X16824Y-12333D01*
X16854Y-12348D01*
X16870Y-12363D01*
X16885Y-12393D01*
X16885Y-12470D01*
X16870Y-12500D01*
X16854Y-12515D01*
X16824Y-12531D01*
X16748Y-12531D01*
X16717Y-12515D01*
X16702Y-12500D01*
X16580Y-14469D02*
X16565Y-14484D01*
X16519Y-14499D01*
X16489Y-14499D01*
X16443Y-14484D01*
X16412Y-14453D01*
X16397Y-14423D01*
X16382Y-14362D01*
X16382Y-14316D01*
X16397Y-14255D01*
X16412Y-14225D01*
X16443Y-14194D01*
X16489Y-14179D01*
X16519Y-14179D01*
X16565Y-14194D01*
X16580Y-14210D01*
X16687Y-14179D02*
X16885Y-14179D01*
X16778Y-14301D01*
X16824Y-14301D01*
X16854Y-14316D01*
X16870Y-14331D01*
X16885Y-14362D01*
X16885Y-14438D01*
X16870Y-14469D01*
X16854Y-14484D01*
X16824Y-14499D01*
X16732Y-14499D01*
X16702Y-14484D01*
X16687Y-14469D01*
X19828Y-17452D02*
X19721Y-17299D01*
X19645Y-17452D02*
X19645Y-17132D01*
X19767Y-17132D01*
X19798Y-17147D01*
X19813Y-17162D01*
X19828Y-17193D01*
X19828Y-17239D01*
X19813Y-17269D01*
X19798Y-17284D01*
X19767Y-17299D01*
X19645Y-17299D01*
X19980Y-17452D02*
X20041Y-17452D01*
X20072Y-17437D01*
X20087Y-17421D01*
X20118Y-17376D01*
X20133Y-17315D01*
X20133Y-17193D01*
X20118Y-17162D01*
X20102Y-17147D01*
X20072Y-17132D01*
X20011Y-17132D01*
X19980Y-17147D01*
X19965Y-17162D01*
X19950Y-17193D01*
X19950Y-17269D01*
X19965Y-17299D01*
X19980Y-17315D01*
X20011Y-17330D01*
X20072Y-17330D01*
X20102Y-17315D01*
X20118Y-17299D01*
X20133Y-17269D01*
X16875Y-17618D02*
X16860Y-17633D01*
X16814Y-17649D01*
X16784Y-17649D01*
X16738Y-17633D01*
X16708Y-17603D01*
X16692Y-17573D01*
X16677Y-17512D01*
X16677Y-17466D01*
X16692Y-17405D01*
X16708Y-17374D01*
X16738Y-17344D01*
X16784Y-17329D01*
X16814Y-17329D01*
X16860Y-17344D01*
X16875Y-17359D01*
X16997Y-17359D02*
X17012Y-17344D01*
X17043Y-17329D01*
X17119Y-17329D01*
X17150Y-17344D01*
X17165Y-17359D01*
X17180Y-17390D01*
X17180Y-17420D01*
X17165Y-17466D01*
X16982Y-17649D01*
X17180Y-17649D01*
X22486Y-17255D02*
X22379Y-17103D01*
X22303Y-17255D02*
X22303Y-16935D01*
X22425Y-16935D01*
X22455Y-16950D01*
X22470Y-16965D01*
X22486Y-16996D01*
X22486Y-17042D01*
X22470Y-17072D01*
X22455Y-17087D01*
X22425Y-17103D01*
X22303Y-17103D01*
X22760Y-16935D02*
X22699Y-16935D01*
X22668Y-16950D01*
X22653Y-16965D01*
X22623Y-17011D01*
X22607Y-17072D01*
X22607Y-17194D01*
X22623Y-17225D01*
X22638Y-17240D01*
X22668Y-17255D01*
X22729Y-17255D01*
X22760Y-17240D01*
X22775Y-17225D01*
X22790Y-17194D01*
X22790Y-17118D01*
X22775Y-17087D01*
X22760Y-17072D01*
X22729Y-17057D01*
X22668Y-17057D01*
X22638Y-17072D01*
X22623Y-17087D01*
X22607Y-17118D01*
X12741Y-16664D02*
X12635Y-16512D01*
X12559Y-16664D02*
X12559Y-16344D01*
X12680Y-16344D01*
X12711Y-16360D01*
X12726Y-16375D01*
X12741Y-16405D01*
X12741Y-16451D01*
X12726Y-16482D01*
X12711Y-16497D01*
X12680Y-16512D01*
X12559Y-16512D01*
X13016Y-16451D02*
X13016Y-16664D01*
X12940Y-16329D02*
X12863Y-16558D01*
X13061Y-16558D01*
X12741Y-14696D02*
X12635Y-14544D01*
X12559Y-14696D02*
X12559Y-14376D01*
X12680Y-14376D01*
X12711Y-14391D01*
X12726Y-14406D01*
X12741Y-14437D01*
X12741Y-14483D01*
X12726Y-14513D01*
X12711Y-14528D01*
X12680Y-14544D01*
X12559Y-14544D01*
X13046Y-14696D02*
X12863Y-14696D01*
X12955Y-14696D02*
X12955Y-14376D01*
X12924Y-14422D01*
X12894Y-14452D01*
X12863Y-14467D01*
X19728Y-15839D02*
X19728Y-16098D01*
X19743Y-16128D01*
X19759Y-16143D01*
X19789Y-16159D01*
X19850Y-16159D01*
X19881Y-16143D01*
X19896Y-16128D01*
X19911Y-16098D01*
X19911Y-15839D01*
X20231Y-16159D02*
X20048Y-16159D01*
X20140Y-16159D02*
X20140Y-15839D01*
X20109Y-15884D01*
X20079Y-15915D01*
X20048Y-15930D01*
%LPC*%
G54D20*
X14476Y-17716D03*
X13476Y-18091D03*
X13476Y-17341D03*
G54D21*
X22704Y-14960D03*
X23554Y-14960D03*
X17291Y-13385D03*
X18141Y-13385D03*
G54D22*
X17224Y-10858D03*
X17224Y-10008D03*
G54D21*
X26543Y-15157D03*
X27393Y-15157D03*
X26543Y-13976D03*
X27393Y-13976D03*
X26543Y-12795D03*
X27393Y-12795D03*
X26543Y-11614D03*
X27393Y-11614D03*
X26543Y-10433D03*
X27393Y-10433D03*
X15323Y-16535D03*
X16173Y-16535D03*
X13551Y-15551D03*
X14401Y-15551D03*
X15323Y-15551D03*
X16173Y-15551D03*
G54D22*
X18208Y-10858D03*
X18208Y-10008D03*
G54D21*
X18141Y-12401D03*
X17291Y-12401D03*
X17291Y-14370D03*
X18141Y-14370D03*
X21487Y-17322D03*
X20637Y-17322D03*
X15323Y-17519D03*
X16173Y-17519D03*
X22472Y-16338D03*
X21622Y-16338D03*
X13551Y-16535D03*
X14401Y-16535D03*
X14401Y-14566D03*
X13551Y-14566D03*
G54D23*
X13543Y-19133D03*
X11574Y-19133D03*
X15511Y-19133D03*
G54D24*
X19216Y-8858D03*
G54D23*
X18216Y-8858D03*
X17216Y-8858D03*
X16216Y-8858D03*
G54D24*
X24803Y-18897D03*
G54D23*
X21653Y-18897D03*
X22653Y-18897D03*
G54D24*
X20653Y-18897D03*
G54D25*
X21495Y-15279D03*
X21495Y-14779D03*
X21495Y-14279D03*
X21495Y-13779D03*
X21495Y-13279D03*
X21495Y-12779D03*
X21495Y-12279D03*
X19449Y-12279D03*
X19449Y-12779D03*
X19449Y-13279D03*
X19449Y-13779D03*
X19449Y-14279D03*
X19449Y-14779D03*
X19449Y-15279D03*
G54D26*
X23677Y-11814D03*
X24696Y-10051D03*
X26460Y-9031D03*
X28500Y-9031D03*
X30263Y-10051D03*
X31283Y-11814D03*
X29645Y-12834D03*
X25314Y-12834D03*
X23677Y-13854D03*
X24696Y-15618D03*
X26460Y-16637D03*
X28500Y-16637D03*
X30263Y-15618D03*
X31283Y-13854D03*
M02*
