G04 (created by PCBNEW (2013-03-31 BZR 4008)-stable) date 2013-07-27 3:47:37 PM*
%MOIN*%
G04 Gerber Fmt 3.4, Leading zero omitted, Abs format*
%FSLAX34Y34*%
G01*
G70*
G90*
G04 APERTURE LIST*
%ADD10C,0.006*%
%ADD11R,0.0394X0.0276*%
%ADD12R,0.045X0.055*%
%ADD13R,0.055X0.045*%
%ADD14C,0.0787*%
%ADD15R,0.0787X0.0787*%
%ADD16R,0.0866X0.0236*%
%ADD17C,0.0787402*%
%ADD18C,0.045*%
%ADD19C,0.012*%
G04 APERTURE END LIST*
G54D10*
G54D11*
X14476Y-17716D03*
X13476Y-18091D03*
X13476Y-17341D03*
G54D12*
X22704Y-14960D03*
X23554Y-14960D03*
X17291Y-13385D03*
X18141Y-13385D03*
G54D13*
X17224Y-10858D03*
X17224Y-10008D03*
G54D12*
X26543Y-15157D03*
X27393Y-15157D03*
X26543Y-13976D03*
X27393Y-13976D03*
X26543Y-12795D03*
X27393Y-12795D03*
X26543Y-11614D03*
X27393Y-11614D03*
X26543Y-10433D03*
X27393Y-10433D03*
X15323Y-16535D03*
X16173Y-16535D03*
X13551Y-15551D03*
X14401Y-15551D03*
X15323Y-15551D03*
X16173Y-15551D03*
G54D13*
X18208Y-10858D03*
X18208Y-10008D03*
G54D12*
X18141Y-12401D03*
X17291Y-12401D03*
X17291Y-14370D03*
X18141Y-14370D03*
X21487Y-17322D03*
X20637Y-17322D03*
X15323Y-17519D03*
X16173Y-17519D03*
X22472Y-16338D03*
X21622Y-16338D03*
X13551Y-16535D03*
X14401Y-16535D03*
X14401Y-14566D03*
X13551Y-14566D03*
G54D14*
X13543Y-19133D03*
X11574Y-19133D03*
X15511Y-19133D03*
G54D15*
X19216Y-8858D03*
G54D14*
X18216Y-8858D03*
X17216Y-8858D03*
X16216Y-8858D03*
G54D15*
X24803Y-18897D03*
G54D14*
X21653Y-18897D03*
X22653Y-18897D03*
G54D15*
X20653Y-18897D03*
G54D16*
X21495Y-15279D03*
X21495Y-14779D03*
X21495Y-14279D03*
X21495Y-13779D03*
X21495Y-13279D03*
X21495Y-12779D03*
X21495Y-12279D03*
X19449Y-12279D03*
X19449Y-12779D03*
X19449Y-13279D03*
X19449Y-13779D03*
X19449Y-14279D03*
X19449Y-14779D03*
X19449Y-15279D03*
G54D17*
X23677Y-11814D03*
X24696Y-10051D03*
X26460Y-9031D03*
X28500Y-9031D03*
X30263Y-10051D03*
X31283Y-11814D03*
X29645Y-12834D03*
X25314Y-12834D03*
X23677Y-13854D03*
X24696Y-15618D03*
X26460Y-16637D03*
X28500Y-16637D03*
X30263Y-15618D03*
X31283Y-13854D03*
G54D18*
X16173Y-14888D03*
X12995Y-18504D03*
X17546Y-11730D03*
X15758Y-18168D03*
X23084Y-16318D03*
X24180Y-14780D03*
X22539Y-12303D03*
X17744Y-15039D03*
X18419Y-11679D03*
G54D19*
X13551Y-10640D02*
X13551Y-14566D01*
X15947Y-8243D02*
X13551Y-10640D01*
X18601Y-8243D02*
X15947Y-8243D01*
X19216Y-8858D02*
X18601Y-8243D01*
X22704Y-14437D02*
X22704Y-14960D01*
X22047Y-13779D02*
X22704Y-14437D01*
X21495Y-13779D02*
X22047Y-13779D01*
X20842Y-13779D02*
X21495Y-13779D01*
X20842Y-11097D02*
X20842Y-13779D01*
X19216Y-9471D02*
X20842Y-11097D01*
X19216Y-8858D02*
X19216Y-9471D01*
X18503Y-13385D02*
X18141Y-13385D01*
X18897Y-13779D02*
X18503Y-13385D01*
X19449Y-13779D02*
X18897Y-13779D01*
X18216Y-9007D02*
X18216Y-8858D01*
X20102Y-10893D02*
X18216Y-9007D01*
X20102Y-13779D02*
X20102Y-10893D01*
X19449Y-13779D02*
X20102Y-13779D01*
X22472Y-16338D02*
X22917Y-16338D01*
X13476Y-18449D02*
X13476Y-18091D01*
X13421Y-18504D02*
X13476Y-18449D01*
X12995Y-18504D02*
X13421Y-18504D01*
X17291Y-11906D02*
X17291Y-12401D01*
X17370Y-11906D02*
X17291Y-11906D01*
X17546Y-11730D02*
X17370Y-11906D01*
X16173Y-18014D02*
X16173Y-17519D01*
X15912Y-18014D02*
X16173Y-18014D01*
X15758Y-18168D02*
X15912Y-18014D01*
X16173Y-15551D02*
X16173Y-14888D01*
X17291Y-12401D02*
X17291Y-13385D01*
X17291Y-13385D02*
X17291Y-14370D01*
X22937Y-16318D02*
X22917Y-16338D01*
X23084Y-16318D02*
X22937Y-16318D01*
X23554Y-14960D02*
X24000Y-14960D01*
X24180Y-14780D02*
X24000Y-14960D01*
X26543Y-9114D02*
X26543Y-10433D01*
X26460Y-9031D02*
X26543Y-9114D01*
X14401Y-16535D02*
X15323Y-16535D01*
X15323Y-17519D02*
X15323Y-16535D01*
X21653Y-18897D02*
X22653Y-18897D01*
X22653Y-18897D02*
X24803Y-18897D01*
X22128Y-15279D02*
X22431Y-15582D01*
X21495Y-15279D02*
X22128Y-15279D01*
X24803Y-18897D02*
X24803Y-17281D01*
X23104Y-15582D02*
X22431Y-15582D01*
X24803Y-17281D02*
X23104Y-15582D01*
X25446Y-16637D02*
X26374Y-16637D01*
X24803Y-17281D02*
X25446Y-16637D01*
X26374Y-16637D02*
X26460Y-16637D01*
X27380Y-15632D02*
X27393Y-15632D01*
X26374Y-16637D02*
X27380Y-15632D01*
X27393Y-15157D02*
X27393Y-15632D01*
X21487Y-16847D02*
X21487Y-17322D01*
X21522Y-16813D02*
X21487Y-16847D01*
X21622Y-16813D02*
X21522Y-16813D01*
X21622Y-16338D02*
X21622Y-16813D01*
X20862Y-14779D02*
X21495Y-14779D01*
X20862Y-16003D02*
X20862Y-14779D01*
X21197Y-16338D02*
X20862Y-16003D01*
X21622Y-16338D02*
X21197Y-16338D01*
X20637Y-18288D02*
X20637Y-17322D01*
X20653Y-18304D02*
X20637Y-18288D01*
X20653Y-18897D02*
X20653Y-18304D01*
X25657Y-15618D02*
X26118Y-15157D01*
X24696Y-15618D02*
X25657Y-15618D01*
X26543Y-15157D02*
X26118Y-15157D01*
X27249Y-14451D02*
X26543Y-15157D01*
X27393Y-14451D02*
X27249Y-14451D01*
X27393Y-13976D02*
X27393Y-14451D01*
X21495Y-13279D02*
X22189Y-13279D01*
X27249Y-10908D02*
X26543Y-11614D01*
X27393Y-10908D02*
X27249Y-10908D01*
X27393Y-10433D02*
X27393Y-10908D01*
X26543Y-11614D02*
X26118Y-11614D01*
X24696Y-10051D02*
X24696Y-10399D01*
X24903Y-10399D02*
X24696Y-10399D01*
X26118Y-11614D02*
X24903Y-10399D01*
X23082Y-12386D02*
X22189Y-13279D01*
X23082Y-11544D02*
X23082Y-12386D01*
X24228Y-10399D02*
X23082Y-11544D01*
X24696Y-10399D02*
X24228Y-10399D01*
X25996Y-13854D02*
X26118Y-13976D01*
X23677Y-13854D02*
X25996Y-13854D01*
X26543Y-13976D02*
X26118Y-13976D01*
X27249Y-13270D02*
X26543Y-13976D01*
X27393Y-13270D02*
X27249Y-13270D01*
X27393Y-12795D02*
X27393Y-13270D01*
X25138Y-11814D02*
X26118Y-12795D01*
X23677Y-11814D02*
X25138Y-11814D01*
X26543Y-12795D02*
X26118Y-12795D01*
X27249Y-12089D02*
X26543Y-12795D01*
X27393Y-12089D02*
X27249Y-12089D01*
X27393Y-11614D02*
X27393Y-12089D01*
X13551Y-15551D02*
X13551Y-16535D01*
X13476Y-17085D02*
X13476Y-17341D01*
X13551Y-17010D02*
X13476Y-17085D01*
X13551Y-16535D02*
X13551Y-17010D01*
X22515Y-12279D02*
X22539Y-12303D01*
X21495Y-12279D02*
X22515Y-12279D01*
X21495Y-12779D02*
X21495Y-12279D01*
X18566Y-14370D02*
X18354Y-14370D01*
X18657Y-14279D02*
X18566Y-14370D01*
X19449Y-14279D02*
X18657Y-14279D01*
X18354Y-14429D02*
X17744Y-15039D01*
X18354Y-14370D02*
X18354Y-14429D01*
X18141Y-14370D02*
X18354Y-14370D01*
X15323Y-15551D02*
X14401Y-15551D01*
X14401Y-14566D02*
X14401Y-15551D01*
X19449Y-15279D02*
X18816Y-15279D01*
X18816Y-14779D02*
X19449Y-14779D01*
X18816Y-15279D02*
X18816Y-14779D01*
X18627Y-15468D02*
X18816Y-15279D01*
X17560Y-15468D02*
X18627Y-15468D01*
X16828Y-14736D02*
X17560Y-15468D01*
X16828Y-11679D02*
X16828Y-14736D01*
X17224Y-11283D02*
X16828Y-11679D01*
X17224Y-10858D02*
X17224Y-11283D01*
X18173Y-11926D02*
X18419Y-11679D01*
X18141Y-11926D02*
X18173Y-11926D01*
X18141Y-12401D02*
X18141Y-11926D01*
X18816Y-13279D02*
X19449Y-13279D01*
X18816Y-12651D02*
X18816Y-13279D01*
X18566Y-12401D02*
X18816Y-12651D01*
X18141Y-12401D02*
X18566Y-12401D01*
X19449Y-12779D02*
X19449Y-12279D01*
X18856Y-11505D02*
X18208Y-10858D01*
X18856Y-12001D02*
X18856Y-11505D01*
X18816Y-12040D02*
X18856Y-12001D01*
X18816Y-12279D02*
X18816Y-12040D01*
X19449Y-12279D02*
X18816Y-12279D01*
X19029Y-16535D02*
X16173Y-16535D01*
X20380Y-15184D02*
X19029Y-16535D01*
X20380Y-14761D02*
X20380Y-15184D01*
X20862Y-14279D02*
X20380Y-14761D01*
X21495Y-14279D02*
X20862Y-14279D01*
X17224Y-8866D02*
X17224Y-10008D01*
X17216Y-8858D02*
X17224Y-8866D01*
X17224Y-10008D02*
X18208Y-10008D01*
M02*
