G04 (created by PCBNEW (2013-03-31 BZR 4008)-stable) date 2013-07-27 3:47:37 PM*
%MOIN*%
G04 Gerber Fmt 3.4, Leading zero omitted, Abs format*
%FSLAX34Y34*%
G01*
G70*
G90*
G04 APERTURE LIST*
%ADD10C,0.006*%
%ADD11C,0.00590551*%
%ADD12C,0.0802748*%
%ADD13R,0.0802748X0.0802748*%
%ADD14C,0.080315*%
G04 APERTURE END LIST*
G54D10*
G54D11*
X14724Y-17952D02*
X14724Y-19133D01*
X14724Y-19133D02*
X16299Y-19133D01*
X12755Y-17952D02*
X12755Y-19133D01*
X12755Y-19133D02*
X14330Y-19133D01*
X14330Y-19133D02*
X14330Y-17952D01*
X10787Y-19133D02*
X12362Y-19133D01*
X12362Y-19133D02*
X12362Y-17952D01*
X16299Y-17952D02*
X10787Y-17952D01*
X10787Y-19133D02*
X10787Y-14803D01*
X16299Y-19133D02*
X16299Y-14803D01*
X14724Y-12834D02*
G75*
G03X14724Y-12834I-1181J0D01*
G74*
G01*
X16889Y-12834D02*
G75*
G03X16889Y-12834I-3346J0D01*
G74*
G01*
X32775Y-10874D02*
X32775Y-14811D01*
X32775Y-10874D02*
X31988Y-10874D01*
X32775Y-14811D02*
X31988Y-14811D01*
X32775Y-14614D02*
G75*
G03X32775Y-11070I-1771J1771D01*
G74*
G01*
X26080Y-17566D02*
G75*
G03X32380Y-14813I1773J4526D01*
G74*
G01*
X26080Y-8142D02*
G75*
G02X32380Y-10895I1773J-4526D01*
G74*
G01*
X28864Y-8103D02*
G75*
G03X22563Y-10855I-1773J-4526D01*
G74*
G01*
X28860Y-17558D02*
G75*
G02X22559Y-14805I-1773J4526D01*
G74*
G01*
X22165Y-14606D02*
G75*
G02X22165Y-11062I1771J1771D01*
G74*
G01*
X22165Y-14803D02*
X22952Y-14803D01*
X22165Y-10866D02*
X22952Y-10866D01*
X22165Y-10866D02*
X22165Y-14803D01*
X32401Y-12834D02*
G75*
G03X32401Y-12834I-4921J0D01*
G74*
G01*
X31417Y-12834D02*
G75*
G03X31417Y-12834I-3937J0D01*
G74*
G01*
X25947Y-9966D02*
X25947Y-9628D01*
X25947Y-9797D02*
X25357Y-9797D01*
X25441Y-9741D01*
X25497Y-9685D01*
X25525Y-9628D01*
X25413Y-10191D02*
X25385Y-10219D01*
X25357Y-10275D01*
X25357Y-10416D01*
X25385Y-10472D01*
X25413Y-10500D01*
X25469Y-10528D01*
X25525Y-10528D01*
X25610Y-10500D01*
X25947Y-10163D01*
X25947Y-10528D01*
X24766Y-11625D02*
X24766Y-11287D01*
X24766Y-11456D02*
X24176Y-11456D01*
X24260Y-11400D01*
X24316Y-11344D01*
X24344Y-11287D01*
X30278Y-13467D02*
X29687Y-13467D01*
X29687Y-13607D01*
X29715Y-13692D01*
X29772Y-13748D01*
X29828Y-13776D01*
X29940Y-13804D01*
X30025Y-13804D01*
X30137Y-13776D01*
X30194Y-13748D01*
X30250Y-13692D01*
X30278Y-13607D01*
X30278Y-13467D01*
X24991Y-13481D02*
X24991Y-13762D01*
X25160Y-13425D02*
X24569Y-13622D01*
X25160Y-13818D01*
%LPC*%
G54D12*
X13543Y-19133D03*
X11574Y-19133D03*
X15511Y-19133D03*
G54D13*
X19216Y-8858D03*
G54D12*
X18216Y-8858D03*
X17216Y-8858D03*
X16216Y-8858D03*
G54D13*
X24803Y-18897D03*
G54D12*
X21653Y-18897D03*
X22653Y-18897D03*
G54D13*
X20653Y-18897D03*
G54D14*
X23677Y-11814D03*
X24696Y-10051D03*
X26460Y-9031D03*
X28500Y-9031D03*
X30263Y-10051D03*
X31283Y-11814D03*
X29645Y-12834D03*
X25314Y-12834D03*
X23677Y-13854D03*
X24696Y-15618D03*
X26460Y-16637D03*
X28500Y-16637D03*
X30263Y-15618D03*
X31283Y-13854D03*
M02*
