  0
SECTION
  2
HEADER
  9
$ANGBASE
  50
0.0
  9
$ANGDIR
  70
  1
  9
$MEASUREMENT
  70
0
  0
ENDSEC
  0
SECTION
  2
TABLES
  0
TABLE
  2
LTYPE
  70
1
  0
LTYPE
  2
CONTINUOUS
  70
0
  3
Solid line
  72
65
  73
0
  40
0.0
  0
ENDTAB
  0
TABLE
  2
STYLE
  70
4
  0
STYLE
  2
KICAD
  70
0
  40
0
  41
1
  42
1
  50
0
  71
0
  3
isocp.shx
  0
STYLE
  2
KICADB
  70
0
  40
0
  41
1
  42
1
  50
0
  71
0
  3
isocp.shx
  0
STYLE
  2
KICADI
  70
0
  40
0
  41
1
  42
1
  50
15
  71
0
  3
isocp.shx
  0
STYLE
  2
KICADBI
  70
0
  40
0
  41
1
  42
1
  50
15
  71
0
  3
isocp.shx
  0
ENDTAB
  0
TABLE
  2
LAYER
  70
24
  0
LAYER
  2
BLACK
  70
0
  62
250
  6
CONTINUOUS
  0
LAYER
  2
BLUE
  70
0
  62
5
  6
CONTINUOUS
  0
LAYER
  2
GREEN
  70
0
  62
3
  6
CONTINUOUS
  0
LAYER
  2
CYAN
  70
0
  62
4
  6
CONTINUOUS
  0
LAYER
  2
RED
  70
0
  62
1
  6
CONTINUOUS
  0
LAYER
  2
MAGENTA
  70
0
  62
6
  6
CONTINUOUS
  0
LAYER
  2
BROWN
  70
0
  62
54
  6
CONTINUOUS
  0
LAYER
  2
LIGHTGRAY
  70
0
  62
9
  6
CONTINUOUS
  0
LAYER
  2
DARKGRAY
  70
0
  62
8
  6
CONTINUOUS
  0
LAYER
  2
LIGHTBLUE
  70
0
  62
171
  6
CONTINUOUS
  0
LAYER
  2
LIGHTGREEN
  70
0
  62
91
  6
CONTINUOUS
  0
LAYER
  2
LIGHTCYAN
  70
0
  62
131
  6
CONTINUOUS
  0
LAYER
  2
LIGHTRED
  70
0
  62
11
  6
CONTINUOUS
  0
LAYER
  2
LIGHTMAGENTA
  70
0
  62
221
  6
CONTINUOUS
  0
LAYER
  2
YELLOW
  70
0
  62
2
  6
CONTINUOUS
  0
LAYER
  2
WHITE
  70
0
  62
7
  6
CONTINUOUS
  0
LAYER
  2
DARKDARKGRAY
  70
0
  62
251
  6
CONTINUOUS
  0
LAYER
  2
DARKBLUE
  70
0
  62
178
  6
CONTINUOUS
  0
LAYER
  2
DARKGREEN
  70
0
  62
98
  6
CONTINUOUS
  0
LAYER
  2
DARKCYAN
  70
0
  62
138
  6
CONTINUOUS
  0
LAYER
  2
DARKRED
  70
0
  62
18
  6
CONTINUOUS
  0
LAYER
  2
DARKMAGENTA
  70
0
  62
228
  6
CONTINUOUS
  0
LAYER
  2
DARKBROWN
  70
0
  62
58
  6
CONTINUOUS
  0
LAYER
  2
LIGHTYELLOW
  70
0
  62
51
  6
CONTINUOUS
  0
ENDTAB
  0
ENDSEC
  0
SECTION
  2
ENTITIES
0
LINE
8
BLACK
10
40.1786
20
-25.3571
11
40.1071
21
-25.2143
0
LINE
8
BLACK
10
40.1071
20
-25.2143
11
40.1071
21
-25
0
LINE
8
BLACK
10
40.1071
20
-25
11
40.1786
21
-24.7857
0
LINE
8
BLACK
10
40.1786
20
-24.7857
11
40.3214
21
-24.6429
0
LINE
8
BLACK
10
40.3214
20
-24.6429
11
40.4643
21
-24.5714
0
LINE
8
BLACK
10
40.4643
20
-24.5714
11
40.75
21
-24.5
0
LINE
8
BLACK
10
40.75
20
-24.5
11
40.9643
21
-24.5
0
LINE
8
BLACK
10
40.9643
20
-24.5
11
41.25
21
-24.5714
0
LINE
8
BLACK
10
41.25
20
-24.5714
11
41.3929
21
-24.6429
0
LINE
8
BLACK
10
41.3929
20
-24.6429
11
41.5357
21
-24.7857
0
LINE
8
BLACK
10
41.5357
20
-24.7857
11
41.6071
21
-25
0
LINE
8
BLACK
10
41.6071
20
-25
11
41.6071
21
-25.1429
0
LINE
8
BLACK
10
41.6071
20
-25.1429
11
41.5357
21
-25.3571
0
LINE
8
BLACK
10
41.5357
20
-25.3571
11
41.4643
21
-25.4286
0
LINE
8
BLACK
10
41.4643
20
-25.4286
11
40.9643
21
-25.4286
0
LINE
8
BLACK
10
40.9643
20
-25.4286
11
40.9643
21
-25.1429
0
LINE
8
BLACK
10
41.6071
20
-26.0714
11
40.1071
21
-26.0714
0
LINE
8
BLACK
10
40.1071
20
-26.0714
11
41.6071
21
-26.9286
0
LINE
8
BLACK
10
41.6071
20
-26.9286
11
40.1071
21
-26.9286
0
LINE
8
BLACK
10
41.6071
20
-27.6429
11
40.1071
21
-27.6429
0
LINE
8
BLACK
10
40.1071
20
-27.6429
11
40.1071
21
-28
0
LINE
8
BLACK
10
40.1071
20
-28
11
40.1786
21
-28.2143
0
LINE
8
BLACK
10
40.1786
20
-28.2143
11
40.3214
21
-28.3571
0
LINE
8
BLACK
10
40.3214
20
-28.3571
11
40.4643
21
-28.4286
0
LINE
8
BLACK
10
40.4643
20
-28.4286
11
40.75
21
-28.5
0
LINE
8
BLACK
10
40.75
20
-28.5
11
40.9643
21
-28.5
0
LINE
8
BLACK
10
40.9643
20
-28.5
11
41.25
21
-28.4286
0
LINE
8
BLACK
10
41.25
20
-28.4286
11
41.3929
21
-28.3571
0
LINE
8
BLACK
10
41.3929
20
-28.3571
11
41.5357
21
-28.2143
0
LINE
8
BLACK
10
41.5357
20
-28.2143
11
41.6071
21
-28
0
LINE
8
BLACK
10
41.6071
20
-28
11
41.6071
21
-27.6429
0
LINE
8
BLACK
10
44.5357
20
-24.6786
11
44.6071
21
-24.8929
0
LINE
8
BLACK
10
44.6071
20
-24.8929
11
44.6071
21
-25.25
0
LINE
8
BLACK
10
44.6071
20
-25.25
11
44.5357
21
-25.3929
0
LINE
8
BLACK
10
44.5357
20
-25.3929
11
44.4643
21
-25.4643
0
LINE
8
BLACK
10
44.4643
20
-25.4643
11
44.3214
21
-25.5357
0
LINE
8
BLACK
10
44.3214
20
-25.5357
11
44.1786
21
-25.5357
0
LINE
8
BLACK
10
44.1786
20
-25.5357
11
44.0357
21
-25.4643
0
LINE
8
BLACK
10
44.0357
20
-25.4643
11
43.9643
21
-25.3929
0
LINE
8
BLACK
10
43.9643
20
-25.3929
11
43.8929
21
-25.25
0
LINE
8
BLACK
10
43.8929
20
-25.25
11
43.8214
21
-24.9643
0
LINE
8
BLACK
10
43.8214
20
-24.9643
11
43.75
21
-24.8214
0
LINE
8
BLACK
10
43.75
20
-24.8214
11
43.6786
21
-24.75
0
LINE
8
BLACK
10
43.6786
20
-24.75
11
43.5357
21
-24.6786
0
LINE
8
BLACK
10
43.5357
20
-24.6786
11
43.3929
21
-24.6786
0
LINE
8
BLACK
10
43.3929
20
-24.6786
11
43.25
21
-24.75
0
LINE
8
BLACK
10
43.25
20
-24.75
11
43.1786
21
-24.8214
0
LINE
8
BLACK
10
43.1786
20
-24.8214
11
43.1071
21
-24.9643
0
LINE
8
BLACK
10
43.1071
20
-24.9643
11
43.1071
21
-25.3214
0
LINE
8
BLACK
10
43.1071
20
-25.3214
11
43.1786
21
-25.5357
0
LINE
8
BLACK
10
43.1071
20
-26.1786
11
44.3214
21
-26.1786
0
LINE
8
BLACK
10
44.3214
20
-26.1786
11
44.4643
21
-26.25
0
LINE
8
BLACK
10
44.4643
20
-26.25
11
44.5357
21
-26.3214
0
LINE
8
BLACK
10
44.5357
20
-26.3214
11
44.6071
21
-26.4643
0
LINE
8
BLACK
10
44.6071
20
-26.4643
11
44.6071
21
-26.75
0
LINE
8
BLACK
10
44.6071
20
-26.75
11
44.5357
21
-26.8929
0
LINE
8
BLACK
10
44.5357
20
-26.8929
11
44.4643
21
-26.9643
0
LINE
8
BLACK
10
44.4643
20
-26.9643
11
44.3214
21
-27.0357
0
LINE
8
BLACK
10
44.3214
20
-27.0357
11
43.1071
21
-27.0357
0
LINE
8
BLACK
10
44.6071
20
-27.75
11
43.1071
21
-27.75
0
LINE
8
BLACK
10
43.1071
20
-27.75
11
44.1786
21
-28.25
0
LINE
8
BLACK
10
44.1786
20
-28.25
11
43.1071
21
-28.75
0
LINE
8
BLACK
10
43.1071
20
-28.75
11
44.6071
21
-28.75
0
LINE
8
BLACK
10
46.5357
20
-24.6071
11
46.5357
21
-25.75
0
LINE
8
BLACK
10
47.1071
20
-27.25
11
47.1071
21
-26.3929
0
LINE
8
BLACK
10
47.1071
20
-26.8214
11
45.6071
21
-26.8214
0
LINE
8
BLACK
10
45.6071
20
-26.8214
11
45.8214
21
-26.6786
0
LINE
8
BLACK
10
45.8214
20
-26.6786
11
45.9643
21
-26.5357
0
LINE
8
BLACK
10
45.9643
20
-26.5357
11
46.0357
21
-26.3929
0
LINE
8
BLACK
10
45.75
20
-27.8214
11
45.6786
21
-27.8929
0
LINE
8
BLACK
10
45.6786
20
-27.8929
11
45.6071
21
-28.0357
0
LINE
8
BLACK
10
45.6071
20
-28.0357
11
45.6071
21
-28.3929
0
LINE
8
BLACK
10
45.6071
20
-28.3929
11
45.6786
21
-28.5357
0
LINE
8
BLACK
10
45.6786
20
-28.5357
11
45.75
21
-28.6071
0
LINE
8
BLACK
10
45.75
20
-28.6071
11
45.8929
21
-28.6786
0
LINE
8
BLACK
10
45.8929
20
-28.6786
11
46.0357
21
-28.6786
0
LINE
8
BLACK
10
46.0357
20
-28.6786
11
46.25
21
-28.6071
0
LINE
8
BLACK
10
46.25
20
-28.6071
11
47.1071
21
-27.75
0
LINE
8
BLACK
10
47.1071
20
-27.75
11
47.1071
21
-28.6786
0
LINE
8
BLACK
10
45.6071
20
-29.1071
11
47.1071
21
-29.6071
0
LINE
8
BLACK
10
47.1071
20
-29.6071
11
45.6071
21
-30.1071
0
LINE
8
BLACK
10
49.0357
20
-24.6071
11
49.0357
21
-25.75
0
LINE
8
BLACK
10
49.6071
20
-25.1786
11
48.4643
21
-25.1786
0
LINE
8
BLACK
10
49.6071
20
-27.25
11
49.6071
21
-26.3929
0
LINE
8
BLACK
10
49.6071
20
-26.8214
11
48.1071
21
-26.8214
0
LINE
8
BLACK
10
48.1071
20
-26.8214
11
48.3214
21
-26.6786
0
LINE
8
BLACK
10
48.3214
20
-26.6786
11
48.4643
21
-26.5357
0
LINE
8
BLACK
10
48.4643
20
-26.5357
11
48.5357
21
-26.3929
0
LINE
8
BLACK
10
48.25
20
-27.8214
11
48.1786
21
-27.8929
0
LINE
8
BLACK
10
48.1786
20
-27.8929
11
48.1071
21
-28.0357
0
LINE
8
BLACK
10
48.1071
20
-28.0357
11
48.1071
21
-28.3929
0
LINE
8
BLACK
10
48.1071
20
-28.3929
11
48.1786
21
-28.5357
0
LINE
8
BLACK
10
48.1786
20
-28.5357
11
48.25
21
-28.6071
0
LINE
8
BLACK
10
48.25
20
-28.6071
11
48.3929
21
-28.6786
0
LINE
8
BLACK
10
48.3929
20
-28.6786
11
48.5357
21
-28.6786
0
LINE
8
BLACK
10
48.5357
20
-28.6786
11
48.75
21
-28.6071
0
LINE
8
BLACK
10
48.75
20
-28.6071
11
49.6071
21
-27.75
0
LINE
8
BLACK
10
49.6071
20
-27.75
11
49.6071
21
-28.6786
0
LINE
8
BLACK
10
48.1071
20
-29.1071
11
49.6071
21
-29.6071
0
LINE
8
BLACK
10
49.6071
20
-29.6071
11
48.1071
21
-30.1071
0
LINE
8
BLACK
10
51.3571
20
-21.4643
11
51.3571
21
-21.75
0
LINE
8
BLACK
10
51.3571
20
-21.75
11
51.4286
21
-21.8929
0
LINE
8
BLACK
10
51.4286
20
-21.8929
11
51.5714
21
-22.0357
0
LINE
8
BLACK
10
51.5714
20
-22.0357
11
51.8571
21
-22.1071
0
LINE
8
BLACK
10
51.8571
20
-22.1071
11
52.3571
21
-22.1071
0
LINE
8
BLACK
10
52.3571
20
-22.1071
11
52.6429
21
-22.0357
0
LINE
8
BLACK
10
52.6429
20
-22.0357
11
52.7857
21
-21.8929
0
LINE
8
BLACK
10
52.7857
20
-21.8929
11
52.8571
21
-21.75
0
LINE
8
BLACK
10
52.8571
20
-21.75
11
52.8571
21
-21.4643
0
LINE
8
BLACK
10
52.8571
20
-21.4643
11
52.7857
21
-21.3214
0
LINE
8
BLACK
10
52.7857
20
-21.3214
11
52.6429
21
-21.1786
0
LINE
8
BLACK
10
52.6429
20
-21.1786
11
52.3571
21
-21.1071
0
LINE
8
BLACK
10
52.3571
20
-21.1071
11
51.8571
21
-21.1071
0
LINE
8
BLACK
10
51.8571
20
-21.1071
11
51.5714
21
-21.1786
0
LINE
8
BLACK
10
51.5714
20
-21.1786
11
51.4286
21
-21.3214
0
LINE
8
BLACK
10
51.4286
20
-21.3214
11
51.3571
21
-21.4643
0
LINE
8
BLACK
10
52.7143
20
-23.6071
11
52.7857
21
-23.5357
0
LINE
8
BLACK
10
52.7857
20
-23.5357
11
52.8571
21
-23.3214
0
LINE
8
BLACK
10
52.8571
20
-23.3214
11
52.8571
21
-23.1786
0
LINE
8
BLACK
10
52.8571
20
-23.1786
11
52.7857
21
-22.9643
0
LINE
8
BLACK
10
52.7857
20
-22.9643
11
52.6429
21
-22.8214
0
LINE
8
BLACK
10
52.6429
20
-22.8214
11
52.5
21
-22.75
0
LINE
8
BLACK
10
52.5
20
-22.75
11
52.2143
21
-22.6786
0
LINE
8
BLACK
10
52.2143
20
-22.6786
11
52
21
-22.6786
0
LINE
8
BLACK
10
52
20
-22.6786
11
51.7143
21
-22.75
0
LINE
8
BLACK
10
51.7143
20
-22.75
11
51.5714
21
-22.8214
0
LINE
8
BLACK
10
51.5714
20
-22.8214
11
51.4286
21
-22.9643
0
LINE
8
BLACK
10
51.4286
20
-22.9643
11
51.3571
21
-23.1786
0
LINE
8
BLACK
10
51.3571
20
-23.1786
11
51.3571
21
-23.3214
0
LINE
8
BLACK
10
51.3571
20
-23.3214
11
51.4286
21
-23.5357
0
LINE
8
BLACK
10
51.4286
20
-23.5357
11
51.5
21
-23.6071
0
LINE
8
BLACK
10
51.3571
20
-24.0357
11
51.3571
21
-24.8929
0
LINE
8
BLACK
10
52.8571
20
-24.4643
11
51.3571
21
-24.4643
0
LINE
8
BLACK
10
52.4286
20
-25.3214
11
52.4286
21
-26.0357
0
LINE
8
BLACK
10
52.8571
20
-25.1786
11
51.3571
21
-25.6786
0
LINE
8
BLACK
10
51.3571
20
-25.6786
11
52.8571
21
-26.1786
0
LINE
8
BLACK
10
51.3571
20
-26.4643
11
52.8571
21
-26.9643
0
LINE
8
BLACK
10
52.8571
20
-26.9643
11
51.3571
21
-27.4643
0
LINE
8
BLACK
10
52.0714
20
-27.9643
11
52.0714
21
-28.4643
0
LINE
8
BLACK
10
52.8571
20
-28.6786
11
52.8571
21
-27.9643
0
LINE
8
BLACK
10
52.8571
20
-27.9643
11
51.3571
21
-27.9643
0
LINE
8
BLACK
10
51.3571
20
-27.9643
11
51.3571
21
-28.6786
0
LINE
8
BLACK
10
52.7857
20
-30.3929
11
52.8571
21
-30.6071
0
LINE
8
BLACK
10
52.8571
20
-30.6071
11
52.8571
21
-30.9643
0
LINE
8
BLACK
10
52.8571
20
-30.9643
11
52.7857
21
-31.1071
0
LINE
8
BLACK
10
52.7857
20
-31.1071
11
52.7143
21
-31.1786
0
LINE
8
BLACK
10
52.7143
20
-31.1786
11
52.5714
21
-31.25
0
LINE
8
BLACK
10
52.5714
20
-31.25
11
52.4286
21
-31.25
0
LINE
8
BLACK
10
52.4286
20
-31.25
11
52.2857
21
-31.1786
0
LINE
8
BLACK
10
52.2857
20
-31.1786
11
52.2143
21
-31.1071
0
LINE
8
BLACK
10
52.2143
20
-31.1071
11
52.1429
21
-30.9643
0
LINE
8
BLACK
10
52.1429
20
-30.9643
11
52.0714
21
-30.6786
0
LINE
8
BLACK
10
52.0714
20
-30.6786
11
52
21
-30.5357
0
LINE
8
BLACK
10
52
20
-30.5357
11
51.9286
21
-30.4643
0
LINE
8
BLACK
10
51.9286
20
-30.4643
11
51.7857
21
-30.3929
0
LINE
8
BLACK
10
51.7857
20
-30.3929
11
51.6429
21
-30.3929
0
LINE
8
BLACK
10
51.6429
20
-30.3929
11
51.5
21
-30.4643
0
LINE
8
BLACK
10
51.5
20
-30.4643
11
51.4286
21
-30.5357
0
LINE
8
BLACK
10
51.4286
20
-30.5357
11
51.3571
21
-30.6786
0
LINE
8
BLACK
10
51.3571
20
-30.6786
11
51.3571
21
-31.0357
0
LINE
8
BLACK
10
51.3571
20
-31.0357
11
51.4286
21
-31.25
0
LINE
8
BLACK
10
51.3571
20
-31.75
11
52.8571
21
-32.1071
0
LINE
8
BLACK
10
52.8571
20
-32.1071
11
51.7857
21
-32.3929
0
LINE
8
BLACK
10
51.7857
20
-32.3929
11
52.8571
21
-32.6786
0
LINE
8
BLACK
10
52.8571
20
-32.6786
11
51.3571
21
-33.0357
0
LINE
8
BLACK
10
52.8571
20
-33.6071
11
51.3571
21
-33.6071
0
LINE
8
BLACK
10
51.3571
20
-34.1071
11
51.3571
21
-34.9643
0
LINE
8
BLACK
10
52.8571
20
-34.5357
11
51.3571
21
-34.5357
0
LINE
8
BLACK
10
52.7143
20
-36.3214
11
52.7857
21
-36.25
0
LINE
8
BLACK
10
52.7857
20
-36.25
11
52.8571
21
-36.0357
0
LINE
8
BLACK
10
52.8571
20
-36.0357
11
52.8571
21
-35.8929
0
LINE
8
BLACK
10
52.8571
20
-35.8929
11
52.7857
21
-35.6786
0
LINE
8
BLACK
10
52.7857
20
-35.6786
11
52.6429
21
-35.5357
0
LINE
8
BLACK
10
52.6429
20
-35.5357
11
52.5
21
-35.4643
0
LINE
8
BLACK
10
52.5
20
-35.4643
11
52.2143
21
-35.3929
0
LINE
8
BLACK
10
52.2143
20
-35.3929
11
52
21
-35.3929
0
LINE
8
BLACK
10
52
20
-35.3929
11
51.7143
21
-35.4643
0
LINE
8
BLACK
10
51.7143
20
-35.4643
11
51.5714
21
-35.5357
0
LINE
8
BLACK
10
51.5714
20
-35.5357
11
51.4286
21
-35.6786
0
LINE
8
BLACK
10
51.4286
20
-35.6786
11
51.3571
21
-35.8929
0
LINE
8
BLACK
10
51.3571
20
-35.8929
11
51.3571
21
-36.0357
0
LINE
8
BLACK
10
51.3571
20
-36.0357
11
51.4286
21
-36.25
0
LINE
8
BLACK
10
51.4286
20
-36.25
11
51.5
21
-36.3214
0
LINE
8
BLACK
10
52.8571
20
-36.9643
11
51.3571
21
-36.9643
0
LINE
8
BLACK
10
52.0714
20
-36.9643
11
52.0714
21
-37.8214
0
LINE
8
BLACK
10
52.8571
20
-37.8214
11
51.3571
21
-37.8214
0
LINE
8
BLACK
10
37.475
20
-48.6
11
37.475
21
-45.6
0
LINE
8
BLACK
10
37.325
20
-48.6
11
37.325
21
-45.6
0
ARC
8
BLACK
10
37.4
20
-45.6
40
0.075
50
360
51
540
0
ARC
8
BLACK
10
37.4
20
-48.6
40
0.075
50
180
51
360
0
LINE
8
BLACK
10
37.4
20
-48.675
11
41.4
21
-48.675
0
LINE
8
BLACK
10
37.4
20
-48.525
11
41.4
21
-48.525
0
ARC
8
BLACK
10
41.4
20
-48.6
40
0.075
50
270
51
450
0
ARC
8
BLACK
10
37.4
20
-48.6
40
0.075
50
90
51
270
0
LINE
8
BLACK
10
32.475
20
-48.6
11
32.475
21
-45.6
0
LINE
8
BLACK
10
32.325
20
-48.6
11
32.325
21
-45.6
0
ARC
8
BLACK
10
32.4
20
-45.6
40
0.075
50
360
51
540
0
ARC
8
BLACK
10
32.4
20
-48.6
40
0.075
50
180
51
360
0
LINE
8
BLACK
10
32.4
20
-48.675
11
36.4
21
-48.675
0
LINE
8
BLACK
10
32.4
20
-48.525
11
36.4
21
-48.525
0
ARC
8
BLACK
10
36.4
20
-48.6
40
0.075
50
270
51
450
0
ARC
8
BLACK
10
32.4
20
-48.6
40
0.075
50
90
51
270
0
LINE
8
BLACK
10
36.475
20
-48.6
11
36.475
21
-45.6
0
LINE
8
BLACK
10
36.325
20
-48.6
11
36.325
21
-45.6
0
ARC
8
BLACK
10
36.4
20
-45.6
40
0.075
50
360
51
540
0
ARC
8
BLACK
10
36.4
20
-48.6
40
0.075
50
180
51
360
0
LINE
8
BLACK
10
27.4
20
-48.675
11
31.4
21
-48.675
0
LINE
8
BLACK
10
27.4
20
-48.525
11
31.4
21
-48.525
0
ARC
8
BLACK
10
31.4
20
-48.6
40
0.075
50
270
51
450
0
ARC
8
BLACK
10
27.4
20
-48.6
40
0.075
50
90
51
270
0
LINE
8
BLACK
10
31.475
20
-48.6
11
31.475
21
-45.6
0
LINE
8
BLACK
10
31.325
20
-48.6
11
31.325
21
-45.6
0
ARC
8
BLACK
10
31.4
20
-45.6
40
0.075
50
360
51
540
0
ARC
8
BLACK
10
31.4
20
-48.6
40
0.075
50
180
51
360
0
LINE
8
BLACK
10
27.4
20
-45.675
11
41.4
21
-45.675
0
LINE
8
BLACK
10
27.4
20
-45.525
11
41.4
21
-45.525
0
ARC
8
BLACK
10
41.4
20
-45.6
40
0.075
50
270
51
450
0
ARC
8
BLACK
10
27.4
20
-45.6
40
0.075
50
90
51
270
0
LINE
8
BLACK
10
27.475
20
-48.6
11
27.475
21
-37.6
0
LINE
8
BLACK
10
27.325
20
-48.6
11
27.325
21
-37.6
0
ARC
8
BLACK
10
27.4
20
-37.6
40
0.075
50
360
51
540
0
ARC
8
BLACK
10
27.4
20
-48.6
40
0.075
50
180
51
360
0
LINE
8
BLACK
10
41.475
20
-48.6
11
41.475
21
-37.6
0
LINE
8
BLACK
10
41.325
20
-48.6
11
41.325
21
-37.6
0
ARC
8
BLACK
10
41.4
20
-37.6
40
0.075
50
360
51
540
0
ARC
8
BLACK
10
41.4
20
-48.6
40
0.075
50
180
51
360
0
CIRCLE
8
BLACK
10
34.4
20
-32.6
40
3
0
CIRCLE
8
BLACK
10
34.4
20
-32.6
40
8.5
0
LINE
8
BLACK
10
49.2728
20
-48.3015
11
50.2888
21
-48.3015
0
LINE
8
BLACK
10
49.2728
20
-48.1745
11
50.2888
21
-48.1745
0
ARC
8
BLACK
10
50.2888
20
-48.238
40
0.0635
50
270
51
450
0
ARC
8
BLACK
10
49.2728
20
-48.238
40
0.0635
50
90
51
270
0
LINE
8
BLACK
10
49.3363
20
-49.762
11
49.3363
21
-48.238
0
LINE
8
BLACK
10
49.2093
20
-49.762
11
49.2093
21
-48.238
0
ARC
8
BLACK
10
49.2728
20
-48.238
40
0.0635
50
360
51
540
0
ARC
8
BLACK
10
49.2728
20
-49.762
40
0.0635
50
180
51
360
0
LINE
8
BLACK
10
49.2728
20
-49.8255
11
50.2888
21
-49.8255
0
LINE
8
BLACK
10
49.2728
20
-49.6985
11
50.2888
21
-49.6985
0
ARC
8
BLACK
10
50.2888
20
-49.762
40
0.0635
50
270
51
450
0
ARC
8
BLACK
10
49.2728
20
-49.762
40
0.0635
50
90
51
270
0
LINE
8
BLACK
10
51.7112
20
-49.8255
11
52.7272
21
-49.8255
0
LINE
8
BLACK
10
51.7112
20
-49.6985
11
52.7272
21
-49.6985
0
ARC
8
BLACK
10
52.7272
20
-49.762
40
0.0635
50
270
51
450
0
ARC
8
BLACK
10
51.7112
20
-49.762
40
0.0635
50
90
51
270
0
LINE
8
BLACK
10
52.7907
20
-49.762
11
52.7907
21
-48.238
0
LINE
8
BLACK
10
52.6637
20
-49.762
11
52.6637
21
-48.238
0
ARC
8
BLACK
10
52.7272
20
-48.238
40
0.0635
50
360
51
540
0
ARC
8
BLACK
10
52.7272
20
-49.762
40
0.0635
50
180
51
360
0
LINE
8
BLACK
10
51.7112
20
-48.3015
11
52.7272
21
-48.3015
0
LINE
8
BLACK
10
51.7112
20
-48.1745
11
52.7272
21
-48.1745
0
ARC
8
BLACK
10
52.7272
20
-48.238
40
0.0635
50
270
51
450
0
ARC
8
BLACK
10
51.7112
20
-48.238
40
0.0635
50
90
51
270
0
LINE
8
BLACK
10
83.325
20
-37.62
11
83.325
21
-27.62
0
LINE
8
BLACK
10
83.175
20
-37.62
11
83.175
21
-27.62
0
ARC
8
BLACK
10
83.25
20
-27.62
40
0.075
50
360
51
540
0
ARC
8
BLACK
10
83.25
20
-37.62
40
0.075
50
180
51
360
0
LINE
8
BLACK
10
81.25
20
-27.695
11
83.25
21
-27.695
0
LINE
8
BLACK
10
81.25
20
-27.545
11
83.25
21
-27.545
0
ARC
8
BLACK
10
83.25
20
-27.62
40
0.075
50
270
51
450
0
ARC
8
BLACK
10
81.25
20
-27.62
40
0.075
50
90
51
270
0
LINE
8
BLACK
10
81.25
20
-37.695
11
83.25
21
-37.695
0
LINE
8
BLACK
10
81.25
20
-37.545
11
83.25
21
-37.545
0
ARC
8
BLACK
10
83.25
20
-37.62
40
0.075
50
270
51
450
0
ARC
8
BLACK
10
81.25
20
-37.62
40
0.075
50
90
51
270
0
ARC
8
BLACK
10
78.75
20
-32.62
40
6.36396
50
45
51
-45
0
ARC
8
BLACK
10
70.75
20
-33.12
40
12.3491
50
-21.4
51
-111.4
0
ARC
8
BLACK
10
70.75
20
-32.18
40
12.3491
50
21.4
51
111.4
0
ARC
8
BLACK
10
68.81
20
-32.08
40
12.3491
50
158.6
51
68.6
0
ARC
8
BLACK
10
68.8
20
-33.1
40
12.3491
50
-158.6
51
-68.6
0
ARC
8
BLACK
10
60.8
20
-32.6
40
6.36396
50
135
51
225
0
LINE
8
BLACK
10
56.3
20
-37.675
11
58.3
21
-37.675
0
LINE
8
BLACK
10
56.3
20
-37.525
11
58.3
21
-37.525
0
ARC
8
BLACK
10
58.3
20
-37.6
40
0.075
50
270
51
450
0
ARC
8
BLACK
10
56.3
20
-37.6
40
0.075
50
90
51
270
0
LINE
8
BLACK
10
56.3
20
-27.675
11
58.3
21
-27.675
0
LINE
8
BLACK
10
56.3
20
-27.525
11
58.3
21
-27.525
0
ARC
8
BLACK
10
58.3
20
-27.6
40
0.075
50
270
51
450
0
ARC
8
BLACK
10
56.3
20
-27.6
40
0.075
50
90
51
270
0
LINE
8
BLACK
10
56.375
20
-37.6
11
56.375
21
-27.6
0
LINE
8
BLACK
10
56.225
20
-37.6
11
56.225
21
-27.6
0
ARC
8
BLACK
10
56.3
20
-27.6
40
0.075
50
360
51
540
0
ARC
8
BLACK
10
56.3
20
-37.6
40
0.075
50
180
51
360
0
CIRCLE
8
BLACK
10
69.8
20
-32.6
40
12.5
0
CIRCLE
8
BLACK
10
69.8
20
-32.6
40
10
0
LINE
8
BLACK
10
58.5228
20
-48.3015
11
59.5388
21
-48.3015
0
LINE
8
BLACK
10
58.5228
20
-48.1745
11
59.5388
21
-48.1745
0
ARC
8
BLACK
10
59.5388
20
-48.238
40
0.0635
50
270
51
450
0
ARC
8
BLACK
10
58.5228
20
-48.238
40
0.0635
50
90
51
270
0
LINE
8
BLACK
10
58.5863
20
-49.762
11
58.5863
21
-48.238
0
LINE
8
BLACK
10
58.4593
20
-49.762
11
58.4593
21
-48.238
0
ARC
8
BLACK
10
58.5228
20
-48.238
40
0.0635
50
360
51
540
0
ARC
8
BLACK
10
58.5228
20
-49.762
40
0.0635
50
180
51
360
0
LINE
8
BLACK
10
58.5228
20
-49.8255
11
59.5388
21
-49.8255
0
LINE
8
BLACK
10
58.5228
20
-49.6985
11
59.5388
21
-49.6985
0
ARC
8
BLACK
10
59.5388
20
-49.762
40
0.0635
50
270
51
450
0
ARC
8
BLACK
10
58.5228
20
-49.762
40
0.0635
50
90
51
270
0
LINE
8
BLACK
10
60.9612
20
-49.8255
11
61.9772
21
-49.8255
0
LINE
8
BLACK
10
60.9612
20
-49.6985
11
61.9772
21
-49.6985
0
ARC
8
BLACK
10
61.9772
20
-49.762
40
0.0635
50
270
51
450
0
ARC
8
BLACK
10
60.9612
20
-49.762
40
0.0635
50
90
51
270
0
LINE
8
BLACK
10
62.0407
20
-49.762
11
62.0407
21
-48.238
0
LINE
8
BLACK
10
61.9137
20
-49.762
11
61.9137
21
-48.238
0
ARC
8
BLACK
10
61.9772
20
-48.238
40
0.0635
50
360
51
540
0
ARC
8
BLACK
10
61.9772
20
-49.762
40
0.0635
50
180
51
360
0
LINE
8
BLACK
10
60.9612
20
-48.3015
11
61.9772
21
-48.3015
0
LINE
8
BLACK
10
60.9612
20
-48.1745
11
61.9772
21
-48.1745
0
ARC
8
BLACK
10
61.9772
20
-48.238
40
0.0635
50
270
51
450
0
ARC
8
BLACK
10
60.9612
20
-48.238
40
0.0635
50
90
51
270
0
LINE
8
BLACK
10
48.7516
20
-48.8645
11
48.7903
21
-48.8258
0
LINE
8
BLACK
10
48.7903
20
-48.8258
11
48.829
21
-48.7097
0
LINE
8
BLACK
10
48.829
20
-48.7097
11
48.829
21
-48.6323
0
LINE
8
BLACK
10
48.829
20
-48.6323
11
48.7903
21
-48.5162
0
LINE
8
BLACK
10
48.7903
20
-48.5162
11
48.7129
21
-48.4388
0
LINE
8
BLACK
10
48.7129
20
-48.4388
11
48.6355
21
-48.4001
0
LINE
8
BLACK
10
48.6355
20
-48.4001
11
48.4806
21
-48.3614
0
LINE
8
BLACK
10
48.4806
20
-48.3614
11
48.3645
21
-48.3614
0
LINE
8
BLACK
10
48.3645
20
-48.3614
11
48.2097
21
-48.4001
0
LINE
8
BLACK
10
48.2097
20
-48.4001
11
48.1323
21
-48.4388
0
LINE
8
BLACK
10
48.1323
20
-48.4388
11
48.0549
21
-48.5162
0
LINE
8
BLACK
10
48.0549
20
-48.5162
11
48.0162
21
-48.6323
0
LINE
8
BLACK
10
48.0162
20
-48.6323
11
48.0162
21
-48.7097
0
LINE
8
BLACK
10
48.0162
20
-48.7097
11
48.0549
21
-48.8258
0
LINE
8
BLACK
10
48.0549
20
-48.8258
11
48.0936
21
-48.8645
0
LINE
8
BLACK
10
48.0162
20
-49.1355
11
48.0162
21
-49.6386
0
LINE
8
BLACK
10
48.0162
20
-49.6386
11
48.3258
21
-49.3677
0
LINE
8
BLACK
10
48.3258
20
-49.3677
11
48.3258
21
-49.4838
0
LINE
8
BLACK
10
48.3258
20
-49.4838
11
48.3645
21
-49.5612
0
LINE
8
BLACK
10
48.3645
20
-49.5612
11
48.4032
21
-49.5999
0
LINE
8
BLACK
10
48.4032
20
-49.5999
11
48.4806
21
-49.6386
0
LINE
8
BLACK
10
48.4806
20
-49.6386
11
48.6742
21
-49.6386
0
LINE
8
BLACK
10
48.6742
20
-49.6386
11
48.7516
21
-49.5999
0
LINE
8
BLACK
10
48.7516
20
-49.5999
11
48.7903
21
-49.5612
0
LINE
8
BLACK
10
48.7903
20
-49.5612
11
48.829
21
-49.4838
0
LINE
8
BLACK
10
48.829
20
-49.4838
11
48.829
21
-49.2516
0
LINE
8
BLACK
10
48.829
20
-49.2516
11
48.7903
21
-49.1742
0
LINE
8
BLACK
10
48.7903
20
-49.1742
11
48.7516
21
-49.1355
0
LINE
8
BLACK
10
65.9071
20
-25.3143
11
65.9071
21
-24.4571
0
LINE
8
BLACK
10
65.9071
20
-24.8857
11
64.4071
21
-24.8857
0
LINE
8
BLACK
10
64.4071
20
-24.8857
11
64.6214
21
-24.7429
0
LINE
8
BLACK
10
64.6214
20
-24.7429
11
64.7643
21
-24.6
0
LINE
8
BLACK
10
64.7643
20
-24.6
11
64.8357
21
-24.4571
0
LINE
8
BLACK
10
64.55
20
-25.8857
11
64.4786
21
-25.9571
0
LINE
8
BLACK
10
64.4786
20
-25.9571
11
64.4071
21
-26.1
0
LINE
8
BLACK
10
64.4071
20
-26.1
11
64.4071
21
-26.4571
0
LINE
8
BLACK
10
64.4071
20
-26.4571
11
64.4786
21
-26.6
0
LINE
8
BLACK
10
64.4786
20
-26.6
11
64.55
21
-26.6714
0
LINE
8
BLACK
10
64.55
20
-26.6714
11
64.6929
21
-26.7429
0
LINE
8
BLACK
10
64.6929
20
-26.7429
11
64.8357
21
-26.7429
0
LINE
8
BLACK
10
64.8357
20
-26.7429
11
65.05
21
-26.6714
0
LINE
8
BLACK
10
65.05
20
-26.6714
11
65.9071
21
-25.8143
0
LINE
8
BLACK
10
65.9071
20
-25.8143
11
65.9071
21
-26.7429
0
LINE
8
BLACK
10
62.9071
20
-29.5286
11
62.9071
21
-28.6714
0
LINE
8
BLACK
10
62.9071
20
-29.1
11
61.4071
21
-29.1
0
LINE
8
BLACK
10
61.4071
20
-29.1
11
61.6214
21
-28.9571
0
LINE
8
BLACK
10
61.6214
20
-28.9571
11
61.7643
21
-28.8143
0
LINE
8
BLACK
10
61.7643
20
-28.8143
11
61.8357
21
-28.6714
0
LINE
8
BLACK
10
76.9071
20
-34.2071
11
75.4071
21
-34.2071
0
LINE
8
BLACK
10
75.4071
20
-34.2071
11
75.4071
21
-34.5643
0
LINE
8
BLACK
10
75.4071
20
-34.5643
11
75.4786
21
-34.7786
0
LINE
8
BLACK
10
75.4786
20
-34.7786
11
75.6214
21
-34.9214
0
LINE
8
BLACK
10
75.6214
20
-34.9214
11
75.7643
21
-34.9929
0
LINE
8
BLACK
10
75.7643
20
-34.9929
11
76.05
21
-35.0643
0
LINE
8
BLACK
10
76.05
20
-35.0643
11
76.2643
21
-35.0643
0
LINE
8
BLACK
10
76.2643
20
-35.0643
11
76.55
21
-34.9929
0
LINE
8
BLACK
10
76.55
20
-34.9929
11
76.6929
21
-34.9214
0
LINE
8
BLACK
10
76.6929
20
-34.9214
11
76.8357
21
-34.7786
0
LINE
8
BLACK
10
76.8357
20
-34.7786
11
76.9071
21
-34.5643
0
LINE
8
BLACK
10
76.9071
20
-34.5643
11
76.9071
21
-34.2071
0
LINE
8
BLACK
10
63.4786
20
-34.2429
11
63.4786
21
-34.9571
0
LINE
8
BLACK
10
63.9071
20
-34.1
11
62.4071
21
-34.6
0
LINE
8
BLACK
10
62.4071
20
-34.6
11
63.9071
21
-35.1
0
LINE
8
BLACK
10
57.7516
20
-48.8645
11
57.7903
21
-48.8258
0
LINE
8
BLACK
10
57.7903
20
-48.8258
11
57.829
21
-48.7097
0
LINE
8
BLACK
10
57.829
20
-48.7097
11
57.829
21
-48.6323
0
LINE
8
BLACK
10
57.829
20
-48.6323
11
57.7903
21
-48.5162
0
LINE
8
BLACK
10
57.7903
20
-48.5162
11
57.7129
21
-48.4388
0
LINE
8
BLACK
10
57.7129
20
-48.4388
11
57.6355
21
-48.4001
0
LINE
8
BLACK
10
57.6355
20
-48.4001
11
57.4806
21
-48.3614
0
LINE
8
BLACK
10
57.4806
20
-48.3614
11
57.3645
21
-48.3614
0
LINE
8
BLACK
10
57.3645
20
-48.3614
11
57.2097
21
-48.4001
0
LINE
8
BLACK
10
57.2097
20
-48.4001
11
57.1323
21
-48.4388
0
LINE
8
BLACK
10
57.1323
20
-48.4388
11
57.0549
21
-48.5162
0
LINE
8
BLACK
10
57.0549
20
-48.5162
11
57.0162
21
-48.6323
0
LINE
8
BLACK
10
57.0162
20
-48.6323
11
57.0162
21
-48.7097
0
LINE
8
BLACK
10
57.0162
20
-48.7097
11
57.0549
21
-48.8258
0
LINE
8
BLACK
10
57.0549
20
-48.8258
11
57.0936
21
-48.8645
0
LINE
8
BLACK
10
57.3645
20
-49.329
11
57.3258
21
-49.2516
0
LINE
8
BLACK
10
57.3258
20
-49.2516
11
57.2871
21
-49.2129
0
LINE
8
BLACK
10
57.2871
20
-49.2129
11
57.2097
21
-49.1742
0
LINE
8
BLACK
10
57.2097
20
-49.1742
11
57.171
21
-49.1742
0
LINE
8
BLACK
10
57.171
20
-49.1742
11
57.0936
21
-49.2129
0
LINE
8
BLACK
10
57.0936
20
-49.2129
11
57.0549
21
-49.2516
0
LINE
8
BLACK
10
57.0549
20
-49.2516
11
57.0162
21
-49.329
0
LINE
8
BLACK
10
57.0162
20
-49.329
11
57.0162
21
-49.4838
0
LINE
8
BLACK
10
57.0162
20
-49.4838
11
57.0549
21
-49.5612
0
LINE
8
BLACK
10
57.0549
20
-49.5612
11
57.0936
21
-49.5999
0
LINE
8
BLACK
10
57.0936
20
-49.5999
11
57.171
21
-49.6386
0
LINE
8
BLACK
10
57.171
20
-49.6386
11
57.2097
21
-49.6386
0
LINE
8
BLACK
10
57.2097
20
-49.6386
11
57.2871
21
-49.5999
0
LINE
8
BLACK
10
57.2871
20
-49.5999
11
57.3258
21
-49.5612
0
LINE
8
BLACK
10
57.3258
20
-49.5612
11
57.3645
21
-49.4838
0
LINE
8
BLACK
10
57.3645
20
-49.4838
11
57.3645
21
-49.329
0
LINE
8
BLACK
10
57.3645
20
-49.329
11
57.4032
21
-49.2516
0
LINE
8
BLACK
10
57.4032
20
-49.2516
11
57.4419
21
-49.2129
0
LINE
8
BLACK
10
57.4419
20
-49.2129
11
57.5194
21
-49.1742
0
LINE
8
BLACK
10
57.5194
20
-49.1742
11
57.6742
21
-49.1742
0
LINE
8
BLACK
10
57.6742
20
-49.1742
11
57.7516
21
-49.2129
0
LINE
8
BLACK
10
57.7516
20
-49.2129
11
57.7903
21
-49.2516
0
LINE
8
BLACK
10
57.7903
20
-49.2516
11
57.829
21
-49.329
0
LINE
8
BLACK
10
57.829
20
-49.329
11
57.829
21
-49.4838
0
LINE
8
BLACK
10
57.829
20
-49.4838
11
57.7903
21
-49.5612
0
LINE
8
BLACK
10
57.7903
20
-49.5612
11
57.7516
21
-49.5999
0
LINE
8
BLACK
10
57.7516
20
-49.5999
11
57.6742
21
-49.6386
0
LINE
8
BLACK
10
57.6742
20
-49.6386
11
57.5194
21
-49.6386
0
LINE
8
BLACK
10
57.5194
20
-49.6386
11
57.4419
21
-49.5999
0
LINE
8
BLACK
10
57.4419
20
-49.5999
11
57.4032
21
-49.5612
0
LINE
8
BLACK
10
57.4032
20
-49.5612
11
57.3645
21
-49.4838
  0
ENDSEC
  0
EOF
