  0
SECTION
  2
HEADER
  9
$ANGBASE
  50
0.0
  9
$ANGDIR
  70
  1
  9
$MEASUREMENT
  70
0
  0
ENDSEC
  0
SECTION
  2
TABLES
  0
TABLE
  2
LTYPE
  70
1
  0
LTYPE
  2
CONTINUOUS
  70
0
  3
Solid line
  72
65
  73
0
  40
0.0
  0
ENDTAB
  0
TABLE
  2
STYLE
  70
4
  0
STYLE
  2
KICAD
  70
0
  40
0
  41
1
  42
1
  50
0
  71
0
  3
isocp.shx
  0
STYLE
  2
KICADB
  70
0
  40
0
  41
1
  42
1
  50
0
  71
0
  3
isocp.shx
  0
STYLE
  2
KICADI
  70
0
  40
0
  41
1
  42
1
  50
15
  71
0
  3
isocp.shx
  0
STYLE
  2
KICADBI
  70
0
  40
0
  41
1
  42
1
  50
15
  71
0
  3
isocp.shx
  0
ENDTAB
  0
TABLE
  2
LAYER
  70
24
  0
LAYER
  2
BLACK
  70
0
  62
250
  6
CONTINUOUS
  0
LAYER
  2
BLUE
  70
0
  62
5
  6
CONTINUOUS
  0
LAYER
  2
GREEN
  70
0
  62
3
  6
CONTINUOUS
  0
LAYER
  2
CYAN
  70
0
  62
4
  6
CONTINUOUS
  0
LAYER
  2
RED
  70
0
  62
1
  6
CONTINUOUS
  0
LAYER
  2
MAGENTA
  70
0
  62
6
  6
CONTINUOUS
  0
LAYER
  2
BROWN
  70
0
  62
54
  6
CONTINUOUS
  0
LAYER
  2
LIGHTGRAY
  70
0
  62
9
  6
CONTINUOUS
  0
LAYER
  2
DARKGRAY
  70
0
  62
8
  6
CONTINUOUS
  0
LAYER
  2
LIGHTBLUE
  70
0
  62
171
  6
CONTINUOUS
  0
LAYER
  2
LIGHTGREEN
  70
0
  62
91
  6
CONTINUOUS
  0
LAYER
  2
LIGHTCYAN
  70
0
  62
131
  6
CONTINUOUS
  0
LAYER
  2
LIGHTRED
  70
0
  62
11
  6
CONTINUOUS
  0
LAYER
  2
LIGHTMAGENTA
  70
0
  62
221
  6
CONTINUOUS
  0
LAYER
  2
YELLOW
  70
0
  62
2
  6
CONTINUOUS
  0
LAYER
  2
WHITE
  70
0
  62
7
  6
CONTINUOUS
  0
LAYER
  2
DARKDARKGRAY
  70
0
  62
251
  6
CONTINUOUS
  0
LAYER
  2
DARKBLUE
  70
0
  62
178
  6
CONTINUOUS
  0
LAYER
  2
DARKGREEN
  70
0
  62
98
  6
CONTINUOUS
  0
LAYER
  2
DARKCYAN
  70
0
  62
138
  6
CONTINUOUS
  0
LAYER
  2
DARKRED
  70
0
  62
18
  6
CONTINUOUS
  0
LAYER
  2
DARKMAGENTA
  70
0
  62
228
  6
CONTINUOUS
  0
LAYER
  2
DARKBROWN
  70
0
  62
58
  6
CONTINUOUS
  0
LAYER
  2
LIGHTYELLOW
  70
0
  62
51
  6
CONTINUOUS
  0
ENDTAB
  0
ENDSEC
  0
SECTION
  2
ENTITIES
0
LINE
8
BLACK
10
78.8049
20
-45.6193
11
78.7662
21
-45.6967
0
LINE
8
BLACK
10
78.7662
20
-45.6967
11
78.7662
21
-45.8128
0
LINE
8
BLACK
10
78.7662
20
-45.8128
11
78.8049
21
-45.9289
0
LINE
8
BLACK
10
78.8049
20
-45.9289
11
78.8823
21
-46.0063
0
LINE
8
BLACK
10
78.8823
20
-46.0063
11
78.9597
21
-46.045
0
LINE
8
BLACK
10
78.9597
20
-46.045
11
79.1145
21
-46.0837
0
LINE
8
BLACK
10
79.1145
20
-46.0837
11
79.2306
21
-46.0837
0
LINE
8
BLACK
10
79.2306
20
-46.0837
11
79.3855
21
-46.045
0
LINE
8
BLACK
10
79.3855
20
-46.045
11
79.4629
21
-46.0063
0
LINE
8
BLACK
10
79.4629
20
-46.0063
11
79.5403
21
-45.9289
0
LINE
8
BLACK
10
79.5403
20
-45.9289
11
79.579
21
-45.8128
0
LINE
8
BLACK
10
79.579
20
-45.8128
11
79.579
21
-45.7354
0
LINE
8
BLACK
10
79.579
20
-45.7354
11
79.5403
21
-45.6193
0
LINE
8
BLACK
10
79.5403
20
-45.6193
11
79.5016
21
-45.5806
0
LINE
8
BLACK
10
79.5016
20
-45.5806
11
79.2306
21
-45.5806
0
LINE
8
BLACK
10
79.2306
20
-45.5806
11
79.2306
21
-45.7354
0
LINE
8
BLACK
10
79.579
20
-45.2322
11
78.7662
21
-45.2322
0
LINE
8
BLACK
10
78.7662
20
-45.2322
11
79.579
21
-44.7678
0
LINE
8
BLACK
10
79.579
20
-44.7678
11
78.7662
21
-44.7678
0
LINE
8
BLACK
10
79.579
20
-44.3807
11
78.7662
21
-44.3807
0
LINE
8
BLACK
10
78.7662
20
-44.3807
11
78.7662
21
-44.1872
0
LINE
8
BLACK
10
78.7662
20
-44.1872
11
78.8049
21
-44.0711
0
LINE
8
BLACK
10
78.8049
20
-44.0711
11
78.8823
21
-43.9937
0
LINE
8
BLACK
10
78.8823
20
-43.9937
11
78.9597
21
-43.955
0
LINE
8
BLACK
10
78.9597
20
-43.955
11
79.1145
21
-43.9163
0
LINE
8
BLACK
10
79.1145
20
-43.9163
11
79.2306
21
-43.9163
0
LINE
8
BLACK
10
79.2306
20
-43.9163
11
79.3855
21
-43.955
0
LINE
8
BLACK
10
79.3855
20
-43.955
11
79.4629
21
-43.9937
0
LINE
8
BLACK
10
79.4629
20
-43.9937
11
79.5403
21
-44.0711
0
LINE
8
BLACK
10
79.5403
20
-44.0711
11
79.579
21
-44.1872
0
LINE
8
BLACK
10
79.579
20
-44.1872
11
79.579
21
-44.3807
0
LINE
8
BLACK
10
77.0194
20
-46.1497
11
77.0194
21
-45.5304
0
LINE
8
BLACK
10
76.5162
20
-44.9886
11
76.5162
21
-44.9111
0
LINE
8
BLACK
10
76.5162
20
-44.9111
11
76.5549
21
-44.8337
0
LINE
8
BLACK
10
76.5549
20
-44.8337
11
76.5936
21
-44.795
0
LINE
8
BLACK
10
76.5936
20
-44.795
11
76.671
21
-44.7563
0
LINE
8
BLACK
10
76.671
20
-44.7563
11
76.8258
21
-44.7176
0
LINE
8
BLACK
10
76.8258
20
-44.7176
11
77.0194
21
-44.7176
0
LINE
8
BLACK
10
77.0194
20
-44.7176
11
77.1742
21
-44.7563
0
LINE
8
BLACK
10
77.1742
20
-44.7563
11
77.2516
21
-44.795
0
LINE
8
BLACK
10
77.2516
20
-44.795
11
77.2903
21
-44.8337
0
LINE
8
BLACK
10
77.2903
20
-44.8337
11
77.329
21
-44.9111
0
LINE
8
BLACK
10
77.329
20
-44.9111
11
77.329
21
-44.9886
0
LINE
8
BLACK
10
77.329
20
-44.9886
11
77.2903
21
-45.066
0
LINE
8
BLACK
10
77.2903
20
-45.066
11
77.2516
21
-45.1047
0
LINE
8
BLACK
10
77.2516
20
-45.1047
11
77.1742
21
-45.1434
0
LINE
8
BLACK
10
77.1742
20
-45.1434
11
77.0194
21
-45.1821
0
LINE
8
BLACK
10
77.0194
20
-45.1821
11
76.8258
21
-45.1821
0
LINE
8
BLACK
10
76.8258
20
-45.1821
11
76.671
21
-45.1434
0
LINE
8
BLACK
10
76.671
20
-45.1434
11
76.5936
21
-45.1047
0
LINE
8
BLACK
10
76.5936
20
-45.1047
11
76.5549
21
-45.066
0
LINE
8
BLACK
10
76.5549
20
-45.066
11
76.5162
21
-44.9886
0
LINE
8
BLACK
10
77.2516
20
-44.3693
11
77.2903
21
-44.3306
0
LINE
8
BLACK
10
77.2903
20
-44.3306
11
77.329
21
-44.3693
0
LINE
8
BLACK
10
77.329
20
-44.3693
11
77.2903
21
-44.408
0
LINE
8
BLACK
10
77.2903
20
-44.408
11
77.2516
21
-44.3693
0
LINE
8
BLACK
10
77.2516
20
-44.3693
11
77.329
21
-44.3693
0
LINE
8
BLACK
10
76.5162
20
-43.5952
11
76.5162
21
-43.9822
0
LINE
8
BLACK
10
76.5162
20
-43.9822
11
76.9032
21
-44.0209
0
LINE
8
BLACK
10
76.9032
20
-44.0209
11
76.8645
21
-43.9822
0
LINE
8
BLACK
10
76.8645
20
-43.9822
11
76.8258
21
-43.9048
0
LINE
8
BLACK
10
76.8258
20
-43.9048
11
76.8258
21
-43.7113
0
LINE
8
BLACK
10
76.8258
20
-43.7113
11
76.8645
21
-43.6339
0
LINE
8
BLACK
10
76.8645
20
-43.6339
11
76.9032
21
-43.5952
0
LINE
8
BLACK
10
76.9032
20
-43.5952
11
76.9806
21
-43.5565
0
LINE
8
BLACK
10
76.9806
20
-43.5565
11
77.1742
21
-43.5565
0
LINE
8
BLACK
10
77.1742
20
-43.5565
11
77.2516
21
-43.5952
0
LINE
8
BLACK
10
77.2516
20
-43.5952
11
77.2903
21
-43.6339
0
LINE
8
BLACK
10
77.2903
20
-43.6339
11
77.329
21
-43.7113
0
LINE
8
BLACK
10
77.329
20
-43.7113
11
77.329
21
-43.9048
0
LINE
8
BLACK
10
77.329
20
-43.9048
11
77.2903
21
-43.9822
0
LINE
8
BLACK
10
77.2903
20
-43.9822
11
77.2516
21
-44.0209
0
LINE
8
BLACK
10
76.5162
20
-43.0533
11
76.5162
21
-42.9759
0
LINE
8
BLACK
10
76.5162
20
-42.9759
11
76.5549
21
-42.8985
0
LINE
8
BLACK
10
76.5549
20
-42.8985
11
76.5936
21
-42.8598
0
LINE
8
BLACK
10
76.5936
20
-42.8598
11
76.671
21
-42.8211
0
LINE
8
BLACK
10
76.671
20
-42.8211
11
76.8258
21
-42.7824
0
LINE
8
BLACK
10
76.8258
20
-42.7824
11
77.0194
21
-42.7824
0
LINE
8
BLACK
10
77.0194
20
-42.7824
11
77.1742
21
-42.8211
0
LINE
8
BLACK
10
77.1742
20
-42.8211
11
77.2516
21
-42.8598
0
LINE
8
BLACK
10
77.2516
20
-42.8598
11
77.2903
21
-42.8985
0
LINE
8
BLACK
10
77.2903
20
-42.8985
11
77.329
21
-42.9759
0
LINE
8
BLACK
10
77.329
20
-42.9759
11
77.329
21
-43.0533
0
LINE
8
BLACK
10
77.329
20
-43.0533
11
77.2903
21
-43.1307
0
LINE
8
BLACK
10
77.2903
20
-43.1307
11
77.2516
21
-43.1694
0
LINE
8
BLACK
10
77.2516
20
-43.1694
11
77.1742
21
-43.2081
0
LINE
8
BLACK
10
77.1742
20
-43.2081
11
77.0194
21
-43.2468
0
LINE
8
BLACK
10
77.0194
20
-43.2468
11
76.8258
21
-43.2468
0
LINE
8
BLACK
10
76.8258
20
-43.2468
11
76.671
21
-43.2081
0
LINE
8
BLACK
10
76.671
20
-43.2081
11
76.5936
21
-43.1694
0
LINE
8
BLACK
10
76.5936
20
-43.1694
11
76.5549
21
-43.1307
0
LINE
8
BLACK
10
76.5549
20
-43.1307
11
76.5162
21
-43.0533
0
LINE
8
BLACK
10
76.5162
20
-42.2792
11
76.5162
21
-42.2018
0
LINE
8
BLACK
10
76.5162
20
-42.2018
11
76.5549
21
-42.1244
0
LINE
8
BLACK
10
76.5549
20
-42.1244
11
76.5936
21
-42.0857
0
LINE
8
BLACK
10
76.5936
20
-42.0857
11
76.671
21
-42.047
0
LINE
8
BLACK
10
76.671
20
-42.047
11
76.8258
21
-42.0083
0
LINE
8
BLACK
10
76.8258
20
-42.0083
11
77.0194
21
-42.0083
0
LINE
8
BLACK
10
77.0194
20
-42.0083
11
77.1742
21
-42.047
0
LINE
8
BLACK
10
77.1742
20
-42.047
11
77.2516
21
-42.0857
0
LINE
8
BLACK
10
77.2516
20
-42.0857
11
77.2903
21
-42.1244
0
LINE
8
BLACK
10
77.2903
20
-42.1244
11
77.329
21
-42.2018
0
LINE
8
BLACK
10
77.329
20
-42.2018
11
77.329
21
-42.2792
0
LINE
8
BLACK
10
77.329
20
-42.2792
11
77.2903
21
-42.3566
0
LINE
8
BLACK
10
77.2903
20
-42.3566
11
77.2516
21
-42.3953
0
LINE
8
BLACK
10
77.2516
20
-42.3953
11
77.1742
21
-42.434
0
LINE
8
BLACK
10
77.1742
20
-42.434
11
77.0194
21
-42.4727
0
LINE
8
BLACK
10
77.0194
20
-42.4727
11
76.8258
21
-42.4727
0
LINE
8
BLACK
10
76.8258
20
-42.4727
11
76.671
21
-42.434
0
LINE
8
BLACK
10
76.671
20
-42.434
11
76.5936
21
-42.3953
0
LINE
8
BLACK
10
76.5936
20
-42.3953
11
76.5549
21
-42.3566
0
LINE
8
BLACK
10
76.5549
20
-42.3566
11
76.5162
21
-42.2792
0
LINE
8
BLACK
10
76.5162
20
-41.7761
11
77.329
21
-41.5051
0
LINE
8
BLACK
10
77.329
20
-41.5051
11
76.5162
21
-41.2342
0
LINE
8
BLACK
10
74.5194
20
-46.1497
11
74.5194
21
-45.5304
0
LINE
8
BLACK
10
74.829
20
-45.8401
11
74.2097
21
-45.8401
0
LINE
8
BLACK
10
74.0162
20
-44.9886
11
74.0162
21
-44.9111
0
LINE
8
BLACK
10
74.0162
20
-44.9111
11
74.0549
21
-44.8337
0
LINE
8
BLACK
10
74.0549
20
-44.8337
11
74.0936
21
-44.795
0
LINE
8
BLACK
10
74.0936
20
-44.795
11
74.171
21
-44.7563
0
LINE
8
BLACK
10
74.171
20
-44.7563
11
74.3258
21
-44.7176
0
LINE
8
BLACK
10
74.3258
20
-44.7176
11
74.5194
21
-44.7176
0
LINE
8
BLACK
10
74.5194
20
-44.7176
11
74.6742
21
-44.7563
0
LINE
8
BLACK
10
74.6742
20
-44.7563
11
74.7516
21
-44.795
0
LINE
8
BLACK
10
74.7516
20
-44.795
11
74.7903
21
-44.8337
0
LINE
8
BLACK
10
74.7903
20
-44.8337
11
74.829
21
-44.9111
0
LINE
8
BLACK
10
74.829
20
-44.9111
11
74.829
21
-44.9886
0
LINE
8
BLACK
10
74.829
20
-44.9886
11
74.7903
21
-45.066
0
LINE
8
BLACK
10
74.7903
20
-45.066
11
74.7516
21
-45.1047
0
LINE
8
BLACK
10
74.7516
20
-45.1047
11
74.6742
21
-45.1434
0
LINE
8
BLACK
10
74.6742
20
-45.1434
11
74.5194
21
-45.1821
0
LINE
8
BLACK
10
74.5194
20
-45.1821
11
74.3258
21
-45.1821
0
LINE
8
BLACK
10
74.3258
20
-45.1821
11
74.171
21
-45.1434
0
LINE
8
BLACK
10
74.171
20
-45.1434
11
74.0936
21
-45.1047
0
LINE
8
BLACK
10
74.0936
20
-45.1047
11
74.0549
21
-45.066
0
LINE
8
BLACK
10
74.0549
20
-45.066
11
74.0162
21
-44.9886
0
LINE
8
BLACK
10
74.7516
20
-44.3693
11
74.7903
21
-44.3306
0
LINE
8
BLACK
10
74.7903
20
-44.3306
11
74.829
21
-44.3693
0
LINE
8
BLACK
10
74.829
20
-44.3693
11
74.7903
21
-44.408
0
LINE
8
BLACK
10
74.7903
20
-44.408
11
74.7516
21
-44.3693
0
LINE
8
BLACK
10
74.7516
20
-44.3693
11
74.829
21
-44.3693
0
LINE
8
BLACK
10
74.0162
20
-43.5952
11
74.0162
21
-43.9822
0
LINE
8
BLACK
10
74.0162
20
-43.9822
11
74.4032
21
-44.0209
0
LINE
8
BLACK
10
74.4032
20
-44.0209
11
74.3645
21
-43.9822
0
LINE
8
BLACK
10
74.3645
20
-43.9822
11
74.3258
21
-43.9048
0
LINE
8
BLACK
10
74.3258
20
-43.9048
11
74.3258
21
-43.7113
0
LINE
8
BLACK
10
74.3258
20
-43.7113
11
74.3645
21
-43.6339
0
LINE
8
BLACK
10
74.3645
20
-43.6339
11
74.4032
21
-43.5952
0
LINE
8
BLACK
10
74.4032
20
-43.5952
11
74.4806
21
-43.5565
0
LINE
8
BLACK
10
74.4806
20
-43.5565
11
74.6742
21
-43.5565
0
LINE
8
BLACK
10
74.6742
20
-43.5565
11
74.7516
21
-43.5952
0
LINE
8
BLACK
10
74.7516
20
-43.5952
11
74.7903
21
-43.6339
0
LINE
8
BLACK
10
74.7903
20
-43.6339
11
74.829
21
-43.7113
0
LINE
8
BLACK
10
74.829
20
-43.7113
11
74.829
21
-43.9048
0
LINE
8
BLACK
10
74.829
20
-43.9048
11
74.7903
21
-43.9822
0
LINE
8
BLACK
10
74.7903
20
-43.9822
11
74.7516
21
-44.0209
0
LINE
8
BLACK
10
74.0162
20
-43.0533
11
74.0162
21
-42.9759
0
LINE
8
BLACK
10
74.0162
20
-42.9759
11
74.0549
21
-42.8985
0
LINE
8
BLACK
10
74.0549
20
-42.8985
11
74.0936
21
-42.8598
0
LINE
8
BLACK
10
74.0936
20
-42.8598
11
74.171
21
-42.8211
0
LINE
8
BLACK
10
74.171
20
-42.8211
11
74.3258
21
-42.7824
0
LINE
8
BLACK
10
74.3258
20
-42.7824
11
74.5194
21
-42.7824
0
LINE
8
BLACK
10
74.5194
20
-42.7824
11
74.6742
21
-42.8211
0
LINE
8
BLACK
10
74.6742
20
-42.8211
11
74.7516
21
-42.8598
0
LINE
8
BLACK
10
74.7516
20
-42.8598
11
74.7903
21
-42.8985
0
LINE
8
BLACK
10
74.7903
20
-42.8985
11
74.829
21
-42.9759
0
LINE
8
BLACK
10
74.829
20
-42.9759
11
74.829
21
-43.0533
0
LINE
8
BLACK
10
74.829
20
-43.0533
11
74.7903
21
-43.1307
0
LINE
8
BLACK
10
74.7903
20
-43.1307
11
74.7516
21
-43.1694
0
LINE
8
BLACK
10
74.7516
20
-43.1694
11
74.6742
21
-43.2081
0
LINE
8
BLACK
10
74.6742
20
-43.2081
11
74.5194
21
-43.2468
0
LINE
8
BLACK
10
74.5194
20
-43.2468
11
74.3258
21
-43.2468
0
LINE
8
BLACK
10
74.3258
20
-43.2468
11
74.171
21
-43.2081
0
LINE
8
BLACK
10
74.171
20
-43.2081
11
74.0936
21
-43.1694
0
LINE
8
BLACK
10
74.0936
20
-43.1694
11
74.0549
21
-43.1307
0
LINE
8
BLACK
10
74.0549
20
-43.1307
11
74.0162
21
-43.0533
0
LINE
8
BLACK
10
74.0162
20
-42.2792
11
74.0162
21
-42.2018
0
LINE
8
BLACK
10
74.0162
20
-42.2018
11
74.0549
21
-42.1244
0
LINE
8
BLACK
10
74.0549
20
-42.1244
11
74.0936
21
-42.0857
0
LINE
8
BLACK
10
74.0936
20
-42.0857
11
74.171
21
-42.047
0
LINE
8
BLACK
10
74.171
20
-42.047
11
74.3258
21
-42.0083
0
LINE
8
BLACK
10
74.3258
20
-42.0083
11
74.5194
21
-42.0083
0
LINE
8
BLACK
10
74.5194
20
-42.0083
11
74.6742
21
-42.047
0
LINE
8
BLACK
10
74.6742
20
-42.047
11
74.7516
21
-42.0857
0
LINE
8
BLACK
10
74.7516
20
-42.0857
11
74.7903
21
-42.1244
0
LINE
8
BLACK
10
74.7903
20
-42.1244
11
74.829
21
-42.2018
0
LINE
8
BLACK
10
74.829
20
-42.2018
11
74.829
21
-42.2792
0
LINE
8
BLACK
10
74.829
20
-42.2792
11
74.7903
21
-42.3566
0
LINE
8
BLACK
10
74.7903
20
-42.3566
11
74.7516
21
-42.3953
0
LINE
8
BLACK
10
74.7516
20
-42.3953
11
74.6742
21
-42.434
0
LINE
8
BLACK
10
74.6742
20
-42.434
11
74.5194
21
-42.4727
0
LINE
8
BLACK
10
74.5194
20
-42.4727
11
74.3258
21
-42.4727
0
LINE
8
BLACK
10
74.3258
20
-42.4727
11
74.171
21
-42.434
0
LINE
8
BLACK
10
74.171
20
-42.434
11
74.0936
21
-42.3953
0
LINE
8
BLACK
10
74.0936
20
-42.3953
11
74.0549
21
-42.3566
0
LINE
8
BLACK
10
74.0549
20
-42.3566
11
74.0162
21
-42.2792
0
LINE
8
BLACK
10
74.0162
20
-41.7761
11
74.829
21
-41.5051
0
LINE
8
BLACK
10
74.829
20
-41.5051
11
74.0162
21
-41.2342
0
LINE
8
BLACK
10
70.2694
20
-46.1497
11
70.2694
21
-45.5304
0
LINE
8
BLACK
10
70.579
20
-45.8401
11
69.9597
21
-45.8401
0
LINE
8
BLACK
10
69.7662
20
-44.7563
11
69.7662
21
-45.1434
0
LINE
8
BLACK
10
69.7662
20
-45.1434
11
70.1532
21
-45.1821
0
LINE
8
BLACK
10
70.1532
20
-45.1821
11
70.1145
21
-45.1434
0
LINE
8
BLACK
10
70.1145
20
-45.1434
11
70.0758
21
-45.066
0
LINE
8
BLACK
10
70.0758
20
-45.066
11
70.0758
21
-44.8724
0
LINE
8
BLACK
10
70.0758
20
-44.8724
11
70.1145
21
-44.795
0
LINE
8
BLACK
10
70.1145
20
-44.795
11
70.1532
21
-44.7563
0
LINE
8
BLACK
10
70.1532
20
-44.7563
11
70.2306
21
-44.7176
0
LINE
8
BLACK
10
70.2306
20
-44.7176
11
70.4242
21
-44.7176
0
LINE
8
BLACK
10
70.4242
20
-44.7176
11
70.5016
21
-44.7563
0
LINE
8
BLACK
10
70.5016
20
-44.7563
11
70.5403
21
-44.795
0
LINE
8
BLACK
10
70.5403
20
-44.795
11
70.579
21
-44.8724
0
LINE
8
BLACK
10
70.579
20
-44.8724
11
70.579
21
-45.066
0
LINE
8
BLACK
10
70.579
20
-45.066
11
70.5403
21
-45.1434
0
LINE
8
BLACK
10
70.5403
20
-45.1434
11
70.5016
21
-45.1821
0
LINE
8
BLACK
10
70.5016
20
-44.3693
11
70.5403
21
-44.3306
0
LINE
8
BLACK
10
70.5403
20
-44.3306
11
70.579
21
-44.3693
0
LINE
8
BLACK
10
70.579
20
-44.3693
11
70.5403
21
-44.408
0
LINE
8
BLACK
10
70.5403
20
-44.408
11
70.5016
21
-44.3693
0
LINE
8
BLACK
10
70.5016
20
-44.3693
11
70.579
21
-44.3693
0
LINE
8
BLACK
10
69.7662
20
-43.8274
11
69.7662
21
-43.75
0
LINE
8
BLACK
10
69.7662
20
-43.75
11
69.8049
21
-43.6726
0
LINE
8
BLACK
10
69.8049
20
-43.6726
11
69.8436
21
-43.6339
0
LINE
8
BLACK
10
69.8436
20
-43.6339
11
69.921
21
-43.5952
0
LINE
8
BLACK
10
69.921
20
-43.5952
11
70.0758
21
-43.5565
0
LINE
8
BLACK
10
70.0758
20
-43.5565
11
70.2694
21
-43.5565
0
LINE
8
BLACK
10
70.2694
20
-43.5565
11
70.4242
21
-43.5952
0
LINE
8
BLACK
10
70.4242
20
-43.5952
11
70.5016
21
-43.6339
0
LINE
8
BLACK
10
70.5016
20
-43.6339
11
70.5403
21
-43.6726
0
LINE
8
BLACK
10
70.5403
20
-43.6726
11
70.579
21
-43.75
0
LINE
8
BLACK
10
70.579
20
-43.75
11
70.579
21
-43.8274
0
LINE
8
BLACK
10
70.579
20
-43.8274
11
70.5403
21
-43.9048
0
LINE
8
BLACK
10
70.5403
20
-43.9048
11
70.5016
21
-43.9435
0
LINE
8
BLACK
10
70.5016
20
-43.9435
11
70.4242
21
-43.9822
0
LINE
8
BLACK
10
70.4242
20
-43.9822
11
70.2694
21
-44.0209
0
LINE
8
BLACK
10
70.2694
20
-44.0209
11
70.0758
21
-44.0209
0
LINE
8
BLACK
10
70.0758
20
-44.0209
11
69.921
21
-43.9822
0
LINE
8
BLACK
10
69.921
20
-43.9822
11
69.8436
21
-43.9435
0
LINE
8
BLACK
10
69.8436
20
-43.9435
11
69.8049
21
-43.9048
0
LINE
8
BLACK
10
69.8049
20
-43.9048
11
69.7662
21
-43.8274
0
LINE
8
BLACK
10
69.7662
20
-43.0533
11
69.7662
21
-42.9759
0
LINE
8
BLACK
10
69.7662
20
-42.9759
11
69.8049
21
-42.8985
0
LINE
8
BLACK
10
69.8049
20
-42.8985
11
69.8436
21
-42.8598
0
LINE
8
BLACK
10
69.8436
20
-42.8598
11
69.921
21
-42.8211
0
LINE
8
BLACK
10
69.921
20
-42.8211
11
70.0758
21
-42.7824
0
LINE
8
BLACK
10
70.0758
20
-42.7824
11
70.2694
21
-42.7824
0
LINE
8
BLACK
10
70.2694
20
-42.7824
11
70.4242
21
-42.8211
0
LINE
8
BLACK
10
70.4242
20
-42.8211
11
70.5016
21
-42.8598
0
LINE
8
BLACK
10
70.5016
20
-42.8598
11
70.5403
21
-42.8985
0
LINE
8
BLACK
10
70.5403
20
-42.8985
11
70.579
21
-42.9759
0
LINE
8
BLACK
10
70.579
20
-42.9759
11
70.579
21
-43.0533
0
LINE
8
BLACK
10
70.579
20
-43.0533
11
70.5403
21
-43.1307
0
LINE
8
BLACK
10
70.5403
20
-43.1307
11
70.5016
21
-43.1694
0
LINE
8
BLACK
10
70.5016
20
-43.1694
11
70.4242
21
-43.2081
0
LINE
8
BLACK
10
70.4242
20
-43.2081
11
70.2694
21
-43.2468
0
LINE
8
BLACK
10
70.2694
20
-43.2468
11
70.0758
21
-43.2468
0
LINE
8
BLACK
10
70.0758
20
-43.2468
11
69.921
21
-43.2081
0
LINE
8
BLACK
10
69.921
20
-43.2081
11
69.8436
21
-43.1694
0
LINE
8
BLACK
10
69.8436
20
-43.1694
11
69.8049
21
-43.1307
0
LINE
8
BLACK
10
69.8049
20
-43.1307
11
69.7662
21
-43.0533
0
LINE
8
BLACK
10
69.7662
20
-42.2792
11
69.7662
21
-42.2018
0
LINE
8
BLACK
10
69.7662
20
-42.2018
11
69.8049
21
-42.1244
0
LINE
8
BLACK
10
69.8049
20
-42.1244
11
69.8436
21
-42.0857
0
LINE
8
BLACK
10
69.8436
20
-42.0857
11
69.921
21
-42.047
0
LINE
8
BLACK
10
69.921
20
-42.047
11
70.0758
21
-42.0083
0
LINE
8
BLACK
10
70.0758
20
-42.0083
11
70.2694
21
-42.0083
0
LINE
8
BLACK
10
70.2694
20
-42.0083
11
70.4242
21
-42.047
0
LINE
8
BLACK
10
70.4242
20
-42.047
11
70.5016
21
-42.0857
0
LINE
8
BLACK
10
70.5016
20
-42.0857
11
70.5403
21
-42.1244
0
LINE
8
BLACK
10
70.5403
20
-42.1244
11
70.579
21
-42.2018
0
LINE
8
BLACK
10
70.579
20
-42.2018
11
70.579
21
-42.2792
0
LINE
8
BLACK
10
70.579
20
-42.2792
11
70.5403
21
-42.3566
0
LINE
8
BLACK
10
70.5403
20
-42.3566
11
70.5016
21
-42.3953
0
LINE
8
BLACK
10
70.5016
20
-42.3953
11
70.4242
21
-42.434
0
LINE
8
BLACK
10
70.4242
20
-42.434
11
70.2694
21
-42.4727
0
LINE
8
BLACK
10
70.2694
20
-42.4727
11
70.0758
21
-42.4727
0
LINE
8
BLACK
10
70.0758
20
-42.4727
11
69.921
21
-42.434
0
LINE
8
BLACK
10
69.921
20
-42.434
11
69.8436
21
-42.3953
0
LINE
8
BLACK
10
69.8436
20
-42.3953
11
69.8049
21
-42.3566
0
LINE
8
BLACK
10
69.8049
20
-42.3566
11
69.7662
21
-42.2792
0
LINE
8
BLACK
10
69.7662
20
-41.7761
11
70.579
21
-41.5051
0
LINE
8
BLACK
10
70.579
20
-41.5051
11
69.7662
21
-41.2342
0
LINE
8
BLACK
10
31.7662
20
-37.6193
11
31.7662
21
-37.1548
0
LINE
8
BLACK
10
32.579
20
-37.387
11
31.7662
21
-37.387
0
LINE
8
BLACK
10
32.0371
20
-36.5355
11
32.579
21
-36.5355
0
LINE
8
BLACK
10
31.7275
20
-36.7291
11
32.3081
21
-36.9226
0
LINE
8
BLACK
10
32.3081
20
-36.9226
11
32.3081
21
-36.4194
0
LINE
8
BLACK
10
54.6307
20
-44.5162
11
55.0952
21
-44.5162
0
LINE
8
BLACK
10
54.863
20
-45.329
11
54.863
21
-44.5162
0
LINE
8
BLACK
10
55.2887
20
-44.5162
11
55.7919
21
-44.5162
0
LINE
8
BLACK
10
55.7919
20
-44.5162
11
55.5209
21
-44.8258
0
LINE
8
BLACK
10
55.5209
20
-44.8258
11
55.637
21
-44.8258
0
LINE
8
BLACK
10
55.637
20
-44.8258
11
55.7145
21
-44.8645
0
LINE
8
BLACK
10
55.7145
20
-44.8645
11
55.7532
21
-44.9032
0
LINE
8
BLACK
10
55.7532
20
-44.9032
11
55.7919
21
-44.9806
0
LINE
8
BLACK
10
55.7919
20
-44.9806
11
55.7919
21
-45.1742
0
LINE
8
BLACK
10
55.7919
20
-45.1742
11
55.7532
21
-45.2516
0
LINE
8
BLACK
10
55.7532
20
-45.2516
11
55.7145
21
-45.2903
0
LINE
8
BLACK
10
55.7145
20
-45.2903
11
55.637
21
-45.329
0
LINE
8
BLACK
10
55.637
20
-45.329
11
55.4048
21
-45.329
0
LINE
8
BLACK
10
55.4048
20
-45.329
11
55.3274
21
-45.2903
0
LINE
8
BLACK
10
55.3274
20
-45.2903
11
55.2887
21
-45.2516
0
LINE
8
BLACK
10
63.6307
20
-44.5162
11
64.0952
21
-44.5162
0
LINE
8
BLACK
10
63.863
20
-45.329
11
63.863
21
-44.5162
0
LINE
8
BLACK
10
64.3274
20
-44.5936
11
64.3661
21
-44.5549
0
LINE
8
BLACK
10
64.3661
20
-44.5549
11
64.4435
21
-44.5162
0
LINE
8
BLACK
10
64.4435
20
-44.5162
11
64.637
21
-44.5162
0
LINE
8
BLACK
10
64.637
20
-44.5162
11
64.7145
21
-44.5549
0
LINE
8
BLACK
10
64.7145
20
-44.5549
11
64.7532
21
-44.5936
0
LINE
8
BLACK
10
64.7532
20
-44.5936
11
64.7919
21
-44.671
0
LINE
8
BLACK
10
64.7919
20
-44.671
11
64.7919
21
-44.7484
0
LINE
8
BLACK
10
64.7919
20
-44.7484
11
64.7532
21
-44.8645
0
LINE
8
BLACK
10
64.7532
20
-44.8645
11
64.2887
21
-45.329
0
LINE
8
BLACK
10
64.2887
20
-45.329
11
64.7919
21
-45.329
0
LINE
8
BLACK
10
41.3807
20
-49.0162
11
41.8452
21
-49.0162
0
LINE
8
BLACK
10
41.613
20
-49.829
11
41.613
21
-49.0162
0
LINE
8
BLACK
10
42.5419
20
-49.829
11
42.0774
21
-49.829
0
LINE
8
BLACK
10
42.3096
20
-49.829
11
42.3096
21
-49.0162
0
LINE
8
BLACK
10
42.3096
20
-49.0162
11
42.2322
21
-49.1323
0
LINE
8
BLACK
10
42.2322
20
-49.1323
11
42.1548
21
-49.2097
0
LINE
8
BLACK
10
42.1548
20
-49.2097
11
42.0774
21
-49.2484
0
CIRCLE
8
BLACK
10
69.8
20
-32.6
40
1.28062
0
LINE
8
BLACK
10
34.525
20
-33.1
11
34.525
21
-32.1
0
LINE
8
BLACK
10
34.275
20
-33.1
11
34.275
21
-32.1
0
ARC
8
BLACK
10
34.4
20
-32.1
40
0.125
50
360
51
540
0
ARC
8
BLACK
10
34.4
20
-33.1
40
0.125
50
180
51
360
0
LINE
8
BLACK
10
33.9
20
-32.725
11
34.9
21
-32.725
0
LINE
8
BLACK
10
33.9
20
-32.475
11
34.9
21
-32.475
0
ARC
8
BLACK
10
34.9
20
-32.6
40
0.125
50
270
51
450
0
ARC
8
BLACK
10
33.9
20
-32.6
40
0.125
50
90
51
270
0
CIRCLE
8
BLACK
10
34.4
20
-32.6
40
3.00832
0
LINE
8
BLACK
10
66
20
-24.75
11
66
21
-24.35
0
LINE
8
BLACK
10
65.8
20
-24.75
11
65.8
21
-24.35
0
ARC
8
BLACK
10
65.9
20
-24.35
40
0.1
50
360
51
540
0
ARC
8
BLACK
10
65.9
20
-24.75
40
0.1
50
180
51
360
0
LINE
8
BLACK
10
65.5
20
-24.45
11
65.9
21
-24.45
0
LINE
8
BLACK
10
65.5
20
-24.25
11
65.9
21
-24.25
0
ARC
8
BLACK
10
65.9
20
-24.35
40
0.1
50
270
51
450
0
ARC
8
BLACK
10
65.5
20
-24.35
40
0.1
50
90
51
270
0
LINE
8
BLACK
10
65.5
20
-25.45
11
65.5
21
-24.85
0
LINE
8
BLACK
10
65.3
20
-25.45
11
65.3
21
-24.85
0
ARC
8
BLACK
10
65.4
20
-24.85
40
0.1
50
360
51
540
0
ARC
8
BLACK
10
65.4
20
-25.45
40
0.1
50
180
51
360
0
LINE
8
BLACK
10
65.8293
20
-24.2793
11
65.3293
21
-24.7793
0
LINE
8
BLACK
10
65.9707
20
-24.4207
11
65.4707
21
-24.9207
0
ARC
8
BLACK
10
65.4
20
-24.85
40
0.1
50
135
51
315
0
ARC
8
BLACK
10
65.9
20
-24.35
40
0.1
50
-45
51
135
0
LINE
8
BLACK
10
64.8045
20
-28.9676
11
64.744
21
-29.0886
0
LINE
8
BLACK
10
64.744
20
-29.0886
11
64.744
21
-29.27
0
LINE
8
BLACK
10
64.744
20
-29.27
11
64.8045
21
-29.4514
0
LINE
8
BLACK
10
64.8045
20
-29.4514
11
64.9255
21
-29.5724
0
LINE
8
BLACK
10
64.9255
20
-29.5724
11
65.0464
21
-29.6329
0
LINE
8
BLACK
10
65.0464
20
-29.6329
11
65.2883
21
-29.6933
0
LINE
8
BLACK
10
65.2883
20
-29.6933
11
65.4698
21
-29.6933
0
LINE
8
BLACK
10
65.4698
20
-29.6933
11
65.7117
21
-29.6329
0
LINE
8
BLACK
10
65.7117
20
-29.6329
11
65.8326
21
-29.5724
0
LINE
8
BLACK
10
65.8326
20
-29.5724
11
65.9536
21
-29.4514
0
LINE
8
BLACK
10
65.9536
20
-29.4514
11
66.014
21
-29.27
0
LINE
8
BLACK
10
66.014
20
-29.27
11
66.014
21
-29.149
0
LINE
8
BLACK
10
66.014
20
-29.149
11
65.9536
21
-28.9676
0
LINE
8
BLACK
10
65.9536
20
-28.9676
11
65.8931
21
-28.9071
0
LINE
8
BLACK
10
65.8931
20
-28.9071
11
65.4698
21
-28.9071
0
LINE
8
BLACK
10
65.4698
20
-28.9071
11
65.4698
21
-29.149
0
LINE
8
BLACK
10
66.014
20
-28.3629
11
64.744
21
-28.3629
0
LINE
8
BLACK
10
64.744
20
-28.3629
11
66.014
21
-27.6371
0
LINE
8
BLACK
10
66.014
20
-27.6371
11
64.744
21
-27.6371
0
LINE
8
BLACK
10
66.014
20
-27.0324
11
64.744
21
-27.0324
0
LINE
8
BLACK
10
64.744
20
-27.0324
11
64.744
21
-26.73
0
LINE
8
BLACK
10
64.744
20
-26.73
11
64.8045
21
-26.5486
0
LINE
8
BLACK
10
64.8045
20
-26.5486
11
64.9255
21
-26.4276
0
LINE
8
BLACK
10
64.9255
20
-26.4276
11
65.0464
21
-26.3671
0
LINE
8
BLACK
10
65.0464
20
-26.3671
11
65.2883
21
-26.3067
0
LINE
8
BLACK
10
65.2883
20
-26.3067
11
65.4698
21
-26.3067
0
LINE
8
BLACK
10
65.4698
20
-26.3067
11
65.7117
21
-26.3671
0
LINE
8
BLACK
10
65.7117
20
-26.3671
11
65.8326
21
-26.4276
0
LINE
8
BLACK
10
65.8326
20
-26.4276
11
65.9536
21
-26.5486
0
LINE
8
BLACK
10
65.9536
20
-26.5486
11
66.014
21
-26.73
0
LINE
8
BLACK
10
66.014
20
-26.73
11
66.014
21
-27.0324
0
LINE
8
BLACK
10
38.6786
20
-43.1071
11
39.0357
21
-44.1071
0
LINE
8
BLACK
10
39.0357
20
-44.1071
11
39.3929
21
-43.1071
0
LINE
8
BLACK
10
39.8929
20
-42.75
11
39.9643
21
-42.6786
0
LINE
8
BLACK
10
39.9643
20
-42.6786
11
40.1071
21
-42.6071
0
LINE
8
BLACK
10
40.1071
20
-42.6071
11
40.4643
21
-42.6071
0
LINE
8
BLACK
10
40.4643
20
-42.6071
11
40.6071
21
-42.6786
0
LINE
8
BLACK
10
40.6071
20
-42.6786
11
40.6786
21
-42.75
0
LINE
8
BLACK
10
40.6786
20
-42.75
11
40.75
21
-42.8929
0
LINE
8
BLACK
10
40.75
20
-42.8929
11
40.75
21
-43.0357
0
LINE
8
BLACK
10
40.75
20
-43.0357
11
40.6786
21
-43.25
0
LINE
8
BLACK
10
40.6786
20
-43.25
11
39.8214
21
-44.1071
0
LINE
8
BLACK
10
39.8214
20
-44.1071
11
40.75
21
-44.1071
0
LINE
8
BLACK
10
41.3929
20
-43.9643
11
41.4643
21
-44.0357
0
LINE
8
BLACK
10
41.4643
20
-44.0357
11
41.3929
21
-44.1071
0
LINE
8
BLACK
10
41.3929
20
-44.1071
11
41.3214
21
-44.0357
0
LINE
8
BLACK
10
41.3214
20
-44.0357
11
41.3929
21
-43.9643
0
LINE
8
BLACK
10
41.3929
20
-43.9643
11
41.3929
21
-44.1071
0
LINE
8
BLACK
10
42.3929
20
-42.6071
11
42.5357
21
-42.6071
0
LINE
8
BLACK
10
42.5357
20
-42.6071
11
42.6786
21
-42.6786
0
LINE
8
BLACK
10
42.6786
20
-42.6786
11
42.75
21
-42.75
0
LINE
8
BLACK
10
42.75
20
-42.75
11
42.8214
21
-42.8929
0
LINE
8
BLACK
10
42.8214
20
-42.8929
11
42.8929
21
-43.1786
0
LINE
8
BLACK
10
42.8929
20
-43.1786
11
42.8929
21
-43.5357
0
LINE
8
BLACK
10
42.8929
20
-43.5357
11
42.8214
21
-43.8214
0
LINE
8
BLACK
10
42.8214
20
-43.8214
11
42.75
21
-43.9643
0
LINE
8
BLACK
10
42.75
20
-43.9643
11
42.6786
21
-44.0357
0
LINE
8
BLACK
10
42.6786
20
-44.0357
11
42.5357
21
-44.1071
0
LINE
8
BLACK
10
42.5357
20
-44.1071
11
42.3929
21
-44.1071
0
LINE
8
BLACK
10
42.3929
20
-44.1071
11
42.25
21
-44.0357
0
LINE
8
BLACK
10
42.25
20
-44.0357
11
42.1786
21
-43.9643
0
LINE
8
BLACK
10
42.1786
20
-43.9643
11
42.1071
21
-43.8214
0
LINE
8
BLACK
10
42.1071
20
-43.8214
11
42.0357
21
-43.5357
0
LINE
8
BLACK
10
42.0357
20
-43.5357
11
42.0357
21
-43.1786
0
LINE
8
BLACK
10
42.0357
20
-43.1786
11
42.1071
21
-42.8929
0
LINE
8
BLACK
10
42.1071
20
-42.8929
11
42.1786
21
-42.75
0
LINE
8
BLACK
10
42.1786
20
-42.75
11
42.25
21
-42.6786
0
LINE
8
BLACK
10
42.25
20
-42.6786
11
42.3929
21
-42.6071
0
LINE
8
BLACK
10
45.4643
20
-44.1071
11
44.6071
21
-44.1071
0
LINE
8
BLACK
10
45.0357
20
-44.1071
11
45.0357
21
-42.6071
0
LINE
8
BLACK
10
45.0357
20
-42.6071
11
44.8929
21
-42.8214
0
LINE
8
BLACK
10
44.8929
20
-42.8214
11
44.75
21
-42.9643
0
LINE
8
BLACK
10
44.75
20
-42.9643
11
44.6071
21
-43.0357
0
LINE
8
BLACK
10
46.3929
20
-42.6071
11
46.5357
21
-42.6071
0
LINE
8
BLACK
10
46.5357
20
-42.6071
11
46.6786
21
-42.6786
0
LINE
8
BLACK
10
46.6786
20
-42.6786
11
46.75
21
-42.75
0
LINE
8
BLACK
10
46.75
20
-42.75
11
46.8214
21
-42.8929
0
LINE
8
BLACK
10
46.8214
20
-42.8929
11
46.8929
21
-43.1786
0
LINE
8
BLACK
10
46.8929
20
-43.1786
11
46.8929
21
-43.5357
0
LINE
8
BLACK
10
46.8929
20
-43.5357
11
46.8214
21
-43.8214
0
LINE
8
BLACK
10
46.8214
20
-43.8214
11
46.75
21
-43.9643
0
LINE
8
BLACK
10
46.75
20
-43.9643
11
46.6786
21
-44.0357
0
LINE
8
BLACK
10
46.6786
20
-44.0357
11
46.5357
21
-44.1071
0
LINE
8
BLACK
10
46.5357
20
-44.1071
11
46.3929
21
-44.1071
0
LINE
8
BLACK
10
46.3929
20
-44.1071
11
46.25
21
-44.0357
0
LINE
8
BLACK
10
46.25
20
-44.0357
11
46.1786
21
-43.9643
0
LINE
8
BLACK
10
46.1786
20
-43.9643
11
46.1071
21
-43.8214
0
LINE
8
BLACK
10
46.1071
20
-43.8214
11
46.0357
21
-43.5357
0
LINE
8
BLACK
10
46.0357
20
-43.5357
11
46.0357
21
-43.1786
0
LINE
8
BLACK
10
46.0357
20
-43.1786
11
46.1071
21
-42.8929
0
LINE
8
BLACK
10
46.1071
20
-42.8929
11
46.1786
21
-42.75
0
LINE
8
BLACK
10
46.1786
20
-42.75
11
46.25
21
-42.6786
0
LINE
8
BLACK
10
46.25
20
-42.6786
11
46.3929
21
-42.6071
0
LINE
8
BLACK
10
48.6071
20
-42.75
11
48.6786
21
-42.6786
0
LINE
8
BLACK
10
48.6786
20
-42.6786
11
48.8214
21
-42.6071
0
LINE
8
BLACK
10
48.8214
20
-42.6071
11
49.1786
21
-42.6071
0
LINE
8
BLACK
10
49.1786
20
-42.6071
11
49.3214
21
-42.6786
0
LINE
8
BLACK
10
49.3214
20
-42.6786
11
49.3929
21
-42.75
0
LINE
8
BLACK
10
49.3929
20
-42.75
11
49.4643
21
-42.8929
0
LINE
8
BLACK
10
49.4643
20
-42.8929
11
49.4643
21
-43.0357
0
LINE
8
BLACK
10
49.4643
20
-43.0357
11
49.3929
21
-43.25
0
LINE
8
BLACK
10
49.3929
20
-43.25
11
48.5357
21
-44.1071
0
LINE
8
BLACK
10
48.5357
20
-44.1071
11
49.4643
21
-44.1071
0
LINE
8
BLACK
10
50.3929
20
-42.6071
11
50.5357
21
-42.6071
0
LINE
8
BLACK
10
50.5357
20
-42.6071
11
50.6786
21
-42.6786
0
LINE
8
BLACK
10
50.6786
20
-42.6786
11
50.75
21
-42.75
0
LINE
8
BLACK
10
50.75
20
-42.75
11
50.8214
21
-42.8929
0
LINE
8
BLACK
10
50.8214
20
-42.8929
11
50.8929
21
-43.1786
0
LINE
8
BLACK
10
50.8929
20
-43.1786
11
50.8929
21
-43.5357
0
LINE
8
BLACK
10
50.8929
20
-43.5357
11
50.8214
21
-43.8214
0
LINE
8
BLACK
10
50.8214
20
-43.8214
11
50.75
21
-43.9643
0
LINE
8
BLACK
10
50.75
20
-43.9643
11
50.6786
21
-44.0357
0
LINE
8
BLACK
10
50.6786
20
-44.0357
11
50.5357
21
-44.1071
0
LINE
8
BLACK
10
50.5357
20
-44.1071
11
50.3929
21
-44.1071
0
LINE
8
BLACK
10
50.3929
20
-44.1071
11
50.25
21
-44.0357
0
LINE
8
BLACK
10
50.25
20
-44.0357
11
50.1786
21
-43.9643
0
LINE
8
BLACK
10
50.1786
20
-43.9643
11
50.1071
21
-43.8214
0
LINE
8
BLACK
10
50.1071
20
-43.8214
11
50.0357
21
-43.5357
0
LINE
8
BLACK
10
50.0357
20
-43.5357
11
50.0357
21
-43.1786
0
LINE
8
BLACK
10
50.0357
20
-43.1786
11
50.1071
21
-42.8929
0
LINE
8
BLACK
10
50.1071
20
-42.8929
11
50.1786
21
-42.75
0
LINE
8
BLACK
10
50.1786
20
-42.75
11
50.25
21
-42.6786
0
LINE
8
BLACK
10
50.25
20
-42.6786
11
50.3929
21
-42.6071
0
LINE
8
BLACK
10
52.3214
20
-44.1071
11
51.4643
21
-44.1071
0
LINE
8
BLACK
10
51.8929
20
-44.1071
11
51.8929
21
-42.6071
0
LINE
8
BLACK
10
51.8929
20
-42.6071
11
51.75
21
-42.8214
0
LINE
8
BLACK
10
51.75
20
-42.8214
11
51.6071
21
-42.9643
0
LINE
8
BLACK
10
51.6071
20
-42.9643
11
51.4643
21
-43.0357
0
LINE
8
BLACK
10
52.8214
20
-42.6071
11
53.75
21
-42.6071
0
LINE
8
BLACK
10
53.75
20
-42.6071
11
53.25
21
-43.1786
0
LINE
8
BLACK
10
53.25
20
-43.1786
11
53.4643
21
-43.1786
0
LINE
8
BLACK
10
53.4643
20
-43.1786
11
53.6071
21
-43.25
0
LINE
8
BLACK
10
53.6071
20
-43.25
11
53.6786
21
-43.3214
0
LINE
8
BLACK
10
53.6786
20
-43.3214
11
53.75
21
-43.4643
0
LINE
8
BLACK
10
53.75
20
-43.4643
11
53.75
21
-43.8214
0
LINE
8
BLACK
10
53.75
20
-43.8214
11
53.6786
21
-43.9643
0
LINE
8
BLACK
10
53.6786
20
-43.9643
11
53.6071
21
-44.0357
0
LINE
8
BLACK
10
53.6071
20
-44.0357
11
53.4643
21
-44.1071
0
LINE
8
BLACK
10
53.4643
20
-44.1071
11
53.0357
21
-44.1071
0
LINE
8
BLACK
10
53.0357
20
-44.1071
11
52.8929
21
-44.0357
0
LINE
8
BLACK
10
52.8929
20
-44.0357
11
52.8214
21
-43.9643
0
LINE
8
BLACK
10
73.2857
20
-40.1786
11
73.3571
21
-40.0357
0
LINE
8
BLACK
10
73.3571
20
-40.0357
11
73.3571
21
-39.75
0
LINE
8
BLACK
10
73.3571
20
-39.75
11
73.2857
21
-39.6071
0
LINE
8
BLACK
10
73.2857
20
-39.6071
11
73.1429
21
-39.5357
0
LINE
8
BLACK
10
73.1429
20
-39.5357
11
73.0714
21
-39.5357
0
LINE
8
BLACK
10
73.0714
20
-39.5357
11
72.9286
21
-39.6071
0
LINE
8
BLACK
10
72.9286
20
-39.6071
11
72.8571
21
-39.75
0
LINE
8
BLACK
10
72.8571
20
-39.75
11
72.8571
21
-39.9643
0
LINE
8
BLACK
10
72.8571
20
-39.9643
11
72.7857
21
-40.1071
0
LINE
8
BLACK
10
72.7857
20
-40.1071
11
72.6429
21
-40.1786
0
LINE
8
BLACK
10
72.6429
20
-40.1786
11
72.5714
21
-40.1786
0
LINE
8
BLACK
10
72.5714
20
-40.1786
11
72.4286
21
-40.1071
0
LINE
8
BLACK
10
72.4286
20
-40.1071
11
72.3571
21
-39.9643
0
LINE
8
BLACK
10
72.3571
20
-39.9643
11
72.3571
21
-39.75
0
LINE
8
BLACK
10
72.3571
20
-39.75
11
72.4286
21
-39.6071
0
LINE
8
BLACK
10
72.3571
20
-39.0357
11
73.3571
21
-38.6786
0
LINE
8
BLACK
10
72.3571
20
-38.3214
11
73.3571
21
-38.6786
0
LINE
8
BLACK
10
73.3571
20
-38.6786
11
73.7143
21
-38.8214
0
LINE
8
BLACK
10
73.7143
20
-38.8214
11
73.7857
21
-38.8929
0
LINE
8
BLACK
10
73.7857
20
-38.8929
11
73.8571
21
-39.0357
0
LINE
8
BLACK
10
73.2857
20
-37.8214
11
73.3571
21
-37.6786
0
LINE
8
BLACK
10
73.3571
20
-37.6786
11
73.3571
21
-37.3929
0
LINE
8
BLACK
10
73.3571
20
-37.3929
11
73.2857
21
-37.25
0
LINE
8
BLACK
10
73.2857
20
-37.25
11
73.1429
21
-37.1786
0
LINE
8
BLACK
10
73.1429
20
-37.1786
11
73.0714
21
-37.1786
0
LINE
8
BLACK
10
73.0714
20
-37.1786
11
72.9286
21
-37.25
0
LINE
8
BLACK
10
72.9286
20
-37.25
11
72.8571
21
-37.3929
0
LINE
8
BLACK
10
72.8571
20
-37.3929
11
72.8571
21
-37.6071
0
LINE
8
BLACK
10
72.8571
20
-37.6071
11
72.7857
21
-37.75
0
LINE
8
BLACK
10
72.7857
20
-37.75
11
72.6429
21
-37.8214
0
LINE
8
BLACK
10
72.6429
20
-37.8214
11
72.5714
21
-37.8214
0
LINE
8
BLACK
10
72.5714
20
-37.8214
11
72.4286
21
-37.75
0
LINE
8
BLACK
10
72.4286
20
-37.75
11
72.3571
21
-37.6071
0
LINE
8
BLACK
10
72.3571
20
-37.6071
11
72.3571
21
-37.3929
0
LINE
8
BLACK
10
72.3571
20
-37.3929
11
72.4286
21
-37.25
0
LINE
8
BLACK
10
72.3571
20
-36.75
11
72.3571
21
-36.1786
0
LINE
8
BLACK
10
71.8571
20
-36.5357
11
73.1429
21
-36.5357
0
LINE
8
BLACK
10
73.1429
20
-36.5357
11
73.2857
21
-36.4643
0
LINE
8
BLACK
10
73.2857
20
-36.4643
11
73.3571
21
-36.3214
0
LINE
8
BLACK
10
73.3571
20
-36.3214
11
73.3571
21
-36.1786
0
LINE
8
BLACK
10
73.2857
20
-35.1071
11
73.3571
21
-35.25
0
LINE
8
BLACK
10
73.3571
20
-35.25
11
73.3571
21
-35.5357
0
LINE
8
BLACK
10
73.3571
20
-35.5357
11
73.2857
21
-35.6786
0
LINE
8
BLACK
10
73.2857
20
-35.6786
11
73.1429
21
-35.75
0
LINE
8
BLACK
10
73.1429
20
-35.75
11
72.5714
21
-35.75
0
LINE
8
BLACK
10
72.5714
20
-35.75
11
72.4286
21
-35.6786
0
LINE
8
BLACK
10
72.4286
20
-35.6786
11
72.3571
21
-35.5357
0
LINE
8
BLACK
10
72.3571
20
-35.5357
11
72.3571
21
-35.25
0
LINE
8
BLACK
10
72.3571
20
-35.25
11
72.4286
21
-35.1071
0
LINE
8
BLACK
10
72.4286
20
-35.1071
11
72.5714
21
-35.0357
0
LINE
8
BLACK
10
72.5714
20
-35.0357
11
72.7143
21
-35.0357
0
LINE
8
BLACK
10
72.7143
20
-35.0357
11
72.8571
21
-35.75
0
LINE
8
BLACK
10
73.3571
20
-34.3929
11
72.3571
21
-34.3929
0
LINE
8
BLACK
10
72.5
20
-34.3929
11
72.4286
21
-34.3214
0
LINE
8
BLACK
10
72.4286
20
-34.3214
11
72.3571
21
-34.1786
0
LINE
8
BLACK
10
72.3571
20
-34.1786
11
72.3571
21
-33.9643
0
LINE
8
BLACK
10
72.3571
20
-33.9643
11
72.4286
21
-33.8214
0
LINE
8
BLACK
10
72.4286
20
-33.8214
11
72.5714
21
-33.75
0
LINE
8
BLACK
10
72.5714
20
-33.75
11
73.3571
21
-33.75
0
LINE
8
BLACK
10
72.5714
20
-33.75
11
72.4286
21
-33.6786
0
LINE
8
BLACK
10
72.4286
20
-33.6786
11
72.3571
21
-33.5357
0
LINE
8
BLACK
10
72.3571
20
-33.5357
11
72.3571
21
-33.3214
0
LINE
8
BLACK
10
72.3571
20
-33.3214
11
72.4286
21
-33.1786
0
LINE
8
BLACK
10
72.4286
20
-33.1786
11
72.5714
21
-33.1071
0
LINE
8
BLACK
10
72.5714
20
-33.1071
11
73.3571
21
-33.1071
0
LINE
8
BLACK
10
71.8571
20
-32.5357
11
71.8571
21
-31.5357
0
LINE
8
BLACK
10
71.8571
20
-31.5357
11
73.3571
21
-32.1786
0
LINE
8
BLACK
10
73.3571
20
-30.8929
11
73.3571
21
-30.6071
0
LINE
8
BLACK
10
73.3571
20
-30.6071
11
73.2857
21
-30.4643
0
LINE
8
BLACK
10
73.2857
20
-30.4643
11
73.2143
21
-30.3929
0
LINE
8
BLACK
10
73.2143
20
-30.3929
11
73
21
-30.25
0
LINE
8
BLACK
10
73
20
-30.25
11
72.7143
21
-30.1786
0
LINE
8
BLACK
10
72.7143
20
-30.1786
11
72.1429
21
-30.1786
0
LINE
8
BLACK
10
72.1429
20
-30.1786
11
72
21
-30.25
0
LINE
8
BLACK
10
72
20
-30.25
11
71.9286
21
-30.3214
0
LINE
8
BLACK
10
71.9286
20
-30.3214
11
71.8571
21
-30.4643
0
LINE
8
BLACK
10
71.8571
20
-30.4643
11
71.8571
21
-30.75
0
LINE
8
BLACK
10
71.8571
20
-30.75
11
71.9286
21
-30.8929
0
LINE
8
BLACK
10
71.9286
20
-30.8929
11
72
21
-30.9643
0
LINE
8
BLACK
10
72
20
-30.9643
11
72.1429
21
-31.0357
0
LINE
8
BLACK
10
72.1429
20
-31.0357
11
72.5
21
-31.0357
0
LINE
8
BLACK
10
72.5
20
-31.0357
11
72.6429
21
-30.9643
0
LINE
8
BLACK
10
72.6429
20
-30.9643
11
72.7143
21
-30.8929
0
LINE
8
BLACK
10
72.7143
20
-30.8929
11
72.7857
21
-30.75
0
LINE
8
BLACK
10
72.7857
20
-30.75
11
72.7857
21
-30.4643
0
LINE
8
BLACK
10
72.7857
20
-30.4643
11
72.7143
21
-30.3214
0
LINE
8
BLACK
10
72.7143
20
-30.3214
11
72.6429
21
-30.25
0
LINE
8
BLACK
10
72.6429
20
-30.25
11
72.5
21
-30.1786
0
LINE
8
BLACK
10
73.2143
20
-29.5357
11
73.2857
21
-29.4643
0
LINE
8
BLACK
10
73.2857
20
-29.4643
11
73.3571
21
-29.5357
0
LINE
8
BLACK
10
73.3571
20
-29.5357
11
73.2857
21
-29.6071
0
LINE
8
BLACK
10
73.2857
20
-29.6071
11
73.2143
21
-29.5357
0
LINE
8
BLACK
10
73.2143
20
-29.5357
11
73.3571
21
-29.5357
0
LINE
8
BLACK
10
73.2857
20
-28.1786
11
73.3571
21
-28.3214
0
LINE
8
BLACK
10
73.3571
20
-28.3214
11
73.3571
21
-28.6071
0
LINE
8
BLACK
10
73.3571
20
-28.6071
11
73.2857
21
-28.75
0
LINE
8
BLACK
10
73.2857
20
-28.75
11
73.2143
21
-28.8214
0
LINE
8
BLACK
10
73.2143
20
-28.8214
11
73.0714
21
-28.8929
0
LINE
8
BLACK
10
73.0714
20
-28.8929
11
72.6429
21
-28.8929
0
LINE
8
BLACK
10
72.6429
20
-28.8929
11
72.5
21
-28.8214
0
LINE
8
BLACK
10
72.5
20
-28.8214
11
72.4286
21
-28.75
0
LINE
8
BLACK
10
72.4286
20
-28.75
11
72.3571
21
-28.6071
0
LINE
8
BLACK
10
72.3571
20
-28.6071
11
72.3571
21
-28.3214
0
LINE
8
BLACK
10
72.3571
20
-28.3214
11
72.4286
21
-28.1786
0
LINE
8
BLACK
10
73.3571
20
-27.3214
11
73.2857
21
-27.4643
0
LINE
8
BLACK
10
73.2857
20
-27.4643
11
73.2143
21
-27.5357
0
LINE
8
BLACK
10
73.2143
20
-27.5357
11
73.0714
21
-27.6071
0
LINE
8
BLACK
10
73.0714
20
-27.6071
11
72.6429
21
-27.6071
0
LINE
8
BLACK
10
72.6429
20
-27.6071
11
72.5
21
-27.5357
0
LINE
8
BLACK
10
72.5
20
-27.5357
11
72.4286
21
-27.4643
0
LINE
8
BLACK
10
72.4286
20
-27.4643
11
72.3571
21
-27.3214
0
LINE
8
BLACK
10
72.3571
20
-27.3214
11
72.3571
21
-27.1071
0
LINE
8
BLACK
10
72.3571
20
-27.1071
11
72.4286
21
-26.9643
0
LINE
8
BLACK
10
72.4286
20
-26.9643
11
72.5
21
-26.8929
0
LINE
8
BLACK
10
72.5
20
-26.8929
11
72.6429
21
-26.8214
0
LINE
8
BLACK
10
72.6429
20
-26.8214
11
73.0714
21
-26.8214
0
LINE
8
BLACK
10
73.0714
20
-26.8214
11
73.2143
21
-26.8929
0
LINE
8
BLACK
10
73.2143
20
-26.8929
11
73.2857
21
-26.9643
0
LINE
8
BLACK
10
73.2857
20
-26.9643
11
73.3571
21
-27.1071
0
LINE
8
BLACK
10
73.3571
20
-27.1071
11
73.3571
21
-27.3214
0
LINE
8
BLACK
10
73.3571
20
-26.1786
11
72.3571
21
-26.1786
0
LINE
8
BLACK
10
72.5
20
-26.1786
11
72.4286
21
-26.1071
0
LINE
8
BLACK
10
72.4286
20
-26.1071
11
72.3571
21
-25.9643
0
LINE
8
BLACK
10
72.3571
20
-25.9643
11
72.3571
21
-25.75
0
LINE
8
BLACK
10
72.3571
20
-25.75
11
72.4286
21
-25.6071
0
LINE
8
BLACK
10
72.4286
20
-25.6071
11
72.5714
21
-25.5357
0
LINE
8
BLACK
10
72.5714
20
-25.5357
11
73.3571
21
-25.5357
0
LINE
8
BLACK
10
72.5714
20
-25.5357
11
72.4286
21
-25.4643
0
LINE
8
BLACK
10
72.4286
20
-25.4643
11
72.3571
21
-25.3214
0
LINE
8
BLACK
10
72.3571
20
-25.3214
11
72.3571
21
-25.1071
0
LINE
8
BLACK
10
72.3571
20
-25.1071
11
72.4286
21
-24.9643
0
LINE
8
BLACK
10
72.4286
20
-24.9643
11
72.5714
21
-24.8929
0
LINE
8
BLACK
10
72.5714
20
-24.8929
11
73.3571
21
-24.8929
0
CIRCLE
8
BLACK
10
58.15
20
-41.05
40
2.91548
0
LINE
8
BLACK
10
56.7333
20
-39.8119
11
57.9
21
-39.8119
0
LINE
8
BLACK
10
57.9
20
-39.8119
11
57.15
21
-42.3119
0
LINE
8
BLACK
10
58.65
20
-42.3119
11
58.9833
21
-42.3119
0
LINE
8
BLACK
10
58.9833
20
-42.3119
11
59.15
21
-42.1929
0
LINE
8
BLACK
10
59.15
20
-42.1929
11
59.2333
21
-42.0738
0
LINE
8
BLACK
10
59.2333
20
-42.0738
11
59.4
21
-41.7167
0
LINE
8
BLACK
10
59.4
20
-41.7167
11
59.4833
21
-41.2405
0
LINE
8
BLACK
10
59.4833
20
-41.2405
11
59.4833
21
-40.2881
0
LINE
8
BLACK
10
59.4833
20
-40.2881
11
59.4
21
-40.05
0
LINE
8
BLACK
10
59.4
20
-40.05
11
59.3167
21
-39.931
0
LINE
8
BLACK
10
59.3167
20
-39.931
11
59.15
21
-39.8119
0
LINE
8
BLACK
10
59.15
20
-39.8119
11
58.8167
21
-39.8119
0
LINE
8
BLACK
10
58.8167
20
-39.8119
11
58.65
21
-39.931
0
LINE
8
BLACK
10
58.65
20
-39.931
11
58.5667
21
-40.05
0
LINE
8
BLACK
10
58.5667
20
-40.05
11
58.4833
21
-40.2881
0
LINE
8
BLACK
10
58.4833
20
-40.2881
11
58.4833
21
-40.8833
0
LINE
8
BLACK
10
58.4833
20
-40.8833
11
58.5667
21
-41.1214
0
LINE
8
BLACK
10
58.5667
20
-41.1214
11
58.65
21
-41.2405
0
LINE
8
BLACK
10
58.65
20
-41.2405
11
58.8167
21
-41.3595
0
LINE
8
BLACK
10
58.8167
20
-41.3595
11
59.15
21
-41.3595
0
LINE
8
BLACK
10
59.15
20
-41.3595
11
59.3167
21
-41.2405
0
LINE
8
BLACK
10
59.3167
20
-41.2405
11
59.4
21
-41.1214
0
LINE
8
BLACK
10
59.4
20
-41.1214
11
59.4833
21
-40.8833
0
LINE
8
BLACK
10
28.7908
20
-29.2772
11
29.2989
21
-28.5153
0
LINE
8
BLACK
10
28.6851
20
-29.2067
11
29.1932
21
-28.4448
0
ARC
8
BLACK
10
29.2461
20
-28.48
40
0.0635
50
326.3
51
506.3
0
ARC
8
BLACK
10
28.7379
20
-29.242
40
0.0635
50
146.3
51
326.3
0
LINE
8
BLACK
10
28.8015
20
-31.02
11
28.8015
21
-28.4165
0
LINE
8
BLACK
10
28.6745
20
-31.02
11
28.6745
21
-28.4165
0
ARC
8
BLACK
10
28.738
20
-28.4165
40
0.0635
50
360
51
540
0
ARC
8
BLACK
10
28.738
20
-31.02
40
0.0635
50
180
51
360
0
LINE
8
BLACK
10
28.738
20
-28.48
11
30.262
21
-28.48
0
LINE
8
BLACK
10
28.738
20
-28.353
11
30.262
21
-28.353
0
ARC
8
BLACK
10
30.262
20
-28.4165
40
0.0635
50
270
51
450
0
ARC
8
BLACK
10
28.738
20
-28.4165
40
0.0635
50
90
51
270
0
LINE
8
BLACK
10
30.3255
20
-31.02
11
30.3255
21
-28.4165
0
LINE
8
BLACK
10
30.1985
20
-31.02
11
30.1985
21
-28.4165
0
ARC
8
BLACK
10
30.262
20
-28.4165
40
0.0635
50
360
51
540
0
ARC
8
BLACK
10
30.262
20
-31.02
40
0.0635
50
180
51
360
0
LINE
8
BLACK
10
28.738
20
-31.0835
11
30.262
21
-31.0835
0
LINE
8
BLACK
10
28.738
20
-30.9565
11
30.262
21
-30.9565
0
ARC
8
BLACK
10
30.262
20
-31.02
40
0.0635
50
270
51
450
0
ARC
8
BLACK
10
28.738
20
-31.02
40
0.0635
50
90
51
270
0
LINE
8
BLACK
10
40.3015
20
-38.7888
11
40.3015
21
-37.7728
0
LINE
8
BLACK
10
40.1745
20
-38.7888
11
40.1745
21
-37.7728
0
ARC
8
BLACK
10
40.238
20
-37.7728
40
0.0635
50
360
51
540
0
ARC
8
BLACK
10
40.238
20
-38.7888
40
0.0635
50
180
51
360
0
LINE
8
BLACK
10
40.238
20
-37.8363
11
41.762
21
-37.8363
0
LINE
8
BLACK
10
40.238
20
-37.7093
11
41.762
21
-37.7093
0
ARC
8
BLACK
10
41.762
20
-37.7728
40
0.0635
50
270
51
450
0
ARC
8
BLACK
10
40.238
20
-37.7728
40
0.0635
50
90
51
270
0
LINE
8
BLACK
10
41.8255
20
-38.7888
11
41.8255
21
-37.7728
0
LINE
8
BLACK
10
41.6985
20
-38.7888
11
41.6985
21
-37.7728
0
ARC
8
BLACK
10
41.762
20
-37.7728
40
0.0635
50
360
51
540
0
ARC
8
BLACK
10
41.762
20
-38.7888
40
0.0635
50
180
51
360
0
LINE
8
BLACK
10
41.8255
20
-41.2272
11
41.8255
21
-40.2112
0
LINE
8
BLACK
10
41.6985
20
-41.2272
11
41.6985
21
-40.2112
0
ARC
8
BLACK
10
41.762
20
-40.2112
40
0.0635
50
360
51
540
0
ARC
8
BLACK
10
41.762
20
-41.2272
40
0.0635
50
180
51
360
0
LINE
8
BLACK
10
40.238
20
-41.2907
11
41.762
21
-41.2907
0
LINE
8
BLACK
10
40.238
20
-41.1637
11
41.762
21
-41.1637
0
ARC
8
BLACK
10
41.762
20
-41.2272
40
0.0635
50
270
51
450
0
ARC
8
BLACK
10
40.238
20
-41.2272
40
0.0635
50
90
51
270
0
LINE
8
BLACK
10
40.3015
20
-41.2272
11
40.3015
21
-40.2112
0
LINE
8
BLACK
10
40.1745
20
-41.2272
11
40.1745
21
-40.2112
0
ARC
8
BLACK
10
40.238
20
-40.2112
40
0.0635
50
360
51
540
0
ARC
8
BLACK
10
40.238
20
-41.2272
40
0.0635
50
180
51
360
0
LINE
8
BLACK
10
40.3015
20
-33.7888
11
40.3015
21
-32.7728
0
LINE
8
BLACK
10
40.1745
20
-33.7888
11
40.1745
21
-32.7728
0
ARC
8
BLACK
10
40.238
20
-32.7728
40
0.0635
50
360
51
540
0
ARC
8
BLACK
10
40.238
20
-33.7888
40
0.0635
50
180
51
360
0
LINE
8
BLACK
10
40.238
20
-32.8363
11
41.762
21
-32.8363
0
LINE
8
BLACK
10
40.238
20
-32.7093
11
41.762
21
-32.7093
0
ARC
8
BLACK
10
41.762
20
-32.7728
40
0.0635
50
270
51
450
0
ARC
8
BLACK
10
40.238
20
-32.7728
40
0.0635
50
90
51
270
0
LINE
8
BLACK
10
41.8255
20
-33.7888
11
41.8255
21
-32.7728
0
LINE
8
BLACK
10
41.6985
20
-33.7888
11
41.6985
21
-32.7728
0
ARC
8
BLACK
10
41.762
20
-32.7728
40
0.0635
50
360
51
540
0
ARC
8
BLACK
10
41.762
20
-33.7888
40
0.0635
50
180
51
360
0
LINE
8
BLACK
10
41.8255
20
-36.2272
11
41.8255
21
-35.2112
0
LINE
8
BLACK
10
41.6985
20
-36.2272
11
41.6985
21
-35.2112
0
ARC
8
BLACK
10
41.762
20
-35.2112
40
0.0635
50
360
51
540
0
ARC
8
BLACK
10
41.762
20
-36.2272
40
0.0635
50
180
51
360
0
LINE
8
BLACK
10
40.238
20
-36.2907
11
41.762
21
-36.2907
0
LINE
8
BLACK
10
40.238
20
-36.1637
11
41.762
21
-36.1637
0
ARC
8
BLACK
10
41.762
20
-36.2272
40
0.0635
50
270
51
450
0
ARC
8
BLACK
10
40.238
20
-36.2272
40
0.0635
50
90
51
270
0
LINE
8
BLACK
10
40.3015
20
-36.2272
11
40.3015
21
-35.2112
0
LINE
8
BLACK
10
40.1745
20
-36.2272
11
40.1745
21
-35.2112
0
ARC
8
BLACK
10
40.238
20
-35.2112
40
0.0635
50
360
51
540
0
ARC
8
BLACK
10
40.238
20
-36.2272
40
0.0635
50
180
51
360
0
LINE
8
BLACK
10
44.5755
20
-28.2272
11
44.5755
21
-27.2112
0
LINE
8
BLACK
10
44.4485
20
-28.2272
11
44.4485
21
-27.2112
0
ARC
8
BLACK
10
44.512
20
-27.2112
40
0.0635
50
360
51
540
0
ARC
8
BLACK
10
44.512
20
-28.2272
40
0.0635
50
180
51
360
0
LINE
8
BLACK
10
42.988
20
-28.2907
11
44.512
21
-28.2907
0
LINE
8
BLACK
10
42.988
20
-28.1637
11
44.512
21
-28.1637
0
ARC
8
BLACK
10
44.512
20
-28.2272
40
0.0635
50
270
51
450
0
ARC
8
BLACK
10
42.988
20
-28.2272
40
0.0635
50
90
51
270
0
LINE
8
BLACK
10
43.0515
20
-28.2272
11
43.0515
21
-27.2112
0
LINE
8
BLACK
10
42.9245
20
-28.2272
11
42.9245
21
-27.2112
0
ARC
8
BLACK
10
42.988
20
-27.2112
40
0.0635
50
360
51
540
0
ARC
8
BLACK
10
42.988
20
-28.2272
40
0.0635
50
180
51
360
0
LINE
8
BLACK
10
43.0515
20
-25.7888
11
43.0515
21
-24.7728
0
LINE
8
BLACK
10
42.9245
20
-25.7888
11
42.9245
21
-24.7728
0
ARC
8
BLACK
10
42.988
20
-24.7728
40
0.0635
50
360
51
540
0
ARC
8
BLACK
10
42.988
20
-25.7888
40
0.0635
50
180
51
360
0
LINE
8
BLACK
10
42.988
20
-24.8363
11
44.512
21
-24.8363
0
LINE
8
BLACK
10
42.988
20
-24.7093
11
44.512
21
-24.7093
0
ARC
8
BLACK
10
44.512
20
-24.7728
40
0.0635
50
270
51
450
0
ARC
8
BLACK
10
42.988
20
-24.7728
40
0.0635
50
90
51
270
0
LINE
8
BLACK
10
44.5755
20
-25.7888
11
44.5755
21
-24.7728
0
LINE
8
BLACK
10
44.4485
20
-25.7888
11
44.4485
21
-24.7728
0
ARC
8
BLACK
10
44.512
20
-24.7728
40
0.0635
50
360
51
540
0
ARC
8
BLACK
10
44.512
20
-25.7888
40
0.0635
50
180
51
360
0
LINE
8
BLACK
10
66.7728
20
-39.3255
11
67.7888
21
-39.3255
0
LINE
8
BLACK
10
66.7728
20
-39.1985
11
67.7888
21
-39.1985
0
ARC
8
BLACK
10
67.7888
20
-39.262
40
0.0635
50
270
51
450
0
ARC
8
BLACK
10
66.7728
20
-39.262
40
0.0635
50
90
51
270
0
LINE
8
BLACK
10
66.8363
20
-39.262
11
66.8363
21
-37.738
0
LINE
8
BLACK
10
66.7093
20
-39.262
11
66.7093
21
-37.738
0
ARC
8
BLACK
10
66.7728
20
-37.738
40
0.0635
50
360
51
540
0
ARC
8
BLACK
10
66.7728
20
-39.262
40
0.0635
50
180
51
360
0
LINE
8
BLACK
10
66.7728
20
-37.8015
11
67.7888
21
-37.8015
0
LINE
8
BLACK
10
66.7728
20
-37.6745
11
67.7888
21
-37.6745
0
ARC
8
BLACK
10
67.7888
20
-37.738
40
0.0635
50
270
51
450
0
ARC
8
BLACK
10
66.7728
20
-37.738
40
0.0635
50
90
51
270
0
LINE
8
BLACK
10
69.2112
20
-37.8015
11
70.2272
21
-37.8015
0
LINE
8
BLACK
10
69.2112
20
-37.6745
11
70.2272
21
-37.6745
0
ARC
8
BLACK
10
70.2272
20
-37.738
40
0.0635
50
270
51
450
0
ARC
8
BLACK
10
69.2112
20
-37.738
40
0.0635
50
90
51
270
0
LINE
8
BLACK
10
70.2907
20
-39.262
11
70.2907
21
-37.738
0
LINE
8
BLACK
10
70.1637
20
-39.262
11
70.1637
21
-37.738
0
ARC
8
BLACK
10
70.2272
20
-37.738
40
0.0635
50
360
51
540
0
ARC
8
BLACK
10
70.2272
20
-39.262
40
0.0635
50
180
51
360
0
LINE
8
BLACK
10
69.2112
20
-39.3255
11
70.2272
21
-39.3255
0
LINE
8
BLACK
10
69.2112
20
-39.1985
11
70.2272
21
-39.1985
0
ARC
8
BLACK
10
70.2272
20
-39.262
40
0.0635
50
270
51
450
0
ARC
8
BLACK
10
69.2112
20
-39.262
40
0.0635
50
90
51
270
0
LINE
8
BLACK
10
66.7728
20
-36.3255
11
67.7888
21
-36.3255
0
LINE
8
BLACK
10
66.7728
20
-36.1985
11
67.7888
21
-36.1985
0
ARC
8
BLACK
10
67.7888
20
-36.262
40
0.0635
50
270
51
450
0
ARC
8
BLACK
10
66.7728
20
-36.262
40
0.0635
50
90
51
270
0
LINE
8
BLACK
10
66.8363
20
-36.262
11
66.8363
21
-34.738
0
LINE
8
BLACK
10
66.7093
20
-36.262
11
66.7093
21
-34.738
0
ARC
8
BLACK
10
66.7728
20
-34.738
40
0.0635
50
360
51
540
0
ARC
8
BLACK
10
66.7728
20
-36.262
40
0.0635
50
180
51
360
0
LINE
8
BLACK
10
66.7728
20
-34.8015
11
67.7888
21
-34.8015
0
LINE
8
BLACK
10
66.7728
20
-34.6745
11
67.7888
21
-34.6745
0
ARC
8
BLACK
10
67.7888
20
-34.738
40
0.0635
50
270
51
450
0
ARC
8
BLACK
10
66.7728
20
-34.738
40
0.0635
50
90
51
270
0
LINE
8
BLACK
10
69.2112
20
-34.8015
11
70.2272
21
-34.8015
0
LINE
8
BLACK
10
69.2112
20
-34.6745
11
70.2272
21
-34.6745
0
ARC
8
BLACK
10
70.2272
20
-34.738
40
0.0635
50
270
51
450
0
ARC
8
BLACK
10
69.2112
20
-34.738
40
0.0635
50
90
51
270
0
LINE
8
BLACK
10
70.2907
20
-36.262
11
70.2907
21
-34.738
0
LINE
8
BLACK
10
70.1637
20
-36.262
11
70.1637
21
-34.738
0
ARC
8
BLACK
10
70.2272
20
-34.738
40
0.0635
50
360
51
540
0
ARC
8
BLACK
10
70.2272
20
-36.262
40
0.0635
50
180
51
360
0
LINE
8
BLACK
10
69.2112
20
-36.3255
11
70.2272
21
-36.3255
0
LINE
8
BLACK
10
69.2112
20
-36.1985
11
70.2272
21
-36.1985
0
ARC
8
BLACK
10
70.2272
20
-36.262
40
0.0635
50
270
51
450
0
ARC
8
BLACK
10
69.2112
20
-36.262
40
0.0635
50
90
51
270
0
LINE
8
BLACK
10
66.7728
20
-33.3255
11
67.7888
21
-33.3255
0
LINE
8
BLACK
10
66.7728
20
-33.1985
11
67.7888
21
-33.1985
0
ARC
8
BLACK
10
67.7888
20
-33.262
40
0.0635
50
270
51
450
0
ARC
8
BLACK
10
66.7728
20
-33.262
40
0.0635
50
90
51
270
0
LINE
8
BLACK
10
66.8363
20
-33.262
11
66.8363
21
-31.738
0
LINE
8
BLACK
10
66.7093
20
-33.262
11
66.7093
21
-31.738
0
ARC
8
BLACK
10
66.7728
20
-31.738
40
0.0635
50
360
51
540
0
ARC
8
BLACK
10
66.7728
20
-33.262
40
0.0635
50
180
51
360
0
LINE
8
BLACK
10
66.7728
20
-31.8015
11
67.7888
21
-31.8015
0
LINE
8
BLACK
10
66.7728
20
-31.6745
11
67.7888
21
-31.6745
0
ARC
8
BLACK
10
67.7888
20
-31.738
40
0.0635
50
270
51
450
0
ARC
8
BLACK
10
66.7728
20
-31.738
40
0.0635
50
90
51
270
0
LINE
8
BLACK
10
69.2112
20
-31.8015
11
70.2272
21
-31.8015
0
LINE
8
BLACK
10
69.2112
20
-31.6745
11
70.2272
21
-31.6745
0
ARC
8
BLACK
10
70.2272
20
-31.738
40
0.0635
50
270
51
450
0
ARC
8
BLACK
10
69.2112
20
-31.738
40
0.0635
50
90
51
270
0
LINE
8
BLACK
10
70.2907
20
-33.262
11
70.2907
21
-31.738
0
LINE
8
BLACK
10
70.1637
20
-33.262
11
70.1637
21
-31.738
0
ARC
8
BLACK
10
70.2272
20
-31.738
40
0.0635
50
360
51
540
0
ARC
8
BLACK
10
70.2272
20
-33.262
40
0.0635
50
180
51
360
0
LINE
8
BLACK
10
69.2112
20
-33.3255
11
70.2272
21
-33.3255
0
LINE
8
BLACK
10
69.2112
20
-33.1985
11
70.2272
21
-33.1985
0
ARC
8
BLACK
10
70.2272
20
-33.262
40
0.0635
50
270
51
450
0
ARC
8
BLACK
10
69.2112
20
-33.262
40
0.0635
50
90
51
270
0
LINE
8
BLACK
10
66.7728
20
-30.3255
11
67.7888
21
-30.3255
0
LINE
8
BLACK
10
66.7728
20
-30.1985
11
67.7888
21
-30.1985
0
ARC
8
BLACK
10
67.7888
20
-30.262
40
0.0635
50
270
51
450
0
ARC
8
BLACK
10
66.7728
20
-30.262
40
0.0635
50
90
51
270
0
LINE
8
BLACK
10
66.8363
20
-30.262
11
66.8363
21
-28.738
0
LINE
8
BLACK
10
66.7093
20
-30.262
11
66.7093
21
-28.738
0
ARC
8
BLACK
10
66.7728
20
-28.738
40
0.0635
50
360
51
540
0
ARC
8
BLACK
10
66.7728
20
-30.262
40
0.0635
50
180
51
360
0
LINE
8
BLACK
10
66.7728
20
-28.8015
11
67.7888
21
-28.8015
0
LINE
8
BLACK
10
66.7728
20
-28.6745
11
67.7888
21
-28.6745
0
ARC
8
BLACK
10
67.7888
20
-28.738
40
0.0635
50
270
51
450
0
ARC
8
BLACK
10
66.7728
20
-28.738
40
0.0635
50
90
51
270
0
LINE
8
BLACK
10
69.2112
20
-28.8015
11
70.2272
21
-28.8015
0
LINE
8
BLACK
10
69.2112
20
-28.6745
11
70.2272
21
-28.6745
0
ARC
8
BLACK
10
70.2272
20
-28.738
40
0.0635
50
270
51
450
0
ARC
8
BLACK
10
69.2112
20
-28.738
40
0.0635
50
90
51
270
0
LINE
8
BLACK
10
70.2907
20
-30.262
11
70.2907
21
-28.738
0
LINE
8
BLACK
10
70.1637
20
-30.262
11
70.1637
21
-28.738
0
ARC
8
BLACK
10
70.2272
20
-28.738
40
0.0635
50
360
51
540
0
ARC
8
BLACK
10
70.2272
20
-30.262
40
0.0635
50
180
51
360
0
LINE
8
BLACK
10
69.2112
20
-30.3255
11
70.2272
21
-30.3255
0
LINE
8
BLACK
10
69.2112
20
-30.1985
11
70.2272
21
-30.1985
0
ARC
8
BLACK
10
70.2272
20
-30.262
40
0.0635
50
270
51
450
0
ARC
8
BLACK
10
69.2112
20
-30.262
40
0.0635
50
90
51
270
0
LINE
8
BLACK
10
66.7728
20
-27.3255
11
67.7888
21
-27.3255
0
LINE
8
BLACK
10
66.7728
20
-27.1985
11
67.7888
21
-27.1985
0
ARC
8
BLACK
10
67.7888
20
-27.262
40
0.0635
50
270
51
450
0
ARC
8
BLACK
10
66.7728
20
-27.262
40
0.0635
50
90
51
270
0
LINE
8
BLACK
10
66.8363
20
-27.262
11
66.8363
21
-25.738
0
LINE
8
BLACK
10
66.7093
20
-27.262
11
66.7093
21
-25.738
0
ARC
8
BLACK
10
66.7728
20
-25.738
40
0.0635
50
360
51
540
0
ARC
8
BLACK
10
66.7728
20
-27.262
40
0.0635
50
180
51
360
0
LINE
8
BLACK
10
66.7728
20
-25.8015
11
67.7888
21
-25.8015
0
LINE
8
BLACK
10
66.7728
20
-25.6745
11
67.7888
21
-25.6745
0
ARC
8
BLACK
10
67.7888
20
-25.738
40
0.0635
50
270
51
450
0
ARC
8
BLACK
10
66.7728
20
-25.738
40
0.0635
50
90
51
270
0
LINE
8
BLACK
10
69.2112
20
-25.8015
11
70.2272
21
-25.8015
0
LINE
8
BLACK
10
69.2112
20
-25.6745
11
70.2272
21
-25.6745
0
ARC
8
BLACK
10
70.2272
20
-25.738
40
0.0635
50
270
51
450
0
ARC
8
BLACK
10
69.2112
20
-25.738
40
0.0635
50
90
51
270
0
LINE
8
BLACK
10
70.2907
20
-27.262
11
70.2907
21
-25.738
0
LINE
8
BLACK
10
70.1637
20
-27.262
11
70.1637
21
-25.738
0
ARC
8
BLACK
10
70.2272
20
-25.738
40
0.0635
50
360
51
540
0
ARC
8
BLACK
10
70.2272
20
-27.262
40
0.0635
50
180
51
360
0
LINE
8
BLACK
10
69.2112
20
-27.3255
11
70.2272
21
-27.3255
0
LINE
8
BLACK
10
69.2112
20
-27.1985
11
70.2272
21
-27.1985
0
ARC
8
BLACK
10
70.2272
20
-27.262
40
0.0635
50
270
51
450
0
ARC
8
BLACK
10
69.2112
20
-27.262
40
0.0635
50
90
51
270
0
LINE
8
BLACK
10
32.2728
20
-30.0755
11
33.2888
21
-30.0755
0
LINE
8
BLACK
10
32.2728
20
-29.9485
11
33.2888
21
-29.9485
0
ARC
8
BLACK
10
33.2888
20
-30.012
40
0.0635
50
270
51
450
0
ARC
8
BLACK
10
32.2728
20
-30.012
40
0.0635
50
90
51
270
0
LINE
8
BLACK
10
32.3363
20
-30.012
11
32.3363
21
-28.488
0
LINE
8
BLACK
10
32.2093
20
-30.012
11
32.2093
21
-28.488
0
ARC
8
BLACK
10
32.2728
20
-28.488
40
0.0635
50
360
51
540
0
ARC
8
BLACK
10
32.2728
20
-30.012
40
0.0635
50
180
51
360
0
LINE
8
BLACK
10
32.2728
20
-28.5515
11
33.2888
21
-28.5515
0
LINE
8
BLACK
10
32.2728
20
-28.4245
11
33.2888
21
-28.4245
0
ARC
8
BLACK
10
33.2888
20
-28.488
40
0.0635
50
270
51
450
0
ARC
8
BLACK
10
32.2728
20
-28.488
40
0.0635
50
90
51
270
0
LINE
8
BLACK
10
34.7112
20
-28.5515
11
35.7272
21
-28.5515
0
LINE
8
BLACK
10
34.7112
20
-28.4245
11
35.7272
21
-28.4245
0
ARC
8
BLACK
10
35.7272
20
-28.488
40
0.0635
50
270
51
450
0
ARC
8
BLACK
10
34.7112
20
-28.488
40
0.0635
50
90
51
270
0
LINE
8
BLACK
10
35.7907
20
-30.012
11
35.7907
21
-28.488
0
LINE
8
BLACK
10
35.6637
20
-30.012
11
35.6637
21
-28.488
0
ARC
8
BLACK
10
35.7272
20
-28.488
40
0.0635
50
360
51
540
0
ARC
8
BLACK
10
35.7272
20
-30.012
40
0.0635
50
180
51
360
0
LINE
8
BLACK
10
34.7112
20
-30.0755
11
35.7272
21
-30.0755
0
LINE
8
BLACK
10
34.7112
20
-29.9485
11
35.7272
21
-29.9485
0
ARC
8
BLACK
10
35.7272
20
-30.012
40
0.0635
50
270
51
450
0
ARC
8
BLACK
10
34.7112
20
-30.012
40
0.0635
50
90
51
270
0
LINE
8
BLACK
10
27.7728
20
-25.0755
11
28.7888
21
-25.0755
0
LINE
8
BLACK
10
27.7728
20
-24.9485
11
28.7888
21
-24.9485
0
ARC
8
BLACK
10
28.7888
20
-25.012
40
0.0635
50
270
51
450
0
ARC
8
BLACK
10
27.7728
20
-25.012
40
0.0635
50
90
51
270
0
LINE
8
BLACK
10
27.8363
20
-25.012
11
27.8363
21
-23.488
0
LINE
8
BLACK
10
27.7093
20
-25.012
11
27.7093
21
-23.488
0
ARC
8
BLACK
10
27.7728
20
-23.488
40
0.0635
50
360
51
540
0
ARC
8
BLACK
10
27.7728
20
-25.012
40
0.0635
50
180
51
360
0
LINE
8
BLACK
10
27.7728
20
-23.5515
11
28.7888
21
-23.5515
0
LINE
8
BLACK
10
27.7728
20
-23.4245
11
28.7888
21
-23.4245
0
ARC
8
BLACK
10
28.7888
20
-23.488
40
0.0635
50
270
51
450
0
ARC
8
BLACK
10
27.7728
20
-23.488
40
0.0635
50
90
51
270
0
LINE
8
BLACK
10
30.2112
20
-23.5515
11
31.2272
21
-23.5515
0
LINE
8
BLACK
10
30.2112
20
-23.4245
11
31.2272
21
-23.4245
0
ARC
8
BLACK
10
31.2272
20
-23.488
40
0.0635
50
270
51
450
0
ARC
8
BLACK
10
30.2112
20
-23.488
40
0.0635
50
90
51
270
0
LINE
8
BLACK
10
31.2907
20
-25.012
11
31.2907
21
-23.488
0
LINE
8
BLACK
10
31.1637
20
-25.012
11
31.1637
21
-23.488
0
ARC
8
BLACK
10
31.2272
20
-23.488
40
0.0635
50
360
51
540
0
ARC
8
BLACK
10
31.2272
20
-25.012
40
0.0635
50
180
51
360
0
LINE
8
BLACK
10
30.2112
20
-25.0755
11
31.2272
21
-25.0755
0
LINE
8
BLACK
10
30.2112
20
-24.9485
11
31.2272
21
-24.9485
0
ARC
8
BLACK
10
31.2272
20
-25.012
40
0.0635
50
270
51
450
0
ARC
8
BLACK
10
30.2112
20
-25.012
40
0.0635
50
90
51
270
0
LINE
8
BLACK
10
32.2728
20
-25.0755
11
33.2888
21
-25.0755
0
LINE
8
BLACK
10
32.2728
20
-24.9485
11
33.2888
21
-24.9485
0
ARC
8
BLACK
10
33.2888
20
-25.012
40
0.0635
50
270
51
450
0
ARC
8
BLACK
10
32.2728
20
-25.012
40
0.0635
50
90
51
270
0
LINE
8
BLACK
10
32.3363
20
-25.012
11
32.3363
21
-23.488
0
LINE
8
BLACK
10
32.2093
20
-25.012
11
32.2093
21
-23.488
0
ARC
8
BLACK
10
32.2728
20
-23.488
40
0.0635
50
360
51
540
0
ARC
8
BLACK
10
32.2728
20
-25.012
40
0.0635
50
180
51
360
0
LINE
8
BLACK
10
32.2728
20
-23.5515
11
33.2888
21
-23.5515
0
LINE
8
BLACK
10
32.2728
20
-23.4245
11
33.2888
21
-23.4245
0
ARC
8
BLACK
10
33.2888
20
-23.488
40
0.0635
50
270
51
450
0
ARC
8
BLACK
10
32.2728
20
-23.488
40
0.0635
50
90
51
270
0
LINE
8
BLACK
10
34.7112
20
-23.5515
11
35.7272
21
-23.5515
0
LINE
8
BLACK
10
34.7112
20
-23.4245
11
35.7272
21
-23.4245
0
ARC
8
BLACK
10
35.7272
20
-23.488
40
0.0635
50
270
51
450
0
ARC
8
BLACK
10
34.7112
20
-23.488
40
0.0635
50
90
51
270
0
LINE
8
BLACK
10
35.7907
20
-25.012
11
35.7907
21
-23.488
0
LINE
8
BLACK
10
35.6637
20
-25.012
11
35.6637
21
-23.488
0
ARC
8
BLACK
10
35.7272
20
-23.488
40
0.0635
50
360
51
540
0
ARC
8
BLACK
10
35.7272
20
-25.012
40
0.0635
50
180
51
360
0
LINE
8
BLACK
10
34.7112
20
-25.0755
11
35.7272
21
-25.0755
0
LINE
8
BLACK
10
34.7112
20
-24.9485
11
35.7272
21
-24.9485
0
ARC
8
BLACK
10
35.7272
20
-25.012
40
0.0635
50
270
51
450
0
ARC
8
BLACK
10
34.7112
20
-25.012
40
0.0635
50
90
51
270
0
LINE
8
BLACK
10
47.0755
20
-28.2272
11
47.0755
21
-27.2112
0
LINE
8
BLACK
10
46.9485
20
-28.2272
11
46.9485
21
-27.2112
0
ARC
8
BLACK
10
47.012
20
-27.2112
40
0.0635
50
360
51
540
0
ARC
8
BLACK
10
47.012
20
-28.2272
40
0.0635
50
180
51
360
0
LINE
8
BLACK
10
45.488
20
-28.2907
11
47.012
21
-28.2907
0
LINE
8
BLACK
10
45.488
20
-28.1637
11
47.012
21
-28.1637
0
ARC
8
BLACK
10
47.012
20
-28.2272
40
0.0635
50
270
51
450
0
ARC
8
BLACK
10
45.488
20
-28.2272
40
0.0635
50
90
51
270
0
LINE
8
BLACK
10
45.5515
20
-28.2272
11
45.5515
21
-27.2112
0
LINE
8
BLACK
10
45.4245
20
-28.2272
11
45.4245
21
-27.2112
0
ARC
8
BLACK
10
45.488
20
-27.2112
40
0.0635
50
360
51
540
0
ARC
8
BLACK
10
45.488
20
-28.2272
40
0.0635
50
180
51
360
0
LINE
8
BLACK
10
45.5515
20
-25.7888
11
45.5515
21
-24.7728
0
LINE
8
BLACK
10
45.4245
20
-25.7888
11
45.4245
21
-24.7728
0
ARC
8
BLACK
10
45.488
20
-24.7728
40
0.0635
50
360
51
540
0
ARC
8
BLACK
10
45.488
20
-25.7888
40
0.0635
50
180
51
360
0
LINE
8
BLACK
10
45.488
20
-24.8363
11
47.012
21
-24.8363
0
LINE
8
BLACK
10
45.488
20
-24.7093
11
47.012
21
-24.7093
0
ARC
8
BLACK
10
47.012
20
-24.7728
40
0.0635
50
270
51
450
0
ARC
8
BLACK
10
45.488
20
-24.7728
40
0.0635
50
90
51
270
0
LINE
8
BLACK
10
47.0755
20
-25.7888
11
47.0755
21
-24.7728
0
LINE
8
BLACK
10
46.9485
20
-25.7888
11
46.9485
21
-24.7728
0
ARC
8
BLACK
10
47.012
20
-24.7728
40
0.0635
50
360
51
540
0
ARC
8
BLACK
10
47.012
20
-25.7888
40
0.0635
50
180
51
360
0
LINE
8
BLACK
10
53.5515
20
-36.2888
11
53.5515
21
-35.2728
0
LINE
8
BLACK
10
53.4245
20
-36.2888
11
53.4245
21
-35.2728
0
ARC
8
BLACK
10
53.488
20
-35.2728
40
0.0635
50
360
51
540
0
ARC
8
BLACK
10
53.488
20
-36.2888
40
0.0635
50
180
51
360
0
LINE
8
BLACK
10
53.488
20
-35.3363
11
55.012
21
-35.3363
0
LINE
8
BLACK
10
53.488
20
-35.2093
11
55.012
21
-35.2093
0
ARC
8
BLACK
10
55.012
20
-35.2728
40
0.0635
50
270
51
450
0
ARC
8
BLACK
10
53.488
20
-35.2728
40
0.0635
50
90
51
270
0
LINE
8
BLACK
10
55.0755
20
-36.2888
11
55.0755
21
-35.2728
0
LINE
8
BLACK
10
54.9485
20
-36.2888
11
54.9485
21
-35.2728
0
ARC
8
BLACK
10
55.012
20
-35.2728
40
0.0635
50
360
51
540
0
ARC
8
BLACK
10
55.012
20
-36.2888
40
0.0635
50
180
51
360
0
LINE
8
BLACK
10
55.0755
20
-38.7272
11
55.0755
21
-37.7112
0
LINE
8
BLACK
10
54.9485
20
-38.7272
11
54.9485
21
-37.7112
0
ARC
8
BLACK
10
55.012
20
-37.7112
40
0.0635
50
360
51
540
0
ARC
8
BLACK
10
55.012
20
-38.7272
40
0.0635
50
180
51
360
0
LINE
8
BLACK
10
53.488
20
-38.7907
11
55.012
21
-38.7907
0
LINE
8
BLACK
10
53.488
20
-38.6637
11
55.012
21
-38.6637
0
ARC
8
BLACK
10
55.012
20
-38.7272
40
0.0635
50
270
51
450
0
ARC
8
BLACK
10
53.488
20
-38.7272
40
0.0635
50
90
51
270
0
LINE
8
BLACK
10
53.5515
20
-38.7272
11
53.5515
21
-37.7112
0
LINE
8
BLACK
10
53.4245
20
-38.7272
11
53.4245
21
-37.7112
0
ARC
8
BLACK
10
53.488
20
-37.7112
40
0.0635
50
360
51
540
0
ARC
8
BLACK
10
53.488
20
-38.7272
40
0.0635
50
180
51
360
0
LINE
8
BLACK
10
36.5515
20
-43.7888
11
36.5515
21
-42.7728
0
LINE
8
BLACK
10
36.4245
20
-43.7888
11
36.4245
21
-42.7728
0
ARC
8
BLACK
10
36.488
20
-42.7728
40
0.0635
50
360
51
540
0
ARC
8
BLACK
10
36.488
20
-43.7888
40
0.0635
50
180
51
360
0
LINE
8
BLACK
10
36.488
20
-42.8363
11
38.012
21
-42.8363
0
LINE
8
BLACK
10
36.488
20
-42.7093
11
38.012
21
-42.7093
0
ARC
8
BLACK
10
38.012
20
-42.7728
40
0.0635
50
270
51
450
0
ARC
8
BLACK
10
36.488
20
-42.7728
40
0.0635
50
90
51
270
0
LINE
8
BLACK
10
38.0755
20
-43.7888
11
38.0755
21
-42.7728
0
LINE
8
BLACK
10
37.9485
20
-43.7888
11
37.9485
21
-42.7728
0
ARC
8
BLACK
10
38.012
20
-42.7728
40
0.0635
50
360
51
540
0
ARC
8
BLACK
10
38.012
20
-43.7888
40
0.0635
50
180
51
360
0
LINE
8
BLACK
10
38.0755
20
-46.2272
11
38.0755
21
-45.2112
0
LINE
8
BLACK
10
37.9485
20
-46.2272
11
37.9485
21
-45.2112
0
ARC
8
BLACK
10
38.012
20
-45.2112
40
0.0635
50
360
51
540
0
ARC
8
BLACK
10
38.012
20
-46.2272
40
0.0635
50
180
51
360
0
LINE
8
BLACK
10
36.488
20
-46.2907
11
38.012
21
-46.2907
0
LINE
8
BLACK
10
36.488
20
-46.1637
11
38.012
21
-46.1637
0
ARC
8
BLACK
10
38.012
20
-46.2272
40
0.0635
50
270
51
450
0
ARC
8
BLACK
10
36.488
20
-46.2272
40
0.0635
50
90
51
270
0
LINE
8
BLACK
10
36.5515
20
-46.2272
11
36.5515
21
-45.2112
0
LINE
8
BLACK
10
36.4245
20
-46.2272
11
36.4245
21
-45.2112
0
ARC
8
BLACK
10
36.488
20
-45.2112
40
0.0635
50
360
51
540
0
ARC
8
BLACK
10
36.488
20
-46.2272
40
0.0635
50
180
51
360
0
LINE
8
BLACK
10
32.2728
20
-27.5755
11
33.2888
21
-27.5755
0
LINE
8
BLACK
10
32.2728
20
-27.4485
11
33.2888
21
-27.4485
0
ARC
8
BLACK
10
33.2888
20
-27.512
40
0.0635
50
270
51
450
0
ARC
8
BLACK
10
32.2728
20
-27.512
40
0.0635
50
90
51
270
0
LINE
8
BLACK
10
32.3363
20
-27.512
11
32.3363
21
-25.988
0
LINE
8
BLACK
10
32.2093
20
-27.512
11
32.2093
21
-25.988
0
ARC
8
BLACK
10
32.2728
20
-25.988
40
0.0635
50
360
51
540
0
ARC
8
BLACK
10
32.2728
20
-27.512
40
0.0635
50
180
51
360
0
LINE
8
BLACK
10
32.2728
20
-26.0515
11
33.2888
21
-26.0515
0
LINE
8
BLACK
10
32.2728
20
-25.9245
11
33.2888
21
-25.9245
0
ARC
8
BLACK
10
33.2888
20
-25.988
40
0.0635
50
270
51
450
0
ARC
8
BLACK
10
32.2728
20
-25.988
40
0.0635
50
90
51
270
0
LINE
8
BLACK
10
34.7112
20
-26.0515
11
35.7272
21
-26.0515
0
LINE
8
BLACK
10
34.7112
20
-25.9245
11
35.7272
21
-25.9245
0
ARC
8
BLACK
10
35.7272
20
-25.988
40
0.0635
50
270
51
450
0
ARC
8
BLACK
10
34.7112
20
-25.988
40
0.0635
50
90
51
270
0
LINE
8
BLACK
10
35.7907
20
-27.512
11
35.7907
21
-25.988
0
LINE
8
BLACK
10
35.6637
20
-27.512
11
35.6637
21
-25.988
0
ARC
8
BLACK
10
35.7272
20
-25.988
40
0.0635
50
360
51
540
0
ARC
8
BLACK
10
35.7272
20
-27.512
40
0.0635
50
180
51
360
0
LINE
8
BLACK
10
34.7112
20
-27.5755
11
35.7272
21
-27.5755
0
LINE
8
BLACK
10
34.7112
20
-27.4485
11
35.7272
21
-27.4485
0
ARC
8
BLACK
10
35.7272
20
-27.512
40
0.0635
50
270
51
450
0
ARC
8
BLACK
10
34.7112
20
-27.512
40
0.0635
50
90
51
270
0
LINE
8
BLACK
10
35.3255
20
-46.2272
11
35.3255
21
-45.2112
0
LINE
8
BLACK
10
35.1985
20
-46.2272
11
35.1985
21
-45.2112
0
ARC
8
BLACK
10
35.262
20
-45.2112
40
0.0635
50
360
51
540
0
ARC
8
BLACK
10
35.262
20
-46.2272
40
0.0635
50
180
51
360
0
LINE
8
BLACK
10
33.738
20
-46.2907
11
35.262
21
-46.2907
0
LINE
8
BLACK
10
33.738
20
-46.1637
11
35.262
21
-46.1637
0
ARC
8
BLACK
10
35.262
20
-46.2272
40
0.0635
50
270
51
450
0
ARC
8
BLACK
10
33.738
20
-46.2272
40
0.0635
50
90
51
270
0
LINE
8
BLACK
10
33.8015
20
-46.2272
11
33.8015
21
-45.2112
0
LINE
8
BLACK
10
33.6745
20
-46.2272
11
33.6745
21
-45.2112
0
ARC
8
BLACK
10
33.738
20
-45.2112
40
0.0635
50
360
51
540
0
ARC
8
BLACK
10
33.738
20
-46.2272
40
0.0635
50
180
51
360
0
LINE
8
BLACK
10
33.8015
20
-43.7888
11
33.8015
21
-42.7728
0
LINE
8
BLACK
10
33.6745
20
-43.7888
11
33.6745
21
-42.7728
0
ARC
8
BLACK
10
33.738
20
-42.7728
40
0.0635
50
360
51
540
0
ARC
8
BLACK
10
33.738
20
-43.7888
40
0.0635
50
180
51
360
0
LINE
8
BLACK
10
33.738
20
-42.8363
11
35.262
21
-42.8363
0
LINE
8
BLACK
10
33.738
20
-42.7093
11
35.262
21
-42.7093
0
ARC
8
BLACK
10
35.262
20
-42.7728
40
0.0635
50
270
51
450
0
ARC
8
BLACK
10
33.738
20
-42.7728
40
0.0635
50
90
51
270
0
LINE
8
BLACK
10
35.3255
20
-43.7888
11
35.3255
21
-42.7728
0
LINE
8
BLACK
10
35.1985
20
-43.7888
11
35.1985
21
-42.7728
0
ARC
8
BLACK
10
35.262
20
-42.7728
40
0.0635
50
360
51
540
0
ARC
8
BLACK
10
35.262
20
-43.7888
40
0.0635
50
180
51
360
0
LINE
8
BLACK
10
27.7728
20
-27.5755
11
28.7888
21
-27.5755
0
LINE
8
BLACK
10
27.7728
20
-27.4485
11
28.7888
21
-27.4485
0
ARC
8
BLACK
10
28.7888
20
-27.512
40
0.0635
50
270
51
450
0
ARC
8
BLACK
10
27.7728
20
-27.512
40
0.0635
50
90
51
270
0
LINE
8
BLACK
10
27.8363
20
-27.512
11
27.8363
21
-25.988
0
LINE
8
BLACK
10
27.7093
20
-27.512
11
27.7093
21
-25.988
0
ARC
8
BLACK
10
27.7728
20
-25.988
40
0.0635
50
360
51
540
0
ARC
8
BLACK
10
27.7728
20
-27.512
40
0.0635
50
180
51
360
0
LINE
8
BLACK
10
27.7728
20
-26.0515
11
28.7888
21
-26.0515
0
LINE
8
BLACK
10
27.7728
20
-25.9245
11
28.7888
21
-25.9245
0
ARC
8
BLACK
10
28.7888
20
-25.988
40
0.0635
50
270
51
450
0
ARC
8
BLACK
10
27.7728
20
-25.988
40
0.0635
50
90
51
270
0
LINE
8
BLACK
10
30.2112
20
-26.0515
11
31.2272
21
-26.0515
0
LINE
8
BLACK
10
30.2112
20
-25.9245
11
31.2272
21
-25.9245
0
ARC
8
BLACK
10
31.2272
20
-25.988
40
0.0635
50
270
51
450
0
ARC
8
BLACK
10
30.2112
20
-25.988
40
0.0635
50
90
51
270
0
LINE
8
BLACK
10
31.2907
20
-27.512
11
31.2907
21
-25.988
0
LINE
8
BLACK
10
31.1637
20
-27.512
11
31.1637
21
-25.988
0
ARC
8
BLACK
10
31.2272
20
-25.988
40
0.0635
50
360
51
540
0
ARC
8
BLACK
10
31.2272
20
-27.512
40
0.0635
50
180
51
360
0
LINE
8
BLACK
10
30.2112
20
-27.5755
11
31.2272
21
-27.5755
0
LINE
8
BLACK
10
30.2112
20
-27.4485
11
31.2272
21
-27.4485
0
ARC
8
BLACK
10
31.2272
20
-27.512
40
0.0635
50
270
51
450
0
ARC
8
BLACK
10
30.2112
20
-27.512
40
0.0635
50
90
51
270
0
LINE
8
BLACK
10
30.0228
20
-22.5755
11
31.0388
21
-22.5755
0
LINE
8
BLACK
10
30.0228
20
-22.4485
11
31.0388
21
-22.4485
0
ARC
8
BLACK
10
31.0388
20
-22.512
40
0.0635
50
270
51
450
0
ARC
8
BLACK
10
30.0228
20
-22.512
40
0.0635
50
90
51
270
0
LINE
8
BLACK
10
30.0863
20
-22.512
11
30.0863
21
-20.988
0
LINE
8
BLACK
10
29.9593
20
-22.512
11
29.9593
21
-20.988
0
ARC
8
BLACK
10
30.0228
20
-20.988
40
0.0635
50
360
51
540
0
ARC
8
BLACK
10
30.0228
20
-22.512
40
0.0635
50
180
51
360
0
LINE
8
BLACK
10
30.0228
20
-21.0515
11
31.0388
21
-21.0515
0
LINE
8
BLACK
10
30.0228
20
-20.9245
11
31.0388
21
-20.9245
0
ARC
8
BLACK
10
31.0388
20
-20.988
40
0.0635
50
270
51
450
0
ARC
8
BLACK
10
30.0228
20
-20.988
40
0.0635
50
90
51
270
0
LINE
8
BLACK
10
32.4612
20
-21.0515
11
33.4772
21
-21.0515
0
LINE
8
BLACK
10
32.4612
20
-20.9245
11
33.4772
21
-20.9245
0
ARC
8
BLACK
10
33.4772
20
-20.988
40
0.0635
50
270
51
450
0
ARC
8
BLACK
10
32.4612
20
-20.988
40
0.0635
50
90
51
270
0
LINE
8
BLACK
10
33.5407
20
-22.512
11
33.5407
21
-20.988
0
LINE
8
BLACK
10
33.4137
20
-22.512
11
33.4137
21
-20.988
0
ARC
8
BLACK
10
33.4772
20
-20.988
40
0.0635
50
360
51
540
0
ARC
8
BLACK
10
33.4772
20
-22.512
40
0.0635
50
180
51
360
0
LINE
8
BLACK
10
32.4612
20
-22.5755
11
33.4772
21
-22.5755
0
LINE
8
BLACK
10
32.4612
20
-22.4485
11
33.4772
21
-22.4485
0
ARC
8
BLACK
10
33.4772
20
-22.512
40
0.0635
50
270
51
450
0
ARC
8
BLACK
10
32.4612
20
-22.512
40
0.0635
50
90
51
270
0
LINE
8
BLACK
10
47.7305
20
-24.024
11
47.7305
21
-20.976
0
LINE
8
BLACK
10
47.3495
20
-24.024
11
47.3495
21
-20.976
0
ARC
8
BLACK
10
47.54
20
-20.976
40
0.1905
50
360
51
540
0
ARC
8
BLACK
10
47.54
20
-24.024
40
0.1905
50
180
51
360
0
LINE
8
BLACK
10
50.5245
20
-24.024
11
50.5245
21
-20.976
0
LINE
8
BLACK
10
50.1435
20
-24.024
11
50.1435
21
-20.976
0
ARC
8
BLACK
10
50.334
20
-20.976
40
0.1905
50
360
51
540
0
ARC
8
BLACK
10
50.334
20
-24.024
40
0.1905
50
180
51
360
0
LINE
8
BLACK
10
39.666
20
-21.1665
11
50.334
21
-21.1665
0
LINE
8
BLACK
10
39.666
20
-20.7855
11
50.334
21
-20.7855
0
ARC
8
BLACK
10
50.334
20
-20.976
40
0.1905
50
270
51
450
0
ARC
8
BLACK
10
39.666
20
-20.976
40
0.1905
50
90
51
270
0
LINE
8
BLACK
10
39.8565
20
-24.024
11
39.8565
21
-20.976
0
LINE
8
BLACK
10
39.4755
20
-24.024
11
39.4755
21
-20.976
0
ARC
8
BLACK
10
39.666
20
-20.976
40
0.1905
50
360
51
540
0
ARC
8
BLACK
10
39.666
20
-24.024
40
0.1905
50
180
51
360
0
LINE
8
BLACK
10
39.666
20
-24.2145
11
50.334
21
-24.2145
0
LINE
8
BLACK
10
39.666
20
-23.8335
11
50.334
21
-23.8335
0
ARC
8
BLACK
10
50.334
20
-24.024
40
0.1905
50
270
51
450
0
ARC
8
BLACK
10
39.666
20
-24.024
40
0.1905
50
90
51
270
0
LINE
8
BLACK
10
43.4462
20
-40.1318
11
43.9364
21
-40.1318
0
LINE
8
BLACK
10
43.4462
20
-40.0658
11
43.9364
21
-40.0658
0
ARC
8
BLACK
10
43.9364
20
-40.0988
40
0.03302
50
270
51
450
0
ARC
8
BLACK
10
43.4462
20
-40.0988
40
0.03302
50
90
51
270
0
LINE
8
BLACK
10
43.9694
20
-40.0988
11
43.9694
21
-38.999
0
LINE
8
BLACK
10
43.9034
20
-40.0988
11
43.9034
21
-38.999
0
ARC
8
BLACK
10
43.9364
20
-38.999
40
0.03302
50
360
51
540
0
ARC
8
BLACK
10
43.9364
20
-40.0988
40
0.03302
50
180
51
360
0
LINE
8
BLACK
10
43.4462
20
-39.032
11
43.9364
21
-39.032
0
LINE
8
BLACK
10
43.4462
20
-38.966
11
43.9364
21
-38.966
0
ARC
8
BLACK
10
43.9364
20
-38.999
40
0.03302
50
270
51
450
0
ARC
8
BLACK
10
43.4462
20
-38.999
40
0.03302
50
90
51
270
0
LINE
8
BLACK
10
43.4792
20
-40.0988
11
43.4792
21
-38.999
0
LINE
8
BLACK
10
43.4131
20
-40.0988
11
43.4131
21
-38.999
0
ARC
8
BLACK
10
43.4462
20
-38.999
40
0.03302
50
360
51
540
0
ARC
8
BLACK
10
43.4462
20
-40.0988
40
0.03302
50
180
51
360
0
LINE
8
BLACK
10
44.7162
20
-40.1318
11
45.2064
21
-40.1318
0
LINE
8
BLACK
10
44.7162
20
-40.0658
11
45.2064
21
-40.0658
0
ARC
8
BLACK
10
45.2064
20
-40.0988
40
0.03302
50
270
51
450
0
ARC
8
BLACK
10
44.7162
20
-40.0988
40
0.03302
50
90
51
270
0
LINE
8
BLACK
10
45.2394
20
-40.0988
11
45.2394
21
-38.999
0
LINE
8
BLACK
10
45.1734
20
-40.0988
11
45.1734
21
-38.999
0
ARC
8
BLACK
10
45.2064
20
-38.999
40
0.03302
50
360
51
540
0
ARC
8
BLACK
10
45.2064
20
-40.0988
40
0.03302
50
180
51
360
0
LINE
8
BLACK
10
44.7162
20
-39.032
11
45.2064
21
-39.032
0
LINE
8
BLACK
10
44.7162
20
-38.966
11
45.2064
21
-38.966
0
ARC
8
BLACK
10
45.2064
20
-38.999
40
0.03302
50
270
51
450
0
ARC
8
BLACK
10
44.7162
20
-38.999
40
0.03302
50
90
51
270
0
LINE
8
BLACK
10
44.7492
20
-40.0988
11
44.7492
21
-38.999
0
LINE
8
BLACK
10
44.6831
20
-40.0988
11
44.6831
21
-38.999
0
ARC
8
BLACK
10
44.7162
20
-38.999
40
0.03302
50
360
51
540
0
ARC
8
BLACK
10
44.7162
20
-40.0988
40
0.03302
50
180
51
360
0
LINE
8
BLACK
10
45.9862
20
-40.1318
11
46.4764
21
-40.1318
0
LINE
8
BLACK
10
45.9862
20
-40.0658
11
46.4764
21
-40.0658
0
ARC
8
BLACK
10
46.4764
20
-40.0988
40
0.03302
50
270
51
450
0
ARC
8
BLACK
10
45.9862
20
-40.0988
40
0.03302
50
90
51
270
0
LINE
8
BLACK
10
46.5094
20
-40.0988
11
46.5094
21
-38.999
0
LINE
8
BLACK
10
46.4434
20
-40.0988
11
46.4434
21
-38.999
0
ARC
8
BLACK
10
46.4764
20
-38.999
40
0.03302
50
360
51
540
0
ARC
8
BLACK
10
46.4764
20
-40.0988
40
0.03302
50
180
51
360
0
LINE
8
BLACK
10
45.9862
20
-39.032
11
46.4764
21
-39.032
0
LINE
8
BLACK
10
45.9862
20
-38.966
11
46.4764
21
-38.966
0
ARC
8
BLACK
10
46.4764
20
-38.999
40
0.03302
50
270
51
450
0
ARC
8
BLACK
10
45.9862
20
-38.999
40
0.03302
50
90
51
270
0
LINE
8
BLACK
10
46.0192
20
-40.0988
11
46.0192
21
-38.999
0
LINE
8
BLACK
10
45.9531
20
-40.0988
11
45.9531
21
-38.999
0
ARC
8
BLACK
10
45.9862
20
-38.999
40
0.03302
50
360
51
540
0
ARC
8
BLACK
10
45.9862
20
-40.0988
40
0.03302
50
180
51
360
0
LINE
8
BLACK
10
47.2562
20
-40.1318
11
47.7438
21
-40.1318
0
LINE
8
BLACK
10
47.2562
20
-40.0658
11
47.7438
21
-40.0658
0
ARC
8
BLACK
10
47.7438
20
-40.0988
40
0.03302
50
270
51
450
0
ARC
8
BLACK
10
47.2562
20
-40.0988
40
0.03302
50
90
51
270
0
LINE
8
BLACK
10
47.7769
20
-40.0988
11
47.7769
21
-38.999
0
LINE
8
BLACK
10
47.7108
20
-40.0988
11
47.7108
21
-38.999
0
ARC
8
BLACK
10
47.7438
20
-38.999
40
0.03302
50
360
51
540
0
ARC
8
BLACK
10
47.7438
20
-40.0988
40
0.03302
50
180
51
360
0
LINE
8
BLACK
10
47.2562
20
-39.032
11
47.7438
21
-39.032
0
LINE
8
BLACK
10
47.2562
20
-38.966
11
47.7438
21
-38.966
0
ARC
8
BLACK
10
47.7438
20
-38.999
40
0.03302
50
270
51
450
0
ARC
8
BLACK
10
47.2562
20
-38.999
40
0.03302
50
90
51
270
0
LINE
8
BLACK
10
47.2892
20
-40.0988
11
47.2892
21
-38.999
0
LINE
8
BLACK
10
47.2231
20
-40.0988
11
47.2231
21
-38.999
0
ARC
8
BLACK
10
47.2562
20
-38.999
40
0.03302
50
360
51
540
0
ARC
8
BLACK
10
47.2562
20
-40.0988
40
0.03302
50
180
51
360
0
LINE
8
BLACK
10
47.2562
20
-35.034
11
47.7438
21
-35.034
0
LINE
8
BLACK
10
47.2562
20
-34.968
11
47.7438
21
-34.968
0
ARC
8
BLACK
10
47.7438
20
-35.001
40
0.03302
50
270
51
450
0
ARC
8
BLACK
10
47.2562
20
-35.001
40
0.03302
50
90
51
270
0
LINE
8
BLACK
10
47.7769
20
-35.001
11
47.7769
21
-33.9012
0
LINE
8
BLACK
10
47.7108
20
-35.001
11
47.7108
21
-33.9012
0
ARC
8
BLACK
10
47.7438
20
-33.9012
40
0.03302
50
360
51
540
0
ARC
8
BLACK
10
47.7438
20
-35.001
40
0.03302
50
180
51
360
0
LINE
8
BLACK
10
47.2562
20
-33.9342
11
47.7438
21
-33.9342
0
LINE
8
BLACK
10
47.2562
20
-33.8682
11
47.7438
21
-33.8682
0
ARC
8
BLACK
10
47.7438
20
-33.9012
40
0.03302
50
270
51
450
0
ARC
8
BLACK
10
47.2562
20
-33.9012
40
0.03302
50
90
51
270
0
LINE
8
BLACK
10
47.2892
20
-35.001
11
47.2892
21
-33.9012
0
LINE
8
BLACK
10
47.2231
20
-35.001
11
47.2231
21
-33.9012
0
ARC
8
BLACK
10
47.2562
20
-33.9012
40
0.03302
50
360
51
540
0
ARC
8
BLACK
10
47.2562
20
-35.001
40
0.03302
50
180
51
360
0
LINE
8
BLACK
10
45.9862
20
-35.034
11
46.4764
21
-35.034
0
LINE
8
BLACK
10
45.9862
20
-34.968
11
46.4764
21
-34.968
0
ARC
8
BLACK
10
46.4764
20
-35.001
40
0.03302
50
270
51
450
0
ARC
8
BLACK
10
45.9862
20
-35.001
40
0.03302
50
90
51
270
0
LINE
8
BLACK
10
46.5094
20
-35.001
11
46.5094
21
-33.9012
0
LINE
8
BLACK
10
46.4434
20
-35.001
11
46.4434
21
-33.9012
0
ARC
8
BLACK
10
46.4764
20
-33.9012
40
0.03302
50
360
51
540
0
ARC
8
BLACK
10
46.4764
20
-35.001
40
0.03302
50
180
51
360
0
LINE
8
BLACK
10
45.9862
20
-33.9342
11
46.4764
21
-33.9342
0
LINE
8
BLACK
10
45.9862
20
-33.8682
11
46.4764
21
-33.8682
0
ARC
8
BLACK
10
46.4764
20
-33.9012
40
0.03302
50
270
51
450
0
ARC
8
BLACK
10
45.9862
20
-33.9012
40
0.03302
50
90
51
270
0
LINE
8
BLACK
10
46.0192
20
-35.001
11
46.0192
21
-33.9012
0
LINE
8
BLACK
10
45.9531
20
-35.001
11
45.9531
21
-33.9012
0
ARC
8
BLACK
10
45.9862
20
-33.9012
40
0.03302
50
360
51
540
0
ARC
8
BLACK
10
45.9862
20
-35.001
40
0.03302
50
180
51
360
0
LINE
8
BLACK
10
44.7162
20
-35.034
11
45.2064
21
-35.034
0
LINE
8
BLACK
10
44.7162
20
-34.968
11
45.2064
21
-34.968
0
ARC
8
BLACK
10
45.2064
20
-35.001
40
0.03302
50
270
51
450
0
ARC
8
BLACK
10
44.7162
20
-35.001
40
0.03302
50
90
51
270
0
LINE
8
BLACK
10
45.2394
20
-35.001
11
45.2394
21
-33.9012
0
LINE
8
BLACK
10
45.1734
20
-35.001
11
45.1734
21
-33.9012
0
ARC
8
BLACK
10
45.2064
20
-33.9012
40
0.03302
50
360
51
540
0
ARC
8
BLACK
10
45.2064
20
-35.001
40
0.03302
50
180
51
360
0
LINE
8
BLACK
10
44.7162
20
-33.9342
11
45.2064
21
-33.9342
0
LINE
8
BLACK
10
44.7162
20
-33.8682
11
45.2064
21
-33.8682
0
ARC
8
BLACK
10
45.2064
20
-33.9012
40
0.03302
50
270
51
450
0
ARC
8
BLACK
10
44.7162
20
-33.9012
40
0.03302
50
90
51
270
0
LINE
8
BLACK
10
44.7492
20
-35.001
11
44.7492
21
-33.9012
0
LINE
8
BLACK
10
44.6831
20
-35.001
11
44.6831
21
-33.9012
0
ARC
8
BLACK
10
44.7162
20
-33.9012
40
0.03302
50
360
51
540
0
ARC
8
BLACK
10
44.7162
20
-35.001
40
0.03302
50
180
51
360
0
LINE
8
BLACK
10
43.4462
20
-35.034
11
43.9364
21
-35.034
0
LINE
8
BLACK
10
43.4462
20
-34.968
11
43.9364
21
-34.968
0
ARC
8
BLACK
10
43.9364
20
-35.001
40
0.03302
50
270
51
450
0
ARC
8
BLACK
10
43.4462
20
-35.001
40
0.03302
50
90
51
270
0
LINE
8
BLACK
10
43.9694
20
-35.001
11
43.9694
21
-33.9012
0
LINE
8
BLACK
10
43.9034
20
-35.001
11
43.9034
21
-33.9012
0
ARC
8
BLACK
10
43.9364
20
-33.9012
40
0.03302
50
360
51
540
0
ARC
8
BLACK
10
43.9364
20
-35.001
40
0.03302
50
180
51
360
0
LINE
8
BLACK
10
43.4462
20
-33.9342
11
43.9364
21
-33.9342
0
LINE
8
BLACK
10
43.4462
20
-33.8682
11
43.9364
21
-33.8682
0
ARC
8
BLACK
10
43.9364
20
-33.9012
40
0.03302
50
270
51
450
0
ARC
8
BLACK
10
43.4462
20
-33.9012
40
0.03302
50
90
51
270
0
LINE
8
BLACK
10
43.4792
20
-35.001
11
43.4792
21
-33.9012
0
LINE
8
BLACK
10
43.4131
20
-35.001
11
43.4131
21
-33.9012
0
ARC
8
BLACK
10
43.4462
20
-33.9012
40
0.03302
50
360
51
540
0
ARC
8
BLACK
10
43.4462
20
-35.001
40
0.03302
50
180
51
360
0
LINE
8
BLACK
10
48.5236
20
-40.1318
11
49.0138
21
-40.1318
0
LINE
8
BLACK
10
48.5236
20
-40.0658
11
49.0138
21
-40.0658
0
ARC
8
BLACK
10
49.0138
20
-40.0988
40
0.03302
50
270
51
450
0
ARC
8
BLACK
10
48.5236
20
-40.0988
40
0.03302
50
90
51
270
0
LINE
8
BLACK
10
49.0469
20
-40.0988
11
49.0469
21
-38.999
0
LINE
8
BLACK
10
48.9808
20
-40.0988
11
48.9808
21
-38.999
0
ARC
8
BLACK
10
49.0138
20
-38.999
40
0.03302
50
360
51
540
0
ARC
8
BLACK
10
49.0138
20
-40.0988
40
0.03302
50
180
51
360
0
LINE
8
BLACK
10
48.5236
20
-39.032
11
49.0138
21
-39.032
0
LINE
8
BLACK
10
48.5236
20
-38.966
11
49.0138
21
-38.966
0
ARC
8
BLACK
10
49.0138
20
-38.999
40
0.03302
50
270
51
450
0
ARC
8
BLACK
10
48.5236
20
-38.999
40
0.03302
50
90
51
270
0
LINE
8
BLACK
10
48.5566
20
-40.0988
11
48.5566
21
-38.999
0
LINE
8
BLACK
10
48.4906
20
-40.0988
11
48.4906
21
-38.999
0
ARC
8
BLACK
10
48.5236
20
-38.999
40
0.03302
50
360
51
540
0
ARC
8
BLACK
10
48.5236
20
-40.0988
40
0.03302
50
180
51
360
0
LINE
8
BLACK
10
49.7936
20
-40.1318
11
50.2838
21
-40.1318
0
LINE
8
BLACK
10
49.7936
20
-40.0658
11
50.2838
21
-40.0658
0
ARC
8
BLACK
10
50.2838
20
-40.0988
40
0.03302
50
270
51
450
0
ARC
8
BLACK
10
49.7936
20
-40.0988
40
0.03302
50
90
51
270
0
LINE
8
BLACK
10
50.3169
20
-40.0988
11
50.3169
21
-38.999
0
LINE
8
BLACK
10
50.2508
20
-40.0988
11
50.2508
21
-38.999
0
ARC
8
BLACK
10
50.2838
20
-38.999
40
0.03302
50
360
51
540
0
ARC
8
BLACK
10
50.2838
20
-40.0988
40
0.03302
50
180
51
360
0
LINE
8
BLACK
10
49.7936
20
-39.032
11
50.2838
21
-39.032
0
LINE
8
BLACK
10
49.7936
20
-38.966
11
50.2838
21
-38.966
0
ARC
8
BLACK
10
50.2838
20
-38.999
40
0.03302
50
270
51
450
0
ARC
8
BLACK
10
49.7936
20
-38.999
40
0.03302
50
90
51
270
0
LINE
8
BLACK
10
49.8266
20
-40.0988
11
49.8266
21
-38.999
0
LINE
8
BLACK
10
49.7606
20
-40.0988
11
49.7606
21
-38.999
0
ARC
8
BLACK
10
49.7936
20
-38.999
40
0.03302
50
360
51
540
0
ARC
8
BLACK
10
49.7936
20
-40.0988
40
0.03302
50
180
51
360
0
LINE
8
BLACK
10
51.0636
20
-40.1318
11
51.5538
21
-40.1318
0
LINE
8
BLACK
10
51.0636
20
-40.0658
11
51.5538
21
-40.0658
0
ARC
8
BLACK
10
51.5538
20
-40.0988
40
0.03302
50
270
51
450
0
ARC
8
BLACK
10
51.0636
20
-40.0988
40
0.03302
50
90
51
270
0
LINE
8
BLACK
10
51.5869
20
-40.0988
11
51.5869
21
-38.999
0
LINE
8
BLACK
10
51.5208
20
-40.0988
11
51.5208
21
-38.999
0
ARC
8
BLACK
10
51.5538
20
-38.999
40
0.03302
50
360
51
540
0
ARC
8
BLACK
10
51.5538
20
-40.0988
40
0.03302
50
180
51
360
0
LINE
8
BLACK
10
51.0636
20
-39.032
11
51.5538
21
-39.032
0
LINE
8
BLACK
10
51.0636
20
-38.966
11
51.5538
21
-38.966
0
ARC
8
BLACK
10
51.5538
20
-38.999
40
0.03302
50
270
51
450
0
ARC
8
BLACK
10
51.0636
20
-38.999
40
0.03302
50
90
51
270
0
LINE
8
BLACK
10
51.0966
20
-40.0988
11
51.0966
21
-38.999
0
LINE
8
BLACK
10
51.0306
20
-40.0988
11
51.0306
21
-38.999
0
ARC
8
BLACK
10
51.0636
20
-38.999
40
0.03302
50
360
51
540
0
ARC
8
BLACK
10
51.0636
20
-40.0988
40
0.03302
50
180
51
360
0
LINE
8
BLACK
10
51.0636
20
-35.034
11
51.5538
21
-35.034
0
LINE
8
BLACK
10
51.0636
20
-34.968
11
51.5538
21
-34.968
0
ARC
8
BLACK
10
51.5538
20
-35.001
40
0.03302
50
270
51
450
0
ARC
8
BLACK
10
51.0636
20
-35.001
40
0.03302
50
90
51
270
0
LINE
8
BLACK
10
51.5869
20
-35.001
11
51.5869
21
-33.9012
0
LINE
8
BLACK
10
51.5208
20
-35.001
11
51.5208
21
-33.9012
0
ARC
8
BLACK
10
51.5538
20
-33.9012
40
0.03302
50
360
51
540
0
ARC
8
BLACK
10
51.5538
20
-35.001
40
0.03302
50
180
51
360
0
LINE
8
BLACK
10
51.0636
20
-33.9342
11
51.5538
21
-33.9342
0
LINE
8
BLACK
10
51.0636
20
-33.8682
11
51.5538
21
-33.8682
0
ARC
8
BLACK
10
51.5538
20
-33.9012
40
0.03302
50
270
51
450
0
ARC
8
BLACK
10
51.0636
20
-33.9012
40
0.03302
50
90
51
270
0
LINE
8
BLACK
10
51.0966
20
-35.001
11
51.0966
21
-33.9012
0
LINE
8
BLACK
10
51.0306
20
-35.001
11
51.0306
21
-33.9012
0
ARC
8
BLACK
10
51.0636
20
-33.9012
40
0.03302
50
360
51
540
0
ARC
8
BLACK
10
51.0636
20
-35.001
40
0.03302
50
180
51
360
0
LINE
8
BLACK
10
49.7936
20
-35.034
11
50.2838
21
-35.034
0
LINE
8
BLACK
10
49.7936
20
-34.968
11
50.2838
21
-34.968
0
ARC
8
BLACK
10
50.2838
20
-35.001
40
0.03302
50
270
51
450
0
ARC
8
BLACK
10
49.7936
20
-35.001
40
0.03302
50
90
51
270
0
LINE
8
BLACK
10
50.3169
20
-35.001
11
50.3169
21
-33.9012
0
LINE
8
BLACK
10
50.2508
20
-35.001
11
50.2508
21
-33.9012
0
ARC
8
BLACK
10
50.2838
20
-33.9012
40
0.03302
50
360
51
540
0
ARC
8
BLACK
10
50.2838
20
-35.001
40
0.03302
50
180
51
360
0
LINE
8
BLACK
10
49.7936
20
-33.9342
11
50.2838
21
-33.9342
0
LINE
8
BLACK
10
49.7936
20
-33.8682
11
50.2838
21
-33.8682
0
ARC
8
BLACK
10
50.2838
20
-33.9012
40
0.03302
50
270
51
450
0
ARC
8
BLACK
10
49.7936
20
-33.9012
40
0.03302
50
90
51
270
0
LINE
8
BLACK
10
49.8266
20
-35.001
11
49.8266
21
-33.9012
0
LINE
8
BLACK
10
49.7606
20
-35.001
11
49.7606
21
-33.9012
0
ARC
8
BLACK
10
49.7936
20
-33.9012
40
0.03302
50
360
51
540
0
ARC
8
BLACK
10
49.7936
20
-35.001
40
0.03302
50
180
51
360
0
LINE
8
BLACK
10
48.5236
20
-35.034
11
49.0138
21
-35.034
0
LINE
8
BLACK
10
48.5236
20
-34.968
11
49.0138
21
-34.968
0
ARC
8
BLACK
10
49.0138
20
-35.001
40
0.03302
50
270
51
450
0
ARC
8
BLACK
10
48.5236
20
-35.001
40
0.03302
50
90
51
270
0
LINE
8
BLACK
10
49.0469
20
-35.001
11
49.0469
21
-33.9012
0
LINE
8
BLACK
10
48.9808
20
-35.001
11
48.9808
21
-33.9012
0
ARC
8
BLACK
10
49.0138
20
-33.9012
40
0.03302
50
360
51
540
0
ARC
8
BLACK
10
49.0138
20
-35.001
40
0.03302
50
180
51
360
0
LINE
8
BLACK
10
48.5236
20
-33.9342
11
49.0138
21
-33.9342
0
LINE
8
BLACK
10
48.5236
20
-33.8682
11
49.0138
21
-33.8682
0
ARC
8
BLACK
10
49.0138
20
-33.9012
40
0.03302
50
270
51
450
0
ARC
8
BLACK
10
48.5236
20
-33.9012
40
0.03302
50
90
51
270
0
LINE
8
BLACK
10
48.5566
20
-35.001
11
48.5566
21
-33.9012
0
LINE
8
BLACK
10
48.4906
20
-35.001
11
48.4906
21
-33.9012
0
ARC
8
BLACK
10
48.5236
20
-33.9012
40
0.03302
50
360
51
540
0
ARC
8
BLACK
10
48.5236
20
-35.001
40
0.03302
50
180
51
360
0
LINE
8
BLACK
10
42.6054
20
-33.2002
11
52.3946
21
-33.2002
0
LINE
8
BLACK
10
42.6054
20
-33.002
11
52.3946
21
-33.002
0
ARC
8
BLACK
10
52.3946
20
-33.1011
40
0.09906
50
270
51
450
0
ARC
8
BLACK
10
42.6054
20
-33.1011
40
0.09906
50
90
51
270
0
LINE
8
BLACK
10
42.6054
20
-40.998
11
52.3946
21
-40.998
0
LINE
8
BLACK
10
42.6054
20
-40.7998
11
52.3946
21
-40.7998
0
ARC
8
BLACK
10
52.3946
20
-40.8989
40
0.09906
50
270
51
450
0
ARC
8
BLACK
10
42.6054
20
-40.8989
40
0.09906
50
90
51
270
0
LINE
8
BLACK
10
42.7045
20
-40.8989
11
42.7045
21
-33.1011
0
LINE
8
BLACK
10
42.5064
20
-40.8989
11
42.5064
21
-33.1011
0
ARC
8
BLACK
10
42.6054
20
-33.1011
40
0.09906
50
360
51
540
0
ARC
8
BLACK
10
42.6054
20
-40.8989
40
0.09906
50
180
51
360
0
LINE
8
BLACK
10
43.1972
20
-39.0015
11
51.8028
21
-39.0015
0
LINE
8
BLACK
10
43.1972
20
-38.7983
11
51.8028
21
-38.7983
0
ARC
8
BLACK
10
51.8028
20
-38.8999
40
0.1016
50
270
51
450
0
ARC
8
BLACK
10
43.1972
20
-38.8999
40
0.1016
50
90
51
270
0
LINE
8
BLACK
10
43.2988
20
-38.8999
11
43.2988
21
-38.3995
0
LINE
8
BLACK
10
43.0956
20
-38.8999
11
43.0956
21
-38.3995
0
ARC
8
BLACK
10
43.1972
20
-38.3995
40
0.1016
50
360
51
540
0
ARC
8
BLACK
10
43.1972
20
-38.8999
40
0.1016
50
180
51
360
0
LINE
8
BLACK
10
43.2988
20
-38.3995
11
43.2988
21
-35.1001
0
LINE
8
BLACK
10
43.0956
20
-38.3995
11
43.0956
21
-35.1001
0
ARC
8
BLACK
10
43.1972
20
-35.1001
40
0.1016
50
360
51
540
0
ARC
8
BLACK
10
43.1972
20
-38.3995
40
0.1016
50
180
51
360
0
LINE
8
BLACK
10
43.1972
20
-38.5011
11
51.8028
21
-38.5011
0
LINE
8
BLACK
10
43.1972
20
-38.2979
11
51.8028
21
-38.2979
0
ARC
8
BLACK
10
51.8028
20
-38.3995
40
0.1016
50
270
51
450
0
ARC
8
BLACK
10
43.1972
20
-38.3995
40
0.1016
50
90
51
270
0
LINE
8
BLACK
10
51.9044
20
-38.3995
11
51.9044
21
-35.1001
0
LINE
8
BLACK
10
51.7012
20
-38.3995
11
51.7012
21
-35.1001
0
ARC
8
BLACK
10
51.8028
20
-35.1001
40
0.1016
50
360
51
540
0
ARC
8
BLACK
10
51.8028
20
-38.3995
40
0.1016
50
180
51
360
0
LINE
8
BLACK
10
51.9044
20
-38.8999
11
51.9044
21
-38.3995
0
LINE
8
BLACK
10
51.7012
20
-38.8999
11
51.7012
21
-38.3995
0
ARC
8
BLACK
10
51.8028
20
-38.3995
40
0.1016
50
360
51
540
0
ARC
8
BLACK
10
51.8028
20
-38.8999
40
0.1016
50
180
51
360
0
LINE
8
BLACK
10
52.4936
20
-40.8989
11
52.4936
21
-33.1011
0
LINE
8
BLACK
10
52.2955
20
-40.8989
11
52.2955
21
-33.1011
0
ARC
8
BLACK
10
52.3946
20
-33.1011
40
0.09906
50
360
51
540
0
ARC
8
BLACK
10
52.3946
20
-40.8989
40
0.09906
50
180
51
360
0
LINE
8
BLACK
10
43.1972
20
-35.2017
11
51.8028
21
-35.2017
0
LINE
8
BLACK
10
43.1972
20
-34.9985
11
51.8028
21
-34.9985
0
ARC
8
BLACK
10
51.8028
20
-35.1001
40
0.1016
50
270
51
450
0
ARC
8
BLACK
10
43.1972
20
-35.1001
40
0.1016
50
90
51
270
0
LINE
8
BLACK
10
57.2908
20
-21.7772
11
57.7989
21
-21.0153
0
LINE
8
BLACK
10
57.1851
20
-21.7067
11
57.6932
21
-20.9448
0
ARC
8
BLACK
10
57.7461
20
-20.98
40
0.0635
50
326.3
51
506.3
0
ARC
8
BLACK
10
57.2379
20
-21.742
40
0.0635
50
146.3
51
326.3
0
LINE
8
BLACK
10
57.3015
20
-23.52
11
57.3015
21
-20.9165
0
LINE
8
BLACK
10
57.1745
20
-23.52
11
57.1745
21
-20.9165
0
ARC
8
BLACK
10
57.238
20
-20.9165
40
0.0635
50
360
51
540
0
ARC
8
BLACK
10
57.238
20
-23.52
40
0.0635
50
180
51
360
0
LINE
8
BLACK
10
57.238
20
-20.98
11
58.762
21
-20.98
0
LINE
8
BLACK
10
57.238
20
-20.853
11
58.762
21
-20.853
0
ARC
8
BLACK
10
58.762
20
-20.9165
40
0.0635
50
270
51
450
0
ARC
8
BLACK
10
57.238
20
-20.9165
40
0.0635
50
90
51
270
0
LINE
8
BLACK
10
58.8255
20
-23.52
11
58.8255
21
-20.9165
0
LINE
8
BLACK
10
58.6985
20
-23.52
11
58.6985
21
-20.9165
0
ARC
8
BLACK
10
58.762
20
-20.9165
40
0.0635
50
360
51
540
0
ARC
8
BLACK
10
58.762
20
-23.52
40
0.0635
50
180
51
360
0
LINE
8
BLACK
10
57.238
20
-23.5835
11
58.762
21
-23.5835
0
LINE
8
BLACK
10
57.238
20
-23.4565
11
58.762
21
-23.4565
0
ARC
8
BLACK
10
58.762
20
-23.52
40
0.0635
50
270
51
450
0
ARC
8
BLACK
10
57.238
20
-23.52
40
0.0635
50
90
51
270
0
LINE
8
BLACK
10
56.0228
20
-26.0755
11
57.0388
21
-26.0755
0
LINE
8
BLACK
10
56.0228
20
-25.9485
11
57.0388
21
-25.9485
0
ARC
8
BLACK
10
57.0388
20
-26.012
40
0.0635
50
270
51
450
0
ARC
8
BLACK
10
56.0228
20
-26.012
40
0.0635
50
90
51
270
0
LINE
8
BLACK
10
56.0863
20
-26.012
11
56.0863
21
-24.488
0
LINE
8
BLACK
10
55.9593
20
-26.012
11
55.9593
21
-24.488
0
ARC
8
BLACK
10
56.0228
20
-24.488
40
0.0635
50
360
51
540
0
ARC
8
BLACK
10
56.0228
20
-26.012
40
0.0635
50
180
51
360
0
LINE
8
BLACK
10
56.0228
20
-24.5515
11
57.0388
21
-24.5515
0
LINE
8
BLACK
10
56.0228
20
-24.4245
11
57.0388
21
-24.4245
0
ARC
8
BLACK
10
57.0388
20
-24.488
40
0.0635
50
270
51
450
0
ARC
8
BLACK
10
56.0228
20
-24.488
40
0.0635
50
90
51
270
0
LINE
8
BLACK
10
58.4612
20
-24.5515
11
59.4772
21
-24.5515
0
LINE
8
BLACK
10
58.4612
20
-24.4245
11
59.4772
21
-24.4245
0
ARC
8
BLACK
10
59.4772
20
-24.488
40
0.0635
50
270
51
450
0
ARC
8
BLACK
10
58.4612
20
-24.488
40
0.0635
50
90
51
270
0
LINE
8
BLACK
10
59.5407
20
-26.012
11
59.5407
21
-24.488
0
LINE
8
BLACK
10
59.4137
20
-26.012
11
59.4137
21
-24.488
0
ARC
8
BLACK
10
59.4772
20
-24.488
40
0.0635
50
360
51
540
0
ARC
8
BLACK
10
59.4772
20
-26.012
40
0.0635
50
180
51
360
0
LINE
8
BLACK
10
58.4612
20
-26.0755
11
59.4772
21
-26.0755
0
LINE
8
BLACK
10
58.4612
20
-25.9485
11
59.4772
21
-25.9485
0
ARC
8
BLACK
10
59.4772
20
-26.012
40
0.0635
50
270
51
450
0
ARC
8
BLACK
10
58.4612
20
-26.012
40
0.0635
50
90
51
270
0
LINE
8
BLACK
10
61.2728
20
-22.8255
11
62.2888
21
-22.8255
0
LINE
8
BLACK
10
61.2728
20
-22.6985
11
62.2888
21
-22.6985
0
ARC
8
BLACK
10
62.2888
20
-22.762
40
0.0635
50
270
51
450
0
ARC
8
BLACK
10
61.2728
20
-22.762
40
0.0635
50
90
51
270
0
LINE
8
BLACK
10
61.3363
20
-22.762
11
61.3363
21
-21.238
0
LINE
8
BLACK
10
61.2093
20
-22.762
11
61.2093
21
-21.238
0
ARC
8
BLACK
10
61.2728
20
-21.238
40
0.0635
50
360
51
540
0
ARC
8
BLACK
10
61.2728
20
-22.762
40
0.0635
50
180
51
360
0
LINE
8
BLACK
10
61.2728
20
-21.3015
11
62.2888
21
-21.3015
0
LINE
8
BLACK
10
61.2728
20
-21.1745
11
62.2888
21
-21.1745
0
ARC
8
BLACK
10
62.2888
20
-21.238
40
0.0635
50
270
51
450
0
ARC
8
BLACK
10
61.2728
20
-21.238
40
0.0635
50
90
51
270
0
LINE
8
BLACK
10
63.7112
20
-21.3015
11
64.7272
21
-21.3015
0
LINE
8
BLACK
10
63.7112
20
-21.1745
11
64.7272
21
-21.1745
0
ARC
8
BLACK
10
64.7272
20
-21.238
40
0.0635
50
270
51
450
0
ARC
8
BLACK
10
63.7112
20
-21.238
40
0.0635
50
90
51
270
0
LINE
8
BLACK
10
64.7907
20
-22.762
11
64.7907
21
-21.238
0
LINE
8
BLACK
10
64.6637
20
-22.762
11
64.6637
21
-21.238
0
ARC
8
BLACK
10
64.7272
20
-21.238
40
0.0635
50
360
51
540
0
ARC
8
BLACK
10
64.7272
20
-22.762
40
0.0635
50
180
51
360
0
LINE
8
BLACK
10
63.7112
20
-22.8255
11
64.7272
21
-22.8255
0
LINE
8
BLACK
10
63.7112
20
-22.6985
11
64.7272
21
-22.6985
0
ARC
8
BLACK
10
64.7272
20
-22.762
40
0.0635
50
270
51
450
0
ARC
8
BLACK
10
63.7112
20
-22.762
40
0.0635
50
90
51
270
0
LINE
8
BLACK
10
53.9612
20
-29.8015
11
54.9772
21
-29.8015
0
LINE
8
BLACK
10
53.9612
20
-29.6745
11
54.9772
21
-29.6745
0
ARC
8
BLACK
10
54.9772
20
-29.738
40
0.0635
50
270
51
450
0
ARC
8
BLACK
10
53.9612
20
-29.738
40
0.0635
50
90
51
270
0
LINE
8
BLACK
10
55.0407
20
-31.262
11
55.0407
21
-29.738
0
LINE
8
BLACK
10
54.9137
20
-31.262
11
54.9137
21
-29.738
0
ARC
8
BLACK
10
54.9772
20
-29.738
40
0.0635
50
360
51
540
0
ARC
8
BLACK
10
54.9772
20
-31.262
40
0.0635
50
180
51
360
0
LINE
8
BLACK
10
53.9612
20
-31.3255
11
54.9772
21
-31.3255
0
LINE
8
BLACK
10
53.9612
20
-31.1985
11
54.9772
21
-31.1985
0
ARC
8
BLACK
10
54.9772
20
-31.262
40
0.0635
50
270
51
450
0
ARC
8
BLACK
10
53.9612
20
-31.262
40
0.0635
50
90
51
270
0
LINE
8
BLACK
10
51.5228
20
-31.3255
11
52.5388
21
-31.3255
0
LINE
8
BLACK
10
51.5228
20
-31.1985
11
52.5388
21
-31.1985
0
ARC
8
BLACK
10
52.5388
20
-31.262
40
0.0635
50
270
51
450
0
ARC
8
BLACK
10
51.5228
20
-31.262
40
0.0635
50
90
51
270
0
LINE
8
BLACK
10
51.5863
20
-31.262
11
51.5863
21
-29.738
0
LINE
8
BLACK
10
51.4593
20
-31.262
11
51.4593
21
-29.738
0
ARC
8
BLACK
10
51.5228
20
-29.738
40
0.0635
50
360
51
540
0
ARC
8
BLACK
10
51.5228
20
-31.262
40
0.0635
50
180
51
360
0
LINE
8
BLACK
10
51.5228
20
-29.8015
11
52.5388
21
-29.8015
0
LINE
8
BLACK
10
51.5228
20
-29.6745
11
52.5388
21
-29.6745
0
ARC
8
BLACK
10
52.5388
20
-29.738
40
0.0635
50
270
51
450
0
ARC
8
BLACK
10
51.5228
20
-29.738
40
0.0635
50
90
51
270
0
LINE
8
BLACK
10
51.5228
20
-26.0755
11
52.5388
21
-26.0755
0
LINE
8
BLACK
10
51.5228
20
-25.9485
11
52.5388
21
-25.9485
0
ARC
8
BLACK
10
52.5388
20
-26.012
40
0.0635
50
270
51
450
0
ARC
8
BLACK
10
51.5228
20
-26.012
40
0.0635
50
90
51
270
0
LINE
8
BLACK
10
51.5863
20
-26.012
11
51.5863
21
-24.488
0
LINE
8
BLACK
10
51.4593
20
-26.012
11
51.4593
21
-24.488
0
ARC
8
BLACK
10
51.5228
20
-24.488
40
0.0635
50
360
51
540
0
ARC
8
BLACK
10
51.5228
20
-26.012
40
0.0635
50
180
51
360
0
LINE
8
BLACK
10
51.5228
20
-24.5515
11
52.5388
21
-24.5515
0
LINE
8
BLACK
10
51.5228
20
-24.4245
11
52.5388
21
-24.4245
0
ARC
8
BLACK
10
52.5388
20
-24.488
40
0.0635
50
270
51
450
0
ARC
8
BLACK
10
51.5228
20
-24.488
40
0.0635
50
90
51
270
0
LINE
8
BLACK
10
53.9612
20
-24.5515
11
54.9772
21
-24.5515
0
LINE
8
BLACK
10
53.9612
20
-24.4245
11
54.9772
21
-24.4245
0
ARC
8
BLACK
10
54.9772
20
-24.488
40
0.0635
50
270
51
450
0
ARC
8
BLACK
10
53.9612
20
-24.488
40
0.0635
50
90
51
270
0
LINE
8
BLACK
10
55.0407
20
-26.012
11
55.0407
21
-24.488
0
LINE
8
BLACK
10
54.9137
20
-26.012
11
54.9137
21
-24.488
0
ARC
8
BLACK
10
54.9772
20
-24.488
40
0.0635
50
360
51
540
0
ARC
8
BLACK
10
54.9772
20
-26.012
40
0.0635
50
180
51
360
0
LINE
8
BLACK
10
53.9612
20
-26.0755
11
54.9772
21
-26.0755
0
LINE
8
BLACK
10
53.9612
20
-25.9485
11
54.9772
21
-25.9485
0
ARC
8
BLACK
10
54.9772
20
-26.012
40
0.0635
50
270
51
450
0
ARC
8
BLACK
10
53.9612
20
-26.012
40
0.0635
50
90
51
270
0
LINE
8
BLACK
10
53.9612
20
-27.0515
11
54.9772
21
-27.0515
0
LINE
8
BLACK
10
53.9612
20
-26.9245
11
54.9772
21
-26.9245
0
ARC
8
BLACK
10
54.9772
20
-26.988
40
0.0635
50
270
51
450
0
ARC
8
BLACK
10
53.9612
20
-26.988
40
0.0635
50
90
51
270
0
LINE
8
BLACK
10
55.0407
20
-28.512
11
55.0407
21
-26.988
0
LINE
8
BLACK
10
54.9137
20
-28.512
11
54.9137
21
-26.988
0
ARC
8
BLACK
10
54.9772
20
-26.988
40
0.0635
50
360
51
540
0
ARC
8
BLACK
10
54.9772
20
-28.512
40
0.0635
50
180
51
360
0
LINE
8
BLACK
10
53.9612
20
-28.5755
11
54.9772
21
-28.5755
0
LINE
8
BLACK
10
53.9612
20
-28.4485
11
54.9772
21
-28.4485
0
ARC
8
BLACK
10
54.9772
20
-28.512
40
0.0635
50
270
51
450
0
ARC
8
BLACK
10
53.9612
20
-28.512
40
0.0635
50
90
51
270
0
LINE
8
BLACK
10
51.5228
20
-28.5755
11
52.5388
21
-28.5755
0
LINE
8
BLACK
10
51.5228
20
-28.4485
11
52.5388
21
-28.4485
0
ARC
8
BLACK
10
52.5388
20
-28.512
40
0.0635
50
270
51
450
0
ARC
8
BLACK
10
51.5228
20
-28.512
40
0.0635
50
90
51
270
0
LINE
8
BLACK
10
51.5863
20
-28.512
11
51.5863
21
-26.988
0
LINE
8
BLACK
10
51.4593
20
-28.512
11
51.4593
21
-26.988
0
ARC
8
BLACK
10
51.5228
20
-26.988
40
0.0635
50
360
51
540
0
ARC
8
BLACK
10
51.5228
20
-28.512
40
0.0635
50
180
51
360
0
LINE
8
BLACK
10
51.5228
20
-27.0515
11
52.5388
21
-27.0515
0
LINE
8
BLACK
10
51.5228
20
-26.9245
11
52.5388
21
-26.9245
0
ARC
8
BLACK
10
52.5388
20
-26.988
40
0.0635
50
270
51
450
0
ARC
8
BLACK
10
51.5228
20
-26.988
40
0.0635
50
90
51
270
0
LINE
8
BLACK
10
51.5228
20
-23.3255
11
52.5388
21
-23.3255
0
LINE
8
BLACK
10
51.5228
20
-23.1985
11
52.5388
21
-23.1985
0
ARC
8
BLACK
10
52.5388
20
-23.262
40
0.0635
50
270
51
450
0
ARC
8
BLACK
10
51.5228
20
-23.262
40
0.0635
50
90
51
270
0
LINE
8
BLACK
10
51.5863
20
-23.262
11
51.5863
21
-21.738
0
LINE
8
BLACK
10
51.4593
20
-23.262
11
51.4593
21
-21.738
0
ARC
8
BLACK
10
51.5228
20
-21.738
40
0.0635
50
360
51
540
0
ARC
8
BLACK
10
51.5228
20
-23.262
40
0.0635
50
180
51
360
0
LINE
8
BLACK
10
51.5228
20
-21.8015
11
52.5388
21
-21.8015
0
LINE
8
BLACK
10
51.5228
20
-21.6745
11
52.5388
21
-21.6745
0
ARC
8
BLACK
10
52.5388
20
-21.738
40
0.0635
50
270
51
450
0
ARC
8
BLACK
10
51.5228
20
-21.738
40
0.0635
50
90
51
270
0
LINE
8
BLACK
10
53.9612
20
-21.8015
11
54.9772
21
-21.8015
0
LINE
8
BLACK
10
53.9612
20
-21.6745
11
54.9772
21
-21.6745
0
ARC
8
BLACK
10
54.9772
20
-21.738
40
0.0635
50
270
51
450
0
ARC
8
BLACK
10
53.9612
20
-21.738
40
0.0635
50
90
51
270
0
LINE
8
BLACK
10
55.0407
20
-23.262
11
55.0407
21
-21.738
0
LINE
8
BLACK
10
54.9137
20
-23.262
11
54.9137
21
-21.738
0
ARC
8
BLACK
10
54.9772
20
-21.738
40
0.0635
50
360
51
540
0
ARC
8
BLACK
10
54.9772
20
-23.262
40
0.0635
50
180
51
360
0
LINE
8
BLACK
10
53.9612
20
-23.3255
11
54.9772
21
-23.3255
0
LINE
8
BLACK
10
53.9612
20
-23.1985
11
54.9772
21
-23.1985
0
ARC
8
BLACK
10
54.9772
20
-23.262
40
0.0635
50
270
51
450
0
ARC
8
BLACK
10
53.9612
20
-23.262
40
0.0635
50
90
51
270
0
LINE
8
BLACK
10
38.6586
20
-33.9342
11
39.1488
21
-33.9342
0
LINE
8
BLACK
10
38.6586
20
-33.8682
11
39.1488
21
-33.8682
0
ARC
8
BLACK
10
39.1488
20
-33.9012
40
0.03302
50
270
51
450
0
ARC
8
BLACK
10
38.6586
20
-33.9012
40
0.03302
50
90
51
270
0
LINE
8
BLACK
10
38.6916
20
-35.001
11
38.6916
21
-33.9012
0
LINE
8
BLACK
10
38.6256
20
-35.001
11
38.6256
21
-33.9012
0
ARC
8
BLACK
10
38.6586
20
-33.9012
40
0.03302
50
360
51
540
0
ARC
8
BLACK
10
38.6586
20
-35.001
40
0.03302
50
180
51
360
0
LINE
8
BLACK
10
38.6586
20
-35.034
11
39.1488
21
-35.034
0
LINE
8
BLACK
10
38.6586
20
-34.968
11
39.1488
21
-34.968
0
ARC
8
BLACK
10
39.1488
20
-35.001
40
0.03302
50
270
51
450
0
ARC
8
BLACK
10
38.6586
20
-35.001
40
0.03302
50
90
51
270
0
LINE
8
BLACK
10
39.1819
20
-35.001
11
39.1819
21
-33.9012
0
LINE
8
BLACK
10
39.1158
20
-35.001
11
39.1158
21
-33.9012
0
ARC
8
BLACK
10
39.1488
20
-33.9012
40
0.03302
50
360
51
540
0
ARC
8
BLACK
10
39.1488
20
-35.001
40
0.03302
50
180
51
360
0
LINE
8
BLACK
10
37.3886
20
-33.9342
11
37.8788
21
-33.9342
0
LINE
8
BLACK
10
37.3886
20
-33.8682
11
37.8788
21
-33.8682
0
ARC
8
BLACK
10
37.8788
20
-33.9012
40
0.03302
50
270
51
450
0
ARC
8
BLACK
10
37.3886
20
-33.9012
40
0.03302
50
90
51
270
0
LINE
8
BLACK
10
37.4216
20
-35.001
11
37.4216
21
-33.9012
0
LINE
8
BLACK
10
37.3556
20
-35.001
11
37.3556
21
-33.9012
0
ARC
8
BLACK
10
37.3886
20
-33.9012
40
0.03302
50
360
51
540
0
ARC
8
BLACK
10
37.3886
20
-35.001
40
0.03302
50
180
51
360
0
LINE
8
BLACK
10
37.3886
20
-35.034
11
37.8788
21
-35.034
0
LINE
8
BLACK
10
37.3886
20
-34.968
11
37.8788
21
-34.968
0
ARC
8
BLACK
10
37.8788
20
-35.001
40
0.03302
50
270
51
450
0
ARC
8
BLACK
10
37.3886
20
-35.001
40
0.03302
50
90
51
270
0
LINE
8
BLACK
10
37.9119
20
-35.001
11
37.9119
21
-33.9012
0
LINE
8
BLACK
10
37.8458
20
-35.001
11
37.8458
21
-33.9012
0
ARC
8
BLACK
10
37.8788
20
-33.9012
40
0.03302
50
360
51
540
0
ARC
8
BLACK
10
37.8788
20
-35.001
40
0.03302
50
180
51
360
0
LINE
8
BLACK
10
36.1212
20
-33.9342
11
36.6114
21
-33.9342
0
LINE
8
BLACK
10
36.1212
20
-33.8682
11
36.6114
21
-33.8682
0
ARC
8
BLACK
10
36.6114
20
-33.9012
40
0.03302
50
270
51
450
0
ARC
8
BLACK
10
36.1212
20
-33.9012
40
0.03302
50
90
51
270
0
LINE
8
BLACK
10
36.1542
20
-35.001
11
36.1542
21
-33.9012
0
LINE
8
BLACK
10
36.0881
20
-35.001
11
36.0881
21
-33.9012
0
ARC
8
BLACK
10
36.1212
20
-33.9012
40
0.03302
50
360
51
540
0
ARC
8
BLACK
10
36.1212
20
-35.001
40
0.03302
50
180
51
360
0
LINE
8
BLACK
10
36.1212
20
-35.034
11
36.6114
21
-35.034
0
LINE
8
BLACK
10
36.1212
20
-34.968
11
36.6114
21
-34.968
0
ARC
8
BLACK
10
36.6114
20
-35.001
40
0.03302
50
270
51
450
0
ARC
8
BLACK
10
36.1212
20
-35.001
40
0.03302
50
90
51
270
0
LINE
8
BLACK
10
36.6444
20
-35.001
11
36.6444
21
-33.9012
0
LINE
8
BLACK
10
36.5784
20
-35.001
11
36.5784
21
-33.9012
0
ARC
8
BLACK
10
36.6114
20
-33.9012
40
0.03302
50
360
51
540
0
ARC
8
BLACK
10
36.6114
20
-35.001
40
0.03302
50
180
51
360
0
LINE
8
BLACK
10
34.8512
20
-33.9342
11
35.3414
21
-33.9342
0
LINE
8
BLACK
10
34.8512
20
-33.8682
11
35.3414
21
-33.8682
0
ARC
8
BLACK
10
35.3414
20
-33.9012
40
0.03302
50
270
51
450
0
ARC
8
BLACK
10
34.8512
20
-33.9012
40
0.03302
50
90
51
270
0
LINE
8
BLACK
10
34.8842
20
-35.001
11
34.8842
21
-33.9012
0
LINE
8
BLACK
10
34.8181
20
-35.001
11
34.8181
21
-33.9012
0
ARC
8
BLACK
10
34.8512
20
-33.9012
40
0.03302
50
360
51
540
0
ARC
8
BLACK
10
34.8512
20
-35.001
40
0.03302
50
180
51
360
0
LINE
8
BLACK
10
34.8512
20
-35.034
11
35.3414
21
-35.034
0
LINE
8
BLACK
10
34.8512
20
-34.968
11
35.3414
21
-34.968
0
ARC
8
BLACK
10
35.3414
20
-35.001
40
0.03302
50
270
51
450
0
ARC
8
BLACK
10
34.8512
20
-35.001
40
0.03302
50
90
51
270
0
LINE
8
BLACK
10
35.3744
20
-35.001
11
35.3744
21
-33.9012
0
LINE
8
BLACK
10
35.3084
20
-35.001
11
35.3084
21
-33.9012
0
ARC
8
BLACK
10
35.3414
20
-33.9012
40
0.03302
50
360
51
540
0
ARC
8
BLACK
10
35.3414
20
-35.001
40
0.03302
50
180
51
360
0
LINE
8
BLACK
10
34.8512
20
-39.032
11
35.3414
21
-39.032
0
LINE
8
BLACK
10
34.8512
20
-38.966
11
35.3414
21
-38.966
0
ARC
8
BLACK
10
35.3414
20
-38.999
40
0.03302
50
270
51
450
0
ARC
8
BLACK
10
34.8512
20
-38.999
40
0.03302
50
90
51
270
0
LINE
8
BLACK
10
34.8842
20
-40.0988
11
34.8842
21
-38.999
0
LINE
8
BLACK
10
34.8181
20
-40.0988
11
34.8181
21
-38.999
0
ARC
8
BLACK
10
34.8512
20
-38.999
40
0.03302
50
360
51
540
0
ARC
8
BLACK
10
34.8512
20
-40.0988
40
0.03302
50
180
51
360
0
LINE
8
BLACK
10
34.8512
20
-40.1318
11
35.3414
21
-40.1318
0
LINE
8
BLACK
10
34.8512
20
-40.0658
11
35.3414
21
-40.0658
0
ARC
8
BLACK
10
35.3414
20
-40.0988
40
0.03302
50
270
51
450
0
ARC
8
BLACK
10
34.8512
20
-40.0988
40
0.03302
50
90
51
270
0
LINE
8
BLACK
10
35.3744
20
-40.0988
11
35.3744
21
-38.999
0
LINE
8
BLACK
10
35.3084
20
-40.0988
11
35.3084
21
-38.999
0
ARC
8
BLACK
10
35.3414
20
-38.999
40
0.03302
50
360
51
540
0
ARC
8
BLACK
10
35.3414
20
-40.0988
40
0.03302
50
180
51
360
0
LINE
8
BLACK
10
36.1212
20
-39.032
11
36.6114
21
-39.032
0
LINE
8
BLACK
10
36.1212
20
-38.966
11
36.6114
21
-38.966
0
ARC
8
BLACK
10
36.6114
20
-38.999
40
0.03302
50
270
51
450
0
ARC
8
BLACK
10
36.1212
20
-38.999
40
0.03302
50
90
51
270
0
LINE
8
BLACK
10
36.1542
20
-40.0988
11
36.1542
21
-38.999
0
LINE
8
BLACK
10
36.0881
20
-40.0988
11
36.0881
21
-38.999
0
ARC
8
BLACK
10
36.1212
20
-38.999
40
0.03302
50
360
51
540
0
ARC
8
BLACK
10
36.1212
20
-40.0988
40
0.03302
50
180
51
360
0
LINE
8
BLACK
10
36.1212
20
-40.1318
11
36.6114
21
-40.1318
0
LINE
8
BLACK
10
36.1212
20
-40.0658
11
36.6114
21
-40.0658
0
ARC
8
BLACK
10
36.6114
20
-40.0988
40
0.03302
50
270
51
450
0
ARC
8
BLACK
10
36.1212
20
-40.0988
40
0.03302
50
90
51
270
0
LINE
8
BLACK
10
36.6444
20
-40.0988
11
36.6444
21
-38.999
0
LINE
8
BLACK
10
36.5784
20
-40.0988
11
36.5784
21
-38.999
0
ARC
8
BLACK
10
36.6114
20
-38.999
40
0.03302
50
360
51
540
0
ARC
8
BLACK
10
36.6114
20
-40.0988
40
0.03302
50
180
51
360
0
LINE
8
BLACK
10
37.3886
20
-39.032
11
37.8788
21
-39.032
0
LINE
8
BLACK
10
37.3886
20
-38.966
11
37.8788
21
-38.966
0
ARC
8
BLACK
10
37.8788
20
-38.999
40
0.03302
50
270
51
450
0
ARC
8
BLACK
10
37.3886
20
-38.999
40
0.03302
50
90
51
270
0
LINE
8
BLACK
10
37.4216
20
-40.0988
11
37.4216
21
-38.999
0
LINE
8
BLACK
10
37.3556
20
-40.0988
11
37.3556
21
-38.999
0
ARC
8
BLACK
10
37.3886
20
-38.999
40
0.03302
50
360
51
540
0
ARC
8
BLACK
10
37.3886
20
-40.0988
40
0.03302
50
180
51
360
0
LINE
8
BLACK
10
37.3886
20
-40.1318
11
37.8788
21
-40.1318
0
LINE
8
BLACK
10
37.3886
20
-40.0658
11
37.8788
21
-40.0658
0
ARC
8
BLACK
10
37.8788
20
-40.0988
40
0.03302
50
270
51
450
0
ARC
8
BLACK
10
37.3886
20
-40.0988
40
0.03302
50
90
51
270
0
LINE
8
BLACK
10
37.9119
20
-40.0988
11
37.9119
21
-38.999
0
LINE
8
BLACK
10
37.8458
20
-40.0988
11
37.8458
21
-38.999
0
ARC
8
BLACK
10
37.8788
20
-38.999
40
0.03302
50
360
51
540
0
ARC
8
BLACK
10
37.8788
20
-40.0988
40
0.03302
50
180
51
360
0
LINE
8
BLACK
10
38.6586
20
-39.032
11
39.1488
21
-39.032
0
LINE
8
BLACK
10
38.6586
20
-38.966
11
39.1488
21
-38.966
0
ARC
8
BLACK
10
39.1488
20
-38.999
40
0.03302
50
270
51
450
0
ARC
8
BLACK
10
38.6586
20
-38.999
40
0.03302
50
90
51
270
0
LINE
8
BLACK
10
38.6916
20
-40.0988
11
38.6916
21
-38.999
0
LINE
8
BLACK
10
38.6256
20
-40.0988
11
38.6256
21
-38.999
0
ARC
8
BLACK
10
38.6586
20
-38.999
40
0.03302
50
360
51
540
0
ARC
8
BLACK
10
38.6586
20
-40.0988
40
0.03302
50
180
51
360
0
LINE
8
BLACK
10
38.6586
20
-40.1318
11
39.1488
21
-40.1318
0
LINE
8
BLACK
10
38.6586
20
-40.0658
11
39.1488
21
-40.0658
0
ARC
8
BLACK
10
39.1488
20
-40.0988
40
0.03302
50
270
51
450
0
ARC
8
BLACK
10
38.6586
20
-40.0988
40
0.03302
50
90
51
270
0
LINE
8
BLACK
10
39.1819
20
-40.0988
11
39.1819
21
-38.999
0
LINE
8
BLACK
10
39.1158
20
-40.0988
11
39.1158
21
-38.999
0
ARC
8
BLACK
10
39.1488
20
-38.999
40
0.03302
50
360
51
540
0
ARC
8
BLACK
10
39.1488
20
-40.0988
40
0.03302
50
180
51
360
0
LINE
8
BLACK
10
34.7038
20
-38.8999
11
34.7038
21
-35.6005
0
LINE
8
BLACK
10
34.5006
20
-38.8999
11
34.5006
21
-35.6005
0
ARC
8
BLACK
10
34.6022
20
-35.6005
40
0.1016
50
360
51
540
0
ARC
8
BLACK
10
34.6022
20
-38.8999
40
0.1016
50
180
51
360
0
LINE
8
BLACK
10
34.7038
20
-35.6005
11
34.7038
21
-35.1001
0
LINE
8
BLACK
10
34.5006
20
-35.6005
11
34.5006
21
-35.1001
0
ARC
8
BLACK
10
34.6022
20
-35.1001
40
0.1016
50
360
51
540
0
ARC
8
BLACK
10
34.6022
20
-35.6005
40
0.1016
50
180
51
360
0
LINE
8
BLACK
10
34.6022
20
-35.2017
11
39.3978
21
-35.2017
0
LINE
8
BLACK
10
34.6022
20
-34.9985
11
39.3978
21
-34.9985
0
ARC
8
BLACK
10
39.3978
20
-35.1001
40
0.1016
50
270
51
450
0
ARC
8
BLACK
10
34.6022
20
-35.1001
40
0.1016
50
90
51
270
0
LINE
8
BLACK
10
39.4994
20
-35.6005
11
39.4994
21
-35.1001
0
LINE
8
BLACK
10
39.2962
20
-35.6005
11
39.2962
21
-35.1001
0
ARC
8
BLACK
10
39.3978
20
-35.1001
40
0.1016
50
360
51
540
0
ARC
8
BLACK
10
39.3978
20
-35.6005
40
0.1016
50
180
51
360
0
LINE
8
BLACK
10
39.4994
20
-38.8999
11
39.4994
21
-35.6005
0
LINE
8
BLACK
10
39.2962
20
-38.8999
11
39.2962
21
-35.6005
0
ARC
8
BLACK
10
39.3978
20
-35.6005
40
0.1016
50
360
51
540
0
ARC
8
BLACK
10
39.3978
20
-38.8999
40
0.1016
50
180
51
360
0
LINE
8
BLACK
10
34.6022
20
-39.0015
11
39.3978
21
-39.0015
0
LINE
8
BLACK
10
34.6022
20
-38.7983
11
39.3978
21
-38.7983
0
ARC
8
BLACK
10
39.3978
20
-38.8999
40
0.1016
50
270
51
450
0
ARC
8
BLACK
10
34.6022
20
-38.8999
40
0.1016
50
90
51
270
0
LINE
8
BLACK
10
34.6022
20
-35.7021
11
39.3978
21
-35.7021
0
LINE
8
BLACK
10
34.6022
20
-35.4989
11
39.3978
21
-35.4989
0
ARC
8
BLACK
10
39.3978
20
-35.6005
40
0.1016
50
270
51
450
0
ARC
8
BLACK
10
34.6022
20
-35.6005
40
0.1016
50
90
51
270
0
LINE
8
BLACK
10
48.75
20
-49.45
11
48.75
21
-47.65
0
LINE
8
BLACK
10
48.45
20
-49.45
11
48.45
21
-47.65
0
ARC
8
BLACK
10
48.6
20
-47.65
40
0.15
50
360
51
540
0
ARC
8
BLACK
10
48.6
20
-49.45
40
0.15
50
180
51
360
0
CIRCLE
8
BLACK
10
48.6
20
-48.55
40
0.9
0
LINE
8
BLACK
10
43
20
-50.15
11
50
21
-50.15
0
LINE
8
BLACK
10
43
20
-49.85
11
50
21
-49.85
0
ARC
8
BLACK
10
50
20
-50
40
0.15
50
270
51
450
0
ARC
8
BLACK
10
43
20
-50
40
0.15
50
90
51
270
0
LINE
8
BLACK
10
50.15
20
-50
11
50.15
21
-45.8
0
LINE
8
BLACK
10
49.85
20
-50
11
49.85
21
-45.8
0
ARC
8
BLACK
10
50
20
-45.8
40
0.15
50
360
51
540
0
ARC
8
BLACK
10
50
20
-50
40
0.15
50
180
51
360
0
LINE
8
BLACK
10
43.15
20
-50
11
43.15
21
-45.8
0
LINE
8
BLACK
10
42.85
20
-50
11
42.85
21
-45.8
0
ARC
8
BLACK
10
43
20
-45.8
40
0.15
50
360
51
540
0
ARC
8
BLACK
10
43
20
-50
40
0.15
50
180
51
360
0
LINE
8
BLACK
10
43
20
-45.95
11
50
21
-45.95
0
LINE
8
BLACK
10
43
20
-45.65
11
50
21
-45.65
0
ARC
8
BLACK
10
50
20
-45.8
40
0.15
50
270
51
450
0
ARC
8
BLACK
10
43
20
-45.8
40
0.15
50
90
51
270
0
LINE
8
BLACK
10
57.75
20
-49.45
11
57.75
21
-47.65
0
LINE
8
BLACK
10
57.45
20
-49.45
11
57.45
21
-47.65
0
ARC
8
BLACK
10
57.6
20
-47.65
40
0.15
50
360
51
540
0
ARC
8
BLACK
10
57.6
20
-49.45
40
0.15
50
180
51
360
0
CIRCLE
8
BLACK
10
57.6
20
-48.55
40
0.9
0
LINE
8
BLACK
10
52
20
-50.15
11
59
21
-50.15
0
LINE
8
BLACK
10
52
20
-49.85
11
59
21
-49.85
0
ARC
8
BLACK
10
59
20
-50
40
0.15
50
270
51
450
0
ARC
8
BLACK
10
52
20
-50
40
0.15
50
90
51
270
0
LINE
8
BLACK
10
59.15
20
-50
11
59.15
21
-45.8
0
LINE
8
BLACK
10
58.85
20
-50
11
58.85
21
-45.8
0
ARC
8
BLACK
10
59
20
-45.8
40
0.15
50
360
51
540
0
ARC
8
BLACK
10
59
20
-50
40
0.15
50
180
51
360
0
LINE
8
BLACK
10
52.15
20
-50
11
52.15
21
-45.8
0
LINE
8
BLACK
10
51.85
20
-50
11
51.85
21
-45.8
0
ARC
8
BLACK
10
52
20
-45.8
40
0.15
50
360
51
540
0
ARC
8
BLACK
10
52
20
-50
40
0.15
50
180
51
360
0
LINE
8
BLACK
10
52
20
-45.95
11
59
21
-45.95
0
LINE
8
BLACK
10
52
20
-45.65
11
59
21
-45.65
0
ARC
8
BLACK
10
59
20
-45.8
40
0.15
50
270
51
450
0
ARC
8
BLACK
10
52
20
-45.8
40
0.15
50
90
51
270
0
LINE
8
BLACK
10
66.75
20
-49.45
11
66.75
21
-47.65
0
LINE
8
BLACK
10
66.45
20
-49.45
11
66.45
21
-47.65
0
ARC
8
BLACK
10
66.6
20
-47.65
40
0.15
50
360
51
540
0
ARC
8
BLACK
10
66.6
20
-49.45
40
0.15
50
180
51
360
0
CIRCLE
8
BLACK
10
66.6
20
-48.55
40
0.9
0
LINE
8
BLACK
10
61
20
-50.15
11
68
21
-50.15
0
LINE
8
BLACK
10
61
20
-49.85
11
68
21
-49.85
0
ARC
8
BLACK
10
68
20
-50
40
0.15
50
270
51
450
0
ARC
8
BLACK
10
61
20
-50
40
0.15
50
90
51
270
0
LINE
8
BLACK
10
68.15
20
-50
11
68.15
21
-45.8
0
LINE
8
BLACK
10
67.85
20
-50
11
67.85
21
-45.8
0
ARC
8
BLACK
10
68
20
-45.8
40
0.15
50
360
51
540
0
ARC
8
BLACK
10
68
20
-50
40
0.15
50
180
51
360
0
LINE
8
BLACK
10
61.15
20
-50
11
61.15
21
-45.8
0
LINE
8
BLACK
10
60.85
20
-50
11
60.85
21
-45.8
0
ARC
8
BLACK
10
61
20
-45.8
40
0.15
50
360
51
540
0
ARC
8
BLACK
10
61
20
-50
40
0.15
50
180
51
360
0
LINE
8
BLACK
10
61
20
-45.95
11
68
21
-45.95
0
LINE
8
BLACK
10
61
20
-45.65
11
68
21
-45.65
0
ARC
8
BLACK
10
68
20
-45.8
40
0.15
50
270
51
450
0
ARC
8
BLACK
10
61
20
-45.8
40
0.15
50
90
51
270
0
LINE
8
BLACK
10
27.55
20
-39.25
11
29.35
21
-39.25
0
LINE
8
BLACK
10
27.55
20
-38.95
11
29.35
21
-38.95
0
ARC
8
BLACK
10
29.35
20
-39.1
40
0.15
50
270
51
450
0
ARC
8
BLACK
10
27.55
20
-39.1
40
0.15
50
90
51
270
0
CIRCLE
8
BLACK
10
28.45
20
-39.1
40
0.9
0
LINE
8
BLACK
10
27.15
20
-40.5
11
27.15
21
-33.5
0
LINE
8
BLACK
10
26.85
20
-40.5
11
26.85
21
-33.5
0
ARC
8
BLACK
10
27
20
-33.5
40
0.15
50
360
51
540
0
ARC
8
BLACK
10
27
20
-40.5
40
0.15
50
180
51
360
0
LINE
8
BLACK
10
27
20
-40.65
11
31.2
21
-40.65
0
LINE
8
BLACK
10
27
20
-40.35
11
31.2
21
-40.35
0
ARC
8
BLACK
10
31.2
20
-40.5
40
0.15
50
270
51
450
0
ARC
8
BLACK
10
27
20
-40.5
40
0.15
50
90
51
270
0
LINE
8
BLACK
10
27
20
-33.65
11
31.2
21
-33.65
0
LINE
8
BLACK
10
27
20
-33.35
11
31.2
21
-33.35
0
ARC
8
BLACK
10
31.2
20
-33.5
40
0.15
50
270
51
450
0
ARC
8
BLACK
10
27
20
-33.5
40
0.15
50
90
51
270
0
LINE
8
BLACK
10
31.35
20
-40.5
11
31.35
21
-33.5
0
LINE
8
BLACK
10
31.05
20
-40.5
11
31.05
21
-33.5
0
ARC
8
BLACK
10
31.2
20
-33.5
40
0.15
50
360
51
540
0
ARC
8
BLACK
10
31.2
20
-40.5
40
0.15
50
180
51
360
0
LINE
8
BLACK
10
31.5755
20
-46.2272
11
31.5755
21
-45.2112
0
LINE
8
BLACK
10
31.4485
20
-46.2272
11
31.4485
21
-45.2112
0
ARC
8
BLACK
10
31.512
20
-45.2112
40
0.0635
50
360
51
540
0
ARC
8
BLACK
10
31.512
20
-46.2272
40
0.0635
50
180
51
360
0
LINE
8
BLACK
10
29.988
20
-46.2907
11
31.512
21
-46.2907
0
LINE
8
BLACK
10
29.988
20
-46.1637
11
31.512
21
-46.1637
0
ARC
8
BLACK
10
31.512
20
-46.2272
40
0.0635
50
270
51
450
0
ARC
8
BLACK
10
29.988
20
-46.2272
40
0.0635
50
90
51
270
0
LINE
8
BLACK
10
30.0515
20
-46.2272
11
30.0515
21
-45.2112
0
LINE
8
BLACK
10
29.9245
20
-46.2272
11
29.9245
21
-45.2112
0
ARC
8
BLACK
10
29.988
20
-45.2112
40
0.0635
50
360
51
540
0
ARC
8
BLACK
10
29.988
20
-46.2272
40
0.0635
50
180
51
360
0
LINE
8
BLACK
10
30.0515
20
-43.7888
11
30.0515
21
-42.7728
0
LINE
8
BLACK
10
29.9245
20
-43.7888
11
29.9245
21
-42.7728
0
ARC
8
BLACK
10
29.988
20
-42.7728
40
0.0635
50
360
51
540
0
ARC
8
BLACK
10
29.988
20
-43.7888
40
0.0635
50
180
51
360
0
LINE
8
BLACK
10
29.988
20
-42.8363
11
31.512
21
-42.8363
0
LINE
8
BLACK
10
29.988
20
-42.7093
11
31.512
21
-42.7093
0
ARC
8
BLACK
10
31.512
20
-42.7728
40
0.0635
50
270
51
450
0
ARC
8
BLACK
10
29.988
20
-42.7728
40
0.0635
50
90
51
270
0
LINE
8
BLACK
10
31.5755
20
-43.7888
11
31.5755
21
-42.7728
0
LINE
8
BLACK
10
31.4485
20
-43.7888
11
31.4485
21
-42.7728
0
ARC
8
BLACK
10
31.512
20
-42.7728
40
0.0635
50
360
51
540
0
ARC
8
BLACK
10
31.512
20
-43.7888
40
0.0635
50
180
51
360
0
LINE
8
BLACK
10
28.8255
20
-46.2272
11
28.8255
21
-45.2112
0
LINE
8
BLACK
10
28.6985
20
-46.2272
11
28.6985
21
-45.2112
0
ARC
8
BLACK
10
28.762
20
-45.2112
40
0.0635
50
360
51
540
0
ARC
8
BLACK
10
28.762
20
-46.2272
40
0.0635
50
180
51
360
0
LINE
8
BLACK
10
27.238
20
-46.2907
11
28.762
21
-46.2907
0
LINE
8
BLACK
10
27.238
20
-46.1637
11
28.762
21
-46.1637
0
ARC
8
BLACK
10
28.762
20
-46.2272
40
0.0635
50
270
51
450
0
ARC
8
BLACK
10
27.238
20
-46.2272
40
0.0635
50
90
51
270
0
LINE
8
BLACK
10
27.3015
20
-46.2272
11
27.3015
21
-45.2112
0
LINE
8
BLACK
10
27.1745
20
-46.2272
11
27.1745
21
-45.2112
0
ARC
8
BLACK
10
27.238
20
-45.2112
40
0.0635
50
360
51
540
0
ARC
8
BLACK
10
27.238
20
-46.2272
40
0.0635
50
180
51
360
0
LINE
8
BLACK
10
27.3015
20
-43.7888
11
27.3015
21
-42.7728
0
LINE
8
BLACK
10
27.1745
20
-43.7888
11
27.1745
21
-42.7728
0
ARC
8
BLACK
10
27.238
20
-42.7728
40
0.0635
50
360
51
540
0
ARC
8
BLACK
10
27.238
20
-43.7888
40
0.0635
50
180
51
360
0
LINE
8
BLACK
10
27.238
20
-42.8363
11
28.762
21
-42.8363
0
LINE
8
BLACK
10
27.238
20
-42.7093
11
28.762
21
-42.7093
0
ARC
8
BLACK
10
28.762
20
-42.7728
40
0.0635
50
270
51
450
0
ARC
8
BLACK
10
27.238
20
-42.7728
40
0.0635
50
90
51
270
0
LINE
8
BLACK
10
28.8255
20
-43.7888
11
28.8255
21
-42.7728
0
LINE
8
BLACK
10
28.6985
20
-43.7888
11
28.6985
21
-42.7728
0
ARC
8
BLACK
10
28.762
20
-42.7728
40
0.0635
50
360
51
540
0
ARC
8
BLACK
10
28.762
20
-43.7888
40
0.0635
50
180
51
360
0
LINE
8
BLACK
10
41.8255
20
-28.2272
11
41.8255
21
-27.2112
0
LINE
8
BLACK
10
41.6985
20
-28.2272
11
41.6985
21
-27.2112
0
ARC
8
BLACK
10
41.762
20
-27.2112
40
0.0635
50
360
51
540
0
ARC
8
BLACK
10
41.762
20
-28.2272
40
0.0635
50
180
51
360
0
LINE
8
BLACK
10
40.238
20
-28.2907
11
41.762
21
-28.2907
0
LINE
8
BLACK
10
40.238
20
-28.1637
11
41.762
21
-28.1637
0
ARC
8
BLACK
10
41.762
20
-28.2272
40
0.0635
50
270
51
450
0
ARC
8
BLACK
10
40.238
20
-28.2272
40
0.0635
50
90
51
270
0
LINE
8
BLACK
10
40.3015
20
-28.2272
11
40.3015
21
-27.2112
0
LINE
8
BLACK
10
40.1745
20
-28.2272
11
40.1745
21
-27.2112
0
ARC
8
BLACK
10
40.238
20
-27.2112
40
0.0635
50
360
51
540
0
ARC
8
BLACK
10
40.238
20
-28.2272
40
0.0635
50
180
51
360
0
LINE
8
BLACK
10
40.3015
20
-25.7888
11
40.3015
21
-24.7728
0
LINE
8
BLACK
10
40.1745
20
-25.7888
11
40.1745
21
-24.7728
0
ARC
8
BLACK
10
40.238
20
-24.7728
40
0.0635
50
360
51
540
0
ARC
8
BLACK
10
40.238
20
-25.7888
40
0.0635
50
180
51
360
0
LINE
8
BLACK
10
40.238
20
-24.8363
11
41.762
21
-24.8363
0
LINE
8
BLACK
10
40.238
20
-24.7093
11
41.762
21
-24.7093
0
ARC
8
BLACK
10
41.762
20
-24.7728
40
0.0635
50
270
51
450
0
ARC
8
BLACK
10
40.238
20
-24.7728
40
0.0635
50
90
51
270
0
LINE
8
BLACK
10
41.8255
20
-25.7888
11
41.8255
21
-24.7728
0
LINE
8
BLACK
10
41.6985
20
-25.7888
11
41.6985
21
-24.7728
0
ARC
8
BLACK
10
41.762
20
-24.7728
40
0.0635
50
360
51
540
0
ARC
8
BLACK
10
41.762
20
-25.7888
40
0.0635
50
180
51
360
0
LINE
8
BLACK
10
73.1505
20
-49.774
11
73.1505
21
-46.726
0
LINE
8
BLACK
10
72.7695
20
-49.774
11
72.7695
21
-46.726
0
ARC
8
BLACK
10
72.96
20
-46.726
40
0.1905
50
360
51
540
0
ARC
8
BLACK
10
72.96
20
-49.774
40
0.1905
50
180
51
360
0
LINE
8
BLACK
10
70.3565
20
-49.774
11
70.3565
21
-46.726
0
LINE
8
BLACK
10
69.9755
20
-49.774
11
69.9755
21
-46.726
0
ARC
8
BLACK
10
70.166
20
-46.726
40
0.1905
50
360
51
540
0
ARC
8
BLACK
10
70.166
20
-49.774
40
0.1905
50
180
51
360
0
LINE
8
BLACK
10
70.166
20
-49.9645
11
80.834
21
-49.9645
0
LINE
8
BLACK
10
70.166
20
-49.5835
11
80.834
21
-49.5835
0
ARC
8
BLACK
10
80.834
20
-49.774
40
0.1905
50
270
51
450
0
ARC
8
BLACK
10
70.166
20
-49.774
40
0.1905
50
90
51
270
0
LINE
8
BLACK
10
81.0245
20
-49.774
11
81.0245
21
-46.726
0
LINE
8
BLACK
10
80.6435
20
-49.774
11
80.6435
21
-46.726
0
ARC
8
BLACK
10
80.834
20
-46.726
40
0.1905
50
360
51
540
0
ARC
8
BLACK
10
80.834
20
-49.774
40
0.1905
50
180
51
360
0
LINE
8
BLACK
10
70.166
20
-46.9165
11
80.834
21
-46.9165
0
LINE
8
BLACK
10
70.166
20
-46.5355
11
80.834
21
-46.5355
0
ARC
8
BLACK
10
80.834
20
-46.726
40
0.1905
50
270
51
450
0
ARC
8
BLACK
10
70.166
20
-46.726
40
0.1905
50
90
51
270
0
LINE
8
BLACK
10
29.4001
20
-32.329
11
29.4001
21
-31.5162
0
LINE
8
BLACK
10
29.4001
20
-31.5162
11
29.5936
21
-31.5162
0
LINE
8
BLACK
10
29.5936
20
-31.5162
11
29.7097
21
-31.5549
0
LINE
8
BLACK
10
29.7097
20
-31.5549
11
29.7871
21
-31.6323
0
LINE
8
BLACK
10
29.7871
20
-31.6323
11
29.8258
21
-31.7097
0
LINE
8
BLACK
10
29.8258
20
-31.7097
11
29.8645
21
-31.8645
0
LINE
8
BLACK
10
29.8645
20
-31.8645
11
29.8645
21
-31.9806
0
LINE
8
BLACK
10
29.8645
20
-31.9806
11
29.8258
21
-32.1355
0
LINE
8
BLACK
10
29.8258
20
-32.1355
11
29.7871
21
-32.2129
0
LINE
8
BLACK
10
29.7871
20
-32.2129
11
29.7097
21
-32.2903
0
LINE
8
BLACK
10
29.7097
20
-32.2903
11
29.5936
21
-32.329
0
LINE
8
BLACK
10
29.5936
20
-32.329
11
29.4001
21
-32.329
0
LINE
8
BLACK
10
30.6386
20
-32.329
11
30.1742
21
-32.329
0
LINE
8
BLACK
10
30.4064
20
-32.329
11
30.4064
21
-31.5162
0
LINE
8
BLACK
10
30.4064
20
-31.5162
11
30.329
21
-31.6323
0
LINE
8
BLACK
10
30.329
20
-31.6323
11
30.2516
21
-31.7097
0
LINE
8
BLACK
10
30.2516
20
-31.7097
11
30.1742
21
-31.7484
0
LINE
8
BLACK
10
42.8645
20
-42.0016
11
42.8258
21
-42.0403
0
LINE
8
BLACK
10
42.8258
20
-42.0403
11
42.7097
21
-42.079
0
LINE
8
BLACK
10
42.7097
20
-42.079
11
42.6323
21
-42.079
0
LINE
8
BLACK
10
42.6323
20
-42.079
11
42.5162
21
-42.0403
0
LINE
8
BLACK
10
42.5162
20
-42.0403
11
42.4388
21
-41.9629
0
LINE
8
BLACK
10
42.4388
20
-41.9629
11
42.4001
21
-41.8855
0
LINE
8
BLACK
10
42.4001
20
-41.8855
11
42.3614
21
-41.7306
0
LINE
8
BLACK
10
42.3614
20
-41.7306
11
42.3614
21
-41.6145
0
LINE
8
BLACK
10
42.3614
20
-41.6145
11
42.4001
21
-41.4597
0
LINE
8
BLACK
10
42.4001
20
-41.4597
11
42.4388
21
-41.3823
0
LINE
8
BLACK
10
42.4388
20
-41.3823
11
42.5162
21
-41.3049
0
LINE
8
BLACK
10
42.5162
20
-41.3049
11
42.6323
21
-41.2662
0
LINE
8
BLACK
10
42.6323
20
-41.2662
11
42.7097
21
-41.2662
0
LINE
8
BLACK
10
42.7097
20
-41.2662
11
42.8258
21
-41.3049
0
LINE
8
BLACK
10
42.8258
20
-41.3049
11
42.8645
21
-41.3436
0
LINE
8
BLACK
10
43.5612
20
-41.2662
11
43.4064
21
-41.2662
0
LINE
8
BLACK
10
43.4064
20
-41.2662
11
43.329
21
-41.3049
0
LINE
8
BLACK
10
43.329
20
-41.3049
11
43.2903
21
-41.3436
0
LINE
8
BLACK
10
43.2903
20
-41.3436
11
43.2129
21
-41.4597
0
LINE
8
BLACK
10
43.2129
20
-41.4597
11
43.1742
21
-41.6145
0
LINE
8
BLACK
10
43.1742
20
-41.6145
11
43.1742
21
-41.9242
0
LINE
8
BLACK
10
43.1742
20
-41.9242
11
43.2129
21
-42.0016
0
LINE
8
BLACK
10
43.2129
20
-42.0016
11
43.2516
21
-42.0403
0
LINE
8
BLACK
10
43.2516
20
-42.0403
11
43.329
21
-42.079
0
LINE
8
BLACK
10
43.329
20
-42.079
11
43.4838
21
-42.079
0
LINE
8
BLACK
10
43.4838
20
-42.079
11
43.5612
21
-42.0403
0
LINE
8
BLACK
10
43.5612
20
-42.0403
11
43.5999
21
-42.0016
0
LINE
8
BLACK
10
43.5999
20
-42.0016
11
43.6386
21
-41.9242
0
LINE
8
BLACK
10
43.6386
20
-41.9242
11
43.6386
21
-41.7306
0
LINE
8
BLACK
10
43.6386
20
-41.7306
11
43.5999
21
-41.6532
0
LINE
8
BLACK
10
43.5999
20
-41.6532
11
43.5612
21
-41.6145
0
LINE
8
BLACK
10
43.5612
20
-41.6145
11
43.4838
21
-41.5758
0
LINE
8
BLACK
10
43.4838
20
-41.5758
11
43.329
21
-41.5758
0
LINE
8
BLACK
10
43.329
20
-41.5758
11
43.2516
21
-41.6145
0
LINE
8
BLACK
10
43.2516
20
-41.6145
11
43.2129
21
-41.6532
0
LINE
8
BLACK
10
43.2129
20
-41.6532
11
43.1742
21
-41.7306
0
LINE
8
BLACK
10
42.8645
20
-32.2516
11
42.8258
21
-32.2903
0
LINE
8
BLACK
10
42.8258
20
-32.2903
11
42.7097
21
-32.329
0
LINE
8
BLACK
10
42.7097
20
-32.329
11
42.6323
21
-32.329
0
LINE
8
BLACK
10
42.6323
20
-32.329
11
42.5162
21
-32.2903
0
LINE
8
BLACK
10
42.5162
20
-32.2903
11
42.4388
21
-32.2129
0
LINE
8
BLACK
10
42.4388
20
-32.2129
11
42.4001
21
-32.1355
0
LINE
8
BLACK
10
42.4001
20
-32.1355
11
42.3614
21
-31.9806
0
LINE
8
BLACK
10
42.3614
20
-31.9806
11
42.3614
21
-31.8645
0
LINE
8
BLACK
10
42.3614
20
-31.8645
11
42.4001
21
-31.7097
0
LINE
8
BLACK
10
42.4001
20
-31.7097
11
42.4388
21
-31.6323
0
LINE
8
BLACK
10
42.4388
20
-31.6323
11
42.5162
21
-31.5549
0
LINE
8
BLACK
10
42.5162
20
-31.5549
11
42.6323
21
-31.5162
0
LINE
8
BLACK
10
42.6323
20
-31.5162
11
42.7097
21
-31.5162
0
LINE
8
BLACK
10
42.7097
20
-31.5162
11
42.8258
21
-31.5549
0
LINE
8
BLACK
10
42.8258
20
-31.5549
11
42.8645
21
-31.5936
0
LINE
8
BLACK
10
43.5612
20
-31.7871
11
43.5612
21
-32.329
0
LINE
8
BLACK
10
43.3677
20
-31.4775
11
43.1742
21
-32.0581
0
LINE
8
BLACK
10
43.1742
20
-32.0581
11
43.6773
21
-32.0581
0
LINE
8
BLACK
10
43.2275
20
-29.579
11
42.9566
21
-29.1919
0
LINE
8
BLACK
10
42.763
20
-29.579
11
42.763
21
-28.7662
0
LINE
8
BLACK
10
42.763
20
-28.7662
11
43.0727
21
-28.7662
0
LINE
8
BLACK
10
43.0727
20
-28.7662
11
43.1501
21
-28.8049
0
LINE
8
BLACK
10
43.1501
20
-28.8049
11
43.1888
21
-28.8436
0
LINE
8
BLACK
10
43.1888
20
-28.8436
11
43.2275
21
-28.921
0
LINE
8
BLACK
10
43.2275
20
-28.921
11
43.2275
21
-29.0371
0
LINE
8
BLACK
10
43.2275
20
-29.0371
11
43.1888
21
-29.1145
0
LINE
8
BLACK
10
43.1888
20
-29.1145
11
43.1501
21
-29.1532
0
LINE
8
BLACK
10
43.1501
20
-29.1532
11
43.0727
21
-29.1919
0
LINE
8
BLACK
10
43.0727
20
-29.1919
11
42.763
21
-29.1919
0
LINE
8
BLACK
10
44.0016
20
-29.579
11
43.5371
21
-29.579
0
LINE
8
BLACK
10
43.7694
20
-29.579
11
43.7694
21
-28.7662
0
LINE
8
BLACK
10
43.7694
20
-28.7662
11
43.6919
21
-28.8823
0
LINE
8
BLACK
10
43.6919
20
-28.8823
11
43.6145
21
-28.9597
0
LINE
8
BLACK
10
43.6145
20
-28.9597
11
43.5371
21
-28.9984
0
LINE
8
BLACK
10
44.2725
20
-28.7662
11
44.7757
21
-28.7662
0
LINE
8
BLACK
10
44.7757
20
-28.7662
11
44.5047
21
-29.0758
0
LINE
8
BLACK
10
44.5047
20
-29.0758
11
44.6209
21
-29.0758
0
LINE
8
BLACK
10
44.6209
20
-29.0758
11
44.6983
21
-29.1145
0
LINE
8
BLACK
10
44.6983
20
-29.1145
11
44.737
21
-29.1532
0
LINE
8
BLACK
10
44.737
20
-29.1532
11
44.7757
21
-29.2306
0
LINE
8
BLACK
10
44.7757
20
-29.2306
11
44.7757
21
-29.4242
0
LINE
8
BLACK
10
44.7757
20
-29.4242
11
44.737
21
-29.5016
0
LINE
8
BLACK
10
44.737
20
-29.5016
11
44.6983
21
-29.5403
0
LINE
8
BLACK
10
44.6983
20
-29.5403
11
44.6209
21
-29.579
0
LINE
8
BLACK
10
44.6209
20
-29.579
11
44.3886
21
-29.579
0
LINE
8
BLACK
10
44.3886
20
-29.579
11
44.3112
21
-29.5403
0
LINE
8
BLACK
10
44.3112
20
-29.5403
11
44.2725
21
-29.5016
0
LINE
8
BLACK
10
67.9775
20
-37.432
11
67.7066
21
-37.0449
0
LINE
8
BLACK
10
67.513
20
-37.432
11
67.513
21
-36.6192
0
LINE
8
BLACK
10
67.513
20
-36.6192
11
67.8227
21
-36.6192
0
LINE
8
BLACK
10
67.8227
20
-36.6192
11
67.9001
21
-36.6579
0
LINE
8
BLACK
10
67.9001
20
-36.6579
11
67.9388
21
-36.6966
0
LINE
8
BLACK
10
67.9388
20
-36.6966
11
67.9775
21
-36.774
0
LINE
8
BLACK
10
67.9775
20
-36.774
11
67.9775
21
-36.8901
0
LINE
8
BLACK
10
67.9775
20
-36.8901
11
67.9388
21
-36.9675
0
LINE
8
BLACK
10
67.9388
20
-36.9675
11
67.9001
21
-37.0062
0
LINE
8
BLACK
10
67.9001
20
-37.0062
11
67.8227
21
-37.0449
0
LINE
8
BLACK
10
67.8227
20
-37.0449
11
67.513
21
-37.0449
0
LINE
8
BLACK
10
68.7516
20
-37.432
11
68.2871
21
-37.432
0
LINE
8
BLACK
10
68.5194
20
-37.432
11
68.5194
21
-36.6192
0
LINE
8
BLACK
10
68.5194
20
-36.6192
11
68.4419
21
-36.7353
0
LINE
8
BLACK
10
68.4419
20
-36.7353
11
68.3645
21
-36.8127
0
LINE
8
BLACK
10
68.3645
20
-36.8127
11
68.2871
21
-36.8514
0
LINE
8
BLACK
10
69.5257
20
-37.432
11
69.0612
21
-37.432
0
LINE
8
BLACK
10
69.2934
20
-37.432
11
69.2934
21
-36.6192
0
LINE
8
BLACK
10
69.2934
20
-36.6192
11
69.216
21
-36.7353
0
LINE
8
BLACK
10
69.216
20
-36.7353
11
69.1386
21
-36.8127
0
LINE
8
BLACK
10
69.1386
20
-36.8127
11
69.0612
21
-36.8514
0
LINE
8
BLACK
10
67.9775
20
-34.432
11
67.7066
21
-34.0449
0
LINE
8
BLACK
10
67.513
20
-34.432
11
67.513
21
-33.6192
0
LINE
8
BLACK
10
67.513
20
-33.6192
11
67.8227
21
-33.6192
0
LINE
8
BLACK
10
67.8227
20
-33.6192
11
67.9001
21
-33.6579
0
LINE
8
BLACK
10
67.9001
20
-33.6579
11
67.9388
21
-33.6966
0
LINE
8
BLACK
10
67.9388
20
-33.6966
11
67.9775
21
-33.774
0
LINE
8
BLACK
10
67.9775
20
-33.774
11
67.9775
21
-33.8901
0
LINE
8
BLACK
10
67.9775
20
-33.8901
11
67.9388
21
-33.9675
0
LINE
8
BLACK
10
67.9388
20
-33.9675
11
67.9001
21
-34.0062
0
LINE
8
BLACK
10
67.9001
20
-34.0062
11
67.8227
21
-34.0449
0
LINE
8
BLACK
10
67.8227
20
-34.0449
11
67.513
21
-34.0449
0
LINE
8
BLACK
10
68.7516
20
-34.432
11
68.2871
21
-34.432
0
LINE
8
BLACK
10
68.5194
20
-34.432
11
68.5194
21
-33.6192
0
LINE
8
BLACK
10
68.5194
20
-33.6192
11
68.4419
21
-33.7353
0
LINE
8
BLACK
10
68.4419
20
-33.7353
11
68.3645
21
-33.8127
0
LINE
8
BLACK
10
68.3645
20
-33.8127
11
68.2871
21
-33.8514
0
LINE
8
BLACK
10
69.2547
20
-33.6192
11
69.3322
21
-33.6192
0
LINE
8
BLACK
10
69.3322
20
-33.6192
11
69.4096
21
-33.6579
0
LINE
8
BLACK
10
69.4096
20
-33.6579
11
69.4483
21
-33.6966
0
LINE
8
BLACK
10
69.4483
20
-33.6966
11
69.487
21
-33.774
0
LINE
8
BLACK
10
69.487
20
-33.774
11
69.5257
21
-33.9288
0
LINE
8
BLACK
10
69.5257
20
-33.9288
11
69.5257
21
-34.1224
0
LINE
8
BLACK
10
69.5257
20
-34.1224
11
69.487
21
-34.2772
0
LINE
8
BLACK
10
69.487
20
-34.2772
11
69.4483
21
-34.3546
0
LINE
8
BLACK
10
69.4483
20
-34.3546
11
69.4096
21
-34.3933
0
LINE
8
BLACK
10
69.4096
20
-34.3933
11
69.3322
21
-34.432
0
LINE
8
BLACK
10
69.3322
20
-34.432
11
69.2547
21
-34.432
0
LINE
8
BLACK
10
69.2547
20
-34.432
11
69.1773
21
-34.3933
0
LINE
8
BLACK
10
69.1773
20
-34.3933
11
69.1386
21
-34.3546
0
LINE
8
BLACK
10
69.1386
20
-34.3546
11
69.0999
21
-34.2772
0
LINE
8
BLACK
10
69.0999
20
-34.2772
11
69.0612
21
-34.1224
0
LINE
8
BLACK
10
69.0612
20
-34.1224
11
69.0612
21
-33.9288
0
LINE
8
BLACK
10
69.0612
20
-33.9288
11
69.0999
21
-33.774
0
LINE
8
BLACK
10
69.0999
20
-33.774
11
69.1386
21
-33.6966
0
LINE
8
BLACK
10
69.1386
20
-33.6966
11
69.1773
21
-33.6579
0
LINE
8
BLACK
10
69.1773
20
-33.6579
11
69.2547
21
-33.6192
0
LINE
8
BLACK
10
68.3645
20
-31.432
11
68.0936
21
-31.0449
0
LINE
8
BLACK
10
67.9001
20
-31.432
11
67.9001
21
-30.6192
0
LINE
8
BLACK
10
67.9001
20
-30.6192
11
68.2097
21
-30.6192
0
LINE
8
BLACK
10
68.2097
20
-30.6192
11
68.2871
21
-30.6579
0
LINE
8
BLACK
10
68.2871
20
-30.6579
11
68.3258
21
-30.6966
0
LINE
8
BLACK
10
68.3258
20
-30.6966
11
68.3645
21
-30.774
0
LINE
8
BLACK
10
68.3645
20
-30.774
11
68.3645
21
-30.8901
0
LINE
8
BLACK
10
68.3645
20
-30.8901
11
68.3258
21
-30.9675
0
LINE
8
BLACK
10
68.3258
20
-30.9675
11
68.2871
21
-31.0062
0
LINE
8
BLACK
10
68.2871
20
-31.0062
11
68.2097
21
-31.0449
0
LINE
8
BLACK
10
68.2097
20
-31.0449
11
67.9001
21
-31.0449
0
LINE
8
BLACK
10
68.829
20
-30.9675
11
68.7516
21
-30.9288
0
LINE
8
BLACK
10
68.7516
20
-30.9288
11
68.7129
21
-30.8901
0
LINE
8
BLACK
10
68.7129
20
-30.8901
11
68.6742
21
-30.8127
0
LINE
8
BLACK
10
68.6742
20
-30.8127
11
68.6742
21
-30.774
0
LINE
8
BLACK
10
68.6742
20
-30.774
11
68.7129
21
-30.6966
0
LINE
8
BLACK
10
68.7129
20
-30.6966
11
68.7516
21
-30.6579
0
LINE
8
BLACK
10
68.7516
20
-30.6579
11
68.829
21
-30.6192
0
LINE
8
BLACK
10
68.829
20
-30.6192
11
68.9838
21
-30.6192
0
LINE
8
BLACK
10
68.9838
20
-30.6192
11
69.0612
21
-30.6579
0
LINE
8
BLACK
10
69.0612
20
-30.6579
11
69.0999
21
-30.6966
0
LINE
8
BLACK
10
69.0999
20
-30.6966
11
69.1386
21
-30.774
0
LINE
8
BLACK
10
69.1386
20
-30.774
11
69.1386
21
-30.8127
0
LINE
8
BLACK
10
69.1386
20
-30.8127
11
69.0999
21
-30.8901
0
LINE
8
BLACK
10
69.0999
20
-30.8901
11
69.0612
21
-30.9288
0
LINE
8
BLACK
10
69.0612
20
-30.9288
11
68.9838
21
-30.9675
0
LINE
8
BLACK
10
68.9838
20
-30.9675
11
68.829
21
-30.9675
0
LINE
8
BLACK
10
68.829
20
-30.9675
11
68.7516
21
-31.0062
0
LINE
8
BLACK
10
68.7516
20
-31.0062
11
68.7129
21
-31.0449
0
LINE
8
BLACK
10
68.7129
20
-31.0449
11
68.6742
21
-31.1224
0
LINE
8
BLACK
10
68.6742
20
-31.1224
11
68.6742
21
-31.2772
0
LINE
8
BLACK
10
68.6742
20
-31.2772
11
68.7129
21
-31.3546
0
LINE
8
BLACK
10
68.7129
20
-31.3546
11
68.7516
21
-31.3933
0
LINE
8
BLACK
10
68.7516
20
-31.3933
11
68.829
21
-31.432
0
LINE
8
BLACK
10
68.829
20
-31.432
11
68.9838
21
-31.432
0
LINE
8
BLACK
10
68.9838
20
-31.432
11
69.0612
21
-31.3933
0
LINE
8
BLACK
10
69.0612
20
-31.3933
11
69.0999
21
-31.3546
0
LINE
8
BLACK
10
69.0999
20
-31.3546
11
69.1386
21
-31.2772
0
LINE
8
BLACK
10
69.1386
20
-31.2772
11
69.1386
21
-31.1224
0
LINE
8
BLACK
10
69.1386
20
-31.1224
11
69.0999
21
-31.0449
0
LINE
8
BLACK
10
69.0999
20
-31.0449
11
69.0612
21
-31.0062
0
LINE
8
BLACK
10
69.0612
20
-31.0062
11
68.9838
21
-30.9675
0
LINE
8
BLACK
10
68.3645
20
-28.432
11
68.0936
21
-28.0449
0
LINE
8
BLACK
10
67.9001
20
-28.432
11
67.9001
21
-27.6192
0
LINE
8
BLACK
10
67.9001
20
-27.6192
11
68.2097
21
-27.6192
0
LINE
8
BLACK
10
68.2097
20
-27.6192
11
68.2871
21
-27.6579
0
LINE
8
BLACK
10
68.2871
20
-27.6579
11
68.3258
21
-27.6966
0
LINE
8
BLACK
10
68.3258
20
-27.6966
11
68.3645
21
-27.774
0
LINE
8
BLACK
10
68.3645
20
-27.774
11
68.3645
21
-27.8901
0
LINE
8
BLACK
10
68.3645
20
-27.8901
11
68.3258
21
-27.9675
0
LINE
8
BLACK
10
68.3258
20
-27.9675
11
68.2871
21
-28.0062
0
LINE
8
BLACK
10
68.2871
20
-28.0062
11
68.2097
21
-28.0449
0
LINE
8
BLACK
10
68.2097
20
-28.0449
11
67.9001
21
-28.0449
0
LINE
8
BLACK
10
69.0999
20
-27.6192
11
68.7129
21
-27.6192
0
LINE
8
BLACK
10
68.7129
20
-27.6192
11
68.6742
21
-28.0062
0
LINE
8
BLACK
10
68.6742
20
-28.0062
11
68.7129
21
-27.9675
0
LINE
8
BLACK
10
68.7129
20
-27.9675
11
68.7903
21
-27.9288
0
LINE
8
BLACK
10
68.7903
20
-27.9288
11
68.9838
21
-27.9288
0
LINE
8
BLACK
10
68.9838
20
-27.9288
11
69.0612
21
-27.9675
0
LINE
8
BLACK
10
69.0612
20
-27.9675
11
69.0999
21
-28.0062
0
LINE
8
BLACK
10
69.0999
20
-28.0062
11
69.1386
21
-28.0836
0
LINE
8
BLACK
10
69.1386
20
-28.0836
11
69.1386
21
-28.2772
0
LINE
8
BLACK
10
69.1386
20
-28.2772
11
69.0999
21
-28.3546
0
LINE
8
BLACK
10
69.0999
20
-28.3546
11
69.0612
21
-28.3933
0
LINE
8
BLACK
10
69.0612
20
-28.3933
11
68.9838
21
-28.432
0
LINE
8
BLACK
10
68.9838
20
-28.432
11
68.7903
21
-28.432
0
LINE
8
BLACK
10
68.7903
20
-28.432
11
68.7129
21
-28.3933
0
LINE
8
BLACK
10
68.7129
20
-28.3933
11
68.6742
21
-28.3546
0
LINE
8
BLACK
10
68.3645
20
-25.432
11
68.0936
21
-25.0449
0
LINE
8
BLACK
10
67.9001
20
-25.432
11
67.9001
21
-24.6192
0
LINE
8
BLACK
10
67.9001
20
-24.6192
11
68.2097
21
-24.6192
0
LINE
8
BLACK
10
68.2097
20
-24.6192
11
68.2871
21
-24.6579
0
LINE
8
BLACK
10
68.2871
20
-24.6579
11
68.3258
21
-24.6966
0
LINE
8
BLACK
10
68.3258
20
-24.6966
11
68.3645
21
-24.774
0
LINE
8
BLACK
10
68.3645
20
-24.774
11
68.3645
21
-24.8901
0
LINE
8
BLACK
10
68.3645
20
-24.8901
11
68.3258
21
-24.9675
0
LINE
8
BLACK
10
68.3258
20
-24.9675
11
68.2871
21
-25.0062
0
LINE
8
BLACK
10
68.2871
20
-25.0062
11
68.2097
21
-25.0449
0
LINE
8
BLACK
10
68.2097
20
-25.0449
11
67.9001
21
-25.0449
0
LINE
8
BLACK
10
68.6355
20
-24.6192
11
69.1386
21
-24.6192
0
LINE
8
BLACK
10
69.1386
20
-24.6192
11
68.8677
21
-24.9288
0
LINE
8
BLACK
10
68.8677
20
-24.9288
11
68.9838
21
-24.9288
0
LINE
8
BLACK
10
68.9838
20
-24.9288
11
69.0612
21
-24.9675
0
LINE
8
BLACK
10
69.0612
20
-24.9675
11
69.0999
21
-25.0062
0
LINE
8
BLACK
10
69.0999
20
-25.0062
11
69.1386
21
-25.0836
0
LINE
8
BLACK
10
69.1386
20
-25.0836
11
69.1386
21
-25.2772
0
LINE
8
BLACK
10
69.1386
20
-25.2772
11
69.0999
21
-25.3546
0
LINE
8
BLACK
10
69.0999
20
-25.3546
11
69.0612
21
-25.3933
0
LINE
8
BLACK
10
69.0612
20
-25.3933
11
68.9838
21
-25.432
0
LINE
8
BLACK
10
68.9838
20
-25.432
11
68.7516
21
-25.432
0
LINE
8
BLACK
10
68.7516
20
-25.432
11
68.6742
21
-25.3933
0
LINE
8
BLACK
10
68.6742
20
-25.3933
11
68.6355
21
-25.3546
0
LINE
8
BLACK
10
37.329
20
-29.3855
11
36.9419
21
-29.6564
0
LINE
8
BLACK
10
37.329
20
-29.8499
11
36.5162
21
-29.8499
0
LINE
8
BLACK
10
36.5162
20
-29.8499
11
36.5162
21
-29.5403
0
LINE
8
BLACK
10
36.5162
20
-29.5403
11
36.5549
21
-29.4629
0
LINE
8
BLACK
10
36.5549
20
-29.4629
11
36.5936
21
-29.4242
0
LINE
8
BLACK
10
36.5936
20
-29.4242
11
36.671
21
-29.3855
0
LINE
8
BLACK
10
36.671
20
-29.3855
11
36.7871
21
-29.3855
0
LINE
8
BLACK
10
36.7871
20
-29.3855
11
36.8645
21
-29.4242
0
LINE
8
BLACK
10
36.8645
20
-29.4242
11
36.9032
21
-29.4629
0
LINE
8
BLACK
10
36.9032
20
-29.4629
11
36.9419
21
-29.5403
0
LINE
8
BLACK
10
36.9419
20
-29.5403
11
36.9419
21
-29.8499
0
LINE
8
BLACK
10
36.5162
20
-29.1145
11
36.5162
21
-28.5727
0
LINE
8
BLACK
10
36.5162
20
-28.5727
11
37.329
21
-28.921
0
LINE
8
BLACK
10
27.329
20
-24.3855
11
26.9419
21
-24.6564
0
LINE
8
BLACK
10
27.329
20
-24.8499
11
26.5162
21
-24.8499
0
LINE
8
BLACK
10
26.5162
20
-24.8499
11
26.5162
21
-24.5403
0
LINE
8
BLACK
10
26.5162
20
-24.5403
11
26.5549
21
-24.4629
0
LINE
8
BLACK
10
26.5549
20
-24.4629
11
26.5936
21
-24.4242
0
LINE
8
BLACK
10
26.5936
20
-24.4242
11
26.671
21
-24.3855
0
LINE
8
BLACK
10
26.671
20
-24.3855
11
26.7871
21
-24.3855
0
LINE
8
BLACK
10
26.7871
20
-24.3855
11
26.8645
21
-24.4242
0
LINE
8
BLACK
10
26.8645
20
-24.4242
11
26.9032
21
-24.4629
0
LINE
8
BLACK
10
26.9032
20
-24.4629
11
26.9419
21
-24.5403
0
LINE
8
BLACK
10
26.9419
20
-24.5403
11
26.9419
21
-24.8499
0
LINE
8
BLACK
10
26.5936
20
-24.0758
11
26.5549
21
-24.0371
0
LINE
8
BLACK
10
26.5549
20
-24.0371
11
26.5162
21
-23.9597
0
LINE
8
BLACK
10
26.5162
20
-23.9597
11
26.5162
21
-23.7662
0
LINE
8
BLACK
10
26.5162
20
-23.7662
11
26.5549
21
-23.6888
0
LINE
8
BLACK
10
26.5549
20
-23.6888
11
26.5936
21
-23.6501
0
LINE
8
BLACK
10
26.5936
20
-23.6501
11
26.671
21
-23.6114
0
LINE
8
BLACK
10
26.671
20
-23.6114
11
26.7484
21
-23.6114
0
LINE
8
BLACK
10
26.7484
20
-23.6114
11
26.8645
21
-23.6501
0
LINE
8
BLACK
10
26.8645
20
-23.6501
11
27.329
21
-24.1145
0
LINE
8
BLACK
10
27.329
20
-24.1145
11
27.329
21
-23.6114
0
LINE
8
BLACK
10
37.2516
20
-24.3855
11
37.2903
21
-24.4242
0
LINE
8
BLACK
10
37.2903
20
-24.4242
11
37.329
21
-24.5403
0
LINE
8
BLACK
10
37.329
20
-24.5403
11
37.329
21
-24.6177
0
LINE
8
BLACK
10
37.329
20
-24.6177
11
37.2903
21
-24.7338
0
LINE
8
BLACK
10
37.2903
20
-24.7338
11
37.2129
21
-24.8112
0
LINE
8
BLACK
10
37.2129
20
-24.8112
11
37.1355
21
-24.8499
0
LINE
8
BLACK
10
37.1355
20
-24.8499
11
36.9806
21
-24.8886
0
LINE
8
BLACK
10
36.9806
20
-24.8886
11
36.8645
21
-24.8886
0
LINE
8
BLACK
10
36.8645
20
-24.8886
11
36.7097
21
-24.8499
0
LINE
8
BLACK
10
36.7097
20
-24.8499
11
36.6323
21
-24.8112
0
LINE
8
BLACK
10
36.6323
20
-24.8112
11
36.5549
21
-24.7338
0
LINE
8
BLACK
10
36.5549
20
-24.7338
11
36.5162
21
-24.6177
0
LINE
8
BLACK
10
36.5162
20
-24.6177
11
36.5162
21
-24.5403
0
LINE
8
BLACK
10
36.5162
20
-24.5403
11
36.5549
21
-24.4242
0
LINE
8
BLACK
10
36.5549
20
-24.4242
11
36.5936
21
-24.3855
0
LINE
8
BLACK
10
37.329
20
-23.6114
11
37.329
21
-24.0758
0
LINE
8
BLACK
10
37.329
20
-23.8436
11
36.5162
21
-23.8436
0
LINE
8
BLACK
10
36.5162
20
-23.8436
11
36.6323
21
-23.921
0
LINE
8
BLACK
10
36.6323
20
-23.921
11
36.7097
21
-23.9984
0
LINE
8
BLACK
10
36.7097
20
-23.9984
11
36.7484
21
-24.0758
0
LINE
8
BLACK
10
45.7275
20
-29.579
11
45.4566
21
-29.1919
0
LINE
8
BLACK
10
45.263
20
-29.579
11
45.263
21
-28.7662
0
LINE
8
BLACK
10
45.263
20
-28.7662
11
45.5727
21
-28.7662
0
LINE
8
BLACK
10
45.5727
20
-28.7662
11
45.6501
21
-28.8049
0
LINE
8
BLACK
10
45.6501
20
-28.8049
11
45.6888
21
-28.8436
0
LINE
8
BLACK
10
45.6888
20
-28.8436
11
45.7275
21
-28.921
0
LINE
8
BLACK
10
45.7275
20
-28.921
11
45.7275
21
-29.0371
0
LINE
8
BLACK
10
45.7275
20
-29.0371
11
45.6888
21
-29.1145
0
LINE
8
BLACK
10
45.6888
20
-29.1145
11
45.6501
21
-29.1532
0
LINE
8
BLACK
10
45.6501
20
-29.1532
11
45.5727
21
-29.1919
0
LINE
8
BLACK
10
45.5727
20
-29.1919
11
45.263
21
-29.1919
0
LINE
8
BLACK
10
46.5016
20
-29.579
11
46.0371
21
-29.579
0
LINE
8
BLACK
10
46.2694
20
-29.579
11
46.2694
21
-28.7662
0
LINE
8
BLACK
10
46.2694
20
-28.7662
11
46.1919
21
-28.8823
0
LINE
8
BLACK
10
46.1919
20
-28.8823
11
46.1145
21
-28.9597
0
LINE
8
BLACK
10
46.1145
20
-28.9597
11
46.0371
21
-28.9984
0
LINE
8
BLACK
10
46.8112
20
-28.8436
11
46.8499
21
-28.8049
0
LINE
8
BLACK
10
46.8499
20
-28.8049
11
46.9273
21
-28.7662
0
LINE
8
BLACK
10
46.9273
20
-28.7662
11
47.1209
21
-28.7662
0
LINE
8
BLACK
10
47.1209
20
-28.7662
11
47.1983
21
-28.8049
0
LINE
8
BLACK
10
47.1983
20
-28.8049
11
47.237
21
-28.8436
0
LINE
8
BLACK
10
47.237
20
-28.8436
11
47.2757
21
-28.921
0
LINE
8
BLACK
10
47.2757
20
-28.921
11
47.2757
21
-28.9984
0
LINE
8
BLACK
10
47.2757
20
-28.9984
11
47.237
21
-29.1145
0
LINE
8
BLACK
10
47.237
20
-29.1145
11
46.7725
21
-29.579
0
LINE
8
BLACK
10
46.7725
20
-29.579
11
47.2757
21
-29.579
0
LINE
8
BLACK
10
56.2516
20
-37.1355
11
56.2903
21
-37.1742
0
LINE
8
BLACK
10
56.2903
20
-37.1742
11
56.329
21
-37.2903
0
LINE
8
BLACK
10
56.329
20
-37.2903
11
56.329
21
-37.3677
0
LINE
8
BLACK
10
56.329
20
-37.3677
11
56.2903
21
-37.4838
0
LINE
8
BLACK
10
56.2903
20
-37.4838
11
56.2129
21
-37.5612
0
LINE
8
BLACK
10
56.2129
20
-37.5612
11
56.1355
21
-37.5999
0
LINE
8
BLACK
10
56.1355
20
-37.5999
11
55.9806
21
-37.6386
0
LINE
8
BLACK
10
55.9806
20
-37.6386
11
55.8645
21
-37.6386
0
LINE
8
BLACK
10
55.8645
20
-37.6386
11
55.7097
21
-37.5999
0
LINE
8
BLACK
10
55.7097
20
-37.5999
11
55.6323
21
-37.5612
0
LINE
8
BLACK
10
55.6323
20
-37.5612
11
55.5549
21
-37.4838
0
LINE
8
BLACK
10
55.5549
20
-37.4838
11
55.5162
21
-37.3677
0
LINE
8
BLACK
10
55.5162
20
-37.3677
11
55.5162
21
-37.2903
0
LINE
8
BLACK
10
55.5162
20
-37.2903
11
55.5549
21
-37.1742
0
LINE
8
BLACK
10
55.5549
20
-37.1742
11
55.5936
21
-37.1355
0
LINE
8
BLACK
10
55.5162
20
-36.4001
11
55.5162
21
-36.7871
0
LINE
8
BLACK
10
55.5162
20
-36.7871
11
55.9032
21
-36.8258
0
LINE
8
BLACK
10
55.9032
20
-36.8258
11
55.8645
21
-36.7871
0
LINE
8
BLACK
10
55.8645
20
-36.7871
11
55.8258
21
-36.7097
0
LINE
8
BLACK
10
55.8258
20
-36.7097
11
55.8258
21
-36.5162
0
LINE
8
BLACK
10
55.8258
20
-36.5162
11
55.8645
21
-36.4388
0
LINE
8
BLACK
10
55.8645
20
-36.4388
11
55.9032
21
-36.4001
0
LINE
8
BLACK
10
55.9032
20
-36.4001
11
55.9806
21
-36.3614
0
LINE
8
BLACK
10
55.9806
20
-36.3614
11
56.1742
21
-36.3614
0
LINE
8
BLACK
10
56.1742
20
-36.3614
11
56.2516
21
-36.4001
0
LINE
8
BLACK
10
56.2516
20
-36.4001
11
56.2903
21
-36.4388
0
LINE
8
BLACK
10
56.2903
20
-36.4388
11
56.329
21
-36.5162
0
LINE
8
BLACK
10
56.329
20
-36.5162
11
56.329
21
-36.7097
0
LINE
8
BLACK
10
56.329
20
-36.7097
11
56.2903
21
-36.7871
0
LINE
8
BLACK
10
56.2903
20
-36.7871
11
56.2516
21
-36.8258
0
LINE
8
BLACK
10
37.1145
20
-47.579
11
36.8436
21
-47.1919
0
LINE
8
BLACK
10
36.6501
20
-47.579
11
36.6501
21
-46.7662
0
LINE
8
BLACK
10
36.6501
20
-46.7662
11
36.9597
21
-46.7662
0
LINE
8
BLACK
10
36.9597
20
-46.7662
11
37.0371
21
-46.8049
0
LINE
8
BLACK
10
37.0371
20
-46.8049
11
37.0758
21
-46.8436
0
LINE
8
BLACK
10
37.0758
20
-46.8436
11
37.1145
21
-46.921
0
LINE
8
BLACK
10
37.1145
20
-46.921
11
37.1145
21
-47.0371
0
LINE
8
BLACK
10
37.1145
20
-47.0371
11
37.0758
21
-47.1145
0
LINE
8
BLACK
10
37.0758
20
-47.1145
11
37.0371
21
-47.1532
0
LINE
8
BLACK
10
37.0371
20
-47.1532
11
36.9597
21
-47.1919
0
LINE
8
BLACK
10
36.9597
20
-47.1919
11
36.6501
21
-47.1919
0
LINE
8
BLACK
10
37.5016
20
-47.579
11
37.6564
21
-47.579
0
LINE
8
BLACK
10
37.6564
20
-47.579
11
37.7338
21
-47.5403
0
LINE
8
BLACK
10
37.7338
20
-47.5403
11
37.7725
21
-47.5016
0
LINE
8
BLACK
10
37.7725
20
-47.5016
11
37.8499
21
-47.3855
0
LINE
8
BLACK
10
37.8499
20
-47.3855
11
37.8886
21
-47.2306
0
LINE
8
BLACK
10
37.8886
20
-47.2306
11
37.8886
21
-46.921
0
LINE
8
BLACK
10
37.8886
20
-46.921
11
37.8499
21
-46.8436
0
LINE
8
BLACK
10
37.8499
20
-46.8436
11
37.8112
21
-46.8049
0
LINE
8
BLACK
10
37.8112
20
-46.8049
11
37.7338
21
-46.7662
0
LINE
8
BLACK
10
37.7338
20
-46.7662
11
37.579
21
-46.7662
0
LINE
8
BLACK
10
37.579
20
-46.7662
11
37.5016
21
-46.8049
0
LINE
8
BLACK
10
37.5016
20
-46.8049
11
37.4629
21
-46.8436
0
LINE
8
BLACK
10
37.4629
20
-46.8436
11
37.4242
21
-46.921
0
LINE
8
BLACK
10
37.4242
20
-46.921
11
37.4242
21
-47.1145
0
LINE
8
BLACK
10
37.4242
20
-47.1145
11
37.4629
21
-47.1919
0
LINE
8
BLACK
10
37.4629
20
-47.1919
11
37.5016
21
-47.2306
0
LINE
8
BLACK
10
37.5016
20
-47.2306
11
37.579
21
-47.2694
0
LINE
8
BLACK
10
37.579
20
-47.2694
11
37.7338
21
-47.2694
0
LINE
8
BLACK
10
37.7338
20
-47.2694
11
37.8112
21
-47.2306
0
LINE
8
BLACK
10
37.8112
20
-47.2306
11
37.8499
21
-47.1919
0
LINE
8
BLACK
10
37.8499
20
-47.1919
11
37.8886
21
-47.1145
0
LINE
8
BLACK
10
38.2516
20
-26.8855
11
38.2903
21
-26.9242
0
LINE
8
BLACK
10
38.2903
20
-26.9242
11
38.329
21
-27.0403
0
LINE
8
BLACK
10
38.329
20
-27.0403
11
38.329
21
-27.1177
0
LINE
8
BLACK
10
38.329
20
-27.1177
11
38.2903
21
-27.2338
0
LINE
8
BLACK
10
38.2903
20
-27.2338
11
38.2129
21
-27.3112
0
LINE
8
BLACK
10
38.2129
20
-27.3112
11
38.1355
21
-27.3499
0
LINE
8
BLACK
10
38.1355
20
-27.3499
11
37.9806
21
-27.3886
0
LINE
8
BLACK
10
37.9806
20
-27.3886
11
37.8645
21
-27.3886
0
LINE
8
BLACK
10
37.8645
20
-27.3886
11
37.7097
21
-27.3499
0
LINE
8
BLACK
10
37.7097
20
-27.3499
11
37.6323
21
-27.3112
0
LINE
8
BLACK
10
37.6323
20
-27.3112
11
37.5549
21
-27.2338
0
LINE
8
BLACK
10
37.5549
20
-27.2338
11
37.5162
21
-27.1177
0
LINE
8
BLACK
10
37.5162
20
-27.1177
11
37.5162
21
-27.0403
0
LINE
8
BLACK
10
37.5162
20
-27.0403
11
37.5549
21
-26.9242
0
LINE
8
BLACK
10
37.5549
20
-26.9242
11
37.5936
21
-26.8855
0
LINE
8
BLACK
10
37.5936
20
-26.5758
11
37.5549
21
-26.5371
0
LINE
8
BLACK
10
37.5549
20
-26.5371
11
37.5162
21
-26.4597
0
LINE
8
BLACK
10
37.5162
20
-26.4597
11
37.5162
21
-26.2662
0
LINE
8
BLACK
10
37.5162
20
-26.2662
11
37.5549
21
-26.1888
0
LINE
8
BLACK
10
37.5549
20
-26.1888
11
37.5936
21
-26.1501
0
LINE
8
BLACK
10
37.5936
20
-26.1501
11
37.671
21
-26.1114
0
LINE
8
BLACK
10
37.671
20
-26.1114
11
37.7484
21
-26.1114
0
LINE
8
BLACK
10
37.7484
20
-26.1114
11
37.8645
21
-26.1501
0
LINE
8
BLACK
10
37.8645
20
-26.1501
11
38.329
21
-26.6145
0
LINE
8
BLACK
10
38.329
20
-26.6145
11
38.329
21
-26.1114
0
LINE
8
BLACK
10
34.3645
20
-42.079
11
34.0936
21
-41.6919
0
LINE
8
BLACK
10
33.9001
20
-42.079
11
33.9001
21
-41.2662
0
LINE
8
BLACK
10
33.9001
20
-41.2662
11
34.2097
21
-41.2662
0
LINE
8
BLACK
10
34.2097
20
-41.2662
11
34.2871
21
-41.3049
0
LINE
8
BLACK
10
34.2871
20
-41.3049
11
34.3258
21
-41.3436
0
LINE
8
BLACK
10
34.3258
20
-41.3436
11
34.3645
21
-41.421
0
LINE
8
BLACK
10
34.3645
20
-41.421
11
34.3645
21
-41.5371
0
LINE
8
BLACK
10
34.3645
20
-41.5371
11
34.3258
21
-41.6145
0
LINE
8
BLACK
10
34.3258
20
-41.6145
11
34.2871
21
-41.6532
0
LINE
8
BLACK
10
34.2871
20
-41.6532
11
34.2097
21
-41.6919
0
LINE
8
BLACK
10
34.2097
20
-41.6919
11
33.9001
21
-41.6919
0
LINE
8
BLACK
10
35.0612
20
-41.2662
11
34.9064
21
-41.2662
0
LINE
8
BLACK
10
34.9064
20
-41.2662
11
34.829
21
-41.3049
0
LINE
8
BLACK
10
34.829
20
-41.3049
11
34.7903
21
-41.3436
0
LINE
8
BLACK
10
34.7903
20
-41.3436
11
34.7129
21
-41.4597
0
LINE
8
BLACK
10
34.7129
20
-41.4597
11
34.6742
21
-41.6145
0
LINE
8
BLACK
10
34.6742
20
-41.6145
11
34.6742
21
-41.9242
0
LINE
8
BLACK
10
34.6742
20
-41.9242
11
34.7129
21
-42.0016
0
LINE
8
BLACK
10
34.7129
20
-42.0016
11
34.7516
21
-42.0403
0
LINE
8
BLACK
10
34.7516
20
-42.0403
11
34.829
21
-42.079
0
LINE
8
BLACK
10
34.829
20
-42.079
11
34.9838
21
-42.079
0
LINE
8
BLACK
10
34.9838
20
-42.079
11
35.0612
21
-42.0403
0
LINE
8
BLACK
10
35.0612
20
-42.0403
11
35.0999
21
-42.0016
0
LINE
8
BLACK
10
35.0999
20
-42.0016
11
35.1386
21
-41.9242
0
LINE
8
BLACK
10
35.1386
20
-41.9242
11
35.1386
21
-41.7306
0
LINE
8
BLACK
10
35.1386
20
-41.7306
11
35.0999
21
-41.6532
0
LINE
8
BLACK
10
35.0999
20
-41.6532
11
35.0612
21
-41.6145
0
LINE
8
BLACK
10
35.0612
20
-41.6145
11
34.9838
21
-41.5758
0
LINE
8
BLACK
10
34.9838
20
-41.5758
11
34.829
21
-41.5758
0
LINE
8
BLACK
10
34.829
20
-41.5758
11
34.7516
21
-41.6145
0
LINE
8
BLACK
10
34.7516
20
-41.6145
11
34.7129
21
-41.6532
0
LINE
8
BLACK
10
34.7129
20
-41.6532
11
34.6742
21
-41.7306
0
LINE
8
BLACK
10
27.329
20
-26.8855
11
26.9419
21
-27.1564
0
LINE
8
BLACK
10
27.329
20
-27.3499
11
26.5162
21
-27.3499
0
LINE
8
BLACK
10
26.5162
20
-27.3499
11
26.5162
21
-27.0403
0
LINE
8
BLACK
10
26.5162
20
-27.0403
11
26.5549
21
-26.9629
0
LINE
8
BLACK
10
26.5549
20
-26.9629
11
26.5936
21
-26.9242
0
LINE
8
BLACK
10
26.5936
20
-26.9242
11
26.671
21
-26.8855
0
LINE
8
BLACK
10
26.671
20
-26.8855
11
26.7871
21
-26.8855
0
LINE
8
BLACK
10
26.7871
20
-26.8855
11
26.8645
21
-26.9242
0
LINE
8
BLACK
10
26.8645
20
-26.9242
11
26.9032
21
-26.9629
0
LINE
8
BLACK
10
26.9032
20
-26.9629
11
26.9419
21
-27.0403
0
LINE
8
BLACK
10
26.9419
20
-27.0403
11
26.9419
21
-27.3499
0
LINE
8
BLACK
10
26.7871
20
-26.1888
11
27.329
21
-26.1888
0
LINE
8
BLACK
10
26.4775
20
-26.3823
11
27.0581
21
-26.5758
0
LINE
8
BLACK
10
27.0581
20
-26.5758
11
27.0581
21
-26.0727
0
LINE
8
BLACK
10
34.6145
20
-22.079
11
34.3436
21
-21.6919
0
LINE
8
BLACK
10
34.1501
20
-22.079
11
34.1501
21
-21.2662
0
LINE
8
BLACK
10
34.1501
20
-21.2662
11
34.4597
21
-21.2662
0
LINE
8
BLACK
10
34.4597
20
-21.2662
11
34.5371
21
-21.3049
0
LINE
8
BLACK
10
34.5371
20
-21.3049
11
34.5758
21
-21.3436
0
LINE
8
BLACK
10
34.5758
20
-21.3436
11
34.6145
21
-21.421
0
LINE
8
BLACK
10
34.6145
20
-21.421
11
34.6145
21
-21.5371
0
LINE
8
BLACK
10
34.6145
20
-21.5371
11
34.5758
21
-21.6145
0
LINE
8
BLACK
10
34.5758
20
-21.6145
11
34.5371
21
-21.6532
0
LINE
8
BLACK
10
34.5371
20
-21.6532
11
34.4597
21
-21.6919
0
LINE
8
BLACK
10
34.4597
20
-21.6919
11
34.1501
21
-21.6919
0
LINE
8
BLACK
10
35.3886
20
-22.079
11
34.9242
21
-22.079
0
LINE
8
BLACK
10
35.1564
20
-22.079
11
35.1564
21
-21.2662
0
LINE
8
BLACK
10
35.1564
20
-21.2662
11
35.079
21
-21.3823
0
LINE
8
BLACK
10
35.079
20
-21.3823
11
35.0016
21
-21.4597
0
LINE
8
BLACK
10
35.0016
20
-21.4597
11
34.9242
21
-21.4984
0
LINE
8
BLACK
10
52.7662
20
-34.3693
11
53.4242
21
-34.3693
0
LINE
8
BLACK
10
53.4242
20
-34.3693
11
53.5016
21
-34.3306
0
LINE
8
BLACK
10
53.5016
20
-34.3306
11
53.5403
21
-34.2919
0
LINE
8
BLACK
10
53.5403
20
-34.2919
11
53.579
21
-34.2145
0
LINE
8
BLACK
10
53.579
20
-34.2145
11
53.579
21
-34.0596
0
LINE
8
BLACK
10
53.579
20
-34.0596
11
53.5403
21
-33.9822
0
LINE
8
BLACK
10
53.5403
20
-33.9822
11
53.5016
21
-33.9435
0
LINE
8
BLACK
10
53.5016
20
-33.9435
11
53.4242
21
-33.9048
0
LINE
8
BLACK
10
53.4242
20
-33.9048
11
52.7662
21
-33.9048
0
LINE
8
BLACK
10
53.579
20
-33.092
11
53.579
21
-33.5565
0
LINE
8
BLACK
10
53.579
20
-33.3242
11
52.7662
21
-33.3242
0
LINE
8
BLACK
10
52.7662
20
-33.3242
11
52.8823
21
-33.4017
0
LINE
8
BLACK
10
52.8823
20
-33.4017
11
52.9597
21
-33.4791
0
LINE
8
BLACK
10
52.9597
20
-33.4791
11
52.9984
21
-33.5565
0
LINE
8
BLACK
10
59.1501
20
-21.329
11
59.1501
21
-20.5162
0
LINE
8
BLACK
10
59.1501
20
-20.5162
11
59.3436
21
-20.5162
0
LINE
8
BLACK
10
59.3436
20
-20.5162
11
59.4597
21
-20.5549
0
LINE
8
BLACK
10
59.4597
20
-20.5549
11
59.5371
21
-20.6323
0
LINE
8
BLACK
10
59.5371
20
-20.6323
11
59.5758
21
-20.7097
0
LINE
8
BLACK
10
59.5758
20
-20.7097
11
59.6145
21
-20.8645
0
LINE
8
BLACK
10
59.6145
20
-20.8645
11
59.6145
21
-20.9806
0
LINE
8
BLACK
10
59.6145
20
-20.9806
11
59.5758
21
-21.1355
0
LINE
8
BLACK
10
59.5758
20
-21.1355
11
59.5371
21
-21.2129
0
LINE
8
BLACK
10
59.5371
20
-21.2129
11
59.4597
21
-21.2903
0
LINE
8
BLACK
10
59.4597
20
-21.2903
11
59.3436
21
-21.329
0
LINE
8
BLACK
10
59.3436
20
-21.329
11
59.1501
21
-21.329
0
LINE
8
BLACK
10
59.9242
20
-20.5936
11
59.9629
21
-20.5549
0
LINE
8
BLACK
10
59.9629
20
-20.5549
11
60.0403
21
-20.5162
0
LINE
8
BLACK
10
60.0403
20
-20.5162
11
60.2338
21
-20.5162
0
LINE
8
BLACK
10
60.2338
20
-20.5162
11
60.3112
21
-20.5549
0
LINE
8
BLACK
10
60.3112
20
-20.5549
11
60.3499
21
-20.5936
0
LINE
8
BLACK
10
60.3499
20
-20.5936
11
60.3886
21
-20.671
0
LINE
8
BLACK
10
60.3886
20
-20.671
11
60.3886
21
-20.7484
0
LINE
8
BLACK
10
60.3886
20
-20.7484
11
60.3499
21
-20.8645
0
LINE
8
BLACK
10
60.3499
20
-20.8645
11
59.8855
21
-21.329
0
LINE
8
BLACK
10
59.8855
20
-21.329
11
60.3886
21
-21.329
0
LINE
8
BLACK
10
57.2275
20
-27.579
11
56.9566
21
-27.1919
0
LINE
8
BLACK
10
56.763
20
-27.579
11
56.763
21
-26.7662
0
LINE
8
BLACK
10
56.763
20
-26.7662
11
57.0727
21
-26.7662
0
LINE
8
BLACK
10
57.0727
20
-26.7662
11
57.1501
21
-26.8049
0
LINE
8
BLACK
10
57.1501
20
-26.8049
11
57.1888
21
-26.8436
0
LINE
8
BLACK
10
57.1888
20
-26.8436
11
57.2275
21
-26.921
0
LINE
8
BLACK
10
57.2275
20
-26.921
11
57.2275
21
-27.0371
0
LINE
8
BLACK
10
57.2275
20
-27.0371
11
57.1888
21
-27.1145
0
LINE
8
BLACK
10
57.1888
20
-27.1145
11
57.1501
21
-27.1532
0
LINE
8
BLACK
10
57.1501
20
-27.1532
11
57.0727
21
-27.1919
0
LINE
8
BLACK
10
57.0727
20
-27.1919
11
56.763
21
-27.1919
0
LINE
8
BLACK
10
58.0016
20
-27.579
11
57.5371
21
-27.579
0
LINE
8
BLACK
10
57.7694
20
-27.579
11
57.7694
21
-26.7662
0
LINE
8
BLACK
10
57.7694
20
-26.7662
11
57.6919
21
-26.8823
0
LINE
8
BLACK
10
57.6919
20
-26.8823
11
57.6145
21
-26.9597
0
LINE
8
BLACK
10
57.6145
20
-26.9597
11
57.5371
21
-26.9984
0
LINE
8
BLACK
10
58.6983
20
-26.7662
11
58.5434
21
-26.7662
0
LINE
8
BLACK
10
58.5434
20
-26.7662
11
58.466
21
-26.8049
0
LINE
8
BLACK
10
58.466
20
-26.8049
11
58.4273
21
-26.8436
0
LINE
8
BLACK
10
58.4273
20
-26.8436
11
58.3499
21
-26.9597
0
LINE
8
BLACK
10
58.3499
20
-26.9597
11
58.3112
21
-27.1145
0
LINE
8
BLACK
10
58.3112
20
-27.1145
11
58.3112
21
-27.4242
0
LINE
8
BLACK
10
58.3112
20
-27.4242
11
58.3499
21
-27.5016
0
LINE
8
BLACK
10
58.3499
20
-27.5016
11
58.3886
21
-27.5403
0
LINE
8
BLACK
10
58.3886
20
-27.5403
11
58.466
21
-27.579
0
LINE
8
BLACK
10
58.466
20
-27.579
11
58.6209
21
-27.579
0
LINE
8
BLACK
10
58.6209
20
-27.579
11
58.6983
21
-27.5403
0
LINE
8
BLACK
10
58.6983
20
-27.5403
11
58.737
21
-27.5016
0
LINE
8
BLACK
10
58.737
20
-27.5016
11
58.7757
21
-27.4242
0
LINE
8
BLACK
10
58.7757
20
-27.4242
11
58.7757
21
-27.2306
0
LINE
8
BLACK
10
58.7757
20
-27.2306
11
58.737
21
-27.1532
0
LINE
8
BLACK
10
58.737
20
-27.1532
11
58.6983
21
-27.1145
0
LINE
8
BLACK
10
58.6983
20
-27.1145
11
58.6209
21
-27.0758
0
LINE
8
BLACK
10
58.6209
20
-27.0758
11
58.466
21
-27.0758
0
LINE
8
BLACK
10
58.466
20
-27.0758
11
58.3886
21
-27.1145
0
LINE
8
BLACK
10
58.3886
20
-27.1145
11
58.3499
21
-27.1532
0
LINE
8
BLACK
10
58.3499
20
-27.1532
11
58.3112
21
-27.2306
0
LINE
8
BLACK
10
63.8645
20
-24.0016
11
63.8258
21
-24.0403
0
LINE
8
BLACK
10
63.8258
20
-24.0403
11
63.7097
21
-24.079
0
LINE
8
BLACK
10
63.7097
20
-24.079
11
63.6323
21
-24.079
0
LINE
8
BLACK
10
63.6323
20
-24.079
11
63.5162
21
-24.0403
0
LINE
8
BLACK
10
63.5162
20
-24.0403
11
63.4388
21
-23.9629
0
LINE
8
BLACK
10
63.4388
20
-23.9629
11
63.4001
21
-23.8855
0
LINE
8
BLACK
10
63.4001
20
-23.8855
11
63.3614
21
-23.7306
0
LINE
8
BLACK
10
63.3614
20
-23.7306
11
63.3614
21
-23.6145
0
LINE
8
BLACK
10
63.3614
20
-23.6145
11
63.4001
21
-23.4597
0
LINE
8
BLACK
10
63.4001
20
-23.4597
11
63.4388
21
-23.3823
0
LINE
8
BLACK
10
63.4388
20
-23.3823
11
63.5162
21
-23.3049
0
LINE
8
BLACK
10
63.5162
20
-23.3049
11
63.6323
21
-23.2662
0
LINE
8
BLACK
10
63.6323
20
-23.2662
11
63.7097
21
-23.2662
0
LINE
8
BLACK
10
63.7097
20
-23.2662
11
63.8258
21
-23.3049
0
LINE
8
BLACK
10
63.8258
20
-23.3049
11
63.8645
21
-23.3436
0
LINE
8
BLACK
10
64.2516
20
-24.079
11
64.4064
21
-24.079
0
LINE
8
BLACK
10
64.4064
20
-24.079
11
64.4838
21
-24.0403
0
LINE
8
BLACK
10
64.4838
20
-24.0403
11
64.5225
21
-24.0016
0
LINE
8
BLACK
10
64.5225
20
-24.0016
11
64.5999
21
-23.8855
0
LINE
8
BLACK
10
64.5999
20
-23.8855
11
64.6386
21
-23.7306
0
LINE
8
BLACK
10
64.6386
20
-23.7306
11
64.6386
21
-23.421
0
LINE
8
BLACK
10
64.6386
20
-23.421
11
64.5999
21
-23.3436
0
LINE
8
BLACK
10
64.5999
20
-23.3436
11
64.5612
21
-23.3049
0
LINE
8
BLACK
10
64.5612
20
-23.3049
11
64.4838
21
-23.2662
0
LINE
8
BLACK
10
64.4838
20
-23.2662
11
64.329
21
-23.2662
0
LINE
8
BLACK
10
64.329
20
-23.2662
11
64.2516
21
-23.3049
0
LINE
8
BLACK
10
64.2516
20
-23.3049
11
64.2129
21
-23.3436
0
LINE
8
BLACK
10
64.2129
20
-23.3436
11
64.1742
21
-23.421
0
LINE
8
BLACK
10
64.1742
20
-23.421
11
64.1742
21
-23.6145
0
LINE
8
BLACK
10
64.1742
20
-23.6145
11
64.2129
21
-23.6919
0
LINE
8
BLACK
10
64.2129
20
-23.6919
11
64.2516
21
-23.7306
0
LINE
8
BLACK
10
64.2516
20
-23.7306
11
64.329
21
-23.7694
0
LINE
8
BLACK
10
64.329
20
-23.7694
11
64.4838
21
-23.7694
0
LINE
8
BLACK
10
64.4838
20
-23.7694
11
64.5612
21
-23.7306
0
LINE
8
BLACK
10
64.5612
20
-23.7306
11
64.5999
21
-23.6919
0
LINE
8
BLACK
10
64.5999
20
-23.6919
11
64.6386
21
-23.6145
0
LINE
8
BLACK
10
49.4775
20
-30.329
11
49.2066
21
-29.9419
0
LINE
8
BLACK
10
49.013
20
-30.329
11
49.013
21
-29.5162
0
LINE
8
BLACK
10
49.013
20
-29.5162
11
49.3227
21
-29.5162
0
LINE
8
BLACK
10
49.3227
20
-29.5162
11
49.4001
21
-29.5549
0
LINE
8
BLACK
10
49.4001
20
-29.5549
11
49.4388
21
-29.5936
0
LINE
8
BLACK
10
49.4388
20
-29.5936
11
49.4775
21
-29.671
0
LINE
8
BLACK
10
49.4775
20
-29.671
11
49.4775
21
-29.7871
0
LINE
8
BLACK
10
49.4775
20
-29.7871
11
49.4388
21
-29.8645
0
LINE
8
BLACK
10
49.4388
20
-29.8645
11
49.4001
21
-29.9032
0
LINE
8
BLACK
10
49.4001
20
-29.9032
11
49.3227
21
-29.9419
0
LINE
8
BLACK
10
49.3227
20
-29.9419
11
49.013
21
-29.9419
0
LINE
8
BLACK
10
50.2516
20
-30.329
11
49.7871
21
-30.329
0
LINE
8
BLACK
10
50.0194
20
-30.329
11
50.0194
21
-29.5162
0
LINE
8
BLACK
10
50.0194
20
-29.5162
11
49.9419
21
-29.6323
0
LINE
8
BLACK
10
49.9419
20
-29.6323
11
49.8645
21
-29.7097
0
LINE
8
BLACK
10
49.8645
20
-29.7097
11
49.7871
21
-29.7484
0
LINE
8
BLACK
10
50.5225
20
-29.5162
11
51.0644
21
-29.5162
0
LINE
8
BLACK
10
51.0644
20
-29.5162
11
50.716
21
-30.329
0
LINE
8
BLACK
10
49.4775
20
-25.579
11
49.2066
21
-25.1919
0
LINE
8
BLACK
10
49.013
20
-25.579
11
49.013
21
-24.7662
0
LINE
8
BLACK
10
49.013
20
-24.7662
11
49.3227
21
-24.7662
0
LINE
8
BLACK
10
49.3227
20
-24.7662
11
49.4001
21
-24.8049
0
LINE
8
BLACK
10
49.4001
20
-24.8049
11
49.4388
21
-24.8436
0
LINE
8
BLACK
10
49.4388
20
-24.8436
11
49.4775
21
-24.921
0
LINE
8
BLACK
10
49.4775
20
-24.921
11
49.4775
21
-25.0371
0
LINE
8
BLACK
10
49.4775
20
-25.0371
11
49.4388
21
-25.1145
0
LINE
8
BLACK
10
49.4388
20
-25.1145
11
49.4001
21
-25.1532
0
LINE
8
BLACK
10
49.4001
20
-25.1532
11
49.3227
21
-25.1919
0
LINE
8
BLACK
10
49.3227
20
-25.1919
11
49.013
21
-25.1919
0
LINE
8
BLACK
10
50.2516
20
-25.579
11
49.7871
21
-25.579
0
LINE
8
BLACK
10
50.0194
20
-25.579
11
50.0194
21
-24.7662
0
LINE
8
BLACK
10
50.0194
20
-24.7662
11
49.9419
21
-24.8823
0
LINE
8
BLACK
10
49.9419
20
-24.8823
11
49.8645
21
-24.9597
0
LINE
8
BLACK
10
49.8645
20
-24.9597
11
49.7871
21
-24.9984
0
LINE
8
BLACK
10
50.9483
20
-25.0371
11
50.9483
21
-25.579
0
LINE
8
BLACK
10
50.7547
20
-24.7275
11
50.5612
21
-25.3081
0
LINE
8
BLACK
10
50.5612
20
-25.3081
11
51.0644
21
-25.3081
0
LINE
8
BLACK
10
49.4775
20
-28.079
11
49.2066
21
-27.6919
0
LINE
8
BLACK
10
49.013
20
-28.079
11
49.013
21
-27.2662
0
LINE
8
BLACK
10
49.013
20
-27.2662
11
49.3227
21
-27.2662
0
LINE
8
BLACK
10
49.3227
20
-27.2662
11
49.4001
21
-27.3049
0
LINE
8
BLACK
10
49.4001
20
-27.3049
11
49.4388
21
-27.3436
0
LINE
8
BLACK
10
49.4388
20
-27.3436
11
49.4775
21
-27.421
0
LINE
8
BLACK
10
49.4775
20
-27.421
11
49.4775
21
-27.5371
0
LINE
8
BLACK
10
49.4775
20
-27.5371
11
49.4388
21
-27.6145
0
LINE
8
BLACK
10
49.4388
20
-27.6145
11
49.4001
21
-27.6532
0
LINE
8
BLACK
10
49.4001
20
-27.6532
11
49.3227
21
-27.6919
0
LINE
8
BLACK
10
49.3227
20
-27.6919
11
49.013
21
-27.6919
0
LINE
8
BLACK
10
50.2516
20
-28.079
11
49.7871
21
-28.079
0
LINE
8
BLACK
10
50.0194
20
-28.079
11
50.0194
21
-27.2662
0
LINE
8
BLACK
10
50.0194
20
-27.2662
11
49.9419
21
-27.3823
0
LINE
8
BLACK
10
49.9419
20
-27.3823
11
49.8645
21
-27.4597
0
LINE
8
BLACK
10
49.8645
20
-27.4597
11
49.7871
21
-27.4984
0
LINE
8
BLACK
10
50.987
20
-27.2662
11
50.5999
21
-27.2662
0
LINE
8
BLACK
10
50.5999
20
-27.2662
11
50.5612
21
-27.6532
0
LINE
8
BLACK
10
50.5612
20
-27.6532
11
50.5999
21
-27.6145
0
LINE
8
BLACK
10
50.5999
20
-27.6145
11
50.6773
21
-27.5758
0
LINE
8
BLACK
10
50.6773
20
-27.5758
11
50.8709
21
-27.5758
0
LINE
8
BLACK
10
50.8709
20
-27.5758
11
50.9483
21
-27.6145
0
LINE
8
BLACK
10
50.9483
20
-27.6145
11
50.987
21
-27.6532
0
LINE
8
BLACK
10
50.987
20
-27.6532
11
51.0257
21
-27.7306
0
LINE
8
BLACK
10
51.0257
20
-27.7306
11
51.0257
21
-27.9242
0
LINE
8
BLACK
10
51.0257
20
-27.9242
11
50.987
21
-28.0016
0
LINE
8
BLACK
10
50.987
20
-28.0016
11
50.9483
21
-28.0403
0
LINE
8
BLACK
10
50.9483
20
-28.0403
11
50.8709
21
-28.079
0
LINE
8
BLACK
10
50.8709
20
-28.079
11
50.6773
21
-28.079
0
LINE
8
BLACK
10
50.6773
20
-28.079
11
50.5999
21
-28.0403
0
LINE
8
BLACK
10
50.5999
20
-28.0403
11
50.5612
21
-28.0016
0
LINE
8
BLACK
10
53.1145
20
-21.3546
11
53.0758
21
-21.3933
0
LINE
8
BLACK
10
53.0758
20
-21.3933
11
52.9597
21
-21.432
0
LINE
8
BLACK
10
52.9597
20
-21.432
11
52.8823
21
-21.432
0
LINE
8
BLACK
10
52.8823
20
-21.432
11
52.7662
21
-21.3933
0
LINE
8
BLACK
10
52.7662
20
-21.3933
11
52.6888
21
-21.3159
0
LINE
8
BLACK
10
52.6888
20
-21.3159
11
52.6501
21
-21.2385
0
LINE
8
BLACK
10
52.6501
20
-21.2385
11
52.6114
21
-21.0836
0
LINE
8
BLACK
10
52.6114
20
-21.0836
11
52.6114
21
-20.9675
0
LINE
8
BLACK
10
52.6114
20
-20.9675
11
52.6501
21
-20.8127
0
LINE
8
BLACK
10
52.6501
20
-20.8127
11
52.6888
21
-20.7353
0
LINE
8
BLACK
10
52.6888
20
-20.7353
11
52.7662
21
-20.6579
0
LINE
8
BLACK
10
52.7662
20
-20.6579
11
52.8823
21
-20.6192
0
LINE
8
BLACK
10
52.8823
20
-20.6192
11
52.9597
21
-20.6192
0
LINE
8
BLACK
10
52.9597
20
-20.6192
11
53.0758
21
-20.6579
0
LINE
8
BLACK
10
53.0758
20
-20.6579
11
53.1145
21
-20.6966
0
LINE
8
BLACK
10
53.3855
20
-20.6192
11
53.9273
21
-20.6192
0
LINE
8
BLACK
10
53.9273
20
-20.6192
11
53.579
21
-21.432
0
LINE
8
BLACK
10
33.2662
20
-37.6193
11
33.9242
21
-37.6193
0
LINE
8
BLACK
10
33.9242
20
-37.6193
11
34.0016
21
-37.5806
0
LINE
8
BLACK
10
34.0016
20
-37.5806
11
34.0403
21
-37.5419
0
LINE
8
BLACK
10
34.0403
20
-37.5419
11
34.079
21
-37.4645
0
LINE
8
BLACK
10
34.079
20
-37.4645
11
34.079
21
-37.3096
0
LINE
8
BLACK
10
34.079
20
-37.3096
11
34.0403
21
-37.2322
0
LINE
8
BLACK
10
34.0403
20
-37.2322
11
34.0016
21
-37.1935
0
LINE
8
BLACK
10
34.0016
20
-37.1935
11
33.9242
21
-37.1548
0
LINE
8
BLACK
10
33.9242
20
-37.1548
11
33.2662
21
-37.1548
0
LINE
8
BLACK
10
33.3436
20
-36.8065
11
33.3049
21
-36.7678
0
LINE
8
BLACK
10
33.3049
20
-36.7678
11
33.2662
21
-36.6904
0
LINE
8
BLACK
10
33.2662
20
-36.6904
11
33.2662
21
-36.4968
0
LINE
8
BLACK
10
33.2662
20
-36.4968
11
33.3049
21
-36.4194
0
LINE
8
BLACK
10
33.3049
20
-36.4194
11
33.3436
21
-36.3807
0
LINE
8
BLACK
10
33.3436
20
-36.3807
11
33.421
21
-36.342
0
LINE
8
BLACK
10
33.421
20
-36.342
11
33.4984
21
-36.342
0
LINE
8
BLACK
10
33.4984
20
-36.342
11
33.6145
21
-36.3807
0
LINE
8
BLACK
10
33.6145
20
-36.3807
11
34.079
21
-36.8452
0
LINE
8
BLACK
10
34.079
20
-36.8452
11
34.079
21
-36.342
0
LINE
8
BLACK
10
30.2275
20
-42.079
11
29.9566
21
-41.6919
0
LINE
8
BLACK
10
29.763
20
-42.079
11
29.763
21
-41.2662
0
LINE
8
BLACK
10
29.763
20
-41.2662
11
30.0727
21
-41.2662
0
LINE
8
BLACK
10
30.0727
20
-41.2662
11
30.1501
21
-41.3049
0
LINE
8
BLACK
10
30.1501
20
-41.3049
11
30.1888
21
-41.3436
0
LINE
8
BLACK
10
30.1888
20
-41.3436
11
30.2275
21
-41.421
0
LINE
8
BLACK
10
30.2275
20
-41.421
11
30.2275
21
-41.5371
0
LINE
8
BLACK
10
30.2275
20
-41.5371
11
30.1888
21
-41.6145
0
LINE
8
BLACK
10
30.1888
20
-41.6145
11
30.1501
21
-41.6532
0
LINE
8
BLACK
10
30.1501
20
-41.6532
11
30.0727
21
-41.6919
0
LINE
8
BLACK
10
30.0727
20
-41.6919
11
29.763
21
-41.6919
0
LINE
8
BLACK
10
31.0016
20
-42.079
11
30.5371
21
-42.079
0
LINE
8
BLACK
10
30.7694
20
-42.079
11
30.7694
21
-41.2662
0
LINE
8
BLACK
10
30.7694
20
-41.2662
11
30.6919
21
-41.3823
0
LINE
8
BLACK
10
30.6919
20
-41.3823
11
30.6145
21
-41.4597
0
LINE
8
BLACK
10
30.6145
20
-41.4597
11
30.5371
21
-41.4984
0
LINE
8
BLACK
10
31.466
20
-41.6145
11
31.3886
21
-41.5758
0
LINE
8
BLACK
10
31.3886
20
-41.5758
11
31.3499
21
-41.5371
0
LINE
8
BLACK
10
31.3499
20
-41.5371
11
31.3112
21
-41.4597
0
LINE
8
BLACK
10
31.3112
20
-41.4597
11
31.3112
21
-41.421
0
LINE
8
BLACK
10
31.3112
20
-41.421
11
31.3499
21
-41.3436
0
LINE
8
BLACK
10
31.3499
20
-41.3436
11
31.3886
21
-41.3049
0
LINE
8
BLACK
10
31.3886
20
-41.3049
11
31.466
21
-41.2662
0
LINE
8
BLACK
10
31.466
20
-41.2662
11
31.6209
21
-41.2662
0
LINE
8
BLACK
10
31.6209
20
-41.2662
11
31.6983
21
-41.3049
0
LINE
8
BLACK
10
31.6983
20
-41.3049
11
31.737
21
-41.3436
0
LINE
8
BLACK
10
31.737
20
-41.3436
11
31.7757
21
-41.421
0
LINE
8
BLACK
10
31.7757
20
-41.421
11
31.7757
21
-41.4597
0
LINE
8
BLACK
10
31.7757
20
-41.4597
11
31.737
21
-41.5371
0
LINE
8
BLACK
10
31.737
20
-41.5371
11
31.6983
21
-41.5758
0
LINE
8
BLACK
10
31.6983
20
-41.5758
11
31.6209
21
-41.6145
0
LINE
8
BLACK
10
31.6209
20
-41.6145
11
31.466
21
-41.6145
0
LINE
8
BLACK
10
31.466
20
-41.6145
11
31.3886
21
-41.6532
0
LINE
8
BLACK
10
31.3886
20
-41.6532
11
31.3499
21
-41.6919
0
LINE
8
BLACK
10
31.3499
20
-41.6919
11
31.3112
21
-41.7694
0
LINE
8
BLACK
10
31.3112
20
-41.7694
11
31.3112
21
-41.9242
0
LINE
8
BLACK
10
31.3112
20
-41.9242
11
31.3499
21
-42.0016
0
LINE
8
BLACK
10
31.3499
20
-42.0016
11
31.3886
21
-42.0403
0
LINE
8
BLACK
10
31.3886
20
-42.0403
11
31.466
21
-42.079
0
LINE
8
BLACK
10
31.466
20
-42.079
11
31.6209
21
-42.079
0
LINE
8
BLACK
10
31.6209
20
-42.079
11
31.6983
21
-42.0403
0
LINE
8
BLACK
10
31.6983
20
-42.0403
11
31.737
21
-42.0016
0
LINE
8
BLACK
10
31.737
20
-42.0016
11
31.7757
21
-41.9242
0
LINE
8
BLACK
10
31.7757
20
-41.9242
11
31.7757
21
-41.7694
0
LINE
8
BLACK
10
31.7757
20
-41.7694
11
31.737
21
-41.6919
0
LINE
8
BLACK
10
31.737
20
-41.6919
11
31.6983
21
-41.6532
0
LINE
8
BLACK
10
31.6983
20
-41.6532
11
31.6209
21
-41.6145
0
LINE
8
BLACK
10
27.4775
20
-42.079
11
27.2066
21
-41.6919
0
LINE
8
BLACK
10
27.013
20
-42.079
11
27.013
21
-41.2662
0
LINE
8
BLACK
10
27.013
20
-41.2662
11
27.3227
21
-41.2662
0
LINE
8
BLACK
10
27.3227
20
-41.2662
11
27.4001
21
-41.3049
0
LINE
8
BLACK
10
27.4001
20
-41.3049
11
27.4388
21
-41.3436
0
LINE
8
BLACK
10
27.4388
20
-41.3436
11
27.4775
21
-41.421
0
LINE
8
BLACK
10
27.4775
20
-41.421
11
27.4775
21
-41.5371
0
LINE
8
BLACK
10
27.4775
20
-41.5371
11
27.4388
21
-41.6145
0
LINE
8
BLACK
10
27.4388
20
-41.6145
11
27.4001
21
-41.6532
0
LINE
8
BLACK
10
27.4001
20
-41.6532
11
27.3227
21
-41.6919
0
LINE
8
BLACK
10
27.3227
20
-41.6919
11
27.013
21
-41.6919
0
LINE
8
BLACK
10
28.2516
20
-42.079
11
27.7871
21
-42.079
0
LINE
8
BLACK
10
28.0194
20
-42.079
11
28.0194
21
-41.2662
0
LINE
8
BLACK
10
28.0194
20
-41.2662
11
27.9419
21
-41.3823
0
LINE
8
BLACK
10
27.9419
20
-41.3823
11
27.8645
21
-41.4597
0
LINE
8
BLACK
10
27.8645
20
-41.4597
11
27.7871
21
-41.4984
0
LINE
8
BLACK
10
28.6386
20
-42.079
11
28.7934
21
-42.079
0
LINE
8
BLACK
10
28.7934
20
-42.079
11
28.8709
21
-42.0403
0
LINE
8
BLACK
10
28.8709
20
-42.0403
11
28.9096
21
-42.0016
0
LINE
8
BLACK
10
28.9096
20
-42.0016
11
28.987
21
-41.8855
0
LINE
8
BLACK
10
28.987
20
-41.8855
11
29.0257
21
-41.7306
0
LINE
8
BLACK
10
29.0257
20
-41.7306
11
29.0257
21
-41.421
0
LINE
8
BLACK
10
29.0257
20
-41.421
11
28.987
21
-41.3436
0
LINE
8
BLACK
10
28.987
20
-41.3436
11
28.9483
21
-41.3049
0
LINE
8
BLACK
10
28.9483
20
-41.3049
11
28.8709
21
-41.2662
0
LINE
8
BLACK
10
28.8709
20
-41.2662
11
28.716
21
-41.2662
0
LINE
8
BLACK
10
28.716
20
-41.2662
11
28.6386
21
-41.3049
0
LINE
8
BLACK
10
28.6386
20
-41.3049
11
28.5999
21
-41.3436
0
LINE
8
BLACK
10
28.5999
20
-41.3436
11
28.5612
21
-41.421
0
LINE
8
BLACK
10
28.5612
20
-41.421
11
28.5612
21
-41.6145
0
LINE
8
BLACK
10
28.5612
20
-41.6145
11
28.5999
21
-41.6919
0
LINE
8
BLACK
10
28.5999
20
-41.6919
11
28.6386
21
-41.7306
0
LINE
8
BLACK
10
28.6386
20
-41.7306
11
28.716
21
-41.7694
0
LINE
8
BLACK
10
28.716
20
-41.7694
11
28.8709
21
-41.7694
0
LINE
8
BLACK
10
28.8709
20
-41.7694
11
28.9483
21
-41.7306
0
LINE
8
BLACK
10
28.9483
20
-41.7306
11
28.987
21
-41.6919
0
LINE
8
BLACK
10
28.987
20
-41.6919
11
29.0257
21
-41.6145
0
LINE
8
BLACK
10
40.2275
20
-29.579
11
39.9566
21
-29.1919
0
LINE
8
BLACK
10
39.763
20
-29.579
11
39.763
21
-28.7662
0
LINE
8
BLACK
10
39.763
20
-28.7662
11
40.0727
21
-28.7662
0
LINE
8
BLACK
10
40.0727
20
-28.7662
11
40.1501
21
-28.8049
0
LINE
8
BLACK
10
40.1501
20
-28.8049
11
40.1888
21
-28.8436
0
LINE
8
BLACK
10
40.1888
20
-28.8436
11
40.2275
21
-28.921
0
LINE
8
BLACK
10
40.2275
20
-28.921
11
40.2275
21
-29.0371
0
LINE
8
BLACK
10
40.2275
20
-29.0371
11
40.1888
21
-29.1145
0
LINE
8
BLACK
10
40.1888
20
-29.1145
11
40.1501
21
-29.1532
0
LINE
8
BLACK
10
40.1501
20
-29.1532
11
40.0727
21
-29.1919
0
LINE
8
BLACK
10
40.0727
20
-29.1919
11
39.763
21
-29.1919
0
LINE
8
BLACK
10
40.5371
20
-28.8436
11
40.5758
21
-28.8049
0
LINE
8
BLACK
10
40.5758
20
-28.8049
11
40.6532
21
-28.7662
0
LINE
8
BLACK
10
40.6532
20
-28.7662
11
40.8468
21
-28.7662
0
LINE
8
BLACK
10
40.8468
20
-28.7662
11
40.9242
21
-28.8049
0
LINE
8
BLACK
10
40.9242
20
-28.8049
11
40.9629
21
-28.8436
0
LINE
8
BLACK
10
40.9629
20
-28.8436
11
41.0016
21
-28.921
0
LINE
8
BLACK
10
41.0016
20
-28.921
11
41.0016
21
-28.9984
0
LINE
8
BLACK
10
41.0016
20
-28.9984
11
40.9629
21
-29.1145
0
LINE
8
BLACK
10
40.9629
20
-29.1145
11
40.4984
21
-29.579
0
LINE
8
BLACK
10
40.4984
20
-29.579
11
41.0016
21
-29.579
0
LINE
8
BLACK
10
41.5047
20
-28.7662
11
41.5822
21
-28.7662
0
LINE
8
BLACK
10
41.5822
20
-28.7662
11
41.6596
21
-28.8049
0
LINE
8
BLACK
10
41.6596
20
-28.8049
11
41.6983
21
-28.8436
0
LINE
8
BLACK
10
41.6983
20
-28.8436
11
41.737
21
-28.921
0
LINE
8
BLACK
10
41.737
20
-28.921
11
41.7757
21
-29.0758
0
LINE
8
BLACK
10
41.7757
20
-29.0758
11
41.7757
21
-29.2694
0
LINE
8
BLACK
10
41.7757
20
-29.2694
11
41.737
21
-29.4242
0
LINE
8
BLACK
10
41.737
20
-29.4242
11
41.6983
21
-29.5016
0
LINE
8
BLACK
10
41.6983
20
-29.5016
11
41.6596
21
-29.5403
0
LINE
8
BLACK
10
41.6596
20
-29.5403
11
41.5822
21
-29.579
0
LINE
8
BLACK
10
41.5822
20
-29.579
11
41.5047
21
-29.579
0
LINE
8
BLACK
10
41.5047
20
-29.579
11
41.4273
21
-29.5403
0
LINE
8
BLACK
10
41.4273
20
-29.5403
11
41.3886
21
-29.5016
0
LINE
8
BLACK
10
41.3886
20
-29.5016
11
41.3499
21
-29.4242
0
LINE
8
BLACK
10
41.3499
20
-29.4242
11
41.3112
21
-29.2694
0
LINE
8
BLACK
10
41.3112
20
-29.2694
11
41.3112
21
-29.0758
0
LINE
8
BLACK
10
41.3112
20
-29.0758
11
41.3499
21
-28.921
0
LINE
8
BLACK
10
41.3499
20
-28.921
11
41.3886
21
-28.8436
0
LINE
8
BLACK
10
41.3886
20
-28.8436
11
41.4273
21
-28.8049
0
LINE
8
BLACK
10
41.4273
20
-28.8049
11
41.5047
21
-28.7662
  0
ENDSEC
  0
EOF
