  0
SECTION
  2
HEADER
  9
$ANGBASE
  50
0.0
  9
$ANGDIR
  70
  1
  9
$MEASUREMENT
  70
0
  0
ENDSEC
  0
SECTION
  2
TABLES
  0
TABLE
  2
LTYPE
  70
1
  0
LTYPE
  2
CONTINUOUS
  70
0
  3
Solid line
  72
65
  73
0
  40
0.0
  0
ENDTAB
  0
TABLE
  2
STYLE
  70
4
  0
STYLE
  2
KICAD
  70
0
  40
0
  41
1
  42
1
  50
0
  71
0
  3
isocp.shx
  0
STYLE
  2
KICADB
  70
0
  40
0
  41
1
  42
1
  50
0
  71
0
  3
isocp.shx
  0
STYLE
  2
KICADI
  70
0
  40
0
  41
1
  42
1
  50
15
  71
0
  3
isocp.shx
  0
STYLE
  2
KICADBI
  70
0
  40
0
  41
1
  42
1
  50
15
  71
0
  3
isocp.shx
  0
ENDTAB
  0
TABLE
  2
LAYER
  70
24
  0
LAYER
  2
BLACK
  70
0
  62
250
  6
CONTINUOUS
  0
LAYER
  2
BLUE
  70
0
  62
5
  6
CONTINUOUS
  0
LAYER
  2
GREEN
  70
0
  62
3
  6
CONTINUOUS
  0
LAYER
  2
CYAN
  70
0
  62
4
  6
CONTINUOUS
  0
LAYER
  2
RED
  70
0
  62
1
  6
CONTINUOUS
  0
LAYER
  2
MAGENTA
  70
0
  62
6
  6
CONTINUOUS
  0
LAYER
  2
BROWN
  70
0
  62
54
  6
CONTINUOUS
  0
LAYER
  2
LIGHTGRAY
  70
0
  62
9
  6
CONTINUOUS
  0
LAYER
  2
DARKGRAY
  70
0
  62
8
  6
CONTINUOUS
  0
LAYER
  2
LIGHTBLUE
  70
0
  62
171
  6
CONTINUOUS
  0
LAYER
  2
LIGHTGREEN
  70
0
  62
91
  6
CONTINUOUS
  0
LAYER
  2
LIGHTCYAN
  70
0
  62
131
  6
CONTINUOUS
  0
LAYER
  2
LIGHTRED
  70
0
  62
11
  6
CONTINUOUS
  0
LAYER
  2
LIGHTMAGENTA
  70
0
  62
221
  6
CONTINUOUS
  0
LAYER
  2
YELLOW
  70
0
  62
2
  6
CONTINUOUS
  0
LAYER
  2
WHITE
  70
0
  62
7
  6
CONTINUOUS
  0
LAYER
  2
DARKDARKGRAY
  70
0
  62
251
  6
CONTINUOUS
  0
LAYER
  2
DARKBLUE
  70
0
  62
178
  6
CONTINUOUS
  0
LAYER
  2
DARKGREEN
  70
0
  62
98
  6
CONTINUOUS
  0
LAYER
  2
DARKCYAN
  70
0
  62
138
  6
CONTINUOUS
  0
LAYER
  2
DARKRED
  70
0
  62
18
  6
CONTINUOUS
  0
LAYER
  2
DARKMAGENTA
  70
0
  62
228
  6
CONTINUOUS
  0
LAYER
  2
DARKBROWN
  70
0
  62
58
  6
CONTINUOUS
  0
LAYER
  2
LIGHTYELLOW
  70
0
  62
51
  6
CONTINUOUS
  0
ENDTAB
  0
ENDSEC
  0
SECTION
  2
ENTITIES
0
CIRCLE
8
BLACK
10
34.4
20
-48.6
40
1.01949
0
CIRCLE
8
BLACK
10
29.4
20
-48.6
40
1.01949
0
CIRCLE
8
BLACK
10
39.4
20
-48.6
40
1.01949
0
LINE
8
BLACK
10
31.2904
20
-29.3795
11
30.2496
21
-29.3795
0
LINE
8
BLACK
10
30.2496
20
-29.3795
11
30.2496
21
-30.1205
0
LINE
8
BLACK
10
30.2496
20
-30.1205
11
31.2904
21
-30.1205
0
LINE
8
BLACK
10
31.2904
20
-30.1205
11
31.2904
21
-29.3795
0
LINE
8
BLACK
10
28.7504
20
-30.332
11
27.7096
21
-30.332
0
LINE
8
BLACK
10
27.7096
20
-30.332
11
27.7096
21
-31.073
0
LINE
8
BLACK
10
27.7096
20
-31.073
11
28.7504
21
-31.073
0
LINE
8
BLACK
10
28.7504
20
-31.073
11
28.7504
21
-30.332
0
LINE
8
BLACK
10
28.7504
20
-28.427
11
27.7096
21
-28.427
0
LINE
8
BLACK
10
27.7096
20
-28.427
11
27.7096
21
-29.168
0
LINE
8
BLACK
10
27.7096
20
-29.168
11
28.7504
21
-29.168
0
LINE
8
BLACK
10
28.7504
20
-29.168
11
28.7504
21
-28.427
0
LINE
8
BLACK
10
41.7185
20
-37.829
11
40.2815
21
-37.829
0
LINE
8
BLACK
10
40.2815
20
-37.829
11
40.2815
21
-39.012
0
LINE
8
BLACK
10
40.2815
20
-39.012
11
41.7185
21
-39.012
0
LINE
8
BLACK
10
41.7185
20
-39.012
11
41.7185
21
-37.829
0
LINE
8
BLACK
10
41.7185
20
-39.988
11
40.2815
21
-39.988
0
LINE
8
BLACK
10
40.2815
20
-39.988
11
40.2815
21
-41.171
0
LINE
8
BLACK
10
40.2815
20
-41.171
11
41.7185
21
-41.171
0
LINE
8
BLACK
10
41.7185
20
-41.171
11
41.7185
21
-39.988
0
LINE
8
BLACK
10
41.7185
20
-32.829
11
40.2815
21
-32.829
0
LINE
8
BLACK
10
40.2815
20
-32.829
11
40.2815
21
-34.012
0
LINE
8
BLACK
10
40.2815
20
-34.012
11
41.7185
21
-34.012
0
LINE
8
BLACK
10
41.7185
20
-34.012
11
41.7185
21
-32.829
0
LINE
8
BLACK
10
41.7185
20
-34.988
11
40.2815
21
-34.988
0
LINE
8
BLACK
10
40.2815
20
-34.988
11
40.2815
21
-36.171
0
LINE
8
BLACK
10
40.2815
20
-36.171
11
41.7185
21
-36.171
0
LINE
8
BLACK
10
41.7185
20
-36.171
11
41.7185
21
-34.988
0
LINE
8
BLACK
10
43.0315
20
-28.171
11
44.4685
21
-28.171
0
LINE
8
BLACK
10
44.4685
20
-28.171
11
44.4685
21
-26.988
0
LINE
8
BLACK
10
44.4685
20
-26.988
11
43.0315
21
-26.988
0
LINE
8
BLACK
10
43.0315
20
-26.988
11
43.0315
21
-28.171
0
LINE
8
BLACK
10
43.0315
20
-26.012
11
44.4685
21
-26.012
0
LINE
8
BLACK
10
44.4685
20
-26.012
11
44.4685
21
-24.829
0
LINE
8
BLACK
10
44.4685
20
-24.829
11
43.0315
21
-24.829
0
LINE
8
BLACK
10
43.0315
20
-24.829
11
43.0315
21
-26.012
0
LINE
8
BLACK
10
66.829
20
-37.7815
11
66.829
21
-39.2185
0
LINE
8
BLACK
10
66.829
20
-39.2185
11
68.012
21
-39.2185
0
LINE
8
BLACK
10
68.012
20
-39.2185
11
68.012
21
-37.7815
0
LINE
8
BLACK
10
68.012
20
-37.7815
11
66.829
21
-37.7815
0
LINE
8
BLACK
10
68.988
20
-37.7815
11
68.988
21
-39.2185
0
LINE
8
BLACK
10
68.988
20
-39.2185
11
70.171
21
-39.2185
0
LINE
8
BLACK
10
70.171
20
-39.2185
11
70.171
21
-37.7815
0
LINE
8
BLACK
10
70.171
20
-37.7815
11
68.988
21
-37.7815
0
LINE
8
BLACK
10
66.829
20
-34.7815
11
66.829
21
-36.2185
0
LINE
8
BLACK
10
66.829
20
-36.2185
11
68.012
21
-36.2185
0
LINE
8
BLACK
10
68.012
20
-36.2185
11
68.012
21
-34.7815
0
LINE
8
BLACK
10
68.012
20
-34.7815
11
66.829
21
-34.7815
0
LINE
8
BLACK
10
68.988
20
-34.7815
11
68.988
21
-36.2185
0
LINE
8
BLACK
10
68.988
20
-36.2185
11
70.171
21
-36.2185
0
LINE
8
BLACK
10
70.171
20
-36.2185
11
70.171
21
-34.7815
0
LINE
8
BLACK
10
70.171
20
-34.7815
11
68.988
21
-34.7815
0
LINE
8
BLACK
10
66.829
20
-31.7815
11
66.829
21
-33.2185
0
LINE
8
BLACK
10
66.829
20
-33.2185
11
68.012
21
-33.2185
0
LINE
8
BLACK
10
68.012
20
-33.2185
11
68.012
21
-31.7815
0
LINE
8
BLACK
10
68.012
20
-31.7815
11
66.829
21
-31.7815
0
LINE
8
BLACK
10
68.988
20
-31.7815
11
68.988
21
-33.2185
0
LINE
8
BLACK
10
68.988
20
-33.2185
11
70.171
21
-33.2185
0
LINE
8
BLACK
10
70.171
20
-33.2185
11
70.171
21
-31.7815
0
LINE
8
BLACK
10
70.171
20
-31.7815
11
68.988
21
-31.7815
0
LINE
8
BLACK
10
66.829
20
-28.7815
11
66.829
21
-30.2185
0
LINE
8
BLACK
10
66.829
20
-30.2185
11
68.012
21
-30.2185
0
LINE
8
BLACK
10
68.012
20
-30.2185
11
68.012
21
-28.7815
0
LINE
8
BLACK
10
68.012
20
-28.7815
11
66.829
21
-28.7815
0
LINE
8
BLACK
10
68.988
20
-28.7815
11
68.988
21
-30.2185
0
LINE
8
BLACK
10
68.988
20
-30.2185
11
70.171
21
-30.2185
0
LINE
8
BLACK
10
70.171
20
-30.2185
11
70.171
21
-28.7815
0
LINE
8
BLACK
10
70.171
20
-28.7815
11
68.988
21
-28.7815
0
LINE
8
BLACK
10
66.829
20
-25.7815
11
66.829
21
-27.2185
0
LINE
8
BLACK
10
66.829
20
-27.2185
11
68.012
21
-27.2185
0
LINE
8
BLACK
10
68.012
20
-27.2185
11
68.012
21
-25.7815
0
LINE
8
BLACK
10
68.012
20
-25.7815
11
66.829
21
-25.7815
0
LINE
8
BLACK
10
68.988
20
-25.7815
11
68.988
21
-27.2185
0
LINE
8
BLACK
10
68.988
20
-27.2185
11
70.171
21
-27.2185
0
LINE
8
BLACK
10
70.171
20
-27.2185
11
70.171
21
-25.7815
0
LINE
8
BLACK
10
70.171
20
-25.7815
11
68.988
21
-25.7815
0
LINE
8
BLACK
10
32.329
20
-28.5315
11
32.329
21
-29.9685
0
LINE
8
BLACK
10
32.329
20
-29.9685
11
33.512
21
-29.9685
0
LINE
8
BLACK
10
33.512
20
-29.9685
11
33.512
21
-28.5315
0
LINE
8
BLACK
10
33.512
20
-28.5315
11
32.329
21
-28.5315
0
LINE
8
BLACK
10
34.488
20
-28.5315
11
34.488
21
-29.9685
0
LINE
8
BLACK
10
34.488
20
-29.9685
11
35.671
21
-29.9685
0
LINE
8
BLACK
10
35.671
20
-29.9685
11
35.671
21
-28.5315
0
LINE
8
BLACK
10
35.671
20
-28.5315
11
34.488
21
-28.5315
0
LINE
8
BLACK
10
27.829
20
-23.5315
11
27.829
21
-24.9685
0
LINE
8
BLACK
10
27.829
20
-24.9685
11
29.012
21
-24.9685
0
LINE
8
BLACK
10
29.012
20
-24.9685
11
29.012
21
-23.5315
0
LINE
8
BLACK
10
29.012
20
-23.5315
11
27.829
21
-23.5315
0
LINE
8
BLACK
10
29.988
20
-23.5315
11
29.988
21
-24.9685
0
LINE
8
BLACK
10
29.988
20
-24.9685
11
31.171
21
-24.9685
0
LINE
8
BLACK
10
31.171
20
-24.9685
11
31.171
21
-23.5315
0
LINE
8
BLACK
10
31.171
20
-23.5315
11
29.988
21
-23.5315
0
LINE
8
BLACK
10
32.329
20
-23.5315
11
32.329
21
-24.9685
0
LINE
8
BLACK
10
32.329
20
-24.9685
11
33.512
21
-24.9685
0
LINE
8
BLACK
10
33.512
20
-24.9685
11
33.512
21
-23.5315
0
LINE
8
BLACK
10
33.512
20
-23.5315
11
32.329
21
-23.5315
0
LINE
8
BLACK
10
34.488
20
-23.5315
11
34.488
21
-24.9685
0
LINE
8
BLACK
10
34.488
20
-24.9685
11
35.671
21
-24.9685
0
LINE
8
BLACK
10
35.671
20
-24.9685
11
35.671
21
-23.5315
0
LINE
8
BLACK
10
35.671
20
-23.5315
11
34.488
21
-23.5315
0
LINE
8
BLACK
10
45.5315
20
-28.171
11
46.9685
21
-28.171
0
LINE
8
BLACK
10
46.9685
20
-28.171
11
46.9685
21
-26.988
0
LINE
8
BLACK
10
46.9685
20
-26.988
11
45.5315
21
-26.988
0
LINE
8
BLACK
10
45.5315
20
-26.988
11
45.5315
21
-28.171
0
LINE
8
BLACK
10
45.5315
20
-26.012
11
46.9685
21
-26.012
0
LINE
8
BLACK
10
46.9685
20
-26.012
11
46.9685
21
-24.829
0
LINE
8
BLACK
10
46.9685
20
-24.829
11
45.5315
21
-24.829
0
LINE
8
BLACK
10
45.5315
20
-24.829
11
45.5315
21
-26.012
0
LINE
8
BLACK
10
54.9685
20
-35.329
11
53.5315
21
-35.329
0
LINE
8
BLACK
10
53.5315
20
-35.329
11
53.5315
21
-36.512
0
LINE
8
BLACK
10
53.5315
20
-36.512
11
54.9685
21
-36.512
0
LINE
8
BLACK
10
54.9685
20
-36.512
11
54.9685
21
-35.329
0
LINE
8
BLACK
10
54.9685
20
-37.488
11
53.5315
21
-37.488
0
LINE
8
BLACK
10
53.5315
20
-37.488
11
53.5315
21
-38.671
0
LINE
8
BLACK
10
53.5315
20
-38.671
11
54.9685
21
-38.671
0
LINE
8
BLACK
10
54.9685
20
-38.671
11
54.9685
21
-37.488
0
LINE
8
BLACK
10
37.9685
20
-42.829
11
36.5315
21
-42.829
0
LINE
8
BLACK
10
36.5315
20
-42.829
11
36.5315
21
-44.012
0
LINE
8
BLACK
10
36.5315
20
-44.012
11
37.9685
21
-44.012
0
LINE
8
BLACK
10
37.9685
20
-44.012
11
37.9685
21
-42.829
0
LINE
8
BLACK
10
37.9685
20
-44.988
11
36.5315
21
-44.988
0
LINE
8
BLACK
10
36.5315
20
-44.988
11
36.5315
21
-46.171
0
LINE
8
BLACK
10
36.5315
20
-46.171
11
37.9685
21
-46.171
0
LINE
8
BLACK
10
37.9685
20
-46.171
11
37.9685
21
-44.988
0
LINE
8
BLACK
10
32.329
20
-26.0315
11
32.329
21
-27.4685
0
LINE
8
BLACK
10
32.329
20
-27.4685
11
33.512
21
-27.4685
0
LINE
8
BLACK
10
33.512
20
-27.4685
11
33.512
21
-26.0315
0
LINE
8
BLACK
10
33.512
20
-26.0315
11
32.329
21
-26.0315
0
LINE
8
BLACK
10
34.488
20
-26.0315
11
34.488
21
-27.4685
0
LINE
8
BLACK
10
34.488
20
-27.4685
11
35.671
21
-27.4685
0
LINE
8
BLACK
10
35.671
20
-27.4685
11
35.671
21
-26.0315
0
LINE
8
BLACK
10
35.671
20
-26.0315
11
34.488
21
-26.0315
0
LINE
8
BLACK
10
33.7815
20
-46.171
11
35.2185
21
-46.171
0
LINE
8
BLACK
10
35.2185
20
-46.171
11
35.2185
21
-44.988
0
LINE
8
BLACK
10
35.2185
20
-44.988
11
33.7815
21
-44.988
0
LINE
8
BLACK
10
33.7815
20
-44.988
11
33.7815
21
-46.171
0
LINE
8
BLACK
10
33.7815
20
-44.012
11
35.2185
21
-44.012
0
LINE
8
BLACK
10
35.2185
20
-44.012
11
35.2185
21
-42.829
0
LINE
8
BLACK
10
35.2185
20
-42.829
11
33.7815
21
-42.829
0
LINE
8
BLACK
10
33.7815
20
-42.829
11
33.7815
21
-44.012
0
LINE
8
BLACK
10
27.829
20
-26.0315
11
27.829
21
-27.4685
0
LINE
8
BLACK
10
27.829
20
-27.4685
11
29.012
21
-27.4685
0
LINE
8
BLACK
10
29.012
20
-27.4685
11
29.012
21
-26.0315
0
LINE
8
BLACK
10
29.012
20
-26.0315
11
27.829
21
-26.0315
0
LINE
8
BLACK
10
29.988
20
-26.0315
11
29.988
21
-27.4685
0
LINE
8
BLACK
10
29.988
20
-27.4685
11
31.171
21
-27.4685
0
LINE
8
BLACK
10
31.171
20
-27.4685
11
31.171
21
-26.0315
0
LINE
8
BLACK
10
31.171
20
-26.0315
11
29.988
21
-26.0315
0
LINE
8
BLACK
10
30.079
20
-21.0315
11
30.079
21
-22.4685
0
LINE
8
BLACK
10
30.079
20
-22.4685
11
31.262
21
-22.4685
0
LINE
8
BLACK
10
31.262
20
-22.4685
11
31.262
21
-21.0315
0
LINE
8
BLACK
10
31.262
20
-21.0315
11
30.079
21
-21.0315
0
LINE
8
BLACK
10
32.238
20
-21.0315
11
32.238
21
-22.4685
0
LINE
8
BLACK
10
32.238
20
-22.4685
11
33.421
21
-22.4685
0
LINE
8
BLACK
10
33.421
20
-22.4685
11
33.421
21
-21.0315
0
LINE
8
BLACK
10
33.421
20
-21.0315
11
32.238
21
-21.0315
0
LINE
8
BLACK
10
49.8295
20
-23.5195
11
49.8295
21
-21.4805
0
LINE
8
BLACK
10
49.8295
20
-21.4805
11
47.7905
21
-21.4805
0
LINE
8
BLACK
10
47.7905
20
-21.4805
11
47.7905
21
-23.5195
0
LINE
8
BLACK
10
47.7905
20
-23.5195
11
49.8295
21
-23.5195
0
CIRCLE
8
BLACK
10
46.27
20
-22.5
40
1.01949
0
CIRCLE
8
BLACK
10
43.73
20
-22.5
40
1.01949
0
CIRCLE
8
BLACK
10
41.19
20
-22.5
40
1.01949
0
LINE
8
BLACK
10
43.3703
20
-38.4786
11
43.3703
21
-40.7182
0
LINE
8
BLACK
10
43.3703
20
-40.7182
11
44.0097
21
-40.7182
0
LINE
8
BLACK
10
44.0097
20
-40.7182
11
44.0097
21
-38.4786
0
LINE
8
BLACK
10
44.0097
20
-38.4786
11
43.3703
21
-38.4786
0
LINE
8
BLACK
10
44.6403
20
-38.4786
11
44.6403
21
-40.7182
0
LINE
8
BLACK
10
44.6403
20
-40.7182
11
45.2797
21
-40.7182
0
LINE
8
BLACK
10
45.2797
20
-40.7182
11
45.2797
21
-38.4786
0
LINE
8
BLACK
10
45.2797
20
-38.4786
11
44.6403
21
-38.4786
0
LINE
8
BLACK
10
45.9103
20
-38.4786
11
45.9103
21
-40.7182
0
LINE
8
BLACK
10
45.9103
20
-40.7182
11
46.5497
21
-40.7182
0
LINE
8
BLACK
10
46.5497
20
-40.7182
11
46.5497
21
-38.4786
0
LINE
8
BLACK
10
46.5497
20
-38.4786
11
45.9103
21
-38.4786
0
LINE
8
BLACK
10
47.1803
20
-38.4786
11
47.1803
21
-40.7182
0
LINE
8
BLACK
10
47.1803
20
-40.7182
11
47.8197
21
-40.7182
0
LINE
8
BLACK
10
47.8197
20
-40.7182
11
47.8197
21
-38.4786
0
LINE
8
BLACK
10
47.8197
20
-38.4786
11
47.1803
21
-38.4786
0
LINE
8
BLACK
10
48.4503
20
-38.4786
11
48.4503
21
-40.7182
0
LINE
8
BLACK
10
48.4503
20
-40.7182
11
49.0897
21
-40.7182
0
LINE
8
BLACK
10
49.0897
20
-40.7182
11
49.0897
21
-38.4786
0
LINE
8
BLACK
10
49.0897
20
-38.4786
11
48.4503
21
-38.4786
0
LINE
8
BLACK
10
49.7203
20
-38.4786
11
49.7203
21
-40.7182
0
LINE
8
BLACK
10
49.7203
20
-40.7182
11
50.3597
21
-40.7182
0
LINE
8
BLACK
10
50.3597
20
-40.7182
11
50.3597
21
-38.4786
0
LINE
8
BLACK
10
50.3597
20
-38.4786
11
49.7203
21
-38.4786
0
LINE
8
BLACK
10
50.9903
20
-38.4786
11
50.9903
21
-40.7182
0
LINE
8
BLACK
10
50.9903
20
-40.7182
11
51.6297
21
-40.7182
0
LINE
8
BLACK
10
51.6297
20
-40.7182
11
51.6297
21
-38.4786
0
LINE
8
BLACK
10
51.6297
20
-38.4786
11
50.9903
21
-38.4786
0
LINE
8
BLACK
10
50.9903
20
-33.2818
11
50.9903
21
-35.5214
0
LINE
8
BLACK
10
50.9903
20
-35.5214
11
51.6297
21
-35.5214
0
LINE
8
BLACK
10
51.6297
20
-35.5214
11
51.6297
21
-33.2818
0
LINE
8
BLACK
10
51.6297
20
-33.2818
11
50.9903
21
-33.2818
0
LINE
8
BLACK
10
49.7203
20
-33.2818
11
49.7203
21
-35.5214
0
LINE
8
BLACK
10
49.7203
20
-35.5214
11
50.3597
21
-35.5214
0
LINE
8
BLACK
10
50.3597
20
-35.5214
11
50.3597
21
-33.2818
0
LINE
8
BLACK
10
50.3597
20
-33.2818
11
49.7203
21
-33.2818
0
LINE
8
BLACK
10
48.4503
20
-33.2818
11
48.4503
21
-35.5214
0
LINE
8
BLACK
10
48.4503
20
-35.5214
11
49.0897
21
-35.5214
0
LINE
8
BLACK
10
49.0897
20
-35.5214
11
49.0897
21
-33.2818
0
LINE
8
BLACK
10
49.0897
20
-33.2818
11
48.4503
21
-33.2818
0
LINE
8
BLACK
10
47.1803
20
-33.2818
11
47.1803
21
-35.5214
0
LINE
8
BLACK
10
47.1803
20
-35.5214
11
47.8197
21
-35.5214
0
LINE
8
BLACK
10
47.8197
20
-35.5214
11
47.8197
21
-33.2818
0
LINE
8
BLACK
10
47.8197
20
-33.2818
11
47.1803
21
-33.2818
0
LINE
8
BLACK
10
45.9103
20
-33.2818
11
45.9103
21
-35.5214
0
LINE
8
BLACK
10
45.9103
20
-35.5214
11
46.5497
21
-35.5214
0
LINE
8
BLACK
10
46.5497
20
-35.5214
11
46.5497
21
-33.2818
0
LINE
8
BLACK
10
46.5497
20
-33.2818
11
45.9103
21
-33.2818
0
LINE
8
BLACK
10
44.6403
20
-33.2818
11
44.6403
21
-35.5214
0
LINE
8
BLACK
10
44.6403
20
-35.5214
11
45.2797
21
-35.5214
0
LINE
8
BLACK
10
45.2797
20
-35.5214
11
45.2797
21
-33.2818
0
LINE
8
BLACK
10
45.2797
20
-33.2818
11
44.6403
21
-33.2818
0
LINE
8
BLACK
10
43.3703
20
-33.2818
11
43.3703
21
-35.5214
0
LINE
8
BLACK
10
43.3703
20
-35.5214
11
44.0097
21
-35.5214
0
LINE
8
BLACK
10
44.0097
20
-35.5214
11
44.0097
21
-33.2818
0
LINE
8
BLACK
10
44.0097
20
-33.2818
11
43.3703
21
-33.2818
0
CIRCLE
8
BLACK
10
60.14
20
-30.01
40
1.02
0
CIRCLE
8
BLACK
10
62.73
20
-25.53
40
1.02
0
CIRCLE
8
BLACK
10
67.21
20
-22.94
40
1.02
0
CIRCLE
8
BLACK
10
72.39
20
-22.94
40
1.02
0
CIRCLE
8
BLACK
10
76.87
20
-25.53
40
1.02
0
CIRCLE
8
BLACK
10
79.46
20
-30.01
40
1.02
0
CIRCLE
8
BLACK
10
75.3
20
-32.6
40
1.02
0
CIRCLE
8
BLACK
10
64.3
20
-32.6
40
1.02
0
CIRCLE
8
BLACK
10
60.14
20
-35.19
40
1.02
0
CIRCLE
8
BLACK
10
62.73
20
-39.67
40
1.02
0
CIRCLE
8
BLACK
10
67.21
20
-42.26
40
1.02
0
CIRCLE
8
BLACK
10
72.39
20
-42.26
40
1.02
0
CIRCLE
8
BLACK
10
76.87
20
-39.67
40
1.02
0
CIRCLE
8
BLACK
10
79.46
20
-35.19
40
1.02
0
LINE
8
BLACK
10
59.7904
20
-21.8795
11
58.7496
21
-21.8795
0
LINE
8
BLACK
10
58.7496
20
-21.8795
11
58.7496
21
-22.6205
0
LINE
8
BLACK
10
58.7496
20
-22.6205
11
59.7904
21
-22.6205
0
LINE
8
BLACK
10
59.7904
20
-22.6205
11
59.7904
21
-21.8795
0
LINE
8
BLACK
10
57.2504
20
-22.832
11
56.2096
21
-22.832
0
LINE
8
BLACK
10
56.2096
20
-22.832
11
56.2096
21
-23.573
0
LINE
8
BLACK
10
56.2096
20
-23.573
11
57.2504
21
-23.573
0
LINE
8
BLACK
10
57.2504
20
-23.573
11
57.2504
21
-22.832
0
LINE
8
BLACK
10
57.2504
20
-20.927
11
56.2096
21
-20.927
0
LINE
8
BLACK
10
56.2096
20
-20.927
11
56.2096
21
-21.668
0
LINE
8
BLACK
10
56.2096
20
-21.668
11
57.2504
21
-21.668
0
LINE
8
BLACK
10
57.2504
20
-21.668
11
57.2504
21
-20.927
0
LINE
8
BLACK
10
56.079
20
-24.5315
11
56.079
21
-25.9685
0
LINE
8
BLACK
10
56.079
20
-25.9685
11
57.262
21
-25.9685
0
LINE
8
BLACK
10
57.262
20
-25.9685
11
57.262
21
-24.5315
0
LINE
8
BLACK
10
57.262
20
-24.5315
11
56.079
21
-24.5315
0
LINE
8
BLACK
10
58.238
20
-24.5315
11
58.238
21
-25.9685
0
LINE
8
BLACK
10
58.238
20
-25.9685
11
59.421
21
-25.9685
0
LINE
8
BLACK
10
59.421
20
-25.9685
11
59.421
21
-24.5315
0
LINE
8
BLACK
10
59.421
20
-24.5315
11
58.238
21
-24.5315
0
LINE
8
BLACK
10
61.329
20
-21.2815
11
61.329
21
-22.7185
0
LINE
8
BLACK
10
61.329
20
-22.7185
11
62.512
21
-22.7185
0
LINE
8
BLACK
10
62.512
20
-22.7185
11
62.512
21
-21.2815
0
LINE
8
BLACK
10
62.512
20
-21.2815
11
61.329
21
-21.2815
0
LINE
8
BLACK
10
63.488
20
-21.2815
11
63.488
21
-22.7185
0
LINE
8
BLACK
10
63.488
20
-22.7185
11
64.671
21
-22.7185
0
LINE
8
BLACK
10
64.671
20
-22.7185
11
64.671
21
-21.2815
0
LINE
8
BLACK
10
64.671
20
-21.2815
11
63.488
21
-21.2815
0
LINE
8
BLACK
10
54.921
20
-31.2185
11
54.921
21
-29.7815
0
LINE
8
BLACK
10
54.921
20
-29.7815
11
53.738
21
-29.7815
0
LINE
8
BLACK
10
53.738
20
-29.7815
11
53.738
21
-31.2185
0
LINE
8
BLACK
10
53.738
20
-31.2185
11
54.921
21
-31.2185
0
LINE
8
BLACK
10
52.762
20
-31.2185
11
52.762
21
-29.7815
0
LINE
8
BLACK
10
52.762
20
-29.7815
11
51.579
21
-29.7815
0
LINE
8
BLACK
10
51.579
20
-29.7815
11
51.579
21
-31.2185
0
LINE
8
BLACK
10
51.579
20
-31.2185
11
52.762
21
-31.2185
0
LINE
8
BLACK
10
51.579
20
-24.5315
11
51.579
21
-25.9685
0
LINE
8
BLACK
10
51.579
20
-25.9685
11
52.762
21
-25.9685
0
LINE
8
BLACK
10
52.762
20
-25.9685
11
52.762
21
-24.5315
0
LINE
8
BLACK
10
52.762
20
-24.5315
11
51.579
21
-24.5315
0
LINE
8
BLACK
10
53.738
20
-24.5315
11
53.738
21
-25.9685
0
LINE
8
BLACK
10
53.738
20
-25.9685
11
54.921
21
-25.9685
0
LINE
8
BLACK
10
54.921
20
-25.9685
11
54.921
21
-24.5315
0
LINE
8
BLACK
10
54.921
20
-24.5315
11
53.738
21
-24.5315
0
LINE
8
BLACK
10
54.921
20
-28.4685
11
54.921
21
-27.0315
0
LINE
8
BLACK
10
54.921
20
-27.0315
11
53.738
21
-27.0315
0
LINE
8
BLACK
10
53.738
20
-27.0315
11
53.738
21
-28.4685
0
LINE
8
BLACK
10
53.738
20
-28.4685
11
54.921
21
-28.4685
0
LINE
8
BLACK
10
52.762
20
-28.4685
11
52.762
21
-27.0315
0
LINE
8
BLACK
10
52.762
20
-27.0315
11
51.579
21
-27.0315
0
LINE
8
BLACK
10
51.579
20
-27.0315
11
51.579
21
-28.4685
0
LINE
8
BLACK
10
51.579
20
-28.4685
11
52.762
21
-28.4685
0
LINE
8
BLACK
10
51.579
20
-21.7815
11
51.579
21
-23.2185
0
LINE
8
BLACK
10
51.579
20
-23.2185
11
52.762
21
-23.2185
0
LINE
8
BLACK
10
52.762
20
-23.2185
11
52.762
21
-21.7815
0
LINE
8
BLACK
10
52.762
20
-21.7815
11
51.579
21
-21.7815
0
LINE
8
BLACK
10
53.738
20
-21.7815
11
53.738
21
-23.2185
0
LINE
8
BLACK
10
53.738
20
-23.2185
11
54.921
21
-23.2185
0
LINE
8
BLACK
10
54.921
20
-23.2185
11
54.921
21
-21.7815
0
LINE
8
BLACK
10
54.921
20
-21.7815
11
53.738
21
-21.7815
0
LINE
8
BLACK
10
39.2247
20
-35.5214
11
39.2247
21
-33.2818
0
LINE
8
BLACK
10
39.2247
20
-33.2818
11
38.5853
21
-33.2818
0
LINE
8
BLACK
10
38.5853
20
-33.2818
11
38.5853
21
-35.5214
0
LINE
8
BLACK
10
38.5853
20
-35.5214
11
39.2247
21
-35.5214
0
LINE
8
BLACK
10
37.9547
20
-35.5214
11
37.9547
21
-33.2818
0
LINE
8
BLACK
10
37.9547
20
-33.2818
11
37.3153
21
-33.2818
0
LINE
8
BLACK
10
37.3153
20
-33.2818
11
37.3153
21
-35.5214
0
LINE
8
BLACK
10
37.3153
20
-35.5214
11
37.9547
21
-35.5214
0
LINE
8
BLACK
10
36.6847
20
-35.5214
11
36.6847
21
-33.2818
0
LINE
8
BLACK
10
36.6847
20
-33.2818
11
36.0453
21
-33.2818
0
LINE
8
BLACK
10
36.0453
20
-33.2818
11
36.0453
21
-35.5214
0
LINE
8
BLACK
10
36.0453
20
-35.5214
11
36.6847
21
-35.5214
0
LINE
8
BLACK
10
35.4147
20
-35.5214
11
35.4147
21
-33.2818
0
LINE
8
BLACK
10
35.4147
20
-33.2818
11
34.7753
21
-33.2818
0
LINE
8
BLACK
10
34.7753
20
-33.2818
11
34.7753
21
-35.5214
0
LINE
8
BLACK
10
34.7753
20
-35.5214
11
35.4147
21
-35.5214
0
LINE
8
BLACK
10
35.4147
20
-40.7182
11
35.4147
21
-38.4786
0
LINE
8
BLACK
10
35.4147
20
-38.4786
11
34.7753
21
-38.4786
0
LINE
8
BLACK
10
34.7753
20
-38.4786
11
34.7753
21
-40.7182
0
LINE
8
BLACK
10
34.7753
20
-40.7182
11
35.4147
21
-40.7182
0
LINE
8
BLACK
10
36.6847
20
-40.7182
11
36.6847
21
-38.4786
0
LINE
8
BLACK
10
36.6847
20
-38.4786
11
36.0453
21
-38.4786
0
LINE
8
BLACK
10
36.0453
20
-38.4786
11
36.0453
21
-40.7182
0
LINE
8
BLACK
10
36.0453
20
-40.7182
11
36.6847
21
-40.7182
0
LINE
8
BLACK
10
37.9547
20
-40.7182
11
37.9547
21
-38.4786
0
LINE
8
BLACK
10
37.9547
20
-38.4786
11
37.3153
21
-38.4786
0
LINE
8
BLACK
10
37.3153
20
-38.4786
11
37.3153
21
-40.7182
0
LINE
8
BLACK
10
37.3153
20
-40.7182
11
37.9547
21
-40.7182
0
LINE
8
BLACK
10
39.2247
20
-40.7182
11
39.2247
21
-38.4786
0
LINE
8
BLACK
10
39.2247
20
-38.4786
11
38.5853
21
-38.4786
0
LINE
8
BLACK
10
38.5853
20
-38.4786
11
38.5853
21
-40.7182
0
LINE
8
BLACK
10
38.5853
20
-40.7182
11
39.2247
21
-40.7182
0
CIRCLE
8
BLACK
10
46.5
20
-48.54
40
1.01949
0
CIRCLE
8
BLACK
10
43.96
20
-46
40
1.01949
0
LINE
8
BLACK
10
50.0595
20
-47.0195
11
50.0595
21
-44.9805
0
LINE
8
BLACK
10
50.0595
20
-44.9805
11
48.0205
21
-44.9805
0
LINE
8
BLACK
10
48.0205
20
-44.9805
11
48.0205
21
-47.0195
0
LINE
8
BLACK
10
48.0205
20
-47.0195
11
50.0595
21
-47.0195
0
CIRCLE
8
BLACK
10
55.5
20
-48.54
40
1.01949
0
CIRCLE
8
BLACK
10
52.96
20
-46
40
1.01949
0
LINE
8
BLACK
10
59.0595
20
-47.0195
11
59.0595
21
-44.9805
0
LINE
8
BLACK
10
59.0595
20
-44.9805
11
57.0205
21
-44.9805
0
LINE
8
BLACK
10
57.0205
20
-44.9805
11
57.0205
21
-47.0195
0
LINE
8
BLACK
10
57.0205
20
-47.0195
11
59.0595
21
-47.0195
0
CIRCLE
8
BLACK
10
64.5
20
-48.54
40
1.01949
0
CIRCLE
8
BLACK
10
61.96
20
-46
40
1.01949
0
LINE
8
BLACK
10
68.0595
20
-47.0195
11
68.0595
21
-44.9805
0
LINE
8
BLACK
10
68.0595
20
-44.9805
11
66.0205
21
-44.9805
0
LINE
8
BLACK
10
66.0205
20
-44.9805
11
66.0205
21
-47.0195
0
LINE
8
BLACK
10
66.0205
20
-47.0195
11
68.0595
21
-47.0195
0
CIRCLE
8
BLACK
10
28.46
20
-37
40
1.01949
0
CIRCLE
8
BLACK
10
31
20
-34.46
40
1.01949
0
LINE
8
BLACK
10
29.9805
20
-40.5595
11
32.0195
21
-40.5595
0
LINE
8
BLACK
10
32.0195
20
-40.5595
11
32.0195
21
-38.5205
0
LINE
8
BLACK
10
32.0195
20
-38.5205
11
29.9805
21
-38.5205
0
LINE
8
BLACK
10
29.9805
20
-38.5205
11
29.9805
21
-40.5595
0
LINE
8
BLACK
10
30.0315
20
-46.171
11
31.4685
21
-46.171
0
LINE
8
BLACK
10
31.4685
20
-46.171
11
31.4685
21
-44.988
0
LINE
8
BLACK
10
31.4685
20
-44.988
11
30.0315
21
-44.988
0
LINE
8
BLACK
10
30.0315
20
-44.988
11
30.0315
21
-46.171
0
LINE
8
BLACK
10
30.0315
20
-44.012
11
31.4685
21
-44.012
0
LINE
8
BLACK
10
31.4685
20
-44.012
11
31.4685
21
-42.829
0
LINE
8
BLACK
10
31.4685
20
-42.829
11
30.0315
21
-42.829
0
LINE
8
BLACK
10
30.0315
20
-42.829
11
30.0315
21
-44.012
0
LINE
8
BLACK
10
27.2815
20
-46.171
11
28.7185
21
-46.171
0
LINE
8
BLACK
10
28.7185
20
-46.171
11
28.7185
21
-44.988
0
LINE
8
BLACK
10
28.7185
20
-44.988
11
27.2815
21
-44.988
0
LINE
8
BLACK
10
27.2815
20
-44.988
11
27.2815
21
-46.171
0
LINE
8
BLACK
10
27.2815
20
-44.012
11
28.7185
21
-44.012
0
LINE
8
BLACK
10
28.7185
20
-44.012
11
28.7185
21
-42.829
0
LINE
8
BLACK
10
28.7185
20
-42.829
11
27.2815
21
-42.829
0
LINE
8
BLACK
10
27.2815
20
-42.829
11
27.2815
21
-44.012
0
LINE
8
BLACK
10
40.2815
20
-28.171
11
41.7185
21
-28.171
0
LINE
8
BLACK
10
41.7185
20
-28.171
11
41.7185
21
-26.988
0
LINE
8
BLACK
10
41.7185
20
-26.988
11
40.2815
21
-26.988
0
LINE
8
BLACK
10
40.2815
20
-26.988
11
40.2815
21
-28.171
0
LINE
8
BLACK
10
40.2815
20
-26.012
11
41.7185
21
-26.012
0
LINE
8
BLACK
10
41.7185
20
-26.012
11
41.7185
21
-24.829
0
LINE
8
BLACK
10
41.7185
20
-24.829
11
40.2815
21
-24.829
0
LINE
8
BLACK
10
40.2815
20
-24.829
11
40.2815
21
-26.012
0
LINE
8
BLACK
10
70.6705
20
-47.2305
11
70.6705
21
-49.2695
0
LINE
8
BLACK
10
70.6705
20
-49.2695
11
72.7095
21
-49.2695
0
LINE
8
BLACK
10
72.7095
20
-49.2695
11
72.7095
21
-47.2305
0
LINE
8
BLACK
10
72.7095
20
-47.2305
11
70.6705
21
-47.2305
0
CIRCLE
8
BLACK
10
74.23
20
-48.25
40
1.01949
0
CIRCLE
8
BLACK
10
76.77
20
-48.25
40
1.01949
0
CIRCLE
8
BLACK
10
79.31
20
-48.25
40
1.01949
  0
ENDSEC
  0
EOF
