G04 (created by PCBNEW (2013-07-07 BZR 4022)-stable) date 2014-08-05 10:31:38 AM*
%MOIN*%
G04 Gerber Fmt 3.4, Leading zero omitted, Abs format*
%FSLAX34Y34*%
G01*
G70*
G90*
G04 APERTURE LIST*
%ADD10C,0.00590551*%
%ADD11C,0.00984252*%
%ADD12C,0.011811*%
%ADD13C,0.005*%
%ADD14C,0.006*%
%ADD15O,1.0252X0.0212598*%
%ADD16C,0.0802748*%
%ADD17R,0.0565748X0.0465748*%
%ADD18R,0.0802748X0.0802748*%
%ADD19C,0.080315*%
%ADD20C,0.0212598*%
G04 APERTURE END LIST*
G54D10*
G54D11*
X16024Y-35428D02*
X16005Y-35390D01*
X16005Y-35334D01*
X16024Y-35278D01*
X16062Y-35240D01*
X16099Y-35222D01*
X16174Y-35203D01*
X16230Y-35203D01*
X16305Y-35222D01*
X16343Y-35240D01*
X16380Y-35278D01*
X16399Y-35334D01*
X16399Y-35372D01*
X16380Y-35428D01*
X16362Y-35447D01*
X16230Y-35447D01*
X16230Y-35372D01*
X16399Y-35615D02*
X16005Y-35615D01*
X16399Y-35840D01*
X16005Y-35840D01*
X16399Y-36028D02*
X16005Y-36028D01*
X16005Y-36122D01*
X16024Y-36178D01*
X16062Y-36215D01*
X16099Y-36234D01*
X16174Y-36253D01*
X16230Y-36253D01*
X16305Y-36234D01*
X16343Y-36215D01*
X16380Y-36178D01*
X16399Y-36122D01*
X16399Y-36028D01*
X17463Y-35184D02*
X17482Y-35240D01*
X17482Y-35334D01*
X17463Y-35372D01*
X17444Y-35390D01*
X17407Y-35409D01*
X17369Y-35409D01*
X17332Y-35390D01*
X17313Y-35372D01*
X17294Y-35334D01*
X17275Y-35259D01*
X17257Y-35222D01*
X17238Y-35203D01*
X17200Y-35184D01*
X17163Y-35184D01*
X17125Y-35203D01*
X17107Y-35222D01*
X17088Y-35259D01*
X17088Y-35353D01*
X17107Y-35409D01*
X17088Y-35578D02*
X17407Y-35578D01*
X17444Y-35597D01*
X17463Y-35615D01*
X17482Y-35653D01*
X17482Y-35728D01*
X17463Y-35765D01*
X17444Y-35784D01*
X17407Y-35803D01*
X17088Y-35803D01*
X17482Y-35990D02*
X17088Y-35990D01*
X17369Y-36122D01*
X17088Y-36253D01*
X17482Y-36253D01*
X18316Y-35231D02*
X18316Y-35531D01*
X18466Y-35925D02*
X18466Y-35700D01*
X18466Y-35812D02*
X18072Y-35812D01*
X18128Y-35775D01*
X18166Y-35737D01*
X18185Y-35700D01*
X18110Y-36075D02*
X18091Y-36093D01*
X18072Y-36131D01*
X18072Y-36225D01*
X18091Y-36262D01*
X18110Y-36281D01*
X18147Y-36300D01*
X18185Y-36300D01*
X18241Y-36281D01*
X18466Y-36056D01*
X18466Y-36300D01*
X18072Y-36412D02*
X18466Y-36543D01*
X18072Y-36675D01*
X19300Y-35231D02*
X19300Y-35531D01*
X19450Y-35381D02*
X19150Y-35381D01*
X19450Y-35925D02*
X19450Y-35700D01*
X19450Y-35812D02*
X19056Y-35812D01*
X19113Y-35775D01*
X19150Y-35737D01*
X19169Y-35700D01*
X19094Y-36075D02*
X19075Y-36093D01*
X19056Y-36131D01*
X19056Y-36225D01*
X19075Y-36262D01*
X19094Y-36281D01*
X19131Y-36300D01*
X19169Y-36300D01*
X19225Y-36281D01*
X19450Y-36056D01*
X19450Y-36300D01*
X19056Y-36412D02*
X19450Y-36543D01*
X19056Y-36675D01*
G54D12*
X20219Y-33647D02*
X20219Y-33759D01*
X20247Y-33816D01*
X20303Y-33872D01*
X20416Y-33900D01*
X20613Y-33900D01*
X20725Y-33872D01*
X20781Y-33816D01*
X20809Y-33759D01*
X20809Y-33647D01*
X20781Y-33591D01*
X20725Y-33534D01*
X20613Y-33506D01*
X20416Y-33506D01*
X20303Y-33534D01*
X20247Y-33591D01*
X20219Y-33647D01*
X20753Y-34491D02*
X20781Y-34462D01*
X20809Y-34378D01*
X20809Y-34322D01*
X20781Y-34237D01*
X20725Y-34181D01*
X20669Y-34153D01*
X20556Y-34125D01*
X20472Y-34125D01*
X20359Y-34153D01*
X20303Y-34181D01*
X20247Y-34237D01*
X20219Y-34322D01*
X20219Y-34378D01*
X20247Y-34462D01*
X20275Y-34491D01*
X20219Y-34659D02*
X20219Y-34997D01*
X20809Y-34828D02*
X20219Y-34828D01*
X20641Y-35165D02*
X20641Y-35447D01*
X20809Y-35109D02*
X20219Y-35306D01*
X20809Y-35503D01*
X20219Y-35615D02*
X20809Y-35812D01*
X20219Y-36009D01*
X20500Y-36206D02*
X20500Y-36403D01*
X20809Y-36487D02*
X20809Y-36206D01*
X20219Y-36206D01*
X20219Y-36487D01*
X20781Y-37162D02*
X20809Y-37246D01*
X20809Y-37387D01*
X20781Y-37443D01*
X20753Y-37471D01*
X20697Y-37500D01*
X20641Y-37500D01*
X20584Y-37471D01*
X20556Y-37443D01*
X20528Y-37387D01*
X20500Y-37275D01*
X20472Y-37218D01*
X20444Y-37190D01*
X20388Y-37162D01*
X20331Y-37162D01*
X20275Y-37190D01*
X20247Y-37218D01*
X20219Y-37275D01*
X20219Y-37415D01*
X20247Y-37500D01*
X20219Y-37696D02*
X20809Y-37837D01*
X20388Y-37949D01*
X20809Y-38062D01*
X20219Y-38203D01*
X20809Y-38428D02*
X20219Y-38428D01*
X20219Y-38624D02*
X20219Y-38962D01*
X20809Y-38793D02*
X20219Y-38793D01*
X20753Y-39496D02*
X20781Y-39468D01*
X20809Y-39384D01*
X20809Y-39327D01*
X20781Y-39243D01*
X20725Y-39187D01*
X20669Y-39159D01*
X20556Y-39131D01*
X20472Y-39131D01*
X20359Y-39159D01*
X20303Y-39187D01*
X20247Y-39243D01*
X20219Y-39327D01*
X20219Y-39384D01*
X20247Y-39468D01*
X20275Y-39496D01*
X20809Y-39749D02*
X20219Y-39749D01*
X20500Y-39749D02*
X20500Y-40087D01*
X20809Y-40087D02*
X20219Y-40087D01*
X20219Y-21048D02*
X20219Y-21161D01*
X20247Y-21217D01*
X20303Y-21273D01*
X20416Y-21302D01*
X20613Y-21302D01*
X20725Y-21273D01*
X20781Y-21217D01*
X20809Y-21161D01*
X20809Y-21048D01*
X20781Y-20992D01*
X20725Y-20936D01*
X20613Y-20908D01*
X20416Y-20908D01*
X20303Y-20936D01*
X20247Y-20992D01*
X20219Y-21048D01*
X20753Y-21892D02*
X20781Y-21864D01*
X20809Y-21780D01*
X20809Y-21723D01*
X20781Y-21639D01*
X20725Y-21583D01*
X20669Y-21555D01*
X20556Y-21526D01*
X20472Y-21526D01*
X20359Y-21555D01*
X20303Y-21583D01*
X20247Y-21639D01*
X20219Y-21723D01*
X20219Y-21780D01*
X20247Y-21864D01*
X20275Y-21892D01*
X20219Y-22061D02*
X20219Y-22398D01*
X20809Y-22230D02*
X20219Y-22230D01*
X20641Y-22567D02*
X20641Y-22848D01*
X20809Y-22511D02*
X20219Y-22708D01*
X20809Y-22904D01*
X20219Y-23017D02*
X20809Y-23214D01*
X20219Y-23411D01*
X20500Y-23607D02*
X20500Y-23804D01*
X20809Y-23889D02*
X20809Y-23607D01*
X20219Y-23607D01*
X20219Y-23889D01*
X20781Y-24564D02*
X20809Y-24648D01*
X20809Y-24789D01*
X20781Y-24845D01*
X20753Y-24873D01*
X20697Y-24901D01*
X20641Y-24901D01*
X20584Y-24873D01*
X20556Y-24845D01*
X20528Y-24789D01*
X20500Y-24676D01*
X20472Y-24620D01*
X20444Y-24592D01*
X20388Y-24564D01*
X20331Y-24564D01*
X20275Y-24592D01*
X20247Y-24620D01*
X20219Y-24676D01*
X20219Y-24817D01*
X20247Y-24901D01*
X20219Y-25098D02*
X20809Y-25239D01*
X20388Y-25351D01*
X20809Y-25464D01*
X20219Y-25604D01*
X20809Y-25829D02*
X20219Y-25829D01*
X20219Y-26026D02*
X20219Y-26363D01*
X20809Y-26195D02*
X20219Y-26195D01*
X20753Y-26898D02*
X20781Y-26870D01*
X20809Y-26785D01*
X20809Y-26729D01*
X20781Y-26645D01*
X20725Y-26588D01*
X20669Y-26560D01*
X20556Y-26532D01*
X20472Y-26532D01*
X20359Y-26560D01*
X20303Y-26588D01*
X20247Y-26645D01*
X20219Y-26729D01*
X20219Y-26785D01*
X20247Y-26870D01*
X20275Y-26898D01*
X20809Y-27151D02*
X20219Y-27151D01*
X20500Y-27151D02*
X20500Y-27488D01*
X20809Y-27488D02*
X20219Y-27488D01*
G54D11*
X19300Y-22633D02*
X19300Y-22933D01*
X19450Y-22783D02*
X19150Y-22783D01*
X19450Y-23326D02*
X19450Y-23101D01*
X19450Y-23214D02*
X19056Y-23214D01*
X19113Y-23176D01*
X19150Y-23139D01*
X19169Y-23101D01*
X19094Y-23476D02*
X19075Y-23495D01*
X19056Y-23532D01*
X19056Y-23626D01*
X19075Y-23664D01*
X19094Y-23682D01*
X19131Y-23701D01*
X19169Y-23701D01*
X19225Y-23682D01*
X19450Y-23458D01*
X19450Y-23701D01*
X19056Y-23814D02*
X19450Y-23945D01*
X19056Y-24076D01*
X18316Y-22633D02*
X18316Y-22933D01*
X18466Y-23326D02*
X18466Y-23101D01*
X18466Y-23214D02*
X18072Y-23214D01*
X18128Y-23176D01*
X18166Y-23139D01*
X18185Y-23101D01*
X18110Y-23476D02*
X18091Y-23495D01*
X18072Y-23532D01*
X18072Y-23626D01*
X18091Y-23664D01*
X18110Y-23682D01*
X18147Y-23701D01*
X18185Y-23701D01*
X18241Y-23682D01*
X18466Y-23458D01*
X18466Y-23701D01*
X18072Y-23814D02*
X18466Y-23945D01*
X18072Y-24076D01*
X17463Y-22586D02*
X17482Y-22642D01*
X17482Y-22736D01*
X17463Y-22773D01*
X17444Y-22792D01*
X17407Y-22811D01*
X17369Y-22811D01*
X17332Y-22792D01*
X17313Y-22773D01*
X17294Y-22736D01*
X17275Y-22661D01*
X17257Y-22623D01*
X17238Y-22604D01*
X17200Y-22586D01*
X17163Y-22586D01*
X17125Y-22604D01*
X17107Y-22623D01*
X17088Y-22661D01*
X17088Y-22754D01*
X17107Y-22811D01*
X17088Y-22979D02*
X17407Y-22979D01*
X17444Y-22998D01*
X17463Y-23017D01*
X17482Y-23054D01*
X17482Y-23129D01*
X17463Y-23167D01*
X17444Y-23186D01*
X17407Y-23204D01*
X17088Y-23204D01*
X17482Y-23392D02*
X17088Y-23392D01*
X17369Y-23523D01*
X17088Y-23654D01*
X17482Y-23654D01*
X16024Y-22829D02*
X16005Y-22792D01*
X16005Y-22736D01*
X16024Y-22679D01*
X16062Y-22642D01*
X16099Y-22623D01*
X16174Y-22604D01*
X16230Y-22604D01*
X16305Y-22623D01*
X16343Y-22642D01*
X16380Y-22679D01*
X16399Y-22736D01*
X16399Y-22773D01*
X16380Y-22829D01*
X16362Y-22848D01*
X16230Y-22848D01*
X16230Y-22773D01*
X16399Y-23017D02*
X16005Y-23017D01*
X16399Y-23242D01*
X16005Y-23242D01*
X16399Y-23429D02*
X16005Y-23429D01*
X16005Y-23523D01*
X16024Y-23579D01*
X16062Y-23617D01*
X16099Y-23636D01*
X16174Y-23654D01*
X16230Y-23654D01*
X16305Y-23636D01*
X16343Y-23617D01*
X16380Y-23579D01*
X16399Y-23523D01*
X16399Y-23429D01*
X16024Y-10231D02*
X16005Y-10194D01*
X16005Y-10137D01*
X16024Y-10081D01*
X16062Y-10044D01*
X16099Y-10025D01*
X16174Y-10006D01*
X16230Y-10006D01*
X16305Y-10025D01*
X16343Y-10044D01*
X16380Y-10081D01*
X16399Y-10137D01*
X16399Y-10175D01*
X16380Y-10231D01*
X16362Y-10250D01*
X16230Y-10250D01*
X16230Y-10175D01*
X16399Y-10419D02*
X16005Y-10419D01*
X16399Y-10643D01*
X16005Y-10643D01*
X16399Y-10831D02*
X16005Y-10831D01*
X16005Y-10925D01*
X16024Y-10981D01*
X16062Y-11018D01*
X16099Y-11037D01*
X16174Y-11056D01*
X16230Y-11056D01*
X16305Y-11037D01*
X16343Y-11018D01*
X16380Y-10981D01*
X16399Y-10925D01*
X16399Y-10831D01*
X17463Y-9987D02*
X17482Y-10044D01*
X17482Y-10137D01*
X17463Y-10175D01*
X17444Y-10194D01*
X17407Y-10212D01*
X17369Y-10212D01*
X17332Y-10194D01*
X17313Y-10175D01*
X17294Y-10137D01*
X17275Y-10062D01*
X17257Y-10025D01*
X17238Y-10006D01*
X17200Y-9987D01*
X17163Y-9987D01*
X17125Y-10006D01*
X17107Y-10025D01*
X17088Y-10062D01*
X17088Y-10156D01*
X17107Y-10212D01*
X17088Y-10381D02*
X17407Y-10381D01*
X17444Y-10400D01*
X17463Y-10419D01*
X17482Y-10456D01*
X17482Y-10531D01*
X17463Y-10568D01*
X17444Y-10587D01*
X17407Y-10606D01*
X17088Y-10606D01*
X17482Y-10793D02*
X17088Y-10793D01*
X17369Y-10925D01*
X17088Y-11056D01*
X17482Y-11056D01*
X18316Y-10034D02*
X18316Y-10334D01*
X18466Y-10728D02*
X18466Y-10503D01*
X18466Y-10615D02*
X18072Y-10615D01*
X18128Y-10578D01*
X18166Y-10540D01*
X18185Y-10503D01*
X18110Y-10878D02*
X18091Y-10897D01*
X18072Y-10934D01*
X18072Y-11028D01*
X18091Y-11065D01*
X18110Y-11084D01*
X18147Y-11103D01*
X18185Y-11103D01*
X18241Y-11084D01*
X18466Y-10859D01*
X18466Y-11103D01*
X18072Y-11215D02*
X18466Y-11347D01*
X18072Y-11478D01*
X19300Y-10034D02*
X19300Y-10334D01*
X19450Y-10184D02*
X19150Y-10184D01*
X19450Y-10728D02*
X19450Y-10503D01*
X19450Y-10615D02*
X19056Y-10615D01*
X19113Y-10578D01*
X19150Y-10540D01*
X19169Y-10503D01*
X19094Y-10878D02*
X19075Y-10897D01*
X19056Y-10934D01*
X19056Y-11028D01*
X19075Y-11065D01*
X19094Y-11084D01*
X19131Y-11103D01*
X19169Y-11103D01*
X19225Y-11084D01*
X19450Y-10859D01*
X19450Y-11103D01*
X19056Y-11215D02*
X19450Y-11347D01*
X19056Y-11478D01*
G54D12*
X20219Y-8450D02*
X20219Y-8562D01*
X20247Y-8619D01*
X20303Y-8675D01*
X20416Y-8703D01*
X20613Y-8703D01*
X20725Y-8675D01*
X20781Y-8619D01*
X20809Y-8562D01*
X20809Y-8450D01*
X20781Y-8394D01*
X20725Y-8338D01*
X20613Y-8309D01*
X20416Y-8309D01*
X20303Y-8338D01*
X20247Y-8394D01*
X20219Y-8450D01*
X20753Y-9294D02*
X20781Y-9266D01*
X20809Y-9181D01*
X20809Y-9125D01*
X20781Y-9041D01*
X20725Y-8984D01*
X20669Y-8956D01*
X20556Y-8928D01*
X20472Y-8928D01*
X20359Y-8956D01*
X20303Y-8984D01*
X20247Y-9041D01*
X20219Y-9125D01*
X20219Y-9181D01*
X20247Y-9266D01*
X20275Y-9294D01*
X20219Y-9462D02*
X20219Y-9800D01*
X20809Y-9631D02*
X20219Y-9631D01*
X20641Y-9969D02*
X20641Y-10250D01*
X20809Y-9912D02*
X20219Y-10109D01*
X20809Y-10306D01*
X20219Y-10419D02*
X20809Y-10615D01*
X20219Y-10812D01*
X20500Y-11009D02*
X20500Y-11206D01*
X20809Y-11290D02*
X20809Y-11009D01*
X20219Y-11009D01*
X20219Y-11290D01*
X20781Y-11965D02*
X20809Y-12050D01*
X20809Y-12190D01*
X20781Y-12246D01*
X20753Y-12275D01*
X20697Y-12303D01*
X20641Y-12303D01*
X20584Y-12275D01*
X20556Y-12246D01*
X20528Y-12190D01*
X20500Y-12078D01*
X20472Y-12021D01*
X20444Y-11993D01*
X20388Y-11965D01*
X20331Y-11965D01*
X20275Y-11993D01*
X20247Y-12021D01*
X20219Y-12078D01*
X20219Y-12218D01*
X20247Y-12303D01*
X20219Y-12500D02*
X20809Y-12640D01*
X20388Y-12753D01*
X20809Y-12865D01*
X20219Y-13006D01*
X20809Y-13231D02*
X20219Y-13231D01*
X20219Y-13428D02*
X20219Y-13765D01*
X20809Y-13596D02*
X20219Y-13596D01*
X20753Y-14299D02*
X20781Y-14271D01*
X20809Y-14187D01*
X20809Y-14131D01*
X20781Y-14046D01*
X20725Y-13990D01*
X20669Y-13962D01*
X20556Y-13934D01*
X20472Y-13934D01*
X20359Y-13962D01*
X20303Y-13990D01*
X20247Y-14046D01*
X20219Y-14131D01*
X20219Y-14187D01*
X20247Y-14271D01*
X20275Y-14299D01*
X20809Y-14552D02*
X20219Y-14552D01*
X20500Y-14552D02*
X20500Y-14890D01*
X20809Y-14890D02*
X20219Y-14890D01*
G54D10*
X14724Y-43149D02*
X14724Y-44330D01*
X14724Y-44330D02*
X16299Y-44330D01*
X12755Y-43149D02*
X12755Y-44330D01*
X12755Y-44330D02*
X14330Y-44330D01*
X14330Y-44330D02*
X14330Y-43149D01*
X10787Y-44330D02*
X12362Y-44330D01*
X12362Y-44330D02*
X12362Y-43149D01*
X16299Y-43149D02*
X10787Y-43149D01*
X10787Y-44330D02*
X10787Y-40000D01*
X16299Y-44330D02*
X16299Y-40000D01*
X14724Y-38031D02*
G75*
G03X14724Y-38031I-1181J0D01*
G74*
G01*
X16889Y-38031D02*
G75*
G03X16889Y-38031I-3346J0D01*
G74*
G01*
G54D13*
X16825Y-40929D02*
X16825Y-41329D01*
X16825Y-41329D02*
X17425Y-41329D01*
X17425Y-41329D02*
X17425Y-40929D01*
X17425Y-40369D02*
X17425Y-39969D01*
X17425Y-39969D02*
X16825Y-39969D01*
X16825Y-39969D02*
X16825Y-40369D01*
X16825Y-38961D02*
X16825Y-39361D01*
X16825Y-39361D02*
X17425Y-39361D01*
X17425Y-39361D02*
X17425Y-38961D01*
X17425Y-38401D02*
X17425Y-38001D01*
X17425Y-38001D02*
X16825Y-38001D01*
X16825Y-38001D02*
X16825Y-38401D01*
X16146Y-42436D02*
X16146Y-42036D01*
X16146Y-42036D02*
X15546Y-42036D01*
X15546Y-42036D02*
X15546Y-42436D01*
X15546Y-42996D02*
X15546Y-43396D01*
X15546Y-43396D02*
X16146Y-43396D01*
X16146Y-43396D02*
X16146Y-42996D01*
G54D10*
X32775Y-36070D02*
X32775Y-40007D01*
X32775Y-36070D02*
X31988Y-36070D01*
X32775Y-40007D02*
X31988Y-40007D01*
X32775Y-39811D02*
G75*
G03X32775Y-36267I-1771J1771D01*
G74*
G01*
X26080Y-42762D02*
G75*
G03X32380Y-40010I1773J4526D01*
G74*
G01*
X26080Y-33339D02*
G75*
G02X32380Y-36092I1773J-4526D01*
G74*
G01*
X28864Y-33300D02*
G75*
G03X22563Y-36052I-1773J-4526D01*
G74*
G01*
X28860Y-42754D02*
G75*
G02X22559Y-40002I-1773J4526D01*
G74*
G01*
X22165Y-39803D02*
G75*
G02X22165Y-36259I1771J1771D01*
G74*
G01*
X22165Y-40000D02*
X22952Y-40000D01*
X22165Y-36062D02*
X22952Y-36062D01*
X22165Y-36062D02*
X22165Y-40000D01*
X32401Y-38031D02*
G75*
G03X32401Y-38031I-4921J0D01*
G74*
G01*
X31417Y-38031D02*
G75*
G03X31417Y-38031I-3937J0D01*
G74*
G01*
G54D13*
X12495Y-42996D02*
X12495Y-43396D01*
X12495Y-43396D02*
X13095Y-43396D01*
X13095Y-43396D02*
X13095Y-42996D01*
X13095Y-42436D02*
X13095Y-42036D01*
X13095Y-42036D02*
X12495Y-42036D01*
X12495Y-42036D02*
X12495Y-42436D01*
X12495Y-30398D02*
X12495Y-30798D01*
X12495Y-30798D02*
X13095Y-30798D01*
X13095Y-30798D02*
X13095Y-30398D01*
X13095Y-29838D02*
X13095Y-29438D01*
X13095Y-29438D02*
X12495Y-29438D01*
X12495Y-29438D02*
X12495Y-29838D01*
G54D10*
X32775Y-23472D02*
X32775Y-27409D01*
X32775Y-23472D02*
X31988Y-23472D01*
X32775Y-27409D02*
X31988Y-27409D01*
X32775Y-27212D02*
G75*
G03X32775Y-23669I-1771J1771D01*
G74*
G01*
X26080Y-30164D02*
G75*
G03X32380Y-27411I1773J4526D01*
G74*
G01*
X26080Y-20741D02*
G75*
G02X32380Y-23493I1773J-4526D01*
G74*
G01*
X28864Y-20701D02*
G75*
G03X22563Y-23454I-1773J-4526D01*
G74*
G01*
X28860Y-30156D02*
G75*
G02X22559Y-27403I-1773J4526D01*
G74*
G01*
X22165Y-27204D02*
G75*
G02X22165Y-23661I1771J1771D01*
G74*
G01*
X22165Y-27401D02*
X22952Y-27401D01*
X22165Y-23464D02*
X22952Y-23464D01*
X22165Y-23464D02*
X22165Y-27401D01*
X32401Y-25433D02*
G75*
G03X32401Y-25433I-4921J0D01*
G74*
G01*
X31417Y-25433D02*
G75*
G03X31417Y-25433I-3937J0D01*
G74*
G01*
G54D13*
X16146Y-29838D02*
X16146Y-29438D01*
X16146Y-29438D02*
X15546Y-29438D01*
X15546Y-29438D02*
X15546Y-29838D01*
X15546Y-30398D02*
X15546Y-30798D01*
X15546Y-30798D02*
X16146Y-30798D01*
X16146Y-30798D02*
X16146Y-30398D01*
X16825Y-26362D02*
X16825Y-26762D01*
X16825Y-26762D02*
X17425Y-26762D01*
X17425Y-26762D02*
X17425Y-26362D01*
X17425Y-25802D02*
X17425Y-25402D01*
X17425Y-25402D02*
X16825Y-25402D01*
X16825Y-25402D02*
X16825Y-25802D01*
X16825Y-28331D02*
X16825Y-28731D01*
X16825Y-28731D02*
X17425Y-28731D01*
X17425Y-28731D02*
X17425Y-28331D01*
X17425Y-27771D02*
X17425Y-27371D01*
X17425Y-27371D02*
X16825Y-27371D01*
X16825Y-27371D02*
X16825Y-27771D01*
G54D10*
X14724Y-30551D02*
X14724Y-31732D01*
X14724Y-31732D02*
X16299Y-31732D01*
X12755Y-30551D02*
X12755Y-31732D01*
X12755Y-31732D02*
X14330Y-31732D01*
X14330Y-31732D02*
X14330Y-30551D01*
X10787Y-31732D02*
X12362Y-31732D01*
X12362Y-31732D02*
X12362Y-30551D01*
X16299Y-30551D02*
X10787Y-30551D01*
X10787Y-31732D02*
X10787Y-27401D01*
X16299Y-31732D02*
X16299Y-27401D01*
X14724Y-25433D02*
G75*
G03X14724Y-25433I-1181J0D01*
G74*
G01*
X16889Y-25433D02*
G75*
G03X16889Y-25433I-3346J0D01*
G74*
G01*
X14724Y-17952D02*
X14724Y-19133D01*
X14724Y-19133D02*
X16299Y-19133D01*
X12755Y-17952D02*
X12755Y-19133D01*
X12755Y-19133D02*
X14330Y-19133D01*
X14330Y-19133D02*
X14330Y-17952D01*
X10787Y-19133D02*
X12362Y-19133D01*
X12362Y-19133D02*
X12362Y-17952D01*
X16299Y-17952D02*
X10787Y-17952D01*
X10787Y-19133D02*
X10787Y-14803D01*
X16299Y-19133D02*
X16299Y-14803D01*
X14724Y-12834D02*
G75*
G03X14724Y-12834I-1181J0D01*
G74*
G01*
X16889Y-12834D02*
G75*
G03X16889Y-12834I-3346J0D01*
G74*
G01*
G54D13*
X16825Y-15732D02*
X16825Y-16132D01*
X16825Y-16132D02*
X17425Y-16132D01*
X17425Y-16132D02*
X17425Y-15732D01*
X17425Y-15172D02*
X17425Y-14772D01*
X17425Y-14772D02*
X16825Y-14772D01*
X16825Y-14772D02*
X16825Y-15172D01*
X16825Y-13764D02*
X16825Y-14164D01*
X16825Y-14164D02*
X17425Y-14164D01*
X17425Y-14164D02*
X17425Y-13764D01*
X17425Y-13204D02*
X17425Y-12804D01*
X17425Y-12804D02*
X16825Y-12804D01*
X16825Y-12804D02*
X16825Y-13204D01*
X16146Y-17239D02*
X16146Y-16839D01*
X16146Y-16839D02*
X15546Y-16839D01*
X15546Y-16839D02*
X15546Y-17239D01*
X15546Y-17799D02*
X15546Y-18199D01*
X15546Y-18199D02*
X16146Y-18199D01*
X16146Y-18199D02*
X16146Y-17799D01*
G54D10*
X32775Y-10874D02*
X32775Y-14811D01*
X32775Y-10874D02*
X31988Y-10874D01*
X32775Y-14811D02*
X31988Y-14811D01*
X32775Y-14614D02*
G75*
G03X32775Y-11070I-1771J1771D01*
G74*
G01*
X26080Y-17566D02*
G75*
G03X32380Y-14813I1773J4526D01*
G74*
G01*
X26080Y-8142D02*
G75*
G02X32380Y-10895I1773J-4526D01*
G74*
G01*
X28864Y-8103D02*
G75*
G03X22563Y-10855I-1773J-4526D01*
G74*
G01*
X28860Y-17558D02*
G75*
G02X22559Y-14805I-1773J4526D01*
G74*
G01*
X22165Y-14606D02*
G75*
G02X22165Y-11062I1771J1771D01*
G74*
G01*
X22165Y-14803D02*
X22952Y-14803D01*
X22165Y-10866D02*
X22952Y-10866D01*
X22165Y-10866D02*
X22165Y-14803D01*
X32401Y-12834D02*
G75*
G03X32401Y-12834I-4921J0D01*
G74*
G01*
X31417Y-12834D02*
G75*
G03X31417Y-12834I-3937J0D01*
G74*
G01*
G54D13*
X12495Y-17799D02*
X12495Y-18199D01*
X12495Y-18199D02*
X13095Y-18199D01*
X13095Y-18199D02*
X13095Y-17799D01*
X13095Y-17239D02*
X13095Y-16839D01*
X13095Y-16839D02*
X12495Y-16839D01*
X12495Y-16839D02*
X12495Y-17239D01*
G54D14*
X16982Y-37795D02*
X16997Y-37811D01*
X17043Y-37826D01*
X17073Y-37826D01*
X17119Y-37811D01*
X17150Y-37780D01*
X17165Y-37750D01*
X17180Y-37689D01*
X17180Y-37643D01*
X17165Y-37582D01*
X17150Y-37552D01*
X17119Y-37521D01*
X17073Y-37506D01*
X17043Y-37506D01*
X16997Y-37521D01*
X16982Y-37536D01*
X16708Y-37506D02*
X16769Y-37506D01*
X16799Y-37521D01*
X16814Y-37536D01*
X16845Y-37582D01*
X16860Y-37643D01*
X16860Y-37765D01*
X16845Y-37795D01*
X16830Y-37811D01*
X16799Y-37826D01*
X16738Y-37826D01*
X16708Y-37811D01*
X16692Y-37795D01*
X16677Y-37765D01*
X16677Y-37689D01*
X16692Y-37658D01*
X16708Y-37643D01*
X16738Y-37628D01*
X16799Y-37628D01*
X16830Y-37643D01*
X16845Y-37658D01*
X16860Y-37689D01*
X17179Y-41732D02*
X17194Y-41748D01*
X17240Y-41763D01*
X17270Y-41763D01*
X17316Y-41748D01*
X17346Y-41717D01*
X17362Y-41687D01*
X17377Y-41626D01*
X17377Y-41580D01*
X17362Y-41519D01*
X17346Y-41489D01*
X17316Y-41458D01*
X17270Y-41443D01*
X17240Y-41443D01*
X17194Y-41458D01*
X17179Y-41473D01*
X16905Y-41550D02*
X16905Y-41763D01*
X16981Y-41428D02*
X17057Y-41656D01*
X16859Y-41656D01*
X15899Y-41831D02*
X15915Y-41846D01*
X15960Y-41861D01*
X15991Y-41861D01*
X16036Y-41846D01*
X16067Y-41816D01*
X16082Y-41785D01*
X16097Y-41724D01*
X16097Y-41678D01*
X16082Y-41617D01*
X16067Y-41587D01*
X16036Y-41557D01*
X15991Y-41541D01*
X15960Y-41541D01*
X15915Y-41557D01*
X15899Y-41572D01*
X15793Y-41541D02*
X15595Y-41541D01*
X15701Y-41663D01*
X15655Y-41663D01*
X15625Y-41678D01*
X15610Y-41694D01*
X15595Y-41724D01*
X15595Y-41800D01*
X15610Y-41831D01*
X15625Y-41846D01*
X15655Y-41861D01*
X15747Y-41861D01*
X15777Y-41846D01*
X15793Y-41831D01*
G54D10*
X25947Y-35163D02*
X25947Y-34825D01*
X25947Y-34994D02*
X25357Y-34994D01*
X25441Y-34938D01*
X25497Y-34881D01*
X25525Y-34825D01*
X25413Y-35388D02*
X25385Y-35416D01*
X25357Y-35472D01*
X25357Y-35613D01*
X25385Y-35669D01*
X25413Y-35697D01*
X25469Y-35725D01*
X25525Y-35725D01*
X25610Y-35697D01*
X25947Y-35359D01*
X25947Y-35725D01*
X24766Y-36822D02*
X24766Y-36484D01*
X24766Y-36653D02*
X24176Y-36653D01*
X24260Y-36597D01*
X24316Y-36541D01*
X24344Y-36484D01*
X30278Y-38664D02*
X29687Y-38664D01*
X29687Y-38804D01*
X29715Y-38889D01*
X29772Y-38945D01*
X29828Y-38973D01*
X29940Y-39001D01*
X30025Y-39001D01*
X30137Y-38973D01*
X30194Y-38945D01*
X30250Y-38889D01*
X30278Y-38804D01*
X30278Y-38664D01*
X24991Y-38678D02*
X24991Y-38959D01*
X25160Y-38622D02*
X24569Y-38818D01*
X25160Y-39015D01*
G54D14*
X12848Y-41831D02*
X12863Y-41846D01*
X12909Y-41861D01*
X12940Y-41861D01*
X12985Y-41846D01*
X13016Y-41816D01*
X13031Y-41785D01*
X13046Y-41724D01*
X13046Y-41678D01*
X13031Y-41617D01*
X13016Y-41587D01*
X12985Y-41557D01*
X12940Y-41541D01*
X12909Y-41541D01*
X12863Y-41557D01*
X12848Y-41572D01*
X12665Y-41678D02*
X12696Y-41663D01*
X12711Y-41648D01*
X12726Y-41617D01*
X12726Y-41602D01*
X12711Y-41572D01*
X12696Y-41557D01*
X12665Y-41541D01*
X12604Y-41541D01*
X12574Y-41557D01*
X12559Y-41572D01*
X12543Y-41602D01*
X12543Y-41617D01*
X12559Y-41648D01*
X12574Y-41663D01*
X12604Y-41678D01*
X12665Y-41678D01*
X12696Y-41694D01*
X12711Y-41709D01*
X12726Y-41739D01*
X12726Y-41800D01*
X12711Y-41831D01*
X12696Y-41846D01*
X12665Y-41861D01*
X12604Y-41861D01*
X12574Y-41846D01*
X12559Y-41831D01*
X12543Y-41800D01*
X12543Y-41739D01*
X12559Y-41709D01*
X12574Y-41694D01*
X12604Y-41678D01*
X12848Y-29232D02*
X12863Y-29248D01*
X12909Y-29263D01*
X12940Y-29263D01*
X12985Y-29248D01*
X13016Y-29217D01*
X13031Y-29187D01*
X13046Y-29126D01*
X13046Y-29080D01*
X13031Y-29019D01*
X13016Y-28989D01*
X12985Y-28958D01*
X12940Y-28943D01*
X12909Y-28943D01*
X12863Y-28958D01*
X12848Y-28973D01*
X12665Y-29080D02*
X12696Y-29065D01*
X12711Y-29050D01*
X12726Y-29019D01*
X12726Y-29004D01*
X12711Y-28973D01*
X12696Y-28958D01*
X12665Y-28943D01*
X12604Y-28943D01*
X12574Y-28958D01*
X12559Y-28973D01*
X12543Y-29004D01*
X12543Y-29019D01*
X12559Y-29050D01*
X12574Y-29065D01*
X12604Y-29080D01*
X12665Y-29080D01*
X12696Y-29095D01*
X12711Y-29111D01*
X12726Y-29141D01*
X12726Y-29202D01*
X12711Y-29232D01*
X12696Y-29248D01*
X12665Y-29263D01*
X12604Y-29263D01*
X12574Y-29248D01*
X12559Y-29232D01*
X12543Y-29202D01*
X12543Y-29141D01*
X12559Y-29111D01*
X12574Y-29095D01*
X12604Y-29080D01*
G54D10*
X25947Y-22564D02*
X25947Y-22227D01*
X25947Y-22395D02*
X25357Y-22395D01*
X25441Y-22339D01*
X25497Y-22283D01*
X25525Y-22227D01*
X25413Y-22789D02*
X25385Y-22817D01*
X25357Y-22874D01*
X25357Y-23014D01*
X25385Y-23070D01*
X25413Y-23098D01*
X25469Y-23127D01*
X25525Y-23127D01*
X25610Y-23098D01*
X25947Y-22761D01*
X25947Y-23127D01*
X24766Y-24223D02*
X24766Y-23886D01*
X24766Y-24055D02*
X24176Y-24055D01*
X24260Y-23998D01*
X24316Y-23942D01*
X24344Y-23886D01*
X30278Y-26065D02*
X29687Y-26065D01*
X29687Y-26206D01*
X29715Y-26290D01*
X29772Y-26347D01*
X29828Y-26375D01*
X29940Y-26403D01*
X30025Y-26403D01*
X30137Y-26375D01*
X30194Y-26347D01*
X30250Y-26290D01*
X30278Y-26206D01*
X30278Y-26065D01*
X24991Y-26079D02*
X24991Y-26361D01*
X25160Y-26023D02*
X24569Y-26220D01*
X25160Y-26417D01*
G54D14*
X15899Y-29232D02*
X15915Y-29248D01*
X15960Y-29263D01*
X15991Y-29263D01*
X16036Y-29248D01*
X16067Y-29217D01*
X16082Y-29187D01*
X16097Y-29126D01*
X16097Y-29080D01*
X16082Y-29019D01*
X16067Y-28989D01*
X16036Y-28958D01*
X15991Y-28943D01*
X15960Y-28943D01*
X15915Y-28958D01*
X15899Y-28973D01*
X15793Y-28943D02*
X15595Y-28943D01*
X15701Y-29065D01*
X15655Y-29065D01*
X15625Y-29080D01*
X15610Y-29095D01*
X15595Y-29126D01*
X15595Y-29202D01*
X15610Y-29232D01*
X15625Y-29248D01*
X15655Y-29263D01*
X15747Y-29263D01*
X15777Y-29248D01*
X15793Y-29232D01*
X17179Y-29134D02*
X17194Y-29149D01*
X17240Y-29164D01*
X17270Y-29164D01*
X17316Y-29149D01*
X17346Y-29119D01*
X17362Y-29088D01*
X17377Y-29027D01*
X17377Y-28982D01*
X17362Y-28921D01*
X17346Y-28890D01*
X17316Y-28860D01*
X17270Y-28844D01*
X17240Y-28844D01*
X17194Y-28860D01*
X17179Y-28875D01*
X16905Y-28951D02*
X16905Y-29164D01*
X16981Y-28829D02*
X17057Y-29058D01*
X16859Y-29058D01*
X16982Y-25197D02*
X16997Y-25212D01*
X17043Y-25227D01*
X17073Y-25227D01*
X17119Y-25212D01*
X17150Y-25182D01*
X17165Y-25151D01*
X17180Y-25090D01*
X17180Y-25045D01*
X17165Y-24984D01*
X17150Y-24953D01*
X17119Y-24923D01*
X17073Y-24907D01*
X17043Y-24907D01*
X16997Y-24923D01*
X16982Y-24938D01*
X16708Y-24907D02*
X16769Y-24907D01*
X16799Y-24923D01*
X16814Y-24938D01*
X16845Y-24984D01*
X16860Y-25045D01*
X16860Y-25166D01*
X16845Y-25197D01*
X16830Y-25212D01*
X16799Y-25227D01*
X16738Y-25227D01*
X16708Y-25212D01*
X16692Y-25197D01*
X16677Y-25166D01*
X16677Y-25090D01*
X16692Y-25060D01*
X16708Y-25045D01*
X16738Y-25029D01*
X16799Y-25029D01*
X16830Y-25045D01*
X16845Y-25060D01*
X16860Y-25090D01*
X16982Y-12599D02*
X16997Y-12614D01*
X17043Y-12629D01*
X17073Y-12629D01*
X17119Y-12614D01*
X17150Y-12583D01*
X17165Y-12553D01*
X17180Y-12492D01*
X17180Y-12446D01*
X17165Y-12385D01*
X17150Y-12355D01*
X17119Y-12324D01*
X17073Y-12309D01*
X17043Y-12309D01*
X16997Y-12324D01*
X16982Y-12340D01*
X16708Y-12309D02*
X16769Y-12309D01*
X16799Y-12324D01*
X16814Y-12340D01*
X16845Y-12385D01*
X16860Y-12446D01*
X16860Y-12568D01*
X16845Y-12599D01*
X16830Y-12614D01*
X16799Y-12629D01*
X16738Y-12629D01*
X16708Y-12614D01*
X16692Y-12599D01*
X16677Y-12568D01*
X16677Y-12492D01*
X16692Y-12461D01*
X16708Y-12446D01*
X16738Y-12431D01*
X16799Y-12431D01*
X16830Y-12446D01*
X16845Y-12461D01*
X16860Y-12492D01*
X17179Y-16536D02*
X17194Y-16551D01*
X17240Y-16566D01*
X17270Y-16566D01*
X17316Y-16551D01*
X17346Y-16520D01*
X17362Y-16490D01*
X17377Y-16429D01*
X17377Y-16383D01*
X17362Y-16322D01*
X17346Y-16292D01*
X17316Y-16261D01*
X17270Y-16246D01*
X17240Y-16246D01*
X17194Y-16261D01*
X17179Y-16277D01*
X16905Y-16353D02*
X16905Y-16566D01*
X16981Y-16231D02*
X17057Y-16459D01*
X16859Y-16459D01*
X15899Y-16634D02*
X15915Y-16649D01*
X15960Y-16664D01*
X15991Y-16664D01*
X16036Y-16649D01*
X16067Y-16619D01*
X16082Y-16588D01*
X16097Y-16527D01*
X16097Y-16482D01*
X16082Y-16421D01*
X16067Y-16390D01*
X16036Y-16360D01*
X15991Y-16344D01*
X15960Y-16344D01*
X15915Y-16360D01*
X15899Y-16375D01*
X15793Y-16344D02*
X15595Y-16344D01*
X15701Y-16466D01*
X15655Y-16466D01*
X15625Y-16482D01*
X15610Y-16497D01*
X15595Y-16527D01*
X15595Y-16604D01*
X15610Y-16634D01*
X15625Y-16649D01*
X15655Y-16664D01*
X15747Y-16664D01*
X15777Y-16649D01*
X15793Y-16634D01*
G54D10*
X25947Y-9966D02*
X25947Y-9628D01*
X25947Y-9797D02*
X25357Y-9797D01*
X25441Y-9741D01*
X25497Y-9685D01*
X25525Y-9628D01*
X25413Y-10191D02*
X25385Y-10219D01*
X25357Y-10275D01*
X25357Y-10416D01*
X25385Y-10472D01*
X25413Y-10500D01*
X25469Y-10528D01*
X25525Y-10528D01*
X25610Y-10500D01*
X25947Y-10163D01*
X25947Y-10528D01*
X24766Y-11625D02*
X24766Y-11287D01*
X24766Y-11456D02*
X24176Y-11456D01*
X24260Y-11400D01*
X24316Y-11344D01*
X24344Y-11287D01*
X30278Y-13467D02*
X29687Y-13467D01*
X29687Y-13607D01*
X29715Y-13692D01*
X29772Y-13748D01*
X29828Y-13776D01*
X29940Y-13804D01*
X30025Y-13804D01*
X30137Y-13776D01*
X30194Y-13748D01*
X30250Y-13692D01*
X30278Y-13607D01*
X30278Y-13467D01*
X24991Y-13481D02*
X24991Y-13762D01*
X25160Y-13425D02*
X24569Y-13622D01*
X25160Y-13818D01*
G54D14*
X12848Y-16634D02*
X12863Y-16649D01*
X12909Y-16664D01*
X12940Y-16664D01*
X12985Y-16649D01*
X13016Y-16619D01*
X13031Y-16588D01*
X13046Y-16527D01*
X13046Y-16482D01*
X13031Y-16421D01*
X13016Y-16390D01*
X12985Y-16360D01*
X12940Y-16344D01*
X12909Y-16344D01*
X12863Y-16360D01*
X12848Y-16375D01*
X12665Y-16482D02*
X12696Y-16466D01*
X12711Y-16451D01*
X12726Y-16421D01*
X12726Y-16405D01*
X12711Y-16375D01*
X12696Y-16360D01*
X12665Y-16344D01*
X12604Y-16344D01*
X12574Y-16360D01*
X12559Y-16375D01*
X12543Y-16405D01*
X12543Y-16421D01*
X12559Y-16451D01*
X12574Y-16466D01*
X12604Y-16482D01*
X12665Y-16482D01*
X12696Y-16497D01*
X12711Y-16512D01*
X12726Y-16543D01*
X12726Y-16604D01*
X12711Y-16634D01*
X12696Y-16649D01*
X12665Y-16664D01*
X12604Y-16664D01*
X12574Y-16649D01*
X12559Y-16634D01*
X12543Y-16604D01*
X12543Y-16543D01*
X12559Y-16512D01*
X12574Y-16497D01*
X12604Y-16482D01*
%LPC*%
G54D15*
X21259Y-32874D03*
X21259Y-20275D03*
G54D16*
X13543Y-44330D03*
X11574Y-44330D03*
X15511Y-44330D03*
G54D17*
X17125Y-41074D03*
X17125Y-40224D03*
X17125Y-39106D03*
X17125Y-38256D03*
X15846Y-42291D03*
X15846Y-43141D03*
G54D18*
X19216Y-34547D03*
G54D16*
X18216Y-34547D03*
X17216Y-34547D03*
X16216Y-34547D03*
G54D19*
X23677Y-37011D03*
X24696Y-35248D03*
X26460Y-34228D03*
X28500Y-34228D03*
X30263Y-35248D03*
X31283Y-37011D03*
X29645Y-38031D03*
X25314Y-38031D03*
X23677Y-39051D03*
X24696Y-40814D03*
X26460Y-41834D03*
X28500Y-41834D03*
X30263Y-40814D03*
X31283Y-39051D03*
G54D17*
X12795Y-43141D03*
X12795Y-42291D03*
G54D16*
X18307Y-44307D03*
X17307Y-43307D03*
G54D18*
X19307Y-43307D03*
G54D16*
X21850Y-44307D03*
X20850Y-43307D03*
G54D18*
X22850Y-43307D03*
G54D16*
X25393Y-44307D03*
X24393Y-43307D03*
G54D18*
X26393Y-43307D03*
G54D16*
X11204Y-39763D03*
X12204Y-38763D03*
G54D18*
X12204Y-40763D03*
X28224Y-44192D03*
G54D16*
X29224Y-44192D03*
X30224Y-44192D03*
X31224Y-44192D03*
G54D18*
X28224Y-31594D03*
G54D16*
X29224Y-31594D03*
X30224Y-31594D03*
X31224Y-31594D03*
X11204Y-27165D03*
X12204Y-26165D03*
G54D18*
X12204Y-28165D03*
G54D16*
X25393Y-31708D03*
X24393Y-30708D03*
G54D18*
X26393Y-30708D03*
G54D16*
X21850Y-31708D03*
X20850Y-30708D03*
G54D18*
X22850Y-30708D03*
G54D16*
X18307Y-31708D03*
X17307Y-30708D03*
G54D18*
X19307Y-30708D03*
G54D17*
X12795Y-30543D03*
X12795Y-29693D03*
G54D19*
X23677Y-24413D03*
X24696Y-22649D03*
X26460Y-21629D03*
X28500Y-21629D03*
X30263Y-22649D03*
X31283Y-24413D03*
X29645Y-25433D03*
X25314Y-25433D03*
X23677Y-26452D03*
X24696Y-28216D03*
X26460Y-29236D03*
X28500Y-29236D03*
X30263Y-28216D03*
X31283Y-26452D03*
G54D18*
X19216Y-21948D03*
G54D16*
X18216Y-21948D03*
X17216Y-21948D03*
X16216Y-21948D03*
G54D17*
X15846Y-29693D03*
X15846Y-30543D03*
X17125Y-26507D03*
X17125Y-25657D03*
X17125Y-28476D03*
X17125Y-27626D03*
G54D16*
X13543Y-31732D03*
X11574Y-31732D03*
X15511Y-31732D03*
X13543Y-19133D03*
X11574Y-19133D03*
X15511Y-19133D03*
G54D17*
X17125Y-15877D03*
X17125Y-15027D03*
X17125Y-13909D03*
X17125Y-13059D03*
X15846Y-17094D03*
X15846Y-17944D03*
G54D18*
X19216Y-9350D03*
G54D16*
X18216Y-9350D03*
X17216Y-9350D03*
X16216Y-9350D03*
G54D19*
X23677Y-11814D03*
X24696Y-10051D03*
X26460Y-9031D03*
X28500Y-9031D03*
X30263Y-10051D03*
X31283Y-11814D03*
X29645Y-12834D03*
X25314Y-12834D03*
X23677Y-13854D03*
X24696Y-15618D03*
X26460Y-16637D03*
X28500Y-16637D03*
X30263Y-15618D03*
X31283Y-13854D03*
G54D17*
X12795Y-17944D03*
X12795Y-17094D03*
G54D16*
X18307Y-19110D03*
X17307Y-18110D03*
G54D18*
X19307Y-18110D03*
G54D16*
X21850Y-19110D03*
X20850Y-18110D03*
G54D18*
X22850Y-18110D03*
G54D16*
X25393Y-19110D03*
X24393Y-18110D03*
G54D18*
X26393Y-18110D03*
G54D16*
X11204Y-14566D03*
X12204Y-13566D03*
G54D18*
X12204Y-15566D03*
X28224Y-18996D03*
G54D16*
X29224Y-18996D03*
X30224Y-18996D03*
X31224Y-18996D03*
G54D20*
X14370Y-20275D03*
X14763Y-20275D03*
X15157Y-20275D03*
X15551Y-20275D03*
X15944Y-20275D03*
X26574Y-20275D03*
X26968Y-20275D03*
X27362Y-20275D03*
X27755Y-20275D03*
X28149Y-20275D03*
X14370Y-32874D03*
X14763Y-32874D03*
X15157Y-32874D03*
X15551Y-32874D03*
X15944Y-32874D03*
X26574Y-32874D03*
X26968Y-32874D03*
X27362Y-32874D03*
X27755Y-32874D03*
X28149Y-32874D03*
M02*
