G04 (created by PCBNEW (2013-07-07 BZR 4022)-stable) date 2014-08-05 10:31:38 AM*
%MOIN*%
G04 Gerber Fmt 3.4, Leading zero omitted, Abs format*
%FSLAX34Y34*%
G01*
G70*
G90*
G04 APERTURE LIST*
%ADD10C,0.00590551*%
%ADD11C,0.00984252*%
%ADD12C,0.006*%
%ADD13C,0.00787402*%
%ADD14C,0.011811*%
%ADD15C,0.005*%
%ADD16C,0.015*%
%ADD17C,0.008*%
%ADD18C,0.00625*%
%ADD19C,0.0063*%
%ADD20O,1.0252X0.0212598*%
%ADD21C,0.0802748*%
%ADD22R,0.0409748X0.0291748*%
%ADD23R,0.0565748X0.0465748*%
%ADD24R,0.0465748X0.0565748*%
%ADD25R,0.0802748X0.0802748*%
%ADD26C,0.080315*%
%ADD27R,0.0527748X0.0133748*%
%ADD28C,0.0212598*%
G04 APERTURE END LIST*
G54D10*
G54D11*
X31896Y-34153D02*
G75*
G03X31896Y-34153I-695J0D01*
G74*
G01*
X30802Y-33841D02*
X31130Y-33841D01*
X30919Y-34530D01*
X31341Y-34530D02*
X31435Y-34530D01*
X31482Y-34498D01*
X31505Y-34465D01*
X31552Y-34366D01*
X31575Y-34235D01*
X31575Y-33973D01*
X31552Y-33907D01*
X31528Y-33874D01*
X31482Y-33841D01*
X31388Y-33841D01*
X31341Y-33874D01*
X31317Y-33907D01*
X31294Y-33973D01*
X31294Y-34137D01*
X31317Y-34202D01*
X31341Y-34235D01*
X31388Y-34268D01*
X31482Y-34268D01*
X31528Y-34235D01*
X31552Y-34202D01*
X31575Y-34137D01*
G54D12*
X31025Y-43157D02*
X31010Y-43187D01*
X31010Y-43233D01*
X31025Y-43279D01*
X31056Y-43309D01*
X31086Y-43324D01*
X31147Y-43340D01*
X31193Y-43340D01*
X31254Y-43324D01*
X31284Y-43309D01*
X31315Y-43279D01*
X31330Y-43233D01*
X31330Y-43202D01*
X31315Y-43157D01*
X31299Y-43141D01*
X31193Y-43141D01*
X31193Y-43202D01*
X31330Y-43004D02*
X31010Y-43004D01*
X31330Y-42821D01*
X31010Y-42821D01*
X31330Y-42669D02*
X31010Y-42669D01*
X31010Y-42593D01*
X31025Y-42547D01*
X31056Y-42517D01*
X31086Y-42501D01*
X31147Y-42486D01*
X31193Y-42486D01*
X31254Y-42501D01*
X31284Y-42517D01*
X31315Y-42547D01*
X31330Y-42593D01*
X31330Y-42669D01*
X30322Y-43366D02*
X30322Y-43122D01*
X30124Y-42908D02*
X30124Y-42878D01*
X30139Y-42847D01*
X30154Y-42832D01*
X30185Y-42817D01*
X30246Y-42802D01*
X30322Y-42802D01*
X30383Y-42817D01*
X30414Y-42832D01*
X30429Y-42847D01*
X30444Y-42878D01*
X30444Y-42908D01*
X30429Y-42939D01*
X30414Y-42954D01*
X30383Y-42969D01*
X30322Y-42985D01*
X30246Y-42985D01*
X30185Y-42969D01*
X30154Y-42954D01*
X30139Y-42939D01*
X30124Y-42908D01*
X30414Y-42665D02*
X30429Y-42649D01*
X30444Y-42665D01*
X30429Y-42680D01*
X30414Y-42665D01*
X30444Y-42665D01*
X30124Y-42360D02*
X30124Y-42512D01*
X30276Y-42527D01*
X30261Y-42512D01*
X30246Y-42482D01*
X30246Y-42406D01*
X30261Y-42375D01*
X30276Y-42360D01*
X30307Y-42345D01*
X30383Y-42345D01*
X30414Y-42360D01*
X30429Y-42375D01*
X30444Y-42406D01*
X30444Y-42482D01*
X30429Y-42512D01*
X30414Y-42527D01*
X30124Y-42146D02*
X30124Y-42116D01*
X30139Y-42086D01*
X30154Y-42070D01*
X30185Y-42055D01*
X30246Y-42040D01*
X30322Y-42040D01*
X30383Y-42055D01*
X30414Y-42070D01*
X30429Y-42086D01*
X30444Y-42116D01*
X30444Y-42146D01*
X30429Y-42177D01*
X30414Y-42192D01*
X30383Y-42207D01*
X30322Y-42223D01*
X30246Y-42223D01*
X30185Y-42207D01*
X30154Y-42192D01*
X30139Y-42177D01*
X30124Y-42146D01*
X30124Y-41842D02*
X30124Y-41811D01*
X30139Y-41781D01*
X30154Y-41766D01*
X30185Y-41750D01*
X30246Y-41735D01*
X30322Y-41735D01*
X30383Y-41750D01*
X30414Y-41766D01*
X30429Y-41781D01*
X30444Y-41811D01*
X30444Y-41842D01*
X30429Y-41872D01*
X30414Y-41887D01*
X30383Y-41903D01*
X30322Y-41918D01*
X30246Y-41918D01*
X30185Y-41903D01*
X30154Y-41887D01*
X30139Y-41872D01*
X30124Y-41842D01*
X30124Y-41644D02*
X30444Y-41537D01*
X30124Y-41430D01*
X29338Y-43366D02*
X29338Y-43122D01*
X29460Y-43244D02*
X29216Y-43244D01*
X29140Y-42908D02*
X29140Y-42878D01*
X29155Y-42847D01*
X29170Y-42832D01*
X29201Y-42817D01*
X29262Y-42802D01*
X29338Y-42802D01*
X29399Y-42817D01*
X29429Y-42832D01*
X29444Y-42847D01*
X29460Y-42878D01*
X29460Y-42908D01*
X29444Y-42939D01*
X29429Y-42954D01*
X29399Y-42969D01*
X29338Y-42985D01*
X29262Y-42985D01*
X29201Y-42969D01*
X29170Y-42954D01*
X29155Y-42939D01*
X29140Y-42908D01*
X29429Y-42665D02*
X29444Y-42649D01*
X29460Y-42665D01*
X29444Y-42680D01*
X29429Y-42665D01*
X29460Y-42665D01*
X29140Y-42360D02*
X29140Y-42512D01*
X29292Y-42527D01*
X29277Y-42512D01*
X29262Y-42482D01*
X29262Y-42406D01*
X29277Y-42375D01*
X29292Y-42360D01*
X29323Y-42345D01*
X29399Y-42345D01*
X29429Y-42360D01*
X29444Y-42375D01*
X29460Y-42406D01*
X29460Y-42482D01*
X29444Y-42512D01*
X29429Y-42527D01*
X29140Y-42146D02*
X29140Y-42116D01*
X29155Y-42086D01*
X29170Y-42070D01*
X29201Y-42055D01*
X29262Y-42040D01*
X29338Y-42040D01*
X29399Y-42055D01*
X29429Y-42070D01*
X29444Y-42086D01*
X29460Y-42116D01*
X29460Y-42146D01*
X29444Y-42177D01*
X29429Y-42192D01*
X29399Y-42207D01*
X29338Y-42223D01*
X29262Y-42223D01*
X29201Y-42207D01*
X29170Y-42192D01*
X29155Y-42177D01*
X29140Y-42146D01*
X29140Y-41842D02*
X29140Y-41811D01*
X29155Y-41781D01*
X29170Y-41766D01*
X29201Y-41750D01*
X29262Y-41735D01*
X29338Y-41735D01*
X29399Y-41750D01*
X29429Y-41766D01*
X29444Y-41781D01*
X29460Y-41811D01*
X29460Y-41842D01*
X29444Y-41872D01*
X29429Y-41887D01*
X29399Y-41903D01*
X29338Y-41918D01*
X29262Y-41918D01*
X29201Y-41903D01*
X29170Y-41887D01*
X29155Y-41872D01*
X29140Y-41842D01*
X29140Y-41644D02*
X29460Y-41537D01*
X29140Y-41430D01*
X27665Y-43366D02*
X27665Y-43122D01*
X27787Y-43244D02*
X27543Y-43244D01*
X27467Y-42817D02*
X27467Y-42969D01*
X27619Y-42985D01*
X27604Y-42969D01*
X27588Y-42939D01*
X27588Y-42863D01*
X27604Y-42832D01*
X27619Y-42817D01*
X27649Y-42802D01*
X27726Y-42802D01*
X27756Y-42817D01*
X27771Y-42832D01*
X27787Y-42863D01*
X27787Y-42939D01*
X27771Y-42969D01*
X27756Y-42985D01*
X27756Y-42665D02*
X27771Y-42649D01*
X27787Y-42665D01*
X27771Y-42680D01*
X27756Y-42665D01*
X27787Y-42665D01*
X27467Y-42451D02*
X27467Y-42421D01*
X27482Y-42390D01*
X27497Y-42375D01*
X27527Y-42360D01*
X27588Y-42345D01*
X27665Y-42345D01*
X27726Y-42360D01*
X27756Y-42375D01*
X27771Y-42390D01*
X27787Y-42421D01*
X27787Y-42451D01*
X27771Y-42482D01*
X27756Y-42497D01*
X27726Y-42512D01*
X27665Y-42527D01*
X27588Y-42527D01*
X27527Y-42512D01*
X27497Y-42497D01*
X27482Y-42482D01*
X27467Y-42451D01*
X27467Y-42146D02*
X27467Y-42116D01*
X27482Y-42086D01*
X27497Y-42070D01*
X27527Y-42055D01*
X27588Y-42040D01*
X27665Y-42040D01*
X27726Y-42055D01*
X27756Y-42070D01*
X27771Y-42086D01*
X27787Y-42116D01*
X27787Y-42146D01*
X27771Y-42177D01*
X27756Y-42192D01*
X27726Y-42207D01*
X27665Y-42223D01*
X27588Y-42223D01*
X27527Y-42207D01*
X27497Y-42192D01*
X27482Y-42177D01*
X27467Y-42146D01*
X27467Y-41842D02*
X27467Y-41811D01*
X27482Y-41781D01*
X27497Y-41766D01*
X27527Y-41750D01*
X27588Y-41735D01*
X27665Y-41735D01*
X27726Y-41750D01*
X27756Y-41766D01*
X27771Y-41781D01*
X27787Y-41811D01*
X27787Y-41842D01*
X27771Y-41872D01*
X27756Y-41887D01*
X27726Y-41903D01*
X27665Y-41918D01*
X27588Y-41918D01*
X27527Y-41903D01*
X27497Y-41887D01*
X27482Y-41872D01*
X27467Y-41842D01*
X27467Y-41644D02*
X27787Y-41537D01*
X27467Y-41430D01*
X12506Y-40007D02*
X12506Y-39824D01*
X12826Y-39916D02*
X12506Y-39916D01*
X12613Y-39580D02*
X12826Y-39580D01*
X12491Y-39657D02*
X12719Y-39733D01*
X12719Y-39535D01*
X21508Y-42722D02*
X21691Y-42722D01*
X21599Y-43042D02*
X21599Y-42722D01*
X21767Y-42722D02*
X21965Y-42722D01*
X21858Y-42844D01*
X21904Y-42844D01*
X21934Y-42860D01*
X21950Y-42875D01*
X21965Y-42905D01*
X21965Y-42981D01*
X21950Y-43012D01*
X21934Y-43027D01*
X21904Y-43042D01*
X21812Y-43042D01*
X21782Y-43027D01*
X21767Y-43012D01*
X25051Y-42722D02*
X25234Y-42722D01*
X25142Y-43042D02*
X25142Y-42722D01*
X25325Y-42753D02*
X25340Y-42738D01*
X25371Y-42722D01*
X25447Y-42722D01*
X25478Y-42738D01*
X25493Y-42753D01*
X25508Y-42783D01*
X25508Y-42814D01*
X25493Y-42860D01*
X25310Y-43042D01*
X25508Y-43042D01*
X18260Y-42722D02*
X18442Y-42722D01*
X18351Y-43042D02*
X18351Y-42722D01*
X18717Y-43042D02*
X18534Y-43042D01*
X18625Y-43042D02*
X18625Y-42722D01*
X18595Y-42768D01*
X18564Y-42799D01*
X18534Y-42814D01*
G54D11*
X27984Y-38031D02*
G75*
G03X27984Y-38031I-504J0D01*
G74*
G01*
X13543Y-37834D02*
X13543Y-38228D01*
X13740Y-38031D02*
X13346Y-38031D01*
X14727Y-38031D02*
G75*
G03X14727Y-38031I-1184J0D01*
G74*
G01*
G54D13*
X25944Y-34783D02*
X25944Y-34940D01*
X25944Y-34783D02*
X25787Y-34783D01*
X25748Y-34980D02*
X25748Y-35216D01*
X25944Y-34783D02*
X25748Y-34980D01*
G54D14*
X25513Y-36601D02*
X25489Y-36649D01*
X25489Y-36720D01*
X25513Y-36791D01*
X25561Y-36839D01*
X25608Y-36863D01*
X25704Y-36887D01*
X25775Y-36887D01*
X25870Y-36863D01*
X25918Y-36839D01*
X25965Y-36791D01*
X25989Y-36720D01*
X25989Y-36672D01*
X25965Y-36601D01*
X25942Y-36577D01*
X25775Y-36577D01*
X25775Y-36672D01*
X25989Y-36363D02*
X25489Y-36363D01*
X25989Y-36077D01*
X25489Y-36077D01*
X25989Y-35839D02*
X25489Y-35839D01*
X25489Y-35720D01*
X25513Y-35649D01*
X25561Y-35601D01*
X25608Y-35577D01*
X25704Y-35553D01*
X25775Y-35553D01*
X25870Y-35577D01*
X25918Y-35601D01*
X25965Y-35649D01*
X25989Y-35720D01*
X25989Y-35839D01*
X18321Y-41111D02*
X18438Y-41439D01*
X18555Y-41111D01*
X18953Y-41111D02*
X18953Y-41439D01*
X18836Y-40923D02*
X18719Y-41275D01*
X19024Y-41275D01*
X19211Y-41392D02*
X19235Y-41415D01*
X19211Y-41439D01*
X19188Y-41415D01*
X19211Y-41392D01*
X19211Y-41439D01*
X19539Y-40947D02*
X19586Y-40947D01*
X19633Y-40970D01*
X19656Y-40994D01*
X19680Y-41040D01*
X19703Y-41134D01*
X19703Y-41251D01*
X19680Y-41345D01*
X19656Y-41392D01*
X19633Y-41415D01*
X19586Y-41439D01*
X19539Y-41439D01*
X19492Y-41415D01*
X19469Y-41392D01*
X19446Y-41345D01*
X19422Y-41251D01*
X19422Y-41134D01*
X19446Y-41040D01*
X19469Y-40994D01*
X19492Y-40970D01*
X19539Y-40947D01*
X20359Y-41158D02*
X20313Y-41134D01*
X20289Y-41111D01*
X20266Y-41064D01*
X20266Y-41040D01*
X20289Y-40994D01*
X20313Y-40970D01*
X20359Y-40947D01*
X20453Y-40947D01*
X20500Y-40970D01*
X20523Y-40994D01*
X20547Y-41040D01*
X20547Y-41064D01*
X20523Y-41111D01*
X20500Y-41134D01*
X20453Y-41158D01*
X20359Y-41158D01*
X20313Y-41181D01*
X20289Y-41205D01*
X20266Y-41251D01*
X20266Y-41345D01*
X20289Y-41392D01*
X20313Y-41415D01*
X20359Y-41439D01*
X20453Y-41439D01*
X20500Y-41415D01*
X20523Y-41392D01*
X20547Y-41345D01*
X20547Y-41251D01*
X20523Y-41205D01*
X20500Y-41181D01*
X20453Y-41158D01*
X21109Y-40994D02*
X21133Y-40970D01*
X21180Y-40947D01*
X21297Y-40947D01*
X21344Y-40970D01*
X21367Y-40994D01*
X21391Y-41040D01*
X21391Y-41087D01*
X21367Y-41158D01*
X21086Y-41439D01*
X21391Y-41439D01*
X21695Y-40947D02*
X21742Y-40947D01*
X21789Y-40970D01*
X21812Y-40994D01*
X21836Y-41040D01*
X21859Y-41134D01*
X21859Y-41251D01*
X21836Y-41345D01*
X21812Y-41392D01*
X21789Y-41415D01*
X21742Y-41439D01*
X21695Y-41439D01*
X21648Y-41415D01*
X21625Y-41392D01*
X21601Y-41345D01*
X21578Y-41251D01*
X21578Y-41134D01*
X21601Y-41040D01*
X21625Y-40994D01*
X21648Y-40970D01*
X21695Y-40947D01*
X22328Y-41439D02*
X22047Y-41439D01*
X22187Y-41439D02*
X22187Y-40947D01*
X22140Y-41017D01*
X22094Y-41064D01*
X22047Y-41087D01*
X22750Y-41111D02*
X22750Y-41439D01*
X22633Y-40923D02*
X22515Y-41275D01*
X22820Y-41275D01*
X28852Y-41015D02*
X28880Y-40958D01*
X28880Y-40846D01*
X28852Y-40790D01*
X28796Y-40762D01*
X28768Y-40762D01*
X28712Y-40790D01*
X28683Y-40846D01*
X28683Y-40930D01*
X28655Y-40987D01*
X28599Y-41015D01*
X28571Y-41015D01*
X28515Y-40987D01*
X28487Y-40930D01*
X28487Y-40846D01*
X28515Y-40790D01*
X28487Y-40565D02*
X28880Y-40424D01*
X28487Y-40284D02*
X28880Y-40424D01*
X29021Y-40480D01*
X29049Y-40508D01*
X29077Y-40565D01*
X28852Y-40087D02*
X28880Y-40030D01*
X28880Y-39918D01*
X28852Y-39862D01*
X28796Y-39834D01*
X28768Y-39834D01*
X28712Y-39862D01*
X28683Y-39918D01*
X28683Y-40002D01*
X28655Y-40059D01*
X28599Y-40087D01*
X28571Y-40087D01*
X28515Y-40059D01*
X28487Y-40002D01*
X28487Y-39918D01*
X28515Y-39862D01*
X28487Y-39665D02*
X28487Y-39440D01*
X28290Y-39580D02*
X28796Y-39580D01*
X28852Y-39552D01*
X28880Y-39496D01*
X28880Y-39440D01*
X28852Y-39018D02*
X28880Y-39074D01*
X28880Y-39187D01*
X28852Y-39243D01*
X28796Y-39271D01*
X28571Y-39271D01*
X28515Y-39243D01*
X28487Y-39187D01*
X28487Y-39074D01*
X28515Y-39018D01*
X28571Y-38990D01*
X28627Y-38990D01*
X28683Y-39271D01*
X28880Y-38737D02*
X28487Y-38737D01*
X28543Y-38737D02*
X28515Y-38709D01*
X28487Y-38652D01*
X28487Y-38568D01*
X28515Y-38512D01*
X28571Y-38484D01*
X28880Y-38484D01*
X28571Y-38484D02*
X28515Y-38456D01*
X28487Y-38399D01*
X28487Y-38315D01*
X28515Y-38259D01*
X28571Y-38231D01*
X28880Y-38231D01*
X28290Y-38006D02*
X28290Y-37612D01*
X28880Y-37865D01*
X28880Y-37359D02*
X28880Y-37246D01*
X28852Y-37190D01*
X28824Y-37162D01*
X28740Y-37106D01*
X28627Y-37078D01*
X28402Y-37078D01*
X28346Y-37106D01*
X28318Y-37134D01*
X28290Y-37190D01*
X28290Y-37303D01*
X28318Y-37359D01*
X28346Y-37387D01*
X28402Y-37415D01*
X28543Y-37415D01*
X28599Y-37387D01*
X28627Y-37359D01*
X28655Y-37303D01*
X28655Y-37190D01*
X28627Y-37134D01*
X28599Y-37106D01*
X28543Y-37078D01*
X28824Y-36825D02*
X28852Y-36796D01*
X28880Y-36825D01*
X28852Y-36853D01*
X28824Y-36825D01*
X28880Y-36825D01*
X28852Y-36290D02*
X28880Y-36347D01*
X28880Y-36459D01*
X28852Y-36515D01*
X28824Y-36543D01*
X28768Y-36571D01*
X28599Y-36571D01*
X28543Y-36543D01*
X28515Y-36515D01*
X28487Y-36459D01*
X28487Y-36347D01*
X28515Y-36290D01*
X28880Y-35953D02*
X28852Y-36009D01*
X28824Y-36037D01*
X28768Y-36065D01*
X28599Y-36065D01*
X28543Y-36037D01*
X28515Y-36009D01*
X28487Y-35953D01*
X28487Y-35868D01*
X28515Y-35812D01*
X28543Y-35784D01*
X28599Y-35756D01*
X28768Y-35756D01*
X28824Y-35784D01*
X28852Y-35812D01*
X28880Y-35868D01*
X28880Y-35953D01*
X28880Y-35503D02*
X28487Y-35503D01*
X28543Y-35503D02*
X28515Y-35475D01*
X28487Y-35419D01*
X28487Y-35334D01*
X28515Y-35278D01*
X28571Y-35250D01*
X28880Y-35250D01*
X28571Y-35250D02*
X28515Y-35222D01*
X28487Y-35165D01*
X28487Y-35081D01*
X28515Y-35025D01*
X28571Y-34997D01*
X28880Y-34997D01*
X28852Y-28416D02*
X28880Y-28360D01*
X28880Y-28248D01*
X28852Y-28191D01*
X28796Y-28163D01*
X28768Y-28163D01*
X28712Y-28191D01*
X28683Y-28248D01*
X28683Y-28332D01*
X28655Y-28388D01*
X28599Y-28416D01*
X28571Y-28416D01*
X28515Y-28388D01*
X28487Y-28332D01*
X28487Y-28248D01*
X28515Y-28191D01*
X28487Y-27966D02*
X28880Y-27826D01*
X28487Y-27685D02*
X28880Y-27826D01*
X29021Y-27882D01*
X29049Y-27910D01*
X29077Y-27966D01*
X28852Y-27488D02*
X28880Y-27432D01*
X28880Y-27320D01*
X28852Y-27263D01*
X28796Y-27235D01*
X28768Y-27235D01*
X28712Y-27263D01*
X28683Y-27320D01*
X28683Y-27404D01*
X28655Y-27460D01*
X28599Y-27488D01*
X28571Y-27488D01*
X28515Y-27460D01*
X28487Y-27404D01*
X28487Y-27320D01*
X28515Y-27263D01*
X28487Y-27066D02*
X28487Y-26841D01*
X28290Y-26982D02*
X28796Y-26982D01*
X28852Y-26954D01*
X28880Y-26898D01*
X28880Y-26841D01*
X28852Y-26420D02*
X28880Y-26476D01*
X28880Y-26588D01*
X28852Y-26645D01*
X28796Y-26673D01*
X28571Y-26673D01*
X28515Y-26645D01*
X28487Y-26588D01*
X28487Y-26476D01*
X28515Y-26420D01*
X28571Y-26392D01*
X28627Y-26392D01*
X28683Y-26673D01*
X28880Y-26138D02*
X28487Y-26138D01*
X28543Y-26138D02*
X28515Y-26110D01*
X28487Y-26054D01*
X28487Y-25970D01*
X28515Y-25913D01*
X28571Y-25885D01*
X28880Y-25885D01*
X28571Y-25885D02*
X28515Y-25857D01*
X28487Y-25801D01*
X28487Y-25717D01*
X28515Y-25660D01*
X28571Y-25632D01*
X28880Y-25632D01*
X28290Y-25407D02*
X28290Y-25014D01*
X28880Y-25267D01*
X28880Y-24760D02*
X28880Y-24648D01*
X28852Y-24592D01*
X28824Y-24564D01*
X28740Y-24507D01*
X28627Y-24479D01*
X28402Y-24479D01*
X28346Y-24507D01*
X28318Y-24535D01*
X28290Y-24592D01*
X28290Y-24704D01*
X28318Y-24760D01*
X28346Y-24789D01*
X28402Y-24817D01*
X28543Y-24817D01*
X28599Y-24789D01*
X28627Y-24760D01*
X28655Y-24704D01*
X28655Y-24592D01*
X28627Y-24535D01*
X28599Y-24507D01*
X28543Y-24479D01*
X28824Y-24226D02*
X28852Y-24198D01*
X28880Y-24226D01*
X28852Y-24254D01*
X28824Y-24226D01*
X28880Y-24226D01*
X28852Y-23692D02*
X28880Y-23748D01*
X28880Y-23861D01*
X28852Y-23917D01*
X28824Y-23945D01*
X28768Y-23973D01*
X28599Y-23973D01*
X28543Y-23945D01*
X28515Y-23917D01*
X28487Y-23861D01*
X28487Y-23748D01*
X28515Y-23692D01*
X28880Y-23354D02*
X28852Y-23411D01*
X28824Y-23439D01*
X28768Y-23467D01*
X28599Y-23467D01*
X28543Y-23439D01*
X28515Y-23411D01*
X28487Y-23354D01*
X28487Y-23270D01*
X28515Y-23214D01*
X28543Y-23186D01*
X28599Y-23158D01*
X28768Y-23158D01*
X28824Y-23186D01*
X28852Y-23214D01*
X28880Y-23270D01*
X28880Y-23354D01*
X28880Y-22904D02*
X28487Y-22904D01*
X28543Y-22904D02*
X28515Y-22876D01*
X28487Y-22820D01*
X28487Y-22736D01*
X28515Y-22679D01*
X28571Y-22651D01*
X28880Y-22651D01*
X28571Y-22651D02*
X28515Y-22623D01*
X28487Y-22567D01*
X28487Y-22483D01*
X28515Y-22426D01*
X28571Y-22398D01*
X28880Y-22398D01*
X18321Y-28512D02*
X18438Y-28840D01*
X18555Y-28512D01*
X18953Y-28512D02*
X18953Y-28840D01*
X18836Y-28325D02*
X18719Y-28676D01*
X19024Y-28676D01*
X19211Y-28794D02*
X19235Y-28817D01*
X19211Y-28840D01*
X19188Y-28817D01*
X19211Y-28794D01*
X19211Y-28840D01*
X19539Y-28348D02*
X19586Y-28348D01*
X19633Y-28372D01*
X19656Y-28395D01*
X19680Y-28442D01*
X19703Y-28536D01*
X19703Y-28653D01*
X19680Y-28747D01*
X19656Y-28794D01*
X19633Y-28817D01*
X19586Y-28840D01*
X19539Y-28840D01*
X19492Y-28817D01*
X19469Y-28794D01*
X19446Y-28747D01*
X19422Y-28653D01*
X19422Y-28536D01*
X19446Y-28442D01*
X19469Y-28395D01*
X19492Y-28372D01*
X19539Y-28348D01*
X20359Y-28559D02*
X20313Y-28536D01*
X20289Y-28512D01*
X20266Y-28465D01*
X20266Y-28442D01*
X20289Y-28395D01*
X20313Y-28372D01*
X20359Y-28348D01*
X20453Y-28348D01*
X20500Y-28372D01*
X20523Y-28395D01*
X20547Y-28442D01*
X20547Y-28465D01*
X20523Y-28512D01*
X20500Y-28536D01*
X20453Y-28559D01*
X20359Y-28559D01*
X20313Y-28583D01*
X20289Y-28606D01*
X20266Y-28653D01*
X20266Y-28747D01*
X20289Y-28794D01*
X20313Y-28817D01*
X20359Y-28840D01*
X20453Y-28840D01*
X20500Y-28817D01*
X20523Y-28794D01*
X20547Y-28747D01*
X20547Y-28653D01*
X20523Y-28606D01*
X20500Y-28583D01*
X20453Y-28559D01*
X21109Y-28395D02*
X21133Y-28372D01*
X21180Y-28348D01*
X21297Y-28348D01*
X21344Y-28372D01*
X21367Y-28395D01*
X21391Y-28442D01*
X21391Y-28489D01*
X21367Y-28559D01*
X21086Y-28840D01*
X21391Y-28840D01*
X21695Y-28348D02*
X21742Y-28348D01*
X21789Y-28372D01*
X21812Y-28395D01*
X21836Y-28442D01*
X21859Y-28536D01*
X21859Y-28653D01*
X21836Y-28747D01*
X21812Y-28794D01*
X21789Y-28817D01*
X21742Y-28840D01*
X21695Y-28840D01*
X21648Y-28817D01*
X21625Y-28794D01*
X21601Y-28747D01*
X21578Y-28653D01*
X21578Y-28536D01*
X21601Y-28442D01*
X21625Y-28395D01*
X21648Y-28372D01*
X21695Y-28348D01*
X22328Y-28840D02*
X22047Y-28840D01*
X22187Y-28840D02*
X22187Y-28348D01*
X22140Y-28419D01*
X22094Y-28465D01*
X22047Y-28489D01*
X22750Y-28512D02*
X22750Y-28840D01*
X22633Y-28325D02*
X22515Y-28676D01*
X22820Y-28676D01*
X25513Y-24002D02*
X25489Y-24050D01*
X25489Y-24122D01*
X25513Y-24193D01*
X25561Y-24241D01*
X25608Y-24264D01*
X25704Y-24288D01*
X25775Y-24288D01*
X25870Y-24264D01*
X25918Y-24241D01*
X25965Y-24193D01*
X25989Y-24122D01*
X25989Y-24074D01*
X25965Y-24002D01*
X25942Y-23979D01*
X25775Y-23979D01*
X25775Y-24074D01*
X25989Y-23764D02*
X25489Y-23764D01*
X25989Y-23479D01*
X25489Y-23479D01*
X25989Y-23241D02*
X25489Y-23241D01*
X25489Y-23122D01*
X25513Y-23050D01*
X25561Y-23002D01*
X25608Y-22979D01*
X25704Y-22955D01*
X25775Y-22955D01*
X25870Y-22979D01*
X25918Y-23002D01*
X25965Y-23050D01*
X25989Y-23122D01*
X25989Y-23241D01*
G54D13*
X25944Y-22185D02*
X25748Y-22381D01*
X25748Y-22381D02*
X25748Y-22618D01*
X25944Y-22185D02*
X25787Y-22185D01*
X25944Y-22185D02*
X25944Y-22342D01*
G54D11*
X14727Y-25433D02*
G75*
G03X14727Y-25433I-1184J0D01*
G74*
G01*
X13740Y-25433D02*
X13346Y-25433D01*
X13543Y-25236D02*
X13543Y-25629D01*
X27984Y-25433D02*
G75*
G03X27984Y-25433I-504J0D01*
G74*
G01*
G54D12*
X18260Y-30124D02*
X18442Y-30124D01*
X18351Y-30444D02*
X18351Y-30124D01*
X18717Y-30444D02*
X18534Y-30444D01*
X18625Y-30444D02*
X18625Y-30124D01*
X18595Y-30170D01*
X18564Y-30200D01*
X18534Y-30215D01*
X25051Y-30124D02*
X25234Y-30124D01*
X25142Y-30444D02*
X25142Y-30124D01*
X25325Y-30154D02*
X25340Y-30139D01*
X25371Y-30124D01*
X25447Y-30124D01*
X25478Y-30139D01*
X25493Y-30154D01*
X25508Y-30185D01*
X25508Y-30215D01*
X25493Y-30261D01*
X25310Y-30444D01*
X25508Y-30444D01*
X21508Y-30124D02*
X21691Y-30124D01*
X21599Y-30444D02*
X21599Y-30124D01*
X21767Y-30124D02*
X21965Y-30124D01*
X21858Y-30246D01*
X21904Y-30246D01*
X21934Y-30261D01*
X21950Y-30276D01*
X21965Y-30307D01*
X21965Y-30383D01*
X21950Y-30414D01*
X21934Y-30429D01*
X21904Y-30444D01*
X21812Y-30444D01*
X21782Y-30429D01*
X21767Y-30414D01*
X12506Y-27409D02*
X12506Y-27226D01*
X12826Y-27317D02*
X12506Y-27317D01*
X12613Y-26982D02*
X12826Y-26982D01*
X12491Y-27058D02*
X12719Y-27134D01*
X12719Y-26936D01*
X27665Y-30767D02*
X27665Y-30523D01*
X27787Y-30645D02*
X27543Y-30645D01*
X27467Y-30219D02*
X27467Y-30371D01*
X27619Y-30386D01*
X27604Y-30371D01*
X27588Y-30340D01*
X27588Y-30264D01*
X27604Y-30234D01*
X27619Y-30219D01*
X27649Y-30203D01*
X27726Y-30203D01*
X27756Y-30219D01*
X27771Y-30234D01*
X27787Y-30264D01*
X27787Y-30340D01*
X27771Y-30371D01*
X27756Y-30386D01*
X27756Y-30066D02*
X27771Y-30051D01*
X27787Y-30066D01*
X27771Y-30081D01*
X27756Y-30066D01*
X27787Y-30066D01*
X27467Y-29853D02*
X27467Y-29822D01*
X27482Y-29792D01*
X27497Y-29777D01*
X27527Y-29761D01*
X27588Y-29746D01*
X27665Y-29746D01*
X27726Y-29761D01*
X27756Y-29777D01*
X27771Y-29792D01*
X27787Y-29822D01*
X27787Y-29853D01*
X27771Y-29883D01*
X27756Y-29899D01*
X27726Y-29914D01*
X27665Y-29929D01*
X27588Y-29929D01*
X27527Y-29914D01*
X27497Y-29899D01*
X27482Y-29883D01*
X27467Y-29853D01*
X27467Y-29548D02*
X27467Y-29518D01*
X27482Y-29487D01*
X27497Y-29472D01*
X27527Y-29457D01*
X27588Y-29441D01*
X27665Y-29441D01*
X27726Y-29457D01*
X27756Y-29472D01*
X27771Y-29487D01*
X27787Y-29518D01*
X27787Y-29548D01*
X27771Y-29579D01*
X27756Y-29594D01*
X27726Y-29609D01*
X27665Y-29624D01*
X27588Y-29624D01*
X27527Y-29609D01*
X27497Y-29594D01*
X27482Y-29579D01*
X27467Y-29548D01*
X27467Y-29243D02*
X27467Y-29213D01*
X27482Y-29182D01*
X27497Y-29167D01*
X27527Y-29152D01*
X27588Y-29137D01*
X27665Y-29137D01*
X27726Y-29152D01*
X27756Y-29167D01*
X27771Y-29182D01*
X27787Y-29213D01*
X27787Y-29243D01*
X27771Y-29274D01*
X27756Y-29289D01*
X27726Y-29304D01*
X27665Y-29319D01*
X27588Y-29319D01*
X27527Y-29304D01*
X27497Y-29289D01*
X27482Y-29274D01*
X27467Y-29243D01*
X27467Y-29045D02*
X27787Y-28939D01*
X27467Y-28832D01*
X29338Y-30767D02*
X29338Y-30523D01*
X29460Y-30645D02*
X29216Y-30645D01*
X29140Y-30310D02*
X29140Y-30279D01*
X29155Y-30249D01*
X29170Y-30234D01*
X29201Y-30219D01*
X29262Y-30203D01*
X29338Y-30203D01*
X29399Y-30219D01*
X29429Y-30234D01*
X29444Y-30249D01*
X29460Y-30279D01*
X29460Y-30310D01*
X29444Y-30340D01*
X29429Y-30356D01*
X29399Y-30371D01*
X29338Y-30386D01*
X29262Y-30386D01*
X29201Y-30371D01*
X29170Y-30356D01*
X29155Y-30340D01*
X29140Y-30310D01*
X29429Y-30066D02*
X29444Y-30051D01*
X29460Y-30066D01*
X29444Y-30081D01*
X29429Y-30066D01*
X29460Y-30066D01*
X29140Y-29761D02*
X29140Y-29914D01*
X29292Y-29929D01*
X29277Y-29914D01*
X29262Y-29883D01*
X29262Y-29807D01*
X29277Y-29777D01*
X29292Y-29761D01*
X29323Y-29746D01*
X29399Y-29746D01*
X29429Y-29761D01*
X29444Y-29777D01*
X29460Y-29807D01*
X29460Y-29883D01*
X29444Y-29914D01*
X29429Y-29929D01*
X29140Y-29548D02*
X29140Y-29518D01*
X29155Y-29487D01*
X29170Y-29472D01*
X29201Y-29457D01*
X29262Y-29441D01*
X29338Y-29441D01*
X29399Y-29457D01*
X29429Y-29472D01*
X29444Y-29487D01*
X29460Y-29518D01*
X29460Y-29548D01*
X29444Y-29579D01*
X29429Y-29594D01*
X29399Y-29609D01*
X29338Y-29624D01*
X29262Y-29624D01*
X29201Y-29609D01*
X29170Y-29594D01*
X29155Y-29579D01*
X29140Y-29548D01*
X29140Y-29243D02*
X29140Y-29213D01*
X29155Y-29182D01*
X29170Y-29167D01*
X29201Y-29152D01*
X29262Y-29137D01*
X29338Y-29137D01*
X29399Y-29152D01*
X29429Y-29167D01*
X29444Y-29182D01*
X29460Y-29213D01*
X29460Y-29243D01*
X29444Y-29274D01*
X29429Y-29289D01*
X29399Y-29304D01*
X29338Y-29319D01*
X29262Y-29319D01*
X29201Y-29304D01*
X29170Y-29289D01*
X29155Y-29274D01*
X29140Y-29243D01*
X29140Y-29045D02*
X29460Y-28939D01*
X29140Y-28832D01*
X30322Y-30767D02*
X30322Y-30523D01*
X30124Y-30310D02*
X30124Y-30279D01*
X30139Y-30249D01*
X30154Y-30234D01*
X30185Y-30219D01*
X30246Y-30203D01*
X30322Y-30203D01*
X30383Y-30219D01*
X30414Y-30234D01*
X30429Y-30249D01*
X30444Y-30279D01*
X30444Y-30310D01*
X30429Y-30340D01*
X30414Y-30356D01*
X30383Y-30371D01*
X30322Y-30386D01*
X30246Y-30386D01*
X30185Y-30371D01*
X30154Y-30356D01*
X30139Y-30340D01*
X30124Y-30310D01*
X30414Y-30066D02*
X30429Y-30051D01*
X30444Y-30066D01*
X30429Y-30081D01*
X30414Y-30066D01*
X30444Y-30066D01*
X30124Y-29761D02*
X30124Y-29914D01*
X30276Y-29929D01*
X30261Y-29914D01*
X30246Y-29883D01*
X30246Y-29807D01*
X30261Y-29777D01*
X30276Y-29761D01*
X30307Y-29746D01*
X30383Y-29746D01*
X30414Y-29761D01*
X30429Y-29777D01*
X30444Y-29807D01*
X30444Y-29883D01*
X30429Y-29914D01*
X30414Y-29929D01*
X30124Y-29548D02*
X30124Y-29518D01*
X30139Y-29487D01*
X30154Y-29472D01*
X30185Y-29457D01*
X30246Y-29441D01*
X30322Y-29441D01*
X30383Y-29457D01*
X30414Y-29472D01*
X30429Y-29487D01*
X30444Y-29518D01*
X30444Y-29548D01*
X30429Y-29579D01*
X30414Y-29594D01*
X30383Y-29609D01*
X30322Y-29624D01*
X30246Y-29624D01*
X30185Y-29609D01*
X30154Y-29594D01*
X30139Y-29579D01*
X30124Y-29548D01*
X30124Y-29243D02*
X30124Y-29213D01*
X30139Y-29182D01*
X30154Y-29167D01*
X30185Y-29152D01*
X30246Y-29137D01*
X30322Y-29137D01*
X30383Y-29152D01*
X30414Y-29167D01*
X30429Y-29182D01*
X30444Y-29213D01*
X30444Y-29243D01*
X30429Y-29274D01*
X30414Y-29289D01*
X30383Y-29304D01*
X30322Y-29319D01*
X30246Y-29319D01*
X30185Y-29304D01*
X30154Y-29289D01*
X30139Y-29274D01*
X30124Y-29243D01*
X30124Y-29045D02*
X30444Y-28939D01*
X30124Y-28832D01*
X31025Y-30558D02*
X31010Y-30589D01*
X31010Y-30634D01*
X31025Y-30680D01*
X31056Y-30711D01*
X31086Y-30726D01*
X31147Y-30741D01*
X31193Y-30741D01*
X31254Y-30726D01*
X31284Y-30711D01*
X31315Y-30680D01*
X31330Y-30634D01*
X31330Y-30604D01*
X31315Y-30558D01*
X31299Y-30543D01*
X31193Y-30543D01*
X31193Y-30604D01*
X31330Y-30406D02*
X31010Y-30406D01*
X31330Y-30223D01*
X31010Y-30223D01*
X31330Y-30071D02*
X31010Y-30071D01*
X31010Y-29994D01*
X31025Y-29949D01*
X31056Y-29918D01*
X31086Y-29903D01*
X31147Y-29888D01*
X31193Y-29888D01*
X31254Y-29903D01*
X31284Y-29918D01*
X31315Y-29949D01*
X31330Y-29994D01*
X31330Y-30071D01*
G54D11*
X30802Y-21243D02*
X31130Y-21243D01*
X30919Y-21932D01*
X31341Y-21932D02*
X31435Y-21932D01*
X31482Y-21899D01*
X31505Y-21866D01*
X31552Y-21768D01*
X31575Y-21637D01*
X31575Y-21374D01*
X31552Y-21309D01*
X31528Y-21276D01*
X31482Y-21243D01*
X31388Y-21243D01*
X31341Y-21276D01*
X31317Y-21309D01*
X31294Y-21374D01*
X31294Y-21538D01*
X31317Y-21604D01*
X31341Y-21637D01*
X31388Y-21669D01*
X31482Y-21669D01*
X31528Y-21637D01*
X31552Y-21604D01*
X31575Y-21538D01*
X31896Y-21555D02*
G75*
G03X31896Y-21555I-695J0D01*
G74*
G01*
X31896Y-8956D02*
G75*
G03X31896Y-8956I-695J0D01*
G74*
G01*
X30802Y-8645D02*
X31130Y-8645D01*
X30919Y-9333D01*
X31341Y-9333D02*
X31435Y-9333D01*
X31482Y-9301D01*
X31505Y-9268D01*
X31552Y-9169D01*
X31575Y-9038D01*
X31575Y-8776D01*
X31552Y-8710D01*
X31528Y-8677D01*
X31482Y-8645D01*
X31388Y-8645D01*
X31341Y-8677D01*
X31317Y-8710D01*
X31294Y-8776D01*
X31294Y-8940D01*
X31317Y-9005D01*
X31341Y-9038D01*
X31388Y-9071D01*
X31482Y-9071D01*
X31528Y-9038D01*
X31552Y-9005D01*
X31575Y-8940D01*
G54D12*
X31025Y-17960D02*
X31010Y-17990D01*
X31010Y-18036D01*
X31025Y-18082D01*
X31056Y-18112D01*
X31086Y-18127D01*
X31147Y-18143D01*
X31193Y-18143D01*
X31254Y-18127D01*
X31284Y-18112D01*
X31315Y-18082D01*
X31330Y-18036D01*
X31330Y-18006D01*
X31315Y-17960D01*
X31299Y-17945D01*
X31193Y-17945D01*
X31193Y-18006D01*
X31330Y-17807D02*
X31010Y-17807D01*
X31330Y-17625D01*
X31010Y-17625D01*
X31330Y-17472D02*
X31010Y-17472D01*
X31010Y-17396D01*
X31025Y-17350D01*
X31056Y-17320D01*
X31086Y-17305D01*
X31147Y-17289D01*
X31193Y-17289D01*
X31254Y-17305D01*
X31284Y-17320D01*
X31315Y-17350D01*
X31330Y-17396D01*
X31330Y-17472D01*
X30322Y-18169D02*
X30322Y-17925D01*
X30124Y-17712D02*
X30124Y-17681D01*
X30139Y-17651D01*
X30154Y-17635D01*
X30185Y-17620D01*
X30246Y-17605D01*
X30322Y-17605D01*
X30383Y-17620D01*
X30414Y-17635D01*
X30429Y-17651D01*
X30444Y-17681D01*
X30444Y-17712D01*
X30429Y-17742D01*
X30414Y-17757D01*
X30383Y-17772D01*
X30322Y-17788D01*
X30246Y-17788D01*
X30185Y-17772D01*
X30154Y-17757D01*
X30139Y-17742D01*
X30124Y-17712D01*
X30414Y-17468D02*
X30429Y-17452D01*
X30444Y-17468D01*
X30429Y-17483D01*
X30414Y-17468D01*
X30444Y-17468D01*
X30124Y-17163D02*
X30124Y-17315D01*
X30276Y-17331D01*
X30261Y-17315D01*
X30246Y-17285D01*
X30246Y-17209D01*
X30261Y-17178D01*
X30276Y-17163D01*
X30307Y-17148D01*
X30383Y-17148D01*
X30414Y-17163D01*
X30429Y-17178D01*
X30444Y-17209D01*
X30444Y-17285D01*
X30429Y-17315D01*
X30414Y-17331D01*
X30124Y-16950D02*
X30124Y-16919D01*
X30139Y-16889D01*
X30154Y-16873D01*
X30185Y-16858D01*
X30246Y-16843D01*
X30322Y-16843D01*
X30383Y-16858D01*
X30414Y-16873D01*
X30429Y-16889D01*
X30444Y-16919D01*
X30444Y-16950D01*
X30429Y-16980D01*
X30414Y-16995D01*
X30383Y-17011D01*
X30322Y-17026D01*
X30246Y-17026D01*
X30185Y-17011D01*
X30154Y-16995D01*
X30139Y-16980D01*
X30124Y-16950D01*
X30124Y-16645D02*
X30124Y-16614D01*
X30139Y-16584D01*
X30154Y-16569D01*
X30185Y-16553D01*
X30246Y-16538D01*
X30322Y-16538D01*
X30383Y-16553D01*
X30414Y-16569D01*
X30429Y-16584D01*
X30444Y-16614D01*
X30444Y-16645D01*
X30429Y-16675D01*
X30414Y-16691D01*
X30383Y-16706D01*
X30322Y-16721D01*
X30246Y-16721D01*
X30185Y-16706D01*
X30154Y-16691D01*
X30139Y-16675D01*
X30124Y-16645D01*
X30124Y-16447D02*
X30444Y-16340D01*
X30124Y-16233D01*
X29338Y-18169D02*
X29338Y-17925D01*
X29460Y-18047D02*
X29216Y-18047D01*
X29140Y-17712D02*
X29140Y-17681D01*
X29155Y-17651D01*
X29170Y-17635D01*
X29201Y-17620D01*
X29262Y-17605D01*
X29338Y-17605D01*
X29399Y-17620D01*
X29429Y-17635D01*
X29444Y-17651D01*
X29460Y-17681D01*
X29460Y-17712D01*
X29444Y-17742D01*
X29429Y-17757D01*
X29399Y-17772D01*
X29338Y-17788D01*
X29262Y-17788D01*
X29201Y-17772D01*
X29170Y-17757D01*
X29155Y-17742D01*
X29140Y-17712D01*
X29429Y-17468D02*
X29444Y-17452D01*
X29460Y-17468D01*
X29444Y-17483D01*
X29429Y-17468D01*
X29460Y-17468D01*
X29140Y-17163D02*
X29140Y-17315D01*
X29292Y-17331D01*
X29277Y-17315D01*
X29262Y-17285D01*
X29262Y-17209D01*
X29277Y-17178D01*
X29292Y-17163D01*
X29323Y-17148D01*
X29399Y-17148D01*
X29429Y-17163D01*
X29444Y-17178D01*
X29460Y-17209D01*
X29460Y-17285D01*
X29444Y-17315D01*
X29429Y-17331D01*
X29140Y-16950D02*
X29140Y-16919D01*
X29155Y-16889D01*
X29170Y-16873D01*
X29201Y-16858D01*
X29262Y-16843D01*
X29338Y-16843D01*
X29399Y-16858D01*
X29429Y-16873D01*
X29444Y-16889D01*
X29460Y-16919D01*
X29460Y-16950D01*
X29444Y-16980D01*
X29429Y-16995D01*
X29399Y-17011D01*
X29338Y-17026D01*
X29262Y-17026D01*
X29201Y-17011D01*
X29170Y-16995D01*
X29155Y-16980D01*
X29140Y-16950D01*
X29140Y-16645D02*
X29140Y-16614D01*
X29155Y-16584D01*
X29170Y-16569D01*
X29201Y-16553D01*
X29262Y-16538D01*
X29338Y-16538D01*
X29399Y-16553D01*
X29429Y-16569D01*
X29444Y-16584D01*
X29460Y-16614D01*
X29460Y-16645D01*
X29444Y-16675D01*
X29429Y-16691D01*
X29399Y-16706D01*
X29338Y-16721D01*
X29262Y-16721D01*
X29201Y-16706D01*
X29170Y-16691D01*
X29155Y-16675D01*
X29140Y-16645D01*
X29140Y-16447D02*
X29460Y-16340D01*
X29140Y-16233D01*
X27665Y-18169D02*
X27665Y-17925D01*
X27787Y-18047D02*
X27543Y-18047D01*
X27467Y-17620D02*
X27467Y-17772D01*
X27619Y-17788D01*
X27604Y-17772D01*
X27588Y-17742D01*
X27588Y-17666D01*
X27604Y-17635D01*
X27619Y-17620D01*
X27649Y-17605D01*
X27726Y-17605D01*
X27756Y-17620D01*
X27771Y-17635D01*
X27787Y-17666D01*
X27787Y-17742D01*
X27771Y-17772D01*
X27756Y-17788D01*
X27756Y-17468D02*
X27771Y-17452D01*
X27787Y-17468D01*
X27771Y-17483D01*
X27756Y-17468D01*
X27787Y-17468D01*
X27467Y-17254D02*
X27467Y-17224D01*
X27482Y-17193D01*
X27497Y-17178D01*
X27527Y-17163D01*
X27588Y-17148D01*
X27665Y-17148D01*
X27726Y-17163D01*
X27756Y-17178D01*
X27771Y-17193D01*
X27787Y-17224D01*
X27787Y-17254D01*
X27771Y-17285D01*
X27756Y-17300D01*
X27726Y-17315D01*
X27665Y-17331D01*
X27588Y-17331D01*
X27527Y-17315D01*
X27497Y-17300D01*
X27482Y-17285D01*
X27467Y-17254D01*
X27467Y-16950D02*
X27467Y-16919D01*
X27482Y-16889D01*
X27497Y-16873D01*
X27527Y-16858D01*
X27588Y-16843D01*
X27665Y-16843D01*
X27726Y-16858D01*
X27756Y-16873D01*
X27771Y-16889D01*
X27787Y-16919D01*
X27787Y-16950D01*
X27771Y-16980D01*
X27756Y-16995D01*
X27726Y-17011D01*
X27665Y-17026D01*
X27588Y-17026D01*
X27527Y-17011D01*
X27497Y-16995D01*
X27482Y-16980D01*
X27467Y-16950D01*
X27467Y-16645D02*
X27467Y-16614D01*
X27482Y-16584D01*
X27497Y-16569D01*
X27527Y-16553D01*
X27588Y-16538D01*
X27665Y-16538D01*
X27726Y-16553D01*
X27756Y-16569D01*
X27771Y-16584D01*
X27787Y-16614D01*
X27787Y-16645D01*
X27771Y-16675D01*
X27756Y-16691D01*
X27726Y-16706D01*
X27665Y-16721D01*
X27588Y-16721D01*
X27527Y-16706D01*
X27497Y-16691D01*
X27482Y-16675D01*
X27467Y-16645D01*
X27467Y-16447D02*
X27787Y-16340D01*
X27467Y-16233D01*
X12506Y-14810D02*
X12506Y-14627D01*
X12826Y-14719D02*
X12506Y-14719D01*
X12613Y-14384D02*
X12826Y-14384D01*
X12491Y-14460D02*
X12719Y-14536D01*
X12719Y-14338D01*
X21508Y-17526D02*
X21691Y-17526D01*
X21599Y-17846D02*
X21599Y-17526D01*
X21767Y-17526D02*
X21965Y-17526D01*
X21858Y-17647D01*
X21904Y-17647D01*
X21934Y-17663D01*
X21950Y-17678D01*
X21965Y-17708D01*
X21965Y-17785D01*
X21950Y-17815D01*
X21934Y-17830D01*
X21904Y-17846D01*
X21812Y-17846D01*
X21782Y-17830D01*
X21767Y-17815D01*
X25051Y-17526D02*
X25234Y-17526D01*
X25142Y-17846D02*
X25142Y-17526D01*
X25325Y-17556D02*
X25340Y-17541D01*
X25371Y-17526D01*
X25447Y-17526D01*
X25478Y-17541D01*
X25493Y-17556D01*
X25508Y-17587D01*
X25508Y-17617D01*
X25493Y-17663D01*
X25310Y-17846D01*
X25508Y-17846D01*
X18260Y-17526D02*
X18442Y-17526D01*
X18351Y-17846D02*
X18351Y-17526D01*
X18717Y-17846D02*
X18534Y-17846D01*
X18625Y-17846D02*
X18625Y-17526D01*
X18595Y-17571D01*
X18564Y-17602D01*
X18534Y-17617D01*
G54D11*
X27984Y-12834D02*
G75*
G03X27984Y-12834I-504J0D01*
G74*
G01*
X13543Y-12637D02*
X13543Y-13031D01*
X13740Y-12834D02*
X13346Y-12834D01*
X14727Y-12834D02*
G75*
G03X14727Y-12834I-1184J0D01*
G74*
G01*
G54D13*
X25944Y-9586D02*
X25944Y-9744D01*
X25944Y-9586D02*
X25787Y-9586D01*
X25748Y-9783D02*
X25748Y-10019D01*
X25944Y-9586D02*
X25748Y-9783D01*
G54D14*
X25513Y-11404D02*
X25489Y-11452D01*
X25489Y-11523D01*
X25513Y-11595D01*
X25561Y-11642D01*
X25608Y-11666D01*
X25704Y-11690D01*
X25775Y-11690D01*
X25870Y-11666D01*
X25918Y-11642D01*
X25965Y-11595D01*
X25989Y-11523D01*
X25989Y-11476D01*
X25965Y-11404D01*
X25942Y-11380D01*
X25775Y-11380D01*
X25775Y-11476D01*
X25989Y-11166D02*
X25489Y-11166D01*
X25989Y-10880D01*
X25489Y-10880D01*
X25989Y-10642D02*
X25489Y-10642D01*
X25489Y-10523D01*
X25513Y-10452D01*
X25561Y-10404D01*
X25608Y-10380D01*
X25704Y-10356D01*
X25775Y-10356D01*
X25870Y-10380D01*
X25918Y-10404D01*
X25965Y-10452D01*
X25989Y-10523D01*
X25989Y-10642D01*
X18321Y-15914D02*
X18438Y-16242D01*
X18555Y-15914D01*
X18953Y-15914D02*
X18953Y-16242D01*
X18836Y-15726D02*
X18719Y-16078D01*
X19024Y-16078D01*
X19211Y-16195D02*
X19235Y-16219D01*
X19211Y-16242D01*
X19188Y-16219D01*
X19211Y-16195D01*
X19211Y-16242D01*
X19539Y-15750D02*
X19586Y-15750D01*
X19633Y-15773D01*
X19656Y-15797D01*
X19680Y-15844D01*
X19703Y-15937D01*
X19703Y-16055D01*
X19680Y-16148D01*
X19656Y-16195D01*
X19633Y-16219D01*
X19586Y-16242D01*
X19539Y-16242D01*
X19492Y-16219D01*
X19469Y-16195D01*
X19446Y-16148D01*
X19422Y-16055D01*
X19422Y-15937D01*
X19446Y-15844D01*
X19469Y-15797D01*
X19492Y-15773D01*
X19539Y-15750D01*
X20359Y-15961D02*
X20313Y-15937D01*
X20289Y-15914D01*
X20266Y-15867D01*
X20266Y-15844D01*
X20289Y-15797D01*
X20313Y-15773D01*
X20359Y-15750D01*
X20453Y-15750D01*
X20500Y-15773D01*
X20523Y-15797D01*
X20547Y-15844D01*
X20547Y-15867D01*
X20523Y-15914D01*
X20500Y-15937D01*
X20453Y-15961D01*
X20359Y-15961D01*
X20313Y-15984D01*
X20289Y-16008D01*
X20266Y-16055D01*
X20266Y-16148D01*
X20289Y-16195D01*
X20313Y-16219D01*
X20359Y-16242D01*
X20453Y-16242D01*
X20500Y-16219D01*
X20523Y-16195D01*
X20547Y-16148D01*
X20547Y-16055D01*
X20523Y-16008D01*
X20500Y-15984D01*
X20453Y-15961D01*
X21109Y-15797D02*
X21133Y-15773D01*
X21180Y-15750D01*
X21297Y-15750D01*
X21344Y-15773D01*
X21367Y-15797D01*
X21391Y-15844D01*
X21391Y-15890D01*
X21367Y-15961D01*
X21086Y-16242D01*
X21391Y-16242D01*
X21695Y-15750D02*
X21742Y-15750D01*
X21789Y-15773D01*
X21812Y-15797D01*
X21836Y-15844D01*
X21859Y-15937D01*
X21859Y-16055D01*
X21836Y-16148D01*
X21812Y-16195D01*
X21789Y-16219D01*
X21742Y-16242D01*
X21695Y-16242D01*
X21648Y-16219D01*
X21625Y-16195D01*
X21601Y-16148D01*
X21578Y-16055D01*
X21578Y-15937D01*
X21601Y-15844D01*
X21625Y-15797D01*
X21648Y-15773D01*
X21695Y-15750D01*
X22328Y-16242D02*
X22047Y-16242D01*
X22187Y-16242D02*
X22187Y-15750D01*
X22140Y-15820D01*
X22094Y-15867D01*
X22047Y-15890D01*
X22750Y-15914D02*
X22750Y-16242D01*
X22633Y-15726D02*
X22515Y-16078D01*
X22820Y-16078D01*
X28852Y-15818D02*
X28880Y-15762D01*
X28880Y-15649D01*
X28852Y-15593D01*
X28796Y-15565D01*
X28768Y-15565D01*
X28712Y-15593D01*
X28683Y-15649D01*
X28683Y-15733D01*
X28655Y-15790D01*
X28599Y-15818D01*
X28571Y-15818D01*
X28515Y-15790D01*
X28487Y-15733D01*
X28487Y-15649D01*
X28515Y-15593D01*
X28487Y-15368D02*
X28880Y-15227D01*
X28487Y-15087D02*
X28880Y-15227D01*
X29021Y-15284D01*
X29049Y-15312D01*
X29077Y-15368D01*
X28852Y-14890D02*
X28880Y-14834D01*
X28880Y-14721D01*
X28852Y-14665D01*
X28796Y-14637D01*
X28768Y-14637D01*
X28712Y-14665D01*
X28683Y-14721D01*
X28683Y-14805D01*
X28655Y-14862D01*
X28599Y-14890D01*
X28571Y-14890D01*
X28515Y-14862D01*
X28487Y-14805D01*
X28487Y-14721D01*
X28515Y-14665D01*
X28487Y-14468D02*
X28487Y-14243D01*
X28290Y-14384D02*
X28796Y-14384D01*
X28852Y-14356D01*
X28880Y-14299D01*
X28880Y-14243D01*
X28852Y-13821D02*
X28880Y-13877D01*
X28880Y-13990D01*
X28852Y-14046D01*
X28796Y-14074D01*
X28571Y-14074D01*
X28515Y-14046D01*
X28487Y-13990D01*
X28487Y-13877D01*
X28515Y-13821D01*
X28571Y-13793D01*
X28627Y-13793D01*
X28683Y-14074D01*
X28880Y-13540D02*
X28487Y-13540D01*
X28543Y-13540D02*
X28515Y-13512D01*
X28487Y-13456D01*
X28487Y-13371D01*
X28515Y-13315D01*
X28571Y-13287D01*
X28880Y-13287D01*
X28571Y-13287D02*
X28515Y-13259D01*
X28487Y-13203D01*
X28487Y-13118D01*
X28515Y-13062D01*
X28571Y-13034D01*
X28880Y-13034D01*
X28290Y-12809D02*
X28290Y-12415D01*
X28880Y-12668D01*
X28880Y-12162D02*
X28880Y-12050D01*
X28852Y-11993D01*
X28824Y-11965D01*
X28740Y-11909D01*
X28627Y-11881D01*
X28402Y-11881D01*
X28346Y-11909D01*
X28318Y-11937D01*
X28290Y-11993D01*
X28290Y-12106D01*
X28318Y-12162D01*
X28346Y-12190D01*
X28402Y-12218D01*
X28543Y-12218D01*
X28599Y-12190D01*
X28627Y-12162D01*
X28655Y-12106D01*
X28655Y-11993D01*
X28627Y-11937D01*
X28599Y-11909D01*
X28543Y-11881D01*
X28824Y-11628D02*
X28852Y-11600D01*
X28880Y-11628D01*
X28852Y-11656D01*
X28824Y-11628D01*
X28880Y-11628D01*
X28852Y-11093D02*
X28880Y-11150D01*
X28880Y-11262D01*
X28852Y-11318D01*
X28824Y-11347D01*
X28768Y-11375D01*
X28599Y-11375D01*
X28543Y-11347D01*
X28515Y-11318D01*
X28487Y-11262D01*
X28487Y-11150D01*
X28515Y-11093D01*
X28880Y-10756D02*
X28852Y-10812D01*
X28824Y-10840D01*
X28768Y-10868D01*
X28599Y-10868D01*
X28543Y-10840D01*
X28515Y-10812D01*
X28487Y-10756D01*
X28487Y-10672D01*
X28515Y-10615D01*
X28543Y-10587D01*
X28599Y-10559D01*
X28768Y-10559D01*
X28824Y-10587D01*
X28852Y-10615D01*
X28880Y-10672D01*
X28880Y-10756D01*
X28880Y-10306D02*
X28487Y-10306D01*
X28543Y-10306D02*
X28515Y-10278D01*
X28487Y-10222D01*
X28487Y-10137D01*
X28515Y-10081D01*
X28571Y-10053D01*
X28880Y-10053D01*
X28571Y-10053D02*
X28515Y-10025D01*
X28487Y-9969D01*
X28487Y-9884D01*
X28515Y-9828D01*
X28571Y-9800D01*
X28880Y-9800D01*
G54D15*
X11314Y-36709D02*
X11514Y-36409D01*
X11314Y-37409D02*
X11314Y-36384D01*
X11314Y-36384D02*
X11914Y-36384D01*
X11914Y-36384D02*
X11914Y-37409D01*
X11914Y-37409D02*
X11314Y-37409D01*
X17524Y-36402D02*
X17524Y-36802D01*
X17524Y-36802D02*
X16924Y-36802D01*
X16924Y-36802D02*
X16924Y-36402D01*
X16924Y-35842D02*
X16924Y-35442D01*
X16924Y-35442D02*
X17524Y-35442D01*
X17524Y-35442D02*
X17524Y-35842D01*
X26688Y-40654D02*
X26288Y-40654D01*
X26288Y-40654D02*
X26288Y-40054D01*
X26288Y-40054D02*
X26688Y-40054D01*
X27248Y-40054D02*
X27648Y-40054D01*
X27648Y-40054D02*
X27648Y-40654D01*
X27648Y-40654D02*
X27248Y-40654D01*
X26688Y-39473D02*
X26288Y-39473D01*
X26288Y-39473D02*
X26288Y-38873D01*
X26288Y-38873D02*
X26688Y-38873D01*
X27248Y-38873D02*
X27648Y-38873D01*
X27648Y-38873D02*
X27648Y-39473D01*
X27648Y-39473D02*
X27248Y-39473D01*
X26688Y-38292D02*
X26288Y-38292D01*
X26288Y-38292D02*
X26288Y-37692D01*
X26288Y-37692D02*
X26688Y-37692D01*
X27248Y-37692D02*
X27648Y-37692D01*
X27648Y-37692D02*
X27648Y-38292D01*
X27648Y-38292D02*
X27248Y-38292D01*
X26688Y-37111D02*
X26288Y-37111D01*
X26288Y-37111D02*
X26288Y-36511D01*
X26288Y-36511D02*
X26688Y-36511D01*
X27248Y-36511D02*
X27648Y-36511D01*
X27648Y-36511D02*
X27648Y-37111D01*
X27648Y-37111D02*
X27248Y-37111D01*
X26688Y-35929D02*
X26288Y-35929D01*
X26288Y-35929D02*
X26288Y-35329D01*
X26288Y-35329D02*
X26688Y-35329D01*
X27248Y-35329D02*
X27648Y-35329D01*
X27648Y-35329D02*
X27648Y-35929D01*
X27648Y-35929D02*
X27248Y-35929D01*
X13105Y-37012D02*
X12705Y-37012D01*
X12705Y-37012D02*
X12705Y-36412D01*
X12705Y-36412D02*
X13105Y-36412D01*
X13665Y-36412D02*
X14065Y-36412D01*
X14065Y-36412D02*
X14065Y-37012D01*
X14065Y-37012D02*
X13665Y-37012D01*
X11334Y-35044D02*
X10934Y-35044D01*
X10934Y-35044D02*
X10934Y-34444D01*
X10934Y-34444D02*
X11334Y-34444D01*
X11894Y-34444D02*
X12294Y-34444D01*
X12294Y-34444D02*
X12294Y-35044D01*
X12294Y-35044D02*
X11894Y-35044D01*
X13105Y-35044D02*
X12705Y-35044D01*
X12705Y-35044D02*
X12705Y-34444D01*
X12705Y-34444D02*
X13105Y-34444D01*
X13665Y-34444D02*
X14065Y-34444D01*
X14065Y-34444D02*
X14065Y-35044D01*
X14065Y-35044D02*
X13665Y-35044D01*
X18508Y-36402D02*
X18508Y-36802D01*
X18508Y-36802D02*
X17908Y-36802D01*
X17908Y-36802D02*
X17908Y-36402D01*
X17908Y-35842D02*
X17908Y-35442D01*
X17908Y-35442D02*
X18508Y-35442D01*
X18508Y-35442D02*
X18508Y-35842D01*
X21244Y-36806D02*
X21644Y-36806D01*
X21644Y-36806D02*
X21644Y-37406D01*
X21644Y-37406D02*
X21244Y-37406D01*
X20684Y-37406D02*
X20284Y-37406D01*
X20284Y-37406D02*
X20284Y-36806D01*
X20284Y-36806D02*
X20684Y-36806D01*
X14365Y-42436D02*
X14365Y-42036D01*
X14365Y-42036D02*
X14965Y-42036D01*
X14965Y-42036D02*
X14965Y-42436D01*
X14965Y-42996D02*
X14965Y-43396D01*
X14965Y-43396D02*
X14365Y-43396D01*
X14365Y-43396D02*
X14365Y-42996D01*
X13105Y-36028D02*
X12705Y-36028D01*
X12705Y-36028D02*
X12705Y-35428D01*
X12705Y-35428D02*
X13105Y-35428D01*
X13665Y-35428D02*
X14065Y-35428D01*
X14065Y-35428D02*
X14065Y-36028D01*
X14065Y-36028D02*
X13665Y-36028D01*
X13882Y-42996D02*
X13882Y-43396D01*
X13882Y-43396D02*
X13282Y-43396D01*
X13282Y-43396D02*
X13282Y-42996D01*
X13282Y-42436D02*
X13282Y-42036D01*
X13282Y-42036D02*
X13882Y-42036D01*
X13882Y-42036D02*
X13882Y-42436D01*
X11334Y-36028D02*
X10934Y-36028D01*
X10934Y-36028D02*
X10934Y-35428D01*
X10934Y-35428D02*
X11334Y-35428D01*
X11894Y-35428D02*
X12294Y-35428D01*
X12294Y-35428D02*
X12294Y-36028D01*
X12294Y-36028D02*
X11894Y-36028D01*
X12220Y-34059D02*
X11820Y-34059D01*
X11820Y-34059D02*
X11820Y-33459D01*
X11820Y-33459D02*
X12220Y-33459D01*
X12780Y-33459D02*
X13180Y-33459D01*
X13180Y-33459D02*
X13180Y-34059D01*
X13180Y-34059D02*
X12780Y-34059D01*
G54D16*
X18716Y-35147D02*
X18716Y-33947D01*
X19816Y-35147D02*
X19816Y-33947D01*
X19816Y-33947D02*
X15616Y-33947D01*
X15616Y-33947D02*
X15616Y-35147D01*
X15616Y-35147D02*
X19816Y-35147D01*
G54D15*
X22534Y-33756D02*
X22734Y-33456D01*
X22534Y-34456D02*
X22534Y-33431D01*
X22534Y-33431D02*
X23134Y-33431D01*
X23134Y-33431D02*
X23134Y-34456D01*
X23134Y-34456D02*
X22534Y-34456D01*
X22456Y-35437D02*
X22056Y-35437D01*
X22056Y-35437D02*
X22056Y-34837D01*
X22056Y-34837D02*
X22456Y-34837D01*
X23016Y-34837D02*
X23416Y-34837D01*
X23416Y-34837D02*
X23416Y-35437D01*
X23416Y-35437D02*
X23016Y-35437D01*
X24523Y-34158D02*
X24123Y-34158D01*
X24123Y-34158D02*
X24123Y-33558D01*
X24123Y-33558D02*
X24523Y-33558D01*
X25083Y-33558D02*
X25483Y-33558D01*
X25483Y-33558D02*
X25483Y-34158D01*
X25483Y-34158D02*
X25083Y-34158D01*
X22337Y-39483D02*
X22337Y-39083D01*
X22337Y-39083D02*
X22937Y-39083D01*
X22937Y-39083D02*
X22937Y-39483D01*
X22937Y-40043D02*
X22937Y-40443D01*
X22937Y-40443D02*
X22337Y-40443D01*
X22337Y-40443D02*
X22337Y-40043D01*
X20684Y-35437D02*
X20284Y-35437D01*
X20284Y-35437D02*
X20284Y-34837D01*
X20284Y-34837D02*
X20684Y-34837D01*
X21244Y-34837D02*
X21644Y-34837D01*
X21644Y-34837D02*
X21644Y-35437D01*
X21644Y-35437D02*
X21244Y-35437D01*
X21244Y-35822D02*
X21644Y-35822D01*
X21644Y-35822D02*
X21644Y-36422D01*
X21644Y-36422D02*
X21244Y-36422D01*
X20684Y-36422D02*
X20284Y-36422D01*
X20284Y-36422D02*
X20284Y-35822D01*
X20284Y-35822D02*
X20684Y-35822D01*
X20684Y-34355D02*
X20284Y-34355D01*
X20284Y-34355D02*
X20284Y-33755D01*
X20284Y-33755D02*
X20684Y-33755D01*
X21244Y-33755D02*
X21644Y-33755D01*
X21644Y-33755D02*
X21644Y-34355D01*
X21644Y-34355D02*
X21244Y-34355D01*
G54D14*
X19133Y-44665D02*
X19133Y-43956D01*
X19488Y-44311D02*
G75*
G03X19488Y-44311I-354J0D01*
G74*
G01*
X16929Y-44881D02*
X19685Y-44881D01*
X19685Y-44881D02*
X19685Y-43228D01*
X16929Y-43228D02*
X16929Y-44881D01*
X16929Y-43228D02*
X19685Y-43228D01*
X22677Y-44665D02*
X22677Y-43956D01*
X23031Y-44311D02*
G75*
G03X23031Y-44311I-354J0D01*
G74*
G01*
X20472Y-44881D02*
X23228Y-44881D01*
X23228Y-44881D02*
X23228Y-43228D01*
X20472Y-43228D02*
X20472Y-44881D01*
X20472Y-43228D02*
X23228Y-43228D01*
X26220Y-44665D02*
X26220Y-43956D01*
X26574Y-44311D02*
G75*
G03X26574Y-44311I-354J0D01*
G74*
G01*
X24015Y-44881D02*
X26771Y-44881D01*
X26771Y-44881D02*
X26771Y-43228D01*
X24015Y-43228D02*
X24015Y-44881D01*
X24015Y-43228D02*
X26771Y-43228D01*
X10846Y-40590D02*
X11555Y-40590D01*
X11555Y-40590D02*
G75*
G03X11555Y-40590I-354J0D01*
G74*
G01*
X10629Y-38385D02*
X10629Y-41141D01*
X10629Y-41141D02*
X12283Y-41141D01*
X12283Y-38385D02*
X10629Y-38385D01*
X12283Y-38385D02*
X12283Y-41141D01*
G54D15*
X12406Y-42996D02*
X12406Y-43396D01*
X12406Y-43396D02*
X11806Y-43396D01*
X11806Y-43396D02*
X11806Y-42996D01*
X11806Y-42436D02*
X11806Y-42036D01*
X11806Y-42036D02*
X12406Y-42036D01*
X12406Y-42036D02*
X12406Y-42436D01*
X11323Y-42996D02*
X11323Y-43396D01*
X11323Y-43396D02*
X10723Y-43396D01*
X10723Y-43396D02*
X10723Y-42996D01*
X10723Y-42436D02*
X10723Y-42036D01*
X10723Y-42036D02*
X11323Y-42036D01*
X11323Y-42036D02*
X11323Y-42436D01*
X16441Y-36402D02*
X16441Y-36802D01*
X16441Y-36802D02*
X15841Y-36802D01*
X15841Y-36802D02*
X15841Y-36402D01*
X15841Y-35842D02*
X15841Y-35442D01*
X15841Y-35442D02*
X16441Y-35442D01*
X16441Y-35442D02*
X16441Y-35842D01*
G54D16*
X28724Y-43592D02*
X28724Y-44792D01*
X27624Y-43592D02*
X27624Y-44792D01*
X27624Y-44792D02*
X31824Y-44792D01*
X31824Y-44792D02*
X31824Y-43592D01*
X31824Y-43592D02*
X27624Y-43592D01*
G54D15*
X23637Y-42327D02*
X23237Y-42327D01*
X23237Y-42327D02*
X23237Y-41727D01*
X23237Y-41727D02*
X23637Y-41727D01*
X24197Y-41727D02*
X24597Y-41727D01*
X24597Y-41727D02*
X24597Y-42327D01*
X24597Y-42327D02*
X24197Y-42327D01*
X20782Y-42327D02*
X20382Y-42327D01*
X20382Y-42327D02*
X20382Y-41727D01*
X20382Y-41727D02*
X20782Y-41727D01*
X21342Y-41727D02*
X21742Y-41727D01*
X21742Y-41727D02*
X21742Y-42327D01*
X21742Y-42327D02*
X21342Y-42327D01*
G54D17*
X19181Y-40713D02*
X19181Y-38813D01*
X19181Y-38813D02*
X20581Y-38813D01*
X20581Y-38813D02*
X20581Y-40713D01*
X20581Y-40713D02*
X19181Y-40713D01*
X20481Y-40463D02*
G75*
G03X20481Y-40463I-150J0D01*
G74*
G01*
X13768Y-40713D02*
X13768Y-38813D01*
X13768Y-38813D02*
X15168Y-38813D01*
X15168Y-38813D02*
X15168Y-40713D01*
X15168Y-40713D02*
X13768Y-40713D01*
X15068Y-40463D02*
G75*
G03X15068Y-40463I-150J0D01*
G74*
G01*
X13768Y-28115D02*
X13768Y-26215D01*
X13768Y-26215D02*
X15168Y-26215D01*
X15168Y-26215D02*
X15168Y-28115D01*
X15168Y-28115D02*
X13768Y-28115D01*
X15068Y-27865D02*
G75*
G03X15068Y-27865I-150J0D01*
G74*
G01*
X19181Y-28115D02*
X19181Y-26215D01*
X19181Y-26215D02*
X20581Y-26215D01*
X20581Y-26215D02*
X20581Y-28115D01*
X20581Y-28115D02*
X19181Y-28115D01*
X20481Y-27865D02*
G75*
G03X20481Y-27865I-150J0D01*
G74*
G01*
G54D15*
X20782Y-29729D02*
X20382Y-29729D01*
X20382Y-29729D02*
X20382Y-29129D01*
X20382Y-29129D02*
X20782Y-29129D01*
X21342Y-29129D02*
X21742Y-29129D01*
X21742Y-29129D02*
X21742Y-29729D01*
X21742Y-29729D02*
X21342Y-29729D01*
X23637Y-29729D02*
X23237Y-29729D01*
X23237Y-29729D02*
X23237Y-29129D01*
X23237Y-29129D02*
X23637Y-29129D01*
X24197Y-29129D02*
X24597Y-29129D01*
X24597Y-29129D02*
X24597Y-29729D01*
X24597Y-29729D02*
X24197Y-29729D01*
G54D16*
X28724Y-30994D02*
X28724Y-32194D01*
X27624Y-30994D02*
X27624Y-32194D01*
X27624Y-32194D02*
X31824Y-32194D01*
X31824Y-32194D02*
X31824Y-30994D01*
X31824Y-30994D02*
X27624Y-30994D01*
G54D15*
X16441Y-23803D02*
X16441Y-24203D01*
X16441Y-24203D02*
X15841Y-24203D01*
X15841Y-24203D02*
X15841Y-23803D01*
X15841Y-23243D02*
X15841Y-22843D01*
X15841Y-22843D02*
X16441Y-22843D01*
X16441Y-22843D02*
X16441Y-23243D01*
X11323Y-30398D02*
X11323Y-30798D01*
X11323Y-30798D02*
X10723Y-30798D01*
X10723Y-30798D02*
X10723Y-30398D01*
X10723Y-29838D02*
X10723Y-29438D01*
X10723Y-29438D02*
X11323Y-29438D01*
X11323Y-29438D02*
X11323Y-29838D01*
X12406Y-30398D02*
X12406Y-30798D01*
X12406Y-30798D02*
X11806Y-30798D01*
X11806Y-30798D02*
X11806Y-30398D01*
X11806Y-29838D02*
X11806Y-29438D01*
X11806Y-29438D02*
X12406Y-29438D01*
X12406Y-29438D02*
X12406Y-29838D01*
G54D14*
X10846Y-27992D02*
X11555Y-27992D01*
X11555Y-27992D02*
G75*
G03X11555Y-27992I-354J0D01*
G74*
G01*
X10629Y-25787D02*
X10629Y-28543D01*
X10629Y-28543D02*
X12283Y-28543D01*
X12283Y-25787D02*
X10629Y-25787D01*
X12283Y-25787D02*
X12283Y-28543D01*
X26220Y-32066D02*
X26220Y-31358D01*
X26574Y-31712D02*
G75*
G03X26574Y-31712I-354J0D01*
G74*
G01*
X24015Y-32283D02*
X26771Y-32283D01*
X26771Y-32283D02*
X26771Y-30629D01*
X24015Y-30629D02*
X24015Y-32283D01*
X24015Y-30629D02*
X26771Y-30629D01*
X22677Y-32066D02*
X22677Y-31358D01*
X23031Y-31712D02*
G75*
G03X23031Y-31712I-354J0D01*
G74*
G01*
X20472Y-32283D02*
X23228Y-32283D01*
X23228Y-32283D02*
X23228Y-30629D01*
X20472Y-30629D02*
X20472Y-32283D01*
X20472Y-30629D02*
X23228Y-30629D01*
X19133Y-32066D02*
X19133Y-31358D01*
X19488Y-31712D02*
G75*
G03X19488Y-31712I-354J0D01*
G74*
G01*
X16929Y-32283D02*
X19685Y-32283D01*
X19685Y-32283D02*
X19685Y-30629D01*
X16929Y-30629D02*
X16929Y-32283D01*
X16929Y-30629D02*
X19685Y-30629D01*
G54D15*
X20684Y-21756D02*
X20284Y-21756D01*
X20284Y-21756D02*
X20284Y-21156D01*
X20284Y-21156D02*
X20684Y-21156D01*
X21244Y-21156D02*
X21644Y-21156D01*
X21644Y-21156D02*
X21644Y-21756D01*
X21644Y-21756D02*
X21244Y-21756D01*
X21244Y-23223D02*
X21644Y-23223D01*
X21644Y-23223D02*
X21644Y-23823D01*
X21644Y-23823D02*
X21244Y-23823D01*
X20684Y-23823D02*
X20284Y-23823D01*
X20284Y-23823D02*
X20284Y-23223D01*
X20284Y-23223D02*
X20684Y-23223D01*
X20684Y-22839D02*
X20284Y-22839D01*
X20284Y-22839D02*
X20284Y-22239D01*
X20284Y-22239D02*
X20684Y-22239D01*
X21244Y-22239D02*
X21644Y-22239D01*
X21644Y-22239D02*
X21644Y-22839D01*
X21644Y-22839D02*
X21244Y-22839D01*
X22337Y-26885D02*
X22337Y-26485D01*
X22337Y-26485D02*
X22937Y-26485D01*
X22937Y-26485D02*
X22937Y-26885D01*
X22937Y-27445D02*
X22937Y-27845D01*
X22937Y-27845D02*
X22337Y-27845D01*
X22337Y-27845D02*
X22337Y-27445D01*
X24523Y-21559D02*
X24123Y-21559D01*
X24123Y-21559D02*
X24123Y-20959D01*
X24123Y-20959D02*
X24523Y-20959D01*
X25083Y-20959D02*
X25483Y-20959D01*
X25483Y-20959D02*
X25483Y-21559D01*
X25483Y-21559D02*
X25083Y-21559D01*
X22456Y-22839D02*
X22056Y-22839D01*
X22056Y-22839D02*
X22056Y-22239D01*
X22056Y-22239D02*
X22456Y-22239D01*
X23016Y-22239D02*
X23416Y-22239D01*
X23416Y-22239D02*
X23416Y-22839D01*
X23416Y-22839D02*
X23016Y-22839D01*
X22534Y-21158D02*
X22734Y-20858D01*
X22534Y-21858D02*
X22534Y-20833D01*
X22534Y-20833D02*
X23134Y-20833D01*
X23134Y-20833D02*
X23134Y-21858D01*
X23134Y-21858D02*
X22534Y-21858D01*
G54D16*
X18716Y-22548D02*
X18716Y-21348D01*
X19816Y-22548D02*
X19816Y-21348D01*
X19816Y-21348D02*
X15616Y-21348D01*
X15616Y-21348D02*
X15616Y-22548D01*
X15616Y-22548D02*
X19816Y-22548D01*
G54D15*
X12220Y-21461D02*
X11820Y-21461D01*
X11820Y-21461D02*
X11820Y-20861D01*
X11820Y-20861D02*
X12220Y-20861D01*
X12780Y-20861D02*
X13180Y-20861D01*
X13180Y-20861D02*
X13180Y-21461D01*
X13180Y-21461D02*
X12780Y-21461D01*
X11334Y-23429D02*
X10934Y-23429D01*
X10934Y-23429D02*
X10934Y-22829D01*
X10934Y-22829D02*
X11334Y-22829D01*
X11894Y-22829D02*
X12294Y-22829D01*
X12294Y-22829D02*
X12294Y-23429D01*
X12294Y-23429D02*
X11894Y-23429D01*
X13882Y-30398D02*
X13882Y-30798D01*
X13882Y-30798D02*
X13282Y-30798D01*
X13282Y-30798D02*
X13282Y-30398D01*
X13282Y-29838D02*
X13282Y-29438D01*
X13282Y-29438D02*
X13882Y-29438D01*
X13882Y-29438D02*
X13882Y-29838D01*
X13105Y-23429D02*
X12705Y-23429D01*
X12705Y-23429D02*
X12705Y-22829D01*
X12705Y-22829D02*
X13105Y-22829D01*
X13665Y-22829D02*
X14065Y-22829D01*
X14065Y-22829D02*
X14065Y-23429D01*
X14065Y-23429D02*
X13665Y-23429D01*
X14365Y-29838D02*
X14365Y-29438D01*
X14365Y-29438D02*
X14965Y-29438D01*
X14965Y-29438D02*
X14965Y-29838D01*
X14965Y-30398D02*
X14965Y-30798D01*
X14965Y-30798D02*
X14365Y-30798D01*
X14365Y-30798D02*
X14365Y-30398D01*
X21244Y-24207D02*
X21644Y-24207D01*
X21644Y-24207D02*
X21644Y-24807D01*
X21644Y-24807D02*
X21244Y-24807D01*
X20684Y-24807D02*
X20284Y-24807D01*
X20284Y-24807D02*
X20284Y-24207D01*
X20284Y-24207D02*
X20684Y-24207D01*
X18508Y-23803D02*
X18508Y-24203D01*
X18508Y-24203D02*
X17908Y-24203D01*
X17908Y-24203D02*
X17908Y-23803D01*
X17908Y-23243D02*
X17908Y-22843D01*
X17908Y-22843D02*
X18508Y-22843D01*
X18508Y-22843D02*
X18508Y-23243D01*
X13105Y-22445D02*
X12705Y-22445D01*
X12705Y-22445D02*
X12705Y-21845D01*
X12705Y-21845D02*
X13105Y-21845D01*
X13665Y-21845D02*
X14065Y-21845D01*
X14065Y-21845D02*
X14065Y-22445D01*
X14065Y-22445D02*
X13665Y-22445D01*
X11334Y-22445D02*
X10934Y-22445D01*
X10934Y-22445D02*
X10934Y-21845D01*
X10934Y-21845D02*
X11334Y-21845D01*
X11894Y-21845D02*
X12294Y-21845D01*
X12294Y-21845D02*
X12294Y-22445D01*
X12294Y-22445D02*
X11894Y-22445D01*
X13105Y-24414D02*
X12705Y-24414D01*
X12705Y-24414D02*
X12705Y-23814D01*
X12705Y-23814D02*
X13105Y-23814D01*
X13665Y-23814D02*
X14065Y-23814D01*
X14065Y-23814D02*
X14065Y-24414D01*
X14065Y-24414D02*
X13665Y-24414D01*
X26688Y-23331D02*
X26288Y-23331D01*
X26288Y-23331D02*
X26288Y-22731D01*
X26288Y-22731D02*
X26688Y-22731D01*
X27248Y-22731D02*
X27648Y-22731D01*
X27648Y-22731D02*
X27648Y-23331D01*
X27648Y-23331D02*
X27248Y-23331D01*
X26688Y-24512D02*
X26288Y-24512D01*
X26288Y-24512D02*
X26288Y-23912D01*
X26288Y-23912D02*
X26688Y-23912D01*
X27248Y-23912D02*
X27648Y-23912D01*
X27648Y-23912D02*
X27648Y-24512D01*
X27648Y-24512D02*
X27248Y-24512D01*
X26688Y-25693D02*
X26288Y-25693D01*
X26288Y-25693D02*
X26288Y-25093D01*
X26288Y-25093D02*
X26688Y-25093D01*
X27248Y-25093D02*
X27648Y-25093D01*
X27648Y-25093D02*
X27648Y-25693D01*
X27648Y-25693D02*
X27248Y-25693D01*
X26688Y-26874D02*
X26288Y-26874D01*
X26288Y-26874D02*
X26288Y-26274D01*
X26288Y-26274D02*
X26688Y-26274D01*
X27248Y-26274D02*
X27648Y-26274D01*
X27648Y-26274D02*
X27648Y-26874D01*
X27648Y-26874D02*
X27248Y-26874D01*
X26688Y-28055D02*
X26288Y-28055D01*
X26288Y-28055D02*
X26288Y-27455D01*
X26288Y-27455D02*
X26688Y-27455D01*
X27248Y-27455D02*
X27648Y-27455D01*
X27648Y-27455D02*
X27648Y-28055D01*
X27648Y-28055D02*
X27248Y-28055D01*
X17524Y-23803D02*
X17524Y-24203D01*
X17524Y-24203D02*
X16924Y-24203D01*
X16924Y-24203D02*
X16924Y-23803D01*
X16924Y-23243D02*
X16924Y-22843D01*
X16924Y-22843D02*
X17524Y-22843D01*
X17524Y-22843D02*
X17524Y-23243D01*
X11314Y-24111D02*
X11514Y-23811D01*
X11314Y-24811D02*
X11314Y-23786D01*
X11314Y-23786D02*
X11914Y-23786D01*
X11914Y-23786D02*
X11914Y-24811D01*
X11914Y-24811D02*
X11314Y-24811D01*
X11314Y-11512D02*
X11514Y-11212D01*
X11314Y-12212D02*
X11314Y-11187D01*
X11314Y-11187D02*
X11914Y-11187D01*
X11914Y-11187D02*
X11914Y-12212D01*
X11914Y-12212D02*
X11314Y-12212D01*
X17524Y-11205D02*
X17524Y-11605D01*
X17524Y-11605D02*
X16924Y-11605D01*
X16924Y-11605D02*
X16924Y-11205D01*
X16924Y-10645D02*
X16924Y-10245D01*
X16924Y-10245D02*
X17524Y-10245D01*
X17524Y-10245D02*
X17524Y-10645D01*
X26688Y-15457D02*
X26288Y-15457D01*
X26288Y-15457D02*
X26288Y-14857D01*
X26288Y-14857D02*
X26688Y-14857D01*
X27248Y-14857D02*
X27648Y-14857D01*
X27648Y-14857D02*
X27648Y-15457D01*
X27648Y-15457D02*
X27248Y-15457D01*
X26688Y-14276D02*
X26288Y-14276D01*
X26288Y-14276D02*
X26288Y-13676D01*
X26288Y-13676D02*
X26688Y-13676D01*
X27248Y-13676D02*
X27648Y-13676D01*
X27648Y-13676D02*
X27648Y-14276D01*
X27648Y-14276D02*
X27248Y-14276D01*
X26688Y-13095D02*
X26288Y-13095D01*
X26288Y-13095D02*
X26288Y-12495D01*
X26288Y-12495D02*
X26688Y-12495D01*
X27248Y-12495D02*
X27648Y-12495D01*
X27648Y-12495D02*
X27648Y-13095D01*
X27648Y-13095D02*
X27248Y-13095D01*
X26688Y-11914D02*
X26288Y-11914D01*
X26288Y-11914D02*
X26288Y-11314D01*
X26288Y-11314D02*
X26688Y-11314D01*
X27248Y-11314D02*
X27648Y-11314D01*
X27648Y-11314D02*
X27648Y-11914D01*
X27648Y-11914D02*
X27248Y-11914D01*
X26688Y-10733D02*
X26288Y-10733D01*
X26288Y-10733D02*
X26288Y-10133D01*
X26288Y-10133D02*
X26688Y-10133D01*
X27248Y-10133D02*
X27648Y-10133D01*
X27648Y-10133D02*
X27648Y-10733D01*
X27648Y-10733D02*
X27248Y-10733D01*
X13105Y-11815D02*
X12705Y-11815D01*
X12705Y-11815D02*
X12705Y-11215D01*
X12705Y-11215D02*
X13105Y-11215D01*
X13665Y-11215D02*
X14065Y-11215D01*
X14065Y-11215D02*
X14065Y-11815D01*
X14065Y-11815D02*
X13665Y-11815D01*
X11334Y-9847D02*
X10934Y-9847D01*
X10934Y-9847D02*
X10934Y-9247D01*
X10934Y-9247D02*
X11334Y-9247D01*
X11894Y-9247D02*
X12294Y-9247D01*
X12294Y-9247D02*
X12294Y-9847D01*
X12294Y-9847D02*
X11894Y-9847D01*
X13105Y-9847D02*
X12705Y-9847D01*
X12705Y-9847D02*
X12705Y-9247D01*
X12705Y-9247D02*
X13105Y-9247D01*
X13665Y-9247D02*
X14065Y-9247D01*
X14065Y-9247D02*
X14065Y-9847D01*
X14065Y-9847D02*
X13665Y-9847D01*
X18508Y-11205D02*
X18508Y-11605D01*
X18508Y-11605D02*
X17908Y-11605D01*
X17908Y-11605D02*
X17908Y-11205D01*
X17908Y-10645D02*
X17908Y-10245D01*
X17908Y-10245D02*
X18508Y-10245D01*
X18508Y-10245D02*
X18508Y-10645D01*
X21244Y-11609D02*
X21644Y-11609D01*
X21644Y-11609D02*
X21644Y-12209D01*
X21644Y-12209D02*
X21244Y-12209D01*
X20684Y-12209D02*
X20284Y-12209D01*
X20284Y-12209D02*
X20284Y-11609D01*
X20284Y-11609D02*
X20684Y-11609D01*
X14365Y-17239D02*
X14365Y-16839D01*
X14365Y-16839D02*
X14965Y-16839D01*
X14965Y-16839D02*
X14965Y-17239D01*
X14965Y-17799D02*
X14965Y-18199D01*
X14965Y-18199D02*
X14365Y-18199D01*
X14365Y-18199D02*
X14365Y-17799D01*
X13105Y-10831D02*
X12705Y-10831D01*
X12705Y-10831D02*
X12705Y-10231D01*
X12705Y-10231D02*
X13105Y-10231D01*
X13665Y-10231D02*
X14065Y-10231D01*
X14065Y-10231D02*
X14065Y-10831D01*
X14065Y-10831D02*
X13665Y-10831D01*
X13882Y-17799D02*
X13882Y-18199D01*
X13882Y-18199D02*
X13282Y-18199D01*
X13282Y-18199D02*
X13282Y-17799D01*
X13282Y-17239D02*
X13282Y-16839D01*
X13282Y-16839D02*
X13882Y-16839D01*
X13882Y-16839D02*
X13882Y-17239D01*
X11334Y-10831D02*
X10934Y-10831D01*
X10934Y-10831D02*
X10934Y-10231D01*
X10934Y-10231D02*
X11334Y-10231D01*
X11894Y-10231D02*
X12294Y-10231D01*
X12294Y-10231D02*
X12294Y-10831D01*
X12294Y-10831D02*
X11894Y-10831D01*
X12220Y-8862D02*
X11820Y-8862D01*
X11820Y-8862D02*
X11820Y-8262D01*
X11820Y-8262D02*
X12220Y-8262D01*
X12780Y-8262D02*
X13180Y-8262D01*
X13180Y-8262D02*
X13180Y-8862D01*
X13180Y-8862D02*
X12780Y-8862D01*
G54D16*
X18716Y-9950D02*
X18716Y-8750D01*
X19816Y-9950D02*
X19816Y-8750D01*
X19816Y-8750D02*
X15616Y-8750D01*
X15616Y-8750D02*
X15616Y-9950D01*
X15616Y-9950D02*
X19816Y-9950D01*
G54D15*
X22534Y-8559D02*
X22734Y-8259D01*
X22534Y-9259D02*
X22534Y-8234D01*
X22534Y-8234D02*
X23134Y-8234D01*
X23134Y-8234D02*
X23134Y-9259D01*
X23134Y-9259D02*
X22534Y-9259D01*
X22456Y-10240D02*
X22056Y-10240D01*
X22056Y-10240D02*
X22056Y-9640D01*
X22056Y-9640D02*
X22456Y-9640D01*
X23016Y-9640D02*
X23416Y-9640D01*
X23416Y-9640D02*
X23416Y-10240D01*
X23416Y-10240D02*
X23016Y-10240D01*
X24523Y-8961D02*
X24123Y-8961D01*
X24123Y-8961D02*
X24123Y-8361D01*
X24123Y-8361D02*
X24523Y-8361D01*
X25083Y-8361D02*
X25483Y-8361D01*
X25483Y-8361D02*
X25483Y-8961D01*
X25483Y-8961D02*
X25083Y-8961D01*
X22337Y-14286D02*
X22337Y-13886D01*
X22337Y-13886D02*
X22937Y-13886D01*
X22937Y-13886D02*
X22937Y-14286D01*
X22937Y-14846D02*
X22937Y-15246D01*
X22937Y-15246D02*
X22337Y-15246D01*
X22337Y-15246D02*
X22337Y-14846D01*
X20684Y-10240D02*
X20284Y-10240D01*
X20284Y-10240D02*
X20284Y-9640D01*
X20284Y-9640D02*
X20684Y-9640D01*
X21244Y-9640D02*
X21644Y-9640D01*
X21644Y-9640D02*
X21644Y-10240D01*
X21644Y-10240D02*
X21244Y-10240D01*
X21244Y-10625D02*
X21644Y-10625D01*
X21644Y-10625D02*
X21644Y-11225D01*
X21644Y-11225D02*
X21244Y-11225D01*
X20684Y-11225D02*
X20284Y-11225D01*
X20284Y-11225D02*
X20284Y-10625D01*
X20284Y-10625D02*
X20684Y-10625D01*
X20684Y-9158D02*
X20284Y-9158D01*
X20284Y-9158D02*
X20284Y-8558D01*
X20284Y-8558D02*
X20684Y-8558D01*
X21244Y-8558D02*
X21644Y-8558D01*
X21644Y-8558D02*
X21644Y-9158D01*
X21644Y-9158D02*
X21244Y-9158D01*
G54D14*
X19133Y-19468D02*
X19133Y-18759D01*
X19488Y-19114D02*
G75*
G03X19488Y-19114I-354J0D01*
G74*
G01*
X16929Y-19685D02*
X19685Y-19685D01*
X19685Y-19685D02*
X19685Y-18031D01*
X16929Y-18031D02*
X16929Y-19685D01*
X16929Y-18031D02*
X19685Y-18031D01*
X22677Y-19468D02*
X22677Y-18759D01*
X23031Y-19114D02*
G75*
G03X23031Y-19114I-354J0D01*
G74*
G01*
X20472Y-19685D02*
X23228Y-19685D01*
X23228Y-19685D02*
X23228Y-18031D01*
X20472Y-18031D02*
X20472Y-19685D01*
X20472Y-18031D02*
X23228Y-18031D01*
X26220Y-19468D02*
X26220Y-18759D01*
X26574Y-19114D02*
G75*
G03X26574Y-19114I-354J0D01*
G74*
G01*
X24015Y-19685D02*
X26771Y-19685D01*
X26771Y-19685D02*
X26771Y-18031D01*
X24015Y-18031D02*
X24015Y-19685D01*
X24015Y-18031D02*
X26771Y-18031D01*
X10846Y-15393D02*
X11555Y-15393D01*
X11555Y-15393D02*
G75*
G03X11555Y-15393I-354J0D01*
G74*
G01*
X10629Y-13188D02*
X10629Y-15944D01*
X10629Y-15944D02*
X12283Y-15944D01*
X12283Y-13188D02*
X10629Y-13188D01*
X12283Y-13188D02*
X12283Y-15944D01*
G54D15*
X12406Y-17799D02*
X12406Y-18199D01*
X12406Y-18199D02*
X11806Y-18199D01*
X11806Y-18199D02*
X11806Y-17799D01*
X11806Y-17239D02*
X11806Y-16839D01*
X11806Y-16839D02*
X12406Y-16839D01*
X12406Y-16839D02*
X12406Y-17239D01*
X11323Y-17799D02*
X11323Y-18199D01*
X11323Y-18199D02*
X10723Y-18199D01*
X10723Y-18199D02*
X10723Y-17799D01*
X10723Y-17239D02*
X10723Y-16839D01*
X10723Y-16839D02*
X11323Y-16839D01*
X11323Y-16839D02*
X11323Y-17239D01*
X16441Y-11205D02*
X16441Y-11605D01*
X16441Y-11605D02*
X15841Y-11605D01*
X15841Y-11605D02*
X15841Y-11205D01*
X15841Y-10645D02*
X15841Y-10245D01*
X15841Y-10245D02*
X16441Y-10245D01*
X16441Y-10245D02*
X16441Y-10645D01*
G54D16*
X28724Y-18396D02*
X28724Y-19596D01*
X27624Y-18396D02*
X27624Y-19596D01*
X27624Y-19596D02*
X31824Y-19596D01*
X31824Y-19596D02*
X31824Y-18396D01*
X31824Y-18396D02*
X27624Y-18396D01*
G54D15*
X23637Y-17130D02*
X23237Y-17130D01*
X23237Y-17130D02*
X23237Y-16530D01*
X23237Y-16530D02*
X23637Y-16530D01*
X24197Y-16530D02*
X24597Y-16530D01*
X24597Y-16530D02*
X24597Y-17130D01*
X24597Y-17130D02*
X24197Y-17130D01*
X20782Y-17130D02*
X20382Y-17130D01*
X20382Y-17130D02*
X20382Y-16530D01*
X20382Y-16530D02*
X20782Y-16530D01*
X21342Y-16530D02*
X21742Y-16530D01*
X21742Y-16530D02*
X21742Y-17130D01*
X21742Y-17130D02*
X21342Y-17130D01*
G54D17*
X19181Y-15516D02*
X19181Y-13616D01*
X19181Y-13616D02*
X20581Y-13616D01*
X20581Y-13616D02*
X20581Y-15516D01*
X20581Y-15516D02*
X19181Y-15516D01*
X20481Y-15266D02*
G75*
G03X20481Y-15266I-150J0D01*
G74*
G01*
X13768Y-15516D02*
X13768Y-13616D01*
X13768Y-13616D02*
X15168Y-13616D01*
X15168Y-13616D02*
X15168Y-15516D01*
X15168Y-15516D02*
X13768Y-15516D01*
X15068Y-15266D02*
G75*
G03X15068Y-15266I-150J0D01*
G74*
G01*
G54D12*
X11574Y-37924D02*
X11574Y-37604D01*
X11651Y-37604D01*
X11696Y-37620D01*
X11727Y-37650D01*
X11742Y-37680D01*
X11757Y-37741D01*
X11757Y-37787D01*
X11742Y-37848D01*
X11727Y-37879D01*
X11696Y-37909D01*
X11651Y-37924D01*
X11574Y-37924D01*
X12062Y-37924D02*
X11879Y-37924D01*
X11971Y-37924D02*
X11971Y-37604D01*
X11940Y-37650D01*
X11910Y-37680D01*
X11879Y-37696D01*
X17018Y-37334D02*
X16912Y-37181D01*
X16835Y-37334D02*
X16835Y-37014D01*
X16957Y-37014D01*
X16988Y-37029D01*
X17003Y-37044D01*
X17018Y-37075D01*
X17018Y-37120D01*
X17003Y-37151D01*
X16988Y-37166D01*
X16957Y-37181D01*
X16835Y-37181D01*
X17323Y-37334D02*
X17140Y-37334D01*
X17232Y-37334D02*
X17232Y-37014D01*
X17201Y-37059D01*
X17171Y-37090D01*
X17140Y-37105D01*
X17430Y-37014D02*
X17628Y-37014D01*
X17521Y-37136D01*
X17567Y-37136D01*
X17597Y-37151D01*
X17612Y-37166D01*
X17628Y-37197D01*
X17628Y-37273D01*
X17612Y-37303D01*
X17597Y-37319D01*
X17567Y-37334D01*
X17475Y-37334D01*
X17445Y-37319D01*
X17430Y-37303D01*
X26762Y-39933D02*
X26656Y-39781D01*
X26579Y-39933D02*
X26579Y-39613D01*
X26701Y-39613D01*
X26732Y-39629D01*
X26747Y-39644D01*
X26762Y-39674D01*
X26762Y-39720D01*
X26747Y-39750D01*
X26732Y-39766D01*
X26701Y-39781D01*
X26579Y-39781D01*
X27067Y-39933D02*
X26884Y-39933D01*
X26976Y-39933D02*
X26976Y-39613D01*
X26945Y-39659D01*
X26915Y-39690D01*
X26884Y-39705D01*
X27372Y-39933D02*
X27189Y-39933D01*
X27280Y-39933D02*
X27280Y-39613D01*
X27250Y-39659D01*
X27219Y-39690D01*
X27189Y-39705D01*
X26762Y-38752D02*
X26656Y-38600D01*
X26579Y-38752D02*
X26579Y-38432D01*
X26701Y-38432D01*
X26732Y-38447D01*
X26747Y-38463D01*
X26762Y-38493D01*
X26762Y-38539D01*
X26747Y-38569D01*
X26732Y-38585D01*
X26701Y-38600D01*
X26579Y-38600D01*
X27067Y-38752D02*
X26884Y-38752D01*
X26976Y-38752D02*
X26976Y-38432D01*
X26945Y-38478D01*
X26915Y-38508D01*
X26884Y-38524D01*
X27265Y-38432D02*
X27296Y-38432D01*
X27326Y-38447D01*
X27341Y-38463D01*
X27357Y-38493D01*
X27372Y-38554D01*
X27372Y-38630D01*
X27357Y-38691D01*
X27341Y-38722D01*
X27326Y-38737D01*
X27296Y-38752D01*
X27265Y-38752D01*
X27235Y-38737D01*
X27219Y-38722D01*
X27204Y-38691D01*
X27189Y-38630D01*
X27189Y-38554D01*
X27204Y-38493D01*
X27219Y-38463D01*
X27235Y-38447D01*
X27265Y-38432D01*
X26915Y-37571D02*
X26808Y-37419D01*
X26732Y-37571D02*
X26732Y-37251D01*
X26854Y-37251D01*
X26884Y-37266D01*
X26899Y-37282D01*
X26915Y-37312D01*
X26915Y-37358D01*
X26899Y-37388D01*
X26884Y-37404D01*
X26854Y-37419D01*
X26732Y-37419D01*
X27098Y-37388D02*
X27067Y-37373D01*
X27052Y-37358D01*
X27037Y-37327D01*
X27037Y-37312D01*
X27052Y-37282D01*
X27067Y-37266D01*
X27098Y-37251D01*
X27158Y-37251D01*
X27189Y-37266D01*
X27204Y-37282D01*
X27219Y-37312D01*
X27219Y-37327D01*
X27204Y-37358D01*
X27189Y-37373D01*
X27158Y-37388D01*
X27098Y-37388D01*
X27067Y-37404D01*
X27052Y-37419D01*
X27037Y-37449D01*
X27037Y-37510D01*
X27052Y-37541D01*
X27067Y-37556D01*
X27098Y-37571D01*
X27158Y-37571D01*
X27189Y-37556D01*
X27204Y-37541D01*
X27219Y-37510D01*
X27219Y-37449D01*
X27204Y-37419D01*
X27189Y-37404D01*
X27158Y-37388D01*
X26915Y-36390D02*
X26808Y-36238D01*
X26732Y-36390D02*
X26732Y-36070D01*
X26854Y-36070D01*
X26884Y-36085D01*
X26899Y-36101D01*
X26915Y-36131D01*
X26915Y-36177D01*
X26899Y-36207D01*
X26884Y-36222D01*
X26854Y-36238D01*
X26732Y-36238D01*
X27204Y-36070D02*
X27052Y-36070D01*
X27037Y-36222D01*
X27052Y-36207D01*
X27082Y-36192D01*
X27158Y-36192D01*
X27189Y-36207D01*
X27204Y-36222D01*
X27219Y-36253D01*
X27219Y-36329D01*
X27204Y-36360D01*
X27189Y-36375D01*
X27158Y-36390D01*
X27082Y-36390D01*
X27052Y-36375D01*
X27037Y-36360D01*
X26915Y-35209D02*
X26808Y-35057D01*
X26732Y-35209D02*
X26732Y-34889D01*
X26854Y-34889D01*
X26884Y-34904D01*
X26899Y-34919D01*
X26915Y-34950D01*
X26915Y-34996D01*
X26899Y-35026D01*
X26884Y-35041D01*
X26854Y-35057D01*
X26732Y-35057D01*
X27021Y-34889D02*
X27219Y-34889D01*
X27113Y-35011D01*
X27158Y-35011D01*
X27189Y-35026D01*
X27204Y-35041D01*
X27219Y-35072D01*
X27219Y-35148D01*
X27204Y-35178D01*
X27189Y-35194D01*
X27158Y-35209D01*
X27067Y-35209D01*
X27037Y-35194D01*
X27021Y-35178D01*
X14696Y-36765D02*
X14544Y-36872D01*
X14696Y-36948D02*
X14376Y-36948D01*
X14376Y-36826D01*
X14391Y-36796D01*
X14406Y-36781D01*
X14437Y-36765D01*
X14483Y-36765D01*
X14513Y-36781D01*
X14528Y-36796D01*
X14544Y-36826D01*
X14544Y-36948D01*
X14376Y-36659D02*
X14376Y-36445D01*
X14696Y-36583D01*
X10759Y-34797D02*
X10607Y-34904D01*
X10759Y-34980D02*
X10439Y-34980D01*
X10439Y-34858D01*
X10454Y-34827D01*
X10469Y-34812D01*
X10500Y-34797D01*
X10546Y-34797D01*
X10576Y-34812D01*
X10591Y-34827D01*
X10607Y-34858D01*
X10607Y-34980D01*
X10469Y-34675D02*
X10454Y-34660D01*
X10439Y-34629D01*
X10439Y-34553D01*
X10454Y-34523D01*
X10469Y-34507D01*
X10500Y-34492D01*
X10530Y-34492D01*
X10576Y-34507D01*
X10759Y-34690D01*
X10759Y-34492D01*
X14665Y-34797D02*
X14681Y-34812D01*
X14696Y-34858D01*
X14696Y-34888D01*
X14681Y-34934D01*
X14650Y-34965D01*
X14620Y-34980D01*
X14559Y-34995D01*
X14513Y-34995D01*
X14452Y-34980D01*
X14422Y-34965D01*
X14391Y-34934D01*
X14376Y-34888D01*
X14376Y-34858D01*
X14391Y-34812D01*
X14406Y-34797D01*
X14696Y-34492D02*
X14696Y-34675D01*
X14696Y-34584D02*
X14376Y-34584D01*
X14422Y-34614D01*
X14452Y-34645D01*
X14467Y-34675D01*
X18002Y-37334D02*
X17896Y-37181D01*
X17820Y-37334D02*
X17820Y-37014D01*
X17941Y-37014D01*
X17972Y-37029D01*
X17987Y-37044D01*
X18002Y-37075D01*
X18002Y-37120D01*
X17987Y-37151D01*
X17972Y-37166D01*
X17941Y-37181D01*
X17820Y-37181D01*
X18307Y-37334D02*
X18124Y-37334D01*
X18216Y-37334D02*
X18216Y-37014D01*
X18185Y-37059D01*
X18155Y-37090D01*
X18124Y-37105D01*
X18429Y-37044D02*
X18444Y-37029D01*
X18475Y-37014D01*
X18551Y-37014D01*
X18581Y-37029D01*
X18597Y-37044D01*
X18612Y-37075D01*
X18612Y-37105D01*
X18597Y-37151D01*
X18414Y-37334D01*
X18612Y-37334D01*
X19828Y-37402D02*
X19813Y-37417D01*
X19767Y-37432D01*
X19737Y-37432D01*
X19691Y-37417D01*
X19660Y-37386D01*
X19645Y-37356D01*
X19630Y-37295D01*
X19630Y-37249D01*
X19645Y-37188D01*
X19660Y-37158D01*
X19691Y-37127D01*
X19737Y-37112D01*
X19767Y-37112D01*
X19813Y-37127D01*
X19828Y-37143D01*
X20118Y-37112D02*
X19965Y-37112D01*
X19950Y-37265D01*
X19965Y-37249D01*
X19996Y-37234D01*
X20072Y-37234D01*
X20102Y-37249D01*
X20118Y-37265D01*
X20133Y-37295D01*
X20133Y-37371D01*
X20118Y-37402D01*
X20102Y-37417D01*
X20072Y-37432D01*
X19996Y-37432D01*
X19965Y-37417D01*
X19950Y-37402D01*
X14513Y-41763D02*
X14406Y-41611D01*
X14330Y-41763D02*
X14330Y-41443D01*
X14452Y-41443D01*
X14483Y-41458D01*
X14498Y-41473D01*
X14513Y-41504D01*
X14513Y-41550D01*
X14498Y-41580D01*
X14483Y-41595D01*
X14452Y-41611D01*
X14330Y-41611D01*
X14665Y-41763D02*
X14726Y-41763D01*
X14757Y-41748D01*
X14772Y-41732D01*
X14803Y-41687D01*
X14818Y-41626D01*
X14818Y-41504D01*
X14803Y-41473D01*
X14787Y-41458D01*
X14757Y-41443D01*
X14696Y-41443D01*
X14665Y-41458D01*
X14650Y-41473D01*
X14635Y-41504D01*
X14635Y-41580D01*
X14650Y-41611D01*
X14665Y-41626D01*
X14696Y-41641D01*
X14757Y-41641D01*
X14787Y-41626D01*
X14803Y-41611D01*
X14818Y-41580D01*
X14665Y-35781D02*
X14681Y-35796D01*
X14696Y-35842D01*
X14696Y-35873D01*
X14681Y-35918D01*
X14650Y-35949D01*
X14620Y-35964D01*
X14559Y-35979D01*
X14513Y-35979D01*
X14452Y-35964D01*
X14422Y-35949D01*
X14391Y-35918D01*
X14376Y-35873D01*
X14376Y-35842D01*
X14391Y-35796D01*
X14406Y-35781D01*
X14406Y-35659D02*
X14391Y-35644D01*
X14376Y-35614D01*
X14376Y-35537D01*
X14391Y-35507D01*
X14406Y-35492D01*
X14437Y-35476D01*
X14467Y-35476D01*
X14513Y-35492D01*
X14696Y-35675D01*
X14696Y-35476D01*
X13529Y-41763D02*
X13422Y-41611D01*
X13346Y-41763D02*
X13346Y-41443D01*
X13468Y-41443D01*
X13498Y-41458D01*
X13514Y-41473D01*
X13529Y-41504D01*
X13529Y-41550D01*
X13514Y-41580D01*
X13498Y-41595D01*
X13468Y-41611D01*
X13346Y-41611D01*
X13803Y-41443D02*
X13742Y-41443D01*
X13712Y-41458D01*
X13696Y-41473D01*
X13666Y-41519D01*
X13651Y-41580D01*
X13651Y-41702D01*
X13666Y-41732D01*
X13681Y-41748D01*
X13712Y-41763D01*
X13773Y-41763D01*
X13803Y-41748D01*
X13818Y-41732D01*
X13834Y-41702D01*
X13834Y-41626D01*
X13818Y-41595D01*
X13803Y-41580D01*
X13773Y-41565D01*
X13712Y-41565D01*
X13681Y-41580D01*
X13666Y-41595D01*
X13651Y-41626D01*
X10759Y-35781D02*
X10607Y-35888D01*
X10759Y-35964D02*
X10439Y-35964D01*
X10439Y-35842D01*
X10454Y-35812D01*
X10469Y-35796D01*
X10500Y-35781D01*
X10546Y-35781D01*
X10576Y-35796D01*
X10591Y-35812D01*
X10607Y-35842D01*
X10607Y-35964D01*
X10546Y-35507D02*
X10759Y-35507D01*
X10424Y-35583D02*
X10652Y-35659D01*
X10652Y-35461D01*
X13627Y-33889D02*
X13521Y-33736D01*
X13444Y-33889D02*
X13444Y-33569D01*
X13566Y-33569D01*
X13597Y-33584D01*
X13612Y-33599D01*
X13627Y-33630D01*
X13627Y-33676D01*
X13612Y-33706D01*
X13597Y-33721D01*
X13566Y-33736D01*
X13444Y-33736D01*
X13932Y-33889D02*
X13749Y-33889D01*
X13841Y-33889D02*
X13841Y-33569D01*
X13810Y-33615D01*
X13780Y-33645D01*
X13749Y-33660D01*
X23287Y-33594D02*
X23287Y-33274D01*
X23363Y-33274D01*
X23409Y-33289D01*
X23439Y-33319D01*
X23455Y-33350D01*
X23470Y-33411D01*
X23470Y-33456D01*
X23455Y-33517D01*
X23439Y-33548D01*
X23409Y-33578D01*
X23363Y-33594D01*
X23287Y-33594D01*
X23592Y-33304D02*
X23607Y-33289D01*
X23637Y-33274D01*
X23714Y-33274D01*
X23744Y-33289D01*
X23759Y-33304D01*
X23775Y-33335D01*
X23775Y-33365D01*
X23759Y-33411D01*
X23576Y-33594D01*
X23775Y-33594D01*
X22530Y-36054D02*
X22423Y-35902D01*
X22347Y-36054D02*
X22347Y-35734D01*
X22469Y-35734D01*
X22500Y-35749D01*
X22515Y-35765D01*
X22530Y-35795D01*
X22530Y-35841D01*
X22515Y-35871D01*
X22500Y-35887D01*
X22469Y-35902D01*
X22347Y-35902D01*
X22835Y-36054D02*
X22652Y-36054D01*
X22743Y-36054D02*
X22743Y-35734D01*
X22713Y-35780D01*
X22682Y-35810D01*
X22652Y-35826D01*
X23109Y-35734D02*
X23048Y-35734D01*
X23018Y-35749D01*
X23002Y-35765D01*
X22972Y-35810D01*
X22957Y-35871D01*
X22957Y-35993D01*
X22972Y-36024D01*
X22987Y-36039D01*
X23018Y-36054D01*
X23079Y-36054D01*
X23109Y-36039D01*
X23124Y-36024D01*
X23140Y-35993D01*
X23140Y-35917D01*
X23124Y-35887D01*
X23109Y-35871D01*
X23079Y-35856D01*
X23018Y-35856D01*
X22987Y-35871D01*
X22972Y-35887D01*
X22957Y-35917D01*
X25143Y-34646D02*
X25128Y-34661D01*
X25082Y-34676D01*
X25052Y-34676D01*
X25006Y-34661D01*
X24975Y-34631D01*
X24960Y-34600D01*
X24945Y-34539D01*
X24945Y-34493D01*
X24960Y-34432D01*
X24975Y-34402D01*
X25006Y-34372D01*
X25052Y-34356D01*
X25082Y-34356D01*
X25128Y-34372D01*
X25143Y-34387D01*
X25295Y-34676D02*
X25356Y-34676D01*
X25387Y-34661D01*
X25402Y-34646D01*
X25433Y-34600D01*
X25448Y-34539D01*
X25448Y-34417D01*
X25433Y-34387D01*
X25417Y-34372D01*
X25387Y-34356D01*
X25326Y-34356D01*
X25295Y-34372D01*
X25280Y-34387D01*
X25265Y-34417D01*
X25265Y-34493D01*
X25280Y-34524D01*
X25295Y-34539D01*
X25326Y-34554D01*
X25387Y-34554D01*
X25417Y-34539D01*
X25433Y-34524D01*
X25448Y-34493D01*
X22432Y-38810D02*
X22325Y-38658D01*
X22249Y-38810D02*
X22249Y-38490D01*
X22371Y-38490D01*
X22401Y-38505D01*
X22416Y-38521D01*
X22432Y-38551D01*
X22432Y-38597D01*
X22416Y-38627D01*
X22401Y-38643D01*
X22371Y-38658D01*
X22249Y-38658D01*
X22736Y-38810D02*
X22553Y-38810D01*
X22645Y-38810D02*
X22645Y-38490D01*
X22614Y-38536D01*
X22584Y-38566D01*
X22553Y-38582D01*
X22843Y-38490D02*
X23056Y-38490D01*
X22919Y-38810D01*
X19479Y-35661D02*
X19372Y-35508D01*
X19296Y-35661D02*
X19296Y-35341D01*
X19418Y-35341D01*
X19448Y-35356D01*
X19464Y-35371D01*
X19479Y-35401D01*
X19479Y-35447D01*
X19464Y-35478D01*
X19448Y-35493D01*
X19418Y-35508D01*
X19296Y-35508D01*
X19784Y-35661D02*
X19601Y-35661D01*
X19692Y-35661D02*
X19692Y-35341D01*
X19662Y-35386D01*
X19631Y-35417D01*
X19601Y-35432D01*
X20058Y-35447D02*
X20058Y-35661D01*
X19982Y-35325D02*
X19905Y-35554D01*
X20104Y-35554D01*
X19479Y-36645D02*
X19372Y-36492D01*
X19296Y-36645D02*
X19296Y-36325D01*
X19418Y-36325D01*
X19448Y-36340D01*
X19464Y-36355D01*
X19479Y-36386D01*
X19479Y-36431D01*
X19464Y-36462D01*
X19448Y-36477D01*
X19418Y-36492D01*
X19296Y-36492D01*
X19784Y-36645D02*
X19601Y-36645D01*
X19692Y-36645D02*
X19692Y-36325D01*
X19662Y-36370D01*
X19631Y-36401D01*
X19601Y-36416D01*
X20073Y-36325D02*
X19921Y-36325D01*
X19905Y-36477D01*
X19921Y-36462D01*
X19951Y-36447D01*
X20027Y-36447D01*
X20058Y-36462D01*
X20073Y-36477D01*
X20088Y-36508D01*
X20088Y-36584D01*
X20073Y-36614D01*
X20058Y-36630D01*
X20027Y-36645D01*
X19951Y-36645D01*
X19921Y-36630D01*
X19905Y-36614D01*
X20911Y-33604D02*
X20895Y-33619D01*
X20850Y-33634D01*
X20819Y-33634D01*
X20774Y-33619D01*
X20743Y-33588D01*
X20728Y-33558D01*
X20713Y-33497D01*
X20713Y-33451D01*
X20728Y-33390D01*
X20743Y-33360D01*
X20774Y-33329D01*
X20819Y-33314D01*
X20850Y-33314D01*
X20895Y-33329D01*
X20911Y-33345D01*
X21017Y-33314D02*
X21231Y-33314D01*
X21094Y-33634D01*
X11900Y-41763D02*
X11793Y-41611D01*
X11717Y-41763D02*
X11717Y-41443D01*
X11839Y-41443D01*
X11870Y-41458D01*
X11885Y-41473D01*
X11900Y-41504D01*
X11900Y-41550D01*
X11885Y-41580D01*
X11870Y-41595D01*
X11839Y-41611D01*
X11717Y-41611D01*
X12205Y-41763D02*
X12022Y-41763D01*
X12113Y-41763D02*
X12113Y-41443D01*
X12083Y-41489D01*
X12052Y-41519D01*
X12022Y-41534D01*
X12388Y-41580D02*
X12357Y-41565D01*
X12342Y-41550D01*
X12327Y-41519D01*
X12327Y-41504D01*
X12342Y-41473D01*
X12357Y-41458D01*
X12388Y-41443D01*
X12449Y-41443D01*
X12479Y-41458D01*
X12494Y-41473D01*
X12510Y-41504D01*
X12510Y-41519D01*
X12494Y-41550D01*
X12479Y-41565D01*
X12449Y-41580D01*
X12388Y-41580D01*
X12357Y-41595D01*
X12342Y-41611D01*
X12327Y-41641D01*
X12327Y-41702D01*
X12342Y-41732D01*
X12357Y-41748D01*
X12388Y-41763D01*
X12449Y-41763D01*
X12479Y-41748D01*
X12494Y-41732D01*
X12510Y-41702D01*
X12510Y-41641D01*
X12494Y-41611D01*
X12479Y-41595D01*
X12449Y-41580D01*
X10817Y-41763D02*
X10711Y-41611D01*
X10635Y-41763D02*
X10635Y-41443D01*
X10756Y-41443D01*
X10787Y-41458D01*
X10802Y-41473D01*
X10817Y-41504D01*
X10817Y-41550D01*
X10802Y-41580D01*
X10787Y-41595D01*
X10756Y-41611D01*
X10635Y-41611D01*
X11122Y-41763D02*
X10939Y-41763D01*
X11031Y-41763D02*
X11031Y-41443D01*
X11000Y-41489D01*
X10970Y-41519D01*
X10939Y-41534D01*
X11275Y-41763D02*
X11336Y-41763D01*
X11366Y-41748D01*
X11381Y-41732D01*
X11412Y-41687D01*
X11427Y-41626D01*
X11427Y-41504D01*
X11412Y-41473D01*
X11396Y-41458D01*
X11366Y-41443D01*
X11305Y-41443D01*
X11275Y-41458D01*
X11259Y-41473D01*
X11244Y-41504D01*
X11244Y-41580D01*
X11259Y-41611D01*
X11275Y-41626D01*
X11305Y-41641D01*
X11366Y-41641D01*
X11396Y-41626D01*
X11412Y-41611D01*
X11427Y-41580D01*
X15837Y-37334D02*
X15730Y-37181D01*
X15654Y-37334D02*
X15654Y-37014D01*
X15776Y-37014D01*
X15807Y-37029D01*
X15822Y-37044D01*
X15837Y-37075D01*
X15837Y-37120D01*
X15822Y-37151D01*
X15807Y-37166D01*
X15776Y-37181D01*
X15654Y-37181D01*
X15959Y-37044D02*
X15974Y-37029D01*
X16005Y-37014D01*
X16081Y-37014D01*
X16111Y-37029D01*
X16127Y-37044D01*
X16142Y-37075D01*
X16142Y-37105D01*
X16127Y-37151D01*
X15944Y-37334D01*
X16142Y-37334D01*
X16340Y-37014D02*
X16370Y-37014D01*
X16401Y-37029D01*
X16416Y-37044D01*
X16431Y-37075D01*
X16447Y-37136D01*
X16447Y-37212D01*
X16431Y-37273D01*
X16416Y-37303D01*
X16401Y-37319D01*
X16370Y-37334D01*
X16340Y-37334D01*
X16309Y-37319D01*
X16294Y-37303D01*
X16279Y-37273D01*
X16264Y-37212D01*
X16264Y-37136D01*
X16279Y-37075D01*
X16294Y-37044D01*
X16309Y-37029D01*
X16340Y-37014D01*
X23062Y-42233D02*
X22910Y-42339D01*
X23062Y-42416D02*
X22742Y-42416D01*
X22742Y-42294D01*
X22757Y-42263D01*
X22773Y-42248D01*
X22803Y-42233D01*
X22849Y-42233D01*
X22879Y-42248D01*
X22894Y-42263D01*
X22910Y-42294D01*
X22910Y-42416D01*
X22773Y-42111D02*
X22757Y-42096D01*
X22742Y-42065D01*
X22742Y-41989D01*
X22757Y-41958D01*
X22773Y-41943D01*
X22803Y-41928D01*
X22834Y-41928D01*
X22879Y-41943D01*
X23062Y-42126D01*
X23062Y-41928D01*
X23062Y-41623D02*
X23062Y-41806D01*
X23062Y-41715D02*
X22742Y-41715D01*
X22788Y-41745D01*
X22818Y-41776D01*
X22834Y-41806D01*
X20208Y-42331D02*
X20055Y-42438D01*
X20208Y-42514D02*
X19888Y-42514D01*
X19888Y-42392D01*
X19903Y-42362D01*
X19918Y-42346D01*
X19949Y-42331D01*
X19994Y-42331D01*
X20025Y-42346D01*
X20040Y-42362D01*
X20055Y-42392D01*
X20055Y-42514D01*
X19918Y-42209D02*
X19903Y-42194D01*
X19888Y-42164D01*
X19888Y-42087D01*
X19903Y-42057D01*
X19918Y-42042D01*
X19949Y-42026D01*
X19979Y-42026D01*
X20025Y-42042D01*
X20208Y-42225D01*
X20208Y-42026D01*
X19918Y-41905D02*
X19903Y-41889D01*
X19888Y-41859D01*
X19888Y-41783D01*
X19903Y-41752D01*
X19918Y-41737D01*
X19949Y-41722D01*
X19979Y-41722D01*
X20025Y-41737D01*
X20208Y-41920D01*
X20208Y-41722D01*
G54D18*
X19403Y-39954D02*
X19646Y-39954D01*
X19674Y-39942D01*
X19689Y-39930D01*
X19703Y-39906D01*
X19703Y-39859D01*
X19689Y-39835D01*
X19674Y-39823D01*
X19646Y-39811D01*
X19403Y-39811D01*
X19703Y-39561D02*
X19703Y-39704D01*
X19703Y-39632D02*
X19403Y-39632D01*
X19446Y-39656D01*
X19474Y-39680D01*
X19489Y-39704D01*
G54D19*
G54D18*
X13989Y-39954D02*
X14232Y-39954D01*
X14261Y-39942D01*
X14275Y-39930D01*
X14289Y-39906D01*
X14289Y-39859D01*
X14275Y-39835D01*
X14261Y-39823D01*
X14232Y-39811D01*
X13989Y-39811D01*
X14018Y-39704D02*
X14004Y-39692D01*
X13989Y-39668D01*
X13989Y-39609D01*
X14004Y-39585D01*
X14018Y-39573D01*
X14047Y-39561D01*
X14075Y-39561D01*
X14118Y-39573D01*
X14289Y-39716D01*
X14289Y-39561D01*
G54D19*
G54D18*
X13989Y-27355D02*
X14232Y-27355D01*
X14261Y-27343D01*
X14275Y-27332D01*
X14289Y-27308D01*
X14289Y-27260D01*
X14275Y-27236D01*
X14261Y-27224D01*
X14232Y-27212D01*
X13989Y-27212D01*
X14018Y-27105D02*
X14004Y-27093D01*
X13989Y-27070D01*
X13989Y-27010D01*
X14004Y-26986D01*
X14018Y-26974D01*
X14047Y-26962D01*
X14075Y-26962D01*
X14118Y-26974D01*
X14289Y-27117D01*
X14289Y-26962D01*
G54D19*
G54D18*
X19403Y-27355D02*
X19646Y-27355D01*
X19674Y-27343D01*
X19689Y-27332D01*
X19703Y-27308D01*
X19703Y-27260D01*
X19689Y-27236D01*
X19674Y-27224D01*
X19646Y-27212D01*
X19403Y-27212D01*
X19703Y-26962D02*
X19703Y-27105D01*
X19703Y-27034D02*
X19403Y-27034D01*
X19446Y-27058D01*
X19474Y-27082D01*
X19489Y-27105D01*
G54D19*
G54D12*
X20208Y-29733D02*
X20055Y-29839D01*
X20208Y-29916D02*
X19888Y-29916D01*
X19888Y-29794D01*
X19903Y-29763D01*
X19918Y-29748D01*
X19949Y-29733D01*
X19994Y-29733D01*
X20025Y-29748D01*
X20040Y-29763D01*
X20055Y-29794D01*
X20055Y-29916D01*
X19918Y-29611D02*
X19903Y-29596D01*
X19888Y-29565D01*
X19888Y-29489D01*
X19903Y-29458D01*
X19918Y-29443D01*
X19949Y-29428D01*
X19979Y-29428D01*
X20025Y-29443D01*
X20208Y-29626D01*
X20208Y-29428D01*
X19918Y-29306D02*
X19903Y-29291D01*
X19888Y-29260D01*
X19888Y-29184D01*
X19903Y-29154D01*
X19918Y-29138D01*
X19949Y-29123D01*
X19979Y-29123D01*
X20025Y-29138D01*
X20208Y-29321D01*
X20208Y-29123D01*
X23062Y-29634D02*
X22910Y-29741D01*
X23062Y-29817D02*
X22742Y-29817D01*
X22742Y-29695D01*
X22757Y-29665D01*
X22773Y-29650D01*
X22803Y-29634D01*
X22849Y-29634D01*
X22879Y-29650D01*
X22894Y-29665D01*
X22910Y-29695D01*
X22910Y-29817D01*
X22773Y-29512D02*
X22757Y-29497D01*
X22742Y-29467D01*
X22742Y-29391D01*
X22757Y-29360D01*
X22773Y-29345D01*
X22803Y-29330D01*
X22834Y-29330D01*
X22879Y-29345D01*
X23062Y-29528D01*
X23062Y-29330D01*
X23062Y-29025D02*
X23062Y-29208D01*
X23062Y-29116D02*
X22742Y-29116D01*
X22788Y-29147D01*
X22818Y-29177D01*
X22834Y-29208D01*
X15837Y-24735D02*
X15730Y-24583D01*
X15654Y-24735D02*
X15654Y-24415D01*
X15776Y-24415D01*
X15807Y-24431D01*
X15822Y-24446D01*
X15837Y-24476D01*
X15837Y-24522D01*
X15822Y-24552D01*
X15807Y-24568D01*
X15776Y-24583D01*
X15654Y-24583D01*
X15959Y-24446D02*
X15974Y-24431D01*
X16005Y-24415D01*
X16081Y-24415D01*
X16111Y-24431D01*
X16127Y-24446D01*
X16142Y-24476D01*
X16142Y-24507D01*
X16127Y-24552D01*
X15944Y-24735D01*
X16142Y-24735D01*
X16340Y-24415D02*
X16370Y-24415D01*
X16401Y-24431D01*
X16416Y-24446D01*
X16431Y-24476D01*
X16447Y-24537D01*
X16447Y-24613D01*
X16431Y-24674D01*
X16416Y-24705D01*
X16401Y-24720D01*
X16370Y-24735D01*
X16340Y-24735D01*
X16309Y-24720D01*
X16294Y-24705D01*
X16279Y-24674D01*
X16264Y-24613D01*
X16264Y-24537D01*
X16279Y-24476D01*
X16294Y-24446D01*
X16309Y-24431D01*
X16340Y-24415D01*
X10817Y-29164D02*
X10711Y-29012D01*
X10635Y-29164D02*
X10635Y-28844D01*
X10756Y-28844D01*
X10787Y-28860D01*
X10802Y-28875D01*
X10817Y-28905D01*
X10817Y-28951D01*
X10802Y-28982D01*
X10787Y-28997D01*
X10756Y-29012D01*
X10635Y-29012D01*
X11122Y-29164D02*
X10939Y-29164D01*
X11031Y-29164D02*
X11031Y-28844D01*
X11000Y-28890D01*
X10970Y-28921D01*
X10939Y-28936D01*
X11275Y-29164D02*
X11336Y-29164D01*
X11366Y-29149D01*
X11381Y-29134D01*
X11412Y-29088D01*
X11427Y-29027D01*
X11427Y-28905D01*
X11412Y-28875D01*
X11396Y-28860D01*
X11366Y-28844D01*
X11305Y-28844D01*
X11275Y-28860D01*
X11259Y-28875D01*
X11244Y-28905D01*
X11244Y-28982D01*
X11259Y-29012D01*
X11275Y-29027D01*
X11305Y-29043D01*
X11366Y-29043D01*
X11396Y-29027D01*
X11412Y-29012D01*
X11427Y-28982D01*
X11900Y-29164D02*
X11793Y-29012D01*
X11717Y-29164D02*
X11717Y-28844D01*
X11839Y-28844D01*
X11870Y-28860D01*
X11885Y-28875D01*
X11900Y-28905D01*
X11900Y-28951D01*
X11885Y-28982D01*
X11870Y-28997D01*
X11839Y-29012D01*
X11717Y-29012D01*
X12205Y-29164D02*
X12022Y-29164D01*
X12113Y-29164D02*
X12113Y-28844D01*
X12083Y-28890D01*
X12052Y-28921D01*
X12022Y-28936D01*
X12388Y-28982D02*
X12357Y-28966D01*
X12342Y-28951D01*
X12327Y-28921D01*
X12327Y-28905D01*
X12342Y-28875D01*
X12357Y-28860D01*
X12388Y-28844D01*
X12449Y-28844D01*
X12479Y-28860D01*
X12494Y-28875D01*
X12510Y-28905D01*
X12510Y-28921D01*
X12494Y-28951D01*
X12479Y-28966D01*
X12449Y-28982D01*
X12388Y-28982D01*
X12357Y-28997D01*
X12342Y-29012D01*
X12327Y-29043D01*
X12327Y-29104D01*
X12342Y-29134D01*
X12357Y-29149D01*
X12388Y-29164D01*
X12449Y-29164D01*
X12479Y-29149D01*
X12494Y-29134D01*
X12510Y-29104D01*
X12510Y-29043D01*
X12494Y-29012D01*
X12479Y-28997D01*
X12449Y-28982D01*
X20911Y-21005D02*
X20895Y-21020D01*
X20850Y-21036D01*
X20819Y-21036D01*
X20774Y-21020D01*
X20743Y-20990D01*
X20728Y-20960D01*
X20713Y-20899D01*
X20713Y-20853D01*
X20728Y-20792D01*
X20743Y-20761D01*
X20774Y-20731D01*
X20819Y-20716D01*
X20850Y-20716D01*
X20895Y-20731D01*
X20911Y-20746D01*
X21017Y-20716D02*
X21231Y-20716D01*
X21094Y-21036D01*
X19479Y-24046D02*
X19372Y-23894D01*
X19296Y-24046D02*
X19296Y-23726D01*
X19418Y-23726D01*
X19448Y-23742D01*
X19464Y-23757D01*
X19479Y-23787D01*
X19479Y-23833D01*
X19464Y-23863D01*
X19448Y-23879D01*
X19418Y-23894D01*
X19296Y-23894D01*
X19784Y-24046D02*
X19601Y-24046D01*
X19692Y-24046D02*
X19692Y-23726D01*
X19662Y-23772D01*
X19631Y-23803D01*
X19601Y-23818D01*
X20073Y-23726D02*
X19921Y-23726D01*
X19905Y-23879D01*
X19921Y-23863D01*
X19951Y-23848D01*
X20027Y-23848D01*
X20058Y-23863D01*
X20073Y-23879D01*
X20088Y-23909D01*
X20088Y-23985D01*
X20073Y-24016D01*
X20058Y-24031D01*
X20027Y-24046D01*
X19951Y-24046D01*
X19921Y-24031D01*
X19905Y-24016D01*
X19479Y-23062D02*
X19372Y-22910D01*
X19296Y-23062D02*
X19296Y-22742D01*
X19418Y-22742D01*
X19448Y-22757D01*
X19464Y-22773D01*
X19479Y-22803D01*
X19479Y-22849D01*
X19464Y-22879D01*
X19448Y-22894D01*
X19418Y-22910D01*
X19296Y-22910D01*
X19784Y-23062D02*
X19601Y-23062D01*
X19692Y-23062D02*
X19692Y-22742D01*
X19662Y-22788D01*
X19631Y-22818D01*
X19601Y-22834D01*
X20058Y-22849D02*
X20058Y-23062D01*
X19982Y-22727D02*
X19905Y-22955D01*
X20104Y-22955D01*
X22432Y-26212D02*
X22325Y-26059D01*
X22249Y-26212D02*
X22249Y-25892D01*
X22371Y-25892D01*
X22401Y-25907D01*
X22416Y-25922D01*
X22432Y-25953D01*
X22432Y-25998D01*
X22416Y-26029D01*
X22401Y-26044D01*
X22371Y-26059D01*
X22249Y-26059D01*
X22736Y-26212D02*
X22553Y-26212D01*
X22645Y-26212D02*
X22645Y-25892D01*
X22614Y-25937D01*
X22584Y-25968D01*
X22553Y-25983D01*
X22843Y-25892D02*
X23056Y-25892D01*
X22919Y-26212D01*
X25143Y-22047D02*
X25128Y-22063D01*
X25082Y-22078D01*
X25052Y-22078D01*
X25006Y-22063D01*
X24975Y-22032D01*
X24960Y-22002D01*
X24945Y-21941D01*
X24945Y-21895D01*
X24960Y-21834D01*
X24975Y-21804D01*
X25006Y-21773D01*
X25052Y-21758D01*
X25082Y-21758D01*
X25128Y-21773D01*
X25143Y-21788D01*
X25295Y-22078D02*
X25356Y-22078D01*
X25387Y-22063D01*
X25402Y-22047D01*
X25433Y-22002D01*
X25448Y-21941D01*
X25448Y-21819D01*
X25433Y-21788D01*
X25417Y-21773D01*
X25387Y-21758D01*
X25326Y-21758D01*
X25295Y-21773D01*
X25280Y-21788D01*
X25265Y-21819D01*
X25265Y-21895D01*
X25280Y-21925D01*
X25295Y-21941D01*
X25326Y-21956D01*
X25387Y-21956D01*
X25417Y-21941D01*
X25433Y-21925D01*
X25448Y-21895D01*
X22530Y-23456D02*
X22423Y-23303D01*
X22347Y-23456D02*
X22347Y-23136D01*
X22469Y-23136D01*
X22500Y-23151D01*
X22515Y-23166D01*
X22530Y-23197D01*
X22530Y-23242D01*
X22515Y-23273D01*
X22500Y-23288D01*
X22469Y-23303D01*
X22347Y-23303D01*
X22835Y-23456D02*
X22652Y-23456D01*
X22743Y-23456D02*
X22743Y-23136D01*
X22713Y-23182D01*
X22682Y-23212D01*
X22652Y-23227D01*
X23109Y-23136D02*
X23048Y-23136D01*
X23018Y-23151D01*
X23002Y-23166D01*
X22972Y-23212D01*
X22957Y-23273D01*
X22957Y-23395D01*
X22972Y-23425D01*
X22987Y-23441D01*
X23018Y-23456D01*
X23079Y-23456D01*
X23109Y-23441D01*
X23124Y-23425D01*
X23140Y-23395D01*
X23140Y-23319D01*
X23124Y-23288D01*
X23109Y-23273D01*
X23079Y-23258D01*
X23018Y-23258D01*
X22987Y-23273D01*
X22972Y-23288D01*
X22957Y-23319D01*
X23287Y-20995D02*
X23287Y-20675D01*
X23363Y-20675D01*
X23409Y-20690D01*
X23439Y-20721D01*
X23455Y-20751D01*
X23470Y-20812D01*
X23470Y-20858D01*
X23455Y-20919D01*
X23439Y-20949D01*
X23409Y-20980D01*
X23363Y-20995D01*
X23287Y-20995D01*
X23592Y-20706D02*
X23607Y-20690D01*
X23637Y-20675D01*
X23714Y-20675D01*
X23744Y-20690D01*
X23759Y-20706D01*
X23775Y-20736D01*
X23775Y-20767D01*
X23759Y-20812D01*
X23576Y-20995D01*
X23775Y-20995D01*
X13627Y-21290D02*
X13521Y-21138D01*
X13444Y-21290D02*
X13444Y-20970D01*
X13566Y-20970D01*
X13597Y-20986D01*
X13612Y-21001D01*
X13627Y-21031D01*
X13627Y-21077D01*
X13612Y-21108D01*
X13597Y-21123D01*
X13566Y-21138D01*
X13444Y-21138D01*
X13932Y-21290D02*
X13749Y-21290D01*
X13841Y-21290D02*
X13841Y-20970D01*
X13810Y-21016D01*
X13780Y-21047D01*
X13749Y-21062D01*
X10759Y-23183D02*
X10607Y-23289D01*
X10759Y-23366D02*
X10439Y-23366D01*
X10439Y-23244D01*
X10454Y-23213D01*
X10469Y-23198D01*
X10500Y-23183D01*
X10546Y-23183D01*
X10576Y-23198D01*
X10591Y-23213D01*
X10607Y-23244D01*
X10607Y-23366D01*
X10546Y-22908D02*
X10759Y-22908D01*
X10424Y-22985D02*
X10652Y-23061D01*
X10652Y-22863D01*
X13529Y-29164D02*
X13422Y-29012D01*
X13346Y-29164D02*
X13346Y-28844D01*
X13468Y-28844D01*
X13498Y-28860D01*
X13514Y-28875D01*
X13529Y-28905D01*
X13529Y-28951D01*
X13514Y-28982D01*
X13498Y-28997D01*
X13468Y-29012D01*
X13346Y-29012D01*
X13803Y-28844D02*
X13742Y-28844D01*
X13712Y-28860D01*
X13696Y-28875D01*
X13666Y-28921D01*
X13651Y-28982D01*
X13651Y-29104D01*
X13666Y-29134D01*
X13681Y-29149D01*
X13712Y-29164D01*
X13773Y-29164D01*
X13803Y-29149D01*
X13818Y-29134D01*
X13834Y-29104D01*
X13834Y-29027D01*
X13818Y-28997D01*
X13803Y-28982D01*
X13773Y-28966D01*
X13712Y-28966D01*
X13681Y-28982D01*
X13666Y-28997D01*
X13651Y-29027D01*
X14665Y-23183D02*
X14681Y-23198D01*
X14696Y-23244D01*
X14696Y-23274D01*
X14681Y-23320D01*
X14650Y-23350D01*
X14620Y-23366D01*
X14559Y-23381D01*
X14513Y-23381D01*
X14452Y-23366D01*
X14422Y-23350D01*
X14391Y-23320D01*
X14376Y-23274D01*
X14376Y-23244D01*
X14391Y-23198D01*
X14406Y-23183D01*
X14406Y-23061D02*
X14391Y-23046D01*
X14376Y-23015D01*
X14376Y-22939D01*
X14391Y-22908D01*
X14406Y-22893D01*
X14437Y-22878D01*
X14467Y-22878D01*
X14513Y-22893D01*
X14696Y-23076D01*
X14696Y-22878D01*
X14513Y-29164D02*
X14406Y-29012D01*
X14330Y-29164D02*
X14330Y-28844D01*
X14452Y-28844D01*
X14483Y-28860D01*
X14498Y-28875D01*
X14513Y-28905D01*
X14513Y-28951D01*
X14498Y-28982D01*
X14483Y-28997D01*
X14452Y-29012D01*
X14330Y-29012D01*
X14665Y-29164D02*
X14726Y-29164D01*
X14757Y-29149D01*
X14772Y-29134D01*
X14803Y-29088D01*
X14818Y-29027D01*
X14818Y-28905D01*
X14803Y-28875D01*
X14787Y-28860D01*
X14757Y-28844D01*
X14696Y-28844D01*
X14665Y-28860D01*
X14650Y-28875D01*
X14635Y-28905D01*
X14635Y-28982D01*
X14650Y-29012D01*
X14665Y-29027D01*
X14696Y-29043D01*
X14757Y-29043D01*
X14787Y-29027D01*
X14803Y-29012D01*
X14818Y-28982D01*
X19828Y-24803D02*
X19813Y-24819D01*
X19767Y-24834D01*
X19737Y-24834D01*
X19691Y-24819D01*
X19660Y-24788D01*
X19645Y-24758D01*
X19630Y-24697D01*
X19630Y-24651D01*
X19645Y-24590D01*
X19660Y-24559D01*
X19691Y-24529D01*
X19737Y-24514D01*
X19767Y-24514D01*
X19813Y-24529D01*
X19828Y-24544D01*
X20118Y-24514D02*
X19965Y-24514D01*
X19950Y-24666D01*
X19965Y-24651D01*
X19996Y-24636D01*
X20072Y-24636D01*
X20102Y-24651D01*
X20118Y-24666D01*
X20133Y-24697D01*
X20133Y-24773D01*
X20118Y-24803D01*
X20102Y-24819D01*
X20072Y-24834D01*
X19996Y-24834D01*
X19965Y-24819D01*
X19950Y-24803D01*
X18002Y-24735D02*
X17896Y-24583D01*
X17820Y-24735D02*
X17820Y-24415D01*
X17941Y-24415D01*
X17972Y-24431D01*
X17987Y-24446D01*
X18002Y-24476D01*
X18002Y-24522D01*
X17987Y-24552D01*
X17972Y-24568D01*
X17941Y-24583D01*
X17820Y-24583D01*
X18307Y-24735D02*
X18124Y-24735D01*
X18216Y-24735D02*
X18216Y-24415D01*
X18185Y-24461D01*
X18155Y-24492D01*
X18124Y-24507D01*
X18429Y-24446D02*
X18444Y-24431D01*
X18475Y-24415D01*
X18551Y-24415D01*
X18581Y-24431D01*
X18597Y-24446D01*
X18612Y-24476D01*
X18612Y-24507D01*
X18597Y-24552D01*
X18414Y-24735D01*
X18612Y-24735D01*
X14665Y-22199D02*
X14681Y-22214D01*
X14696Y-22259D01*
X14696Y-22290D01*
X14681Y-22336D01*
X14650Y-22366D01*
X14620Y-22381D01*
X14559Y-22397D01*
X14513Y-22397D01*
X14452Y-22381D01*
X14422Y-22366D01*
X14391Y-22336D01*
X14376Y-22290D01*
X14376Y-22259D01*
X14391Y-22214D01*
X14406Y-22199D01*
X14696Y-21894D02*
X14696Y-22077D01*
X14696Y-21985D02*
X14376Y-21985D01*
X14422Y-22016D01*
X14452Y-22046D01*
X14467Y-22077D01*
X10759Y-22199D02*
X10607Y-22305D01*
X10759Y-22381D02*
X10439Y-22381D01*
X10439Y-22259D01*
X10454Y-22229D01*
X10469Y-22214D01*
X10500Y-22199D01*
X10546Y-22199D01*
X10576Y-22214D01*
X10591Y-22229D01*
X10607Y-22259D01*
X10607Y-22381D01*
X10469Y-22077D02*
X10454Y-22061D01*
X10439Y-22031D01*
X10439Y-21955D01*
X10454Y-21924D01*
X10469Y-21909D01*
X10500Y-21894D01*
X10530Y-21894D01*
X10576Y-21909D01*
X10759Y-22092D01*
X10759Y-21894D01*
X14696Y-24167D02*
X14544Y-24274D01*
X14696Y-24350D02*
X14376Y-24350D01*
X14376Y-24228D01*
X14391Y-24197D01*
X14406Y-24182D01*
X14437Y-24167D01*
X14483Y-24167D01*
X14513Y-24182D01*
X14528Y-24197D01*
X14544Y-24228D01*
X14544Y-24350D01*
X14376Y-24060D02*
X14376Y-23847D01*
X14696Y-23984D01*
X26915Y-22611D02*
X26808Y-22458D01*
X26732Y-22611D02*
X26732Y-22291D01*
X26854Y-22291D01*
X26884Y-22306D01*
X26899Y-22321D01*
X26915Y-22351D01*
X26915Y-22397D01*
X26899Y-22428D01*
X26884Y-22443D01*
X26854Y-22458D01*
X26732Y-22458D01*
X27021Y-22291D02*
X27219Y-22291D01*
X27113Y-22412D01*
X27158Y-22412D01*
X27189Y-22428D01*
X27204Y-22443D01*
X27219Y-22473D01*
X27219Y-22550D01*
X27204Y-22580D01*
X27189Y-22595D01*
X27158Y-22611D01*
X27067Y-22611D01*
X27037Y-22595D01*
X27021Y-22580D01*
X26915Y-23792D02*
X26808Y-23639D01*
X26732Y-23792D02*
X26732Y-23472D01*
X26854Y-23472D01*
X26884Y-23487D01*
X26899Y-23502D01*
X26915Y-23533D01*
X26915Y-23578D01*
X26899Y-23609D01*
X26884Y-23624D01*
X26854Y-23639D01*
X26732Y-23639D01*
X27204Y-23472D02*
X27052Y-23472D01*
X27037Y-23624D01*
X27052Y-23609D01*
X27082Y-23594D01*
X27158Y-23594D01*
X27189Y-23609D01*
X27204Y-23624D01*
X27219Y-23654D01*
X27219Y-23731D01*
X27204Y-23761D01*
X27189Y-23776D01*
X27158Y-23792D01*
X27082Y-23792D01*
X27052Y-23776D01*
X27037Y-23761D01*
X26915Y-24973D02*
X26808Y-24820D01*
X26732Y-24973D02*
X26732Y-24653D01*
X26854Y-24653D01*
X26884Y-24668D01*
X26899Y-24683D01*
X26915Y-24714D01*
X26915Y-24759D01*
X26899Y-24790D01*
X26884Y-24805D01*
X26854Y-24820D01*
X26732Y-24820D01*
X27098Y-24790D02*
X27067Y-24775D01*
X27052Y-24759D01*
X27037Y-24729D01*
X27037Y-24714D01*
X27052Y-24683D01*
X27067Y-24668D01*
X27098Y-24653D01*
X27158Y-24653D01*
X27189Y-24668D01*
X27204Y-24683D01*
X27219Y-24714D01*
X27219Y-24729D01*
X27204Y-24759D01*
X27189Y-24775D01*
X27158Y-24790D01*
X27098Y-24790D01*
X27067Y-24805D01*
X27052Y-24820D01*
X27037Y-24851D01*
X27037Y-24912D01*
X27052Y-24942D01*
X27067Y-24957D01*
X27098Y-24973D01*
X27158Y-24973D01*
X27189Y-24957D01*
X27204Y-24942D01*
X27219Y-24912D01*
X27219Y-24851D01*
X27204Y-24820D01*
X27189Y-24805D01*
X27158Y-24790D01*
X26762Y-26154D02*
X26656Y-26001D01*
X26579Y-26154D02*
X26579Y-25834D01*
X26701Y-25834D01*
X26732Y-25849D01*
X26747Y-25864D01*
X26762Y-25895D01*
X26762Y-25940D01*
X26747Y-25971D01*
X26732Y-25986D01*
X26701Y-26001D01*
X26579Y-26001D01*
X27067Y-26154D02*
X26884Y-26154D01*
X26976Y-26154D02*
X26976Y-25834D01*
X26945Y-25880D01*
X26915Y-25910D01*
X26884Y-25925D01*
X27265Y-25834D02*
X27296Y-25834D01*
X27326Y-25849D01*
X27341Y-25864D01*
X27357Y-25895D01*
X27372Y-25956D01*
X27372Y-26032D01*
X27357Y-26093D01*
X27341Y-26123D01*
X27326Y-26139D01*
X27296Y-26154D01*
X27265Y-26154D01*
X27235Y-26139D01*
X27219Y-26123D01*
X27204Y-26093D01*
X27189Y-26032D01*
X27189Y-25956D01*
X27204Y-25895D01*
X27219Y-25864D01*
X27235Y-25849D01*
X27265Y-25834D01*
X26762Y-27335D02*
X26656Y-27183D01*
X26579Y-27335D02*
X26579Y-27015D01*
X26701Y-27015D01*
X26732Y-27030D01*
X26747Y-27045D01*
X26762Y-27076D01*
X26762Y-27122D01*
X26747Y-27152D01*
X26732Y-27167D01*
X26701Y-27183D01*
X26579Y-27183D01*
X27067Y-27335D02*
X26884Y-27335D01*
X26976Y-27335D02*
X26976Y-27015D01*
X26945Y-27061D01*
X26915Y-27091D01*
X26884Y-27106D01*
X27372Y-27335D02*
X27189Y-27335D01*
X27280Y-27335D02*
X27280Y-27015D01*
X27250Y-27061D01*
X27219Y-27091D01*
X27189Y-27106D01*
X17018Y-24735D02*
X16912Y-24583D01*
X16835Y-24735D02*
X16835Y-24415D01*
X16957Y-24415D01*
X16988Y-24431D01*
X17003Y-24446D01*
X17018Y-24476D01*
X17018Y-24522D01*
X17003Y-24552D01*
X16988Y-24568D01*
X16957Y-24583D01*
X16835Y-24583D01*
X17323Y-24735D02*
X17140Y-24735D01*
X17232Y-24735D02*
X17232Y-24415D01*
X17201Y-24461D01*
X17171Y-24492D01*
X17140Y-24507D01*
X17430Y-24415D02*
X17628Y-24415D01*
X17521Y-24537D01*
X17567Y-24537D01*
X17597Y-24552D01*
X17612Y-24568D01*
X17628Y-24598D01*
X17628Y-24674D01*
X17612Y-24705D01*
X17597Y-24720D01*
X17567Y-24735D01*
X17475Y-24735D01*
X17445Y-24720D01*
X17430Y-24705D01*
X11574Y-25326D02*
X11574Y-25006D01*
X11651Y-25006D01*
X11696Y-25021D01*
X11727Y-25052D01*
X11742Y-25082D01*
X11757Y-25143D01*
X11757Y-25189D01*
X11742Y-25250D01*
X11727Y-25280D01*
X11696Y-25311D01*
X11651Y-25326D01*
X11574Y-25326D01*
X12062Y-25326D02*
X11879Y-25326D01*
X11971Y-25326D02*
X11971Y-25006D01*
X11940Y-25052D01*
X11910Y-25082D01*
X11879Y-25097D01*
X11574Y-12727D02*
X11574Y-12407D01*
X11651Y-12407D01*
X11696Y-12423D01*
X11727Y-12453D01*
X11742Y-12484D01*
X11757Y-12545D01*
X11757Y-12590D01*
X11742Y-12651D01*
X11727Y-12682D01*
X11696Y-12712D01*
X11651Y-12727D01*
X11574Y-12727D01*
X12062Y-12727D02*
X11879Y-12727D01*
X11971Y-12727D02*
X11971Y-12407D01*
X11940Y-12453D01*
X11910Y-12484D01*
X11879Y-12499D01*
X17018Y-12137D02*
X16912Y-11985D01*
X16835Y-12137D02*
X16835Y-11817D01*
X16957Y-11817D01*
X16988Y-11832D01*
X17003Y-11847D01*
X17018Y-11878D01*
X17018Y-11924D01*
X17003Y-11954D01*
X16988Y-11969D01*
X16957Y-11985D01*
X16835Y-11985D01*
X17323Y-12137D02*
X17140Y-12137D01*
X17232Y-12137D02*
X17232Y-11817D01*
X17201Y-11863D01*
X17171Y-11893D01*
X17140Y-11908D01*
X17430Y-11817D02*
X17628Y-11817D01*
X17521Y-11939D01*
X17567Y-11939D01*
X17597Y-11954D01*
X17612Y-11969D01*
X17628Y-12000D01*
X17628Y-12076D01*
X17612Y-12106D01*
X17597Y-12122D01*
X17567Y-12137D01*
X17475Y-12137D01*
X17445Y-12122D01*
X17430Y-12106D01*
X26762Y-14737D02*
X26656Y-14584D01*
X26579Y-14737D02*
X26579Y-14417D01*
X26701Y-14417D01*
X26732Y-14432D01*
X26747Y-14447D01*
X26762Y-14477D01*
X26762Y-14523D01*
X26747Y-14554D01*
X26732Y-14569D01*
X26701Y-14584D01*
X26579Y-14584D01*
X27067Y-14737D02*
X26884Y-14737D01*
X26976Y-14737D02*
X26976Y-14417D01*
X26945Y-14462D01*
X26915Y-14493D01*
X26884Y-14508D01*
X27372Y-14737D02*
X27189Y-14737D01*
X27280Y-14737D02*
X27280Y-14417D01*
X27250Y-14462D01*
X27219Y-14493D01*
X27189Y-14508D01*
X26762Y-13555D02*
X26656Y-13403D01*
X26579Y-13555D02*
X26579Y-13235D01*
X26701Y-13235D01*
X26732Y-13251D01*
X26747Y-13266D01*
X26762Y-13296D01*
X26762Y-13342D01*
X26747Y-13373D01*
X26732Y-13388D01*
X26701Y-13403D01*
X26579Y-13403D01*
X27067Y-13555D02*
X26884Y-13555D01*
X26976Y-13555D02*
X26976Y-13235D01*
X26945Y-13281D01*
X26915Y-13312D01*
X26884Y-13327D01*
X27265Y-13235D02*
X27296Y-13235D01*
X27326Y-13251D01*
X27341Y-13266D01*
X27357Y-13296D01*
X27372Y-13357D01*
X27372Y-13433D01*
X27357Y-13494D01*
X27341Y-13525D01*
X27326Y-13540D01*
X27296Y-13555D01*
X27265Y-13555D01*
X27235Y-13540D01*
X27219Y-13525D01*
X27204Y-13494D01*
X27189Y-13433D01*
X27189Y-13357D01*
X27204Y-13296D01*
X27219Y-13266D01*
X27235Y-13251D01*
X27265Y-13235D01*
X26915Y-12374D02*
X26808Y-12222D01*
X26732Y-12374D02*
X26732Y-12054D01*
X26854Y-12054D01*
X26884Y-12070D01*
X26899Y-12085D01*
X26915Y-12115D01*
X26915Y-12161D01*
X26899Y-12191D01*
X26884Y-12207D01*
X26854Y-12222D01*
X26732Y-12222D01*
X27098Y-12191D02*
X27067Y-12176D01*
X27052Y-12161D01*
X27037Y-12130D01*
X27037Y-12115D01*
X27052Y-12085D01*
X27067Y-12070D01*
X27098Y-12054D01*
X27158Y-12054D01*
X27189Y-12070D01*
X27204Y-12085D01*
X27219Y-12115D01*
X27219Y-12130D01*
X27204Y-12161D01*
X27189Y-12176D01*
X27158Y-12191D01*
X27098Y-12191D01*
X27067Y-12207D01*
X27052Y-12222D01*
X27037Y-12252D01*
X27037Y-12313D01*
X27052Y-12344D01*
X27067Y-12359D01*
X27098Y-12374D01*
X27158Y-12374D01*
X27189Y-12359D01*
X27204Y-12344D01*
X27219Y-12313D01*
X27219Y-12252D01*
X27204Y-12222D01*
X27189Y-12207D01*
X27158Y-12191D01*
X26915Y-11193D02*
X26808Y-11041D01*
X26732Y-11193D02*
X26732Y-10873D01*
X26854Y-10873D01*
X26884Y-10888D01*
X26899Y-10904D01*
X26915Y-10934D01*
X26915Y-10980D01*
X26899Y-11010D01*
X26884Y-11026D01*
X26854Y-11041D01*
X26732Y-11041D01*
X27204Y-10873D02*
X27052Y-10873D01*
X27037Y-11026D01*
X27052Y-11010D01*
X27082Y-10995D01*
X27158Y-10995D01*
X27189Y-11010D01*
X27204Y-11026D01*
X27219Y-11056D01*
X27219Y-11132D01*
X27204Y-11163D01*
X27189Y-11178D01*
X27158Y-11193D01*
X27082Y-11193D01*
X27052Y-11178D01*
X27037Y-11163D01*
X26915Y-10012D02*
X26808Y-9860D01*
X26732Y-10012D02*
X26732Y-9692D01*
X26854Y-9692D01*
X26884Y-9707D01*
X26899Y-9723D01*
X26915Y-9753D01*
X26915Y-9799D01*
X26899Y-9829D01*
X26884Y-9844D01*
X26854Y-9860D01*
X26732Y-9860D01*
X27021Y-9692D02*
X27219Y-9692D01*
X27113Y-9814D01*
X27158Y-9814D01*
X27189Y-9829D01*
X27204Y-9844D01*
X27219Y-9875D01*
X27219Y-9951D01*
X27204Y-9982D01*
X27189Y-9997D01*
X27158Y-10012D01*
X27067Y-10012D01*
X27037Y-9997D01*
X27021Y-9982D01*
X14696Y-11569D02*
X14544Y-11675D01*
X14696Y-11751D02*
X14376Y-11751D01*
X14376Y-11630D01*
X14391Y-11599D01*
X14406Y-11584D01*
X14437Y-11569D01*
X14483Y-11569D01*
X14513Y-11584D01*
X14528Y-11599D01*
X14544Y-11630D01*
X14544Y-11751D01*
X14376Y-11462D02*
X14376Y-11249D01*
X14696Y-11386D01*
X10759Y-9600D02*
X10607Y-9707D01*
X10759Y-9783D02*
X10439Y-9783D01*
X10439Y-9661D01*
X10454Y-9631D01*
X10469Y-9615D01*
X10500Y-9600D01*
X10546Y-9600D01*
X10576Y-9615D01*
X10591Y-9631D01*
X10607Y-9661D01*
X10607Y-9783D01*
X10469Y-9478D02*
X10454Y-9463D01*
X10439Y-9432D01*
X10439Y-9356D01*
X10454Y-9326D01*
X10469Y-9311D01*
X10500Y-9295D01*
X10530Y-9295D01*
X10576Y-9311D01*
X10759Y-9493D01*
X10759Y-9295D01*
X14665Y-9600D02*
X14681Y-9615D01*
X14696Y-9661D01*
X14696Y-9692D01*
X14681Y-9737D01*
X14650Y-9768D01*
X14620Y-9783D01*
X14559Y-9798D01*
X14513Y-9798D01*
X14452Y-9783D01*
X14422Y-9768D01*
X14391Y-9737D01*
X14376Y-9692D01*
X14376Y-9661D01*
X14391Y-9615D01*
X14406Y-9600D01*
X14696Y-9295D02*
X14696Y-9478D01*
X14696Y-9387D02*
X14376Y-9387D01*
X14422Y-9417D01*
X14452Y-9448D01*
X14467Y-9478D01*
X18002Y-12137D02*
X17896Y-11985D01*
X17820Y-12137D02*
X17820Y-11817D01*
X17941Y-11817D01*
X17972Y-11832D01*
X17987Y-11847D01*
X18002Y-11878D01*
X18002Y-11924D01*
X17987Y-11954D01*
X17972Y-11969D01*
X17941Y-11985D01*
X17820Y-11985D01*
X18307Y-12137D02*
X18124Y-12137D01*
X18216Y-12137D02*
X18216Y-11817D01*
X18185Y-11863D01*
X18155Y-11893D01*
X18124Y-11908D01*
X18429Y-11847D02*
X18444Y-11832D01*
X18475Y-11817D01*
X18551Y-11817D01*
X18581Y-11832D01*
X18597Y-11847D01*
X18612Y-11878D01*
X18612Y-11908D01*
X18597Y-11954D01*
X18414Y-12137D01*
X18612Y-12137D01*
X19828Y-12205D02*
X19813Y-12220D01*
X19767Y-12235D01*
X19737Y-12235D01*
X19691Y-12220D01*
X19660Y-12190D01*
X19645Y-12159D01*
X19630Y-12098D01*
X19630Y-12052D01*
X19645Y-11992D01*
X19660Y-11961D01*
X19691Y-11931D01*
X19737Y-11915D01*
X19767Y-11915D01*
X19813Y-11931D01*
X19828Y-11946D01*
X20118Y-11915D02*
X19965Y-11915D01*
X19950Y-12068D01*
X19965Y-12052D01*
X19996Y-12037D01*
X20072Y-12037D01*
X20102Y-12052D01*
X20118Y-12068D01*
X20133Y-12098D01*
X20133Y-12174D01*
X20118Y-12205D01*
X20102Y-12220D01*
X20072Y-12235D01*
X19996Y-12235D01*
X19965Y-12220D01*
X19950Y-12205D01*
X14513Y-16566D02*
X14406Y-16414D01*
X14330Y-16566D02*
X14330Y-16246D01*
X14452Y-16246D01*
X14483Y-16261D01*
X14498Y-16277D01*
X14513Y-16307D01*
X14513Y-16353D01*
X14498Y-16383D01*
X14483Y-16398D01*
X14452Y-16414D01*
X14330Y-16414D01*
X14665Y-16566D02*
X14726Y-16566D01*
X14757Y-16551D01*
X14772Y-16536D01*
X14803Y-16490D01*
X14818Y-16429D01*
X14818Y-16307D01*
X14803Y-16277D01*
X14787Y-16261D01*
X14757Y-16246D01*
X14696Y-16246D01*
X14665Y-16261D01*
X14650Y-16277D01*
X14635Y-16307D01*
X14635Y-16383D01*
X14650Y-16414D01*
X14665Y-16429D01*
X14696Y-16444D01*
X14757Y-16444D01*
X14787Y-16429D01*
X14803Y-16414D01*
X14818Y-16383D01*
X14665Y-10584D02*
X14681Y-10600D01*
X14696Y-10645D01*
X14696Y-10676D01*
X14681Y-10721D01*
X14650Y-10752D01*
X14620Y-10767D01*
X14559Y-10782D01*
X14513Y-10782D01*
X14452Y-10767D01*
X14422Y-10752D01*
X14391Y-10721D01*
X14376Y-10676D01*
X14376Y-10645D01*
X14391Y-10600D01*
X14406Y-10584D01*
X14406Y-10462D02*
X14391Y-10447D01*
X14376Y-10417D01*
X14376Y-10341D01*
X14391Y-10310D01*
X14406Y-10295D01*
X14437Y-10280D01*
X14467Y-10280D01*
X14513Y-10295D01*
X14696Y-10478D01*
X14696Y-10280D01*
X13529Y-16566D02*
X13422Y-16414D01*
X13346Y-16566D02*
X13346Y-16246D01*
X13468Y-16246D01*
X13498Y-16261D01*
X13514Y-16277D01*
X13529Y-16307D01*
X13529Y-16353D01*
X13514Y-16383D01*
X13498Y-16398D01*
X13468Y-16414D01*
X13346Y-16414D01*
X13803Y-16246D02*
X13742Y-16246D01*
X13712Y-16261D01*
X13696Y-16277D01*
X13666Y-16322D01*
X13651Y-16383D01*
X13651Y-16505D01*
X13666Y-16536D01*
X13681Y-16551D01*
X13712Y-16566D01*
X13773Y-16566D01*
X13803Y-16551D01*
X13818Y-16536D01*
X13834Y-16505D01*
X13834Y-16429D01*
X13818Y-16398D01*
X13803Y-16383D01*
X13773Y-16368D01*
X13712Y-16368D01*
X13681Y-16383D01*
X13666Y-16398D01*
X13651Y-16429D01*
X10759Y-10584D02*
X10607Y-10691D01*
X10759Y-10767D02*
X10439Y-10767D01*
X10439Y-10645D01*
X10454Y-10615D01*
X10469Y-10600D01*
X10500Y-10584D01*
X10546Y-10584D01*
X10576Y-10600D01*
X10591Y-10615D01*
X10607Y-10645D01*
X10607Y-10767D01*
X10546Y-10310D02*
X10759Y-10310D01*
X10424Y-10386D02*
X10652Y-10462D01*
X10652Y-10264D01*
X13627Y-8692D02*
X13521Y-8540D01*
X13444Y-8692D02*
X13444Y-8372D01*
X13566Y-8372D01*
X13597Y-8387D01*
X13612Y-8402D01*
X13627Y-8433D01*
X13627Y-8479D01*
X13612Y-8509D01*
X13597Y-8524D01*
X13566Y-8540D01*
X13444Y-8540D01*
X13932Y-8692D02*
X13749Y-8692D01*
X13841Y-8692D02*
X13841Y-8372D01*
X13810Y-8418D01*
X13780Y-8448D01*
X13749Y-8463D01*
X23287Y-8397D02*
X23287Y-8077D01*
X23363Y-8077D01*
X23409Y-8092D01*
X23439Y-8122D01*
X23455Y-8153D01*
X23470Y-8214D01*
X23470Y-8260D01*
X23455Y-8321D01*
X23439Y-8351D01*
X23409Y-8382D01*
X23363Y-8397D01*
X23287Y-8397D01*
X23592Y-8107D02*
X23607Y-8092D01*
X23637Y-8077D01*
X23714Y-8077D01*
X23744Y-8092D01*
X23759Y-8107D01*
X23775Y-8138D01*
X23775Y-8168D01*
X23759Y-8214D01*
X23576Y-8397D01*
X23775Y-8397D01*
X22530Y-10857D02*
X22423Y-10705D01*
X22347Y-10857D02*
X22347Y-10537D01*
X22469Y-10537D01*
X22500Y-10553D01*
X22515Y-10568D01*
X22530Y-10598D01*
X22530Y-10644D01*
X22515Y-10675D01*
X22500Y-10690D01*
X22469Y-10705D01*
X22347Y-10705D01*
X22835Y-10857D02*
X22652Y-10857D01*
X22743Y-10857D02*
X22743Y-10537D01*
X22713Y-10583D01*
X22682Y-10614D01*
X22652Y-10629D01*
X23109Y-10537D02*
X23048Y-10537D01*
X23018Y-10553D01*
X23002Y-10568D01*
X22972Y-10614D01*
X22957Y-10675D01*
X22957Y-10796D01*
X22972Y-10827D01*
X22987Y-10842D01*
X23018Y-10857D01*
X23079Y-10857D01*
X23109Y-10842D01*
X23124Y-10827D01*
X23140Y-10796D01*
X23140Y-10720D01*
X23124Y-10690D01*
X23109Y-10675D01*
X23079Y-10659D01*
X23018Y-10659D01*
X22987Y-10675D01*
X22972Y-10690D01*
X22957Y-10720D01*
X25143Y-9449D02*
X25128Y-9464D01*
X25082Y-9479D01*
X25052Y-9479D01*
X25006Y-9464D01*
X24975Y-9434D01*
X24960Y-9403D01*
X24945Y-9342D01*
X24945Y-9297D01*
X24960Y-9236D01*
X24975Y-9205D01*
X25006Y-9175D01*
X25052Y-9159D01*
X25082Y-9159D01*
X25128Y-9175D01*
X25143Y-9190D01*
X25295Y-9479D02*
X25356Y-9479D01*
X25387Y-9464D01*
X25402Y-9449D01*
X25433Y-9403D01*
X25448Y-9342D01*
X25448Y-9220D01*
X25433Y-9190D01*
X25417Y-9175D01*
X25387Y-9159D01*
X25326Y-9159D01*
X25295Y-9175D01*
X25280Y-9190D01*
X25265Y-9220D01*
X25265Y-9297D01*
X25280Y-9327D01*
X25295Y-9342D01*
X25326Y-9358D01*
X25387Y-9358D01*
X25417Y-9342D01*
X25433Y-9327D01*
X25448Y-9297D01*
X22432Y-13613D02*
X22325Y-13461D01*
X22249Y-13613D02*
X22249Y-13293D01*
X22371Y-13293D01*
X22401Y-13309D01*
X22416Y-13324D01*
X22432Y-13354D01*
X22432Y-13400D01*
X22416Y-13430D01*
X22401Y-13446D01*
X22371Y-13461D01*
X22249Y-13461D01*
X22736Y-13613D02*
X22553Y-13613D01*
X22645Y-13613D02*
X22645Y-13293D01*
X22614Y-13339D01*
X22584Y-13369D01*
X22553Y-13385D01*
X22843Y-13293D02*
X23056Y-13293D01*
X22919Y-13613D01*
X19479Y-10464D02*
X19372Y-10311D01*
X19296Y-10464D02*
X19296Y-10144D01*
X19418Y-10144D01*
X19448Y-10159D01*
X19464Y-10174D01*
X19479Y-10205D01*
X19479Y-10250D01*
X19464Y-10281D01*
X19448Y-10296D01*
X19418Y-10311D01*
X19296Y-10311D01*
X19784Y-10464D02*
X19601Y-10464D01*
X19692Y-10464D02*
X19692Y-10144D01*
X19662Y-10189D01*
X19631Y-10220D01*
X19601Y-10235D01*
X20058Y-10250D02*
X20058Y-10464D01*
X19982Y-10128D02*
X19905Y-10357D01*
X20104Y-10357D01*
X19479Y-11448D02*
X19372Y-11296D01*
X19296Y-11448D02*
X19296Y-11128D01*
X19418Y-11128D01*
X19448Y-11143D01*
X19464Y-11158D01*
X19479Y-11189D01*
X19479Y-11235D01*
X19464Y-11265D01*
X19448Y-11280D01*
X19418Y-11296D01*
X19296Y-11296D01*
X19784Y-11448D02*
X19601Y-11448D01*
X19692Y-11448D02*
X19692Y-11128D01*
X19662Y-11174D01*
X19631Y-11204D01*
X19601Y-11219D01*
X20073Y-11128D02*
X19921Y-11128D01*
X19905Y-11280D01*
X19921Y-11265D01*
X19951Y-11250D01*
X20027Y-11250D01*
X20058Y-11265D01*
X20073Y-11280D01*
X20088Y-11311D01*
X20088Y-11387D01*
X20073Y-11417D01*
X20058Y-11433D01*
X20027Y-11448D01*
X19951Y-11448D01*
X19921Y-11433D01*
X19905Y-11417D01*
X20911Y-8407D02*
X20895Y-8422D01*
X20850Y-8437D01*
X20819Y-8437D01*
X20774Y-8422D01*
X20743Y-8392D01*
X20728Y-8361D01*
X20713Y-8300D01*
X20713Y-8254D01*
X20728Y-8193D01*
X20743Y-8163D01*
X20774Y-8133D01*
X20819Y-8117D01*
X20850Y-8117D01*
X20895Y-8133D01*
X20911Y-8148D01*
X21017Y-8117D02*
X21231Y-8117D01*
X21094Y-8437D01*
X11900Y-16566D02*
X11793Y-16414D01*
X11717Y-16566D02*
X11717Y-16246D01*
X11839Y-16246D01*
X11870Y-16261D01*
X11885Y-16277D01*
X11900Y-16307D01*
X11900Y-16353D01*
X11885Y-16383D01*
X11870Y-16398D01*
X11839Y-16414D01*
X11717Y-16414D01*
X12205Y-16566D02*
X12022Y-16566D01*
X12113Y-16566D02*
X12113Y-16246D01*
X12083Y-16292D01*
X12052Y-16322D01*
X12022Y-16337D01*
X12388Y-16383D02*
X12357Y-16368D01*
X12342Y-16353D01*
X12327Y-16322D01*
X12327Y-16307D01*
X12342Y-16277D01*
X12357Y-16261D01*
X12388Y-16246D01*
X12449Y-16246D01*
X12479Y-16261D01*
X12494Y-16277D01*
X12510Y-16307D01*
X12510Y-16322D01*
X12494Y-16353D01*
X12479Y-16368D01*
X12449Y-16383D01*
X12388Y-16383D01*
X12357Y-16398D01*
X12342Y-16414D01*
X12327Y-16444D01*
X12327Y-16505D01*
X12342Y-16536D01*
X12357Y-16551D01*
X12388Y-16566D01*
X12449Y-16566D01*
X12479Y-16551D01*
X12494Y-16536D01*
X12510Y-16505D01*
X12510Y-16444D01*
X12494Y-16414D01*
X12479Y-16398D01*
X12449Y-16383D01*
X10817Y-16566D02*
X10711Y-16414D01*
X10635Y-16566D02*
X10635Y-16246D01*
X10756Y-16246D01*
X10787Y-16261D01*
X10802Y-16277D01*
X10817Y-16307D01*
X10817Y-16353D01*
X10802Y-16383D01*
X10787Y-16398D01*
X10756Y-16414D01*
X10635Y-16414D01*
X11122Y-16566D02*
X10939Y-16566D01*
X11031Y-16566D02*
X11031Y-16246D01*
X11000Y-16292D01*
X10970Y-16322D01*
X10939Y-16337D01*
X11275Y-16566D02*
X11336Y-16566D01*
X11366Y-16551D01*
X11381Y-16536D01*
X11412Y-16490D01*
X11427Y-16429D01*
X11427Y-16307D01*
X11412Y-16277D01*
X11396Y-16261D01*
X11366Y-16246D01*
X11305Y-16246D01*
X11275Y-16261D01*
X11259Y-16277D01*
X11244Y-16307D01*
X11244Y-16383D01*
X11259Y-16414D01*
X11275Y-16429D01*
X11305Y-16444D01*
X11366Y-16444D01*
X11396Y-16429D01*
X11412Y-16414D01*
X11427Y-16383D01*
X15837Y-12137D02*
X15730Y-11985D01*
X15654Y-12137D02*
X15654Y-11817D01*
X15776Y-11817D01*
X15807Y-11832D01*
X15822Y-11847D01*
X15837Y-11878D01*
X15837Y-11924D01*
X15822Y-11954D01*
X15807Y-11969D01*
X15776Y-11985D01*
X15654Y-11985D01*
X15959Y-11847D02*
X15974Y-11832D01*
X16005Y-11817D01*
X16081Y-11817D01*
X16111Y-11832D01*
X16127Y-11847D01*
X16142Y-11878D01*
X16142Y-11908D01*
X16127Y-11954D01*
X15944Y-12137D01*
X16142Y-12137D01*
X16340Y-11817D02*
X16370Y-11817D01*
X16401Y-11832D01*
X16416Y-11847D01*
X16431Y-11878D01*
X16447Y-11939D01*
X16447Y-12015D01*
X16431Y-12076D01*
X16416Y-12106D01*
X16401Y-12122D01*
X16370Y-12137D01*
X16340Y-12137D01*
X16309Y-12122D01*
X16294Y-12106D01*
X16279Y-12076D01*
X16264Y-12015D01*
X16264Y-11939D01*
X16279Y-11878D01*
X16294Y-11847D01*
X16309Y-11832D01*
X16340Y-11817D01*
X23062Y-17036D02*
X22910Y-17143D01*
X23062Y-17219D02*
X22742Y-17219D01*
X22742Y-17097D01*
X22757Y-17066D01*
X22773Y-17051D01*
X22803Y-17036D01*
X22849Y-17036D01*
X22879Y-17051D01*
X22894Y-17066D01*
X22910Y-17097D01*
X22910Y-17219D01*
X22773Y-16914D02*
X22757Y-16899D01*
X22742Y-16868D01*
X22742Y-16792D01*
X22757Y-16762D01*
X22773Y-16746D01*
X22803Y-16731D01*
X22834Y-16731D01*
X22879Y-16746D01*
X23062Y-16929D01*
X23062Y-16731D01*
X23062Y-16426D02*
X23062Y-16609D01*
X23062Y-16518D02*
X22742Y-16518D01*
X22788Y-16548D01*
X22818Y-16579D01*
X22834Y-16609D01*
X20208Y-17134D02*
X20055Y-17241D01*
X20208Y-17317D02*
X19888Y-17317D01*
X19888Y-17195D01*
X19903Y-17165D01*
X19918Y-17150D01*
X19949Y-17134D01*
X19994Y-17134D01*
X20025Y-17150D01*
X20040Y-17165D01*
X20055Y-17195D01*
X20055Y-17317D01*
X19918Y-17012D02*
X19903Y-16997D01*
X19888Y-16967D01*
X19888Y-16891D01*
X19903Y-16860D01*
X19918Y-16845D01*
X19949Y-16830D01*
X19979Y-16830D01*
X20025Y-16845D01*
X20208Y-17028D01*
X20208Y-16830D01*
X19918Y-16708D02*
X19903Y-16692D01*
X19888Y-16662D01*
X19888Y-16586D01*
X19903Y-16555D01*
X19918Y-16540D01*
X19949Y-16525D01*
X19979Y-16525D01*
X20025Y-16540D01*
X20208Y-16723D01*
X20208Y-16525D01*
G54D18*
X19403Y-14757D02*
X19646Y-14757D01*
X19674Y-14745D01*
X19689Y-14733D01*
X19703Y-14709D01*
X19703Y-14662D01*
X19689Y-14638D01*
X19674Y-14626D01*
X19646Y-14614D01*
X19403Y-14614D01*
X19703Y-14364D02*
X19703Y-14507D01*
X19703Y-14435D02*
X19403Y-14435D01*
X19446Y-14459D01*
X19474Y-14483D01*
X19489Y-14507D01*
G54D19*
G54D18*
X13989Y-14757D02*
X14232Y-14757D01*
X14261Y-14745D01*
X14275Y-14733D01*
X14289Y-14709D01*
X14289Y-14662D01*
X14275Y-14638D01*
X14261Y-14626D01*
X14232Y-14614D01*
X13989Y-14614D01*
X14018Y-14507D02*
X14004Y-14495D01*
X13989Y-14471D01*
X13989Y-14412D01*
X14004Y-14388D01*
X14018Y-14376D01*
X14047Y-14364D01*
X14075Y-14364D01*
X14118Y-14376D01*
X14289Y-14519D01*
X14289Y-14364D01*
G54D19*
%LPC*%
G54D20*
X21259Y-32874D03*
X21259Y-20275D03*
G54D21*
X13543Y-44330D03*
X11574Y-44330D03*
X15511Y-44330D03*
G54D22*
X12114Y-36909D03*
X11114Y-37284D03*
X11114Y-36534D03*
G54D23*
X17224Y-36547D03*
X17224Y-35697D03*
G54D24*
X26543Y-40354D03*
X27393Y-40354D03*
X26543Y-39173D03*
X27393Y-39173D03*
X26543Y-37992D03*
X27393Y-37992D03*
X26543Y-36811D03*
X27393Y-36811D03*
X26543Y-35629D03*
X27393Y-35629D03*
X12960Y-36712D03*
X13810Y-36712D03*
X11189Y-34744D03*
X12039Y-34744D03*
X12960Y-34744D03*
X13810Y-34744D03*
G54D23*
X18208Y-36547D03*
X18208Y-35697D03*
G54D24*
X21389Y-37106D03*
X20539Y-37106D03*
G54D23*
X14665Y-42291D03*
X14665Y-43141D03*
G54D24*
X12960Y-35728D03*
X13810Y-35728D03*
G54D23*
X13582Y-43141D03*
X13582Y-42291D03*
G54D24*
X11189Y-35728D03*
X12039Y-35728D03*
X12075Y-33759D03*
X12925Y-33759D03*
G54D25*
X19216Y-34547D03*
G54D21*
X18216Y-34547D03*
X17216Y-34547D03*
X16216Y-34547D03*
G54D26*
X23677Y-37011D03*
X24696Y-35248D03*
X26460Y-34228D03*
X28500Y-34228D03*
X30263Y-35248D03*
X31283Y-37011D03*
X29645Y-38031D03*
X25314Y-38031D03*
X23677Y-39051D03*
X24696Y-40814D03*
X26460Y-41834D03*
X28500Y-41834D03*
X30263Y-40814D03*
X31283Y-39051D03*
G54D22*
X23334Y-33956D03*
X22334Y-34331D03*
X22334Y-33581D03*
G54D24*
X22311Y-35137D03*
X23161Y-35137D03*
X24378Y-33858D03*
X25228Y-33858D03*
G54D23*
X22637Y-39338D03*
X22637Y-40188D03*
G54D24*
X20539Y-35137D03*
X21389Y-35137D03*
X21389Y-36122D03*
X20539Y-36122D03*
X20539Y-34055D03*
X21389Y-34055D03*
G54D21*
X18307Y-44307D03*
X17307Y-43307D03*
G54D25*
X19307Y-43307D03*
G54D21*
X21850Y-44307D03*
X20850Y-43307D03*
G54D25*
X22850Y-43307D03*
G54D21*
X25393Y-44307D03*
X24393Y-43307D03*
G54D25*
X26393Y-43307D03*
G54D21*
X11204Y-39763D03*
X12204Y-38763D03*
G54D25*
X12204Y-40763D03*
G54D23*
X12106Y-43141D03*
X12106Y-42291D03*
X11023Y-43141D03*
X11023Y-42291D03*
X16141Y-36547D03*
X16141Y-35697D03*
G54D25*
X28224Y-44192D03*
G54D21*
X29224Y-44192D03*
X30224Y-44192D03*
X31224Y-44192D03*
G54D24*
X23492Y-42027D03*
X24342Y-42027D03*
X20637Y-42027D03*
X21487Y-42027D03*
G54D27*
X20981Y-40523D03*
X20981Y-40273D03*
X20981Y-40013D03*
X20981Y-39763D03*
X20981Y-39503D03*
X20981Y-39248D03*
X20981Y-38993D03*
X18781Y-38993D03*
X18781Y-39248D03*
X18781Y-39503D03*
X18781Y-39763D03*
X18781Y-40018D03*
X18781Y-40273D03*
X18781Y-40528D03*
X15568Y-40523D03*
X15568Y-40273D03*
X15568Y-40013D03*
X15568Y-39763D03*
X15568Y-39503D03*
X15568Y-39248D03*
X15568Y-38993D03*
X13368Y-38993D03*
X13368Y-39248D03*
X13368Y-39503D03*
X13368Y-39763D03*
X13368Y-40018D03*
X13368Y-40273D03*
X13368Y-40528D03*
X15568Y-27925D03*
X15568Y-27675D03*
X15568Y-27415D03*
X15568Y-27165D03*
X15568Y-26905D03*
X15568Y-26650D03*
X15568Y-26395D03*
X13368Y-26395D03*
X13368Y-26650D03*
X13368Y-26905D03*
X13368Y-27165D03*
X13368Y-27420D03*
X13368Y-27675D03*
X13368Y-27930D03*
X20981Y-27925D03*
X20981Y-27675D03*
X20981Y-27415D03*
X20981Y-27165D03*
X20981Y-26905D03*
X20981Y-26650D03*
X20981Y-26395D03*
X18781Y-26395D03*
X18781Y-26650D03*
X18781Y-26905D03*
X18781Y-27165D03*
X18781Y-27420D03*
X18781Y-27675D03*
X18781Y-27930D03*
G54D24*
X20637Y-29429D03*
X21487Y-29429D03*
X23492Y-29429D03*
X24342Y-29429D03*
G54D25*
X28224Y-31594D03*
G54D21*
X29224Y-31594D03*
X30224Y-31594D03*
X31224Y-31594D03*
G54D23*
X16141Y-23948D03*
X16141Y-23098D03*
X11023Y-30543D03*
X11023Y-29693D03*
X12106Y-30543D03*
X12106Y-29693D03*
G54D21*
X11204Y-27165D03*
X12204Y-26165D03*
G54D25*
X12204Y-28165D03*
G54D21*
X25393Y-31708D03*
X24393Y-30708D03*
G54D25*
X26393Y-30708D03*
G54D21*
X21850Y-31708D03*
X20850Y-30708D03*
G54D25*
X22850Y-30708D03*
G54D21*
X18307Y-31708D03*
X17307Y-30708D03*
G54D25*
X19307Y-30708D03*
G54D24*
X20539Y-21456D03*
X21389Y-21456D03*
X21389Y-23523D03*
X20539Y-23523D03*
X20539Y-22539D03*
X21389Y-22539D03*
G54D23*
X22637Y-26740D03*
X22637Y-27590D03*
G54D24*
X24378Y-21259D03*
X25228Y-21259D03*
X22311Y-22539D03*
X23161Y-22539D03*
G54D22*
X23334Y-21358D03*
X22334Y-21733D03*
X22334Y-20983D03*
G54D26*
X23677Y-24413D03*
X24696Y-22649D03*
X26460Y-21629D03*
X28500Y-21629D03*
X30263Y-22649D03*
X31283Y-24413D03*
X29645Y-25433D03*
X25314Y-25433D03*
X23677Y-26452D03*
X24696Y-28216D03*
X26460Y-29236D03*
X28500Y-29236D03*
X30263Y-28216D03*
X31283Y-26452D03*
G54D25*
X19216Y-21948D03*
G54D21*
X18216Y-21948D03*
X17216Y-21948D03*
X16216Y-21948D03*
G54D24*
X12075Y-21161D03*
X12925Y-21161D03*
X11189Y-23129D03*
X12039Y-23129D03*
G54D23*
X13582Y-30543D03*
X13582Y-29693D03*
G54D24*
X12960Y-23129D03*
X13810Y-23129D03*
G54D23*
X14665Y-29693D03*
X14665Y-30543D03*
G54D24*
X21389Y-24507D03*
X20539Y-24507D03*
G54D23*
X18208Y-23948D03*
X18208Y-23098D03*
G54D24*
X12960Y-22145D03*
X13810Y-22145D03*
X11189Y-22145D03*
X12039Y-22145D03*
X12960Y-24114D03*
X13810Y-24114D03*
X26543Y-23031D03*
X27393Y-23031D03*
X26543Y-24212D03*
X27393Y-24212D03*
X26543Y-25393D03*
X27393Y-25393D03*
X26543Y-26574D03*
X27393Y-26574D03*
X26543Y-27755D03*
X27393Y-27755D03*
G54D23*
X17224Y-23948D03*
X17224Y-23098D03*
G54D22*
X12114Y-24311D03*
X11114Y-24686D03*
X11114Y-23936D03*
G54D21*
X13543Y-31732D03*
X11574Y-31732D03*
X15511Y-31732D03*
X13543Y-19133D03*
X11574Y-19133D03*
X15511Y-19133D03*
G54D22*
X12114Y-11712D03*
X11114Y-12087D03*
X11114Y-11337D03*
G54D23*
X17224Y-11350D03*
X17224Y-10500D03*
G54D24*
X26543Y-15157D03*
X27393Y-15157D03*
X26543Y-13976D03*
X27393Y-13976D03*
X26543Y-12795D03*
X27393Y-12795D03*
X26543Y-11614D03*
X27393Y-11614D03*
X26543Y-10433D03*
X27393Y-10433D03*
X12960Y-11515D03*
X13810Y-11515D03*
X11189Y-9547D03*
X12039Y-9547D03*
X12960Y-9547D03*
X13810Y-9547D03*
G54D23*
X18208Y-11350D03*
X18208Y-10500D03*
G54D24*
X21389Y-11909D03*
X20539Y-11909D03*
G54D23*
X14665Y-17094D03*
X14665Y-17944D03*
G54D24*
X12960Y-10531D03*
X13810Y-10531D03*
G54D23*
X13582Y-17944D03*
X13582Y-17094D03*
G54D24*
X11189Y-10531D03*
X12039Y-10531D03*
X12075Y-8562D03*
X12925Y-8562D03*
G54D25*
X19216Y-9350D03*
G54D21*
X18216Y-9350D03*
X17216Y-9350D03*
X16216Y-9350D03*
G54D26*
X23677Y-11814D03*
X24696Y-10051D03*
X26460Y-9031D03*
X28500Y-9031D03*
X30263Y-10051D03*
X31283Y-11814D03*
X29645Y-12834D03*
X25314Y-12834D03*
X23677Y-13854D03*
X24696Y-15618D03*
X26460Y-16637D03*
X28500Y-16637D03*
X30263Y-15618D03*
X31283Y-13854D03*
G54D22*
X23334Y-8759D03*
X22334Y-9134D03*
X22334Y-8384D03*
G54D24*
X22311Y-9940D03*
X23161Y-9940D03*
X24378Y-8661D03*
X25228Y-8661D03*
G54D23*
X22637Y-14141D03*
X22637Y-14991D03*
G54D24*
X20539Y-9940D03*
X21389Y-9940D03*
X21389Y-10925D03*
X20539Y-10925D03*
X20539Y-8858D03*
X21389Y-8858D03*
G54D21*
X18307Y-19110D03*
X17307Y-18110D03*
G54D25*
X19307Y-18110D03*
G54D21*
X21850Y-19110D03*
X20850Y-18110D03*
G54D25*
X22850Y-18110D03*
G54D21*
X25393Y-19110D03*
X24393Y-18110D03*
G54D25*
X26393Y-18110D03*
G54D21*
X11204Y-14566D03*
X12204Y-13566D03*
G54D25*
X12204Y-15566D03*
G54D23*
X12106Y-17944D03*
X12106Y-17094D03*
X11023Y-17944D03*
X11023Y-17094D03*
X16141Y-11350D03*
X16141Y-10500D03*
G54D25*
X28224Y-18996D03*
G54D21*
X29224Y-18996D03*
X30224Y-18996D03*
X31224Y-18996D03*
G54D24*
X23492Y-16830D03*
X24342Y-16830D03*
X20637Y-16830D03*
X21487Y-16830D03*
G54D27*
X20981Y-15326D03*
X20981Y-15076D03*
X20981Y-14816D03*
X20981Y-14566D03*
X20981Y-14306D03*
X20981Y-14051D03*
X20981Y-13796D03*
X18781Y-13796D03*
X18781Y-14051D03*
X18781Y-14306D03*
X18781Y-14566D03*
X18781Y-14821D03*
X18781Y-15076D03*
X18781Y-15331D03*
X15568Y-15326D03*
X15568Y-15076D03*
X15568Y-14816D03*
X15568Y-14566D03*
X15568Y-14306D03*
X15568Y-14051D03*
X15568Y-13796D03*
X13368Y-13796D03*
X13368Y-14051D03*
X13368Y-14306D03*
X13368Y-14566D03*
X13368Y-14821D03*
X13368Y-15076D03*
X13368Y-15331D03*
G54D28*
X14370Y-20275D03*
X14763Y-20275D03*
X15157Y-20275D03*
X15551Y-20275D03*
X15944Y-20275D03*
X26574Y-20275D03*
X26968Y-20275D03*
X27362Y-20275D03*
X27755Y-20275D03*
X28149Y-20275D03*
X14370Y-32874D03*
X14763Y-32874D03*
X15157Y-32874D03*
X15551Y-32874D03*
X15944Y-32874D03*
X26574Y-32874D03*
X26968Y-32874D03*
X27362Y-32874D03*
X27755Y-32874D03*
X28149Y-32874D03*
M02*
