G04 (created by PCBNEW (2013-07-07 BZR 4022)-stable) date 2014-08-05 10:31:38 AM*
%MOIN*%
G04 Gerber Fmt 3.4, Leading zero omitted, Abs format*
%FSLAX34Y34*%
G01*
G70*
G90*
G04 APERTURE LIST*
%ADD10C,0.00590551*%
%ADD11O,1.0252X0.0212598*%
%ADD12C,0.0802748*%
%ADD13R,0.0409748X0.0291748*%
%ADD14R,0.0565748X0.0465748*%
%ADD15R,0.0465748X0.0565748*%
%ADD16R,0.0802748X0.0802748*%
%ADD17C,0.080315*%
%ADD18R,0.0527748X0.0133748*%
%ADD19C,0.0212598*%
G04 APERTURE END LIST*
G54D10*
G54D11*
X21259Y-32874D03*
X21259Y-20275D03*
G54D12*
X13543Y-44330D03*
X11574Y-44330D03*
X15511Y-44330D03*
G54D13*
X12114Y-36909D03*
X11114Y-37284D03*
X11114Y-36534D03*
G54D14*
X17224Y-36547D03*
X17224Y-35697D03*
G54D15*
X26543Y-40354D03*
X27393Y-40354D03*
X26543Y-39173D03*
X27393Y-39173D03*
X26543Y-37992D03*
X27393Y-37992D03*
X26543Y-36811D03*
X27393Y-36811D03*
X26543Y-35629D03*
X27393Y-35629D03*
X12960Y-36712D03*
X13810Y-36712D03*
X11189Y-34744D03*
X12039Y-34744D03*
X12960Y-34744D03*
X13810Y-34744D03*
G54D14*
X18208Y-36547D03*
X18208Y-35697D03*
G54D15*
X21389Y-37106D03*
X20539Y-37106D03*
G54D14*
X14665Y-42291D03*
X14665Y-43141D03*
G54D15*
X12960Y-35728D03*
X13810Y-35728D03*
G54D14*
X13582Y-43141D03*
X13582Y-42291D03*
G54D15*
X11189Y-35728D03*
X12039Y-35728D03*
X12075Y-33759D03*
X12925Y-33759D03*
G54D16*
X19216Y-34547D03*
G54D12*
X18216Y-34547D03*
X17216Y-34547D03*
X16216Y-34547D03*
G54D17*
X23677Y-37011D03*
X24696Y-35248D03*
X26460Y-34228D03*
X28500Y-34228D03*
X30263Y-35248D03*
X31283Y-37011D03*
X29645Y-38031D03*
X25314Y-38031D03*
X23677Y-39051D03*
X24696Y-40814D03*
X26460Y-41834D03*
X28500Y-41834D03*
X30263Y-40814D03*
X31283Y-39051D03*
G54D13*
X23334Y-33956D03*
X22334Y-34331D03*
X22334Y-33581D03*
G54D15*
X22311Y-35137D03*
X23161Y-35137D03*
X24378Y-33858D03*
X25228Y-33858D03*
G54D14*
X22637Y-39338D03*
X22637Y-40188D03*
G54D15*
X20539Y-35137D03*
X21389Y-35137D03*
X21389Y-36122D03*
X20539Y-36122D03*
X20539Y-34055D03*
X21389Y-34055D03*
G54D12*
X18307Y-44307D03*
X17307Y-43307D03*
G54D16*
X19307Y-43307D03*
G54D12*
X21850Y-44307D03*
X20850Y-43307D03*
G54D16*
X22850Y-43307D03*
G54D12*
X25393Y-44307D03*
X24393Y-43307D03*
G54D16*
X26393Y-43307D03*
G54D12*
X11204Y-39763D03*
X12204Y-38763D03*
G54D16*
X12204Y-40763D03*
G54D14*
X12106Y-43141D03*
X12106Y-42291D03*
X11023Y-43141D03*
X11023Y-42291D03*
X16141Y-36547D03*
X16141Y-35697D03*
G54D16*
X28224Y-44192D03*
G54D12*
X29224Y-44192D03*
X30224Y-44192D03*
X31224Y-44192D03*
G54D15*
X23492Y-42027D03*
X24342Y-42027D03*
X20637Y-42027D03*
X21487Y-42027D03*
G54D18*
X20981Y-40523D03*
X20981Y-40273D03*
X20981Y-40013D03*
X20981Y-39763D03*
X20981Y-39503D03*
X20981Y-39248D03*
X20981Y-38993D03*
X18781Y-38993D03*
X18781Y-39248D03*
X18781Y-39503D03*
X18781Y-39763D03*
X18781Y-40018D03*
X18781Y-40273D03*
X18781Y-40528D03*
X15568Y-40523D03*
X15568Y-40273D03*
X15568Y-40013D03*
X15568Y-39763D03*
X15568Y-39503D03*
X15568Y-39248D03*
X15568Y-38993D03*
X13368Y-38993D03*
X13368Y-39248D03*
X13368Y-39503D03*
X13368Y-39763D03*
X13368Y-40018D03*
X13368Y-40273D03*
X13368Y-40528D03*
X15568Y-27925D03*
X15568Y-27675D03*
X15568Y-27415D03*
X15568Y-27165D03*
X15568Y-26905D03*
X15568Y-26650D03*
X15568Y-26395D03*
X13368Y-26395D03*
X13368Y-26650D03*
X13368Y-26905D03*
X13368Y-27165D03*
X13368Y-27420D03*
X13368Y-27675D03*
X13368Y-27930D03*
X20981Y-27925D03*
X20981Y-27675D03*
X20981Y-27415D03*
X20981Y-27165D03*
X20981Y-26905D03*
X20981Y-26650D03*
X20981Y-26395D03*
X18781Y-26395D03*
X18781Y-26650D03*
X18781Y-26905D03*
X18781Y-27165D03*
X18781Y-27420D03*
X18781Y-27675D03*
X18781Y-27930D03*
G54D15*
X20637Y-29429D03*
X21487Y-29429D03*
X23492Y-29429D03*
X24342Y-29429D03*
G54D16*
X28224Y-31594D03*
G54D12*
X29224Y-31594D03*
X30224Y-31594D03*
X31224Y-31594D03*
G54D14*
X16141Y-23948D03*
X16141Y-23098D03*
X11023Y-30543D03*
X11023Y-29693D03*
X12106Y-30543D03*
X12106Y-29693D03*
G54D12*
X11204Y-27165D03*
X12204Y-26165D03*
G54D16*
X12204Y-28165D03*
G54D12*
X25393Y-31708D03*
X24393Y-30708D03*
G54D16*
X26393Y-30708D03*
G54D12*
X21850Y-31708D03*
X20850Y-30708D03*
G54D16*
X22850Y-30708D03*
G54D12*
X18307Y-31708D03*
X17307Y-30708D03*
G54D16*
X19307Y-30708D03*
G54D15*
X20539Y-21456D03*
X21389Y-21456D03*
X21389Y-23523D03*
X20539Y-23523D03*
X20539Y-22539D03*
X21389Y-22539D03*
G54D14*
X22637Y-26740D03*
X22637Y-27590D03*
G54D15*
X24378Y-21259D03*
X25228Y-21259D03*
X22311Y-22539D03*
X23161Y-22539D03*
G54D13*
X23334Y-21358D03*
X22334Y-21733D03*
X22334Y-20983D03*
G54D17*
X23677Y-24413D03*
X24696Y-22649D03*
X26460Y-21629D03*
X28500Y-21629D03*
X30263Y-22649D03*
X31283Y-24413D03*
X29645Y-25433D03*
X25314Y-25433D03*
X23677Y-26452D03*
X24696Y-28216D03*
X26460Y-29236D03*
X28500Y-29236D03*
X30263Y-28216D03*
X31283Y-26452D03*
G54D16*
X19216Y-21948D03*
G54D12*
X18216Y-21948D03*
X17216Y-21948D03*
X16216Y-21948D03*
G54D15*
X12075Y-21161D03*
X12925Y-21161D03*
X11189Y-23129D03*
X12039Y-23129D03*
G54D14*
X13582Y-30543D03*
X13582Y-29693D03*
G54D15*
X12960Y-23129D03*
X13810Y-23129D03*
G54D14*
X14665Y-29693D03*
X14665Y-30543D03*
G54D15*
X21389Y-24507D03*
X20539Y-24507D03*
G54D14*
X18208Y-23948D03*
X18208Y-23098D03*
G54D15*
X12960Y-22145D03*
X13810Y-22145D03*
X11189Y-22145D03*
X12039Y-22145D03*
X12960Y-24114D03*
X13810Y-24114D03*
X26543Y-23031D03*
X27393Y-23031D03*
X26543Y-24212D03*
X27393Y-24212D03*
X26543Y-25393D03*
X27393Y-25393D03*
X26543Y-26574D03*
X27393Y-26574D03*
X26543Y-27755D03*
X27393Y-27755D03*
G54D14*
X17224Y-23948D03*
X17224Y-23098D03*
G54D13*
X12114Y-24311D03*
X11114Y-24686D03*
X11114Y-23936D03*
G54D12*
X13543Y-31732D03*
X11574Y-31732D03*
X15511Y-31732D03*
X13543Y-19133D03*
X11574Y-19133D03*
X15511Y-19133D03*
G54D13*
X12114Y-11712D03*
X11114Y-12087D03*
X11114Y-11337D03*
G54D14*
X17224Y-11350D03*
X17224Y-10500D03*
G54D15*
X26543Y-15157D03*
X27393Y-15157D03*
X26543Y-13976D03*
X27393Y-13976D03*
X26543Y-12795D03*
X27393Y-12795D03*
X26543Y-11614D03*
X27393Y-11614D03*
X26543Y-10433D03*
X27393Y-10433D03*
X12960Y-11515D03*
X13810Y-11515D03*
X11189Y-9547D03*
X12039Y-9547D03*
X12960Y-9547D03*
X13810Y-9547D03*
G54D14*
X18208Y-11350D03*
X18208Y-10500D03*
G54D15*
X21389Y-11909D03*
X20539Y-11909D03*
G54D14*
X14665Y-17094D03*
X14665Y-17944D03*
G54D15*
X12960Y-10531D03*
X13810Y-10531D03*
G54D14*
X13582Y-17944D03*
X13582Y-17094D03*
G54D15*
X11189Y-10531D03*
X12039Y-10531D03*
X12075Y-8562D03*
X12925Y-8562D03*
G54D16*
X19216Y-9350D03*
G54D12*
X18216Y-9350D03*
X17216Y-9350D03*
X16216Y-9350D03*
G54D17*
X23677Y-11814D03*
X24696Y-10051D03*
X26460Y-9031D03*
X28500Y-9031D03*
X30263Y-10051D03*
X31283Y-11814D03*
X29645Y-12834D03*
X25314Y-12834D03*
X23677Y-13854D03*
X24696Y-15618D03*
X26460Y-16637D03*
X28500Y-16637D03*
X30263Y-15618D03*
X31283Y-13854D03*
G54D13*
X23334Y-8759D03*
X22334Y-9134D03*
X22334Y-8384D03*
G54D15*
X22311Y-9940D03*
X23161Y-9940D03*
X24378Y-8661D03*
X25228Y-8661D03*
G54D14*
X22637Y-14141D03*
X22637Y-14991D03*
G54D15*
X20539Y-9940D03*
X21389Y-9940D03*
X21389Y-10925D03*
X20539Y-10925D03*
X20539Y-8858D03*
X21389Y-8858D03*
G54D12*
X18307Y-19110D03*
X17307Y-18110D03*
G54D16*
X19307Y-18110D03*
G54D12*
X21850Y-19110D03*
X20850Y-18110D03*
G54D16*
X22850Y-18110D03*
G54D12*
X25393Y-19110D03*
X24393Y-18110D03*
G54D16*
X26393Y-18110D03*
G54D12*
X11204Y-14566D03*
X12204Y-13566D03*
G54D16*
X12204Y-15566D03*
G54D14*
X12106Y-17944D03*
X12106Y-17094D03*
X11023Y-17944D03*
X11023Y-17094D03*
X16141Y-11350D03*
X16141Y-10500D03*
G54D16*
X28224Y-18996D03*
G54D12*
X29224Y-18996D03*
X30224Y-18996D03*
X31224Y-18996D03*
G54D15*
X23492Y-16830D03*
X24342Y-16830D03*
X20637Y-16830D03*
X21487Y-16830D03*
G54D18*
X20981Y-15326D03*
X20981Y-15076D03*
X20981Y-14816D03*
X20981Y-14566D03*
X20981Y-14306D03*
X20981Y-14051D03*
X20981Y-13796D03*
X18781Y-13796D03*
X18781Y-14051D03*
X18781Y-14306D03*
X18781Y-14566D03*
X18781Y-14821D03*
X18781Y-15076D03*
X18781Y-15331D03*
X15568Y-15326D03*
X15568Y-15076D03*
X15568Y-14816D03*
X15568Y-14566D03*
X15568Y-14306D03*
X15568Y-14051D03*
X15568Y-13796D03*
X13368Y-13796D03*
X13368Y-14051D03*
X13368Y-14306D03*
X13368Y-14566D03*
X13368Y-14821D03*
X13368Y-15076D03*
X13368Y-15331D03*
G54D19*
X14370Y-20275D03*
X14763Y-20275D03*
X15157Y-20275D03*
X15551Y-20275D03*
X15944Y-20275D03*
X26574Y-20275D03*
X26968Y-20275D03*
X27362Y-20275D03*
X27755Y-20275D03*
X28149Y-20275D03*
X14370Y-32874D03*
X14763Y-32874D03*
X15157Y-32874D03*
X15551Y-32874D03*
X15944Y-32874D03*
X26574Y-32874D03*
X26968Y-32874D03*
X27362Y-32874D03*
X27755Y-32874D03*
X28149Y-32874D03*
M02*
