M48
INCH,TZ
T1C0.020
T2C0.025
T3C0.040
T4C0.049
T5C0.051
%
G90
G05
M72
T1
X014370Y-020276
X014370Y-032874
X014764Y-020276
X014764Y-032874
X015157Y-020276
X015157Y-032874
X015551Y-020276
X015551Y-032874
X015945Y-020276
X015945Y-032874
X026575Y-020276
X026575Y-032874
X026969Y-020276
X026969Y-032874
X027362Y-020276
X027362Y-032874
X027756Y-020276
X027756Y-032874
X028150Y-020276
X028150Y-032874
X016240Y-020276G85X026280Y-020276
G05
X016240Y-032874G85X026280Y-032874
G05
T2
X012761Y-014231
X012761Y-026830
X012761Y-039428
X012795Y-018504
X012795Y-031102
X012795Y-043701
X014019Y-012276
X014019Y-024875
X014019Y-037473
X014124Y-013874
X014124Y-026473
X014124Y-039071
X014209Y-014496
X014209Y-027095
X014209Y-039693
X014538Y-015474
X014538Y-028073
X014538Y-040671
X015747Y-015899
X015747Y-028497
X015747Y-041096
X016528Y-014604
X016528Y-027203
X016528Y-039801
X017856Y-015710
X017856Y-028309
X017856Y-040907
X018163Y-017245
X018163Y-029843
X018163Y-042441
X018602Y-012697
X018602Y-025295
X018602Y-037894
X018874Y-016616
X018874Y-029214
X018874Y-041813
X019720Y-014574
X019720Y-027173
X019720Y-039771
X019761Y-015259
X019761Y-027857
X019761Y-040456
X021904Y-014185
X021904Y-026784
X021904Y-039382
X022349Y-011952
X022349Y-024550
X022349Y-037149
T3
X011205Y-014567
X011205Y-027165
X011205Y-039764
X012205Y-013567
X012205Y-015567
X012205Y-026165
X012205Y-028165
X012205Y-038764
X012205Y-040764
X016217Y-009350
X016217Y-021949
X016217Y-034547
X017217Y-009350
X017217Y-021949
X017217Y-034547
X017307Y-018110
X017307Y-030709
X017307Y-043307
X018217Y-009350
X018217Y-021949
X018217Y-034547
X018307Y-019110
X018307Y-031709
X018307Y-044307
X019217Y-009350
X019217Y-021949
X019217Y-034547
X019307Y-018110
X019307Y-030709
X019307Y-043307
X020850Y-018110
X020850Y-030709
X020850Y-043307
X021850Y-019110
X021850Y-031709
X021850Y-044307
X022850Y-018110
X022850Y-030709
X022850Y-043307
X024394Y-018110
X024394Y-030709
X024394Y-043307
X025394Y-019110
X025394Y-031709
X025394Y-044307
X026394Y-018110
X026394Y-030709
X026394Y-043307
X028224Y-018996
X028224Y-031594
X028224Y-044193
X029224Y-018996
X029224Y-031594
X029224Y-044193
X030224Y-018996
X030224Y-031594
X030224Y-044193
X031224Y-018996
X031224Y-031594
X031224Y-044193
T4
X023677Y-011815
X023677Y-013854
X023677Y-024413
X023677Y-026453
X023677Y-037012
X023677Y-039051
X024697Y-010051
X024697Y-015618
X024697Y-022650
X024697Y-028217
X024697Y-035248
X024697Y-040815
X025315Y-012835
X025315Y-025433
X025315Y-038031
X026461Y-009031
X026461Y-016638
X026461Y-021630
X026461Y-029236
X026461Y-034228
X026461Y-041835
X028500Y-009031
X028500Y-016638
X028500Y-021630
X028500Y-029236
X028500Y-034228
X028500Y-041835
X029646Y-012835
X029646Y-025433
X029646Y-038031
X030264Y-010051
X030264Y-015618
X030264Y-022650
X030264Y-028217
X030264Y-035248
X030264Y-040815
X031283Y-011815
X031283Y-013854
X031283Y-024413
X031283Y-026453
X031283Y-037012
X031283Y-039051
T5
X011575Y-019134
X011575Y-031732
X011575Y-044331
X013543Y-019134
X013543Y-031732
X013543Y-044331
X015512Y-019134
X015512Y-031732
X015512Y-044331
T0
M30
