  0
SECTION
  2
HEADER
  9
$ANGBASE
  50
0.0
  9
$ANGDIR
  70
  1
  9
$MEASUREMENT
  70
0
  0
ENDSEC
  0
SECTION
  2
TABLES
  0
TABLE
  2
LTYPE
  70
1
  0
LTYPE
  2
CONTINUOUS
  70
0
  3
Solid line
  72
65
  73
0
  40
0.0
  0
ENDTAB
  0
TABLE
  2
STYLE
  70
4
  0
STYLE
  2
KICAD
  70
0
  40
0
  41
1
  42
1
  50
0
  71
0
  3
isocp.shx
  0
STYLE
  2
KICADB
  70
0
  40
0
  41
1
  42
1
  50
0
  71
0
  3
isocp.shx
  0
STYLE
  2
KICADI
  70
0
  40
0
  41
1
  42
1
  50
15
  71
0
  3
isocp.shx
  0
STYLE
  2
KICADBI
  70
0
  40
0
  41
1
  42
1
  50
15
  71
0
  3
isocp.shx
  0
ENDTAB
  0
TABLE
  2
LAYER
  70
24
  0
LAYER
  2
BLACK
  70
0
  62
250
  6
CONTINUOUS
  0
LAYER
  2
BLUE
  70
0
  62
5
  6
CONTINUOUS
  0
LAYER
  2
GREEN
  70
0
  62
3
  6
CONTINUOUS
  0
LAYER
  2
CYAN
  70
0
  62
4
  6
CONTINUOUS
  0
LAYER
  2
RED
  70
0
  62
1
  6
CONTINUOUS
  0
LAYER
  2
MAGENTA
  70
0
  62
6
  6
CONTINUOUS
  0
LAYER
  2
BROWN
  70
0
  62
54
  6
CONTINUOUS
  0
LAYER
  2
LIGHTGRAY
  70
0
  62
9
  6
CONTINUOUS
  0
LAYER
  2
DARKGRAY
  70
0
  62
8
  6
CONTINUOUS
  0
LAYER
  2
LIGHTBLUE
  70
0
  62
171
  6
CONTINUOUS
  0
LAYER
  2
LIGHTGREEN
  70
0
  62
91
  6
CONTINUOUS
  0
LAYER
  2
LIGHTCYAN
  70
0
  62
131
  6
CONTINUOUS
  0
LAYER
  2
LIGHTRED
  70
0
  62
11
  6
CONTINUOUS
  0
LAYER
  2
LIGHTMAGENTA
  70
0
  62
221
  6
CONTINUOUS
  0
LAYER
  2
YELLOW
  70
0
  62
2
  6
CONTINUOUS
  0
LAYER
  2
WHITE
  70
0
  62
7
  6
CONTINUOUS
  0
LAYER
  2
DARKDARKGRAY
  70
0
  62
251
  6
CONTINUOUS
  0
LAYER
  2
DARKBLUE
  70
0
  62
178
  6
CONTINUOUS
  0
LAYER
  2
DARKGREEN
  70
0
  62
98
  6
CONTINUOUS
  0
LAYER
  2
DARKCYAN
  70
0
  62
138
  6
CONTINUOUS
  0
LAYER
  2
DARKRED
  70
0
  62
18
  6
CONTINUOUS
  0
LAYER
  2
DARKMAGENTA
  70
0
  62
228
  6
CONTINUOUS
  0
LAYER
  2
DARKBROWN
  70
0
  62
58
  6
CONTINUOUS
  0
LAYER
  2
LIGHTYELLOW
  70
0
  62
51
  6
CONTINUOUS
  0
ENDTAB
  0
ENDSEC
  0
SECTION
  2
ENTITIES
0
LINE
8
BLACK
10
139.8
20
-151.1
11
140.2
21
-151.1
0
LINE
8
BLACK
10
139.8
20
-150.9
11
140.2
21
-150.9
0
ARC
8
BLACK
10
140.2
20
-151
40
0.1
50
270
51
450
0
ARC
8
BLACK
10
139.8
20
-151
40
0.1
50
90
51
270
0
LINE
8
BLACK
10
140.1
20
-151.2
11
140.1
21
-150.8
0
LINE
8
BLACK
10
139.9
20
-151.2
11
139.9
21
-150.8
0
ARC
8
BLACK
10
140
20
-150.8
40
0.1
50
360
51
540
0
ARC
8
BLACK
10
140
20
-151.2
40
0.1
50
180
51
360
0
LINE
8
BLACK
10
139.8
20
-101.1
11
140.2
21
-101.1
0
LINE
8
BLACK
10
139.8
20
-100.9
11
140.2
21
-100.9
0
ARC
8
BLACK
10
140.2
20
-101
40
0.1
50
270
51
450
0
ARC
8
BLACK
10
139.8
20
-101
40
0.1
50
90
51
270
0
LINE
8
BLACK
10
140.1
20
-101.2
11
140.1
21
-100.8
0
LINE
8
BLACK
10
139.9
20
-101.2
11
139.9
21
-100.8
0
ARC
8
BLACK
10
140
20
-100.8
40
0.1
50
360
51
540
0
ARC
8
BLACK
10
140
20
-101.2
40
0.1
50
180
51
360
0
LINE
8
BLACK
10
128.884
20
-110.978
11
131.344
21
-112.694
0
LINE
8
BLACK
10
128.97
20
-110.855
11
131.43
21
-112.571
0
ARC
8
BLACK
10
131.387
20
-112.633
40
0.075
50
235.1
51
415.1
0
ARC
8
BLACK
10
128.927
20
-110.916
40
0.075
50
55.1
51
235.1
0
LINE
8
BLACK
10
131.321
20
-112.59
11
129.033
21
-115.87
0
LINE
8
BLACK
10
131.444
20
-112.676
11
129.156
21
-115.956
0
ARC
8
BLACK
10
129.094
20
-115.913
40
0.075
50
145.1
51
325.1
0
ARC
8
BLACK
10
131.383
20
-112.633
40
0.075
50
-34.9
51
145.1
0
LINE
8
BLACK
10
131.752
20
-106.882
11
134.212
21
-108.598
0
LINE
8
BLACK
10
131.838
20
-106.759
11
134.298
21
-108.475
0
ARC
8
BLACK
10
134.255
20
-108.537
40
0.075
50
235.1
51
415.1
0
ARC
8
BLACK
10
131.795
20
-106.82
40
0.075
50
55.1
51
235.1
0
LINE
8
BLACK
10
134.192
20
-108.496
11
131.898
21
-111.773
0
LINE
8
BLACK
10
134.315
20
-108.582
11
132.021
21
-111.859
0
ARC
8
BLACK
10
131.959
20
-111.816
40
0.075
50
145
51
325
0
ARC
8
BLACK
10
134.254
20
-108.539
40
0.075
50
-35
51
145
0
LINE
8
BLACK
10
132.002
20
-111.754
11
129.545
21
-110.033
0
LINE
8
BLACK
10
131.916
20
-111.877
11
129.459
21
-110.156
0
ARC
8
BLACK
10
129.502
20
-110.095
40
0.075
50
415
51
595
0
ARC
8
BLACK
10
131.959
20
-111.816
40
0.075
50
235
51
415
0
LINE
8
BLACK
10
137.06
20
-104.4
11
134.766
21
-107.677
0
LINE
8
BLACK
10
137.183
20
-104.486
11
134.889
21
-107.763
0
ARC
8
BLACK
10
134.827
20
-107.72
40
0.075
50
145
51
325
0
ARC
8
BLACK
10
137.121
20
-104.443
40
0.075
50
-35
51
145
0
LINE
8
BLACK
10
134.87
20
-107.658
11
132.413
21
-105.938
0
LINE
8
BLACK
10
134.784
20
-107.781
11
132.327
21
-106.06
0
ARC
8
BLACK
10
132.37
20
-105.999
40
0.075
50
415
51
595
0
ARC
8
BLACK
10
134.827
20
-107.72
40
0.075
50
235
51
415
0
LINE
8
BLACK
10
126.695
20
-114.234
11
134.725
21
-102.765
0
LINE
8
BLACK
10
126.573
20
-114.148
11
134.603
21
-102.679
0
ARC
8
BLACK
10
134.664
20
-102.722
40
0.075
50
325
51
505
0
ARC
8
BLACK
10
126.634
20
-114.191
40
0.075
50
145
51
325
0
LINE
8
BLACK
10
137.164
20
-104.382
11
128.154
21
-98.0724
0
LINE
8
BLACK
10
137.078
20
-104.505
11
128.068
21
-98.1953
0
ARC
8
BLACK
10
128.111
20
-98.1338
40
0.075
50
415
51
595
0
ARC
8
BLACK
10
137.121
20
-104.443
40
0.075
50
235
51
415
0
LINE
8
BLACK
10
129.134
20
-115.85
11
120.124
21
-109.541
0
LINE
8
BLACK
10
129.048
20
-115.973
11
120.038
21
-109.663
0
ARC
8
BLACK
10
120.081
20
-109.602
40
0.075
50
415
51
595
0
ARC
8
BLACK
10
129.091
20
-115.911
40
0.075
50
235
51
415
0
CIRCLE
8
BLACK
10
120
20
-101
40
3
0
CIRCLE
8
BLACK
10
120
20
-101
40
8.5
0
LINE
8
BLACK
10
133
20
-129.075
11
136
21
-129.075
0
LINE
8
BLACK
10
133
20
-128.925
11
136
21
-128.925
0
ARC
8
BLACK
10
136
20
-129
40
0.075
50
270
51
450
0
ARC
8
BLACK
10
133
20
-129
40
0.075
50
90
51
270
0
LINE
8
BLACK
10
136.075
20
-133
11
136.075
21
-129
0
LINE
8
BLACK
10
135.925
20
-133
11
135.925
21
-129
0
ARC
8
BLACK
10
136
20
-129
40
0.075
50
360
51
540
0
ARC
8
BLACK
10
136
20
-133
40
0.075
50
180
51
360
0
LINE
8
BLACK
10
133
20
-124.075
11
136
21
-124.075
0
LINE
8
BLACK
10
133
20
-123.925
11
136
21
-123.925
0
ARC
8
BLACK
10
136
20
-124
40
0.075
50
270
51
450
0
ARC
8
BLACK
10
133
20
-124
40
0.075
50
90
51
270
0
LINE
8
BLACK
10
136.075
20
-128
11
136.075
21
-124
0
LINE
8
BLACK
10
135.925
20
-128
11
135.925
21
-124
0
ARC
8
BLACK
10
136
20
-124
40
0.075
50
360
51
540
0
ARC
8
BLACK
10
136
20
-128
40
0.075
50
180
51
360
0
LINE
8
BLACK
10
133
20
-128.075
11
136
21
-128.075
0
LINE
8
BLACK
10
133
20
-127.925
11
136
21
-127.925
0
ARC
8
BLACK
10
136
20
-128
40
0.075
50
270
51
450
0
ARC
8
BLACK
10
133
20
-128
40
0.075
50
90
51
270
0
LINE
8
BLACK
10
136.075
20
-123
11
136.075
21
-119
0
LINE
8
BLACK
10
135.925
20
-123
11
135.925
21
-119
0
ARC
8
BLACK
10
136
20
-119
40
0.075
50
360
51
540
0
ARC
8
BLACK
10
136
20
-123
40
0.075
50
180
51
360
0
LINE
8
BLACK
10
133
20
-123.075
11
136
21
-123.075
0
LINE
8
BLACK
10
133
20
-122.925
11
136
21
-122.925
0
ARC
8
BLACK
10
136
20
-123
40
0.075
50
270
51
450
0
ARC
8
BLACK
10
133
20
-123
40
0.075
50
90
51
270
0
LINE
8
BLACK
10
133.075
20
-133
11
133.075
21
-119
0
LINE
8
BLACK
10
132.925
20
-133
11
132.925
21
-119
0
ARC
8
BLACK
10
133
20
-119
40
0.075
50
360
51
540
0
ARC
8
BLACK
10
133
20
-133
40
0.075
50
180
51
360
0
LINE
8
BLACK
10
125
20
-119.075
11
136
21
-119.075
0
LINE
8
BLACK
10
125
20
-118.925
11
136
21
-118.925
0
ARC
8
BLACK
10
136
20
-119
40
0.075
50
270
51
450
0
ARC
8
BLACK
10
125
20
-119
40
0.075
50
90
51
270
0
LINE
8
BLACK
10
125
20
-133.075
11
136
21
-133.075
0
LINE
8
BLACK
10
125
20
-132.925
11
136
21
-132.925
0
ARC
8
BLACK
10
136
20
-133
40
0.075
50
270
51
450
0
ARC
8
BLACK
10
125
20
-133
40
0.075
50
90
51
270
0
CIRCLE
8
BLACK
10
120
20
-126
40
3
0
CIRCLE
8
BLACK
10
120
20
-126
40
8.5
0
LINE
8
BLACK
10
133
20
-154.075
11
136
21
-154.075
0
LINE
8
BLACK
10
133
20
-153.925
11
136
21
-153.925
0
ARC
8
BLACK
10
136
20
-154
40
0.075
50
270
51
450
0
ARC
8
BLACK
10
133
20
-154
40
0.075
50
90
51
270
0
LINE
8
BLACK
10
136.075
20
-158
11
136.075
21
-154
0
LINE
8
BLACK
10
135.925
20
-158
11
135.925
21
-154
0
ARC
8
BLACK
10
136
20
-154
40
0.075
50
360
51
540
0
ARC
8
BLACK
10
136
20
-158
40
0.075
50
180
51
360
0
LINE
8
BLACK
10
133
20
-149.075
11
136
21
-149.075
0
LINE
8
BLACK
10
133
20
-148.925
11
136
21
-148.925
0
ARC
8
BLACK
10
136
20
-149
40
0.075
50
270
51
450
0
ARC
8
BLACK
10
133
20
-149
40
0.075
50
90
51
270
0
LINE
8
BLACK
10
136.075
20
-153
11
136.075
21
-149
0
LINE
8
BLACK
10
135.925
20
-153
11
135.925
21
-149
0
ARC
8
BLACK
10
136
20
-149
40
0.075
50
360
51
540
0
ARC
8
BLACK
10
136
20
-153
40
0.075
50
180
51
360
0
LINE
8
BLACK
10
133
20
-153.075
11
136
21
-153.075
0
LINE
8
BLACK
10
133
20
-152.925
11
136
21
-152.925
0
ARC
8
BLACK
10
136
20
-153
40
0.075
50
270
51
450
0
ARC
8
BLACK
10
133
20
-153
40
0.075
50
90
51
270
0
LINE
8
BLACK
10
136.075
20
-148
11
136.075
21
-144
0
LINE
8
BLACK
10
135.925
20
-148
11
135.925
21
-144
0
ARC
8
BLACK
10
136
20
-144
40
0.075
50
360
51
540
0
ARC
8
BLACK
10
136
20
-148
40
0.075
50
180
51
360
0
LINE
8
BLACK
10
133
20
-148.075
11
136
21
-148.075
0
LINE
8
BLACK
10
133
20
-147.925
11
136
21
-147.925
0
ARC
8
BLACK
10
136
20
-148
40
0.075
50
270
51
450
0
ARC
8
BLACK
10
133
20
-148
40
0.075
50
90
51
270
0
LINE
8
BLACK
10
133.075
20
-158
11
133.075
21
-144
0
LINE
8
BLACK
10
132.925
20
-158
11
132.925
21
-144
0
ARC
8
BLACK
10
133
20
-144
40
0.075
50
360
51
540
0
ARC
8
BLACK
10
133
20
-158
40
0.075
50
180
51
360
0
LINE
8
BLACK
10
125
20
-144.075
11
136
21
-144.075
0
LINE
8
BLACK
10
125
20
-143.925
11
136
21
-143.925
0
ARC
8
BLACK
10
136
20
-144
40
0.075
50
270
51
450
0
ARC
8
BLACK
10
125
20
-144
40
0.075
50
90
51
270
0
LINE
8
BLACK
10
125
20
-158.075
11
136
21
-158.075
0
LINE
8
BLACK
10
125
20
-157.925
11
136
21
-157.925
0
ARC
8
BLACK
10
136
20
-158
40
0.075
50
270
51
450
0
ARC
8
BLACK
10
125
20
-158
40
0.075
50
90
51
270
0
CIRCLE
8
BLACK
10
120
20
-151
40
3
0
CIRCLE
8
BLACK
10
120
20
-151
40
8.5
0
LINE
8
BLACK
10
133
20
-179.075
11
136
21
-179.075
0
LINE
8
BLACK
10
133
20
-178.925
11
136
21
-178.925
0
ARC
8
BLACK
10
136
20
-179
40
0.075
50
270
51
450
0
ARC
8
BLACK
10
133
20
-179
40
0.075
50
90
51
270
0
LINE
8
BLACK
10
136.075
20
-183
11
136.075
21
-179
0
LINE
8
BLACK
10
135.925
20
-183
11
135.925
21
-179
0
ARC
8
BLACK
10
136
20
-179
40
0.075
50
360
51
540
0
ARC
8
BLACK
10
136
20
-183
40
0.075
50
180
51
360
0
LINE
8
BLACK
10
133
20
-174.075
11
136
21
-174.075
0
LINE
8
BLACK
10
133
20
-173.925
11
136
21
-173.925
0
ARC
8
BLACK
10
136
20
-174
40
0.075
50
270
51
450
0
ARC
8
BLACK
10
133
20
-174
40
0.075
50
90
51
270
0
LINE
8
BLACK
10
136.075
20
-178
11
136.075
21
-174
0
LINE
8
BLACK
10
135.925
20
-178
11
135.925
21
-174
0
ARC
8
BLACK
10
136
20
-174
40
0.075
50
360
51
540
0
ARC
8
BLACK
10
136
20
-178
40
0.075
50
180
51
360
0
LINE
8
BLACK
10
133
20
-178.075
11
136
21
-178.075
0
LINE
8
BLACK
10
133
20
-177.925
11
136
21
-177.925
0
ARC
8
BLACK
10
136
20
-178
40
0.075
50
270
51
450
0
ARC
8
BLACK
10
133
20
-178
40
0.075
50
90
51
270
0
LINE
8
BLACK
10
136.075
20
-173
11
136.075
21
-169
0
LINE
8
BLACK
10
135.925
20
-173
11
135.925
21
-169
0
ARC
8
BLACK
10
136
20
-169
40
0.075
50
360
51
540
0
ARC
8
BLACK
10
136
20
-173
40
0.075
50
180
51
360
0
LINE
8
BLACK
10
133
20
-173.075
11
136
21
-173.075
0
LINE
8
BLACK
10
133
20
-172.925
11
136
21
-172.925
0
ARC
8
BLACK
10
136
20
-173
40
0.075
50
270
51
450
0
ARC
8
BLACK
10
133
20
-173
40
0.075
50
90
51
270
0
LINE
8
BLACK
10
133.075
20
-183
11
133.075
21
-169
0
LINE
8
BLACK
10
132.925
20
-183
11
132.925
21
-169
0
ARC
8
BLACK
10
133
20
-169
40
0.075
50
360
51
540
0
ARC
8
BLACK
10
133
20
-183
40
0.075
50
180
51
360
0
LINE
8
BLACK
10
125
20
-169.075
11
136
21
-169.075
0
LINE
8
BLACK
10
125
20
-168.925
11
136
21
-168.925
0
ARC
8
BLACK
10
136
20
-169
40
0.075
50
270
51
450
0
ARC
8
BLACK
10
125
20
-169
40
0.075
50
90
51
270
0
LINE
8
BLACK
10
125
20
-183.075
11
136
21
-183.075
0
LINE
8
BLACK
10
125
20
-182.925
11
136
21
-182.925
0
ARC
8
BLACK
10
136
20
-183
40
0.075
50
270
51
450
0
ARC
8
BLACK
10
125
20
-183
40
0.075
50
90
51
270
0
CIRCLE
8
BLACK
10
120
20
-176
40
3
0
CIRCLE
8
BLACK
10
120
20
-176
40
8.5
0
LINE
8
BLACK
10
144
20
-173.075
11
147
21
-173.075
0
LINE
8
BLACK
10
144
20
-172.925
11
147
21
-172.925
0
ARC
8
BLACK
10
147
20
-173
40
0.075
50
270
51
450
0
ARC
8
BLACK
10
144
20
-173
40
0.075
50
90
51
270
0
LINE
8
BLACK
10
144.075
20
-173
11
144.075
21
-169
0
LINE
8
BLACK
10
143.925
20
-173
11
143.925
21
-169
0
ARC
8
BLACK
10
144
20
-169
40
0.075
50
360
51
540
0
ARC
8
BLACK
10
144
20
-173
40
0.075
50
180
51
360
0
LINE
8
BLACK
10
144
20
-178.075
11
147
21
-178.075
0
LINE
8
BLACK
10
144
20
-177.925
11
147
21
-177.925
0
ARC
8
BLACK
10
147
20
-178
40
0.075
50
270
51
450
0
ARC
8
BLACK
10
144
20
-178
40
0.075
50
90
51
270
0
LINE
8
BLACK
10
144.075
20
-178
11
144.075
21
-174
0
LINE
8
BLACK
10
143.925
20
-178
11
143.925
21
-174
0
ARC
8
BLACK
10
144
20
-174
40
0.075
50
360
51
540
0
ARC
8
BLACK
10
144
20
-178
40
0.075
50
180
51
360
0
LINE
8
BLACK
10
144
20
-174.075
11
147
21
-174.075
0
LINE
8
BLACK
10
144
20
-173.925
11
147
21
-173.925
0
ARC
8
BLACK
10
147
20
-174
40
0.075
50
270
51
450
0
ARC
8
BLACK
10
144
20
-174
40
0.075
50
90
51
270
0
LINE
8
BLACK
10
144.075
20
-183
11
144.075
21
-179
0
LINE
8
BLACK
10
143.925
20
-183
11
143.925
21
-179
0
ARC
8
BLACK
10
144
20
-179
40
0.075
50
360
51
540
0
ARC
8
BLACK
10
144
20
-183
40
0.075
50
180
51
360
0
LINE
8
BLACK
10
144
20
-179.075
11
147
21
-179.075
0
LINE
8
BLACK
10
144
20
-178.925
11
147
21
-178.925
0
ARC
8
BLACK
10
147
20
-179
40
0.075
50
270
51
450
0
ARC
8
BLACK
10
144
20
-179
40
0.075
50
90
51
270
0
LINE
8
BLACK
10
147.075
20
-183
11
147.075
21
-169
0
LINE
8
BLACK
10
146.925
20
-183
11
146.925
21
-169
0
ARC
8
BLACK
10
147
20
-169
40
0.075
50
360
51
540
0
ARC
8
BLACK
10
147
20
-183
40
0.075
50
180
51
360
0
LINE
8
BLACK
10
144
20
-183.075
11
155
21
-183.075
0
LINE
8
BLACK
10
144
20
-182.925
11
155
21
-182.925
0
ARC
8
BLACK
10
155
20
-183
40
0.075
50
270
51
450
0
ARC
8
BLACK
10
144
20
-183
40
0.075
50
90
51
270
0
LINE
8
BLACK
10
144
20
-169.075
11
155
21
-169.075
0
LINE
8
BLACK
10
144
20
-168.925
11
155
21
-168.925
0
ARC
8
BLACK
10
155
20
-169
40
0.075
50
270
51
450
0
ARC
8
BLACK
10
144
20
-169
40
0.075
50
90
51
270
0
CIRCLE
8
BLACK
10
160
20
-176
40
3
0
CIRCLE
8
BLACK
10
160
20
-176
40
8.5
0
LINE
8
BLACK
10
144
20
-148.075
11
147
21
-148.075
0
LINE
8
BLACK
10
144
20
-147.925
11
147
21
-147.925
0
ARC
8
BLACK
10
147
20
-148
40
0.075
50
270
51
450
0
ARC
8
BLACK
10
144
20
-148
40
0.075
50
90
51
270
0
LINE
8
BLACK
10
144.075
20
-148
11
144.075
21
-144
0
LINE
8
BLACK
10
143.925
20
-148
11
143.925
21
-144
0
ARC
8
BLACK
10
144
20
-144
40
0.075
50
360
51
540
0
ARC
8
BLACK
10
144
20
-148
40
0.075
50
180
51
360
0
LINE
8
BLACK
10
144
20
-153.075
11
147
21
-153.075
0
LINE
8
BLACK
10
144
20
-152.925
11
147
21
-152.925
0
ARC
8
BLACK
10
147
20
-153
40
0.075
50
270
51
450
0
ARC
8
BLACK
10
144
20
-153
40
0.075
50
90
51
270
0
LINE
8
BLACK
10
144.075
20
-153
11
144.075
21
-149
0
LINE
8
BLACK
10
143.925
20
-153
11
143.925
21
-149
0
ARC
8
BLACK
10
144
20
-149
40
0.075
50
360
51
540
0
ARC
8
BLACK
10
144
20
-153
40
0.075
50
180
51
360
0
LINE
8
BLACK
10
144
20
-149.075
11
147
21
-149.075
0
LINE
8
BLACK
10
144
20
-148.925
11
147
21
-148.925
0
ARC
8
BLACK
10
147
20
-149
40
0.075
50
270
51
450
0
ARC
8
BLACK
10
144
20
-149
40
0.075
50
90
51
270
0
LINE
8
BLACK
10
144.075
20
-158
11
144.075
21
-154
0
LINE
8
BLACK
10
143.925
20
-158
11
143.925
21
-154
0
ARC
8
BLACK
10
144
20
-154
40
0.075
50
360
51
540
0
ARC
8
BLACK
10
144
20
-158
40
0.075
50
180
51
360
0
LINE
8
BLACK
10
144
20
-154.075
11
147
21
-154.075
0
LINE
8
BLACK
10
144
20
-153.925
11
147
21
-153.925
0
ARC
8
BLACK
10
147
20
-154
40
0.075
50
270
51
450
0
ARC
8
BLACK
10
144
20
-154
40
0.075
50
90
51
270
0
LINE
8
BLACK
10
147.075
20
-158
11
147.075
21
-144
0
LINE
8
BLACK
10
146.925
20
-158
11
146.925
21
-144
0
ARC
8
BLACK
10
147
20
-144
40
0.075
50
360
51
540
0
ARC
8
BLACK
10
147
20
-158
40
0.075
50
180
51
360
0
LINE
8
BLACK
10
144
20
-158.075
11
155
21
-158.075
0
LINE
8
BLACK
10
144
20
-157.925
11
155
21
-157.925
0
ARC
8
BLACK
10
155
20
-158
40
0.075
50
270
51
450
0
ARC
8
BLACK
10
144
20
-158
40
0.075
50
90
51
270
0
LINE
8
BLACK
10
144
20
-144.075
11
155
21
-144.075
0
LINE
8
BLACK
10
144
20
-143.925
11
155
21
-143.925
0
ARC
8
BLACK
10
155
20
-144
40
0.075
50
270
51
450
0
ARC
8
BLACK
10
144
20
-144
40
0.075
50
90
51
270
0
CIRCLE
8
BLACK
10
160
20
-151
40
3
0
CIRCLE
8
BLACK
10
160
20
-151
40
8.5
0
LINE
8
BLACK
10
144
20
-123.075
11
147
21
-123.075
0
LINE
8
BLACK
10
144
20
-122.925
11
147
21
-122.925
0
ARC
8
BLACK
10
147
20
-123
40
0.075
50
270
51
450
0
ARC
8
BLACK
10
144
20
-123
40
0.075
50
90
51
270
0
LINE
8
BLACK
10
144.075
20
-123
11
144.075
21
-119
0
LINE
8
BLACK
10
143.925
20
-123
11
143.925
21
-119
0
ARC
8
BLACK
10
144
20
-119
40
0.075
50
360
51
540
0
ARC
8
BLACK
10
144
20
-123
40
0.075
50
180
51
360
0
LINE
8
BLACK
10
144
20
-128.075
11
147
21
-128.075
0
LINE
8
BLACK
10
144
20
-127.925
11
147
21
-127.925
0
ARC
8
BLACK
10
147
20
-128
40
0.075
50
270
51
450
0
ARC
8
BLACK
10
144
20
-128
40
0.075
50
90
51
270
0
LINE
8
BLACK
10
144.075
20
-128
11
144.075
21
-124
0
LINE
8
BLACK
10
143.925
20
-128
11
143.925
21
-124
0
ARC
8
BLACK
10
144
20
-124
40
0.075
50
360
51
540
0
ARC
8
BLACK
10
144
20
-128
40
0.075
50
180
51
360
0
LINE
8
BLACK
10
144
20
-124.075
11
147
21
-124.075
0
LINE
8
BLACK
10
144
20
-123.925
11
147
21
-123.925
0
ARC
8
BLACK
10
147
20
-124
40
0.075
50
270
51
450
0
ARC
8
BLACK
10
144
20
-124
40
0.075
50
90
51
270
0
LINE
8
BLACK
10
144.075
20
-133
11
144.075
21
-129
0
LINE
8
BLACK
10
143.925
20
-133
11
143.925
21
-129
0
ARC
8
BLACK
10
144
20
-129
40
0.075
50
360
51
540
0
ARC
8
BLACK
10
144
20
-133
40
0.075
50
180
51
360
0
LINE
8
BLACK
10
144
20
-129.075
11
147
21
-129.075
0
LINE
8
BLACK
10
144
20
-128.925
11
147
21
-128.925
0
ARC
8
BLACK
10
147
20
-129
40
0.075
50
270
51
450
0
ARC
8
BLACK
10
144
20
-129
40
0.075
50
90
51
270
0
LINE
8
BLACK
10
147.075
20
-133
11
147.075
21
-119
0
LINE
8
BLACK
10
146.925
20
-133
11
146.925
21
-119
0
ARC
8
BLACK
10
147
20
-119
40
0.075
50
360
51
540
0
ARC
8
BLACK
10
147
20
-133
40
0.075
50
180
51
360
0
LINE
8
BLACK
10
144
20
-133.075
11
155
21
-133.075
0
LINE
8
BLACK
10
144
20
-132.925
11
155
21
-132.925
0
ARC
8
BLACK
10
155
20
-133
40
0.075
50
270
51
450
0
ARC
8
BLACK
10
144
20
-133
40
0.075
50
90
51
270
0
LINE
8
BLACK
10
144
20
-119.075
11
155
21
-119.075
0
LINE
8
BLACK
10
144
20
-118.925
11
155
21
-118.925
0
ARC
8
BLACK
10
155
20
-119
40
0.075
50
270
51
450
0
ARC
8
BLACK
10
144
20
-119
40
0.075
50
90
51
270
0
CIRCLE
8
BLACK
10
160
20
-126
40
3
0
CIRCLE
8
BLACK
10
160
20
-126
40
8.5
0
LINE
8
BLACK
10
147.587
20
-105.938
11
145.13
21
-107.658
0
LINE
8
BLACK
10
147.673
20
-106.06
11
145.216
21
-107.781
0
ARC
8
BLACK
10
145.173
20
-107.72
40
0.075
50
125
51
305
0
ARC
8
BLACK
10
147.63
20
-105.999
40
0.075
50
-55
51
125
0
LINE
8
BLACK
10
145.234
20
-107.677
11
142.94
21
-104.4
0
LINE
8
BLACK
10
145.111
20
-107.763
11
142.817
21
-104.486
0
ARC
8
BLACK
10
142.879
20
-104.443
40
0.075
50
395
51
575
0
ARC
8
BLACK
10
145.173
20
-107.72
40
0.075
50
215
51
395
0
LINE
8
BLACK
10
150.455
20
-110.033
11
147.998
21
-111.754
0
LINE
8
BLACK
10
150.541
20
-110.156
11
148.084
21
-111.877
0
ARC
8
BLACK
10
148.041
20
-111.816
40
0.075
50
125
51
305
0
ARC
8
BLACK
10
150.498
20
-110.095
40
0.075
50
-55
51
125
0
LINE
8
BLACK
10
148.102
20
-111.773
11
145.808
21
-108.496
0
LINE
8
BLACK
10
147.979
20
-111.859
11
145.685
21
-108.582
0
ARC
8
BLACK
10
145.746
20
-108.539
40
0.075
50
395
51
575
0
ARC
8
BLACK
10
148.041
20
-111.816
40
0.075
50
215
51
395
0
LINE
8
BLACK
10
145.788
20
-108.598
11
148.248
21
-106.882
0
LINE
8
BLACK
10
145.702
20
-108.475
11
148.162
21
-106.759
0
ARC
8
BLACK
10
148.205
20
-106.82
40
0.075
50
304.9
51
484.9
0
ARC
8
BLACK
10
145.745
20
-108.537
40
0.075
50
124.9
51
304.9
0
LINE
8
BLACK
10
150.967
20
-115.87
11
148.679
21
-112.59
0
LINE
8
BLACK
10
150.844
20
-115.956
11
148.556
21
-112.676
0
ARC
8
BLACK
10
148.617
20
-112.633
40
0.075
50
394.9
51
574.9
0
ARC
8
BLACK
10
150.906
20
-115.913
40
0.075
50
214.9
51
394.9
0
LINE
8
BLACK
10
148.656
20
-112.694
11
151.116
21
-110.978
0
LINE
8
BLACK
10
148.57
20
-112.571
11
151.03
21
-110.855
0
ARC
8
BLACK
10
151.073
20
-110.916
40
0.075
50
304.9
51
484.9
0
ARC
8
BLACK
10
148.613
20
-112.633
40
0.075
50
124.9
51
304.9
0
LINE
8
BLACK
10
145.275
20
-102.765
11
153.305
21
-114.234
0
LINE
8
BLACK
10
145.397
20
-102.679
11
153.427
21
-114.148
0
ARC
8
BLACK
10
153.366
20
-114.191
40
0.075
50
215
51
395
0
ARC
8
BLACK
10
145.336
20
-102.722
40
0.075
50
35
51
215
0
LINE
8
BLACK
10
150.946
20
-115.965
11
159.968
21
-109.671
0
LINE
8
BLACK
10
150.86
20
-115.842
11
159.882
21
-109.548
0
ARC
8
BLACK
10
159.925
20
-109.61
40
0.075
50
304.9
51
484.9
0
ARC
8
BLACK
10
150.903
20
-115.903
40
0.075
50
124.9
51
304.9
0
LINE
8
BLACK
10
142.916
20
-104.497
11
151.938
21
-98.2032
0
LINE
8
BLACK
10
142.83
20
-104.374
11
151.852
21
-98.0802
0
ARC
8
BLACK
10
151.895
20
-98.1417
40
0.075
50
304.9
51
484.9
0
ARC
8
BLACK
10
142.873
20
-104.435
40
0.075
50
124.9
51
304.9
0
CIRCLE
8
BLACK
10
160
20
-101
40
3
0
CIRCLE
8
BLACK
10
160
20
-101
40
8.5
0
CIRCLE
8
BLACK
10
147.5
20
-192
40
2.91548
0
LINE
8
BLACK
10
142.5
20
-197.075
11
152.5
21
-197.075
0
LINE
8
BLACK
10
142.5
20
-196.925
11
152.5
21
-196.925
0
ARC
8
BLACK
10
152.5
20
-197
40
0.075
50
270
51
450
0
ARC
8
BLACK
10
142.5
20
-197
40
0.075
50
90
51
270
0
LINE
8
BLACK
10
142.575
20
-197
11
142.575
21
-186
0
LINE
8
BLACK
10
142.425
20
-197
11
142.425
21
-186
0
ARC
8
BLACK
10
142.5
20
-186
40
0.075
50
360
51
540
0
ARC
8
BLACK
10
142.5
20
-197
40
0.075
50
180
51
360
0
LINE
8
BLACK
10
142.5
20
-186.075
11
152.5
21
-186.075
0
LINE
8
BLACK
10
142.5
20
-185.925
11
152.5
21
-185.925
0
ARC
8
BLACK
10
152.5
20
-186
40
0.075
50
270
51
450
0
ARC
8
BLACK
10
142.5
20
-186
40
0.075
50
90
51
270
0
LINE
8
BLACK
10
152.575
20
-197
11
152.575
21
-186
0
LINE
8
BLACK
10
152.425
20
-197
11
152.425
21
-186
0
ARC
8
BLACK
10
152.5
20
-186
40
0.075
50
360
51
540
0
ARC
8
BLACK
10
152.5
20
-197
40
0.075
50
180
51
360
0
CIRCLE
8
BLACK
10
147.5
20
-192
40
2
0
CIRCLE
8
BLACK
10
162
20
-192
40
2.91548
0
LINE
8
BLACK
10
157
20
-197.075
11
167
21
-197.075
0
LINE
8
BLACK
10
157
20
-196.925
11
167
21
-196.925
0
ARC
8
BLACK
10
167
20
-197
40
0.075
50
270
51
450
0
ARC
8
BLACK
10
157
20
-197
40
0.075
50
90
51
270
0
LINE
8
BLACK
10
157.075
20
-197
11
157.075
21
-186
0
LINE
8
BLACK
10
156.925
20
-197
11
156.925
21
-186
0
ARC
8
BLACK
10
157
20
-186
40
0.075
50
360
51
540
0
ARC
8
BLACK
10
157
20
-197
40
0.075
50
180
51
360
0
LINE
8
BLACK
10
157
20
-186.075
11
167
21
-186.075
0
LINE
8
BLACK
10
157
20
-185.925
11
167
21
-185.925
0
ARC
8
BLACK
10
167
20
-186
40
0.075
50
270
51
450
0
ARC
8
BLACK
10
157
20
-186
40
0.075
50
90
51
270
0
LINE
8
BLACK
10
167.075
20
-197
11
167.075
21
-186
0
LINE
8
BLACK
10
166.925
20
-197
11
166.925
21
-186
0
ARC
8
BLACK
10
167
20
-186
40
0.075
50
360
51
540
0
ARC
8
BLACK
10
167
20
-197
40
0.075
50
180
51
360
0
CIRCLE
8
BLACK
10
162
20
-192
40
2
0
CIRCLE
8
BLACK
10
132.5
20
-192
40
2.91548
0
LINE
8
BLACK
10
127.5
20
-197.075
11
137.5
21
-197.075
0
LINE
8
BLACK
10
127.5
20
-196.925
11
137.5
21
-196.925
0
ARC
8
BLACK
10
137.5
20
-197
40
0.075
50
270
51
450
0
ARC
8
BLACK
10
127.5
20
-197
40
0.075
50
90
51
270
0
LINE
8
BLACK
10
127.575
20
-197
11
127.575
21
-186
0
LINE
8
BLACK
10
127.425
20
-197
11
127.425
21
-186
0
ARC
8
BLACK
10
127.5
20
-186
40
0.075
50
360
51
540
0
ARC
8
BLACK
10
127.5
20
-197
40
0.075
50
180
51
360
0
LINE
8
BLACK
10
127.5
20
-186.075
11
137.5
21
-186.075
0
LINE
8
BLACK
10
127.5
20
-185.925
11
137.5
21
-185.925
0
ARC
8
BLACK
10
137.5
20
-186
40
0.075
50
270
51
450
0
ARC
8
BLACK
10
127.5
20
-186
40
0.075
50
90
51
270
0
LINE
8
BLACK
10
137.575
20
-197
11
137.575
21
-186
0
LINE
8
BLACK
10
137.425
20
-197
11
137.425
21
-186
0
ARC
8
BLACK
10
137.5
20
-186
40
0.075
50
360
51
540
0
ARC
8
BLACK
10
137.5
20
-197
40
0.075
50
180
51
360
0
CIRCLE
8
BLACK
10
132.5
20
-192
40
2
0
CIRCLE
8
BLACK
10
118
20
-192
40
2.91548
0
LINE
8
BLACK
10
113
20
-197.075
11
123
21
-197.075
0
LINE
8
BLACK
10
113
20
-196.925
11
123
21
-196.925
0
ARC
8
BLACK
10
123
20
-197
40
0.075
50
270
51
450
0
ARC
8
BLACK
10
113
20
-197
40
0.075
50
90
51
270
0
LINE
8
BLACK
10
113.075
20
-197
11
113.075
21
-186
0
LINE
8
BLACK
10
112.925
20
-197
11
112.925
21
-186
0
ARC
8
BLACK
10
113
20
-186
40
0.075
50
360
51
540
0
ARC
8
BLACK
10
113
20
-197
40
0.075
50
180
51
360
0
LINE
8
BLACK
10
113
20
-186.075
11
123
21
-186.075
0
LINE
8
BLACK
10
113
20
-185.925
11
123
21
-185.925
0
ARC
8
BLACK
10
123
20
-186
40
0.075
50
270
51
450
0
ARC
8
BLACK
10
113
20
-186
40
0.075
50
90
51
270
0
LINE
8
BLACK
10
123.075
20
-197
11
123.075
21
-186
0
LINE
8
BLACK
10
122.925
20
-197
11
122.925
21
-186
0
ARC
8
BLACK
10
123
20
-186
40
0.075
50
360
51
540
0
ARC
8
BLACK
10
123
20
-197
40
0.075
50
180
51
360
0
CIRCLE
8
BLACK
10
118
20
-192
40
2
0
LINE
8
BLACK
10
138.73
20
-149.298
11
141.27
21
-149.298
0
LINE
8
BLACK
10
138.73
20
-149.044
11
141.27
21
-149.044
0
ARC
8
BLACK
10
141.27
20
-149.171
40
0.127
50
270
51
450
0
ARC
8
BLACK
10
138.73
20
-149.171
40
0.127
50
90
51
270
0
ARC
8
BLACK
10
140
20
-150.746
40
1.524
50
-129.8
51
-90
0
ARC
8
BLACK
10
140
20
-150.746
40
1.52211
50
-90
51
-48.4
0
ARC
8
BLACK
10
140
20
-150.746
40
1.52215
50
90
51
130.6
0
ARC
8
BLACK
10
140
20
-150.746
40
1.524
50
50.2
51
90
0
ARC
8
BLACK
10
140
20
-150.746
40
1.524
50
125.6
51
180
0
ARC
8
BLACK
10
140
20
-150.746
40
1.524
50
-180
51
-126.9
0
ARC
8
BLACK
10
140
20
-150.746
40
1.52221
50
0
51
52.1
0
ARC
8
BLACK
10
140
20
-150.746
40
1.524
50
-52.1
51
0
0
ARC
8
BLACK
10
140
20
-150.746
40
0.635
50
-180
51
-90
0
ARC
8
BLACK
10
140
20
-150.746
40
1.016
50
-180
51
-90
0
ARC
8
BLACK
10
140
20
-150.746
40
0.635
50
0
51
90
0
ARC
8
BLACK
10
140
20
-150.746
40
1.016
50
0
51
90
0
ARC
8
BLACK
10
140
20
-150.746
40
2.032
50
129.9
51
180
0
ARC
8
BLACK
10
140
20
-150.746
40
2.02946
50
-180
51
-118.1
0
ARC
8
BLACK
10
140
20
-150.746
40
2.02939
50
0.1
51
49.8
0
ARC
8
BLACK
10
140
20
-150.746
40
2.032
50
-60.2
51
0
0
ARC
8
BLACK
10
140
20
-150.746
40
2.032
50
-118.3
51
-90
0
ARC
8
BLACK
10
140
20
-150.746
40
2.03092
50
-90
51
-58.4
0
LINE
8
BLACK
10
138.73
20
-99.2982
11
141.27
21
-99.2982
0
LINE
8
BLACK
10
138.73
20
-99.0442
11
141.27
21
-99.0442
0
ARC
8
BLACK
10
141.27
20
-99.1712
40
0.127
50
270
51
450
0
ARC
8
BLACK
10
138.73
20
-99.1712
40
0.127
50
90
51
270
0
ARC
8
BLACK
10
140
20
-100.746
40
1.524
50
-129.8
51
-90
0
ARC
8
BLACK
10
140
20
-100.746
40
1.52211
50
-90
51
-48.4
0
ARC
8
BLACK
10
140
20
-100.746
40
1.52215
50
90
51
130.6
0
ARC
8
BLACK
10
140
20
-100.746
40
1.524
50
50.2
51
90
0
ARC
8
BLACK
10
140
20
-100.746
40
1.524
50
125.6
51
180
0
ARC
8
BLACK
10
140
20
-100.746
40
1.524
50
-180
51
-126.9
0
ARC
8
BLACK
10
140
20
-100.746
40
1.52221
50
0
51
52.1
0
ARC
8
BLACK
10
140
20
-100.746
40
1.524
50
-52.1
51
0
0
ARC
8
BLACK
10
140
20
-100.746
40
0.635
50
-180
51
-90
0
ARC
8
BLACK
10
140
20
-100.746
40
1.016
50
-180
51
-90
0
ARC
8
BLACK
10
140
20
-100.746
40
0.635
50
0
51
90
0
ARC
8
BLACK
10
140
20
-100.746
40
1.016
50
0
51
90
0
ARC
8
BLACK
10
140
20
-100.746
40
2.032
50
129.9
51
180
0
ARC
8
BLACK
10
140
20
-100.746
40
2.02946
50
-180
51
-118.1
0
ARC
8
BLACK
10
140
20
-100.746
40
2.02939
50
0.1
51
49.8
0
ARC
8
BLACK
10
140
20
-100.746
40
2.032
50
-60.2
51
0
0
ARC
8
BLACK
10
140
20
-100.746
40
2.032
50
-118.3
51
-90
0
ARC
8
BLACK
10
140
20
-100.746
40
2.03092
50
-90
51
-58.4
0
ARC
8
BLACK
10
140
20
-163.5
40
6.04152
50
-114.4
51
-24.4
0
ARC
8
BLACK
10
140
20
-163.5
40
6.04152
50
-155.6
51
-65.6
0
ARC
8
BLACK
10
140
20
-163.5
40
6.04152
50
-245.6
51
-155.6
0
ARC
8
BLACK
10
140
20
-163.5
40
6.04152
50
-24.4
51
65.6
0
LINE
8
BLACK
10
137.5
20
-158.075
11
142.5
21
-158.075
0
LINE
8
BLACK
10
137.5
20
-157.925
11
142.5
21
-157.925
0
ARC
8
BLACK
10
142.5
20
-158
40
0.075
50
270
51
450
0
ARC
8
BLACK
10
137.5
20
-158
40
0.075
50
90
51
270
0
CIRCLE
8
BLACK
10
140
20
-163.5
40
4.5
0
ARC
8
BLACK
10
140
20
-113.5
40
6.04152
50
-114.4
51
-24.4
0
ARC
8
BLACK
10
140
20
-113.5
40
6.04152
50
-155.6
51
-65.6
0
ARC
8
BLACK
10
140
20
-113.5
40
6.04152
50
-245.6
51
-155.6
0
ARC
8
BLACK
10
140
20
-113.5
40
6.04152
50
-24.4
51
65.6
0
LINE
8
BLACK
10
137.5
20
-108.075
11
142.5
21
-108.075
0
LINE
8
BLACK
10
137.5
20
-107.925
11
142.5
21
-107.925
0
ARC
8
BLACK
10
142.5
20
-108
40
0.075
50
270
51
450
0
ARC
8
BLACK
10
137.5
20
-108
40
0.075
50
90
51
270
0
CIRCLE
8
BLACK
10
140
20
-113.5
40
4.5
0
LINE
8
BLACK
10
126.803
20
-107.137
11
126.387
21
-107.731
0
LINE
8
BLACK
10
126.387
20
-107.731
11
126.94
21
-108.207
0
LINE
8
BLACK
10
126.94
20
-108.207
11
126.922
21
-108.106
0
LINE
8
BLACK
10
126.922
20
-108.106
11
126.946
21
-107.945
0
LINE
8
BLACK
10
126.946
20
-107.945
11
127.154
21
-107.648
0
LINE
8
BLACK
10
127.154
20
-107.648
11
127.297
21
-107.571
0
LINE
8
BLACK
10
127.297
20
-107.571
11
127.398
21
-107.553
0
LINE
8
BLACK
10
127.398
20
-107.553
11
127.558
21
-107.577
0
LINE
8
BLACK
10
127.558
20
-107.577
11
127.855
21
-107.785
0
LINE
8
BLACK
10
127.855
20
-107.785
11
127.933
21
-107.928
0
LINE
8
BLACK
10
127.933
20
-107.928
11
127.951
21
-108.029
0
LINE
8
BLACK
10
127.951
20
-108.029
11
127.927
21
-108.189
0
LINE
8
BLACK
10
127.927
20
-108.189
11
127.719
21
-108.487
0
LINE
8
BLACK
10
127.719
20
-108.487
11
127.576
21
-108.564
0
LINE
8
BLACK
10
127.576
20
-108.564
11
127.475
21
-108.582
0
LINE
8
BLACK
10
127.386
20
-106.305
11
127.469
21
-106.186
0
LINE
8
BLACK
10
127.469
20
-106.186
11
127.612
21
-106.108
0
LINE
8
BLACK
10
127.612
20
-106.108
11
127.713
21
-106.091
0
LINE
8
BLACK
10
127.713
20
-106.091
11
127.874
21
-106.114
0
LINE
8
BLACK
10
127.874
20
-106.114
11
128.153
21
-106.221
0
LINE
8
BLACK
10
128.153
20
-106.221
11
128.45
21
-106.43
0
LINE
8
BLACK
10
128.45
20
-106.43
11
128.646
21
-106.656
0
LINE
8
BLACK
10
128.646
20
-106.656
11
128.724
21
-106.798
0
LINE
8
BLACK
10
128.724
20
-106.798
11
128.741
21
-106.899
0
LINE
8
BLACK
10
128.741
20
-106.899
11
128.718
21
-107.06
0
LINE
8
BLACK
10
128.718
20
-107.06
11
128.634
21
-107.179
0
LINE
8
BLACK
10
128.634
20
-107.179
11
128.492
21
-107.256
0
LINE
8
BLACK
10
128.492
20
-107.256
11
128.391
21
-107.274
0
LINE
8
BLACK
10
128.391
20
-107.274
11
128.23
21
-107.25
0
LINE
8
BLACK
10
128.23
20
-107.25
11
127.951
21
-107.143
0
LINE
8
BLACK
10
127.951
20
-107.143
11
127.653
21
-106.935
0
LINE
8
BLACK
10
127.653
20
-106.935
11
127.457
21
-106.709
0
LINE
8
BLACK
10
127.457
20
-106.709
11
127.38
21
-106.566
0
LINE
8
BLACK
10
127.38
20
-106.566
11
127.362
21
-106.465
0
LINE
8
BLACK
10
127.362
20
-106.465
11
127.386
21
-106.305
0
LINE
8
BLACK
10
129.3
20
-106.228
11
128.052
21
-105.353
0
LINE
8
BLACK
10
129.8
20
-105.514
11
128.712
21
-105.55
0
LINE
8
BLACK
10
128.551
20
-104.64
11
128.765
21
-105.853
0
LINE
8
BLACK
10
129.093
20
-127.125
11
129.093
21
-127.851
0
LINE
8
BLACK
10
129.093
20
-127.851
11
129.819
21
-127.923
0
LINE
8
BLACK
10
129.819
20
-127.923
11
129.746
21
-127.851
0
LINE
8
BLACK
10
129.746
20
-127.851
11
129.673
21
-127.705
0
LINE
8
BLACK
10
129.673
20
-127.705
11
129.673
21
-127.343
0
LINE
8
BLACK
10
129.673
20
-127.343
11
129.746
21
-127.197
0
LINE
8
BLACK
10
129.746
20
-127.197
11
129.819
21
-127.125
0
LINE
8
BLACK
10
129.819
20
-127.125
11
129.964
21
-127.052
0
LINE
8
BLACK
10
129.964
20
-127.052
11
130.327
21
-127.052
0
LINE
8
BLACK
10
130.327
20
-127.052
11
130.472
21
-127.125
0
LINE
8
BLACK
10
130.472
20
-127.125
11
130.544
21
-127.197
0
LINE
8
BLACK
10
130.544
20
-127.197
11
130.617
21
-127.343
0
LINE
8
BLACK
10
130.617
20
-127.343
11
130.617
21
-127.705
0
LINE
8
BLACK
10
130.617
20
-127.705
11
130.544
21
-127.851
0
LINE
8
BLACK
10
130.544
20
-127.851
11
130.472
21
-127.923
0
LINE
8
BLACK
10
129.093
20
-126.109
11
129.093
21
-125.964
0
LINE
8
BLACK
10
129.093
20
-125.964
11
129.165
21
-125.819
0
LINE
8
BLACK
10
129.165
20
-125.819
11
129.238
21
-125.746
0
LINE
8
BLACK
10
129.238
20
-125.746
11
129.383
21
-125.673
0
LINE
8
BLACK
10
129.383
20
-125.673
11
129.673
21
-125.601
0
LINE
8
BLACK
10
129.673
20
-125.601
11
130.036
21
-125.601
0
LINE
8
BLACK
10
130.036
20
-125.601
11
130.327
21
-125.673
0
LINE
8
BLACK
10
130.327
20
-125.673
11
130.472
21
-125.746
0
LINE
8
BLACK
10
130.472
20
-125.746
11
130.544
21
-125.819
0
LINE
8
BLACK
10
130.544
20
-125.819
11
130.617
21
-125.964
0
LINE
8
BLACK
10
130.617
20
-125.964
11
130.617
21
-126.109
0
LINE
8
BLACK
10
130.617
20
-126.109
11
130.544
21
-126.254
0
LINE
8
BLACK
10
130.544
20
-126.254
11
130.472
21
-126.327
0
LINE
8
BLACK
10
130.472
20
-126.327
11
130.327
21
-126.399
0
LINE
8
BLACK
10
130.327
20
-126.399
11
130.036
21
-126.472
0
LINE
8
BLACK
10
130.036
20
-126.472
11
129.673
21
-126.472
0
LINE
8
BLACK
10
129.673
20
-126.472
11
129.383
21
-126.399
0
LINE
8
BLACK
10
129.383
20
-126.399
11
129.238
21
-126.327
0
LINE
8
BLACK
10
129.238
20
-126.327
11
129.165
21
-126.254
0
LINE
8
BLACK
10
129.165
20
-126.254
11
129.093
21
-126.109
0
LINE
8
BLACK
10
130.617
20
-124.948
11
129.093
21
-124.948
0
LINE
8
BLACK
10
130.617
20
-124.077
11
129.746
21
-124.73
0
LINE
8
BLACK
10
129.093
20
-124.077
11
129.964
21
-124.948
0
LINE
8
BLACK
10
129.093
20
-152.125
11
129.093
21
-152.851
0
LINE
8
BLACK
10
129.093
20
-152.851
11
129.819
21
-152.923
0
LINE
8
BLACK
10
129.819
20
-152.923
11
129.746
21
-152.851
0
LINE
8
BLACK
10
129.746
20
-152.851
11
129.673
21
-152.705
0
LINE
8
BLACK
10
129.673
20
-152.705
11
129.673
21
-152.343
0
LINE
8
BLACK
10
129.673
20
-152.343
11
129.746
21
-152.197
0
LINE
8
BLACK
10
129.746
20
-152.197
11
129.819
21
-152.125
0
LINE
8
BLACK
10
129.819
20
-152.125
11
129.964
21
-152.052
0
LINE
8
BLACK
10
129.964
20
-152.052
11
130.327
21
-152.052
0
LINE
8
BLACK
10
130.327
20
-152.052
11
130.472
21
-152.125
0
LINE
8
BLACK
10
130.472
20
-152.125
11
130.544
21
-152.197
0
LINE
8
BLACK
10
130.544
20
-152.197
11
130.617
21
-152.343
0
LINE
8
BLACK
10
130.617
20
-152.343
11
130.617
21
-152.705
0
LINE
8
BLACK
10
130.617
20
-152.705
11
130.544
21
-152.851
0
LINE
8
BLACK
10
130.544
20
-152.851
11
130.472
21
-152.923
0
LINE
8
BLACK
10
129.093
20
-151.109
11
129.093
21
-150.964
0
LINE
8
BLACK
10
129.093
20
-150.964
11
129.165
21
-150.819
0
LINE
8
BLACK
10
129.165
20
-150.819
11
129.238
21
-150.746
0
LINE
8
BLACK
10
129.238
20
-150.746
11
129.383
21
-150.673
0
LINE
8
BLACK
10
129.383
20
-150.673
11
129.673
21
-150.601
0
LINE
8
BLACK
10
129.673
20
-150.601
11
130.036
21
-150.601
0
LINE
8
BLACK
10
130.036
20
-150.601
11
130.327
21
-150.673
0
LINE
8
BLACK
10
130.327
20
-150.673
11
130.472
21
-150.746
0
LINE
8
BLACK
10
130.472
20
-150.746
11
130.544
21
-150.819
0
LINE
8
BLACK
10
130.544
20
-150.819
11
130.617
21
-150.964
0
LINE
8
BLACK
10
130.617
20
-150.964
11
130.617
21
-151.109
0
LINE
8
BLACK
10
130.617
20
-151.109
11
130.544
21
-151.254
0
LINE
8
BLACK
10
130.544
20
-151.254
11
130.472
21
-151.327
0
LINE
8
BLACK
10
130.472
20
-151.327
11
130.327
21
-151.399
0
LINE
8
BLACK
10
130.327
20
-151.399
11
130.036
21
-151.472
0
LINE
8
BLACK
10
130.036
20
-151.472
11
129.673
21
-151.472
0
LINE
8
BLACK
10
129.673
20
-151.472
11
129.383
21
-151.399
0
LINE
8
BLACK
10
129.383
20
-151.399
11
129.238
21
-151.327
0
LINE
8
BLACK
10
129.238
20
-151.327
11
129.165
21
-151.254
0
LINE
8
BLACK
10
129.165
20
-151.254
11
129.093
21
-151.109
0
LINE
8
BLACK
10
130.617
20
-149.948
11
129.093
21
-149.948
0
LINE
8
BLACK
10
130.617
20
-149.077
11
129.746
21
-149.73
0
LINE
8
BLACK
10
129.093
20
-149.077
11
129.964
21
-149.948
0
LINE
8
BLACK
10
129.093
20
-177.125
11
129.093
21
-177.851
0
LINE
8
BLACK
10
129.093
20
-177.851
11
129.819
21
-177.923
0
LINE
8
BLACK
10
129.819
20
-177.923
11
129.746
21
-177.851
0
LINE
8
BLACK
10
129.746
20
-177.851
11
129.673
21
-177.705
0
LINE
8
BLACK
10
129.673
20
-177.705
11
129.673
21
-177.343
0
LINE
8
BLACK
10
129.673
20
-177.343
11
129.746
21
-177.197
0
LINE
8
BLACK
10
129.746
20
-177.197
11
129.819
21
-177.125
0
LINE
8
BLACK
10
129.819
20
-177.125
11
129.964
21
-177.052
0
LINE
8
BLACK
10
129.964
20
-177.052
11
130.327
21
-177.052
0
LINE
8
BLACK
10
130.327
20
-177.052
11
130.472
21
-177.125
0
LINE
8
BLACK
10
130.472
20
-177.125
11
130.544
21
-177.197
0
LINE
8
BLACK
10
130.544
20
-177.197
11
130.617
21
-177.343
0
LINE
8
BLACK
10
130.617
20
-177.343
11
130.617
21
-177.705
0
LINE
8
BLACK
10
130.617
20
-177.705
11
130.544
21
-177.851
0
LINE
8
BLACK
10
130.544
20
-177.851
11
130.472
21
-177.923
0
LINE
8
BLACK
10
129.093
20
-176.109
11
129.093
21
-175.964
0
LINE
8
BLACK
10
129.093
20
-175.964
11
129.165
21
-175.819
0
LINE
8
BLACK
10
129.165
20
-175.819
11
129.238
21
-175.746
0
LINE
8
BLACK
10
129.238
20
-175.746
11
129.383
21
-175.673
0
LINE
8
BLACK
10
129.383
20
-175.673
11
129.673
21
-175.601
0
LINE
8
BLACK
10
129.673
20
-175.601
11
130.036
21
-175.601
0
LINE
8
BLACK
10
130.036
20
-175.601
11
130.327
21
-175.673
0
LINE
8
BLACK
10
130.327
20
-175.673
11
130.472
21
-175.746
0
LINE
8
BLACK
10
130.472
20
-175.746
11
130.544
21
-175.819
0
LINE
8
BLACK
10
130.544
20
-175.819
11
130.617
21
-175.964
0
LINE
8
BLACK
10
130.617
20
-175.964
11
130.617
21
-176.109
0
LINE
8
BLACK
10
130.617
20
-176.109
11
130.544
21
-176.254
0
LINE
8
BLACK
10
130.544
20
-176.254
11
130.472
21
-176.327
0
LINE
8
BLACK
10
130.472
20
-176.327
11
130.327
21
-176.399
0
LINE
8
BLACK
10
130.327
20
-176.399
11
130.036
21
-176.472
0
LINE
8
BLACK
10
130.036
20
-176.472
11
129.673
21
-176.472
0
LINE
8
BLACK
10
129.673
20
-176.472
11
129.383
21
-176.399
0
LINE
8
BLACK
10
129.383
20
-176.399
11
129.238
21
-176.327
0
LINE
8
BLACK
10
129.238
20
-176.327
11
129.165
21
-176.254
0
LINE
8
BLACK
10
129.165
20
-176.254
11
129.093
21
-176.109
0
LINE
8
BLACK
10
130.617
20
-174.948
11
129.093
21
-174.948
0
LINE
8
BLACK
10
130.617
20
-174.077
11
129.746
21
-174.73
0
LINE
8
BLACK
10
129.093
20
-174.077
11
129.964
21
-174.948
0
LINE
8
BLACK
10
149.093
20
-177.125
11
149.093
21
-177.851
0
LINE
8
BLACK
10
149.093
20
-177.851
11
149.819
21
-177.923
0
LINE
8
BLACK
10
149.819
20
-177.923
11
149.746
21
-177.851
0
LINE
8
BLACK
10
149.746
20
-177.851
11
149.673
21
-177.705
0
LINE
8
BLACK
10
149.673
20
-177.705
11
149.673
21
-177.343
0
LINE
8
BLACK
10
149.673
20
-177.343
11
149.746
21
-177.197
0
LINE
8
BLACK
10
149.746
20
-177.197
11
149.819
21
-177.125
0
LINE
8
BLACK
10
149.819
20
-177.125
11
149.964
21
-177.052
0
LINE
8
BLACK
10
149.964
20
-177.052
11
150.327
21
-177.052
0
LINE
8
BLACK
10
150.327
20
-177.052
11
150.472
21
-177.125
0
LINE
8
BLACK
10
150.472
20
-177.125
11
150.544
21
-177.197
0
LINE
8
BLACK
10
150.544
20
-177.197
11
150.617
21
-177.343
0
LINE
8
BLACK
10
150.617
20
-177.343
11
150.617
21
-177.705
0
LINE
8
BLACK
10
150.617
20
-177.705
11
150.544
21
-177.851
0
LINE
8
BLACK
10
150.544
20
-177.851
11
150.472
21
-177.923
0
LINE
8
BLACK
10
149.093
20
-176.109
11
149.093
21
-175.964
0
LINE
8
BLACK
10
149.093
20
-175.964
11
149.165
21
-175.819
0
LINE
8
BLACK
10
149.165
20
-175.819
11
149.238
21
-175.746
0
LINE
8
BLACK
10
149.238
20
-175.746
11
149.383
21
-175.673
0
LINE
8
BLACK
10
149.383
20
-175.673
11
149.673
21
-175.601
0
LINE
8
BLACK
10
149.673
20
-175.601
11
150.036
21
-175.601
0
LINE
8
BLACK
10
150.036
20
-175.601
11
150.327
21
-175.673
0
LINE
8
BLACK
10
150.327
20
-175.673
11
150.472
21
-175.746
0
LINE
8
BLACK
10
150.472
20
-175.746
11
150.544
21
-175.819
0
LINE
8
BLACK
10
150.544
20
-175.819
11
150.617
21
-175.964
0
LINE
8
BLACK
10
150.617
20
-175.964
11
150.617
21
-176.109
0
LINE
8
BLACK
10
150.617
20
-176.109
11
150.544
21
-176.254
0
LINE
8
BLACK
10
150.544
20
-176.254
11
150.472
21
-176.327
0
LINE
8
BLACK
10
150.472
20
-176.327
11
150.327
21
-176.399
0
LINE
8
BLACK
10
150.327
20
-176.399
11
150.036
21
-176.472
0
LINE
8
BLACK
10
150.036
20
-176.472
11
149.673
21
-176.472
0
LINE
8
BLACK
10
149.673
20
-176.472
11
149.383
21
-176.399
0
LINE
8
BLACK
10
149.383
20
-176.399
11
149.238
21
-176.327
0
LINE
8
BLACK
10
149.238
20
-176.327
11
149.165
21
-176.254
0
LINE
8
BLACK
10
149.165
20
-176.254
11
149.093
21
-176.109
0
LINE
8
BLACK
10
150.617
20
-174.948
11
149.093
21
-174.948
0
LINE
8
BLACK
10
150.617
20
-174.077
11
149.746
21
-174.73
0
LINE
8
BLACK
10
149.093
20
-174.077
11
149.964
21
-174.948
0
LINE
8
BLACK
10
149.093
20
-152.125
11
149.093
21
-152.851
0
LINE
8
BLACK
10
149.093
20
-152.851
11
149.819
21
-152.923
0
LINE
8
BLACK
10
149.819
20
-152.923
11
149.746
21
-152.851
0
LINE
8
BLACK
10
149.746
20
-152.851
11
149.673
21
-152.705
0
LINE
8
BLACK
10
149.673
20
-152.705
11
149.673
21
-152.343
0
LINE
8
BLACK
10
149.673
20
-152.343
11
149.746
21
-152.197
0
LINE
8
BLACK
10
149.746
20
-152.197
11
149.819
21
-152.125
0
LINE
8
BLACK
10
149.819
20
-152.125
11
149.964
21
-152.052
0
LINE
8
BLACK
10
149.964
20
-152.052
11
150.327
21
-152.052
0
LINE
8
BLACK
10
150.327
20
-152.052
11
150.472
21
-152.125
0
LINE
8
BLACK
10
150.472
20
-152.125
11
150.544
21
-152.197
0
LINE
8
BLACK
10
150.544
20
-152.197
11
150.617
21
-152.343
0
LINE
8
BLACK
10
150.617
20
-152.343
11
150.617
21
-152.705
0
LINE
8
BLACK
10
150.617
20
-152.705
11
150.544
21
-152.851
0
LINE
8
BLACK
10
150.544
20
-152.851
11
150.472
21
-152.923
0
LINE
8
BLACK
10
149.093
20
-151.109
11
149.093
21
-150.964
0
LINE
8
BLACK
10
149.093
20
-150.964
11
149.165
21
-150.819
0
LINE
8
BLACK
10
149.165
20
-150.819
11
149.238
21
-150.746
0
LINE
8
BLACK
10
149.238
20
-150.746
11
149.383
21
-150.673
0
LINE
8
BLACK
10
149.383
20
-150.673
11
149.673
21
-150.601
0
LINE
8
BLACK
10
149.673
20
-150.601
11
150.036
21
-150.601
0
LINE
8
BLACK
10
150.036
20
-150.601
11
150.327
21
-150.673
0
LINE
8
BLACK
10
150.327
20
-150.673
11
150.472
21
-150.746
0
LINE
8
BLACK
10
150.472
20
-150.746
11
150.544
21
-150.819
0
LINE
8
BLACK
10
150.544
20
-150.819
11
150.617
21
-150.964
0
LINE
8
BLACK
10
150.617
20
-150.964
11
150.617
21
-151.109
0
LINE
8
BLACK
10
150.617
20
-151.109
11
150.544
21
-151.254
0
LINE
8
BLACK
10
150.544
20
-151.254
11
150.472
21
-151.327
0
LINE
8
BLACK
10
150.472
20
-151.327
11
150.327
21
-151.399
0
LINE
8
BLACK
10
150.327
20
-151.399
11
150.036
21
-151.472
0
LINE
8
BLACK
10
150.036
20
-151.472
11
149.673
21
-151.472
0
LINE
8
BLACK
10
149.673
20
-151.472
11
149.383
21
-151.399
0
LINE
8
BLACK
10
149.383
20
-151.399
11
149.238
21
-151.327
0
LINE
8
BLACK
10
149.238
20
-151.327
11
149.165
21
-151.254
0
LINE
8
BLACK
10
149.165
20
-151.254
11
149.093
21
-151.109
0
LINE
8
BLACK
10
150.617
20
-149.948
11
149.093
21
-149.948
0
LINE
8
BLACK
10
150.617
20
-149.077
11
149.746
21
-149.73
0
LINE
8
BLACK
10
149.093
20
-149.077
11
149.964
21
-149.948
0
LINE
8
BLACK
10
149.093
20
-127.125
11
149.093
21
-127.851
0
LINE
8
BLACK
10
149.093
20
-127.851
11
149.819
21
-127.923
0
LINE
8
BLACK
10
149.819
20
-127.923
11
149.746
21
-127.851
0
LINE
8
BLACK
10
149.746
20
-127.851
11
149.673
21
-127.705
0
LINE
8
BLACK
10
149.673
20
-127.705
11
149.673
21
-127.343
0
LINE
8
BLACK
10
149.673
20
-127.343
11
149.746
21
-127.197
0
LINE
8
BLACK
10
149.746
20
-127.197
11
149.819
21
-127.125
0
LINE
8
BLACK
10
149.819
20
-127.125
11
149.964
21
-127.052
0
LINE
8
BLACK
10
149.964
20
-127.052
11
150.327
21
-127.052
0
LINE
8
BLACK
10
150.327
20
-127.052
11
150.472
21
-127.125
0
LINE
8
BLACK
10
150.472
20
-127.125
11
150.544
21
-127.197
0
LINE
8
BLACK
10
150.544
20
-127.197
11
150.617
21
-127.343
0
LINE
8
BLACK
10
150.617
20
-127.343
11
150.617
21
-127.705
0
LINE
8
BLACK
10
150.617
20
-127.705
11
150.544
21
-127.851
0
LINE
8
BLACK
10
150.544
20
-127.851
11
150.472
21
-127.923
0
LINE
8
BLACK
10
149.093
20
-126.109
11
149.093
21
-125.964
0
LINE
8
BLACK
10
149.093
20
-125.964
11
149.165
21
-125.819
0
LINE
8
BLACK
10
149.165
20
-125.819
11
149.238
21
-125.746
0
LINE
8
BLACK
10
149.238
20
-125.746
11
149.383
21
-125.673
0
LINE
8
BLACK
10
149.383
20
-125.673
11
149.673
21
-125.601
0
LINE
8
BLACK
10
149.673
20
-125.601
11
150.036
21
-125.601
0
LINE
8
BLACK
10
150.036
20
-125.601
11
150.327
21
-125.673
0
LINE
8
BLACK
10
150.327
20
-125.673
11
150.472
21
-125.746
0
LINE
8
BLACK
10
150.472
20
-125.746
11
150.544
21
-125.819
0
LINE
8
BLACK
10
150.544
20
-125.819
11
150.617
21
-125.964
0
LINE
8
BLACK
10
150.617
20
-125.964
11
150.617
21
-126.109
0
LINE
8
BLACK
10
150.617
20
-126.109
11
150.544
21
-126.254
0
LINE
8
BLACK
10
150.544
20
-126.254
11
150.472
21
-126.327
0
LINE
8
BLACK
10
150.472
20
-126.327
11
150.327
21
-126.399
0
LINE
8
BLACK
10
150.327
20
-126.399
11
150.036
21
-126.472
0
LINE
8
BLACK
10
150.036
20
-126.472
11
149.673
21
-126.472
0
LINE
8
BLACK
10
149.673
20
-126.472
11
149.383
21
-126.399
0
LINE
8
BLACK
10
149.383
20
-126.399
11
149.238
21
-126.327
0
LINE
8
BLACK
10
149.238
20
-126.327
11
149.165
21
-126.254
0
LINE
8
BLACK
10
149.165
20
-126.254
11
149.093
21
-126.109
0
LINE
8
BLACK
10
150.617
20
-124.948
11
149.093
21
-124.948
0
LINE
8
BLACK
10
150.617
20
-124.077
11
149.746
21
-124.73
0
LINE
8
BLACK
10
149.093
20
-124.077
11
149.964
21
-124.948
0
LINE
8
BLACK
10
151.906
20
-105.294
11
151.49
21
-104.7
0
LINE
8
BLACK
10
151.49
20
-104.7
11
150.854
21
-105.056
0
LINE
8
BLACK
10
150.854
20
-105.056
11
150.955
21
-105.074
0
LINE
8
BLACK
10
150.955
20
-105.074
11
151.098
21
-105.151
0
LINE
8
BLACK
10
151.098
20
-105.151
11
151.306
21
-105.449
0
LINE
8
BLACK
10
151.306
20
-105.449
11
151.33
21
-105.609
0
LINE
8
BLACK
10
151.33
20
-105.609
11
151.312
21
-105.71
0
LINE
8
BLACK
10
151.312
20
-105.71
11
151.235
21
-105.853
0
LINE
8
BLACK
10
151.235
20
-105.853
11
150.937
21
-106.061
0
LINE
8
BLACK
10
150.937
20
-106.061
11
150.777
21
-106.085
0
LINE
8
BLACK
10
150.777
20
-106.085
11
150.676
21
-106.067
0
LINE
8
BLACK
10
150.676
20
-106.067
11
150.533
21
-105.99
0
LINE
8
BLACK
10
150.533
20
-105.99
11
150.325
21
-105.693
0
LINE
8
BLACK
10
150.325
20
-105.693
11
150.301
21
-105.532
0
LINE
8
BLACK
10
150.301
20
-105.532
11
150.319
21
-105.431
0
LINE
8
BLACK
10
152.489
20
-106.126
11
152.572
21
-106.245
0
LINE
8
BLACK
10
152.572
20
-106.245
11
152.596
21
-106.406
0
LINE
8
BLACK
10
152.596
20
-106.406
11
152.578
21
-106.507
0
LINE
8
BLACK
10
152.578
20
-106.507
11
152.501
21
-106.649
0
LINE
8
BLACK
10
152.501
20
-106.649
11
152.305
21
-106.875
0
LINE
8
BLACK
10
152.305
20
-106.875
11
152.008
21
-107.084
0
LINE
8
BLACK
10
152.008
20
-107.084
11
151.728
21
-107.191
0
LINE
8
BLACK
10
151.728
20
-107.191
11
151.568
21
-107.214
0
LINE
8
BLACK
10
151.568
20
-107.214
11
151.467
21
-107.197
0
LINE
8
BLACK
10
151.467
20
-107.197
11
151.324
21
-107.119
0
LINE
8
BLACK
10
151.324
20
-107.119
11
151.241
21
-107
0
LINE
8
BLACK
10
151.241
20
-107
11
151.217
21
-106.84
0
LINE
8
BLACK
10
151.217
20
-106.84
11
151.235
21
-106.739
0
LINE
8
BLACK
10
151.235
20
-106.739
11
151.312
21
-106.596
0
LINE
8
BLACK
10
151.312
20
-106.596
11
151.508
21
-106.37
0
LINE
8
BLACK
10
151.508
20
-106.37
11
151.805
21
-106.162
0
LINE
8
BLACK
10
151.805
20
-106.162
11
152.085
21
-106.055
0
LINE
8
BLACK
10
152.085
20
-106.055
11
152.245
21
-106.031
0
LINE
8
BLACK
10
152.245
20
-106.031
11
152.346
21
-106.049
0
LINE
8
BLACK
10
152.346
20
-106.049
11
152.489
21
-106.126
0
LINE
8
BLACK
10
151.907
20
-107.952
11
153.155
21
-107.077
0
LINE
8
BLACK
10
152.406
20
-108.665
11
152.745
21
-107.63
0
LINE
8
BLACK
10
153.655
20
-107.791
11
152.442
21
-107.577
0
LINE
8
BLACK
10
139.438
20
-154.308
11
139.438
21
-153.546
0
LINE
8
BLACK
10
139.438
20
-153.546
11
139.619
21
-153.546
0
LINE
8
BLACK
10
139.619
20
-153.546
11
139.728
21
-153.583
0
LINE
8
BLACK
10
139.728
20
-153.583
11
139.8
21
-153.655
0
LINE
8
BLACK
10
139.8
20
-153.655
11
139.837
21
-153.728
0
LINE
8
BLACK
10
139.837
20
-153.728
11
139.873
21
-153.873
0
LINE
8
BLACK
10
139.873
20
-153.873
11
139.873
21
-153.982
0
LINE
8
BLACK
10
139.873
20
-153.982
11
139.837
21
-154.127
0
LINE
8
BLACK
10
139.837
20
-154.127
11
139.8
21
-154.2
0
LINE
8
BLACK
10
139.8
20
-154.2
11
139.728
21
-154.272
0
LINE
8
BLACK
10
139.728
20
-154.272
11
139.619
21
-154.308
0
LINE
8
BLACK
10
139.619
20
-154.308
11
139.438
21
-154.308
0
LINE
8
BLACK
10
140.562
20
-153.546
11
140.2
21
-153.546
0
LINE
8
BLACK
10
140.2
20
-153.546
11
140.163
21
-153.909
0
LINE
8
BLACK
10
140.163
20
-153.909
11
140.2
21
-153.873
0
LINE
8
BLACK
10
140.2
20
-153.873
11
140.272
21
-153.837
0
LINE
8
BLACK
10
140.272
20
-153.837
11
140.454
21
-153.837
0
LINE
8
BLACK
10
140.454
20
-153.837
11
140.526
21
-153.873
0
LINE
8
BLACK
10
140.526
20
-153.873
11
140.562
21
-153.909
0
LINE
8
BLACK
10
140.562
20
-153.909
11
140.599
21
-153.982
0
LINE
8
BLACK
10
140.599
20
-153.982
11
140.599
21
-154.163
0
LINE
8
BLACK
10
140.599
20
-154.163
11
140.562
21
-154.236
0
LINE
8
BLACK
10
140.562
20
-154.236
11
140.526
21
-154.272
0
LINE
8
BLACK
10
140.526
20
-154.272
11
140.454
21
-154.308
0
LINE
8
BLACK
10
140.454
20
-154.308
11
140.272
21
-154.308
0
LINE
8
BLACK
10
140.272
20
-154.308
11
140.2
21
-154.272
0
LINE
8
BLACK
10
140.2
20
-154.272
11
140.163
21
-154.236
0
LINE
8
BLACK
10
142.848
20
-151.49
11
142.848
21
-151.853
0
LINE
8
BLACK
10
142.848
20
-151.853
11
142.086
21
-151.853
0
LINE
8
BLACK
10
142.449
20
-151.236
11
142.449
21
-150.982
0
LINE
8
BLACK
10
142.848
20
-150.873
11
142.848
21
-151.236
0
LINE
8
BLACK
10
142.848
20
-151.236
11
142.086
21
-151.236
0
LINE
8
BLACK
10
142.086
20
-151.236
11
142.086
21
-150.873
0
LINE
8
BLACK
10
142.848
20
-150.546
11
142.086
21
-150.546
0
LINE
8
BLACK
10
142.086
20
-150.546
11
142.086
21
-150.365
0
LINE
8
BLACK
10
142.086
20
-150.365
11
142.123
21
-150.256
0
LINE
8
BLACK
10
142.123
20
-150.256
11
142.195
21
-150.184
0
LINE
8
BLACK
10
142.195
20
-150.184
11
142.268
21
-150.147
0
LINE
8
BLACK
10
142.268
20
-150.147
11
142.413
21
-150.111
0
LINE
8
BLACK
10
142.413
20
-150.111
11
142.522
21
-150.111
0
LINE
8
BLACK
10
142.522
20
-150.111
11
142.667
21
-150.147
0
LINE
8
BLACK
10
142.667
20
-150.147
11
142.74
21
-150.184
0
LINE
8
BLACK
10
142.74
20
-150.184
11
142.812
21
-150.256
0
LINE
8
BLACK
10
142.812
20
-150.256
11
142.848
21
-150.365
0
LINE
8
BLACK
10
142.848
20
-150.365
11
142.848
21
-150.546
0
LINE
8
BLACK
10
139.438
20
-104.308
11
139.438
21
-103.546
0
LINE
8
BLACK
10
139.438
20
-103.546
11
139.619
21
-103.546
0
LINE
8
BLACK
10
139.619
20
-103.546
11
139.728
21
-103.583
0
LINE
8
BLACK
10
139.728
20
-103.583
11
139.8
21
-103.655
0
LINE
8
BLACK
10
139.8
20
-103.655
11
139.837
21
-103.728
0
LINE
8
BLACK
10
139.837
20
-103.728
11
139.873
21
-103.873
0
LINE
8
BLACK
10
139.873
20
-103.873
11
139.873
21
-103.982
0
LINE
8
BLACK
10
139.873
20
-103.982
11
139.837
21
-104.127
0
LINE
8
BLACK
10
139.837
20
-104.127
11
139.8
21
-104.2
0
LINE
8
BLACK
10
139.8
20
-104.2
11
139.728
21
-104.272
0
LINE
8
BLACK
10
139.728
20
-104.272
11
139.619
21
-104.308
0
LINE
8
BLACK
10
139.619
20
-104.308
11
139.438
21
-104.308
0
LINE
8
BLACK
10
140.127
20
-103.546
11
140.599
21
-103.546
0
LINE
8
BLACK
10
140.599
20
-103.546
11
140.345
21
-103.837
0
LINE
8
BLACK
10
140.345
20
-103.837
11
140.454
21
-103.837
0
LINE
8
BLACK
10
140.454
20
-103.837
11
140.526
21
-103.873
0
LINE
8
BLACK
10
140.526
20
-103.873
11
140.562
21
-103.909
0
LINE
8
BLACK
10
140.562
20
-103.909
11
140.599
21
-103.982
0
LINE
8
BLACK
10
140.599
20
-103.982
11
140.599
21
-104.163
0
LINE
8
BLACK
10
140.599
20
-104.163
11
140.562
21
-104.236
0
LINE
8
BLACK
10
140.562
20
-104.236
11
140.526
21
-104.272
0
LINE
8
BLACK
10
140.526
20
-104.272
11
140.454
21
-104.308
0
LINE
8
BLACK
10
140.454
20
-104.308
11
140.236
21
-104.308
0
LINE
8
BLACK
10
140.236
20
-104.308
11
140.163
21
-104.272
0
LINE
8
BLACK
10
140.163
20
-104.272
11
140.127
21
-104.236
0
LINE
8
BLACK
10
142.848
20
-101.49
11
142.848
21
-101.853
0
LINE
8
BLACK
10
142.848
20
-101.853
11
142.086
21
-101.853
0
LINE
8
BLACK
10
142.449
20
-101.236
11
142.449
21
-100.982
0
LINE
8
BLACK
10
142.848
20
-100.873
11
142.848
21
-101.236
0
LINE
8
BLACK
10
142.848
20
-101.236
11
142.086
21
-101.236
0
LINE
8
BLACK
10
142.086
20
-101.236
11
142.086
21
-100.873
0
LINE
8
BLACK
10
142.848
20
-100.546
11
142.086
21
-100.546
0
LINE
8
BLACK
10
142.086
20
-100.546
11
142.086
21
-100.365
0
LINE
8
BLACK
10
142.086
20
-100.365
11
142.123
21
-100.256
0
LINE
8
BLACK
10
142.123
20
-100.256
11
142.195
21
-100.184
0
LINE
8
BLACK
10
142.195
20
-100.184
11
142.268
21
-100.147
0
LINE
8
BLACK
10
142.268
20
-100.147
11
142.413
21
-100.111
0
LINE
8
BLACK
10
142.413
20
-100.111
11
142.522
21
-100.111
0
LINE
8
BLACK
10
142.522
20
-100.111
11
142.667
21
-100.147
0
LINE
8
BLACK
10
142.667
20
-100.147
11
142.74
21
-100.184
0
LINE
8
BLACK
10
142.74
20
-100.184
11
142.812
21
-100.256
0
LINE
8
BLACK
10
142.812
20
-100.256
11
142.848
21
-100.365
0
LINE
8
BLACK
10
142.848
20
-100.365
11
142.848
21
-100.546
0
LINE
8
BLACK
10
138.667
20
-163.607
11
138.81
21
-163.655
0
LINE
8
BLACK
10
138.81
20
-163.655
11
139.048
21
-163.655
0
LINE
8
BLACK
10
139.048
20
-163.655
11
139.143
21
-163.607
0
LINE
8
BLACK
10
139.143
20
-163.607
11
139.19
21
-163.56
0
LINE
8
BLACK
10
139.19
20
-163.56
11
139.238
21
-163.464
0
LINE
8
BLACK
10
139.238
20
-163.464
11
139.238
21
-163.369
0
LINE
8
BLACK
10
139.238
20
-163.369
11
139.19
21
-163.274
0
LINE
8
BLACK
10
139.19
20
-163.274
11
139.143
21
-163.226
0
LINE
8
BLACK
10
139.143
20
-163.226
11
139.048
21
-163.179
0
LINE
8
BLACK
10
139.048
20
-163.179
11
138.857
21
-163.131
0
LINE
8
BLACK
10
138.857
20
-163.131
11
138.762
21
-163.083
0
LINE
8
BLACK
10
138.762
20
-163.083
11
138.714
21
-163.036
0
LINE
8
BLACK
10
138.714
20
-163.036
11
138.667
21
-162.94
0
LINE
8
BLACK
10
138.667
20
-162.94
11
138.667
21
-162.845
0
LINE
8
BLACK
10
138.667
20
-162.845
11
138.714
21
-162.75
0
LINE
8
BLACK
10
138.714
20
-162.75
11
138.762
21
-162.702
0
LINE
8
BLACK
10
138.762
20
-162.702
11
138.857
21
-162.655
0
LINE
8
BLACK
10
138.857
20
-162.655
11
139.095
21
-162.655
0
LINE
8
BLACK
10
139.095
20
-162.655
11
139.238
21
-162.702
0
LINE
8
BLACK
10
139.571
20
-162.655
11
139.81
21
-163.655
0
LINE
8
BLACK
10
139.81
20
-163.655
11
140
21
-162.94
0
LINE
8
BLACK
10
140
20
-162.94
11
140.19
21
-163.655
0
LINE
8
BLACK
10
140.19
20
-163.655
11
140.429
21
-162.655
0
LINE
8
BLACK
10
140.762
20
-162.75
11
140.81
21
-162.702
0
LINE
8
BLACK
10
140.81
20
-162.702
11
140.905
21
-162.655
0
LINE
8
BLACK
10
140.905
20
-162.655
11
141.143
21
-162.655
0
LINE
8
BLACK
10
141.143
20
-162.655
11
141.238
21
-162.702
0
LINE
8
BLACK
10
141.238
20
-162.702
11
141.286
21
-162.75
0
LINE
8
BLACK
10
141.286
20
-162.75
11
141.333
21
-162.845
0
LINE
8
BLACK
10
141.333
20
-162.845
11
141.333
21
-162.94
0
LINE
8
BLACK
10
141.333
20
-162.94
11
141.286
21
-163.083
0
LINE
8
BLACK
10
141.286
20
-163.083
11
140.714
21
-163.655
0
LINE
8
BLACK
10
140.714
20
-163.655
11
141.333
21
-163.655
0
LINE
8
BLACK
10
138.667
20
-113.857
11
138.81
21
-113.905
0
LINE
8
BLACK
10
138.81
20
-113.905
11
139.048
21
-113.905
0
LINE
8
BLACK
10
139.048
20
-113.905
11
139.143
21
-113.857
0
LINE
8
BLACK
10
139.143
20
-113.857
11
139.19
21
-113.81
0
LINE
8
BLACK
10
139.19
20
-113.81
11
139.238
21
-113.714
0
LINE
8
BLACK
10
139.238
20
-113.714
11
139.238
21
-113.619
0
LINE
8
BLACK
10
139.238
20
-113.619
11
139.19
21
-113.524
0
LINE
8
BLACK
10
139.19
20
-113.524
11
139.143
21
-113.476
0
LINE
8
BLACK
10
139.143
20
-113.476
11
139.048
21
-113.429
0
LINE
8
BLACK
10
139.048
20
-113.429
11
138.857
21
-113.381
0
LINE
8
BLACK
10
138.857
20
-113.381
11
138.762
21
-113.333
0
LINE
8
BLACK
10
138.762
20
-113.333
11
138.714
21
-113.286
0
LINE
8
BLACK
10
138.714
20
-113.286
11
138.667
21
-113.19
0
LINE
8
BLACK
10
138.667
20
-113.19
11
138.667
21
-113.095
0
LINE
8
BLACK
10
138.667
20
-113.095
11
138.714
21
-113
0
LINE
8
BLACK
10
138.714
20
-113
11
138.762
21
-112.952
0
LINE
8
BLACK
10
138.762
20
-112.952
11
138.857
21
-112.905
0
LINE
8
BLACK
10
138.857
20
-112.905
11
139.095
21
-112.905
0
LINE
8
BLACK
10
139.095
20
-112.905
11
139.238
21
-112.952
0
LINE
8
BLACK
10
139.571
20
-112.905
11
139.81
21
-113.905
0
LINE
8
BLACK
10
139.81
20
-113.905
11
140
21
-113.19
0
LINE
8
BLACK
10
140
20
-113.19
11
140.19
21
-113.905
0
LINE
8
BLACK
10
140.19
20
-113.905
11
140.429
21
-112.905
0
LINE
8
BLACK
10
141.333
20
-113.905
11
140.762
21
-113.905
0
LINE
8
BLACK
10
141.048
20
-113.905
11
141.048
21
-112.905
0
LINE
8
BLACK
10
141.048
20
-112.905
11
140.952
21
-113.048
0
LINE
8
BLACK
10
140.952
20
-113.048
11
140.857
21
-113.143
0
LINE
8
BLACK
10
140.857
20
-113.143
11
140.762
21
-113.19
  0
ENDSEC
  0
EOF
