  0
SECTION
  2
HEADER
  9
$ANGBASE
  50
0.0
  9
$ANGDIR
  70
  1
  9
$MEASUREMENT
  70
0
  0
ENDSEC
  0
SECTION
  2
TABLES
  0
TABLE
  2
LTYPE
  70
1
  0
LTYPE
  2
CONTINUOUS
  70
0
  3
Solid line
  72
65
  73
0
  40
0.0
  0
ENDTAB
  0
TABLE
  2
STYLE
  70
4
  0
STYLE
  2
KICAD
  70
0
  40
0
  41
1
  42
1
  50
0
  71
0
  3
isocp.shx
  0
STYLE
  2
KICADB
  70
0
  40
0
  41
1
  42
1
  50
0
  71
0
  3
isocp.shx
  0
STYLE
  2
KICADI
  70
0
  40
0
  41
1
  42
1
  50
15
  71
0
  3
isocp.shx
  0
STYLE
  2
KICADBI
  70
0
  40
0
  41
1
  42
1
  50
15
  71
0
  3
isocp.shx
  0
ENDTAB
  0
TABLE
  2
LAYER
  70
30
  0
LAYER
  2
BLACK
  70
0
  62
7
  6
CONTINUOUS
  0
LAYER
  2
GRAY1
  70
0
  62
251
  6
CONTINUOUS
  0
LAYER
  2
GRAY2
  70
0
  62
8
  6
CONTINUOUS
  0
LAYER
  2
GRAY3
  70
0
  62
9
  6
CONTINUOUS
  0
LAYER
  2
WHITE
  70
0
  62
7
  6
CONTINUOUS
  0
LAYER
  2
LYELLOW
  70
0
  62
51
  6
CONTINUOUS
  0
LAYER
  2
BLUE1
  70
0
  62
178
  6
CONTINUOUS
  0
LAYER
  2
GREEN1
  70
0
  62
98
  6
CONTINUOUS
  0
LAYER
  2
CYAN1
  70
0
  62
138
  6
CONTINUOUS
  0
LAYER
  2
RED1
  70
0
  62
18
  6
CONTINUOUS
  0
LAYER
  2
MAGENTA1
  70
0
  62
228
  6
CONTINUOUS
  0
LAYER
  2
BROWN1
  70
0
  62
58
  6
CONTINUOUS
  0
LAYER
  2
BLUE2
  70
0
  62
5
  6
CONTINUOUS
  0
LAYER
  2
GREEN2
  70
0
  62
3
  6
CONTINUOUS
  0
LAYER
  2
CYAN2
  70
0
  62
4
  6
CONTINUOUS
  0
LAYER
  2
RED2
  70
0
  62
1
  6
CONTINUOUS
  0
LAYER
  2
MAGENTA2
  70
0
  62
6
  6
CONTINUOUS
  0
LAYER
  2
BROWN2
  70
0
  62
54
  6
CONTINUOUS
  0
LAYER
  2
BLUE3
  70
0
  62
171
  6
CONTINUOUS
  0
LAYER
  2
GREEN3
  70
0
  62
91
  6
CONTINUOUS
  0
LAYER
  2
CYAN3
  70
0
  62
131
  6
CONTINUOUS
  0
LAYER
  2
RED3
  70
0
  62
11
  6
CONTINUOUS
  0
LAYER
  2
MAGENTA3
  70
0
  62
221
  6
CONTINUOUS
  0
LAYER
  2
YELLOW3
  70
0
  62
2
  6
CONTINUOUS
  0
LAYER
  2
BLUE4
  70
0
  62
5
  6
CONTINUOUS
  0
LAYER
  2
GREEN4
  70
0
  62
3
  6
CONTINUOUS
  0
LAYER
  2
CYAN4
  70
0
  62
4
  6
CONTINUOUS
  0
LAYER
  2
RED4
  70
0
  62
1
  6
CONTINUOUS
  0
LAYER
  2
MAGENTA4
  70
0
  62
6
  6
CONTINUOUS
  0
LAYER
  2
YELLOW4
  70
0
  62
2
  6
CONTINUOUS
  0
ENDTAB
  0
ENDSEC
  0
SECTION
  2
ENTITIES
0
LINE
8
Black
10
139.8
20
-151.1
11
140.2
21
-151.1
0
LINE
8
Black
10
139.8
20
-150.9
11
140.2
21
-150.9
0
ARC
8
Black
10
140.2
20
-151
40
0.1
50
270
51
450
0
ARC
8
Black
10
139.8
20
-151
40
0.1
50
90
51
270
0
LINE
8
Black
10
140.1
20
-151.2
11
140.1
21
-150.8
0
LINE
8
Black
10
139.9
20
-151.2
11
139.9
21
-150.8
0
ARC
8
Black
10
140
20
-150.8
40
0.1
50
360
51
540
0
ARC
8
Black
10
140
20
-151.2
40
0.1
50
180
51
360
0
LINE
8
Black
10
139.8
20
-101.1
11
140.2
21
-101.1
0
LINE
8
Black
10
139.8
20
-100.9
11
140.2
21
-100.9
0
ARC
8
Black
10
140.2
20
-101
40
0.1
50
270
51
450
0
ARC
8
Black
10
139.8
20
-101
40
0.1
50
90
51
270
0
LINE
8
Black
10
140.1
20
-101.2
11
140.1
21
-100.8
0
LINE
8
Black
10
139.9
20
-101.2
11
139.9
21
-100.8
0
ARC
8
Black
10
140
20
-100.8
40
0.1
50
360
51
540
0
ARC
8
Black
10
140
20
-101.2
40
0.1
50
180
51
360
0
LINE
8
Black
10
133
20
-104.075
11
136
21
-104.075
0
LINE
8
Black
10
133
20
-103.925
11
136
21
-103.925
0
ARC
8
Black
10
136
20
-104
40
0.075
50
270
51
450
0
ARC
8
Black
10
133
20
-104
40
0.075
50
90
51
270
0
LINE
8
Black
10
136.075
20
-108
11
136.075
21
-104
0
LINE
8
Black
10
135.925
20
-108
11
135.925
21
-104
0
ARC
8
Black
10
136
20
-104
40
0.075
50
360
51
540
0
ARC
8
Black
10
136
20
-108
40
0.075
50
180
51
360
0
LINE
8
Black
10
133
20
-99.075
11
136
21
-99.075
0
LINE
8
Black
10
133
20
-98.925
11
136
21
-98.925
0
ARC
8
Black
10
136
20
-99
40
0.075
50
270
51
450
0
ARC
8
Black
10
133
20
-99
40
0.075
50
90
51
270
0
LINE
8
Black
10
136.075
20
-103
11
136.075
21
-99
0
LINE
8
Black
10
135.925
20
-103
11
135.925
21
-99
0
ARC
8
Black
10
136
20
-99
40
0.075
50
360
51
540
0
ARC
8
Black
10
136
20
-103
40
0.075
50
180
51
360
0
LINE
8
Black
10
133
20
-103.075
11
136
21
-103.075
0
LINE
8
Black
10
133
20
-102.925
11
136
21
-102.925
0
ARC
8
Black
10
136
20
-103
40
0.075
50
270
51
450
0
ARC
8
Black
10
133
20
-103
40
0.075
50
90
51
270
0
LINE
8
Black
10
136.075
20
-98
11
136.075
21
-94
0
LINE
8
Black
10
135.925
20
-98
11
135.925
21
-94
0
ARC
8
Black
10
136
20
-94
40
0.075
50
360
51
540
0
ARC
8
Black
10
136
20
-98
40
0.075
50
180
51
360
0
LINE
8
Black
10
133
20
-98.075
11
136
21
-98.075
0
LINE
8
Black
10
133
20
-97.925
11
136
21
-97.925
0
ARC
8
Black
10
136
20
-98
40
0.075
50
270
51
450
0
ARC
8
Black
10
133
20
-98
40
0.075
50
90
51
270
0
LINE
8
Black
10
133.075
20
-108
11
133.075
21
-94
0
LINE
8
Black
10
132.925
20
-108
11
132.925
21
-94
0
ARC
8
Black
10
133
20
-94
40
0.075
50
360
51
540
0
ARC
8
Black
10
133
20
-108
40
0.075
50
180
51
360
0
LINE
8
Black
10
125
20
-94.075
11
136
21
-94.075
0
LINE
8
Black
10
125
20
-93.925
11
136
21
-93.925
0
ARC
8
Black
10
136
20
-94
40
0.075
50
270
51
450
0
ARC
8
Black
10
125
20
-94
40
0.075
50
90
51
270
0
LINE
8
Black
10
125
20
-108.075
11
136
21
-108.075
0
LINE
8
Black
10
125
20
-107.925
11
136
21
-107.925
0
ARC
8
Black
10
136
20
-108
40
0.075
50
270
51
450
0
ARC
8
Black
10
125
20
-108
40
0.075
50
90
51
270
0
CIRCLE
8
Black
10
120
20
-101
40
3
0
CIRCLE
8
Black
10
120
20
-101
40
8.5
0
LINE
8
Black
10
133
20
-129.075
11
136
21
-129.075
0
LINE
8
Black
10
133
20
-128.925
11
136
21
-128.925
0
ARC
8
Black
10
136
20
-129
40
0.075
50
270
51
450
0
ARC
8
Black
10
133
20
-129
40
0.075
50
90
51
270
0
LINE
8
Black
10
136.075
20
-133
11
136.075
21
-129
0
LINE
8
Black
10
135.925
20
-133
11
135.925
21
-129
0
ARC
8
Black
10
136
20
-129
40
0.075
50
360
51
540
0
ARC
8
Black
10
136
20
-133
40
0.075
50
180
51
360
0
LINE
8
Black
10
133
20
-124.075
11
136
21
-124.075
0
LINE
8
Black
10
133
20
-123.925
11
136
21
-123.925
0
ARC
8
Black
10
136
20
-124
40
0.075
50
270
51
450
0
ARC
8
Black
10
133
20
-124
40
0.075
50
90
51
270
0
LINE
8
Black
10
136.075
20
-128
11
136.075
21
-124
0
LINE
8
Black
10
135.925
20
-128
11
135.925
21
-124
0
ARC
8
Black
10
136
20
-124
40
0.075
50
360
51
540
0
ARC
8
Black
10
136
20
-128
40
0.075
50
180
51
360
0
LINE
8
Black
10
133
20
-128.075
11
136
21
-128.075
0
LINE
8
Black
10
133
20
-127.925
11
136
21
-127.925
0
ARC
8
Black
10
136
20
-128
40
0.075
50
270
51
450
0
ARC
8
Black
10
133
20
-128
40
0.075
50
90
51
270
0
LINE
8
Black
10
136.075
20
-123
11
136.075
21
-119
0
LINE
8
Black
10
135.925
20
-123
11
135.925
21
-119
0
ARC
8
Black
10
136
20
-119
40
0.075
50
360
51
540
0
ARC
8
Black
10
136
20
-123
40
0.075
50
180
51
360
0
LINE
8
Black
10
133
20
-123.075
11
136
21
-123.075
0
LINE
8
Black
10
133
20
-122.925
11
136
21
-122.925
0
ARC
8
Black
10
136
20
-123
40
0.075
50
270
51
450
0
ARC
8
Black
10
133
20
-123
40
0.075
50
90
51
270
0
LINE
8
Black
10
133.075
20
-133
11
133.075
21
-119
0
LINE
8
Black
10
132.925
20
-133
11
132.925
21
-119
0
ARC
8
Black
10
133
20
-119
40
0.075
50
360
51
540
0
ARC
8
Black
10
133
20
-133
40
0.075
50
180
51
360
0
LINE
8
Black
10
125
20
-119.075
11
136
21
-119.075
0
LINE
8
Black
10
125
20
-118.925
11
136
21
-118.925
0
ARC
8
Black
10
136
20
-119
40
0.075
50
270
51
450
0
ARC
8
Black
10
125
20
-119
40
0.075
50
90
51
270
0
LINE
8
Black
10
125
20
-133.075
11
136
21
-133.075
0
LINE
8
Black
10
125
20
-132.925
11
136
21
-132.925
0
ARC
8
Black
10
136
20
-133
40
0.075
50
270
51
450
0
ARC
8
Black
10
125
20
-133
40
0.075
50
90
51
270
0
CIRCLE
8
Black
10
120
20
-126
40
3
0
CIRCLE
8
Black
10
120
20
-126
40
8.5
0
LINE
8
Black
10
133
20
-154.075
11
136
21
-154.075
0
LINE
8
Black
10
133
20
-153.925
11
136
21
-153.925
0
ARC
8
Black
10
136
20
-154
40
0.075
50
270
51
450
0
ARC
8
Black
10
133
20
-154
40
0.075
50
90
51
270
0
LINE
8
Black
10
136.075
20
-158
11
136.075
21
-154
0
LINE
8
Black
10
135.925
20
-158
11
135.925
21
-154
0
ARC
8
Black
10
136
20
-154
40
0.075
50
360
51
540
0
ARC
8
Black
10
136
20
-158
40
0.075
50
180
51
360
0
LINE
8
Black
10
133
20
-149.075
11
136
21
-149.075
0
LINE
8
Black
10
133
20
-148.925
11
136
21
-148.925
0
ARC
8
Black
10
136
20
-149
40
0.075
50
270
51
450
0
ARC
8
Black
10
133
20
-149
40
0.075
50
90
51
270
0
LINE
8
Black
10
136.075
20
-153
11
136.075
21
-149
0
LINE
8
Black
10
135.925
20
-153
11
135.925
21
-149
0
ARC
8
Black
10
136
20
-149
40
0.075
50
360
51
540
0
ARC
8
Black
10
136
20
-153
40
0.075
50
180
51
360
0
LINE
8
Black
10
133
20
-153.075
11
136
21
-153.075
0
LINE
8
Black
10
133
20
-152.925
11
136
21
-152.925
0
ARC
8
Black
10
136
20
-153
40
0.075
50
270
51
450
0
ARC
8
Black
10
133
20
-153
40
0.075
50
90
51
270
0
LINE
8
Black
10
136.075
20
-148
11
136.075
21
-144
0
LINE
8
Black
10
135.925
20
-148
11
135.925
21
-144
0
ARC
8
Black
10
136
20
-144
40
0.075
50
360
51
540
0
ARC
8
Black
10
136
20
-148
40
0.075
50
180
51
360
0
LINE
8
Black
10
133
20
-148.075
11
136
21
-148.075
0
LINE
8
Black
10
133
20
-147.925
11
136
21
-147.925
0
ARC
8
Black
10
136
20
-148
40
0.075
50
270
51
450
0
ARC
8
Black
10
133
20
-148
40
0.075
50
90
51
270
0
LINE
8
Black
10
133.075
20
-158
11
133.075
21
-144
0
LINE
8
Black
10
132.925
20
-158
11
132.925
21
-144
0
ARC
8
Black
10
133
20
-144
40
0.075
50
360
51
540
0
ARC
8
Black
10
133
20
-158
40
0.075
50
180
51
360
0
LINE
8
Black
10
125
20
-144.075
11
136
21
-144.075
0
LINE
8
Black
10
125
20
-143.925
11
136
21
-143.925
0
ARC
8
Black
10
136
20
-144
40
0.075
50
270
51
450
0
ARC
8
Black
10
125
20
-144
40
0.075
50
90
51
270
0
LINE
8
Black
10
125
20
-158.075
11
136
21
-158.075
0
LINE
8
Black
10
125
20
-157.925
11
136
21
-157.925
0
ARC
8
Black
10
136
20
-158
40
0.075
50
270
51
450
0
ARC
8
Black
10
125
20
-158
40
0.075
50
90
51
270
0
CIRCLE
8
Black
10
120
20
-151
40
3
0
CIRCLE
8
Black
10
120
20
-151
40
8.5
0
LINE
8
Black
10
133
20
-179.075
11
136
21
-179.075
0
LINE
8
Black
10
133
20
-178.925
11
136
21
-178.925
0
ARC
8
Black
10
136
20
-179
40
0.075
50
270
51
450
0
ARC
8
Black
10
133
20
-179
40
0.075
50
90
51
270
0
LINE
8
Black
10
136.075
20
-183
11
136.075
21
-179
0
LINE
8
Black
10
135.925
20
-183
11
135.925
21
-179
0
ARC
8
Black
10
136
20
-179
40
0.075
50
360
51
540
0
ARC
8
Black
10
136
20
-183
40
0.075
50
180
51
360
0
LINE
8
Black
10
133
20
-174.075
11
136
21
-174.075
0
LINE
8
Black
10
133
20
-173.925
11
136
21
-173.925
0
ARC
8
Black
10
136
20
-174
40
0.075
50
270
51
450
0
ARC
8
Black
10
133
20
-174
40
0.075
50
90
51
270
0
LINE
8
Black
10
136.075
20
-178
11
136.075
21
-174
0
LINE
8
Black
10
135.925
20
-178
11
135.925
21
-174
0
ARC
8
Black
10
136
20
-174
40
0.075
50
360
51
540
0
ARC
8
Black
10
136
20
-178
40
0.075
50
180
51
360
0
LINE
8
Black
10
133
20
-178.075
11
136
21
-178.075
0
LINE
8
Black
10
133
20
-177.925
11
136
21
-177.925
0
ARC
8
Black
10
136
20
-178
40
0.075
50
270
51
450
0
ARC
8
Black
10
133
20
-178
40
0.075
50
90
51
270
0
LINE
8
Black
10
136.075
20
-173
11
136.075
21
-169
0
LINE
8
Black
10
135.925
20
-173
11
135.925
21
-169
0
ARC
8
Black
10
136
20
-169
40
0.075
50
360
51
540
0
ARC
8
Black
10
136
20
-173
40
0.075
50
180
51
360
0
LINE
8
Black
10
133
20
-173.075
11
136
21
-173.075
0
LINE
8
Black
10
133
20
-172.925
11
136
21
-172.925
0
ARC
8
Black
10
136
20
-173
40
0.075
50
270
51
450
0
ARC
8
Black
10
133
20
-173
40
0.075
50
90
51
270
0
LINE
8
Black
10
133.075
20
-183
11
133.075
21
-169
0
LINE
8
Black
10
132.925
20
-183
11
132.925
21
-169
0
ARC
8
Black
10
133
20
-169
40
0.075
50
360
51
540
0
ARC
8
Black
10
133
20
-183
40
0.075
50
180
51
360
0
LINE
8
Black
10
125
20
-169.075
11
136
21
-169.075
0
LINE
8
Black
10
125
20
-168.925
11
136
21
-168.925
0
ARC
8
Black
10
136
20
-169
40
0.075
50
270
51
450
0
ARC
8
Black
10
125
20
-169
40
0.075
50
90
51
270
0
LINE
8
Black
10
125
20
-183.075
11
136
21
-183.075
0
LINE
8
Black
10
125
20
-182.925
11
136
21
-182.925
0
ARC
8
Black
10
136
20
-183
40
0.075
50
270
51
450
0
ARC
8
Black
10
125
20
-183
40
0.075
50
90
51
270
0
CIRCLE
8
Black
10
120
20
-176
40
3
0
CIRCLE
8
Black
10
120
20
-176
40
8.5
0
LINE
8
Black
10
144
20
-173.075
11
147
21
-173.075
0
LINE
8
Black
10
144
20
-172.925
11
147
21
-172.925
0
ARC
8
Black
10
147
20
-173
40
0.075
50
270
51
450
0
ARC
8
Black
10
144
20
-173
40
0.075
50
90
51
270
0
LINE
8
Black
10
144.075
20
-173
11
144.075
21
-169
0
LINE
8
Black
10
143.925
20
-173
11
143.925
21
-169
0
ARC
8
Black
10
144
20
-169
40
0.075
50
360
51
540
0
ARC
8
Black
10
144
20
-173
40
0.075
50
180
51
360
0
LINE
8
Black
10
144
20
-178.075
11
147
21
-178.075
0
LINE
8
Black
10
144
20
-177.925
11
147
21
-177.925
0
ARC
8
Black
10
147
20
-178
40
0.075
50
270
51
450
0
ARC
8
Black
10
144
20
-178
40
0.075
50
90
51
270
0
LINE
8
Black
10
144.075
20
-178
11
144.075
21
-174
0
LINE
8
Black
10
143.925
20
-178
11
143.925
21
-174
0
ARC
8
Black
10
144
20
-174
40
0.075
50
360
51
540
0
ARC
8
Black
10
144
20
-178
40
0.075
50
180
51
360
0
LINE
8
Black
10
144
20
-174.075
11
147
21
-174.075
0
LINE
8
Black
10
144
20
-173.925
11
147
21
-173.925
0
ARC
8
Black
10
147
20
-174
40
0.075
50
270
51
450
0
ARC
8
Black
10
144
20
-174
40
0.075
50
90
51
270
0
LINE
8
Black
10
144.075
20
-183
11
144.075
21
-179
0
LINE
8
Black
10
143.925
20
-183
11
143.925
21
-179
0
ARC
8
Black
10
144
20
-179
40
0.075
50
360
51
540
0
ARC
8
Black
10
144
20
-183
40
0.075
50
180
51
360
0
LINE
8
Black
10
144
20
-179.075
11
147
21
-179.075
0
LINE
8
Black
10
144
20
-178.925
11
147
21
-178.925
0
ARC
8
Black
10
147
20
-179
40
0.075
50
270
51
450
0
ARC
8
Black
10
144
20
-179
40
0.075
50
90
51
270
0
LINE
8
Black
10
147.075
20
-183
11
147.075
21
-169
0
LINE
8
Black
10
146.925
20
-183
11
146.925
21
-169
0
ARC
8
Black
10
147
20
-169
40
0.075
50
360
51
540
0
ARC
8
Black
10
147
20
-183
40
0.075
50
180
51
360
0
LINE
8
Black
10
144
20
-183.075
11
155
21
-183.075
0
LINE
8
Black
10
144
20
-182.925
11
155
21
-182.925
0
ARC
8
Black
10
155
20
-183
40
0.075
50
270
51
450
0
ARC
8
Black
10
144
20
-183
40
0.075
50
90
51
270
0
LINE
8
Black
10
144
20
-169.075
11
155
21
-169.075
0
LINE
8
Black
10
144
20
-168.925
11
155
21
-168.925
0
ARC
8
Black
10
155
20
-169
40
0.075
50
270
51
450
0
ARC
8
Black
10
144
20
-169
40
0.075
50
90
51
270
0
CIRCLE
8
Black
10
160
20
-176
40
3
0
CIRCLE
8
Black
10
160
20
-176
40
8.5
0
LINE
8
Black
10
144
20
-148.075
11
147
21
-148.075
0
LINE
8
Black
10
144
20
-147.925
11
147
21
-147.925
0
ARC
8
Black
10
147
20
-148
40
0.075
50
270
51
450
0
ARC
8
Black
10
144
20
-148
40
0.075
50
90
51
270
0
LINE
8
Black
10
144.075
20
-148
11
144.075
21
-144
0
LINE
8
Black
10
143.925
20
-148
11
143.925
21
-144
0
ARC
8
Black
10
144
20
-144
40
0.075
50
360
51
540
0
ARC
8
Black
10
144
20
-148
40
0.075
50
180
51
360
0
LINE
8
Black
10
144
20
-153.075
11
147
21
-153.075
0
LINE
8
Black
10
144
20
-152.925
11
147
21
-152.925
0
ARC
8
Black
10
147
20
-153
40
0.075
50
270
51
450
0
ARC
8
Black
10
144
20
-153
40
0.075
50
90
51
270
0
LINE
8
Black
10
144.075
20
-153
11
144.075
21
-149
0
LINE
8
Black
10
143.925
20
-153
11
143.925
21
-149
0
ARC
8
Black
10
144
20
-149
40
0.075
50
360
51
540
0
ARC
8
Black
10
144
20
-153
40
0.075
50
180
51
360
0
LINE
8
Black
10
144
20
-149.075
11
147
21
-149.075
0
LINE
8
Black
10
144
20
-148.925
11
147
21
-148.925
0
ARC
8
Black
10
147
20
-149
40
0.075
50
270
51
450
0
ARC
8
Black
10
144
20
-149
40
0.075
50
90
51
270
0
LINE
8
Black
10
144.075
20
-158
11
144.075
21
-154
0
LINE
8
Black
10
143.925
20
-158
11
143.925
21
-154
0
ARC
8
Black
10
144
20
-154
40
0.075
50
360
51
540
0
ARC
8
Black
10
144
20
-158
40
0.075
50
180
51
360
0
LINE
8
Black
10
144
20
-154.075
11
147
21
-154.075
0
LINE
8
Black
10
144
20
-153.925
11
147
21
-153.925
0
ARC
8
Black
10
147
20
-154
40
0.075
50
270
51
450
0
ARC
8
Black
10
144
20
-154
40
0.075
50
90
51
270
0
LINE
8
Black
10
147.075
20
-158
11
147.075
21
-144
0
LINE
8
Black
10
146.925
20
-158
11
146.925
21
-144
0
ARC
8
Black
10
147
20
-144
40
0.075
50
360
51
540
0
ARC
8
Black
10
147
20
-158
40
0.075
50
180
51
360
0
LINE
8
Black
10
144
20
-158.075
11
155
21
-158.075
0
LINE
8
Black
10
144
20
-157.925
11
155
21
-157.925
0
ARC
8
Black
10
155
20
-158
40
0.075
50
270
51
450
0
ARC
8
Black
10
144
20
-158
40
0.075
50
90
51
270
0
LINE
8
Black
10
144
20
-144.075
11
155
21
-144.075
0
LINE
8
Black
10
144
20
-143.925
11
155
21
-143.925
0
ARC
8
Black
10
155
20
-144
40
0.075
50
270
51
450
0
ARC
8
Black
10
144
20
-144
40
0.075
50
90
51
270
0
CIRCLE
8
Black
10
160
20
-151
40
3
0
CIRCLE
8
Black
10
160
20
-151
40
8.5
0
LINE
8
Black
10
144
20
-123.075
11
147
21
-123.075
0
LINE
8
Black
10
144
20
-122.925
11
147
21
-122.925
0
ARC
8
Black
10
147
20
-123
40
0.075
50
270
51
450
0
ARC
8
Black
10
144
20
-123
40
0.075
50
90
51
270
0
LINE
8
Black
10
144.075
20
-123
11
144.075
21
-119
0
LINE
8
Black
10
143.925
20
-123
11
143.925
21
-119
0
ARC
8
Black
10
144
20
-119
40
0.075
50
360
51
540
0
ARC
8
Black
10
144
20
-123
40
0.075
50
180
51
360
0
LINE
8
Black
10
144
20
-128.075
11
147
21
-128.075
0
LINE
8
Black
10
144
20
-127.925
11
147
21
-127.925
0
ARC
8
Black
10
147
20
-128
40
0.075
50
270
51
450
0
ARC
8
Black
10
144
20
-128
40
0.075
50
90
51
270
0
LINE
8
Black
10
144.075
20
-128
11
144.075
21
-124
0
LINE
8
Black
10
143.925
20
-128
11
143.925
21
-124
0
ARC
8
Black
10
144
20
-124
40
0.075
50
360
51
540
0
ARC
8
Black
10
144
20
-128
40
0.075
50
180
51
360
0
LINE
8
Black
10
144
20
-124.075
11
147
21
-124.075
0
LINE
8
Black
10
144
20
-123.925
11
147
21
-123.925
0
ARC
8
Black
10
147
20
-124
40
0.075
50
270
51
450
0
ARC
8
Black
10
144
20
-124
40
0.075
50
90
51
270
0
LINE
8
Black
10
144.075
20
-133
11
144.075
21
-129
0
LINE
8
Black
10
143.925
20
-133
11
143.925
21
-129
0
ARC
8
Black
10
144
20
-129
40
0.075
50
360
51
540
0
ARC
8
Black
10
144
20
-133
40
0.075
50
180
51
360
0
LINE
8
Black
10
144
20
-129.075
11
147
21
-129.075
0
LINE
8
Black
10
144
20
-128.925
11
147
21
-128.925
0
ARC
8
Black
10
147
20
-129
40
0.075
50
270
51
450
0
ARC
8
Black
10
144
20
-129
40
0.075
50
90
51
270
0
LINE
8
Black
10
147.075
20
-133
11
147.075
21
-119
0
LINE
8
Black
10
146.925
20
-133
11
146.925
21
-119
0
ARC
8
Black
10
147
20
-119
40
0.075
50
360
51
540
0
ARC
8
Black
10
147
20
-133
40
0.075
50
180
51
360
0
LINE
8
Black
10
144
20
-133.075
11
155
21
-133.075
0
LINE
8
Black
10
144
20
-132.925
11
155
21
-132.925
0
ARC
8
Black
10
155
20
-133
40
0.075
50
270
51
450
0
ARC
8
Black
10
144
20
-133
40
0.075
50
90
51
270
0
LINE
8
Black
10
144
20
-119.075
11
155
21
-119.075
0
LINE
8
Black
10
144
20
-118.925
11
155
21
-118.925
0
ARC
8
Black
10
155
20
-119
40
0.075
50
270
51
450
0
ARC
8
Black
10
144
20
-119
40
0.075
50
90
51
270
0
CIRCLE
8
Black
10
160
20
-126
40
3
0
CIRCLE
8
Black
10
160
20
-126
40
8.5
0
LINE
8
Black
10
144
20
-98.075
11
147
21
-98.075
0
LINE
8
Black
10
144
20
-97.925
11
147
21
-97.925
0
ARC
8
Black
10
147
20
-98
40
0.075
50
270
51
450
0
ARC
8
Black
10
144
20
-98
40
0.075
50
90
51
270
0
LINE
8
Black
10
144.075
20
-98
11
144.075
21
-94
0
LINE
8
Black
10
143.925
20
-98
11
143.925
21
-94
0
ARC
8
Black
10
144
20
-94
40
0.075
50
360
51
540
0
ARC
8
Black
10
144
20
-98
40
0.075
50
180
51
360
0
LINE
8
Black
10
144
20
-103.075
11
147
21
-103.075
0
LINE
8
Black
10
144
20
-102.925
11
147
21
-102.925
0
ARC
8
Black
10
147
20
-103
40
0.075
50
270
51
450
0
ARC
8
Black
10
144
20
-103
40
0.075
50
90
51
270
0
LINE
8
Black
10
144.075
20
-103
11
144.075
21
-99
0
LINE
8
Black
10
143.925
20
-103
11
143.925
21
-99
0
ARC
8
Black
10
144
20
-99
40
0.075
50
360
51
540
0
ARC
8
Black
10
144
20
-103
40
0.075
50
180
51
360
0
LINE
8
Black
10
144
20
-99.075
11
147
21
-99.075
0
LINE
8
Black
10
144
20
-98.925
11
147
21
-98.925
0
ARC
8
Black
10
147
20
-99
40
0.075
50
270
51
450
0
ARC
8
Black
10
144
20
-99
40
0.075
50
90
51
270
0
LINE
8
Black
10
144.075
20
-108
11
144.075
21
-104
0
LINE
8
Black
10
143.925
20
-108
11
143.925
21
-104
0
ARC
8
Black
10
144
20
-104
40
0.075
50
360
51
540
0
ARC
8
Black
10
144
20
-108
40
0.075
50
180
51
360
0
LINE
8
Black
10
144
20
-104.075
11
147
21
-104.075
0
LINE
8
Black
10
144
20
-103.925
11
147
21
-103.925
0
ARC
8
Black
10
147
20
-104
40
0.075
50
270
51
450
0
ARC
8
Black
10
144
20
-104
40
0.075
50
90
51
270
0
LINE
8
Black
10
147.075
20
-108
11
147.075
21
-94
0
LINE
8
Black
10
146.925
20
-108
11
146.925
21
-94
0
ARC
8
Black
10
147
20
-94
40
0.075
50
360
51
540
0
ARC
8
Black
10
147
20
-108
40
0.075
50
180
51
360
0
LINE
8
Black
10
144
20
-108.075
11
155
21
-108.075
0
LINE
8
Black
10
144
20
-107.925
11
155
21
-107.925
0
ARC
8
Black
10
155
20
-108
40
0.075
50
270
51
450
0
ARC
8
Black
10
144
20
-108
40
0.075
50
90
51
270
0
LINE
8
Black
10
144
20
-94.075
11
155
21
-94.075
0
LINE
8
Black
10
144
20
-93.925
11
155
21
-93.925
0
ARC
8
Black
10
155
20
-94
40
0.075
50
270
51
450
0
ARC
8
Black
10
144
20
-94
40
0.075
50
90
51
270
0
CIRCLE
8
Black
10
160
20
-101
40
3
0
CIRCLE
8
Black
10
160
20
-101
40
8.5
0
CIRCLE
8
Black
10
147.5
20
-192
40
2.91548
0
LINE
8
Black
10
142.5
20
-197.075
11
152.5
21
-197.075
0
LINE
8
Black
10
142.5
20
-196.925
11
152.5
21
-196.925
0
ARC
8
Black
10
152.5
20
-197
40
0.075
50
270
51
450
0
ARC
8
Black
10
142.5
20
-197
40
0.075
50
90
51
270
0
LINE
8
Black
10
142.575
20
-197
11
142.575
21
-186
0
LINE
8
Black
10
142.425
20
-197
11
142.425
21
-186
0
ARC
8
Black
10
142.5
20
-186
40
0.075
50
360
51
540
0
ARC
8
Black
10
142.5
20
-197
40
0.075
50
180
51
360
0
LINE
8
Black
10
142.5
20
-186.075
11
152.5
21
-186.075
0
LINE
8
Black
10
142.5
20
-185.925
11
152.5
21
-185.925
0
ARC
8
Black
10
152.5
20
-186
40
0.075
50
270
51
450
0
ARC
8
Black
10
142.5
20
-186
40
0.075
50
90
51
270
0
LINE
8
Black
10
152.575
20
-197
11
152.575
21
-186
0
LINE
8
Black
10
152.425
20
-197
11
152.425
21
-186
0
ARC
8
Black
10
152.5
20
-186
40
0.075
50
360
51
540
0
ARC
8
Black
10
152.5
20
-197
40
0.075
50
180
51
360
0
CIRCLE
8
Black
10
147.5
20
-192
40
2
0
CIRCLE
8
Black
10
162
20
-192
40
2.91548
0
LINE
8
Black
10
157
20
-197.075
11
167
21
-197.075
0
LINE
8
Black
10
157
20
-196.925
11
167
21
-196.925
0
ARC
8
Black
10
167
20
-197
40
0.075
50
270
51
450
0
ARC
8
Black
10
157
20
-197
40
0.075
50
90
51
270
0
LINE
8
Black
10
157.075
20
-197
11
157.075
21
-186
0
LINE
8
Black
10
156.925
20
-197
11
156.925
21
-186
0
ARC
8
Black
10
157
20
-186
40
0.075
50
360
51
540
0
ARC
8
Black
10
157
20
-197
40
0.075
50
180
51
360
0
LINE
8
Black
10
157
20
-186.075
11
167
21
-186.075
0
LINE
8
Black
10
157
20
-185.925
11
167
21
-185.925
0
ARC
8
Black
10
167
20
-186
40
0.075
50
270
51
450
0
ARC
8
Black
10
157
20
-186
40
0.075
50
90
51
270
0
LINE
8
Black
10
167.075
20
-197
11
167.075
21
-186
0
LINE
8
Black
10
166.925
20
-197
11
166.925
21
-186
0
ARC
8
Black
10
167
20
-186
40
0.075
50
360
51
540
0
ARC
8
Black
10
167
20
-197
40
0.075
50
180
51
360
0
CIRCLE
8
Black
10
162
20
-192
40
2
0
CIRCLE
8
Black
10
132.5
20
-192
40
2.91548
0
LINE
8
Black
10
127.5
20
-197.075
11
137.5
21
-197.075
0
LINE
8
Black
10
127.5
20
-196.925
11
137.5
21
-196.925
0
ARC
8
Black
10
137.5
20
-197
40
0.075
50
270
51
450
0
ARC
8
Black
10
127.5
20
-197
40
0.075
50
90
51
270
0
LINE
8
Black
10
127.575
20
-197
11
127.575
21
-186
0
LINE
8
Black
10
127.425
20
-197
11
127.425
21
-186
0
ARC
8
Black
10
127.5
20
-186
40
0.075
50
360
51
540
0
ARC
8
Black
10
127.5
20
-197
40
0.075
50
180
51
360
0
LINE
8
Black
10
127.5
20
-186.075
11
137.5
21
-186.075
0
LINE
8
Black
10
127.5
20
-185.925
11
137.5
21
-185.925
0
ARC
8
Black
10
137.5
20
-186
40
0.075
50
270
51
450
0
ARC
8
Black
10
127.5
20
-186
40
0.075
50
90
51
270
0
LINE
8
Black
10
137.575
20
-197
11
137.575
21
-186
0
LINE
8
Black
10
137.425
20
-197
11
137.425
21
-186
0
ARC
8
Black
10
137.5
20
-186
40
0.075
50
360
51
540
0
ARC
8
Black
10
137.5
20
-197
40
0.075
50
180
51
360
0
CIRCLE
8
Black
10
132.5
20
-192
40
2
0
CIRCLE
8
Black
10
118
20
-192
40
2.91548
0
LINE
8
Black
10
113
20
-197.075
11
123
21
-197.075
0
LINE
8
Black
10
113
20
-196.925
11
123
21
-196.925
0
ARC
8
Black
10
123
20
-197
40
0.075
50
270
51
450
0
ARC
8
Black
10
113
20
-197
40
0.075
50
90
51
270
0
LINE
8
Black
10
113.075
20
-197
11
113.075
21
-186
0
LINE
8
Black
10
112.925
20
-197
11
112.925
21
-186
0
ARC
8
Black
10
113
20
-186
40
0.075
50
360
51
540
0
ARC
8
Black
10
113
20
-197
40
0.075
50
180
51
360
0
LINE
8
Black
10
113
20
-186.075
11
123
21
-186.075
0
LINE
8
Black
10
113
20
-185.925
11
123
21
-185.925
0
ARC
8
Black
10
123
20
-186
40
0.075
50
270
51
450
0
ARC
8
Black
10
113
20
-186
40
0.075
50
90
51
270
0
LINE
8
Black
10
123.075
20
-197
11
123.075
21
-186
0
LINE
8
Black
10
122.925
20
-197
11
122.925
21
-186
0
ARC
8
Black
10
123
20
-186
40
0.075
50
360
51
540
0
ARC
8
Black
10
123
20
-197
40
0.075
50
180
51
360
0
CIRCLE
8
Black
10
118
20
-192
40
2
0
LINE
8
Black
10
138.73
20
-149.298
11
141.27
21
-149.298
0
LINE
8
Black
10
138.73
20
-149.044
11
141.27
21
-149.044
0
ARC
8
Black
10
141.27
20
-149.171
40
0.127
50
270
51
450
0
ARC
8
Black
10
138.73
20
-149.171
40
0.127
50
90
51
270
0
ARC
8
Black
10
140
20
-150.746
40
1.524
50
-129.8
51
-90
0
ARC
8
Black
10
140
20
-150.746
40
1.52211
50
-89.9823
51
-48.3823
0
ARC
8
Black
10
140
20
-150.746
40
1.52215
50
90.0013
51
130.601
0
ARC
8
Black
10
140
20
-150.746
40
1.524
50
50.2
51
90
0
ARC
8
Black
10
140
20
-150.746
40
1.524
50
125.6
51
180
0
ARC
8
Black
10
140
20
-150.746
40
1.524
50
-179.97
51
-126.87
0
ARC
8
Black
10
140
20
-150.746
40
1.52221
50
0.0166312
51
52.1166
0
ARC
8
Black
10
140
20
-150.746
40
1.524
50
-52.1
51
-0
0
ARC
8
Black
10
140
20
-150.746
40
0.635
50
-180
51
-90
0
ARC
8
Black
10
140
20
-150.746
40
1.016
50
-180
51
-90
0
ARC
8
Black
10
140
20
-150.746
40
0.635
50
-0
51
90
0
ARC
8
Black
10
140
20
-150.746
40
1.016
50
-0
51
90
0
ARC
8
Black
10
140
20
-150.746
40
2.032
50
129.9
51
180
0
ARC
8
Black
10
140
20
-150.746
40
2.02946
50
-179.972
51
-118.072
0
ARC
8
Black
10
140
20
-150.746
40
2.02939
50
0.0720638
51
49.7721
0
ARC
8
Black
10
140
20
-150.746
40
2.032
50
-60.2
51
-0
0
ARC
8
Black
10
140
20
-150.746
40
2.032
50
-118.3
51
-90
0
ARC
8
Black
10
140
20
-150.746
40
2.03092
50
-89.9972
51
-58.3972
0
LINE
8
Black
10
138.73
20
-99.2982
11
141.27
21
-99.2982
0
LINE
8
Black
10
138.73
20
-99.0442
11
141.27
21
-99.0442
0
ARC
8
Black
10
141.27
20
-99.1712
40
0.127
50
270
51
450
0
ARC
8
Black
10
138.73
20
-99.1712
40
0.127
50
90
51
270
0
ARC
8
Black
10
140
20
-100.746
40
1.524
50
-129.8
51
-90
0
ARC
8
Black
10
140
20
-100.746
40
1.52211
50
-89.9823
51
-48.3823
0
ARC
8
Black
10
140
20
-100.746
40
1.52215
50
90.0013
51
130.601
0
ARC
8
Black
10
140
20
-100.746
40
1.524
50
50.2
51
90
0
ARC
8
Black
10
140
20
-100.746
40
1.524
50
125.6
51
180
0
ARC
8
Black
10
140
20
-100.746
40
1.524
50
-179.97
51
-126.87
0
ARC
8
Black
10
140
20
-100.746
40
1.52221
50
0.0166312
51
52.1166
0
ARC
8
Black
10
140
20
-100.746
40
1.524
50
-52.1
51
-0
0
ARC
8
Black
10
140
20
-100.746
40
0.635
50
-180
51
-90
0
ARC
8
Black
10
140
20
-100.746
40
1.016
50
-180
51
-90
0
ARC
8
Black
10
140
20
-100.746
40
0.635
50
-0
51
90
0
ARC
8
Black
10
140
20
-100.746
40
1.016
50
-0
51
90
0
ARC
8
Black
10
140
20
-100.746
40
2.032
50
129.9
51
180
0
ARC
8
Black
10
140
20
-100.746
40
2.02946
50
-179.972
51
-118.072
0
ARC
8
Black
10
140
20
-100.746
40
2.02939
50
0.0720638
51
49.7721
0
ARC
8
Black
10
140
20
-100.746
40
2.032
50
-60.2
51
-0
0
ARC
8
Black
10
140
20
-100.746
40
2.032
50
-118.3
51
-90
0
ARC
8
Black
10
140
20
-100.746
40
2.03092
50
-89.9972
51
-58.3972
0
ARC
8
Black
10
140
20
-163.5
40
6.04152
50
-114.444
51
-24.444
0
ARC
8
Black
10
140
20
-163.5
40
6.04152
50
-155.556
51
-65.556
0
ARC
8
Black
10
140
20
-163.5
40
6.04152
50
-245.556
51
-155.556
0
ARC
8
Black
10
140
20
-163.5
40
6.04152
50
-24.444
51
65.556
0
LINE
8
Black
10
137.5
20
-158.075
11
142.5
21
-158.075
0
LINE
8
Black
10
137.5
20
-157.925
11
142.5
21
-157.925
0
ARC
8
Black
10
142.5
20
-158
40
0.075
50
270
51
450
0
ARC
8
Black
10
137.5
20
-158
40
0.075
50
90
51
270
0
CIRCLE
8
Black
10
140
20
-163.5
40
4.5
0
ARC
8
Black
10
140
20
-113.5
40
6.04152
50
-114.444
51
-24.444
0
ARC
8
Black
10
140
20
-113.5
40
6.04152
50
-155.556
51
-65.556
0
ARC
8
Black
10
140
20
-113.5
40
6.04152
50
-245.556
51
-155.556
0
ARC
8
Black
10
140
20
-113.5
40
6.04152
50
-24.444
51
65.556
0
LINE
8
Black
10
137.5
20
-108.075
11
142.5
21
-108.075
0
LINE
8
Black
10
137.5
20
-107.925
11
142.5
21
-107.925
0
ARC
8
Black
10
142.5
20
-108
40
0.075
50
270
51
450
0
ARC
8
Black
10
137.5
20
-108
40
0.075
50
90
51
270
0
CIRCLE
8
Black
10
140
20
-113.5
40
4.5
0
LINE
8
Black
10
129.165
20
-102.125
11
129.165
21
-102.851
0
LINE
8
Black
10
129.165
20
-102.851
11
129.891
21
-102.923
0
LINE
8
Black
10
129.891
20
-102.923
11
129.819
21
-102.851
0
LINE
8
Black
10
129.819
20
-102.851
11
129.746
21
-102.705
0
LINE
8
Black
10
129.746
20
-102.705
11
129.746
21
-102.343
0
LINE
8
Black
10
129.746
20
-102.343
11
129.819
21
-102.197
0
LINE
8
Black
10
129.819
20
-102.197
11
129.891
21
-102.125
0
LINE
8
Black
10
129.891
20
-102.125
11
130.036
21
-102.052
0
LINE
8
Black
10
130.036
20
-102.052
11
130.399
21
-102.052
0
LINE
8
Black
10
130.399
20
-102.052
11
130.544
21
-102.125
0
LINE
8
Black
10
130.544
20
-102.125
11
130.617
21
-102.197
0
LINE
8
Black
10
130.617
20
-102.197
11
130.689
21
-102.343
0
LINE
8
Black
10
130.689
20
-102.343
11
130.689
21
-102.705
0
LINE
8
Black
10
130.689
20
-102.705
11
130.617
21
-102.851
0
LINE
8
Black
10
130.617
20
-102.851
11
130.544
21
-102.923
0
LINE
8
Black
10
129.165
20
-101.109
11
129.165
21
-100.964
0
LINE
8
Black
10
129.165
20
-100.964
11
129.238
21
-100.819
0
LINE
8
Black
10
129.238
20
-100.819
11
129.311
21
-100.746
0
LINE
8
Black
10
129.311
20
-100.746
11
129.456
21
-100.673
0
LINE
8
Black
10
129.456
20
-100.673
11
129.746
21
-100.601
0
LINE
8
Black
10
129.746
20
-100.601
11
130.109
21
-100.601
0
LINE
8
Black
10
130.109
20
-100.601
11
130.399
21
-100.673
0
LINE
8
Black
10
130.399
20
-100.673
11
130.544
21
-100.746
0
LINE
8
Black
10
130.544
20
-100.746
11
130.617
21
-100.819
0
LINE
8
Black
10
130.617
20
-100.819
11
130.689
21
-100.964
0
LINE
8
Black
10
130.689
20
-100.964
11
130.689
21
-101.109
0
LINE
8
Black
10
130.689
20
-101.109
11
130.617
21
-101.254
0
LINE
8
Black
10
130.617
20
-101.254
11
130.544
21
-101.327
0
LINE
8
Black
10
130.544
20
-101.327
11
130.399
21
-101.399
0
LINE
8
Black
10
130.399
20
-101.399
11
130.109
21
-101.472
0
LINE
8
Black
10
130.109
20
-101.472
11
129.746
21
-101.472
0
LINE
8
Black
10
129.746
20
-101.472
11
129.456
21
-101.399
0
LINE
8
Black
10
129.456
20
-101.399
11
129.311
21
-101.327
0
LINE
8
Black
10
129.311
20
-101.327
11
129.238
21
-101.254
0
LINE
8
Black
10
129.238
20
-101.254
11
129.165
21
-101.109
0
LINE
8
Black
10
130.689
20
-99.9477
11
129.165
21
-99.9477
0
LINE
8
Black
10
130.689
20
-99.0769
11
129.819
21
-99.73
0
LINE
8
Black
10
129.165
20
-99.0769
11
130.036
21
-99.9477
0
LINE
8
Black
10
129.165
20
-127.125
11
129.165
21
-127.851
0
LINE
8
Black
10
129.165
20
-127.851
11
129.891
21
-127.923
0
LINE
8
Black
10
129.891
20
-127.923
11
129.819
21
-127.851
0
LINE
8
Black
10
129.819
20
-127.851
11
129.746
21
-127.705
0
LINE
8
Black
10
129.746
20
-127.705
11
129.746
21
-127.343
0
LINE
8
Black
10
129.746
20
-127.343
11
129.819
21
-127.197
0
LINE
8
Black
10
129.819
20
-127.197
11
129.891
21
-127.125
0
LINE
8
Black
10
129.891
20
-127.125
11
130.036
21
-127.052
0
LINE
8
Black
10
130.036
20
-127.052
11
130.399
21
-127.052
0
LINE
8
Black
10
130.399
20
-127.052
11
130.544
21
-127.125
0
LINE
8
Black
10
130.544
20
-127.125
11
130.617
21
-127.197
0
LINE
8
Black
10
130.617
20
-127.197
11
130.689
21
-127.343
0
LINE
8
Black
10
130.689
20
-127.343
11
130.689
21
-127.705
0
LINE
8
Black
10
130.689
20
-127.705
11
130.617
21
-127.851
0
LINE
8
Black
10
130.617
20
-127.851
11
130.544
21
-127.923
0
LINE
8
Black
10
129.165
20
-126.109
11
129.165
21
-125.964
0
LINE
8
Black
10
129.165
20
-125.964
11
129.238
21
-125.819
0
LINE
8
Black
10
129.238
20
-125.819
11
129.311
21
-125.746
0
LINE
8
Black
10
129.311
20
-125.746
11
129.456
21
-125.673
0
LINE
8
Black
10
129.456
20
-125.673
11
129.746
21
-125.601
0
LINE
8
Black
10
129.746
20
-125.601
11
130.109
21
-125.601
0
LINE
8
Black
10
130.109
20
-125.601
11
130.399
21
-125.673
0
LINE
8
Black
10
130.399
20
-125.673
11
130.544
21
-125.746
0
LINE
8
Black
10
130.544
20
-125.746
11
130.617
21
-125.819
0
LINE
8
Black
10
130.617
20
-125.819
11
130.689
21
-125.964
0
LINE
8
Black
10
130.689
20
-125.964
11
130.689
21
-126.109
0
LINE
8
Black
10
130.689
20
-126.109
11
130.617
21
-126.254
0
LINE
8
Black
10
130.617
20
-126.254
11
130.544
21
-126.327
0
LINE
8
Black
10
130.544
20
-126.327
11
130.399
21
-126.399
0
LINE
8
Black
10
130.399
20
-126.399
11
130.109
21
-126.472
0
LINE
8
Black
10
130.109
20
-126.472
11
129.746
21
-126.472
0
LINE
8
Black
10
129.746
20
-126.472
11
129.456
21
-126.399
0
LINE
8
Black
10
129.456
20
-126.399
11
129.311
21
-126.327
0
LINE
8
Black
10
129.311
20
-126.327
11
129.238
21
-126.254
0
LINE
8
Black
10
129.238
20
-126.254
11
129.165
21
-126.109
0
LINE
8
Black
10
130.689
20
-124.948
11
129.165
21
-124.948
0
LINE
8
Black
10
130.689
20
-124.077
11
129.819
21
-124.73
0
LINE
8
Black
10
129.165
20
-124.077
11
130.036
21
-124.948
0
LINE
8
Black
10
129.165
20
-152.125
11
129.165
21
-152.851
0
LINE
8
Black
10
129.165
20
-152.851
11
129.891
21
-152.923
0
LINE
8
Black
10
129.891
20
-152.923
11
129.819
21
-152.851
0
LINE
8
Black
10
129.819
20
-152.851
11
129.746
21
-152.705
0
LINE
8
Black
10
129.746
20
-152.705
11
129.746
21
-152.343
0
LINE
8
Black
10
129.746
20
-152.343
11
129.819
21
-152.197
0
LINE
8
Black
10
129.819
20
-152.197
11
129.891
21
-152.125
0
LINE
8
Black
10
129.891
20
-152.125
11
130.036
21
-152.052
0
LINE
8
Black
10
130.036
20
-152.052
11
130.399
21
-152.052
0
LINE
8
Black
10
130.399
20
-152.052
11
130.544
21
-152.125
0
LINE
8
Black
10
130.544
20
-152.125
11
130.617
21
-152.197
0
LINE
8
Black
10
130.617
20
-152.197
11
130.689
21
-152.343
0
LINE
8
Black
10
130.689
20
-152.343
11
130.689
21
-152.705
0
LINE
8
Black
10
130.689
20
-152.705
11
130.617
21
-152.851
0
LINE
8
Black
10
130.617
20
-152.851
11
130.544
21
-152.923
0
LINE
8
Black
10
129.165
20
-151.109
11
129.165
21
-150.964
0
LINE
8
Black
10
129.165
20
-150.964
11
129.238
21
-150.819
0
LINE
8
Black
10
129.238
20
-150.819
11
129.311
21
-150.746
0
LINE
8
Black
10
129.311
20
-150.746
11
129.456
21
-150.673
0
LINE
8
Black
10
129.456
20
-150.673
11
129.746
21
-150.601
0
LINE
8
Black
10
129.746
20
-150.601
11
130.109
21
-150.601
0
LINE
8
Black
10
130.109
20
-150.601
11
130.399
21
-150.673
0
LINE
8
Black
10
130.399
20
-150.673
11
130.544
21
-150.746
0
LINE
8
Black
10
130.544
20
-150.746
11
130.617
21
-150.819
0
LINE
8
Black
10
130.617
20
-150.819
11
130.689
21
-150.964
0
LINE
8
Black
10
130.689
20
-150.964
11
130.689
21
-151.109
0
LINE
8
Black
10
130.689
20
-151.109
11
130.617
21
-151.254
0
LINE
8
Black
10
130.617
20
-151.254
11
130.544
21
-151.327
0
LINE
8
Black
10
130.544
20
-151.327
11
130.399
21
-151.399
0
LINE
8
Black
10
130.399
20
-151.399
11
130.109
21
-151.472
0
LINE
8
Black
10
130.109
20
-151.472
11
129.746
21
-151.472
0
LINE
8
Black
10
129.746
20
-151.472
11
129.456
21
-151.399
0
LINE
8
Black
10
129.456
20
-151.399
11
129.311
21
-151.327
0
LINE
8
Black
10
129.311
20
-151.327
11
129.238
21
-151.254
0
LINE
8
Black
10
129.238
20
-151.254
11
129.165
21
-151.109
0
LINE
8
Black
10
130.689
20
-149.948
11
129.165
21
-149.948
0
LINE
8
Black
10
130.689
20
-149.077
11
129.819
21
-149.73
0
LINE
8
Black
10
129.165
20
-149.077
11
130.036
21
-149.948
0
LINE
8
Black
10
129.165
20
-177.125
11
129.165
21
-177.851
0
LINE
8
Black
10
129.165
20
-177.851
11
129.891
21
-177.923
0
LINE
8
Black
10
129.891
20
-177.923
11
129.819
21
-177.851
0
LINE
8
Black
10
129.819
20
-177.851
11
129.746
21
-177.705
0
LINE
8
Black
10
129.746
20
-177.705
11
129.746
21
-177.343
0
LINE
8
Black
10
129.746
20
-177.343
11
129.819
21
-177.197
0
LINE
8
Black
10
129.819
20
-177.197
11
129.891
21
-177.125
0
LINE
8
Black
10
129.891
20
-177.125
11
130.036
21
-177.052
0
LINE
8
Black
10
130.036
20
-177.052
11
130.399
21
-177.052
0
LINE
8
Black
10
130.399
20
-177.052
11
130.544
21
-177.125
0
LINE
8
Black
10
130.544
20
-177.125
11
130.617
21
-177.197
0
LINE
8
Black
10
130.617
20
-177.197
11
130.689
21
-177.343
0
LINE
8
Black
10
130.689
20
-177.343
11
130.689
21
-177.705
0
LINE
8
Black
10
130.689
20
-177.705
11
130.617
21
-177.851
0
LINE
8
Black
10
130.617
20
-177.851
11
130.544
21
-177.923
0
LINE
8
Black
10
129.165
20
-176.109
11
129.165
21
-175.964
0
LINE
8
Black
10
129.165
20
-175.964
11
129.238
21
-175.819
0
LINE
8
Black
10
129.238
20
-175.819
11
129.311
21
-175.746
0
LINE
8
Black
10
129.311
20
-175.746
11
129.456
21
-175.673
0
LINE
8
Black
10
129.456
20
-175.673
11
129.746
21
-175.601
0
LINE
8
Black
10
129.746
20
-175.601
11
130.109
21
-175.601
0
LINE
8
Black
10
130.109
20
-175.601
11
130.399
21
-175.673
0
LINE
8
Black
10
130.399
20
-175.673
11
130.544
21
-175.746
0
LINE
8
Black
10
130.544
20
-175.746
11
130.617
21
-175.819
0
LINE
8
Black
10
130.617
20
-175.819
11
130.689
21
-175.964
0
LINE
8
Black
10
130.689
20
-175.964
11
130.689
21
-176.109
0
LINE
8
Black
10
130.689
20
-176.109
11
130.617
21
-176.254
0
LINE
8
Black
10
130.617
20
-176.254
11
130.544
21
-176.327
0
LINE
8
Black
10
130.544
20
-176.327
11
130.399
21
-176.399
0
LINE
8
Black
10
130.399
20
-176.399
11
130.109
21
-176.472
0
LINE
8
Black
10
130.109
20
-176.472
11
129.746
21
-176.472
0
LINE
8
Black
10
129.746
20
-176.472
11
129.456
21
-176.399
0
LINE
8
Black
10
129.456
20
-176.399
11
129.311
21
-176.327
0
LINE
8
Black
10
129.311
20
-176.327
11
129.238
21
-176.254
0
LINE
8
Black
10
129.238
20
-176.254
11
129.165
21
-176.109
0
LINE
8
Black
10
130.689
20
-174.948
11
129.165
21
-174.948
0
LINE
8
Black
10
130.689
20
-174.077
11
129.819
21
-174.73
0
LINE
8
Black
10
129.165
20
-174.077
11
130.036
21
-174.948
0
LINE
8
Black
10
149.165
20
-177.125
11
149.165
21
-177.851
0
LINE
8
Black
10
149.165
20
-177.851
11
149.891
21
-177.923
0
LINE
8
Black
10
149.891
20
-177.923
11
149.819
21
-177.851
0
LINE
8
Black
10
149.819
20
-177.851
11
149.746
21
-177.705
0
LINE
8
Black
10
149.746
20
-177.705
11
149.746
21
-177.343
0
LINE
8
Black
10
149.746
20
-177.343
11
149.819
21
-177.197
0
LINE
8
Black
10
149.819
20
-177.197
11
149.891
21
-177.125
0
LINE
8
Black
10
149.891
20
-177.125
11
150.036
21
-177.052
0
LINE
8
Black
10
150.036
20
-177.052
11
150.399
21
-177.052
0
LINE
8
Black
10
150.399
20
-177.052
11
150.544
21
-177.125
0
LINE
8
Black
10
150.544
20
-177.125
11
150.617
21
-177.197
0
LINE
8
Black
10
150.617
20
-177.197
11
150.689
21
-177.343
0
LINE
8
Black
10
150.689
20
-177.343
11
150.689
21
-177.705
0
LINE
8
Black
10
150.689
20
-177.705
11
150.617
21
-177.851
0
LINE
8
Black
10
150.617
20
-177.851
11
150.544
21
-177.923
0
LINE
8
Black
10
149.165
20
-176.109
11
149.165
21
-175.964
0
LINE
8
Black
10
149.165
20
-175.964
11
149.238
21
-175.819
0
LINE
8
Black
10
149.238
20
-175.819
11
149.311
21
-175.746
0
LINE
8
Black
10
149.311
20
-175.746
11
149.456
21
-175.673
0
LINE
8
Black
10
149.456
20
-175.673
11
149.746
21
-175.601
0
LINE
8
Black
10
149.746
20
-175.601
11
150.109
21
-175.601
0
LINE
8
Black
10
150.109
20
-175.601
11
150.399
21
-175.673
0
LINE
8
Black
10
150.399
20
-175.673
11
150.544
21
-175.746
0
LINE
8
Black
10
150.544
20
-175.746
11
150.617
21
-175.819
0
LINE
8
Black
10
150.617
20
-175.819
11
150.689
21
-175.964
0
LINE
8
Black
10
150.689
20
-175.964
11
150.689
21
-176.109
0
LINE
8
Black
10
150.689
20
-176.109
11
150.617
21
-176.254
0
LINE
8
Black
10
150.617
20
-176.254
11
150.544
21
-176.327
0
LINE
8
Black
10
150.544
20
-176.327
11
150.399
21
-176.399
0
LINE
8
Black
10
150.399
20
-176.399
11
150.109
21
-176.472
0
LINE
8
Black
10
150.109
20
-176.472
11
149.746
21
-176.472
0
LINE
8
Black
10
149.746
20
-176.472
11
149.456
21
-176.399
0
LINE
8
Black
10
149.456
20
-176.399
11
149.311
21
-176.327
0
LINE
8
Black
10
149.311
20
-176.327
11
149.238
21
-176.254
0
LINE
8
Black
10
149.238
20
-176.254
11
149.165
21
-176.109
0
LINE
8
Black
10
150.689
20
-174.948
11
149.165
21
-174.948
0
LINE
8
Black
10
150.689
20
-174.077
11
149.819
21
-174.73
0
LINE
8
Black
10
149.165
20
-174.077
11
150.036
21
-174.948
0
LINE
8
Black
10
149.165
20
-152.125
11
149.165
21
-152.851
0
LINE
8
Black
10
149.165
20
-152.851
11
149.891
21
-152.923
0
LINE
8
Black
10
149.891
20
-152.923
11
149.819
21
-152.851
0
LINE
8
Black
10
149.819
20
-152.851
11
149.746
21
-152.705
0
LINE
8
Black
10
149.746
20
-152.705
11
149.746
21
-152.343
0
LINE
8
Black
10
149.746
20
-152.343
11
149.819
21
-152.197
0
LINE
8
Black
10
149.819
20
-152.197
11
149.891
21
-152.125
0
LINE
8
Black
10
149.891
20
-152.125
11
150.036
21
-152.052
0
LINE
8
Black
10
150.036
20
-152.052
11
150.399
21
-152.052
0
LINE
8
Black
10
150.399
20
-152.052
11
150.544
21
-152.125
0
LINE
8
Black
10
150.544
20
-152.125
11
150.617
21
-152.197
0
LINE
8
Black
10
150.617
20
-152.197
11
150.689
21
-152.343
0
LINE
8
Black
10
150.689
20
-152.343
11
150.689
21
-152.705
0
LINE
8
Black
10
150.689
20
-152.705
11
150.617
21
-152.851
0
LINE
8
Black
10
150.617
20
-152.851
11
150.544
21
-152.923
0
LINE
8
Black
10
149.165
20
-151.109
11
149.165
21
-150.964
0
LINE
8
Black
10
149.165
20
-150.964
11
149.238
21
-150.819
0
LINE
8
Black
10
149.238
20
-150.819
11
149.311
21
-150.746
0
LINE
8
Black
10
149.311
20
-150.746
11
149.456
21
-150.673
0
LINE
8
Black
10
149.456
20
-150.673
11
149.746
21
-150.601
0
LINE
8
Black
10
149.746
20
-150.601
11
150.109
21
-150.601
0
LINE
8
Black
10
150.109
20
-150.601
11
150.399
21
-150.673
0
LINE
8
Black
10
150.399
20
-150.673
11
150.544
21
-150.746
0
LINE
8
Black
10
150.544
20
-150.746
11
150.617
21
-150.819
0
LINE
8
Black
10
150.617
20
-150.819
11
150.689
21
-150.964
0
LINE
8
Black
10
150.689
20
-150.964
11
150.689
21
-151.109
0
LINE
8
Black
10
150.689
20
-151.109
11
150.617
21
-151.254
0
LINE
8
Black
10
150.617
20
-151.254
11
150.544
21
-151.327
0
LINE
8
Black
10
150.544
20
-151.327
11
150.399
21
-151.399
0
LINE
8
Black
10
150.399
20
-151.399
11
150.109
21
-151.472
0
LINE
8
Black
10
150.109
20
-151.472
11
149.746
21
-151.472
0
LINE
8
Black
10
149.746
20
-151.472
11
149.456
21
-151.399
0
LINE
8
Black
10
149.456
20
-151.399
11
149.311
21
-151.327
0
LINE
8
Black
10
149.311
20
-151.327
11
149.238
21
-151.254
0
LINE
8
Black
10
149.238
20
-151.254
11
149.165
21
-151.109
0
LINE
8
Black
10
150.689
20
-149.948
11
149.165
21
-149.948
0
LINE
8
Black
10
150.689
20
-149.077
11
149.819
21
-149.73
0
LINE
8
Black
10
149.165
20
-149.077
11
150.036
21
-149.948
0
LINE
8
Black
10
149.165
20
-127.125
11
149.165
21
-127.851
0
LINE
8
Black
10
149.165
20
-127.851
11
149.891
21
-127.923
0
LINE
8
Black
10
149.891
20
-127.923
11
149.819
21
-127.851
0
LINE
8
Black
10
149.819
20
-127.851
11
149.746
21
-127.705
0
LINE
8
Black
10
149.746
20
-127.705
11
149.746
21
-127.343
0
LINE
8
Black
10
149.746
20
-127.343
11
149.819
21
-127.197
0
LINE
8
Black
10
149.819
20
-127.197
11
149.891
21
-127.125
0
LINE
8
Black
10
149.891
20
-127.125
11
150.036
21
-127.052
0
LINE
8
Black
10
150.036
20
-127.052
11
150.399
21
-127.052
0
LINE
8
Black
10
150.399
20
-127.052
11
150.544
21
-127.125
0
LINE
8
Black
10
150.544
20
-127.125
11
150.617
21
-127.197
0
LINE
8
Black
10
150.617
20
-127.197
11
150.689
21
-127.343
0
LINE
8
Black
10
150.689
20
-127.343
11
150.689
21
-127.705
0
LINE
8
Black
10
150.689
20
-127.705
11
150.617
21
-127.851
0
LINE
8
Black
10
150.617
20
-127.851
11
150.544
21
-127.923
0
LINE
8
Black
10
149.165
20
-126.109
11
149.165
21
-125.964
0
LINE
8
Black
10
149.165
20
-125.964
11
149.238
21
-125.819
0
LINE
8
Black
10
149.238
20
-125.819
11
149.311
21
-125.746
0
LINE
8
Black
10
149.311
20
-125.746
11
149.456
21
-125.673
0
LINE
8
Black
10
149.456
20
-125.673
11
149.746
21
-125.601
0
LINE
8
Black
10
149.746
20
-125.601
11
150.109
21
-125.601
0
LINE
8
Black
10
150.109
20
-125.601
11
150.399
21
-125.673
0
LINE
8
Black
10
150.399
20
-125.673
11
150.544
21
-125.746
0
LINE
8
Black
10
150.544
20
-125.746
11
150.617
21
-125.819
0
LINE
8
Black
10
150.617
20
-125.819
11
150.689
21
-125.964
0
LINE
8
Black
10
150.689
20
-125.964
11
150.689
21
-126.109
0
LINE
8
Black
10
150.689
20
-126.109
11
150.617
21
-126.254
0
LINE
8
Black
10
150.617
20
-126.254
11
150.544
21
-126.327
0
LINE
8
Black
10
150.544
20
-126.327
11
150.399
21
-126.399
0
LINE
8
Black
10
150.399
20
-126.399
11
150.109
21
-126.472
0
LINE
8
Black
10
150.109
20
-126.472
11
149.746
21
-126.472
0
LINE
8
Black
10
149.746
20
-126.472
11
149.456
21
-126.399
0
LINE
8
Black
10
149.456
20
-126.399
11
149.311
21
-126.327
0
LINE
8
Black
10
149.311
20
-126.327
11
149.238
21
-126.254
0
LINE
8
Black
10
149.238
20
-126.254
11
149.165
21
-126.109
0
LINE
8
Black
10
150.689
20
-124.948
11
149.165
21
-124.948
0
LINE
8
Black
10
150.689
20
-124.077
11
149.819
21
-124.73
0
LINE
8
Black
10
149.165
20
-124.077
11
150.036
21
-124.948
0
LINE
8
Black
10
149.165
20
-102.125
11
149.165
21
-102.851
0
LINE
8
Black
10
149.165
20
-102.851
11
149.891
21
-102.923
0
LINE
8
Black
10
149.891
20
-102.923
11
149.819
21
-102.851
0
LINE
8
Black
10
149.819
20
-102.851
11
149.746
21
-102.705
0
LINE
8
Black
10
149.746
20
-102.705
11
149.746
21
-102.343
0
LINE
8
Black
10
149.746
20
-102.343
11
149.819
21
-102.197
0
LINE
8
Black
10
149.819
20
-102.197
11
149.891
21
-102.125
0
LINE
8
Black
10
149.891
20
-102.125
11
150.036
21
-102.052
0
LINE
8
Black
10
150.036
20
-102.052
11
150.399
21
-102.052
0
LINE
8
Black
10
150.399
20
-102.052
11
150.544
21
-102.125
0
LINE
8
Black
10
150.544
20
-102.125
11
150.617
21
-102.197
0
LINE
8
Black
10
150.617
20
-102.197
11
150.689
21
-102.343
0
LINE
8
Black
10
150.689
20
-102.343
11
150.689
21
-102.705
0
LINE
8
Black
10
150.689
20
-102.705
11
150.617
21
-102.851
0
LINE
8
Black
10
150.617
20
-102.851
11
150.544
21
-102.923
0
LINE
8
Black
10
149.165
20
-101.109
11
149.165
21
-100.964
0
LINE
8
Black
10
149.165
20
-100.964
11
149.238
21
-100.819
0
LINE
8
Black
10
149.238
20
-100.819
11
149.311
21
-100.746
0
LINE
8
Black
10
149.311
20
-100.746
11
149.456
21
-100.673
0
LINE
8
Black
10
149.456
20
-100.673
11
149.746
21
-100.601
0
LINE
8
Black
10
149.746
20
-100.601
11
150.109
21
-100.601
0
LINE
8
Black
10
150.109
20
-100.601
11
150.399
21
-100.673
0
LINE
8
Black
10
150.399
20
-100.673
11
150.544
21
-100.746
0
LINE
8
Black
10
150.544
20
-100.746
11
150.617
21
-100.819
0
LINE
8
Black
10
150.617
20
-100.819
11
150.689
21
-100.964
0
LINE
8
Black
10
150.689
20
-100.964
11
150.689
21
-101.109
0
LINE
8
Black
10
150.689
20
-101.109
11
150.617
21
-101.254
0
LINE
8
Black
10
150.617
20
-101.254
11
150.544
21
-101.327
0
LINE
8
Black
10
150.544
20
-101.327
11
150.399
21
-101.399
0
LINE
8
Black
10
150.399
20
-101.399
11
150.109
21
-101.472
0
LINE
8
Black
10
150.109
20
-101.472
11
149.746
21
-101.472
0
LINE
8
Black
10
149.746
20
-101.472
11
149.456
21
-101.399
0
LINE
8
Black
10
149.456
20
-101.399
11
149.311
21
-101.327
0
LINE
8
Black
10
149.311
20
-101.327
11
149.238
21
-101.254
0
LINE
8
Black
10
149.238
20
-101.254
11
149.165
21
-101.109
0
LINE
8
Black
10
150.689
20
-99.9477
11
149.165
21
-99.9477
0
LINE
8
Black
10
150.689
20
-99.0769
11
149.819
21
-99.73
0
LINE
8
Black
10
149.165
20
-99.0769
11
150.036
21
-99.9477
0
LINE
8
Black
10
137.551
20
-149.784
11
136.789
21
-149.784
0
LINE
8
Black
10
136.789
20
-149.784
11
136.789
21
-149.603
0
LINE
8
Black
10
136.789
20
-149.603
11
136.825
21
-149.494
0
LINE
8
Black
10
136.825
20
-149.494
11
136.898
21
-149.422
0
LINE
8
Black
10
136.898
20
-149.422
11
136.97
21
-149.385
0
LINE
8
Black
10
136.97
20
-149.385
11
137.115
21
-149.349
0
LINE
8
Black
10
137.115
20
-149.349
11
137.224
21
-149.349
0
LINE
8
Black
10
137.224
20
-149.349
11
137.369
21
-149.385
0
LINE
8
Black
10
137.369
20
-149.385
11
137.442
21
-149.422
0
LINE
8
Black
10
137.442
20
-149.422
11
137.514
21
-149.494
0
LINE
8
Black
10
137.514
20
-149.494
11
137.551
21
-149.603
0
LINE
8
Black
10
137.551
20
-149.603
11
137.551
21
-149.784
0
LINE
8
Black
10
136.789
20
-148.66
11
136.789
21
-149.022
0
LINE
8
Black
10
136.789
20
-149.022
11
137.152
21
-149.059
0
LINE
8
Black
10
137.152
20
-149.059
11
137.115
21
-149.022
0
LINE
8
Black
10
137.115
20
-149.022
11
137.079
21
-148.95
0
LINE
8
Black
10
137.079
20
-148.95
11
137.079
21
-148.768
0
LINE
8
Black
10
137.079
20
-148.768
11
137.115
21
-148.696
0
LINE
8
Black
10
137.115
20
-148.696
11
137.152
21
-148.66
0
LINE
8
Black
10
137.152
20
-148.66
11
137.224
21
-148.623
0
LINE
8
Black
10
137.224
20
-148.623
11
137.406
21
-148.623
0
LINE
8
Black
10
137.406
20
-148.623
11
137.478
21
-148.66
0
LINE
8
Black
10
137.478
20
-148.66
11
137.514
21
-148.696
0
LINE
8
Black
10
137.514
20
-148.696
11
137.551
21
-148.768
0
LINE
8
Black
10
137.551
20
-148.768
11
137.551
21
-148.95
0
LINE
8
Black
10
137.551
20
-148.95
11
137.514
21
-149.022
0
LINE
8
Black
10
137.514
20
-149.022
11
137.478
21
-149.059
0
LINE
8
Black
10
142.885
20
-151.49
11
142.885
21
-151.853
0
LINE
8
Black
10
142.885
20
-151.853
11
142.123
21
-151.853
0
LINE
8
Black
10
142.486
20
-151.236
11
142.486
21
-150.982
0
LINE
8
Black
10
142.885
20
-150.873
11
142.885
21
-151.236
0
LINE
8
Black
10
142.885
20
-151.236
11
142.123
21
-151.236
0
LINE
8
Black
10
142.123
20
-151.236
11
142.123
21
-150.873
0
LINE
8
Black
10
142.885
20
-150.546
11
142.123
21
-150.546
0
LINE
8
Black
10
142.123
20
-150.546
11
142.123
21
-150.365
0
LINE
8
Black
10
142.123
20
-150.365
11
142.159
21
-150.256
0
LINE
8
Black
10
142.159
20
-150.256
11
142.232
21
-150.184
0
LINE
8
Black
10
142.232
20
-150.184
11
142.304
21
-150.147
0
LINE
8
Black
10
142.304
20
-150.147
11
142.449
21
-150.111
0
LINE
8
Black
10
142.449
20
-150.111
11
142.558
21
-150.111
0
LINE
8
Black
10
142.558
20
-150.111
11
142.703
21
-150.147
0
LINE
8
Black
10
142.703
20
-150.147
11
142.776
21
-150.184
0
LINE
8
Black
10
142.776
20
-150.184
11
142.848
21
-150.256
0
LINE
8
Black
10
142.848
20
-150.256
11
142.885
21
-150.365
0
LINE
8
Black
10
142.885
20
-150.365
11
142.885
21
-150.546
0
LINE
8
Black
10
137.551
20
-99.7844
11
136.789
21
-99.7844
0
LINE
8
Black
10
136.789
20
-99.7844
11
136.789
21
-99.603
0
LINE
8
Black
10
136.789
20
-99.603
11
136.825
21
-99.4941
0
LINE
8
Black
10
136.825
20
-99.4941
11
136.898
21
-99.4216
0
LINE
8
Black
10
136.898
20
-99.4216
11
136.97
21
-99.3853
0
LINE
8
Black
10
136.97
20
-99.3853
11
137.115
21
-99.349
0
LINE
8
Black
10
137.115
20
-99.349
11
137.224
21
-99.349
0
LINE
8
Black
10
137.224
20
-99.349
11
137.369
21
-99.3853
0
LINE
8
Black
10
137.369
20
-99.3853
11
137.442
21
-99.4216
0
LINE
8
Black
10
137.442
20
-99.4216
11
137.514
21
-99.4941
0
LINE
8
Black
10
137.514
20
-99.4941
11
137.551
21
-99.603
0
LINE
8
Black
10
137.551
20
-99.603
11
137.551
21
-99.7844
0
LINE
8
Black
10
136.789
20
-99.095
11
136.789
21
-98.6233
0
LINE
8
Black
10
136.789
20
-98.6233
11
137.079
21
-98.8773
0
LINE
8
Black
10
137.079
20
-98.8773
11
137.079
21
-98.7684
0
LINE
8
Black
10
137.079
20
-98.7684
11
137.115
21
-98.6959
0
LINE
8
Black
10
137.115
20
-98.6959
11
137.152
21
-98.6596
0
LINE
8
Black
10
137.152
20
-98.6596
11
137.224
21
-98.6233
0
LINE
8
Black
10
137.224
20
-98.6233
11
137.406
21
-98.6233
0
LINE
8
Black
10
137.406
20
-98.6233
11
137.478
21
-98.6596
0
LINE
8
Black
10
137.478
20
-98.6596
11
137.514
21
-98.6959
0
LINE
8
Black
10
137.514
20
-98.6959
11
137.551
21
-98.7684
0
LINE
8
Black
10
137.551
20
-98.7684
11
137.551
21
-98.9861
0
LINE
8
Black
10
137.551
20
-98.9861
11
137.514
21
-99.0587
0
LINE
8
Black
10
137.514
20
-99.0587
11
137.478
21
-99.095
0
LINE
8
Black
10
142.885
20
-101.49
11
142.885
21
-101.853
0
LINE
8
Black
10
142.885
20
-101.853
11
142.123
21
-101.853
0
LINE
8
Black
10
142.486
20
-101.236
11
142.486
21
-100.982
0
LINE
8
Black
10
142.885
20
-100.873
11
142.885
21
-101.236
0
LINE
8
Black
10
142.885
20
-101.236
11
142.123
21
-101.236
0
LINE
8
Black
10
142.123
20
-101.236
11
142.123
21
-100.873
0
LINE
8
Black
10
142.885
20
-100.546
11
142.123
21
-100.546
0
LINE
8
Black
10
142.123
20
-100.546
11
142.123
21
-100.365
0
LINE
8
Black
10
142.123
20
-100.365
11
142.159
21
-100.256
0
LINE
8
Black
10
142.159
20
-100.256
11
142.232
21
-100.184
0
LINE
8
Black
10
142.232
20
-100.184
11
142.304
21
-100.147
0
LINE
8
Black
10
142.304
20
-100.147
11
142.449
21
-100.111
0
LINE
8
Black
10
142.449
20
-100.111
11
142.558
21
-100.111
0
LINE
8
Black
10
142.558
20
-100.111
11
142.703
21
-100.147
0
LINE
8
Black
10
142.703
20
-100.147
11
142.776
21
-100.184
0
LINE
8
Black
10
142.776
20
-100.184
11
142.848
21
-100.256
0
LINE
8
Black
10
142.848
20
-100.256
11
142.885
21
-100.365
0
LINE
8
Black
10
142.885
20
-100.365
11
142.885
21
-100.546
0
LINE
8
Black
10
138.667
20
-156.405
11
138.81
21
-156.452
0
LINE
8
Black
10
138.81
20
-156.452
11
139.048
21
-156.452
0
LINE
8
Black
10
139.048
20
-156.452
11
139.143
21
-156.405
0
LINE
8
Black
10
139.143
20
-156.405
11
139.19
21
-156.357
0
LINE
8
Black
10
139.19
20
-156.357
11
139.238
21
-156.262
0
LINE
8
Black
10
139.238
20
-156.262
11
139.238
21
-156.167
0
LINE
8
Black
10
139.238
20
-156.167
11
139.19
21
-156.071
0
LINE
8
Black
10
139.19
20
-156.071
11
139.143
21
-156.024
0
LINE
8
Black
10
139.143
20
-156.024
11
139.048
21
-155.976
0
LINE
8
Black
10
139.048
20
-155.976
11
138.857
21
-155.929
0
LINE
8
Black
10
138.857
20
-155.929
11
138.762
21
-155.881
0
LINE
8
Black
10
138.762
20
-155.881
11
138.714
21
-155.833
0
LINE
8
Black
10
138.714
20
-155.833
11
138.667
21
-155.738
0
LINE
8
Black
10
138.667
20
-155.738
11
138.667
21
-155.643
0
LINE
8
Black
10
138.667
20
-155.643
11
138.714
21
-155.548
0
LINE
8
Black
10
138.714
20
-155.548
11
138.762
21
-155.5
0
LINE
8
Black
10
138.762
20
-155.5
11
138.857
21
-155.452
0
LINE
8
Black
10
138.857
20
-155.452
11
139.095
21
-155.452
0
LINE
8
Black
10
139.095
20
-155.452
11
139.238
21
-155.5
0
LINE
8
Black
10
139.571
20
-155.452
11
139.81
21
-156.452
0
LINE
8
Black
10
139.81
20
-156.452
11
140
21
-155.738
0
LINE
8
Black
10
140
20
-155.738
11
140.19
21
-156.452
0
LINE
8
Black
10
140.19
20
-156.452
11
140.429
21
-155.452
0
LINE
8
Black
10
140.762
20
-155.548
11
140.81
21
-155.5
0
LINE
8
Black
10
140.81
20
-155.5
11
140.905
21
-155.452
0
LINE
8
Black
10
140.905
20
-155.452
11
141.143
21
-155.452
0
LINE
8
Black
10
141.143
20
-155.452
11
141.238
21
-155.5
0
LINE
8
Black
10
141.238
20
-155.5
11
141.286
21
-155.548
0
LINE
8
Black
10
141.286
20
-155.548
11
141.333
21
-155.643
0
LINE
8
Black
10
141.333
20
-155.643
11
141.333
21
-155.738
0
LINE
8
Black
10
141.333
20
-155.738
11
141.286
21
-155.881
0
LINE
8
Black
10
141.286
20
-155.881
11
140.714
21
-156.452
0
LINE
8
Black
10
140.714
20
-156.452
11
141.333
21
-156.452
0
LINE
8
Black
10
138.667
20
-106.405
11
138.81
21
-106.452
0
LINE
8
Black
10
138.81
20
-106.452
11
139.048
21
-106.452
0
LINE
8
Black
10
139.048
20
-106.452
11
139.143
21
-106.405
0
LINE
8
Black
10
139.143
20
-106.405
11
139.19
21
-106.357
0
LINE
8
Black
10
139.19
20
-106.357
11
139.238
21
-106.262
0
LINE
8
Black
10
139.238
20
-106.262
11
139.238
21
-106.167
0
LINE
8
Black
10
139.238
20
-106.167
11
139.19
21
-106.071
0
LINE
8
Black
10
139.19
20
-106.071
11
139.143
21
-106.024
0
LINE
8
Black
10
139.143
20
-106.024
11
139.048
21
-105.976
0
LINE
8
Black
10
139.048
20
-105.976
11
138.857
21
-105.929
0
LINE
8
Black
10
138.857
20
-105.929
11
138.762
21
-105.881
0
LINE
8
Black
10
138.762
20
-105.881
11
138.714
21
-105.833
0
LINE
8
Black
10
138.714
20
-105.833
11
138.667
21
-105.738
0
LINE
8
Black
10
138.667
20
-105.738
11
138.667
21
-105.643
0
LINE
8
Black
10
138.667
20
-105.643
11
138.714
21
-105.548
0
LINE
8
Black
10
138.714
20
-105.548
11
138.762
21
-105.5
0
LINE
8
Black
10
138.762
20
-105.5
11
138.857
21
-105.452
0
LINE
8
Black
10
138.857
20
-105.452
11
139.095
21
-105.452
0
LINE
8
Black
10
139.095
20
-105.452
11
139.238
21
-105.5
0
LINE
8
Black
10
139.571
20
-105.452
11
139.81
21
-106.452
0
LINE
8
Black
10
139.81
20
-106.452
11
140
21
-105.738
0
LINE
8
Black
10
140
20
-105.738
11
140.19
21
-106.452
0
LINE
8
Black
10
140.19
20
-106.452
11
140.429
21
-105.452
0
LINE
8
Black
10
141.333
20
-106.452
11
140.762
21
-106.452
0
LINE
8
Black
10
141.048
20
-106.452
11
141.048
21
-105.452
0
LINE
8
Black
10
141.048
20
-105.452
11
140.952
21
-105.595
0
LINE
8
Black
10
140.952
20
-105.595
11
140.857
21
-105.69
0
LINE
8
Black
10
140.857
20
-105.69
11
140.762
21
-105.738
  0
ENDSEC
  0
EOF
