%FSLAX34Y34*%
G04 Gerber Fmt 3.4, Leading zero omitted, Abs format*
G04 (created by PCBNEW (2013-12-24 BZR 4575)-product) date 2014-01-25 4:15:43 PM*
%MOIN*%
G01*
G70*
G90*
G04 APERTURE LIST*
%ADD10C,0.005906*%
%ADD11R,0.078700X0.078700*%
%ADD12R,0.051200X0.078700*%
%ADD13R,0.062900X0.118100*%
%ADD14C,0.078700*%
%ADD15R,0.045000X0.032000*%
G04 APERTURE END LIST*
G54D10*
G54D11*
X53100Y-46713D03*
G54D12*
X53553Y-48287D03*
X52647Y-48287D03*
G54D11*
X44900Y-46713D03*
G54D12*
X45353Y-48287D03*
X44447Y-48287D03*
G54D13*
X47700Y-50534D03*
X47700Y-52266D03*
X43600Y-52266D03*
X43600Y-50534D03*
G54D11*
X40800Y-53900D03*
X58400Y-53900D03*
X42100Y-53900D03*
G54D14*
X43100Y-53900D03*
X44100Y-53900D03*
X45100Y-53900D03*
X46100Y-53900D03*
X47100Y-53900D03*
X48100Y-53900D03*
X49100Y-53900D03*
X50100Y-53900D03*
X51100Y-53900D03*
X52100Y-53900D03*
X53100Y-53900D03*
X54100Y-53900D03*
X55100Y-53900D03*
X56100Y-53900D03*
X57100Y-53900D03*
G54D15*
X52200Y-50035D03*
X52200Y-49365D03*
X51300Y-49365D03*
X51300Y-50035D03*
X45500Y-49365D03*
X45500Y-50035D03*
X41100Y-50135D03*
X41100Y-49465D03*
X56600Y-47165D03*
X56600Y-47835D03*
X46400Y-47835D03*
X46400Y-47165D03*
X55600Y-47165D03*
X55600Y-47835D03*
X46100Y-52435D03*
X46100Y-51765D03*
X45200Y-52435D03*
X45200Y-51765D03*
X42400Y-47835D03*
X42400Y-47165D03*
X50300Y-50035D03*
X50300Y-49365D03*
X41100Y-50865D03*
X41100Y-51535D03*
X54800Y-49365D03*
X54800Y-50035D03*
X42200Y-49465D03*
X42200Y-50135D03*
X43400Y-47165D03*
X43400Y-47835D03*
M02*
