%FSLAX34Y34*%
G04 Gerber Fmt 3.4, Leading zero omitted, Abs format*
G04 (created by PCBNEW (2013-12-24 BZR 4575)-product) date 2014-01-25 4:15:43 PM*
%MOIN*%
G01*
G70*
G90*
G04 APERTURE LIST*
%ADD10C,0.005906*%
%ADD11R,0.015700X0.031400*%
%ADD12R,0.045000X0.055000*%
%ADD13R,0.055000X0.045000*%
%ADD14R,0.039400X0.027600*%
%ADD15R,0.078700X0.078700*%
%ADD16C,0.078700*%
%ADD17R,0.011800X0.051200*%
%ADD18R,0.023600X0.086600*%
%ADD19R,0.045000X0.032000*%
%ADD20R,0.032000X0.045000*%
%ADD21C,0.040000*%
%ADD22C,0.035000*%
%ADD23C,0.014000*%
%ADD24C,0.012000*%
%ADD25C,0.010000*%
G04 APERTURE END LIST*
G54D10*
G54D11*
X44395Y-50064D03*
X44650Y-50064D03*
X44905Y-50064D03*
X44905Y-49436D03*
X44650Y-49436D03*
X44395Y-49436D03*
G54D12*
X45125Y-50800D03*
X44275Y-50800D03*
G54D13*
X48200Y-50125D03*
X48200Y-49275D03*
G54D14*
X50100Y-49700D03*
X49100Y-50075D03*
X49100Y-49325D03*
X57200Y-49700D03*
X56200Y-50075D03*
X56200Y-49325D03*
G54D15*
X40800Y-53900D03*
X58400Y-53900D03*
X42100Y-53900D03*
G54D16*
X43100Y-53900D03*
X44100Y-53900D03*
X45100Y-53900D03*
X46100Y-53900D03*
X47100Y-53900D03*
X48100Y-53900D03*
X49100Y-53900D03*
X50100Y-53900D03*
X51100Y-53900D03*
X52100Y-53900D03*
X53100Y-53900D03*
X54100Y-53900D03*
X55100Y-53900D03*
X56100Y-53900D03*
X57100Y-53900D03*
G54D17*
X55560Y-48600D03*
X55310Y-48600D03*
X55050Y-48600D03*
X54800Y-48600D03*
X54540Y-48600D03*
X54285Y-48600D03*
X54030Y-48600D03*
X54030Y-50800D03*
X54285Y-50800D03*
X54540Y-50800D03*
X54800Y-50800D03*
X55055Y-50800D03*
X55310Y-50800D03*
X55565Y-50800D03*
X42760Y-48700D03*
X42510Y-48700D03*
X42250Y-48700D03*
X42000Y-48700D03*
X41740Y-48700D03*
X41485Y-48700D03*
X41230Y-48700D03*
X41230Y-50900D03*
X41485Y-50900D03*
X41740Y-50900D03*
X42000Y-50900D03*
X42255Y-50900D03*
X42510Y-50900D03*
X42765Y-50900D03*
G54D18*
X52250Y-48677D03*
X51750Y-48677D03*
X51250Y-48677D03*
X50750Y-48677D03*
X50750Y-50723D03*
X51250Y-50723D03*
X51750Y-50723D03*
X52250Y-50723D03*
X45850Y-50823D03*
X46350Y-50823D03*
X46850Y-50823D03*
X47350Y-50823D03*
X47350Y-48777D03*
X46850Y-48777D03*
X46350Y-48777D03*
X45850Y-48777D03*
G54D19*
X50500Y-52535D03*
X50500Y-51865D03*
X57500Y-52535D03*
X57500Y-51865D03*
X58500Y-52535D03*
X58500Y-51865D03*
X49500Y-52535D03*
X49500Y-51865D03*
X52500Y-52535D03*
X52500Y-51865D03*
G54D20*
X50535Y-47500D03*
X49865Y-47500D03*
X48465Y-47500D03*
X49135Y-47500D03*
G54D19*
X53500Y-51865D03*
X53500Y-52535D03*
X57500Y-50465D03*
X57500Y-51135D03*
G54D20*
X56835Y-48500D03*
X56165Y-48500D03*
X44365Y-48300D03*
X45035Y-48300D03*
X54535Y-47500D03*
X53865Y-47500D03*
G54D19*
X43500Y-49465D03*
X43500Y-50135D03*
G54D20*
X56835Y-46900D03*
X56165Y-46900D03*
X56165Y-47600D03*
X56835Y-47600D03*
G54D19*
X55600Y-52535D03*
X55600Y-51865D03*
X54600Y-51865D03*
X54600Y-52535D03*
X56500Y-51865D03*
X56500Y-52535D03*
G54D20*
X52365Y-47500D03*
X53035Y-47500D03*
G54D19*
X51500Y-52535D03*
X51500Y-51865D03*
X53100Y-49365D03*
X53100Y-50035D03*
G54D20*
X41935Y-47500D03*
X41265Y-47500D03*
G54D19*
X41200Y-52335D03*
X41200Y-51665D03*
X42200Y-51665D03*
X42200Y-52335D03*
X43300Y-52335D03*
X43300Y-51665D03*
G54D21*
X54229Y-49570D03*
X42821Y-49362D03*
X46230Y-49545D03*
X52734Y-50731D03*
X41650Y-50150D03*
X48400Y-50800D03*
X55559Y-49921D03*
X43965Y-47447D03*
G54D22*
X51917Y-46834D03*
X47132Y-51567D03*
X54629Y-51401D03*
X54799Y-48062D03*
X41826Y-48161D03*
X44200Y-51500D03*
X42100Y-52850D03*
X56000Y-51350D03*
X49500Y-52900D03*
X44650Y-49050D03*
X42900Y-47453D03*
X44020Y-49267D03*
X50219Y-48926D03*
X55061Y-47676D03*
G54D21*
X46950Y-52500D03*
G54D22*
X51832Y-53197D03*
X54083Y-52622D03*
G54D21*
X52600Y-53318D03*
G54D23*
X54229Y-49566D02*
X54229Y-49570D01*
X54800Y-48996D02*
X54229Y-49566D01*
X54800Y-48600D02*
X54800Y-48996D01*
X42000Y-49007D02*
X42000Y-48700D01*
X42354Y-49362D02*
X42000Y-49007D01*
X42821Y-49362D02*
X42354Y-49362D01*
X46350Y-49425D02*
X46230Y-49545D01*
X46350Y-48777D02*
X46350Y-49425D01*
X52725Y-50722D02*
X52734Y-50731D01*
X52250Y-50722D02*
X52725Y-50722D01*
X46350Y-48777D02*
X46350Y-48777D01*
X52250Y-50722D02*
X52250Y-50722D01*
X52674Y-49704D02*
X52250Y-49280D01*
X53406Y-49704D02*
X52674Y-49704D01*
X53875Y-50174D02*
X53406Y-49704D01*
X54751Y-50174D02*
X53875Y-50174D01*
X54800Y-50222D02*
X54751Y-50174D01*
X41095Y-50474D02*
X41650Y-50474D01*
X41650Y-50474D02*
X41650Y-50150D01*
X49429Y-49715D02*
X49467Y-49752D01*
X46584Y-49715D02*
X49429Y-49715D01*
X46383Y-49915D02*
X46584Y-49715D01*
X46077Y-49915D02*
X46383Y-49915D01*
X45561Y-49400D02*
X46077Y-49915D01*
X45561Y-48188D02*
X45561Y-49400D01*
X44230Y-46857D02*
X45561Y-48188D01*
X41279Y-46857D02*
X44230Y-46857D01*
X40705Y-47432D02*
X41279Y-46857D01*
X40705Y-50083D02*
X40705Y-47432D01*
X41095Y-50474D02*
X40705Y-50083D01*
X42000Y-50474D02*
X41650Y-50474D01*
X42000Y-50900D02*
X42000Y-50474D01*
X40603Y-50966D02*
X41095Y-50474D01*
X40603Y-53139D02*
X40603Y-50966D01*
X40800Y-53336D02*
X40603Y-53139D01*
X40800Y-53900D02*
X40800Y-53336D01*
X54800Y-50800D02*
X54800Y-50222D01*
X52250Y-49280D02*
X50750Y-49280D01*
X49939Y-49280D02*
X50750Y-49280D01*
X49467Y-49752D02*
X49939Y-49280D01*
X55100Y-49921D02*
X54800Y-50222D01*
X55559Y-49921D02*
X55100Y-49921D01*
X49467Y-50291D02*
X48950Y-50808D01*
X49467Y-49752D02*
X49467Y-50291D01*
X48950Y-50808D02*
X48400Y-50800D01*
X56835Y-48500D02*
X56835Y-48887D01*
X55713Y-49766D02*
X55559Y-49921D01*
X56344Y-49766D02*
X55713Y-49766D01*
X56835Y-49275D02*
X56344Y-49766D01*
X56835Y-48887D02*
X56835Y-49275D01*
X56835Y-48887D02*
X56835Y-48500D01*
X56835Y-48887D02*
X56835Y-48887D01*
X53169Y-52195D02*
X53370Y-51994D01*
X49199Y-52195D02*
X53169Y-52195D01*
X48950Y-51945D02*
X49199Y-52195D01*
X48950Y-50808D02*
X48950Y-51945D01*
X53370Y-51994D02*
X53500Y-51864D01*
X53370Y-51994D02*
X53500Y-51865D01*
X53370Y-51994D02*
X53370Y-51994D01*
X47364Y-50808D02*
X47350Y-50822D01*
X48400Y-50800D02*
X47364Y-50808D01*
X47350Y-50822D02*
X47350Y-50822D01*
X50750Y-48677D02*
X50750Y-49280D01*
X50750Y-48677D02*
X50750Y-48677D01*
X52250Y-48677D02*
X52250Y-49280D01*
X52250Y-48677D02*
X52250Y-48677D01*
G54D24*
X49135Y-47500D02*
X49865Y-47500D01*
X46850Y-48183D02*
X46850Y-48777D01*
X47918Y-47114D02*
X46850Y-48183D01*
X48709Y-47114D02*
X47918Y-47114D01*
X48814Y-47219D02*
X48709Y-47114D01*
X48814Y-47500D02*
X48814Y-47219D01*
X49135Y-47500D02*
X48814Y-47500D01*
X46850Y-48777D02*
X46850Y-48777D01*
X50185Y-47500D02*
X49865Y-47500D01*
X50185Y-47219D02*
X50185Y-47500D01*
X50290Y-47114D02*
X50185Y-47219D01*
X51659Y-47114D02*
X50290Y-47114D01*
X52044Y-47500D02*
X51659Y-47114D01*
X52364Y-47500D02*
X52044Y-47500D01*
X52364Y-47500D02*
X52365Y-47500D01*
X42996Y-48700D02*
X42760Y-48700D01*
X43965Y-47730D02*
X42996Y-48700D01*
X43965Y-47447D02*
X43965Y-47730D01*
X43500Y-49144D02*
X43500Y-49464D01*
X43218Y-48862D02*
X43500Y-49144D01*
X42759Y-48862D02*
X43218Y-48862D01*
X42759Y-48700D02*
X42759Y-48862D01*
X42760Y-48700D02*
X42759Y-48700D01*
X43500Y-49464D02*
X43500Y-49465D01*
G54D25*
X41740Y-51256D02*
X41740Y-50900D01*
X41790Y-51306D02*
X41740Y-51256D01*
X42179Y-51306D02*
X41790Y-51306D01*
X42255Y-51230D02*
X42179Y-51306D01*
X42255Y-50900D02*
X42255Y-51230D01*
X46850Y-50823D02*
X46850Y-51356D01*
X46850Y-51356D02*
X47061Y-51567D01*
X47061Y-51567D02*
X47132Y-51567D01*
X54540Y-50800D02*
X54540Y-51156D01*
X54540Y-51156D02*
X54629Y-51245D01*
X54629Y-51245D02*
X54629Y-51401D01*
X55050Y-48600D02*
X55050Y-48244D01*
X54868Y-48062D02*
X54799Y-48062D01*
X55050Y-48244D02*
X54868Y-48062D01*
X41740Y-48700D02*
X41740Y-48344D01*
X41740Y-48344D02*
X41826Y-48257D01*
X41826Y-48257D02*
X41826Y-48161D01*
X55855Y-51350D02*
X56000Y-51350D01*
X55600Y-51605D02*
X55855Y-51350D01*
X55600Y-51864D02*
X55600Y-51605D01*
X49500Y-52535D02*
X49500Y-52900D01*
X44650Y-49435D02*
X44650Y-49050D01*
X41740Y-48522D02*
X41740Y-48700D01*
X52437Y-48093D02*
X51750Y-48093D01*
X53100Y-48757D02*
X52437Y-48093D01*
X53100Y-49364D02*
X53100Y-48757D01*
X51750Y-48677D02*
X51750Y-48677D01*
X51750Y-48677D02*
X51750Y-48093D01*
X51155Y-47500D02*
X51750Y-48093D01*
X50535Y-47500D02*
X51155Y-47500D01*
X50535Y-47500D02*
X50535Y-47500D01*
X53100Y-49365D02*
X53100Y-49364D01*
X50146Y-50139D02*
X51750Y-50139D01*
X50100Y-49988D02*
X50100Y-49700D01*
X50146Y-50035D02*
X50100Y-49988D01*
X50146Y-50139D02*
X50146Y-50035D01*
X53100Y-50035D02*
X53099Y-50035D01*
X51854Y-50035D02*
X51750Y-50139D01*
X53099Y-50035D02*
X51854Y-50035D01*
X53099Y-50035D02*
X53100Y-50035D01*
X50146Y-50907D02*
X50146Y-50139D01*
X49500Y-51554D02*
X50146Y-50907D01*
X49500Y-51864D02*
X49500Y-51554D01*
X49500Y-51864D02*
X49500Y-51865D01*
X51750Y-50722D02*
X51750Y-50139D01*
X51750Y-50722D02*
X51750Y-50722D01*
X51500Y-52535D02*
X51500Y-52535D01*
X51500Y-52535D02*
X51500Y-52535D01*
X57500Y-51135D02*
X57500Y-51135D01*
X51500Y-52535D02*
X52500Y-52535D01*
X53500Y-52535D02*
X53500Y-52535D01*
X52500Y-52535D02*
X53500Y-52535D01*
X52500Y-52535D02*
X52500Y-52535D01*
X53875Y-52087D02*
X53878Y-52090D01*
X53737Y-52224D02*
X53875Y-52087D01*
X53500Y-52224D02*
X53737Y-52224D01*
X53500Y-52535D02*
X53500Y-52224D01*
X57500Y-51445D02*
X57500Y-51135D01*
X57693Y-51445D02*
X57500Y-51445D01*
X57875Y-51626D02*
X57693Y-51445D01*
X57875Y-52088D02*
X57875Y-51626D01*
X57739Y-52224D02*
X57875Y-52088D01*
X57209Y-52224D02*
X57739Y-52224D01*
X56875Y-52559D02*
X57209Y-52224D01*
X56875Y-52757D02*
X56875Y-52559D01*
X56787Y-52845D02*
X56875Y-52757D01*
X55283Y-52845D02*
X56787Y-52845D01*
X55199Y-52761D02*
X55283Y-52845D01*
X55199Y-52510D02*
X55199Y-52761D01*
X54863Y-52175D02*
X55199Y-52510D01*
X53962Y-52175D02*
X54863Y-52175D01*
X53878Y-52090D02*
X53962Y-52175D01*
X54285Y-51332D02*
X54285Y-50800D01*
X54139Y-51477D02*
X54285Y-51332D01*
X54139Y-51829D02*
X54139Y-51477D01*
X53878Y-52090D02*
X54139Y-51829D01*
X42510Y-47843D02*
X42900Y-47453D01*
X42510Y-48700D02*
X42510Y-47843D01*
X44391Y-49439D02*
X44394Y-49435D01*
X44391Y-49439D02*
X44395Y-49435D01*
X44391Y-49439D02*
X44391Y-49439D01*
X41485Y-47950D02*
X41485Y-48700D01*
X41935Y-47500D02*
X41485Y-47950D01*
X43862Y-49775D02*
X44194Y-49442D01*
X42154Y-49775D02*
X43862Y-49775D01*
X41485Y-49106D02*
X42154Y-49775D01*
X44020Y-49267D02*
X44194Y-49442D01*
X44388Y-49442D02*
X44391Y-49439D01*
X44194Y-49442D02*
X44388Y-49442D01*
X41485Y-48700D02*
X41485Y-49106D01*
X41230Y-47535D02*
X41265Y-47500D01*
X41230Y-48700D02*
X41230Y-47535D01*
X44364Y-47335D02*
X44364Y-47893D01*
X44115Y-47085D02*
X44364Y-47335D01*
X41751Y-47085D02*
X44115Y-47085D01*
X41575Y-47262D02*
X41751Y-47085D01*
X41575Y-47500D02*
X41575Y-47262D01*
X41265Y-47500D02*
X41575Y-47500D01*
X44364Y-47893D02*
X44364Y-48300D01*
X44365Y-47893D02*
X44365Y-48300D01*
X44364Y-47893D02*
X44365Y-47893D01*
X41229Y-48700D02*
X41230Y-48700D01*
X51250Y-48093D02*
X51250Y-48677D01*
X50563Y-48093D02*
X51250Y-48093D01*
X50219Y-48438D02*
X50563Y-48093D01*
X50219Y-48926D02*
X50219Y-48438D01*
X51250Y-48677D02*
X51250Y-48677D01*
X44905Y-50064D02*
X44905Y-50217D01*
X44905Y-50217D02*
X44905Y-50064D01*
X44905Y-50217D02*
X44905Y-50217D01*
X46350Y-50822D02*
X46350Y-50239D01*
X45264Y-50239D02*
X46350Y-50239D01*
X45133Y-50371D02*
X45264Y-50239D01*
X44905Y-50371D02*
X45133Y-50371D01*
X44905Y-50217D02*
X44905Y-50371D01*
X49100Y-50075D02*
X49100Y-50074D01*
X48200Y-50125D02*
X48200Y-50125D01*
X47774Y-50125D02*
X48200Y-50125D01*
X47659Y-50239D02*
X47774Y-50125D01*
X46350Y-50239D02*
X47659Y-50239D01*
X48675Y-50074D02*
X49100Y-50074D01*
X48625Y-50125D02*
X48675Y-50074D01*
X48200Y-50125D02*
X48625Y-50125D01*
X49100Y-49325D02*
X49099Y-49325D01*
X48552Y-49125D02*
X48464Y-49125D01*
X48752Y-49325D02*
X48552Y-49125D01*
X49099Y-49325D02*
X48752Y-49325D01*
X49099Y-49325D02*
X49100Y-49325D01*
X48275Y-49200D02*
X48200Y-49275D01*
X48350Y-49125D02*
X48275Y-49200D01*
X48464Y-49125D02*
X48350Y-49125D01*
X48275Y-49200D02*
X48200Y-49274D01*
X48464Y-47500D02*
X48464Y-48312D01*
X48464Y-48312D02*
X48464Y-49125D01*
X48465Y-48312D02*
X48465Y-47500D01*
X48464Y-48312D02*
X48465Y-48312D01*
X55559Y-48193D02*
X55559Y-48495D01*
X55705Y-48048D02*
X55559Y-48193D01*
X56314Y-48048D02*
X55705Y-48048D01*
X56524Y-47837D02*
X56314Y-48048D01*
X56524Y-47600D02*
X56524Y-47837D01*
X56835Y-47600D02*
X56524Y-47600D01*
X55560Y-48495D02*
X55560Y-48600D01*
X55559Y-48495D02*
X55560Y-48495D01*
X56088Y-49325D02*
X56199Y-49325D01*
X55559Y-48796D02*
X56088Y-49325D01*
X55559Y-48495D02*
X55559Y-48796D01*
X56199Y-49325D02*
X56200Y-49325D01*
X56199Y-49325D02*
X56200Y-49325D01*
X56835Y-46900D02*
X56835Y-47250D01*
X56835Y-47600D02*
X56835Y-47600D01*
X56835Y-47250D02*
X56835Y-47600D01*
X56835Y-47249D02*
X56835Y-46900D01*
X56835Y-47250D02*
X56835Y-47249D01*
X56164Y-48500D02*
X56165Y-48500D01*
X57200Y-48257D02*
X57200Y-49700D01*
X57063Y-48121D02*
X57200Y-48257D01*
X56615Y-48121D02*
X57063Y-48121D01*
X56475Y-48262D02*
X56615Y-48121D01*
X56475Y-48500D02*
X56475Y-48262D01*
X56165Y-48500D02*
X56475Y-48500D01*
X57200Y-49988D02*
X57200Y-49700D01*
X57366Y-50154D02*
X57200Y-49988D01*
X57500Y-50154D02*
X57366Y-50154D01*
X57500Y-50464D02*
X57500Y-50154D01*
X57500Y-50464D02*
X57500Y-50465D01*
X45035Y-49420D02*
X45035Y-48562D01*
X44905Y-49550D02*
X45035Y-49420D01*
X45035Y-48562D02*
X45035Y-48300D01*
X45035Y-48562D02*
X45035Y-48300D01*
X45035Y-48562D02*
X45035Y-48562D01*
X44905Y-49550D02*
X44905Y-49493D01*
X44905Y-49493D02*
X44905Y-49435D01*
X44905Y-49492D02*
X44905Y-49435D01*
X44905Y-49493D02*
X44905Y-49492D01*
X44394Y-49855D02*
X44394Y-49907D01*
X44500Y-49750D02*
X44394Y-49855D01*
X44820Y-49750D02*
X44500Y-49750D01*
X44905Y-49664D02*
X44820Y-49750D01*
X44905Y-49550D02*
X44905Y-49664D01*
X44394Y-49907D02*
X44394Y-49959D01*
X44395Y-49907D02*
X44395Y-50064D01*
X44394Y-49907D02*
X44395Y-49907D01*
X43500Y-50135D02*
X43500Y-50135D01*
X44114Y-50374D02*
X44274Y-50374D01*
X43875Y-50135D02*
X44114Y-50374D01*
X43500Y-50135D02*
X43875Y-50135D01*
X43500Y-50135D02*
X43500Y-50135D01*
X44274Y-50800D02*
X44274Y-50587D01*
X44274Y-50587D02*
X44274Y-50374D01*
X44275Y-50587D02*
X44275Y-50800D01*
X44274Y-50587D02*
X44275Y-50587D01*
X44646Y-50374D02*
X44274Y-50374D01*
X44650Y-50371D02*
X44646Y-50374D01*
X44650Y-50064D02*
X44650Y-50371D01*
X44650Y-50064D02*
X44650Y-50064D01*
X53035Y-47564D02*
X53035Y-47500D01*
X53035Y-47564D02*
X53035Y-47564D01*
X53622Y-48152D02*
X53035Y-47564D01*
X53622Y-49509D02*
X53622Y-48152D01*
X54052Y-49940D02*
X53622Y-49509D01*
X54407Y-49940D02*
X54052Y-49940D01*
X56165Y-47600D02*
X56164Y-47600D01*
X55310Y-49037D02*
X54407Y-49940D01*
X55310Y-48600D02*
X55310Y-49037D01*
X55050Y-47688D02*
X55061Y-47676D01*
X55777Y-47676D02*
X55305Y-47676D01*
X55854Y-47600D02*
X55777Y-47676D01*
X56164Y-47600D02*
X55854Y-47600D01*
X55305Y-47676D02*
X55061Y-47676D01*
X55310Y-47681D02*
X55310Y-48600D01*
X55305Y-47676D02*
X55310Y-47681D01*
X56500Y-52535D02*
X56499Y-52535D01*
X55600Y-52535D02*
X55600Y-52535D01*
X56499Y-52535D02*
X55600Y-52535D01*
X56499Y-52535D02*
X56500Y-52535D01*
X54600Y-51864D02*
X54600Y-51864D01*
X54600Y-51864D02*
X54600Y-51865D01*
X55055Y-51799D02*
X54989Y-51864D01*
X55055Y-50800D02*
X55055Y-51799D01*
X55349Y-52224D02*
X54989Y-51864D01*
X55600Y-52224D02*
X55349Y-52224D01*
X55600Y-52535D02*
X55600Y-52224D01*
X54989Y-51864D02*
X54600Y-51864D01*
X56164Y-46900D02*
X56165Y-46900D01*
X55357Y-46900D02*
X56164Y-46900D01*
X54757Y-47500D02*
X55357Y-46900D01*
X54535Y-47500D02*
X54757Y-47500D01*
X54535Y-47500D02*
X54535Y-47500D01*
X54285Y-47750D02*
X54285Y-48600D01*
X54535Y-47500D02*
X54285Y-47750D01*
X43300Y-51405D02*
X43300Y-51665D01*
X43300Y-51276D02*
X43300Y-51405D01*
X42924Y-50900D02*
X43300Y-51276D01*
X42765Y-50900D02*
X42924Y-50900D01*
X42200Y-51665D02*
X43300Y-51665D01*
X42764Y-51103D02*
X42764Y-50900D01*
X42765Y-51103D02*
X42765Y-50900D01*
X42764Y-51103D02*
X42765Y-51103D01*
X42199Y-52335D02*
X42200Y-52335D01*
X42199Y-52335D02*
X42200Y-52335D01*
X41200Y-52335D02*
X41200Y-52335D01*
X41200Y-52335D02*
X41200Y-52335D01*
X41200Y-52335D02*
X41589Y-52335D01*
X41589Y-52335D02*
X42199Y-52335D01*
X41589Y-51411D02*
X41485Y-51306D01*
X41589Y-52335D02*
X41589Y-51411D01*
X41485Y-50900D02*
X41485Y-51306D01*
G54D24*
X55565Y-50800D02*
X55564Y-50800D01*
X55931Y-50800D02*
X55565Y-50800D01*
X56500Y-51368D02*
X55931Y-50800D01*
X56500Y-51864D02*
X56500Y-51368D01*
X56500Y-51864D02*
X56500Y-51864D01*
X56500Y-51864D02*
X56500Y-51865D01*
X57500Y-51864D02*
X57499Y-51864D01*
X57499Y-51864D02*
X56500Y-51864D01*
X57499Y-51864D02*
X57500Y-51865D01*
X54870Y-53129D02*
X54100Y-53900D01*
X57225Y-53129D02*
X54870Y-53129D01*
X57500Y-52855D02*
X57225Y-53129D01*
X57500Y-52535D02*
X57500Y-52855D01*
X57500Y-52535D02*
X57500Y-52535D01*
X43300Y-52335D02*
X43300Y-52335D01*
X43300Y-52335D02*
X43300Y-52335D01*
X43644Y-52335D02*
X43867Y-52112D01*
X43300Y-52335D02*
X43644Y-52335D01*
X46550Y-52100D02*
X46950Y-52500D01*
X43879Y-52100D02*
X46550Y-52100D01*
X43867Y-52112D02*
X43879Y-52100D01*
X42921Y-50483D02*
X42510Y-50483D01*
X43686Y-51249D02*
X42921Y-50483D01*
X43686Y-51931D02*
X43686Y-51249D01*
X43867Y-52112D02*
X43686Y-51931D01*
X42510Y-50900D02*
X42510Y-50483D01*
G54D25*
X41230Y-51635D02*
X41200Y-51665D01*
X41230Y-50900D02*
X41230Y-51635D01*
X51585Y-53197D02*
X51832Y-53197D01*
X51557Y-53225D02*
X51585Y-53197D01*
X41485Y-53225D02*
X51557Y-53225D01*
X40824Y-52564D02*
X41485Y-53225D01*
X40824Y-52002D02*
X40824Y-52564D01*
X41200Y-51627D02*
X40824Y-52002D01*
X41200Y-51664D02*
X41200Y-51627D01*
X54137Y-52622D02*
X54083Y-52622D01*
X54224Y-52535D02*
X54137Y-52622D01*
X54600Y-52535D02*
X54224Y-52535D01*
X41229Y-51052D02*
X41229Y-50900D01*
X41230Y-51052D02*
X41230Y-50900D01*
X41229Y-51052D02*
X41230Y-51052D01*
X41200Y-51665D02*
X41200Y-51664D01*
X54600Y-52535D02*
X54600Y-52535D01*
G54D24*
X57895Y-50940D02*
X57895Y-50785D01*
X58500Y-51544D02*
X57895Y-50940D01*
X58500Y-51864D02*
X58500Y-51544D01*
X56200Y-50075D02*
X56200Y-50074D01*
X54185Y-47500D02*
X53865Y-47500D01*
X54185Y-47176D02*
X54185Y-47500D01*
X54846Y-46514D02*
X54185Y-47176D01*
X57268Y-46514D02*
X54846Y-46514D01*
X57895Y-47141D02*
X57268Y-46514D01*
X57895Y-50785D02*
X57895Y-47141D01*
X58500Y-51865D02*
X58500Y-51864D01*
X56200Y-50373D02*
X56200Y-50281D01*
X56612Y-50785D02*
X56200Y-50373D01*
X57895Y-50785D02*
X56612Y-50785D01*
X56200Y-50281D02*
X56200Y-50075D01*
X55412Y-50281D02*
X55310Y-50383D01*
X56200Y-50281D02*
X55412Y-50281D01*
X55310Y-50800D02*
X55310Y-50383D01*
X54029Y-48050D02*
X54029Y-48325D01*
X53864Y-47885D02*
X54029Y-48050D01*
X53864Y-47500D02*
X53864Y-47885D01*
X53865Y-47500D02*
X53864Y-47500D01*
X54029Y-48325D02*
X54029Y-48600D01*
X54030Y-48325D02*
X54030Y-48600D01*
X54029Y-48325D02*
X54030Y-48325D01*
X52653Y-54453D02*
X52100Y-53900D01*
X57360Y-54453D02*
X52653Y-54453D01*
X57827Y-53986D02*
X57360Y-54453D01*
X57827Y-53447D02*
X57827Y-53986D01*
X58420Y-52855D02*
X57827Y-53447D01*
X58500Y-52855D02*
X58420Y-52855D01*
X58500Y-52535D02*
X58500Y-52855D01*
X58500Y-52535D02*
X58500Y-52535D01*
X51500Y-51865D02*
X51500Y-51864D01*
X50500Y-51864D02*
X51500Y-51864D01*
X52500Y-51865D02*
X52500Y-51864D01*
X51500Y-51864D02*
X52500Y-51864D01*
X50500Y-51865D02*
X50500Y-51864D01*
X54029Y-51216D02*
X54029Y-51008D01*
X53701Y-51544D02*
X54029Y-51216D01*
X52500Y-51544D02*
X53701Y-51544D01*
X52500Y-51864D02*
X52500Y-51544D01*
X54029Y-51008D02*
X54029Y-50800D01*
X54030Y-51007D02*
X54030Y-50800D01*
X54029Y-51008D02*
X54030Y-51007D01*
X52136Y-52855D02*
X52600Y-53318D01*
X50500Y-52855D02*
X52136Y-52855D01*
X50500Y-52535D02*
X50500Y-52855D01*
X50500Y-52535D02*
X50500Y-52535D01*
G54D10*
G36*
X41789Y-50950D02*
X41769Y-50950D01*
X41769Y-50957D01*
X41710Y-50957D01*
X41710Y-50950D01*
X41694Y-50950D01*
X41694Y-50850D01*
X41710Y-50850D01*
X41710Y-50842D01*
X41769Y-50842D01*
X41769Y-50850D01*
X41780Y-50850D01*
X41780Y-50900D01*
X41789Y-50950D01*
X41789Y-50950D01*
G37*
G54D25*
X41789Y-50950D02*
X41769Y-50950D01*
X41769Y-50957D01*
X41710Y-50957D01*
X41710Y-50950D01*
X41694Y-50950D01*
X41694Y-50850D01*
X41710Y-50850D01*
X41710Y-50842D01*
X41769Y-50842D01*
X41769Y-50850D01*
X41780Y-50850D01*
X41780Y-50900D01*
X41789Y-50950D01*
G54D10*
G36*
X42617Y-47285D02*
X42575Y-47388D01*
X42574Y-47495D01*
X42368Y-47702D01*
X42325Y-47767D01*
X42310Y-47843D01*
X42310Y-48226D01*
X42279Y-48256D01*
X42279Y-48650D01*
X42301Y-48650D01*
X42301Y-48750D01*
X42279Y-48750D01*
X42279Y-48757D01*
X42220Y-48757D01*
X42220Y-48750D01*
X42220Y-48750D01*
X42220Y-48700D01*
X42210Y-48650D01*
X42220Y-48650D01*
X42220Y-48256D01*
X42158Y-48194D01*
X42141Y-48194D01*
X42049Y-48232D01*
X41995Y-48286D01*
X41940Y-48232D01*
X41848Y-48194D01*
X41832Y-48194D01*
X41769Y-48256D01*
X41769Y-48650D01*
X41789Y-48650D01*
X41780Y-48700D01*
X41780Y-48750D01*
X41769Y-48750D01*
X41769Y-48757D01*
X41710Y-48757D01*
X41710Y-48750D01*
X41694Y-48750D01*
X41694Y-48650D01*
X41710Y-48650D01*
X41710Y-48256D01*
X41685Y-48231D01*
X41685Y-48032D01*
X41842Y-47875D01*
X42124Y-47875D01*
X42179Y-47852D01*
X42222Y-47809D01*
X42245Y-47754D01*
X42245Y-47695D01*
X42245Y-47285D01*
X42617Y-47285D01*
X42617Y-47285D01*
G37*
G54D25*
X42617Y-47285D02*
X42575Y-47388D01*
X42574Y-47495D01*
X42368Y-47702D01*
X42325Y-47767D01*
X42310Y-47843D01*
X42310Y-48226D01*
X42279Y-48256D01*
X42279Y-48650D01*
X42301Y-48650D01*
X42301Y-48750D01*
X42279Y-48750D01*
X42279Y-48757D01*
X42220Y-48757D01*
X42220Y-48750D01*
X42220Y-48750D01*
X42220Y-48700D01*
X42210Y-48650D01*
X42220Y-48650D01*
X42220Y-48256D01*
X42158Y-48194D01*
X42141Y-48194D01*
X42049Y-48232D01*
X41995Y-48286D01*
X41940Y-48232D01*
X41848Y-48194D01*
X41832Y-48194D01*
X41769Y-48256D01*
X41769Y-48650D01*
X41789Y-48650D01*
X41780Y-48700D01*
X41780Y-48750D01*
X41769Y-48750D01*
X41769Y-48757D01*
X41710Y-48757D01*
X41710Y-48750D01*
X41694Y-48750D01*
X41694Y-48650D01*
X41710Y-48650D01*
X41710Y-48256D01*
X41685Y-48231D01*
X41685Y-48032D01*
X41842Y-47875D01*
X42124Y-47875D01*
X42179Y-47852D01*
X42222Y-47809D01*
X42245Y-47754D01*
X42245Y-47695D01*
X42245Y-47285D01*
X42617Y-47285D01*
G54D10*
G36*
X44987Y-47925D02*
X44845Y-47925D01*
X44790Y-47947D01*
X44747Y-47990D01*
X44725Y-48045D01*
X44725Y-48104D01*
X44725Y-48554D01*
X44747Y-48609D01*
X44790Y-48652D01*
X44835Y-48670D01*
X44835Y-49052D01*
X44778Y-49029D01*
X44751Y-49029D01*
X44689Y-49091D01*
X44689Y-49218D01*
X44676Y-49249D01*
X44676Y-49308D01*
X44676Y-49493D01*
X44623Y-49493D01*
X44623Y-49249D01*
X44610Y-49218D01*
X44610Y-49091D01*
X44548Y-49029D01*
X44521Y-49029D01*
X44429Y-49067D01*
X44367Y-49129D01*
X44314Y-49129D01*
X44295Y-49083D01*
X44204Y-48992D01*
X44085Y-48942D01*
X43955Y-48942D01*
X43836Y-48992D01*
X43744Y-49083D01*
X43714Y-49155D01*
X43710Y-49155D01*
X43710Y-49144D01*
X43694Y-49064D01*
X43648Y-48996D01*
X43366Y-48714D01*
X43313Y-48679D01*
X44114Y-47878D01*
X44159Y-47810D01*
X44164Y-47784D01*
X44164Y-47893D01*
X44164Y-47929D01*
X44120Y-47947D01*
X44077Y-47990D01*
X44055Y-48045D01*
X44055Y-48104D01*
X44055Y-48554D01*
X44077Y-48609D01*
X44120Y-48652D01*
X44175Y-48675D01*
X44234Y-48675D01*
X44554Y-48675D01*
X44609Y-48652D01*
X44652Y-48609D01*
X44675Y-48554D01*
X44675Y-48495D01*
X44675Y-48045D01*
X44652Y-47990D01*
X44609Y-47947D01*
X44565Y-47929D01*
X44565Y-47893D01*
X44564Y-47893D01*
X44564Y-47893D01*
X44564Y-47502D01*
X44987Y-47925D01*
X44987Y-47925D01*
G37*
G54D25*
X44987Y-47925D02*
X44845Y-47925D01*
X44790Y-47947D01*
X44747Y-47990D01*
X44725Y-48045D01*
X44725Y-48104D01*
X44725Y-48554D01*
X44747Y-48609D01*
X44790Y-48652D01*
X44835Y-48670D01*
X44835Y-49052D01*
X44778Y-49029D01*
X44751Y-49029D01*
X44689Y-49091D01*
X44689Y-49218D01*
X44676Y-49249D01*
X44676Y-49308D01*
X44676Y-49493D01*
X44623Y-49493D01*
X44623Y-49249D01*
X44610Y-49218D01*
X44610Y-49091D01*
X44548Y-49029D01*
X44521Y-49029D01*
X44429Y-49067D01*
X44367Y-49129D01*
X44314Y-49129D01*
X44295Y-49083D01*
X44204Y-48992D01*
X44085Y-48942D01*
X43955Y-48942D01*
X43836Y-48992D01*
X43744Y-49083D01*
X43714Y-49155D01*
X43710Y-49155D01*
X43710Y-49144D01*
X43694Y-49064D01*
X43648Y-48996D01*
X43366Y-48714D01*
X43313Y-48679D01*
X44114Y-47878D01*
X44159Y-47810D01*
X44164Y-47784D01*
X44164Y-47893D01*
X44164Y-47929D01*
X44120Y-47947D01*
X44077Y-47990D01*
X44055Y-48045D01*
X44055Y-48104D01*
X44055Y-48554D01*
X44077Y-48609D01*
X44120Y-48652D01*
X44175Y-48675D01*
X44234Y-48675D01*
X44554Y-48675D01*
X44609Y-48652D01*
X44652Y-48609D01*
X44675Y-48554D01*
X44675Y-48495D01*
X44675Y-48045D01*
X44652Y-47990D01*
X44609Y-47947D01*
X44565Y-47929D01*
X44565Y-47893D01*
X44564Y-47893D01*
X44564Y-47893D01*
X44564Y-47502D01*
X44987Y-47925D01*
G54D10*
G36*
X50383Y-53025D02*
X49975Y-53025D01*
X49975Y-52744D01*
X49975Y-52647D01*
X49912Y-52585D01*
X49550Y-52585D01*
X49550Y-52882D01*
X49612Y-52945D01*
X49675Y-52945D01*
X49774Y-52945D01*
X49866Y-52906D01*
X49936Y-52836D01*
X49975Y-52744D01*
X49975Y-53025D01*
X49450Y-53025D01*
X49450Y-52882D01*
X49450Y-52585D01*
X49087Y-52585D01*
X49025Y-52647D01*
X49025Y-52744D01*
X49063Y-52836D01*
X49133Y-52906D01*
X49225Y-52945D01*
X49324Y-52945D01*
X49387Y-52945D01*
X49450Y-52882D01*
X49450Y-53025D01*
X41567Y-53025D01*
X41187Y-52645D01*
X41454Y-52645D01*
X41509Y-52622D01*
X41552Y-52579D01*
X41570Y-52535D01*
X41589Y-52535D01*
X41829Y-52535D01*
X41847Y-52579D01*
X41890Y-52622D01*
X41945Y-52645D01*
X42004Y-52645D01*
X42454Y-52645D01*
X42509Y-52622D01*
X42552Y-52579D01*
X42575Y-52524D01*
X42575Y-52465D01*
X42575Y-52145D01*
X42552Y-52090D01*
X42509Y-52047D01*
X42454Y-52025D01*
X42395Y-52025D01*
X41945Y-52025D01*
X41890Y-52047D01*
X41847Y-52090D01*
X41829Y-52135D01*
X41789Y-52135D01*
X41789Y-51411D01*
X41788Y-51406D01*
X41790Y-51406D01*
X41790Y-51364D01*
X41832Y-51406D01*
X41848Y-51406D01*
X41871Y-51396D01*
X41847Y-51420D01*
X41825Y-51475D01*
X41825Y-51534D01*
X41825Y-51854D01*
X41847Y-51909D01*
X41890Y-51952D01*
X41945Y-51975D01*
X42004Y-51975D01*
X42454Y-51975D01*
X42509Y-51952D01*
X42552Y-51909D01*
X42570Y-51865D01*
X42929Y-51865D01*
X42947Y-51909D01*
X42990Y-51952D01*
X43045Y-51975D01*
X43104Y-51975D01*
X43485Y-51975D01*
X43492Y-52012D01*
X43501Y-52025D01*
X43495Y-52025D01*
X43045Y-52025D01*
X42990Y-52047D01*
X42947Y-52090D01*
X42925Y-52145D01*
X42925Y-52204D01*
X42925Y-52524D01*
X42947Y-52579D01*
X42990Y-52622D01*
X43045Y-52645D01*
X43104Y-52645D01*
X43554Y-52645D01*
X43609Y-52622D01*
X43652Y-52579D01*
X43668Y-52540D01*
X43725Y-52529D01*
X43793Y-52483D01*
X43966Y-52310D01*
X46463Y-52310D01*
X46600Y-52447D01*
X46599Y-52569D01*
X46653Y-52698D01*
X46751Y-52796D01*
X46880Y-52849D01*
X47019Y-52850D01*
X47148Y-52796D01*
X47246Y-52698D01*
X47299Y-52569D01*
X47300Y-52430D01*
X47246Y-52302D01*
X47148Y-52203D01*
X47019Y-52150D01*
X46896Y-52149D01*
X46698Y-51951D01*
X46630Y-51905D01*
X46550Y-51890D01*
X43941Y-51890D01*
X43896Y-51844D01*
X43896Y-51249D01*
X43880Y-51169D01*
X43835Y-51100D01*
X43069Y-50335D01*
X43001Y-50289D01*
X42921Y-50273D01*
X42510Y-50273D01*
X42429Y-50289D01*
X42361Y-50335D01*
X42315Y-50403D01*
X42310Y-50430D01*
X42284Y-50456D01*
X42284Y-50850D01*
X42300Y-50850D01*
X42300Y-50900D01*
X42301Y-50905D01*
X42301Y-50950D01*
X42284Y-50950D01*
X42284Y-50957D01*
X42225Y-50957D01*
X42225Y-50950D01*
X42210Y-50950D01*
X42220Y-50900D01*
X42220Y-50850D01*
X42225Y-50850D01*
X42225Y-50456D01*
X42214Y-50445D01*
X42203Y-50389D01*
X42155Y-50318D01*
X42084Y-50270D01*
X42000Y-50254D01*
X41985Y-50254D01*
X41999Y-50219D01*
X42000Y-50080D01*
X41946Y-49952D01*
X41848Y-49853D01*
X41719Y-49800D01*
X41580Y-49799D01*
X41452Y-49853D01*
X41353Y-49951D01*
X41300Y-50080D01*
X41299Y-50219D01*
X41314Y-50254D01*
X41186Y-50254D01*
X40925Y-49992D01*
X40925Y-47523D01*
X40955Y-47493D01*
X40955Y-47754D01*
X40977Y-47809D01*
X41020Y-47852D01*
X41030Y-47856D01*
X41030Y-48392D01*
X41021Y-48414D01*
X41021Y-48473D01*
X41021Y-48985D01*
X41043Y-49040D01*
X41086Y-49083D01*
X41141Y-49106D01*
X41200Y-49106D01*
X41285Y-49106D01*
X41285Y-49106D01*
X41300Y-49182D01*
X41343Y-49247D01*
X42012Y-49916D01*
X42077Y-49959D01*
X42154Y-49975D01*
X43125Y-49975D01*
X43125Y-50004D01*
X43125Y-50324D01*
X43147Y-50379D01*
X43190Y-50422D01*
X43245Y-50445D01*
X43304Y-50445D01*
X43754Y-50445D01*
X43809Y-50422D01*
X43844Y-50387D01*
X43915Y-50458D01*
X43900Y-50495D01*
X43900Y-50554D01*
X43900Y-51104D01*
X43922Y-51159D01*
X43965Y-51202D01*
X44020Y-51225D01*
X44079Y-51225D01*
X44529Y-51225D01*
X44584Y-51202D01*
X44627Y-51159D01*
X44650Y-51104D01*
X44650Y-51124D01*
X44688Y-51216D01*
X44758Y-51286D01*
X44850Y-51325D01*
X45012Y-51325D01*
X45075Y-51262D01*
X45075Y-50850D01*
X44712Y-50850D01*
X44650Y-50912D01*
X44650Y-50687D01*
X44712Y-50750D01*
X45075Y-50750D01*
X45075Y-50742D01*
X45175Y-50742D01*
X45175Y-50750D01*
X45182Y-50750D01*
X45182Y-50850D01*
X45175Y-50850D01*
X45175Y-51262D01*
X45237Y-51325D01*
X45399Y-51325D01*
X45491Y-51286D01*
X45561Y-51216D01*
X45582Y-51168D01*
X45582Y-51285D01*
X45604Y-51340D01*
X45647Y-51383D01*
X45702Y-51406D01*
X45761Y-51406D01*
X45997Y-51406D01*
X46052Y-51383D01*
X46095Y-51340D01*
X46099Y-51329D01*
X46104Y-51340D01*
X46147Y-51383D01*
X46202Y-51406D01*
X46261Y-51406D01*
X46497Y-51406D01*
X46519Y-51396D01*
X46520Y-51397D01*
X46590Y-51467D01*
X46682Y-51506D01*
X46737Y-51506D01*
X46800Y-51443D01*
X46800Y-50873D01*
X46792Y-50873D01*
X46792Y-50773D01*
X46800Y-50773D01*
X46800Y-50765D01*
X46900Y-50765D01*
X46900Y-50773D01*
X46907Y-50773D01*
X46907Y-50873D01*
X46900Y-50873D01*
X46900Y-51443D01*
X46962Y-51506D01*
X47017Y-51506D01*
X47109Y-51467D01*
X47179Y-51397D01*
X47180Y-51396D01*
X47202Y-51406D01*
X47261Y-51406D01*
X47497Y-51406D01*
X47552Y-51383D01*
X47595Y-51340D01*
X47618Y-51285D01*
X47618Y-51226D01*
X47618Y-51026D01*
X48127Y-51022D01*
X48201Y-51096D01*
X48330Y-51149D01*
X48469Y-51150D01*
X48598Y-51096D01*
X48670Y-51024D01*
X48730Y-51025D01*
X48730Y-51945D01*
X48746Y-52029D01*
X48794Y-52101D01*
X49025Y-52331D01*
X49025Y-52422D01*
X49087Y-52485D01*
X49450Y-52485D01*
X49450Y-52477D01*
X49550Y-52477D01*
X49550Y-52485D01*
X49912Y-52485D01*
X49975Y-52422D01*
X49975Y-52415D01*
X50125Y-52415D01*
X50125Y-52724D01*
X50147Y-52779D01*
X50190Y-52822D01*
X50245Y-52845D01*
X50290Y-52845D01*
X50290Y-52855D01*
X50305Y-52935D01*
X50351Y-53003D01*
X50383Y-53025D01*
X50383Y-53025D01*
G37*
G54D25*
X50383Y-53025D02*
X49975Y-53025D01*
X49975Y-52744D01*
X49975Y-52647D01*
X49912Y-52585D01*
X49550Y-52585D01*
X49550Y-52882D01*
X49612Y-52945D01*
X49675Y-52945D01*
X49774Y-52945D01*
X49866Y-52906D01*
X49936Y-52836D01*
X49975Y-52744D01*
X49975Y-53025D01*
X49450Y-53025D01*
X49450Y-52882D01*
X49450Y-52585D01*
X49087Y-52585D01*
X49025Y-52647D01*
X49025Y-52744D01*
X49063Y-52836D01*
X49133Y-52906D01*
X49225Y-52945D01*
X49324Y-52945D01*
X49387Y-52945D01*
X49450Y-52882D01*
X49450Y-53025D01*
X41567Y-53025D01*
X41187Y-52645D01*
X41454Y-52645D01*
X41509Y-52622D01*
X41552Y-52579D01*
X41570Y-52535D01*
X41589Y-52535D01*
X41829Y-52535D01*
X41847Y-52579D01*
X41890Y-52622D01*
X41945Y-52645D01*
X42004Y-52645D01*
X42454Y-52645D01*
X42509Y-52622D01*
X42552Y-52579D01*
X42575Y-52524D01*
X42575Y-52465D01*
X42575Y-52145D01*
X42552Y-52090D01*
X42509Y-52047D01*
X42454Y-52025D01*
X42395Y-52025D01*
X41945Y-52025D01*
X41890Y-52047D01*
X41847Y-52090D01*
X41829Y-52135D01*
X41789Y-52135D01*
X41789Y-51411D01*
X41788Y-51406D01*
X41790Y-51406D01*
X41790Y-51364D01*
X41832Y-51406D01*
X41848Y-51406D01*
X41871Y-51396D01*
X41847Y-51420D01*
X41825Y-51475D01*
X41825Y-51534D01*
X41825Y-51854D01*
X41847Y-51909D01*
X41890Y-51952D01*
X41945Y-51975D01*
X42004Y-51975D01*
X42454Y-51975D01*
X42509Y-51952D01*
X42552Y-51909D01*
X42570Y-51865D01*
X42929Y-51865D01*
X42947Y-51909D01*
X42990Y-51952D01*
X43045Y-51975D01*
X43104Y-51975D01*
X43485Y-51975D01*
X43492Y-52012D01*
X43501Y-52025D01*
X43495Y-52025D01*
X43045Y-52025D01*
X42990Y-52047D01*
X42947Y-52090D01*
X42925Y-52145D01*
X42925Y-52204D01*
X42925Y-52524D01*
X42947Y-52579D01*
X42990Y-52622D01*
X43045Y-52645D01*
X43104Y-52645D01*
X43554Y-52645D01*
X43609Y-52622D01*
X43652Y-52579D01*
X43668Y-52540D01*
X43725Y-52529D01*
X43793Y-52483D01*
X43966Y-52310D01*
X46463Y-52310D01*
X46600Y-52447D01*
X46599Y-52569D01*
X46653Y-52698D01*
X46751Y-52796D01*
X46880Y-52849D01*
X47019Y-52850D01*
X47148Y-52796D01*
X47246Y-52698D01*
X47299Y-52569D01*
X47300Y-52430D01*
X47246Y-52302D01*
X47148Y-52203D01*
X47019Y-52150D01*
X46896Y-52149D01*
X46698Y-51951D01*
X46630Y-51905D01*
X46550Y-51890D01*
X43941Y-51890D01*
X43896Y-51844D01*
X43896Y-51249D01*
X43880Y-51169D01*
X43835Y-51100D01*
X43069Y-50335D01*
X43001Y-50289D01*
X42921Y-50273D01*
X42510Y-50273D01*
X42429Y-50289D01*
X42361Y-50335D01*
X42315Y-50403D01*
X42310Y-50430D01*
X42284Y-50456D01*
X42284Y-50850D01*
X42300Y-50850D01*
X42300Y-50900D01*
X42301Y-50905D01*
X42301Y-50950D01*
X42284Y-50950D01*
X42284Y-50957D01*
X42225Y-50957D01*
X42225Y-50950D01*
X42210Y-50950D01*
X42220Y-50900D01*
X42220Y-50850D01*
X42225Y-50850D01*
X42225Y-50456D01*
X42214Y-50445D01*
X42203Y-50389D01*
X42155Y-50318D01*
X42084Y-50270D01*
X42000Y-50254D01*
X41985Y-50254D01*
X41999Y-50219D01*
X42000Y-50080D01*
X41946Y-49952D01*
X41848Y-49853D01*
X41719Y-49800D01*
X41580Y-49799D01*
X41452Y-49853D01*
X41353Y-49951D01*
X41300Y-50080D01*
X41299Y-50219D01*
X41314Y-50254D01*
X41186Y-50254D01*
X40925Y-49992D01*
X40925Y-47523D01*
X40955Y-47493D01*
X40955Y-47754D01*
X40977Y-47809D01*
X41020Y-47852D01*
X41030Y-47856D01*
X41030Y-48392D01*
X41021Y-48414D01*
X41021Y-48473D01*
X41021Y-48985D01*
X41043Y-49040D01*
X41086Y-49083D01*
X41141Y-49106D01*
X41200Y-49106D01*
X41285Y-49106D01*
X41285Y-49106D01*
X41300Y-49182D01*
X41343Y-49247D01*
X42012Y-49916D01*
X42077Y-49959D01*
X42154Y-49975D01*
X43125Y-49975D01*
X43125Y-50004D01*
X43125Y-50324D01*
X43147Y-50379D01*
X43190Y-50422D01*
X43245Y-50445D01*
X43304Y-50445D01*
X43754Y-50445D01*
X43809Y-50422D01*
X43844Y-50387D01*
X43915Y-50458D01*
X43900Y-50495D01*
X43900Y-50554D01*
X43900Y-51104D01*
X43922Y-51159D01*
X43965Y-51202D01*
X44020Y-51225D01*
X44079Y-51225D01*
X44529Y-51225D01*
X44584Y-51202D01*
X44627Y-51159D01*
X44650Y-51104D01*
X44650Y-51124D01*
X44688Y-51216D01*
X44758Y-51286D01*
X44850Y-51325D01*
X45012Y-51325D01*
X45075Y-51262D01*
X45075Y-50850D01*
X44712Y-50850D01*
X44650Y-50912D01*
X44650Y-50687D01*
X44712Y-50750D01*
X45075Y-50750D01*
X45075Y-50742D01*
X45175Y-50742D01*
X45175Y-50750D01*
X45182Y-50750D01*
X45182Y-50850D01*
X45175Y-50850D01*
X45175Y-51262D01*
X45237Y-51325D01*
X45399Y-51325D01*
X45491Y-51286D01*
X45561Y-51216D01*
X45582Y-51168D01*
X45582Y-51285D01*
X45604Y-51340D01*
X45647Y-51383D01*
X45702Y-51406D01*
X45761Y-51406D01*
X45997Y-51406D01*
X46052Y-51383D01*
X46095Y-51340D01*
X46099Y-51329D01*
X46104Y-51340D01*
X46147Y-51383D01*
X46202Y-51406D01*
X46261Y-51406D01*
X46497Y-51406D01*
X46519Y-51396D01*
X46520Y-51397D01*
X46590Y-51467D01*
X46682Y-51506D01*
X46737Y-51506D01*
X46800Y-51443D01*
X46800Y-50873D01*
X46792Y-50873D01*
X46792Y-50773D01*
X46800Y-50773D01*
X46800Y-50765D01*
X46900Y-50765D01*
X46900Y-50773D01*
X46907Y-50773D01*
X46907Y-50873D01*
X46900Y-50873D01*
X46900Y-51443D01*
X46962Y-51506D01*
X47017Y-51506D01*
X47109Y-51467D01*
X47179Y-51397D01*
X47180Y-51396D01*
X47202Y-51406D01*
X47261Y-51406D01*
X47497Y-51406D01*
X47552Y-51383D01*
X47595Y-51340D01*
X47618Y-51285D01*
X47618Y-51226D01*
X47618Y-51026D01*
X48127Y-51022D01*
X48201Y-51096D01*
X48330Y-51149D01*
X48469Y-51150D01*
X48598Y-51096D01*
X48670Y-51024D01*
X48730Y-51025D01*
X48730Y-51945D01*
X48746Y-52029D01*
X48794Y-52101D01*
X49025Y-52331D01*
X49025Y-52422D01*
X49087Y-52485D01*
X49450Y-52485D01*
X49450Y-52477D01*
X49550Y-52477D01*
X49550Y-52485D01*
X49912Y-52485D01*
X49975Y-52422D01*
X49975Y-52415D01*
X50125Y-52415D01*
X50125Y-52724D01*
X50147Y-52779D01*
X50190Y-52822D01*
X50245Y-52845D01*
X50290Y-52845D01*
X50290Y-52855D01*
X50305Y-52935D01*
X50351Y-53003D01*
X50383Y-53025D01*
G54D10*
G36*
X54855Y-51555D02*
X54854Y-51555D01*
X54795Y-51555D01*
X54345Y-51555D01*
X54426Y-51473D01*
X54469Y-51409D01*
X54469Y-51409D01*
X54472Y-51396D01*
X54484Y-51332D01*
X54485Y-51332D01*
X54485Y-51269D01*
X54510Y-51243D01*
X54510Y-50850D01*
X54494Y-50850D01*
X54494Y-50750D01*
X54510Y-50750D01*
X54510Y-50742D01*
X54569Y-50742D01*
X54569Y-50750D01*
X54580Y-50750D01*
X54580Y-50800D01*
X54589Y-50850D01*
X54569Y-50850D01*
X54569Y-51243D01*
X54632Y-51306D01*
X54648Y-51306D01*
X54740Y-51267D01*
X54802Y-51206D01*
X54855Y-51206D01*
X54855Y-51555D01*
X54855Y-51555D01*
G37*
G54D25*
X54855Y-51555D02*
X54854Y-51555D01*
X54795Y-51555D01*
X54345Y-51555D01*
X54426Y-51473D01*
X54469Y-51409D01*
X54469Y-51409D01*
X54472Y-51396D01*
X54484Y-51332D01*
X54485Y-51332D01*
X54485Y-51269D01*
X54510Y-51243D01*
X54510Y-50850D01*
X54494Y-50850D01*
X54494Y-50750D01*
X54510Y-50750D01*
X54510Y-50742D01*
X54569Y-50742D01*
X54569Y-50750D01*
X54580Y-50750D01*
X54580Y-50800D01*
X54589Y-50850D01*
X54569Y-50850D01*
X54569Y-51243D01*
X54632Y-51306D01*
X54648Y-51306D01*
X54740Y-51267D01*
X54802Y-51206D01*
X54855Y-51206D01*
X54855Y-51555D01*
G54D10*
G36*
X55110Y-48126D02*
X55079Y-48156D01*
X55079Y-48550D01*
X55101Y-48550D01*
X55101Y-48650D01*
X55079Y-48650D01*
X55079Y-48657D01*
X55020Y-48657D01*
X55020Y-48650D01*
X55020Y-48650D01*
X55020Y-48600D01*
X55010Y-48550D01*
X55020Y-48550D01*
X55020Y-48156D01*
X54958Y-48094D01*
X54941Y-48094D01*
X54849Y-48132D01*
X54795Y-48186D01*
X54740Y-48132D01*
X54648Y-48094D01*
X54632Y-48094D01*
X54569Y-48156D01*
X54569Y-48550D01*
X54589Y-48550D01*
X54580Y-48600D01*
X54580Y-48650D01*
X54569Y-48650D01*
X54569Y-48657D01*
X54510Y-48657D01*
X54510Y-48650D01*
X54494Y-48650D01*
X54494Y-48550D01*
X54510Y-48550D01*
X54510Y-48156D01*
X54485Y-48131D01*
X54485Y-47875D01*
X54724Y-47875D01*
X54779Y-47852D01*
X54781Y-47850D01*
X54785Y-47860D01*
X54877Y-47952D01*
X54996Y-48001D01*
X55110Y-48001D01*
X55110Y-48126D01*
X55110Y-48126D01*
G37*
G54D25*
X55110Y-48126D02*
X55079Y-48156D01*
X55079Y-48550D01*
X55101Y-48550D01*
X55101Y-48650D01*
X55079Y-48650D01*
X55079Y-48657D01*
X55020Y-48657D01*
X55020Y-48650D01*
X55020Y-48650D01*
X55020Y-48600D01*
X55010Y-48550D01*
X55020Y-48550D01*
X55020Y-48156D01*
X54958Y-48094D01*
X54941Y-48094D01*
X54849Y-48132D01*
X54795Y-48186D01*
X54740Y-48132D01*
X54648Y-48094D01*
X54632Y-48094D01*
X54569Y-48156D01*
X54569Y-48550D01*
X54589Y-48550D01*
X54580Y-48600D01*
X54580Y-48650D01*
X54569Y-48650D01*
X54569Y-48657D01*
X54510Y-48657D01*
X54510Y-48650D01*
X54494Y-48650D01*
X54494Y-48550D01*
X54510Y-48550D01*
X54510Y-48156D01*
X54485Y-48131D01*
X54485Y-47875D01*
X54724Y-47875D01*
X54779Y-47852D01*
X54781Y-47850D01*
X54785Y-47860D01*
X54877Y-47952D01*
X54996Y-48001D01*
X55110Y-48001D01*
X55110Y-48126D01*
G54D10*
G36*
X57080Y-52074D02*
X57068Y-52083D01*
X56854Y-52296D01*
X56852Y-52290D01*
X56809Y-52247D01*
X56754Y-52225D01*
X56695Y-52225D01*
X56245Y-52225D01*
X56190Y-52247D01*
X56147Y-52290D01*
X56129Y-52335D01*
X55970Y-52335D01*
X55952Y-52290D01*
X55918Y-52256D01*
X55966Y-52236D01*
X56036Y-52166D01*
X56075Y-52074D01*
X56075Y-51977D01*
X56075Y-51752D01*
X56075Y-51655D01*
X56036Y-51563D01*
X55966Y-51493D01*
X55874Y-51455D01*
X55775Y-51455D01*
X55712Y-51455D01*
X55650Y-51517D01*
X55650Y-51815D01*
X56012Y-51815D01*
X56075Y-51752D01*
X56075Y-51977D01*
X56012Y-51915D01*
X55650Y-51915D01*
X55650Y-51922D01*
X55550Y-51922D01*
X55550Y-51915D01*
X55542Y-51915D01*
X55542Y-51815D01*
X55550Y-51815D01*
X55550Y-51517D01*
X55487Y-51455D01*
X55424Y-51455D01*
X55325Y-51455D01*
X55255Y-51484D01*
X55255Y-51206D01*
X55280Y-51206D01*
X55398Y-51206D01*
X55437Y-51189D01*
X55476Y-51206D01*
X55535Y-51206D01*
X55653Y-51206D01*
X55708Y-51183D01*
X55751Y-51140D01*
X55774Y-51085D01*
X55774Y-51026D01*
X55774Y-51010D01*
X55844Y-51010D01*
X56290Y-51455D01*
X56290Y-51555D01*
X56245Y-51555D01*
X56190Y-51577D01*
X56147Y-51620D01*
X56125Y-51675D01*
X56125Y-51734D01*
X56125Y-52054D01*
X56147Y-52109D01*
X56190Y-52152D01*
X56245Y-52175D01*
X56304Y-52175D01*
X56754Y-52175D01*
X56809Y-52152D01*
X56852Y-52109D01*
X56866Y-52074D01*
X57080Y-52074D01*
X57080Y-52074D01*
G37*
G54D25*
X57080Y-52074D02*
X57068Y-52083D01*
X56854Y-52296D01*
X56852Y-52290D01*
X56809Y-52247D01*
X56754Y-52225D01*
X56695Y-52225D01*
X56245Y-52225D01*
X56190Y-52247D01*
X56147Y-52290D01*
X56129Y-52335D01*
X55970Y-52335D01*
X55952Y-52290D01*
X55918Y-52256D01*
X55966Y-52236D01*
X56036Y-52166D01*
X56075Y-52074D01*
X56075Y-51977D01*
X56075Y-51752D01*
X56075Y-51655D01*
X56036Y-51563D01*
X55966Y-51493D01*
X55874Y-51455D01*
X55775Y-51455D01*
X55712Y-51455D01*
X55650Y-51517D01*
X55650Y-51815D01*
X56012Y-51815D01*
X56075Y-51752D01*
X56075Y-51977D01*
X56012Y-51915D01*
X55650Y-51915D01*
X55650Y-51922D01*
X55550Y-51922D01*
X55550Y-51915D01*
X55542Y-51915D01*
X55542Y-51815D01*
X55550Y-51815D01*
X55550Y-51517D01*
X55487Y-51455D01*
X55424Y-51455D01*
X55325Y-51455D01*
X55255Y-51484D01*
X55255Y-51206D01*
X55280Y-51206D01*
X55398Y-51206D01*
X55437Y-51189D01*
X55476Y-51206D01*
X55535Y-51206D01*
X55653Y-51206D01*
X55708Y-51183D01*
X55751Y-51140D01*
X55774Y-51085D01*
X55774Y-51026D01*
X55774Y-51010D01*
X55844Y-51010D01*
X56290Y-51455D01*
X56290Y-51555D01*
X56245Y-51555D01*
X56190Y-51577D01*
X56147Y-51620D01*
X56125Y-51675D01*
X56125Y-51734D01*
X56125Y-52054D01*
X56147Y-52109D01*
X56190Y-52152D01*
X56245Y-52175D01*
X56304Y-52175D01*
X56754Y-52175D01*
X56809Y-52152D01*
X56852Y-52109D01*
X56866Y-52074D01*
X57080Y-52074D01*
G54D10*
G36*
X59279Y-54751D02*
X58943Y-54751D01*
X58943Y-54323D01*
X58943Y-54263D01*
X58943Y-53476D01*
X58920Y-53421D01*
X58878Y-53379D01*
X58823Y-53356D01*
X58763Y-53356D01*
X58215Y-53356D01*
X58508Y-53063D01*
X58580Y-53049D01*
X58648Y-53003D01*
X58694Y-52935D01*
X58710Y-52855D01*
X58710Y-52845D01*
X58754Y-52845D01*
X58809Y-52822D01*
X58852Y-52779D01*
X58875Y-52724D01*
X58875Y-52665D01*
X58875Y-52345D01*
X58852Y-52290D01*
X58809Y-52247D01*
X58754Y-52225D01*
X58695Y-52225D01*
X58245Y-52225D01*
X58190Y-52247D01*
X58147Y-52290D01*
X58125Y-52345D01*
X58125Y-52404D01*
X58125Y-52724D01*
X58147Y-52779D01*
X58173Y-52805D01*
X57679Y-53298D01*
X57633Y-53366D01*
X57617Y-53447D01*
X57617Y-53540D01*
X57553Y-53517D01*
X57170Y-53900D01*
X57176Y-53905D01*
X57105Y-53976D01*
X57100Y-53970D01*
X57094Y-53976D01*
X57023Y-53905D01*
X57029Y-53900D01*
X56646Y-53517D01*
X56541Y-53555D01*
X56536Y-53568D01*
X56408Y-53439D01*
X56208Y-53356D01*
X55992Y-53356D01*
X55792Y-53438D01*
X55639Y-53591D01*
X55600Y-53686D01*
X55561Y-53592D01*
X55408Y-53439D01*
X55208Y-53356D01*
X54992Y-53356D01*
X54904Y-53392D01*
X54957Y-53339D01*
X56759Y-53339D01*
X56755Y-53341D01*
X56717Y-53446D01*
X57100Y-53829D01*
X57482Y-53446D01*
X57444Y-53341D01*
X57338Y-53302D01*
X57373Y-53278D01*
X57648Y-53003D01*
X57694Y-52935D01*
X57710Y-52855D01*
X57710Y-52845D01*
X57754Y-52845D01*
X57809Y-52822D01*
X57852Y-52779D01*
X57875Y-52724D01*
X57875Y-52665D01*
X57875Y-52370D01*
X57880Y-52366D01*
X58016Y-52230D01*
X58059Y-52165D01*
X58075Y-52088D01*
X58075Y-51626D01*
X58075Y-51626D01*
X58075Y-51626D01*
X58067Y-51587D01*
X58059Y-51549D01*
X58059Y-51549D01*
X58059Y-51549D01*
X58038Y-51517D01*
X58016Y-51484D01*
X58016Y-51484D01*
X58016Y-51484D01*
X57869Y-51338D01*
X57875Y-51324D01*
X57875Y-51265D01*
X57875Y-51216D01*
X58222Y-51564D01*
X58190Y-51577D01*
X58147Y-51620D01*
X58125Y-51675D01*
X58125Y-51734D01*
X58125Y-52054D01*
X58147Y-52109D01*
X58190Y-52152D01*
X58245Y-52175D01*
X58304Y-52175D01*
X58754Y-52175D01*
X58809Y-52152D01*
X58852Y-52109D01*
X58875Y-52054D01*
X58875Y-51995D01*
X58875Y-51675D01*
X58852Y-51620D01*
X58809Y-51577D01*
X58754Y-51555D01*
X58710Y-51555D01*
X58710Y-51544D01*
X58694Y-51464D01*
X58648Y-51396D01*
X58105Y-50853D01*
X58105Y-50785D01*
X58105Y-47141D01*
X58089Y-47061D01*
X58043Y-46993D01*
X57416Y-46366D01*
X57348Y-46320D01*
X57268Y-46304D01*
X54846Y-46304D01*
X54766Y-46320D01*
X54698Y-46366D01*
X54036Y-47028D01*
X53991Y-47096D01*
X53985Y-47125D01*
X53675Y-47125D01*
X53620Y-47147D01*
X53577Y-47190D01*
X53555Y-47245D01*
X53555Y-47304D01*
X53555Y-47754D01*
X53577Y-47809D01*
X53620Y-47852D01*
X53654Y-47866D01*
X53654Y-47885D01*
X53659Y-47906D01*
X53345Y-47592D01*
X53345Y-47245D01*
X53322Y-47190D01*
X53279Y-47147D01*
X53224Y-47125D01*
X53165Y-47125D01*
X52845Y-47125D01*
X52790Y-47147D01*
X52747Y-47190D01*
X52725Y-47245D01*
X52725Y-47304D01*
X52725Y-47754D01*
X52747Y-47809D01*
X52790Y-47852D01*
X52845Y-47875D01*
X52904Y-47875D01*
X53062Y-47875D01*
X53422Y-48235D01*
X53422Y-49090D01*
X53409Y-49077D01*
X53354Y-49055D01*
X53300Y-49055D01*
X53300Y-48757D01*
X53300Y-48757D01*
X53292Y-48719D01*
X53284Y-48680D01*
X53284Y-48680D01*
X53284Y-48680D01*
X53263Y-48648D01*
X53241Y-48615D01*
X52578Y-47952D01*
X52578Y-47952D01*
X52578Y-47952D01*
X52546Y-47930D01*
X52513Y-47908D01*
X52513Y-47908D01*
X52513Y-47908D01*
X52475Y-47901D01*
X52437Y-47893D01*
X52437Y-47893D01*
X52437Y-47893D01*
X51832Y-47893D01*
X51297Y-47358D01*
X51297Y-47358D01*
X51264Y-47336D01*
X51247Y-47324D01*
X51572Y-47324D01*
X51896Y-47648D01*
X51964Y-47694D01*
X52044Y-47710D01*
X52055Y-47710D01*
X52055Y-47754D01*
X52077Y-47809D01*
X52120Y-47852D01*
X52175Y-47875D01*
X52234Y-47875D01*
X52554Y-47875D01*
X52609Y-47852D01*
X52652Y-47809D01*
X52675Y-47754D01*
X52675Y-47695D01*
X52675Y-47245D01*
X52652Y-47190D01*
X52609Y-47147D01*
X52554Y-47125D01*
X52495Y-47125D01*
X52175Y-47125D01*
X52120Y-47147D01*
X52077Y-47190D01*
X52064Y-47222D01*
X51808Y-46966D01*
X51740Y-46920D01*
X51659Y-46904D01*
X50290Y-46904D01*
X50290Y-46904D01*
X50250Y-46912D01*
X50210Y-46920D01*
X50209Y-46920D01*
X50209Y-46920D01*
X50175Y-46943D01*
X50141Y-46966D01*
X50036Y-47070D01*
X50036Y-47071D01*
X50036Y-47071D01*
X50013Y-47105D01*
X50000Y-47125D01*
X49995Y-47125D01*
X49675Y-47125D01*
X49620Y-47147D01*
X49577Y-47190D01*
X49555Y-47245D01*
X49555Y-47290D01*
X49445Y-47290D01*
X49445Y-47245D01*
X49422Y-47190D01*
X49379Y-47147D01*
X49324Y-47125D01*
X49265Y-47125D01*
X48999Y-47125D01*
X48986Y-47105D01*
X48963Y-47071D01*
X48963Y-47071D01*
X48963Y-47070D01*
X48858Y-46966D01*
X48858Y-46966D01*
X48824Y-46943D01*
X48790Y-46920D01*
X48790Y-46920D01*
X48789Y-46920D01*
X48749Y-46912D01*
X48709Y-46904D01*
X47918Y-46904D01*
X47838Y-46920D01*
X47770Y-46966D01*
X46701Y-48035D01*
X46655Y-48103D01*
X46640Y-48183D01*
X46640Y-48223D01*
X46604Y-48259D01*
X46600Y-48270D01*
X46595Y-48259D01*
X46552Y-48216D01*
X46497Y-48194D01*
X46438Y-48194D01*
X46202Y-48194D01*
X46147Y-48216D01*
X46104Y-48259D01*
X46100Y-48270D01*
X46095Y-48259D01*
X46052Y-48216D01*
X45997Y-48194D01*
X45938Y-48194D01*
X45781Y-48194D01*
X45781Y-48188D01*
X45781Y-48188D01*
X45781Y-48188D01*
X45773Y-48145D01*
X45765Y-48103D01*
X45765Y-48103D01*
X45765Y-48103D01*
X45740Y-48067D01*
X45717Y-48032D01*
X45717Y-48032D01*
X45717Y-48032D01*
X44386Y-46701D01*
X44349Y-46677D01*
X44314Y-46654D01*
X44314Y-46654D01*
X44314Y-46654D01*
X44272Y-46645D01*
X44230Y-46637D01*
X44230Y-46637D01*
X41279Y-46637D01*
X41195Y-46654D01*
X41124Y-46701D01*
X40549Y-47276D01*
X40501Y-47348D01*
X40485Y-47432D01*
X40485Y-50082D01*
X40485Y-50083D01*
X40493Y-50125D01*
X40501Y-50167D01*
X40501Y-50167D01*
X40501Y-50167D01*
X40525Y-50202D01*
X40549Y-50238D01*
X40549Y-50238D01*
X40784Y-50473D01*
X40447Y-50810D01*
X40399Y-50882D01*
X40383Y-50966D01*
X40383Y-53139D01*
X40383Y-53139D01*
X40383Y-53139D01*
X40391Y-53181D01*
X40399Y-53223D01*
X40399Y-53224D01*
X40399Y-53224D01*
X40423Y-53259D01*
X40447Y-53295D01*
X40447Y-53295D01*
X40447Y-53295D01*
X40508Y-53356D01*
X40376Y-53356D01*
X40321Y-53379D01*
X40279Y-53421D01*
X40256Y-53476D01*
X40256Y-53536D01*
X40256Y-54323D01*
X40279Y-54378D01*
X40321Y-54420D01*
X40376Y-54443D01*
X40436Y-54443D01*
X41223Y-54443D01*
X41278Y-54420D01*
X41320Y-54378D01*
X41343Y-54323D01*
X41343Y-54263D01*
X41343Y-53476D01*
X41320Y-53421D01*
X41278Y-53379D01*
X41223Y-53356D01*
X41163Y-53356D01*
X41020Y-53356D01*
X41020Y-53336D01*
X41019Y-53336D01*
X41019Y-53336D01*
X41011Y-53294D01*
X41003Y-53252D01*
X41003Y-53251D01*
X41003Y-53251D01*
X40979Y-53216D01*
X40955Y-53180D01*
X40955Y-53180D01*
X40955Y-53180D01*
X40823Y-53048D01*
X40823Y-52846D01*
X41343Y-53366D01*
X41408Y-53409D01*
X41408Y-53409D01*
X41470Y-53422D01*
X41456Y-53456D01*
X41456Y-53556D01*
X41456Y-53787D01*
X41519Y-53850D01*
X42050Y-53850D01*
X42050Y-53842D01*
X42150Y-53842D01*
X42150Y-53850D01*
X42157Y-53850D01*
X42157Y-53950D01*
X42150Y-53950D01*
X42150Y-54481D01*
X42212Y-54543D01*
X42543Y-54543D01*
X42635Y-54505D01*
X42705Y-54435D01*
X42743Y-54343D01*
X42743Y-54312D01*
X42791Y-54360D01*
X42991Y-54443D01*
X43207Y-54443D01*
X43407Y-54361D01*
X43560Y-54208D01*
X43599Y-54113D01*
X43638Y-54207D01*
X43791Y-54360D01*
X43991Y-54443D01*
X44207Y-54443D01*
X44407Y-54361D01*
X44536Y-54232D01*
X44541Y-54244D01*
X44646Y-54282D01*
X45029Y-53900D01*
X44646Y-53517D01*
X44541Y-53555D01*
X44536Y-53568D01*
X44408Y-53439D01*
X44373Y-53425D01*
X44724Y-53425D01*
X44717Y-53446D01*
X45100Y-53829D01*
X45482Y-53446D01*
X45475Y-53425D01*
X45825Y-53425D01*
X45792Y-53438D01*
X45663Y-53567D01*
X45658Y-53555D01*
X45553Y-53517D01*
X45170Y-53900D01*
X45553Y-54282D01*
X45658Y-54244D01*
X45663Y-54231D01*
X45791Y-54360D01*
X45991Y-54443D01*
X46207Y-54443D01*
X46407Y-54361D01*
X46560Y-54208D01*
X46599Y-54113D01*
X46638Y-54207D01*
X46791Y-54360D01*
X46991Y-54443D01*
X47207Y-54443D01*
X47407Y-54361D01*
X47560Y-54208D01*
X47599Y-54113D01*
X47638Y-54207D01*
X47791Y-54360D01*
X47991Y-54443D01*
X48207Y-54443D01*
X48407Y-54361D01*
X48560Y-54208D01*
X48599Y-54113D01*
X48638Y-54207D01*
X48791Y-54360D01*
X48991Y-54443D01*
X49207Y-54443D01*
X49407Y-54361D01*
X49536Y-54232D01*
X49541Y-54244D01*
X49646Y-54282D01*
X50029Y-53900D01*
X49646Y-53517D01*
X49541Y-53555D01*
X49536Y-53568D01*
X49408Y-53439D01*
X49373Y-53425D01*
X49724Y-53425D01*
X49717Y-53446D01*
X50100Y-53829D01*
X50482Y-53446D01*
X50475Y-53425D01*
X50825Y-53425D01*
X50792Y-53438D01*
X50663Y-53567D01*
X50658Y-53555D01*
X50553Y-53517D01*
X50170Y-53900D01*
X50553Y-54282D01*
X50658Y-54244D01*
X50663Y-54231D01*
X50791Y-54360D01*
X50991Y-54443D01*
X51207Y-54443D01*
X51407Y-54361D01*
X51560Y-54208D01*
X51599Y-54113D01*
X51638Y-54207D01*
X51791Y-54360D01*
X51991Y-54443D01*
X52207Y-54443D01*
X52305Y-54402D01*
X52505Y-54602D01*
X52505Y-54602D01*
X52546Y-54629D01*
X52573Y-54647D01*
X52573Y-54647D01*
X52653Y-54663D01*
X57360Y-54663D01*
X57440Y-54647D01*
X57508Y-54602D01*
X57856Y-54254D01*
X57856Y-54323D01*
X57879Y-54378D01*
X57921Y-54420D01*
X57976Y-54443D01*
X58036Y-54443D01*
X58823Y-54443D01*
X58878Y-54420D01*
X58920Y-54378D01*
X58943Y-54323D01*
X58943Y-54751D01*
X50482Y-54751D01*
X50482Y-54353D01*
X50100Y-53970D01*
X49717Y-54353D01*
X49755Y-54458D01*
X49995Y-54547D01*
X50251Y-54538D01*
X50444Y-54458D01*
X50482Y-54353D01*
X50482Y-54751D01*
X45482Y-54751D01*
X45482Y-54353D01*
X45100Y-53970D01*
X44717Y-54353D01*
X44755Y-54458D01*
X44995Y-54547D01*
X45251Y-54538D01*
X45444Y-54458D01*
X45482Y-54353D01*
X45482Y-54751D01*
X42050Y-54751D01*
X42050Y-54481D01*
X42050Y-53950D01*
X41519Y-53950D01*
X41456Y-54012D01*
X41456Y-54243D01*
X41456Y-54343D01*
X41494Y-54435D01*
X41564Y-54505D01*
X41656Y-54543D01*
X41987Y-54543D01*
X42050Y-54481D01*
X42050Y-54751D01*
X39933Y-54751D01*
X39933Y-46232D01*
X59279Y-46232D01*
X59279Y-54751D01*
X59279Y-54751D01*
G37*
G54D25*
X59279Y-54751D02*
X58943Y-54751D01*
X58943Y-54323D01*
X58943Y-54263D01*
X58943Y-53476D01*
X58920Y-53421D01*
X58878Y-53379D01*
X58823Y-53356D01*
X58763Y-53356D01*
X58215Y-53356D01*
X58508Y-53063D01*
X58580Y-53049D01*
X58648Y-53003D01*
X58694Y-52935D01*
X58710Y-52855D01*
X58710Y-52845D01*
X58754Y-52845D01*
X58809Y-52822D01*
X58852Y-52779D01*
X58875Y-52724D01*
X58875Y-52665D01*
X58875Y-52345D01*
X58852Y-52290D01*
X58809Y-52247D01*
X58754Y-52225D01*
X58695Y-52225D01*
X58245Y-52225D01*
X58190Y-52247D01*
X58147Y-52290D01*
X58125Y-52345D01*
X58125Y-52404D01*
X58125Y-52724D01*
X58147Y-52779D01*
X58173Y-52805D01*
X57679Y-53298D01*
X57633Y-53366D01*
X57617Y-53447D01*
X57617Y-53540D01*
X57553Y-53517D01*
X57170Y-53900D01*
X57176Y-53905D01*
X57105Y-53976D01*
X57100Y-53970D01*
X57094Y-53976D01*
X57023Y-53905D01*
X57029Y-53900D01*
X56646Y-53517D01*
X56541Y-53555D01*
X56536Y-53568D01*
X56408Y-53439D01*
X56208Y-53356D01*
X55992Y-53356D01*
X55792Y-53438D01*
X55639Y-53591D01*
X55600Y-53686D01*
X55561Y-53592D01*
X55408Y-53439D01*
X55208Y-53356D01*
X54992Y-53356D01*
X54904Y-53392D01*
X54957Y-53339D01*
X56759Y-53339D01*
X56755Y-53341D01*
X56717Y-53446D01*
X57100Y-53829D01*
X57482Y-53446D01*
X57444Y-53341D01*
X57338Y-53302D01*
X57373Y-53278D01*
X57648Y-53003D01*
X57694Y-52935D01*
X57710Y-52855D01*
X57710Y-52845D01*
X57754Y-52845D01*
X57809Y-52822D01*
X57852Y-52779D01*
X57875Y-52724D01*
X57875Y-52665D01*
X57875Y-52370D01*
X57880Y-52366D01*
X58016Y-52230D01*
X58059Y-52165D01*
X58075Y-52088D01*
X58075Y-51626D01*
X58075Y-51626D01*
X58075Y-51626D01*
X58067Y-51587D01*
X58059Y-51549D01*
X58059Y-51549D01*
X58059Y-51549D01*
X58038Y-51517D01*
X58016Y-51484D01*
X58016Y-51484D01*
X58016Y-51484D01*
X57869Y-51338D01*
X57875Y-51324D01*
X57875Y-51265D01*
X57875Y-51216D01*
X58222Y-51564D01*
X58190Y-51577D01*
X58147Y-51620D01*
X58125Y-51675D01*
X58125Y-51734D01*
X58125Y-52054D01*
X58147Y-52109D01*
X58190Y-52152D01*
X58245Y-52175D01*
X58304Y-52175D01*
X58754Y-52175D01*
X58809Y-52152D01*
X58852Y-52109D01*
X58875Y-52054D01*
X58875Y-51995D01*
X58875Y-51675D01*
X58852Y-51620D01*
X58809Y-51577D01*
X58754Y-51555D01*
X58710Y-51555D01*
X58710Y-51544D01*
X58694Y-51464D01*
X58648Y-51396D01*
X58105Y-50853D01*
X58105Y-50785D01*
X58105Y-47141D01*
X58089Y-47061D01*
X58043Y-46993D01*
X57416Y-46366D01*
X57348Y-46320D01*
X57268Y-46304D01*
X54846Y-46304D01*
X54766Y-46320D01*
X54698Y-46366D01*
X54036Y-47028D01*
X53991Y-47096D01*
X53985Y-47125D01*
X53675Y-47125D01*
X53620Y-47147D01*
X53577Y-47190D01*
X53555Y-47245D01*
X53555Y-47304D01*
X53555Y-47754D01*
X53577Y-47809D01*
X53620Y-47852D01*
X53654Y-47866D01*
X53654Y-47885D01*
X53659Y-47906D01*
X53345Y-47592D01*
X53345Y-47245D01*
X53322Y-47190D01*
X53279Y-47147D01*
X53224Y-47125D01*
X53165Y-47125D01*
X52845Y-47125D01*
X52790Y-47147D01*
X52747Y-47190D01*
X52725Y-47245D01*
X52725Y-47304D01*
X52725Y-47754D01*
X52747Y-47809D01*
X52790Y-47852D01*
X52845Y-47875D01*
X52904Y-47875D01*
X53062Y-47875D01*
X53422Y-48235D01*
X53422Y-49090D01*
X53409Y-49077D01*
X53354Y-49055D01*
X53300Y-49055D01*
X53300Y-48757D01*
X53300Y-48757D01*
X53292Y-48719D01*
X53284Y-48680D01*
X53284Y-48680D01*
X53284Y-48680D01*
X53263Y-48648D01*
X53241Y-48615D01*
X52578Y-47952D01*
X52578Y-47952D01*
X52578Y-47952D01*
X52546Y-47930D01*
X52513Y-47908D01*
X52513Y-47908D01*
X52513Y-47908D01*
X52475Y-47901D01*
X52437Y-47893D01*
X52437Y-47893D01*
X52437Y-47893D01*
X51832Y-47893D01*
X51297Y-47358D01*
X51297Y-47358D01*
X51264Y-47336D01*
X51247Y-47324D01*
X51572Y-47324D01*
X51896Y-47648D01*
X51964Y-47694D01*
X52044Y-47710D01*
X52055Y-47710D01*
X52055Y-47754D01*
X52077Y-47809D01*
X52120Y-47852D01*
X52175Y-47875D01*
X52234Y-47875D01*
X52554Y-47875D01*
X52609Y-47852D01*
X52652Y-47809D01*
X52675Y-47754D01*
X52675Y-47695D01*
X52675Y-47245D01*
X52652Y-47190D01*
X52609Y-47147D01*
X52554Y-47125D01*
X52495Y-47125D01*
X52175Y-47125D01*
X52120Y-47147D01*
X52077Y-47190D01*
X52064Y-47222D01*
X51808Y-46966D01*
X51740Y-46920D01*
X51659Y-46904D01*
X50290Y-46904D01*
X50290Y-46904D01*
X50250Y-46912D01*
X50210Y-46920D01*
X50209Y-46920D01*
X50209Y-46920D01*
X50175Y-46943D01*
X50141Y-46966D01*
X50036Y-47070D01*
X50036Y-47071D01*
X50036Y-47071D01*
X50013Y-47105D01*
X50000Y-47125D01*
X49995Y-47125D01*
X49675Y-47125D01*
X49620Y-47147D01*
X49577Y-47190D01*
X49555Y-47245D01*
X49555Y-47290D01*
X49445Y-47290D01*
X49445Y-47245D01*
X49422Y-47190D01*
X49379Y-47147D01*
X49324Y-47125D01*
X49265Y-47125D01*
X48999Y-47125D01*
X48986Y-47105D01*
X48963Y-47071D01*
X48963Y-47071D01*
X48963Y-47070D01*
X48858Y-46966D01*
X48858Y-46966D01*
X48824Y-46943D01*
X48790Y-46920D01*
X48790Y-46920D01*
X48789Y-46920D01*
X48749Y-46912D01*
X48709Y-46904D01*
X47918Y-46904D01*
X47838Y-46920D01*
X47770Y-46966D01*
X46701Y-48035D01*
X46655Y-48103D01*
X46640Y-48183D01*
X46640Y-48223D01*
X46604Y-48259D01*
X46600Y-48270D01*
X46595Y-48259D01*
X46552Y-48216D01*
X46497Y-48194D01*
X46438Y-48194D01*
X46202Y-48194D01*
X46147Y-48216D01*
X46104Y-48259D01*
X46100Y-48270D01*
X46095Y-48259D01*
X46052Y-48216D01*
X45997Y-48194D01*
X45938Y-48194D01*
X45781Y-48194D01*
X45781Y-48188D01*
X45781Y-48188D01*
X45781Y-48188D01*
X45773Y-48145D01*
X45765Y-48103D01*
X45765Y-48103D01*
X45765Y-48103D01*
X45740Y-48067D01*
X45717Y-48032D01*
X45717Y-48032D01*
X45717Y-48032D01*
X44386Y-46701D01*
X44349Y-46677D01*
X44314Y-46654D01*
X44314Y-46654D01*
X44314Y-46654D01*
X44272Y-46645D01*
X44230Y-46637D01*
X44230Y-46637D01*
X41279Y-46637D01*
X41195Y-46654D01*
X41124Y-46701D01*
X40549Y-47276D01*
X40501Y-47348D01*
X40485Y-47432D01*
X40485Y-50082D01*
X40485Y-50083D01*
X40493Y-50125D01*
X40501Y-50167D01*
X40501Y-50167D01*
X40501Y-50167D01*
X40525Y-50202D01*
X40549Y-50238D01*
X40549Y-50238D01*
X40784Y-50473D01*
X40447Y-50810D01*
X40399Y-50882D01*
X40383Y-50966D01*
X40383Y-53139D01*
X40383Y-53139D01*
X40383Y-53139D01*
X40391Y-53181D01*
X40399Y-53223D01*
X40399Y-53224D01*
X40399Y-53224D01*
X40423Y-53259D01*
X40447Y-53295D01*
X40447Y-53295D01*
X40447Y-53295D01*
X40508Y-53356D01*
X40376Y-53356D01*
X40321Y-53379D01*
X40279Y-53421D01*
X40256Y-53476D01*
X40256Y-53536D01*
X40256Y-54323D01*
X40279Y-54378D01*
X40321Y-54420D01*
X40376Y-54443D01*
X40436Y-54443D01*
X41223Y-54443D01*
X41278Y-54420D01*
X41320Y-54378D01*
X41343Y-54323D01*
X41343Y-54263D01*
X41343Y-53476D01*
X41320Y-53421D01*
X41278Y-53379D01*
X41223Y-53356D01*
X41163Y-53356D01*
X41020Y-53356D01*
X41020Y-53336D01*
X41019Y-53336D01*
X41019Y-53336D01*
X41011Y-53294D01*
X41003Y-53252D01*
X41003Y-53251D01*
X41003Y-53251D01*
X40979Y-53216D01*
X40955Y-53180D01*
X40955Y-53180D01*
X40955Y-53180D01*
X40823Y-53048D01*
X40823Y-52846D01*
X41343Y-53366D01*
X41408Y-53409D01*
X41408Y-53409D01*
X41470Y-53422D01*
X41456Y-53456D01*
X41456Y-53556D01*
X41456Y-53787D01*
X41519Y-53850D01*
X42050Y-53850D01*
X42050Y-53842D01*
X42150Y-53842D01*
X42150Y-53850D01*
X42157Y-53850D01*
X42157Y-53950D01*
X42150Y-53950D01*
X42150Y-54481D01*
X42212Y-54543D01*
X42543Y-54543D01*
X42635Y-54505D01*
X42705Y-54435D01*
X42743Y-54343D01*
X42743Y-54312D01*
X42791Y-54360D01*
X42991Y-54443D01*
X43207Y-54443D01*
X43407Y-54361D01*
X43560Y-54208D01*
X43599Y-54113D01*
X43638Y-54207D01*
X43791Y-54360D01*
X43991Y-54443D01*
X44207Y-54443D01*
X44407Y-54361D01*
X44536Y-54232D01*
X44541Y-54244D01*
X44646Y-54282D01*
X45029Y-53900D01*
X44646Y-53517D01*
X44541Y-53555D01*
X44536Y-53568D01*
X44408Y-53439D01*
X44373Y-53425D01*
X44724Y-53425D01*
X44717Y-53446D01*
X45100Y-53829D01*
X45482Y-53446D01*
X45475Y-53425D01*
X45825Y-53425D01*
X45792Y-53438D01*
X45663Y-53567D01*
X45658Y-53555D01*
X45553Y-53517D01*
X45170Y-53900D01*
X45553Y-54282D01*
X45658Y-54244D01*
X45663Y-54231D01*
X45791Y-54360D01*
X45991Y-54443D01*
X46207Y-54443D01*
X46407Y-54361D01*
X46560Y-54208D01*
X46599Y-54113D01*
X46638Y-54207D01*
X46791Y-54360D01*
X46991Y-54443D01*
X47207Y-54443D01*
X47407Y-54361D01*
X47560Y-54208D01*
X47599Y-54113D01*
X47638Y-54207D01*
X47791Y-54360D01*
X47991Y-54443D01*
X48207Y-54443D01*
X48407Y-54361D01*
X48560Y-54208D01*
X48599Y-54113D01*
X48638Y-54207D01*
X48791Y-54360D01*
X48991Y-54443D01*
X49207Y-54443D01*
X49407Y-54361D01*
X49536Y-54232D01*
X49541Y-54244D01*
X49646Y-54282D01*
X50029Y-53900D01*
X49646Y-53517D01*
X49541Y-53555D01*
X49536Y-53568D01*
X49408Y-53439D01*
X49373Y-53425D01*
X49724Y-53425D01*
X49717Y-53446D01*
X50100Y-53829D01*
X50482Y-53446D01*
X50475Y-53425D01*
X50825Y-53425D01*
X50792Y-53438D01*
X50663Y-53567D01*
X50658Y-53555D01*
X50553Y-53517D01*
X50170Y-53900D01*
X50553Y-54282D01*
X50658Y-54244D01*
X50663Y-54231D01*
X50791Y-54360D01*
X50991Y-54443D01*
X51207Y-54443D01*
X51407Y-54361D01*
X51560Y-54208D01*
X51599Y-54113D01*
X51638Y-54207D01*
X51791Y-54360D01*
X51991Y-54443D01*
X52207Y-54443D01*
X52305Y-54402D01*
X52505Y-54602D01*
X52505Y-54602D01*
X52546Y-54629D01*
X52573Y-54647D01*
X52573Y-54647D01*
X52653Y-54663D01*
X57360Y-54663D01*
X57440Y-54647D01*
X57508Y-54602D01*
X57856Y-54254D01*
X57856Y-54323D01*
X57879Y-54378D01*
X57921Y-54420D01*
X57976Y-54443D01*
X58036Y-54443D01*
X58823Y-54443D01*
X58878Y-54420D01*
X58920Y-54378D01*
X58943Y-54323D01*
X58943Y-54751D01*
X50482Y-54751D01*
X50482Y-54353D01*
X50100Y-53970D01*
X49717Y-54353D01*
X49755Y-54458D01*
X49995Y-54547D01*
X50251Y-54538D01*
X50444Y-54458D01*
X50482Y-54353D01*
X50482Y-54751D01*
X45482Y-54751D01*
X45482Y-54353D01*
X45100Y-53970D01*
X44717Y-54353D01*
X44755Y-54458D01*
X44995Y-54547D01*
X45251Y-54538D01*
X45444Y-54458D01*
X45482Y-54353D01*
X45482Y-54751D01*
X42050Y-54751D01*
X42050Y-54481D01*
X42050Y-53950D01*
X41519Y-53950D01*
X41456Y-54012D01*
X41456Y-54243D01*
X41456Y-54343D01*
X41494Y-54435D01*
X41564Y-54505D01*
X41656Y-54543D01*
X41987Y-54543D01*
X42050Y-54481D01*
X42050Y-54751D01*
X39933Y-54751D01*
X39933Y-46232D01*
X59279Y-46232D01*
X59279Y-54751D01*
M02*
