%FSLAX34Y34*%
G04 Gerber Fmt 3.4, Leading zero omitted, Abs format*
G04 (created by PCBNEW (2013-12-24 BZR 4575)-product) date 2014-01-25 4:15:43 PM*
%MOIN*%
G01*
G70*
G90*
G04 APERTURE LIST*
%ADD10C,0.005906*%
%ADD11R,0.015700X0.031400*%
%ADD12R,0.045000X0.055000*%
%ADD13R,0.055000X0.045000*%
%ADD14R,0.039400X0.027600*%
%ADD15R,0.078700X0.078700*%
%ADD16C,0.078700*%
%ADD17R,0.011800X0.051200*%
%ADD18R,0.023600X0.086600*%
%ADD19R,0.045000X0.032000*%
%ADD20R,0.032000X0.045000*%
G04 APERTURE END LIST*
G54D10*
G54D11*
X44395Y-50064D03*
X44650Y-50064D03*
X44905Y-50064D03*
X44905Y-49436D03*
X44650Y-49436D03*
X44395Y-49436D03*
G54D12*
X45125Y-50800D03*
X44275Y-50800D03*
G54D13*
X48200Y-50125D03*
X48200Y-49275D03*
G54D14*
X50100Y-49700D03*
X49100Y-50075D03*
X49100Y-49325D03*
X57200Y-49700D03*
X56200Y-50075D03*
X56200Y-49325D03*
G54D15*
X40800Y-53900D03*
X58400Y-53900D03*
X42100Y-53900D03*
G54D16*
X43100Y-53900D03*
X44100Y-53900D03*
X45100Y-53900D03*
X46100Y-53900D03*
X47100Y-53900D03*
X48100Y-53900D03*
X49100Y-53900D03*
X50100Y-53900D03*
X51100Y-53900D03*
X52100Y-53900D03*
X53100Y-53900D03*
X54100Y-53900D03*
X55100Y-53900D03*
X56100Y-53900D03*
X57100Y-53900D03*
G54D17*
X55560Y-48600D03*
X55310Y-48600D03*
X55050Y-48600D03*
X54800Y-48600D03*
X54540Y-48600D03*
X54285Y-48600D03*
X54030Y-48600D03*
X54030Y-50800D03*
X54285Y-50800D03*
X54540Y-50800D03*
X54800Y-50800D03*
X55055Y-50800D03*
X55310Y-50800D03*
X55565Y-50800D03*
X42760Y-48700D03*
X42510Y-48700D03*
X42250Y-48700D03*
X42000Y-48700D03*
X41740Y-48700D03*
X41485Y-48700D03*
X41230Y-48700D03*
X41230Y-50900D03*
X41485Y-50900D03*
X41740Y-50900D03*
X42000Y-50900D03*
X42255Y-50900D03*
X42510Y-50900D03*
X42765Y-50900D03*
G54D18*
X52250Y-48677D03*
X51750Y-48677D03*
X51250Y-48677D03*
X50750Y-48677D03*
X50750Y-50723D03*
X51250Y-50723D03*
X51750Y-50723D03*
X52250Y-50723D03*
X45850Y-50823D03*
X46350Y-50823D03*
X46850Y-50823D03*
X47350Y-50823D03*
X47350Y-48777D03*
X46850Y-48777D03*
X46350Y-48777D03*
X45850Y-48777D03*
G54D19*
X50500Y-52535D03*
X50500Y-51865D03*
X57500Y-52535D03*
X57500Y-51865D03*
X58500Y-52535D03*
X58500Y-51865D03*
X49500Y-52535D03*
X49500Y-51865D03*
X52500Y-52535D03*
X52500Y-51865D03*
G54D20*
X50535Y-47500D03*
X49865Y-47500D03*
X48465Y-47500D03*
X49135Y-47500D03*
G54D19*
X53500Y-51865D03*
X53500Y-52535D03*
X57500Y-50465D03*
X57500Y-51135D03*
G54D20*
X56835Y-48500D03*
X56165Y-48500D03*
X44365Y-48300D03*
X45035Y-48300D03*
X54535Y-47500D03*
X53865Y-47500D03*
G54D19*
X43500Y-49465D03*
X43500Y-50135D03*
G54D20*
X56835Y-46900D03*
X56165Y-46900D03*
X56165Y-47600D03*
X56835Y-47600D03*
G54D19*
X55600Y-52535D03*
X55600Y-51865D03*
X54600Y-51865D03*
X54600Y-52535D03*
X56500Y-51865D03*
X56500Y-52535D03*
G54D20*
X52365Y-47500D03*
X53035Y-47500D03*
G54D19*
X51500Y-52535D03*
X51500Y-51865D03*
X53100Y-49365D03*
X53100Y-50035D03*
G54D20*
X41935Y-47500D03*
X41265Y-47500D03*
G54D19*
X41200Y-52335D03*
X41200Y-51665D03*
X42200Y-51665D03*
X42200Y-52335D03*
X43300Y-52335D03*
X43300Y-51665D03*
M02*
