%FSLAX34Y34*%
G04 Gerber Fmt 3.4, Leading zero omitted, Abs format*
G04 (created by PCBNEW (2013-12-24 BZR 4575)-product) date 2014-01-25 4:15:43 PM*
%MOIN*%
G01*
G70*
G90*
G04 APERTURE LIST*
%ADD10C,0.005906*%
%ADD11C,0.007874*%
%ADD12C,0.008000*%
%ADD13C,0.006000*%
%ADD14C,0.005900*%
%ADD15C,0.010000*%
%ADD16R,0.078700X0.078700*%
%ADD17R,0.051200X0.078700*%
%ADD18R,0.062900X0.118100*%
%ADD19C,0.078700*%
%ADD20R,0.045000X0.032000*%
G04 APERTURE END LIST*
G54D10*
G54D11*
X42600Y-52450D02*
X43600Y-52450D01*
X42600Y-53300D02*
X42600Y-52450D01*
X44600Y-52450D02*
X44600Y-53300D01*
X43600Y-52450D02*
X44600Y-52450D01*
X43600Y-54500D02*
X43600Y-52450D01*
X42600Y-53300D02*
X42650Y-53300D01*
X42600Y-54500D02*
X42600Y-53300D01*
X44600Y-54500D02*
X42600Y-54500D01*
X44600Y-54450D02*
X44600Y-54500D01*
X44600Y-53300D02*
X44600Y-54450D01*
X42650Y-53300D02*
X44600Y-53300D01*
G54D12*
X41573Y-52928D02*
X41269Y-52928D01*
X41135Y-52680D02*
X41002Y-53080D01*
X40869Y-52680D01*
X40507Y-53042D02*
X40526Y-53061D01*
X40583Y-53080D01*
X40621Y-53080D01*
X40678Y-53061D01*
X40716Y-53023D01*
X40735Y-52985D01*
X40754Y-52909D01*
X40754Y-52852D01*
X40735Y-52776D01*
X40716Y-52738D01*
X40678Y-52700D01*
X40621Y-52680D01*
X40583Y-52680D01*
X40526Y-52700D01*
X40507Y-52719D01*
X40107Y-53042D02*
X40126Y-53061D01*
X40183Y-53080D01*
X40221Y-53080D01*
X40278Y-53061D01*
X40316Y-53023D01*
X40335Y-52985D01*
X40354Y-52909D01*
X40354Y-52852D01*
X40335Y-52776D01*
X40316Y-52738D01*
X40278Y-52700D01*
X40221Y-52680D01*
X40183Y-52680D01*
X40126Y-52700D01*
X40107Y-52719D01*
X42300Y-52904D02*
X42319Y-52942D01*
X42319Y-53000D01*
X42300Y-53057D01*
X42261Y-53095D01*
X42223Y-53114D01*
X42147Y-53133D01*
X42090Y-53133D01*
X42014Y-53114D01*
X41976Y-53095D01*
X41938Y-53057D01*
X41919Y-53000D01*
X41919Y-52961D01*
X41938Y-52904D01*
X41957Y-52885D01*
X42090Y-52885D01*
X42090Y-52961D01*
X41919Y-52714D02*
X42319Y-52714D01*
X41919Y-52485D01*
X42319Y-52485D01*
X41919Y-52295D02*
X42319Y-52295D01*
X42319Y-52199D01*
X42300Y-52142D01*
X42261Y-52104D01*
X42223Y-52085D01*
X42147Y-52066D01*
X42090Y-52066D01*
X42014Y-52085D01*
X41976Y-52104D01*
X41938Y-52142D01*
X41919Y-52199D01*
X41919Y-52295D01*
X42878Y-52747D02*
X42878Y-53052D01*
X43030Y-52900D02*
X42726Y-52900D01*
X44157Y-52901D02*
X44462Y-52901D01*
X48938Y-53095D02*
X48919Y-53038D01*
X48919Y-52942D01*
X48938Y-52904D01*
X48957Y-52885D01*
X48995Y-52866D01*
X49033Y-52866D01*
X49071Y-52885D01*
X49090Y-52904D01*
X49109Y-52942D01*
X49128Y-53019D01*
X49147Y-53057D01*
X49166Y-53076D01*
X49204Y-53095D01*
X49242Y-53095D01*
X49280Y-53076D01*
X49300Y-53057D01*
X49319Y-53019D01*
X49319Y-52923D01*
X49300Y-52866D01*
X49109Y-52619D02*
X48919Y-52619D01*
X49319Y-52752D02*
X49109Y-52619D01*
X49319Y-52485D01*
X48919Y-52352D02*
X49319Y-52352D01*
X48919Y-52123D01*
X49319Y-52123D01*
X48957Y-51704D02*
X48938Y-51723D01*
X48919Y-51780D01*
X48919Y-51819D01*
X48938Y-51876D01*
X48976Y-51914D01*
X49014Y-51933D01*
X49090Y-51952D01*
X49147Y-51952D01*
X49223Y-51933D01*
X49261Y-51914D01*
X49300Y-51876D01*
X49319Y-51819D01*
X49319Y-51780D01*
X49300Y-51723D01*
X49280Y-51704D01*
X50300Y-52904D02*
X50319Y-52942D01*
X50319Y-53000D01*
X50300Y-53057D01*
X50261Y-53095D01*
X50223Y-53114D01*
X50147Y-53133D01*
X50090Y-53133D01*
X50014Y-53114D01*
X49976Y-53095D01*
X49938Y-53057D01*
X49919Y-53000D01*
X49919Y-52961D01*
X49938Y-52904D01*
X49957Y-52885D01*
X50090Y-52885D01*
X50090Y-52961D01*
X49919Y-52714D02*
X50319Y-52714D01*
X49919Y-52485D01*
X50319Y-52485D01*
X49919Y-52295D02*
X50319Y-52295D01*
X50319Y-52199D01*
X50300Y-52142D01*
X50261Y-52104D01*
X50223Y-52085D01*
X50147Y-52066D01*
X50090Y-52066D01*
X50014Y-52085D01*
X49976Y-52104D01*
X49938Y-52142D01*
X49919Y-52199D01*
X49919Y-52295D01*
X52038Y-53014D02*
X52019Y-52957D01*
X52019Y-52861D01*
X52038Y-52823D01*
X52057Y-52804D01*
X52095Y-52785D01*
X52133Y-52785D01*
X52171Y-52804D01*
X52190Y-52823D01*
X52209Y-52861D01*
X52228Y-52938D01*
X52247Y-52976D01*
X52266Y-52995D01*
X52304Y-53014D01*
X52342Y-53014D01*
X52380Y-52995D01*
X52400Y-52976D01*
X52419Y-52938D01*
X52419Y-52842D01*
X52400Y-52785D01*
X52133Y-52633D02*
X52133Y-52442D01*
X52019Y-52671D02*
X52419Y-52538D01*
X52019Y-52404D01*
X52419Y-52309D02*
X52019Y-52214D01*
X52304Y-52138D01*
X52019Y-52061D01*
X52419Y-51966D01*
X53919Y-53047D02*
X54319Y-53047D01*
X54319Y-52895D01*
X54300Y-52857D01*
X54280Y-52838D01*
X54242Y-52819D01*
X54185Y-52819D01*
X54147Y-52838D01*
X54128Y-52857D01*
X54109Y-52895D01*
X54109Y-53047D01*
X54319Y-52647D02*
X53995Y-52647D01*
X53957Y-52628D01*
X53938Y-52609D01*
X53919Y-52571D01*
X53919Y-52495D01*
X53938Y-52457D01*
X53957Y-52438D01*
X53995Y-52419D01*
X54319Y-52419D01*
X53919Y-52038D02*
X53919Y-52228D01*
X54319Y-52228D01*
X53938Y-51923D02*
X53919Y-51866D01*
X53919Y-51771D01*
X53938Y-51733D01*
X53957Y-51714D01*
X53995Y-51695D01*
X54033Y-51695D01*
X54071Y-51714D01*
X54090Y-51733D01*
X54109Y-51771D01*
X54128Y-51847D01*
X54147Y-51885D01*
X54166Y-51904D01*
X54204Y-51923D01*
X54242Y-51923D01*
X54280Y-51904D01*
X54300Y-51885D01*
X54319Y-51847D01*
X54319Y-51752D01*
X54300Y-51695D01*
X54128Y-51523D02*
X54128Y-51390D01*
X53919Y-51333D02*
X53919Y-51523D01*
X54319Y-51523D01*
X54319Y-51333D01*
X57300Y-52904D02*
X57319Y-52942D01*
X57319Y-53000D01*
X57300Y-53057D01*
X57261Y-53095D01*
X57223Y-53114D01*
X57147Y-53133D01*
X57090Y-53133D01*
X57014Y-53114D01*
X56976Y-53095D01*
X56938Y-53057D01*
X56919Y-53000D01*
X56919Y-52961D01*
X56938Y-52904D01*
X56957Y-52885D01*
X57090Y-52885D01*
X57090Y-52961D01*
X56919Y-52714D02*
X57319Y-52714D01*
X56919Y-52485D01*
X57319Y-52485D01*
X56919Y-52295D02*
X57319Y-52295D01*
X57319Y-52199D01*
X57300Y-52142D01*
X57261Y-52104D01*
X57223Y-52085D01*
X57147Y-52066D01*
X57090Y-52066D01*
X57014Y-52085D01*
X56976Y-52104D01*
X56938Y-52142D01*
X56919Y-52199D01*
X56919Y-52295D01*
X56319Y-53109D02*
X56319Y-52880D01*
X55919Y-52995D02*
X56319Y-52995D01*
X55919Y-52519D02*
X56109Y-52652D01*
X55919Y-52747D02*
X56319Y-52747D01*
X56319Y-52595D01*
X56300Y-52557D01*
X56280Y-52538D01*
X56242Y-52519D01*
X56185Y-52519D01*
X56147Y-52538D01*
X56128Y-52557D01*
X56109Y-52595D01*
X56109Y-52747D01*
X55919Y-52347D02*
X56319Y-52347D01*
X59123Y-52928D02*
X58819Y-52928D01*
X58971Y-53080D02*
X58971Y-52776D01*
X58685Y-52680D02*
X58552Y-53080D01*
X58419Y-52680D01*
X58057Y-53042D02*
X58076Y-53061D01*
X58133Y-53080D01*
X58171Y-53080D01*
X58228Y-53061D01*
X58266Y-53023D01*
X58285Y-52985D01*
X58304Y-52909D01*
X58304Y-52852D01*
X58285Y-52776D01*
X58266Y-52738D01*
X58228Y-52700D01*
X58171Y-52680D01*
X58133Y-52680D01*
X58076Y-52700D01*
X58057Y-52719D01*
X57657Y-53042D02*
X57676Y-53061D01*
X57733Y-53080D01*
X57771Y-53080D01*
X57828Y-53061D01*
X57866Y-53023D01*
X57885Y-52985D01*
X57904Y-52909D01*
X57904Y-52852D01*
X57885Y-52776D01*
X57866Y-52738D01*
X57828Y-52700D01*
X57771Y-52680D01*
X57733Y-52680D01*
X57676Y-52700D01*
X57657Y-52719D01*
G54D13*
X43762Y-46629D02*
X43717Y-46644D01*
X43640Y-46644D01*
X43610Y-46629D01*
X43595Y-46614D01*
X43580Y-46583D01*
X43580Y-46553D01*
X43595Y-46522D01*
X43610Y-46507D01*
X43640Y-46492D01*
X43701Y-46477D01*
X43732Y-46461D01*
X43747Y-46446D01*
X43762Y-46416D01*
X43762Y-46385D01*
X43747Y-46355D01*
X43732Y-46340D01*
X43701Y-46324D01*
X43625Y-46324D01*
X43580Y-46340D01*
X43260Y-46614D02*
X43275Y-46629D01*
X43320Y-46644D01*
X43351Y-46644D01*
X43397Y-46629D01*
X43427Y-46599D01*
X43442Y-46568D01*
X43458Y-46507D01*
X43458Y-46461D01*
X43442Y-46400D01*
X43427Y-46370D01*
X43397Y-46340D01*
X43351Y-46324D01*
X43320Y-46324D01*
X43275Y-46340D01*
X43260Y-46355D01*
X43138Y-46553D02*
X42985Y-46553D01*
X43168Y-46644D02*
X43061Y-46324D01*
X42955Y-46644D01*
X42696Y-46644D02*
X42848Y-46644D01*
X42848Y-46324D01*
X42589Y-46477D02*
X42482Y-46477D01*
X42437Y-46644D02*
X42589Y-46644D01*
X42589Y-46324D01*
X42437Y-46324D01*
X54224Y-46388D02*
X54224Y-46571D01*
X54544Y-46480D02*
X54224Y-46480D01*
X54544Y-46860D02*
X54392Y-46754D01*
X54544Y-46678D02*
X54224Y-46678D01*
X54224Y-46800D01*
X54240Y-46830D01*
X54255Y-46845D01*
X54285Y-46860D01*
X54331Y-46860D01*
X54361Y-46845D01*
X54377Y-46830D01*
X54392Y-46800D01*
X54392Y-46678D01*
X54544Y-46998D02*
X54224Y-46998D01*
X54529Y-47379D02*
X54544Y-47424D01*
X54544Y-47500D01*
X54529Y-47531D01*
X54514Y-47546D01*
X54483Y-47561D01*
X54453Y-47561D01*
X54422Y-47546D01*
X54407Y-47531D01*
X54392Y-47500D01*
X54377Y-47440D01*
X54361Y-47409D01*
X54346Y-47394D01*
X54316Y-47379D01*
X54285Y-47379D01*
X54255Y-47394D01*
X54240Y-47409D01*
X54224Y-47440D01*
X54224Y-47516D01*
X54240Y-47561D01*
X54544Y-47699D02*
X54224Y-47699D01*
X54377Y-47699D02*
X54377Y-47881D01*
X54544Y-47881D02*
X54224Y-47881D01*
X54453Y-48019D02*
X54453Y-48171D01*
X54544Y-47988D02*
X54224Y-48095D01*
X54544Y-48201D01*
X54544Y-48308D02*
X54224Y-48308D01*
X54224Y-48430D01*
X54240Y-48460D01*
X54255Y-48476D01*
X54285Y-48491D01*
X54331Y-48491D01*
X54361Y-48476D01*
X54377Y-48460D01*
X54392Y-48430D01*
X54392Y-48308D01*
X54377Y-48628D02*
X54377Y-48735D01*
X54544Y-48780D02*
X54544Y-48628D01*
X54224Y-48628D01*
X54224Y-48780D01*
G54D14*
X53927Y-46594D02*
X53927Y-46713D01*
X53927Y-46713D02*
X53257Y-46713D01*
X53257Y-46713D02*
X53257Y-46594D01*
X54045Y-46594D02*
X52155Y-46594D01*
X52155Y-46594D02*
X52155Y-48406D01*
X52155Y-48406D02*
X54045Y-48406D01*
X54045Y-48406D02*
X54045Y-46594D01*
X45727Y-46594D02*
X45727Y-46713D01*
X45727Y-46713D02*
X45057Y-46713D01*
X45057Y-46713D02*
X45057Y-46594D01*
X45845Y-46594D02*
X43955Y-46594D01*
X43955Y-46594D02*
X43955Y-48406D01*
X43955Y-48406D02*
X45845Y-48406D01*
X45845Y-48406D02*
X45845Y-46594D01*
G54D12*
X46657Y-50712D02*
X46657Y-52443D01*
X46657Y-52443D02*
X47267Y-52443D01*
X47267Y-52443D02*
X48133Y-52443D01*
X48133Y-52443D02*
X48743Y-52443D01*
X48743Y-52443D02*
X48743Y-50712D01*
X48388Y-50357D02*
X48133Y-50357D01*
X48133Y-50357D02*
X47267Y-50357D01*
X47267Y-50357D02*
X47012Y-50357D01*
X47012Y-50357D02*
X46657Y-50712D01*
X48743Y-50712D02*
X48388Y-50357D01*
X47324Y-52265D02*
G75*
G02X47326Y-50534I375J865D01*
G74*
G01*
X48073Y-52266D02*
G75*
G02X47326Y-52266I-373J866D01*
G74*
G01*
X48075Y-50534D02*
G75*
G02X48074Y-52266I-375J-865D01*
G74*
G01*
X47326Y-50533D02*
G75*
G02X48074Y-50534I373J-866D01*
G74*
G01*
X44643Y-52088D02*
X44643Y-50357D01*
X44643Y-50357D02*
X44033Y-50357D01*
X44033Y-50357D02*
X43167Y-50357D01*
X43167Y-50357D02*
X42557Y-50357D01*
X42557Y-50357D02*
X42557Y-52088D01*
X42912Y-52443D02*
X43167Y-52443D01*
X43167Y-52443D02*
X44033Y-52443D01*
X44033Y-52443D02*
X44288Y-52443D01*
X44288Y-52443D02*
X44643Y-52088D01*
X42557Y-52088D02*
X42912Y-52443D01*
X43975Y-50534D02*
G75*
G02X43974Y-52266I-375J-865D01*
G74*
G01*
X43226Y-50533D02*
G75*
G02X43974Y-50534I373J-866D01*
G74*
G01*
X43224Y-52265D02*
G75*
G02X43226Y-50534I375J865D01*
G74*
G01*
X43973Y-52266D02*
G75*
G02X43226Y-52266I-373J866D01*
G74*
G01*
G54D15*
X41200Y-54500D02*
X41400Y-54500D01*
X41400Y-54500D02*
X41400Y-54300D01*
X41200Y-53300D02*
X41400Y-53300D01*
X41400Y-53300D02*
X41400Y-53500D01*
X40200Y-53500D02*
X40200Y-53300D01*
X40200Y-53300D02*
X40400Y-53300D01*
X40400Y-54500D02*
X40200Y-54500D01*
X40200Y-54500D02*
X40200Y-54300D01*
X58800Y-54500D02*
X59000Y-54500D01*
X59000Y-54500D02*
X59000Y-54300D01*
X58800Y-53300D02*
X59000Y-53300D01*
X59000Y-53300D02*
X59000Y-53500D01*
X57800Y-53500D02*
X57800Y-53300D01*
X57800Y-53300D02*
X58000Y-53300D01*
X58000Y-54500D02*
X57800Y-54500D01*
X57800Y-54500D02*
X57800Y-54300D01*
X51845Y-50251D02*
X51845Y-49148D01*
X51845Y-49148D02*
X52554Y-49148D01*
X52554Y-49148D02*
X52554Y-50251D01*
X52554Y-50251D02*
X51845Y-50251D01*
X51654Y-49148D02*
X51654Y-50251D01*
X51654Y-50251D02*
X50945Y-50251D01*
X50945Y-50251D02*
X50945Y-49148D01*
X50945Y-49148D02*
X51654Y-49148D01*
X45854Y-49148D02*
X45854Y-50251D01*
X45854Y-50251D02*
X45145Y-50251D01*
X45145Y-50251D02*
X45145Y-49148D01*
X45145Y-49148D02*
X45854Y-49148D01*
X40745Y-50351D02*
X40745Y-49248D01*
X40745Y-49248D02*
X41454Y-49248D01*
X41454Y-49248D02*
X41454Y-50351D01*
X41454Y-50351D02*
X40745Y-50351D01*
X56954Y-46948D02*
X56954Y-48051D01*
X56954Y-48051D02*
X56245Y-48051D01*
X56245Y-48051D02*
X56245Y-46948D01*
X56245Y-46948D02*
X56954Y-46948D01*
X46045Y-48051D02*
X46045Y-46948D01*
X46045Y-46948D02*
X46754Y-46948D01*
X46754Y-46948D02*
X46754Y-48051D01*
X46754Y-48051D02*
X46045Y-48051D01*
X55954Y-46948D02*
X55954Y-48051D01*
X55954Y-48051D02*
X55245Y-48051D01*
X55245Y-48051D02*
X55245Y-46948D01*
X55245Y-46948D02*
X55954Y-46948D01*
X45745Y-52651D02*
X45745Y-51548D01*
X45745Y-51548D02*
X46454Y-51548D01*
X46454Y-51548D02*
X46454Y-52651D01*
X46454Y-52651D02*
X45745Y-52651D01*
X44845Y-52651D02*
X44845Y-51548D01*
X44845Y-51548D02*
X45554Y-51548D01*
X45554Y-51548D02*
X45554Y-52651D01*
X45554Y-52651D02*
X44845Y-52651D01*
X42045Y-48051D02*
X42045Y-46948D01*
X42045Y-46948D02*
X42754Y-46948D01*
X42754Y-46948D02*
X42754Y-48051D01*
X42754Y-48051D02*
X42045Y-48051D01*
X49945Y-50251D02*
X49945Y-49148D01*
X49945Y-49148D02*
X50654Y-49148D01*
X50654Y-49148D02*
X50654Y-50251D01*
X50654Y-50251D02*
X49945Y-50251D01*
X41454Y-50648D02*
X41454Y-51751D01*
X41454Y-51751D02*
X40745Y-51751D01*
X40745Y-51751D02*
X40745Y-50648D01*
X40745Y-50648D02*
X41454Y-50648D01*
X55154Y-49148D02*
X55154Y-50251D01*
X55154Y-50251D02*
X54445Y-50251D01*
X54445Y-50251D02*
X54445Y-49148D01*
X54445Y-49148D02*
X55154Y-49148D01*
X42554Y-49248D02*
X42554Y-50351D01*
X42554Y-50351D02*
X41845Y-50351D01*
X41845Y-50351D02*
X41845Y-49248D01*
X41845Y-49248D02*
X42554Y-49248D01*
X43754Y-46948D02*
X43754Y-48051D01*
X43754Y-48051D02*
X43045Y-48051D01*
X43045Y-48051D02*
X43045Y-46948D01*
X43045Y-46948D02*
X43754Y-46948D01*
G54D13*
X52203Y-48624D02*
X52020Y-48624D01*
X52112Y-48944D02*
X52112Y-48624D01*
X51914Y-48944D02*
X51914Y-48624D01*
X51792Y-48624D01*
X51761Y-48640D01*
X51746Y-48655D01*
X51731Y-48685D01*
X51731Y-48731D01*
X51746Y-48761D01*
X51761Y-48777D01*
X51792Y-48792D01*
X51914Y-48792D01*
X51426Y-48944D02*
X51609Y-48944D01*
X51518Y-48944D02*
X51518Y-48624D01*
X51548Y-48670D01*
X51579Y-48700D01*
X51609Y-48716D01*
X44003Y-48624D02*
X43820Y-48624D01*
X43912Y-48944D02*
X43912Y-48624D01*
X43714Y-48944D02*
X43714Y-48624D01*
X43592Y-48624D01*
X43561Y-48640D01*
X43546Y-48655D01*
X43531Y-48685D01*
X43531Y-48731D01*
X43546Y-48761D01*
X43561Y-48777D01*
X43592Y-48792D01*
X43714Y-48792D01*
X43409Y-48655D02*
X43394Y-48640D01*
X43363Y-48624D01*
X43287Y-48624D01*
X43257Y-48640D01*
X43241Y-48655D01*
X43226Y-48685D01*
X43226Y-48716D01*
X43241Y-48761D01*
X43424Y-48944D01*
X43226Y-48944D01*
X48653Y-50214D02*
X48668Y-50229D01*
X48714Y-50244D01*
X48744Y-50244D01*
X48790Y-50229D01*
X48820Y-50199D01*
X48836Y-50168D01*
X48851Y-50107D01*
X48851Y-50061D01*
X48836Y-50000D01*
X48820Y-49970D01*
X48790Y-49940D01*
X48744Y-49924D01*
X48714Y-49924D01*
X48668Y-49940D01*
X48653Y-49955D01*
X48531Y-49955D02*
X48516Y-49940D01*
X48485Y-49924D01*
X48409Y-49924D01*
X48379Y-49940D01*
X48363Y-49955D01*
X48348Y-49985D01*
X48348Y-50016D01*
X48363Y-50061D01*
X48546Y-50244D01*
X48348Y-50244D01*
X44453Y-50214D02*
X44468Y-50229D01*
X44514Y-50244D01*
X44544Y-50244D01*
X44590Y-50229D01*
X44620Y-50199D01*
X44636Y-50168D01*
X44651Y-50107D01*
X44651Y-50061D01*
X44636Y-50000D01*
X44620Y-49970D01*
X44590Y-49940D01*
X44544Y-49924D01*
X44514Y-49924D01*
X44468Y-49940D01*
X44453Y-49955D01*
X44148Y-50244D02*
X44331Y-50244D01*
X44239Y-50244D02*
X44239Y-49924D01*
X44270Y-49970D01*
X44300Y-50000D01*
X44331Y-50016D01*
X52354Y-50608D02*
X52434Y-50494D01*
X52491Y-50608D02*
X52491Y-50368D01*
X52400Y-50368D01*
X52377Y-50380D01*
X52365Y-50391D01*
X52354Y-50414D01*
X52354Y-50448D01*
X52365Y-50471D01*
X52377Y-50482D01*
X52400Y-50494D01*
X52491Y-50494D01*
X52125Y-50608D02*
X52262Y-50608D01*
X52194Y-50608D02*
X52194Y-50368D01*
X52217Y-50402D01*
X52240Y-50425D01*
X52262Y-50437D01*
X52011Y-50608D02*
X51965Y-50608D01*
X51942Y-50597D01*
X51931Y-50585D01*
X51908Y-50551D01*
X51897Y-50505D01*
X51897Y-50414D01*
X51908Y-50391D01*
X51920Y-50380D01*
X51942Y-50368D01*
X51988Y-50368D01*
X52011Y-50380D01*
X52022Y-50391D01*
X52034Y-50414D01*
X52034Y-50471D01*
X52022Y-50494D01*
X52011Y-50505D01*
X51988Y-50517D01*
X51942Y-50517D01*
X51920Y-50505D01*
X51908Y-50494D01*
X51897Y-50471D01*
X51454Y-50608D02*
X51534Y-50494D01*
X51591Y-50608D02*
X51591Y-50368D01*
X51500Y-50368D01*
X51477Y-50380D01*
X51465Y-50391D01*
X51454Y-50414D01*
X51454Y-50448D01*
X51465Y-50471D01*
X51477Y-50482D01*
X51500Y-50494D01*
X51591Y-50494D01*
X51225Y-50608D02*
X51362Y-50608D01*
X51294Y-50608D02*
X51294Y-50368D01*
X51317Y-50402D01*
X51340Y-50425D01*
X51362Y-50437D01*
X51088Y-50471D02*
X51111Y-50460D01*
X51122Y-50448D01*
X51134Y-50425D01*
X51134Y-50414D01*
X51122Y-50391D01*
X51111Y-50380D01*
X51088Y-50368D01*
X51042Y-50368D01*
X51020Y-50380D01*
X51008Y-50391D01*
X50997Y-50414D01*
X50997Y-50425D01*
X51008Y-50448D01*
X51020Y-50460D01*
X51042Y-50471D01*
X51088Y-50471D01*
X51111Y-50482D01*
X51122Y-50494D01*
X51134Y-50517D01*
X51134Y-50562D01*
X51122Y-50585D01*
X51111Y-50597D01*
X51088Y-50608D01*
X51042Y-50608D01*
X51020Y-50597D01*
X51008Y-50585D01*
X50997Y-50562D01*
X50997Y-50517D01*
X51008Y-50494D01*
X51020Y-50482D01*
X51042Y-50471D01*
X45654Y-50608D02*
X45734Y-50494D01*
X45791Y-50608D02*
X45791Y-50368D01*
X45700Y-50368D01*
X45677Y-50380D01*
X45665Y-50391D01*
X45654Y-50414D01*
X45654Y-50448D01*
X45665Y-50471D01*
X45677Y-50482D01*
X45700Y-50494D01*
X45791Y-50494D01*
X45425Y-50608D02*
X45562Y-50608D01*
X45494Y-50608D02*
X45494Y-50368D01*
X45517Y-50402D01*
X45540Y-50425D01*
X45562Y-50437D01*
X45220Y-50368D02*
X45265Y-50368D01*
X45288Y-50380D01*
X45300Y-50391D01*
X45322Y-50425D01*
X45334Y-50471D01*
X45334Y-50562D01*
X45322Y-50585D01*
X45311Y-50597D01*
X45288Y-50608D01*
X45242Y-50608D01*
X45220Y-50597D01*
X45208Y-50585D01*
X45197Y-50562D01*
X45197Y-50505D01*
X45208Y-50482D01*
X45220Y-50471D01*
X45242Y-50460D01*
X45288Y-50460D01*
X45311Y-50471D01*
X45322Y-50482D01*
X45334Y-50505D01*
X41254Y-49108D02*
X41334Y-48994D01*
X41391Y-49108D02*
X41391Y-48868D01*
X41300Y-48868D01*
X41277Y-48880D01*
X41265Y-48891D01*
X41254Y-48914D01*
X41254Y-48948D01*
X41265Y-48971D01*
X41277Y-48982D01*
X41300Y-48994D01*
X41391Y-48994D01*
X41025Y-49108D02*
X41162Y-49108D01*
X41094Y-49108D02*
X41094Y-48868D01*
X41117Y-48902D01*
X41140Y-48925D01*
X41162Y-48937D01*
X40820Y-48948D02*
X40820Y-49108D01*
X40877Y-48857D02*
X40934Y-49028D01*
X40785Y-49028D01*
X56639Y-46808D02*
X56719Y-46694D01*
X56777Y-46808D02*
X56777Y-46568D01*
X56685Y-46568D01*
X56662Y-46580D01*
X56651Y-46591D01*
X56639Y-46614D01*
X56639Y-46648D01*
X56651Y-46671D01*
X56662Y-46682D01*
X56685Y-46694D01*
X56777Y-46694D01*
X56502Y-46671D02*
X56525Y-46660D01*
X56537Y-46648D01*
X56548Y-46625D01*
X56548Y-46614D01*
X56537Y-46591D01*
X56525Y-46580D01*
X56502Y-46568D01*
X56457Y-46568D01*
X56434Y-46580D01*
X56422Y-46591D01*
X56411Y-46614D01*
X56411Y-46625D01*
X56422Y-46648D01*
X56434Y-46660D01*
X56457Y-46671D01*
X56502Y-46671D01*
X56525Y-46682D01*
X56537Y-46694D01*
X56548Y-46717D01*
X56548Y-46762D01*
X56537Y-46785D01*
X56525Y-46797D01*
X56502Y-46808D01*
X56457Y-46808D01*
X56434Y-46797D01*
X56422Y-46785D01*
X56411Y-46762D01*
X56411Y-46717D01*
X56422Y-46694D01*
X56434Y-46682D01*
X56457Y-46671D01*
X46439Y-46808D02*
X46519Y-46694D01*
X46577Y-46808D02*
X46577Y-46568D01*
X46485Y-46568D01*
X46462Y-46580D01*
X46451Y-46591D01*
X46439Y-46614D01*
X46439Y-46648D01*
X46451Y-46671D01*
X46462Y-46682D01*
X46485Y-46694D01*
X46577Y-46694D01*
X46359Y-46568D02*
X46199Y-46568D01*
X46302Y-46808D01*
X55639Y-46808D02*
X55719Y-46694D01*
X55777Y-46808D02*
X55777Y-46568D01*
X55685Y-46568D01*
X55662Y-46580D01*
X55651Y-46591D01*
X55639Y-46614D01*
X55639Y-46648D01*
X55651Y-46671D01*
X55662Y-46682D01*
X55685Y-46694D01*
X55777Y-46694D01*
X55434Y-46568D02*
X55479Y-46568D01*
X55502Y-46580D01*
X55514Y-46591D01*
X55537Y-46625D01*
X55548Y-46671D01*
X55548Y-46762D01*
X55537Y-46785D01*
X55525Y-46797D01*
X55502Y-46808D01*
X55457Y-46808D01*
X55434Y-46797D01*
X55422Y-46785D01*
X55411Y-46762D01*
X55411Y-46705D01*
X55422Y-46682D01*
X55434Y-46671D01*
X55457Y-46660D01*
X55502Y-46660D01*
X55525Y-46671D01*
X55537Y-46682D01*
X55548Y-46705D01*
X46139Y-51408D02*
X46219Y-51294D01*
X46277Y-51408D02*
X46277Y-51168D01*
X46185Y-51168D01*
X46162Y-51180D01*
X46151Y-51191D01*
X46139Y-51214D01*
X46139Y-51248D01*
X46151Y-51271D01*
X46162Y-51282D01*
X46185Y-51294D01*
X46277Y-51294D01*
X45934Y-51248D02*
X45934Y-51408D01*
X45991Y-51157D02*
X46048Y-51328D01*
X45899Y-51328D01*
X45239Y-51408D02*
X45319Y-51294D01*
X45377Y-51408D02*
X45377Y-51168D01*
X45285Y-51168D01*
X45262Y-51180D01*
X45251Y-51191D01*
X45239Y-51214D01*
X45239Y-51248D01*
X45251Y-51271D01*
X45262Y-51282D01*
X45285Y-51294D01*
X45377Y-51294D01*
X45159Y-51168D02*
X45011Y-51168D01*
X45091Y-51260D01*
X45057Y-51260D01*
X45034Y-51271D01*
X45022Y-51282D01*
X45011Y-51305D01*
X45011Y-51362D01*
X45022Y-51385D01*
X45034Y-51397D01*
X45057Y-51408D01*
X45125Y-51408D01*
X45148Y-51397D01*
X45159Y-51385D01*
X42439Y-48408D02*
X42519Y-48294D01*
X42577Y-48408D02*
X42577Y-48168D01*
X42485Y-48168D01*
X42462Y-48180D01*
X42451Y-48191D01*
X42439Y-48214D01*
X42439Y-48248D01*
X42451Y-48271D01*
X42462Y-48282D01*
X42485Y-48294D01*
X42577Y-48294D01*
X42348Y-48191D02*
X42337Y-48180D01*
X42314Y-48168D01*
X42257Y-48168D01*
X42234Y-48180D01*
X42222Y-48191D01*
X42211Y-48214D01*
X42211Y-48237D01*
X42222Y-48271D01*
X42359Y-48408D01*
X42211Y-48408D01*
X50339Y-50585D02*
X50351Y-50597D01*
X50385Y-50608D01*
X50408Y-50608D01*
X50442Y-50597D01*
X50465Y-50574D01*
X50477Y-50551D01*
X50488Y-50505D01*
X50488Y-50471D01*
X50477Y-50425D01*
X50465Y-50402D01*
X50442Y-50380D01*
X50408Y-50368D01*
X50385Y-50368D01*
X50351Y-50380D01*
X50339Y-50391D01*
X50202Y-50471D02*
X50225Y-50460D01*
X50237Y-50448D01*
X50248Y-50425D01*
X50248Y-50414D01*
X50237Y-50391D01*
X50225Y-50380D01*
X50202Y-50368D01*
X50157Y-50368D01*
X50134Y-50380D01*
X50122Y-50391D01*
X50111Y-50414D01*
X50111Y-50425D01*
X50122Y-50448D01*
X50134Y-50460D01*
X50157Y-50471D01*
X50202Y-50471D01*
X50225Y-50482D01*
X50237Y-50494D01*
X50248Y-50517D01*
X50248Y-50562D01*
X50237Y-50585D01*
X50225Y-50597D01*
X50202Y-50608D01*
X50157Y-50608D01*
X50134Y-50597D01*
X50122Y-50585D01*
X50111Y-50562D01*
X50111Y-50517D01*
X50122Y-50494D01*
X50134Y-50482D01*
X50157Y-50471D01*
X41139Y-52085D02*
X41151Y-52097D01*
X41185Y-52108D01*
X41208Y-52108D01*
X41242Y-52097D01*
X41265Y-52074D01*
X41277Y-52051D01*
X41288Y-52005D01*
X41288Y-51971D01*
X41277Y-51925D01*
X41265Y-51902D01*
X41242Y-51880D01*
X41208Y-51868D01*
X41185Y-51868D01*
X41151Y-51880D01*
X41139Y-51891D01*
X40934Y-51868D02*
X40979Y-51868D01*
X41002Y-51880D01*
X41014Y-51891D01*
X41037Y-51925D01*
X41048Y-51971D01*
X41048Y-52062D01*
X41037Y-52085D01*
X41025Y-52097D01*
X41002Y-52108D01*
X40957Y-52108D01*
X40934Y-52097D01*
X40922Y-52085D01*
X40911Y-52062D01*
X40911Y-52005D01*
X40922Y-51982D01*
X40934Y-51971D01*
X40957Y-51960D01*
X41002Y-51960D01*
X41025Y-51971D01*
X41037Y-51982D01*
X41048Y-52005D01*
X54839Y-50585D02*
X54851Y-50597D01*
X54885Y-50608D01*
X54908Y-50608D01*
X54942Y-50597D01*
X54965Y-50574D01*
X54977Y-50551D01*
X54988Y-50505D01*
X54988Y-50471D01*
X54977Y-50425D01*
X54965Y-50402D01*
X54942Y-50380D01*
X54908Y-50368D01*
X54885Y-50368D01*
X54851Y-50380D01*
X54839Y-50391D01*
X54622Y-50368D02*
X54737Y-50368D01*
X54748Y-50482D01*
X54737Y-50471D01*
X54714Y-50460D01*
X54657Y-50460D01*
X54634Y-50471D01*
X54622Y-50482D01*
X54611Y-50505D01*
X54611Y-50562D01*
X54622Y-50585D01*
X54634Y-50597D01*
X54657Y-50608D01*
X54714Y-50608D01*
X54737Y-50597D01*
X54748Y-50585D01*
X42239Y-49085D02*
X42251Y-49097D01*
X42285Y-49108D01*
X42308Y-49108D01*
X42342Y-49097D01*
X42365Y-49074D01*
X42377Y-49051D01*
X42388Y-49005D01*
X42388Y-48971D01*
X42377Y-48925D01*
X42365Y-48902D01*
X42342Y-48880D01*
X42308Y-48868D01*
X42285Y-48868D01*
X42251Y-48880D01*
X42239Y-48891D01*
X42034Y-48948D02*
X42034Y-49108D01*
X42091Y-48857D02*
X42148Y-49028D01*
X41999Y-49028D01*
X43439Y-48385D02*
X43451Y-48397D01*
X43485Y-48408D01*
X43508Y-48408D01*
X43542Y-48397D01*
X43565Y-48374D01*
X43577Y-48351D01*
X43588Y-48305D01*
X43588Y-48271D01*
X43577Y-48225D01*
X43565Y-48202D01*
X43542Y-48180D01*
X43508Y-48168D01*
X43485Y-48168D01*
X43451Y-48180D01*
X43439Y-48191D01*
X43359Y-48168D02*
X43211Y-48168D01*
X43291Y-48260D01*
X43257Y-48260D01*
X43234Y-48271D01*
X43222Y-48282D01*
X43211Y-48305D01*
X43211Y-48362D01*
X43222Y-48385D01*
X43234Y-48397D01*
X43257Y-48408D01*
X43325Y-48408D01*
X43348Y-48397D01*
X43359Y-48385D01*
%LPC*%
G54D16*
X53100Y-46713D03*
G54D17*
X53553Y-48287D03*
X52647Y-48287D03*
G54D16*
X44900Y-46713D03*
G54D17*
X45353Y-48287D03*
X44447Y-48287D03*
G54D18*
X47700Y-50534D03*
X47700Y-52266D03*
X43600Y-52266D03*
X43600Y-50534D03*
G54D16*
X40800Y-53900D03*
X58400Y-53900D03*
X42100Y-53900D03*
G54D19*
X43100Y-53900D03*
X44100Y-53900D03*
X45100Y-53900D03*
X46100Y-53900D03*
X47100Y-53900D03*
X48100Y-53900D03*
X49100Y-53900D03*
X50100Y-53900D03*
X51100Y-53900D03*
X52100Y-53900D03*
X53100Y-53900D03*
X54100Y-53900D03*
X55100Y-53900D03*
X56100Y-53900D03*
X57100Y-53900D03*
G54D20*
X52200Y-50035D03*
X52200Y-49365D03*
X51300Y-49365D03*
X51300Y-50035D03*
X45500Y-49365D03*
X45500Y-50035D03*
X41100Y-50135D03*
X41100Y-49465D03*
X56600Y-47165D03*
X56600Y-47835D03*
X46400Y-47835D03*
X46400Y-47165D03*
X55600Y-47165D03*
X55600Y-47835D03*
X46100Y-52435D03*
X46100Y-51765D03*
X45200Y-52435D03*
X45200Y-51765D03*
X42400Y-47835D03*
X42400Y-47165D03*
X50300Y-50035D03*
X50300Y-49365D03*
X41100Y-50865D03*
X41100Y-51535D03*
X54800Y-49365D03*
X54800Y-50035D03*
X42200Y-49465D03*
X42200Y-50135D03*
X43400Y-47165D03*
X43400Y-47835D03*
M02*
