M48
INCH,TZ
T1C0.015
T2C0.024
T3C0.040
%
G90
G05
T1
X041827Y-048161
X042100Y-052850
X042900Y-047454
X044020Y-049268
X044200Y-051500
X044650Y-049050
X047133Y-051567
X049500Y-052900
X050219Y-048926
X051833Y-053197
X051917Y-046835
X054084Y-052623
X054630Y-051402
X054799Y-048063
X055061Y-047677
X056000Y-051350
T2
X041650Y-050150
X042822Y-049362
X043966Y-047447
X046231Y-049545
X046950Y-052500
X048400Y-050800
X052600Y-053319
X052734Y-050731
X054230Y-049570
X055559Y-049922
T3
X040800Y-053900
X042100Y-053900
X043100Y-053900
X044100Y-053900
X045100Y-053900
X046100Y-053900
X047100Y-053900
X048100Y-053900
X049100Y-053900
X050100Y-053900
X051100Y-053900
X052100Y-053900
X053100Y-053900
X054100Y-053900
X055100Y-053900
X056100Y-053900
X057100Y-053900
X058400Y-053900
T0
M30
