%FSLAX34Y34*%
G04 Gerber Fmt 3.4, Leading zero omitted, Abs format*
G04 (created by PCBNEW (2013-12-24 BZR 4575)-product) date 2014-01-25 4:15:43 PM*
%MOIN*%
G01*
G70*
G90*
G04 APERTURE LIST*
%ADD10C,0.005906*%
%ADD11R,0.078700X0.078700*%
%ADD12R,0.051200X0.078700*%
%ADD13R,0.062900X0.118100*%
%ADD14C,0.078700*%
%ADD15R,0.045000X0.032000*%
%ADD16C,0.040000*%
%ADD17C,0.035000*%
%ADD18C,0.014000*%
%ADD19C,0.012000*%
%ADD20C,0.010000*%
G04 APERTURE END LIST*
G54D10*
G54D11*
X53100Y-46713D03*
G54D12*
X53553Y-48287D03*
X52647Y-48287D03*
G54D11*
X44900Y-46713D03*
G54D12*
X45353Y-48287D03*
X44447Y-48287D03*
G54D13*
X47700Y-50534D03*
X47700Y-52266D03*
X43600Y-52266D03*
X43600Y-50534D03*
G54D11*
X40800Y-53900D03*
X58400Y-53900D03*
X42100Y-53900D03*
G54D14*
X43100Y-53900D03*
X44100Y-53900D03*
X45100Y-53900D03*
X46100Y-53900D03*
X47100Y-53900D03*
X48100Y-53900D03*
X49100Y-53900D03*
X50100Y-53900D03*
X51100Y-53900D03*
X52100Y-53900D03*
X53100Y-53900D03*
X54100Y-53900D03*
X55100Y-53900D03*
X56100Y-53900D03*
X57100Y-53900D03*
G54D15*
X52200Y-50035D03*
X52200Y-49365D03*
X51300Y-49365D03*
X51300Y-50035D03*
X45500Y-49365D03*
X45500Y-50035D03*
X41100Y-50135D03*
X41100Y-49465D03*
X56600Y-47165D03*
X56600Y-47835D03*
X46400Y-47835D03*
X46400Y-47165D03*
X55600Y-47165D03*
X55600Y-47835D03*
X46100Y-52435D03*
X46100Y-51765D03*
X45200Y-52435D03*
X45200Y-51765D03*
X42400Y-47835D03*
X42400Y-47165D03*
X50300Y-50035D03*
X50300Y-49365D03*
X41100Y-50865D03*
X41100Y-51535D03*
X54800Y-49365D03*
X54800Y-50035D03*
X42200Y-49465D03*
X42200Y-50135D03*
X43400Y-47165D03*
X43400Y-47835D03*
G54D16*
X54229Y-49570D03*
X42821Y-49362D03*
X46230Y-49545D03*
X52734Y-50731D03*
X41650Y-50150D03*
X48400Y-50800D03*
X55559Y-49921D03*
X43965Y-47447D03*
G54D17*
X51917Y-46834D03*
X47132Y-51567D03*
X54629Y-51401D03*
X54799Y-48062D03*
X41826Y-48161D03*
X44200Y-51500D03*
X42100Y-52850D03*
X56000Y-51350D03*
X49500Y-52900D03*
X44650Y-49050D03*
X42900Y-47453D03*
X44020Y-49267D03*
X50219Y-48926D03*
X55061Y-47676D03*
G54D16*
X46950Y-52500D03*
G54D17*
X51832Y-53197D03*
X54083Y-52622D03*
G54D16*
X52600Y-53318D03*
G54D18*
X54095Y-49704D02*
X53719Y-49704D01*
X54229Y-49570D02*
X54095Y-49704D01*
X52734Y-49704D02*
X53719Y-49704D01*
X42821Y-49362D02*
X42821Y-49375D01*
X43151Y-49704D02*
X45500Y-49704D01*
X42821Y-49375D02*
X43151Y-49704D01*
X46230Y-49704D02*
X46230Y-49545D01*
X46230Y-49704D02*
X45500Y-49704D01*
X51300Y-49704D02*
X46230Y-49704D01*
X51300Y-49704D02*
X52734Y-49704D01*
X52734Y-49704D02*
X52734Y-50731D01*
X57836Y-53900D02*
X58400Y-53900D01*
X57836Y-53829D02*
X57836Y-53900D01*
X53978Y-49972D02*
X57836Y-53829D01*
X53719Y-49712D02*
X53978Y-49972D01*
X53719Y-49704D02*
X53719Y-49712D01*
X51300Y-50035D02*
X51300Y-50035D01*
X51300Y-50035D02*
X51300Y-49704D01*
X45500Y-50035D02*
X45500Y-49704D01*
X42200Y-49464D02*
X42200Y-49464D01*
X42731Y-49464D02*
X42200Y-49464D01*
X42821Y-49375D02*
X42731Y-49464D01*
X42200Y-49464D02*
X42200Y-49465D01*
X54800Y-49364D02*
X54799Y-49364D01*
X54435Y-49364D02*
X54229Y-49570D01*
X54799Y-49364D02*
X54435Y-49364D01*
X54799Y-49364D02*
X54800Y-49365D01*
X45200Y-51607D02*
X45200Y-51765D01*
X45200Y-51450D02*
X45200Y-51607D01*
X45500Y-51150D02*
X45200Y-51450D01*
X45500Y-50035D02*
X45500Y-51150D01*
X43600Y-52266D02*
X43600Y-52266D01*
X44054Y-52266D02*
X43600Y-52266D01*
X44475Y-51844D02*
X44054Y-52266D01*
X44755Y-51844D02*
X44475Y-51844D01*
X44835Y-51764D02*
X44755Y-51844D01*
X45200Y-51764D02*
X44835Y-51764D01*
X45200Y-51607D02*
X45200Y-51764D01*
X43600Y-52266D02*
X43600Y-52265D01*
X53553Y-48287D02*
X53553Y-48912D01*
X53553Y-49538D02*
X53719Y-49704D01*
X53553Y-48912D02*
X53553Y-49538D01*
X53552Y-48912D02*
X53552Y-48287D01*
X53553Y-48912D02*
X53552Y-48912D01*
X45200Y-52435D02*
X45199Y-52435D01*
X43753Y-53246D02*
X43100Y-53900D01*
X44079Y-53246D02*
X43753Y-53246D01*
X44890Y-52435D02*
X44079Y-53246D01*
X45199Y-52435D02*
X44890Y-52435D01*
X45199Y-52435D02*
X45200Y-52435D01*
X48400Y-51290D02*
X48400Y-50800D01*
X47700Y-51990D02*
X48400Y-51290D01*
X47700Y-52265D02*
X47700Y-51990D01*
X56600Y-47495D02*
X56600Y-47165D01*
X56311Y-47495D02*
X56600Y-47495D01*
X56195Y-47611D02*
X56311Y-47495D01*
X56195Y-49285D02*
X56195Y-47611D01*
X55559Y-49921D02*
X56195Y-49285D01*
X56600Y-47165D02*
X56600Y-47164D01*
X42200Y-51035D02*
X42200Y-50135D01*
X42200Y-51936D02*
X42200Y-51035D01*
X40800Y-53336D02*
X42200Y-51936D01*
X40800Y-53900D02*
X40800Y-53336D01*
X41932Y-50150D02*
X41650Y-50150D01*
X41948Y-50135D02*
X41932Y-50150D01*
X42200Y-50135D02*
X41948Y-50135D01*
X42200Y-51035D02*
X42200Y-50135D01*
X54800Y-50035D02*
X54800Y-50035D01*
X55195Y-50035D02*
X54800Y-50035D01*
X55308Y-49921D02*
X55195Y-50035D01*
X55559Y-49921D02*
X55308Y-49921D01*
X54800Y-50035D02*
X54800Y-50035D01*
X46100Y-51764D02*
X46100Y-51764D01*
X46744Y-51764D02*
X46100Y-51764D01*
X47245Y-52266D02*
X46744Y-51764D01*
X47700Y-52266D02*
X47245Y-52266D01*
X47700Y-52265D02*
X47700Y-52266D01*
X46100Y-51764D02*
X46100Y-51765D01*
X46035Y-52435D02*
X46099Y-52435D01*
X45133Y-53336D02*
X46035Y-52435D01*
X44663Y-53336D02*
X45133Y-53336D01*
X44100Y-53900D02*
X44663Y-53336D01*
X46099Y-52435D02*
X46100Y-52435D01*
X46099Y-52435D02*
X46100Y-52435D01*
G54D19*
X43965Y-47266D02*
X43965Y-47447D01*
X43400Y-47164D02*
X43400Y-47164D01*
X43785Y-47164D02*
X43400Y-47164D01*
X43886Y-47266D02*
X43785Y-47164D01*
X43965Y-47266D02*
X43886Y-47266D01*
X43400Y-47164D02*
X43400Y-47165D01*
X46400Y-47164D02*
X46399Y-47164D01*
X45913Y-47266D02*
X43965Y-47266D01*
X46014Y-47164D02*
X45913Y-47266D01*
X46399Y-47164D02*
X46014Y-47164D01*
X46399Y-47164D02*
X46400Y-47165D01*
X54065Y-47164D02*
X55599Y-47164D01*
X53613Y-46712D02*
X54065Y-47164D01*
X53100Y-46712D02*
X53613Y-46712D01*
X55599Y-47164D02*
X55600Y-47164D01*
X55599Y-47164D02*
X55600Y-47165D01*
G54D20*
X52647Y-48287D02*
X52647Y-47564D01*
X52647Y-47564D02*
X51917Y-46834D01*
X47137Y-51567D02*
X47141Y-51570D01*
X47132Y-51567D02*
X47137Y-51567D01*
X48766Y-50450D02*
X48770Y-50453D01*
X48231Y-50450D02*
X48766Y-50450D01*
X48148Y-50533D02*
X48231Y-50450D01*
X47700Y-50533D02*
X48148Y-50533D01*
X45100Y-53900D02*
X46100Y-52900D01*
X42100Y-53900D02*
X42100Y-52850D01*
X43600Y-50533D02*
X43600Y-50534D01*
X43875Y-51500D02*
X44200Y-51500D01*
X43600Y-51224D02*
X43875Y-51500D01*
X43600Y-50534D02*
X43600Y-51224D01*
G54D19*
X47525Y-54474D02*
X48100Y-53900D01*
X40331Y-54474D02*
X47525Y-54474D01*
X40246Y-54388D02*
X40331Y-54474D01*
X40246Y-52708D02*
X40246Y-54388D01*
X41100Y-51855D02*
X40246Y-52708D01*
X41100Y-51535D02*
X41100Y-51855D01*
X41100Y-51535D02*
X41100Y-51535D01*
G54D20*
X42900Y-47475D02*
X42900Y-47453D01*
X42400Y-47475D02*
X42400Y-47165D01*
X42900Y-47475D02*
X42400Y-47475D01*
X44356Y-46712D02*
X44900Y-46712D01*
X44214Y-46854D02*
X44356Y-46712D01*
X42400Y-46854D02*
X44214Y-46854D01*
X42400Y-47165D02*
X42400Y-46854D01*
X42900Y-47710D02*
X42900Y-47475D01*
X43024Y-47835D02*
X42900Y-47710D01*
X43399Y-47835D02*
X43024Y-47835D01*
X43399Y-47835D02*
X43400Y-47835D01*
X43775Y-47835D02*
X43399Y-47835D01*
X43775Y-48021D02*
X43775Y-47835D01*
X44040Y-48287D02*
X43775Y-48021D01*
X44446Y-48287D02*
X44040Y-48287D01*
X44446Y-48287D02*
X44447Y-48287D01*
X41100Y-50864D02*
X41100Y-50865D01*
X41100Y-50864D02*
X41100Y-50135D01*
X41100Y-50135D02*
X41100Y-50135D01*
X41100Y-49154D02*
X41100Y-49464D01*
X41242Y-49012D02*
X41100Y-49154D01*
X43764Y-49012D02*
X41242Y-49012D01*
X44020Y-49267D02*
X43764Y-49012D01*
X45422Y-49442D02*
X45461Y-49403D01*
X44194Y-49442D02*
X45422Y-49442D01*
X44020Y-49267D02*
X44194Y-49442D01*
X45461Y-49403D02*
X45500Y-49364D01*
X45461Y-49403D02*
X45500Y-49365D01*
X45461Y-49403D02*
X45461Y-49403D01*
X41100Y-49465D02*
X41100Y-49464D01*
X50300Y-49007D02*
X50219Y-48926D01*
X50300Y-49364D02*
X50300Y-49007D01*
X50300Y-49364D02*
X50300Y-49364D01*
X50300Y-49364D02*
X50300Y-49365D01*
X51299Y-49364D02*
X50300Y-49364D01*
X51299Y-49364D02*
X51300Y-49365D01*
X52200Y-49364D02*
X52199Y-49364D01*
X52199Y-49364D02*
X51299Y-49364D01*
X52199Y-49364D02*
X52200Y-49365D01*
X55209Y-47825D02*
X55061Y-47676D01*
X55600Y-47825D02*
X55209Y-47825D01*
X55600Y-47835D02*
X55600Y-47835D01*
X55600Y-47835D02*
X55600Y-47825D01*
X56981Y-47453D02*
X56600Y-47835D01*
X56981Y-46920D02*
X56981Y-47453D01*
X56916Y-46854D02*
X56981Y-46920D01*
X56306Y-46854D02*
X56916Y-46854D01*
X55975Y-47186D02*
X56306Y-46854D01*
X55975Y-47388D02*
X55975Y-47186D01*
X55839Y-47524D02*
X55975Y-47388D01*
X55600Y-47524D02*
X55839Y-47524D01*
X55600Y-47825D02*
X55600Y-47524D01*
X56600Y-47835D02*
X56600Y-47835D01*
X46400Y-47835D02*
X46399Y-47835D01*
X46399Y-47835D02*
X46400Y-47835D01*
X45759Y-48287D02*
X45353Y-48287D01*
X46024Y-48021D02*
X45759Y-48287D01*
X46024Y-47835D02*
X46024Y-48021D01*
X46399Y-47835D02*
X46024Y-47835D01*
X45353Y-48287D02*
X45352Y-48287D01*
G54D19*
X42400Y-47835D02*
X42399Y-47835D01*
X46493Y-53506D02*
X46100Y-53900D01*
X46493Y-52143D02*
X46493Y-53506D01*
X46464Y-52114D02*
X46493Y-52143D01*
X46364Y-52114D02*
X46464Y-52114D01*
X46364Y-52114D02*
X46364Y-52114D01*
X44607Y-52114D02*
X46364Y-52114D01*
X44120Y-52601D02*
X44607Y-52114D01*
X44120Y-52880D02*
X44120Y-52601D01*
X43983Y-53016D02*
X44120Y-52880D01*
X43201Y-53016D02*
X43983Y-53016D01*
X42855Y-52670D02*
X43201Y-53016D01*
X42855Y-50151D02*
X42855Y-52670D01*
X42488Y-49785D02*
X42855Y-50151D01*
X40784Y-49785D02*
X42488Y-49785D01*
X40714Y-49715D02*
X40784Y-49785D01*
X40714Y-48139D02*
X40714Y-49715D01*
X41299Y-47555D02*
X40714Y-48139D01*
X42055Y-47555D02*
X41299Y-47555D01*
X42335Y-47835D02*
X42055Y-47555D01*
X42399Y-47835D02*
X42335Y-47835D01*
X42399Y-47835D02*
X42400Y-47835D01*
X46950Y-53750D02*
X47100Y-53900D01*
X46950Y-52500D02*
X46950Y-53750D01*
G54D20*
X52407Y-52622D02*
X54083Y-52622D01*
X51832Y-53197D02*
X52407Y-52622D01*
G54D19*
X49100Y-51555D02*
X49100Y-53900D01*
X50300Y-50355D02*
X49100Y-51555D01*
X50300Y-50035D02*
X50300Y-50355D01*
X50300Y-50035D02*
X50300Y-50035D01*
X55518Y-53318D02*
X56100Y-53900D01*
X52600Y-53318D02*
X55518Y-53318D01*
G54D10*
G36*
X43462Y-53226D02*
X43295Y-53392D01*
X43208Y-53356D01*
X42992Y-53356D01*
X42792Y-53438D01*
X42743Y-53487D01*
X42743Y-53456D01*
X42705Y-53364D01*
X42635Y-53294D01*
X42543Y-53256D01*
X42212Y-53256D01*
X42150Y-53319D01*
X42150Y-53850D01*
X42157Y-53850D01*
X42157Y-53950D01*
X42150Y-53950D01*
X42150Y-53957D01*
X42050Y-53957D01*
X42050Y-53950D01*
X42050Y-53850D01*
X42050Y-53319D01*
X41987Y-53256D01*
X41656Y-53256D01*
X41564Y-53294D01*
X41494Y-53364D01*
X41456Y-53456D01*
X41456Y-53556D01*
X41456Y-53787D01*
X41519Y-53850D01*
X42050Y-53850D01*
X42050Y-53950D01*
X41519Y-53950D01*
X41456Y-54012D01*
X41456Y-54243D01*
X41456Y-54264D01*
X41343Y-54264D01*
X41343Y-54263D01*
X41343Y-53476D01*
X41320Y-53421D01*
X41278Y-53379D01*
X41223Y-53356D01*
X41163Y-53356D01*
X41090Y-53356D01*
X42355Y-52091D01*
X42355Y-52091D01*
X42403Y-52020D01*
X42419Y-51936D01*
X42420Y-51936D01*
X42420Y-51035D01*
X42420Y-50445D01*
X42454Y-50445D01*
X42509Y-50422D01*
X42552Y-50379D01*
X42575Y-50324D01*
X42575Y-50265D01*
X42575Y-50168D01*
X42645Y-50238D01*
X42645Y-52670D01*
X42661Y-52750D01*
X42707Y-52818D01*
X43053Y-53165D01*
X43121Y-53210D01*
X43201Y-53226D01*
X43462Y-53226D01*
X43462Y-53226D01*
G37*
G54D20*
X43462Y-53226D02*
X43295Y-53392D01*
X43208Y-53356D01*
X42992Y-53356D01*
X42792Y-53438D01*
X42743Y-53487D01*
X42743Y-53456D01*
X42705Y-53364D01*
X42635Y-53294D01*
X42543Y-53256D01*
X42212Y-53256D01*
X42150Y-53319D01*
X42150Y-53850D01*
X42157Y-53850D01*
X42157Y-53950D01*
X42150Y-53950D01*
X42150Y-53957D01*
X42050Y-53957D01*
X42050Y-53950D01*
X42050Y-53850D01*
X42050Y-53319D01*
X41987Y-53256D01*
X41656Y-53256D01*
X41564Y-53294D01*
X41494Y-53364D01*
X41456Y-53456D01*
X41456Y-53556D01*
X41456Y-53787D01*
X41519Y-53850D01*
X42050Y-53850D01*
X42050Y-53950D01*
X41519Y-53950D01*
X41456Y-54012D01*
X41456Y-54243D01*
X41456Y-54264D01*
X41343Y-54264D01*
X41343Y-54263D01*
X41343Y-53476D01*
X41320Y-53421D01*
X41278Y-53379D01*
X41223Y-53356D01*
X41163Y-53356D01*
X41090Y-53356D01*
X42355Y-52091D01*
X42355Y-52091D01*
X42403Y-52020D01*
X42419Y-51936D01*
X42420Y-51936D01*
X42420Y-51035D01*
X42420Y-50445D01*
X42454Y-50445D01*
X42509Y-50422D01*
X42552Y-50379D01*
X42575Y-50324D01*
X42575Y-50265D01*
X42575Y-50168D01*
X42645Y-50238D01*
X42645Y-52670D01*
X42661Y-52750D01*
X42707Y-52818D01*
X43053Y-53165D01*
X43121Y-53210D01*
X43201Y-53226D01*
X43462Y-53226D01*
G54D10*
G36*
X45280Y-51058D02*
X45044Y-51294D01*
X44996Y-51365D01*
X44980Y-51450D01*
X44980Y-51455D01*
X44945Y-51455D01*
X44890Y-51477D01*
X44847Y-51520D01*
X44837Y-51544D01*
X44835Y-51544D01*
X44750Y-51561D01*
X44715Y-51585D01*
X44679Y-51609D01*
X44663Y-51624D01*
X44475Y-51624D01*
X44391Y-51641D01*
X44320Y-51689D01*
X44164Y-51844D01*
X44164Y-51174D01*
X44164Y-50646D01*
X44102Y-50584D01*
X43650Y-50584D01*
X43650Y-51312D01*
X43712Y-51374D01*
X43864Y-51374D01*
X43964Y-51374D01*
X44056Y-51336D01*
X44126Y-51266D01*
X44164Y-51174D01*
X44164Y-51844D01*
X44064Y-51944D01*
X44064Y-51645D01*
X44041Y-51590D01*
X43999Y-51548D01*
X43944Y-51525D01*
X43884Y-51525D01*
X43255Y-51525D01*
X43200Y-51548D01*
X43158Y-51590D01*
X43135Y-51645D01*
X43135Y-51705D01*
X43135Y-52653D01*
X43065Y-52583D01*
X43065Y-51246D01*
X43073Y-51266D01*
X43143Y-51336D01*
X43235Y-51374D01*
X43335Y-51374D01*
X43487Y-51374D01*
X43550Y-51312D01*
X43550Y-50584D01*
X43542Y-50584D01*
X43542Y-50484D01*
X43550Y-50484D01*
X43550Y-50476D01*
X43650Y-50476D01*
X43650Y-50484D01*
X44102Y-50484D01*
X44164Y-50421D01*
X44164Y-49924D01*
X45125Y-49924D01*
X45125Y-50224D01*
X45147Y-50279D01*
X45190Y-50322D01*
X45245Y-50345D01*
X45280Y-50345D01*
X45280Y-51058D01*
X45280Y-51058D01*
G37*
G54D20*
X45280Y-51058D02*
X45044Y-51294D01*
X44996Y-51365D01*
X44980Y-51450D01*
X44980Y-51455D01*
X44945Y-51455D01*
X44890Y-51477D01*
X44847Y-51520D01*
X44837Y-51544D01*
X44835Y-51544D01*
X44750Y-51561D01*
X44715Y-51585D01*
X44679Y-51609D01*
X44663Y-51624D01*
X44475Y-51624D01*
X44391Y-51641D01*
X44320Y-51689D01*
X44164Y-51844D01*
X44164Y-51174D01*
X44164Y-50646D01*
X44102Y-50584D01*
X43650Y-50584D01*
X43650Y-51312D01*
X43712Y-51374D01*
X43864Y-51374D01*
X43964Y-51374D01*
X44056Y-51336D01*
X44126Y-51266D01*
X44164Y-51174D01*
X44164Y-51844D01*
X44064Y-51944D01*
X44064Y-51645D01*
X44041Y-51590D01*
X43999Y-51548D01*
X43944Y-51525D01*
X43884Y-51525D01*
X43255Y-51525D01*
X43200Y-51548D01*
X43158Y-51590D01*
X43135Y-51645D01*
X43135Y-51705D01*
X43135Y-52653D01*
X43065Y-52583D01*
X43065Y-51246D01*
X43073Y-51266D01*
X43143Y-51336D01*
X43235Y-51374D01*
X43335Y-51374D01*
X43487Y-51374D01*
X43550Y-51312D01*
X43550Y-50584D01*
X43542Y-50584D01*
X43542Y-50484D01*
X43550Y-50484D01*
X43550Y-50476D01*
X43650Y-50476D01*
X43650Y-50484D01*
X44102Y-50484D01*
X44164Y-50421D01*
X44164Y-49924D01*
X45125Y-49924D01*
X45125Y-50224D01*
X45147Y-50279D01*
X45190Y-50322D01*
X45245Y-50345D01*
X45280Y-50345D01*
X45280Y-51058D01*
G54D10*
G36*
X46283Y-53387D02*
X46208Y-53356D01*
X45992Y-53356D01*
X45792Y-53438D01*
X45663Y-53567D01*
X45658Y-53555D01*
X45553Y-53517D01*
X45170Y-53900D01*
X45176Y-53905D01*
X45105Y-53976D01*
X45100Y-53970D01*
X45094Y-53976D01*
X45023Y-53905D01*
X45029Y-53900D01*
X45023Y-53894D01*
X45094Y-53823D01*
X45100Y-53829D01*
X45482Y-53446D01*
X45444Y-53341D01*
X45440Y-53340D01*
X46036Y-52745D01*
X46283Y-52745D01*
X46283Y-53387D01*
X46283Y-53387D01*
G37*
G54D20*
X46283Y-53387D02*
X46208Y-53356D01*
X45992Y-53356D01*
X45792Y-53438D01*
X45663Y-53567D01*
X45658Y-53555D01*
X45553Y-53517D01*
X45170Y-53900D01*
X45176Y-53905D01*
X45105Y-53976D01*
X45100Y-53970D01*
X45094Y-53976D01*
X45023Y-53905D01*
X45029Y-53900D01*
X45023Y-53894D01*
X45094Y-53823D01*
X45100Y-53829D01*
X45482Y-53446D01*
X45444Y-53341D01*
X45440Y-53340D01*
X46036Y-52745D01*
X46283Y-52745D01*
X46283Y-53387D01*
G54D10*
G36*
X48004Y-51374D02*
X47853Y-51525D01*
X47650Y-51525D01*
X47650Y-51312D01*
X47650Y-50584D01*
X47198Y-50584D01*
X47135Y-50646D01*
X47135Y-51174D01*
X47173Y-51266D01*
X47243Y-51336D01*
X47335Y-51374D01*
X47435Y-51374D01*
X47587Y-51374D01*
X47650Y-51312D01*
X47650Y-51525D01*
X47355Y-51525D01*
X47300Y-51548D01*
X47258Y-51590D01*
X47235Y-51645D01*
X47235Y-51705D01*
X47235Y-51944D01*
X46900Y-51609D01*
X46828Y-51561D01*
X46744Y-51544D01*
X46462Y-51544D01*
X46452Y-51520D01*
X46409Y-51477D01*
X46354Y-51455D01*
X46295Y-51455D01*
X45845Y-51455D01*
X45790Y-51477D01*
X45747Y-51520D01*
X45725Y-51575D01*
X45725Y-51634D01*
X45725Y-51904D01*
X45575Y-51904D01*
X45575Y-51895D01*
X45575Y-51575D01*
X45552Y-51520D01*
X45509Y-51477D01*
X45491Y-51470D01*
X45655Y-51305D01*
X45703Y-51234D01*
X45703Y-51234D01*
X45720Y-51150D01*
X45720Y-50345D01*
X45754Y-50345D01*
X45809Y-50322D01*
X45852Y-50279D01*
X45875Y-50224D01*
X45875Y-50165D01*
X45875Y-49924D01*
X46230Y-49924D01*
X47135Y-49924D01*
X47135Y-50421D01*
X47198Y-50484D01*
X47650Y-50484D01*
X47650Y-50476D01*
X47750Y-50476D01*
X47750Y-50484D01*
X47757Y-50484D01*
X47757Y-50584D01*
X47750Y-50584D01*
X47750Y-51312D01*
X47812Y-51374D01*
X47964Y-51374D01*
X48004Y-51374D01*
X48004Y-51374D01*
G37*
G54D20*
X48004Y-51374D02*
X47853Y-51525D01*
X47650Y-51525D01*
X47650Y-51312D01*
X47650Y-50584D01*
X47198Y-50584D01*
X47135Y-50646D01*
X47135Y-51174D01*
X47173Y-51266D01*
X47243Y-51336D01*
X47335Y-51374D01*
X47435Y-51374D01*
X47587Y-51374D01*
X47650Y-51312D01*
X47650Y-51525D01*
X47355Y-51525D01*
X47300Y-51548D01*
X47258Y-51590D01*
X47235Y-51645D01*
X47235Y-51705D01*
X47235Y-51944D01*
X46900Y-51609D01*
X46828Y-51561D01*
X46744Y-51544D01*
X46462Y-51544D01*
X46452Y-51520D01*
X46409Y-51477D01*
X46354Y-51455D01*
X46295Y-51455D01*
X45845Y-51455D01*
X45790Y-51477D01*
X45747Y-51520D01*
X45725Y-51575D01*
X45725Y-51634D01*
X45725Y-51904D01*
X45575Y-51904D01*
X45575Y-51895D01*
X45575Y-51575D01*
X45552Y-51520D01*
X45509Y-51477D01*
X45491Y-51470D01*
X45655Y-51305D01*
X45703Y-51234D01*
X45703Y-51234D01*
X45720Y-51150D01*
X45720Y-50345D01*
X45754Y-50345D01*
X45809Y-50322D01*
X45852Y-50279D01*
X45875Y-50224D01*
X45875Y-50165D01*
X45875Y-49924D01*
X46230Y-49924D01*
X47135Y-49924D01*
X47135Y-50421D01*
X47198Y-50484D01*
X47650Y-50484D01*
X47650Y-50476D01*
X47750Y-50476D01*
X47750Y-50484D01*
X47757Y-50484D01*
X47757Y-50584D01*
X47750Y-50584D01*
X47750Y-51312D01*
X47812Y-51374D01*
X47964Y-51374D01*
X48004Y-51374D01*
G54D10*
G36*
X50022Y-50335D02*
X48951Y-51406D01*
X48905Y-51474D01*
X48890Y-51555D01*
X48890Y-53398D01*
X48792Y-53438D01*
X48639Y-53591D01*
X48600Y-53686D01*
X48561Y-53592D01*
X48408Y-53439D01*
X48208Y-53356D01*
X47992Y-53356D01*
X47792Y-53438D01*
X47639Y-53591D01*
X47600Y-53686D01*
X47561Y-53592D01*
X47408Y-53439D01*
X47208Y-53356D01*
X47160Y-53356D01*
X47160Y-52784D01*
X47235Y-52709D01*
X47235Y-52886D01*
X47258Y-52941D01*
X47300Y-52983D01*
X47355Y-53006D01*
X47415Y-53006D01*
X48044Y-53006D01*
X48099Y-52983D01*
X48141Y-52941D01*
X48164Y-52886D01*
X48164Y-52826D01*
X48164Y-51836D01*
X48555Y-51445D01*
X48603Y-51374D01*
X48603Y-51374D01*
X48620Y-51290D01*
X48620Y-51074D01*
X48696Y-50998D01*
X48749Y-50869D01*
X48750Y-50730D01*
X48696Y-50602D01*
X48598Y-50503D01*
X48469Y-50450D01*
X48330Y-50449D01*
X48248Y-50483D01*
X48202Y-50483D01*
X48264Y-50421D01*
X48264Y-49924D01*
X49925Y-49924D01*
X49925Y-50224D01*
X49947Y-50279D01*
X49990Y-50322D01*
X50022Y-50335D01*
X50022Y-50335D01*
G37*
G54D20*
X50022Y-50335D02*
X48951Y-51406D01*
X48905Y-51474D01*
X48890Y-51555D01*
X48890Y-53398D01*
X48792Y-53438D01*
X48639Y-53591D01*
X48600Y-53686D01*
X48561Y-53592D01*
X48408Y-53439D01*
X48208Y-53356D01*
X47992Y-53356D01*
X47792Y-53438D01*
X47639Y-53591D01*
X47600Y-53686D01*
X47561Y-53592D01*
X47408Y-53439D01*
X47208Y-53356D01*
X47160Y-53356D01*
X47160Y-52784D01*
X47235Y-52709D01*
X47235Y-52886D01*
X47258Y-52941D01*
X47300Y-52983D01*
X47355Y-53006D01*
X47415Y-53006D01*
X48044Y-53006D01*
X48099Y-52983D01*
X48141Y-52941D01*
X48164Y-52886D01*
X48164Y-52826D01*
X48164Y-51836D01*
X48555Y-51445D01*
X48603Y-51374D01*
X48603Y-51374D01*
X48620Y-51290D01*
X48620Y-51074D01*
X48696Y-50998D01*
X48749Y-50869D01*
X48750Y-50730D01*
X48696Y-50602D01*
X48598Y-50503D01*
X48469Y-50450D01*
X48330Y-50449D01*
X48248Y-50483D01*
X48202Y-50483D01*
X48264Y-50421D01*
X48264Y-49924D01*
X49925Y-49924D01*
X49925Y-50224D01*
X49947Y-50279D01*
X49990Y-50322D01*
X50022Y-50335D01*
G54D10*
G36*
X55975Y-49194D02*
X55597Y-49571D01*
X55489Y-49571D01*
X55361Y-49624D01*
X55278Y-49707D01*
X55265Y-49710D01*
X55224Y-49718D01*
X55223Y-49718D01*
X55223Y-49718D01*
X55188Y-49742D01*
X55152Y-49766D01*
X55152Y-49766D01*
X55152Y-49766D01*
X55140Y-49778D01*
X55109Y-49747D01*
X55054Y-49725D01*
X54995Y-49725D01*
X54545Y-49725D01*
X54544Y-49725D01*
X54565Y-49675D01*
X54604Y-49675D01*
X55054Y-49675D01*
X55109Y-49652D01*
X55152Y-49609D01*
X55175Y-49554D01*
X55175Y-49495D01*
X55175Y-49175D01*
X55152Y-49120D01*
X55109Y-49077D01*
X55054Y-49055D01*
X54995Y-49055D01*
X54545Y-49055D01*
X54490Y-49077D01*
X54447Y-49120D01*
X54437Y-49144D01*
X54435Y-49144D01*
X54350Y-49161D01*
X54279Y-49209D01*
X54268Y-49220D01*
X54160Y-49220D01*
X54031Y-49273D01*
X53933Y-49371D01*
X53886Y-49484D01*
X53810Y-49484D01*
X53773Y-49447D01*
X53773Y-48912D01*
X53773Y-48830D01*
X53838Y-48830D01*
X53893Y-48807D01*
X53936Y-48765D01*
X53959Y-48710D01*
X53959Y-48650D01*
X53959Y-47863D01*
X53936Y-47808D01*
X53893Y-47766D01*
X53838Y-47743D01*
X53779Y-47743D01*
X53267Y-47743D01*
X53212Y-47766D01*
X53169Y-47808D01*
X53153Y-47849D01*
X53153Y-47843D01*
X53114Y-47751D01*
X53044Y-47681D01*
X52952Y-47643D01*
X52759Y-47643D01*
X52697Y-47706D01*
X52697Y-48237D01*
X52704Y-48237D01*
X52704Y-48337D01*
X52697Y-48337D01*
X52697Y-48868D01*
X52759Y-48930D01*
X52952Y-48930D01*
X53044Y-48892D01*
X53114Y-48822D01*
X53153Y-48730D01*
X53153Y-48724D01*
X53169Y-48765D01*
X53212Y-48807D01*
X53267Y-48830D01*
X53326Y-48830D01*
X53332Y-48830D01*
X53332Y-48912D01*
X53333Y-48913D01*
X53333Y-49484D01*
X52734Y-49484D01*
X52597Y-49484D01*
X52597Y-48868D01*
X52597Y-48337D01*
X52597Y-48237D01*
X52597Y-47706D01*
X52534Y-47643D01*
X52341Y-47643D01*
X52249Y-47681D01*
X52179Y-47751D01*
X52141Y-47843D01*
X52141Y-47943D01*
X52141Y-48174D01*
X52203Y-48237D01*
X52597Y-48237D01*
X52597Y-48337D01*
X52203Y-48337D01*
X52141Y-48399D01*
X52141Y-48630D01*
X52141Y-48730D01*
X52179Y-48822D01*
X52249Y-48892D01*
X52341Y-48930D01*
X52534Y-48930D01*
X52597Y-48868D01*
X52597Y-49484D01*
X52575Y-49484D01*
X52575Y-49175D01*
X52552Y-49120D01*
X52509Y-49077D01*
X52454Y-49055D01*
X52395Y-49055D01*
X51945Y-49055D01*
X51890Y-49077D01*
X51847Y-49120D01*
X51829Y-49164D01*
X51670Y-49164D01*
X51652Y-49120D01*
X51609Y-49077D01*
X51554Y-49055D01*
X51495Y-49055D01*
X51045Y-49055D01*
X50990Y-49077D01*
X50947Y-49120D01*
X50929Y-49164D01*
X50670Y-49164D01*
X50652Y-49120D01*
X50609Y-49077D01*
X50554Y-49055D01*
X50517Y-49055D01*
X50544Y-48991D01*
X50544Y-48862D01*
X50494Y-48742D01*
X50403Y-48651D01*
X50284Y-48601D01*
X50154Y-48601D01*
X50035Y-48650D01*
X49943Y-48742D01*
X49894Y-48861D01*
X49894Y-48990D01*
X49943Y-49110D01*
X49950Y-49117D01*
X49947Y-49120D01*
X49925Y-49175D01*
X49925Y-49234D01*
X49925Y-49484D01*
X46775Y-49484D01*
X46775Y-48024D01*
X46775Y-47965D01*
X46775Y-47645D01*
X46752Y-47590D01*
X46709Y-47547D01*
X46654Y-47525D01*
X46595Y-47525D01*
X46145Y-47525D01*
X46090Y-47547D01*
X46047Y-47590D01*
X46029Y-47635D01*
X46024Y-47635D01*
X45948Y-47650D01*
X45883Y-47693D01*
X45840Y-47758D01*
X45824Y-47835D01*
X45824Y-47938D01*
X45759Y-48004D01*
X45759Y-47863D01*
X45736Y-47808D01*
X45693Y-47766D01*
X45638Y-47743D01*
X45579Y-47743D01*
X45067Y-47743D01*
X45012Y-47766D01*
X44969Y-47808D01*
X44947Y-47863D01*
X44947Y-47923D01*
X44947Y-48710D01*
X44969Y-48765D01*
X45012Y-48807D01*
X45067Y-48830D01*
X45126Y-48830D01*
X45638Y-48830D01*
X45693Y-48807D01*
X45736Y-48765D01*
X45759Y-48710D01*
X45759Y-48650D01*
X45759Y-48487D01*
X45759Y-48487D01*
X45835Y-48471D01*
X45900Y-48428D01*
X46166Y-48162D01*
X46178Y-48145D01*
X46204Y-48145D01*
X46654Y-48145D01*
X46709Y-48122D01*
X46752Y-48079D01*
X46775Y-48024D01*
X46775Y-49484D01*
X46580Y-49484D01*
X46580Y-49475D01*
X46527Y-49347D01*
X46429Y-49248D01*
X46300Y-49195D01*
X46161Y-49195D01*
X46032Y-49248D01*
X45934Y-49346D01*
X45880Y-49475D01*
X45880Y-49484D01*
X45875Y-49484D01*
X45875Y-49175D01*
X45852Y-49120D01*
X45809Y-49077D01*
X45754Y-49055D01*
X45695Y-49055D01*
X45245Y-49055D01*
X45190Y-49077D01*
X45147Y-49120D01*
X45125Y-49175D01*
X45125Y-49234D01*
X45125Y-49242D01*
X44345Y-49242D01*
X44345Y-49203D01*
X44295Y-49083D01*
X44204Y-48992D01*
X44085Y-48942D01*
X43977Y-48942D01*
X43905Y-48870D01*
X43841Y-48827D01*
X43764Y-48812D01*
X41242Y-48812D01*
X41178Y-48824D01*
X41165Y-48827D01*
X41101Y-48870D01*
X40958Y-49013D01*
X40924Y-49063D01*
X40924Y-48226D01*
X41386Y-47765D01*
X41968Y-47765D01*
X42025Y-47821D01*
X42025Y-48024D01*
X42047Y-48079D01*
X42090Y-48122D01*
X42145Y-48145D01*
X42204Y-48145D01*
X42654Y-48145D01*
X42709Y-48122D01*
X42752Y-48079D01*
X42775Y-48024D01*
X42775Y-47965D01*
X42775Y-47868D01*
X42883Y-47976D01*
X42948Y-48019D01*
X43024Y-48035D01*
X43029Y-48035D01*
X43047Y-48079D01*
X43090Y-48122D01*
X43145Y-48145D01*
X43204Y-48145D01*
X43621Y-48145D01*
X43633Y-48162D01*
X43899Y-48428D01*
X43964Y-48471D01*
X43964Y-48471D01*
X44040Y-48487D01*
X44041Y-48487D01*
X44041Y-48710D01*
X44063Y-48765D01*
X44106Y-48807D01*
X44161Y-48830D01*
X44220Y-48830D01*
X44732Y-48830D01*
X44787Y-48807D01*
X44830Y-48765D01*
X44853Y-48710D01*
X44853Y-48650D01*
X44853Y-47863D01*
X44830Y-47808D01*
X44787Y-47766D01*
X44732Y-47743D01*
X44673Y-47743D01*
X44164Y-47743D01*
X44262Y-47645D01*
X44315Y-47517D01*
X44315Y-47476D01*
X45913Y-47476D01*
X45993Y-47460D01*
X46056Y-47418D01*
X46090Y-47452D01*
X46145Y-47475D01*
X46204Y-47475D01*
X46654Y-47475D01*
X46709Y-47452D01*
X46752Y-47409D01*
X46775Y-47354D01*
X46775Y-47295D01*
X46775Y-46975D01*
X46752Y-46920D01*
X46709Y-46877D01*
X46654Y-46855D01*
X46595Y-46855D01*
X46145Y-46855D01*
X46090Y-46877D01*
X46047Y-46920D01*
X46033Y-46954D01*
X46014Y-46954D01*
X45934Y-46970D01*
X45866Y-47016D01*
X45826Y-47056D01*
X45443Y-47056D01*
X45443Y-46289D01*
X45420Y-46234D01*
X45418Y-46232D01*
X52581Y-46232D01*
X52579Y-46234D01*
X52556Y-46289D01*
X52556Y-46349D01*
X52556Y-47136D01*
X52579Y-47191D01*
X52621Y-47233D01*
X52676Y-47256D01*
X52736Y-47256D01*
X53523Y-47256D01*
X53578Y-47233D01*
X53620Y-47191D01*
X53643Y-47136D01*
X53643Y-47076D01*
X53643Y-47040D01*
X53916Y-47313D01*
X53984Y-47358D01*
X54065Y-47374D01*
X54940Y-47374D01*
X54877Y-47401D01*
X54786Y-47492D01*
X54736Y-47611D01*
X54736Y-47741D01*
X54785Y-47860D01*
X54877Y-47952D01*
X54996Y-48001D01*
X55120Y-48001D01*
X55132Y-48009D01*
X55132Y-48009D01*
X55132Y-48009D01*
X55171Y-48017D01*
X55209Y-48025D01*
X55209Y-48025D01*
X55209Y-48025D01*
X55225Y-48025D01*
X55247Y-48079D01*
X55290Y-48122D01*
X55345Y-48145D01*
X55404Y-48145D01*
X55854Y-48145D01*
X55909Y-48122D01*
X55952Y-48079D01*
X55975Y-48024D01*
X55975Y-47965D01*
X55975Y-47670D01*
X55975Y-47669D01*
X55975Y-49194D01*
X55975Y-49194D01*
G37*
G54D20*
X55975Y-49194D02*
X55597Y-49571D01*
X55489Y-49571D01*
X55361Y-49624D01*
X55278Y-49707D01*
X55265Y-49710D01*
X55224Y-49718D01*
X55223Y-49718D01*
X55223Y-49718D01*
X55188Y-49742D01*
X55152Y-49766D01*
X55152Y-49766D01*
X55152Y-49766D01*
X55140Y-49778D01*
X55109Y-49747D01*
X55054Y-49725D01*
X54995Y-49725D01*
X54545Y-49725D01*
X54544Y-49725D01*
X54565Y-49675D01*
X54604Y-49675D01*
X55054Y-49675D01*
X55109Y-49652D01*
X55152Y-49609D01*
X55175Y-49554D01*
X55175Y-49495D01*
X55175Y-49175D01*
X55152Y-49120D01*
X55109Y-49077D01*
X55054Y-49055D01*
X54995Y-49055D01*
X54545Y-49055D01*
X54490Y-49077D01*
X54447Y-49120D01*
X54437Y-49144D01*
X54435Y-49144D01*
X54350Y-49161D01*
X54279Y-49209D01*
X54268Y-49220D01*
X54160Y-49220D01*
X54031Y-49273D01*
X53933Y-49371D01*
X53886Y-49484D01*
X53810Y-49484D01*
X53773Y-49447D01*
X53773Y-48912D01*
X53773Y-48830D01*
X53838Y-48830D01*
X53893Y-48807D01*
X53936Y-48765D01*
X53959Y-48710D01*
X53959Y-48650D01*
X53959Y-47863D01*
X53936Y-47808D01*
X53893Y-47766D01*
X53838Y-47743D01*
X53779Y-47743D01*
X53267Y-47743D01*
X53212Y-47766D01*
X53169Y-47808D01*
X53153Y-47849D01*
X53153Y-47843D01*
X53114Y-47751D01*
X53044Y-47681D01*
X52952Y-47643D01*
X52759Y-47643D01*
X52697Y-47706D01*
X52697Y-48237D01*
X52704Y-48237D01*
X52704Y-48337D01*
X52697Y-48337D01*
X52697Y-48868D01*
X52759Y-48930D01*
X52952Y-48930D01*
X53044Y-48892D01*
X53114Y-48822D01*
X53153Y-48730D01*
X53153Y-48724D01*
X53169Y-48765D01*
X53212Y-48807D01*
X53267Y-48830D01*
X53326Y-48830D01*
X53332Y-48830D01*
X53332Y-48912D01*
X53333Y-48913D01*
X53333Y-49484D01*
X52734Y-49484D01*
X52597Y-49484D01*
X52597Y-48868D01*
X52597Y-48337D01*
X52597Y-48237D01*
X52597Y-47706D01*
X52534Y-47643D01*
X52341Y-47643D01*
X52249Y-47681D01*
X52179Y-47751D01*
X52141Y-47843D01*
X52141Y-47943D01*
X52141Y-48174D01*
X52203Y-48237D01*
X52597Y-48237D01*
X52597Y-48337D01*
X52203Y-48337D01*
X52141Y-48399D01*
X52141Y-48630D01*
X52141Y-48730D01*
X52179Y-48822D01*
X52249Y-48892D01*
X52341Y-48930D01*
X52534Y-48930D01*
X52597Y-48868D01*
X52597Y-49484D01*
X52575Y-49484D01*
X52575Y-49175D01*
X52552Y-49120D01*
X52509Y-49077D01*
X52454Y-49055D01*
X52395Y-49055D01*
X51945Y-49055D01*
X51890Y-49077D01*
X51847Y-49120D01*
X51829Y-49164D01*
X51670Y-49164D01*
X51652Y-49120D01*
X51609Y-49077D01*
X51554Y-49055D01*
X51495Y-49055D01*
X51045Y-49055D01*
X50990Y-49077D01*
X50947Y-49120D01*
X50929Y-49164D01*
X50670Y-49164D01*
X50652Y-49120D01*
X50609Y-49077D01*
X50554Y-49055D01*
X50517Y-49055D01*
X50544Y-48991D01*
X50544Y-48862D01*
X50494Y-48742D01*
X50403Y-48651D01*
X50284Y-48601D01*
X50154Y-48601D01*
X50035Y-48650D01*
X49943Y-48742D01*
X49894Y-48861D01*
X49894Y-48990D01*
X49943Y-49110D01*
X49950Y-49117D01*
X49947Y-49120D01*
X49925Y-49175D01*
X49925Y-49234D01*
X49925Y-49484D01*
X46775Y-49484D01*
X46775Y-48024D01*
X46775Y-47965D01*
X46775Y-47645D01*
X46752Y-47590D01*
X46709Y-47547D01*
X46654Y-47525D01*
X46595Y-47525D01*
X46145Y-47525D01*
X46090Y-47547D01*
X46047Y-47590D01*
X46029Y-47635D01*
X46024Y-47635D01*
X45948Y-47650D01*
X45883Y-47693D01*
X45840Y-47758D01*
X45824Y-47835D01*
X45824Y-47938D01*
X45759Y-48004D01*
X45759Y-47863D01*
X45736Y-47808D01*
X45693Y-47766D01*
X45638Y-47743D01*
X45579Y-47743D01*
X45067Y-47743D01*
X45012Y-47766D01*
X44969Y-47808D01*
X44947Y-47863D01*
X44947Y-47923D01*
X44947Y-48710D01*
X44969Y-48765D01*
X45012Y-48807D01*
X45067Y-48830D01*
X45126Y-48830D01*
X45638Y-48830D01*
X45693Y-48807D01*
X45736Y-48765D01*
X45759Y-48710D01*
X45759Y-48650D01*
X45759Y-48487D01*
X45759Y-48487D01*
X45835Y-48471D01*
X45900Y-48428D01*
X46166Y-48162D01*
X46178Y-48145D01*
X46204Y-48145D01*
X46654Y-48145D01*
X46709Y-48122D01*
X46752Y-48079D01*
X46775Y-48024D01*
X46775Y-49484D01*
X46580Y-49484D01*
X46580Y-49475D01*
X46527Y-49347D01*
X46429Y-49248D01*
X46300Y-49195D01*
X46161Y-49195D01*
X46032Y-49248D01*
X45934Y-49346D01*
X45880Y-49475D01*
X45880Y-49484D01*
X45875Y-49484D01*
X45875Y-49175D01*
X45852Y-49120D01*
X45809Y-49077D01*
X45754Y-49055D01*
X45695Y-49055D01*
X45245Y-49055D01*
X45190Y-49077D01*
X45147Y-49120D01*
X45125Y-49175D01*
X45125Y-49234D01*
X45125Y-49242D01*
X44345Y-49242D01*
X44345Y-49203D01*
X44295Y-49083D01*
X44204Y-48992D01*
X44085Y-48942D01*
X43977Y-48942D01*
X43905Y-48870D01*
X43841Y-48827D01*
X43764Y-48812D01*
X41242Y-48812D01*
X41178Y-48824D01*
X41165Y-48827D01*
X41101Y-48870D01*
X40958Y-49013D01*
X40924Y-49063D01*
X40924Y-48226D01*
X41386Y-47765D01*
X41968Y-47765D01*
X42025Y-47821D01*
X42025Y-48024D01*
X42047Y-48079D01*
X42090Y-48122D01*
X42145Y-48145D01*
X42204Y-48145D01*
X42654Y-48145D01*
X42709Y-48122D01*
X42752Y-48079D01*
X42775Y-48024D01*
X42775Y-47965D01*
X42775Y-47868D01*
X42883Y-47976D01*
X42948Y-48019D01*
X43024Y-48035D01*
X43029Y-48035D01*
X43047Y-48079D01*
X43090Y-48122D01*
X43145Y-48145D01*
X43204Y-48145D01*
X43621Y-48145D01*
X43633Y-48162D01*
X43899Y-48428D01*
X43964Y-48471D01*
X43964Y-48471D01*
X44040Y-48487D01*
X44041Y-48487D01*
X44041Y-48710D01*
X44063Y-48765D01*
X44106Y-48807D01*
X44161Y-48830D01*
X44220Y-48830D01*
X44732Y-48830D01*
X44787Y-48807D01*
X44830Y-48765D01*
X44853Y-48710D01*
X44853Y-48650D01*
X44853Y-47863D01*
X44830Y-47808D01*
X44787Y-47766D01*
X44732Y-47743D01*
X44673Y-47743D01*
X44164Y-47743D01*
X44262Y-47645D01*
X44315Y-47517D01*
X44315Y-47476D01*
X45913Y-47476D01*
X45993Y-47460D01*
X46056Y-47418D01*
X46090Y-47452D01*
X46145Y-47475D01*
X46204Y-47475D01*
X46654Y-47475D01*
X46709Y-47452D01*
X46752Y-47409D01*
X46775Y-47354D01*
X46775Y-47295D01*
X46775Y-46975D01*
X46752Y-46920D01*
X46709Y-46877D01*
X46654Y-46855D01*
X46595Y-46855D01*
X46145Y-46855D01*
X46090Y-46877D01*
X46047Y-46920D01*
X46033Y-46954D01*
X46014Y-46954D01*
X45934Y-46970D01*
X45866Y-47016D01*
X45826Y-47056D01*
X45443Y-47056D01*
X45443Y-46289D01*
X45420Y-46234D01*
X45418Y-46232D01*
X52581Y-46232D01*
X52579Y-46234D01*
X52556Y-46289D01*
X52556Y-46349D01*
X52556Y-47136D01*
X52579Y-47191D01*
X52621Y-47233D01*
X52676Y-47256D01*
X52736Y-47256D01*
X53523Y-47256D01*
X53578Y-47233D01*
X53620Y-47191D01*
X53643Y-47136D01*
X53643Y-47076D01*
X53643Y-47040D01*
X53916Y-47313D01*
X53984Y-47358D01*
X54065Y-47374D01*
X54940Y-47374D01*
X54877Y-47401D01*
X54786Y-47492D01*
X54736Y-47611D01*
X54736Y-47741D01*
X54785Y-47860D01*
X54877Y-47952D01*
X54996Y-48001D01*
X55120Y-48001D01*
X55132Y-48009D01*
X55132Y-48009D01*
X55132Y-48009D01*
X55171Y-48017D01*
X55209Y-48025D01*
X55209Y-48025D01*
X55209Y-48025D01*
X55225Y-48025D01*
X55247Y-48079D01*
X55290Y-48122D01*
X55345Y-48145D01*
X55404Y-48145D01*
X55854Y-48145D01*
X55909Y-48122D01*
X55952Y-48079D01*
X55975Y-48024D01*
X55975Y-47965D01*
X55975Y-47670D01*
X55975Y-47669D01*
X55975Y-49194D01*
G54D10*
G36*
X59279Y-54751D02*
X57482Y-54751D01*
X57482Y-54353D01*
X57100Y-53970D01*
X57029Y-54041D01*
X57029Y-53900D01*
X56646Y-53517D01*
X56541Y-53555D01*
X56536Y-53568D01*
X56408Y-53439D01*
X56208Y-53356D01*
X55992Y-53356D01*
X55894Y-53397D01*
X55667Y-53170D01*
X55599Y-53124D01*
X55518Y-53108D01*
X52884Y-53108D01*
X52798Y-53022D01*
X52669Y-52968D01*
X52530Y-52968D01*
X52402Y-53022D01*
X52303Y-53120D01*
X52250Y-53248D01*
X52249Y-53373D01*
X52208Y-53356D01*
X52118Y-53356D01*
X52157Y-53262D01*
X52157Y-53155D01*
X52489Y-52822D01*
X53824Y-52822D01*
X53899Y-52898D01*
X54018Y-52947D01*
X54148Y-52947D01*
X54267Y-52898D01*
X54359Y-52807D01*
X54408Y-52687D01*
X54408Y-52558D01*
X54359Y-52438D01*
X54268Y-52347D01*
X54148Y-52297D01*
X54019Y-52297D01*
X53900Y-52347D01*
X53824Y-52422D01*
X52407Y-52422D01*
X52330Y-52438D01*
X52265Y-52481D01*
X52150Y-52597D01*
X52150Y-50382D01*
X52150Y-50085D01*
X51787Y-50085D01*
X51725Y-50147D01*
X51725Y-50244D01*
X51763Y-50336D01*
X51833Y-50406D01*
X51925Y-50445D01*
X52024Y-50445D01*
X52087Y-50445D01*
X52150Y-50382D01*
X52150Y-52597D01*
X51874Y-52872D01*
X51768Y-52872D01*
X51648Y-52921D01*
X51557Y-53012D01*
X51507Y-53132D01*
X51507Y-53261D01*
X51556Y-53381D01*
X51648Y-53472D01*
X51726Y-53505D01*
X51639Y-53591D01*
X51600Y-53686D01*
X51561Y-53592D01*
X51408Y-53439D01*
X51208Y-53356D01*
X50992Y-53356D01*
X50792Y-53438D01*
X50663Y-53567D01*
X50658Y-53555D01*
X50553Y-53517D01*
X50482Y-53587D01*
X50482Y-53446D01*
X50444Y-53341D01*
X50204Y-53252D01*
X49948Y-53261D01*
X49755Y-53341D01*
X49717Y-53446D01*
X50100Y-53829D01*
X50482Y-53446D01*
X50482Y-53587D01*
X50170Y-53900D01*
X50553Y-54282D01*
X50658Y-54244D01*
X50663Y-54231D01*
X50791Y-54360D01*
X50991Y-54443D01*
X51207Y-54443D01*
X51407Y-54361D01*
X51560Y-54208D01*
X51599Y-54113D01*
X51638Y-54207D01*
X51791Y-54360D01*
X51991Y-54443D01*
X52207Y-54443D01*
X52407Y-54361D01*
X52560Y-54208D01*
X52599Y-54113D01*
X52638Y-54207D01*
X52791Y-54360D01*
X52991Y-54443D01*
X53207Y-54443D01*
X53407Y-54361D01*
X53560Y-54208D01*
X53599Y-54113D01*
X53638Y-54207D01*
X53791Y-54360D01*
X53991Y-54443D01*
X54207Y-54443D01*
X54407Y-54361D01*
X54560Y-54208D01*
X54599Y-54113D01*
X54638Y-54207D01*
X54791Y-54360D01*
X54991Y-54443D01*
X55207Y-54443D01*
X55407Y-54361D01*
X55560Y-54208D01*
X55599Y-54113D01*
X55638Y-54207D01*
X55791Y-54360D01*
X55991Y-54443D01*
X56207Y-54443D01*
X56407Y-54361D01*
X56536Y-54232D01*
X56541Y-54244D01*
X56646Y-54282D01*
X57029Y-53900D01*
X57029Y-54041D01*
X56717Y-54353D01*
X56755Y-54458D01*
X56995Y-54547D01*
X57251Y-54538D01*
X57444Y-54458D01*
X57482Y-54353D01*
X57482Y-54751D01*
X50482Y-54751D01*
X50482Y-54353D01*
X50100Y-53970D01*
X49717Y-54353D01*
X49755Y-54458D01*
X49995Y-54547D01*
X50251Y-54538D01*
X50444Y-54458D01*
X50482Y-54353D01*
X50482Y-54751D01*
X39933Y-54751D01*
X39933Y-46232D01*
X44381Y-46232D01*
X44379Y-46234D01*
X44356Y-46289D01*
X44356Y-46349D01*
X44356Y-46512D01*
X44356Y-46512D01*
X44279Y-46528D01*
X44214Y-46571D01*
X44131Y-46654D01*
X42400Y-46654D01*
X42323Y-46669D01*
X42258Y-46713D01*
X42215Y-46778D01*
X42200Y-46854D01*
X42200Y-46855D01*
X42145Y-46855D01*
X42090Y-46877D01*
X42047Y-46920D01*
X42025Y-46975D01*
X42025Y-47034D01*
X42025Y-47345D01*
X41299Y-47345D01*
X41218Y-47361D01*
X41150Y-47406D01*
X40566Y-47990D01*
X40520Y-48059D01*
X40504Y-48139D01*
X40504Y-49715D01*
X40520Y-49795D01*
X40566Y-49863D01*
X40636Y-49933D01*
X40704Y-49979D01*
X40725Y-49983D01*
X40725Y-50004D01*
X40725Y-50324D01*
X40747Y-50379D01*
X40790Y-50422D01*
X40845Y-50445D01*
X40900Y-50445D01*
X40900Y-50555D01*
X40845Y-50555D01*
X40790Y-50577D01*
X40747Y-50620D01*
X40725Y-50675D01*
X40725Y-50734D01*
X40725Y-51054D01*
X40747Y-51109D01*
X40790Y-51152D01*
X40845Y-51175D01*
X40904Y-51175D01*
X41354Y-51175D01*
X41409Y-51152D01*
X41452Y-51109D01*
X41475Y-51054D01*
X41475Y-50995D01*
X41475Y-50675D01*
X41452Y-50620D01*
X41409Y-50577D01*
X41354Y-50555D01*
X41300Y-50555D01*
X41300Y-50445D01*
X41354Y-50445D01*
X41409Y-50422D01*
X41418Y-50413D01*
X41451Y-50446D01*
X41580Y-50499D01*
X41719Y-50500D01*
X41848Y-50446D01*
X41881Y-50413D01*
X41890Y-50422D01*
X41945Y-50445D01*
X41980Y-50445D01*
X41980Y-51035D01*
X41980Y-51845D01*
X40644Y-53180D01*
X40596Y-53252D01*
X40580Y-53336D01*
X40580Y-53356D01*
X40456Y-53356D01*
X40456Y-52795D01*
X41248Y-52003D01*
X41294Y-51935D01*
X41310Y-51855D01*
X41310Y-51845D01*
X41354Y-51845D01*
X41409Y-51822D01*
X41452Y-51779D01*
X41475Y-51724D01*
X41475Y-51665D01*
X41475Y-51345D01*
X41452Y-51290D01*
X41409Y-51247D01*
X41354Y-51225D01*
X41295Y-51225D01*
X40845Y-51225D01*
X40790Y-51247D01*
X40747Y-51290D01*
X40725Y-51345D01*
X40725Y-51404D01*
X40725Y-51724D01*
X40747Y-51779D01*
X40790Y-51822D01*
X40822Y-51835D01*
X40097Y-52560D01*
X40052Y-52628D01*
X40036Y-52708D01*
X40036Y-54388D01*
X40044Y-54428D01*
X40052Y-54468D01*
X40052Y-54469D01*
X40052Y-54469D01*
X40075Y-54503D01*
X40097Y-54537D01*
X40183Y-54622D01*
X40183Y-54623D01*
X40183Y-54623D01*
X40217Y-54645D01*
X40251Y-54668D01*
X40251Y-54668D01*
X40251Y-54668D01*
X40291Y-54676D01*
X40331Y-54684D01*
X40331Y-54684D01*
X40331Y-54684D01*
X47525Y-54684D01*
X47605Y-54668D01*
X47673Y-54623D01*
X47894Y-54402D01*
X47991Y-54443D01*
X48207Y-54443D01*
X48407Y-54361D01*
X48560Y-54208D01*
X48599Y-54113D01*
X48638Y-54207D01*
X48791Y-54360D01*
X48991Y-54443D01*
X49207Y-54443D01*
X49407Y-54361D01*
X49536Y-54232D01*
X49541Y-54244D01*
X49646Y-54282D01*
X50029Y-53900D01*
X49646Y-53517D01*
X49541Y-53555D01*
X49536Y-53568D01*
X49408Y-53439D01*
X49310Y-53398D01*
X49310Y-51642D01*
X50448Y-50503D01*
X50494Y-50435D01*
X50510Y-50355D01*
X50510Y-50345D01*
X50554Y-50345D01*
X50609Y-50322D01*
X50652Y-50279D01*
X50675Y-50224D01*
X50675Y-50165D01*
X50675Y-49924D01*
X50925Y-49924D01*
X50925Y-50224D01*
X50947Y-50279D01*
X50990Y-50322D01*
X51045Y-50345D01*
X51104Y-50345D01*
X51554Y-50345D01*
X51609Y-50322D01*
X51652Y-50279D01*
X51675Y-50224D01*
X51675Y-50165D01*
X51675Y-49924D01*
X51727Y-49924D01*
X51787Y-49985D01*
X52150Y-49985D01*
X52150Y-49977D01*
X52250Y-49977D01*
X52250Y-49985D01*
X52257Y-49985D01*
X52257Y-50085D01*
X52250Y-50085D01*
X52250Y-50382D01*
X52312Y-50445D01*
X52375Y-50445D01*
X52474Y-50445D01*
X52514Y-50428D01*
X52514Y-50456D01*
X52437Y-50532D01*
X52384Y-50661D01*
X52384Y-50800D01*
X52437Y-50929D01*
X52535Y-51028D01*
X52664Y-51081D01*
X52803Y-51081D01*
X52932Y-51028D01*
X53030Y-50930D01*
X53084Y-50801D01*
X53084Y-50662D01*
X53031Y-50533D01*
X52954Y-50456D01*
X52954Y-49924D01*
X53620Y-49924D01*
X53823Y-50127D01*
X53823Y-50127D01*
X53823Y-50127D01*
X56956Y-53261D01*
X56948Y-53261D01*
X56755Y-53341D01*
X56717Y-53446D01*
X57100Y-53829D01*
X57105Y-53823D01*
X57176Y-53894D01*
X57170Y-53900D01*
X57553Y-54282D01*
X57658Y-54244D01*
X57719Y-54081D01*
X57752Y-54103D01*
X57836Y-54120D01*
X57856Y-54120D01*
X57856Y-54323D01*
X57879Y-54378D01*
X57921Y-54420D01*
X57976Y-54443D01*
X58036Y-54443D01*
X58823Y-54443D01*
X58878Y-54420D01*
X58920Y-54378D01*
X58943Y-54323D01*
X58943Y-54263D01*
X58943Y-53476D01*
X58920Y-53421D01*
X58878Y-53379D01*
X58823Y-53356D01*
X58763Y-53356D01*
X57976Y-53356D01*
X57921Y-53379D01*
X57879Y-53421D01*
X57856Y-53476D01*
X57856Y-53536D01*
X57856Y-53538D01*
X54662Y-50345D01*
X55054Y-50345D01*
X55109Y-50322D01*
X55152Y-50279D01*
X55162Y-50255D01*
X55195Y-50255D01*
X55195Y-50255D01*
X55195Y-50255D01*
X55237Y-50246D01*
X55279Y-50238D01*
X55279Y-50238D01*
X55279Y-50238D01*
X55315Y-50214D01*
X55340Y-50197D01*
X55360Y-50218D01*
X55489Y-50271D01*
X55628Y-50271D01*
X55757Y-50218D01*
X55855Y-50120D01*
X55908Y-49991D01*
X55909Y-49882D01*
X56350Y-49440D01*
X56398Y-49369D01*
X56398Y-49369D01*
X56415Y-49285D01*
X56415Y-48145D01*
X56854Y-48145D01*
X56909Y-48122D01*
X56952Y-48079D01*
X56975Y-48024D01*
X56975Y-47965D01*
X56975Y-47742D01*
X57122Y-47594D01*
X57122Y-47594D01*
X57144Y-47562D01*
X57165Y-47530D01*
X57165Y-47530D01*
X57165Y-47529D01*
X57173Y-47492D01*
X57181Y-47453D01*
X57181Y-46920D01*
X57173Y-46882D01*
X57166Y-46844D01*
X57165Y-46843D01*
X57165Y-46843D01*
X57144Y-46811D01*
X57122Y-46779D01*
X57057Y-46713D01*
X57057Y-46713D01*
X57057Y-46713D01*
X57025Y-46691D01*
X56993Y-46670D01*
X56992Y-46670D01*
X56992Y-46669D01*
X56954Y-46662D01*
X56916Y-46654D01*
X56916Y-46654D01*
X56916Y-46654D01*
X56306Y-46654D01*
X56230Y-46669D01*
X56165Y-46713D01*
X55954Y-46924D01*
X55952Y-46920D01*
X55909Y-46877D01*
X55854Y-46855D01*
X55795Y-46855D01*
X55345Y-46855D01*
X55290Y-46877D01*
X55247Y-46920D01*
X55233Y-46954D01*
X54152Y-46954D01*
X53761Y-46564D01*
X53693Y-46518D01*
X53643Y-46508D01*
X53643Y-46289D01*
X53620Y-46234D01*
X53618Y-46232D01*
X59279Y-46232D01*
X59279Y-54751D01*
X59279Y-54751D01*
G37*
G54D20*
X59279Y-54751D02*
X57482Y-54751D01*
X57482Y-54353D01*
X57100Y-53970D01*
X57029Y-54041D01*
X57029Y-53900D01*
X56646Y-53517D01*
X56541Y-53555D01*
X56536Y-53568D01*
X56408Y-53439D01*
X56208Y-53356D01*
X55992Y-53356D01*
X55894Y-53397D01*
X55667Y-53170D01*
X55599Y-53124D01*
X55518Y-53108D01*
X52884Y-53108D01*
X52798Y-53022D01*
X52669Y-52968D01*
X52530Y-52968D01*
X52402Y-53022D01*
X52303Y-53120D01*
X52250Y-53248D01*
X52249Y-53373D01*
X52208Y-53356D01*
X52118Y-53356D01*
X52157Y-53262D01*
X52157Y-53155D01*
X52489Y-52822D01*
X53824Y-52822D01*
X53899Y-52898D01*
X54018Y-52947D01*
X54148Y-52947D01*
X54267Y-52898D01*
X54359Y-52807D01*
X54408Y-52687D01*
X54408Y-52558D01*
X54359Y-52438D01*
X54268Y-52347D01*
X54148Y-52297D01*
X54019Y-52297D01*
X53900Y-52347D01*
X53824Y-52422D01*
X52407Y-52422D01*
X52330Y-52438D01*
X52265Y-52481D01*
X52150Y-52597D01*
X52150Y-50382D01*
X52150Y-50085D01*
X51787Y-50085D01*
X51725Y-50147D01*
X51725Y-50244D01*
X51763Y-50336D01*
X51833Y-50406D01*
X51925Y-50445D01*
X52024Y-50445D01*
X52087Y-50445D01*
X52150Y-50382D01*
X52150Y-52597D01*
X51874Y-52872D01*
X51768Y-52872D01*
X51648Y-52921D01*
X51557Y-53012D01*
X51507Y-53132D01*
X51507Y-53261D01*
X51556Y-53381D01*
X51648Y-53472D01*
X51726Y-53505D01*
X51639Y-53591D01*
X51600Y-53686D01*
X51561Y-53592D01*
X51408Y-53439D01*
X51208Y-53356D01*
X50992Y-53356D01*
X50792Y-53438D01*
X50663Y-53567D01*
X50658Y-53555D01*
X50553Y-53517D01*
X50482Y-53587D01*
X50482Y-53446D01*
X50444Y-53341D01*
X50204Y-53252D01*
X49948Y-53261D01*
X49755Y-53341D01*
X49717Y-53446D01*
X50100Y-53829D01*
X50482Y-53446D01*
X50482Y-53587D01*
X50170Y-53900D01*
X50553Y-54282D01*
X50658Y-54244D01*
X50663Y-54231D01*
X50791Y-54360D01*
X50991Y-54443D01*
X51207Y-54443D01*
X51407Y-54361D01*
X51560Y-54208D01*
X51599Y-54113D01*
X51638Y-54207D01*
X51791Y-54360D01*
X51991Y-54443D01*
X52207Y-54443D01*
X52407Y-54361D01*
X52560Y-54208D01*
X52599Y-54113D01*
X52638Y-54207D01*
X52791Y-54360D01*
X52991Y-54443D01*
X53207Y-54443D01*
X53407Y-54361D01*
X53560Y-54208D01*
X53599Y-54113D01*
X53638Y-54207D01*
X53791Y-54360D01*
X53991Y-54443D01*
X54207Y-54443D01*
X54407Y-54361D01*
X54560Y-54208D01*
X54599Y-54113D01*
X54638Y-54207D01*
X54791Y-54360D01*
X54991Y-54443D01*
X55207Y-54443D01*
X55407Y-54361D01*
X55560Y-54208D01*
X55599Y-54113D01*
X55638Y-54207D01*
X55791Y-54360D01*
X55991Y-54443D01*
X56207Y-54443D01*
X56407Y-54361D01*
X56536Y-54232D01*
X56541Y-54244D01*
X56646Y-54282D01*
X57029Y-53900D01*
X57029Y-54041D01*
X56717Y-54353D01*
X56755Y-54458D01*
X56995Y-54547D01*
X57251Y-54538D01*
X57444Y-54458D01*
X57482Y-54353D01*
X57482Y-54751D01*
X50482Y-54751D01*
X50482Y-54353D01*
X50100Y-53970D01*
X49717Y-54353D01*
X49755Y-54458D01*
X49995Y-54547D01*
X50251Y-54538D01*
X50444Y-54458D01*
X50482Y-54353D01*
X50482Y-54751D01*
X39933Y-54751D01*
X39933Y-46232D01*
X44381Y-46232D01*
X44379Y-46234D01*
X44356Y-46289D01*
X44356Y-46349D01*
X44356Y-46512D01*
X44356Y-46512D01*
X44279Y-46528D01*
X44214Y-46571D01*
X44131Y-46654D01*
X42400Y-46654D01*
X42323Y-46669D01*
X42258Y-46713D01*
X42215Y-46778D01*
X42200Y-46854D01*
X42200Y-46855D01*
X42145Y-46855D01*
X42090Y-46877D01*
X42047Y-46920D01*
X42025Y-46975D01*
X42025Y-47034D01*
X42025Y-47345D01*
X41299Y-47345D01*
X41218Y-47361D01*
X41150Y-47406D01*
X40566Y-47990D01*
X40520Y-48059D01*
X40504Y-48139D01*
X40504Y-49715D01*
X40520Y-49795D01*
X40566Y-49863D01*
X40636Y-49933D01*
X40704Y-49979D01*
X40725Y-49983D01*
X40725Y-50004D01*
X40725Y-50324D01*
X40747Y-50379D01*
X40790Y-50422D01*
X40845Y-50445D01*
X40900Y-50445D01*
X40900Y-50555D01*
X40845Y-50555D01*
X40790Y-50577D01*
X40747Y-50620D01*
X40725Y-50675D01*
X40725Y-50734D01*
X40725Y-51054D01*
X40747Y-51109D01*
X40790Y-51152D01*
X40845Y-51175D01*
X40904Y-51175D01*
X41354Y-51175D01*
X41409Y-51152D01*
X41452Y-51109D01*
X41475Y-51054D01*
X41475Y-50995D01*
X41475Y-50675D01*
X41452Y-50620D01*
X41409Y-50577D01*
X41354Y-50555D01*
X41300Y-50555D01*
X41300Y-50445D01*
X41354Y-50445D01*
X41409Y-50422D01*
X41418Y-50413D01*
X41451Y-50446D01*
X41580Y-50499D01*
X41719Y-50500D01*
X41848Y-50446D01*
X41881Y-50413D01*
X41890Y-50422D01*
X41945Y-50445D01*
X41980Y-50445D01*
X41980Y-51035D01*
X41980Y-51845D01*
X40644Y-53180D01*
X40596Y-53252D01*
X40580Y-53336D01*
X40580Y-53356D01*
X40456Y-53356D01*
X40456Y-52795D01*
X41248Y-52003D01*
X41294Y-51935D01*
X41310Y-51855D01*
X41310Y-51845D01*
X41354Y-51845D01*
X41409Y-51822D01*
X41452Y-51779D01*
X41475Y-51724D01*
X41475Y-51665D01*
X41475Y-51345D01*
X41452Y-51290D01*
X41409Y-51247D01*
X41354Y-51225D01*
X41295Y-51225D01*
X40845Y-51225D01*
X40790Y-51247D01*
X40747Y-51290D01*
X40725Y-51345D01*
X40725Y-51404D01*
X40725Y-51724D01*
X40747Y-51779D01*
X40790Y-51822D01*
X40822Y-51835D01*
X40097Y-52560D01*
X40052Y-52628D01*
X40036Y-52708D01*
X40036Y-54388D01*
X40044Y-54428D01*
X40052Y-54468D01*
X40052Y-54469D01*
X40052Y-54469D01*
X40075Y-54503D01*
X40097Y-54537D01*
X40183Y-54622D01*
X40183Y-54623D01*
X40183Y-54623D01*
X40217Y-54645D01*
X40251Y-54668D01*
X40251Y-54668D01*
X40251Y-54668D01*
X40291Y-54676D01*
X40331Y-54684D01*
X40331Y-54684D01*
X40331Y-54684D01*
X47525Y-54684D01*
X47605Y-54668D01*
X47673Y-54623D01*
X47894Y-54402D01*
X47991Y-54443D01*
X48207Y-54443D01*
X48407Y-54361D01*
X48560Y-54208D01*
X48599Y-54113D01*
X48638Y-54207D01*
X48791Y-54360D01*
X48991Y-54443D01*
X49207Y-54443D01*
X49407Y-54361D01*
X49536Y-54232D01*
X49541Y-54244D01*
X49646Y-54282D01*
X50029Y-53900D01*
X49646Y-53517D01*
X49541Y-53555D01*
X49536Y-53568D01*
X49408Y-53439D01*
X49310Y-53398D01*
X49310Y-51642D01*
X50448Y-50503D01*
X50494Y-50435D01*
X50510Y-50355D01*
X50510Y-50345D01*
X50554Y-50345D01*
X50609Y-50322D01*
X50652Y-50279D01*
X50675Y-50224D01*
X50675Y-50165D01*
X50675Y-49924D01*
X50925Y-49924D01*
X50925Y-50224D01*
X50947Y-50279D01*
X50990Y-50322D01*
X51045Y-50345D01*
X51104Y-50345D01*
X51554Y-50345D01*
X51609Y-50322D01*
X51652Y-50279D01*
X51675Y-50224D01*
X51675Y-50165D01*
X51675Y-49924D01*
X51727Y-49924D01*
X51787Y-49985D01*
X52150Y-49985D01*
X52150Y-49977D01*
X52250Y-49977D01*
X52250Y-49985D01*
X52257Y-49985D01*
X52257Y-50085D01*
X52250Y-50085D01*
X52250Y-50382D01*
X52312Y-50445D01*
X52375Y-50445D01*
X52474Y-50445D01*
X52514Y-50428D01*
X52514Y-50456D01*
X52437Y-50532D01*
X52384Y-50661D01*
X52384Y-50800D01*
X52437Y-50929D01*
X52535Y-51028D01*
X52664Y-51081D01*
X52803Y-51081D01*
X52932Y-51028D01*
X53030Y-50930D01*
X53084Y-50801D01*
X53084Y-50662D01*
X53031Y-50533D01*
X52954Y-50456D01*
X52954Y-49924D01*
X53620Y-49924D01*
X53823Y-50127D01*
X53823Y-50127D01*
X53823Y-50127D01*
X56956Y-53261D01*
X56948Y-53261D01*
X56755Y-53341D01*
X56717Y-53446D01*
X57100Y-53829D01*
X57105Y-53823D01*
X57176Y-53894D01*
X57170Y-53900D01*
X57553Y-54282D01*
X57658Y-54244D01*
X57719Y-54081D01*
X57752Y-54103D01*
X57836Y-54120D01*
X57856Y-54120D01*
X57856Y-54323D01*
X57879Y-54378D01*
X57921Y-54420D01*
X57976Y-54443D01*
X58036Y-54443D01*
X58823Y-54443D01*
X58878Y-54420D01*
X58920Y-54378D01*
X58943Y-54323D01*
X58943Y-54263D01*
X58943Y-53476D01*
X58920Y-53421D01*
X58878Y-53379D01*
X58823Y-53356D01*
X58763Y-53356D01*
X57976Y-53356D01*
X57921Y-53379D01*
X57879Y-53421D01*
X57856Y-53476D01*
X57856Y-53536D01*
X57856Y-53538D01*
X54662Y-50345D01*
X55054Y-50345D01*
X55109Y-50322D01*
X55152Y-50279D01*
X55162Y-50255D01*
X55195Y-50255D01*
X55195Y-50255D01*
X55195Y-50255D01*
X55237Y-50246D01*
X55279Y-50238D01*
X55279Y-50238D01*
X55279Y-50238D01*
X55315Y-50214D01*
X55340Y-50197D01*
X55360Y-50218D01*
X55489Y-50271D01*
X55628Y-50271D01*
X55757Y-50218D01*
X55855Y-50120D01*
X55908Y-49991D01*
X55909Y-49882D01*
X56350Y-49440D01*
X56398Y-49369D01*
X56398Y-49369D01*
X56415Y-49285D01*
X56415Y-48145D01*
X56854Y-48145D01*
X56909Y-48122D01*
X56952Y-48079D01*
X56975Y-48024D01*
X56975Y-47965D01*
X56975Y-47742D01*
X57122Y-47594D01*
X57122Y-47594D01*
X57144Y-47562D01*
X57165Y-47530D01*
X57165Y-47530D01*
X57165Y-47529D01*
X57173Y-47492D01*
X57181Y-47453D01*
X57181Y-46920D01*
X57173Y-46882D01*
X57166Y-46844D01*
X57165Y-46843D01*
X57165Y-46843D01*
X57144Y-46811D01*
X57122Y-46779D01*
X57057Y-46713D01*
X57057Y-46713D01*
X57057Y-46713D01*
X57025Y-46691D01*
X56993Y-46670D01*
X56992Y-46670D01*
X56992Y-46669D01*
X56954Y-46662D01*
X56916Y-46654D01*
X56916Y-46654D01*
X56916Y-46654D01*
X56306Y-46654D01*
X56230Y-46669D01*
X56165Y-46713D01*
X55954Y-46924D01*
X55952Y-46920D01*
X55909Y-46877D01*
X55854Y-46855D01*
X55795Y-46855D01*
X55345Y-46855D01*
X55290Y-46877D01*
X55247Y-46920D01*
X55233Y-46954D01*
X54152Y-46954D01*
X53761Y-46564D01*
X53693Y-46518D01*
X53643Y-46508D01*
X53643Y-46289D01*
X53620Y-46234D01*
X53618Y-46232D01*
X59279Y-46232D01*
X59279Y-54751D01*
M02*
