%FSLAX34Y34*%
G04 Gerber Fmt 3.4, Leading zero omitted, Abs format*
G04 (created by PCBNEW (2013-12-24 BZR 4575)-product) date 2014-01-25 4:15:43 PM*
%MOIN*%
G01*
G70*
G90*
G04 APERTURE LIST*
%ADD10C,0.005906*%
%ADD11C,0.007874*%
%ADD12C,0.010000*%
%ADD13C,0.008000*%
%ADD14C,0.002600*%
%ADD15C,0.006000*%
%ADD16C,0.005000*%
%ADD17C,0.016000*%
%ADD18R,0.015700X0.031400*%
%ADD19R,0.045000X0.055000*%
%ADD20R,0.055000X0.045000*%
%ADD21R,0.039400X0.027600*%
%ADD22R,0.078700X0.078700*%
%ADD23C,0.078700*%
%ADD24R,0.011800X0.051200*%
%ADD25R,0.023600X0.086600*%
%ADD26R,0.045000X0.032000*%
%ADD27R,0.032000X0.045000*%
G04 APERTURE END LIST*
G54D10*
G54D11*
X56250Y-53150D02*
X56500Y-52900D01*
X52500Y-52900D02*
X52500Y-53150D01*
X52250Y-53150D02*
X52500Y-52900D01*
X52250Y-52900D02*
X52250Y-53150D01*
X52000Y-53150D02*
X52250Y-52900D01*
X56000Y-52900D02*
X56250Y-53150D01*
X55750Y-53150D02*
X56000Y-52900D01*
X54350Y-53150D02*
X54350Y-52900D01*
X53950Y-53150D02*
X54350Y-53150D01*
X53950Y-52900D02*
X53950Y-53150D01*
X53750Y-52900D02*
X53950Y-52900D01*
X53750Y-53150D02*
X53750Y-52900D01*
X47527Y-47100D02*
G75*
G03X47527Y-47100I-777J0D01*
G74*
G01*
G54D12*
X46345Y-46739D02*
X46678Y-46739D01*
X46464Y-47489D01*
X46892Y-47489D02*
X46988Y-47489D01*
X47035Y-47453D01*
X47059Y-47417D01*
X47107Y-47310D01*
X47130Y-47167D01*
X47130Y-46882D01*
X47107Y-46810D01*
X47083Y-46775D01*
X47035Y-46739D01*
X46940Y-46739D01*
X46892Y-46775D01*
X46869Y-46810D01*
X46845Y-46882D01*
X46845Y-47060D01*
X46869Y-47132D01*
X46892Y-47167D01*
X46940Y-47203D01*
X47035Y-47203D01*
X47083Y-47167D01*
X47107Y-47132D01*
X47130Y-47060D01*
G54D13*
X58564Y-50619D02*
X58830Y-50523D01*
X58564Y-50428D01*
X58830Y-50066D02*
X58830Y-50295D01*
X58830Y-50180D02*
X58430Y-50180D01*
X58488Y-50219D01*
X58526Y-50257D01*
X58545Y-50295D01*
X58792Y-49895D02*
X58811Y-49876D01*
X58830Y-49895D01*
X58811Y-49914D01*
X58792Y-49895D01*
X58830Y-49895D01*
X58830Y-49495D02*
X58830Y-49723D01*
X58830Y-49609D02*
X58430Y-49609D01*
X58488Y-49647D01*
X58526Y-49685D01*
X58545Y-49723D01*
X58430Y-48942D02*
X58430Y-48904D01*
X58450Y-48866D01*
X58469Y-48847D01*
X58507Y-48828D01*
X58583Y-48809D01*
X58678Y-48809D01*
X58754Y-48828D01*
X58792Y-48847D01*
X58811Y-48866D01*
X58830Y-48904D01*
X58830Y-48942D01*
X58811Y-48980D01*
X58792Y-48999D01*
X58754Y-49019D01*
X58678Y-49038D01*
X58583Y-49038D01*
X58507Y-49019D01*
X58469Y-48999D01*
X58450Y-48980D01*
X58430Y-48942D01*
X58830Y-48428D02*
X58830Y-48657D01*
X58830Y-48542D02*
X58430Y-48542D01*
X58488Y-48580D01*
X58526Y-48619D01*
X58545Y-48657D01*
X58469Y-47971D02*
X58450Y-47952D01*
X58430Y-47914D01*
X58430Y-47819D01*
X58450Y-47780D01*
X58469Y-47761D01*
X58507Y-47742D01*
X58545Y-47742D01*
X58602Y-47761D01*
X58830Y-47990D01*
X58830Y-47742D01*
X58430Y-47495D02*
X58430Y-47457D01*
X58450Y-47419D01*
X58469Y-47400D01*
X58507Y-47380D01*
X58583Y-47361D01*
X58678Y-47361D01*
X58754Y-47380D01*
X58792Y-47400D01*
X58811Y-47419D01*
X58830Y-47457D01*
X58830Y-47495D01*
X58811Y-47533D01*
X58792Y-47552D01*
X58754Y-47571D01*
X58678Y-47590D01*
X58583Y-47590D01*
X58507Y-47571D01*
X58469Y-47552D01*
X58450Y-47533D01*
X58430Y-47495D01*
X58830Y-46980D02*
X58830Y-47209D01*
X58830Y-47095D02*
X58430Y-47095D01*
X58488Y-47133D01*
X58526Y-47171D01*
X58545Y-47209D01*
X58564Y-46638D02*
X58830Y-46638D01*
X58411Y-46733D02*
X58697Y-46828D01*
X58697Y-46580D01*
G54D12*
X42557Y-46642D02*
X42557Y-47142D01*
X42557Y-46666D02*
X42604Y-46642D01*
X42700Y-46642D01*
X42747Y-46666D01*
X42771Y-46690D01*
X42795Y-46738D01*
X42795Y-46880D01*
X42771Y-46928D01*
X42747Y-46952D01*
X42700Y-46976D01*
X42604Y-46976D01*
X42557Y-46952D01*
X43009Y-46976D02*
X43009Y-46642D01*
X43009Y-46476D02*
X42985Y-46500D01*
X43009Y-46523D01*
X43033Y-46500D01*
X43009Y-46476D01*
X43009Y-46523D01*
X43461Y-46952D02*
X43414Y-46976D01*
X43319Y-46976D01*
X43271Y-46952D01*
X43247Y-46928D01*
X43223Y-46880D01*
X43223Y-46738D01*
X43247Y-46690D01*
X43271Y-46666D01*
X43319Y-46642D01*
X43414Y-46642D01*
X43461Y-46666D01*
X43747Y-46976D02*
X43700Y-46952D01*
X43676Y-46928D01*
X43652Y-46880D01*
X43652Y-46738D01*
X43676Y-46690D01*
X43700Y-46666D01*
X43747Y-46642D01*
X43819Y-46642D01*
X43866Y-46666D01*
X43890Y-46690D01*
X43914Y-46738D01*
X43914Y-46880D01*
X43890Y-46928D01*
X43866Y-46952D01*
X43819Y-46976D01*
X43747Y-46976D01*
X44057Y-46476D02*
X44223Y-46976D01*
X44390Y-46476D01*
X44842Y-46928D02*
X44819Y-46952D01*
X44747Y-46976D01*
X44700Y-46976D01*
X44628Y-46952D01*
X44580Y-46904D01*
X44557Y-46857D01*
X44533Y-46761D01*
X44533Y-46690D01*
X44557Y-46595D01*
X44580Y-46547D01*
X44628Y-46500D01*
X44700Y-46476D01*
X44747Y-46476D01*
X44819Y-46500D01*
X44842Y-46523D01*
X45152Y-46476D02*
X45247Y-46476D01*
X45295Y-46500D01*
X45342Y-46547D01*
X45366Y-46642D01*
X45366Y-46809D01*
X45342Y-46904D01*
X45295Y-46952D01*
X45247Y-46976D01*
X45152Y-46976D01*
X45104Y-46952D01*
X45057Y-46904D01*
X45033Y-46809D01*
X45033Y-46642D01*
X45057Y-46547D01*
X45104Y-46500D01*
X45152Y-46476D01*
G54D11*
X43600Y-54500D02*
X43600Y-52450D01*
X42600Y-54500D02*
X43600Y-54500D01*
X42600Y-52450D02*
X42600Y-54500D01*
X44600Y-52450D02*
X42600Y-52450D01*
X44600Y-54500D02*
X44600Y-52450D01*
X43600Y-54500D02*
X44600Y-54500D01*
G54D13*
X43128Y-53102D02*
X43128Y-52797D01*
X43280Y-52950D02*
X42976Y-52950D01*
X44302Y-52951D02*
X43997Y-52951D01*
X44900Y-52804D02*
X44880Y-52842D01*
X44880Y-52900D01*
X44900Y-52957D01*
X44938Y-52995D01*
X44976Y-53014D01*
X45052Y-53033D01*
X45109Y-53033D01*
X45185Y-53014D01*
X45223Y-52995D01*
X45261Y-52957D01*
X45280Y-52900D01*
X45280Y-52861D01*
X45261Y-52804D01*
X45242Y-52785D01*
X45109Y-52785D01*
X45109Y-52861D01*
X45280Y-52614D02*
X44880Y-52614D01*
X45280Y-52385D01*
X44880Y-52385D01*
X45280Y-52195D02*
X44880Y-52195D01*
X44880Y-52099D01*
X44900Y-52042D01*
X44938Y-52004D01*
X44976Y-51985D01*
X45052Y-51966D01*
X45109Y-51966D01*
X45185Y-51985D01*
X45223Y-52004D01*
X45261Y-52042D01*
X45280Y-52099D01*
X45280Y-52195D01*
X46280Y-53061D02*
X45880Y-53061D01*
X45880Y-52909D01*
X45900Y-52871D01*
X45919Y-52852D01*
X45957Y-52833D01*
X46014Y-52833D01*
X46052Y-52852D01*
X46071Y-52871D01*
X46090Y-52909D01*
X46090Y-53061D01*
X46280Y-52661D02*
X45880Y-52661D01*
X45880Y-52528D02*
X45880Y-52300D01*
X46280Y-52414D02*
X45880Y-52414D01*
X46242Y-51938D02*
X46261Y-51957D01*
X46280Y-52014D01*
X46280Y-52052D01*
X46261Y-52109D01*
X46223Y-52147D01*
X46185Y-52166D01*
X46109Y-52185D01*
X46052Y-52185D01*
X45976Y-52166D01*
X45938Y-52147D01*
X45900Y-52109D01*
X45880Y-52052D01*
X45880Y-52014D01*
X45900Y-51957D01*
X45919Y-51938D01*
X46280Y-51766D02*
X45880Y-51766D01*
X46071Y-51766D02*
X46071Y-51538D01*
X46280Y-51538D02*
X45880Y-51538D01*
X47180Y-53061D02*
X46780Y-53061D01*
X46780Y-52909D01*
X46800Y-52871D01*
X46819Y-52852D01*
X46857Y-52833D01*
X46914Y-52833D01*
X46952Y-52852D01*
X46971Y-52871D01*
X46990Y-52909D01*
X46990Y-53061D01*
X46780Y-52700D02*
X47180Y-52604D01*
X46895Y-52528D01*
X47180Y-52452D01*
X46780Y-52357D01*
X47180Y-52204D02*
X46780Y-52204D01*
X47066Y-52071D01*
X46780Y-51938D01*
X47180Y-51938D01*
X48280Y-52833D02*
X48280Y-53023D01*
X47880Y-53023D01*
X48280Y-52700D02*
X47880Y-52700D01*
X48280Y-52509D02*
X47880Y-52509D01*
X48280Y-52280D01*
X47880Y-52280D01*
X48071Y-51652D02*
X48071Y-51785D01*
X48280Y-51785D02*
X47880Y-51785D01*
X47880Y-51595D01*
X48280Y-51442D02*
X47880Y-51442D01*
X48166Y-51309D01*
X47880Y-51176D01*
X48280Y-51176D01*
G54D14*
X44336Y-50183D02*
X44454Y-50183D01*
X44454Y-50183D02*
X44454Y-49986D01*
X44336Y-49986D02*
X44454Y-49986D01*
X44336Y-50183D02*
X44336Y-49986D01*
X44591Y-50183D02*
X44709Y-50183D01*
X44709Y-50183D02*
X44709Y-49986D01*
X44591Y-49986D02*
X44709Y-49986D01*
X44591Y-50183D02*
X44591Y-49986D01*
X44846Y-50183D02*
X44964Y-50183D01*
X44964Y-50183D02*
X44964Y-49986D01*
X44846Y-49986D02*
X44964Y-49986D01*
X44846Y-50183D02*
X44846Y-49986D01*
X44846Y-49514D02*
X44964Y-49514D01*
X44964Y-49514D02*
X44964Y-49317D01*
X44846Y-49317D02*
X44964Y-49317D01*
X44846Y-49514D02*
X44846Y-49317D01*
X44591Y-49514D02*
X44709Y-49514D01*
X44709Y-49514D02*
X44709Y-49317D01*
X44591Y-49317D02*
X44709Y-49317D01*
X44591Y-49514D02*
X44591Y-49317D01*
X44336Y-49514D02*
X44454Y-49514D01*
X44454Y-49514D02*
X44454Y-49317D01*
X44336Y-49317D02*
X44454Y-49317D01*
X44336Y-49514D02*
X44336Y-49317D01*
G54D13*
X44257Y-49534D02*
X45043Y-49534D01*
X45043Y-49534D02*
X45043Y-49966D01*
X45043Y-49966D02*
X44257Y-49966D01*
X44257Y-49966D02*
X44257Y-49534D01*
G54D15*
X44416Y-49848D02*
G75*
G03X44416Y-49848I-41J0D01*
G74*
G01*
G54D16*
X44980Y-50500D02*
X45380Y-50500D01*
X45380Y-50500D02*
X45380Y-51100D01*
X45380Y-51100D02*
X44980Y-51100D01*
X44420Y-51100D02*
X44020Y-51100D01*
X44020Y-51100D02*
X44020Y-50500D01*
X44020Y-50500D02*
X44420Y-50500D01*
X48500Y-49980D02*
X48500Y-50380D01*
X48500Y-50380D02*
X47900Y-50380D01*
X47900Y-50380D02*
X47900Y-49980D01*
X47900Y-49420D02*
X47900Y-49020D01*
X47900Y-49020D02*
X48500Y-49020D01*
X48500Y-49020D02*
X48500Y-49420D01*
X49300Y-49500D02*
X49500Y-49200D01*
X49300Y-50200D02*
X49300Y-49175D01*
X49300Y-49175D02*
X49900Y-49175D01*
X49900Y-49175D02*
X49900Y-50200D01*
X49900Y-50200D02*
X49300Y-50200D01*
X56400Y-49500D02*
X56600Y-49200D01*
X56400Y-50200D02*
X56400Y-49175D01*
X56400Y-49175D02*
X57000Y-49175D01*
X57000Y-49175D02*
X57000Y-50200D01*
X57000Y-50200D02*
X56400Y-50200D01*
G54D12*
X41500Y-53300D02*
X41500Y-54500D01*
X41500Y-54500D02*
X57700Y-54500D01*
X57700Y-54500D02*
X57700Y-53300D01*
X57700Y-53300D02*
X41500Y-53300D01*
G54D13*
X55750Y-50400D02*
X53850Y-50400D01*
X53850Y-50400D02*
X53850Y-49000D01*
X53850Y-49000D02*
X55750Y-49000D01*
X55750Y-49000D02*
X55750Y-50400D01*
X55650Y-49250D02*
G75*
G03X55650Y-49250I-150J0D01*
G74*
G01*
X42950Y-50500D02*
X41050Y-50500D01*
X41050Y-50500D02*
X41050Y-49100D01*
X41050Y-49100D02*
X42950Y-49100D01*
X42950Y-49100D02*
X42950Y-50500D01*
X42850Y-49350D02*
G75*
G03X42850Y-49350I-150J0D01*
G74*
G01*
G54D17*
X52243Y-49510D02*
G75*
G03X52243Y-49510I-70J0D01*
G74*
G01*
G54D14*
X52346Y-48480D02*
X52153Y-48480D01*
X52153Y-48480D02*
X52153Y-48913D01*
X52346Y-48913D02*
X52153Y-48913D01*
X52346Y-48480D02*
X52346Y-48913D01*
X51846Y-48480D02*
X51653Y-48480D01*
X51653Y-48480D02*
X51653Y-48913D01*
X51846Y-48913D02*
X51653Y-48913D01*
X51846Y-48480D02*
X51846Y-48913D01*
X51347Y-48480D02*
X51154Y-48480D01*
X51154Y-48480D02*
X51154Y-48913D01*
X51347Y-48913D02*
X51154Y-48913D01*
X51347Y-48480D02*
X51347Y-48913D01*
X50847Y-48480D02*
X50654Y-48480D01*
X50654Y-48480D02*
X50654Y-48913D01*
X50847Y-48913D02*
X50654Y-48913D01*
X50847Y-48480D02*
X50847Y-48913D01*
X50847Y-50487D02*
X50654Y-50487D01*
X50654Y-50487D02*
X50654Y-50920D01*
X50847Y-50920D02*
X50654Y-50920D01*
X50847Y-50487D02*
X50847Y-50920D01*
X51347Y-50487D02*
X51154Y-50487D01*
X51154Y-50487D02*
X51154Y-50920D01*
X51347Y-50920D02*
X51154Y-50920D01*
X51347Y-50487D02*
X51347Y-50920D01*
X51846Y-50487D02*
X51653Y-50487D01*
X51653Y-50487D02*
X51653Y-50920D01*
X51846Y-50920D02*
X51653Y-50920D01*
X51846Y-50487D02*
X51846Y-50920D01*
X52346Y-50487D02*
X52153Y-50487D01*
X52153Y-50487D02*
X52153Y-50920D01*
X52346Y-50920D02*
X52153Y-50920D01*
X52346Y-50487D02*
X52346Y-50920D01*
G54D13*
X50556Y-50448D02*
X50556Y-49149D01*
X50556Y-49149D02*
X50556Y-48952D01*
X50556Y-48952D02*
X52444Y-48952D01*
X52444Y-48952D02*
X52444Y-49149D01*
X52444Y-49149D02*
X52444Y-50448D01*
X52444Y-50448D02*
X50556Y-50448D01*
X50556Y-49249D02*
X52444Y-49249D01*
G54D17*
X45998Y-49989D02*
G75*
G03X45998Y-49989I-70J0D01*
G74*
G01*
G54D14*
X45754Y-51020D02*
X45947Y-51020D01*
X45947Y-51020D02*
X45947Y-50587D01*
X45754Y-50587D02*
X45947Y-50587D01*
X45754Y-51020D02*
X45754Y-50587D01*
X46254Y-51020D02*
X46447Y-51020D01*
X46447Y-51020D02*
X46447Y-50587D01*
X46254Y-50587D02*
X46447Y-50587D01*
X46254Y-51020D02*
X46254Y-50587D01*
X46753Y-51020D02*
X46946Y-51020D01*
X46946Y-51020D02*
X46946Y-50587D01*
X46753Y-50587D02*
X46946Y-50587D01*
X46753Y-51020D02*
X46753Y-50587D01*
X47253Y-51020D02*
X47446Y-51020D01*
X47446Y-51020D02*
X47446Y-50587D01*
X47253Y-50587D02*
X47446Y-50587D01*
X47253Y-51020D02*
X47253Y-50587D01*
X47253Y-49013D02*
X47446Y-49013D01*
X47446Y-49013D02*
X47446Y-48580D01*
X47253Y-48580D02*
X47446Y-48580D01*
X47253Y-49013D02*
X47253Y-48580D01*
X46753Y-49013D02*
X46946Y-49013D01*
X46946Y-49013D02*
X46946Y-48580D01*
X46753Y-48580D02*
X46946Y-48580D01*
X46753Y-49013D02*
X46753Y-48580D01*
X46254Y-49013D02*
X46447Y-49013D01*
X46447Y-49013D02*
X46447Y-48580D01*
X46254Y-48580D02*
X46447Y-48580D01*
X46254Y-49013D02*
X46254Y-48580D01*
X45754Y-49013D02*
X45947Y-49013D01*
X45947Y-49013D02*
X45947Y-48580D01*
X45754Y-48580D02*
X45947Y-48580D01*
X45754Y-49013D02*
X45754Y-48580D01*
G54D13*
X47544Y-49052D02*
X47544Y-50351D01*
X47544Y-50351D02*
X47544Y-50548D01*
X47544Y-50548D02*
X45656Y-50548D01*
X45656Y-50548D02*
X45656Y-50351D01*
X45656Y-50351D02*
X45656Y-49052D01*
X45656Y-49052D02*
X47544Y-49052D01*
X47544Y-50251D02*
X45656Y-50251D01*
G54D12*
X50854Y-52751D02*
X50854Y-51648D01*
X50854Y-51648D02*
X50145Y-51648D01*
X50145Y-51648D02*
X50145Y-52751D01*
X50145Y-52751D02*
X50854Y-52751D01*
X57854Y-52751D02*
X57854Y-51648D01*
X57854Y-51648D02*
X57145Y-51648D01*
X57145Y-51648D02*
X57145Y-52751D01*
X57145Y-52751D02*
X57854Y-52751D01*
X58854Y-52751D02*
X58854Y-51648D01*
X58854Y-51648D02*
X58145Y-51648D01*
X58145Y-51648D02*
X58145Y-52751D01*
X58145Y-52751D02*
X58854Y-52751D01*
X49854Y-52751D02*
X49854Y-51648D01*
X49854Y-51648D02*
X49145Y-51648D01*
X49145Y-51648D02*
X49145Y-52751D01*
X49145Y-52751D02*
X49854Y-52751D01*
X52854Y-52751D02*
X52854Y-51648D01*
X52854Y-51648D02*
X52145Y-51648D01*
X52145Y-51648D02*
X52145Y-52751D01*
X52145Y-52751D02*
X52854Y-52751D01*
X50751Y-47145D02*
X49648Y-47145D01*
X49648Y-47145D02*
X49648Y-47854D01*
X49648Y-47854D02*
X50751Y-47854D01*
X50751Y-47854D02*
X50751Y-47145D01*
X48248Y-47854D02*
X49351Y-47854D01*
X49351Y-47854D02*
X49351Y-47145D01*
X49351Y-47145D02*
X48248Y-47145D01*
X48248Y-47145D02*
X48248Y-47854D01*
X53145Y-51648D02*
X53145Y-52751D01*
X53145Y-52751D02*
X53854Y-52751D01*
X53854Y-52751D02*
X53854Y-51648D01*
X53854Y-51648D02*
X53145Y-51648D01*
X57145Y-50248D02*
X57145Y-51351D01*
X57145Y-51351D02*
X57854Y-51351D01*
X57854Y-51351D02*
X57854Y-50248D01*
X57854Y-50248D02*
X57145Y-50248D01*
X57051Y-48145D02*
X55948Y-48145D01*
X55948Y-48145D02*
X55948Y-48854D01*
X55948Y-48854D02*
X57051Y-48854D01*
X57051Y-48854D02*
X57051Y-48145D01*
X44148Y-48654D02*
X45251Y-48654D01*
X45251Y-48654D02*
X45251Y-47945D01*
X45251Y-47945D02*
X44148Y-47945D01*
X44148Y-47945D02*
X44148Y-48654D01*
X54751Y-47145D02*
X53648Y-47145D01*
X53648Y-47145D02*
X53648Y-47854D01*
X53648Y-47854D02*
X54751Y-47854D01*
X54751Y-47854D02*
X54751Y-47145D01*
X43145Y-49248D02*
X43145Y-50351D01*
X43145Y-50351D02*
X43854Y-50351D01*
X43854Y-50351D02*
X43854Y-49248D01*
X43854Y-49248D02*
X43145Y-49248D01*
X57051Y-46545D02*
X55948Y-46545D01*
X55948Y-46545D02*
X55948Y-47254D01*
X55948Y-47254D02*
X57051Y-47254D01*
X57051Y-47254D02*
X57051Y-46545D01*
X55948Y-47954D02*
X57051Y-47954D01*
X57051Y-47954D02*
X57051Y-47245D01*
X57051Y-47245D02*
X55948Y-47245D01*
X55948Y-47245D02*
X55948Y-47954D01*
X55954Y-52751D02*
X55954Y-51648D01*
X55954Y-51648D02*
X55245Y-51648D01*
X55245Y-51648D02*
X55245Y-52751D01*
X55245Y-52751D02*
X55954Y-52751D01*
X54245Y-51648D02*
X54245Y-52751D01*
X54245Y-52751D02*
X54954Y-52751D01*
X54954Y-52751D02*
X54954Y-51648D01*
X54954Y-51648D02*
X54245Y-51648D01*
X56145Y-51648D02*
X56145Y-52751D01*
X56145Y-52751D02*
X56854Y-52751D01*
X56854Y-52751D02*
X56854Y-51648D01*
X56854Y-51648D02*
X56145Y-51648D01*
X52148Y-47854D02*
X53251Y-47854D01*
X53251Y-47854D02*
X53251Y-47145D01*
X53251Y-47145D02*
X52148Y-47145D01*
X52148Y-47145D02*
X52148Y-47854D01*
X51854Y-52751D02*
X51854Y-51648D01*
X51854Y-51648D02*
X51145Y-51648D01*
X51145Y-51648D02*
X51145Y-52751D01*
X51145Y-52751D02*
X51854Y-52751D01*
X52745Y-49148D02*
X52745Y-50251D01*
X52745Y-50251D02*
X53454Y-50251D01*
X53454Y-50251D02*
X53454Y-49148D01*
X53454Y-49148D02*
X52745Y-49148D01*
X42151Y-47145D02*
X41048Y-47145D01*
X41048Y-47145D02*
X41048Y-47854D01*
X41048Y-47854D02*
X42151Y-47854D01*
X42151Y-47854D02*
X42151Y-47145D01*
X41554Y-52551D02*
X41554Y-51448D01*
X41554Y-51448D02*
X40845Y-51448D01*
X40845Y-51448D02*
X40845Y-52551D01*
X40845Y-52551D02*
X41554Y-52551D01*
X41845Y-51448D02*
X41845Y-52551D01*
X41845Y-52551D02*
X42554Y-52551D01*
X42554Y-52551D02*
X42554Y-51448D01*
X42554Y-51448D02*
X41845Y-51448D01*
X43654Y-52551D02*
X43654Y-51448D01*
X43654Y-51448D02*
X42945Y-51448D01*
X42945Y-51448D02*
X42945Y-52551D01*
X42945Y-52551D02*
X43654Y-52551D01*
G54D15*
X45475Y-49730D02*
X45460Y-49760D01*
X45429Y-49791D01*
X45383Y-49837D01*
X45368Y-49867D01*
X45368Y-49898D01*
X45444Y-49882D02*
X45429Y-49913D01*
X45399Y-49943D01*
X45338Y-49959D01*
X45231Y-49959D01*
X45170Y-49943D01*
X45140Y-49913D01*
X45124Y-49882D01*
X45124Y-49821D01*
X45140Y-49791D01*
X45170Y-49760D01*
X45231Y-49745D01*
X45338Y-49745D01*
X45399Y-49760D01*
X45429Y-49791D01*
X45444Y-49821D01*
X45444Y-49882D01*
X45444Y-49440D02*
X45444Y-49623D01*
X45444Y-49532D02*
X45124Y-49532D01*
X45170Y-49562D01*
X45200Y-49593D01*
X45216Y-49623D01*
X44696Y-51324D02*
X44879Y-51324D01*
X44787Y-51644D02*
X44787Y-51324D01*
X45168Y-51614D02*
X45153Y-51629D01*
X45107Y-51644D01*
X45077Y-51644D01*
X45031Y-51629D01*
X45000Y-51599D01*
X44985Y-51568D01*
X44970Y-51507D01*
X44970Y-51461D01*
X44985Y-51400D01*
X45000Y-51370D01*
X45031Y-51340D01*
X45077Y-51324D01*
X45107Y-51324D01*
X45153Y-51340D01*
X45168Y-51355D01*
X45473Y-51644D02*
X45290Y-51644D01*
X45381Y-51644D02*
X45381Y-51324D01*
X45351Y-51370D01*
X45320Y-51400D01*
X45290Y-51416D01*
X48046Y-48814D02*
X48031Y-48829D01*
X47985Y-48844D01*
X47955Y-48844D01*
X47909Y-48829D01*
X47879Y-48799D01*
X47863Y-48768D01*
X47848Y-48707D01*
X47848Y-48661D01*
X47863Y-48600D01*
X47879Y-48570D01*
X47909Y-48540D01*
X47955Y-48524D01*
X47985Y-48524D01*
X48031Y-48540D01*
X48046Y-48555D01*
X48199Y-48844D02*
X48260Y-48844D01*
X48290Y-48829D01*
X48305Y-48814D01*
X48336Y-48768D01*
X48351Y-48707D01*
X48351Y-48585D01*
X48336Y-48555D01*
X48320Y-48540D01*
X48290Y-48524D01*
X48229Y-48524D01*
X48199Y-48540D01*
X48183Y-48555D01*
X48168Y-48585D01*
X48168Y-48661D01*
X48183Y-48692D01*
X48199Y-48707D01*
X48229Y-48722D01*
X48290Y-48722D01*
X48320Y-48707D01*
X48336Y-48692D01*
X48351Y-48661D01*
X49569Y-48875D02*
X49539Y-48860D01*
X49508Y-48829D01*
X49462Y-48783D01*
X49432Y-48768D01*
X49401Y-48768D01*
X49417Y-48844D02*
X49386Y-48829D01*
X49356Y-48799D01*
X49340Y-48738D01*
X49340Y-48631D01*
X49356Y-48570D01*
X49386Y-48540D01*
X49417Y-48524D01*
X49478Y-48524D01*
X49508Y-48540D01*
X49539Y-48570D01*
X49554Y-48631D01*
X49554Y-48738D01*
X49539Y-48799D01*
X49508Y-48829D01*
X49478Y-48844D01*
X49417Y-48844D01*
X49676Y-48555D02*
X49691Y-48540D01*
X49721Y-48524D01*
X49798Y-48524D01*
X49828Y-48540D01*
X49843Y-48555D01*
X49859Y-48585D01*
X49859Y-48616D01*
X49843Y-48661D01*
X49660Y-48844D01*
X49859Y-48844D01*
X57163Y-49344D02*
X57163Y-49024D01*
X57240Y-49024D01*
X57285Y-49040D01*
X57316Y-49070D01*
X57331Y-49100D01*
X57346Y-49161D01*
X57346Y-49207D01*
X57331Y-49268D01*
X57316Y-49299D01*
X57285Y-49329D01*
X57240Y-49344D01*
X57163Y-49344D01*
X57651Y-49344D02*
X57468Y-49344D01*
X57560Y-49344D02*
X57560Y-49024D01*
X57529Y-49070D01*
X57499Y-49100D01*
X57468Y-49116D01*
X55756Y-50524D02*
X55756Y-50783D01*
X55771Y-50814D01*
X55786Y-50829D01*
X55817Y-50844D01*
X55878Y-50844D01*
X55908Y-50829D01*
X55923Y-50814D01*
X55939Y-50783D01*
X55939Y-50524D01*
X56259Y-50844D02*
X56076Y-50844D01*
X56167Y-50844D02*
X56167Y-50524D01*
X56137Y-50570D01*
X56106Y-50600D01*
X56076Y-50616D01*
X43056Y-50524D02*
X43056Y-50783D01*
X43071Y-50814D01*
X43086Y-50829D01*
X43117Y-50844D01*
X43178Y-50844D01*
X43208Y-50829D01*
X43223Y-50814D01*
X43239Y-50783D01*
X43239Y-50524D01*
X43376Y-50555D02*
X43391Y-50540D01*
X43421Y-50524D01*
X43498Y-50524D01*
X43528Y-50540D01*
X43543Y-50555D01*
X43559Y-50585D01*
X43559Y-50616D01*
X43543Y-50661D01*
X43360Y-50844D01*
X43559Y-50844D01*
X52556Y-48624D02*
X52556Y-48883D01*
X52571Y-48914D01*
X52586Y-48929D01*
X52617Y-48944D01*
X52678Y-48944D01*
X52708Y-48929D01*
X52723Y-48914D01*
X52739Y-48883D01*
X52739Y-48624D01*
X53028Y-48731D02*
X53028Y-48944D01*
X52952Y-48609D02*
X52876Y-48838D01*
X53074Y-48838D01*
X47656Y-50524D02*
X47656Y-50783D01*
X47671Y-50814D01*
X47686Y-50829D01*
X47717Y-50844D01*
X47778Y-50844D01*
X47808Y-50829D01*
X47823Y-50814D01*
X47839Y-50783D01*
X47839Y-50524D01*
X47960Y-50524D02*
X48159Y-50524D01*
X48052Y-50646D01*
X48098Y-50646D01*
X48128Y-50661D01*
X48143Y-50677D01*
X48159Y-50707D01*
X48159Y-50783D01*
X48143Y-50814D01*
X48128Y-50829D01*
X48098Y-50844D01*
X48006Y-50844D01*
X47976Y-50829D01*
X47960Y-50814D01*
X50245Y-51508D02*
X50165Y-51394D01*
X50108Y-51508D02*
X50108Y-51268D01*
X50200Y-51268D01*
X50222Y-51280D01*
X50234Y-51291D01*
X50245Y-51314D01*
X50245Y-51348D01*
X50234Y-51371D01*
X50222Y-51382D01*
X50200Y-51394D01*
X50108Y-51394D01*
X50337Y-51291D02*
X50348Y-51280D01*
X50371Y-51268D01*
X50428Y-51268D01*
X50451Y-51280D01*
X50462Y-51291D01*
X50474Y-51314D01*
X50474Y-51337D01*
X50462Y-51371D01*
X50325Y-51508D01*
X50474Y-51508D01*
X50588Y-51508D02*
X50634Y-51508D01*
X50657Y-51497D01*
X50668Y-51485D01*
X50691Y-51451D01*
X50702Y-51405D01*
X50702Y-51314D01*
X50691Y-51291D01*
X50680Y-51280D01*
X50657Y-51268D01*
X50611Y-51268D01*
X50588Y-51280D01*
X50577Y-51291D01*
X50565Y-51314D01*
X50565Y-51371D01*
X50577Y-51394D01*
X50588Y-51405D01*
X50611Y-51417D01*
X50657Y-51417D01*
X50680Y-51405D01*
X50691Y-51394D01*
X50702Y-51371D01*
X57345Y-53108D02*
X57265Y-52994D01*
X57208Y-53108D02*
X57208Y-52868D01*
X57300Y-52868D01*
X57322Y-52880D01*
X57334Y-52891D01*
X57345Y-52914D01*
X57345Y-52948D01*
X57334Y-52971D01*
X57322Y-52982D01*
X57300Y-52994D01*
X57208Y-52994D01*
X57437Y-52891D02*
X57448Y-52880D01*
X57471Y-52868D01*
X57528Y-52868D01*
X57551Y-52880D01*
X57562Y-52891D01*
X57574Y-52914D01*
X57574Y-52937D01*
X57562Y-52971D01*
X57425Y-53108D01*
X57574Y-53108D01*
X57711Y-52971D02*
X57688Y-52960D01*
X57677Y-52948D01*
X57665Y-52925D01*
X57665Y-52914D01*
X57677Y-52891D01*
X57688Y-52880D01*
X57711Y-52868D01*
X57757Y-52868D01*
X57780Y-52880D01*
X57791Y-52891D01*
X57802Y-52914D01*
X57802Y-52925D01*
X57791Y-52948D01*
X57780Y-52960D01*
X57757Y-52971D01*
X57711Y-52971D01*
X57688Y-52982D01*
X57677Y-52994D01*
X57665Y-53017D01*
X57665Y-53062D01*
X57677Y-53085D01*
X57688Y-53097D01*
X57711Y-53108D01*
X57757Y-53108D01*
X57780Y-53097D01*
X57791Y-53085D01*
X57802Y-53062D01*
X57802Y-53017D01*
X57791Y-52994D01*
X57780Y-52982D01*
X57757Y-52971D01*
X58345Y-53108D02*
X58265Y-52994D01*
X58208Y-53108D02*
X58208Y-52868D01*
X58300Y-52868D01*
X58322Y-52880D01*
X58334Y-52891D01*
X58345Y-52914D01*
X58345Y-52948D01*
X58334Y-52971D01*
X58322Y-52982D01*
X58300Y-52994D01*
X58208Y-52994D01*
X58437Y-52891D02*
X58448Y-52880D01*
X58471Y-52868D01*
X58528Y-52868D01*
X58551Y-52880D01*
X58562Y-52891D01*
X58574Y-52914D01*
X58574Y-52937D01*
X58562Y-52971D01*
X58425Y-53108D01*
X58574Y-53108D01*
X58654Y-52868D02*
X58814Y-52868D01*
X58711Y-53108D01*
X49345Y-51508D02*
X49265Y-51394D01*
X49208Y-51508D02*
X49208Y-51268D01*
X49300Y-51268D01*
X49322Y-51280D01*
X49334Y-51291D01*
X49345Y-51314D01*
X49345Y-51348D01*
X49334Y-51371D01*
X49322Y-51382D01*
X49300Y-51394D01*
X49208Y-51394D01*
X49437Y-51291D02*
X49448Y-51280D01*
X49471Y-51268D01*
X49528Y-51268D01*
X49551Y-51280D01*
X49562Y-51291D01*
X49574Y-51314D01*
X49574Y-51337D01*
X49562Y-51371D01*
X49425Y-51508D01*
X49574Y-51508D01*
X49780Y-51268D02*
X49734Y-51268D01*
X49711Y-51280D01*
X49700Y-51291D01*
X49677Y-51325D01*
X49665Y-51371D01*
X49665Y-51462D01*
X49677Y-51485D01*
X49688Y-51497D01*
X49711Y-51508D01*
X49757Y-51508D01*
X49780Y-51497D01*
X49791Y-51485D01*
X49802Y-51462D01*
X49802Y-51405D01*
X49791Y-51382D01*
X49780Y-51371D01*
X49757Y-51360D01*
X49711Y-51360D01*
X49688Y-51371D01*
X49677Y-51382D01*
X49665Y-51405D01*
X52245Y-51508D02*
X52165Y-51394D01*
X52108Y-51508D02*
X52108Y-51268D01*
X52200Y-51268D01*
X52222Y-51280D01*
X52234Y-51291D01*
X52245Y-51314D01*
X52245Y-51348D01*
X52234Y-51371D01*
X52222Y-51382D01*
X52200Y-51394D01*
X52108Y-51394D01*
X52337Y-51291D02*
X52348Y-51280D01*
X52371Y-51268D01*
X52428Y-51268D01*
X52451Y-51280D01*
X52462Y-51291D01*
X52474Y-51314D01*
X52474Y-51337D01*
X52462Y-51371D01*
X52325Y-51508D01*
X52474Y-51508D01*
X52691Y-51268D02*
X52577Y-51268D01*
X52565Y-51382D01*
X52577Y-51371D01*
X52600Y-51360D01*
X52657Y-51360D01*
X52680Y-51371D01*
X52691Y-51382D01*
X52702Y-51405D01*
X52702Y-51462D01*
X52691Y-51485D01*
X52680Y-51497D01*
X52657Y-51508D01*
X52600Y-51508D01*
X52577Y-51497D01*
X52565Y-51485D01*
X51108Y-47654D02*
X50994Y-47734D01*
X51108Y-47791D02*
X50868Y-47791D01*
X50868Y-47700D01*
X50880Y-47677D01*
X50891Y-47665D01*
X50914Y-47654D01*
X50948Y-47654D01*
X50971Y-47665D01*
X50982Y-47677D01*
X50994Y-47700D01*
X50994Y-47791D01*
X50891Y-47562D02*
X50880Y-47551D01*
X50868Y-47528D01*
X50868Y-47471D01*
X50880Y-47448D01*
X50891Y-47437D01*
X50914Y-47425D01*
X50937Y-47425D01*
X50971Y-47437D01*
X51108Y-47574D01*
X51108Y-47425D01*
X50948Y-47220D02*
X51108Y-47220D01*
X50857Y-47277D02*
X51028Y-47334D01*
X51028Y-47185D01*
X48108Y-47654D02*
X47994Y-47734D01*
X48108Y-47791D02*
X47868Y-47791D01*
X47868Y-47700D01*
X47880Y-47677D01*
X47891Y-47665D01*
X47914Y-47654D01*
X47948Y-47654D01*
X47971Y-47665D01*
X47982Y-47677D01*
X47994Y-47700D01*
X47994Y-47791D01*
X47891Y-47562D02*
X47880Y-47551D01*
X47868Y-47528D01*
X47868Y-47471D01*
X47880Y-47448D01*
X47891Y-47437D01*
X47914Y-47425D01*
X47937Y-47425D01*
X47971Y-47437D01*
X48108Y-47574D01*
X48108Y-47425D01*
X47868Y-47345D02*
X47868Y-47197D01*
X47960Y-47277D01*
X47960Y-47242D01*
X47971Y-47220D01*
X47982Y-47208D01*
X48005Y-47197D01*
X48062Y-47197D01*
X48085Y-47208D01*
X48097Y-47220D01*
X48108Y-47242D01*
X48108Y-47311D01*
X48097Y-47334D01*
X48085Y-47345D01*
X53245Y-51508D02*
X53165Y-51394D01*
X53108Y-51508D02*
X53108Y-51268D01*
X53200Y-51268D01*
X53222Y-51280D01*
X53234Y-51291D01*
X53245Y-51314D01*
X53245Y-51348D01*
X53234Y-51371D01*
X53222Y-51382D01*
X53200Y-51394D01*
X53108Y-51394D01*
X53337Y-51291D02*
X53348Y-51280D01*
X53371Y-51268D01*
X53428Y-51268D01*
X53451Y-51280D01*
X53462Y-51291D01*
X53474Y-51314D01*
X53474Y-51337D01*
X53462Y-51371D01*
X53325Y-51508D01*
X53474Y-51508D01*
X53565Y-51291D02*
X53577Y-51280D01*
X53600Y-51268D01*
X53657Y-51268D01*
X53680Y-51280D01*
X53691Y-51291D01*
X53702Y-51314D01*
X53702Y-51337D01*
X53691Y-51371D01*
X53554Y-51508D01*
X53702Y-51508D01*
X57745Y-50108D02*
X57665Y-49994D01*
X57608Y-50108D02*
X57608Y-49868D01*
X57700Y-49868D01*
X57722Y-49880D01*
X57734Y-49891D01*
X57745Y-49914D01*
X57745Y-49948D01*
X57734Y-49971D01*
X57722Y-49982D01*
X57700Y-49994D01*
X57608Y-49994D01*
X57837Y-49891D02*
X57848Y-49880D01*
X57871Y-49868D01*
X57928Y-49868D01*
X57951Y-49880D01*
X57962Y-49891D01*
X57974Y-49914D01*
X57974Y-49937D01*
X57962Y-49971D01*
X57825Y-50108D01*
X57974Y-50108D01*
X58202Y-50108D02*
X58065Y-50108D01*
X58134Y-50108D02*
X58134Y-49868D01*
X58111Y-49902D01*
X58088Y-49925D01*
X58065Y-49937D01*
X57408Y-48654D02*
X57294Y-48734D01*
X57408Y-48791D02*
X57168Y-48791D01*
X57168Y-48700D01*
X57180Y-48677D01*
X57191Y-48665D01*
X57214Y-48654D01*
X57248Y-48654D01*
X57271Y-48665D01*
X57282Y-48677D01*
X57294Y-48700D01*
X57294Y-48791D01*
X57191Y-48562D02*
X57180Y-48551D01*
X57168Y-48528D01*
X57168Y-48471D01*
X57180Y-48448D01*
X57191Y-48437D01*
X57214Y-48425D01*
X57237Y-48425D01*
X57271Y-48437D01*
X57408Y-48574D01*
X57408Y-48425D01*
X57168Y-48277D02*
X57168Y-48254D01*
X57180Y-48231D01*
X57191Y-48220D01*
X57214Y-48208D01*
X57260Y-48197D01*
X57317Y-48197D01*
X57362Y-48208D01*
X57385Y-48220D01*
X57397Y-48231D01*
X57408Y-48254D01*
X57408Y-48277D01*
X57397Y-48300D01*
X57385Y-48311D01*
X57362Y-48322D01*
X57317Y-48334D01*
X57260Y-48334D01*
X57214Y-48322D01*
X57191Y-48311D01*
X57180Y-48300D01*
X57168Y-48277D01*
X44008Y-48454D02*
X43894Y-48534D01*
X44008Y-48591D02*
X43768Y-48591D01*
X43768Y-48500D01*
X43780Y-48477D01*
X43791Y-48465D01*
X43814Y-48454D01*
X43848Y-48454D01*
X43871Y-48465D01*
X43882Y-48477D01*
X43894Y-48500D01*
X43894Y-48591D01*
X44008Y-48225D02*
X44008Y-48362D01*
X44008Y-48294D02*
X43768Y-48294D01*
X43802Y-48317D01*
X43825Y-48340D01*
X43837Y-48362D01*
X43768Y-48145D02*
X43768Y-47985D01*
X44008Y-48088D01*
X55108Y-47254D02*
X54994Y-47334D01*
X55108Y-47391D02*
X54868Y-47391D01*
X54868Y-47300D01*
X54880Y-47277D01*
X54891Y-47265D01*
X54914Y-47254D01*
X54948Y-47254D01*
X54971Y-47265D01*
X54982Y-47277D01*
X54994Y-47300D01*
X54994Y-47391D01*
X55108Y-47025D02*
X55108Y-47162D01*
X55108Y-47094D02*
X54868Y-47094D01*
X54902Y-47117D01*
X54925Y-47140D01*
X54937Y-47162D01*
X54868Y-46808D02*
X54868Y-46922D01*
X54982Y-46934D01*
X54971Y-46922D01*
X54960Y-46900D01*
X54960Y-46842D01*
X54971Y-46820D01*
X54982Y-46808D01*
X55005Y-46797D01*
X55062Y-46797D01*
X55085Y-46808D01*
X55097Y-46820D01*
X55108Y-46842D01*
X55108Y-46900D01*
X55097Y-46922D01*
X55085Y-46934D01*
X43245Y-49108D02*
X43165Y-48994D01*
X43108Y-49108D02*
X43108Y-48868D01*
X43200Y-48868D01*
X43222Y-48880D01*
X43234Y-48891D01*
X43245Y-48914D01*
X43245Y-48948D01*
X43234Y-48971D01*
X43222Y-48982D01*
X43200Y-48994D01*
X43108Y-48994D01*
X43474Y-49108D02*
X43337Y-49108D01*
X43405Y-49108D02*
X43405Y-48868D01*
X43382Y-48902D01*
X43360Y-48925D01*
X43337Y-48937D01*
X43554Y-48868D02*
X43702Y-48868D01*
X43622Y-48960D01*
X43657Y-48960D01*
X43680Y-48971D01*
X43691Y-48982D01*
X43702Y-49005D01*
X43702Y-49062D01*
X43691Y-49085D01*
X43680Y-49097D01*
X43657Y-49108D01*
X43588Y-49108D01*
X43565Y-49097D01*
X43554Y-49085D01*
X57392Y-47103D02*
X57277Y-47183D01*
X57392Y-47240D02*
X57152Y-47240D01*
X57152Y-47148D01*
X57163Y-47125D01*
X57174Y-47114D01*
X57197Y-47103D01*
X57232Y-47103D01*
X57254Y-47114D01*
X57266Y-47125D01*
X57277Y-47148D01*
X57277Y-47240D01*
X57392Y-46874D02*
X57392Y-47011D01*
X57392Y-46943D02*
X57152Y-46943D01*
X57186Y-46965D01*
X57209Y-46988D01*
X57220Y-47011D01*
X57174Y-46783D02*
X57163Y-46771D01*
X57152Y-46748D01*
X57152Y-46691D01*
X57163Y-46668D01*
X57174Y-46657D01*
X57197Y-46645D01*
X57220Y-46645D01*
X57254Y-46657D01*
X57392Y-46794D01*
X57392Y-46645D01*
X57392Y-47792D02*
X57277Y-47872D01*
X57392Y-47929D02*
X57152Y-47929D01*
X57152Y-47837D01*
X57163Y-47814D01*
X57174Y-47803D01*
X57197Y-47792D01*
X57232Y-47792D01*
X57254Y-47803D01*
X57266Y-47814D01*
X57277Y-47837D01*
X57277Y-47929D01*
X57392Y-47563D02*
X57392Y-47700D01*
X57392Y-47632D02*
X57152Y-47632D01*
X57186Y-47654D01*
X57209Y-47677D01*
X57220Y-47700D01*
X57392Y-47334D02*
X57392Y-47472D01*
X57392Y-47403D02*
X57152Y-47403D01*
X57186Y-47426D01*
X57209Y-47449D01*
X57220Y-47472D01*
X55345Y-51508D02*
X55265Y-51394D01*
X55208Y-51508D02*
X55208Y-51268D01*
X55300Y-51268D01*
X55322Y-51280D01*
X55334Y-51291D01*
X55345Y-51314D01*
X55345Y-51348D01*
X55334Y-51371D01*
X55322Y-51382D01*
X55300Y-51394D01*
X55208Y-51394D01*
X55574Y-51508D02*
X55437Y-51508D01*
X55505Y-51508D02*
X55505Y-51268D01*
X55482Y-51302D01*
X55460Y-51325D01*
X55437Y-51337D01*
X55722Y-51268D02*
X55745Y-51268D01*
X55768Y-51280D01*
X55780Y-51291D01*
X55791Y-51314D01*
X55802Y-51360D01*
X55802Y-51417D01*
X55791Y-51462D01*
X55780Y-51485D01*
X55768Y-51497D01*
X55745Y-51508D01*
X55722Y-51508D01*
X55700Y-51497D01*
X55688Y-51485D01*
X55677Y-51462D01*
X55665Y-51417D01*
X55665Y-51360D01*
X55677Y-51314D01*
X55688Y-51291D01*
X55700Y-51280D01*
X55722Y-51268D01*
X54684Y-53100D02*
X54604Y-52986D01*
X54547Y-53100D02*
X54547Y-52860D01*
X54638Y-52860D01*
X54661Y-52872D01*
X54672Y-52883D01*
X54684Y-52906D01*
X54684Y-52940D01*
X54672Y-52963D01*
X54661Y-52974D01*
X54638Y-52986D01*
X54547Y-52986D01*
X54798Y-53100D02*
X54844Y-53100D01*
X54867Y-53089D01*
X54878Y-53077D01*
X54901Y-53043D01*
X54912Y-52997D01*
X54912Y-52906D01*
X54901Y-52883D01*
X54890Y-52872D01*
X54867Y-52860D01*
X54821Y-52860D01*
X54798Y-52872D01*
X54787Y-52883D01*
X54775Y-52906D01*
X54775Y-52963D01*
X54787Y-52986D01*
X54798Y-52997D01*
X54821Y-53009D01*
X54867Y-53009D01*
X54890Y-52997D01*
X54901Y-52986D01*
X54912Y-52963D01*
X56360Y-51508D02*
X56280Y-51394D01*
X56222Y-51508D02*
X56222Y-51268D01*
X56314Y-51268D01*
X56337Y-51280D01*
X56348Y-51291D01*
X56360Y-51314D01*
X56360Y-51348D01*
X56348Y-51371D01*
X56337Y-51382D01*
X56314Y-51394D01*
X56222Y-51394D01*
X56577Y-51268D02*
X56462Y-51268D01*
X56451Y-51382D01*
X56462Y-51371D01*
X56485Y-51360D01*
X56542Y-51360D01*
X56565Y-51371D01*
X56577Y-51382D01*
X56588Y-51405D01*
X56588Y-51462D01*
X56577Y-51485D01*
X56565Y-51497D01*
X56542Y-51508D01*
X56485Y-51508D01*
X56462Y-51497D01*
X56451Y-51485D01*
X52008Y-47539D02*
X51894Y-47619D01*
X52008Y-47677D02*
X51768Y-47677D01*
X51768Y-47585D01*
X51780Y-47562D01*
X51791Y-47551D01*
X51814Y-47539D01*
X51848Y-47539D01*
X51871Y-47551D01*
X51882Y-47562D01*
X51894Y-47585D01*
X51894Y-47677D01*
X52008Y-47311D02*
X52008Y-47448D01*
X52008Y-47379D02*
X51768Y-47379D01*
X51802Y-47402D01*
X51825Y-47425D01*
X51837Y-47448D01*
X51245Y-51485D02*
X51234Y-51497D01*
X51200Y-51508D01*
X51177Y-51508D01*
X51142Y-51497D01*
X51120Y-51474D01*
X51108Y-51451D01*
X51097Y-51405D01*
X51097Y-51371D01*
X51108Y-51325D01*
X51120Y-51302D01*
X51142Y-51280D01*
X51177Y-51268D01*
X51200Y-51268D01*
X51234Y-51280D01*
X51245Y-51291D01*
X51474Y-51508D02*
X51337Y-51508D01*
X51405Y-51508D02*
X51405Y-51268D01*
X51382Y-51302D01*
X51360Y-51325D01*
X51337Y-51337D01*
X51702Y-51508D02*
X51565Y-51508D01*
X51634Y-51508D02*
X51634Y-51268D01*
X51611Y-51302D01*
X51588Y-51325D01*
X51565Y-51337D01*
X52945Y-50585D02*
X52934Y-50597D01*
X52900Y-50608D01*
X52877Y-50608D01*
X52842Y-50597D01*
X52820Y-50574D01*
X52808Y-50551D01*
X52797Y-50505D01*
X52797Y-50471D01*
X52808Y-50425D01*
X52820Y-50402D01*
X52842Y-50380D01*
X52877Y-50368D01*
X52900Y-50368D01*
X52934Y-50380D01*
X52945Y-50391D01*
X53174Y-50608D02*
X53037Y-50608D01*
X53105Y-50608D02*
X53105Y-50368D01*
X53082Y-50402D01*
X53060Y-50425D01*
X53037Y-50437D01*
X53322Y-50368D02*
X53345Y-50368D01*
X53368Y-50380D01*
X53380Y-50391D01*
X53391Y-50414D01*
X53402Y-50460D01*
X53402Y-50517D01*
X53391Y-50562D01*
X53380Y-50585D01*
X53368Y-50597D01*
X53345Y-50608D01*
X53322Y-50608D01*
X53300Y-50597D01*
X53288Y-50585D01*
X53277Y-50562D01*
X53265Y-50517D01*
X53265Y-50460D01*
X53277Y-50414D01*
X53288Y-50391D01*
X53300Y-50380D01*
X53322Y-50368D01*
X40885Y-47639D02*
X40897Y-47651D01*
X40908Y-47685D01*
X40908Y-47708D01*
X40897Y-47742D01*
X40874Y-47765D01*
X40851Y-47777D01*
X40805Y-47788D01*
X40771Y-47788D01*
X40725Y-47777D01*
X40702Y-47765D01*
X40680Y-47742D01*
X40668Y-47708D01*
X40668Y-47685D01*
X40680Y-47651D01*
X40691Y-47639D01*
X40668Y-47559D02*
X40668Y-47399D01*
X40908Y-47502D01*
X40445Y-52908D02*
X40365Y-52794D01*
X40308Y-52908D02*
X40308Y-52668D01*
X40400Y-52668D01*
X40422Y-52680D01*
X40434Y-52691D01*
X40445Y-52714D01*
X40445Y-52748D01*
X40434Y-52771D01*
X40422Y-52782D01*
X40400Y-52794D01*
X40308Y-52794D01*
X40525Y-52668D02*
X40674Y-52668D01*
X40594Y-52760D01*
X40628Y-52760D01*
X40651Y-52771D01*
X40662Y-52782D01*
X40674Y-52805D01*
X40674Y-52862D01*
X40662Y-52885D01*
X40651Y-52897D01*
X40628Y-52908D01*
X40560Y-52908D01*
X40537Y-52897D01*
X40525Y-52885D01*
X40765Y-52691D02*
X40777Y-52680D01*
X40800Y-52668D01*
X40857Y-52668D01*
X40880Y-52680D01*
X40891Y-52691D01*
X40902Y-52714D01*
X40902Y-52737D01*
X40891Y-52771D01*
X40754Y-52908D01*
X40902Y-52908D01*
X41445Y-52908D02*
X41365Y-52794D01*
X41308Y-52908D02*
X41308Y-52668D01*
X41400Y-52668D01*
X41422Y-52680D01*
X41434Y-52691D01*
X41445Y-52714D01*
X41445Y-52748D01*
X41434Y-52771D01*
X41422Y-52782D01*
X41400Y-52794D01*
X41308Y-52794D01*
X41525Y-52668D02*
X41674Y-52668D01*
X41594Y-52760D01*
X41628Y-52760D01*
X41651Y-52771D01*
X41662Y-52782D01*
X41674Y-52805D01*
X41674Y-52862D01*
X41662Y-52885D01*
X41651Y-52897D01*
X41628Y-52908D01*
X41560Y-52908D01*
X41537Y-52897D01*
X41525Y-52885D01*
X41902Y-52908D02*
X41765Y-52908D01*
X41834Y-52908D02*
X41834Y-52668D01*
X41811Y-52702D01*
X41788Y-52725D01*
X41765Y-52737D01*
X43145Y-51308D02*
X43065Y-51194D01*
X43008Y-51308D02*
X43008Y-51068D01*
X43100Y-51068D01*
X43122Y-51080D01*
X43134Y-51091D01*
X43145Y-51114D01*
X43145Y-51148D01*
X43134Y-51171D01*
X43122Y-51182D01*
X43100Y-51194D01*
X43008Y-51194D01*
X43225Y-51068D02*
X43374Y-51068D01*
X43294Y-51160D01*
X43328Y-51160D01*
X43351Y-51171D01*
X43362Y-51182D01*
X43374Y-51205D01*
X43374Y-51262D01*
X43362Y-51285D01*
X43351Y-51297D01*
X43328Y-51308D01*
X43260Y-51308D01*
X43237Y-51297D01*
X43225Y-51285D01*
X43522Y-51068D02*
X43545Y-51068D01*
X43568Y-51080D01*
X43580Y-51091D01*
X43591Y-51114D01*
X43602Y-51160D01*
X43602Y-51217D01*
X43591Y-51262D01*
X43580Y-51285D01*
X43568Y-51297D01*
X43545Y-51308D01*
X43522Y-51308D01*
X43500Y-51297D01*
X43488Y-51285D01*
X43477Y-51262D01*
X43465Y-51217D01*
X43465Y-51160D01*
X43477Y-51114D01*
X43488Y-51091D01*
X43500Y-51080D01*
X43522Y-51068D01*
%LPC*%
G54D18*
X44395Y-50064D03*
X44650Y-50064D03*
X44905Y-50064D03*
X44905Y-49436D03*
X44650Y-49436D03*
X44395Y-49436D03*
G54D19*
X45125Y-50800D03*
X44275Y-50800D03*
G54D20*
X48200Y-50125D03*
X48200Y-49275D03*
G54D21*
X50100Y-49700D03*
X49100Y-50075D03*
X49100Y-49325D03*
X57200Y-49700D03*
X56200Y-50075D03*
X56200Y-49325D03*
G54D22*
X40800Y-53900D03*
X58400Y-53900D03*
X42100Y-53900D03*
G54D23*
X43100Y-53900D03*
X44100Y-53900D03*
X45100Y-53900D03*
X46100Y-53900D03*
X47100Y-53900D03*
X48100Y-53900D03*
X49100Y-53900D03*
X50100Y-53900D03*
X51100Y-53900D03*
X52100Y-53900D03*
X53100Y-53900D03*
X54100Y-53900D03*
X55100Y-53900D03*
X56100Y-53900D03*
X57100Y-53900D03*
G54D24*
X55560Y-48600D03*
X55310Y-48600D03*
X55050Y-48600D03*
X54800Y-48600D03*
X54540Y-48600D03*
X54285Y-48600D03*
X54030Y-48600D03*
X54030Y-50800D03*
X54285Y-50800D03*
X54540Y-50800D03*
X54800Y-50800D03*
X55055Y-50800D03*
X55310Y-50800D03*
X55565Y-50800D03*
X42760Y-48700D03*
X42510Y-48700D03*
X42250Y-48700D03*
X42000Y-48700D03*
X41740Y-48700D03*
X41485Y-48700D03*
X41230Y-48700D03*
X41230Y-50900D03*
X41485Y-50900D03*
X41740Y-50900D03*
X42000Y-50900D03*
X42255Y-50900D03*
X42510Y-50900D03*
X42765Y-50900D03*
G54D25*
X52250Y-48677D03*
X51750Y-48677D03*
X51250Y-48677D03*
X50750Y-48677D03*
X50750Y-50723D03*
X51250Y-50723D03*
X51750Y-50723D03*
X52250Y-50723D03*
X45850Y-50823D03*
X46350Y-50823D03*
X46850Y-50823D03*
X47350Y-50823D03*
X47350Y-48777D03*
X46850Y-48777D03*
X46350Y-48777D03*
X45850Y-48777D03*
G54D26*
X50500Y-52535D03*
X50500Y-51865D03*
X57500Y-52535D03*
X57500Y-51865D03*
X58500Y-52535D03*
X58500Y-51865D03*
X49500Y-52535D03*
X49500Y-51865D03*
X52500Y-52535D03*
X52500Y-51865D03*
G54D27*
X50535Y-47500D03*
X49865Y-47500D03*
X48465Y-47500D03*
X49135Y-47500D03*
G54D26*
X53500Y-51865D03*
X53500Y-52535D03*
X57500Y-50465D03*
X57500Y-51135D03*
G54D27*
X56835Y-48500D03*
X56165Y-48500D03*
X44365Y-48300D03*
X45035Y-48300D03*
X54535Y-47500D03*
X53865Y-47500D03*
G54D26*
X43500Y-49465D03*
X43500Y-50135D03*
G54D27*
X56835Y-46900D03*
X56165Y-46900D03*
X56165Y-47600D03*
X56835Y-47600D03*
G54D26*
X55600Y-52535D03*
X55600Y-51865D03*
X54600Y-51865D03*
X54600Y-52535D03*
X56500Y-51865D03*
X56500Y-52535D03*
G54D27*
X52365Y-47500D03*
X53035Y-47500D03*
G54D26*
X51500Y-52535D03*
X51500Y-51865D03*
X53100Y-49365D03*
X53100Y-50035D03*
G54D27*
X41935Y-47500D03*
X41265Y-47500D03*
G54D26*
X41200Y-52335D03*
X41200Y-51665D03*
X42200Y-51665D03*
X42200Y-52335D03*
X43300Y-52335D03*
X43300Y-51665D03*
M02*
