M48
INCH,TZ
T1C0.031
T2C0.039
T3C0.040
T4C0.049
T5C0.071
T6C0.089
%
G90
G05
T1
X087598Y-043504
X087598Y-051575
X088386Y-043504
X088386Y-051575
T2
X082874Y-047047
X082874Y-054921
X082874Y-062795
X083858Y-047047
X083858Y-054921
X083858Y-062795
X084843Y-047047
X084843Y-054921
X084843Y-062795
X091142Y-047047
X091142Y-054921
X091142Y-062795
X092126Y-047047
X092126Y-054921
X092126Y-062795
X093110Y-047047
X093110Y-054921
X093110Y-062795
T3
X087492Y-045441
X087492Y-046441
X087492Y-047441
X087492Y-048441
X087492Y-049441
X088189Y-059067
X088189Y-060067
X088189Y-061067
X088189Y-062067
X088189Y-063067
X088189Y-064067
X088189Y-065067
X088189Y-066067
X088189Y-067067
X088189Y-068067
X088189Y-069067
X088189Y-070067
X088492Y-045441
X088492Y-046441
X088492Y-047441
X088492Y-048441
X088492Y-049441
T4
X085709Y-067520
X085709Y-073425
X085709Y-079331
X093976Y-067520
X093976Y-073425
X093976Y-079331
T5
X081969Y-044094
X081969Y-051969
X081969Y-059843
X085748Y-044094
X085748Y-051969
X085748Y-059843
X090236Y-044094
X090236Y-051969
X090236Y-059843
X094016Y-044094
X094016Y-051969
X094016Y-059843
T6
X082008Y-067520
X082008Y-073425
X082008Y-079331
X083858Y-065591
X083858Y-068819
X083858Y-071496
X083858Y-074724
X083858Y-077402
X083858Y-080630
X090276Y-067520
X090276Y-073425
X090276Y-079331
X092126Y-065591
X092126Y-068819
X092126Y-071496
X092126Y-074724
X092126Y-077402
X092126Y-080630
T0
M30
