%FSLAX46Y46*%
G04 Gerber Fmt 4.6, Leading zero omitted, Abs format (unit mm)*
G04 Created by KiCad (PCBNEW (2014-09-02 BZR 5112)-product) date 2015-04-07 11:50:48 AM*
%MOMM*%
G01*
G04 APERTURE LIST*
%ADD10C,0.150000*%
%ADD11R,2.199640X0.599440*%
%ADD12R,1.143000X1.397000*%
%ADD13O,3.500000X5.000000*%
%ADD14O,2.000000X3.500000*%
%ADD15O,3.500000X3.500000*%
%ADD16R,1.998980X1.998980*%
%ADD17C,1.998980*%
%ADD18O,2.500000X3.500000*%
%ADD19C,1.750000*%
%ADD20R,1.400000X1.400000*%
%ADD21C,1.400000*%
%ADD22C,0.355600*%
%ADD23C,0.304800*%
%ADD24C,0.254000*%
G04 APERTURE END LIST*
D10*
D11*
X221401580Y-144405000D03*
X221401580Y-143135000D03*
X221401580Y-141865000D03*
X221401580Y-140595000D03*
X226598420Y-140595000D03*
X226598420Y-141865000D03*
X226598420Y-143135000D03*
X226598420Y-144405000D03*
D12*
X225079500Y-138500000D03*
X222920500Y-138500000D03*
X235079500Y-136500000D03*
X232920500Y-136500000D03*
X214079500Y-136250000D03*
X211920500Y-136250000D03*
D13*
X229300000Y-186500000D03*
D14*
X238700000Y-186500000D03*
D15*
X234000000Y-181600000D03*
X234000000Y-189800000D03*
D13*
X208300000Y-186500000D03*
D14*
X217700000Y-186500000D03*
D15*
X213000000Y-181600000D03*
X213000000Y-189800000D03*
D13*
X229300000Y-201500000D03*
D14*
X238700000Y-201500000D03*
D15*
X234000000Y-196600000D03*
X234000000Y-204800000D03*
D13*
X208300000Y-201500000D03*
D14*
X217700000Y-201500000D03*
D15*
X213000000Y-196600000D03*
X213000000Y-204800000D03*
D13*
X208300000Y-171500000D03*
D14*
X217700000Y-171500000D03*
D15*
X213000000Y-166600000D03*
X213000000Y-174800000D03*
D13*
X229300000Y-171500000D03*
D14*
X238700000Y-171500000D03*
D15*
X234000000Y-166600000D03*
X234000000Y-174800000D03*
D16*
X224000000Y-177970000D03*
D17*
X224000000Y-175430000D03*
X224000000Y-172890000D03*
X224000000Y-170350000D03*
X224000000Y-167810000D03*
X224000000Y-165270000D03*
X224000000Y-162730000D03*
X224000000Y-160190000D03*
X224000000Y-157650000D03*
X224000000Y-155110000D03*
X224000000Y-152570000D03*
X224000000Y-150030000D03*
X224770000Y-123040000D03*
X224770000Y-120500000D03*
X224770000Y-125580000D03*
X224770000Y-117960000D03*
D16*
X224770000Y-115420000D03*
D17*
X222230000Y-115420000D03*
X222230000Y-117960000D03*
X222230000Y-120500000D03*
X222230000Y-123040000D03*
X222230000Y-125580000D03*
D18*
X238800000Y-152000000D03*
X229200000Y-152000000D03*
D19*
X236500000Y-159500000D03*
X234000000Y-159500000D03*
X231500000Y-159500000D03*
D18*
X217800000Y-112000000D03*
X208200000Y-112000000D03*
D19*
X215500000Y-119500000D03*
X213000000Y-119500000D03*
X210500000Y-119500000D03*
D18*
X217800000Y-132000000D03*
X208200000Y-132000000D03*
D19*
X215500000Y-139500000D03*
X213000000Y-139500000D03*
X210500000Y-139500000D03*
D18*
X217800000Y-152000000D03*
X208200000Y-152000000D03*
D19*
X215500000Y-159500000D03*
X213000000Y-159500000D03*
X210500000Y-159500000D03*
D18*
X238800000Y-132000000D03*
X229200000Y-132000000D03*
D19*
X236500000Y-139500000D03*
X234000000Y-139500000D03*
X231500000Y-139500000D03*
D18*
X238800000Y-112000000D03*
X229200000Y-112000000D03*
D19*
X236500000Y-119500000D03*
X234000000Y-119500000D03*
X231500000Y-119500000D03*
D20*
X224500000Y-110500000D03*
D21*
X222500000Y-110500000D03*
D20*
X224500000Y-131000000D03*
D21*
X222500000Y-131000000D03*
D22*
X224700000Y-143962000D02*
X224700000Y-139933600D01*
X224700000Y-139933600D02*
X225079500Y-139554100D01*
X225079500Y-139554100D02*
X225079500Y-138500000D01*
X226598420Y-144405000D02*
X225143000Y-144405000D01*
X225143000Y-144405000D02*
X224700000Y-143962000D01*
X225875200Y-144405000D02*
X225875200Y-171014800D01*
X225875200Y-171014800D02*
X224000000Y-172890000D01*
X226598400Y-144405000D02*
X225875200Y-144405000D01*
X224770000Y-125580000D02*
X222230000Y-125580000D01*
X225079500Y-137318600D02*
X225687600Y-136710500D01*
X225687600Y-136710500D02*
X225687600Y-126497600D01*
X225687600Y-126497600D02*
X224770000Y-125580000D01*
X225079500Y-138500000D02*
X225079500Y-137318600D01*
X222920500Y-138500000D02*
X222100000Y-138500000D01*
X222100000Y-138500000D02*
X221401580Y-139198420D01*
X221401580Y-139198420D02*
X221401580Y-140595000D01*
X222920500Y-138500000D02*
X222920500Y-137318600D01*
X222500000Y-131000000D02*
X222500000Y-136898100D01*
X222500000Y-136898100D02*
X222920500Y-137318600D01*
X222230000Y-115420000D02*
X223287600Y-115420000D01*
X224770000Y-115420000D02*
X223287600Y-115420000D01*
D23*
X221800001Y-130300001D02*
X222500000Y-131000000D01*
X219425000Y-127925000D02*
X221800001Y-130300001D01*
X219425000Y-118225000D02*
X219425000Y-127925000D01*
X222230000Y-115420000D02*
X219425000Y-118225000D01*
D22*
X221401580Y-144405000D02*
X221401580Y-149971580D01*
X221401580Y-149971580D02*
X224000000Y-152570000D01*
X224000000Y-152570000D02*
X223970000Y-152570000D01*
X213000000Y-139500000D02*
X215500000Y-139500000D01*
X230365000Y-143135000D02*
X226598420Y-143135000D01*
X234000000Y-139500000D02*
X230365000Y-143135000D01*
X234000000Y-139500000D02*
X236500000Y-139500000D01*
D23*
X236500000Y-139500000D02*
X236238300Y-139761700D01*
X222230000Y-123040000D02*
X220816508Y-123040000D01*
X220816508Y-123040000D02*
X220773309Y-123083199D01*
X220773309Y-123083199D02*
X220773309Y-126268509D01*
X220773309Y-126268509D02*
X224500000Y-129995200D01*
X224500000Y-129995200D02*
X224500000Y-131000000D01*
D22*
X213000000Y-181600000D02*
X213000000Y-179367100D01*
X224000000Y-165270000D02*
X220530400Y-168739600D01*
X220530400Y-168739600D02*
X220530400Y-171836700D01*
X220530400Y-171836700D02*
X213000000Y-179367100D01*
D23*
X224000000Y-175430000D02*
X223930000Y-175500000D01*
X223930000Y-175500000D02*
X222700000Y-175500000D01*
X222700000Y-175500000D02*
X220250000Y-177950000D01*
X220250000Y-177950000D02*
X220250000Y-192000000D01*
X220250000Y-192000000D02*
X215650000Y-196600000D01*
X215650000Y-196600000D02*
X213000000Y-196600000D01*
X224000000Y-175430000D02*
X223805600Y-175430000D01*
X224000000Y-192250000D02*
X228350000Y-196600000D01*
X228350000Y-196600000D02*
X234000000Y-196600000D01*
X224000000Y-177970000D02*
X224000000Y-192250000D01*
X213000000Y-166600000D02*
X213000000Y-164392500D01*
X215500000Y-159500000D02*
X215500000Y-161892500D01*
X215500000Y-161892500D02*
X213000000Y-164392500D01*
X234000000Y-166600000D02*
X234000000Y-164392500D01*
X236500000Y-159500000D02*
X236500000Y-161892500D01*
X236500000Y-161892500D02*
X234000000Y-164392500D01*
X221401580Y-141865000D02*
X219065000Y-141865000D01*
X219065000Y-141865000D02*
X217500000Y-140300000D01*
X217500000Y-140300000D02*
X217500000Y-136600000D01*
X217500000Y-136600000D02*
X214900000Y-134000000D01*
X214900000Y-134000000D02*
X210700000Y-134000000D01*
X208300000Y-136400000D02*
X208300000Y-142800000D01*
X210700000Y-134000000D02*
X208300000Y-136400000D01*
X208300000Y-142800000D02*
X213000000Y-147500000D01*
X213000000Y-147500000D02*
X213000000Y-158262564D01*
X213000000Y-158262564D02*
X213000000Y-159500000D01*
X221401580Y-143135000D02*
X214135000Y-143135000D01*
X214135000Y-143135000D02*
X210500000Y-139500000D01*
X211920500Y-136250000D02*
X211920500Y-138079500D01*
X211920500Y-138079500D02*
X210500000Y-139500000D01*
X210920500Y-139920500D02*
X210500000Y-139500000D01*
X234000000Y-159500000D02*
X234000000Y-147300000D01*
X234000000Y-147300000D02*
X238800000Y-142500000D01*
X238800000Y-142500000D02*
X238800000Y-137400000D01*
X238800000Y-137400000D02*
X235800000Y-134400000D01*
X235800000Y-134400000D02*
X232188900Y-134400000D01*
X232188900Y-134400000D02*
X226598420Y-139990480D01*
X226598420Y-139990480D02*
X226598420Y-140595000D01*
X226598420Y-141865000D02*
X229135000Y-141865000D01*
X229135000Y-141865000D02*
X231500000Y-139500000D01*
X232920500Y-136500000D02*
X232920500Y-138079500D01*
X232920500Y-138079500D02*
X231500000Y-139500000D01*
X231420500Y-139579500D02*
X231500000Y-139500000D01*
D22*
X231500000Y-139650900D02*
X231500000Y-139500000D01*
D24*
G36*
X242569000Y-206569000D02*
X240481800Y-206569000D01*
X240481800Y-152542744D01*
X240481800Y-151457256D01*
X240481800Y-132542744D01*
X240481800Y-131457256D01*
X240481800Y-112542744D01*
X240481800Y-111457256D01*
X240353781Y-110813659D01*
X239989212Y-110268044D01*
X239443597Y-109903475D01*
X238800000Y-109775456D01*
X238156403Y-109903475D01*
X237610788Y-110268044D01*
X237246219Y-110813659D01*
X237118200Y-111457256D01*
X237118200Y-112542744D01*
X237246219Y-113186341D01*
X237610788Y-113731956D01*
X238156403Y-114096525D01*
X238800000Y-114224544D01*
X239443597Y-114096525D01*
X239989212Y-113731956D01*
X240353781Y-113186341D01*
X240481800Y-112542744D01*
X240481800Y-131457256D01*
X240353781Y-130813659D01*
X239989212Y-130268044D01*
X239443597Y-129903475D01*
X238800000Y-129775456D01*
X238156403Y-129903475D01*
X237807027Y-130136921D01*
X237807027Y-119241202D01*
X237608497Y-118760724D01*
X237241209Y-118392795D01*
X236761079Y-118193427D01*
X236241202Y-118192973D01*
X235760724Y-118391503D01*
X235392795Y-118758791D01*
X235249894Y-119102931D01*
X235108497Y-118760724D01*
X234741209Y-118392795D01*
X234261079Y-118193427D01*
X233741202Y-118192973D01*
X233260724Y-118391503D01*
X232892795Y-118758791D01*
X232866334Y-118822515D01*
X232815953Y-118700884D01*
X232562060Y-118617545D01*
X232382455Y-118797150D01*
X232382455Y-118437940D01*
X232299116Y-118184047D01*
X231734694Y-117978410D01*
X231134542Y-118004421D01*
X230881800Y-118109109D01*
X230881800Y-112542744D01*
X230881800Y-111457256D01*
X230753781Y-110813659D01*
X230389212Y-110268044D01*
X229843597Y-109903475D01*
X229200000Y-109775456D01*
X228556403Y-109903475D01*
X228010788Y-110268044D01*
X227646219Y-110813659D01*
X227518200Y-111457256D01*
X227518200Y-112542744D01*
X227646219Y-113186341D01*
X228010788Y-113731956D01*
X228556403Y-114096525D01*
X229200000Y-114224544D01*
X229843597Y-114096525D01*
X230389212Y-113731956D01*
X230753781Y-113186341D01*
X230881800Y-112542744D01*
X230881800Y-118109109D01*
X230700884Y-118184047D01*
X230617545Y-118437940D01*
X231500000Y-119320395D01*
X232382455Y-118437940D01*
X232382455Y-118797150D01*
X231679605Y-119500000D01*
X232562060Y-120382455D01*
X232815953Y-120299116D01*
X232862940Y-120170148D01*
X232891503Y-120239276D01*
X233258791Y-120607205D01*
X233738921Y-120806573D01*
X234258798Y-120807027D01*
X234739276Y-120608497D01*
X235107205Y-120241209D01*
X235250105Y-119897068D01*
X235391503Y-120239276D01*
X235758791Y-120607205D01*
X236238921Y-120806573D01*
X236758798Y-120807027D01*
X237239276Y-120608497D01*
X237607205Y-120241209D01*
X237806573Y-119761079D01*
X237807027Y-119241202D01*
X237807027Y-130136921D01*
X237610788Y-130268044D01*
X237246219Y-130813659D01*
X237118200Y-131457256D01*
X237118200Y-132542744D01*
X237246219Y-133186341D01*
X237610788Y-133731956D01*
X238156403Y-134096525D01*
X238800000Y-134224544D01*
X239443597Y-134096525D01*
X239989212Y-133731956D01*
X240353781Y-133186341D01*
X240481800Y-132542744D01*
X240481800Y-151457256D01*
X240353781Y-150813659D01*
X239989212Y-150268044D01*
X239443597Y-149903475D01*
X239384201Y-149891660D01*
X239384201Y-137400000D01*
X239339731Y-137176437D01*
X239339730Y-137176436D01*
X239213092Y-136986908D01*
X236213092Y-133986908D01*
X236023564Y-133860270D01*
X235800000Y-133815800D01*
X232382455Y-133815800D01*
X232382455Y-120562060D01*
X231500000Y-119679605D01*
X231320395Y-119859210D01*
X231320395Y-119500000D01*
X230437940Y-118617545D01*
X230184047Y-118700884D01*
X229978410Y-119265306D01*
X230004421Y-119865458D01*
X230184047Y-120299116D01*
X230437940Y-120382455D01*
X231320395Y-119500000D01*
X231320395Y-119859210D01*
X230617545Y-120562060D01*
X230700884Y-120815953D01*
X231265306Y-121021590D01*
X231865458Y-120995579D01*
X232299116Y-120815953D01*
X232382455Y-120562060D01*
X232382455Y-133815800D01*
X232188905Y-133815800D01*
X232188900Y-133815799D01*
X231965337Y-133860269D01*
X231775808Y-133986908D01*
X230881800Y-134880916D01*
X230881800Y-132542744D01*
X230881800Y-131457256D01*
X230753781Y-130813659D01*
X230389212Y-130268044D01*
X229843597Y-129903475D01*
X229200000Y-129775456D01*
X228556403Y-129903475D01*
X228010788Y-130268044D01*
X227646219Y-130813659D01*
X227518200Y-131457256D01*
X227518200Y-132542744D01*
X227646219Y-133186341D01*
X228010788Y-133731956D01*
X228556403Y-134096525D01*
X229200000Y-134224544D01*
X229843597Y-134096525D01*
X230389212Y-133731956D01*
X230753781Y-133186341D01*
X230881800Y-132542744D01*
X230881800Y-134880916D01*
X226415401Y-139347315D01*
X226415401Y-123304418D01*
X226415401Y-120764418D01*
X226391341Y-120114623D01*
X226188965Y-119626042D01*
X225922163Y-119527443D01*
X225742557Y-119707048D01*
X225742557Y-119347837D01*
X225699009Y-119230000D01*
X225742557Y-119112163D01*
X224770000Y-118139605D01*
X224590395Y-118319210D01*
X223797443Y-119112163D01*
X223840990Y-119230000D01*
X223797443Y-119347837D01*
X224770000Y-120320395D01*
X225742557Y-119347837D01*
X225742557Y-119707048D01*
X224949605Y-120500000D01*
X225922163Y-121472557D01*
X226188965Y-121373958D01*
X226415401Y-120764418D01*
X226415401Y-123304418D01*
X226391341Y-122654623D01*
X226188965Y-122166042D01*
X225922163Y-122067443D01*
X225742557Y-122247048D01*
X225742557Y-121887837D01*
X225699009Y-121770000D01*
X225742557Y-121652163D01*
X224770000Y-120679605D01*
X224590395Y-120859210D01*
X224590395Y-120500000D01*
X223617837Y-119527443D01*
X223500000Y-119570990D01*
X223382163Y-119527443D01*
X223202557Y-119707048D01*
X223202557Y-119347837D01*
X223159009Y-119230000D01*
X223202557Y-119112163D01*
X222230000Y-118139605D01*
X221257443Y-119112163D01*
X221300990Y-119230000D01*
X221257443Y-119347837D01*
X222230000Y-120320395D01*
X223202557Y-119347837D01*
X223202557Y-119707048D01*
X222409605Y-120500000D01*
X223382163Y-121472557D01*
X223500000Y-121429009D01*
X223617837Y-121472557D01*
X224590395Y-120500000D01*
X224590395Y-120859210D01*
X223797443Y-121652163D01*
X223840990Y-121770000D01*
X223797443Y-121887837D01*
X224770000Y-122860395D01*
X225742557Y-121887837D01*
X225742557Y-122247048D01*
X224949605Y-123040000D01*
X225922163Y-124012557D01*
X226188965Y-123913958D01*
X226415401Y-123304418D01*
X226415401Y-139347315D01*
X226185328Y-139577388D01*
X226058690Y-139766916D01*
X226039482Y-139863480D01*
X225591851Y-139863480D01*
X225642697Y-139787384D01*
X225673942Y-139630300D01*
X225736890Y-139630300D01*
X225895595Y-139564563D01*
X226017062Y-139443095D01*
X226082800Y-139284391D01*
X226082800Y-139112610D01*
X226082800Y-137715610D01*
X226017063Y-137556905D01*
X225895595Y-137435438D01*
X225845511Y-137414692D01*
X226118652Y-137141552D01*
X226250797Y-136943784D01*
X226297199Y-136710500D01*
X226297200Y-136710500D01*
X226297200Y-126497600D01*
X226250797Y-126264316D01*
X226118652Y-126066548D01*
X226118652Y-126066547D01*
X226118011Y-126065906D01*
X226201041Y-125865950D01*
X226201538Y-125296548D01*
X225984096Y-124770298D01*
X225651887Y-124437509D01*
X225742557Y-124192163D01*
X224770000Y-123219605D01*
X224590395Y-123399210D01*
X224590395Y-123040000D01*
X223617837Y-122067443D01*
X223500000Y-122110990D01*
X223382163Y-122067443D01*
X223202557Y-122247048D01*
X223202557Y-121887837D01*
X223159009Y-121770000D01*
X223202557Y-121652163D01*
X222230000Y-120679605D01*
X222050395Y-120859210D01*
X222050395Y-120500000D01*
X221077837Y-119527443D01*
X220811035Y-119626042D01*
X220584599Y-120235582D01*
X220608659Y-120885377D01*
X220811035Y-121373958D01*
X221077837Y-121472557D01*
X222050395Y-120500000D01*
X222050395Y-120859210D01*
X221257443Y-121652163D01*
X221300990Y-121770000D01*
X221257443Y-121887837D01*
X222230000Y-122860395D01*
X223202557Y-121887837D01*
X223202557Y-122247048D01*
X222409605Y-123040000D01*
X223382163Y-124012557D01*
X223500000Y-123969009D01*
X223617837Y-124012557D01*
X224590395Y-123040000D01*
X224590395Y-123399210D01*
X223797443Y-124192163D01*
X223888235Y-124437841D01*
X223557319Y-124768181D01*
X223500129Y-124905909D01*
X223444096Y-124770298D01*
X223111887Y-124437509D01*
X223202557Y-124192163D01*
X222230000Y-123219605D01*
X222050395Y-123399210D01*
X222050395Y-123040000D01*
X221077837Y-122067443D01*
X220811035Y-122166042D01*
X220584599Y-122775582D01*
X220608659Y-123425377D01*
X220811035Y-123913958D01*
X221077837Y-124012557D01*
X222050395Y-123040000D01*
X222050395Y-123399210D01*
X221257443Y-124192163D01*
X221348235Y-124437841D01*
X221017319Y-124768181D01*
X220798959Y-125294050D01*
X220798462Y-125863452D01*
X221015904Y-126389702D01*
X221418181Y-126792681D01*
X221944050Y-127011041D01*
X222513452Y-127011538D01*
X223039702Y-126794096D01*
X223442681Y-126391819D01*
X223499870Y-126254090D01*
X223555904Y-126389702D01*
X223958181Y-126792681D01*
X224484050Y-127011041D01*
X225053452Y-127011538D01*
X225078000Y-127001394D01*
X225078000Y-129665000D01*
X224785750Y-129665000D01*
X224627000Y-129823750D01*
X224627000Y-130873000D01*
X224647000Y-130873000D01*
X224647000Y-131127000D01*
X224627000Y-131127000D01*
X224627000Y-132176250D01*
X224785750Y-132335000D01*
X225078000Y-132335000D01*
X225078000Y-136457996D01*
X224648448Y-136887548D01*
X224516303Y-137085316D01*
X224469900Y-137318600D01*
X224469900Y-137369700D01*
X224422110Y-137369700D01*
X224263405Y-137435437D01*
X224141938Y-137556905D01*
X224076200Y-137715609D01*
X224076200Y-137887390D01*
X224076200Y-139284390D01*
X224141937Y-139443095D01*
X224241888Y-139543045D01*
X224136803Y-139700316D01*
X224090400Y-139933600D01*
X224090400Y-143962000D01*
X224136803Y-144195284D01*
X224268948Y-144393052D01*
X224711948Y-144836053D01*
X224830501Y-144915267D01*
X224909716Y-144968197D01*
X224909717Y-144968197D01*
X225143000Y-145014600D01*
X225197822Y-145014600D01*
X225254005Y-145070782D01*
X225265600Y-145075584D01*
X225265600Y-149344947D01*
X225214096Y-149220298D01*
X224811819Y-148817319D01*
X224285950Y-148598959D01*
X223716548Y-148598462D01*
X223190298Y-148815904D01*
X222787319Y-149218181D01*
X222568959Y-149744050D01*
X222568494Y-150276390D01*
X222011180Y-149719076D01*
X222011180Y-145136520D01*
X222587290Y-145136520D01*
X222745995Y-145070783D01*
X222867462Y-144949315D01*
X222933200Y-144790611D01*
X222933200Y-144618830D01*
X222933200Y-144019390D01*
X222867463Y-143860685D01*
X222776777Y-143770000D01*
X222867462Y-143679315D01*
X222933200Y-143520611D01*
X222933200Y-143348830D01*
X222933200Y-142749390D01*
X222867463Y-142590685D01*
X222776777Y-142500000D01*
X222867462Y-142409315D01*
X222933200Y-142250611D01*
X222933200Y-142078830D01*
X222933200Y-141479390D01*
X222867463Y-141320685D01*
X222776777Y-141230000D01*
X222867462Y-141139315D01*
X222933200Y-140980611D01*
X222933200Y-140808830D01*
X222933200Y-140209390D01*
X222867463Y-140050685D01*
X222745995Y-139929218D01*
X222587291Y-139863480D01*
X222415510Y-139863480D01*
X222011180Y-139863480D01*
X222011180Y-139471337D01*
X222104405Y-139564562D01*
X222263109Y-139630300D01*
X222434890Y-139630300D01*
X223577890Y-139630300D01*
X223736595Y-139564563D01*
X223858062Y-139443095D01*
X223923800Y-139284391D01*
X223923800Y-139112610D01*
X223923800Y-137715610D01*
X223858063Y-137556905D01*
X223736595Y-137435438D01*
X223577891Y-137369700D01*
X223530100Y-137369700D01*
X223530100Y-137318600D01*
X223483697Y-137085316D01*
X223351552Y-136887548D01*
X223109600Y-136645596D01*
X223109600Y-131972727D01*
X223140275Y-131960053D01*
X223196959Y-131903467D01*
X223261673Y-132059699D01*
X223440302Y-132238327D01*
X223673691Y-132335000D01*
X224214250Y-132335000D01*
X224373000Y-132176250D01*
X224373000Y-131127000D01*
X224353000Y-131127000D01*
X224353000Y-130873000D01*
X224373000Y-130873000D01*
X224373000Y-129823750D01*
X224214250Y-129665000D01*
X223673691Y-129665000D01*
X223440302Y-129761673D01*
X223261673Y-129940301D01*
X223197065Y-130096277D01*
X223141950Y-130041066D01*
X222726117Y-129868397D01*
X222275859Y-129868004D01*
X222218067Y-129891883D01*
X222213093Y-129886909D01*
X220009200Y-127683016D01*
X220009200Y-118466984D01*
X220591597Y-117884586D01*
X220608659Y-118345377D01*
X220811035Y-118833958D01*
X221077837Y-118932557D01*
X222050395Y-117960000D01*
X222036252Y-117945857D01*
X222215857Y-117766252D01*
X222230000Y-117780395D01*
X223202557Y-116807837D01*
X223111764Y-116562158D01*
X223338710Y-116335608D01*
X223338710Y-116505380D01*
X223404447Y-116664085D01*
X223525915Y-116785552D01*
X223572052Y-116804663D01*
X223503554Y-116873162D01*
X223617835Y-116987443D01*
X223500000Y-117030990D01*
X223382163Y-116987443D01*
X222409605Y-117960000D01*
X223382163Y-118932557D01*
X223500000Y-118889009D01*
X223617837Y-118932557D01*
X224590395Y-117960000D01*
X224576252Y-117945857D01*
X224755857Y-117766252D01*
X224770000Y-117780395D01*
X224784142Y-117766252D01*
X224963747Y-117945857D01*
X224949605Y-117960000D01*
X225922163Y-118932557D01*
X226188965Y-118833958D01*
X226415401Y-118224418D01*
X226391341Y-117574623D01*
X226188965Y-117086042D01*
X225922164Y-116987443D01*
X226036446Y-116873162D01*
X225967947Y-116804663D01*
X226014085Y-116785553D01*
X226135552Y-116664085D01*
X226201290Y-116505381D01*
X226201290Y-116333600D01*
X226201290Y-114334620D01*
X226135553Y-114175915D01*
X226014085Y-114054448D01*
X225855381Y-113988710D01*
X225683600Y-113988710D01*
X225631800Y-113988710D01*
X225631800Y-111285891D01*
X225631800Y-111114110D01*
X225631800Y-109714110D01*
X225566063Y-109555405D01*
X225444595Y-109433938D01*
X225285891Y-109368200D01*
X225114110Y-109368200D01*
X223714110Y-109368200D01*
X223555405Y-109433937D01*
X223455393Y-109533949D01*
X223370918Y-109449474D01*
X223255668Y-109564723D01*
X223193831Y-109328958D01*
X222692878Y-109152581D01*
X222162560Y-109181336D01*
X221806169Y-109328958D01*
X221744331Y-109564725D01*
X222500000Y-110320395D01*
X222514142Y-110306252D01*
X222693747Y-110485857D01*
X222679605Y-110500000D01*
X222693747Y-110514142D01*
X222514142Y-110693747D01*
X222500000Y-110679605D01*
X222320395Y-110859210D01*
X222320395Y-110500000D01*
X221564725Y-109744331D01*
X221328958Y-109806169D01*
X221152581Y-110307122D01*
X221181336Y-110837440D01*
X221328958Y-111193831D01*
X221564725Y-111255669D01*
X222320395Y-110500000D01*
X222320395Y-110859210D01*
X221744331Y-111435275D01*
X221806169Y-111671042D01*
X222307122Y-111847419D01*
X222837440Y-111818664D01*
X223193831Y-111671042D01*
X223255668Y-111435276D01*
X223255669Y-111435277D01*
X223370918Y-111550526D01*
X223455393Y-111466050D01*
X223555405Y-111566062D01*
X223714109Y-111631800D01*
X223885890Y-111631800D01*
X225285890Y-111631800D01*
X225444595Y-111566063D01*
X225566062Y-111444595D01*
X225631800Y-111285891D01*
X225631800Y-113988710D01*
X223684620Y-113988710D01*
X223525915Y-114054447D01*
X223404448Y-114175915D01*
X223338710Y-114334619D01*
X223338710Y-114504728D01*
X223255669Y-114421542D01*
X223041819Y-114207319D01*
X222515950Y-113988959D01*
X221946548Y-113988462D01*
X221420298Y-114205904D01*
X221017319Y-114608181D01*
X220798959Y-115134050D01*
X220798462Y-115703452D01*
X220892580Y-115931235D01*
X219481800Y-117342015D01*
X219481800Y-112542744D01*
X219481800Y-111457256D01*
X219353781Y-110813659D01*
X218989212Y-110268044D01*
X218443597Y-109903475D01*
X217800000Y-109775456D01*
X217156403Y-109903475D01*
X216610788Y-110268044D01*
X216246219Y-110813659D01*
X216118200Y-111457256D01*
X216118200Y-112542744D01*
X216246219Y-113186341D01*
X216610788Y-113731956D01*
X217156403Y-114096525D01*
X217800000Y-114224544D01*
X218443597Y-114096525D01*
X218989212Y-113731956D01*
X219353781Y-113186341D01*
X219481800Y-112542744D01*
X219481800Y-117342015D01*
X219011908Y-117811908D01*
X218885270Y-118001436D01*
X218840800Y-118225000D01*
X218840800Y-127925000D01*
X218885270Y-128148564D01*
X219011908Y-128338092D01*
X221386909Y-130713093D01*
X221391664Y-130717848D01*
X221368397Y-130773883D01*
X221368004Y-131224141D01*
X221539947Y-131640275D01*
X221858050Y-131958934D01*
X221890400Y-131972366D01*
X221890400Y-136898100D01*
X221936803Y-137131384D01*
X222068948Y-137329152D01*
X222154488Y-137414692D01*
X222104405Y-137435437D01*
X221982938Y-137556905D01*
X221917200Y-137715609D01*
X221917200Y-137887390D01*
X221917200Y-137926761D01*
X221866716Y-137936803D01*
X221668948Y-138068948D01*
X220970528Y-138767368D01*
X220838383Y-138965136D01*
X220791980Y-139198420D01*
X220791980Y-139863480D01*
X220215870Y-139863480D01*
X220057165Y-139929217D01*
X219935698Y-140050685D01*
X219869960Y-140209389D01*
X219869960Y-140381170D01*
X219869960Y-140980610D01*
X219935697Y-141139315D01*
X220026382Y-141229999D01*
X219975582Y-141280800D01*
X219481800Y-141280800D01*
X219481800Y-132542744D01*
X219481800Y-131457256D01*
X219353781Y-130813659D01*
X218989212Y-130268044D01*
X218443597Y-129903475D01*
X217800000Y-129775456D01*
X217156403Y-129903475D01*
X216807027Y-130136921D01*
X216807027Y-119241202D01*
X216608497Y-118760724D01*
X216241209Y-118392795D01*
X215761079Y-118193427D01*
X215241202Y-118192973D01*
X214760724Y-118391503D01*
X214392795Y-118758791D01*
X214249894Y-119102931D01*
X214108497Y-118760724D01*
X213741209Y-118392795D01*
X213261079Y-118193427D01*
X212741202Y-118192973D01*
X212260724Y-118391503D01*
X211892795Y-118758791D01*
X211866334Y-118822515D01*
X211815953Y-118700884D01*
X211562060Y-118617545D01*
X211382455Y-118797150D01*
X211382455Y-118437940D01*
X211299116Y-118184047D01*
X210734694Y-117978410D01*
X210134542Y-118004421D01*
X209881800Y-118109109D01*
X209881800Y-112542744D01*
X209881800Y-111457256D01*
X209753781Y-110813659D01*
X209389212Y-110268044D01*
X208843597Y-109903475D01*
X208200000Y-109775456D01*
X207556403Y-109903475D01*
X207010788Y-110268044D01*
X206646219Y-110813659D01*
X206518200Y-111457256D01*
X206518200Y-112542744D01*
X206646219Y-113186341D01*
X207010788Y-113731956D01*
X207556403Y-114096525D01*
X208200000Y-114224544D01*
X208843597Y-114096525D01*
X209389212Y-113731956D01*
X209753781Y-113186341D01*
X209881800Y-112542744D01*
X209881800Y-118109109D01*
X209700884Y-118184047D01*
X209617545Y-118437940D01*
X210500000Y-119320395D01*
X211382455Y-118437940D01*
X211382455Y-118797150D01*
X210679605Y-119500000D01*
X211562060Y-120382455D01*
X211815953Y-120299116D01*
X211862940Y-120170148D01*
X211891503Y-120239276D01*
X212258791Y-120607205D01*
X212738921Y-120806573D01*
X213258798Y-120807027D01*
X213739276Y-120608497D01*
X214107205Y-120241209D01*
X214250105Y-119897068D01*
X214391503Y-120239276D01*
X214758791Y-120607205D01*
X215238921Y-120806573D01*
X215758798Y-120807027D01*
X216239276Y-120608497D01*
X216607205Y-120241209D01*
X216806573Y-119761079D01*
X216807027Y-119241202D01*
X216807027Y-130136921D01*
X216610788Y-130268044D01*
X216246219Y-130813659D01*
X216118200Y-131457256D01*
X216118200Y-132542744D01*
X216246219Y-133186341D01*
X216610788Y-133731956D01*
X217156403Y-134096525D01*
X217800000Y-134224544D01*
X218443597Y-134096525D01*
X218989212Y-133731956D01*
X219353781Y-133186341D01*
X219481800Y-132542744D01*
X219481800Y-141280800D01*
X219306984Y-141280800D01*
X218084200Y-140058016D01*
X218084200Y-136600000D01*
X218039730Y-136376437D01*
X218039730Y-136376436D01*
X217913092Y-136186908D01*
X215313092Y-133586908D01*
X215123564Y-133460270D01*
X214900000Y-133415800D01*
X211382455Y-133415800D01*
X211382455Y-120562060D01*
X210500000Y-119679605D01*
X210320395Y-119859210D01*
X210320395Y-119500000D01*
X209437940Y-118617545D01*
X209184047Y-118700884D01*
X208978410Y-119265306D01*
X209004421Y-119865458D01*
X209184047Y-120299116D01*
X209437940Y-120382455D01*
X210320395Y-119500000D01*
X210320395Y-119859210D01*
X209617545Y-120562060D01*
X209700884Y-120815953D01*
X210265306Y-121021590D01*
X210865458Y-120995579D01*
X211299116Y-120815953D01*
X211382455Y-120562060D01*
X211382455Y-133415800D01*
X210700005Y-133415800D01*
X210700000Y-133415799D01*
X210476437Y-133460269D01*
X210413547Y-133502290D01*
X210286908Y-133586908D01*
X210286905Y-133586911D01*
X209881800Y-133992016D01*
X209881800Y-132542744D01*
X209881800Y-131457256D01*
X209753781Y-130813659D01*
X209389212Y-130268044D01*
X208843597Y-129903475D01*
X208200000Y-129775456D01*
X207556403Y-129903475D01*
X207010788Y-130268044D01*
X206646219Y-130813659D01*
X206518200Y-131457256D01*
X206518200Y-132542744D01*
X206646219Y-133186341D01*
X207010788Y-133731956D01*
X207556403Y-134096525D01*
X208200000Y-134224544D01*
X208843597Y-134096525D01*
X209389212Y-133731956D01*
X209753781Y-133186341D01*
X209881800Y-132542744D01*
X209881800Y-133992016D01*
X207886908Y-135986908D01*
X207760270Y-136176436D01*
X207715800Y-136400000D01*
X207715800Y-142800000D01*
X207760270Y-143023564D01*
X207886908Y-143213092D01*
X212415800Y-147741984D01*
X212415800Y-158262564D01*
X212415800Y-158327426D01*
X212260724Y-158391503D01*
X211892795Y-158758791D01*
X211866334Y-158822515D01*
X211815953Y-158700884D01*
X211562060Y-158617545D01*
X211382455Y-158797150D01*
X211382455Y-158437940D01*
X211299116Y-158184047D01*
X210734694Y-157978410D01*
X210134542Y-158004421D01*
X209881800Y-158109109D01*
X209881800Y-152542744D01*
X209881800Y-151457256D01*
X209753781Y-150813659D01*
X209389212Y-150268044D01*
X208843597Y-149903475D01*
X208200000Y-149775456D01*
X207556403Y-149903475D01*
X207010788Y-150268044D01*
X206646219Y-150813659D01*
X206518200Y-151457256D01*
X206518200Y-152542744D01*
X206646219Y-153186341D01*
X207010788Y-153731956D01*
X207556403Y-154096525D01*
X208200000Y-154224544D01*
X208843597Y-154096525D01*
X209389212Y-153731956D01*
X209753781Y-153186341D01*
X209881800Y-152542744D01*
X209881800Y-158109109D01*
X209700884Y-158184047D01*
X209617545Y-158437940D01*
X210500000Y-159320395D01*
X211382455Y-158437940D01*
X211382455Y-158797150D01*
X210679605Y-159500000D01*
X211562060Y-160382455D01*
X211815953Y-160299116D01*
X211862940Y-160170148D01*
X211891503Y-160239276D01*
X212258791Y-160607205D01*
X212738921Y-160806573D01*
X213258798Y-160807027D01*
X213739276Y-160608497D01*
X214107205Y-160241209D01*
X214250105Y-159897068D01*
X214391503Y-160239276D01*
X214758791Y-160607205D01*
X214915800Y-160672401D01*
X214915800Y-161650516D01*
X212586908Y-163979408D01*
X212460270Y-164168936D01*
X212415800Y-164392500D01*
X212415800Y-164525902D01*
X212122317Y-164584280D01*
X211414490Y-165057234D01*
X211382455Y-165105177D01*
X211382455Y-160562060D01*
X210500000Y-159679605D01*
X210320395Y-159859210D01*
X210320395Y-159500000D01*
X209437940Y-158617545D01*
X209184047Y-158700884D01*
X208978410Y-159265306D01*
X209004421Y-159865458D01*
X209184047Y-160299116D01*
X209437940Y-160382455D01*
X210320395Y-159500000D01*
X210320395Y-159859210D01*
X209617545Y-160562060D01*
X209700884Y-160815953D01*
X210265306Y-161021590D01*
X210865458Y-160995579D01*
X211299116Y-160815953D01*
X211382455Y-160562060D01*
X211382455Y-165105177D01*
X210941536Y-165765061D01*
X210775456Y-166600000D01*
X210941536Y-167434939D01*
X211414490Y-168142766D01*
X212122317Y-168615720D01*
X212957256Y-168781800D01*
X213042744Y-168781800D01*
X213877683Y-168615720D01*
X214585510Y-168142766D01*
X215058464Y-167434939D01*
X215224544Y-166600000D01*
X215058464Y-165765061D01*
X214585510Y-165057234D01*
X213877683Y-164584280D01*
X213674766Y-164543917D01*
X215913092Y-162305592D01*
X216039730Y-162116064D01*
X216039730Y-162116063D01*
X216084200Y-161892500D01*
X216084200Y-160672573D01*
X216239276Y-160608497D01*
X216607205Y-160241209D01*
X216806573Y-159761079D01*
X216807027Y-159241202D01*
X216608497Y-158760724D01*
X216241209Y-158392795D01*
X215761079Y-158193427D01*
X215241202Y-158192973D01*
X214760724Y-158391503D01*
X214392795Y-158758791D01*
X214249894Y-159102931D01*
X214108497Y-158760724D01*
X213741209Y-158392795D01*
X213584200Y-158327598D01*
X213584200Y-158262564D01*
X213584200Y-147500000D01*
X213539731Y-147276437D01*
X213539730Y-147276436D01*
X213413092Y-147086908D01*
X208884200Y-142558016D01*
X208884200Y-136641983D01*
X210941983Y-134584200D01*
X214658016Y-134584200D01*
X216915800Y-136841984D01*
X216915800Y-140300000D01*
X216960270Y-140523564D01*
X217086908Y-140713092D01*
X218651908Y-142278092D01*
X218841436Y-142404730D01*
X218841437Y-142404730D01*
X219065000Y-142449200D01*
X219975582Y-142449200D01*
X220026382Y-142499999D01*
X219975582Y-142550800D01*
X214376984Y-142550800D01*
X212557370Y-140731186D01*
X212738921Y-140806573D01*
X213258798Y-140807027D01*
X213739276Y-140608497D01*
X214107205Y-140241209D01*
X214161853Y-140109600D01*
X214337921Y-140109600D01*
X214391503Y-140239276D01*
X214758791Y-140607205D01*
X215238921Y-140806573D01*
X215758798Y-140807027D01*
X216239276Y-140608497D01*
X216607205Y-140241209D01*
X216806573Y-139761079D01*
X216807027Y-139241202D01*
X216608497Y-138760724D01*
X216241209Y-138392795D01*
X215761079Y-138193427D01*
X215286000Y-138193012D01*
X215286000Y-137074810D01*
X215286000Y-136822191D01*
X215286000Y-136535750D01*
X215286000Y-135964250D01*
X215286000Y-135677809D01*
X215286000Y-135425190D01*
X215189327Y-135191801D01*
X215010698Y-135013173D01*
X214777309Y-134916500D01*
X214365250Y-134916500D01*
X214206500Y-135075250D01*
X214206500Y-136123000D01*
X215127250Y-136123000D01*
X215286000Y-135964250D01*
X215286000Y-136535750D01*
X215127250Y-136377000D01*
X214206500Y-136377000D01*
X214206500Y-137424750D01*
X214365250Y-137583500D01*
X214777309Y-137583500D01*
X215010698Y-137486827D01*
X215189327Y-137308199D01*
X215286000Y-137074810D01*
X215286000Y-138193012D01*
X215241202Y-138192973D01*
X214760724Y-138391503D01*
X214392795Y-138758791D01*
X214338146Y-138890400D01*
X214162078Y-138890400D01*
X214108497Y-138760724D01*
X213741209Y-138392795D01*
X213261079Y-138193427D01*
X212741202Y-138192973D01*
X212454687Y-138311358D01*
X212460230Y-138303064D01*
X212460230Y-138303063D01*
X212504700Y-138079500D01*
X212504700Y-137380300D01*
X212577890Y-137380300D01*
X212736595Y-137314563D01*
X212858062Y-137193095D01*
X212890028Y-137115921D01*
X212969673Y-137308199D01*
X213148302Y-137486827D01*
X213381691Y-137583500D01*
X213793750Y-137583500D01*
X213952500Y-137424750D01*
X213952500Y-136377000D01*
X213932500Y-136377000D01*
X213932500Y-136123000D01*
X213952500Y-136123000D01*
X213952500Y-135075250D01*
X213793750Y-134916500D01*
X213381691Y-134916500D01*
X213148302Y-135013173D01*
X212969673Y-135191801D01*
X212890028Y-135384078D01*
X212858063Y-135306905D01*
X212736595Y-135185438D01*
X212577891Y-135119700D01*
X212406110Y-135119700D01*
X211263110Y-135119700D01*
X211104405Y-135185437D01*
X210982938Y-135306905D01*
X210917200Y-135465609D01*
X210917200Y-135637390D01*
X210917200Y-137034390D01*
X210982937Y-137193095D01*
X211104405Y-137314562D01*
X211263109Y-137380300D01*
X211336300Y-137380300D01*
X211336300Y-137837516D01*
X210916042Y-138257773D01*
X210761079Y-138193427D01*
X210241202Y-138192973D01*
X209760724Y-138391503D01*
X209392795Y-138758791D01*
X209193427Y-139238921D01*
X209192973Y-139758798D01*
X209391503Y-140239276D01*
X209758791Y-140607205D01*
X210238921Y-140806573D01*
X210758798Y-140807027D01*
X210915920Y-140742104D01*
X213721908Y-143548092D01*
X213911436Y-143674730D01*
X213911437Y-143674730D01*
X214135000Y-143719200D01*
X219975582Y-143719200D01*
X220026382Y-143769999D01*
X219935698Y-143860685D01*
X219869960Y-144019389D01*
X219869960Y-144191170D01*
X219869960Y-144790610D01*
X219935697Y-144949315D01*
X220057165Y-145070782D01*
X220215869Y-145136520D01*
X220387650Y-145136520D01*
X220791980Y-145136520D01*
X220791980Y-149971580D01*
X220838383Y-150204864D01*
X220970528Y-150402632D01*
X222651988Y-152084092D01*
X222568959Y-152284050D01*
X222568462Y-152853452D01*
X222785904Y-153379702D01*
X223188181Y-153782681D01*
X223325909Y-153839870D01*
X223190298Y-153895904D01*
X222787319Y-154298181D01*
X222568959Y-154824050D01*
X222568462Y-155393452D01*
X222785904Y-155919702D01*
X223188181Y-156322681D01*
X223325909Y-156379870D01*
X223190298Y-156435904D01*
X222787319Y-156838181D01*
X222568959Y-157364050D01*
X222568462Y-157933452D01*
X222785904Y-158459702D01*
X223188181Y-158862681D01*
X223325909Y-158919870D01*
X223190298Y-158975904D01*
X222787319Y-159378181D01*
X222568959Y-159904050D01*
X222568462Y-160473452D01*
X222785904Y-160999702D01*
X223118112Y-161332490D01*
X223027443Y-161577837D01*
X224000000Y-162550395D01*
X224972557Y-161577837D01*
X224881764Y-161332158D01*
X225212681Y-161001819D01*
X225265600Y-160874375D01*
X225265600Y-161799364D01*
X225152163Y-161757443D01*
X224179605Y-162730000D01*
X225152163Y-163702557D01*
X225265600Y-163660635D01*
X225265600Y-164584947D01*
X225214096Y-164460298D01*
X224881887Y-164127509D01*
X224972557Y-163882163D01*
X224000000Y-162909605D01*
X223820395Y-163089210D01*
X223820395Y-162730000D01*
X222847837Y-161757443D01*
X222581035Y-161856042D01*
X222354599Y-162465582D01*
X222378659Y-163115377D01*
X222581035Y-163603958D01*
X222847837Y-163702557D01*
X223820395Y-162730000D01*
X223820395Y-163089210D01*
X223027443Y-163882163D01*
X223118235Y-164127841D01*
X222787319Y-164458181D01*
X222568959Y-164984050D01*
X222568462Y-165553452D01*
X222652077Y-165755817D01*
X220099348Y-168308548D01*
X219967203Y-168506316D01*
X219920800Y-168739600D01*
X219920800Y-171584196D01*
X219481800Y-172023196D01*
X219481800Y-152542744D01*
X219481800Y-151457256D01*
X219353781Y-150813659D01*
X218989212Y-150268044D01*
X218443597Y-149903475D01*
X217800000Y-149775456D01*
X217156403Y-149903475D01*
X216610788Y-150268044D01*
X216246219Y-150813659D01*
X216118200Y-151457256D01*
X216118200Y-152542744D01*
X216246219Y-153186341D01*
X216610788Y-153731956D01*
X217156403Y-154096525D01*
X217800000Y-154224544D01*
X218443597Y-154096525D01*
X218989212Y-153731956D01*
X219353781Y-153186341D01*
X219481800Y-152542744D01*
X219481800Y-172023196D01*
X219335000Y-172169996D01*
X219335000Y-171627000D01*
X219335000Y-171373000D01*
X219335000Y-170623000D01*
X219161942Y-170006980D01*
X218766317Y-169504078D01*
X218208355Y-169190856D01*
X218080434Y-169159876D01*
X217827000Y-169279223D01*
X217827000Y-171373000D01*
X219335000Y-171373000D01*
X219335000Y-171627000D01*
X217827000Y-171627000D01*
X217827000Y-171647000D01*
X217573000Y-171647000D01*
X217573000Y-171627000D01*
X217573000Y-171373000D01*
X217573000Y-169279223D01*
X217319566Y-169159876D01*
X217191645Y-169190856D01*
X216633683Y-169504078D01*
X216238058Y-170006980D01*
X216065000Y-170623000D01*
X216065000Y-171373000D01*
X217573000Y-171373000D01*
X217573000Y-171627000D01*
X216065000Y-171627000D01*
X216065000Y-172377000D01*
X216238058Y-172993020D01*
X216633683Y-173495922D01*
X217191645Y-173809144D01*
X217319566Y-173840124D01*
X217572998Y-173720777D01*
X217572998Y-173885000D01*
X217573000Y-173885000D01*
X217619996Y-173885000D01*
X217573000Y-173931996D01*
X215224544Y-176280452D01*
X215224544Y-174800000D01*
X215058464Y-173965061D01*
X214585510Y-173257234D01*
X213877683Y-172784280D01*
X213042744Y-172618200D01*
X212957256Y-172618200D01*
X212122317Y-172784280D01*
X211414490Y-173257234D01*
X210941536Y-173965061D01*
X210775456Y-174800000D01*
X210941536Y-175634939D01*
X211414490Y-176342766D01*
X212122317Y-176815720D01*
X212957256Y-176981800D01*
X213042744Y-176981800D01*
X213877683Y-176815720D01*
X214585510Y-176342766D01*
X215058464Y-175634939D01*
X215224544Y-174800000D01*
X215224544Y-176280452D01*
X212568948Y-178936048D01*
X212436803Y-179133816D01*
X212390400Y-179367100D01*
X212390400Y-179530954D01*
X212122317Y-179584280D01*
X211414490Y-180057234D01*
X210941536Y-180765061D01*
X210775456Y-181600000D01*
X210941536Y-182434939D01*
X211414490Y-183142766D01*
X212122317Y-183615720D01*
X212957256Y-183781800D01*
X213042744Y-183781800D01*
X213877683Y-183615720D01*
X214585510Y-183142766D01*
X215058464Y-182434939D01*
X215224544Y-181600000D01*
X215058464Y-180765061D01*
X214585510Y-180057234D01*
X213877683Y-179584280D01*
X213683541Y-179545662D01*
X220961452Y-172267752D01*
X221093597Y-172069984D01*
X221140000Y-171836700D01*
X221140000Y-168992104D01*
X222568924Y-167563179D01*
X222568462Y-168093452D01*
X222785904Y-168619702D01*
X223118112Y-168952490D01*
X223027443Y-169197837D01*
X224000000Y-170170395D01*
X224972557Y-169197837D01*
X224881764Y-168952158D01*
X225212681Y-168621819D01*
X225265600Y-168494375D01*
X225265600Y-169419364D01*
X225152163Y-169377443D01*
X224179605Y-170350000D01*
X224193747Y-170364142D01*
X224014142Y-170543747D01*
X224000000Y-170529605D01*
X223820395Y-170709210D01*
X223820395Y-170350000D01*
X222847837Y-169377443D01*
X222581035Y-169476042D01*
X222354599Y-170085582D01*
X222378659Y-170735377D01*
X222581035Y-171223958D01*
X222847837Y-171322557D01*
X223820395Y-170350000D01*
X223820395Y-170709210D01*
X223027443Y-171502163D01*
X223118235Y-171747841D01*
X222787319Y-172078181D01*
X222568959Y-172604050D01*
X222568462Y-173173452D01*
X222785904Y-173699702D01*
X223188181Y-174102681D01*
X223325909Y-174159870D01*
X223190298Y-174215904D01*
X222787319Y-174618181D01*
X222660471Y-174923662D01*
X222476436Y-174960270D01*
X222286908Y-175086908D01*
X219836908Y-177536908D01*
X219710270Y-177726436D01*
X219665800Y-177950000D01*
X219665800Y-191758016D01*
X219335000Y-192088816D01*
X219335000Y-187377000D01*
X219335000Y-186627000D01*
X219335000Y-186373000D01*
X219335000Y-185623000D01*
X219161942Y-185006980D01*
X218766317Y-184504078D01*
X218208355Y-184190856D01*
X218080434Y-184159876D01*
X217827000Y-184279223D01*
X217827000Y-186373000D01*
X219335000Y-186373000D01*
X219335000Y-186627000D01*
X217827000Y-186627000D01*
X217827000Y-188720777D01*
X218080434Y-188840124D01*
X218208355Y-188809144D01*
X218766317Y-188495922D01*
X219161942Y-187993020D01*
X219335000Y-187377000D01*
X219335000Y-192088816D01*
X217573000Y-193850816D01*
X217573000Y-188720777D01*
X217573000Y-186627000D01*
X217573000Y-186373000D01*
X217573000Y-184279223D01*
X217319566Y-184159876D01*
X217191645Y-184190856D01*
X216633683Y-184504078D01*
X216238058Y-185006980D01*
X216065000Y-185623000D01*
X216065000Y-186373000D01*
X217573000Y-186373000D01*
X217573000Y-186627000D01*
X216065000Y-186627000D01*
X216065000Y-187377000D01*
X216238058Y-187993020D01*
X216633683Y-188495922D01*
X217191645Y-188809144D01*
X217319566Y-188840124D01*
X217573000Y-188720777D01*
X217573000Y-193850816D01*
X215408016Y-196015800D01*
X215224544Y-196015800D01*
X215224544Y-189800000D01*
X215058464Y-188965061D01*
X214585510Y-188257234D01*
X213877683Y-187784280D01*
X213042744Y-187618200D01*
X212957256Y-187618200D01*
X212122317Y-187784280D01*
X211414490Y-188257234D01*
X210941536Y-188965061D01*
X210775456Y-189800000D01*
X210941536Y-190634939D01*
X211414490Y-191342766D01*
X212122317Y-191815720D01*
X212957256Y-191981800D01*
X213042744Y-191981800D01*
X213877683Y-191815720D01*
X214585510Y-191342766D01*
X215058464Y-190634939D01*
X215224544Y-189800000D01*
X215224544Y-196015800D01*
X215108339Y-196015800D01*
X215058464Y-195765061D01*
X214585510Y-195057234D01*
X213877683Y-194584280D01*
X213042744Y-194418200D01*
X212957256Y-194418200D01*
X212122317Y-194584280D01*
X211414490Y-195057234D01*
X210941536Y-195765061D01*
X210775456Y-196600000D01*
X210941536Y-197434939D01*
X211414490Y-198142766D01*
X212122317Y-198615720D01*
X212957256Y-198781800D01*
X213042744Y-198781800D01*
X213877683Y-198615720D01*
X214585510Y-198142766D01*
X215058464Y-197434939D01*
X215108339Y-197184200D01*
X215650000Y-197184200D01*
X215873563Y-197139730D01*
X215873564Y-197139730D01*
X216063092Y-197013092D01*
X220663092Y-192413092D01*
X220789730Y-192223564D01*
X220789730Y-192223563D01*
X220834200Y-192000000D01*
X220834200Y-178191984D01*
X222786192Y-176239991D01*
X223084391Y-176538710D01*
X222914620Y-176538710D01*
X222755915Y-176604447D01*
X222634448Y-176725915D01*
X222568710Y-176884619D01*
X222568710Y-177056400D01*
X222568710Y-179055380D01*
X222634447Y-179214085D01*
X222755915Y-179335552D01*
X222914619Y-179401290D01*
X223086400Y-179401290D01*
X223415800Y-179401290D01*
X223415800Y-192250000D01*
X223460270Y-192473564D01*
X223586908Y-192663092D01*
X227936908Y-197013092D01*
X228126436Y-197139730D01*
X228126437Y-197139730D01*
X228350000Y-197184200D01*
X231891660Y-197184200D01*
X231941536Y-197434939D01*
X232414490Y-198142766D01*
X233122317Y-198615720D01*
X233957256Y-198781800D01*
X234042744Y-198781800D01*
X234877683Y-198615720D01*
X235585510Y-198142766D01*
X236058464Y-197434939D01*
X236224544Y-196600000D01*
X236224544Y-189800000D01*
X236224544Y-181600000D01*
X236224544Y-174800000D01*
X236058464Y-173965061D01*
X235585510Y-173257234D01*
X234877683Y-172784280D01*
X234042744Y-172618200D01*
X233957256Y-172618200D01*
X233122317Y-172784280D01*
X232414490Y-173257234D01*
X231941536Y-173965061D01*
X231775456Y-174800000D01*
X231941536Y-175634939D01*
X232414490Y-176342766D01*
X233122317Y-176815720D01*
X233957256Y-176981800D01*
X234042744Y-176981800D01*
X234877683Y-176815720D01*
X235585510Y-176342766D01*
X236058464Y-175634939D01*
X236224544Y-174800000D01*
X236224544Y-181600000D01*
X236058464Y-180765061D01*
X235585510Y-180057234D01*
X234877683Y-179584280D01*
X234042744Y-179418200D01*
X233957256Y-179418200D01*
X233122317Y-179584280D01*
X232414490Y-180057234D01*
X231941536Y-180765061D01*
X231775456Y-181600000D01*
X231941536Y-182434939D01*
X232414490Y-183142766D01*
X233122317Y-183615720D01*
X233957256Y-183781800D01*
X234042744Y-183781800D01*
X234877683Y-183615720D01*
X235585510Y-183142766D01*
X236058464Y-182434939D01*
X236224544Y-181600000D01*
X236224544Y-189800000D01*
X236058464Y-188965061D01*
X235585510Y-188257234D01*
X234877683Y-187784280D01*
X234042744Y-187618200D01*
X233957256Y-187618200D01*
X233122317Y-187784280D01*
X232414490Y-188257234D01*
X231941536Y-188965061D01*
X231775456Y-189800000D01*
X231941536Y-190634939D01*
X232414490Y-191342766D01*
X233122317Y-191815720D01*
X233957256Y-191981800D01*
X234042744Y-191981800D01*
X234877683Y-191815720D01*
X235585510Y-191342766D01*
X236058464Y-190634939D01*
X236224544Y-189800000D01*
X236224544Y-196600000D01*
X236058464Y-195765061D01*
X235585510Y-195057234D01*
X234877683Y-194584280D01*
X234042744Y-194418200D01*
X233957256Y-194418200D01*
X233122317Y-194584280D01*
X232414490Y-195057234D01*
X231941536Y-195765061D01*
X231891660Y-196015800D01*
X231685000Y-196015800D01*
X231685000Y-187377000D01*
X231685000Y-186627000D01*
X231685000Y-186373000D01*
X231685000Y-185623000D01*
X231685000Y-172377000D01*
X231685000Y-171627000D01*
X231685000Y-171373000D01*
X231685000Y-170623000D01*
X231454852Y-169719967D01*
X230896647Y-168973747D01*
X230095367Y-168497946D01*
X229798003Y-168417573D01*
X229427000Y-168527375D01*
X229427000Y-171373000D01*
X231685000Y-171373000D01*
X231685000Y-171627000D01*
X229427000Y-171627000D01*
X229427000Y-174472625D01*
X229798003Y-174582427D01*
X230095367Y-174502054D01*
X230896647Y-174026253D01*
X231454852Y-173280033D01*
X231685000Y-172377000D01*
X231685000Y-185623000D01*
X231454852Y-184719967D01*
X230896647Y-183973747D01*
X230095367Y-183497946D01*
X229798003Y-183417573D01*
X229427000Y-183527375D01*
X229427000Y-186373000D01*
X231685000Y-186373000D01*
X231685000Y-186627000D01*
X229427000Y-186627000D01*
X229427000Y-189472625D01*
X229798003Y-189582427D01*
X230095367Y-189502054D01*
X230896647Y-189026253D01*
X231454852Y-188280033D01*
X231685000Y-187377000D01*
X231685000Y-196015800D01*
X229173000Y-196015800D01*
X229173000Y-189472625D01*
X229173000Y-186627000D01*
X229173000Y-186373000D01*
X229173000Y-183527375D01*
X229173000Y-174472625D01*
X229173000Y-171627000D01*
X229173000Y-171373000D01*
X229173000Y-168527375D01*
X228801997Y-168417573D01*
X228504633Y-168497946D01*
X227703353Y-168973747D01*
X227145148Y-169719967D01*
X226915000Y-170623000D01*
X226915000Y-171373000D01*
X229173000Y-171373000D01*
X229173000Y-171627000D01*
X226915000Y-171627000D01*
X226915000Y-172377000D01*
X227145148Y-173280033D01*
X227703353Y-174026253D01*
X228504633Y-174502054D01*
X228801997Y-174582427D01*
X229173000Y-174472625D01*
X229173000Y-183527375D01*
X228801997Y-183417573D01*
X228504633Y-183497946D01*
X227703353Y-183973747D01*
X227145148Y-184719967D01*
X226915000Y-185623000D01*
X226915000Y-186373000D01*
X229173000Y-186373000D01*
X229173000Y-186627000D01*
X226915000Y-186627000D01*
X226915000Y-187377000D01*
X227145148Y-188280033D01*
X227703353Y-189026253D01*
X228504633Y-189502054D01*
X228801997Y-189582427D01*
X229173000Y-189472625D01*
X229173000Y-196015800D01*
X228591984Y-196015800D01*
X224584200Y-192008016D01*
X224584200Y-179401290D01*
X225085380Y-179401290D01*
X225244085Y-179335553D01*
X225365552Y-179214085D01*
X225431290Y-179055381D01*
X225431290Y-178883600D01*
X225431290Y-176884620D01*
X225365553Y-176725915D01*
X225244085Y-176604448D01*
X225085381Y-176538710D01*
X224915271Y-176538710D01*
X225212681Y-176241819D01*
X225431041Y-175715950D01*
X225431538Y-175146548D01*
X225214096Y-174620298D01*
X224811819Y-174217319D01*
X224674090Y-174160129D01*
X224809702Y-174104096D01*
X225212681Y-173701819D01*
X225431041Y-173175950D01*
X225431538Y-172606548D01*
X225347922Y-172404181D01*
X226306252Y-171445852D01*
X226438397Y-171248084D01*
X226484799Y-171014800D01*
X226484800Y-171014800D01*
X226484800Y-145136520D01*
X227784130Y-145136520D01*
X227942835Y-145070783D01*
X228064302Y-144949315D01*
X228130040Y-144790611D01*
X228130040Y-144618830D01*
X228130040Y-144019390D01*
X228064303Y-143860685D01*
X227973617Y-143770000D01*
X227999017Y-143744600D01*
X230365000Y-143744600D01*
X230598284Y-143698197D01*
X230796052Y-143566052D01*
X233609339Y-140752765D01*
X233738921Y-140806573D01*
X234258798Y-140807027D01*
X234739276Y-140608497D01*
X235107205Y-140241209D01*
X235161853Y-140109600D01*
X235337921Y-140109600D01*
X235391503Y-140239276D01*
X235758791Y-140607205D01*
X236238921Y-140806573D01*
X236758798Y-140807027D01*
X237239276Y-140608497D01*
X237607205Y-140241209D01*
X237806573Y-139761079D01*
X237807027Y-139241202D01*
X237608497Y-138760724D01*
X237241209Y-138392795D01*
X236761079Y-138193427D01*
X236286000Y-138193012D01*
X236286000Y-137324810D01*
X236286000Y-137072191D01*
X236286000Y-136785750D01*
X236127250Y-136627000D01*
X235206500Y-136627000D01*
X235206500Y-137674750D01*
X235365250Y-137833500D01*
X235777309Y-137833500D01*
X236010698Y-137736827D01*
X236189327Y-137558199D01*
X236286000Y-137324810D01*
X236286000Y-138193012D01*
X236241202Y-138192973D01*
X235760724Y-138391503D01*
X235392795Y-138758791D01*
X235338146Y-138890400D01*
X235162078Y-138890400D01*
X235108497Y-138760724D01*
X234741209Y-138392795D01*
X234261079Y-138193427D01*
X233741202Y-138192973D01*
X233454687Y-138311358D01*
X233460230Y-138303064D01*
X233460230Y-138303063D01*
X233504700Y-138079500D01*
X233504700Y-137630300D01*
X233577890Y-137630300D01*
X233736595Y-137564563D01*
X233858062Y-137443095D01*
X233890028Y-137365921D01*
X233969673Y-137558199D01*
X234148302Y-137736827D01*
X234381691Y-137833500D01*
X234793750Y-137833500D01*
X234952500Y-137674750D01*
X234952500Y-136627000D01*
X234932500Y-136627000D01*
X234932500Y-136373000D01*
X234952500Y-136373000D01*
X234952500Y-135325250D01*
X234793750Y-135166500D01*
X234381691Y-135166500D01*
X234148302Y-135263173D01*
X233969673Y-135441801D01*
X233890028Y-135634078D01*
X233858063Y-135556905D01*
X233736595Y-135435438D01*
X233577891Y-135369700D01*
X233406110Y-135369700D01*
X232263110Y-135369700D01*
X232104405Y-135435437D01*
X231982938Y-135556905D01*
X231917200Y-135715609D01*
X231917200Y-135887390D01*
X231917200Y-137284390D01*
X231982937Y-137443095D01*
X232104405Y-137564562D01*
X232263109Y-137630300D01*
X232336300Y-137630300D01*
X232336300Y-137837516D01*
X231916042Y-138257773D01*
X231761079Y-138193427D01*
X231241202Y-138192973D01*
X230760724Y-138391503D01*
X230392795Y-138758791D01*
X230193427Y-139238921D01*
X230192973Y-139758798D01*
X230257895Y-139915920D01*
X228893016Y-141280800D01*
X228024417Y-141280800D01*
X227973617Y-141230000D01*
X228064302Y-141139315D01*
X228130040Y-140980611D01*
X228130040Y-140808830D01*
X228130040Y-140209390D01*
X228064303Y-140050685D01*
X227942835Y-139929218D01*
X227784131Y-139863480D01*
X227612350Y-139863480D01*
X227551604Y-139863480D01*
X232430884Y-134984200D01*
X235558016Y-134984200D01*
X235740316Y-135166500D01*
X235365250Y-135166500D01*
X235206500Y-135325250D01*
X235206500Y-136373000D01*
X236127250Y-136373000D01*
X236286000Y-136214250D01*
X236286000Y-135927809D01*
X236286000Y-135712184D01*
X238215800Y-137641984D01*
X238215800Y-142258016D01*
X233586908Y-146886908D01*
X233460270Y-147076436D01*
X233415800Y-147300000D01*
X233415800Y-158327426D01*
X233260724Y-158391503D01*
X232892795Y-158758791D01*
X232866334Y-158822515D01*
X232815953Y-158700884D01*
X232562060Y-158617545D01*
X232382455Y-158797150D01*
X232382455Y-158437940D01*
X232299116Y-158184047D01*
X231734694Y-157978410D01*
X231134542Y-158004421D01*
X230881800Y-158109109D01*
X230881800Y-152542744D01*
X230881800Y-151457256D01*
X230753781Y-150813659D01*
X230389212Y-150268044D01*
X229843597Y-149903475D01*
X229200000Y-149775456D01*
X228556403Y-149903475D01*
X228010788Y-150268044D01*
X227646219Y-150813659D01*
X227518200Y-151457256D01*
X227518200Y-152542744D01*
X227646219Y-153186341D01*
X228010788Y-153731956D01*
X228556403Y-154096525D01*
X229200000Y-154224544D01*
X229843597Y-154096525D01*
X230389212Y-153731956D01*
X230753781Y-153186341D01*
X230881800Y-152542744D01*
X230881800Y-158109109D01*
X230700884Y-158184047D01*
X230617545Y-158437940D01*
X231500000Y-159320395D01*
X232382455Y-158437940D01*
X232382455Y-158797150D01*
X231679605Y-159500000D01*
X232562060Y-160382455D01*
X232815953Y-160299116D01*
X232862940Y-160170148D01*
X232891503Y-160239276D01*
X233258791Y-160607205D01*
X233738921Y-160806573D01*
X234258798Y-160807027D01*
X234739276Y-160608497D01*
X235107205Y-160241209D01*
X235250105Y-159897068D01*
X235391503Y-160239276D01*
X235758791Y-160607205D01*
X235915800Y-160672401D01*
X235915800Y-161650516D01*
X233586908Y-163979408D01*
X233460270Y-164168936D01*
X233415800Y-164392500D01*
X233415800Y-164525902D01*
X233122317Y-164584280D01*
X232414490Y-165057234D01*
X232382455Y-165105177D01*
X232382455Y-160562060D01*
X231500000Y-159679605D01*
X231320395Y-159859210D01*
X231320395Y-159500000D01*
X230437940Y-158617545D01*
X230184047Y-158700884D01*
X229978410Y-159265306D01*
X230004421Y-159865458D01*
X230184047Y-160299116D01*
X230437940Y-160382455D01*
X231320395Y-159500000D01*
X231320395Y-159859210D01*
X230617545Y-160562060D01*
X230700884Y-160815953D01*
X231265306Y-161021590D01*
X231865458Y-160995579D01*
X232299116Y-160815953D01*
X232382455Y-160562060D01*
X232382455Y-165105177D01*
X231941536Y-165765061D01*
X231775456Y-166600000D01*
X231941536Y-167434939D01*
X232414490Y-168142766D01*
X233122317Y-168615720D01*
X233957256Y-168781800D01*
X234042744Y-168781800D01*
X234877683Y-168615720D01*
X235585510Y-168142766D01*
X236058464Y-167434939D01*
X236224544Y-166600000D01*
X236058464Y-165765061D01*
X235585510Y-165057234D01*
X234877683Y-164584280D01*
X234674766Y-164543917D01*
X236913092Y-162305592D01*
X237039730Y-162116064D01*
X237039730Y-162116063D01*
X237084200Y-161892500D01*
X237084200Y-160672573D01*
X237239276Y-160608497D01*
X237607205Y-160241209D01*
X237806573Y-159761079D01*
X237807027Y-159241202D01*
X237608497Y-158760724D01*
X237241209Y-158392795D01*
X236761079Y-158193427D01*
X236241202Y-158192973D01*
X235760724Y-158391503D01*
X235392795Y-158758791D01*
X235249894Y-159102931D01*
X235108497Y-158760724D01*
X234741209Y-158392795D01*
X234584200Y-158327598D01*
X234584200Y-147541984D01*
X239213092Y-142913092D01*
X239339730Y-142723564D01*
X239339730Y-142723563D01*
X239384200Y-142500000D01*
X239384200Y-137400005D01*
X239384200Y-137400000D01*
X239384201Y-137400000D01*
X239384201Y-149891660D01*
X238800000Y-149775456D01*
X238156403Y-149903475D01*
X237610788Y-150268044D01*
X237246219Y-150813659D01*
X237118200Y-151457256D01*
X237118200Y-152542744D01*
X237246219Y-153186341D01*
X237610788Y-153731956D01*
X238156403Y-154096525D01*
X238800000Y-154224544D01*
X239443597Y-154096525D01*
X239989212Y-153731956D01*
X240353781Y-153186341D01*
X240481800Y-152542744D01*
X240481800Y-206569000D01*
X240335000Y-206569000D01*
X240335000Y-202377000D01*
X240335000Y-201627000D01*
X240335000Y-201373000D01*
X240335000Y-200623000D01*
X240335000Y-187377000D01*
X240335000Y-186627000D01*
X240335000Y-186373000D01*
X240335000Y-185623000D01*
X240335000Y-172377000D01*
X240335000Y-171627000D01*
X240335000Y-171373000D01*
X240335000Y-170623000D01*
X240161942Y-170006980D01*
X239766317Y-169504078D01*
X239208355Y-169190856D01*
X239080434Y-169159876D01*
X238827000Y-169279223D01*
X238827000Y-171373000D01*
X240335000Y-171373000D01*
X240335000Y-171627000D01*
X238827000Y-171627000D01*
X238827000Y-173720777D01*
X239080434Y-173840124D01*
X239208355Y-173809144D01*
X239766317Y-173495922D01*
X240161942Y-172993020D01*
X240335000Y-172377000D01*
X240335000Y-185623000D01*
X240161942Y-185006980D01*
X239766317Y-184504078D01*
X239208355Y-184190856D01*
X239080434Y-184159876D01*
X238827000Y-184279223D01*
X238827000Y-186373000D01*
X240335000Y-186373000D01*
X240335000Y-186627000D01*
X238827000Y-186627000D01*
X238827000Y-188720777D01*
X239080434Y-188840124D01*
X239208355Y-188809144D01*
X239766317Y-188495922D01*
X240161942Y-187993020D01*
X240335000Y-187377000D01*
X240335000Y-200623000D01*
X240161942Y-200006980D01*
X239766317Y-199504078D01*
X239208355Y-199190856D01*
X239080434Y-199159876D01*
X238827000Y-199279223D01*
X238827000Y-201373000D01*
X240335000Y-201373000D01*
X240335000Y-201627000D01*
X238827000Y-201627000D01*
X238827000Y-203720777D01*
X239080434Y-203840124D01*
X239208355Y-203809144D01*
X239766317Y-203495922D01*
X240161942Y-202993020D01*
X240335000Y-202377000D01*
X240335000Y-206569000D01*
X238573000Y-206569000D01*
X238573000Y-203720777D01*
X238573000Y-201627000D01*
X238573000Y-201373000D01*
X238573000Y-199279223D01*
X238573000Y-188720777D01*
X238573000Y-186627000D01*
X238573000Y-186373000D01*
X238573000Y-184279223D01*
X238573000Y-173720777D01*
X238573000Y-171627000D01*
X238573000Y-171373000D01*
X238573000Y-169279223D01*
X238319566Y-169159876D01*
X238191645Y-169190856D01*
X237633683Y-169504078D01*
X237238058Y-170006980D01*
X237065000Y-170623000D01*
X237065000Y-171373000D01*
X238573000Y-171373000D01*
X238573000Y-171627000D01*
X237065000Y-171627000D01*
X237065000Y-172377000D01*
X237238058Y-172993020D01*
X237633683Y-173495922D01*
X238191645Y-173809144D01*
X238319566Y-173840124D01*
X238573000Y-173720777D01*
X238573000Y-184279223D01*
X238319566Y-184159876D01*
X238191645Y-184190856D01*
X237633683Y-184504078D01*
X237238058Y-185006980D01*
X237065000Y-185623000D01*
X237065000Y-186373000D01*
X238573000Y-186373000D01*
X238573000Y-186627000D01*
X237065000Y-186627000D01*
X237065000Y-187377000D01*
X237238058Y-187993020D01*
X237633683Y-188495922D01*
X238191645Y-188809144D01*
X238319566Y-188840124D01*
X238573000Y-188720777D01*
X238573000Y-199279223D01*
X238319566Y-199159876D01*
X238191645Y-199190856D01*
X237633683Y-199504078D01*
X237238058Y-200006980D01*
X237065000Y-200623000D01*
X237065000Y-201373000D01*
X238573000Y-201373000D01*
X238573000Y-201627000D01*
X237065000Y-201627000D01*
X237065000Y-202377000D01*
X237238058Y-202993020D01*
X237633683Y-203495922D01*
X238191645Y-203809144D01*
X238319566Y-203840124D01*
X238573000Y-203720777D01*
X238573000Y-206569000D01*
X235246926Y-206569000D01*
X235585510Y-206342766D01*
X236058464Y-205634939D01*
X236224544Y-204800000D01*
X236058464Y-203965061D01*
X235585510Y-203257234D01*
X234877683Y-202784280D01*
X234042744Y-202618200D01*
X233957256Y-202618200D01*
X233122317Y-202784280D01*
X232414490Y-203257234D01*
X231941536Y-203965061D01*
X231775456Y-204800000D01*
X231941536Y-205634939D01*
X232414490Y-206342766D01*
X232753073Y-206569000D01*
X231685000Y-206569000D01*
X231685000Y-202377000D01*
X231685000Y-201627000D01*
X231685000Y-201373000D01*
X231685000Y-200623000D01*
X231454852Y-199719967D01*
X230896647Y-198973747D01*
X230095367Y-198497946D01*
X229798003Y-198417573D01*
X229427000Y-198527375D01*
X229427000Y-201373000D01*
X231685000Y-201373000D01*
X231685000Y-201627000D01*
X229427000Y-201627000D01*
X229427000Y-204472625D01*
X229798003Y-204582427D01*
X230095367Y-204502054D01*
X230896647Y-204026253D01*
X231454852Y-203280033D01*
X231685000Y-202377000D01*
X231685000Y-206569000D01*
X229173000Y-206569000D01*
X229173000Y-204472625D01*
X229173000Y-201627000D01*
X229173000Y-201373000D01*
X229173000Y-198527375D01*
X228801997Y-198417573D01*
X228504633Y-198497946D01*
X227703353Y-198973747D01*
X227145148Y-199719967D01*
X226915000Y-200623000D01*
X226915000Y-201373000D01*
X229173000Y-201373000D01*
X229173000Y-201627000D01*
X226915000Y-201627000D01*
X226915000Y-202377000D01*
X227145148Y-203280033D01*
X227703353Y-204026253D01*
X228504633Y-204502054D01*
X228801997Y-204582427D01*
X229173000Y-204472625D01*
X229173000Y-206569000D01*
X219335000Y-206569000D01*
X219335000Y-202377000D01*
X219335000Y-201627000D01*
X219335000Y-201373000D01*
X219335000Y-200623000D01*
X219161942Y-200006980D01*
X218766317Y-199504078D01*
X218208355Y-199190856D01*
X218080434Y-199159876D01*
X217827000Y-199279223D01*
X217827000Y-201373000D01*
X219335000Y-201373000D01*
X219335000Y-201627000D01*
X217827000Y-201627000D01*
X217827000Y-203720777D01*
X218080434Y-203840124D01*
X218208355Y-203809144D01*
X218766317Y-203495922D01*
X219161942Y-202993020D01*
X219335000Y-202377000D01*
X219335000Y-206569000D01*
X217573000Y-206569000D01*
X217573000Y-203720777D01*
X217573000Y-201627000D01*
X217573000Y-201373000D01*
X217573000Y-199279223D01*
X217319566Y-199159876D01*
X217191645Y-199190856D01*
X216633683Y-199504078D01*
X216238058Y-200006980D01*
X216065000Y-200623000D01*
X216065000Y-201373000D01*
X217573000Y-201373000D01*
X217573000Y-201627000D01*
X216065000Y-201627000D01*
X216065000Y-202377000D01*
X216238058Y-202993020D01*
X216633683Y-203495922D01*
X217191645Y-203809144D01*
X217319566Y-203840124D01*
X217573000Y-203720777D01*
X217573000Y-206569000D01*
X214246926Y-206569000D01*
X214585510Y-206342766D01*
X215058464Y-205634939D01*
X215224544Y-204800000D01*
X215058464Y-203965061D01*
X214585510Y-203257234D01*
X213877683Y-202784280D01*
X213042744Y-202618200D01*
X212957256Y-202618200D01*
X212122317Y-202784280D01*
X211414490Y-203257234D01*
X210941536Y-203965061D01*
X210775456Y-204800000D01*
X210941536Y-205634939D01*
X211414490Y-206342766D01*
X211753073Y-206569000D01*
X210685000Y-206569000D01*
X210685000Y-202377000D01*
X210685000Y-201627000D01*
X210685000Y-201373000D01*
X210685000Y-200623000D01*
X210685000Y-187377000D01*
X210685000Y-186627000D01*
X210685000Y-186373000D01*
X210685000Y-185623000D01*
X210685000Y-172377000D01*
X210685000Y-171627000D01*
X210685000Y-171373000D01*
X210685000Y-170623000D01*
X210454852Y-169719967D01*
X209896647Y-168973747D01*
X209095367Y-168497946D01*
X208798003Y-168417573D01*
X208427000Y-168527375D01*
X208427000Y-171373000D01*
X210685000Y-171373000D01*
X210685000Y-171627000D01*
X208427000Y-171627000D01*
X208427000Y-174472625D01*
X208798003Y-174582427D01*
X209095367Y-174502054D01*
X209896647Y-174026253D01*
X210454852Y-173280033D01*
X210685000Y-172377000D01*
X210685000Y-185623000D01*
X210454852Y-184719967D01*
X209896647Y-183973747D01*
X209095367Y-183497946D01*
X208798003Y-183417573D01*
X208427000Y-183527375D01*
X208427000Y-186373000D01*
X210685000Y-186373000D01*
X210685000Y-186627000D01*
X208427000Y-186627000D01*
X208427000Y-189472625D01*
X208798003Y-189582427D01*
X209095367Y-189502054D01*
X209896647Y-189026253D01*
X210454852Y-188280033D01*
X210685000Y-187377000D01*
X210685000Y-200623000D01*
X210454852Y-199719967D01*
X209896647Y-198973747D01*
X209095367Y-198497946D01*
X208798003Y-198417573D01*
X208427000Y-198527375D01*
X208427000Y-201373000D01*
X210685000Y-201373000D01*
X210685000Y-201627000D01*
X208427000Y-201627000D01*
X208427000Y-204472625D01*
X208798003Y-204582427D01*
X209095367Y-204502054D01*
X209896647Y-204026253D01*
X210454852Y-203280033D01*
X210685000Y-202377000D01*
X210685000Y-206569000D01*
X208173000Y-206569000D01*
X208173000Y-204472625D01*
X208173000Y-201627000D01*
X208173000Y-201373000D01*
X208173000Y-198527375D01*
X208173000Y-189472625D01*
X208173000Y-186627000D01*
X208173000Y-186373000D01*
X208173000Y-183527375D01*
X208173000Y-174472625D01*
X208173000Y-171627000D01*
X208173000Y-171373000D01*
X208173000Y-168527375D01*
X207801997Y-168417573D01*
X207504633Y-168497946D01*
X206703353Y-168973747D01*
X206145148Y-169719967D01*
X205915000Y-170623000D01*
X205915000Y-171373000D01*
X208173000Y-171373000D01*
X208173000Y-171627000D01*
X205915000Y-171627000D01*
X205915000Y-172377000D01*
X206145148Y-173280033D01*
X206703353Y-174026253D01*
X207504633Y-174502054D01*
X207801997Y-174582427D01*
X208173000Y-174472625D01*
X208173000Y-183527375D01*
X207801997Y-183417573D01*
X207504633Y-183497946D01*
X206703353Y-183973747D01*
X206145148Y-184719967D01*
X205915000Y-185623000D01*
X205915000Y-186373000D01*
X208173000Y-186373000D01*
X208173000Y-186627000D01*
X205915000Y-186627000D01*
X205915000Y-187377000D01*
X206145148Y-188280033D01*
X206703353Y-189026253D01*
X207504633Y-189502054D01*
X207801997Y-189582427D01*
X208173000Y-189472625D01*
X208173000Y-198527375D01*
X207801997Y-198417573D01*
X207504633Y-198497946D01*
X206703353Y-198973747D01*
X206145148Y-199719967D01*
X205915000Y-200623000D01*
X205915000Y-201373000D01*
X208173000Y-201373000D01*
X208173000Y-201627000D01*
X205915000Y-201627000D01*
X205915000Y-202377000D01*
X206145148Y-203280033D01*
X206703353Y-204026253D01*
X207504633Y-204502054D01*
X207801997Y-204582427D01*
X208173000Y-204472625D01*
X208173000Y-206569000D01*
X204431000Y-206569000D01*
X204431000Y-107431000D01*
X242569000Y-107431000D01*
X242569000Y-206569000D01*
X242569000Y-206569000D01*
G37*
X242569000Y-206569000D02*
X240481800Y-206569000D01*
X240481800Y-152542744D01*
X240481800Y-151457256D01*
X240481800Y-132542744D01*
X240481800Y-131457256D01*
X240481800Y-112542744D01*
X240481800Y-111457256D01*
X240353781Y-110813659D01*
X239989212Y-110268044D01*
X239443597Y-109903475D01*
X238800000Y-109775456D01*
X238156403Y-109903475D01*
X237610788Y-110268044D01*
X237246219Y-110813659D01*
X237118200Y-111457256D01*
X237118200Y-112542744D01*
X237246219Y-113186341D01*
X237610788Y-113731956D01*
X238156403Y-114096525D01*
X238800000Y-114224544D01*
X239443597Y-114096525D01*
X239989212Y-113731956D01*
X240353781Y-113186341D01*
X240481800Y-112542744D01*
X240481800Y-131457256D01*
X240353781Y-130813659D01*
X239989212Y-130268044D01*
X239443597Y-129903475D01*
X238800000Y-129775456D01*
X238156403Y-129903475D01*
X237807027Y-130136921D01*
X237807027Y-119241202D01*
X237608497Y-118760724D01*
X237241209Y-118392795D01*
X236761079Y-118193427D01*
X236241202Y-118192973D01*
X235760724Y-118391503D01*
X235392795Y-118758791D01*
X235249894Y-119102931D01*
X235108497Y-118760724D01*
X234741209Y-118392795D01*
X234261079Y-118193427D01*
X233741202Y-118192973D01*
X233260724Y-118391503D01*
X232892795Y-118758791D01*
X232866334Y-118822515D01*
X232815953Y-118700884D01*
X232562060Y-118617545D01*
X232382455Y-118797150D01*
X232382455Y-118437940D01*
X232299116Y-118184047D01*
X231734694Y-117978410D01*
X231134542Y-118004421D01*
X230881800Y-118109109D01*
X230881800Y-112542744D01*
X230881800Y-111457256D01*
X230753781Y-110813659D01*
X230389212Y-110268044D01*
X229843597Y-109903475D01*
X229200000Y-109775456D01*
X228556403Y-109903475D01*
X228010788Y-110268044D01*
X227646219Y-110813659D01*
X227518200Y-111457256D01*
X227518200Y-112542744D01*
X227646219Y-113186341D01*
X228010788Y-113731956D01*
X228556403Y-114096525D01*
X229200000Y-114224544D01*
X229843597Y-114096525D01*
X230389212Y-113731956D01*
X230753781Y-113186341D01*
X230881800Y-112542744D01*
X230881800Y-118109109D01*
X230700884Y-118184047D01*
X230617545Y-118437940D01*
X231500000Y-119320395D01*
X232382455Y-118437940D01*
X232382455Y-118797150D01*
X231679605Y-119500000D01*
X232562060Y-120382455D01*
X232815953Y-120299116D01*
X232862940Y-120170148D01*
X232891503Y-120239276D01*
X233258791Y-120607205D01*
X233738921Y-120806573D01*
X234258798Y-120807027D01*
X234739276Y-120608497D01*
X235107205Y-120241209D01*
X235250105Y-119897068D01*
X235391503Y-120239276D01*
X235758791Y-120607205D01*
X236238921Y-120806573D01*
X236758798Y-120807027D01*
X237239276Y-120608497D01*
X237607205Y-120241209D01*
X237806573Y-119761079D01*
X237807027Y-119241202D01*
X237807027Y-130136921D01*
X237610788Y-130268044D01*
X237246219Y-130813659D01*
X237118200Y-131457256D01*
X237118200Y-132542744D01*
X237246219Y-133186341D01*
X237610788Y-133731956D01*
X238156403Y-134096525D01*
X238800000Y-134224544D01*
X239443597Y-134096525D01*
X239989212Y-133731956D01*
X240353781Y-133186341D01*
X240481800Y-132542744D01*
X240481800Y-151457256D01*
X240353781Y-150813659D01*
X239989212Y-150268044D01*
X239443597Y-149903475D01*
X239384201Y-149891660D01*
X239384201Y-137400000D01*
X239339731Y-137176437D01*
X239339730Y-137176436D01*
X239213092Y-136986908D01*
X236213092Y-133986908D01*
X236023564Y-133860270D01*
X235800000Y-133815800D01*
X232382455Y-133815800D01*
X232382455Y-120562060D01*
X231500000Y-119679605D01*
X231320395Y-119859210D01*
X231320395Y-119500000D01*
X230437940Y-118617545D01*
X230184047Y-118700884D01*
X229978410Y-119265306D01*
X230004421Y-119865458D01*
X230184047Y-120299116D01*
X230437940Y-120382455D01*
X231320395Y-119500000D01*
X231320395Y-119859210D01*
X230617545Y-120562060D01*
X230700884Y-120815953D01*
X231265306Y-121021590D01*
X231865458Y-120995579D01*
X232299116Y-120815953D01*
X232382455Y-120562060D01*
X232382455Y-133815800D01*
X232188905Y-133815800D01*
X232188900Y-133815799D01*
X231965337Y-133860269D01*
X231775808Y-133986908D01*
X230881800Y-134880916D01*
X230881800Y-132542744D01*
X230881800Y-131457256D01*
X230753781Y-130813659D01*
X230389212Y-130268044D01*
X229843597Y-129903475D01*
X229200000Y-129775456D01*
X228556403Y-129903475D01*
X228010788Y-130268044D01*
X227646219Y-130813659D01*
X227518200Y-131457256D01*
X227518200Y-132542744D01*
X227646219Y-133186341D01*
X228010788Y-133731956D01*
X228556403Y-134096525D01*
X229200000Y-134224544D01*
X229843597Y-134096525D01*
X230389212Y-133731956D01*
X230753781Y-133186341D01*
X230881800Y-132542744D01*
X230881800Y-134880916D01*
X226415401Y-139347315D01*
X226415401Y-123304418D01*
X226415401Y-120764418D01*
X226391341Y-120114623D01*
X226188965Y-119626042D01*
X225922163Y-119527443D01*
X225742557Y-119707048D01*
X225742557Y-119347837D01*
X225699009Y-119230000D01*
X225742557Y-119112163D01*
X224770000Y-118139605D01*
X224590395Y-118319210D01*
X223797443Y-119112163D01*
X223840990Y-119230000D01*
X223797443Y-119347837D01*
X224770000Y-120320395D01*
X225742557Y-119347837D01*
X225742557Y-119707048D01*
X224949605Y-120500000D01*
X225922163Y-121472557D01*
X226188965Y-121373958D01*
X226415401Y-120764418D01*
X226415401Y-123304418D01*
X226391341Y-122654623D01*
X226188965Y-122166042D01*
X225922163Y-122067443D01*
X225742557Y-122247048D01*
X225742557Y-121887837D01*
X225699009Y-121770000D01*
X225742557Y-121652163D01*
X224770000Y-120679605D01*
X224590395Y-120859210D01*
X224590395Y-120500000D01*
X223617837Y-119527443D01*
X223500000Y-119570990D01*
X223382163Y-119527443D01*
X223202557Y-119707048D01*
X223202557Y-119347837D01*
X223159009Y-119230000D01*
X223202557Y-119112163D01*
X222230000Y-118139605D01*
X221257443Y-119112163D01*
X221300990Y-119230000D01*
X221257443Y-119347837D01*
X222230000Y-120320395D01*
X223202557Y-119347837D01*
X223202557Y-119707048D01*
X222409605Y-120500000D01*
X223382163Y-121472557D01*
X223500000Y-121429009D01*
X223617837Y-121472557D01*
X224590395Y-120500000D01*
X224590395Y-120859210D01*
X223797443Y-121652163D01*
X223840990Y-121770000D01*
X223797443Y-121887837D01*
X224770000Y-122860395D01*
X225742557Y-121887837D01*
X225742557Y-122247048D01*
X224949605Y-123040000D01*
X225922163Y-124012557D01*
X226188965Y-123913958D01*
X226415401Y-123304418D01*
X226415401Y-139347315D01*
X226185328Y-139577388D01*
X226058690Y-139766916D01*
X226039482Y-139863480D01*
X225591851Y-139863480D01*
X225642697Y-139787384D01*
X225673942Y-139630300D01*
X225736890Y-139630300D01*
X225895595Y-139564563D01*
X226017062Y-139443095D01*
X226082800Y-139284391D01*
X226082800Y-139112610D01*
X226082800Y-137715610D01*
X226017063Y-137556905D01*
X225895595Y-137435438D01*
X225845511Y-137414692D01*
X226118652Y-137141552D01*
X226250797Y-136943784D01*
X226297199Y-136710500D01*
X226297200Y-136710500D01*
X226297200Y-126497600D01*
X226250797Y-126264316D01*
X226118652Y-126066548D01*
X226118652Y-126066547D01*
X226118011Y-126065906D01*
X226201041Y-125865950D01*
X226201538Y-125296548D01*
X225984096Y-124770298D01*
X225651887Y-124437509D01*
X225742557Y-124192163D01*
X224770000Y-123219605D01*
X224590395Y-123399210D01*
X224590395Y-123040000D01*
X223617837Y-122067443D01*
X223500000Y-122110990D01*
X223382163Y-122067443D01*
X223202557Y-122247048D01*
X223202557Y-121887837D01*
X223159009Y-121770000D01*
X223202557Y-121652163D01*
X222230000Y-120679605D01*
X222050395Y-120859210D01*
X222050395Y-120500000D01*
X221077837Y-119527443D01*
X220811035Y-119626042D01*
X220584599Y-120235582D01*
X220608659Y-120885377D01*
X220811035Y-121373958D01*
X221077837Y-121472557D01*
X222050395Y-120500000D01*
X222050395Y-120859210D01*
X221257443Y-121652163D01*
X221300990Y-121770000D01*
X221257443Y-121887837D01*
X222230000Y-122860395D01*
X223202557Y-121887837D01*
X223202557Y-122247048D01*
X222409605Y-123040000D01*
X223382163Y-124012557D01*
X223500000Y-123969009D01*
X223617837Y-124012557D01*
X224590395Y-123040000D01*
X224590395Y-123399210D01*
X223797443Y-124192163D01*
X223888235Y-124437841D01*
X223557319Y-124768181D01*
X223500129Y-124905909D01*
X223444096Y-124770298D01*
X223111887Y-124437509D01*
X223202557Y-124192163D01*
X222230000Y-123219605D01*
X222050395Y-123399210D01*
X222050395Y-123040000D01*
X221077837Y-122067443D01*
X220811035Y-122166042D01*
X220584599Y-122775582D01*
X220608659Y-123425377D01*
X220811035Y-123913958D01*
X221077837Y-124012557D01*
X222050395Y-123040000D01*
X222050395Y-123399210D01*
X221257443Y-124192163D01*
X221348235Y-124437841D01*
X221017319Y-124768181D01*
X220798959Y-125294050D01*
X220798462Y-125863452D01*
X221015904Y-126389702D01*
X221418181Y-126792681D01*
X221944050Y-127011041D01*
X222513452Y-127011538D01*
X223039702Y-126794096D01*
X223442681Y-126391819D01*
X223499870Y-126254090D01*
X223555904Y-126389702D01*
X223958181Y-126792681D01*
X224484050Y-127011041D01*
X225053452Y-127011538D01*
X225078000Y-127001394D01*
X225078000Y-129665000D01*
X224785750Y-129665000D01*
X224627000Y-129823750D01*
X224627000Y-130873000D01*
X224647000Y-130873000D01*
X224647000Y-131127000D01*
X224627000Y-131127000D01*
X224627000Y-132176250D01*
X224785750Y-132335000D01*
X225078000Y-132335000D01*
X225078000Y-136457996D01*
X224648448Y-136887548D01*
X224516303Y-137085316D01*
X224469900Y-137318600D01*
X224469900Y-137369700D01*
X224422110Y-137369700D01*
X224263405Y-137435437D01*
X224141938Y-137556905D01*
X224076200Y-137715609D01*
X224076200Y-137887390D01*
X224076200Y-139284390D01*
X224141937Y-139443095D01*
X224241888Y-139543045D01*
X224136803Y-139700316D01*
X224090400Y-139933600D01*
X224090400Y-143962000D01*
X224136803Y-144195284D01*
X224268948Y-144393052D01*
X224711948Y-144836053D01*
X224830501Y-144915267D01*
X224909716Y-144968197D01*
X224909717Y-144968197D01*
X225143000Y-145014600D01*
X225197822Y-145014600D01*
X225254005Y-145070782D01*
X225265600Y-145075584D01*
X225265600Y-149344947D01*
X225214096Y-149220298D01*
X224811819Y-148817319D01*
X224285950Y-148598959D01*
X223716548Y-148598462D01*
X223190298Y-148815904D01*
X222787319Y-149218181D01*
X222568959Y-149744050D01*
X222568494Y-150276390D01*
X222011180Y-149719076D01*
X222011180Y-145136520D01*
X222587290Y-145136520D01*
X222745995Y-145070783D01*
X222867462Y-144949315D01*
X222933200Y-144790611D01*
X222933200Y-144618830D01*
X222933200Y-144019390D01*
X222867463Y-143860685D01*
X222776777Y-143770000D01*
X222867462Y-143679315D01*
X222933200Y-143520611D01*
X222933200Y-143348830D01*
X222933200Y-142749390D01*
X222867463Y-142590685D01*
X222776777Y-142500000D01*
X222867462Y-142409315D01*
X222933200Y-142250611D01*
X222933200Y-142078830D01*
X222933200Y-141479390D01*
X222867463Y-141320685D01*
X222776777Y-141230000D01*
X222867462Y-141139315D01*
X222933200Y-140980611D01*
X222933200Y-140808830D01*
X222933200Y-140209390D01*
X222867463Y-140050685D01*
X222745995Y-139929218D01*
X222587291Y-139863480D01*
X222415510Y-139863480D01*
X222011180Y-139863480D01*
X222011180Y-139471337D01*
X222104405Y-139564562D01*
X222263109Y-139630300D01*
X222434890Y-139630300D01*
X223577890Y-139630300D01*
X223736595Y-139564563D01*
X223858062Y-139443095D01*
X223923800Y-139284391D01*
X223923800Y-139112610D01*
X223923800Y-137715610D01*
X223858063Y-137556905D01*
X223736595Y-137435438D01*
X223577891Y-137369700D01*
X223530100Y-137369700D01*
X223530100Y-137318600D01*
X223483697Y-137085316D01*
X223351552Y-136887548D01*
X223109600Y-136645596D01*
X223109600Y-131972727D01*
X223140275Y-131960053D01*
X223196959Y-131903467D01*
X223261673Y-132059699D01*
X223440302Y-132238327D01*
X223673691Y-132335000D01*
X224214250Y-132335000D01*
X224373000Y-132176250D01*
X224373000Y-131127000D01*
X224353000Y-131127000D01*
X224353000Y-130873000D01*
X224373000Y-130873000D01*
X224373000Y-129823750D01*
X224214250Y-129665000D01*
X223673691Y-129665000D01*
X223440302Y-129761673D01*
X223261673Y-129940301D01*
X223197065Y-130096277D01*
X223141950Y-130041066D01*
X222726117Y-129868397D01*
X222275859Y-129868004D01*
X222218067Y-129891883D01*
X222213093Y-129886909D01*
X220009200Y-127683016D01*
X220009200Y-118466984D01*
X220591597Y-117884586D01*
X220608659Y-118345377D01*
X220811035Y-118833958D01*
X221077837Y-118932557D01*
X222050395Y-117960000D01*
X222036252Y-117945857D01*
X222215857Y-117766252D01*
X222230000Y-117780395D01*
X223202557Y-116807837D01*
X223111764Y-116562158D01*
X223338710Y-116335608D01*
X223338710Y-116505380D01*
X223404447Y-116664085D01*
X223525915Y-116785552D01*
X223572052Y-116804663D01*
X223503554Y-116873162D01*
X223617835Y-116987443D01*
X223500000Y-117030990D01*
X223382163Y-116987443D01*
X222409605Y-117960000D01*
X223382163Y-118932557D01*
X223500000Y-118889009D01*
X223617837Y-118932557D01*
X224590395Y-117960000D01*
X224576252Y-117945857D01*
X224755857Y-117766252D01*
X224770000Y-117780395D01*
X224784142Y-117766252D01*
X224963747Y-117945857D01*
X224949605Y-117960000D01*
X225922163Y-118932557D01*
X226188965Y-118833958D01*
X226415401Y-118224418D01*
X226391341Y-117574623D01*
X226188965Y-117086042D01*
X225922164Y-116987443D01*
X226036446Y-116873162D01*
X225967947Y-116804663D01*
X226014085Y-116785553D01*
X226135552Y-116664085D01*
X226201290Y-116505381D01*
X226201290Y-116333600D01*
X226201290Y-114334620D01*
X226135553Y-114175915D01*
X226014085Y-114054448D01*
X225855381Y-113988710D01*
X225683600Y-113988710D01*
X225631800Y-113988710D01*
X225631800Y-111285891D01*
X225631800Y-111114110D01*
X225631800Y-109714110D01*
X225566063Y-109555405D01*
X225444595Y-109433938D01*
X225285891Y-109368200D01*
X225114110Y-109368200D01*
X223714110Y-109368200D01*
X223555405Y-109433937D01*
X223455393Y-109533949D01*
X223370918Y-109449474D01*
X223255668Y-109564723D01*
X223193831Y-109328958D01*
X222692878Y-109152581D01*
X222162560Y-109181336D01*
X221806169Y-109328958D01*
X221744331Y-109564725D01*
X222500000Y-110320395D01*
X222514142Y-110306252D01*
X222693747Y-110485857D01*
X222679605Y-110500000D01*
X222693747Y-110514142D01*
X222514142Y-110693747D01*
X222500000Y-110679605D01*
X222320395Y-110859210D01*
X222320395Y-110500000D01*
X221564725Y-109744331D01*
X221328958Y-109806169D01*
X221152581Y-110307122D01*
X221181336Y-110837440D01*
X221328958Y-111193831D01*
X221564725Y-111255669D01*
X222320395Y-110500000D01*
X222320395Y-110859210D01*
X221744331Y-111435275D01*
X221806169Y-111671042D01*
X222307122Y-111847419D01*
X222837440Y-111818664D01*
X223193831Y-111671042D01*
X223255668Y-111435276D01*
X223255669Y-111435277D01*
X223370918Y-111550526D01*
X223455393Y-111466050D01*
X223555405Y-111566062D01*
X223714109Y-111631800D01*
X223885890Y-111631800D01*
X225285890Y-111631800D01*
X225444595Y-111566063D01*
X225566062Y-111444595D01*
X225631800Y-111285891D01*
X225631800Y-113988710D01*
X223684620Y-113988710D01*
X223525915Y-114054447D01*
X223404448Y-114175915D01*
X223338710Y-114334619D01*
X223338710Y-114504728D01*
X223255669Y-114421542D01*
X223041819Y-114207319D01*
X222515950Y-113988959D01*
X221946548Y-113988462D01*
X221420298Y-114205904D01*
X221017319Y-114608181D01*
X220798959Y-115134050D01*
X220798462Y-115703452D01*
X220892580Y-115931235D01*
X219481800Y-117342015D01*
X219481800Y-112542744D01*
X219481800Y-111457256D01*
X219353781Y-110813659D01*
X218989212Y-110268044D01*
X218443597Y-109903475D01*
X217800000Y-109775456D01*
X217156403Y-109903475D01*
X216610788Y-110268044D01*
X216246219Y-110813659D01*
X216118200Y-111457256D01*
X216118200Y-112542744D01*
X216246219Y-113186341D01*
X216610788Y-113731956D01*
X217156403Y-114096525D01*
X217800000Y-114224544D01*
X218443597Y-114096525D01*
X218989212Y-113731956D01*
X219353781Y-113186341D01*
X219481800Y-112542744D01*
X219481800Y-117342015D01*
X219011908Y-117811908D01*
X218885270Y-118001436D01*
X218840800Y-118225000D01*
X218840800Y-127925000D01*
X218885270Y-128148564D01*
X219011908Y-128338092D01*
X221386909Y-130713093D01*
X221391664Y-130717848D01*
X221368397Y-130773883D01*
X221368004Y-131224141D01*
X221539947Y-131640275D01*
X221858050Y-131958934D01*
X221890400Y-131972366D01*
X221890400Y-136898100D01*
X221936803Y-137131384D01*
X222068948Y-137329152D01*
X222154488Y-137414692D01*
X222104405Y-137435437D01*
X221982938Y-137556905D01*
X221917200Y-137715609D01*
X221917200Y-137887390D01*
X221917200Y-137926761D01*
X221866716Y-137936803D01*
X221668948Y-138068948D01*
X220970528Y-138767368D01*
X220838383Y-138965136D01*
X220791980Y-139198420D01*
X220791980Y-139863480D01*
X220215870Y-139863480D01*
X220057165Y-139929217D01*
X219935698Y-140050685D01*
X219869960Y-140209389D01*
X219869960Y-140381170D01*
X219869960Y-140980610D01*
X219935697Y-141139315D01*
X220026382Y-141229999D01*
X219975582Y-141280800D01*
X219481800Y-141280800D01*
X219481800Y-132542744D01*
X219481800Y-131457256D01*
X219353781Y-130813659D01*
X218989212Y-130268044D01*
X218443597Y-129903475D01*
X217800000Y-129775456D01*
X217156403Y-129903475D01*
X216807027Y-130136921D01*
X216807027Y-119241202D01*
X216608497Y-118760724D01*
X216241209Y-118392795D01*
X215761079Y-118193427D01*
X215241202Y-118192973D01*
X214760724Y-118391503D01*
X214392795Y-118758791D01*
X214249894Y-119102931D01*
X214108497Y-118760724D01*
X213741209Y-118392795D01*
X213261079Y-118193427D01*
X212741202Y-118192973D01*
X212260724Y-118391503D01*
X211892795Y-118758791D01*
X211866334Y-118822515D01*
X211815953Y-118700884D01*
X211562060Y-118617545D01*
X211382455Y-118797150D01*
X211382455Y-118437940D01*
X211299116Y-118184047D01*
X210734694Y-117978410D01*
X210134542Y-118004421D01*
X209881800Y-118109109D01*
X209881800Y-112542744D01*
X209881800Y-111457256D01*
X209753781Y-110813659D01*
X209389212Y-110268044D01*
X208843597Y-109903475D01*
X208200000Y-109775456D01*
X207556403Y-109903475D01*
X207010788Y-110268044D01*
X206646219Y-110813659D01*
X206518200Y-111457256D01*
X206518200Y-112542744D01*
X206646219Y-113186341D01*
X207010788Y-113731956D01*
X207556403Y-114096525D01*
X208200000Y-114224544D01*
X208843597Y-114096525D01*
X209389212Y-113731956D01*
X209753781Y-113186341D01*
X209881800Y-112542744D01*
X209881800Y-118109109D01*
X209700884Y-118184047D01*
X209617545Y-118437940D01*
X210500000Y-119320395D01*
X211382455Y-118437940D01*
X211382455Y-118797150D01*
X210679605Y-119500000D01*
X211562060Y-120382455D01*
X211815953Y-120299116D01*
X211862940Y-120170148D01*
X211891503Y-120239276D01*
X212258791Y-120607205D01*
X212738921Y-120806573D01*
X213258798Y-120807027D01*
X213739276Y-120608497D01*
X214107205Y-120241209D01*
X214250105Y-119897068D01*
X214391503Y-120239276D01*
X214758791Y-120607205D01*
X215238921Y-120806573D01*
X215758798Y-120807027D01*
X216239276Y-120608497D01*
X216607205Y-120241209D01*
X216806573Y-119761079D01*
X216807027Y-119241202D01*
X216807027Y-130136921D01*
X216610788Y-130268044D01*
X216246219Y-130813659D01*
X216118200Y-131457256D01*
X216118200Y-132542744D01*
X216246219Y-133186341D01*
X216610788Y-133731956D01*
X217156403Y-134096525D01*
X217800000Y-134224544D01*
X218443597Y-134096525D01*
X218989212Y-133731956D01*
X219353781Y-133186341D01*
X219481800Y-132542744D01*
X219481800Y-141280800D01*
X219306984Y-141280800D01*
X218084200Y-140058016D01*
X218084200Y-136600000D01*
X218039730Y-136376437D01*
X218039730Y-136376436D01*
X217913092Y-136186908D01*
X215313092Y-133586908D01*
X215123564Y-133460270D01*
X214900000Y-133415800D01*
X211382455Y-133415800D01*
X211382455Y-120562060D01*
X210500000Y-119679605D01*
X210320395Y-119859210D01*
X210320395Y-119500000D01*
X209437940Y-118617545D01*
X209184047Y-118700884D01*
X208978410Y-119265306D01*
X209004421Y-119865458D01*
X209184047Y-120299116D01*
X209437940Y-120382455D01*
X210320395Y-119500000D01*
X210320395Y-119859210D01*
X209617545Y-120562060D01*
X209700884Y-120815953D01*
X210265306Y-121021590D01*
X210865458Y-120995579D01*
X211299116Y-120815953D01*
X211382455Y-120562060D01*
X211382455Y-133415800D01*
X210700005Y-133415800D01*
X210700000Y-133415799D01*
X210476437Y-133460269D01*
X210413547Y-133502290D01*
X210286908Y-133586908D01*
X210286905Y-133586911D01*
X209881800Y-133992016D01*
X209881800Y-132542744D01*
X209881800Y-131457256D01*
X209753781Y-130813659D01*
X209389212Y-130268044D01*
X208843597Y-129903475D01*
X208200000Y-129775456D01*
X207556403Y-129903475D01*
X207010788Y-130268044D01*
X206646219Y-130813659D01*
X206518200Y-131457256D01*
X206518200Y-132542744D01*
X206646219Y-133186341D01*
X207010788Y-133731956D01*
X207556403Y-134096525D01*
X208200000Y-134224544D01*
X208843597Y-134096525D01*
X209389212Y-133731956D01*
X209753781Y-133186341D01*
X209881800Y-132542744D01*
X209881800Y-133992016D01*
X207886908Y-135986908D01*
X207760270Y-136176436D01*
X207715800Y-136400000D01*
X207715800Y-142800000D01*
X207760270Y-143023564D01*
X207886908Y-143213092D01*
X212415800Y-147741984D01*
X212415800Y-158262564D01*
X212415800Y-158327426D01*
X212260724Y-158391503D01*
X211892795Y-158758791D01*
X211866334Y-158822515D01*
X211815953Y-158700884D01*
X211562060Y-158617545D01*
X211382455Y-158797150D01*
X211382455Y-158437940D01*
X211299116Y-158184047D01*
X210734694Y-157978410D01*
X210134542Y-158004421D01*
X209881800Y-158109109D01*
X209881800Y-152542744D01*
X209881800Y-151457256D01*
X209753781Y-150813659D01*
X209389212Y-150268044D01*
X208843597Y-149903475D01*
X208200000Y-149775456D01*
X207556403Y-149903475D01*
X207010788Y-150268044D01*
X206646219Y-150813659D01*
X206518200Y-151457256D01*
X206518200Y-152542744D01*
X206646219Y-153186341D01*
X207010788Y-153731956D01*
X207556403Y-154096525D01*
X208200000Y-154224544D01*
X208843597Y-154096525D01*
X209389212Y-153731956D01*
X209753781Y-153186341D01*
X209881800Y-152542744D01*
X209881800Y-158109109D01*
X209700884Y-158184047D01*
X209617545Y-158437940D01*
X210500000Y-159320395D01*
X211382455Y-158437940D01*
X211382455Y-158797150D01*
X210679605Y-159500000D01*
X211562060Y-160382455D01*
X211815953Y-160299116D01*
X211862940Y-160170148D01*
X211891503Y-160239276D01*
X212258791Y-160607205D01*
X212738921Y-160806573D01*
X213258798Y-160807027D01*
X213739276Y-160608497D01*
X214107205Y-160241209D01*
X214250105Y-159897068D01*
X214391503Y-160239276D01*
X214758791Y-160607205D01*
X214915800Y-160672401D01*
X214915800Y-161650516D01*
X212586908Y-163979408D01*
X212460270Y-164168936D01*
X212415800Y-164392500D01*
X212415800Y-164525902D01*
X212122317Y-164584280D01*
X211414490Y-165057234D01*
X211382455Y-165105177D01*
X211382455Y-160562060D01*
X210500000Y-159679605D01*
X210320395Y-159859210D01*
X210320395Y-159500000D01*
X209437940Y-158617545D01*
X209184047Y-158700884D01*
X208978410Y-159265306D01*
X209004421Y-159865458D01*
X209184047Y-160299116D01*
X209437940Y-160382455D01*
X210320395Y-159500000D01*
X210320395Y-159859210D01*
X209617545Y-160562060D01*
X209700884Y-160815953D01*
X210265306Y-161021590D01*
X210865458Y-160995579D01*
X211299116Y-160815953D01*
X211382455Y-160562060D01*
X211382455Y-165105177D01*
X210941536Y-165765061D01*
X210775456Y-166600000D01*
X210941536Y-167434939D01*
X211414490Y-168142766D01*
X212122317Y-168615720D01*
X212957256Y-168781800D01*
X213042744Y-168781800D01*
X213877683Y-168615720D01*
X214585510Y-168142766D01*
X215058464Y-167434939D01*
X215224544Y-166600000D01*
X215058464Y-165765061D01*
X214585510Y-165057234D01*
X213877683Y-164584280D01*
X213674766Y-164543917D01*
X215913092Y-162305592D01*
X216039730Y-162116064D01*
X216039730Y-162116063D01*
X216084200Y-161892500D01*
X216084200Y-160672573D01*
X216239276Y-160608497D01*
X216607205Y-160241209D01*
X216806573Y-159761079D01*
X216807027Y-159241202D01*
X216608497Y-158760724D01*
X216241209Y-158392795D01*
X215761079Y-158193427D01*
X215241202Y-158192973D01*
X214760724Y-158391503D01*
X214392795Y-158758791D01*
X214249894Y-159102931D01*
X214108497Y-158760724D01*
X213741209Y-158392795D01*
X213584200Y-158327598D01*
X213584200Y-158262564D01*
X213584200Y-147500000D01*
X213539731Y-147276437D01*
X213539730Y-147276436D01*
X213413092Y-147086908D01*
X208884200Y-142558016D01*
X208884200Y-136641983D01*
X210941983Y-134584200D01*
X214658016Y-134584200D01*
X216915800Y-136841984D01*
X216915800Y-140300000D01*
X216960270Y-140523564D01*
X217086908Y-140713092D01*
X218651908Y-142278092D01*
X218841436Y-142404730D01*
X218841437Y-142404730D01*
X219065000Y-142449200D01*
X219975582Y-142449200D01*
X220026382Y-142499999D01*
X219975582Y-142550800D01*
X214376984Y-142550800D01*
X212557370Y-140731186D01*
X212738921Y-140806573D01*
X213258798Y-140807027D01*
X213739276Y-140608497D01*
X214107205Y-140241209D01*
X214161853Y-140109600D01*
X214337921Y-140109600D01*
X214391503Y-140239276D01*
X214758791Y-140607205D01*
X215238921Y-140806573D01*
X215758798Y-140807027D01*
X216239276Y-140608497D01*
X216607205Y-140241209D01*
X216806573Y-139761079D01*
X216807027Y-139241202D01*
X216608497Y-138760724D01*
X216241209Y-138392795D01*
X215761079Y-138193427D01*
X215286000Y-138193012D01*
X215286000Y-137074810D01*
X215286000Y-136822191D01*
X215286000Y-136535750D01*
X215286000Y-135964250D01*
X215286000Y-135677809D01*
X215286000Y-135425190D01*
X215189327Y-135191801D01*
X215010698Y-135013173D01*
X214777309Y-134916500D01*
X214365250Y-134916500D01*
X214206500Y-135075250D01*
X214206500Y-136123000D01*
X215127250Y-136123000D01*
X215286000Y-135964250D01*
X215286000Y-136535750D01*
X215127250Y-136377000D01*
X214206500Y-136377000D01*
X214206500Y-137424750D01*
X214365250Y-137583500D01*
X214777309Y-137583500D01*
X215010698Y-137486827D01*
X215189327Y-137308199D01*
X215286000Y-137074810D01*
X215286000Y-138193012D01*
X215241202Y-138192973D01*
X214760724Y-138391503D01*
X214392795Y-138758791D01*
X214338146Y-138890400D01*
X214162078Y-138890400D01*
X214108497Y-138760724D01*
X213741209Y-138392795D01*
X213261079Y-138193427D01*
X212741202Y-138192973D01*
X212454687Y-138311358D01*
X212460230Y-138303064D01*
X212460230Y-138303063D01*
X212504700Y-138079500D01*
X212504700Y-137380300D01*
X212577890Y-137380300D01*
X212736595Y-137314563D01*
X212858062Y-137193095D01*
X212890028Y-137115921D01*
X212969673Y-137308199D01*
X213148302Y-137486827D01*
X213381691Y-137583500D01*
X213793750Y-137583500D01*
X213952500Y-137424750D01*
X213952500Y-136377000D01*
X213932500Y-136377000D01*
X213932500Y-136123000D01*
X213952500Y-136123000D01*
X213952500Y-135075250D01*
X213793750Y-134916500D01*
X213381691Y-134916500D01*
X213148302Y-135013173D01*
X212969673Y-135191801D01*
X212890028Y-135384078D01*
X212858063Y-135306905D01*
X212736595Y-135185438D01*
X212577891Y-135119700D01*
X212406110Y-135119700D01*
X211263110Y-135119700D01*
X211104405Y-135185437D01*
X210982938Y-135306905D01*
X210917200Y-135465609D01*
X210917200Y-135637390D01*
X210917200Y-137034390D01*
X210982937Y-137193095D01*
X211104405Y-137314562D01*
X211263109Y-137380300D01*
X211336300Y-137380300D01*
X211336300Y-137837516D01*
X210916042Y-138257773D01*
X210761079Y-138193427D01*
X210241202Y-138192973D01*
X209760724Y-138391503D01*
X209392795Y-138758791D01*
X209193427Y-139238921D01*
X209192973Y-139758798D01*
X209391503Y-140239276D01*
X209758791Y-140607205D01*
X210238921Y-140806573D01*
X210758798Y-140807027D01*
X210915920Y-140742104D01*
X213721908Y-143548092D01*
X213911436Y-143674730D01*
X213911437Y-143674730D01*
X214135000Y-143719200D01*
X219975582Y-143719200D01*
X220026382Y-143769999D01*
X219935698Y-143860685D01*
X219869960Y-144019389D01*
X219869960Y-144191170D01*
X219869960Y-144790610D01*
X219935697Y-144949315D01*
X220057165Y-145070782D01*
X220215869Y-145136520D01*
X220387650Y-145136520D01*
X220791980Y-145136520D01*
X220791980Y-149971580D01*
X220838383Y-150204864D01*
X220970528Y-150402632D01*
X222651988Y-152084092D01*
X222568959Y-152284050D01*
X222568462Y-152853452D01*
X222785904Y-153379702D01*
X223188181Y-153782681D01*
X223325909Y-153839870D01*
X223190298Y-153895904D01*
X222787319Y-154298181D01*
X222568959Y-154824050D01*
X222568462Y-155393452D01*
X222785904Y-155919702D01*
X223188181Y-156322681D01*
X223325909Y-156379870D01*
X223190298Y-156435904D01*
X222787319Y-156838181D01*
X222568959Y-157364050D01*
X222568462Y-157933452D01*
X222785904Y-158459702D01*
X223188181Y-158862681D01*
X223325909Y-158919870D01*
X223190298Y-158975904D01*
X222787319Y-159378181D01*
X222568959Y-159904050D01*
X222568462Y-160473452D01*
X222785904Y-160999702D01*
X223118112Y-161332490D01*
X223027443Y-161577837D01*
X224000000Y-162550395D01*
X224972557Y-161577837D01*
X224881764Y-161332158D01*
X225212681Y-161001819D01*
X225265600Y-160874375D01*
X225265600Y-161799364D01*
X225152163Y-161757443D01*
X224179605Y-162730000D01*
X225152163Y-163702557D01*
X225265600Y-163660635D01*
X225265600Y-164584947D01*
X225214096Y-164460298D01*
X224881887Y-164127509D01*
X224972557Y-163882163D01*
X224000000Y-162909605D01*
X223820395Y-163089210D01*
X223820395Y-162730000D01*
X222847837Y-161757443D01*
X222581035Y-161856042D01*
X222354599Y-162465582D01*
X222378659Y-163115377D01*
X222581035Y-163603958D01*
X222847837Y-163702557D01*
X223820395Y-162730000D01*
X223820395Y-163089210D01*
X223027443Y-163882163D01*
X223118235Y-164127841D01*
X222787319Y-164458181D01*
X222568959Y-164984050D01*
X222568462Y-165553452D01*
X222652077Y-165755817D01*
X220099348Y-168308548D01*
X219967203Y-168506316D01*
X219920800Y-168739600D01*
X219920800Y-171584196D01*
X219481800Y-172023196D01*
X219481800Y-152542744D01*
X219481800Y-151457256D01*
X219353781Y-150813659D01*
X218989212Y-150268044D01*
X218443597Y-149903475D01*
X217800000Y-149775456D01*
X217156403Y-149903475D01*
X216610788Y-150268044D01*
X216246219Y-150813659D01*
X216118200Y-151457256D01*
X216118200Y-152542744D01*
X216246219Y-153186341D01*
X216610788Y-153731956D01*
X217156403Y-154096525D01*
X217800000Y-154224544D01*
X218443597Y-154096525D01*
X218989212Y-153731956D01*
X219353781Y-153186341D01*
X219481800Y-152542744D01*
X219481800Y-172023196D01*
X219335000Y-172169996D01*
X219335000Y-171627000D01*
X219335000Y-171373000D01*
X219335000Y-170623000D01*
X219161942Y-170006980D01*
X218766317Y-169504078D01*
X218208355Y-169190856D01*
X218080434Y-169159876D01*
X217827000Y-169279223D01*
X217827000Y-171373000D01*
X219335000Y-171373000D01*
X219335000Y-171627000D01*
X217827000Y-171627000D01*
X217827000Y-171647000D01*
X217573000Y-171647000D01*
X217573000Y-171627000D01*
X217573000Y-171373000D01*
X217573000Y-169279223D01*
X217319566Y-169159876D01*
X217191645Y-169190856D01*
X216633683Y-169504078D01*
X216238058Y-170006980D01*
X216065000Y-170623000D01*
X216065000Y-171373000D01*
X217573000Y-171373000D01*
X217573000Y-171627000D01*
X216065000Y-171627000D01*
X216065000Y-172377000D01*
X216238058Y-172993020D01*
X216633683Y-173495922D01*
X217191645Y-173809144D01*
X217319566Y-173840124D01*
X217572998Y-173720777D01*
X217572998Y-173885000D01*
X217573000Y-173885000D01*
X217619996Y-173885000D01*
X217573000Y-173931996D01*
X215224544Y-176280452D01*
X215224544Y-174800000D01*
X215058464Y-173965061D01*
X214585510Y-173257234D01*
X213877683Y-172784280D01*
X213042744Y-172618200D01*
X212957256Y-172618200D01*
X212122317Y-172784280D01*
X211414490Y-173257234D01*
X210941536Y-173965061D01*
X210775456Y-174800000D01*
X210941536Y-175634939D01*
X211414490Y-176342766D01*
X212122317Y-176815720D01*
X212957256Y-176981800D01*
X213042744Y-176981800D01*
X213877683Y-176815720D01*
X214585510Y-176342766D01*
X215058464Y-175634939D01*
X215224544Y-174800000D01*
X215224544Y-176280452D01*
X212568948Y-178936048D01*
X212436803Y-179133816D01*
X212390400Y-179367100D01*
X212390400Y-179530954D01*
X212122317Y-179584280D01*
X211414490Y-180057234D01*
X210941536Y-180765061D01*
X210775456Y-181600000D01*
X210941536Y-182434939D01*
X211414490Y-183142766D01*
X212122317Y-183615720D01*
X212957256Y-183781800D01*
X213042744Y-183781800D01*
X213877683Y-183615720D01*
X214585510Y-183142766D01*
X215058464Y-182434939D01*
X215224544Y-181600000D01*
X215058464Y-180765061D01*
X214585510Y-180057234D01*
X213877683Y-179584280D01*
X213683541Y-179545662D01*
X220961452Y-172267752D01*
X221093597Y-172069984D01*
X221140000Y-171836700D01*
X221140000Y-168992104D01*
X222568924Y-167563179D01*
X222568462Y-168093452D01*
X222785904Y-168619702D01*
X223118112Y-168952490D01*
X223027443Y-169197837D01*
X224000000Y-170170395D01*
X224972557Y-169197837D01*
X224881764Y-168952158D01*
X225212681Y-168621819D01*
X225265600Y-168494375D01*
X225265600Y-169419364D01*
X225152163Y-169377443D01*
X224179605Y-170350000D01*
X224193747Y-170364142D01*
X224014142Y-170543747D01*
X224000000Y-170529605D01*
X223820395Y-170709210D01*
X223820395Y-170350000D01*
X222847837Y-169377443D01*
X222581035Y-169476042D01*
X222354599Y-170085582D01*
X222378659Y-170735377D01*
X222581035Y-171223958D01*
X222847837Y-171322557D01*
X223820395Y-170350000D01*
X223820395Y-170709210D01*
X223027443Y-171502163D01*
X223118235Y-171747841D01*
X222787319Y-172078181D01*
X222568959Y-172604050D01*
X222568462Y-173173452D01*
X222785904Y-173699702D01*
X223188181Y-174102681D01*
X223325909Y-174159870D01*
X223190298Y-174215904D01*
X222787319Y-174618181D01*
X222660471Y-174923662D01*
X222476436Y-174960270D01*
X222286908Y-175086908D01*
X219836908Y-177536908D01*
X219710270Y-177726436D01*
X219665800Y-177950000D01*
X219665800Y-191758016D01*
X219335000Y-192088816D01*
X219335000Y-187377000D01*
X219335000Y-186627000D01*
X219335000Y-186373000D01*
X219335000Y-185623000D01*
X219161942Y-185006980D01*
X218766317Y-184504078D01*
X218208355Y-184190856D01*
X218080434Y-184159876D01*
X217827000Y-184279223D01*
X217827000Y-186373000D01*
X219335000Y-186373000D01*
X219335000Y-186627000D01*
X217827000Y-186627000D01*
X217827000Y-188720777D01*
X218080434Y-188840124D01*
X218208355Y-188809144D01*
X218766317Y-188495922D01*
X219161942Y-187993020D01*
X219335000Y-187377000D01*
X219335000Y-192088816D01*
X217573000Y-193850816D01*
X217573000Y-188720777D01*
X217573000Y-186627000D01*
X217573000Y-186373000D01*
X217573000Y-184279223D01*
X217319566Y-184159876D01*
X217191645Y-184190856D01*
X216633683Y-184504078D01*
X216238058Y-185006980D01*
X216065000Y-185623000D01*
X216065000Y-186373000D01*
X217573000Y-186373000D01*
X217573000Y-186627000D01*
X216065000Y-186627000D01*
X216065000Y-187377000D01*
X216238058Y-187993020D01*
X216633683Y-188495922D01*
X217191645Y-188809144D01*
X217319566Y-188840124D01*
X217573000Y-188720777D01*
X217573000Y-193850816D01*
X215408016Y-196015800D01*
X215224544Y-196015800D01*
X215224544Y-189800000D01*
X215058464Y-188965061D01*
X214585510Y-188257234D01*
X213877683Y-187784280D01*
X213042744Y-187618200D01*
X212957256Y-187618200D01*
X212122317Y-187784280D01*
X211414490Y-188257234D01*
X210941536Y-188965061D01*
X210775456Y-189800000D01*
X210941536Y-190634939D01*
X211414490Y-191342766D01*
X212122317Y-191815720D01*
X212957256Y-191981800D01*
X213042744Y-191981800D01*
X213877683Y-191815720D01*
X214585510Y-191342766D01*
X215058464Y-190634939D01*
X215224544Y-189800000D01*
X215224544Y-196015800D01*
X215108339Y-196015800D01*
X215058464Y-195765061D01*
X214585510Y-195057234D01*
X213877683Y-194584280D01*
X213042744Y-194418200D01*
X212957256Y-194418200D01*
X212122317Y-194584280D01*
X211414490Y-195057234D01*
X210941536Y-195765061D01*
X210775456Y-196600000D01*
X210941536Y-197434939D01*
X211414490Y-198142766D01*
X212122317Y-198615720D01*
X212957256Y-198781800D01*
X213042744Y-198781800D01*
X213877683Y-198615720D01*
X214585510Y-198142766D01*
X215058464Y-197434939D01*
X215108339Y-197184200D01*
X215650000Y-197184200D01*
X215873563Y-197139730D01*
X215873564Y-197139730D01*
X216063092Y-197013092D01*
X220663092Y-192413092D01*
X220789730Y-192223564D01*
X220789730Y-192223563D01*
X220834200Y-192000000D01*
X220834200Y-178191984D01*
X222786192Y-176239991D01*
X223084391Y-176538710D01*
X222914620Y-176538710D01*
X222755915Y-176604447D01*
X222634448Y-176725915D01*
X222568710Y-176884619D01*
X222568710Y-177056400D01*
X222568710Y-179055380D01*
X222634447Y-179214085D01*
X222755915Y-179335552D01*
X222914619Y-179401290D01*
X223086400Y-179401290D01*
X223415800Y-179401290D01*
X223415800Y-192250000D01*
X223460270Y-192473564D01*
X223586908Y-192663092D01*
X227936908Y-197013092D01*
X228126436Y-197139730D01*
X228126437Y-197139730D01*
X228350000Y-197184200D01*
X231891660Y-197184200D01*
X231941536Y-197434939D01*
X232414490Y-198142766D01*
X233122317Y-198615720D01*
X233957256Y-198781800D01*
X234042744Y-198781800D01*
X234877683Y-198615720D01*
X235585510Y-198142766D01*
X236058464Y-197434939D01*
X236224544Y-196600000D01*
X236224544Y-189800000D01*
X236224544Y-181600000D01*
X236224544Y-174800000D01*
X236058464Y-173965061D01*
X235585510Y-173257234D01*
X234877683Y-172784280D01*
X234042744Y-172618200D01*
X233957256Y-172618200D01*
X233122317Y-172784280D01*
X232414490Y-173257234D01*
X231941536Y-173965061D01*
X231775456Y-174800000D01*
X231941536Y-175634939D01*
X232414490Y-176342766D01*
X233122317Y-176815720D01*
X233957256Y-176981800D01*
X234042744Y-176981800D01*
X234877683Y-176815720D01*
X235585510Y-176342766D01*
X236058464Y-175634939D01*
X236224544Y-174800000D01*
X236224544Y-181600000D01*
X236058464Y-180765061D01*
X235585510Y-180057234D01*
X234877683Y-179584280D01*
X234042744Y-179418200D01*
X233957256Y-179418200D01*
X233122317Y-179584280D01*
X232414490Y-180057234D01*
X231941536Y-180765061D01*
X231775456Y-181600000D01*
X231941536Y-182434939D01*
X232414490Y-183142766D01*
X233122317Y-183615720D01*
X233957256Y-183781800D01*
X234042744Y-183781800D01*
X234877683Y-183615720D01*
X235585510Y-183142766D01*
X236058464Y-182434939D01*
X236224544Y-181600000D01*
X236224544Y-189800000D01*
X236058464Y-188965061D01*
X235585510Y-188257234D01*
X234877683Y-187784280D01*
X234042744Y-187618200D01*
X233957256Y-187618200D01*
X233122317Y-187784280D01*
X232414490Y-188257234D01*
X231941536Y-188965061D01*
X231775456Y-189800000D01*
X231941536Y-190634939D01*
X232414490Y-191342766D01*
X233122317Y-191815720D01*
X233957256Y-191981800D01*
X234042744Y-191981800D01*
X234877683Y-191815720D01*
X235585510Y-191342766D01*
X236058464Y-190634939D01*
X236224544Y-189800000D01*
X236224544Y-196600000D01*
X236058464Y-195765061D01*
X235585510Y-195057234D01*
X234877683Y-194584280D01*
X234042744Y-194418200D01*
X233957256Y-194418200D01*
X233122317Y-194584280D01*
X232414490Y-195057234D01*
X231941536Y-195765061D01*
X231891660Y-196015800D01*
X231685000Y-196015800D01*
X231685000Y-187377000D01*
X231685000Y-186627000D01*
X231685000Y-186373000D01*
X231685000Y-185623000D01*
X231685000Y-172377000D01*
X231685000Y-171627000D01*
X231685000Y-171373000D01*
X231685000Y-170623000D01*
X231454852Y-169719967D01*
X230896647Y-168973747D01*
X230095367Y-168497946D01*
X229798003Y-168417573D01*
X229427000Y-168527375D01*
X229427000Y-171373000D01*
X231685000Y-171373000D01*
X231685000Y-171627000D01*
X229427000Y-171627000D01*
X229427000Y-174472625D01*
X229798003Y-174582427D01*
X230095367Y-174502054D01*
X230896647Y-174026253D01*
X231454852Y-173280033D01*
X231685000Y-172377000D01*
X231685000Y-185623000D01*
X231454852Y-184719967D01*
X230896647Y-183973747D01*
X230095367Y-183497946D01*
X229798003Y-183417573D01*
X229427000Y-183527375D01*
X229427000Y-186373000D01*
X231685000Y-186373000D01*
X231685000Y-186627000D01*
X229427000Y-186627000D01*
X229427000Y-189472625D01*
X229798003Y-189582427D01*
X230095367Y-189502054D01*
X230896647Y-189026253D01*
X231454852Y-188280033D01*
X231685000Y-187377000D01*
X231685000Y-196015800D01*
X229173000Y-196015800D01*
X229173000Y-189472625D01*
X229173000Y-186627000D01*
X229173000Y-186373000D01*
X229173000Y-183527375D01*
X229173000Y-174472625D01*
X229173000Y-171627000D01*
X229173000Y-171373000D01*
X229173000Y-168527375D01*
X228801997Y-168417573D01*
X228504633Y-168497946D01*
X227703353Y-168973747D01*
X227145148Y-169719967D01*
X226915000Y-170623000D01*
X226915000Y-171373000D01*
X229173000Y-171373000D01*
X229173000Y-171627000D01*
X226915000Y-171627000D01*
X226915000Y-172377000D01*
X227145148Y-173280033D01*
X227703353Y-174026253D01*
X228504633Y-174502054D01*
X228801997Y-174582427D01*
X229173000Y-174472625D01*
X229173000Y-183527375D01*
X228801997Y-183417573D01*
X228504633Y-183497946D01*
X227703353Y-183973747D01*
X227145148Y-184719967D01*
X226915000Y-185623000D01*
X226915000Y-186373000D01*
X229173000Y-186373000D01*
X229173000Y-186627000D01*
X226915000Y-186627000D01*
X226915000Y-187377000D01*
X227145148Y-188280033D01*
X227703353Y-189026253D01*
X228504633Y-189502054D01*
X228801997Y-189582427D01*
X229173000Y-189472625D01*
X229173000Y-196015800D01*
X228591984Y-196015800D01*
X224584200Y-192008016D01*
X224584200Y-179401290D01*
X225085380Y-179401290D01*
X225244085Y-179335553D01*
X225365552Y-179214085D01*
X225431290Y-179055381D01*
X225431290Y-178883600D01*
X225431290Y-176884620D01*
X225365553Y-176725915D01*
X225244085Y-176604448D01*
X225085381Y-176538710D01*
X224915271Y-176538710D01*
X225212681Y-176241819D01*
X225431041Y-175715950D01*
X225431538Y-175146548D01*
X225214096Y-174620298D01*
X224811819Y-174217319D01*
X224674090Y-174160129D01*
X224809702Y-174104096D01*
X225212681Y-173701819D01*
X225431041Y-173175950D01*
X225431538Y-172606548D01*
X225347922Y-172404181D01*
X226306252Y-171445852D01*
X226438397Y-171248084D01*
X226484799Y-171014800D01*
X226484800Y-171014800D01*
X226484800Y-145136520D01*
X227784130Y-145136520D01*
X227942835Y-145070783D01*
X228064302Y-144949315D01*
X228130040Y-144790611D01*
X228130040Y-144618830D01*
X228130040Y-144019390D01*
X228064303Y-143860685D01*
X227973617Y-143770000D01*
X227999017Y-143744600D01*
X230365000Y-143744600D01*
X230598284Y-143698197D01*
X230796052Y-143566052D01*
X233609339Y-140752765D01*
X233738921Y-140806573D01*
X234258798Y-140807027D01*
X234739276Y-140608497D01*
X235107205Y-140241209D01*
X235161853Y-140109600D01*
X235337921Y-140109600D01*
X235391503Y-140239276D01*
X235758791Y-140607205D01*
X236238921Y-140806573D01*
X236758798Y-140807027D01*
X237239276Y-140608497D01*
X237607205Y-140241209D01*
X237806573Y-139761079D01*
X237807027Y-139241202D01*
X237608497Y-138760724D01*
X237241209Y-138392795D01*
X236761079Y-138193427D01*
X236286000Y-138193012D01*
X236286000Y-137324810D01*
X236286000Y-137072191D01*
X236286000Y-136785750D01*
X236127250Y-136627000D01*
X235206500Y-136627000D01*
X235206500Y-137674750D01*
X235365250Y-137833500D01*
X235777309Y-137833500D01*
X236010698Y-137736827D01*
X236189327Y-137558199D01*
X236286000Y-137324810D01*
X236286000Y-138193012D01*
X236241202Y-138192973D01*
X235760724Y-138391503D01*
X235392795Y-138758791D01*
X235338146Y-138890400D01*
X235162078Y-138890400D01*
X235108497Y-138760724D01*
X234741209Y-138392795D01*
X234261079Y-138193427D01*
X233741202Y-138192973D01*
X233454687Y-138311358D01*
X233460230Y-138303064D01*
X233460230Y-138303063D01*
X233504700Y-138079500D01*
X233504700Y-137630300D01*
X233577890Y-137630300D01*
X233736595Y-137564563D01*
X233858062Y-137443095D01*
X233890028Y-137365921D01*
X233969673Y-137558199D01*
X234148302Y-137736827D01*
X234381691Y-137833500D01*
X234793750Y-137833500D01*
X234952500Y-137674750D01*
X234952500Y-136627000D01*
X234932500Y-136627000D01*
X234932500Y-136373000D01*
X234952500Y-136373000D01*
X234952500Y-135325250D01*
X234793750Y-135166500D01*
X234381691Y-135166500D01*
X234148302Y-135263173D01*
X233969673Y-135441801D01*
X233890028Y-135634078D01*
X233858063Y-135556905D01*
X233736595Y-135435438D01*
X233577891Y-135369700D01*
X233406110Y-135369700D01*
X232263110Y-135369700D01*
X232104405Y-135435437D01*
X231982938Y-135556905D01*
X231917200Y-135715609D01*
X231917200Y-135887390D01*
X231917200Y-137284390D01*
X231982937Y-137443095D01*
X232104405Y-137564562D01*
X232263109Y-137630300D01*
X232336300Y-137630300D01*
X232336300Y-137837516D01*
X231916042Y-138257773D01*
X231761079Y-138193427D01*
X231241202Y-138192973D01*
X230760724Y-138391503D01*
X230392795Y-138758791D01*
X230193427Y-139238921D01*
X230192973Y-139758798D01*
X230257895Y-139915920D01*
X228893016Y-141280800D01*
X228024417Y-141280800D01*
X227973617Y-141230000D01*
X228064302Y-141139315D01*
X228130040Y-140980611D01*
X228130040Y-140808830D01*
X228130040Y-140209390D01*
X228064303Y-140050685D01*
X227942835Y-139929218D01*
X227784131Y-139863480D01*
X227612350Y-139863480D01*
X227551604Y-139863480D01*
X232430884Y-134984200D01*
X235558016Y-134984200D01*
X235740316Y-135166500D01*
X235365250Y-135166500D01*
X235206500Y-135325250D01*
X235206500Y-136373000D01*
X236127250Y-136373000D01*
X236286000Y-136214250D01*
X236286000Y-135927809D01*
X236286000Y-135712184D01*
X238215800Y-137641984D01*
X238215800Y-142258016D01*
X233586908Y-146886908D01*
X233460270Y-147076436D01*
X233415800Y-147300000D01*
X233415800Y-158327426D01*
X233260724Y-158391503D01*
X232892795Y-158758791D01*
X232866334Y-158822515D01*
X232815953Y-158700884D01*
X232562060Y-158617545D01*
X232382455Y-158797150D01*
X232382455Y-158437940D01*
X232299116Y-158184047D01*
X231734694Y-157978410D01*
X231134542Y-158004421D01*
X230881800Y-158109109D01*
X230881800Y-152542744D01*
X230881800Y-151457256D01*
X230753781Y-150813659D01*
X230389212Y-150268044D01*
X229843597Y-149903475D01*
X229200000Y-149775456D01*
X228556403Y-149903475D01*
X228010788Y-150268044D01*
X227646219Y-150813659D01*
X227518200Y-151457256D01*
X227518200Y-152542744D01*
X227646219Y-153186341D01*
X228010788Y-153731956D01*
X228556403Y-154096525D01*
X229200000Y-154224544D01*
X229843597Y-154096525D01*
X230389212Y-153731956D01*
X230753781Y-153186341D01*
X230881800Y-152542744D01*
X230881800Y-158109109D01*
X230700884Y-158184047D01*
X230617545Y-158437940D01*
X231500000Y-159320395D01*
X232382455Y-158437940D01*
X232382455Y-158797150D01*
X231679605Y-159500000D01*
X232562060Y-160382455D01*
X232815953Y-160299116D01*
X232862940Y-160170148D01*
X232891503Y-160239276D01*
X233258791Y-160607205D01*
X233738921Y-160806573D01*
X234258798Y-160807027D01*
X234739276Y-160608497D01*
X235107205Y-160241209D01*
X235250105Y-159897068D01*
X235391503Y-160239276D01*
X235758791Y-160607205D01*
X235915800Y-160672401D01*
X235915800Y-161650516D01*
X233586908Y-163979408D01*
X233460270Y-164168936D01*
X233415800Y-164392500D01*
X233415800Y-164525902D01*
X233122317Y-164584280D01*
X232414490Y-165057234D01*
X232382455Y-165105177D01*
X232382455Y-160562060D01*
X231500000Y-159679605D01*
X231320395Y-159859210D01*
X231320395Y-159500000D01*
X230437940Y-158617545D01*
X230184047Y-158700884D01*
X229978410Y-159265306D01*
X230004421Y-159865458D01*
X230184047Y-160299116D01*
X230437940Y-160382455D01*
X231320395Y-159500000D01*
X231320395Y-159859210D01*
X230617545Y-160562060D01*
X230700884Y-160815953D01*
X231265306Y-161021590D01*
X231865458Y-160995579D01*
X232299116Y-160815953D01*
X232382455Y-160562060D01*
X232382455Y-165105177D01*
X231941536Y-165765061D01*
X231775456Y-166600000D01*
X231941536Y-167434939D01*
X232414490Y-168142766D01*
X233122317Y-168615720D01*
X233957256Y-168781800D01*
X234042744Y-168781800D01*
X234877683Y-168615720D01*
X235585510Y-168142766D01*
X236058464Y-167434939D01*
X236224544Y-166600000D01*
X236058464Y-165765061D01*
X235585510Y-165057234D01*
X234877683Y-164584280D01*
X234674766Y-164543917D01*
X236913092Y-162305592D01*
X237039730Y-162116064D01*
X237039730Y-162116063D01*
X237084200Y-161892500D01*
X237084200Y-160672573D01*
X237239276Y-160608497D01*
X237607205Y-160241209D01*
X237806573Y-159761079D01*
X237807027Y-159241202D01*
X237608497Y-158760724D01*
X237241209Y-158392795D01*
X236761079Y-158193427D01*
X236241202Y-158192973D01*
X235760724Y-158391503D01*
X235392795Y-158758791D01*
X235249894Y-159102931D01*
X235108497Y-158760724D01*
X234741209Y-158392795D01*
X234584200Y-158327598D01*
X234584200Y-147541984D01*
X239213092Y-142913092D01*
X239339730Y-142723564D01*
X239339730Y-142723563D01*
X239384200Y-142500000D01*
X239384200Y-137400005D01*
X239384200Y-137400000D01*
X239384201Y-137400000D01*
X239384201Y-149891660D01*
X238800000Y-149775456D01*
X238156403Y-149903475D01*
X237610788Y-150268044D01*
X237246219Y-150813659D01*
X237118200Y-151457256D01*
X237118200Y-152542744D01*
X237246219Y-153186341D01*
X237610788Y-153731956D01*
X238156403Y-154096525D01*
X238800000Y-154224544D01*
X239443597Y-154096525D01*
X239989212Y-153731956D01*
X240353781Y-153186341D01*
X240481800Y-152542744D01*
X240481800Y-206569000D01*
X240335000Y-206569000D01*
X240335000Y-202377000D01*
X240335000Y-201627000D01*
X240335000Y-201373000D01*
X240335000Y-200623000D01*
X240335000Y-187377000D01*
X240335000Y-186627000D01*
X240335000Y-186373000D01*
X240335000Y-185623000D01*
X240335000Y-172377000D01*
X240335000Y-171627000D01*
X240335000Y-171373000D01*
X240335000Y-170623000D01*
X240161942Y-170006980D01*
X239766317Y-169504078D01*
X239208355Y-169190856D01*
X239080434Y-169159876D01*
X238827000Y-169279223D01*
X238827000Y-171373000D01*
X240335000Y-171373000D01*
X240335000Y-171627000D01*
X238827000Y-171627000D01*
X238827000Y-173720777D01*
X239080434Y-173840124D01*
X239208355Y-173809144D01*
X239766317Y-173495922D01*
X240161942Y-172993020D01*
X240335000Y-172377000D01*
X240335000Y-185623000D01*
X240161942Y-185006980D01*
X239766317Y-184504078D01*
X239208355Y-184190856D01*
X239080434Y-184159876D01*
X238827000Y-184279223D01*
X238827000Y-186373000D01*
X240335000Y-186373000D01*
X240335000Y-186627000D01*
X238827000Y-186627000D01*
X238827000Y-188720777D01*
X239080434Y-188840124D01*
X239208355Y-188809144D01*
X239766317Y-188495922D01*
X240161942Y-187993020D01*
X240335000Y-187377000D01*
X240335000Y-200623000D01*
X240161942Y-200006980D01*
X239766317Y-199504078D01*
X239208355Y-199190856D01*
X239080434Y-199159876D01*
X238827000Y-199279223D01*
X238827000Y-201373000D01*
X240335000Y-201373000D01*
X240335000Y-201627000D01*
X238827000Y-201627000D01*
X238827000Y-203720777D01*
X239080434Y-203840124D01*
X239208355Y-203809144D01*
X239766317Y-203495922D01*
X240161942Y-202993020D01*
X240335000Y-202377000D01*
X240335000Y-206569000D01*
X238573000Y-206569000D01*
X238573000Y-203720777D01*
X238573000Y-201627000D01*
X238573000Y-201373000D01*
X238573000Y-199279223D01*
X238573000Y-188720777D01*
X238573000Y-186627000D01*
X238573000Y-186373000D01*
X238573000Y-184279223D01*
X238573000Y-173720777D01*
X238573000Y-171627000D01*
X238573000Y-171373000D01*
X238573000Y-169279223D01*
X238319566Y-169159876D01*
X238191645Y-169190856D01*
X237633683Y-169504078D01*
X237238058Y-170006980D01*
X237065000Y-170623000D01*
X237065000Y-171373000D01*
X238573000Y-171373000D01*
X238573000Y-171627000D01*
X237065000Y-171627000D01*
X237065000Y-172377000D01*
X237238058Y-172993020D01*
X237633683Y-173495922D01*
X238191645Y-173809144D01*
X238319566Y-173840124D01*
X238573000Y-173720777D01*
X238573000Y-184279223D01*
X238319566Y-184159876D01*
X238191645Y-184190856D01*
X237633683Y-184504078D01*
X237238058Y-185006980D01*
X237065000Y-185623000D01*
X237065000Y-186373000D01*
X238573000Y-186373000D01*
X238573000Y-186627000D01*
X237065000Y-186627000D01*
X237065000Y-187377000D01*
X237238058Y-187993020D01*
X237633683Y-188495922D01*
X238191645Y-188809144D01*
X238319566Y-188840124D01*
X238573000Y-188720777D01*
X238573000Y-199279223D01*
X238319566Y-199159876D01*
X238191645Y-199190856D01*
X237633683Y-199504078D01*
X237238058Y-200006980D01*
X237065000Y-200623000D01*
X237065000Y-201373000D01*
X238573000Y-201373000D01*
X238573000Y-201627000D01*
X237065000Y-201627000D01*
X237065000Y-202377000D01*
X237238058Y-202993020D01*
X237633683Y-203495922D01*
X238191645Y-203809144D01*
X238319566Y-203840124D01*
X238573000Y-203720777D01*
X238573000Y-206569000D01*
X235246926Y-206569000D01*
X235585510Y-206342766D01*
X236058464Y-205634939D01*
X236224544Y-204800000D01*
X236058464Y-203965061D01*
X235585510Y-203257234D01*
X234877683Y-202784280D01*
X234042744Y-202618200D01*
X233957256Y-202618200D01*
X233122317Y-202784280D01*
X232414490Y-203257234D01*
X231941536Y-203965061D01*
X231775456Y-204800000D01*
X231941536Y-205634939D01*
X232414490Y-206342766D01*
X232753073Y-206569000D01*
X231685000Y-206569000D01*
X231685000Y-202377000D01*
X231685000Y-201627000D01*
X231685000Y-201373000D01*
X231685000Y-200623000D01*
X231454852Y-199719967D01*
X230896647Y-198973747D01*
X230095367Y-198497946D01*
X229798003Y-198417573D01*
X229427000Y-198527375D01*
X229427000Y-201373000D01*
X231685000Y-201373000D01*
X231685000Y-201627000D01*
X229427000Y-201627000D01*
X229427000Y-204472625D01*
X229798003Y-204582427D01*
X230095367Y-204502054D01*
X230896647Y-204026253D01*
X231454852Y-203280033D01*
X231685000Y-202377000D01*
X231685000Y-206569000D01*
X229173000Y-206569000D01*
X229173000Y-204472625D01*
X229173000Y-201627000D01*
X229173000Y-201373000D01*
X229173000Y-198527375D01*
X228801997Y-198417573D01*
X228504633Y-198497946D01*
X227703353Y-198973747D01*
X227145148Y-199719967D01*
X226915000Y-200623000D01*
X226915000Y-201373000D01*
X229173000Y-201373000D01*
X229173000Y-201627000D01*
X226915000Y-201627000D01*
X226915000Y-202377000D01*
X227145148Y-203280033D01*
X227703353Y-204026253D01*
X228504633Y-204502054D01*
X228801997Y-204582427D01*
X229173000Y-204472625D01*
X229173000Y-206569000D01*
X219335000Y-206569000D01*
X219335000Y-202377000D01*
X219335000Y-201627000D01*
X219335000Y-201373000D01*
X219335000Y-200623000D01*
X219161942Y-200006980D01*
X218766317Y-199504078D01*
X218208355Y-199190856D01*
X218080434Y-199159876D01*
X217827000Y-199279223D01*
X217827000Y-201373000D01*
X219335000Y-201373000D01*
X219335000Y-201627000D01*
X217827000Y-201627000D01*
X217827000Y-203720777D01*
X218080434Y-203840124D01*
X218208355Y-203809144D01*
X218766317Y-203495922D01*
X219161942Y-202993020D01*
X219335000Y-202377000D01*
X219335000Y-206569000D01*
X217573000Y-206569000D01*
X217573000Y-203720777D01*
X217573000Y-201627000D01*
X217573000Y-201373000D01*
X217573000Y-199279223D01*
X217319566Y-199159876D01*
X217191645Y-199190856D01*
X216633683Y-199504078D01*
X216238058Y-200006980D01*
X216065000Y-200623000D01*
X216065000Y-201373000D01*
X217573000Y-201373000D01*
X217573000Y-201627000D01*
X216065000Y-201627000D01*
X216065000Y-202377000D01*
X216238058Y-202993020D01*
X216633683Y-203495922D01*
X217191645Y-203809144D01*
X217319566Y-203840124D01*
X217573000Y-203720777D01*
X217573000Y-206569000D01*
X214246926Y-206569000D01*
X214585510Y-206342766D01*
X215058464Y-205634939D01*
X215224544Y-204800000D01*
X215058464Y-203965061D01*
X214585510Y-203257234D01*
X213877683Y-202784280D01*
X213042744Y-202618200D01*
X212957256Y-202618200D01*
X212122317Y-202784280D01*
X211414490Y-203257234D01*
X210941536Y-203965061D01*
X210775456Y-204800000D01*
X210941536Y-205634939D01*
X211414490Y-206342766D01*
X211753073Y-206569000D01*
X210685000Y-206569000D01*
X210685000Y-202377000D01*
X210685000Y-201627000D01*
X210685000Y-201373000D01*
X210685000Y-200623000D01*
X210685000Y-187377000D01*
X210685000Y-186627000D01*
X210685000Y-186373000D01*
X210685000Y-185623000D01*
X210685000Y-172377000D01*
X210685000Y-171627000D01*
X210685000Y-171373000D01*
X210685000Y-170623000D01*
X210454852Y-169719967D01*
X209896647Y-168973747D01*
X209095367Y-168497946D01*
X208798003Y-168417573D01*
X208427000Y-168527375D01*
X208427000Y-171373000D01*
X210685000Y-171373000D01*
X210685000Y-171627000D01*
X208427000Y-171627000D01*
X208427000Y-174472625D01*
X208798003Y-174582427D01*
X209095367Y-174502054D01*
X209896647Y-174026253D01*
X210454852Y-173280033D01*
X210685000Y-172377000D01*
X210685000Y-185623000D01*
X210454852Y-184719967D01*
X209896647Y-183973747D01*
X209095367Y-183497946D01*
X208798003Y-183417573D01*
X208427000Y-183527375D01*
X208427000Y-186373000D01*
X210685000Y-186373000D01*
X210685000Y-186627000D01*
X208427000Y-186627000D01*
X208427000Y-189472625D01*
X208798003Y-189582427D01*
X209095367Y-189502054D01*
X209896647Y-189026253D01*
X210454852Y-188280033D01*
X210685000Y-187377000D01*
X210685000Y-200623000D01*
X210454852Y-199719967D01*
X209896647Y-198973747D01*
X209095367Y-198497946D01*
X208798003Y-198417573D01*
X208427000Y-198527375D01*
X208427000Y-201373000D01*
X210685000Y-201373000D01*
X210685000Y-201627000D01*
X208427000Y-201627000D01*
X208427000Y-204472625D01*
X208798003Y-204582427D01*
X209095367Y-204502054D01*
X209896647Y-204026253D01*
X210454852Y-203280033D01*
X210685000Y-202377000D01*
X210685000Y-206569000D01*
X208173000Y-206569000D01*
X208173000Y-204472625D01*
X208173000Y-201627000D01*
X208173000Y-201373000D01*
X208173000Y-198527375D01*
X208173000Y-189472625D01*
X208173000Y-186627000D01*
X208173000Y-186373000D01*
X208173000Y-183527375D01*
X208173000Y-174472625D01*
X208173000Y-171627000D01*
X208173000Y-171373000D01*
X208173000Y-168527375D01*
X207801997Y-168417573D01*
X207504633Y-168497946D01*
X206703353Y-168973747D01*
X206145148Y-169719967D01*
X205915000Y-170623000D01*
X205915000Y-171373000D01*
X208173000Y-171373000D01*
X208173000Y-171627000D01*
X205915000Y-171627000D01*
X205915000Y-172377000D01*
X206145148Y-173280033D01*
X206703353Y-174026253D01*
X207504633Y-174502054D01*
X207801997Y-174582427D01*
X208173000Y-174472625D01*
X208173000Y-183527375D01*
X207801997Y-183417573D01*
X207504633Y-183497946D01*
X206703353Y-183973747D01*
X206145148Y-184719967D01*
X205915000Y-185623000D01*
X205915000Y-186373000D01*
X208173000Y-186373000D01*
X208173000Y-186627000D01*
X205915000Y-186627000D01*
X205915000Y-187377000D01*
X206145148Y-188280033D01*
X206703353Y-189026253D01*
X207504633Y-189502054D01*
X207801997Y-189582427D01*
X208173000Y-189472625D01*
X208173000Y-198527375D01*
X207801997Y-198417573D01*
X207504633Y-198497946D01*
X206703353Y-198973747D01*
X206145148Y-199719967D01*
X205915000Y-200623000D01*
X205915000Y-201373000D01*
X208173000Y-201373000D01*
X208173000Y-201627000D01*
X205915000Y-201627000D01*
X205915000Y-202377000D01*
X206145148Y-203280033D01*
X206703353Y-204026253D01*
X207504633Y-204502054D01*
X207801997Y-204582427D01*
X208173000Y-204472625D01*
X208173000Y-206569000D01*
X204431000Y-206569000D01*
X204431000Y-107431000D01*
X242569000Y-107431000D01*
X242569000Y-206569000D01*
M02*
