%FSLAX46Y46*%
G04 Gerber Fmt 4.6, Leading zero omitted, Abs format (unit mm)*
G04 Created by KiCad (PCBNEW (2014-09-02 BZR 5112)-product) date 2015-04-07 11:50:48 AM*
%MOMM*%
G01*
G04 APERTURE LIST*
%ADD10C,0.150000*%
%ADD11C,0.127000*%
%ADD12C,0.381000*%
%ADD13C,0.152400*%
%ADD14R,1.143000X1.397000*%
%ADD15O,3.500000X5.000000*%
%ADD16O,2.000000X3.500000*%
%ADD17O,3.500000X3.500000*%
%ADD18R,1.998980X1.998980*%
%ADD19C,1.998980*%
%ADD20O,2.500000X3.500000*%
%ADD21C,1.750000*%
%ADD22R,1.400000X1.400000*%
%ADD23C,1.400000*%
G04 APERTURE END LIST*
D10*
D11*
X240211200Y-121738000D02*
X241227200Y-121738000D01*
X241227200Y-121738000D02*
X241227200Y-123262000D01*
X241227200Y-123262000D02*
X240211200Y-123262000D01*
X238788800Y-123262000D02*
X237772800Y-123262000D01*
X237772800Y-123262000D02*
X237772800Y-121738000D01*
X237772800Y-121738000D02*
X238788800Y-121738000D01*
X217211200Y-121738000D02*
X218227200Y-121738000D01*
X218227200Y-121738000D02*
X218227200Y-123262000D01*
X218227200Y-123262000D02*
X217211200Y-123262000D01*
X215788800Y-123262000D02*
X214772800Y-123262000D01*
X214772800Y-123262000D02*
X214772800Y-121738000D01*
X214772800Y-121738000D02*
X215788800Y-121738000D01*
D10*
X236915476Y-186500000D02*
G75*
G03X236915476Y-186500000I-2915476J0D01*
G74*
G01*
X239000000Y-191500000D02*
X229000000Y-191500000D01*
X229000000Y-191500000D02*
X229000000Y-180500000D01*
X229000000Y-180500000D02*
X239000000Y-180500000D01*
X239000000Y-180500000D02*
X239000000Y-191500000D01*
X236000000Y-186500000D02*
G75*
G03X236000000Y-186500000I-2000000J0D01*
G74*
G01*
X215915476Y-186500000D02*
G75*
G03X215915476Y-186500000I-2915476J0D01*
G74*
G01*
X218000000Y-191500000D02*
X208000000Y-191500000D01*
X208000000Y-191500000D02*
X208000000Y-180500000D01*
X208000000Y-180500000D02*
X218000000Y-180500000D01*
X218000000Y-180500000D02*
X218000000Y-191500000D01*
X215000000Y-186500000D02*
G75*
G03X215000000Y-186500000I-2000000J0D01*
G74*
G01*
X236915476Y-201500000D02*
G75*
G03X236915476Y-201500000I-2915476J0D01*
G74*
G01*
X239000000Y-206500000D02*
X229000000Y-206500000D01*
X229000000Y-206500000D02*
X229000000Y-195500000D01*
X229000000Y-195500000D02*
X239000000Y-195500000D01*
X239000000Y-195500000D02*
X239000000Y-206500000D01*
X236000000Y-201500000D02*
G75*
G03X236000000Y-201500000I-2000000J0D01*
G74*
G01*
X215915476Y-201500000D02*
G75*
G03X215915476Y-201500000I-2915476J0D01*
G74*
G01*
X218000000Y-206500000D02*
X208000000Y-206500000D01*
X208000000Y-206500000D02*
X208000000Y-195500000D01*
X208000000Y-195500000D02*
X218000000Y-195500000D01*
X218000000Y-195500000D02*
X218000000Y-206500000D01*
X215000000Y-201500000D02*
G75*
G03X215000000Y-201500000I-2000000J0D01*
G74*
G01*
X215915476Y-171500000D02*
G75*
G03X215915476Y-171500000I-2915476J0D01*
G74*
G01*
X218000000Y-176500000D02*
X208000000Y-176500000D01*
X208000000Y-176500000D02*
X208000000Y-165500000D01*
X208000000Y-165500000D02*
X218000000Y-165500000D01*
X218000000Y-165500000D02*
X218000000Y-176500000D01*
X215000000Y-171500000D02*
G75*
G03X215000000Y-171500000I-2000000J0D01*
G74*
G01*
X236915476Y-171500000D02*
G75*
G03X236915476Y-171500000I-2915476J0D01*
G74*
G01*
X239000000Y-176500000D02*
X229000000Y-176500000D01*
X229000000Y-176500000D02*
X229000000Y-165500000D01*
X229000000Y-165500000D02*
X239000000Y-165500000D01*
X239000000Y-165500000D02*
X239000000Y-176500000D01*
X236000000Y-171500000D02*
G75*
G03X236000000Y-171500000I-2000000J0D01*
G74*
G01*
D12*
X236236068Y-152000000D02*
G75*
G03X236236068Y-152000000I-2236068J0D01*
G74*
G01*
X229000000Y-152000000D02*
X229000000Y-147000000D01*
X229000000Y-147000000D02*
X239000000Y-147000000D01*
X239000000Y-147000000D02*
X239000000Y-158000000D01*
X239000000Y-158000000D02*
X229000000Y-158000000D01*
X229000000Y-158000000D02*
X229000000Y-152000000D01*
X215236068Y-112000000D02*
G75*
G03X215236068Y-112000000I-2236068J0D01*
G74*
G01*
X208000000Y-112000000D02*
X208000000Y-107000000D01*
X208000000Y-107000000D02*
X218000000Y-107000000D01*
X218000000Y-107000000D02*
X218000000Y-118000000D01*
X218000000Y-118000000D02*
X208000000Y-118000000D01*
X208000000Y-118000000D02*
X208000000Y-112000000D01*
X215236068Y-132000000D02*
G75*
G03X215236068Y-132000000I-2236068J0D01*
G74*
G01*
X208000000Y-132000000D02*
X208000000Y-127000000D01*
X208000000Y-127000000D02*
X218000000Y-127000000D01*
X218000000Y-127000000D02*
X218000000Y-138000000D01*
X218000000Y-138000000D02*
X208000000Y-138000000D01*
X208000000Y-138000000D02*
X208000000Y-132000000D01*
X215236068Y-152000000D02*
G75*
G03X215236068Y-152000000I-2236068J0D01*
G74*
G01*
X208000000Y-152000000D02*
X208000000Y-147000000D01*
X208000000Y-147000000D02*
X218000000Y-147000000D01*
X218000000Y-147000000D02*
X218000000Y-158000000D01*
X218000000Y-158000000D02*
X208000000Y-158000000D01*
X208000000Y-158000000D02*
X208000000Y-152000000D01*
X236236068Y-132000000D02*
G75*
G03X236236068Y-132000000I-2236068J0D01*
G74*
G01*
X229000000Y-132000000D02*
X229000000Y-127000000D01*
X229000000Y-127000000D02*
X239000000Y-127000000D01*
X239000000Y-127000000D02*
X239000000Y-138000000D01*
X239000000Y-138000000D02*
X229000000Y-138000000D01*
X229000000Y-138000000D02*
X229000000Y-132000000D01*
X236236068Y-112000000D02*
G75*
G03X236236068Y-112000000I-2236068J0D01*
G74*
G01*
X229000000Y-112000000D02*
X229000000Y-107000000D01*
X229000000Y-107000000D02*
X239000000Y-107000000D01*
X239000000Y-107000000D02*
X239000000Y-118000000D01*
X239000000Y-118000000D02*
X229000000Y-118000000D01*
X229000000Y-118000000D02*
X229000000Y-112000000D01*
D13*
X239364534Y-124367695D02*
X239093601Y-123980648D01*
X238900077Y-124367695D02*
X238900077Y-123554895D01*
X239209715Y-123554895D01*
X239287124Y-123593600D01*
X239325829Y-123632305D01*
X239364534Y-123709714D01*
X239364534Y-123825829D01*
X239325829Y-123903238D01*
X239287124Y-123941943D01*
X239209715Y-123980648D01*
X238900077Y-123980648D01*
X239635467Y-123554895D02*
X240138629Y-123554895D01*
X239867696Y-123864533D01*
X239983810Y-123864533D01*
X240061220Y-123903238D01*
X240099924Y-123941943D01*
X240138629Y-124019352D01*
X240138629Y-124212876D01*
X240099924Y-124290286D01*
X240061220Y-124328990D01*
X239983810Y-124367695D01*
X239751582Y-124367695D01*
X239674172Y-124328990D01*
X239635467Y-124290286D01*
X216364534Y-124367695D02*
X216093601Y-123980648D01*
X215900077Y-124367695D02*
X215900077Y-123554895D01*
X216209715Y-123554895D01*
X216287124Y-123593600D01*
X216325829Y-123632305D01*
X216364534Y-123709714D01*
X216364534Y-123825829D01*
X216325829Y-123903238D01*
X216287124Y-123941943D01*
X216209715Y-123980648D01*
X215900077Y-123980648D01*
X217138629Y-124367695D02*
X216674172Y-124367695D01*
X216906401Y-124367695D02*
X216906401Y-123554895D01*
X216828991Y-123671010D01*
X216751582Y-123748419D01*
X216674172Y-123787124D01*
D10*
X233261905Y-156952381D02*
X233261905Y-155952381D01*
X233642858Y-155952381D01*
X233738096Y-156000000D01*
X233785715Y-156047619D01*
X233833334Y-156142857D01*
X233833334Y-156285714D01*
X233785715Y-156380952D01*
X233738096Y-156428571D01*
X233642858Y-156476190D01*
X233261905Y-156476190D01*
X234738096Y-155952381D02*
X234261905Y-155952381D01*
X234214286Y-156428571D01*
X234261905Y-156380952D01*
X234357143Y-156333333D01*
X234595239Y-156333333D01*
X234690477Y-156380952D01*
X234738096Y-156428571D01*
X234785715Y-156523810D01*
X234785715Y-156761905D01*
X234738096Y-156857143D01*
X234690477Y-156904762D01*
X234595239Y-156952381D01*
X234357143Y-156952381D01*
X234261905Y-156904762D01*
X234214286Y-156857143D01*
X212261905Y-116452381D02*
X212261905Y-115452381D01*
X212642858Y-115452381D01*
X212738096Y-115500000D01*
X212785715Y-115547619D01*
X212833334Y-115642857D01*
X212833334Y-115785714D01*
X212785715Y-115880952D01*
X212738096Y-115928571D01*
X212642858Y-115976190D01*
X212261905Y-115976190D01*
X213785715Y-116452381D02*
X213214286Y-116452381D01*
X213500000Y-116452381D02*
X213500000Y-115452381D01*
X213404762Y-115595238D01*
X213309524Y-115690476D01*
X213214286Y-115738095D01*
X212261905Y-136952381D02*
X212261905Y-135952381D01*
X212642858Y-135952381D01*
X212738096Y-136000000D01*
X212785715Y-136047619D01*
X212833334Y-136142857D01*
X212833334Y-136285714D01*
X212785715Y-136380952D01*
X212738096Y-136428571D01*
X212642858Y-136476190D01*
X212261905Y-136476190D01*
X213166667Y-135952381D02*
X213785715Y-135952381D01*
X213452381Y-136333333D01*
X213595239Y-136333333D01*
X213690477Y-136380952D01*
X213738096Y-136428571D01*
X213785715Y-136523810D01*
X213785715Y-136761905D01*
X213738096Y-136857143D01*
X213690477Y-136904762D01*
X213595239Y-136952381D01*
X213309524Y-136952381D01*
X213214286Y-136904762D01*
X213166667Y-136857143D01*
X212261905Y-156952381D02*
X212261905Y-155952381D01*
X212642858Y-155952381D01*
X212738096Y-156000000D01*
X212785715Y-156047619D01*
X212833334Y-156142857D01*
X212833334Y-156285714D01*
X212785715Y-156380952D01*
X212738096Y-156428571D01*
X212642858Y-156476190D01*
X212261905Y-156476190D01*
X213214286Y-156047619D02*
X213261905Y-156000000D01*
X213357143Y-155952381D01*
X213595239Y-155952381D01*
X213690477Y-156000000D01*
X213738096Y-156047619D01*
X213785715Y-156142857D01*
X213785715Y-156238095D01*
X213738096Y-156380952D01*
X213166667Y-156952381D01*
X213785715Y-156952381D01*
X233261905Y-136452381D02*
X233261905Y-135452381D01*
X233642858Y-135452381D01*
X233738096Y-135500000D01*
X233785715Y-135547619D01*
X233833334Y-135642857D01*
X233833334Y-135785714D01*
X233785715Y-135880952D01*
X233738096Y-135928571D01*
X233642858Y-135976190D01*
X233261905Y-135976190D01*
X234690477Y-135452381D02*
X234500000Y-135452381D01*
X234404762Y-135500000D01*
X234357143Y-135547619D01*
X234261905Y-135690476D01*
X234214286Y-135880952D01*
X234214286Y-136261905D01*
X234261905Y-136357143D01*
X234309524Y-136404762D01*
X234404762Y-136452381D01*
X234595239Y-136452381D01*
X234690477Y-136404762D01*
X234738096Y-136357143D01*
X234785715Y-136261905D01*
X234785715Y-136023810D01*
X234738096Y-135928571D01*
X234690477Y-135880952D01*
X234595239Y-135833333D01*
X234404762Y-135833333D01*
X234309524Y-135880952D01*
X234261905Y-135928571D01*
X234214286Y-136023810D01*
X233261905Y-116952381D02*
X233261905Y-115952381D01*
X233642858Y-115952381D01*
X233738096Y-116000000D01*
X233785715Y-116047619D01*
X233833334Y-116142857D01*
X233833334Y-116285714D01*
X233785715Y-116380952D01*
X233738096Y-116428571D01*
X233642858Y-116476190D01*
X233261905Y-116476190D01*
X234690477Y-116285714D02*
X234690477Y-116952381D01*
X234452381Y-115904762D02*
X234214286Y-116619048D01*
X234833334Y-116619048D01*
%LPC*%
D14*
X240579500Y-122500000D03*
X238420500Y-122500000D03*
X217579500Y-122500000D03*
X215420500Y-122500000D03*
D15*
X229300000Y-186500000D03*
D16*
X238700000Y-186500000D03*
D17*
X234000000Y-181600000D03*
X234000000Y-189800000D03*
D15*
X208300000Y-186500000D03*
D16*
X217700000Y-186500000D03*
D17*
X213000000Y-181600000D03*
X213000000Y-189800000D03*
D15*
X229300000Y-201500000D03*
D16*
X238700000Y-201500000D03*
D17*
X234000000Y-196600000D03*
X234000000Y-204800000D03*
D15*
X208300000Y-201500000D03*
D16*
X217700000Y-201500000D03*
D17*
X213000000Y-196600000D03*
X213000000Y-204800000D03*
D15*
X208300000Y-171500000D03*
D16*
X217700000Y-171500000D03*
D17*
X213000000Y-166600000D03*
X213000000Y-174800000D03*
D15*
X229300000Y-171500000D03*
D16*
X238700000Y-171500000D03*
D17*
X234000000Y-166600000D03*
X234000000Y-174800000D03*
D18*
X224000000Y-177970000D03*
D19*
X224000000Y-175430000D03*
X224000000Y-172890000D03*
X224000000Y-170350000D03*
X224000000Y-167810000D03*
X224000000Y-165270000D03*
X224000000Y-162730000D03*
X224000000Y-160190000D03*
X224000000Y-157650000D03*
X224000000Y-155110000D03*
X224000000Y-152570000D03*
X224000000Y-150030000D03*
X224770000Y-123040000D03*
X224770000Y-120500000D03*
X224770000Y-125580000D03*
X224770000Y-117960000D03*
D18*
X224770000Y-115420000D03*
D19*
X222230000Y-115420000D03*
X222230000Y-117960000D03*
X222230000Y-120500000D03*
X222230000Y-123040000D03*
X222230000Y-125580000D03*
D20*
X238800000Y-152000000D03*
X229200000Y-152000000D03*
D21*
X236500000Y-159500000D03*
X234000000Y-159500000D03*
X231500000Y-159500000D03*
D20*
X217800000Y-112000000D03*
X208200000Y-112000000D03*
D21*
X215500000Y-119500000D03*
X213000000Y-119500000D03*
X210500000Y-119500000D03*
D20*
X217800000Y-132000000D03*
X208200000Y-132000000D03*
D21*
X215500000Y-139500000D03*
X213000000Y-139500000D03*
X210500000Y-139500000D03*
D20*
X217800000Y-152000000D03*
X208200000Y-152000000D03*
D21*
X215500000Y-159500000D03*
X213000000Y-159500000D03*
X210500000Y-159500000D03*
D20*
X238800000Y-132000000D03*
X229200000Y-132000000D03*
D21*
X236500000Y-139500000D03*
X234000000Y-139500000D03*
X231500000Y-139500000D03*
D20*
X238800000Y-112000000D03*
X229200000Y-112000000D03*
D21*
X236500000Y-119500000D03*
X234000000Y-119500000D03*
X231500000Y-119500000D03*
D22*
X224500000Y-110500000D03*
D23*
X222500000Y-110500000D03*
D22*
X224500000Y-131000000D03*
D23*
X222500000Y-131000000D03*
M02*
