%FSLAX46Y46*%
G04 Gerber Fmt 4.6, Leading zero omitted, Abs format (unit mm)*
G04 Created by KiCad (PCBNEW (2014-09-02 BZR 5112)-product) date 2015-04-07 11:50:48 AM*
%MOMM*%
G01*
G04 APERTURE LIST*
%ADD10C,0.150000*%
%ADD11R,1.143000X1.397000*%
%ADD12O,3.500000X5.000000*%
%ADD13O,2.000000X3.500000*%
%ADD14O,3.500000X3.500000*%
%ADD15R,1.998980X1.998980*%
%ADD16C,1.998980*%
%ADD17O,2.500000X3.500000*%
%ADD18C,1.750000*%
%ADD19R,1.400000X1.400000*%
%ADD20C,1.400000*%
%ADD21C,0.355600*%
%ADD22C,0.304800*%
%ADD23C,0.254000*%
G04 APERTURE END LIST*
D10*
D11*
X240579500Y-122500000D03*
X238420500Y-122500000D03*
X217579500Y-122500000D03*
X215420500Y-122500000D03*
D12*
X229300000Y-186500000D03*
D13*
X238700000Y-186500000D03*
D14*
X234000000Y-181600000D03*
X234000000Y-189800000D03*
D12*
X208300000Y-186500000D03*
D13*
X217700000Y-186500000D03*
D14*
X213000000Y-181600000D03*
X213000000Y-189800000D03*
D12*
X229300000Y-201500000D03*
D13*
X238700000Y-201500000D03*
D14*
X234000000Y-196600000D03*
X234000000Y-204800000D03*
D12*
X208300000Y-201500000D03*
D13*
X217700000Y-201500000D03*
D14*
X213000000Y-196600000D03*
X213000000Y-204800000D03*
D12*
X208300000Y-171500000D03*
D13*
X217700000Y-171500000D03*
D14*
X213000000Y-166600000D03*
X213000000Y-174800000D03*
D12*
X229300000Y-171500000D03*
D13*
X238700000Y-171500000D03*
D14*
X234000000Y-166600000D03*
X234000000Y-174800000D03*
D15*
X224000000Y-177970000D03*
D16*
X224000000Y-175430000D03*
X224000000Y-172890000D03*
X224000000Y-170350000D03*
X224000000Y-167810000D03*
X224000000Y-165270000D03*
X224000000Y-162730000D03*
X224000000Y-160190000D03*
X224000000Y-157650000D03*
X224000000Y-155110000D03*
X224000000Y-152570000D03*
X224000000Y-150030000D03*
X224770000Y-123040000D03*
X224770000Y-120500000D03*
X224770000Y-125580000D03*
X224770000Y-117960000D03*
D15*
X224770000Y-115420000D03*
D16*
X222230000Y-115420000D03*
X222230000Y-117960000D03*
X222230000Y-120500000D03*
X222230000Y-123040000D03*
X222230000Y-125580000D03*
D17*
X238800000Y-152000000D03*
X229200000Y-152000000D03*
D18*
X236500000Y-159500000D03*
X234000000Y-159500000D03*
X231500000Y-159500000D03*
D17*
X217800000Y-112000000D03*
X208200000Y-112000000D03*
D18*
X215500000Y-119500000D03*
X213000000Y-119500000D03*
X210500000Y-119500000D03*
D17*
X217800000Y-132000000D03*
X208200000Y-132000000D03*
D18*
X215500000Y-139500000D03*
X213000000Y-139500000D03*
X210500000Y-139500000D03*
D17*
X217800000Y-152000000D03*
X208200000Y-152000000D03*
D18*
X215500000Y-159500000D03*
X213000000Y-159500000D03*
X210500000Y-159500000D03*
D17*
X238800000Y-132000000D03*
X229200000Y-132000000D03*
D18*
X236500000Y-139500000D03*
X234000000Y-139500000D03*
X231500000Y-139500000D03*
D17*
X238800000Y-112000000D03*
X229200000Y-112000000D03*
D18*
X236500000Y-119500000D03*
X234000000Y-119500000D03*
X231500000Y-119500000D03*
D19*
X224500000Y-110500000D03*
D20*
X222500000Y-110500000D03*
D19*
X224500000Y-131000000D03*
D20*
X222500000Y-131000000D03*
D21*
X217579500Y-122500000D02*
X218633900Y-122500000D01*
X222230000Y-125580000D02*
X221713900Y-125580000D01*
X221713900Y-125580000D02*
X218633900Y-122500000D01*
X224500000Y-110500000D02*
X224500000Y-111682900D01*
X228164900Y-118121700D02*
X228164900Y-122185100D01*
X228164900Y-122185100D02*
X224770000Y-125580000D01*
X224500000Y-111682900D02*
X228164900Y-115347800D01*
X228164900Y-115347800D02*
X228164900Y-118121700D01*
X240579500Y-121318600D02*
X237382600Y-118121700D01*
X237382600Y-118121700D02*
X228164900Y-118121700D01*
X240579500Y-122500000D02*
X240579500Y-121318600D01*
X222500000Y-131000000D02*
X217200000Y-136300000D01*
X217200000Y-136300000D02*
X210400000Y-136300000D01*
X210400000Y-136300000D02*
X208500000Y-138200000D01*
X208500000Y-138200000D02*
X208500000Y-146800000D01*
X208500000Y-146800000D02*
X222517909Y-160817909D01*
X222517909Y-160817909D02*
X222517909Y-166327909D01*
X222517909Y-166327909D02*
X223000511Y-166810511D01*
X223000511Y-166810511D02*
X224000000Y-167810000D01*
X215500000Y-139500000D02*
X215500000Y-144070000D01*
X215500000Y-144070000D02*
X224000000Y-152570000D01*
X225683000Y-130047700D02*
X225683000Y-148347000D01*
X224976800Y-129341500D02*
X225683000Y-130047700D01*
X218791500Y-129341500D02*
X224976800Y-129341500D01*
X225683000Y-148347000D02*
X224000000Y-150030000D01*
X213000000Y-123550000D02*
X218791500Y-129341500D01*
X213000000Y-119500000D02*
X213000000Y-123550000D01*
X234000000Y-139500000D02*
X234000000Y-144249720D01*
X234000000Y-144249720D02*
X227146410Y-151103310D01*
X227146410Y-151103310D02*
X227146410Y-154503590D01*
X227146410Y-154503590D02*
X224999489Y-156650511D01*
X224999489Y-156650511D02*
X224000000Y-157650000D01*
X234000000Y-119500000D02*
X226486000Y-127014000D01*
X226486000Y-127014000D02*
X226486000Y-152624000D01*
X226486000Y-152624000D02*
X224000000Y-155110000D01*
X234000000Y-181600000D02*
X234000000Y-179367100D01*
X224000000Y-160190000D02*
X227043700Y-163233700D01*
X227043700Y-163233700D02*
X227043700Y-173220300D01*
X227043700Y-173220300D02*
X233190500Y-179367100D01*
X233190500Y-179367100D02*
X234000000Y-179367100D01*
D22*
X215500000Y-119500000D02*
X215420500Y-119579500D01*
X215420500Y-119579500D02*
X215420500Y-122500000D01*
X238420500Y-122500000D02*
X238420500Y-121420500D01*
X238420500Y-121420500D02*
X236500000Y-119500000D01*
D23*
G36*
X225073400Y-148094495D02*
X224485907Y-148681988D01*
X224285950Y-148598959D01*
X223716548Y-148598462D01*
X223190298Y-148815904D01*
X222787319Y-149218181D01*
X222568959Y-149744050D01*
X222568494Y-150276390D01*
X216109600Y-143817496D01*
X216109600Y-140662078D01*
X216239276Y-140608497D01*
X216607205Y-140241209D01*
X216806573Y-139761079D01*
X216807027Y-139241202D01*
X216608497Y-138760724D01*
X216241209Y-138392795D01*
X215761079Y-138193427D01*
X215241202Y-138192973D01*
X214760724Y-138391503D01*
X214392795Y-138758791D01*
X214249894Y-139102931D01*
X214108497Y-138760724D01*
X213741209Y-138392795D01*
X213261079Y-138193427D01*
X212741202Y-138192973D01*
X212260724Y-138391503D01*
X211892795Y-138758791D01*
X211749894Y-139102931D01*
X211608497Y-138760724D01*
X211241209Y-138392795D01*
X210761079Y-138193427D01*
X210241202Y-138192973D01*
X209760724Y-138391503D01*
X209392795Y-138758791D01*
X209193427Y-139238921D01*
X209192973Y-139758798D01*
X209391503Y-140239276D01*
X209758791Y-140607205D01*
X210238921Y-140806573D01*
X210758798Y-140807027D01*
X211239276Y-140608497D01*
X211607205Y-140241209D01*
X211750105Y-139897068D01*
X211891503Y-140239276D01*
X212258791Y-140607205D01*
X212738921Y-140806573D01*
X213258798Y-140807027D01*
X213739276Y-140608497D01*
X214107205Y-140241209D01*
X214250105Y-139897068D01*
X214391503Y-140239276D01*
X214758791Y-140607205D01*
X214890400Y-140661853D01*
X214890400Y-144070000D01*
X214936803Y-144303284D01*
X215068948Y-144501052D01*
X222651988Y-152084092D01*
X222568959Y-152284050D01*
X222568462Y-152853452D01*
X222785904Y-153379702D01*
X223188181Y-153782681D01*
X223325909Y-153839870D01*
X223190298Y-153895904D01*
X222787319Y-154298181D01*
X222568959Y-154824050D01*
X222568462Y-155393452D01*
X222785904Y-155919702D01*
X223188181Y-156322681D01*
X223325909Y-156379870D01*
X223190298Y-156435904D01*
X222787319Y-156838181D01*
X222568959Y-157364050D01*
X222568462Y-157933452D01*
X222785904Y-158459702D01*
X223188181Y-158862681D01*
X223325909Y-158919870D01*
X223190298Y-158975904D01*
X222787319Y-159378181D01*
X222568959Y-159904050D01*
X222568869Y-160006765D01*
X219481800Y-156919696D01*
X219481800Y-152542744D01*
X219481800Y-151457256D01*
X219353781Y-150813659D01*
X218989212Y-150268044D01*
X218443597Y-149903475D01*
X217800000Y-149775456D01*
X217156403Y-149903475D01*
X216610788Y-150268044D01*
X216246219Y-150813659D01*
X216118200Y-151457256D01*
X216118200Y-152542744D01*
X216246219Y-153186341D01*
X216610788Y-153731956D01*
X217156403Y-154096525D01*
X217800000Y-154224544D01*
X218443597Y-154096525D01*
X218989212Y-153731956D01*
X219353781Y-153186341D01*
X219481800Y-152542744D01*
X219481800Y-156919696D01*
X209109600Y-146547496D01*
X209109600Y-138452504D01*
X210652504Y-136909600D01*
X217200000Y-136909600D01*
X217433284Y-136863197D01*
X217631052Y-136731052D01*
X222243229Y-132118874D01*
X222273883Y-132131603D01*
X222724141Y-132131996D01*
X223140275Y-131960053D01*
X223196959Y-131903467D01*
X223261673Y-132059699D01*
X223440302Y-132238327D01*
X223673691Y-132335000D01*
X224214250Y-132335000D01*
X224373000Y-132176250D01*
X224373000Y-131127000D01*
X224353000Y-131127000D01*
X224353000Y-130873000D01*
X224373000Y-130873000D01*
X224373000Y-130853000D01*
X224627000Y-130853000D01*
X224627000Y-130873000D01*
X224647000Y-130873000D01*
X224647000Y-131127000D01*
X224627000Y-131127000D01*
X224627000Y-132176250D01*
X224785750Y-132335000D01*
X225073400Y-132335000D01*
X225073400Y-148094495D01*
X225073400Y-148094495D01*
G37*
X225073400Y-148094495D02*
X224485907Y-148681988D01*
X224285950Y-148598959D01*
X223716548Y-148598462D01*
X223190298Y-148815904D01*
X222787319Y-149218181D01*
X222568959Y-149744050D01*
X222568494Y-150276390D01*
X216109600Y-143817496D01*
X216109600Y-140662078D01*
X216239276Y-140608497D01*
X216607205Y-140241209D01*
X216806573Y-139761079D01*
X216807027Y-139241202D01*
X216608497Y-138760724D01*
X216241209Y-138392795D01*
X215761079Y-138193427D01*
X215241202Y-138192973D01*
X214760724Y-138391503D01*
X214392795Y-138758791D01*
X214249894Y-139102931D01*
X214108497Y-138760724D01*
X213741209Y-138392795D01*
X213261079Y-138193427D01*
X212741202Y-138192973D01*
X212260724Y-138391503D01*
X211892795Y-138758791D01*
X211749894Y-139102931D01*
X211608497Y-138760724D01*
X211241209Y-138392795D01*
X210761079Y-138193427D01*
X210241202Y-138192973D01*
X209760724Y-138391503D01*
X209392795Y-138758791D01*
X209193427Y-139238921D01*
X209192973Y-139758798D01*
X209391503Y-140239276D01*
X209758791Y-140607205D01*
X210238921Y-140806573D01*
X210758798Y-140807027D01*
X211239276Y-140608497D01*
X211607205Y-140241209D01*
X211750105Y-139897068D01*
X211891503Y-140239276D01*
X212258791Y-140607205D01*
X212738921Y-140806573D01*
X213258798Y-140807027D01*
X213739276Y-140608497D01*
X214107205Y-140241209D01*
X214250105Y-139897068D01*
X214391503Y-140239276D01*
X214758791Y-140607205D01*
X214890400Y-140661853D01*
X214890400Y-144070000D01*
X214936803Y-144303284D01*
X215068948Y-144501052D01*
X222651988Y-152084092D01*
X222568959Y-152284050D01*
X222568462Y-152853452D01*
X222785904Y-153379702D01*
X223188181Y-153782681D01*
X223325909Y-153839870D01*
X223190298Y-153895904D01*
X222787319Y-154298181D01*
X222568959Y-154824050D01*
X222568462Y-155393452D01*
X222785904Y-155919702D01*
X223188181Y-156322681D01*
X223325909Y-156379870D01*
X223190298Y-156435904D01*
X222787319Y-156838181D01*
X222568959Y-157364050D01*
X222568462Y-157933452D01*
X222785904Y-158459702D01*
X223188181Y-158862681D01*
X223325909Y-158919870D01*
X223190298Y-158975904D01*
X222787319Y-159378181D01*
X222568959Y-159904050D01*
X222568869Y-160006765D01*
X219481800Y-156919696D01*
X219481800Y-152542744D01*
X219481800Y-151457256D01*
X219353781Y-150813659D01*
X218989212Y-150268044D01*
X218443597Y-149903475D01*
X217800000Y-149775456D01*
X217156403Y-149903475D01*
X216610788Y-150268044D01*
X216246219Y-150813659D01*
X216118200Y-151457256D01*
X216118200Y-152542744D01*
X216246219Y-153186341D01*
X216610788Y-153731956D01*
X217156403Y-154096525D01*
X217800000Y-154224544D01*
X218443597Y-154096525D01*
X218989212Y-153731956D01*
X219353781Y-153186341D01*
X219481800Y-152542744D01*
X219481800Y-156919696D01*
X209109600Y-146547496D01*
X209109600Y-138452504D01*
X210652504Y-136909600D01*
X217200000Y-136909600D01*
X217433284Y-136863197D01*
X217631052Y-136731052D01*
X222243229Y-132118874D01*
X222273883Y-132131603D01*
X222724141Y-132131996D01*
X223140275Y-131960053D01*
X223196959Y-131903467D01*
X223261673Y-132059699D01*
X223440302Y-132238327D01*
X223673691Y-132335000D01*
X224214250Y-132335000D01*
X224373000Y-132176250D01*
X224373000Y-131127000D01*
X224353000Y-131127000D01*
X224353000Y-130873000D01*
X224373000Y-130873000D01*
X224373000Y-130853000D01*
X224627000Y-130853000D01*
X224627000Y-130873000D01*
X224647000Y-130873000D01*
X224647000Y-131127000D01*
X224627000Y-131127000D01*
X224627000Y-132176250D01*
X224785750Y-132335000D01*
X225073400Y-132335000D01*
X225073400Y-148094495D01*
G36*
X242569000Y-206569000D02*
X241582800Y-206569000D01*
X241582800Y-123284391D01*
X241582800Y-123112610D01*
X241582800Y-121715610D01*
X241517063Y-121556905D01*
X241395595Y-121435438D01*
X241236891Y-121369700D01*
X241189100Y-121369700D01*
X241189100Y-121318600D01*
X241142697Y-121085316D01*
X241010552Y-120887548D01*
X241010552Y-120887547D01*
X240481800Y-120358795D01*
X240481800Y-112542744D01*
X240481800Y-111457256D01*
X240353781Y-110813659D01*
X239989212Y-110268044D01*
X239443597Y-109903475D01*
X238800000Y-109775456D01*
X238156403Y-109903475D01*
X237610788Y-110268044D01*
X237246219Y-110813659D01*
X237118200Y-111457256D01*
X237118200Y-112542744D01*
X237246219Y-113186341D01*
X237610788Y-113731956D01*
X238156403Y-114096525D01*
X238800000Y-114224544D01*
X239443597Y-114096525D01*
X239989212Y-113731956D01*
X240353781Y-113186341D01*
X240481800Y-112542744D01*
X240481800Y-120358795D01*
X237813652Y-117690648D01*
X237615884Y-117558503D01*
X237382600Y-117512100D01*
X230881800Y-117512100D01*
X230881800Y-112542744D01*
X230881800Y-111457256D01*
X230753781Y-110813659D01*
X230389212Y-110268044D01*
X229843597Y-109903475D01*
X229200000Y-109775456D01*
X228556403Y-109903475D01*
X228010788Y-110268044D01*
X227646219Y-110813659D01*
X227518200Y-111457256D01*
X227518200Y-112542744D01*
X227646219Y-113186341D01*
X228010788Y-113731956D01*
X228556403Y-114096525D01*
X229200000Y-114224544D01*
X229843597Y-114096525D01*
X230389212Y-113731956D01*
X230753781Y-113186341D01*
X230881800Y-112542744D01*
X230881800Y-117512100D01*
X228774500Y-117512100D01*
X228774500Y-115347800D01*
X228728097Y-115114516D01*
X228595952Y-114916748D01*
X225303648Y-111624444D01*
X225444595Y-111566063D01*
X225566062Y-111444595D01*
X225631800Y-111285891D01*
X225631800Y-111114110D01*
X225631800Y-109714110D01*
X225566063Y-109555405D01*
X225444595Y-109433938D01*
X225285891Y-109368200D01*
X225114110Y-109368200D01*
X223714110Y-109368200D01*
X223555405Y-109433937D01*
X223455393Y-109533949D01*
X223370918Y-109449474D01*
X223255668Y-109564723D01*
X223193831Y-109328958D01*
X222692878Y-109152581D01*
X222162560Y-109181336D01*
X221806169Y-109328958D01*
X221744331Y-109564725D01*
X222500000Y-110320395D01*
X222514142Y-110306252D01*
X222693747Y-110485857D01*
X222679605Y-110500000D01*
X222693747Y-110514142D01*
X222514142Y-110693747D01*
X222500000Y-110679605D01*
X222320395Y-110859210D01*
X222320395Y-110500000D01*
X221564725Y-109744331D01*
X221328958Y-109806169D01*
X221152581Y-110307122D01*
X221181336Y-110837440D01*
X221328958Y-111193831D01*
X221564725Y-111255669D01*
X222320395Y-110500000D01*
X222320395Y-110859210D01*
X221744331Y-111435275D01*
X221806169Y-111671042D01*
X222307122Y-111847419D01*
X222837440Y-111818664D01*
X223193831Y-111671042D01*
X223255668Y-111435276D01*
X223255669Y-111435277D01*
X223370918Y-111550526D01*
X223455393Y-111466050D01*
X223555405Y-111566062D01*
X223714109Y-111631800D01*
X223885890Y-111631800D01*
X223890400Y-111631800D01*
X223890400Y-111682900D01*
X223936803Y-111916184D01*
X224068948Y-112113952D01*
X226006162Y-114051166D01*
X225855381Y-113988710D01*
X225683600Y-113988710D01*
X223684620Y-113988710D01*
X223525915Y-114054447D01*
X223404448Y-114175915D01*
X223338710Y-114334619D01*
X223338710Y-114504728D01*
X223255669Y-114421542D01*
X223041819Y-114207319D01*
X222515950Y-113988959D01*
X221946548Y-113988462D01*
X221420298Y-114205904D01*
X221017319Y-114608181D01*
X220798959Y-115134050D01*
X220798462Y-115703452D01*
X221015904Y-116229702D01*
X221348112Y-116562490D01*
X221257443Y-116807837D01*
X222230000Y-117780395D01*
X223202557Y-116807837D01*
X223111764Y-116562158D01*
X223338710Y-116335608D01*
X223338710Y-116505380D01*
X223404447Y-116664085D01*
X223525915Y-116785552D01*
X223572052Y-116804663D01*
X223503554Y-116873162D01*
X223617835Y-116987443D01*
X223500000Y-117030990D01*
X223382163Y-116987443D01*
X222409605Y-117960000D01*
X223382163Y-118932557D01*
X223500000Y-118889009D01*
X223617837Y-118932557D01*
X224590395Y-117960000D01*
X224576252Y-117945857D01*
X224755857Y-117766252D01*
X224770000Y-117780395D01*
X224784142Y-117766252D01*
X224963747Y-117945857D01*
X224949605Y-117960000D01*
X225922163Y-118932557D01*
X226188965Y-118833958D01*
X226415401Y-118224418D01*
X226391341Y-117574623D01*
X226188965Y-117086042D01*
X225922164Y-116987443D01*
X226036446Y-116873162D01*
X225967947Y-116804663D01*
X226014085Y-116785553D01*
X226135552Y-116664085D01*
X226201290Y-116505381D01*
X226201290Y-116333600D01*
X226201290Y-114334620D01*
X226138835Y-114183839D01*
X227555300Y-115600304D01*
X227555300Y-118121700D01*
X227555300Y-121932595D01*
X226415401Y-123072494D01*
X226415401Y-120764418D01*
X226391341Y-120114623D01*
X226188965Y-119626042D01*
X225922163Y-119527443D01*
X225742557Y-119707048D01*
X225742557Y-119347837D01*
X225699009Y-119230000D01*
X225742557Y-119112163D01*
X224770000Y-118139605D01*
X224590395Y-118319210D01*
X223797443Y-119112163D01*
X223840990Y-119230000D01*
X223797443Y-119347837D01*
X224770000Y-120320395D01*
X225742557Y-119347837D01*
X225742557Y-119707048D01*
X224949605Y-120500000D01*
X225922163Y-121472557D01*
X226188965Y-121373958D01*
X226415401Y-120764418D01*
X226415401Y-123072494D01*
X226407120Y-123080775D01*
X226391341Y-122654623D01*
X226188965Y-122166042D01*
X225922163Y-122067443D01*
X225742557Y-122247048D01*
X225742557Y-121887837D01*
X225699009Y-121770000D01*
X225742557Y-121652163D01*
X224770000Y-120679605D01*
X224590395Y-120859210D01*
X224590395Y-120500000D01*
X223617837Y-119527443D01*
X223500000Y-119570990D01*
X223382163Y-119527443D01*
X223202557Y-119707048D01*
X223202557Y-119347837D01*
X223159009Y-119230000D01*
X223202557Y-119112163D01*
X222230000Y-118139605D01*
X222050395Y-118319210D01*
X222050395Y-117960000D01*
X221077837Y-116987443D01*
X220811035Y-117086042D01*
X220584599Y-117695582D01*
X220608659Y-118345377D01*
X220811035Y-118833958D01*
X221077837Y-118932557D01*
X222050395Y-117960000D01*
X222050395Y-118319210D01*
X221257443Y-119112163D01*
X221300990Y-119230000D01*
X221257443Y-119347837D01*
X222230000Y-120320395D01*
X223202557Y-119347837D01*
X223202557Y-119707048D01*
X222409605Y-120500000D01*
X223382163Y-121472557D01*
X223500000Y-121429009D01*
X223617837Y-121472557D01*
X224590395Y-120500000D01*
X224590395Y-120859210D01*
X223797443Y-121652163D01*
X223840990Y-121770000D01*
X223797443Y-121887837D01*
X224770000Y-122860395D01*
X225742557Y-121887837D01*
X225742557Y-122247048D01*
X224949605Y-123040000D01*
X224963747Y-123054142D01*
X224784142Y-123233747D01*
X224770000Y-123219605D01*
X224590395Y-123399210D01*
X224590395Y-123040000D01*
X223617837Y-122067443D01*
X223500000Y-122110990D01*
X223382163Y-122067443D01*
X223202557Y-122247048D01*
X223202557Y-121887837D01*
X223159009Y-121770000D01*
X223202557Y-121652163D01*
X222230000Y-120679605D01*
X222050395Y-120859210D01*
X222050395Y-120500000D01*
X221077837Y-119527443D01*
X220811035Y-119626042D01*
X220584599Y-120235582D01*
X220608659Y-120885377D01*
X220811035Y-121373958D01*
X221077837Y-121472557D01*
X222050395Y-120500000D01*
X222050395Y-120859210D01*
X221257443Y-121652163D01*
X221300990Y-121770000D01*
X221257443Y-121887837D01*
X222230000Y-122860395D01*
X223202557Y-121887837D01*
X223202557Y-122247048D01*
X222409605Y-123040000D01*
X223382163Y-124012557D01*
X223500000Y-123969009D01*
X223617837Y-124012557D01*
X224590395Y-123040000D01*
X224590395Y-123399210D01*
X223797443Y-124192163D01*
X223888235Y-124437841D01*
X223557319Y-124768181D01*
X223500129Y-124905909D01*
X223444096Y-124770298D01*
X223111887Y-124437509D01*
X223202557Y-124192163D01*
X222230000Y-123219605D01*
X222215857Y-123233747D01*
X222036252Y-123054142D01*
X222050395Y-123040000D01*
X221077837Y-122067443D01*
X220811035Y-122166042D01*
X220584599Y-122775582D01*
X220608659Y-123425377D01*
X220741083Y-123745079D01*
X219481800Y-122485796D01*
X219481800Y-112542744D01*
X219481800Y-111457256D01*
X219353781Y-110813659D01*
X218989212Y-110268044D01*
X218443597Y-109903475D01*
X217800000Y-109775456D01*
X217156403Y-109903475D01*
X216610788Y-110268044D01*
X216246219Y-110813659D01*
X216118200Y-111457256D01*
X216118200Y-112542744D01*
X216246219Y-113186341D01*
X216610788Y-113731956D01*
X217156403Y-114096525D01*
X217800000Y-114224544D01*
X218443597Y-114096525D01*
X218989212Y-113731956D01*
X219353781Y-113186341D01*
X219481800Y-112542744D01*
X219481800Y-122485796D01*
X219064952Y-122068948D01*
X218867184Y-121936803D01*
X218633900Y-121890400D01*
X218582800Y-121890400D01*
X218582800Y-121715610D01*
X218517063Y-121556905D01*
X218395595Y-121435438D01*
X218236891Y-121369700D01*
X218065110Y-121369700D01*
X216922110Y-121369700D01*
X216763405Y-121435437D01*
X216641938Y-121556905D01*
X216576200Y-121715609D01*
X216576200Y-121887390D01*
X216576200Y-123284390D01*
X216641937Y-123443095D01*
X216763405Y-123564562D01*
X216922109Y-123630300D01*
X217093890Y-123630300D01*
X218236890Y-123630300D01*
X218395595Y-123564563D01*
X218517062Y-123443095D01*
X218575005Y-123303209D01*
X220798755Y-125526959D01*
X220798462Y-125863452D01*
X221015904Y-126389702D01*
X221418181Y-126792681D01*
X221944050Y-127011041D01*
X222513452Y-127011538D01*
X223039702Y-126794096D01*
X223442681Y-126391819D01*
X223499870Y-126254090D01*
X223555904Y-126389702D01*
X223958181Y-126792681D01*
X224484050Y-127011041D01*
X225053452Y-127011538D01*
X225579702Y-126794096D01*
X225982681Y-126391819D01*
X226201041Y-125865950D01*
X226201538Y-125296548D01*
X226117922Y-125094182D01*
X228595952Y-122616152D01*
X228595953Y-122616152D01*
X228675167Y-122497598D01*
X228728097Y-122418384D01*
X228728097Y-122418383D01*
X228774500Y-122185100D01*
X228774500Y-118731300D01*
X230172965Y-118731300D01*
X229978410Y-119265306D01*
X230004421Y-119865458D01*
X230184047Y-120299116D01*
X230437940Y-120382455D01*
X231320395Y-119500000D01*
X231306252Y-119485857D01*
X231485857Y-119306252D01*
X231500000Y-119320395D01*
X231514142Y-119306252D01*
X231693747Y-119485857D01*
X231679605Y-119500000D01*
X231693747Y-119514142D01*
X231514142Y-119693747D01*
X231500000Y-119679605D01*
X230617545Y-120562060D01*
X230700884Y-120815953D01*
X231265306Y-121021590D01*
X231632206Y-121005688D01*
X226054948Y-126582948D01*
X225922803Y-126780716D01*
X225876400Y-127014000D01*
X225876400Y-129378995D01*
X225407852Y-128910448D01*
X225210084Y-128778303D01*
X224976800Y-128731900D01*
X219044004Y-128731900D01*
X213609600Y-123297496D01*
X213609600Y-120662078D01*
X213739276Y-120608497D01*
X214107205Y-120241209D01*
X214250105Y-119897068D01*
X214391503Y-120239276D01*
X214758791Y-120607205D01*
X214836300Y-120639389D01*
X214836300Y-121369700D01*
X214763110Y-121369700D01*
X214604405Y-121435437D01*
X214482938Y-121556905D01*
X214417200Y-121715609D01*
X214417200Y-121887390D01*
X214417200Y-123284390D01*
X214482937Y-123443095D01*
X214604405Y-123564562D01*
X214763109Y-123630300D01*
X214934890Y-123630300D01*
X216077890Y-123630300D01*
X216236595Y-123564563D01*
X216358062Y-123443095D01*
X216423800Y-123284391D01*
X216423800Y-123112610D01*
X216423800Y-121715610D01*
X216358063Y-121556905D01*
X216236595Y-121435438D01*
X216077891Y-121369700D01*
X216004700Y-121369700D01*
X216004700Y-120705422D01*
X216239276Y-120608497D01*
X216607205Y-120241209D01*
X216806573Y-119761079D01*
X216807027Y-119241202D01*
X216608497Y-118760724D01*
X216241209Y-118392795D01*
X215761079Y-118193427D01*
X215241202Y-118192973D01*
X214760724Y-118391503D01*
X214392795Y-118758791D01*
X214249894Y-119102931D01*
X214108497Y-118760724D01*
X213741209Y-118392795D01*
X213261079Y-118193427D01*
X212741202Y-118192973D01*
X212260724Y-118391503D01*
X211892795Y-118758791D01*
X211866334Y-118822515D01*
X211815953Y-118700884D01*
X211562060Y-118617545D01*
X211382455Y-118797150D01*
X211382455Y-118437940D01*
X211299116Y-118184047D01*
X210734694Y-117978410D01*
X210134542Y-118004421D01*
X209881800Y-118109109D01*
X209881800Y-112542744D01*
X209881800Y-111457256D01*
X209753781Y-110813659D01*
X209389212Y-110268044D01*
X208843597Y-109903475D01*
X208200000Y-109775456D01*
X207556403Y-109903475D01*
X207010788Y-110268044D01*
X206646219Y-110813659D01*
X206518200Y-111457256D01*
X206518200Y-112542744D01*
X206646219Y-113186341D01*
X207010788Y-113731956D01*
X207556403Y-114096525D01*
X208200000Y-114224544D01*
X208843597Y-114096525D01*
X209389212Y-113731956D01*
X209753781Y-113186341D01*
X209881800Y-112542744D01*
X209881800Y-118109109D01*
X209700884Y-118184047D01*
X209617545Y-118437940D01*
X210500000Y-119320395D01*
X211382455Y-118437940D01*
X211382455Y-118797150D01*
X210679605Y-119500000D01*
X211562060Y-120382455D01*
X211815953Y-120299116D01*
X211862940Y-120170148D01*
X211891503Y-120239276D01*
X212258791Y-120607205D01*
X212390400Y-120661853D01*
X212390400Y-123550000D01*
X212436803Y-123783284D01*
X212568948Y-123981052D01*
X218360448Y-129772552D01*
X218558216Y-129904697D01*
X218791500Y-129951100D01*
X222074751Y-129951100D01*
X221859725Y-130039947D01*
X221541066Y-130358050D01*
X221368397Y-130773883D01*
X221368004Y-131224141D01*
X221381380Y-131256515D01*
X219156895Y-133481000D01*
X219353781Y-133186341D01*
X219481800Y-132542744D01*
X219481800Y-131457256D01*
X219353781Y-130813659D01*
X218989212Y-130268044D01*
X218443597Y-129903475D01*
X217800000Y-129775456D01*
X217156403Y-129903475D01*
X216610788Y-130268044D01*
X216246219Y-130813659D01*
X216118200Y-131457256D01*
X216118200Y-132542744D01*
X216246219Y-133186341D01*
X216610788Y-133731956D01*
X217156403Y-134096525D01*
X217800000Y-134224544D01*
X218443597Y-134096525D01*
X218738256Y-133899639D01*
X216947496Y-135690400D01*
X211382455Y-135690400D01*
X211382455Y-120562060D01*
X210500000Y-119679605D01*
X210320395Y-119859210D01*
X210320395Y-119500000D01*
X209437940Y-118617545D01*
X209184047Y-118700884D01*
X208978410Y-119265306D01*
X209004421Y-119865458D01*
X209184047Y-120299116D01*
X209437940Y-120382455D01*
X210320395Y-119500000D01*
X210320395Y-119859210D01*
X209617545Y-120562060D01*
X209700884Y-120815953D01*
X210265306Y-121021590D01*
X210865458Y-120995579D01*
X211299116Y-120815953D01*
X211382455Y-120562060D01*
X211382455Y-135690400D01*
X210400000Y-135690400D01*
X210166716Y-135736803D01*
X209968948Y-135868948D01*
X209881800Y-135956096D01*
X209881800Y-132542744D01*
X209881800Y-131457256D01*
X209753781Y-130813659D01*
X209389212Y-130268044D01*
X208843597Y-129903475D01*
X208200000Y-129775456D01*
X207556403Y-129903475D01*
X207010788Y-130268044D01*
X206646219Y-130813659D01*
X206518200Y-131457256D01*
X206518200Y-132542744D01*
X206646219Y-133186341D01*
X207010788Y-133731956D01*
X207556403Y-134096525D01*
X208200000Y-134224544D01*
X208843597Y-134096525D01*
X209389212Y-133731956D01*
X209753781Y-133186341D01*
X209881800Y-132542744D01*
X209881800Y-135956096D01*
X208068948Y-137768948D01*
X207936803Y-137966716D01*
X207890400Y-138200000D01*
X207890400Y-146800000D01*
X207936803Y-147033284D01*
X208068948Y-147231052D01*
X221908309Y-161070413D01*
X221908309Y-166327909D01*
X221954712Y-166561193D01*
X222086857Y-166758961D01*
X222569458Y-167241563D01*
X222569459Y-167241563D01*
X222569461Y-167241565D01*
X222651988Y-167324092D01*
X222568959Y-167524050D01*
X222568462Y-168093452D01*
X222785904Y-168619702D01*
X223118112Y-168952490D01*
X223027443Y-169197837D01*
X224000000Y-170170395D01*
X224972557Y-169197837D01*
X224881764Y-168952158D01*
X225212681Y-168621819D01*
X225431041Y-168095950D01*
X225431538Y-167526548D01*
X225214096Y-167000298D01*
X224811819Y-166597319D01*
X224674090Y-166540129D01*
X224809702Y-166484096D01*
X225212681Y-166081819D01*
X225431041Y-165555950D01*
X225431538Y-164986548D01*
X225214096Y-164460298D01*
X224881887Y-164127509D01*
X224972557Y-163882163D01*
X224000000Y-162909605D01*
X223985857Y-162923747D01*
X223806252Y-162744142D01*
X223820395Y-162730000D01*
X223806252Y-162715857D01*
X223985857Y-162536252D01*
X224000000Y-162550395D01*
X224014142Y-162536252D01*
X224193747Y-162715857D01*
X224179605Y-162730000D01*
X225152163Y-163702557D01*
X225418965Y-163603958D01*
X225645401Y-162994418D01*
X225633984Y-162686088D01*
X226434100Y-163486204D01*
X226434100Y-173220300D01*
X226480503Y-173453584D01*
X226612648Y-173651352D01*
X232759448Y-179798152D01*
X232780841Y-179812446D01*
X232414490Y-180057234D01*
X231941536Y-180765061D01*
X231775456Y-181600000D01*
X231941536Y-182434939D01*
X232414490Y-183142766D01*
X233122317Y-183615720D01*
X233957256Y-183781800D01*
X234042744Y-183781800D01*
X234877683Y-183615720D01*
X235585510Y-183142766D01*
X236058464Y-182434939D01*
X236224544Y-181600000D01*
X236224544Y-174800000D01*
X236224544Y-166600000D01*
X236058464Y-165765061D01*
X235585510Y-165057234D01*
X234877683Y-164584280D01*
X234042744Y-164418200D01*
X233957256Y-164418200D01*
X233122317Y-164584280D01*
X232414490Y-165057234D01*
X232382455Y-165105177D01*
X232382455Y-160562060D01*
X231500000Y-159679605D01*
X231320395Y-159859210D01*
X231320395Y-159500000D01*
X230437940Y-158617545D01*
X230184047Y-158700884D01*
X229978410Y-159265306D01*
X230004421Y-159865458D01*
X230184047Y-160299116D01*
X230437940Y-160382455D01*
X231320395Y-159500000D01*
X231320395Y-159859210D01*
X230617545Y-160562060D01*
X230700884Y-160815953D01*
X231265306Y-161021590D01*
X231865458Y-160995579D01*
X232299116Y-160815953D01*
X232382455Y-160562060D01*
X232382455Y-165105177D01*
X231941536Y-165765061D01*
X231775456Y-166600000D01*
X231941536Y-167434939D01*
X232414490Y-168142766D01*
X233122317Y-168615720D01*
X233957256Y-168781800D01*
X234042744Y-168781800D01*
X234877683Y-168615720D01*
X235585510Y-168142766D01*
X236058464Y-167434939D01*
X236224544Y-166600000D01*
X236224544Y-174800000D01*
X236058464Y-173965061D01*
X235585510Y-173257234D01*
X234877683Y-172784280D01*
X234042744Y-172618200D01*
X233957256Y-172618200D01*
X233122317Y-172784280D01*
X232414490Y-173257234D01*
X231941536Y-173965061D01*
X231775456Y-174800000D01*
X231941536Y-175634939D01*
X232414490Y-176342766D01*
X233122317Y-176815720D01*
X233957256Y-176981800D01*
X234042744Y-176981800D01*
X234877683Y-176815720D01*
X235585510Y-176342766D01*
X236058464Y-175634939D01*
X236224544Y-174800000D01*
X236224544Y-181600000D01*
X236058464Y-180765061D01*
X235585510Y-180057234D01*
X234877683Y-179584280D01*
X234609600Y-179530954D01*
X234609600Y-179367100D01*
X234563197Y-179133816D01*
X234431052Y-178936048D01*
X234233284Y-178803903D01*
X234000000Y-178757500D01*
X233443004Y-178757500D01*
X231685000Y-176999496D01*
X229320504Y-174635000D01*
X229427002Y-174635000D01*
X229427002Y-174472625D01*
X229798003Y-174582427D01*
X230095367Y-174502054D01*
X230896647Y-174026253D01*
X231454852Y-173280033D01*
X231685000Y-172377000D01*
X231685000Y-171627000D01*
X231685000Y-171373000D01*
X231685000Y-170623000D01*
X231454852Y-169719967D01*
X230896647Y-168973747D01*
X230095367Y-168497946D01*
X229798003Y-168417573D01*
X229427000Y-168527375D01*
X229427000Y-171373000D01*
X231685000Y-171373000D01*
X231685000Y-171627000D01*
X229427000Y-171627000D01*
X229427000Y-171647000D01*
X229173000Y-171647000D01*
X229173000Y-171627000D01*
X229153000Y-171627000D01*
X229153000Y-171373000D01*
X229173000Y-171373000D01*
X229173000Y-168527375D01*
X228801997Y-168417573D01*
X228504633Y-168497946D01*
X227703353Y-168973747D01*
X227653300Y-169040658D01*
X227653300Y-163233700D01*
X227606897Y-163000416D01*
X227474752Y-162802648D01*
X225348011Y-160675907D01*
X225431041Y-160475950D01*
X225431538Y-159906548D01*
X225214096Y-159380298D01*
X224811819Y-158977319D01*
X224674090Y-158920129D01*
X224809702Y-158864096D01*
X225212681Y-158461819D01*
X225431041Y-157935950D01*
X225431538Y-157366548D01*
X225347922Y-157164181D01*
X225430541Y-157081563D01*
X227577462Y-154934642D01*
X227709607Y-154736874D01*
X227756010Y-154503590D01*
X227756010Y-153350654D01*
X228010788Y-153731956D01*
X228556403Y-154096525D01*
X229200000Y-154224544D01*
X229843597Y-154096525D01*
X230389212Y-153731956D01*
X230753781Y-153186341D01*
X230881800Y-152542744D01*
X230881800Y-151457256D01*
X230753781Y-150813659D01*
X230389212Y-150268044D01*
X229843597Y-149903475D01*
X229313743Y-149798080D01*
X234431052Y-144680772D01*
X234563197Y-144483004D01*
X234609600Y-144249720D01*
X234609600Y-140662078D01*
X234739276Y-140608497D01*
X235107205Y-140241209D01*
X235250105Y-139897068D01*
X235391503Y-140239276D01*
X235758791Y-140607205D01*
X236238921Y-140806573D01*
X236758798Y-140807027D01*
X237239276Y-140608497D01*
X237607205Y-140241209D01*
X237806573Y-139761079D01*
X237807027Y-139241202D01*
X237608497Y-138760724D01*
X237241209Y-138392795D01*
X236761079Y-138193427D01*
X236241202Y-138192973D01*
X235760724Y-138391503D01*
X235392795Y-138758791D01*
X235249894Y-139102931D01*
X235108497Y-138760724D01*
X234741209Y-138392795D01*
X234261079Y-138193427D01*
X233741202Y-138192973D01*
X233260724Y-138391503D01*
X232892795Y-138758791D01*
X232749894Y-139102931D01*
X232608497Y-138760724D01*
X232241209Y-138392795D01*
X231761079Y-138193427D01*
X231241202Y-138192973D01*
X230881800Y-138341475D01*
X230881800Y-132542744D01*
X230881800Y-131457256D01*
X230753781Y-130813659D01*
X230389212Y-130268044D01*
X229843597Y-129903475D01*
X229200000Y-129775456D01*
X228556403Y-129903475D01*
X228010788Y-130268044D01*
X227646219Y-130813659D01*
X227518200Y-131457256D01*
X227518200Y-132542744D01*
X227646219Y-133186341D01*
X228010788Y-133731956D01*
X228556403Y-134096525D01*
X229200000Y-134224544D01*
X229843597Y-134096525D01*
X230389212Y-133731956D01*
X230753781Y-133186341D01*
X230881800Y-132542744D01*
X230881800Y-138341475D01*
X230760724Y-138391503D01*
X230392795Y-138758791D01*
X230193427Y-139238921D01*
X230192973Y-139758798D01*
X230391503Y-140239276D01*
X230758791Y-140607205D01*
X231238921Y-140806573D01*
X231758798Y-140807027D01*
X232239276Y-140608497D01*
X232607205Y-140241209D01*
X232750105Y-139897068D01*
X232891503Y-140239276D01*
X233258791Y-140607205D01*
X233390400Y-140661853D01*
X233390400Y-143997216D01*
X227095600Y-150292016D01*
X227095600Y-127266504D01*
X233609339Y-120752765D01*
X233738921Y-120806573D01*
X234258798Y-120807027D01*
X234739276Y-120608497D01*
X235107205Y-120241209D01*
X235250105Y-119897068D01*
X235391503Y-120239276D01*
X235758791Y-120607205D01*
X236238921Y-120806573D01*
X236758798Y-120807027D01*
X236915920Y-120742104D01*
X237607833Y-121434017D01*
X237604405Y-121435437D01*
X237482938Y-121556905D01*
X237417200Y-121715609D01*
X237417200Y-121887390D01*
X237417200Y-123284390D01*
X237482937Y-123443095D01*
X237604405Y-123564562D01*
X237763109Y-123630300D01*
X237934890Y-123630300D01*
X239077890Y-123630300D01*
X239236595Y-123564563D01*
X239358062Y-123443095D01*
X239423800Y-123284391D01*
X239423800Y-123112610D01*
X239423800Y-121715610D01*
X239358063Y-121556905D01*
X239236595Y-121435438D01*
X239077891Y-121369700D01*
X238994595Y-121369700D01*
X238960230Y-121196937D01*
X238960230Y-121196936D01*
X238833592Y-121007408D01*
X237742226Y-119916042D01*
X237806573Y-119761079D01*
X237806881Y-119408085D01*
X239813487Y-121414692D01*
X239763405Y-121435437D01*
X239641938Y-121556905D01*
X239576200Y-121715609D01*
X239576200Y-121887390D01*
X239576200Y-123284390D01*
X239641937Y-123443095D01*
X239763405Y-123564562D01*
X239922109Y-123630300D01*
X240093890Y-123630300D01*
X241236890Y-123630300D01*
X241395595Y-123564563D01*
X241517062Y-123443095D01*
X241582800Y-123284391D01*
X241582800Y-206569000D01*
X240481800Y-206569000D01*
X240481800Y-152542744D01*
X240481800Y-151457256D01*
X240481800Y-132542744D01*
X240481800Y-131457256D01*
X240353781Y-130813659D01*
X239989212Y-130268044D01*
X239443597Y-129903475D01*
X238800000Y-129775456D01*
X238156403Y-129903475D01*
X237610788Y-130268044D01*
X237246219Y-130813659D01*
X237118200Y-131457256D01*
X237118200Y-132542744D01*
X237246219Y-133186341D01*
X237610788Y-133731956D01*
X238156403Y-134096525D01*
X238800000Y-134224544D01*
X239443597Y-134096525D01*
X239989212Y-133731956D01*
X240353781Y-133186341D01*
X240481800Y-132542744D01*
X240481800Y-151457256D01*
X240353781Y-150813659D01*
X239989212Y-150268044D01*
X239443597Y-149903475D01*
X238800000Y-149775456D01*
X238156403Y-149903475D01*
X237610788Y-150268044D01*
X237246219Y-150813659D01*
X237118200Y-151457256D01*
X237118200Y-152542744D01*
X237246219Y-153186341D01*
X237610788Y-153731956D01*
X238156403Y-154096525D01*
X238800000Y-154224544D01*
X239443597Y-154096525D01*
X239989212Y-153731956D01*
X240353781Y-153186341D01*
X240481800Y-152542744D01*
X240481800Y-206569000D01*
X240335000Y-206569000D01*
X240335000Y-202377000D01*
X240335000Y-201627000D01*
X240335000Y-201373000D01*
X240335000Y-200623000D01*
X240335000Y-187377000D01*
X240335000Y-186627000D01*
X240335000Y-186373000D01*
X240335000Y-185623000D01*
X240335000Y-172377000D01*
X240335000Y-171627000D01*
X240335000Y-171373000D01*
X240335000Y-170623000D01*
X240161942Y-170006980D01*
X239766317Y-169504078D01*
X239208355Y-169190856D01*
X239080434Y-169159876D01*
X238827000Y-169279223D01*
X238827000Y-171373000D01*
X240335000Y-171373000D01*
X240335000Y-171627000D01*
X238827000Y-171627000D01*
X238827000Y-173720777D01*
X239080434Y-173840124D01*
X239208355Y-173809144D01*
X239766317Y-173495922D01*
X240161942Y-172993020D01*
X240335000Y-172377000D01*
X240335000Y-185623000D01*
X240161942Y-185006980D01*
X239766317Y-184504078D01*
X239208355Y-184190856D01*
X239080434Y-184159876D01*
X238827000Y-184279223D01*
X238827000Y-186373000D01*
X240335000Y-186373000D01*
X240335000Y-186627000D01*
X238827000Y-186627000D01*
X238827000Y-188720777D01*
X239080434Y-188840124D01*
X239208355Y-188809144D01*
X239766317Y-188495922D01*
X240161942Y-187993020D01*
X240335000Y-187377000D01*
X240335000Y-200623000D01*
X240161942Y-200006980D01*
X239766317Y-199504078D01*
X239208355Y-199190856D01*
X239080434Y-199159876D01*
X238827000Y-199279223D01*
X238827000Y-201373000D01*
X240335000Y-201373000D01*
X240335000Y-201627000D01*
X238827000Y-201627000D01*
X238827000Y-203720777D01*
X239080434Y-203840124D01*
X239208355Y-203809144D01*
X239766317Y-203495922D01*
X240161942Y-202993020D01*
X240335000Y-202377000D01*
X240335000Y-206569000D01*
X238573000Y-206569000D01*
X238573000Y-203720777D01*
X238573000Y-201627000D01*
X238573000Y-201373000D01*
X238573000Y-199279223D01*
X238573000Y-188720777D01*
X238573000Y-186627000D01*
X238573000Y-186373000D01*
X238573000Y-184279223D01*
X238573000Y-173720777D01*
X238573000Y-171627000D01*
X238573000Y-171373000D01*
X238573000Y-169279223D01*
X238319566Y-169159876D01*
X238191645Y-169190856D01*
X237807027Y-169406768D01*
X237807027Y-159241202D01*
X237608497Y-158760724D01*
X237241209Y-158392795D01*
X236761079Y-158193427D01*
X236241202Y-158192973D01*
X235760724Y-158391503D01*
X235392795Y-158758791D01*
X235249894Y-159102931D01*
X235108497Y-158760724D01*
X234741209Y-158392795D01*
X234261079Y-158193427D01*
X233741202Y-158192973D01*
X233260724Y-158391503D01*
X232892795Y-158758791D01*
X232866334Y-158822515D01*
X232815953Y-158700884D01*
X232562060Y-158617545D01*
X232382455Y-158797150D01*
X232382455Y-158437940D01*
X232299116Y-158184047D01*
X231734694Y-157978410D01*
X231134542Y-158004421D01*
X230700884Y-158184047D01*
X230617545Y-158437940D01*
X231500000Y-159320395D01*
X232382455Y-158437940D01*
X232382455Y-158797150D01*
X231679605Y-159500000D01*
X232562060Y-160382455D01*
X232815953Y-160299116D01*
X232862940Y-160170148D01*
X232891503Y-160239276D01*
X233258791Y-160607205D01*
X233738921Y-160806573D01*
X234258798Y-160807027D01*
X234739276Y-160608497D01*
X235107205Y-160241209D01*
X235250105Y-159897068D01*
X235391503Y-160239276D01*
X235758791Y-160607205D01*
X236238921Y-160806573D01*
X236758798Y-160807027D01*
X237239276Y-160608497D01*
X237607205Y-160241209D01*
X237806573Y-159761079D01*
X237807027Y-159241202D01*
X237807027Y-169406768D01*
X237633683Y-169504078D01*
X237238058Y-170006980D01*
X237065000Y-170623000D01*
X237065000Y-171373000D01*
X238573000Y-171373000D01*
X238573000Y-171627000D01*
X237065000Y-171627000D01*
X237065000Y-172377000D01*
X237238058Y-172993020D01*
X237633683Y-173495922D01*
X238191645Y-173809144D01*
X238319566Y-173840124D01*
X238573000Y-173720777D01*
X238573000Y-184279223D01*
X238319566Y-184159876D01*
X238191645Y-184190856D01*
X237633683Y-184504078D01*
X237238058Y-185006980D01*
X237065000Y-185623000D01*
X237065000Y-186373000D01*
X238573000Y-186373000D01*
X238573000Y-186627000D01*
X237065000Y-186627000D01*
X237065000Y-187377000D01*
X237238058Y-187993020D01*
X237633683Y-188495922D01*
X238191645Y-188809144D01*
X238319566Y-188840124D01*
X238573000Y-188720777D01*
X238573000Y-199279223D01*
X238319566Y-199159876D01*
X238191645Y-199190856D01*
X237633683Y-199504078D01*
X237238058Y-200006980D01*
X237065000Y-200623000D01*
X237065000Y-201373000D01*
X238573000Y-201373000D01*
X238573000Y-201627000D01*
X237065000Y-201627000D01*
X237065000Y-202377000D01*
X237238058Y-202993020D01*
X237633683Y-203495922D01*
X238191645Y-203809144D01*
X238319566Y-203840124D01*
X238573000Y-203720777D01*
X238573000Y-206569000D01*
X235246926Y-206569000D01*
X235585510Y-206342766D01*
X236058464Y-205634939D01*
X236224544Y-204800000D01*
X236224544Y-196600000D01*
X236224544Y-189800000D01*
X236058464Y-188965061D01*
X235585510Y-188257234D01*
X234877683Y-187784280D01*
X234042744Y-187618200D01*
X233957256Y-187618200D01*
X233122317Y-187784280D01*
X232414490Y-188257234D01*
X231941536Y-188965061D01*
X231775456Y-189800000D01*
X231941536Y-190634939D01*
X232414490Y-191342766D01*
X233122317Y-191815720D01*
X233957256Y-191981800D01*
X234042744Y-191981800D01*
X234877683Y-191815720D01*
X235585510Y-191342766D01*
X236058464Y-190634939D01*
X236224544Y-189800000D01*
X236224544Y-196600000D01*
X236058464Y-195765061D01*
X235585510Y-195057234D01*
X234877683Y-194584280D01*
X234042744Y-194418200D01*
X233957256Y-194418200D01*
X233122317Y-194584280D01*
X232414490Y-195057234D01*
X231941536Y-195765061D01*
X231775456Y-196600000D01*
X231941536Y-197434939D01*
X232414490Y-198142766D01*
X233122317Y-198615720D01*
X233957256Y-198781800D01*
X234042744Y-198781800D01*
X234877683Y-198615720D01*
X235585510Y-198142766D01*
X236058464Y-197434939D01*
X236224544Y-196600000D01*
X236224544Y-204800000D01*
X236058464Y-203965061D01*
X235585510Y-203257234D01*
X234877683Y-202784280D01*
X234042744Y-202618200D01*
X233957256Y-202618200D01*
X233122317Y-202784280D01*
X232414490Y-203257234D01*
X231941536Y-203965061D01*
X231775456Y-204800000D01*
X231941536Y-205634939D01*
X232414490Y-206342766D01*
X232753073Y-206569000D01*
X231685000Y-206569000D01*
X231685000Y-202377000D01*
X231685000Y-201627000D01*
X231685000Y-201373000D01*
X231685000Y-200623000D01*
X231685000Y-187377000D01*
X231685000Y-186627000D01*
X231685000Y-186373000D01*
X231685000Y-185623000D01*
X231454852Y-184719967D01*
X230896647Y-183973747D01*
X230095367Y-183497946D01*
X229798003Y-183417573D01*
X229427000Y-183527375D01*
X229427000Y-186373000D01*
X231685000Y-186373000D01*
X231685000Y-186627000D01*
X229427000Y-186627000D01*
X229427000Y-189472625D01*
X229798003Y-189582427D01*
X230095367Y-189502054D01*
X230896647Y-189026253D01*
X231454852Y-188280033D01*
X231685000Y-187377000D01*
X231685000Y-200623000D01*
X231454852Y-199719967D01*
X230896647Y-198973747D01*
X230095367Y-198497946D01*
X229798003Y-198417573D01*
X229427000Y-198527375D01*
X229427000Y-201373000D01*
X231685000Y-201373000D01*
X231685000Y-201627000D01*
X229427000Y-201627000D01*
X229427000Y-204472625D01*
X229798003Y-204582427D01*
X230095367Y-204502054D01*
X230896647Y-204026253D01*
X231454852Y-203280033D01*
X231685000Y-202377000D01*
X231685000Y-206569000D01*
X229173000Y-206569000D01*
X229173000Y-204472625D01*
X229173000Y-201627000D01*
X229173000Y-201373000D01*
X229173000Y-198527375D01*
X229173000Y-189472625D01*
X229173000Y-186627000D01*
X229173000Y-186373000D01*
X229173000Y-183527375D01*
X228801997Y-183417573D01*
X228504633Y-183497946D01*
X227703353Y-183973747D01*
X227145148Y-184719967D01*
X226915000Y-185623000D01*
X226915000Y-186373000D01*
X229173000Y-186373000D01*
X229173000Y-186627000D01*
X226915000Y-186627000D01*
X226915000Y-187377000D01*
X227145148Y-188280033D01*
X227703353Y-189026253D01*
X228504633Y-189502054D01*
X228801997Y-189582427D01*
X229173000Y-189472625D01*
X229173000Y-198527375D01*
X228801997Y-198417573D01*
X228504633Y-198497946D01*
X227703353Y-198973747D01*
X227145148Y-199719967D01*
X226915000Y-200623000D01*
X226915000Y-201373000D01*
X229173000Y-201373000D01*
X229173000Y-201627000D01*
X226915000Y-201627000D01*
X226915000Y-202377000D01*
X227145148Y-203280033D01*
X227703353Y-204026253D01*
X228504633Y-204502054D01*
X228801997Y-204582427D01*
X229173000Y-204472625D01*
X229173000Y-206569000D01*
X225645401Y-206569000D01*
X225645401Y-170614418D01*
X225621341Y-169964623D01*
X225418965Y-169476042D01*
X225152163Y-169377443D01*
X224179605Y-170350000D01*
X225152163Y-171322557D01*
X225418965Y-171223958D01*
X225645401Y-170614418D01*
X225645401Y-206569000D01*
X225431538Y-206569000D01*
X225431538Y-175146548D01*
X225214096Y-174620298D01*
X224811819Y-174217319D01*
X224674090Y-174160129D01*
X224809702Y-174104096D01*
X225212681Y-173701819D01*
X225431041Y-173175950D01*
X225431538Y-172606548D01*
X225214096Y-172080298D01*
X224881887Y-171747509D01*
X224972557Y-171502163D01*
X224000000Y-170529605D01*
X223820395Y-170709210D01*
X223820395Y-170350000D01*
X222847837Y-169377443D01*
X222581035Y-169476042D01*
X222354599Y-170085582D01*
X222378659Y-170735377D01*
X222581035Y-171223958D01*
X222847837Y-171322557D01*
X223820395Y-170350000D01*
X223820395Y-170709210D01*
X223027443Y-171502163D01*
X223118235Y-171747841D01*
X222787319Y-172078181D01*
X222568959Y-172604050D01*
X222568462Y-173173452D01*
X222785904Y-173699702D01*
X223188181Y-174102681D01*
X223325909Y-174159870D01*
X223190298Y-174215904D01*
X222787319Y-174618181D01*
X222568959Y-175144050D01*
X222568462Y-175713452D01*
X222785904Y-176239702D01*
X223084391Y-176538710D01*
X222914620Y-176538710D01*
X222755915Y-176604447D01*
X222634448Y-176725915D01*
X222568710Y-176884619D01*
X222568710Y-177056400D01*
X222568710Y-179055380D01*
X222634447Y-179214085D01*
X222755915Y-179335552D01*
X222914619Y-179401290D01*
X223086400Y-179401290D01*
X225085380Y-179401290D01*
X225244085Y-179335553D01*
X225365552Y-179214085D01*
X225431290Y-179055381D01*
X225431290Y-178883600D01*
X225431290Y-176884620D01*
X225365553Y-176725915D01*
X225244085Y-176604448D01*
X225085381Y-176538710D01*
X224915271Y-176538710D01*
X225212681Y-176241819D01*
X225431041Y-175715950D01*
X225431538Y-175146548D01*
X225431538Y-206569000D01*
X219335000Y-206569000D01*
X219335000Y-202377000D01*
X219335000Y-201627000D01*
X219335000Y-201373000D01*
X219335000Y-200623000D01*
X219335000Y-187377000D01*
X219335000Y-186627000D01*
X219335000Y-186373000D01*
X219335000Y-185623000D01*
X219335000Y-172377000D01*
X219335000Y-171627000D01*
X219335000Y-171373000D01*
X219335000Y-170623000D01*
X219161942Y-170006980D01*
X218766317Y-169504078D01*
X218208355Y-169190856D01*
X218080434Y-169159876D01*
X217827000Y-169279223D01*
X217827000Y-171373000D01*
X219335000Y-171373000D01*
X219335000Y-171627000D01*
X217827000Y-171627000D01*
X217827000Y-173720777D01*
X218080434Y-173840124D01*
X218208355Y-173809144D01*
X218766317Y-173495922D01*
X219161942Y-172993020D01*
X219335000Y-172377000D01*
X219335000Y-185623000D01*
X219161942Y-185006980D01*
X218766317Y-184504078D01*
X218208355Y-184190856D01*
X218080434Y-184159876D01*
X217827000Y-184279223D01*
X217827000Y-186373000D01*
X219335000Y-186373000D01*
X219335000Y-186627000D01*
X217827000Y-186627000D01*
X217827000Y-188720777D01*
X218080434Y-188840124D01*
X218208355Y-188809144D01*
X218766317Y-188495922D01*
X219161942Y-187993020D01*
X219335000Y-187377000D01*
X219335000Y-200623000D01*
X219161942Y-200006980D01*
X218766317Y-199504078D01*
X218208355Y-199190856D01*
X218080434Y-199159876D01*
X217827000Y-199279223D01*
X217827000Y-201373000D01*
X219335000Y-201373000D01*
X219335000Y-201627000D01*
X217827000Y-201627000D01*
X217827000Y-203720777D01*
X218080434Y-203840124D01*
X218208355Y-203809144D01*
X218766317Y-203495922D01*
X219161942Y-202993020D01*
X219335000Y-202377000D01*
X219335000Y-206569000D01*
X217573000Y-206569000D01*
X217573000Y-203720777D01*
X217573000Y-201627000D01*
X217573000Y-201373000D01*
X217573000Y-199279223D01*
X217573000Y-188720777D01*
X217573000Y-186627000D01*
X217573000Y-186373000D01*
X217573000Y-184279223D01*
X217573000Y-173720777D01*
X217573000Y-171627000D01*
X217573000Y-171373000D01*
X217573000Y-169279223D01*
X217319566Y-169159876D01*
X217191645Y-169190856D01*
X216807027Y-169406768D01*
X216807027Y-159241202D01*
X216608497Y-158760724D01*
X216241209Y-158392795D01*
X215761079Y-158193427D01*
X215241202Y-158192973D01*
X214760724Y-158391503D01*
X214392795Y-158758791D01*
X214249894Y-159102931D01*
X214108497Y-158760724D01*
X213741209Y-158392795D01*
X213261079Y-158193427D01*
X212741202Y-158192973D01*
X212260724Y-158391503D01*
X211892795Y-158758791D01*
X211866334Y-158822515D01*
X211815953Y-158700884D01*
X211562060Y-158617545D01*
X211382455Y-158797150D01*
X211382455Y-158437940D01*
X211299116Y-158184047D01*
X210734694Y-157978410D01*
X210134542Y-158004421D01*
X209881800Y-158109109D01*
X209881800Y-152542744D01*
X209881800Y-151457256D01*
X209753781Y-150813659D01*
X209389212Y-150268044D01*
X208843597Y-149903475D01*
X208200000Y-149775456D01*
X207556403Y-149903475D01*
X207010788Y-150268044D01*
X206646219Y-150813659D01*
X206518200Y-151457256D01*
X206518200Y-152542744D01*
X206646219Y-153186341D01*
X207010788Y-153731956D01*
X207556403Y-154096525D01*
X208200000Y-154224544D01*
X208843597Y-154096525D01*
X209389212Y-153731956D01*
X209753781Y-153186341D01*
X209881800Y-152542744D01*
X209881800Y-158109109D01*
X209700884Y-158184047D01*
X209617545Y-158437940D01*
X210500000Y-159320395D01*
X211382455Y-158437940D01*
X211382455Y-158797150D01*
X210679605Y-159500000D01*
X211562060Y-160382455D01*
X211815953Y-160299116D01*
X211862940Y-160170148D01*
X211891503Y-160239276D01*
X212258791Y-160607205D01*
X212738921Y-160806573D01*
X213258798Y-160807027D01*
X213739276Y-160608497D01*
X214107205Y-160241209D01*
X214250105Y-159897068D01*
X214391503Y-160239276D01*
X214758791Y-160607205D01*
X215238921Y-160806573D01*
X215758798Y-160807027D01*
X216239276Y-160608497D01*
X216607205Y-160241209D01*
X216806573Y-159761079D01*
X216807027Y-159241202D01*
X216807027Y-169406768D01*
X216633683Y-169504078D01*
X216238058Y-170006980D01*
X216065000Y-170623000D01*
X216065000Y-171373000D01*
X217573000Y-171373000D01*
X217573000Y-171627000D01*
X216065000Y-171627000D01*
X216065000Y-172377000D01*
X216238058Y-172993020D01*
X216633683Y-173495922D01*
X217191645Y-173809144D01*
X217319566Y-173840124D01*
X217573000Y-173720777D01*
X217573000Y-184279223D01*
X217319566Y-184159876D01*
X217191645Y-184190856D01*
X216633683Y-184504078D01*
X216238058Y-185006980D01*
X216065000Y-185623000D01*
X216065000Y-186373000D01*
X217573000Y-186373000D01*
X217573000Y-186627000D01*
X216065000Y-186627000D01*
X216065000Y-187377000D01*
X216238058Y-187993020D01*
X216633683Y-188495922D01*
X217191645Y-188809144D01*
X217319566Y-188840124D01*
X217573000Y-188720777D01*
X217573000Y-199279223D01*
X217319566Y-199159876D01*
X217191645Y-199190856D01*
X216633683Y-199504078D01*
X216238058Y-200006980D01*
X216065000Y-200623000D01*
X216065000Y-201373000D01*
X217573000Y-201373000D01*
X217573000Y-201627000D01*
X216065000Y-201627000D01*
X216065000Y-202377000D01*
X216238058Y-202993020D01*
X216633683Y-203495922D01*
X217191645Y-203809144D01*
X217319566Y-203840124D01*
X217573000Y-203720777D01*
X217573000Y-206569000D01*
X214246926Y-206569000D01*
X214585510Y-206342766D01*
X215058464Y-205634939D01*
X215224544Y-204800000D01*
X215224544Y-196600000D01*
X215224544Y-189800000D01*
X215224544Y-181600000D01*
X215224544Y-174800000D01*
X215224544Y-166600000D01*
X215058464Y-165765061D01*
X214585510Y-165057234D01*
X213877683Y-164584280D01*
X213042744Y-164418200D01*
X212957256Y-164418200D01*
X212122317Y-164584280D01*
X211414490Y-165057234D01*
X211382455Y-165105177D01*
X211382455Y-160562060D01*
X210500000Y-159679605D01*
X210320395Y-159859210D01*
X210320395Y-159500000D01*
X209437940Y-158617545D01*
X209184047Y-158700884D01*
X208978410Y-159265306D01*
X209004421Y-159865458D01*
X209184047Y-160299116D01*
X209437940Y-160382455D01*
X210320395Y-159500000D01*
X210320395Y-159859210D01*
X209617545Y-160562060D01*
X209700884Y-160815953D01*
X210265306Y-161021590D01*
X210865458Y-160995579D01*
X211299116Y-160815953D01*
X211382455Y-160562060D01*
X211382455Y-165105177D01*
X210941536Y-165765061D01*
X210775456Y-166600000D01*
X210941536Y-167434939D01*
X211414490Y-168142766D01*
X212122317Y-168615720D01*
X212957256Y-168781800D01*
X213042744Y-168781800D01*
X213877683Y-168615720D01*
X214585510Y-168142766D01*
X215058464Y-167434939D01*
X215224544Y-166600000D01*
X215224544Y-174800000D01*
X215058464Y-173965061D01*
X214585510Y-173257234D01*
X213877683Y-172784280D01*
X213042744Y-172618200D01*
X212957256Y-172618200D01*
X212122317Y-172784280D01*
X211414490Y-173257234D01*
X210941536Y-173965061D01*
X210775456Y-174800000D01*
X210941536Y-175634939D01*
X211414490Y-176342766D01*
X212122317Y-176815720D01*
X212957256Y-176981800D01*
X213042744Y-176981800D01*
X213877683Y-176815720D01*
X214585510Y-176342766D01*
X215058464Y-175634939D01*
X215224544Y-174800000D01*
X215224544Y-181600000D01*
X215058464Y-180765061D01*
X214585510Y-180057234D01*
X213877683Y-179584280D01*
X213042744Y-179418200D01*
X212957256Y-179418200D01*
X212122317Y-179584280D01*
X211414490Y-180057234D01*
X210941536Y-180765061D01*
X210775456Y-181600000D01*
X210941536Y-182434939D01*
X211414490Y-183142766D01*
X212122317Y-183615720D01*
X212957256Y-183781800D01*
X213042744Y-183781800D01*
X213877683Y-183615720D01*
X214585510Y-183142766D01*
X215058464Y-182434939D01*
X215224544Y-181600000D01*
X215224544Y-189800000D01*
X215058464Y-188965061D01*
X214585510Y-188257234D01*
X213877683Y-187784280D01*
X213042744Y-187618200D01*
X212957256Y-187618200D01*
X212122317Y-187784280D01*
X211414490Y-188257234D01*
X210941536Y-188965061D01*
X210775456Y-189800000D01*
X210941536Y-190634939D01*
X211414490Y-191342766D01*
X212122317Y-191815720D01*
X212957256Y-191981800D01*
X213042744Y-191981800D01*
X213877683Y-191815720D01*
X214585510Y-191342766D01*
X215058464Y-190634939D01*
X215224544Y-189800000D01*
X215224544Y-196600000D01*
X215058464Y-195765061D01*
X214585510Y-195057234D01*
X213877683Y-194584280D01*
X213042744Y-194418200D01*
X212957256Y-194418200D01*
X212122317Y-194584280D01*
X211414490Y-195057234D01*
X210941536Y-195765061D01*
X210775456Y-196600000D01*
X210941536Y-197434939D01*
X211414490Y-198142766D01*
X212122317Y-198615720D01*
X212957256Y-198781800D01*
X213042744Y-198781800D01*
X213877683Y-198615720D01*
X214585510Y-198142766D01*
X215058464Y-197434939D01*
X215224544Y-196600000D01*
X215224544Y-204800000D01*
X215058464Y-203965061D01*
X214585510Y-203257234D01*
X213877683Y-202784280D01*
X213042744Y-202618200D01*
X212957256Y-202618200D01*
X212122317Y-202784280D01*
X211414490Y-203257234D01*
X210941536Y-203965061D01*
X210775456Y-204800000D01*
X210941536Y-205634939D01*
X211414490Y-206342766D01*
X211753073Y-206569000D01*
X210685000Y-206569000D01*
X210685000Y-202377000D01*
X210685000Y-201627000D01*
X210685000Y-201373000D01*
X210685000Y-200623000D01*
X210685000Y-187377000D01*
X210685000Y-186627000D01*
X210685000Y-186373000D01*
X210685000Y-185623000D01*
X210685000Y-172377000D01*
X210685000Y-171627000D01*
X210685000Y-171373000D01*
X210685000Y-170623000D01*
X210454852Y-169719967D01*
X209896647Y-168973747D01*
X209095367Y-168497946D01*
X208798003Y-168417573D01*
X208427000Y-168527375D01*
X208427000Y-171373000D01*
X210685000Y-171373000D01*
X210685000Y-171627000D01*
X208427000Y-171627000D01*
X208427000Y-174472625D01*
X208798003Y-174582427D01*
X209095367Y-174502054D01*
X209896647Y-174026253D01*
X210454852Y-173280033D01*
X210685000Y-172377000D01*
X210685000Y-185623000D01*
X210454852Y-184719967D01*
X209896647Y-183973747D01*
X209095367Y-183497946D01*
X208798003Y-183417573D01*
X208427000Y-183527375D01*
X208427000Y-186373000D01*
X210685000Y-186373000D01*
X210685000Y-186627000D01*
X208427000Y-186627000D01*
X208427000Y-189472625D01*
X208798003Y-189582427D01*
X209095367Y-189502054D01*
X209896647Y-189026253D01*
X210454852Y-188280033D01*
X210685000Y-187377000D01*
X210685000Y-200623000D01*
X210454852Y-199719967D01*
X209896647Y-198973747D01*
X209095367Y-198497946D01*
X208798003Y-198417573D01*
X208427000Y-198527375D01*
X208427000Y-201373000D01*
X210685000Y-201373000D01*
X210685000Y-201627000D01*
X208427000Y-201627000D01*
X208427000Y-204472625D01*
X208798003Y-204582427D01*
X209095367Y-204502054D01*
X209896647Y-204026253D01*
X210454852Y-203280033D01*
X210685000Y-202377000D01*
X210685000Y-206569000D01*
X208173000Y-206569000D01*
X208173000Y-204472625D01*
X208173000Y-201627000D01*
X208173000Y-201373000D01*
X208173000Y-198527375D01*
X208173000Y-189472625D01*
X208173000Y-186627000D01*
X208173000Y-186373000D01*
X208173000Y-183527375D01*
X208173000Y-174472625D01*
X208173000Y-171627000D01*
X208173000Y-171373000D01*
X208173000Y-168527375D01*
X207801997Y-168417573D01*
X207504633Y-168497946D01*
X206703353Y-168973747D01*
X206145148Y-169719967D01*
X205915000Y-170623000D01*
X205915000Y-171373000D01*
X208173000Y-171373000D01*
X208173000Y-171627000D01*
X205915000Y-171627000D01*
X205915000Y-172377000D01*
X206145148Y-173280033D01*
X206703353Y-174026253D01*
X207504633Y-174502054D01*
X207801997Y-174582427D01*
X208173000Y-174472625D01*
X208173000Y-183527375D01*
X207801997Y-183417573D01*
X207504633Y-183497946D01*
X206703353Y-183973747D01*
X206145148Y-184719967D01*
X205915000Y-185623000D01*
X205915000Y-186373000D01*
X208173000Y-186373000D01*
X208173000Y-186627000D01*
X205915000Y-186627000D01*
X205915000Y-187377000D01*
X206145148Y-188280033D01*
X206703353Y-189026253D01*
X207504633Y-189502054D01*
X207801997Y-189582427D01*
X208173000Y-189472625D01*
X208173000Y-198527375D01*
X207801997Y-198417573D01*
X207504633Y-198497946D01*
X206703353Y-198973747D01*
X206145148Y-199719967D01*
X205915000Y-200623000D01*
X205915000Y-201373000D01*
X208173000Y-201373000D01*
X208173000Y-201627000D01*
X205915000Y-201627000D01*
X205915000Y-202377000D01*
X206145148Y-203280033D01*
X206703353Y-204026253D01*
X207504633Y-204502054D01*
X207801997Y-204582427D01*
X208173000Y-204472625D01*
X208173000Y-206569000D01*
X204431000Y-206569000D01*
X204431000Y-107431000D01*
X242569000Y-107431000D01*
X242569000Y-206569000D01*
X242569000Y-206569000D01*
G37*
X242569000Y-206569000D02*
X241582800Y-206569000D01*
X241582800Y-123284391D01*
X241582800Y-123112610D01*
X241582800Y-121715610D01*
X241517063Y-121556905D01*
X241395595Y-121435438D01*
X241236891Y-121369700D01*
X241189100Y-121369700D01*
X241189100Y-121318600D01*
X241142697Y-121085316D01*
X241010552Y-120887548D01*
X241010552Y-120887547D01*
X240481800Y-120358795D01*
X240481800Y-112542744D01*
X240481800Y-111457256D01*
X240353781Y-110813659D01*
X239989212Y-110268044D01*
X239443597Y-109903475D01*
X238800000Y-109775456D01*
X238156403Y-109903475D01*
X237610788Y-110268044D01*
X237246219Y-110813659D01*
X237118200Y-111457256D01*
X237118200Y-112542744D01*
X237246219Y-113186341D01*
X237610788Y-113731956D01*
X238156403Y-114096525D01*
X238800000Y-114224544D01*
X239443597Y-114096525D01*
X239989212Y-113731956D01*
X240353781Y-113186341D01*
X240481800Y-112542744D01*
X240481800Y-120358795D01*
X237813652Y-117690648D01*
X237615884Y-117558503D01*
X237382600Y-117512100D01*
X230881800Y-117512100D01*
X230881800Y-112542744D01*
X230881800Y-111457256D01*
X230753781Y-110813659D01*
X230389212Y-110268044D01*
X229843597Y-109903475D01*
X229200000Y-109775456D01*
X228556403Y-109903475D01*
X228010788Y-110268044D01*
X227646219Y-110813659D01*
X227518200Y-111457256D01*
X227518200Y-112542744D01*
X227646219Y-113186341D01*
X228010788Y-113731956D01*
X228556403Y-114096525D01*
X229200000Y-114224544D01*
X229843597Y-114096525D01*
X230389212Y-113731956D01*
X230753781Y-113186341D01*
X230881800Y-112542744D01*
X230881800Y-117512100D01*
X228774500Y-117512100D01*
X228774500Y-115347800D01*
X228728097Y-115114516D01*
X228595952Y-114916748D01*
X225303648Y-111624444D01*
X225444595Y-111566063D01*
X225566062Y-111444595D01*
X225631800Y-111285891D01*
X225631800Y-111114110D01*
X225631800Y-109714110D01*
X225566063Y-109555405D01*
X225444595Y-109433938D01*
X225285891Y-109368200D01*
X225114110Y-109368200D01*
X223714110Y-109368200D01*
X223555405Y-109433937D01*
X223455393Y-109533949D01*
X223370918Y-109449474D01*
X223255668Y-109564723D01*
X223193831Y-109328958D01*
X222692878Y-109152581D01*
X222162560Y-109181336D01*
X221806169Y-109328958D01*
X221744331Y-109564725D01*
X222500000Y-110320395D01*
X222514142Y-110306252D01*
X222693747Y-110485857D01*
X222679605Y-110500000D01*
X222693747Y-110514142D01*
X222514142Y-110693747D01*
X222500000Y-110679605D01*
X222320395Y-110859210D01*
X222320395Y-110500000D01*
X221564725Y-109744331D01*
X221328958Y-109806169D01*
X221152581Y-110307122D01*
X221181336Y-110837440D01*
X221328958Y-111193831D01*
X221564725Y-111255669D01*
X222320395Y-110500000D01*
X222320395Y-110859210D01*
X221744331Y-111435275D01*
X221806169Y-111671042D01*
X222307122Y-111847419D01*
X222837440Y-111818664D01*
X223193831Y-111671042D01*
X223255668Y-111435276D01*
X223255669Y-111435277D01*
X223370918Y-111550526D01*
X223455393Y-111466050D01*
X223555405Y-111566062D01*
X223714109Y-111631800D01*
X223885890Y-111631800D01*
X223890400Y-111631800D01*
X223890400Y-111682900D01*
X223936803Y-111916184D01*
X224068948Y-112113952D01*
X226006162Y-114051166D01*
X225855381Y-113988710D01*
X225683600Y-113988710D01*
X223684620Y-113988710D01*
X223525915Y-114054447D01*
X223404448Y-114175915D01*
X223338710Y-114334619D01*
X223338710Y-114504728D01*
X223255669Y-114421542D01*
X223041819Y-114207319D01*
X222515950Y-113988959D01*
X221946548Y-113988462D01*
X221420298Y-114205904D01*
X221017319Y-114608181D01*
X220798959Y-115134050D01*
X220798462Y-115703452D01*
X221015904Y-116229702D01*
X221348112Y-116562490D01*
X221257443Y-116807837D01*
X222230000Y-117780395D01*
X223202557Y-116807837D01*
X223111764Y-116562158D01*
X223338710Y-116335608D01*
X223338710Y-116505380D01*
X223404447Y-116664085D01*
X223525915Y-116785552D01*
X223572052Y-116804663D01*
X223503554Y-116873162D01*
X223617835Y-116987443D01*
X223500000Y-117030990D01*
X223382163Y-116987443D01*
X222409605Y-117960000D01*
X223382163Y-118932557D01*
X223500000Y-118889009D01*
X223617837Y-118932557D01*
X224590395Y-117960000D01*
X224576252Y-117945857D01*
X224755857Y-117766252D01*
X224770000Y-117780395D01*
X224784142Y-117766252D01*
X224963747Y-117945857D01*
X224949605Y-117960000D01*
X225922163Y-118932557D01*
X226188965Y-118833958D01*
X226415401Y-118224418D01*
X226391341Y-117574623D01*
X226188965Y-117086042D01*
X225922164Y-116987443D01*
X226036446Y-116873162D01*
X225967947Y-116804663D01*
X226014085Y-116785553D01*
X226135552Y-116664085D01*
X226201290Y-116505381D01*
X226201290Y-116333600D01*
X226201290Y-114334620D01*
X226138835Y-114183839D01*
X227555300Y-115600304D01*
X227555300Y-118121700D01*
X227555300Y-121932595D01*
X226415401Y-123072494D01*
X226415401Y-120764418D01*
X226391341Y-120114623D01*
X226188965Y-119626042D01*
X225922163Y-119527443D01*
X225742557Y-119707048D01*
X225742557Y-119347837D01*
X225699009Y-119230000D01*
X225742557Y-119112163D01*
X224770000Y-118139605D01*
X224590395Y-118319210D01*
X223797443Y-119112163D01*
X223840990Y-119230000D01*
X223797443Y-119347837D01*
X224770000Y-120320395D01*
X225742557Y-119347837D01*
X225742557Y-119707048D01*
X224949605Y-120500000D01*
X225922163Y-121472557D01*
X226188965Y-121373958D01*
X226415401Y-120764418D01*
X226415401Y-123072494D01*
X226407120Y-123080775D01*
X226391341Y-122654623D01*
X226188965Y-122166042D01*
X225922163Y-122067443D01*
X225742557Y-122247048D01*
X225742557Y-121887837D01*
X225699009Y-121770000D01*
X225742557Y-121652163D01*
X224770000Y-120679605D01*
X224590395Y-120859210D01*
X224590395Y-120500000D01*
X223617837Y-119527443D01*
X223500000Y-119570990D01*
X223382163Y-119527443D01*
X223202557Y-119707048D01*
X223202557Y-119347837D01*
X223159009Y-119230000D01*
X223202557Y-119112163D01*
X222230000Y-118139605D01*
X222050395Y-118319210D01*
X222050395Y-117960000D01*
X221077837Y-116987443D01*
X220811035Y-117086042D01*
X220584599Y-117695582D01*
X220608659Y-118345377D01*
X220811035Y-118833958D01*
X221077837Y-118932557D01*
X222050395Y-117960000D01*
X222050395Y-118319210D01*
X221257443Y-119112163D01*
X221300990Y-119230000D01*
X221257443Y-119347837D01*
X222230000Y-120320395D01*
X223202557Y-119347837D01*
X223202557Y-119707048D01*
X222409605Y-120500000D01*
X223382163Y-121472557D01*
X223500000Y-121429009D01*
X223617837Y-121472557D01*
X224590395Y-120500000D01*
X224590395Y-120859210D01*
X223797443Y-121652163D01*
X223840990Y-121770000D01*
X223797443Y-121887837D01*
X224770000Y-122860395D01*
X225742557Y-121887837D01*
X225742557Y-122247048D01*
X224949605Y-123040000D01*
X224963747Y-123054142D01*
X224784142Y-123233747D01*
X224770000Y-123219605D01*
X224590395Y-123399210D01*
X224590395Y-123040000D01*
X223617837Y-122067443D01*
X223500000Y-122110990D01*
X223382163Y-122067443D01*
X223202557Y-122247048D01*
X223202557Y-121887837D01*
X223159009Y-121770000D01*
X223202557Y-121652163D01*
X222230000Y-120679605D01*
X222050395Y-120859210D01*
X222050395Y-120500000D01*
X221077837Y-119527443D01*
X220811035Y-119626042D01*
X220584599Y-120235582D01*
X220608659Y-120885377D01*
X220811035Y-121373958D01*
X221077837Y-121472557D01*
X222050395Y-120500000D01*
X222050395Y-120859210D01*
X221257443Y-121652163D01*
X221300990Y-121770000D01*
X221257443Y-121887837D01*
X222230000Y-122860395D01*
X223202557Y-121887837D01*
X223202557Y-122247048D01*
X222409605Y-123040000D01*
X223382163Y-124012557D01*
X223500000Y-123969009D01*
X223617837Y-124012557D01*
X224590395Y-123040000D01*
X224590395Y-123399210D01*
X223797443Y-124192163D01*
X223888235Y-124437841D01*
X223557319Y-124768181D01*
X223500129Y-124905909D01*
X223444096Y-124770298D01*
X223111887Y-124437509D01*
X223202557Y-124192163D01*
X222230000Y-123219605D01*
X222215857Y-123233747D01*
X222036252Y-123054142D01*
X222050395Y-123040000D01*
X221077837Y-122067443D01*
X220811035Y-122166042D01*
X220584599Y-122775582D01*
X220608659Y-123425377D01*
X220741083Y-123745079D01*
X219481800Y-122485796D01*
X219481800Y-112542744D01*
X219481800Y-111457256D01*
X219353781Y-110813659D01*
X218989212Y-110268044D01*
X218443597Y-109903475D01*
X217800000Y-109775456D01*
X217156403Y-109903475D01*
X216610788Y-110268044D01*
X216246219Y-110813659D01*
X216118200Y-111457256D01*
X216118200Y-112542744D01*
X216246219Y-113186341D01*
X216610788Y-113731956D01*
X217156403Y-114096525D01*
X217800000Y-114224544D01*
X218443597Y-114096525D01*
X218989212Y-113731956D01*
X219353781Y-113186341D01*
X219481800Y-112542744D01*
X219481800Y-122485796D01*
X219064952Y-122068948D01*
X218867184Y-121936803D01*
X218633900Y-121890400D01*
X218582800Y-121890400D01*
X218582800Y-121715610D01*
X218517063Y-121556905D01*
X218395595Y-121435438D01*
X218236891Y-121369700D01*
X218065110Y-121369700D01*
X216922110Y-121369700D01*
X216763405Y-121435437D01*
X216641938Y-121556905D01*
X216576200Y-121715609D01*
X216576200Y-121887390D01*
X216576200Y-123284390D01*
X216641937Y-123443095D01*
X216763405Y-123564562D01*
X216922109Y-123630300D01*
X217093890Y-123630300D01*
X218236890Y-123630300D01*
X218395595Y-123564563D01*
X218517062Y-123443095D01*
X218575005Y-123303209D01*
X220798755Y-125526959D01*
X220798462Y-125863452D01*
X221015904Y-126389702D01*
X221418181Y-126792681D01*
X221944050Y-127011041D01*
X222513452Y-127011538D01*
X223039702Y-126794096D01*
X223442681Y-126391819D01*
X223499870Y-126254090D01*
X223555904Y-126389702D01*
X223958181Y-126792681D01*
X224484050Y-127011041D01*
X225053452Y-127011538D01*
X225579702Y-126794096D01*
X225982681Y-126391819D01*
X226201041Y-125865950D01*
X226201538Y-125296548D01*
X226117922Y-125094182D01*
X228595952Y-122616152D01*
X228595953Y-122616152D01*
X228675167Y-122497598D01*
X228728097Y-122418384D01*
X228728097Y-122418383D01*
X228774500Y-122185100D01*
X228774500Y-118731300D01*
X230172965Y-118731300D01*
X229978410Y-119265306D01*
X230004421Y-119865458D01*
X230184047Y-120299116D01*
X230437940Y-120382455D01*
X231320395Y-119500000D01*
X231306252Y-119485857D01*
X231485857Y-119306252D01*
X231500000Y-119320395D01*
X231514142Y-119306252D01*
X231693747Y-119485857D01*
X231679605Y-119500000D01*
X231693747Y-119514142D01*
X231514142Y-119693747D01*
X231500000Y-119679605D01*
X230617545Y-120562060D01*
X230700884Y-120815953D01*
X231265306Y-121021590D01*
X231632206Y-121005688D01*
X226054948Y-126582948D01*
X225922803Y-126780716D01*
X225876400Y-127014000D01*
X225876400Y-129378995D01*
X225407852Y-128910448D01*
X225210084Y-128778303D01*
X224976800Y-128731900D01*
X219044004Y-128731900D01*
X213609600Y-123297496D01*
X213609600Y-120662078D01*
X213739276Y-120608497D01*
X214107205Y-120241209D01*
X214250105Y-119897068D01*
X214391503Y-120239276D01*
X214758791Y-120607205D01*
X214836300Y-120639389D01*
X214836300Y-121369700D01*
X214763110Y-121369700D01*
X214604405Y-121435437D01*
X214482938Y-121556905D01*
X214417200Y-121715609D01*
X214417200Y-121887390D01*
X214417200Y-123284390D01*
X214482937Y-123443095D01*
X214604405Y-123564562D01*
X214763109Y-123630300D01*
X214934890Y-123630300D01*
X216077890Y-123630300D01*
X216236595Y-123564563D01*
X216358062Y-123443095D01*
X216423800Y-123284391D01*
X216423800Y-123112610D01*
X216423800Y-121715610D01*
X216358063Y-121556905D01*
X216236595Y-121435438D01*
X216077891Y-121369700D01*
X216004700Y-121369700D01*
X216004700Y-120705422D01*
X216239276Y-120608497D01*
X216607205Y-120241209D01*
X216806573Y-119761079D01*
X216807027Y-119241202D01*
X216608497Y-118760724D01*
X216241209Y-118392795D01*
X215761079Y-118193427D01*
X215241202Y-118192973D01*
X214760724Y-118391503D01*
X214392795Y-118758791D01*
X214249894Y-119102931D01*
X214108497Y-118760724D01*
X213741209Y-118392795D01*
X213261079Y-118193427D01*
X212741202Y-118192973D01*
X212260724Y-118391503D01*
X211892795Y-118758791D01*
X211866334Y-118822515D01*
X211815953Y-118700884D01*
X211562060Y-118617545D01*
X211382455Y-118797150D01*
X211382455Y-118437940D01*
X211299116Y-118184047D01*
X210734694Y-117978410D01*
X210134542Y-118004421D01*
X209881800Y-118109109D01*
X209881800Y-112542744D01*
X209881800Y-111457256D01*
X209753781Y-110813659D01*
X209389212Y-110268044D01*
X208843597Y-109903475D01*
X208200000Y-109775456D01*
X207556403Y-109903475D01*
X207010788Y-110268044D01*
X206646219Y-110813659D01*
X206518200Y-111457256D01*
X206518200Y-112542744D01*
X206646219Y-113186341D01*
X207010788Y-113731956D01*
X207556403Y-114096525D01*
X208200000Y-114224544D01*
X208843597Y-114096525D01*
X209389212Y-113731956D01*
X209753781Y-113186341D01*
X209881800Y-112542744D01*
X209881800Y-118109109D01*
X209700884Y-118184047D01*
X209617545Y-118437940D01*
X210500000Y-119320395D01*
X211382455Y-118437940D01*
X211382455Y-118797150D01*
X210679605Y-119500000D01*
X211562060Y-120382455D01*
X211815953Y-120299116D01*
X211862940Y-120170148D01*
X211891503Y-120239276D01*
X212258791Y-120607205D01*
X212390400Y-120661853D01*
X212390400Y-123550000D01*
X212436803Y-123783284D01*
X212568948Y-123981052D01*
X218360448Y-129772552D01*
X218558216Y-129904697D01*
X218791500Y-129951100D01*
X222074751Y-129951100D01*
X221859725Y-130039947D01*
X221541066Y-130358050D01*
X221368397Y-130773883D01*
X221368004Y-131224141D01*
X221381380Y-131256515D01*
X219156895Y-133481000D01*
X219353781Y-133186341D01*
X219481800Y-132542744D01*
X219481800Y-131457256D01*
X219353781Y-130813659D01*
X218989212Y-130268044D01*
X218443597Y-129903475D01*
X217800000Y-129775456D01*
X217156403Y-129903475D01*
X216610788Y-130268044D01*
X216246219Y-130813659D01*
X216118200Y-131457256D01*
X216118200Y-132542744D01*
X216246219Y-133186341D01*
X216610788Y-133731956D01*
X217156403Y-134096525D01*
X217800000Y-134224544D01*
X218443597Y-134096525D01*
X218738256Y-133899639D01*
X216947496Y-135690400D01*
X211382455Y-135690400D01*
X211382455Y-120562060D01*
X210500000Y-119679605D01*
X210320395Y-119859210D01*
X210320395Y-119500000D01*
X209437940Y-118617545D01*
X209184047Y-118700884D01*
X208978410Y-119265306D01*
X209004421Y-119865458D01*
X209184047Y-120299116D01*
X209437940Y-120382455D01*
X210320395Y-119500000D01*
X210320395Y-119859210D01*
X209617545Y-120562060D01*
X209700884Y-120815953D01*
X210265306Y-121021590D01*
X210865458Y-120995579D01*
X211299116Y-120815953D01*
X211382455Y-120562060D01*
X211382455Y-135690400D01*
X210400000Y-135690400D01*
X210166716Y-135736803D01*
X209968948Y-135868948D01*
X209881800Y-135956096D01*
X209881800Y-132542744D01*
X209881800Y-131457256D01*
X209753781Y-130813659D01*
X209389212Y-130268044D01*
X208843597Y-129903475D01*
X208200000Y-129775456D01*
X207556403Y-129903475D01*
X207010788Y-130268044D01*
X206646219Y-130813659D01*
X206518200Y-131457256D01*
X206518200Y-132542744D01*
X206646219Y-133186341D01*
X207010788Y-133731956D01*
X207556403Y-134096525D01*
X208200000Y-134224544D01*
X208843597Y-134096525D01*
X209389212Y-133731956D01*
X209753781Y-133186341D01*
X209881800Y-132542744D01*
X209881800Y-135956096D01*
X208068948Y-137768948D01*
X207936803Y-137966716D01*
X207890400Y-138200000D01*
X207890400Y-146800000D01*
X207936803Y-147033284D01*
X208068948Y-147231052D01*
X221908309Y-161070413D01*
X221908309Y-166327909D01*
X221954712Y-166561193D01*
X222086857Y-166758961D01*
X222569458Y-167241563D01*
X222569459Y-167241563D01*
X222569461Y-167241565D01*
X222651988Y-167324092D01*
X222568959Y-167524050D01*
X222568462Y-168093452D01*
X222785904Y-168619702D01*
X223118112Y-168952490D01*
X223027443Y-169197837D01*
X224000000Y-170170395D01*
X224972557Y-169197837D01*
X224881764Y-168952158D01*
X225212681Y-168621819D01*
X225431041Y-168095950D01*
X225431538Y-167526548D01*
X225214096Y-167000298D01*
X224811819Y-166597319D01*
X224674090Y-166540129D01*
X224809702Y-166484096D01*
X225212681Y-166081819D01*
X225431041Y-165555950D01*
X225431538Y-164986548D01*
X225214096Y-164460298D01*
X224881887Y-164127509D01*
X224972557Y-163882163D01*
X224000000Y-162909605D01*
X223985857Y-162923747D01*
X223806252Y-162744142D01*
X223820395Y-162730000D01*
X223806252Y-162715857D01*
X223985857Y-162536252D01*
X224000000Y-162550395D01*
X224014142Y-162536252D01*
X224193747Y-162715857D01*
X224179605Y-162730000D01*
X225152163Y-163702557D01*
X225418965Y-163603958D01*
X225645401Y-162994418D01*
X225633984Y-162686088D01*
X226434100Y-163486204D01*
X226434100Y-173220300D01*
X226480503Y-173453584D01*
X226612648Y-173651352D01*
X232759448Y-179798152D01*
X232780841Y-179812446D01*
X232414490Y-180057234D01*
X231941536Y-180765061D01*
X231775456Y-181600000D01*
X231941536Y-182434939D01*
X232414490Y-183142766D01*
X233122317Y-183615720D01*
X233957256Y-183781800D01*
X234042744Y-183781800D01*
X234877683Y-183615720D01*
X235585510Y-183142766D01*
X236058464Y-182434939D01*
X236224544Y-181600000D01*
X236224544Y-174800000D01*
X236224544Y-166600000D01*
X236058464Y-165765061D01*
X235585510Y-165057234D01*
X234877683Y-164584280D01*
X234042744Y-164418200D01*
X233957256Y-164418200D01*
X233122317Y-164584280D01*
X232414490Y-165057234D01*
X232382455Y-165105177D01*
X232382455Y-160562060D01*
X231500000Y-159679605D01*
X231320395Y-159859210D01*
X231320395Y-159500000D01*
X230437940Y-158617545D01*
X230184047Y-158700884D01*
X229978410Y-159265306D01*
X230004421Y-159865458D01*
X230184047Y-160299116D01*
X230437940Y-160382455D01*
X231320395Y-159500000D01*
X231320395Y-159859210D01*
X230617545Y-160562060D01*
X230700884Y-160815953D01*
X231265306Y-161021590D01*
X231865458Y-160995579D01*
X232299116Y-160815953D01*
X232382455Y-160562060D01*
X232382455Y-165105177D01*
X231941536Y-165765061D01*
X231775456Y-166600000D01*
X231941536Y-167434939D01*
X232414490Y-168142766D01*
X233122317Y-168615720D01*
X233957256Y-168781800D01*
X234042744Y-168781800D01*
X234877683Y-168615720D01*
X235585510Y-168142766D01*
X236058464Y-167434939D01*
X236224544Y-166600000D01*
X236224544Y-174800000D01*
X236058464Y-173965061D01*
X235585510Y-173257234D01*
X234877683Y-172784280D01*
X234042744Y-172618200D01*
X233957256Y-172618200D01*
X233122317Y-172784280D01*
X232414490Y-173257234D01*
X231941536Y-173965061D01*
X231775456Y-174800000D01*
X231941536Y-175634939D01*
X232414490Y-176342766D01*
X233122317Y-176815720D01*
X233957256Y-176981800D01*
X234042744Y-176981800D01*
X234877683Y-176815720D01*
X235585510Y-176342766D01*
X236058464Y-175634939D01*
X236224544Y-174800000D01*
X236224544Y-181600000D01*
X236058464Y-180765061D01*
X235585510Y-180057234D01*
X234877683Y-179584280D01*
X234609600Y-179530954D01*
X234609600Y-179367100D01*
X234563197Y-179133816D01*
X234431052Y-178936048D01*
X234233284Y-178803903D01*
X234000000Y-178757500D01*
X233443004Y-178757500D01*
X231685000Y-176999496D01*
X229320504Y-174635000D01*
X229427002Y-174635000D01*
X229427002Y-174472625D01*
X229798003Y-174582427D01*
X230095367Y-174502054D01*
X230896647Y-174026253D01*
X231454852Y-173280033D01*
X231685000Y-172377000D01*
X231685000Y-171627000D01*
X231685000Y-171373000D01*
X231685000Y-170623000D01*
X231454852Y-169719967D01*
X230896647Y-168973747D01*
X230095367Y-168497946D01*
X229798003Y-168417573D01*
X229427000Y-168527375D01*
X229427000Y-171373000D01*
X231685000Y-171373000D01*
X231685000Y-171627000D01*
X229427000Y-171627000D01*
X229427000Y-171647000D01*
X229173000Y-171647000D01*
X229173000Y-171627000D01*
X229153000Y-171627000D01*
X229153000Y-171373000D01*
X229173000Y-171373000D01*
X229173000Y-168527375D01*
X228801997Y-168417573D01*
X228504633Y-168497946D01*
X227703353Y-168973747D01*
X227653300Y-169040658D01*
X227653300Y-163233700D01*
X227606897Y-163000416D01*
X227474752Y-162802648D01*
X225348011Y-160675907D01*
X225431041Y-160475950D01*
X225431538Y-159906548D01*
X225214096Y-159380298D01*
X224811819Y-158977319D01*
X224674090Y-158920129D01*
X224809702Y-158864096D01*
X225212681Y-158461819D01*
X225431041Y-157935950D01*
X225431538Y-157366548D01*
X225347922Y-157164181D01*
X225430541Y-157081563D01*
X227577462Y-154934642D01*
X227709607Y-154736874D01*
X227756010Y-154503590D01*
X227756010Y-153350654D01*
X228010788Y-153731956D01*
X228556403Y-154096525D01*
X229200000Y-154224544D01*
X229843597Y-154096525D01*
X230389212Y-153731956D01*
X230753781Y-153186341D01*
X230881800Y-152542744D01*
X230881800Y-151457256D01*
X230753781Y-150813659D01*
X230389212Y-150268044D01*
X229843597Y-149903475D01*
X229313743Y-149798080D01*
X234431052Y-144680772D01*
X234563197Y-144483004D01*
X234609600Y-144249720D01*
X234609600Y-140662078D01*
X234739276Y-140608497D01*
X235107205Y-140241209D01*
X235250105Y-139897068D01*
X235391503Y-140239276D01*
X235758791Y-140607205D01*
X236238921Y-140806573D01*
X236758798Y-140807027D01*
X237239276Y-140608497D01*
X237607205Y-140241209D01*
X237806573Y-139761079D01*
X237807027Y-139241202D01*
X237608497Y-138760724D01*
X237241209Y-138392795D01*
X236761079Y-138193427D01*
X236241202Y-138192973D01*
X235760724Y-138391503D01*
X235392795Y-138758791D01*
X235249894Y-139102931D01*
X235108497Y-138760724D01*
X234741209Y-138392795D01*
X234261079Y-138193427D01*
X233741202Y-138192973D01*
X233260724Y-138391503D01*
X232892795Y-138758791D01*
X232749894Y-139102931D01*
X232608497Y-138760724D01*
X232241209Y-138392795D01*
X231761079Y-138193427D01*
X231241202Y-138192973D01*
X230881800Y-138341475D01*
X230881800Y-132542744D01*
X230881800Y-131457256D01*
X230753781Y-130813659D01*
X230389212Y-130268044D01*
X229843597Y-129903475D01*
X229200000Y-129775456D01*
X228556403Y-129903475D01*
X228010788Y-130268044D01*
X227646219Y-130813659D01*
X227518200Y-131457256D01*
X227518200Y-132542744D01*
X227646219Y-133186341D01*
X228010788Y-133731956D01*
X228556403Y-134096525D01*
X229200000Y-134224544D01*
X229843597Y-134096525D01*
X230389212Y-133731956D01*
X230753781Y-133186341D01*
X230881800Y-132542744D01*
X230881800Y-138341475D01*
X230760724Y-138391503D01*
X230392795Y-138758791D01*
X230193427Y-139238921D01*
X230192973Y-139758798D01*
X230391503Y-140239276D01*
X230758791Y-140607205D01*
X231238921Y-140806573D01*
X231758798Y-140807027D01*
X232239276Y-140608497D01*
X232607205Y-140241209D01*
X232750105Y-139897068D01*
X232891503Y-140239276D01*
X233258791Y-140607205D01*
X233390400Y-140661853D01*
X233390400Y-143997216D01*
X227095600Y-150292016D01*
X227095600Y-127266504D01*
X233609339Y-120752765D01*
X233738921Y-120806573D01*
X234258798Y-120807027D01*
X234739276Y-120608497D01*
X235107205Y-120241209D01*
X235250105Y-119897068D01*
X235391503Y-120239276D01*
X235758791Y-120607205D01*
X236238921Y-120806573D01*
X236758798Y-120807027D01*
X236915920Y-120742104D01*
X237607833Y-121434017D01*
X237604405Y-121435437D01*
X237482938Y-121556905D01*
X237417200Y-121715609D01*
X237417200Y-121887390D01*
X237417200Y-123284390D01*
X237482937Y-123443095D01*
X237604405Y-123564562D01*
X237763109Y-123630300D01*
X237934890Y-123630300D01*
X239077890Y-123630300D01*
X239236595Y-123564563D01*
X239358062Y-123443095D01*
X239423800Y-123284391D01*
X239423800Y-123112610D01*
X239423800Y-121715610D01*
X239358063Y-121556905D01*
X239236595Y-121435438D01*
X239077891Y-121369700D01*
X238994595Y-121369700D01*
X238960230Y-121196937D01*
X238960230Y-121196936D01*
X238833592Y-121007408D01*
X237742226Y-119916042D01*
X237806573Y-119761079D01*
X237806881Y-119408085D01*
X239813487Y-121414692D01*
X239763405Y-121435437D01*
X239641938Y-121556905D01*
X239576200Y-121715609D01*
X239576200Y-121887390D01*
X239576200Y-123284390D01*
X239641937Y-123443095D01*
X239763405Y-123564562D01*
X239922109Y-123630300D01*
X240093890Y-123630300D01*
X241236890Y-123630300D01*
X241395595Y-123564563D01*
X241517062Y-123443095D01*
X241582800Y-123284391D01*
X241582800Y-206569000D01*
X240481800Y-206569000D01*
X240481800Y-152542744D01*
X240481800Y-151457256D01*
X240481800Y-132542744D01*
X240481800Y-131457256D01*
X240353781Y-130813659D01*
X239989212Y-130268044D01*
X239443597Y-129903475D01*
X238800000Y-129775456D01*
X238156403Y-129903475D01*
X237610788Y-130268044D01*
X237246219Y-130813659D01*
X237118200Y-131457256D01*
X237118200Y-132542744D01*
X237246219Y-133186341D01*
X237610788Y-133731956D01*
X238156403Y-134096525D01*
X238800000Y-134224544D01*
X239443597Y-134096525D01*
X239989212Y-133731956D01*
X240353781Y-133186341D01*
X240481800Y-132542744D01*
X240481800Y-151457256D01*
X240353781Y-150813659D01*
X239989212Y-150268044D01*
X239443597Y-149903475D01*
X238800000Y-149775456D01*
X238156403Y-149903475D01*
X237610788Y-150268044D01*
X237246219Y-150813659D01*
X237118200Y-151457256D01*
X237118200Y-152542744D01*
X237246219Y-153186341D01*
X237610788Y-153731956D01*
X238156403Y-154096525D01*
X238800000Y-154224544D01*
X239443597Y-154096525D01*
X239989212Y-153731956D01*
X240353781Y-153186341D01*
X240481800Y-152542744D01*
X240481800Y-206569000D01*
X240335000Y-206569000D01*
X240335000Y-202377000D01*
X240335000Y-201627000D01*
X240335000Y-201373000D01*
X240335000Y-200623000D01*
X240335000Y-187377000D01*
X240335000Y-186627000D01*
X240335000Y-186373000D01*
X240335000Y-185623000D01*
X240335000Y-172377000D01*
X240335000Y-171627000D01*
X240335000Y-171373000D01*
X240335000Y-170623000D01*
X240161942Y-170006980D01*
X239766317Y-169504078D01*
X239208355Y-169190856D01*
X239080434Y-169159876D01*
X238827000Y-169279223D01*
X238827000Y-171373000D01*
X240335000Y-171373000D01*
X240335000Y-171627000D01*
X238827000Y-171627000D01*
X238827000Y-173720777D01*
X239080434Y-173840124D01*
X239208355Y-173809144D01*
X239766317Y-173495922D01*
X240161942Y-172993020D01*
X240335000Y-172377000D01*
X240335000Y-185623000D01*
X240161942Y-185006980D01*
X239766317Y-184504078D01*
X239208355Y-184190856D01*
X239080434Y-184159876D01*
X238827000Y-184279223D01*
X238827000Y-186373000D01*
X240335000Y-186373000D01*
X240335000Y-186627000D01*
X238827000Y-186627000D01*
X238827000Y-188720777D01*
X239080434Y-188840124D01*
X239208355Y-188809144D01*
X239766317Y-188495922D01*
X240161942Y-187993020D01*
X240335000Y-187377000D01*
X240335000Y-200623000D01*
X240161942Y-200006980D01*
X239766317Y-199504078D01*
X239208355Y-199190856D01*
X239080434Y-199159876D01*
X238827000Y-199279223D01*
X238827000Y-201373000D01*
X240335000Y-201373000D01*
X240335000Y-201627000D01*
X238827000Y-201627000D01*
X238827000Y-203720777D01*
X239080434Y-203840124D01*
X239208355Y-203809144D01*
X239766317Y-203495922D01*
X240161942Y-202993020D01*
X240335000Y-202377000D01*
X240335000Y-206569000D01*
X238573000Y-206569000D01*
X238573000Y-203720777D01*
X238573000Y-201627000D01*
X238573000Y-201373000D01*
X238573000Y-199279223D01*
X238573000Y-188720777D01*
X238573000Y-186627000D01*
X238573000Y-186373000D01*
X238573000Y-184279223D01*
X238573000Y-173720777D01*
X238573000Y-171627000D01*
X238573000Y-171373000D01*
X238573000Y-169279223D01*
X238319566Y-169159876D01*
X238191645Y-169190856D01*
X237807027Y-169406768D01*
X237807027Y-159241202D01*
X237608497Y-158760724D01*
X237241209Y-158392795D01*
X236761079Y-158193427D01*
X236241202Y-158192973D01*
X235760724Y-158391503D01*
X235392795Y-158758791D01*
X235249894Y-159102931D01*
X235108497Y-158760724D01*
X234741209Y-158392795D01*
X234261079Y-158193427D01*
X233741202Y-158192973D01*
X233260724Y-158391503D01*
X232892795Y-158758791D01*
X232866334Y-158822515D01*
X232815953Y-158700884D01*
X232562060Y-158617545D01*
X232382455Y-158797150D01*
X232382455Y-158437940D01*
X232299116Y-158184047D01*
X231734694Y-157978410D01*
X231134542Y-158004421D01*
X230700884Y-158184047D01*
X230617545Y-158437940D01*
X231500000Y-159320395D01*
X232382455Y-158437940D01*
X232382455Y-158797150D01*
X231679605Y-159500000D01*
X232562060Y-160382455D01*
X232815953Y-160299116D01*
X232862940Y-160170148D01*
X232891503Y-160239276D01*
X233258791Y-160607205D01*
X233738921Y-160806573D01*
X234258798Y-160807027D01*
X234739276Y-160608497D01*
X235107205Y-160241209D01*
X235250105Y-159897068D01*
X235391503Y-160239276D01*
X235758791Y-160607205D01*
X236238921Y-160806573D01*
X236758798Y-160807027D01*
X237239276Y-160608497D01*
X237607205Y-160241209D01*
X237806573Y-159761079D01*
X237807027Y-159241202D01*
X237807027Y-169406768D01*
X237633683Y-169504078D01*
X237238058Y-170006980D01*
X237065000Y-170623000D01*
X237065000Y-171373000D01*
X238573000Y-171373000D01*
X238573000Y-171627000D01*
X237065000Y-171627000D01*
X237065000Y-172377000D01*
X237238058Y-172993020D01*
X237633683Y-173495922D01*
X238191645Y-173809144D01*
X238319566Y-173840124D01*
X238573000Y-173720777D01*
X238573000Y-184279223D01*
X238319566Y-184159876D01*
X238191645Y-184190856D01*
X237633683Y-184504078D01*
X237238058Y-185006980D01*
X237065000Y-185623000D01*
X237065000Y-186373000D01*
X238573000Y-186373000D01*
X238573000Y-186627000D01*
X237065000Y-186627000D01*
X237065000Y-187377000D01*
X237238058Y-187993020D01*
X237633683Y-188495922D01*
X238191645Y-188809144D01*
X238319566Y-188840124D01*
X238573000Y-188720777D01*
X238573000Y-199279223D01*
X238319566Y-199159876D01*
X238191645Y-199190856D01*
X237633683Y-199504078D01*
X237238058Y-200006980D01*
X237065000Y-200623000D01*
X237065000Y-201373000D01*
X238573000Y-201373000D01*
X238573000Y-201627000D01*
X237065000Y-201627000D01*
X237065000Y-202377000D01*
X237238058Y-202993020D01*
X237633683Y-203495922D01*
X238191645Y-203809144D01*
X238319566Y-203840124D01*
X238573000Y-203720777D01*
X238573000Y-206569000D01*
X235246926Y-206569000D01*
X235585510Y-206342766D01*
X236058464Y-205634939D01*
X236224544Y-204800000D01*
X236224544Y-196600000D01*
X236224544Y-189800000D01*
X236058464Y-188965061D01*
X235585510Y-188257234D01*
X234877683Y-187784280D01*
X234042744Y-187618200D01*
X233957256Y-187618200D01*
X233122317Y-187784280D01*
X232414490Y-188257234D01*
X231941536Y-188965061D01*
X231775456Y-189800000D01*
X231941536Y-190634939D01*
X232414490Y-191342766D01*
X233122317Y-191815720D01*
X233957256Y-191981800D01*
X234042744Y-191981800D01*
X234877683Y-191815720D01*
X235585510Y-191342766D01*
X236058464Y-190634939D01*
X236224544Y-189800000D01*
X236224544Y-196600000D01*
X236058464Y-195765061D01*
X235585510Y-195057234D01*
X234877683Y-194584280D01*
X234042744Y-194418200D01*
X233957256Y-194418200D01*
X233122317Y-194584280D01*
X232414490Y-195057234D01*
X231941536Y-195765061D01*
X231775456Y-196600000D01*
X231941536Y-197434939D01*
X232414490Y-198142766D01*
X233122317Y-198615720D01*
X233957256Y-198781800D01*
X234042744Y-198781800D01*
X234877683Y-198615720D01*
X235585510Y-198142766D01*
X236058464Y-197434939D01*
X236224544Y-196600000D01*
X236224544Y-204800000D01*
X236058464Y-203965061D01*
X235585510Y-203257234D01*
X234877683Y-202784280D01*
X234042744Y-202618200D01*
X233957256Y-202618200D01*
X233122317Y-202784280D01*
X232414490Y-203257234D01*
X231941536Y-203965061D01*
X231775456Y-204800000D01*
X231941536Y-205634939D01*
X232414490Y-206342766D01*
X232753073Y-206569000D01*
X231685000Y-206569000D01*
X231685000Y-202377000D01*
X231685000Y-201627000D01*
X231685000Y-201373000D01*
X231685000Y-200623000D01*
X231685000Y-187377000D01*
X231685000Y-186627000D01*
X231685000Y-186373000D01*
X231685000Y-185623000D01*
X231454852Y-184719967D01*
X230896647Y-183973747D01*
X230095367Y-183497946D01*
X229798003Y-183417573D01*
X229427000Y-183527375D01*
X229427000Y-186373000D01*
X231685000Y-186373000D01*
X231685000Y-186627000D01*
X229427000Y-186627000D01*
X229427000Y-189472625D01*
X229798003Y-189582427D01*
X230095367Y-189502054D01*
X230896647Y-189026253D01*
X231454852Y-188280033D01*
X231685000Y-187377000D01*
X231685000Y-200623000D01*
X231454852Y-199719967D01*
X230896647Y-198973747D01*
X230095367Y-198497946D01*
X229798003Y-198417573D01*
X229427000Y-198527375D01*
X229427000Y-201373000D01*
X231685000Y-201373000D01*
X231685000Y-201627000D01*
X229427000Y-201627000D01*
X229427000Y-204472625D01*
X229798003Y-204582427D01*
X230095367Y-204502054D01*
X230896647Y-204026253D01*
X231454852Y-203280033D01*
X231685000Y-202377000D01*
X231685000Y-206569000D01*
X229173000Y-206569000D01*
X229173000Y-204472625D01*
X229173000Y-201627000D01*
X229173000Y-201373000D01*
X229173000Y-198527375D01*
X229173000Y-189472625D01*
X229173000Y-186627000D01*
X229173000Y-186373000D01*
X229173000Y-183527375D01*
X228801997Y-183417573D01*
X228504633Y-183497946D01*
X227703353Y-183973747D01*
X227145148Y-184719967D01*
X226915000Y-185623000D01*
X226915000Y-186373000D01*
X229173000Y-186373000D01*
X229173000Y-186627000D01*
X226915000Y-186627000D01*
X226915000Y-187377000D01*
X227145148Y-188280033D01*
X227703353Y-189026253D01*
X228504633Y-189502054D01*
X228801997Y-189582427D01*
X229173000Y-189472625D01*
X229173000Y-198527375D01*
X228801997Y-198417573D01*
X228504633Y-198497946D01*
X227703353Y-198973747D01*
X227145148Y-199719967D01*
X226915000Y-200623000D01*
X226915000Y-201373000D01*
X229173000Y-201373000D01*
X229173000Y-201627000D01*
X226915000Y-201627000D01*
X226915000Y-202377000D01*
X227145148Y-203280033D01*
X227703353Y-204026253D01*
X228504633Y-204502054D01*
X228801997Y-204582427D01*
X229173000Y-204472625D01*
X229173000Y-206569000D01*
X225645401Y-206569000D01*
X225645401Y-170614418D01*
X225621341Y-169964623D01*
X225418965Y-169476042D01*
X225152163Y-169377443D01*
X224179605Y-170350000D01*
X225152163Y-171322557D01*
X225418965Y-171223958D01*
X225645401Y-170614418D01*
X225645401Y-206569000D01*
X225431538Y-206569000D01*
X225431538Y-175146548D01*
X225214096Y-174620298D01*
X224811819Y-174217319D01*
X224674090Y-174160129D01*
X224809702Y-174104096D01*
X225212681Y-173701819D01*
X225431041Y-173175950D01*
X225431538Y-172606548D01*
X225214096Y-172080298D01*
X224881887Y-171747509D01*
X224972557Y-171502163D01*
X224000000Y-170529605D01*
X223820395Y-170709210D01*
X223820395Y-170350000D01*
X222847837Y-169377443D01*
X222581035Y-169476042D01*
X222354599Y-170085582D01*
X222378659Y-170735377D01*
X222581035Y-171223958D01*
X222847837Y-171322557D01*
X223820395Y-170350000D01*
X223820395Y-170709210D01*
X223027443Y-171502163D01*
X223118235Y-171747841D01*
X222787319Y-172078181D01*
X222568959Y-172604050D01*
X222568462Y-173173452D01*
X222785904Y-173699702D01*
X223188181Y-174102681D01*
X223325909Y-174159870D01*
X223190298Y-174215904D01*
X222787319Y-174618181D01*
X222568959Y-175144050D01*
X222568462Y-175713452D01*
X222785904Y-176239702D01*
X223084391Y-176538710D01*
X222914620Y-176538710D01*
X222755915Y-176604447D01*
X222634448Y-176725915D01*
X222568710Y-176884619D01*
X222568710Y-177056400D01*
X222568710Y-179055380D01*
X222634447Y-179214085D01*
X222755915Y-179335552D01*
X222914619Y-179401290D01*
X223086400Y-179401290D01*
X225085380Y-179401290D01*
X225244085Y-179335553D01*
X225365552Y-179214085D01*
X225431290Y-179055381D01*
X225431290Y-178883600D01*
X225431290Y-176884620D01*
X225365553Y-176725915D01*
X225244085Y-176604448D01*
X225085381Y-176538710D01*
X224915271Y-176538710D01*
X225212681Y-176241819D01*
X225431041Y-175715950D01*
X225431538Y-175146548D01*
X225431538Y-206569000D01*
X219335000Y-206569000D01*
X219335000Y-202377000D01*
X219335000Y-201627000D01*
X219335000Y-201373000D01*
X219335000Y-200623000D01*
X219335000Y-187377000D01*
X219335000Y-186627000D01*
X219335000Y-186373000D01*
X219335000Y-185623000D01*
X219335000Y-172377000D01*
X219335000Y-171627000D01*
X219335000Y-171373000D01*
X219335000Y-170623000D01*
X219161942Y-170006980D01*
X218766317Y-169504078D01*
X218208355Y-169190856D01*
X218080434Y-169159876D01*
X217827000Y-169279223D01*
X217827000Y-171373000D01*
X219335000Y-171373000D01*
X219335000Y-171627000D01*
X217827000Y-171627000D01*
X217827000Y-173720777D01*
X218080434Y-173840124D01*
X218208355Y-173809144D01*
X218766317Y-173495922D01*
X219161942Y-172993020D01*
X219335000Y-172377000D01*
X219335000Y-185623000D01*
X219161942Y-185006980D01*
X218766317Y-184504078D01*
X218208355Y-184190856D01*
X218080434Y-184159876D01*
X217827000Y-184279223D01*
X217827000Y-186373000D01*
X219335000Y-186373000D01*
X219335000Y-186627000D01*
X217827000Y-186627000D01*
X217827000Y-188720777D01*
X218080434Y-188840124D01*
X218208355Y-188809144D01*
X218766317Y-188495922D01*
X219161942Y-187993020D01*
X219335000Y-187377000D01*
X219335000Y-200623000D01*
X219161942Y-200006980D01*
X218766317Y-199504078D01*
X218208355Y-199190856D01*
X218080434Y-199159876D01*
X217827000Y-199279223D01*
X217827000Y-201373000D01*
X219335000Y-201373000D01*
X219335000Y-201627000D01*
X217827000Y-201627000D01*
X217827000Y-203720777D01*
X218080434Y-203840124D01*
X218208355Y-203809144D01*
X218766317Y-203495922D01*
X219161942Y-202993020D01*
X219335000Y-202377000D01*
X219335000Y-206569000D01*
X217573000Y-206569000D01*
X217573000Y-203720777D01*
X217573000Y-201627000D01*
X217573000Y-201373000D01*
X217573000Y-199279223D01*
X217573000Y-188720777D01*
X217573000Y-186627000D01*
X217573000Y-186373000D01*
X217573000Y-184279223D01*
X217573000Y-173720777D01*
X217573000Y-171627000D01*
X217573000Y-171373000D01*
X217573000Y-169279223D01*
X217319566Y-169159876D01*
X217191645Y-169190856D01*
X216807027Y-169406768D01*
X216807027Y-159241202D01*
X216608497Y-158760724D01*
X216241209Y-158392795D01*
X215761079Y-158193427D01*
X215241202Y-158192973D01*
X214760724Y-158391503D01*
X214392795Y-158758791D01*
X214249894Y-159102931D01*
X214108497Y-158760724D01*
X213741209Y-158392795D01*
X213261079Y-158193427D01*
X212741202Y-158192973D01*
X212260724Y-158391503D01*
X211892795Y-158758791D01*
X211866334Y-158822515D01*
X211815953Y-158700884D01*
X211562060Y-158617545D01*
X211382455Y-158797150D01*
X211382455Y-158437940D01*
X211299116Y-158184047D01*
X210734694Y-157978410D01*
X210134542Y-158004421D01*
X209881800Y-158109109D01*
X209881800Y-152542744D01*
X209881800Y-151457256D01*
X209753781Y-150813659D01*
X209389212Y-150268044D01*
X208843597Y-149903475D01*
X208200000Y-149775456D01*
X207556403Y-149903475D01*
X207010788Y-150268044D01*
X206646219Y-150813659D01*
X206518200Y-151457256D01*
X206518200Y-152542744D01*
X206646219Y-153186341D01*
X207010788Y-153731956D01*
X207556403Y-154096525D01*
X208200000Y-154224544D01*
X208843597Y-154096525D01*
X209389212Y-153731956D01*
X209753781Y-153186341D01*
X209881800Y-152542744D01*
X209881800Y-158109109D01*
X209700884Y-158184047D01*
X209617545Y-158437940D01*
X210500000Y-159320395D01*
X211382455Y-158437940D01*
X211382455Y-158797150D01*
X210679605Y-159500000D01*
X211562060Y-160382455D01*
X211815953Y-160299116D01*
X211862940Y-160170148D01*
X211891503Y-160239276D01*
X212258791Y-160607205D01*
X212738921Y-160806573D01*
X213258798Y-160807027D01*
X213739276Y-160608497D01*
X214107205Y-160241209D01*
X214250105Y-159897068D01*
X214391503Y-160239276D01*
X214758791Y-160607205D01*
X215238921Y-160806573D01*
X215758798Y-160807027D01*
X216239276Y-160608497D01*
X216607205Y-160241209D01*
X216806573Y-159761079D01*
X216807027Y-159241202D01*
X216807027Y-169406768D01*
X216633683Y-169504078D01*
X216238058Y-170006980D01*
X216065000Y-170623000D01*
X216065000Y-171373000D01*
X217573000Y-171373000D01*
X217573000Y-171627000D01*
X216065000Y-171627000D01*
X216065000Y-172377000D01*
X216238058Y-172993020D01*
X216633683Y-173495922D01*
X217191645Y-173809144D01*
X217319566Y-173840124D01*
X217573000Y-173720777D01*
X217573000Y-184279223D01*
X217319566Y-184159876D01*
X217191645Y-184190856D01*
X216633683Y-184504078D01*
X216238058Y-185006980D01*
X216065000Y-185623000D01*
X216065000Y-186373000D01*
X217573000Y-186373000D01*
X217573000Y-186627000D01*
X216065000Y-186627000D01*
X216065000Y-187377000D01*
X216238058Y-187993020D01*
X216633683Y-188495922D01*
X217191645Y-188809144D01*
X217319566Y-188840124D01*
X217573000Y-188720777D01*
X217573000Y-199279223D01*
X217319566Y-199159876D01*
X217191645Y-199190856D01*
X216633683Y-199504078D01*
X216238058Y-200006980D01*
X216065000Y-200623000D01*
X216065000Y-201373000D01*
X217573000Y-201373000D01*
X217573000Y-201627000D01*
X216065000Y-201627000D01*
X216065000Y-202377000D01*
X216238058Y-202993020D01*
X216633683Y-203495922D01*
X217191645Y-203809144D01*
X217319566Y-203840124D01*
X217573000Y-203720777D01*
X217573000Y-206569000D01*
X214246926Y-206569000D01*
X214585510Y-206342766D01*
X215058464Y-205634939D01*
X215224544Y-204800000D01*
X215224544Y-196600000D01*
X215224544Y-189800000D01*
X215224544Y-181600000D01*
X215224544Y-174800000D01*
X215224544Y-166600000D01*
X215058464Y-165765061D01*
X214585510Y-165057234D01*
X213877683Y-164584280D01*
X213042744Y-164418200D01*
X212957256Y-164418200D01*
X212122317Y-164584280D01*
X211414490Y-165057234D01*
X211382455Y-165105177D01*
X211382455Y-160562060D01*
X210500000Y-159679605D01*
X210320395Y-159859210D01*
X210320395Y-159500000D01*
X209437940Y-158617545D01*
X209184047Y-158700884D01*
X208978410Y-159265306D01*
X209004421Y-159865458D01*
X209184047Y-160299116D01*
X209437940Y-160382455D01*
X210320395Y-159500000D01*
X210320395Y-159859210D01*
X209617545Y-160562060D01*
X209700884Y-160815953D01*
X210265306Y-161021590D01*
X210865458Y-160995579D01*
X211299116Y-160815953D01*
X211382455Y-160562060D01*
X211382455Y-165105177D01*
X210941536Y-165765061D01*
X210775456Y-166600000D01*
X210941536Y-167434939D01*
X211414490Y-168142766D01*
X212122317Y-168615720D01*
X212957256Y-168781800D01*
X213042744Y-168781800D01*
X213877683Y-168615720D01*
X214585510Y-168142766D01*
X215058464Y-167434939D01*
X215224544Y-166600000D01*
X215224544Y-174800000D01*
X215058464Y-173965061D01*
X214585510Y-173257234D01*
X213877683Y-172784280D01*
X213042744Y-172618200D01*
X212957256Y-172618200D01*
X212122317Y-172784280D01*
X211414490Y-173257234D01*
X210941536Y-173965061D01*
X210775456Y-174800000D01*
X210941536Y-175634939D01*
X211414490Y-176342766D01*
X212122317Y-176815720D01*
X212957256Y-176981800D01*
X213042744Y-176981800D01*
X213877683Y-176815720D01*
X214585510Y-176342766D01*
X215058464Y-175634939D01*
X215224544Y-174800000D01*
X215224544Y-181600000D01*
X215058464Y-180765061D01*
X214585510Y-180057234D01*
X213877683Y-179584280D01*
X213042744Y-179418200D01*
X212957256Y-179418200D01*
X212122317Y-179584280D01*
X211414490Y-180057234D01*
X210941536Y-180765061D01*
X210775456Y-181600000D01*
X210941536Y-182434939D01*
X211414490Y-183142766D01*
X212122317Y-183615720D01*
X212957256Y-183781800D01*
X213042744Y-183781800D01*
X213877683Y-183615720D01*
X214585510Y-183142766D01*
X215058464Y-182434939D01*
X215224544Y-181600000D01*
X215224544Y-189800000D01*
X215058464Y-188965061D01*
X214585510Y-188257234D01*
X213877683Y-187784280D01*
X213042744Y-187618200D01*
X212957256Y-187618200D01*
X212122317Y-187784280D01*
X211414490Y-188257234D01*
X210941536Y-188965061D01*
X210775456Y-189800000D01*
X210941536Y-190634939D01*
X211414490Y-191342766D01*
X212122317Y-191815720D01*
X212957256Y-191981800D01*
X213042744Y-191981800D01*
X213877683Y-191815720D01*
X214585510Y-191342766D01*
X215058464Y-190634939D01*
X215224544Y-189800000D01*
X215224544Y-196600000D01*
X215058464Y-195765061D01*
X214585510Y-195057234D01*
X213877683Y-194584280D01*
X213042744Y-194418200D01*
X212957256Y-194418200D01*
X212122317Y-194584280D01*
X211414490Y-195057234D01*
X210941536Y-195765061D01*
X210775456Y-196600000D01*
X210941536Y-197434939D01*
X211414490Y-198142766D01*
X212122317Y-198615720D01*
X212957256Y-198781800D01*
X213042744Y-198781800D01*
X213877683Y-198615720D01*
X214585510Y-198142766D01*
X215058464Y-197434939D01*
X215224544Y-196600000D01*
X215224544Y-204800000D01*
X215058464Y-203965061D01*
X214585510Y-203257234D01*
X213877683Y-202784280D01*
X213042744Y-202618200D01*
X212957256Y-202618200D01*
X212122317Y-202784280D01*
X211414490Y-203257234D01*
X210941536Y-203965061D01*
X210775456Y-204800000D01*
X210941536Y-205634939D01*
X211414490Y-206342766D01*
X211753073Y-206569000D01*
X210685000Y-206569000D01*
X210685000Y-202377000D01*
X210685000Y-201627000D01*
X210685000Y-201373000D01*
X210685000Y-200623000D01*
X210685000Y-187377000D01*
X210685000Y-186627000D01*
X210685000Y-186373000D01*
X210685000Y-185623000D01*
X210685000Y-172377000D01*
X210685000Y-171627000D01*
X210685000Y-171373000D01*
X210685000Y-170623000D01*
X210454852Y-169719967D01*
X209896647Y-168973747D01*
X209095367Y-168497946D01*
X208798003Y-168417573D01*
X208427000Y-168527375D01*
X208427000Y-171373000D01*
X210685000Y-171373000D01*
X210685000Y-171627000D01*
X208427000Y-171627000D01*
X208427000Y-174472625D01*
X208798003Y-174582427D01*
X209095367Y-174502054D01*
X209896647Y-174026253D01*
X210454852Y-173280033D01*
X210685000Y-172377000D01*
X210685000Y-185623000D01*
X210454852Y-184719967D01*
X209896647Y-183973747D01*
X209095367Y-183497946D01*
X208798003Y-183417573D01*
X208427000Y-183527375D01*
X208427000Y-186373000D01*
X210685000Y-186373000D01*
X210685000Y-186627000D01*
X208427000Y-186627000D01*
X208427000Y-189472625D01*
X208798003Y-189582427D01*
X209095367Y-189502054D01*
X209896647Y-189026253D01*
X210454852Y-188280033D01*
X210685000Y-187377000D01*
X210685000Y-200623000D01*
X210454852Y-199719967D01*
X209896647Y-198973747D01*
X209095367Y-198497946D01*
X208798003Y-198417573D01*
X208427000Y-198527375D01*
X208427000Y-201373000D01*
X210685000Y-201373000D01*
X210685000Y-201627000D01*
X208427000Y-201627000D01*
X208427000Y-204472625D01*
X208798003Y-204582427D01*
X209095367Y-204502054D01*
X209896647Y-204026253D01*
X210454852Y-203280033D01*
X210685000Y-202377000D01*
X210685000Y-206569000D01*
X208173000Y-206569000D01*
X208173000Y-204472625D01*
X208173000Y-201627000D01*
X208173000Y-201373000D01*
X208173000Y-198527375D01*
X208173000Y-189472625D01*
X208173000Y-186627000D01*
X208173000Y-186373000D01*
X208173000Y-183527375D01*
X208173000Y-174472625D01*
X208173000Y-171627000D01*
X208173000Y-171373000D01*
X208173000Y-168527375D01*
X207801997Y-168417573D01*
X207504633Y-168497946D01*
X206703353Y-168973747D01*
X206145148Y-169719967D01*
X205915000Y-170623000D01*
X205915000Y-171373000D01*
X208173000Y-171373000D01*
X208173000Y-171627000D01*
X205915000Y-171627000D01*
X205915000Y-172377000D01*
X206145148Y-173280033D01*
X206703353Y-174026253D01*
X207504633Y-174502054D01*
X207801997Y-174582427D01*
X208173000Y-174472625D01*
X208173000Y-183527375D01*
X207801997Y-183417573D01*
X207504633Y-183497946D01*
X206703353Y-183973747D01*
X206145148Y-184719967D01*
X205915000Y-185623000D01*
X205915000Y-186373000D01*
X208173000Y-186373000D01*
X208173000Y-186627000D01*
X205915000Y-186627000D01*
X205915000Y-187377000D01*
X206145148Y-188280033D01*
X206703353Y-189026253D01*
X207504633Y-189502054D01*
X207801997Y-189582427D01*
X208173000Y-189472625D01*
X208173000Y-198527375D01*
X207801997Y-198417573D01*
X207504633Y-198497946D01*
X206703353Y-198973747D01*
X206145148Y-199719967D01*
X205915000Y-200623000D01*
X205915000Y-201373000D01*
X208173000Y-201373000D01*
X208173000Y-201627000D01*
X205915000Y-201627000D01*
X205915000Y-202377000D01*
X206145148Y-203280033D01*
X206703353Y-204026253D01*
X207504633Y-204502054D01*
X207801997Y-204582427D01*
X208173000Y-204472625D01*
X208173000Y-206569000D01*
X204431000Y-206569000D01*
X204431000Y-107431000D01*
X242569000Y-107431000D01*
X242569000Y-206569000D01*
M02*
