G04 (created by PCBNEW (2013-07-07 BZR 4022)-stable) date 2014-05-25 10:59:23 PM*
%MOIN*%
G04 Gerber Fmt 3.4, Leading zero omitted, Abs format*
%FSLAX34Y34*%
G01*
G70*
G90*
G04 APERTURE LIST*
%ADD10C,0.00590551*%
%ADD11C,0.0787*%
%ADD12R,0.0787X0.0787*%
%ADD13R,0.0276X0.0394*%
%ADD14R,0.0236X0.0866*%
%ADD15R,0.03X0.024*%
%ADD16R,0.0866X0.0236*%
%ADD17R,0.055X0.045*%
%ADD18R,0.045X0.055*%
%ADD19O,0.137795X0.19685*%
%ADD20O,0.0787402X0.137795*%
%ADD21O,0.137795X0.137795*%
%ADD22C,0.0885827*%
%ADD23R,0.0551181X0.0551181*%
%ADD24C,0.0551181*%
G04 APERTURE END LIST*
G54D10*
G54D11*
X64870Y-44700D03*
X64870Y-43700D03*
X64870Y-45700D03*
X64870Y-42700D03*
G54D12*
X64870Y-41700D03*
G54D11*
X63870Y-41700D03*
X63870Y-42700D03*
X63870Y-43700D03*
X63870Y-44700D03*
X63870Y-45700D03*
G54D13*
X61614Y-48137D03*
X61989Y-47137D03*
X61239Y-47137D03*
G54D14*
X60076Y-41299D03*
X60576Y-41299D03*
X61076Y-41299D03*
X61576Y-41299D03*
X61576Y-43345D03*
X61076Y-43345D03*
X60576Y-43345D03*
X60076Y-43345D03*
G54D15*
X45078Y-42025D03*
X45078Y-41045D03*
X50000Y-44588D03*
X50000Y-45568D03*
G54D16*
X46811Y-44610D03*
X46811Y-44110D03*
X46811Y-43610D03*
X46811Y-43110D03*
X46811Y-42610D03*
X46811Y-42110D03*
X46811Y-41610D03*
X48857Y-41610D03*
X48857Y-42110D03*
X48857Y-42610D03*
X48857Y-43110D03*
X48857Y-43610D03*
X48857Y-44110D03*
X48857Y-44610D03*
G54D17*
X45078Y-42882D03*
X45078Y-43732D03*
G54D18*
X65188Y-58858D03*
X64338Y-58858D03*
G54D17*
X45078Y-45897D03*
X45078Y-45047D03*
X45078Y-46622D03*
X45078Y-47472D03*
X46456Y-47472D03*
X46456Y-46622D03*
G54D18*
X49440Y-49803D03*
X48590Y-49803D03*
X60204Y-39960D03*
X61054Y-39960D03*
G54D17*
X59055Y-42747D03*
X59055Y-41897D03*
G54D18*
X55543Y-62204D03*
X54693Y-62204D03*
G54D17*
X55118Y-57252D03*
X55118Y-58102D03*
X50590Y-43338D03*
X50590Y-42488D03*
X50590Y-40913D03*
X50590Y-41763D03*
X50590Y-40188D03*
X50590Y-39338D03*
X49409Y-39338D03*
X49409Y-40188D03*
X55118Y-47865D03*
X55118Y-47015D03*
G54D18*
X57314Y-39370D03*
X56464Y-39370D03*
X61189Y-44685D03*
X62039Y-44685D03*
X62039Y-46062D03*
X61189Y-46062D03*
G54D19*
X56220Y-75590D03*
G54D20*
X59921Y-75590D03*
G54D21*
X58070Y-73661D03*
X58070Y-76889D03*
G54D19*
X61929Y-75590D03*
G54D20*
X65629Y-75590D03*
G54D21*
X63779Y-73661D03*
X63779Y-76889D03*
G54D19*
X50314Y-75590D03*
G54D20*
X54015Y-75590D03*
G54D21*
X52165Y-73661D03*
X52165Y-76889D03*
G54D19*
X44606Y-75590D03*
G54D20*
X48307Y-75590D03*
G54D21*
X46456Y-73661D03*
X46456Y-76889D03*
G54D22*
X56102Y-65354D03*
X54133Y-65354D03*
X54133Y-63385D03*
X56102Y-63385D03*
X56102Y-45669D03*
X54133Y-45669D03*
X54133Y-43700D03*
X56102Y-43700D03*
G54D12*
X62992Y-49830D03*
G54D11*
X62992Y-50830D03*
X62992Y-51830D03*
X62992Y-52830D03*
X62992Y-53830D03*
X62992Y-54830D03*
X62992Y-55830D03*
X62992Y-56830D03*
X62992Y-57830D03*
X62992Y-58830D03*
G54D12*
X47244Y-58830D03*
G54D11*
X47244Y-57830D03*
X47244Y-56830D03*
X47244Y-55830D03*
X47244Y-54830D03*
X47244Y-53830D03*
X47244Y-52830D03*
X47244Y-51830D03*
X47244Y-50830D03*
X47244Y-49830D03*
G54D23*
X64763Y-39763D03*
G54D24*
X63976Y-39763D03*
G54D23*
X63976Y-47637D03*
G54D24*
X64763Y-47637D03*
G54D11*
X57832Y-43376D03*
X58961Y-44989D03*
X56703Y-41764D03*
X56692Y-49606D03*
X56692Y-51574D03*
X56692Y-47637D03*
X56692Y-59448D03*
X56692Y-61417D03*
X56692Y-57480D03*
X56692Y-69291D03*
X56692Y-71259D03*
X56692Y-67322D03*
X53543Y-69291D03*
X53543Y-67322D03*
X53543Y-71259D03*
X53543Y-59448D03*
X53543Y-57480D03*
X53543Y-61417D03*
X53543Y-49606D03*
X53543Y-47637D03*
X53543Y-51574D03*
X52404Y-43376D03*
X53533Y-41764D03*
X51275Y-44989D03*
M02*
