M48
INCH,TZ
T1C0.025
T2C0.031
T3C0.032
T4C0.040
T5C0.043
T6C0.049
T7C0.051
T8C0.089
%
G90
G05
T1
X045079Y-048228
X045850Y-043134
X047986Y-040571
X048357Y-054995
X049691Y-042563
X051096Y-047983
X051378Y-039370
X060512Y-039291
X060787Y-047126
T2
X063976Y-039764
X063976Y-047638
X064764Y-039764
X064764Y-047638
T3
X055118Y-039264
X055118Y-040264
X055118Y-058949
X055118Y-059949
T4
X047244Y-049831
X047244Y-050831
X047244Y-051831
X047244Y-052831
X047244Y-053831
X047244Y-054831
X047244Y-055831
X047244Y-056831
X047244Y-057831
X047244Y-058831
X062992Y-049831
X062992Y-050831
X062992Y-051831
X062992Y-052831
X062992Y-053831
X062992Y-054831
X062992Y-055831
X062992Y-056831
X062992Y-057831
X062992Y-058831
X063870Y-041701
X063870Y-042701
X063870Y-043701
X063870Y-044701
X063870Y-045701
X064870Y-041701
X064870Y-042701
X064870Y-043701
X064870Y-044701
X064870Y-045701
T5
X054134Y-043701
X054134Y-045669
X054134Y-063386
X054134Y-065354
X056102Y-043701
X056102Y-045669
X056102Y-063386
X056102Y-065354
T6
X048307Y-075591
X054016Y-075591
X059921Y-075591
X065630Y-075591
T7
X051275Y-044989
X052404Y-043377
X053533Y-041764
X053543Y-047638
X053543Y-049606
X053543Y-051575
X053543Y-057480
X053543Y-059449
X053543Y-061417
X053543Y-067323
X053543Y-069291
X053543Y-071260
X056693Y-047638
X056693Y-049606
X056693Y-051575
X056693Y-057480
X056693Y-059449
X056693Y-061417
X056693Y-067323
X056693Y-069291
X056693Y-071260
X056703Y-041764
X057832Y-043377
X058961Y-044989
T8
X044606Y-075591
X046457Y-073661
X046457Y-076890
X050315Y-075591
X052165Y-073661
X052165Y-076890
X056220Y-075591
X058071Y-073661
X058071Y-076890
X061929Y-075591
X063780Y-073661
X063780Y-076890
T0
M30
