G04 (created by PCBNEW (2013-07-07 BZR 4022)-stable) date 2014-05-25 10:59:23 PM*
%MOIN*%
G04 Gerber Fmt 3.4, Leading zero omitted, Abs format*
%FSLAX34Y34*%
G01*
G70*
G90*
G04 APERTURE LIST*
%ADD10C,0.00590551*%
%ADD11C,0.0787*%
%ADD12R,0.0787X0.0787*%
%ADD13R,0.0276X0.0394*%
%ADD14R,0.0236X0.0866*%
%ADD15R,0.03X0.024*%
%ADD16R,0.0866X0.0236*%
%ADD17R,0.055X0.045*%
%ADD18R,0.045X0.055*%
%ADD19O,0.137795X0.19685*%
%ADD20O,0.0787402X0.137795*%
%ADD21O,0.137795X0.137795*%
%ADD22C,0.066*%
%ADD23C,0.0885827*%
%ADD24R,0.0551181X0.0551181*%
%ADD25C,0.0551181*%
%ADD26C,0.045*%
%ADD27C,0.016*%
%ADD28C,0.014*%
%ADD29C,0.01*%
G04 APERTURE END LIST*
G54D10*
G54D11*
X64870Y-44700D03*
X64870Y-43700D03*
X64870Y-45700D03*
X64870Y-42700D03*
G54D12*
X64870Y-41700D03*
G54D11*
X63870Y-41700D03*
X63870Y-42700D03*
X63870Y-43700D03*
X63870Y-44700D03*
X63870Y-45700D03*
G54D13*
X61614Y-48137D03*
X61989Y-47137D03*
X61239Y-47137D03*
G54D14*
X60076Y-41299D03*
X60576Y-41299D03*
X61076Y-41299D03*
X61576Y-41299D03*
X61576Y-43345D03*
X61076Y-43345D03*
X60576Y-43345D03*
X60076Y-43345D03*
G54D15*
X45078Y-42025D03*
X45078Y-41045D03*
X50000Y-44588D03*
X50000Y-45568D03*
G54D16*
X46811Y-44610D03*
X46811Y-44110D03*
X46811Y-43610D03*
X46811Y-43110D03*
X46811Y-42610D03*
X46811Y-42110D03*
X46811Y-41610D03*
X48857Y-41610D03*
X48857Y-42110D03*
X48857Y-42610D03*
X48857Y-43110D03*
X48857Y-43610D03*
X48857Y-44110D03*
X48857Y-44610D03*
G54D17*
X45078Y-42882D03*
X45078Y-43732D03*
G54D18*
X65188Y-58858D03*
X64338Y-58858D03*
G54D17*
X45078Y-45897D03*
X45078Y-45047D03*
X45078Y-46622D03*
X45078Y-47472D03*
X46456Y-47472D03*
X46456Y-46622D03*
G54D18*
X49440Y-49803D03*
X48590Y-49803D03*
X60204Y-39960D03*
X61054Y-39960D03*
G54D17*
X59055Y-42747D03*
X59055Y-41897D03*
G54D18*
X55543Y-62204D03*
X54693Y-62204D03*
G54D17*
X55118Y-57252D03*
X55118Y-58102D03*
X50590Y-43338D03*
X50590Y-42488D03*
X50590Y-40913D03*
X50590Y-41763D03*
X50590Y-40188D03*
X50590Y-39338D03*
X49409Y-39338D03*
X49409Y-40188D03*
X55118Y-47865D03*
X55118Y-47015D03*
G54D18*
X57314Y-39370D03*
X56464Y-39370D03*
X61189Y-44685D03*
X62039Y-44685D03*
X62039Y-46062D03*
X61189Y-46062D03*
G54D19*
X56220Y-75590D03*
G54D20*
X59921Y-75590D03*
G54D21*
X58070Y-73661D03*
X58070Y-76889D03*
G54D19*
X61929Y-75590D03*
G54D20*
X65629Y-75590D03*
G54D21*
X63779Y-73661D03*
X63779Y-76889D03*
G54D19*
X50314Y-75590D03*
G54D20*
X54015Y-75590D03*
G54D21*
X52165Y-73661D03*
X52165Y-76889D03*
G54D19*
X44606Y-75590D03*
G54D20*
X48307Y-75590D03*
G54D21*
X46456Y-73661D03*
X46456Y-76889D03*
G54D22*
X55118Y-59948D03*
X55118Y-58948D03*
X55118Y-40263D03*
X55118Y-39263D03*
G54D23*
X56102Y-65354D03*
X54133Y-65354D03*
X54133Y-63385D03*
X56102Y-63385D03*
X56102Y-45669D03*
X54133Y-45669D03*
X54133Y-43700D03*
X56102Y-43700D03*
G54D12*
X62992Y-49830D03*
G54D11*
X62992Y-50830D03*
X62992Y-51830D03*
X62992Y-52830D03*
X62992Y-53830D03*
X62992Y-54830D03*
X62992Y-55830D03*
X62992Y-56830D03*
X62992Y-57830D03*
X62992Y-58830D03*
G54D12*
X47244Y-58830D03*
G54D11*
X47244Y-57830D03*
X47244Y-56830D03*
X47244Y-55830D03*
X47244Y-54830D03*
X47244Y-53830D03*
X47244Y-52830D03*
X47244Y-51830D03*
X47244Y-50830D03*
X47244Y-49830D03*
G54D24*
X64763Y-39763D03*
G54D25*
X63976Y-39763D03*
G54D24*
X63976Y-47637D03*
G54D25*
X64763Y-47637D03*
G54D11*
X57832Y-43376D03*
X58961Y-44989D03*
X56703Y-41764D03*
X56692Y-49606D03*
X56692Y-51574D03*
X56692Y-47637D03*
X56692Y-59448D03*
X56692Y-61417D03*
X56692Y-57480D03*
X56692Y-69291D03*
X56692Y-71259D03*
X56692Y-67322D03*
X53543Y-69291D03*
X53543Y-67322D03*
X53543Y-71259D03*
X53543Y-59448D03*
X53543Y-57480D03*
X53543Y-61417D03*
X53543Y-49606D03*
X53543Y-47637D03*
X53543Y-51574D03*
X52404Y-43376D03*
X53533Y-41764D03*
X51275Y-44989D03*
G54D26*
X60787Y-47125D03*
X60511Y-39291D03*
X45078Y-48228D03*
X51377Y-39370D03*
X51096Y-47983D03*
X48357Y-54994D03*
X47986Y-40570D03*
X45850Y-43133D03*
X49691Y-42562D03*
G54D27*
X62464Y-46062D02*
X62464Y-47309D01*
X62464Y-46062D02*
X62464Y-47309D01*
X62398Y-49830D02*
X62992Y-49830D01*
X56025Y-56203D02*
X62398Y-49830D01*
X50464Y-56203D02*
X56025Y-56203D01*
X47837Y-58830D02*
X50464Y-56203D01*
X47244Y-58830D02*
X47837Y-58830D01*
X46457Y-43110D02*
X46811Y-43110D01*
X45792Y-42445D02*
X46457Y-43110D01*
X44716Y-42445D02*
X45792Y-42445D01*
X44362Y-42798D02*
X44716Y-42445D01*
X44362Y-55949D02*
X44362Y-42798D01*
X47244Y-58830D02*
X44362Y-55949D01*
X46811Y-43110D02*
X46811Y-43110D01*
X60076Y-43345D02*
X60076Y-43345D01*
X62039Y-46062D02*
X62039Y-46062D01*
X62039Y-46062D02*
X62464Y-46062D01*
X63507Y-46062D02*
X63870Y-45700D01*
X62464Y-46062D02*
X63507Y-46062D01*
X63870Y-45700D02*
X64870Y-45700D01*
X62464Y-47309D02*
X62343Y-47430D01*
X60076Y-47044D02*
X60076Y-43345D01*
X60583Y-47551D02*
X60076Y-47044D01*
X62222Y-47551D02*
X60583Y-47551D01*
X62343Y-47430D02*
X62222Y-47551D01*
X63293Y-47430D02*
X63500Y-47637D01*
X62343Y-47430D02*
X63293Y-47430D01*
X63976Y-47637D02*
X63500Y-47637D01*
X60076Y-40794D02*
X60204Y-40666D01*
X60076Y-40983D02*
X60076Y-40794D01*
X54143Y-58080D02*
X53543Y-57480D01*
X54143Y-61755D02*
X54143Y-58080D01*
X53478Y-62420D02*
X54143Y-61755D01*
X53478Y-67257D02*
X53478Y-62420D01*
X53543Y-67322D02*
X53478Y-67257D01*
X54642Y-47866D02*
X55118Y-47866D01*
X54414Y-47637D02*
X54642Y-47866D01*
X53543Y-47637D02*
X54414Y-47637D01*
X60576Y-40666D02*
X60576Y-41299D01*
X60204Y-40666D02*
X60576Y-40666D01*
X60576Y-41299D02*
X60576Y-41300D01*
X60076Y-41300D02*
X60076Y-41299D01*
X60076Y-41299D02*
X60076Y-40983D01*
X54314Y-40983D02*
X53898Y-41399D01*
X60076Y-40983D02*
X54314Y-40983D01*
X53482Y-47577D02*
X53543Y-47637D01*
X53482Y-41814D02*
X53482Y-47577D01*
X53898Y-41399D02*
X53482Y-41814D01*
X53898Y-41399D02*
X53533Y-41764D01*
X53898Y-41399D02*
X53898Y-41399D01*
X60204Y-39960D02*
X60204Y-40313D01*
X60204Y-40313D02*
X60204Y-40666D01*
X60204Y-40313D02*
X60204Y-39960D01*
X60204Y-40313D02*
X60204Y-40313D01*
X55118Y-47865D02*
X55118Y-47866D01*
X58961Y-44989D02*
X58961Y-44989D01*
X58961Y-46237D02*
X58961Y-44989D01*
X56088Y-49109D02*
X58961Y-46237D01*
X56088Y-50970D02*
X56088Y-49109D01*
X56692Y-51574D02*
X56088Y-50970D01*
X58961Y-44989D02*
X58961Y-44989D01*
X60760Y-43662D02*
X60918Y-43503D01*
X60576Y-43662D02*
X60760Y-43662D01*
X60576Y-43345D02*
X60576Y-43662D01*
X60918Y-43503D02*
X61076Y-43345D01*
X60918Y-43503D02*
X61076Y-43345D01*
X60918Y-43503D02*
X60918Y-43503D01*
X55543Y-62204D02*
X55543Y-62204D01*
X55968Y-62204D02*
X55543Y-62204D01*
X55968Y-62142D02*
X55968Y-62204D01*
X56692Y-61417D02*
X55968Y-62142D01*
X55437Y-70003D02*
X56692Y-71259D01*
X55437Y-62786D02*
X55437Y-70003D01*
X55543Y-62679D02*
X55437Y-62786D01*
X55543Y-62204D02*
X55543Y-62679D01*
X59055Y-42747D02*
X59055Y-42748D01*
X59055Y-44895D02*
X59055Y-42748D01*
X58961Y-44989D02*
X59055Y-44895D01*
X60576Y-42712D02*
X60576Y-43345D01*
X59565Y-42712D02*
X60576Y-42712D01*
X59530Y-42748D02*
X59565Y-42712D01*
X59055Y-42748D02*
X59530Y-42748D01*
X48411Y-40337D02*
X49409Y-39338D01*
X48411Y-40746D02*
X48411Y-40337D01*
X48224Y-40933D02*
X48411Y-40746D01*
X48224Y-43110D02*
X48224Y-40933D01*
X61576Y-41300D02*
X61576Y-41299D01*
X48857Y-43110D02*
X48224Y-43110D01*
X48857Y-43110D02*
X48857Y-43110D01*
X61576Y-40666D02*
X62061Y-40181D01*
X61576Y-41299D02*
X61576Y-40666D01*
X49409Y-38913D02*
X49409Y-39338D01*
X49601Y-38720D02*
X49409Y-38913D01*
X60600Y-38720D02*
X49601Y-38720D01*
X62061Y-40181D02*
X60600Y-38720D01*
X46456Y-47472D02*
X46456Y-47472D01*
X48224Y-45704D02*
X46456Y-47472D01*
X48224Y-43110D02*
X48224Y-45704D01*
X46456Y-56043D02*
X47244Y-56830D01*
X46456Y-47472D02*
X46456Y-56043D01*
X46456Y-47472D02*
X46456Y-47472D01*
X63976Y-39763D02*
X63602Y-40137D01*
X62105Y-40137D02*
X63602Y-40137D01*
X62061Y-40181D02*
X62105Y-40137D01*
X63870Y-40405D02*
X63870Y-41700D01*
X63602Y-40137D02*
X63870Y-40405D01*
G54D28*
X52158Y-50991D02*
X53543Y-49606D01*
X52158Y-52916D02*
X52158Y-50991D01*
X47244Y-57830D02*
X52158Y-52916D01*
X57057Y-49241D02*
X56692Y-49606D01*
X63477Y-49241D02*
X57057Y-49241D01*
X63575Y-49340D02*
X63477Y-49241D01*
X63575Y-50320D02*
X63575Y-49340D01*
X63064Y-50830D02*
X63575Y-50320D01*
X62992Y-50830D02*
X63064Y-50830D01*
X56102Y-43700D02*
X56102Y-45669D01*
X48985Y-49803D02*
X48590Y-49803D01*
X48985Y-49506D02*
X48985Y-49803D01*
X49856Y-48636D02*
X48985Y-49506D01*
X55127Y-48636D02*
X49856Y-48636D01*
X56102Y-47661D02*
X55127Y-48636D01*
X56102Y-45669D02*
X56102Y-47661D01*
X48168Y-49830D02*
X47244Y-49830D01*
X48195Y-49803D02*
X48168Y-49830D01*
X48590Y-49803D02*
X48195Y-49803D01*
X60657Y-58830D02*
X62992Y-58830D01*
X56102Y-63385D02*
X60657Y-58830D01*
X63916Y-58830D02*
X62992Y-58830D01*
X63943Y-58858D02*
X63916Y-58830D01*
X64338Y-58858D02*
X63943Y-58858D01*
X64338Y-58858D02*
X64338Y-58858D01*
G54D27*
X60799Y-47137D02*
X60787Y-47125D01*
X61239Y-47137D02*
X60799Y-47137D01*
X60511Y-39367D02*
X60511Y-39291D01*
X61055Y-39910D02*
X60511Y-39367D01*
X61055Y-39960D02*
X61055Y-39910D01*
X45078Y-47472D02*
X45078Y-48228D01*
X51346Y-39338D02*
X51377Y-39370D01*
X50590Y-39338D02*
X51346Y-39338D01*
X61239Y-47137D02*
X61239Y-47137D01*
G54D28*
X46456Y-46622D02*
X46456Y-46622D01*
X46456Y-46622D02*
X46456Y-46622D01*
X46456Y-46622D02*
X45078Y-46622D01*
X45078Y-46622D02*
X45078Y-46622D01*
X45078Y-46622D02*
X45078Y-45897D01*
X45078Y-46622D02*
X45078Y-46622D01*
X45078Y-45897D02*
X45078Y-45897D01*
X46204Y-44110D02*
X46811Y-44110D01*
X45173Y-43079D02*
X46204Y-44110D01*
X45078Y-43079D02*
X45173Y-43079D01*
X46811Y-44110D02*
X46811Y-44110D01*
X45078Y-42881D02*
X45078Y-42882D01*
X45078Y-42882D02*
X45078Y-43079D01*
X44984Y-43079D02*
X45078Y-43079D01*
X44633Y-43430D02*
X44984Y-43079D01*
X44633Y-44207D02*
X44633Y-43430D01*
X45078Y-44652D02*
X44633Y-44207D01*
X45078Y-45047D02*
X45078Y-44652D01*
X45078Y-45047D02*
X45078Y-45047D01*
X50590Y-43338D02*
X50590Y-43338D01*
X50086Y-42341D02*
X49855Y-42110D01*
X50086Y-42726D02*
X50086Y-42341D01*
X50303Y-42943D02*
X50086Y-42726D01*
X50590Y-42943D02*
X50303Y-42943D01*
X50590Y-43338D02*
X50590Y-42943D01*
X49855Y-42110D02*
X48857Y-42110D01*
X48857Y-42110D02*
X48857Y-42110D01*
X50145Y-41763D02*
X50590Y-41763D01*
X49855Y-42053D02*
X50145Y-41763D01*
X49855Y-42110D02*
X49855Y-42053D01*
X50590Y-41763D02*
X50590Y-41763D01*
X50590Y-41763D02*
X50590Y-41763D01*
X50000Y-46887D02*
X50000Y-45568D01*
X51096Y-47983D02*
X50000Y-46887D01*
X49460Y-44610D02*
X48857Y-44610D01*
X49460Y-44739D02*
X49460Y-44610D01*
X50000Y-45278D02*
X49460Y-44739D01*
X50000Y-45568D02*
X50000Y-45278D01*
X48857Y-44610D02*
X48857Y-44610D01*
X55118Y-58948D02*
X55118Y-58102D01*
X55118Y-58102D02*
X55118Y-58102D01*
X48857Y-44110D02*
X48857Y-44110D01*
X49811Y-44110D02*
X48857Y-44110D01*
X50000Y-44298D02*
X49811Y-44110D01*
X50000Y-44588D02*
X50000Y-44298D01*
X50000Y-44588D02*
X50000Y-44588D01*
X54692Y-62826D02*
X54692Y-62515D01*
X54133Y-63385D02*
X54692Y-62826D01*
X54692Y-62515D02*
X54692Y-62204D01*
X54693Y-62515D02*
X54693Y-62204D01*
X54692Y-62515D02*
X54693Y-62515D01*
X55085Y-46620D02*
X54133Y-45669D01*
X55118Y-46620D02*
X55085Y-46620D01*
X55118Y-47015D02*
X55118Y-46620D01*
X55118Y-47015D02*
X55118Y-47015D01*
X65188Y-71392D02*
X65188Y-65125D01*
X63779Y-72802D02*
X65188Y-71392D01*
X63779Y-73661D02*
X63779Y-72802D01*
X65188Y-65125D02*
X65188Y-58858D01*
X65188Y-65125D02*
X65188Y-58858D01*
X65188Y-65125D02*
X65188Y-65125D01*
X49409Y-40188D02*
X49409Y-40188D01*
X49409Y-40188D02*
X49409Y-40188D01*
X49409Y-40188D02*
X50590Y-40188D01*
X50590Y-40188D02*
X50590Y-40188D01*
X50590Y-40188D02*
X50590Y-40913D01*
X50590Y-40188D02*
X50590Y-40188D01*
X50590Y-40913D02*
X50590Y-40913D01*
X49460Y-43610D02*
X48857Y-43610D01*
X49584Y-43733D02*
X49460Y-43610D01*
X50944Y-43733D02*
X49584Y-43733D01*
X51042Y-43634D02*
X50944Y-43733D01*
X51042Y-42646D02*
X51042Y-43634D01*
X50885Y-42488D02*
X51042Y-42646D01*
X48857Y-43610D02*
X48857Y-43610D01*
X49460Y-41610D02*
X48857Y-41610D01*
X49724Y-41346D02*
X49460Y-41610D01*
X50922Y-41346D02*
X49724Y-41346D01*
X51035Y-41459D02*
X50922Y-41346D01*
X51035Y-42488D02*
X51035Y-41459D01*
X50885Y-42488D02*
X51035Y-42488D01*
X48857Y-41610D02*
X48857Y-41610D01*
X50590Y-42488D02*
X50590Y-42488D01*
X50590Y-42488D02*
X50885Y-42488D01*
X50590Y-42488D02*
X50590Y-42488D01*
X49440Y-53911D02*
X49440Y-51857D01*
X48357Y-54994D02*
X49440Y-53911D01*
X49440Y-51857D02*
X49440Y-49803D01*
X49440Y-51857D02*
X49440Y-49803D01*
X49440Y-51857D02*
X49440Y-51857D01*
X46811Y-42110D02*
X46811Y-42110D01*
X45078Y-42025D02*
X45078Y-42025D01*
X45483Y-42110D02*
X46811Y-42110D01*
X45398Y-42025D02*
X45483Y-42110D01*
X45078Y-42025D02*
X45398Y-42025D01*
X45078Y-42025D02*
X45078Y-42025D01*
X45078Y-44127D02*
X45078Y-43732D01*
X45561Y-44610D02*
X45078Y-44127D01*
X46811Y-44610D02*
X45561Y-44610D01*
X47414Y-44610D02*
X46811Y-44610D01*
X47434Y-44590D02*
X47414Y-44610D01*
X47434Y-42630D02*
X47434Y-44590D01*
X47414Y-42610D02*
X47434Y-42630D01*
X46811Y-42610D02*
X47414Y-42610D01*
X46811Y-42610D02*
X46811Y-42610D01*
X45078Y-43732D02*
X45078Y-43732D01*
X61076Y-42242D02*
X61076Y-41300D01*
X61576Y-42742D02*
X61076Y-42242D01*
X61576Y-43345D02*
X61576Y-42742D01*
X61576Y-43948D02*
X61576Y-43345D01*
X61480Y-43948D02*
X61576Y-43948D01*
X61188Y-44239D02*
X61480Y-43948D01*
X61188Y-44806D02*
X61188Y-44239D01*
X61189Y-44806D02*
X61189Y-44685D01*
X61188Y-44806D02*
X61189Y-44806D01*
X61988Y-47137D02*
X61989Y-47137D01*
X61076Y-41299D02*
X61076Y-41300D01*
X61188Y-46508D02*
X61188Y-45657D01*
X61231Y-46508D02*
X61188Y-46508D01*
X61681Y-46957D02*
X61231Y-46508D01*
X61681Y-47137D02*
X61681Y-46957D01*
X61988Y-47137D02*
X61681Y-47137D01*
X61188Y-45657D02*
X61188Y-44806D01*
X61189Y-45657D02*
X61189Y-46062D01*
X61188Y-45657D02*
X61189Y-45657D01*
X45078Y-41045D02*
X45078Y-41045D01*
X45353Y-41610D02*
X46811Y-41610D01*
X45078Y-41335D02*
X45353Y-41610D01*
X45078Y-41045D02*
X45078Y-41335D01*
X47414Y-41142D02*
X47986Y-40570D01*
X47414Y-41610D02*
X47414Y-41142D01*
X46811Y-41610D02*
X47414Y-41610D01*
X55963Y-39263D02*
X55118Y-39263D01*
X56069Y-39370D02*
X55963Y-39263D01*
X56464Y-39370D02*
X56069Y-39370D01*
X56464Y-39370D02*
X56464Y-39370D01*
X46208Y-43492D02*
X45850Y-43133D01*
X46208Y-43610D02*
X46208Y-43492D01*
X46811Y-43610D02*
X46208Y-43610D01*
X46811Y-43610D02*
X46811Y-43610D01*
X49643Y-42610D02*
X48857Y-42610D01*
X49691Y-42562D02*
X49643Y-42610D01*
X48857Y-42610D02*
X48857Y-42610D01*
X64733Y-57572D02*
X62992Y-55830D01*
X64733Y-61250D02*
X64733Y-57572D01*
X56692Y-69291D02*
X64733Y-61250D01*
X58374Y-59448D02*
X56692Y-59448D01*
X62992Y-54830D02*
X58374Y-59448D01*
G54D10*
G36*
X47004Y-57341D02*
X46936Y-57369D01*
X46783Y-57522D01*
X46700Y-57722D01*
X46700Y-57933D01*
X45603Y-56836D01*
X45603Y-47746D01*
X45603Y-47584D01*
X45541Y-47522D01*
X45128Y-47522D01*
X45128Y-47884D01*
X45191Y-47947D01*
X45304Y-47947D01*
X45403Y-47947D01*
X45495Y-47909D01*
X45565Y-47838D01*
X45603Y-47746D01*
X45603Y-56836D01*
X44612Y-55846D01*
X44612Y-47860D01*
X44661Y-47909D01*
X44753Y-47947D01*
X44853Y-47947D01*
X44966Y-47947D01*
X45028Y-47884D01*
X45028Y-47522D01*
X45020Y-47522D01*
X45020Y-47422D01*
X45028Y-47422D01*
X45028Y-47414D01*
X45128Y-47414D01*
X45128Y-47422D01*
X45541Y-47422D01*
X45603Y-47359D01*
X45603Y-47197D01*
X45565Y-47105D01*
X45495Y-47035D01*
X45403Y-46997D01*
X45383Y-46997D01*
X45438Y-46974D01*
X45480Y-46932D01*
X45503Y-46877D01*
X45503Y-46842D01*
X46031Y-46842D01*
X46031Y-46876D01*
X46054Y-46932D01*
X46096Y-46974D01*
X46151Y-46997D01*
X46211Y-46997D01*
X46578Y-46997D01*
X46498Y-47077D01*
X46148Y-47077D01*
X46085Y-47103D01*
X46037Y-47150D01*
X46011Y-47213D01*
X46011Y-47280D01*
X46011Y-47730D01*
X46037Y-47793D01*
X46085Y-47841D01*
X46147Y-47867D01*
X46206Y-47867D01*
X46206Y-56043D01*
X46225Y-56138D01*
X46279Y-56220D01*
X46709Y-56649D01*
X46680Y-56718D01*
X46680Y-56942D01*
X46766Y-57149D01*
X46924Y-57308D01*
X47004Y-57341D01*
X47004Y-57341D01*
G37*
G54D29*
X47004Y-57341D02*
X46936Y-57369D01*
X46783Y-57522D01*
X46700Y-57722D01*
X46700Y-57933D01*
X45603Y-56836D01*
X45603Y-47746D01*
X45603Y-47584D01*
X45541Y-47522D01*
X45128Y-47522D01*
X45128Y-47884D01*
X45191Y-47947D01*
X45304Y-47947D01*
X45403Y-47947D01*
X45495Y-47909D01*
X45565Y-47838D01*
X45603Y-47746D01*
X45603Y-56836D01*
X44612Y-55846D01*
X44612Y-47860D01*
X44661Y-47909D01*
X44753Y-47947D01*
X44853Y-47947D01*
X44966Y-47947D01*
X45028Y-47884D01*
X45028Y-47522D01*
X45020Y-47522D01*
X45020Y-47422D01*
X45028Y-47422D01*
X45028Y-47414D01*
X45128Y-47414D01*
X45128Y-47422D01*
X45541Y-47422D01*
X45603Y-47359D01*
X45603Y-47197D01*
X45565Y-47105D01*
X45495Y-47035D01*
X45403Y-46997D01*
X45383Y-46997D01*
X45438Y-46974D01*
X45480Y-46932D01*
X45503Y-46877D01*
X45503Y-46842D01*
X46031Y-46842D01*
X46031Y-46876D01*
X46054Y-46932D01*
X46096Y-46974D01*
X46151Y-46997D01*
X46211Y-46997D01*
X46578Y-46997D01*
X46498Y-47077D01*
X46148Y-47077D01*
X46085Y-47103D01*
X46037Y-47150D01*
X46011Y-47213D01*
X46011Y-47280D01*
X46011Y-47730D01*
X46037Y-47793D01*
X46085Y-47841D01*
X46147Y-47867D01*
X46206Y-47867D01*
X46206Y-56043D01*
X46225Y-56138D01*
X46279Y-56220D01*
X46709Y-56649D01*
X46680Y-56718D01*
X46680Y-56942D01*
X46766Y-57149D01*
X46924Y-57308D01*
X47004Y-57341D01*
G54D10*
G36*
X61004Y-39498D02*
X60942Y-39435D01*
X60780Y-39435D01*
X60688Y-39473D01*
X60618Y-39543D01*
X60586Y-39619D01*
X60574Y-39589D01*
X60526Y-39541D01*
X60463Y-39515D01*
X60396Y-39515D01*
X59946Y-39515D01*
X59883Y-39541D01*
X59835Y-39589D01*
X59809Y-39651D01*
X59809Y-39719D01*
X59809Y-40269D01*
X59835Y-40331D01*
X59883Y-40379D01*
X59945Y-40405D01*
X59954Y-40405D01*
X59954Y-40563D01*
X59899Y-40618D01*
X59845Y-40699D01*
X59838Y-40733D01*
X57789Y-40733D01*
X57789Y-39595D01*
X57789Y-39482D01*
X57727Y-39420D01*
X57364Y-39420D01*
X57364Y-39832D01*
X57427Y-39895D01*
X57589Y-39895D01*
X57681Y-39857D01*
X57751Y-39786D01*
X57789Y-39695D01*
X57789Y-39595D01*
X57789Y-40733D01*
X55238Y-40733D01*
X55389Y-40670D01*
X55524Y-40536D01*
X55598Y-40359D01*
X55598Y-40168D01*
X55525Y-39992D01*
X55390Y-39857D01*
X55214Y-39783D01*
X55023Y-39783D01*
X54846Y-39856D01*
X54711Y-39991D01*
X54638Y-40167D01*
X54638Y-40358D01*
X54710Y-40535D01*
X54845Y-40670D01*
X54997Y-40733D01*
X54314Y-40733D01*
X54218Y-40752D01*
X54137Y-40806D01*
X54137Y-40806D01*
X53721Y-41222D01*
X53721Y-41222D01*
X53714Y-41229D01*
X53645Y-41200D01*
X53421Y-41200D01*
X53214Y-41286D01*
X53055Y-41444D01*
X52969Y-41651D01*
X52969Y-41875D01*
X53055Y-42083D01*
X53213Y-42241D01*
X53232Y-42249D01*
X53232Y-47156D01*
X53224Y-47159D01*
X53065Y-47318D01*
X52979Y-47525D01*
X52979Y-47749D01*
X53065Y-47956D01*
X53223Y-48115D01*
X53430Y-48201D01*
X53654Y-48201D01*
X53862Y-48115D01*
X54020Y-47957D01*
X54049Y-47887D01*
X54311Y-47887D01*
X54465Y-48041D01*
X54466Y-48042D01*
X54547Y-48097D01*
X54642Y-48116D01*
X54673Y-48116D01*
X54673Y-48124D01*
X54698Y-48187D01*
X54746Y-48234D01*
X54809Y-48260D01*
X54876Y-48260D01*
X55191Y-48260D01*
X55036Y-48416D01*
X52947Y-48416D01*
X52947Y-43269D01*
X52865Y-43069D01*
X52712Y-42916D01*
X52512Y-42833D01*
X52296Y-42833D01*
X52096Y-42915D01*
X51943Y-43068D01*
X51860Y-43268D01*
X51860Y-43484D01*
X51943Y-43684D01*
X52095Y-43837D01*
X52295Y-43920D01*
X52511Y-43920D01*
X52711Y-43837D01*
X52864Y-43685D01*
X52947Y-43485D01*
X52947Y-43269D01*
X52947Y-48416D01*
X51929Y-48416D01*
X51929Y-45027D01*
X51877Y-44951D01*
X51877Y-44729D01*
X51731Y-44518D01*
X51516Y-44379D01*
X51313Y-44334D01*
X51221Y-44398D01*
X51315Y-44931D01*
X51848Y-44837D01*
X51877Y-44729D01*
X51877Y-44951D01*
X51866Y-44935D01*
X51332Y-45029D01*
X51426Y-45563D01*
X51535Y-45591D01*
X51745Y-45446D01*
X51884Y-45231D01*
X51929Y-45027D01*
X51929Y-48416D01*
X49857Y-48416D01*
X49856Y-48416D01*
X49772Y-48432D01*
X49700Y-48480D01*
X48830Y-49351D01*
X48812Y-49378D01*
X48786Y-49378D01*
X48336Y-49378D01*
X48280Y-49400D01*
X48238Y-49443D01*
X48215Y-49498D01*
X48215Y-49557D01*
X48215Y-49583D01*
X48195Y-49583D01*
X48111Y-49599D01*
X48095Y-49610D01*
X47741Y-49610D01*
X47705Y-49523D01*
X47552Y-49370D01*
X47352Y-49287D01*
X47136Y-49287D01*
X46936Y-49369D01*
X46783Y-49522D01*
X46706Y-49707D01*
X46706Y-47867D01*
X46765Y-47867D01*
X46827Y-47841D01*
X46875Y-47793D01*
X46901Y-47731D01*
X46901Y-47663D01*
X46901Y-47380D01*
X48401Y-45881D01*
X48455Y-45800D01*
X48474Y-45704D01*
X48474Y-45703D01*
X48474Y-44878D01*
X49293Y-44878D01*
X49305Y-44894D01*
X49748Y-45338D01*
X49722Y-45363D01*
X49700Y-45418D01*
X49699Y-45478D01*
X49699Y-45718D01*
X49722Y-45773D01*
X49764Y-45815D01*
X49780Y-45822D01*
X49780Y-46887D01*
X49796Y-46971D01*
X49844Y-47042D01*
X50721Y-47919D01*
X50720Y-48057D01*
X50777Y-48195D01*
X50883Y-48300D01*
X51021Y-48358D01*
X51170Y-48358D01*
X51308Y-48301D01*
X51413Y-48195D01*
X51470Y-48057D01*
X51471Y-47908D01*
X51414Y-47770D01*
X51328Y-47685D01*
X51328Y-45580D01*
X51234Y-45047D01*
X51217Y-45050D01*
X51217Y-44948D01*
X51123Y-44415D01*
X51014Y-44387D01*
X50804Y-44532D01*
X50665Y-44747D01*
X50620Y-44950D01*
X50683Y-45042D01*
X51217Y-44948D01*
X51217Y-45050D01*
X50701Y-45141D01*
X50672Y-45249D01*
X50818Y-45460D01*
X51033Y-45599D01*
X51236Y-45644D01*
X51328Y-45580D01*
X51328Y-47685D01*
X51308Y-47665D01*
X51170Y-47608D01*
X51031Y-47608D01*
X50220Y-46796D01*
X50220Y-45822D01*
X50234Y-45815D01*
X50277Y-45773D01*
X50299Y-45718D01*
X50300Y-45659D01*
X50300Y-45419D01*
X50277Y-45363D01*
X50235Y-45321D01*
X50220Y-45315D01*
X50220Y-45278D01*
X50203Y-45194D01*
X50155Y-45123D01*
X50155Y-45123D01*
X49891Y-44858D01*
X50179Y-44858D01*
X50234Y-44835D01*
X50277Y-44793D01*
X50299Y-44738D01*
X50300Y-44679D01*
X50300Y-44439D01*
X50277Y-44383D01*
X50235Y-44341D01*
X50220Y-44335D01*
X50220Y-44298D01*
X50203Y-44214D01*
X50203Y-44214D01*
X50155Y-44142D01*
X49967Y-43954D01*
X49965Y-43953D01*
X50944Y-43953D01*
X51028Y-43936D01*
X51028Y-43936D01*
X51099Y-43889D01*
X51198Y-43790D01*
X51198Y-43790D01*
X51246Y-43718D01*
X51262Y-43634D01*
X51262Y-43634D01*
X51262Y-42646D01*
X51246Y-42561D01*
X51242Y-42556D01*
X51255Y-42488D01*
X51255Y-41459D01*
X51239Y-41375D01*
X51239Y-41375D01*
X51191Y-41303D01*
X51078Y-41190D01*
X51015Y-41148D01*
X51015Y-41108D01*
X51015Y-40658D01*
X50992Y-40603D01*
X50950Y-40561D01*
X50925Y-40551D01*
X50950Y-40541D01*
X50992Y-40498D01*
X51015Y-40443D01*
X51015Y-40384D01*
X51015Y-39934D01*
X50992Y-39878D01*
X50950Y-39836D01*
X50895Y-39813D01*
X50865Y-39813D01*
X50915Y-39813D01*
X51007Y-39775D01*
X51077Y-39705D01*
X51115Y-39613D01*
X51115Y-39451D01*
X51053Y-39388D01*
X50640Y-39388D01*
X50640Y-39396D01*
X50540Y-39396D01*
X50540Y-39388D01*
X50128Y-39388D01*
X50065Y-39451D01*
X50065Y-39613D01*
X50103Y-39705D01*
X50173Y-39775D01*
X50265Y-39813D01*
X50285Y-39813D01*
X50285Y-39813D01*
X50230Y-39836D01*
X50188Y-39878D01*
X50165Y-39933D01*
X50165Y-39968D01*
X49834Y-39968D01*
X49834Y-39934D01*
X49811Y-39878D01*
X49769Y-39836D01*
X49714Y-39813D01*
X49654Y-39813D01*
X49287Y-39813D01*
X49367Y-39733D01*
X49718Y-39733D01*
X49780Y-39707D01*
X49828Y-39660D01*
X49854Y-39597D01*
X49854Y-39530D01*
X49854Y-39080D01*
X49828Y-39017D01*
X49782Y-38970D01*
X50104Y-38970D01*
X50103Y-38972D01*
X50065Y-39064D01*
X50065Y-39226D01*
X50128Y-39288D01*
X50540Y-39288D01*
X50540Y-39280D01*
X50640Y-39280D01*
X50640Y-39288D01*
X51053Y-39288D01*
X51115Y-39226D01*
X51115Y-39064D01*
X51077Y-38972D01*
X51076Y-38970D01*
X54732Y-38970D01*
X54711Y-38991D01*
X54638Y-39167D01*
X54638Y-39358D01*
X54710Y-39535D01*
X54845Y-39670D01*
X55022Y-39743D01*
X55213Y-39743D01*
X55389Y-39670D01*
X55524Y-39536D01*
X55546Y-39483D01*
X55872Y-39483D01*
X55914Y-39525D01*
X55914Y-39525D01*
X55985Y-39573D01*
X56069Y-39590D01*
X56089Y-39590D01*
X56089Y-39674D01*
X56112Y-39729D01*
X56154Y-39772D01*
X56209Y-39795D01*
X56269Y-39795D01*
X56719Y-39795D01*
X56774Y-39772D01*
X56816Y-39730D01*
X56839Y-39675D01*
X56839Y-39645D01*
X56839Y-39695D01*
X56877Y-39786D01*
X56948Y-39857D01*
X57040Y-39895D01*
X57202Y-39895D01*
X57264Y-39832D01*
X57264Y-39420D01*
X57256Y-39420D01*
X57256Y-39320D01*
X57264Y-39320D01*
X57264Y-39312D01*
X57364Y-39312D01*
X57364Y-39320D01*
X57727Y-39320D01*
X57789Y-39257D01*
X57789Y-39144D01*
X57789Y-39045D01*
X57758Y-38970D01*
X60496Y-38970D01*
X61004Y-39479D01*
X61004Y-39498D01*
X61004Y-39498D01*
G37*
G54D29*
X61004Y-39498D02*
X60942Y-39435D01*
X60780Y-39435D01*
X60688Y-39473D01*
X60618Y-39543D01*
X60586Y-39619D01*
X60574Y-39589D01*
X60526Y-39541D01*
X60463Y-39515D01*
X60396Y-39515D01*
X59946Y-39515D01*
X59883Y-39541D01*
X59835Y-39589D01*
X59809Y-39651D01*
X59809Y-39719D01*
X59809Y-40269D01*
X59835Y-40331D01*
X59883Y-40379D01*
X59945Y-40405D01*
X59954Y-40405D01*
X59954Y-40563D01*
X59899Y-40618D01*
X59845Y-40699D01*
X59838Y-40733D01*
X57789Y-40733D01*
X57789Y-39595D01*
X57789Y-39482D01*
X57727Y-39420D01*
X57364Y-39420D01*
X57364Y-39832D01*
X57427Y-39895D01*
X57589Y-39895D01*
X57681Y-39857D01*
X57751Y-39786D01*
X57789Y-39695D01*
X57789Y-39595D01*
X57789Y-40733D01*
X55238Y-40733D01*
X55389Y-40670D01*
X55524Y-40536D01*
X55598Y-40359D01*
X55598Y-40168D01*
X55525Y-39992D01*
X55390Y-39857D01*
X55214Y-39783D01*
X55023Y-39783D01*
X54846Y-39856D01*
X54711Y-39991D01*
X54638Y-40167D01*
X54638Y-40358D01*
X54710Y-40535D01*
X54845Y-40670D01*
X54997Y-40733D01*
X54314Y-40733D01*
X54218Y-40752D01*
X54137Y-40806D01*
X54137Y-40806D01*
X53721Y-41222D01*
X53721Y-41222D01*
X53714Y-41229D01*
X53645Y-41200D01*
X53421Y-41200D01*
X53214Y-41286D01*
X53055Y-41444D01*
X52969Y-41651D01*
X52969Y-41875D01*
X53055Y-42083D01*
X53213Y-42241D01*
X53232Y-42249D01*
X53232Y-47156D01*
X53224Y-47159D01*
X53065Y-47318D01*
X52979Y-47525D01*
X52979Y-47749D01*
X53065Y-47956D01*
X53223Y-48115D01*
X53430Y-48201D01*
X53654Y-48201D01*
X53862Y-48115D01*
X54020Y-47957D01*
X54049Y-47887D01*
X54311Y-47887D01*
X54465Y-48041D01*
X54466Y-48042D01*
X54547Y-48097D01*
X54642Y-48116D01*
X54673Y-48116D01*
X54673Y-48124D01*
X54698Y-48187D01*
X54746Y-48234D01*
X54809Y-48260D01*
X54876Y-48260D01*
X55191Y-48260D01*
X55036Y-48416D01*
X52947Y-48416D01*
X52947Y-43269D01*
X52865Y-43069D01*
X52712Y-42916D01*
X52512Y-42833D01*
X52296Y-42833D01*
X52096Y-42915D01*
X51943Y-43068D01*
X51860Y-43268D01*
X51860Y-43484D01*
X51943Y-43684D01*
X52095Y-43837D01*
X52295Y-43920D01*
X52511Y-43920D01*
X52711Y-43837D01*
X52864Y-43685D01*
X52947Y-43485D01*
X52947Y-43269D01*
X52947Y-48416D01*
X51929Y-48416D01*
X51929Y-45027D01*
X51877Y-44951D01*
X51877Y-44729D01*
X51731Y-44518D01*
X51516Y-44379D01*
X51313Y-44334D01*
X51221Y-44398D01*
X51315Y-44931D01*
X51848Y-44837D01*
X51877Y-44729D01*
X51877Y-44951D01*
X51866Y-44935D01*
X51332Y-45029D01*
X51426Y-45563D01*
X51535Y-45591D01*
X51745Y-45446D01*
X51884Y-45231D01*
X51929Y-45027D01*
X51929Y-48416D01*
X49857Y-48416D01*
X49856Y-48416D01*
X49772Y-48432D01*
X49700Y-48480D01*
X48830Y-49351D01*
X48812Y-49378D01*
X48786Y-49378D01*
X48336Y-49378D01*
X48280Y-49400D01*
X48238Y-49443D01*
X48215Y-49498D01*
X48215Y-49557D01*
X48215Y-49583D01*
X48195Y-49583D01*
X48111Y-49599D01*
X48095Y-49610D01*
X47741Y-49610D01*
X47705Y-49523D01*
X47552Y-49370D01*
X47352Y-49287D01*
X47136Y-49287D01*
X46936Y-49369D01*
X46783Y-49522D01*
X46706Y-49707D01*
X46706Y-47867D01*
X46765Y-47867D01*
X46827Y-47841D01*
X46875Y-47793D01*
X46901Y-47731D01*
X46901Y-47663D01*
X46901Y-47380D01*
X48401Y-45881D01*
X48455Y-45800D01*
X48474Y-45704D01*
X48474Y-45703D01*
X48474Y-44878D01*
X49293Y-44878D01*
X49305Y-44894D01*
X49748Y-45338D01*
X49722Y-45363D01*
X49700Y-45418D01*
X49699Y-45478D01*
X49699Y-45718D01*
X49722Y-45773D01*
X49764Y-45815D01*
X49780Y-45822D01*
X49780Y-46887D01*
X49796Y-46971D01*
X49844Y-47042D01*
X50721Y-47919D01*
X50720Y-48057D01*
X50777Y-48195D01*
X50883Y-48300D01*
X51021Y-48358D01*
X51170Y-48358D01*
X51308Y-48301D01*
X51413Y-48195D01*
X51470Y-48057D01*
X51471Y-47908D01*
X51414Y-47770D01*
X51328Y-47685D01*
X51328Y-45580D01*
X51234Y-45047D01*
X51217Y-45050D01*
X51217Y-44948D01*
X51123Y-44415D01*
X51014Y-44387D01*
X50804Y-44532D01*
X50665Y-44747D01*
X50620Y-44950D01*
X50683Y-45042D01*
X51217Y-44948D01*
X51217Y-45050D01*
X50701Y-45141D01*
X50672Y-45249D01*
X50818Y-45460D01*
X51033Y-45599D01*
X51236Y-45644D01*
X51328Y-45580D01*
X51328Y-47685D01*
X51308Y-47665D01*
X51170Y-47608D01*
X51031Y-47608D01*
X50220Y-46796D01*
X50220Y-45822D01*
X50234Y-45815D01*
X50277Y-45773D01*
X50299Y-45718D01*
X50300Y-45659D01*
X50300Y-45419D01*
X50277Y-45363D01*
X50235Y-45321D01*
X50220Y-45315D01*
X50220Y-45278D01*
X50203Y-45194D01*
X50155Y-45123D01*
X50155Y-45123D01*
X49891Y-44858D01*
X50179Y-44858D01*
X50234Y-44835D01*
X50277Y-44793D01*
X50299Y-44738D01*
X50300Y-44679D01*
X50300Y-44439D01*
X50277Y-44383D01*
X50235Y-44341D01*
X50220Y-44335D01*
X50220Y-44298D01*
X50203Y-44214D01*
X50203Y-44214D01*
X50155Y-44142D01*
X49967Y-43954D01*
X49965Y-43953D01*
X50944Y-43953D01*
X51028Y-43936D01*
X51028Y-43936D01*
X51099Y-43889D01*
X51198Y-43790D01*
X51198Y-43790D01*
X51246Y-43718D01*
X51262Y-43634D01*
X51262Y-43634D01*
X51262Y-42646D01*
X51246Y-42561D01*
X51242Y-42556D01*
X51255Y-42488D01*
X51255Y-41459D01*
X51239Y-41375D01*
X51239Y-41375D01*
X51191Y-41303D01*
X51078Y-41190D01*
X51015Y-41148D01*
X51015Y-41108D01*
X51015Y-40658D01*
X50992Y-40603D01*
X50950Y-40561D01*
X50925Y-40551D01*
X50950Y-40541D01*
X50992Y-40498D01*
X51015Y-40443D01*
X51015Y-40384D01*
X51015Y-39934D01*
X50992Y-39878D01*
X50950Y-39836D01*
X50895Y-39813D01*
X50865Y-39813D01*
X50915Y-39813D01*
X51007Y-39775D01*
X51077Y-39705D01*
X51115Y-39613D01*
X51115Y-39451D01*
X51053Y-39388D01*
X50640Y-39388D01*
X50640Y-39396D01*
X50540Y-39396D01*
X50540Y-39388D01*
X50128Y-39388D01*
X50065Y-39451D01*
X50065Y-39613D01*
X50103Y-39705D01*
X50173Y-39775D01*
X50265Y-39813D01*
X50285Y-39813D01*
X50285Y-39813D01*
X50230Y-39836D01*
X50188Y-39878D01*
X50165Y-39933D01*
X50165Y-39968D01*
X49834Y-39968D01*
X49834Y-39934D01*
X49811Y-39878D01*
X49769Y-39836D01*
X49714Y-39813D01*
X49654Y-39813D01*
X49287Y-39813D01*
X49367Y-39733D01*
X49718Y-39733D01*
X49780Y-39707D01*
X49828Y-39660D01*
X49854Y-39597D01*
X49854Y-39530D01*
X49854Y-39080D01*
X49828Y-39017D01*
X49782Y-38970D01*
X50104Y-38970D01*
X50103Y-38972D01*
X50065Y-39064D01*
X50065Y-39226D01*
X50128Y-39288D01*
X50540Y-39288D01*
X50540Y-39280D01*
X50640Y-39280D01*
X50640Y-39288D01*
X51053Y-39288D01*
X51115Y-39226D01*
X51115Y-39064D01*
X51077Y-38972D01*
X51076Y-38970D01*
X54732Y-38970D01*
X54711Y-38991D01*
X54638Y-39167D01*
X54638Y-39358D01*
X54710Y-39535D01*
X54845Y-39670D01*
X55022Y-39743D01*
X55213Y-39743D01*
X55389Y-39670D01*
X55524Y-39536D01*
X55546Y-39483D01*
X55872Y-39483D01*
X55914Y-39525D01*
X55914Y-39525D01*
X55985Y-39573D01*
X56069Y-39590D01*
X56089Y-39590D01*
X56089Y-39674D01*
X56112Y-39729D01*
X56154Y-39772D01*
X56209Y-39795D01*
X56269Y-39795D01*
X56719Y-39795D01*
X56774Y-39772D01*
X56816Y-39730D01*
X56839Y-39675D01*
X56839Y-39645D01*
X56839Y-39695D01*
X56877Y-39786D01*
X56948Y-39857D01*
X57040Y-39895D01*
X57202Y-39895D01*
X57264Y-39832D01*
X57264Y-39420D01*
X57256Y-39420D01*
X57256Y-39320D01*
X57264Y-39320D01*
X57264Y-39312D01*
X57364Y-39312D01*
X57364Y-39320D01*
X57727Y-39320D01*
X57789Y-39257D01*
X57789Y-39144D01*
X57789Y-39045D01*
X57758Y-38970D01*
X60496Y-38970D01*
X61004Y-39479D01*
X61004Y-39498D01*
G54D10*
G36*
X61297Y-47187D02*
X61289Y-47187D01*
X61289Y-47195D01*
X61189Y-47195D01*
X61189Y-47187D01*
X60913Y-47187D01*
X60851Y-47250D01*
X60851Y-47285D01*
X60851Y-47301D01*
X60687Y-47301D01*
X60326Y-46940D01*
X60326Y-43887D01*
X60326Y-43887D01*
X60362Y-43922D01*
X60424Y-43948D01*
X60492Y-43948D01*
X60728Y-43948D01*
X60790Y-43923D01*
X60812Y-43901D01*
X60836Y-43897D01*
X60862Y-43922D01*
X60924Y-43948D01*
X60992Y-43948D01*
X61168Y-43948D01*
X61033Y-44084D01*
X60985Y-44155D01*
X60968Y-44239D01*
X60968Y-44260D01*
X60934Y-44260D01*
X60879Y-44282D01*
X60837Y-44324D01*
X60814Y-44380D01*
X60814Y-44439D01*
X60814Y-44989D01*
X60836Y-45044D01*
X60879Y-45087D01*
X60934Y-45110D01*
X60968Y-45110D01*
X60968Y-45637D01*
X60934Y-45637D01*
X60879Y-45660D01*
X60837Y-45702D01*
X60814Y-45758D01*
X60814Y-45817D01*
X60814Y-46367D01*
X60836Y-46422D01*
X60879Y-46465D01*
X60934Y-46487D01*
X60968Y-46487D01*
X60968Y-46508D01*
X60985Y-46592D01*
X61033Y-46663D01*
X61073Y-46690D01*
X61051Y-46690D01*
X60959Y-46728D01*
X60889Y-46798D01*
X60851Y-46890D01*
X60851Y-46990D01*
X60851Y-47025D01*
X60913Y-47087D01*
X61189Y-47087D01*
X61189Y-47079D01*
X61289Y-47079D01*
X61289Y-47087D01*
X61297Y-47087D01*
X61297Y-47187D01*
X61297Y-47187D01*
G37*
G54D29*
X61297Y-47187D02*
X61289Y-47187D01*
X61289Y-47195D01*
X61189Y-47195D01*
X61189Y-47187D01*
X60913Y-47187D01*
X60851Y-47250D01*
X60851Y-47285D01*
X60851Y-47301D01*
X60687Y-47301D01*
X60326Y-46940D01*
X60326Y-43887D01*
X60326Y-43887D01*
X60362Y-43922D01*
X60424Y-43948D01*
X60492Y-43948D01*
X60728Y-43948D01*
X60790Y-43923D01*
X60812Y-43901D01*
X60836Y-43897D01*
X60862Y-43922D01*
X60924Y-43948D01*
X60992Y-43948D01*
X61168Y-43948D01*
X61033Y-44084D01*
X60985Y-44155D01*
X60968Y-44239D01*
X60968Y-44260D01*
X60934Y-44260D01*
X60879Y-44282D01*
X60837Y-44324D01*
X60814Y-44380D01*
X60814Y-44439D01*
X60814Y-44989D01*
X60836Y-45044D01*
X60879Y-45087D01*
X60934Y-45110D01*
X60968Y-45110D01*
X60968Y-45637D01*
X60934Y-45637D01*
X60879Y-45660D01*
X60837Y-45702D01*
X60814Y-45758D01*
X60814Y-45817D01*
X60814Y-46367D01*
X60836Y-46422D01*
X60879Y-46465D01*
X60934Y-46487D01*
X60968Y-46487D01*
X60968Y-46508D01*
X60985Y-46592D01*
X61033Y-46663D01*
X61073Y-46690D01*
X61051Y-46690D01*
X60959Y-46728D01*
X60889Y-46798D01*
X60851Y-46890D01*
X60851Y-46990D01*
X60851Y-47025D01*
X60913Y-47087D01*
X61189Y-47087D01*
X61189Y-47079D01*
X61289Y-47079D01*
X61289Y-47087D01*
X61297Y-47087D01*
X61297Y-47187D01*
G54D10*
G36*
X61708Y-40182D02*
X61529Y-40360D01*
X61399Y-40490D01*
X61345Y-40571D01*
X61326Y-40666D01*
X61326Y-40758D01*
X61314Y-40770D01*
X61313Y-40773D01*
X61279Y-40739D01*
X61224Y-40716D01*
X61165Y-40716D01*
X60929Y-40716D01*
X60873Y-40739D01*
X60840Y-40773D01*
X60838Y-40770D01*
X60826Y-40758D01*
X60826Y-40666D01*
X60807Y-40571D01*
X60753Y-40490D01*
X60692Y-40449D01*
X60780Y-40485D01*
X60942Y-40485D01*
X61004Y-40423D01*
X61004Y-40010D01*
X60997Y-40010D01*
X60997Y-39910D01*
X61004Y-39910D01*
X61004Y-39902D01*
X61104Y-39902D01*
X61104Y-39910D01*
X61112Y-39910D01*
X61112Y-40010D01*
X61104Y-40010D01*
X61104Y-40423D01*
X61167Y-40485D01*
X61329Y-40485D01*
X61421Y-40447D01*
X61491Y-40377D01*
X61529Y-40285D01*
X61529Y-40186D01*
X61529Y-40073D01*
X61467Y-40010D01*
X61529Y-40010D01*
X61529Y-40004D01*
X61708Y-40182D01*
X61708Y-40182D01*
G37*
G54D29*
X61708Y-40182D02*
X61529Y-40360D01*
X61399Y-40490D01*
X61345Y-40571D01*
X61326Y-40666D01*
X61326Y-40758D01*
X61314Y-40770D01*
X61313Y-40773D01*
X61279Y-40739D01*
X61224Y-40716D01*
X61165Y-40716D01*
X60929Y-40716D01*
X60873Y-40739D01*
X60840Y-40773D01*
X60838Y-40770D01*
X60826Y-40758D01*
X60826Y-40666D01*
X60807Y-40571D01*
X60753Y-40490D01*
X60692Y-40449D01*
X60780Y-40485D01*
X60942Y-40485D01*
X61004Y-40423D01*
X61004Y-40010D01*
X60997Y-40010D01*
X60997Y-39910D01*
X61004Y-39910D01*
X61004Y-39902D01*
X61104Y-39902D01*
X61104Y-39910D01*
X61112Y-39910D01*
X61112Y-40010D01*
X61104Y-40010D01*
X61104Y-40423D01*
X61167Y-40485D01*
X61329Y-40485D01*
X61421Y-40447D01*
X61491Y-40377D01*
X61529Y-40285D01*
X61529Y-40186D01*
X61529Y-40073D01*
X61467Y-40010D01*
X61529Y-40010D01*
X61529Y-40004D01*
X61708Y-40182D01*
G54D10*
G36*
X62428Y-49461D02*
X62428Y-49470D01*
X62428Y-49580D01*
X62398Y-49580D01*
X62398Y-49580D01*
X62379Y-49584D01*
X62302Y-49599D01*
X62221Y-49653D01*
X62221Y-49653D01*
X55922Y-55953D01*
X54191Y-55953D01*
X54191Y-51678D01*
X54181Y-51423D01*
X54101Y-51230D01*
X53996Y-51191D01*
X53926Y-51262D01*
X53926Y-51121D01*
X53887Y-51016D01*
X53647Y-50927D01*
X53391Y-50936D01*
X53199Y-51016D01*
X53160Y-51121D01*
X53543Y-51504D01*
X53926Y-51121D01*
X53926Y-51262D01*
X53614Y-51574D01*
X53996Y-51957D01*
X54101Y-51918D01*
X54191Y-51678D01*
X54191Y-55953D01*
X53926Y-55953D01*
X53926Y-52028D01*
X53543Y-51645D01*
X53472Y-51716D01*
X53472Y-51574D01*
X53089Y-51191D01*
X52984Y-51230D01*
X52895Y-51470D01*
X52904Y-51726D01*
X52984Y-51918D01*
X53089Y-51957D01*
X53472Y-51574D01*
X53472Y-51716D01*
X53160Y-52028D01*
X53199Y-52133D01*
X53439Y-52222D01*
X53695Y-52213D01*
X53887Y-52133D01*
X53926Y-52028D01*
X53926Y-55953D01*
X50464Y-55953D01*
X50369Y-55972D01*
X50288Y-56026D01*
X47807Y-58507D01*
X47807Y-58403D01*
X47781Y-58341D01*
X47734Y-58293D01*
X47671Y-58267D01*
X47603Y-58267D01*
X47576Y-58267D01*
X47704Y-58138D01*
X47787Y-57939D01*
X47787Y-57723D01*
X47751Y-57634D01*
X52313Y-53072D01*
X52313Y-53072D01*
X52361Y-53000D01*
X52378Y-52916D01*
X52378Y-52916D01*
X52378Y-51082D01*
X53347Y-50113D01*
X53434Y-50149D01*
X53650Y-50149D01*
X53850Y-50067D01*
X54003Y-49914D01*
X54086Y-49714D01*
X54086Y-49498D01*
X54004Y-49298D01*
X53851Y-49145D01*
X53651Y-49062D01*
X53435Y-49062D01*
X53235Y-49145D01*
X53082Y-49298D01*
X52999Y-49497D01*
X52999Y-49713D01*
X53036Y-49802D01*
X52002Y-50835D01*
X51955Y-50907D01*
X51938Y-50991D01*
X51938Y-52825D01*
X47891Y-56871D01*
X47891Y-54934D01*
X47891Y-51934D01*
X47882Y-51678D01*
X47802Y-51486D01*
X47697Y-51447D01*
X47314Y-51830D01*
X47697Y-52213D01*
X47802Y-52174D01*
X47891Y-51934D01*
X47891Y-54934D01*
X47882Y-54678D01*
X47802Y-54486D01*
X47697Y-54447D01*
X47314Y-54830D01*
X47697Y-55213D01*
X47802Y-55174D01*
X47891Y-54934D01*
X47891Y-56871D01*
X47798Y-56965D01*
X47807Y-56943D01*
X47807Y-56719D01*
X47722Y-56511D01*
X47563Y-56353D01*
X47483Y-56319D01*
X47551Y-56291D01*
X47704Y-56138D01*
X47787Y-55939D01*
X47787Y-55723D01*
X47705Y-55523D01*
X47576Y-55394D01*
X47588Y-55389D01*
X47626Y-55284D01*
X47244Y-54901D01*
X46861Y-55284D01*
X46900Y-55389D01*
X46912Y-55393D01*
X46783Y-55522D01*
X46706Y-55707D01*
X46706Y-55182D01*
X46790Y-55213D01*
X47173Y-54830D01*
X46790Y-54447D01*
X46706Y-54478D01*
X46706Y-53953D01*
X46783Y-54138D01*
X46911Y-54267D01*
X46900Y-54272D01*
X46861Y-54377D01*
X47244Y-54759D01*
X47626Y-54377D01*
X47588Y-54272D01*
X47575Y-54267D01*
X47704Y-54138D01*
X47787Y-53939D01*
X47787Y-53723D01*
X47705Y-53523D01*
X47552Y-53370D01*
X47457Y-53330D01*
X47551Y-53291D01*
X47704Y-53138D01*
X47787Y-52939D01*
X47787Y-52723D01*
X47705Y-52523D01*
X47576Y-52394D01*
X47588Y-52389D01*
X47626Y-52284D01*
X47244Y-51901D01*
X46861Y-52284D01*
X46900Y-52389D01*
X46912Y-52393D01*
X46783Y-52522D01*
X46706Y-52707D01*
X46706Y-52182D01*
X46790Y-52213D01*
X47173Y-51830D01*
X46790Y-51447D01*
X46706Y-51478D01*
X46706Y-50953D01*
X46783Y-51138D01*
X46911Y-51267D01*
X46900Y-51272D01*
X46861Y-51377D01*
X47244Y-51759D01*
X47626Y-51377D01*
X47588Y-51272D01*
X47575Y-51267D01*
X47704Y-51138D01*
X47787Y-50939D01*
X47787Y-50723D01*
X47705Y-50523D01*
X47552Y-50370D01*
X47457Y-50330D01*
X47551Y-50291D01*
X47704Y-50138D01*
X47741Y-50050D01*
X48168Y-50050D01*
X48215Y-50041D01*
X48215Y-50107D01*
X48238Y-50163D01*
X48280Y-50205D01*
X48335Y-50228D01*
X48395Y-50228D01*
X48845Y-50228D01*
X48900Y-50205D01*
X48942Y-50163D01*
X48965Y-50108D01*
X48965Y-50048D01*
X48965Y-50023D01*
X48985Y-50023D01*
X49065Y-50007D01*
X49065Y-50107D01*
X49088Y-50163D01*
X49130Y-50205D01*
X49185Y-50228D01*
X49220Y-50228D01*
X49220Y-51857D01*
X49220Y-51858D01*
X49220Y-53819D01*
X48420Y-54619D01*
X48282Y-54619D01*
X48144Y-54676D01*
X48039Y-54782D01*
X47982Y-54919D01*
X47982Y-55069D01*
X48038Y-55207D01*
X48144Y-55312D01*
X48282Y-55369D01*
X48431Y-55369D01*
X48569Y-55312D01*
X48674Y-55207D01*
X48732Y-55069D01*
X48732Y-54930D01*
X49595Y-54067D01*
X49596Y-54066D01*
X49644Y-53995D01*
X49660Y-53911D01*
X49660Y-51857D01*
X49660Y-50228D01*
X49695Y-50228D01*
X49750Y-50205D01*
X49792Y-50163D01*
X49815Y-50108D01*
X49815Y-50048D01*
X49815Y-49498D01*
X49792Y-49443D01*
X49750Y-49401D01*
X49695Y-49378D01*
X49636Y-49378D01*
X49425Y-49378D01*
X49947Y-48856D01*
X55127Y-48856D01*
X55211Y-48839D01*
X55211Y-48839D01*
X55283Y-48791D01*
X56122Y-47952D01*
X56134Y-47981D01*
X56239Y-48020D01*
X56622Y-47637D01*
X56616Y-47632D01*
X56687Y-47561D01*
X56692Y-47567D01*
X57075Y-47184D01*
X57036Y-47079D01*
X56797Y-46990D01*
X56541Y-46999D01*
X56348Y-47079D01*
X56322Y-47150D01*
X56322Y-46219D01*
X56437Y-46172D01*
X56604Y-46005D01*
X56695Y-45787D01*
X56695Y-45551D01*
X56605Y-45333D01*
X56438Y-45166D01*
X56322Y-45118D01*
X56322Y-44251D01*
X56437Y-44203D01*
X56604Y-44037D01*
X56695Y-43819D01*
X56695Y-43583D01*
X56645Y-43461D01*
X56645Y-41804D01*
X56111Y-41710D01*
X56048Y-41802D01*
X56112Y-42050D01*
X56267Y-42254D01*
X56442Y-42366D01*
X56551Y-42338D01*
X56645Y-41804D01*
X56645Y-43461D01*
X56605Y-43365D01*
X56438Y-43198D01*
X56220Y-43107D01*
X55984Y-43107D01*
X55766Y-43197D01*
X55600Y-43364D01*
X55509Y-43582D01*
X55509Y-43818D01*
X55599Y-44036D01*
X55766Y-44203D01*
X55882Y-44251D01*
X55882Y-45118D01*
X55766Y-45166D01*
X55600Y-45332D01*
X55509Y-45550D01*
X55509Y-45786D01*
X55599Y-46004D01*
X55766Y-46171D01*
X55882Y-46219D01*
X55882Y-47570D01*
X55563Y-47889D01*
X55563Y-47607D01*
X55537Y-47544D01*
X55489Y-47496D01*
X55427Y-47470D01*
X55359Y-47470D01*
X54809Y-47470D01*
X54746Y-47496D01*
X54699Y-47544D01*
X54692Y-47561D01*
X54591Y-47461D01*
X54510Y-47406D01*
X54414Y-47387D01*
X54049Y-47387D01*
X54021Y-47319D01*
X53862Y-47160D01*
X53732Y-47106D01*
X53732Y-46106D01*
X53797Y-46171D01*
X54015Y-46262D01*
X54251Y-46262D01*
X54367Y-46214D01*
X54799Y-46646D01*
X54758Y-46663D01*
X54716Y-46705D01*
X54693Y-46760D01*
X54693Y-46820D01*
X54693Y-47270D01*
X54715Y-47325D01*
X54758Y-47368D01*
X54813Y-47390D01*
X54872Y-47390D01*
X55422Y-47390D01*
X55477Y-47368D01*
X55520Y-47326D01*
X55543Y-47270D01*
X55543Y-47211D01*
X55543Y-46761D01*
X55520Y-46706D01*
X55478Y-46663D01*
X55423Y-46640D01*
X55363Y-46640D01*
X55338Y-46640D01*
X55338Y-46620D01*
X55321Y-46536D01*
X55273Y-46465D01*
X55202Y-46417D01*
X55191Y-46415D01*
X54678Y-45903D01*
X54726Y-45787D01*
X54726Y-45551D01*
X54636Y-45333D01*
X54470Y-45166D01*
X54252Y-45076D01*
X54016Y-45076D01*
X53798Y-45166D01*
X53732Y-45231D01*
X53732Y-44138D01*
X53797Y-44203D01*
X54015Y-44293D01*
X54251Y-44293D01*
X54469Y-44203D01*
X54636Y-44037D01*
X54726Y-43819D01*
X54726Y-43583D01*
X54636Y-43365D01*
X54470Y-43198D01*
X54252Y-43107D01*
X54016Y-43107D01*
X53798Y-43197D01*
X53732Y-43263D01*
X53732Y-42291D01*
X53851Y-42242D01*
X54010Y-42083D01*
X54096Y-41876D01*
X54096Y-41652D01*
X54068Y-41583D01*
X54075Y-41575D01*
X54075Y-41575D01*
X54075Y-41575D01*
X54417Y-41233D01*
X56338Y-41233D01*
X56212Y-41328D01*
X56100Y-41504D01*
X56129Y-41612D01*
X56662Y-41706D01*
X56745Y-41233D01*
X56847Y-41233D01*
X56760Y-41723D01*
X57294Y-41817D01*
X57357Y-41725D01*
X57293Y-41478D01*
X57138Y-41273D01*
X57075Y-41233D01*
X59788Y-41233D01*
X59788Y-41766D01*
X59814Y-41829D01*
X59862Y-41876D01*
X59924Y-41902D01*
X59992Y-41902D01*
X60228Y-41902D01*
X60290Y-41877D01*
X60326Y-41841D01*
X60362Y-41876D01*
X60424Y-41902D01*
X60492Y-41902D01*
X60728Y-41902D01*
X60790Y-41877D01*
X60838Y-41829D01*
X60840Y-41826D01*
X60856Y-41842D01*
X60856Y-42242D01*
X60873Y-42326D01*
X60921Y-42398D01*
X61341Y-42818D01*
X61340Y-42819D01*
X61338Y-42816D01*
X61291Y-42768D01*
X61228Y-42742D01*
X61161Y-42742D01*
X60925Y-42742D01*
X60862Y-42768D01*
X60826Y-42804D01*
X60826Y-42712D01*
X60807Y-42616D01*
X60753Y-42535D01*
X60672Y-42481D01*
X60576Y-42462D01*
X59565Y-42462D01*
X59564Y-42462D01*
X59564Y-42462D01*
X59519Y-42471D01*
X59494Y-42476D01*
X59474Y-42426D01*
X59426Y-42378D01*
X59396Y-42366D01*
X59471Y-42334D01*
X59542Y-42264D01*
X59580Y-42172D01*
X59580Y-41623D01*
X59542Y-41531D01*
X59471Y-41461D01*
X59380Y-41422D01*
X59280Y-41422D01*
X59167Y-41422D01*
X59105Y-41485D01*
X59105Y-41847D01*
X59517Y-41847D01*
X59580Y-41785D01*
X59580Y-41623D01*
X59580Y-42172D01*
X59580Y-42010D01*
X59517Y-41947D01*
X59105Y-41947D01*
X59105Y-41955D01*
X59005Y-41955D01*
X59005Y-41947D01*
X59005Y-41847D01*
X59005Y-41485D01*
X58942Y-41422D01*
X58829Y-41422D01*
X58730Y-41422D01*
X58638Y-41461D01*
X58568Y-41531D01*
X58530Y-41623D01*
X58530Y-41785D01*
X58592Y-41847D01*
X59005Y-41847D01*
X59005Y-41947D01*
X58592Y-41947D01*
X58530Y-42010D01*
X58530Y-42172D01*
X58568Y-42264D01*
X58638Y-42334D01*
X58714Y-42366D01*
X58683Y-42378D01*
X58636Y-42426D01*
X58610Y-42488D01*
X58610Y-42556D01*
X58610Y-43006D01*
X58635Y-43069D01*
X58683Y-43116D01*
X58746Y-43142D01*
X58805Y-43142D01*
X58805Y-44444D01*
X58642Y-44511D01*
X58483Y-44669D01*
X58397Y-44876D01*
X58397Y-45100D01*
X58483Y-45308D01*
X58641Y-45466D01*
X58711Y-45495D01*
X58711Y-46133D01*
X58375Y-46469D01*
X58375Y-43269D01*
X58293Y-43069D01*
X58140Y-42916D01*
X57940Y-42833D01*
X57724Y-42833D01*
X57524Y-42915D01*
X57371Y-43068D01*
X57305Y-43228D01*
X57305Y-42024D01*
X57276Y-41916D01*
X56743Y-41822D01*
X56649Y-42355D01*
X56741Y-42419D01*
X56989Y-42354D01*
X57193Y-42200D01*
X57305Y-42024D01*
X57305Y-43228D01*
X57288Y-43268D01*
X57288Y-43484D01*
X57371Y-43684D01*
X57523Y-43837D01*
X57723Y-43920D01*
X57939Y-43920D01*
X58139Y-43837D01*
X58292Y-43685D01*
X58375Y-43485D01*
X58375Y-43269D01*
X58375Y-46469D01*
X57332Y-47512D01*
X57331Y-47486D01*
X57251Y-47293D01*
X57146Y-47254D01*
X56763Y-47637D01*
X56769Y-47643D01*
X56698Y-47714D01*
X56692Y-47708D01*
X56310Y-48091D01*
X56348Y-48196D01*
X56567Y-48277D01*
X55911Y-48933D01*
X55857Y-49014D01*
X55838Y-49109D01*
X55838Y-50970D01*
X55857Y-51066D01*
X55911Y-51147D01*
X56158Y-51393D01*
X56129Y-51462D01*
X56129Y-51686D01*
X56214Y-51893D01*
X56373Y-52052D01*
X56580Y-52138D01*
X56804Y-52138D01*
X57011Y-52052D01*
X57170Y-51894D01*
X57256Y-51687D01*
X57256Y-51463D01*
X57170Y-51256D01*
X57012Y-51097D01*
X56805Y-51011D01*
X56581Y-51011D01*
X56511Y-51039D01*
X56338Y-50866D01*
X56338Y-50020D01*
X56384Y-50066D01*
X56584Y-50149D01*
X56800Y-50149D01*
X57000Y-50067D01*
X57153Y-49914D01*
X57236Y-49714D01*
X57236Y-49498D01*
X57221Y-49461D01*
X62428Y-49461D01*
X62428Y-49461D01*
G37*
G54D29*
X62428Y-49461D02*
X62428Y-49470D01*
X62428Y-49580D01*
X62398Y-49580D01*
X62398Y-49580D01*
X62379Y-49584D01*
X62302Y-49599D01*
X62221Y-49653D01*
X62221Y-49653D01*
X55922Y-55953D01*
X54191Y-55953D01*
X54191Y-51678D01*
X54181Y-51423D01*
X54101Y-51230D01*
X53996Y-51191D01*
X53926Y-51262D01*
X53926Y-51121D01*
X53887Y-51016D01*
X53647Y-50927D01*
X53391Y-50936D01*
X53199Y-51016D01*
X53160Y-51121D01*
X53543Y-51504D01*
X53926Y-51121D01*
X53926Y-51262D01*
X53614Y-51574D01*
X53996Y-51957D01*
X54101Y-51918D01*
X54191Y-51678D01*
X54191Y-55953D01*
X53926Y-55953D01*
X53926Y-52028D01*
X53543Y-51645D01*
X53472Y-51716D01*
X53472Y-51574D01*
X53089Y-51191D01*
X52984Y-51230D01*
X52895Y-51470D01*
X52904Y-51726D01*
X52984Y-51918D01*
X53089Y-51957D01*
X53472Y-51574D01*
X53472Y-51716D01*
X53160Y-52028D01*
X53199Y-52133D01*
X53439Y-52222D01*
X53695Y-52213D01*
X53887Y-52133D01*
X53926Y-52028D01*
X53926Y-55953D01*
X50464Y-55953D01*
X50369Y-55972D01*
X50288Y-56026D01*
X47807Y-58507D01*
X47807Y-58403D01*
X47781Y-58341D01*
X47734Y-58293D01*
X47671Y-58267D01*
X47603Y-58267D01*
X47576Y-58267D01*
X47704Y-58138D01*
X47787Y-57939D01*
X47787Y-57723D01*
X47751Y-57634D01*
X52313Y-53072D01*
X52313Y-53072D01*
X52361Y-53000D01*
X52378Y-52916D01*
X52378Y-52916D01*
X52378Y-51082D01*
X53347Y-50113D01*
X53434Y-50149D01*
X53650Y-50149D01*
X53850Y-50067D01*
X54003Y-49914D01*
X54086Y-49714D01*
X54086Y-49498D01*
X54004Y-49298D01*
X53851Y-49145D01*
X53651Y-49062D01*
X53435Y-49062D01*
X53235Y-49145D01*
X53082Y-49298D01*
X52999Y-49497D01*
X52999Y-49713D01*
X53036Y-49802D01*
X52002Y-50835D01*
X51955Y-50907D01*
X51938Y-50991D01*
X51938Y-52825D01*
X47891Y-56871D01*
X47891Y-54934D01*
X47891Y-51934D01*
X47882Y-51678D01*
X47802Y-51486D01*
X47697Y-51447D01*
X47314Y-51830D01*
X47697Y-52213D01*
X47802Y-52174D01*
X47891Y-51934D01*
X47891Y-54934D01*
X47882Y-54678D01*
X47802Y-54486D01*
X47697Y-54447D01*
X47314Y-54830D01*
X47697Y-55213D01*
X47802Y-55174D01*
X47891Y-54934D01*
X47891Y-56871D01*
X47798Y-56965D01*
X47807Y-56943D01*
X47807Y-56719D01*
X47722Y-56511D01*
X47563Y-56353D01*
X47483Y-56319D01*
X47551Y-56291D01*
X47704Y-56138D01*
X47787Y-55939D01*
X47787Y-55723D01*
X47705Y-55523D01*
X47576Y-55394D01*
X47588Y-55389D01*
X47626Y-55284D01*
X47244Y-54901D01*
X46861Y-55284D01*
X46900Y-55389D01*
X46912Y-55393D01*
X46783Y-55522D01*
X46706Y-55707D01*
X46706Y-55182D01*
X46790Y-55213D01*
X47173Y-54830D01*
X46790Y-54447D01*
X46706Y-54478D01*
X46706Y-53953D01*
X46783Y-54138D01*
X46911Y-54267D01*
X46900Y-54272D01*
X46861Y-54377D01*
X47244Y-54759D01*
X47626Y-54377D01*
X47588Y-54272D01*
X47575Y-54267D01*
X47704Y-54138D01*
X47787Y-53939D01*
X47787Y-53723D01*
X47705Y-53523D01*
X47552Y-53370D01*
X47457Y-53330D01*
X47551Y-53291D01*
X47704Y-53138D01*
X47787Y-52939D01*
X47787Y-52723D01*
X47705Y-52523D01*
X47576Y-52394D01*
X47588Y-52389D01*
X47626Y-52284D01*
X47244Y-51901D01*
X46861Y-52284D01*
X46900Y-52389D01*
X46912Y-52393D01*
X46783Y-52522D01*
X46706Y-52707D01*
X46706Y-52182D01*
X46790Y-52213D01*
X47173Y-51830D01*
X46790Y-51447D01*
X46706Y-51478D01*
X46706Y-50953D01*
X46783Y-51138D01*
X46911Y-51267D01*
X46900Y-51272D01*
X46861Y-51377D01*
X47244Y-51759D01*
X47626Y-51377D01*
X47588Y-51272D01*
X47575Y-51267D01*
X47704Y-51138D01*
X47787Y-50939D01*
X47787Y-50723D01*
X47705Y-50523D01*
X47552Y-50370D01*
X47457Y-50330D01*
X47551Y-50291D01*
X47704Y-50138D01*
X47741Y-50050D01*
X48168Y-50050D01*
X48215Y-50041D01*
X48215Y-50107D01*
X48238Y-50163D01*
X48280Y-50205D01*
X48335Y-50228D01*
X48395Y-50228D01*
X48845Y-50228D01*
X48900Y-50205D01*
X48942Y-50163D01*
X48965Y-50108D01*
X48965Y-50048D01*
X48965Y-50023D01*
X48985Y-50023D01*
X49065Y-50007D01*
X49065Y-50107D01*
X49088Y-50163D01*
X49130Y-50205D01*
X49185Y-50228D01*
X49220Y-50228D01*
X49220Y-51857D01*
X49220Y-51858D01*
X49220Y-53819D01*
X48420Y-54619D01*
X48282Y-54619D01*
X48144Y-54676D01*
X48039Y-54782D01*
X47982Y-54919D01*
X47982Y-55069D01*
X48038Y-55207D01*
X48144Y-55312D01*
X48282Y-55369D01*
X48431Y-55369D01*
X48569Y-55312D01*
X48674Y-55207D01*
X48732Y-55069D01*
X48732Y-54930D01*
X49595Y-54067D01*
X49596Y-54066D01*
X49644Y-53995D01*
X49660Y-53911D01*
X49660Y-51857D01*
X49660Y-50228D01*
X49695Y-50228D01*
X49750Y-50205D01*
X49792Y-50163D01*
X49815Y-50108D01*
X49815Y-50048D01*
X49815Y-49498D01*
X49792Y-49443D01*
X49750Y-49401D01*
X49695Y-49378D01*
X49636Y-49378D01*
X49425Y-49378D01*
X49947Y-48856D01*
X55127Y-48856D01*
X55211Y-48839D01*
X55211Y-48839D01*
X55283Y-48791D01*
X56122Y-47952D01*
X56134Y-47981D01*
X56239Y-48020D01*
X56622Y-47637D01*
X56616Y-47632D01*
X56687Y-47561D01*
X56692Y-47567D01*
X57075Y-47184D01*
X57036Y-47079D01*
X56797Y-46990D01*
X56541Y-46999D01*
X56348Y-47079D01*
X56322Y-47150D01*
X56322Y-46219D01*
X56437Y-46172D01*
X56604Y-46005D01*
X56695Y-45787D01*
X56695Y-45551D01*
X56605Y-45333D01*
X56438Y-45166D01*
X56322Y-45118D01*
X56322Y-44251D01*
X56437Y-44203D01*
X56604Y-44037D01*
X56695Y-43819D01*
X56695Y-43583D01*
X56645Y-43461D01*
X56645Y-41804D01*
X56111Y-41710D01*
X56048Y-41802D01*
X56112Y-42050D01*
X56267Y-42254D01*
X56442Y-42366D01*
X56551Y-42338D01*
X56645Y-41804D01*
X56645Y-43461D01*
X56605Y-43365D01*
X56438Y-43198D01*
X56220Y-43107D01*
X55984Y-43107D01*
X55766Y-43197D01*
X55600Y-43364D01*
X55509Y-43582D01*
X55509Y-43818D01*
X55599Y-44036D01*
X55766Y-44203D01*
X55882Y-44251D01*
X55882Y-45118D01*
X55766Y-45166D01*
X55600Y-45332D01*
X55509Y-45550D01*
X55509Y-45786D01*
X55599Y-46004D01*
X55766Y-46171D01*
X55882Y-46219D01*
X55882Y-47570D01*
X55563Y-47889D01*
X55563Y-47607D01*
X55537Y-47544D01*
X55489Y-47496D01*
X55427Y-47470D01*
X55359Y-47470D01*
X54809Y-47470D01*
X54746Y-47496D01*
X54699Y-47544D01*
X54692Y-47561D01*
X54591Y-47461D01*
X54510Y-47406D01*
X54414Y-47387D01*
X54049Y-47387D01*
X54021Y-47319D01*
X53862Y-47160D01*
X53732Y-47106D01*
X53732Y-46106D01*
X53797Y-46171D01*
X54015Y-46262D01*
X54251Y-46262D01*
X54367Y-46214D01*
X54799Y-46646D01*
X54758Y-46663D01*
X54716Y-46705D01*
X54693Y-46760D01*
X54693Y-46820D01*
X54693Y-47270D01*
X54715Y-47325D01*
X54758Y-47368D01*
X54813Y-47390D01*
X54872Y-47390D01*
X55422Y-47390D01*
X55477Y-47368D01*
X55520Y-47326D01*
X55543Y-47270D01*
X55543Y-47211D01*
X55543Y-46761D01*
X55520Y-46706D01*
X55478Y-46663D01*
X55423Y-46640D01*
X55363Y-46640D01*
X55338Y-46640D01*
X55338Y-46620D01*
X55321Y-46536D01*
X55273Y-46465D01*
X55202Y-46417D01*
X55191Y-46415D01*
X54678Y-45903D01*
X54726Y-45787D01*
X54726Y-45551D01*
X54636Y-45333D01*
X54470Y-45166D01*
X54252Y-45076D01*
X54016Y-45076D01*
X53798Y-45166D01*
X53732Y-45231D01*
X53732Y-44138D01*
X53797Y-44203D01*
X54015Y-44293D01*
X54251Y-44293D01*
X54469Y-44203D01*
X54636Y-44037D01*
X54726Y-43819D01*
X54726Y-43583D01*
X54636Y-43365D01*
X54470Y-43198D01*
X54252Y-43107D01*
X54016Y-43107D01*
X53798Y-43197D01*
X53732Y-43263D01*
X53732Y-42291D01*
X53851Y-42242D01*
X54010Y-42083D01*
X54096Y-41876D01*
X54096Y-41652D01*
X54068Y-41583D01*
X54075Y-41575D01*
X54075Y-41575D01*
X54075Y-41575D01*
X54417Y-41233D01*
X56338Y-41233D01*
X56212Y-41328D01*
X56100Y-41504D01*
X56129Y-41612D01*
X56662Y-41706D01*
X56745Y-41233D01*
X56847Y-41233D01*
X56760Y-41723D01*
X57294Y-41817D01*
X57357Y-41725D01*
X57293Y-41478D01*
X57138Y-41273D01*
X57075Y-41233D01*
X59788Y-41233D01*
X59788Y-41766D01*
X59814Y-41829D01*
X59862Y-41876D01*
X59924Y-41902D01*
X59992Y-41902D01*
X60228Y-41902D01*
X60290Y-41877D01*
X60326Y-41841D01*
X60362Y-41876D01*
X60424Y-41902D01*
X60492Y-41902D01*
X60728Y-41902D01*
X60790Y-41877D01*
X60838Y-41829D01*
X60840Y-41826D01*
X60856Y-41842D01*
X60856Y-42242D01*
X60873Y-42326D01*
X60921Y-42398D01*
X61341Y-42818D01*
X61340Y-42819D01*
X61338Y-42816D01*
X61291Y-42768D01*
X61228Y-42742D01*
X61161Y-42742D01*
X60925Y-42742D01*
X60862Y-42768D01*
X60826Y-42804D01*
X60826Y-42712D01*
X60807Y-42616D01*
X60753Y-42535D01*
X60672Y-42481D01*
X60576Y-42462D01*
X59565Y-42462D01*
X59564Y-42462D01*
X59564Y-42462D01*
X59519Y-42471D01*
X59494Y-42476D01*
X59474Y-42426D01*
X59426Y-42378D01*
X59396Y-42366D01*
X59471Y-42334D01*
X59542Y-42264D01*
X59580Y-42172D01*
X59580Y-41623D01*
X59542Y-41531D01*
X59471Y-41461D01*
X59380Y-41422D01*
X59280Y-41422D01*
X59167Y-41422D01*
X59105Y-41485D01*
X59105Y-41847D01*
X59517Y-41847D01*
X59580Y-41785D01*
X59580Y-41623D01*
X59580Y-42172D01*
X59580Y-42010D01*
X59517Y-41947D01*
X59105Y-41947D01*
X59105Y-41955D01*
X59005Y-41955D01*
X59005Y-41947D01*
X59005Y-41847D01*
X59005Y-41485D01*
X58942Y-41422D01*
X58829Y-41422D01*
X58730Y-41422D01*
X58638Y-41461D01*
X58568Y-41531D01*
X58530Y-41623D01*
X58530Y-41785D01*
X58592Y-41847D01*
X59005Y-41847D01*
X59005Y-41947D01*
X58592Y-41947D01*
X58530Y-42010D01*
X58530Y-42172D01*
X58568Y-42264D01*
X58638Y-42334D01*
X58714Y-42366D01*
X58683Y-42378D01*
X58636Y-42426D01*
X58610Y-42488D01*
X58610Y-42556D01*
X58610Y-43006D01*
X58635Y-43069D01*
X58683Y-43116D01*
X58746Y-43142D01*
X58805Y-43142D01*
X58805Y-44444D01*
X58642Y-44511D01*
X58483Y-44669D01*
X58397Y-44876D01*
X58397Y-45100D01*
X58483Y-45308D01*
X58641Y-45466D01*
X58711Y-45495D01*
X58711Y-46133D01*
X58375Y-46469D01*
X58375Y-43269D01*
X58293Y-43069D01*
X58140Y-42916D01*
X57940Y-42833D01*
X57724Y-42833D01*
X57524Y-42915D01*
X57371Y-43068D01*
X57305Y-43228D01*
X57305Y-42024D01*
X57276Y-41916D01*
X56743Y-41822D01*
X56649Y-42355D01*
X56741Y-42419D01*
X56989Y-42354D01*
X57193Y-42200D01*
X57305Y-42024D01*
X57305Y-43228D01*
X57288Y-43268D01*
X57288Y-43484D01*
X57371Y-43684D01*
X57523Y-43837D01*
X57723Y-43920D01*
X57939Y-43920D01*
X58139Y-43837D01*
X58292Y-43685D01*
X58375Y-43485D01*
X58375Y-43269D01*
X58375Y-46469D01*
X57332Y-47512D01*
X57331Y-47486D01*
X57251Y-47293D01*
X57146Y-47254D01*
X56763Y-47637D01*
X56769Y-47643D01*
X56698Y-47714D01*
X56692Y-47708D01*
X56310Y-48091D01*
X56348Y-48196D01*
X56567Y-48277D01*
X55911Y-48933D01*
X55857Y-49014D01*
X55838Y-49109D01*
X55838Y-50970D01*
X55857Y-51066D01*
X55911Y-51147D01*
X56158Y-51393D01*
X56129Y-51462D01*
X56129Y-51686D01*
X56214Y-51893D01*
X56373Y-52052D01*
X56580Y-52138D01*
X56804Y-52138D01*
X57011Y-52052D01*
X57170Y-51894D01*
X57256Y-51687D01*
X57256Y-51463D01*
X57170Y-51256D01*
X57012Y-51097D01*
X56805Y-51011D01*
X56581Y-51011D01*
X56511Y-51039D01*
X56338Y-50866D01*
X56338Y-50020D01*
X56384Y-50066D01*
X56584Y-50149D01*
X56800Y-50149D01*
X57000Y-50067D01*
X57153Y-49914D01*
X57236Y-49714D01*
X57236Y-49498D01*
X57221Y-49461D01*
X62428Y-49461D01*
G54D10*
G36*
X66365Y-77586D02*
X66273Y-77586D01*
X66273Y-75935D01*
X66273Y-75640D01*
X66273Y-75540D01*
X66273Y-75245D01*
X66205Y-75002D01*
X66049Y-74804D01*
X65830Y-74681D01*
X65779Y-74669D01*
X65679Y-74716D01*
X65679Y-75540D01*
X66273Y-75540D01*
X66273Y-75640D01*
X65679Y-75640D01*
X65679Y-76464D01*
X65779Y-76511D01*
X65830Y-76499D01*
X66049Y-76376D01*
X66205Y-76178D01*
X66273Y-75935D01*
X66273Y-77586D01*
X65579Y-77586D01*
X65579Y-76464D01*
X65579Y-75640D01*
X65579Y-75540D01*
X65579Y-74716D01*
X65563Y-74708D01*
X65563Y-59103D01*
X65563Y-58553D01*
X65541Y-58498D01*
X65517Y-58475D01*
X65517Y-44804D01*
X65517Y-43804D01*
X65508Y-43549D01*
X65428Y-43356D01*
X65323Y-43317D01*
X65252Y-43388D01*
X65252Y-43247D01*
X65235Y-43200D01*
X65252Y-43154D01*
X64870Y-42771D01*
X64799Y-42842D01*
X64487Y-43154D01*
X64504Y-43200D01*
X64487Y-43247D01*
X64870Y-43630D01*
X65252Y-43247D01*
X65252Y-43388D01*
X64940Y-43700D01*
X65323Y-44083D01*
X65428Y-44044D01*
X65517Y-43804D01*
X65517Y-44804D01*
X65508Y-44549D01*
X65428Y-44356D01*
X65323Y-44317D01*
X65252Y-44388D01*
X65252Y-44247D01*
X65235Y-44200D01*
X65252Y-44154D01*
X64870Y-43771D01*
X64799Y-43842D01*
X64799Y-43700D01*
X64416Y-43317D01*
X64370Y-43335D01*
X64323Y-43317D01*
X64252Y-43388D01*
X64252Y-43247D01*
X64235Y-43200D01*
X64252Y-43154D01*
X63870Y-42771D01*
X63799Y-42842D01*
X63799Y-42700D01*
X63416Y-42317D01*
X63311Y-42356D01*
X63222Y-42596D01*
X63231Y-42852D01*
X63311Y-43044D01*
X63416Y-43083D01*
X63799Y-42700D01*
X63799Y-42842D01*
X63487Y-43154D01*
X63504Y-43200D01*
X63487Y-43247D01*
X63870Y-43630D01*
X64252Y-43247D01*
X64252Y-43388D01*
X63940Y-43700D01*
X64323Y-44083D01*
X64370Y-44066D01*
X64416Y-44083D01*
X64799Y-43700D01*
X64799Y-43842D01*
X64487Y-44154D01*
X64504Y-44200D01*
X64487Y-44247D01*
X64870Y-44630D01*
X65252Y-44247D01*
X65252Y-44388D01*
X64940Y-44700D01*
X65323Y-45083D01*
X65428Y-45044D01*
X65517Y-44804D01*
X65517Y-58475D01*
X65498Y-58456D01*
X65443Y-58433D01*
X65384Y-58433D01*
X65294Y-58433D01*
X65294Y-47713D01*
X65282Y-47504D01*
X65224Y-47364D01*
X65131Y-47340D01*
X65061Y-47410D01*
X64834Y-47637D01*
X65131Y-47935D01*
X65224Y-47910D01*
X65294Y-47713D01*
X65294Y-58433D01*
X65061Y-58433D01*
X64953Y-58433D01*
X64953Y-57572D01*
X64953Y-57572D01*
X64937Y-57488D01*
X64889Y-57416D01*
X64889Y-57416D01*
X63639Y-56167D01*
X63639Y-53934D01*
X63630Y-53678D01*
X63550Y-53486D01*
X63445Y-53447D01*
X63062Y-53830D01*
X63445Y-54213D01*
X63550Y-54174D01*
X63639Y-53934D01*
X63639Y-56167D01*
X63499Y-56026D01*
X63535Y-55939D01*
X63535Y-55723D01*
X63453Y-55523D01*
X63300Y-55370D01*
X63205Y-55330D01*
X63299Y-55291D01*
X63452Y-55138D01*
X63535Y-54939D01*
X63535Y-54723D01*
X63453Y-54523D01*
X63324Y-54394D01*
X63336Y-54389D01*
X63375Y-54284D01*
X62992Y-53901D01*
X62921Y-53972D01*
X62921Y-53830D01*
X62538Y-53447D01*
X62433Y-53486D01*
X62344Y-53726D01*
X62353Y-53982D01*
X62433Y-54174D01*
X62538Y-54213D01*
X62921Y-53830D01*
X62921Y-53972D01*
X62609Y-54284D01*
X62648Y-54389D01*
X62660Y-54393D01*
X62531Y-54522D01*
X62448Y-54722D01*
X62448Y-54938D01*
X62485Y-55026D01*
X58282Y-59228D01*
X57340Y-59228D01*
X57340Y-57584D01*
X57331Y-57328D01*
X57251Y-57136D01*
X57146Y-57097D01*
X57075Y-57168D01*
X57075Y-57026D01*
X57036Y-56921D01*
X56797Y-56832D01*
X56541Y-56841D01*
X56348Y-56921D01*
X56310Y-57026D01*
X56692Y-57409D01*
X57075Y-57026D01*
X57075Y-57168D01*
X56763Y-57480D01*
X57146Y-57863D01*
X57251Y-57824D01*
X57340Y-57584D01*
X57340Y-59228D01*
X57190Y-59228D01*
X57153Y-59141D01*
X57075Y-59063D01*
X57075Y-57933D01*
X56692Y-57551D01*
X56622Y-57621D01*
X56622Y-57480D01*
X56239Y-57097D01*
X56134Y-57136D01*
X56045Y-57376D01*
X56054Y-57632D01*
X56134Y-57824D01*
X56239Y-57863D01*
X56622Y-57480D01*
X56622Y-57621D01*
X56310Y-57933D01*
X56348Y-58038D01*
X56588Y-58128D01*
X56844Y-58118D01*
X57036Y-58038D01*
X57075Y-57933D01*
X57075Y-59063D01*
X57001Y-58988D01*
X56801Y-58905D01*
X56585Y-58905D01*
X56385Y-58987D01*
X56232Y-59140D01*
X56149Y-59340D01*
X56149Y-59556D01*
X56231Y-59756D01*
X56384Y-59909D01*
X56584Y-59992D01*
X56800Y-59992D01*
X57000Y-59909D01*
X57153Y-59757D01*
X57190Y-59668D01*
X58374Y-59668D01*
X58458Y-59652D01*
X58458Y-59652D01*
X58529Y-59604D01*
X62474Y-55659D01*
X62448Y-55722D01*
X62448Y-55938D01*
X62531Y-56138D01*
X62659Y-56267D01*
X62648Y-56272D01*
X62609Y-56377D01*
X62992Y-56759D01*
X62997Y-56754D01*
X63068Y-56825D01*
X63062Y-56830D01*
X63445Y-57213D01*
X63550Y-57174D01*
X63639Y-56934D01*
X63634Y-56784D01*
X64513Y-57663D01*
X64513Y-58433D01*
X64084Y-58433D01*
X64028Y-58456D01*
X63986Y-58498D01*
X63963Y-58553D01*
X63963Y-58612D01*
X63963Y-58620D01*
X63916Y-58610D01*
X63489Y-58610D01*
X63453Y-58523D01*
X63300Y-58370D01*
X63205Y-58330D01*
X63299Y-58291D01*
X63452Y-58138D01*
X63535Y-57939D01*
X63535Y-57723D01*
X63453Y-57523D01*
X63324Y-57394D01*
X63336Y-57389D01*
X63375Y-57284D01*
X62992Y-56901D01*
X62921Y-56972D01*
X62921Y-56830D01*
X62538Y-56447D01*
X62433Y-56486D01*
X62344Y-56726D01*
X62353Y-56982D01*
X62433Y-57174D01*
X62538Y-57213D01*
X62921Y-56830D01*
X62921Y-56972D01*
X62609Y-57284D01*
X62648Y-57389D01*
X62660Y-57393D01*
X62531Y-57522D01*
X62448Y-57722D01*
X62448Y-57938D01*
X62531Y-58138D01*
X62683Y-58291D01*
X62778Y-58330D01*
X62684Y-58369D01*
X62531Y-58522D01*
X62494Y-58610D01*
X60657Y-58610D01*
X60573Y-58627D01*
X60501Y-58675D01*
X56336Y-62840D01*
X56220Y-62793D01*
X55984Y-62792D01*
X55766Y-62882D01*
X55687Y-62962D01*
X55687Y-62889D01*
X55720Y-62856D01*
X55720Y-62856D01*
X55720Y-62856D01*
X55774Y-62775D01*
X55774Y-62775D01*
X55793Y-62679D01*
X55793Y-62649D01*
X55801Y-62649D01*
X55864Y-62623D01*
X55912Y-62576D01*
X55938Y-62513D01*
X55938Y-62454D01*
X55968Y-62454D01*
X56063Y-62435D01*
X56144Y-62381D01*
X56199Y-62300D01*
X56207Y-62255D01*
X56511Y-61952D01*
X56580Y-61980D01*
X56804Y-61980D01*
X57011Y-61895D01*
X57170Y-61736D01*
X57256Y-61529D01*
X57256Y-61305D01*
X57170Y-61098D01*
X57012Y-60939D01*
X56805Y-60853D01*
X56581Y-60853D01*
X56374Y-60939D01*
X56215Y-61097D01*
X56129Y-61304D01*
X56129Y-61528D01*
X56158Y-61598D01*
X55915Y-61841D01*
X55912Y-61833D01*
X55864Y-61785D01*
X55802Y-61759D01*
X55734Y-61759D01*
X55643Y-61759D01*
X55643Y-57526D01*
X55643Y-56977D01*
X55605Y-56885D01*
X55534Y-56815D01*
X55443Y-56777D01*
X55343Y-56777D01*
X55230Y-56777D01*
X55168Y-56839D01*
X55168Y-57202D01*
X55580Y-57202D01*
X55643Y-57139D01*
X55643Y-56977D01*
X55643Y-57526D01*
X55643Y-57364D01*
X55580Y-57302D01*
X55168Y-57302D01*
X55168Y-57310D01*
X55068Y-57310D01*
X55068Y-57302D01*
X55068Y-57202D01*
X55068Y-56839D01*
X55005Y-56777D01*
X54892Y-56777D01*
X54793Y-56777D01*
X54701Y-56815D01*
X54631Y-56885D01*
X54593Y-56977D01*
X54593Y-57139D01*
X54655Y-57202D01*
X55068Y-57202D01*
X55068Y-57302D01*
X54655Y-57302D01*
X54593Y-57364D01*
X54593Y-57526D01*
X54631Y-57618D01*
X54701Y-57688D01*
X54793Y-57727D01*
X54813Y-57727D01*
X54813Y-57727D01*
X54758Y-57749D01*
X54716Y-57792D01*
X54693Y-57847D01*
X54693Y-57906D01*
X54693Y-58356D01*
X54715Y-58412D01*
X54758Y-58454D01*
X54813Y-58477D01*
X54872Y-58477D01*
X54898Y-58477D01*
X54898Y-58520D01*
X54846Y-58541D01*
X54711Y-58676D01*
X54638Y-58852D01*
X54638Y-59043D01*
X54710Y-59220D01*
X54845Y-59355D01*
X55022Y-59428D01*
X55213Y-59428D01*
X55389Y-59355D01*
X55524Y-59221D01*
X55598Y-59044D01*
X55598Y-58853D01*
X55525Y-58677D01*
X55390Y-58542D01*
X55338Y-58520D01*
X55338Y-58477D01*
X55422Y-58477D01*
X55477Y-58454D01*
X55520Y-58412D01*
X55543Y-58357D01*
X55543Y-58297D01*
X55543Y-57847D01*
X55520Y-57792D01*
X55478Y-57750D01*
X55423Y-57727D01*
X55393Y-57727D01*
X55443Y-57727D01*
X55534Y-57688D01*
X55605Y-57618D01*
X55643Y-57526D01*
X55643Y-61759D01*
X55598Y-61759D01*
X55598Y-59853D01*
X55525Y-59677D01*
X55390Y-59542D01*
X55214Y-59468D01*
X55023Y-59468D01*
X54846Y-59541D01*
X54711Y-59676D01*
X54638Y-59852D01*
X54638Y-60043D01*
X54710Y-60220D01*
X54845Y-60355D01*
X55022Y-60428D01*
X55213Y-60428D01*
X55389Y-60355D01*
X55524Y-60221D01*
X55598Y-60044D01*
X55598Y-59853D01*
X55598Y-61759D01*
X55284Y-61759D01*
X55221Y-61785D01*
X55174Y-61833D01*
X55148Y-61895D01*
X55148Y-61963D01*
X55148Y-62513D01*
X55173Y-62575D01*
X55221Y-62623D01*
X55244Y-62633D01*
X55206Y-62690D01*
X55187Y-62786D01*
X55187Y-70003D01*
X55206Y-70099D01*
X55260Y-70180D01*
X56158Y-71078D01*
X56129Y-71147D01*
X56129Y-71371D01*
X56214Y-71578D01*
X56373Y-71737D01*
X56580Y-71823D01*
X56804Y-71823D01*
X57011Y-71737D01*
X57170Y-71579D01*
X57256Y-71372D01*
X57256Y-71148D01*
X57170Y-70941D01*
X57012Y-70782D01*
X56805Y-70696D01*
X56581Y-70696D01*
X56511Y-70725D01*
X55687Y-69900D01*
X55687Y-65777D01*
X55766Y-65856D01*
X55983Y-65947D01*
X56219Y-65947D01*
X56437Y-65857D01*
X56604Y-65690D01*
X56695Y-65472D01*
X56695Y-65236D01*
X56605Y-65018D01*
X56438Y-64851D01*
X56220Y-64761D01*
X55984Y-64761D01*
X55766Y-64851D01*
X55687Y-64931D01*
X55687Y-63808D01*
X55766Y-63888D01*
X55983Y-63978D01*
X56219Y-63978D01*
X56437Y-63888D01*
X56604Y-63722D01*
X56695Y-63504D01*
X56695Y-63268D01*
X56647Y-63152D01*
X60748Y-59050D01*
X62494Y-59050D01*
X62531Y-59138D01*
X62683Y-59291D01*
X62883Y-59374D01*
X63099Y-59374D01*
X63299Y-59291D01*
X63452Y-59138D01*
X63489Y-59050D01*
X63843Y-59050D01*
X63859Y-59061D01*
X63943Y-59078D01*
X63943Y-59078D01*
X63963Y-59078D01*
X63963Y-59162D01*
X63986Y-59218D01*
X64028Y-59260D01*
X64083Y-59283D01*
X64143Y-59283D01*
X64513Y-59283D01*
X64513Y-61159D01*
X57340Y-68332D01*
X57340Y-67426D01*
X57331Y-67171D01*
X57251Y-66978D01*
X57146Y-66939D01*
X57075Y-67010D01*
X57075Y-66869D01*
X57036Y-66764D01*
X56797Y-66675D01*
X56541Y-66684D01*
X56348Y-66764D01*
X56310Y-66869D01*
X56692Y-67252D01*
X57075Y-66869D01*
X57075Y-67010D01*
X56763Y-67322D01*
X57146Y-67705D01*
X57251Y-67666D01*
X57340Y-67426D01*
X57340Y-68332D01*
X57075Y-68597D01*
X57075Y-67776D01*
X56692Y-67393D01*
X56622Y-67464D01*
X56622Y-67322D01*
X56239Y-66939D01*
X56134Y-66978D01*
X56045Y-67218D01*
X56054Y-67474D01*
X56134Y-67666D01*
X56239Y-67705D01*
X56622Y-67322D01*
X56622Y-67464D01*
X56310Y-67776D01*
X56348Y-67881D01*
X56588Y-67970D01*
X56844Y-67961D01*
X57036Y-67881D01*
X57075Y-67776D01*
X57075Y-68597D01*
X56888Y-68784D01*
X56801Y-68747D01*
X56585Y-68747D01*
X56385Y-68830D01*
X56232Y-68983D01*
X56149Y-69182D01*
X56149Y-69398D01*
X56231Y-69598D01*
X56384Y-69751D01*
X56584Y-69834D01*
X56800Y-69834D01*
X57000Y-69752D01*
X57153Y-69599D01*
X57236Y-69399D01*
X57236Y-69183D01*
X57200Y-69095D01*
X64889Y-61405D01*
X64889Y-61405D01*
X64937Y-61334D01*
X64953Y-61250D01*
X64953Y-61250D01*
X64953Y-59283D01*
X64968Y-59283D01*
X64968Y-65125D01*
X64968Y-65126D01*
X64968Y-71301D01*
X63623Y-72646D01*
X63576Y-72718D01*
X63559Y-72802D01*
X63559Y-72862D01*
X63442Y-72886D01*
X63169Y-73068D01*
X62987Y-73340D01*
X62924Y-73661D01*
X62987Y-73982D01*
X63169Y-74254D01*
X63442Y-74436D01*
X63763Y-74500D01*
X63795Y-74500D01*
X64117Y-74436D01*
X64389Y-74254D01*
X64571Y-73982D01*
X64634Y-73661D01*
X64571Y-73340D01*
X64389Y-73068D01*
X64117Y-72886D01*
X64025Y-72868D01*
X65344Y-71548D01*
X65344Y-71548D01*
X65392Y-71477D01*
X65408Y-71392D01*
X65408Y-71392D01*
X65408Y-65125D01*
X65408Y-59283D01*
X65443Y-59283D01*
X65498Y-59260D01*
X65540Y-59218D01*
X65563Y-59163D01*
X65563Y-59103D01*
X65563Y-74708D01*
X65480Y-74669D01*
X65429Y-74681D01*
X65210Y-74804D01*
X65054Y-75002D01*
X64986Y-75245D01*
X64986Y-75540D01*
X65579Y-75540D01*
X65579Y-75640D01*
X64986Y-75640D01*
X64986Y-75935D01*
X65054Y-76178D01*
X65210Y-76376D01*
X65429Y-76499D01*
X65480Y-76511D01*
X65579Y-76464D01*
X65579Y-77586D01*
X64234Y-77586D01*
X64389Y-77483D01*
X64571Y-77210D01*
X64634Y-76889D01*
X64571Y-76568D01*
X64389Y-76296D01*
X64117Y-76114D01*
X63795Y-76050D01*
X63763Y-76050D01*
X63442Y-76114D01*
X63169Y-76296D01*
X62987Y-76568D01*
X62924Y-76889D01*
X62987Y-77210D01*
X63169Y-77483D01*
X63324Y-77586D01*
X62868Y-77586D01*
X62868Y-75935D01*
X62868Y-75640D01*
X62868Y-75540D01*
X62868Y-75245D01*
X62777Y-74889D01*
X62557Y-74595D01*
X62242Y-74408D01*
X62125Y-74376D01*
X61979Y-74420D01*
X61979Y-75540D01*
X62868Y-75540D01*
X62868Y-75640D01*
X61979Y-75640D01*
X61979Y-76760D01*
X62125Y-76804D01*
X62242Y-76772D01*
X62557Y-76585D01*
X62777Y-76291D01*
X62868Y-75935D01*
X62868Y-77586D01*
X61879Y-77586D01*
X61879Y-76760D01*
X61879Y-75640D01*
X61879Y-75540D01*
X61879Y-74420D01*
X61733Y-74376D01*
X61615Y-74408D01*
X61300Y-74595D01*
X61080Y-74889D01*
X60990Y-75245D01*
X60990Y-75540D01*
X61879Y-75540D01*
X61879Y-75640D01*
X60990Y-75640D01*
X60990Y-75935D01*
X61080Y-76291D01*
X61300Y-76585D01*
X61615Y-76772D01*
X61733Y-76804D01*
X61879Y-76760D01*
X61879Y-77586D01*
X60564Y-77586D01*
X60564Y-75935D01*
X60564Y-75640D01*
X60564Y-75540D01*
X60564Y-75245D01*
X60496Y-75002D01*
X60341Y-74804D01*
X60121Y-74681D01*
X60071Y-74669D01*
X59971Y-74716D01*
X59971Y-75540D01*
X60564Y-75540D01*
X60564Y-75640D01*
X59971Y-75640D01*
X59971Y-76464D01*
X60071Y-76511D01*
X60121Y-76499D01*
X60341Y-76376D01*
X60496Y-76178D01*
X60564Y-75935D01*
X60564Y-77586D01*
X59871Y-77586D01*
X59871Y-76464D01*
X59871Y-75640D01*
X59871Y-75540D01*
X59871Y-74716D01*
X59771Y-74669D01*
X59721Y-74681D01*
X59501Y-74804D01*
X59345Y-75002D01*
X59277Y-75245D01*
X59277Y-75540D01*
X59871Y-75540D01*
X59871Y-75640D01*
X59277Y-75640D01*
X59277Y-75935D01*
X59345Y-76178D01*
X59501Y-76376D01*
X59721Y-76499D01*
X59771Y-76511D01*
X59871Y-76464D01*
X59871Y-77586D01*
X58526Y-77586D01*
X58680Y-77483D01*
X58862Y-77210D01*
X58926Y-76889D01*
X58926Y-73661D01*
X58862Y-73340D01*
X58680Y-73068D01*
X58408Y-72886D01*
X58087Y-72822D01*
X58054Y-72822D01*
X57733Y-72886D01*
X57461Y-73068D01*
X57279Y-73340D01*
X57215Y-73661D01*
X57279Y-73982D01*
X57461Y-74254D01*
X57733Y-74436D01*
X58054Y-74500D01*
X58087Y-74500D01*
X58408Y-74436D01*
X58680Y-74254D01*
X58862Y-73982D01*
X58926Y-73661D01*
X58926Y-76889D01*
X58862Y-76568D01*
X58680Y-76296D01*
X58408Y-76114D01*
X58087Y-76050D01*
X58054Y-76050D01*
X57733Y-76114D01*
X57461Y-76296D01*
X57279Y-76568D01*
X57215Y-76889D01*
X57279Y-77210D01*
X57461Y-77483D01*
X57615Y-77586D01*
X57159Y-77586D01*
X57159Y-75935D01*
X57159Y-75640D01*
X57159Y-75540D01*
X57159Y-75245D01*
X57068Y-74889D01*
X56849Y-74595D01*
X56533Y-74408D01*
X56416Y-74376D01*
X56270Y-74420D01*
X56270Y-75540D01*
X57159Y-75540D01*
X57159Y-75640D01*
X56270Y-75640D01*
X56270Y-76760D01*
X56416Y-76804D01*
X56533Y-76772D01*
X56849Y-76585D01*
X57068Y-76291D01*
X57159Y-75935D01*
X57159Y-77586D01*
X56170Y-77586D01*
X56170Y-76760D01*
X56170Y-75640D01*
X56170Y-75540D01*
X56170Y-74420D01*
X56024Y-74376D01*
X55907Y-74408D01*
X55591Y-74595D01*
X55372Y-74889D01*
X55281Y-75245D01*
X55281Y-75540D01*
X56170Y-75540D01*
X56170Y-75640D01*
X55281Y-75640D01*
X55281Y-75935D01*
X55372Y-76291D01*
X55591Y-76585D01*
X55907Y-76772D01*
X56024Y-76804D01*
X56170Y-76760D01*
X56170Y-77586D01*
X55068Y-77586D01*
X55068Y-62450D01*
X55068Y-61900D01*
X55045Y-61844D01*
X55003Y-61802D01*
X54948Y-61779D01*
X54888Y-61779D01*
X54438Y-61779D01*
X54384Y-61802D01*
X54389Y-61774D01*
X54393Y-61755D01*
X54393Y-61755D01*
X54393Y-61755D01*
X54393Y-58080D01*
X54374Y-57985D01*
X54374Y-57985D01*
X54320Y-57903D01*
X54320Y-57903D01*
X54078Y-57661D01*
X54106Y-57592D01*
X54106Y-57368D01*
X54021Y-57161D01*
X53862Y-57002D01*
X53655Y-56916D01*
X53431Y-56916D01*
X53224Y-57002D01*
X53065Y-57160D01*
X52979Y-57367D01*
X52979Y-57591D01*
X53065Y-57799D01*
X53223Y-57957D01*
X53430Y-58043D01*
X53654Y-58043D01*
X53724Y-58015D01*
X53893Y-58184D01*
X53893Y-59030D01*
X53851Y-58988D01*
X53651Y-58905D01*
X53435Y-58905D01*
X53235Y-58987D01*
X53082Y-59140D01*
X52999Y-59340D01*
X52999Y-59556D01*
X53082Y-59756D01*
X53235Y-59909D01*
X53434Y-59992D01*
X53650Y-59992D01*
X53850Y-59909D01*
X53893Y-59866D01*
X53893Y-60875D01*
X53887Y-60858D01*
X53647Y-60769D01*
X53391Y-60779D01*
X53199Y-60858D01*
X53160Y-60963D01*
X53543Y-61346D01*
X53548Y-61341D01*
X53619Y-61411D01*
X53614Y-61417D01*
X53619Y-61422D01*
X53548Y-61493D01*
X53543Y-61488D01*
X53472Y-61558D01*
X53472Y-61417D01*
X53089Y-61034D01*
X52984Y-61073D01*
X52895Y-61313D01*
X52904Y-61569D01*
X52984Y-61761D01*
X53089Y-61800D01*
X53472Y-61417D01*
X53472Y-61558D01*
X53160Y-61870D01*
X53199Y-61975D01*
X53439Y-62065D01*
X53481Y-62063D01*
X53301Y-62243D01*
X53247Y-62324D01*
X53228Y-62420D01*
X53228Y-66843D01*
X53224Y-66844D01*
X53065Y-67003D01*
X52979Y-67210D01*
X52979Y-67434D01*
X53065Y-67641D01*
X53223Y-67800D01*
X53430Y-67886D01*
X53654Y-67886D01*
X53862Y-67800D01*
X54020Y-67642D01*
X54106Y-67435D01*
X54106Y-67211D01*
X54021Y-67004D01*
X53862Y-66845D01*
X53728Y-66789D01*
X53728Y-65787D01*
X53797Y-65856D01*
X54015Y-65947D01*
X54251Y-65947D01*
X54469Y-65857D01*
X54636Y-65690D01*
X54726Y-65472D01*
X54726Y-65236D01*
X54636Y-65018D01*
X54470Y-64851D01*
X54252Y-64761D01*
X54016Y-64761D01*
X53798Y-64851D01*
X53728Y-64921D01*
X53728Y-63818D01*
X53797Y-63888D01*
X54015Y-63978D01*
X54251Y-63978D01*
X54469Y-63888D01*
X54636Y-63722D01*
X54726Y-63504D01*
X54726Y-63268D01*
X54678Y-63152D01*
X54848Y-62982D01*
X54896Y-62910D01*
X54896Y-62910D01*
X54912Y-62826D01*
X54912Y-62826D01*
X54912Y-62629D01*
X54947Y-62629D01*
X55002Y-62606D01*
X55045Y-62564D01*
X55068Y-62509D01*
X55068Y-62450D01*
X55068Y-77586D01*
X54659Y-77586D01*
X54659Y-75935D01*
X54659Y-75640D01*
X54659Y-75540D01*
X54659Y-75245D01*
X54591Y-75002D01*
X54435Y-74804D01*
X54215Y-74681D01*
X54191Y-74675D01*
X54191Y-71363D01*
X54181Y-71108D01*
X54101Y-70915D01*
X54086Y-70910D01*
X54086Y-69183D01*
X54004Y-68983D01*
X53851Y-68830D01*
X53651Y-68747D01*
X53435Y-68747D01*
X53235Y-68830D01*
X53082Y-68983D01*
X52999Y-69182D01*
X52999Y-69398D01*
X53082Y-69598D01*
X53235Y-69751D01*
X53434Y-69834D01*
X53650Y-69834D01*
X53850Y-69752D01*
X54003Y-69599D01*
X54086Y-69399D01*
X54086Y-69183D01*
X54086Y-70910D01*
X53996Y-70876D01*
X53926Y-70947D01*
X53926Y-70806D01*
X53887Y-70701D01*
X53647Y-70612D01*
X53391Y-70621D01*
X53199Y-70701D01*
X53160Y-70806D01*
X53543Y-71189D01*
X53926Y-70806D01*
X53926Y-70947D01*
X53614Y-71259D01*
X53996Y-71642D01*
X54101Y-71603D01*
X54191Y-71363D01*
X54191Y-74675D01*
X54165Y-74669D01*
X54065Y-74716D01*
X54065Y-75540D01*
X54659Y-75540D01*
X54659Y-75640D01*
X54065Y-75640D01*
X54065Y-76464D01*
X54165Y-76511D01*
X54215Y-76499D01*
X54435Y-76376D01*
X54591Y-76178D01*
X54659Y-75935D01*
X54659Y-77586D01*
X53965Y-77586D01*
X53965Y-76464D01*
X53965Y-75640D01*
X53965Y-75540D01*
X53965Y-74716D01*
X53926Y-74697D01*
X53926Y-71713D01*
X53543Y-71330D01*
X53472Y-71401D01*
X53472Y-71259D01*
X53089Y-70876D01*
X52984Y-70915D01*
X52895Y-71155D01*
X52904Y-71411D01*
X52984Y-71603D01*
X53089Y-71642D01*
X53472Y-71259D01*
X53472Y-71401D01*
X53160Y-71713D01*
X53199Y-71818D01*
X53439Y-71907D01*
X53695Y-71898D01*
X53887Y-71818D01*
X53926Y-71713D01*
X53926Y-74697D01*
X53865Y-74669D01*
X53815Y-74681D01*
X53595Y-74804D01*
X53440Y-75002D01*
X53372Y-75245D01*
X53372Y-75540D01*
X53965Y-75540D01*
X53965Y-75640D01*
X53372Y-75640D01*
X53372Y-75935D01*
X53440Y-76178D01*
X53595Y-76376D01*
X53815Y-76499D01*
X53865Y-76511D01*
X53965Y-76464D01*
X53965Y-77586D01*
X52620Y-77586D01*
X52775Y-77483D01*
X52956Y-77210D01*
X53020Y-76889D01*
X53020Y-73661D01*
X52956Y-73340D01*
X52775Y-73068D01*
X52502Y-72886D01*
X52181Y-72822D01*
X52148Y-72822D01*
X51827Y-72886D01*
X51555Y-73068D01*
X51373Y-73340D01*
X51309Y-73661D01*
X51373Y-73982D01*
X51555Y-74254D01*
X51827Y-74436D01*
X52148Y-74500D01*
X52181Y-74500D01*
X52502Y-74436D01*
X52775Y-74254D01*
X52956Y-73982D01*
X53020Y-73661D01*
X53020Y-76889D01*
X52956Y-76568D01*
X52775Y-76296D01*
X52502Y-76114D01*
X52181Y-76050D01*
X52148Y-76050D01*
X51827Y-76114D01*
X51555Y-76296D01*
X51373Y-76568D01*
X51309Y-76889D01*
X51373Y-77210D01*
X51555Y-77483D01*
X51710Y-77586D01*
X51253Y-77586D01*
X51253Y-75935D01*
X51253Y-75640D01*
X51253Y-75540D01*
X51253Y-75245D01*
X51163Y-74889D01*
X50943Y-74595D01*
X50628Y-74408D01*
X50511Y-74376D01*
X50364Y-74420D01*
X50364Y-75540D01*
X51253Y-75540D01*
X51253Y-75640D01*
X50364Y-75640D01*
X50364Y-76760D01*
X50511Y-76804D01*
X50628Y-76772D01*
X50943Y-76585D01*
X51163Y-76291D01*
X51253Y-75935D01*
X51253Y-77586D01*
X50264Y-77586D01*
X50264Y-76760D01*
X50264Y-75640D01*
X50264Y-75540D01*
X50264Y-74420D01*
X50118Y-74376D01*
X50001Y-74408D01*
X49686Y-74595D01*
X49466Y-74889D01*
X49375Y-75245D01*
X49375Y-75540D01*
X50264Y-75540D01*
X50264Y-75640D01*
X49375Y-75640D01*
X49375Y-75935D01*
X49466Y-76291D01*
X49686Y-76585D01*
X50001Y-76772D01*
X50118Y-76804D01*
X50264Y-76760D01*
X50264Y-77586D01*
X48950Y-77586D01*
X48950Y-75935D01*
X48950Y-75640D01*
X48950Y-75540D01*
X48950Y-75245D01*
X48882Y-75002D01*
X48726Y-74804D01*
X48507Y-74681D01*
X48456Y-74669D01*
X48357Y-74716D01*
X48357Y-75540D01*
X48950Y-75540D01*
X48950Y-75640D01*
X48357Y-75640D01*
X48357Y-76464D01*
X48456Y-76511D01*
X48507Y-76499D01*
X48726Y-76376D01*
X48882Y-76178D01*
X48950Y-75935D01*
X48950Y-77586D01*
X48257Y-77586D01*
X48257Y-76464D01*
X48257Y-75640D01*
X48257Y-75540D01*
X48257Y-74716D01*
X48157Y-74669D01*
X48106Y-74681D01*
X47887Y-74804D01*
X47731Y-75002D01*
X47663Y-75245D01*
X47663Y-75540D01*
X48257Y-75540D01*
X48257Y-75640D01*
X47663Y-75640D01*
X47663Y-75935D01*
X47731Y-76178D01*
X47887Y-76376D01*
X48106Y-76499D01*
X48157Y-76511D01*
X48257Y-76464D01*
X48257Y-77586D01*
X46911Y-77586D01*
X47066Y-77483D01*
X47248Y-77210D01*
X47312Y-76889D01*
X47312Y-73661D01*
X47248Y-73340D01*
X47066Y-73068D01*
X46794Y-72886D01*
X46473Y-72822D01*
X46440Y-72822D01*
X46119Y-72886D01*
X45847Y-73068D01*
X45665Y-73340D01*
X45601Y-73661D01*
X45665Y-73982D01*
X45847Y-74254D01*
X46119Y-74436D01*
X46440Y-74500D01*
X46473Y-74500D01*
X46794Y-74436D01*
X47066Y-74254D01*
X47248Y-73982D01*
X47312Y-73661D01*
X47312Y-76889D01*
X47248Y-76568D01*
X47066Y-76296D01*
X46794Y-76114D01*
X46473Y-76050D01*
X46440Y-76050D01*
X46119Y-76114D01*
X45847Y-76296D01*
X45665Y-76568D01*
X45601Y-76889D01*
X45665Y-77210D01*
X45847Y-77483D01*
X46001Y-77586D01*
X45545Y-77586D01*
X45545Y-75935D01*
X45545Y-75640D01*
X45545Y-75540D01*
X45545Y-75245D01*
X45454Y-74889D01*
X45234Y-74595D01*
X44919Y-74408D01*
X44802Y-74376D01*
X44656Y-74420D01*
X44656Y-75540D01*
X45545Y-75540D01*
X45545Y-75640D01*
X44656Y-75640D01*
X44656Y-76760D01*
X44802Y-76804D01*
X44919Y-76772D01*
X45234Y-76585D01*
X45454Y-76291D01*
X45545Y-75935D01*
X45545Y-77586D01*
X43870Y-77586D01*
X43870Y-76441D01*
X43977Y-76585D01*
X44293Y-76772D01*
X44410Y-76804D01*
X44556Y-76760D01*
X44556Y-75640D01*
X44548Y-75640D01*
X44548Y-75540D01*
X44556Y-75540D01*
X44556Y-74420D01*
X44410Y-74376D01*
X44293Y-74408D01*
X43977Y-74595D01*
X43870Y-74739D01*
X43870Y-38555D01*
X49414Y-38555D01*
X49232Y-38736D01*
X49178Y-38817D01*
X49159Y-38913D01*
X49159Y-38943D01*
X49100Y-38943D01*
X49038Y-38969D01*
X48990Y-39017D01*
X48964Y-39079D01*
X48964Y-39147D01*
X48964Y-39430D01*
X48234Y-40160D01*
X48180Y-40241D01*
X48179Y-40245D01*
X48061Y-40195D01*
X47911Y-40195D01*
X47774Y-40252D01*
X47668Y-40358D01*
X47611Y-40495D01*
X47611Y-40634D01*
X47259Y-40986D01*
X47211Y-41057D01*
X47194Y-41142D01*
X47194Y-41342D01*
X46348Y-41342D01*
X46293Y-41364D01*
X46268Y-41390D01*
X45444Y-41390D01*
X45330Y-41275D01*
X45355Y-41250D01*
X45378Y-41195D01*
X45378Y-41135D01*
X45378Y-40895D01*
X45355Y-40840D01*
X45313Y-40798D01*
X45258Y-40775D01*
X45199Y-40775D01*
X44899Y-40775D01*
X44843Y-40798D01*
X44801Y-40840D01*
X44778Y-40895D01*
X44778Y-40955D01*
X44778Y-41195D01*
X44801Y-41250D01*
X44843Y-41292D01*
X44858Y-41298D01*
X44858Y-41335D01*
X44875Y-41419D01*
X44923Y-41490D01*
X45187Y-41755D01*
X44899Y-41755D01*
X44843Y-41778D01*
X44801Y-41820D01*
X44778Y-41875D01*
X44778Y-41935D01*
X44778Y-42175D01*
X44787Y-42195D01*
X44716Y-42195D01*
X44620Y-42214D01*
X44539Y-42268D01*
X44538Y-42269D01*
X44186Y-42622D01*
X44132Y-42703D01*
X44112Y-42798D01*
X44112Y-55949D01*
X44132Y-56045D01*
X44186Y-56126D01*
X46680Y-58620D01*
X46680Y-59257D01*
X46706Y-59320D01*
X46754Y-59368D01*
X46816Y-59394D01*
X46884Y-59394D01*
X47671Y-59394D01*
X47733Y-59368D01*
X47781Y-59320D01*
X47807Y-59258D01*
X47807Y-59190D01*
X47807Y-59080D01*
X47837Y-59080D01*
X47933Y-59061D01*
X48014Y-59007D01*
X50568Y-56453D01*
X56025Y-56453D01*
X56121Y-56434D01*
X56202Y-56380D01*
X62428Y-50154D01*
X62428Y-50257D01*
X62454Y-50320D01*
X62502Y-50368D01*
X62564Y-50394D01*
X62632Y-50394D01*
X62660Y-50394D01*
X62531Y-50522D01*
X62448Y-50722D01*
X62448Y-50938D01*
X62531Y-51138D01*
X62683Y-51291D01*
X62752Y-51319D01*
X62673Y-51352D01*
X62514Y-51511D01*
X62428Y-51718D01*
X62428Y-51942D01*
X62514Y-52149D01*
X62672Y-52308D01*
X62752Y-52341D01*
X62684Y-52369D01*
X62531Y-52522D01*
X62448Y-52722D01*
X62448Y-52938D01*
X62531Y-53138D01*
X62659Y-53267D01*
X62648Y-53272D01*
X62609Y-53377D01*
X62992Y-53759D01*
X63375Y-53377D01*
X63336Y-53272D01*
X63323Y-53267D01*
X63452Y-53138D01*
X63535Y-52939D01*
X63535Y-52723D01*
X63453Y-52523D01*
X63300Y-52370D01*
X63231Y-52341D01*
X63310Y-52308D01*
X63469Y-52150D01*
X63555Y-51943D01*
X63555Y-51719D01*
X63470Y-51511D01*
X63311Y-51353D01*
X63231Y-51319D01*
X63299Y-51291D01*
X63452Y-51138D01*
X63535Y-50939D01*
X63535Y-50723D01*
X63520Y-50686D01*
X63731Y-50475D01*
X63731Y-50475D01*
X63778Y-50404D01*
X63795Y-50320D01*
X63795Y-50320D01*
X63795Y-49341D01*
X63795Y-49340D01*
X63795Y-49340D01*
X63795Y-49340D01*
X63790Y-49315D01*
X63779Y-49256D01*
X63778Y-49256D01*
X63778Y-49256D01*
X63766Y-49237D01*
X63731Y-49185D01*
X63633Y-49086D01*
X63632Y-49086D01*
X63632Y-49086D01*
X63597Y-49062D01*
X63561Y-49038D01*
X63561Y-49038D01*
X63561Y-49038D01*
X63519Y-49030D01*
X63477Y-49021D01*
X63477Y-49021D01*
X63477Y-49021D01*
X57057Y-49021D01*
X56973Y-49038D01*
X56901Y-49086D01*
X56888Y-49099D01*
X56801Y-49062D01*
X56585Y-49062D01*
X56421Y-49130D01*
X59137Y-46414D01*
X59191Y-46333D01*
X59211Y-46237D01*
X59211Y-45495D01*
X59279Y-45467D01*
X59438Y-45308D01*
X59524Y-45101D01*
X59524Y-44877D01*
X59439Y-44670D01*
X59305Y-44536D01*
X59305Y-43142D01*
X59363Y-43142D01*
X59426Y-43117D01*
X59474Y-43069D01*
X59500Y-43006D01*
X59500Y-42998D01*
X59530Y-42998D01*
X59530Y-42997D01*
X59531Y-42998D01*
X59578Y-42988D01*
X59625Y-42979D01*
X59626Y-42978D01*
X59627Y-42978D01*
X59650Y-42962D01*
X59788Y-42962D01*
X59788Y-43812D01*
X59814Y-43875D01*
X59826Y-43887D01*
X59826Y-47044D01*
X59845Y-47140D01*
X59899Y-47221D01*
X60406Y-47727D01*
X60406Y-47727D01*
X60487Y-47782D01*
X60487Y-47782D01*
X60564Y-47797D01*
X60583Y-47801D01*
X60583Y-47801D01*
X60583Y-47801D01*
X61421Y-47801D01*
X61391Y-47813D01*
X61349Y-47855D01*
X61326Y-47910D01*
X61326Y-47970D01*
X61326Y-48364D01*
X61348Y-48419D01*
X61391Y-48461D01*
X61446Y-48484D01*
X61505Y-48484D01*
X61781Y-48484D01*
X61837Y-48462D01*
X61879Y-48419D01*
X61902Y-48364D01*
X61902Y-48305D01*
X61902Y-47911D01*
X61879Y-47855D01*
X61837Y-47813D01*
X61807Y-47801D01*
X62222Y-47801D01*
X62318Y-47782D01*
X62399Y-47727D01*
X62447Y-47680D01*
X63189Y-47680D01*
X63323Y-47814D01*
X63323Y-47814D01*
X63404Y-47868D01*
X63404Y-47868D01*
X63500Y-47887D01*
X63530Y-47887D01*
X63530Y-47947D01*
X63556Y-48009D01*
X63604Y-48057D01*
X63666Y-48083D01*
X63734Y-48083D01*
X64285Y-48083D01*
X64348Y-48057D01*
X64387Y-48018D01*
X64420Y-48051D01*
X64466Y-48006D01*
X64490Y-48098D01*
X64687Y-48168D01*
X64896Y-48156D01*
X65036Y-48098D01*
X65061Y-48006D01*
X64763Y-47708D01*
X64758Y-47714D01*
X64687Y-47643D01*
X64693Y-47637D01*
X64687Y-47632D01*
X64758Y-47561D01*
X64763Y-47567D01*
X65061Y-47269D01*
X65036Y-47176D01*
X64839Y-47107D01*
X64630Y-47118D01*
X64490Y-47176D01*
X64466Y-47269D01*
X64420Y-47224D01*
X64387Y-47257D01*
X64348Y-47218D01*
X64285Y-47192D01*
X64218Y-47192D01*
X63667Y-47192D01*
X63604Y-47218D01*
X63556Y-47265D01*
X63534Y-47318D01*
X63469Y-47253D01*
X63388Y-47199D01*
X63293Y-47180D01*
X62714Y-47180D01*
X62714Y-46312D01*
X63507Y-46312D01*
X63603Y-46293D01*
X63684Y-46239D01*
X63688Y-46235D01*
X63757Y-46264D01*
X63981Y-46264D01*
X64188Y-46178D01*
X64347Y-46020D01*
X64370Y-45966D01*
X64392Y-46019D01*
X64550Y-46178D01*
X64757Y-46264D01*
X64981Y-46264D01*
X65188Y-46178D01*
X65347Y-46020D01*
X65433Y-45813D01*
X65433Y-45589D01*
X65348Y-45382D01*
X65217Y-45250D01*
X65252Y-45154D01*
X64870Y-44771D01*
X64799Y-44842D01*
X64799Y-44700D01*
X64416Y-44317D01*
X64370Y-44335D01*
X64323Y-44317D01*
X64252Y-44388D01*
X64252Y-44247D01*
X64235Y-44200D01*
X64252Y-44154D01*
X63870Y-43771D01*
X63799Y-43842D01*
X63799Y-43700D01*
X63416Y-43317D01*
X63311Y-43356D01*
X63222Y-43596D01*
X63231Y-43852D01*
X63311Y-44044D01*
X63416Y-44083D01*
X63799Y-43700D01*
X63799Y-43842D01*
X63487Y-44154D01*
X63504Y-44200D01*
X63487Y-44247D01*
X63870Y-44630D01*
X64252Y-44247D01*
X64252Y-44388D01*
X63940Y-44700D01*
X64323Y-45083D01*
X64370Y-45066D01*
X64416Y-45083D01*
X64799Y-44700D01*
X64799Y-44842D01*
X64487Y-45154D01*
X64522Y-45251D01*
X64392Y-45381D01*
X64370Y-45435D01*
X64348Y-45382D01*
X64217Y-45250D01*
X64252Y-45154D01*
X63870Y-44771D01*
X63799Y-44842D01*
X63799Y-44700D01*
X63416Y-44317D01*
X63311Y-44356D01*
X63222Y-44596D01*
X63231Y-44852D01*
X63311Y-45044D01*
X63416Y-45083D01*
X63799Y-44700D01*
X63799Y-44842D01*
X63487Y-45154D01*
X63522Y-45251D01*
X63392Y-45381D01*
X63306Y-45588D01*
X63306Y-45812D01*
X63306Y-45812D01*
X62514Y-45812D01*
X62514Y-44910D01*
X62514Y-44459D01*
X62514Y-44360D01*
X62475Y-44268D01*
X62405Y-44197D01*
X62313Y-44159D01*
X62151Y-44160D01*
X62089Y-44222D01*
X62089Y-44635D01*
X62451Y-44635D01*
X62514Y-44572D01*
X62514Y-44459D01*
X62514Y-44910D01*
X62514Y-44797D01*
X62451Y-44735D01*
X62089Y-44735D01*
X62089Y-45147D01*
X62151Y-45210D01*
X62313Y-45210D01*
X62405Y-45172D01*
X62475Y-45101D01*
X62514Y-45009D01*
X62514Y-44910D01*
X62514Y-45812D01*
X62464Y-45812D01*
X62434Y-45812D01*
X62434Y-45754D01*
X62408Y-45691D01*
X62360Y-45643D01*
X62298Y-45618D01*
X62230Y-45617D01*
X61780Y-45617D01*
X61718Y-45643D01*
X61670Y-45691D01*
X61644Y-45754D01*
X61644Y-45821D01*
X61644Y-46371D01*
X61669Y-46434D01*
X61717Y-46482D01*
X61780Y-46507D01*
X61847Y-46508D01*
X62214Y-46508D01*
X62214Y-46815D01*
X62212Y-46813D01*
X62157Y-46790D01*
X62097Y-46790D01*
X61825Y-46790D01*
X61499Y-46464D01*
X61541Y-46423D01*
X61564Y-46367D01*
X61564Y-46308D01*
X61564Y-45758D01*
X61541Y-45703D01*
X61499Y-45660D01*
X61444Y-45638D01*
X61408Y-45637D01*
X61408Y-45110D01*
X61443Y-45110D01*
X61499Y-45087D01*
X61541Y-45045D01*
X61564Y-44990D01*
X61564Y-44960D01*
X61564Y-45009D01*
X61602Y-45101D01*
X61672Y-45172D01*
X61764Y-45210D01*
X61926Y-45210D01*
X61989Y-45147D01*
X61989Y-44735D01*
X61981Y-44735D01*
X61981Y-44635D01*
X61989Y-44635D01*
X61989Y-44222D01*
X61926Y-44160D01*
X61764Y-44159D01*
X61672Y-44197D01*
X61602Y-44268D01*
X61564Y-44360D01*
X61564Y-44380D01*
X61541Y-44325D01*
X61499Y-44282D01*
X61469Y-44270D01*
X61571Y-44168D01*
X61576Y-44168D01*
X61660Y-44152D01*
X61732Y-44104D01*
X61780Y-44033D01*
X61796Y-43948D01*
X61796Y-43888D01*
X61821Y-43863D01*
X61844Y-43808D01*
X61844Y-43749D01*
X61844Y-42883D01*
X61822Y-42827D01*
X61796Y-42802D01*
X61796Y-42742D01*
X61780Y-42658D01*
X61780Y-42658D01*
X61732Y-42586D01*
X61296Y-42151D01*
X61296Y-41842D01*
X61313Y-41826D01*
X61314Y-41829D01*
X61362Y-41876D01*
X61424Y-41902D01*
X61492Y-41902D01*
X61728Y-41902D01*
X61790Y-41877D01*
X61838Y-41829D01*
X61864Y-41766D01*
X61864Y-41699D01*
X61864Y-40833D01*
X61838Y-40770D01*
X61832Y-40764D01*
X62209Y-40387D01*
X63498Y-40387D01*
X63620Y-40509D01*
X63620Y-41194D01*
X63551Y-41222D01*
X63392Y-41381D01*
X63306Y-41588D01*
X63306Y-41812D01*
X63392Y-42019D01*
X63522Y-42150D01*
X63487Y-42247D01*
X63870Y-42630D01*
X64252Y-42247D01*
X64217Y-42150D01*
X64306Y-42061D01*
X64306Y-42127D01*
X64332Y-42190D01*
X64380Y-42238D01*
X64398Y-42245D01*
X64371Y-42272D01*
X64416Y-42317D01*
X64370Y-42335D01*
X64323Y-42317D01*
X63940Y-42700D01*
X64323Y-43083D01*
X64370Y-43066D01*
X64416Y-43083D01*
X64799Y-42700D01*
X64793Y-42695D01*
X64864Y-42624D01*
X64870Y-42630D01*
X64875Y-42624D01*
X64946Y-42695D01*
X64940Y-42700D01*
X65323Y-43083D01*
X65428Y-43044D01*
X65517Y-42804D01*
X65508Y-42549D01*
X65428Y-42356D01*
X65323Y-42317D01*
X65368Y-42272D01*
X65341Y-42245D01*
X65359Y-42238D01*
X65407Y-42190D01*
X65433Y-42128D01*
X65433Y-42060D01*
X65433Y-41273D01*
X65407Y-41211D01*
X65360Y-41163D01*
X65297Y-41137D01*
X65289Y-41137D01*
X65289Y-39989D01*
X65289Y-39537D01*
X65289Y-39438D01*
X65251Y-39346D01*
X65180Y-39276D01*
X65088Y-39238D01*
X64876Y-39238D01*
X64813Y-39300D01*
X64813Y-39713D01*
X65226Y-39713D01*
X65289Y-39651D01*
X65289Y-39537D01*
X65289Y-39989D01*
X65289Y-39876D01*
X65226Y-39813D01*
X64813Y-39813D01*
X64813Y-40226D01*
X64876Y-40289D01*
X65088Y-40289D01*
X65180Y-40251D01*
X65251Y-40181D01*
X65289Y-40089D01*
X65289Y-39989D01*
X65289Y-41137D01*
X65229Y-41137D01*
X64442Y-41137D01*
X64380Y-41163D01*
X64332Y-41210D01*
X64306Y-41273D01*
X64306Y-41340D01*
X64189Y-41223D01*
X64120Y-41194D01*
X64120Y-40405D01*
X64101Y-40310D01*
X64101Y-40310D01*
X64046Y-40229D01*
X64027Y-40209D01*
X64064Y-40209D01*
X64228Y-40141D01*
X64250Y-40119D01*
X64276Y-40181D01*
X64346Y-40251D01*
X64438Y-40289D01*
X64651Y-40289D01*
X64713Y-40226D01*
X64713Y-39813D01*
X64705Y-39813D01*
X64705Y-39713D01*
X64713Y-39713D01*
X64713Y-39300D01*
X64651Y-39238D01*
X64438Y-39238D01*
X64346Y-39276D01*
X64276Y-39346D01*
X64250Y-39407D01*
X64229Y-39386D01*
X64065Y-39318D01*
X63888Y-39318D01*
X63724Y-39385D01*
X63598Y-39511D01*
X63530Y-39674D01*
X63530Y-39852D01*
X63531Y-39854D01*
X63498Y-39887D01*
X62120Y-39887D01*
X60788Y-38555D01*
X66365Y-38555D01*
X66365Y-77586D01*
X66365Y-77586D01*
G37*
G54D29*
X66365Y-77586D02*
X66273Y-77586D01*
X66273Y-75935D01*
X66273Y-75640D01*
X66273Y-75540D01*
X66273Y-75245D01*
X66205Y-75002D01*
X66049Y-74804D01*
X65830Y-74681D01*
X65779Y-74669D01*
X65679Y-74716D01*
X65679Y-75540D01*
X66273Y-75540D01*
X66273Y-75640D01*
X65679Y-75640D01*
X65679Y-76464D01*
X65779Y-76511D01*
X65830Y-76499D01*
X66049Y-76376D01*
X66205Y-76178D01*
X66273Y-75935D01*
X66273Y-77586D01*
X65579Y-77586D01*
X65579Y-76464D01*
X65579Y-75640D01*
X65579Y-75540D01*
X65579Y-74716D01*
X65563Y-74708D01*
X65563Y-59103D01*
X65563Y-58553D01*
X65541Y-58498D01*
X65517Y-58475D01*
X65517Y-44804D01*
X65517Y-43804D01*
X65508Y-43549D01*
X65428Y-43356D01*
X65323Y-43317D01*
X65252Y-43388D01*
X65252Y-43247D01*
X65235Y-43200D01*
X65252Y-43154D01*
X64870Y-42771D01*
X64799Y-42842D01*
X64487Y-43154D01*
X64504Y-43200D01*
X64487Y-43247D01*
X64870Y-43630D01*
X65252Y-43247D01*
X65252Y-43388D01*
X64940Y-43700D01*
X65323Y-44083D01*
X65428Y-44044D01*
X65517Y-43804D01*
X65517Y-44804D01*
X65508Y-44549D01*
X65428Y-44356D01*
X65323Y-44317D01*
X65252Y-44388D01*
X65252Y-44247D01*
X65235Y-44200D01*
X65252Y-44154D01*
X64870Y-43771D01*
X64799Y-43842D01*
X64799Y-43700D01*
X64416Y-43317D01*
X64370Y-43335D01*
X64323Y-43317D01*
X64252Y-43388D01*
X64252Y-43247D01*
X64235Y-43200D01*
X64252Y-43154D01*
X63870Y-42771D01*
X63799Y-42842D01*
X63799Y-42700D01*
X63416Y-42317D01*
X63311Y-42356D01*
X63222Y-42596D01*
X63231Y-42852D01*
X63311Y-43044D01*
X63416Y-43083D01*
X63799Y-42700D01*
X63799Y-42842D01*
X63487Y-43154D01*
X63504Y-43200D01*
X63487Y-43247D01*
X63870Y-43630D01*
X64252Y-43247D01*
X64252Y-43388D01*
X63940Y-43700D01*
X64323Y-44083D01*
X64370Y-44066D01*
X64416Y-44083D01*
X64799Y-43700D01*
X64799Y-43842D01*
X64487Y-44154D01*
X64504Y-44200D01*
X64487Y-44247D01*
X64870Y-44630D01*
X65252Y-44247D01*
X65252Y-44388D01*
X64940Y-44700D01*
X65323Y-45083D01*
X65428Y-45044D01*
X65517Y-44804D01*
X65517Y-58475D01*
X65498Y-58456D01*
X65443Y-58433D01*
X65384Y-58433D01*
X65294Y-58433D01*
X65294Y-47713D01*
X65282Y-47504D01*
X65224Y-47364D01*
X65131Y-47340D01*
X65061Y-47410D01*
X64834Y-47637D01*
X65131Y-47935D01*
X65224Y-47910D01*
X65294Y-47713D01*
X65294Y-58433D01*
X65061Y-58433D01*
X64953Y-58433D01*
X64953Y-57572D01*
X64953Y-57572D01*
X64937Y-57488D01*
X64889Y-57416D01*
X64889Y-57416D01*
X63639Y-56167D01*
X63639Y-53934D01*
X63630Y-53678D01*
X63550Y-53486D01*
X63445Y-53447D01*
X63062Y-53830D01*
X63445Y-54213D01*
X63550Y-54174D01*
X63639Y-53934D01*
X63639Y-56167D01*
X63499Y-56026D01*
X63535Y-55939D01*
X63535Y-55723D01*
X63453Y-55523D01*
X63300Y-55370D01*
X63205Y-55330D01*
X63299Y-55291D01*
X63452Y-55138D01*
X63535Y-54939D01*
X63535Y-54723D01*
X63453Y-54523D01*
X63324Y-54394D01*
X63336Y-54389D01*
X63375Y-54284D01*
X62992Y-53901D01*
X62921Y-53972D01*
X62921Y-53830D01*
X62538Y-53447D01*
X62433Y-53486D01*
X62344Y-53726D01*
X62353Y-53982D01*
X62433Y-54174D01*
X62538Y-54213D01*
X62921Y-53830D01*
X62921Y-53972D01*
X62609Y-54284D01*
X62648Y-54389D01*
X62660Y-54393D01*
X62531Y-54522D01*
X62448Y-54722D01*
X62448Y-54938D01*
X62485Y-55026D01*
X58282Y-59228D01*
X57340Y-59228D01*
X57340Y-57584D01*
X57331Y-57328D01*
X57251Y-57136D01*
X57146Y-57097D01*
X57075Y-57168D01*
X57075Y-57026D01*
X57036Y-56921D01*
X56797Y-56832D01*
X56541Y-56841D01*
X56348Y-56921D01*
X56310Y-57026D01*
X56692Y-57409D01*
X57075Y-57026D01*
X57075Y-57168D01*
X56763Y-57480D01*
X57146Y-57863D01*
X57251Y-57824D01*
X57340Y-57584D01*
X57340Y-59228D01*
X57190Y-59228D01*
X57153Y-59141D01*
X57075Y-59063D01*
X57075Y-57933D01*
X56692Y-57551D01*
X56622Y-57621D01*
X56622Y-57480D01*
X56239Y-57097D01*
X56134Y-57136D01*
X56045Y-57376D01*
X56054Y-57632D01*
X56134Y-57824D01*
X56239Y-57863D01*
X56622Y-57480D01*
X56622Y-57621D01*
X56310Y-57933D01*
X56348Y-58038D01*
X56588Y-58128D01*
X56844Y-58118D01*
X57036Y-58038D01*
X57075Y-57933D01*
X57075Y-59063D01*
X57001Y-58988D01*
X56801Y-58905D01*
X56585Y-58905D01*
X56385Y-58987D01*
X56232Y-59140D01*
X56149Y-59340D01*
X56149Y-59556D01*
X56231Y-59756D01*
X56384Y-59909D01*
X56584Y-59992D01*
X56800Y-59992D01*
X57000Y-59909D01*
X57153Y-59757D01*
X57190Y-59668D01*
X58374Y-59668D01*
X58458Y-59652D01*
X58458Y-59652D01*
X58529Y-59604D01*
X62474Y-55659D01*
X62448Y-55722D01*
X62448Y-55938D01*
X62531Y-56138D01*
X62659Y-56267D01*
X62648Y-56272D01*
X62609Y-56377D01*
X62992Y-56759D01*
X62997Y-56754D01*
X63068Y-56825D01*
X63062Y-56830D01*
X63445Y-57213D01*
X63550Y-57174D01*
X63639Y-56934D01*
X63634Y-56784D01*
X64513Y-57663D01*
X64513Y-58433D01*
X64084Y-58433D01*
X64028Y-58456D01*
X63986Y-58498D01*
X63963Y-58553D01*
X63963Y-58612D01*
X63963Y-58620D01*
X63916Y-58610D01*
X63489Y-58610D01*
X63453Y-58523D01*
X63300Y-58370D01*
X63205Y-58330D01*
X63299Y-58291D01*
X63452Y-58138D01*
X63535Y-57939D01*
X63535Y-57723D01*
X63453Y-57523D01*
X63324Y-57394D01*
X63336Y-57389D01*
X63375Y-57284D01*
X62992Y-56901D01*
X62921Y-56972D01*
X62921Y-56830D01*
X62538Y-56447D01*
X62433Y-56486D01*
X62344Y-56726D01*
X62353Y-56982D01*
X62433Y-57174D01*
X62538Y-57213D01*
X62921Y-56830D01*
X62921Y-56972D01*
X62609Y-57284D01*
X62648Y-57389D01*
X62660Y-57393D01*
X62531Y-57522D01*
X62448Y-57722D01*
X62448Y-57938D01*
X62531Y-58138D01*
X62683Y-58291D01*
X62778Y-58330D01*
X62684Y-58369D01*
X62531Y-58522D01*
X62494Y-58610D01*
X60657Y-58610D01*
X60573Y-58627D01*
X60501Y-58675D01*
X56336Y-62840D01*
X56220Y-62793D01*
X55984Y-62792D01*
X55766Y-62882D01*
X55687Y-62962D01*
X55687Y-62889D01*
X55720Y-62856D01*
X55720Y-62856D01*
X55720Y-62856D01*
X55774Y-62775D01*
X55774Y-62775D01*
X55793Y-62679D01*
X55793Y-62649D01*
X55801Y-62649D01*
X55864Y-62623D01*
X55912Y-62576D01*
X55938Y-62513D01*
X55938Y-62454D01*
X55968Y-62454D01*
X56063Y-62435D01*
X56144Y-62381D01*
X56199Y-62300D01*
X56207Y-62255D01*
X56511Y-61952D01*
X56580Y-61980D01*
X56804Y-61980D01*
X57011Y-61895D01*
X57170Y-61736D01*
X57256Y-61529D01*
X57256Y-61305D01*
X57170Y-61098D01*
X57012Y-60939D01*
X56805Y-60853D01*
X56581Y-60853D01*
X56374Y-60939D01*
X56215Y-61097D01*
X56129Y-61304D01*
X56129Y-61528D01*
X56158Y-61598D01*
X55915Y-61841D01*
X55912Y-61833D01*
X55864Y-61785D01*
X55802Y-61759D01*
X55734Y-61759D01*
X55643Y-61759D01*
X55643Y-57526D01*
X55643Y-56977D01*
X55605Y-56885D01*
X55534Y-56815D01*
X55443Y-56777D01*
X55343Y-56777D01*
X55230Y-56777D01*
X55168Y-56839D01*
X55168Y-57202D01*
X55580Y-57202D01*
X55643Y-57139D01*
X55643Y-56977D01*
X55643Y-57526D01*
X55643Y-57364D01*
X55580Y-57302D01*
X55168Y-57302D01*
X55168Y-57310D01*
X55068Y-57310D01*
X55068Y-57302D01*
X55068Y-57202D01*
X55068Y-56839D01*
X55005Y-56777D01*
X54892Y-56777D01*
X54793Y-56777D01*
X54701Y-56815D01*
X54631Y-56885D01*
X54593Y-56977D01*
X54593Y-57139D01*
X54655Y-57202D01*
X55068Y-57202D01*
X55068Y-57302D01*
X54655Y-57302D01*
X54593Y-57364D01*
X54593Y-57526D01*
X54631Y-57618D01*
X54701Y-57688D01*
X54793Y-57727D01*
X54813Y-57727D01*
X54813Y-57727D01*
X54758Y-57749D01*
X54716Y-57792D01*
X54693Y-57847D01*
X54693Y-57906D01*
X54693Y-58356D01*
X54715Y-58412D01*
X54758Y-58454D01*
X54813Y-58477D01*
X54872Y-58477D01*
X54898Y-58477D01*
X54898Y-58520D01*
X54846Y-58541D01*
X54711Y-58676D01*
X54638Y-58852D01*
X54638Y-59043D01*
X54710Y-59220D01*
X54845Y-59355D01*
X55022Y-59428D01*
X55213Y-59428D01*
X55389Y-59355D01*
X55524Y-59221D01*
X55598Y-59044D01*
X55598Y-58853D01*
X55525Y-58677D01*
X55390Y-58542D01*
X55338Y-58520D01*
X55338Y-58477D01*
X55422Y-58477D01*
X55477Y-58454D01*
X55520Y-58412D01*
X55543Y-58357D01*
X55543Y-58297D01*
X55543Y-57847D01*
X55520Y-57792D01*
X55478Y-57750D01*
X55423Y-57727D01*
X55393Y-57727D01*
X55443Y-57727D01*
X55534Y-57688D01*
X55605Y-57618D01*
X55643Y-57526D01*
X55643Y-61759D01*
X55598Y-61759D01*
X55598Y-59853D01*
X55525Y-59677D01*
X55390Y-59542D01*
X55214Y-59468D01*
X55023Y-59468D01*
X54846Y-59541D01*
X54711Y-59676D01*
X54638Y-59852D01*
X54638Y-60043D01*
X54710Y-60220D01*
X54845Y-60355D01*
X55022Y-60428D01*
X55213Y-60428D01*
X55389Y-60355D01*
X55524Y-60221D01*
X55598Y-60044D01*
X55598Y-59853D01*
X55598Y-61759D01*
X55284Y-61759D01*
X55221Y-61785D01*
X55174Y-61833D01*
X55148Y-61895D01*
X55148Y-61963D01*
X55148Y-62513D01*
X55173Y-62575D01*
X55221Y-62623D01*
X55244Y-62633D01*
X55206Y-62690D01*
X55187Y-62786D01*
X55187Y-70003D01*
X55206Y-70099D01*
X55260Y-70180D01*
X56158Y-71078D01*
X56129Y-71147D01*
X56129Y-71371D01*
X56214Y-71578D01*
X56373Y-71737D01*
X56580Y-71823D01*
X56804Y-71823D01*
X57011Y-71737D01*
X57170Y-71579D01*
X57256Y-71372D01*
X57256Y-71148D01*
X57170Y-70941D01*
X57012Y-70782D01*
X56805Y-70696D01*
X56581Y-70696D01*
X56511Y-70725D01*
X55687Y-69900D01*
X55687Y-65777D01*
X55766Y-65856D01*
X55983Y-65947D01*
X56219Y-65947D01*
X56437Y-65857D01*
X56604Y-65690D01*
X56695Y-65472D01*
X56695Y-65236D01*
X56605Y-65018D01*
X56438Y-64851D01*
X56220Y-64761D01*
X55984Y-64761D01*
X55766Y-64851D01*
X55687Y-64931D01*
X55687Y-63808D01*
X55766Y-63888D01*
X55983Y-63978D01*
X56219Y-63978D01*
X56437Y-63888D01*
X56604Y-63722D01*
X56695Y-63504D01*
X56695Y-63268D01*
X56647Y-63152D01*
X60748Y-59050D01*
X62494Y-59050D01*
X62531Y-59138D01*
X62683Y-59291D01*
X62883Y-59374D01*
X63099Y-59374D01*
X63299Y-59291D01*
X63452Y-59138D01*
X63489Y-59050D01*
X63843Y-59050D01*
X63859Y-59061D01*
X63943Y-59078D01*
X63943Y-59078D01*
X63963Y-59078D01*
X63963Y-59162D01*
X63986Y-59218D01*
X64028Y-59260D01*
X64083Y-59283D01*
X64143Y-59283D01*
X64513Y-59283D01*
X64513Y-61159D01*
X57340Y-68332D01*
X57340Y-67426D01*
X57331Y-67171D01*
X57251Y-66978D01*
X57146Y-66939D01*
X57075Y-67010D01*
X57075Y-66869D01*
X57036Y-66764D01*
X56797Y-66675D01*
X56541Y-66684D01*
X56348Y-66764D01*
X56310Y-66869D01*
X56692Y-67252D01*
X57075Y-66869D01*
X57075Y-67010D01*
X56763Y-67322D01*
X57146Y-67705D01*
X57251Y-67666D01*
X57340Y-67426D01*
X57340Y-68332D01*
X57075Y-68597D01*
X57075Y-67776D01*
X56692Y-67393D01*
X56622Y-67464D01*
X56622Y-67322D01*
X56239Y-66939D01*
X56134Y-66978D01*
X56045Y-67218D01*
X56054Y-67474D01*
X56134Y-67666D01*
X56239Y-67705D01*
X56622Y-67322D01*
X56622Y-67464D01*
X56310Y-67776D01*
X56348Y-67881D01*
X56588Y-67970D01*
X56844Y-67961D01*
X57036Y-67881D01*
X57075Y-67776D01*
X57075Y-68597D01*
X56888Y-68784D01*
X56801Y-68747D01*
X56585Y-68747D01*
X56385Y-68830D01*
X56232Y-68983D01*
X56149Y-69182D01*
X56149Y-69398D01*
X56231Y-69598D01*
X56384Y-69751D01*
X56584Y-69834D01*
X56800Y-69834D01*
X57000Y-69752D01*
X57153Y-69599D01*
X57236Y-69399D01*
X57236Y-69183D01*
X57200Y-69095D01*
X64889Y-61405D01*
X64889Y-61405D01*
X64937Y-61334D01*
X64953Y-61250D01*
X64953Y-61250D01*
X64953Y-59283D01*
X64968Y-59283D01*
X64968Y-65125D01*
X64968Y-65126D01*
X64968Y-71301D01*
X63623Y-72646D01*
X63576Y-72718D01*
X63559Y-72802D01*
X63559Y-72862D01*
X63442Y-72886D01*
X63169Y-73068D01*
X62987Y-73340D01*
X62924Y-73661D01*
X62987Y-73982D01*
X63169Y-74254D01*
X63442Y-74436D01*
X63763Y-74500D01*
X63795Y-74500D01*
X64117Y-74436D01*
X64389Y-74254D01*
X64571Y-73982D01*
X64634Y-73661D01*
X64571Y-73340D01*
X64389Y-73068D01*
X64117Y-72886D01*
X64025Y-72868D01*
X65344Y-71548D01*
X65344Y-71548D01*
X65392Y-71477D01*
X65408Y-71392D01*
X65408Y-71392D01*
X65408Y-65125D01*
X65408Y-59283D01*
X65443Y-59283D01*
X65498Y-59260D01*
X65540Y-59218D01*
X65563Y-59163D01*
X65563Y-59103D01*
X65563Y-74708D01*
X65480Y-74669D01*
X65429Y-74681D01*
X65210Y-74804D01*
X65054Y-75002D01*
X64986Y-75245D01*
X64986Y-75540D01*
X65579Y-75540D01*
X65579Y-75640D01*
X64986Y-75640D01*
X64986Y-75935D01*
X65054Y-76178D01*
X65210Y-76376D01*
X65429Y-76499D01*
X65480Y-76511D01*
X65579Y-76464D01*
X65579Y-77586D01*
X64234Y-77586D01*
X64389Y-77483D01*
X64571Y-77210D01*
X64634Y-76889D01*
X64571Y-76568D01*
X64389Y-76296D01*
X64117Y-76114D01*
X63795Y-76050D01*
X63763Y-76050D01*
X63442Y-76114D01*
X63169Y-76296D01*
X62987Y-76568D01*
X62924Y-76889D01*
X62987Y-77210D01*
X63169Y-77483D01*
X63324Y-77586D01*
X62868Y-77586D01*
X62868Y-75935D01*
X62868Y-75640D01*
X62868Y-75540D01*
X62868Y-75245D01*
X62777Y-74889D01*
X62557Y-74595D01*
X62242Y-74408D01*
X62125Y-74376D01*
X61979Y-74420D01*
X61979Y-75540D01*
X62868Y-75540D01*
X62868Y-75640D01*
X61979Y-75640D01*
X61979Y-76760D01*
X62125Y-76804D01*
X62242Y-76772D01*
X62557Y-76585D01*
X62777Y-76291D01*
X62868Y-75935D01*
X62868Y-77586D01*
X61879Y-77586D01*
X61879Y-76760D01*
X61879Y-75640D01*
X61879Y-75540D01*
X61879Y-74420D01*
X61733Y-74376D01*
X61615Y-74408D01*
X61300Y-74595D01*
X61080Y-74889D01*
X60990Y-75245D01*
X60990Y-75540D01*
X61879Y-75540D01*
X61879Y-75640D01*
X60990Y-75640D01*
X60990Y-75935D01*
X61080Y-76291D01*
X61300Y-76585D01*
X61615Y-76772D01*
X61733Y-76804D01*
X61879Y-76760D01*
X61879Y-77586D01*
X60564Y-77586D01*
X60564Y-75935D01*
X60564Y-75640D01*
X60564Y-75540D01*
X60564Y-75245D01*
X60496Y-75002D01*
X60341Y-74804D01*
X60121Y-74681D01*
X60071Y-74669D01*
X59971Y-74716D01*
X59971Y-75540D01*
X60564Y-75540D01*
X60564Y-75640D01*
X59971Y-75640D01*
X59971Y-76464D01*
X60071Y-76511D01*
X60121Y-76499D01*
X60341Y-76376D01*
X60496Y-76178D01*
X60564Y-75935D01*
X60564Y-77586D01*
X59871Y-77586D01*
X59871Y-76464D01*
X59871Y-75640D01*
X59871Y-75540D01*
X59871Y-74716D01*
X59771Y-74669D01*
X59721Y-74681D01*
X59501Y-74804D01*
X59345Y-75002D01*
X59277Y-75245D01*
X59277Y-75540D01*
X59871Y-75540D01*
X59871Y-75640D01*
X59277Y-75640D01*
X59277Y-75935D01*
X59345Y-76178D01*
X59501Y-76376D01*
X59721Y-76499D01*
X59771Y-76511D01*
X59871Y-76464D01*
X59871Y-77586D01*
X58526Y-77586D01*
X58680Y-77483D01*
X58862Y-77210D01*
X58926Y-76889D01*
X58926Y-73661D01*
X58862Y-73340D01*
X58680Y-73068D01*
X58408Y-72886D01*
X58087Y-72822D01*
X58054Y-72822D01*
X57733Y-72886D01*
X57461Y-73068D01*
X57279Y-73340D01*
X57215Y-73661D01*
X57279Y-73982D01*
X57461Y-74254D01*
X57733Y-74436D01*
X58054Y-74500D01*
X58087Y-74500D01*
X58408Y-74436D01*
X58680Y-74254D01*
X58862Y-73982D01*
X58926Y-73661D01*
X58926Y-76889D01*
X58862Y-76568D01*
X58680Y-76296D01*
X58408Y-76114D01*
X58087Y-76050D01*
X58054Y-76050D01*
X57733Y-76114D01*
X57461Y-76296D01*
X57279Y-76568D01*
X57215Y-76889D01*
X57279Y-77210D01*
X57461Y-77483D01*
X57615Y-77586D01*
X57159Y-77586D01*
X57159Y-75935D01*
X57159Y-75640D01*
X57159Y-75540D01*
X57159Y-75245D01*
X57068Y-74889D01*
X56849Y-74595D01*
X56533Y-74408D01*
X56416Y-74376D01*
X56270Y-74420D01*
X56270Y-75540D01*
X57159Y-75540D01*
X57159Y-75640D01*
X56270Y-75640D01*
X56270Y-76760D01*
X56416Y-76804D01*
X56533Y-76772D01*
X56849Y-76585D01*
X57068Y-76291D01*
X57159Y-75935D01*
X57159Y-77586D01*
X56170Y-77586D01*
X56170Y-76760D01*
X56170Y-75640D01*
X56170Y-75540D01*
X56170Y-74420D01*
X56024Y-74376D01*
X55907Y-74408D01*
X55591Y-74595D01*
X55372Y-74889D01*
X55281Y-75245D01*
X55281Y-75540D01*
X56170Y-75540D01*
X56170Y-75640D01*
X55281Y-75640D01*
X55281Y-75935D01*
X55372Y-76291D01*
X55591Y-76585D01*
X55907Y-76772D01*
X56024Y-76804D01*
X56170Y-76760D01*
X56170Y-77586D01*
X55068Y-77586D01*
X55068Y-62450D01*
X55068Y-61900D01*
X55045Y-61844D01*
X55003Y-61802D01*
X54948Y-61779D01*
X54888Y-61779D01*
X54438Y-61779D01*
X54384Y-61802D01*
X54389Y-61774D01*
X54393Y-61755D01*
X54393Y-61755D01*
X54393Y-61755D01*
X54393Y-58080D01*
X54374Y-57985D01*
X54374Y-57985D01*
X54320Y-57903D01*
X54320Y-57903D01*
X54078Y-57661D01*
X54106Y-57592D01*
X54106Y-57368D01*
X54021Y-57161D01*
X53862Y-57002D01*
X53655Y-56916D01*
X53431Y-56916D01*
X53224Y-57002D01*
X53065Y-57160D01*
X52979Y-57367D01*
X52979Y-57591D01*
X53065Y-57799D01*
X53223Y-57957D01*
X53430Y-58043D01*
X53654Y-58043D01*
X53724Y-58015D01*
X53893Y-58184D01*
X53893Y-59030D01*
X53851Y-58988D01*
X53651Y-58905D01*
X53435Y-58905D01*
X53235Y-58987D01*
X53082Y-59140D01*
X52999Y-59340D01*
X52999Y-59556D01*
X53082Y-59756D01*
X53235Y-59909D01*
X53434Y-59992D01*
X53650Y-59992D01*
X53850Y-59909D01*
X53893Y-59866D01*
X53893Y-60875D01*
X53887Y-60858D01*
X53647Y-60769D01*
X53391Y-60779D01*
X53199Y-60858D01*
X53160Y-60963D01*
X53543Y-61346D01*
X53548Y-61341D01*
X53619Y-61411D01*
X53614Y-61417D01*
X53619Y-61422D01*
X53548Y-61493D01*
X53543Y-61488D01*
X53472Y-61558D01*
X53472Y-61417D01*
X53089Y-61034D01*
X52984Y-61073D01*
X52895Y-61313D01*
X52904Y-61569D01*
X52984Y-61761D01*
X53089Y-61800D01*
X53472Y-61417D01*
X53472Y-61558D01*
X53160Y-61870D01*
X53199Y-61975D01*
X53439Y-62065D01*
X53481Y-62063D01*
X53301Y-62243D01*
X53247Y-62324D01*
X53228Y-62420D01*
X53228Y-66843D01*
X53224Y-66844D01*
X53065Y-67003D01*
X52979Y-67210D01*
X52979Y-67434D01*
X53065Y-67641D01*
X53223Y-67800D01*
X53430Y-67886D01*
X53654Y-67886D01*
X53862Y-67800D01*
X54020Y-67642D01*
X54106Y-67435D01*
X54106Y-67211D01*
X54021Y-67004D01*
X53862Y-66845D01*
X53728Y-66789D01*
X53728Y-65787D01*
X53797Y-65856D01*
X54015Y-65947D01*
X54251Y-65947D01*
X54469Y-65857D01*
X54636Y-65690D01*
X54726Y-65472D01*
X54726Y-65236D01*
X54636Y-65018D01*
X54470Y-64851D01*
X54252Y-64761D01*
X54016Y-64761D01*
X53798Y-64851D01*
X53728Y-64921D01*
X53728Y-63818D01*
X53797Y-63888D01*
X54015Y-63978D01*
X54251Y-63978D01*
X54469Y-63888D01*
X54636Y-63722D01*
X54726Y-63504D01*
X54726Y-63268D01*
X54678Y-63152D01*
X54848Y-62982D01*
X54896Y-62910D01*
X54896Y-62910D01*
X54912Y-62826D01*
X54912Y-62826D01*
X54912Y-62629D01*
X54947Y-62629D01*
X55002Y-62606D01*
X55045Y-62564D01*
X55068Y-62509D01*
X55068Y-62450D01*
X55068Y-77586D01*
X54659Y-77586D01*
X54659Y-75935D01*
X54659Y-75640D01*
X54659Y-75540D01*
X54659Y-75245D01*
X54591Y-75002D01*
X54435Y-74804D01*
X54215Y-74681D01*
X54191Y-74675D01*
X54191Y-71363D01*
X54181Y-71108D01*
X54101Y-70915D01*
X54086Y-70910D01*
X54086Y-69183D01*
X54004Y-68983D01*
X53851Y-68830D01*
X53651Y-68747D01*
X53435Y-68747D01*
X53235Y-68830D01*
X53082Y-68983D01*
X52999Y-69182D01*
X52999Y-69398D01*
X53082Y-69598D01*
X53235Y-69751D01*
X53434Y-69834D01*
X53650Y-69834D01*
X53850Y-69752D01*
X54003Y-69599D01*
X54086Y-69399D01*
X54086Y-69183D01*
X54086Y-70910D01*
X53996Y-70876D01*
X53926Y-70947D01*
X53926Y-70806D01*
X53887Y-70701D01*
X53647Y-70612D01*
X53391Y-70621D01*
X53199Y-70701D01*
X53160Y-70806D01*
X53543Y-71189D01*
X53926Y-70806D01*
X53926Y-70947D01*
X53614Y-71259D01*
X53996Y-71642D01*
X54101Y-71603D01*
X54191Y-71363D01*
X54191Y-74675D01*
X54165Y-74669D01*
X54065Y-74716D01*
X54065Y-75540D01*
X54659Y-75540D01*
X54659Y-75640D01*
X54065Y-75640D01*
X54065Y-76464D01*
X54165Y-76511D01*
X54215Y-76499D01*
X54435Y-76376D01*
X54591Y-76178D01*
X54659Y-75935D01*
X54659Y-77586D01*
X53965Y-77586D01*
X53965Y-76464D01*
X53965Y-75640D01*
X53965Y-75540D01*
X53965Y-74716D01*
X53926Y-74697D01*
X53926Y-71713D01*
X53543Y-71330D01*
X53472Y-71401D01*
X53472Y-71259D01*
X53089Y-70876D01*
X52984Y-70915D01*
X52895Y-71155D01*
X52904Y-71411D01*
X52984Y-71603D01*
X53089Y-71642D01*
X53472Y-71259D01*
X53472Y-71401D01*
X53160Y-71713D01*
X53199Y-71818D01*
X53439Y-71907D01*
X53695Y-71898D01*
X53887Y-71818D01*
X53926Y-71713D01*
X53926Y-74697D01*
X53865Y-74669D01*
X53815Y-74681D01*
X53595Y-74804D01*
X53440Y-75002D01*
X53372Y-75245D01*
X53372Y-75540D01*
X53965Y-75540D01*
X53965Y-75640D01*
X53372Y-75640D01*
X53372Y-75935D01*
X53440Y-76178D01*
X53595Y-76376D01*
X53815Y-76499D01*
X53865Y-76511D01*
X53965Y-76464D01*
X53965Y-77586D01*
X52620Y-77586D01*
X52775Y-77483D01*
X52956Y-77210D01*
X53020Y-76889D01*
X53020Y-73661D01*
X52956Y-73340D01*
X52775Y-73068D01*
X52502Y-72886D01*
X52181Y-72822D01*
X52148Y-72822D01*
X51827Y-72886D01*
X51555Y-73068D01*
X51373Y-73340D01*
X51309Y-73661D01*
X51373Y-73982D01*
X51555Y-74254D01*
X51827Y-74436D01*
X52148Y-74500D01*
X52181Y-74500D01*
X52502Y-74436D01*
X52775Y-74254D01*
X52956Y-73982D01*
X53020Y-73661D01*
X53020Y-76889D01*
X52956Y-76568D01*
X52775Y-76296D01*
X52502Y-76114D01*
X52181Y-76050D01*
X52148Y-76050D01*
X51827Y-76114D01*
X51555Y-76296D01*
X51373Y-76568D01*
X51309Y-76889D01*
X51373Y-77210D01*
X51555Y-77483D01*
X51710Y-77586D01*
X51253Y-77586D01*
X51253Y-75935D01*
X51253Y-75640D01*
X51253Y-75540D01*
X51253Y-75245D01*
X51163Y-74889D01*
X50943Y-74595D01*
X50628Y-74408D01*
X50511Y-74376D01*
X50364Y-74420D01*
X50364Y-75540D01*
X51253Y-75540D01*
X51253Y-75640D01*
X50364Y-75640D01*
X50364Y-76760D01*
X50511Y-76804D01*
X50628Y-76772D01*
X50943Y-76585D01*
X51163Y-76291D01*
X51253Y-75935D01*
X51253Y-77586D01*
X50264Y-77586D01*
X50264Y-76760D01*
X50264Y-75640D01*
X50264Y-75540D01*
X50264Y-74420D01*
X50118Y-74376D01*
X50001Y-74408D01*
X49686Y-74595D01*
X49466Y-74889D01*
X49375Y-75245D01*
X49375Y-75540D01*
X50264Y-75540D01*
X50264Y-75640D01*
X49375Y-75640D01*
X49375Y-75935D01*
X49466Y-76291D01*
X49686Y-76585D01*
X50001Y-76772D01*
X50118Y-76804D01*
X50264Y-76760D01*
X50264Y-77586D01*
X48950Y-77586D01*
X48950Y-75935D01*
X48950Y-75640D01*
X48950Y-75540D01*
X48950Y-75245D01*
X48882Y-75002D01*
X48726Y-74804D01*
X48507Y-74681D01*
X48456Y-74669D01*
X48357Y-74716D01*
X48357Y-75540D01*
X48950Y-75540D01*
X48950Y-75640D01*
X48357Y-75640D01*
X48357Y-76464D01*
X48456Y-76511D01*
X48507Y-76499D01*
X48726Y-76376D01*
X48882Y-76178D01*
X48950Y-75935D01*
X48950Y-77586D01*
X48257Y-77586D01*
X48257Y-76464D01*
X48257Y-75640D01*
X48257Y-75540D01*
X48257Y-74716D01*
X48157Y-74669D01*
X48106Y-74681D01*
X47887Y-74804D01*
X47731Y-75002D01*
X47663Y-75245D01*
X47663Y-75540D01*
X48257Y-75540D01*
X48257Y-75640D01*
X47663Y-75640D01*
X47663Y-75935D01*
X47731Y-76178D01*
X47887Y-76376D01*
X48106Y-76499D01*
X48157Y-76511D01*
X48257Y-76464D01*
X48257Y-77586D01*
X46911Y-77586D01*
X47066Y-77483D01*
X47248Y-77210D01*
X47312Y-76889D01*
X47312Y-73661D01*
X47248Y-73340D01*
X47066Y-73068D01*
X46794Y-72886D01*
X46473Y-72822D01*
X46440Y-72822D01*
X46119Y-72886D01*
X45847Y-73068D01*
X45665Y-73340D01*
X45601Y-73661D01*
X45665Y-73982D01*
X45847Y-74254D01*
X46119Y-74436D01*
X46440Y-74500D01*
X46473Y-74500D01*
X46794Y-74436D01*
X47066Y-74254D01*
X47248Y-73982D01*
X47312Y-73661D01*
X47312Y-76889D01*
X47248Y-76568D01*
X47066Y-76296D01*
X46794Y-76114D01*
X46473Y-76050D01*
X46440Y-76050D01*
X46119Y-76114D01*
X45847Y-76296D01*
X45665Y-76568D01*
X45601Y-76889D01*
X45665Y-77210D01*
X45847Y-77483D01*
X46001Y-77586D01*
X45545Y-77586D01*
X45545Y-75935D01*
X45545Y-75640D01*
X45545Y-75540D01*
X45545Y-75245D01*
X45454Y-74889D01*
X45234Y-74595D01*
X44919Y-74408D01*
X44802Y-74376D01*
X44656Y-74420D01*
X44656Y-75540D01*
X45545Y-75540D01*
X45545Y-75640D01*
X44656Y-75640D01*
X44656Y-76760D01*
X44802Y-76804D01*
X44919Y-76772D01*
X45234Y-76585D01*
X45454Y-76291D01*
X45545Y-75935D01*
X45545Y-77586D01*
X43870Y-77586D01*
X43870Y-76441D01*
X43977Y-76585D01*
X44293Y-76772D01*
X44410Y-76804D01*
X44556Y-76760D01*
X44556Y-75640D01*
X44548Y-75640D01*
X44548Y-75540D01*
X44556Y-75540D01*
X44556Y-74420D01*
X44410Y-74376D01*
X44293Y-74408D01*
X43977Y-74595D01*
X43870Y-74739D01*
X43870Y-38555D01*
X49414Y-38555D01*
X49232Y-38736D01*
X49178Y-38817D01*
X49159Y-38913D01*
X49159Y-38943D01*
X49100Y-38943D01*
X49038Y-38969D01*
X48990Y-39017D01*
X48964Y-39079D01*
X48964Y-39147D01*
X48964Y-39430D01*
X48234Y-40160D01*
X48180Y-40241D01*
X48179Y-40245D01*
X48061Y-40195D01*
X47911Y-40195D01*
X47774Y-40252D01*
X47668Y-40358D01*
X47611Y-40495D01*
X47611Y-40634D01*
X47259Y-40986D01*
X47211Y-41057D01*
X47194Y-41142D01*
X47194Y-41342D01*
X46348Y-41342D01*
X46293Y-41364D01*
X46268Y-41390D01*
X45444Y-41390D01*
X45330Y-41275D01*
X45355Y-41250D01*
X45378Y-41195D01*
X45378Y-41135D01*
X45378Y-40895D01*
X45355Y-40840D01*
X45313Y-40798D01*
X45258Y-40775D01*
X45199Y-40775D01*
X44899Y-40775D01*
X44843Y-40798D01*
X44801Y-40840D01*
X44778Y-40895D01*
X44778Y-40955D01*
X44778Y-41195D01*
X44801Y-41250D01*
X44843Y-41292D01*
X44858Y-41298D01*
X44858Y-41335D01*
X44875Y-41419D01*
X44923Y-41490D01*
X45187Y-41755D01*
X44899Y-41755D01*
X44843Y-41778D01*
X44801Y-41820D01*
X44778Y-41875D01*
X44778Y-41935D01*
X44778Y-42175D01*
X44787Y-42195D01*
X44716Y-42195D01*
X44620Y-42214D01*
X44539Y-42268D01*
X44538Y-42269D01*
X44186Y-42622D01*
X44132Y-42703D01*
X44112Y-42798D01*
X44112Y-55949D01*
X44132Y-56045D01*
X44186Y-56126D01*
X46680Y-58620D01*
X46680Y-59257D01*
X46706Y-59320D01*
X46754Y-59368D01*
X46816Y-59394D01*
X46884Y-59394D01*
X47671Y-59394D01*
X47733Y-59368D01*
X47781Y-59320D01*
X47807Y-59258D01*
X47807Y-59190D01*
X47807Y-59080D01*
X47837Y-59080D01*
X47933Y-59061D01*
X48014Y-59007D01*
X50568Y-56453D01*
X56025Y-56453D01*
X56121Y-56434D01*
X56202Y-56380D01*
X62428Y-50154D01*
X62428Y-50257D01*
X62454Y-50320D01*
X62502Y-50368D01*
X62564Y-50394D01*
X62632Y-50394D01*
X62660Y-50394D01*
X62531Y-50522D01*
X62448Y-50722D01*
X62448Y-50938D01*
X62531Y-51138D01*
X62683Y-51291D01*
X62752Y-51319D01*
X62673Y-51352D01*
X62514Y-51511D01*
X62428Y-51718D01*
X62428Y-51942D01*
X62514Y-52149D01*
X62672Y-52308D01*
X62752Y-52341D01*
X62684Y-52369D01*
X62531Y-52522D01*
X62448Y-52722D01*
X62448Y-52938D01*
X62531Y-53138D01*
X62659Y-53267D01*
X62648Y-53272D01*
X62609Y-53377D01*
X62992Y-53759D01*
X63375Y-53377D01*
X63336Y-53272D01*
X63323Y-53267D01*
X63452Y-53138D01*
X63535Y-52939D01*
X63535Y-52723D01*
X63453Y-52523D01*
X63300Y-52370D01*
X63231Y-52341D01*
X63310Y-52308D01*
X63469Y-52150D01*
X63555Y-51943D01*
X63555Y-51719D01*
X63470Y-51511D01*
X63311Y-51353D01*
X63231Y-51319D01*
X63299Y-51291D01*
X63452Y-51138D01*
X63535Y-50939D01*
X63535Y-50723D01*
X63520Y-50686D01*
X63731Y-50475D01*
X63731Y-50475D01*
X63778Y-50404D01*
X63795Y-50320D01*
X63795Y-50320D01*
X63795Y-49341D01*
X63795Y-49340D01*
X63795Y-49340D01*
X63795Y-49340D01*
X63790Y-49315D01*
X63779Y-49256D01*
X63778Y-49256D01*
X63778Y-49256D01*
X63766Y-49237D01*
X63731Y-49185D01*
X63633Y-49086D01*
X63632Y-49086D01*
X63632Y-49086D01*
X63597Y-49062D01*
X63561Y-49038D01*
X63561Y-49038D01*
X63561Y-49038D01*
X63519Y-49030D01*
X63477Y-49021D01*
X63477Y-49021D01*
X63477Y-49021D01*
X57057Y-49021D01*
X56973Y-49038D01*
X56901Y-49086D01*
X56888Y-49099D01*
X56801Y-49062D01*
X56585Y-49062D01*
X56421Y-49130D01*
X59137Y-46414D01*
X59191Y-46333D01*
X59211Y-46237D01*
X59211Y-45495D01*
X59279Y-45467D01*
X59438Y-45308D01*
X59524Y-45101D01*
X59524Y-44877D01*
X59439Y-44670D01*
X59305Y-44536D01*
X59305Y-43142D01*
X59363Y-43142D01*
X59426Y-43117D01*
X59474Y-43069D01*
X59500Y-43006D01*
X59500Y-42998D01*
X59530Y-42998D01*
X59530Y-42997D01*
X59531Y-42998D01*
X59578Y-42988D01*
X59625Y-42979D01*
X59626Y-42978D01*
X59627Y-42978D01*
X59650Y-42962D01*
X59788Y-42962D01*
X59788Y-43812D01*
X59814Y-43875D01*
X59826Y-43887D01*
X59826Y-47044D01*
X59845Y-47140D01*
X59899Y-47221D01*
X60406Y-47727D01*
X60406Y-47727D01*
X60487Y-47782D01*
X60487Y-47782D01*
X60564Y-47797D01*
X60583Y-47801D01*
X60583Y-47801D01*
X60583Y-47801D01*
X61421Y-47801D01*
X61391Y-47813D01*
X61349Y-47855D01*
X61326Y-47910D01*
X61326Y-47970D01*
X61326Y-48364D01*
X61348Y-48419D01*
X61391Y-48461D01*
X61446Y-48484D01*
X61505Y-48484D01*
X61781Y-48484D01*
X61837Y-48462D01*
X61879Y-48419D01*
X61902Y-48364D01*
X61902Y-48305D01*
X61902Y-47911D01*
X61879Y-47855D01*
X61837Y-47813D01*
X61807Y-47801D01*
X62222Y-47801D01*
X62318Y-47782D01*
X62399Y-47727D01*
X62447Y-47680D01*
X63189Y-47680D01*
X63323Y-47814D01*
X63323Y-47814D01*
X63404Y-47868D01*
X63404Y-47868D01*
X63500Y-47887D01*
X63530Y-47887D01*
X63530Y-47947D01*
X63556Y-48009D01*
X63604Y-48057D01*
X63666Y-48083D01*
X63734Y-48083D01*
X64285Y-48083D01*
X64348Y-48057D01*
X64387Y-48018D01*
X64420Y-48051D01*
X64466Y-48006D01*
X64490Y-48098D01*
X64687Y-48168D01*
X64896Y-48156D01*
X65036Y-48098D01*
X65061Y-48006D01*
X64763Y-47708D01*
X64758Y-47714D01*
X64687Y-47643D01*
X64693Y-47637D01*
X64687Y-47632D01*
X64758Y-47561D01*
X64763Y-47567D01*
X65061Y-47269D01*
X65036Y-47176D01*
X64839Y-47107D01*
X64630Y-47118D01*
X64490Y-47176D01*
X64466Y-47269D01*
X64420Y-47224D01*
X64387Y-47257D01*
X64348Y-47218D01*
X64285Y-47192D01*
X64218Y-47192D01*
X63667Y-47192D01*
X63604Y-47218D01*
X63556Y-47265D01*
X63534Y-47318D01*
X63469Y-47253D01*
X63388Y-47199D01*
X63293Y-47180D01*
X62714Y-47180D01*
X62714Y-46312D01*
X63507Y-46312D01*
X63603Y-46293D01*
X63684Y-46239D01*
X63688Y-46235D01*
X63757Y-46264D01*
X63981Y-46264D01*
X64188Y-46178D01*
X64347Y-46020D01*
X64370Y-45966D01*
X64392Y-46019D01*
X64550Y-46178D01*
X64757Y-46264D01*
X64981Y-46264D01*
X65188Y-46178D01*
X65347Y-46020D01*
X65433Y-45813D01*
X65433Y-45589D01*
X65348Y-45382D01*
X65217Y-45250D01*
X65252Y-45154D01*
X64870Y-44771D01*
X64799Y-44842D01*
X64799Y-44700D01*
X64416Y-44317D01*
X64370Y-44335D01*
X64323Y-44317D01*
X64252Y-44388D01*
X64252Y-44247D01*
X64235Y-44200D01*
X64252Y-44154D01*
X63870Y-43771D01*
X63799Y-43842D01*
X63799Y-43700D01*
X63416Y-43317D01*
X63311Y-43356D01*
X63222Y-43596D01*
X63231Y-43852D01*
X63311Y-44044D01*
X63416Y-44083D01*
X63799Y-43700D01*
X63799Y-43842D01*
X63487Y-44154D01*
X63504Y-44200D01*
X63487Y-44247D01*
X63870Y-44630D01*
X64252Y-44247D01*
X64252Y-44388D01*
X63940Y-44700D01*
X64323Y-45083D01*
X64370Y-45066D01*
X64416Y-45083D01*
X64799Y-44700D01*
X64799Y-44842D01*
X64487Y-45154D01*
X64522Y-45251D01*
X64392Y-45381D01*
X64370Y-45435D01*
X64348Y-45382D01*
X64217Y-45250D01*
X64252Y-45154D01*
X63870Y-44771D01*
X63799Y-44842D01*
X63799Y-44700D01*
X63416Y-44317D01*
X63311Y-44356D01*
X63222Y-44596D01*
X63231Y-44852D01*
X63311Y-45044D01*
X63416Y-45083D01*
X63799Y-44700D01*
X63799Y-44842D01*
X63487Y-45154D01*
X63522Y-45251D01*
X63392Y-45381D01*
X63306Y-45588D01*
X63306Y-45812D01*
X63306Y-45812D01*
X62514Y-45812D01*
X62514Y-44910D01*
X62514Y-44459D01*
X62514Y-44360D01*
X62475Y-44268D01*
X62405Y-44197D01*
X62313Y-44159D01*
X62151Y-44160D01*
X62089Y-44222D01*
X62089Y-44635D01*
X62451Y-44635D01*
X62514Y-44572D01*
X62514Y-44459D01*
X62514Y-44910D01*
X62514Y-44797D01*
X62451Y-44735D01*
X62089Y-44735D01*
X62089Y-45147D01*
X62151Y-45210D01*
X62313Y-45210D01*
X62405Y-45172D01*
X62475Y-45101D01*
X62514Y-45009D01*
X62514Y-44910D01*
X62514Y-45812D01*
X62464Y-45812D01*
X62434Y-45812D01*
X62434Y-45754D01*
X62408Y-45691D01*
X62360Y-45643D01*
X62298Y-45618D01*
X62230Y-45617D01*
X61780Y-45617D01*
X61718Y-45643D01*
X61670Y-45691D01*
X61644Y-45754D01*
X61644Y-45821D01*
X61644Y-46371D01*
X61669Y-46434D01*
X61717Y-46482D01*
X61780Y-46507D01*
X61847Y-46508D01*
X62214Y-46508D01*
X62214Y-46815D01*
X62212Y-46813D01*
X62157Y-46790D01*
X62097Y-46790D01*
X61825Y-46790D01*
X61499Y-46464D01*
X61541Y-46423D01*
X61564Y-46367D01*
X61564Y-46308D01*
X61564Y-45758D01*
X61541Y-45703D01*
X61499Y-45660D01*
X61444Y-45638D01*
X61408Y-45637D01*
X61408Y-45110D01*
X61443Y-45110D01*
X61499Y-45087D01*
X61541Y-45045D01*
X61564Y-44990D01*
X61564Y-44960D01*
X61564Y-45009D01*
X61602Y-45101D01*
X61672Y-45172D01*
X61764Y-45210D01*
X61926Y-45210D01*
X61989Y-45147D01*
X61989Y-44735D01*
X61981Y-44735D01*
X61981Y-44635D01*
X61989Y-44635D01*
X61989Y-44222D01*
X61926Y-44160D01*
X61764Y-44159D01*
X61672Y-44197D01*
X61602Y-44268D01*
X61564Y-44360D01*
X61564Y-44380D01*
X61541Y-44325D01*
X61499Y-44282D01*
X61469Y-44270D01*
X61571Y-44168D01*
X61576Y-44168D01*
X61660Y-44152D01*
X61732Y-44104D01*
X61780Y-44033D01*
X61796Y-43948D01*
X61796Y-43888D01*
X61821Y-43863D01*
X61844Y-43808D01*
X61844Y-43749D01*
X61844Y-42883D01*
X61822Y-42827D01*
X61796Y-42802D01*
X61796Y-42742D01*
X61780Y-42658D01*
X61780Y-42658D01*
X61732Y-42586D01*
X61296Y-42151D01*
X61296Y-41842D01*
X61313Y-41826D01*
X61314Y-41829D01*
X61362Y-41876D01*
X61424Y-41902D01*
X61492Y-41902D01*
X61728Y-41902D01*
X61790Y-41877D01*
X61838Y-41829D01*
X61864Y-41766D01*
X61864Y-41699D01*
X61864Y-40833D01*
X61838Y-40770D01*
X61832Y-40764D01*
X62209Y-40387D01*
X63498Y-40387D01*
X63620Y-40509D01*
X63620Y-41194D01*
X63551Y-41222D01*
X63392Y-41381D01*
X63306Y-41588D01*
X63306Y-41812D01*
X63392Y-42019D01*
X63522Y-42150D01*
X63487Y-42247D01*
X63870Y-42630D01*
X64252Y-42247D01*
X64217Y-42150D01*
X64306Y-42061D01*
X64306Y-42127D01*
X64332Y-42190D01*
X64380Y-42238D01*
X64398Y-42245D01*
X64371Y-42272D01*
X64416Y-42317D01*
X64370Y-42335D01*
X64323Y-42317D01*
X63940Y-42700D01*
X64323Y-43083D01*
X64370Y-43066D01*
X64416Y-43083D01*
X64799Y-42700D01*
X64793Y-42695D01*
X64864Y-42624D01*
X64870Y-42630D01*
X64875Y-42624D01*
X64946Y-42695D01*
X64940Y-42700D01*
X65323Y-43083D01*
X65428Y-43044D01*
X65517Y-42804D01*
X65508Y-42549D01*
X65428Y-42356D01*
X65323Y-42317D01*
X65368Y-42272D01*
X65341Y-42245D01*
X65359Y-42238D01*
X65407Y-42190D01*
X65433Y-42128D01*
X65433Y-42060D01*
X65433Y-41273D01*
X65407Y-41211D01*
X65360Y-41163D01*
X65297Y-41137D01*
X65289Y-41137D01*
X65289Y-39989D01*
X65289Y-39537D01*
X65289Y-39438D01*
X65251Y-39346D01*
X65180Y-39276D01*
X65088Y-39238D01*
X64876Y-39238D01*
X64813Y-39300D01*
X64813Y-39713D01*
X65226Y-39713D01*
X65289Y-39651D01*
X65289Y-39537D01*
X65289Y-39989D01*
X65289Y-39876D01*
X65226Y-39813D01*
X64813Y-39813D01*
X64813Y-40226D01*
X64876Y-40289D01*
X65088Y-40289D01*
X65180Y-40251D01*
X65251Y-40181D01*
X65289Y-40089D01*
X65289Y-39989D01*
X65289Y-41137D01*
X65229Y-41137D01*
X64442Y-41137D01*
X64380Y-41163D01*
X64332Y-41210D01*
X64306Y-41273D01*
X64306Y-41340D01*
X64189Y-41223D01*
X64120Y-41194D01*
X64120Y-40405D01*
X64101Y-40310D01*
X64101Y-40310D01*
X64046Y-40229D01*
X64027Y-40209D01*
X64064Y-40209D01*
X64228Y-40141D01*
X64250Y-40119D01*
X64276Y-40181D01*
X64346Y-40251D01*
X64438Y-40289D01*
X64651Y-40289D01*
X64713Y-40226D01*
X64713Y-39813D01*
X64705Y-39813D01*
X64705Y-39713D01*
X64713Y-39713D01*
X64713Y-39300D01*
X64651Y-39238D01*
X64438Y-39238D01*
X64346Y-39276D01*
X64276Y-39346D01*
X64250Y-39407D01*
X64229Y-39386D01*
X64065Y-39318D01*
X63888Y-39318D01*
X63724Y-39385D01*
X63598Y-39511D01*
X63530Y-39674D01*
X63530Y-39852D01*
X63531Y-39854D01*
X63498Y-39887D01*
X62120Y-39887D01*
X60788Y-38555D01*
X66365Y-38555D01*
X66365Y-77586D01*
M02*
