G04 (created by PCBNEW (2013-07-07 BZR 4022)-stable) date 2014-05-25 10:59:23 PM*
%MOIN*%
G04 Gerber Fmt 3.4, Leading zero omitted, Abs format*
%FSLAX34Y34*%
G01*
G70*
G90*
G04 APERTURE LIST*
%ADD10C,0.00590551*%
%ADD11C,0.011811*%
%ADD12C,0.00984252*%
%ADD13C,0.015*%
%ADD14C,0.005*%
%ADD15C,0.016*%
%ADD16C,0.0026*%
%ADD17C,0.008*%
%ADD18C,0.00787402*%
%ADD19C,0.006*%
%ADD20C,0.0787*%
%ADD21R,0.0787X0.0787*%
%ADD22R,0.0276X0.0394*%
%ADD23R,0.0236X0.0866*%
%ADD24R,0.03X0.024*%
%ADD25R,0.0866X0.0236*%
%ADD26R,0.055X0.045*%
%ADD27R,0.045X0.055*%
%ADD28O,0.137795X0.19685*%
%ADD29O,0.0787402X0.137795*%
%ADD30O,0.137795X0.137795*%
%ADD31C,0.0885827*%
%ADD32R,0.0551181X0.0551181*%
%ADD33C,0.0551181*%
G04 APERTURE END LIST*
G54D10*
G54D11*
X50660Y-64777D02*
X50604Y-64805D01*
X50492Y-64805D01*
X50435Y-64777D01*
X50407Y-64721D01*
X50407Y-64693D01*
X50435Y-64637D01*
X50492Y-64609D01*
X50576Y-64609D01*
X50632Y-64580D01*
X50660Y-64524D01*
X50660Y-64496D01*
X50632Y-64440D01*
X50576Y-64412D01*
X50492Y-64412D01*
X50435Y-64440D01*
X50210Y-64412D02*
X50070Y-64805D01*
X49929Y-64412D02*
X50070Y-64805D01*
X50126Y-64946D01*
X50154Y-64974D01*
X50210Y-65002D01*
X49732Y-64777D02*
X49676Y-64805D01*
X49564Y-64805D01*
X49507Y-64777D01*
X49479Y-64721D01*
X49479Y-64693D01*
X49507Y-64637D01*
X49564Y-64609D01*
X49648Y-64609D01*
X49704Y-64580D01*
X49732Y-64524D01*
X49732Y-64496D01*
X49704Y-64440D01*
X49648Y-64412D01*
X49564Y-64412D01*
X49507Y-64440D01*
X49311Y-64412D02*
X49086Y-64412D01*
X49226Y-64215D02*
X49226Y-64721D01*
X49198Y-64777D01*
X49142Y-64805D01*
X49086Y-64805D01*
X48664Y-64777D02*
X48720Y-64805D01*
X48832Y-64805D01*
X48889Y-64777D01*
X48917Y-64721D01*
X48917Y-64496D01*
X48889Y-64440D01*
X48832Y-64412D01*
X48720Y-64412D01*
X48664Y-64440D01*
X48636Y-64496D01*
X48636Y-64552D01*
X48917Y-64609D01*
X48383Y-64805D02*
X48383Y-64412D01*
X48383Y-64468D02*
X48354Y-64440D01*
X48298Y-64412D01*
X48214Y-64412D01*
X48158Y-64440D01*
X48129Y-64496D01*
X48129Y-64805D01*
X48129Y-64496D02*
X48101Y-64440D01*
X48045Y-64412D01*
X47961Y-64412D01*
X47904Y-64440D01*
X47876Y-64496D01*
X47876Y-64805D01*
X47651Y-64215D02*
X47258Y-64215D01*
X47511Y-64805D01*
X47005Y-64805D02*
X46892Y-64805D01*
X46836Y-64777D01*
X46808Y-64749D01*
X46751Y-64665D01*
X46723Y-64552D01*
X46723Y-64327D01*
X46751Y-64271D01*
X46780Y-64243D01*
X46836Y-64215D01*
X46948Y-64215D01*
X47005Y-64243D01*
X47033Y-64271D01*
X47061Y-64327D01*
X47061Y-64468D01*
X47033Y-64524D01*
X47005Y-64552D01*
X46948Y-64580D01*
X46836Y-64580D01*
X46780Y-64552D01*
X46751Y-64524D01*
X46723Y-64468D01*
X46470Y-64749D02*
X46442Y-64777D01*
X46470Y-64805D01*
X46498Y-64777D01*
X46470Y-64749D01*
X46470Y-64805D01*
X45936Y-64777D02*
X45992Y-64805D01*
X46105Y-64805D01*
X46161Y-64777D01*
X46189Y-64749D01*
X46217Y-64693D01*
X46217Y-64524D01*
X46189Y-64468D01*
X46161Y-64440D01*
X46105Y-64412D01*
X45992Y-64412D01*
X45936Y-64440D01*
X45598Y-64805D02*
X45655Y-64777D01*
X45683Y-64749D01*
X45711Y-64693D01*
X45711Y-64524D01*
X45683Y-64468D01*
X45655Y-64440D01*
X45598Y-64412D01*
X45514Y-64412D01*
X45458Y-64440D01*
X45430Y-64468D01*
X45402Y-64524D01*
X45402Y-64693D01*
X45430Y-64749D01*
X45458Y-64777D01*
X45514Y-64805D01*
X45598Y-64805D01*
X45149Y-64805D02*
X45149Y-64412D01*
X45149Y-64468D02*
X45120Y-64440D01*
X45064Y-64412D01*
X44980Y-64412D01*
X44924Y-64440D01*
X44895Y-64496D01*
X44895Y-64805D01*
X44895Y-64496D02*
X44867Y-64440D01*
X44811Y-64412D01*
X44727Y-64412D01*
X44670Y-64440D01*
X44642Y-64496D01*
X44642Y-64805D01*
X64791Y-64412D02*
X64651Y-64805D01*
X64510Y-64412D01*
X63976Y-64805D02*
X64313Y-64805D01*
X64145Y-64805D02*
X64145Y-64215D01*
X64201Y-64299D01*
X64257Y-64356D01*
X64313Y-64384D01*
X63723Y-64749D02*
X63695Y-64777D01*
X63723Y-64805D01*
X63751Y-64777D01*
X63723Y-64749D01*
X63723Y-64805D01*
X63329Y-64215D02*
X63273Y-64215D01*
X63217Y-64243D01*
X63188Y-64271D01*
X63160Y-64327D01*
X63132Y-64440D01*
X63132Y-64580D01*
X63160Y-64693D01*
X63188Y-64749D01*
X63217Y-64777D01*
X63273Y-64805D01*
X63329Y-64805D01*
X63385Y-64777D01*
X63413Y-64749D01*
X63442Y-64693D01*
X63470Y-64580D01*
X63470Y-64440D01*
X63442Y-64327D01*
X63413Y-64271D01*
X63385Y-64243D01*
X63329Y-64215D01*
X62317Y-64215D02*
X62260Y-64215D01*
X62204Y-64243D01*
X62176Y-64271D01*
X62148Y-64327D01*
X62120Y-64440D01*
X62120Y-64580D01*
X62148Y-64693D01*
X62176Y-64749D01*
X62204Y-64777D01*
X62260Y-64805D01*
X62317Y-64805D01*
X62373Y-64777D01*
X62401Y-64749D01*
X62429Y-64693D01*
X62457Y-64580D01*
X62457Y-64440D01*
X62429Y-64327D01*
X62401Y-64271D01*
X62373Y-64243D01*
X62317Y-64215D01*
X61586Y-64215D02*
X61867Y-64215D01*
X61895Y-64496D01*
X61867Y-64468D01*
X61811Y-64440D01*
X61670Y-64440D01*
X61614Y-64468D01*
X61586Y-64496D01*
X61557Y-64552D01*
X61557Y-64693D01*
X61586Y-64749D01*
X61614Y-64777D01*
X61670Y-64805D01*
X61811Y-64805D01*
X61867Y-64777D01*
X61895Y-64749D01*
X60883Y-64271D02*
X60854Y-64243D01*
X60798Y-64215D01*
X60658Y-64215D01*
X60601Y-64243D01*
X60573Y-64271D01*
X60545Y-64327D01*
X60545Y-64384D01*
X60573Y-64468D01*
X60911Y-64805D01*
X60545Y-64805D01*
X60179Y-64215D02*
X60123Y-64215D01*
X60067Y-64243D01*
X60039Y-64271D01*
X60011Y-64327D01*
X59983Y-64440D01*
X59983Y-64580D01*
X60011Y-64693D01*
X60039Y-64749D01*
X60067Y-64777D01*
X60123Y-64805D01*
X60179Y-64805D01*
X60236Y-64777D01*
X60264Y-64749D01*
X60292Y-64693D01*
X60320Y-64580D01*
X60320Y-64440D01*
X60292Y-64327D01*
X60264Y-64271D01*
X60236Y-64243D01*
X60179Y-64215D01*
X59420Y-64805D02*
X59758Y-64805D01*
X59589Y-64805D02*
X59589Y-64215D01*
X59645Y-64299D01*
X59701Y-64356D01*
X59758Y-64384D01*
X58914Y-64412D02*
X58914Y-64805D01*
X59055Y-64187D02*
X59195Y-64609D01*
X58830Y-64609D01*
X64777Y-63821D02*
X64777Y-63231D01*
X64637Y-63231D01*
X64552Y-63259D01*
X64496Y-63315D01*
X64468Y-63371D01*
X64440Y-63484D01*
X64440Y-63568D01*
X64468Y-63681D01*
X64496Y-63737D01*
X64552Y-63793D01*
X64637Y-63821D01*
X64777Y-63821D01*
X64187Y-63231D02*
X64187Y-63709D01*
X64159Y-63765D01*
X64131Y-63793D01*
X64074Y-63821D01*
X63962Y-63821D01*
X63906Y-63793D01*
X63877Y-63765D01*
X63849Y-63709D01*
X63849Y-63231D01*
X63596Y-63652D02*
X63315Y-63652D01*
X63652Y-63821D02*
X63456Y-63231D01*
X63259Y-63821D01*
X62781Y-63821D02*
X63062Y-63821D01*
X63062Y-63231D01*
X62162Y-63652D02*
X61881Y-63652D01*
X62218Y-63821D02*
X62021Y-63231D01*
X61825Y-63821D01*
X61628Y-63821D02*
X61628Y-63231D01*
X61487Y-63231D01*
X61403Y-63259D01*
X61347Y-63315D01*
X61318Y-63371D01*
X61290Y-63484D01*
X61290Y-63568D01*
X61318Y-63681D01*
X61347Y-63737D01*
X61403Y-63793D01*
X61487Y-63821D01*
X61628Y-63821D01*
X61065Y-63793D02*
X60981Y-63821D01*
X60840Y-63821D01*
X60784Y-63793D01*
X60756Y-63765D01*
X60728Y-63709D01*
X60728Y-63652D01*
X60756Y-63596D01*
X60784Y-63568D01*
X60840Y-63540D01*
X60953Y-63512D01*
X61009Y-63484D01*
X61037Y-63456D01*
X61065Y-63399D01*
X61065Y-63343D01*
X61037Y-63287D01*
X61009Y-63259D01*
X60953Y-63231D01*
X60812Y-63231D01*
X60728Y-63259D01*
X60137Y-63821D02*
X60334Y-63540D01*
X60475Y-63821D02*
X60475Y-63231D01*
X60250Y-63231D01*
X60194Y-63259D01*
X60165Y-63287D01*
X60137Y-63343D01*
X60137Y-63428D01*
X60165Y-63484D01*
X60194Y-63512D01*
X60250Y-63540D01*
X60475Y-63540D01*
X59434Y-63821D02*
X59434Y-63231D01*
X59237Y-63652D01*
X59041Y-63231D01*
X59041Y-63821D01*
X58562Y-63512D02*
X58478Y-63540D01*
X58450Y-63568D01*
X58422Y-63624D01*
X58422Y-63709D01*
X58450Y-63765D01*
X58478Y-63793D01*
X58534Y-63821D01*
X58759Y-63821D01*
X58759Y-63231D01*
X58562Y-63231D01*
X58506Y-63259D01*
X58478Y-63287D01*
X58450Y-63343D01*
X58450Y-63399D01*
X58478Y-63456D01*
X58506Y-63484D01*
X58562Y-63512D01*
X58759Y-63512D01*
G54D12*
X65244Y-49769D02*
X64944Y-49769D01*
X65094Y-49919D02*
X65094Y-49619D01*
X64551Y-49919D02*
X64776Y-49919D01*
X64663Y-49919D02*
X64663Y-49525D01*
X64701Y-49581D01*
X64738Y-49619D01*
X64776Y-49637D01*
X64401Y-49562D02*
X64382Y-49544D01*
X64344Y-49525D01*
X64251Y-49525D01*
X64213Y-49544D01*
X64194Y-49562D01*
X64176Y-49600D01*
X64176Y-49637D01*
X64194Y-49694D01*
X64419Y-49919D01*
X64176Y-49919D01*
X64063Y-49525D02*
X63932Y-49919D01*
X63801Y-49525D01*
X65244Y-51769D02*
X64944Y-51769D01*
X64551Y-51919D02*
X64776Y-51919D01*
X64663Y-51919D02*
X64663Y-51525D01*
X64701Y-51581D01*
X64738Y-51619D01*
X64776Y-51637D01*
X64401Y-51562D02*
X64382Y-51544D01*
X64344Y-51525D01*
X64251Y-51525D01*
X64213Y-51544D01*
X64194Y-51562D01*
X64176Y-51600D01*
X64176Y-51637D01*
X64194Y-51694D01*
X64419Y-51919D01*
X64176Y-51919D01*
X64063Y-51525D02*
X63932Y-51919D01*
X63801Y-51525D01*
X65216Y-50919D02*
X65216Y-50525D01*
X65122Y-50525D01*
X65066Y-50544D01*
X65029Y-50581D01*
X65010Y-50619D01*
X64991Y-50694D01*
X64991Y-50750D01*
X65010Y-50825D01*
X65029Y-50862D01*
X65066Y-50900D01*
X65122Y-50919D01*
X65216Y-50919D01*
X64823Y-50712D02*
X64691Y-50712D01*
X64635Y-50919D02*
X64823Y-50919D01*
X64823Y-50525D01*
X64635Y-50525D01*
X64241Y-50881D02*
X64260Y-50900D01*
X64316Y-50919D01*
X64354Y-50919D01*
X64410Y-50900D01*
X64448Y-50862D01*
X64466Y-50825D01*
X64485Y-50750D01*
X64485Y-50694D01*
X64466Y-50619D01*
X64448Y-50581D01*
X64410Y-50544D01*
X64354Y-50525D01*
X64316Y-50525D01*
X64260Y-50544D01*
X64241Y-50562D01*
X64091Y-50562D02*
X64073Y-50544D01*
X64035Y-50525D01*
X63941Y-50525D01*
X63904Y-50544D01*
X63885Y-50562D01*
X63866Y-50600D01*
X63866Y-50637D01*
X63885Y-50694D01*
X64110Y-50919D01*
X63866Y-50919D01*
X65132Y-52525D02*
X65057Y-52525D01*
X65019Y-52544D01*
X64982Y-52581D01*
X64963Y-52656D01*
X64963Y-52787D01*
X64982Y-52862D01*
X65019Y-52900D01*
X65057Y-52919D01*
X65132Y-52919D01*
X65169Y-52900D01*
X65207Y-52862D01*
X65226Y-52787D01*
X65226Y-52656D01*
X65207Y-52581D01*
X65169Y-52544D01*
X65132Y-52525D01*
X64794Y-52525D02*
X64794Y-52844D01*
X64776Y-52881D01*
X64757Y-52900D01*
X64719Y-52919D01*
X64644Y-52919D01*
X64607Y-52900D01*
X64588Y-52881D01*
X64569Y-52844D01*
X64569Y-52525D01*
X64438Y-52525D02*
X64213Y-52525D01*
X64326Y-52919D02*
X64326Y-52525D01*
X64101Y-52562D02*
X64082Y-52544D01*
X64044Y-52525D01*
X63951Y-52525D01*
X63913Y-52544D01*
X63895Y-52562D01*
X63876Y-52600D01*
X63876Y-52637D01*
X63895Y-52694D01*
X64119Y-52919D01*
X63876Y-52919D01*
X65244Y-54900D02*
X65188Y-54919D01*
X65094Y-54919D01*
X65057Y-54900D01*
X65038Y-54881D01*
X65019Y-54844D01*
X65019Y-54806D01*
X65038Y-54769D01*
X65057Y-54750D01*
X65094Y-54731D01*
X65169Y-54712D01*
X65207Y-54694D01*
X65226Y-54675D01*
X65244Y-54637D01*
X65244Y-54600D01*
X65226Y-54562D01*
X65207Y-54544D01*
X65169Y-54525D01*
X65076Y-54525D01*
X65019Y-54544D01*
X64851Y-54525D02*
X64851Y-54844D01*
X64832Y-54881D01*
X64813Y-54900D01*
X64776Y-54919D01*
X64701Y-54919D01*
X64663Y-54900D01*
X64644Y-54881D01*
X64626Y-54844D01*
X64626Y-54525D01*
X64457Y-54900D02*
X64401Y-54919D01*
X64307Y-54919D01*
X64269Y-54900D01*
X64251Y-54881D01*
X64232Y-54844D01*
X64232Y-54806D01*
X64251Y-54769D01*
X64269Y-54750D01*
X64307Y-54731D01*
X64382Y-54712D01*
X64419Y-54694D01*
X64438Y-54675D01*
X64457Y-54637D01*
X64457Y-54600D01*
X64438Y-54562D01*
X64419Y-54544D01*
X64382Y-54525D01*
X64288Y-54525D01*
X64232Y-54544D01*
X64082Y-54562D02*
X64063Y-54544D01*
X64026Y-54525D01*
X63932Y-54525D01*
X63895Y-54544D01*
X63876Y-54562D01*
X63857Y-54600D01*
X63857Y-54637D01*
X63876Y-54694D01*
X64101Y-54919D01*
X63857Y-54919D01*
X64954Y-55919D02*
X65085Y-55731D01*
X65179Y-55919D02*
X65179Y-55525D01*
X65029Y-55525D01*
X64991Y-55544D01*
X64973Y-55562D01*
X64954Y-55600D01*
X64954Y-55656D01*
X64973Y-55694D01*
X64991Y-55712D01*
X65029Y-55731D01*
X65179Y-55731D01*
X64785Y-55712D02*
X64654Y-55712D01*
X64598Y-55919D02*
X64785Y-55919D01*
X64785Y-55525D01*
X64598Y-55525D01*
X64241Y-55919D02*
X64429Y-55919D01*
X64429Y-55525D01*
X64129Y-55562D02*
X64110Y-55544D01*
X64073Y-55525D01*
X63979Y-55525D01*
X63941Y-55544D01*
X63923Y-55562D01*
X63904Y-55600D01*
X63904Y-55637D01*
X63923Y-55694D01*
X64148Y-55919D01*
X63904Y-55919D01*
X65132Y-57806D02*
X64944Y-57806D01*
X65169Y-57919D02*
X65038Y-57525D01*
X64907Y-57919D01*
X64832Y-57525D02*
X64607Y-57525D01*
X64719Y-57919D02*
X64719Y-57525D01*
X64532Y-57525D02*
X64307Y-57525D01*
X64419Y-57919D02*
X64419Y-57525D01*
X64194Y-57562D02*
X64176Y-57544D01*
X64138Y-57525D01*
X64044Y-57525D01*
X64007Y-57544D01*
X63988Y-57562D01*
X63970Y-57600D01*
X63970Y-57637D01*
X63988Y-57694D01*
X64213Y-57919D01*
X63970Y-57919D01*
X61801Y-58642D02*
X61839Y-58623D01*
X61895Y-58623D01*
X61951Y-58642D01*
X61989Y-58680D01*
X62007Y-58717D01*
X62026Y-58792D01*
X62026Y-58848D01*
X62007Y-58923D01*
X61989Y-58961D01*
X61951Y-58998D01*
X61895Y-59017D01*
X61857Y-59017D01*
X61801Y-58998D01*
X61782Y-58980D01*
X61782Y-58848D01*
X61857Y-58848D01*
X61632Y-58905D02*
X61445Y-58905D01*
X61670Y-59017D02*
X61539Y-58623D01*
X61407Y-59017D01*
X61332Y-58623D02*
X61107Y-58623D01*
X61220Y-59017D02*
X61220Y-58623D01*
X60976Y-58811D02*
X60845Y-58811D01*
X60789Y-59017D02*
X60976Y-59017D01*
X60976Y-58623D01*
X60789Y-58623D01*
X60639Y-58661D02*
X60620Y-58642D01*
X60583Y-58623D01*
X60489Y-58623D01*
X60451Y-58642D01*
X60433Y-58661D01*
X60414Y-58698D01*
X60414Y-58736D01*
X60433Y-58792D01*
X60658Y-59017D01*
X60414Y-59017D01*
X46081Y-49587D02*
X46118Y-49568D01*
X46174Y-49568D01*
X46231Y-49587D01*
X46268Y-49625D01*
X46287Y-49662D01*
X46306Y-49737D01*
X46306Y-49793D01*
X46287Y-49868D01*
X46268Y-49906D01*
X46231Y-49943D01*
X46174Y-49962D01*
X46137Y-49962D01*
X46081Y-49943D01*
X46062Y-49925D01*
X46062Y-49793D01*
X46137Y-49793D01*
X45912Y-49850D02*
X45724Y-49850D01*
X45949Y-49962D02*
X45818Y-49568D01*
X45687Y-49962D01*
X45612Y-49568D02*
X45387Y-49568D01*
X45500Y-49962D02*
X45500Y-49568D01*
X45256Y-49756D02*
X45125Y-49756D01*
X45068Y-49962D02*
X45256Y-49962D01*
X45256Y-49568D01*
X45068Y-49568D01*
X44693Y-49962D02*
X44918Y-49962D01*
X44806Y-49962D02*
X44806Y-49568D01*
X44843Y-49625D01*
X44881Y-49662D01*
X44918Y-49681D01*
X49581Y-50850D02*
X49393Y-50850D01*
X49618Y-50962D02*
X49487Y-50568D01*
X49356Y-50962D01*
X49281Y-50568D02*
X49056Y-50568D01*
X49168Y-50962D02*
X49168Y-50568D01*
X48981Y-50568D02*
X48756Y-50568D01*
X48868Y-50962D02*
X48868Y-50568D01*
X48418Y-50962D02*
X48643Y-50962D01*
X48531Y-50962D02*
X48531Y-50568D01*
X48568Y-50625D01*
X48606Y-50662D01*
X48643Y-50681D01*
X49403Y-52962D02*
X49534Y-52775D01*
X49628Y-52962D02*
X49628Y-52568D01*
X49478Y-52568D01*
X49440Y-52587D01*
X49421Y-52606D01*
X49403Y-52643D01*
X49403Y-52700D01*
X49421Y-52737D01*
X49440Y-52756D01*
X49478Y-52775D01*
X49628Y-52775D01*
X49234Y-52756D02*
X49103Y-52756D01*
X49046Y-52962D02*
X49234Y-52962D01*
X49234Y-52568D01*
X49046Y-52568D01*
X48690Y-52962D02*
X48878Y-52962D01*
X48878Y-52568D01*
X48353Y-52962D02*
X48578Y-52962D01*
X48465Y-52962D02*
X48465Y-52568D01*
X48503Y-52625D01*
X48540Y-52662D01*
X48578Y-52681D01*
X49693Y-53943D02*
X49637Y-53962D01*
X49543Y-53962D01*
X49506Y-53943D01*
X49487Y-53925D01*
X49468Y-53887D01*
X49468Y-53850D01*
X49487Y-53812D01*
X49506Y-53793D01*
X49543Y-53775D01*
X49618Y-53756D01*
X49656Y-53737D01*
X49674Y-53718D01*
X49693Y-53681D01*
X49693Y-53643D01*
X49674Y-53606D01*
X49656Y-53587D01*
X49618Y-53568D01*
X49524Y-53568D01*
X49468Y-53587D01*
X49299Y-53568D02*
X49299Y-53887D01*
X49281Y-53925D01*
X49262Y-53943D01*
X49224Y-53962D01*
X49149Y-53962D01*
X49112Y-53943D01*
X49093Y-53925D01*
X49074Y-53887D01*
X49074Y-53568D01*
X48906Y-53943D02*
X48850Y-53962D01*
X48756Y-53962D01*
X48718Y-53943D01*
X48700Y-53925D01*
X48681Y-53887D01*
X48681Y-53850D01*
X48700Y-53812D01*
X48718Y-53793D01*
X48756Y-53775D01*
X48831Y-53756D01*
X48868Y-53737D01*
X48887Y-53718D01*
X48906Y-53681D01*
X48906Y-53643D01*
X48887Y-53606D01*
X48868Y-53587D01*
X48831Y-53568D01*
X48737Y-53568D01*
X48681Y-53587D01*
X48306Y-53962D02*
X48531Y-53962D01*
X48418Y-53962D02*
X48418Y-53568D01*
X48456Y-53625D01*
X48493Y-53662D01*
X48531Y-53681D01*
X49581Y-55568D02*
X49506Y-55568D01*
X49468Y-55587D01*
X49431Y-55625D01*
X49412Y-55700D01*
X49412Y-55831D01*
X49431Y-55906D01*
X49468Y-55943D01*
X49506Y-55962D01*
X49581Y-55962D01*
X49618Y-55943D01*
X49656Y-55906D01*
X49674Y-55831D01*
X49674Y-55700D01*
X49656Y-55625D01*
X49618Y-55587D01*
X49581Y-55568D01*
X49243Y-55568D02*
X49243Y-55887D01*
X49224Y-55925D01*
X49206Y-55943D01*
X49168Y-55962D01*
X49093Y-55962D01*
X49056Y-55943D01*
X49037Y-55925D01*
X49018Y-55887D01*
X49018Y-55568D01*
X48887Y-55568D02*
X48662Y-55568D01*
X48775Y-55962D02*
X48775Y-55568D01*
X48325Y-55962D02*
X48550Y-55962D01*
X48437Y-55962D02*
X48437Y-55568D01*
X48475Y-55625D01*
X48512Y-55662D01*
X48550Y-55681D01*
X49665Y-57962D02*
X49665Y-57568D01*
X49571Y-57568D01*
X49515Y-57587D01*
X49478Y-57625D01*
X49459Y-57662D01*
X49440Y-57737D01*
X49440Y-57793D01*
X49459Y-57868D01*
X49478Y-57906D01*
X49515Y-57943D01*
X49571Y-57962D01*
X49665Y-57962D01*
X49271Y-57756D02*
X49140Y-57756D01*
X49084Y-57962D02*
X49271Y-57962D01*
X49271Y-57568D01*
X49084Y-57568D01*
X48690Y-57925D02*
X48709Y-57943D01*
X48765Y-57962D01*
X48803Y-57962D01*
X48859Y-57943D01*
X48896Y-57906D01*
X48915Y-57868D01*
X48934Y-57793D01*
X48934Y-57737D01*
X48915Y-57662D01*
X48896Y-57625D01*
X48859Y-57587D01*
X48803Y-57568D01*
X48765Y-57568D01*
X48709Y-57587D01*
X48690Y-57606D01*
X48315Y-57962D02*
X48540Y-57962D01*
X48428Y-57962D02*
X48428Y-57568D01*
X48465Y-57625D01*
X48503Y-57662D01*
X48540Y-57681D01*
X49693Y-56812D02*
X49393Y-56812D01*
X49000Y-56962D02*
X49224Y-56962D01*
X49112Y-56962D02*
X49112Y-56568D01*
X49149Y-56625D01*
X49187Y-56662D01*
X49224Y-56681D01*
X48850Y-56606D02*
X48831Y-56587D01*
X48793Y-56568D01*
X48700Y-56568D01*
X48662Y-56587D01*
X48643Y-56606D01*
X48625Y-56643D01*
X48625Y-56681D01*
X48643Y-56737D01*
X48868Y-56962D01*
X48625Y-56962D01*
X48512Y-56568D02*
X48381Y-56962D01*
X48250Y-56568D01*
X49693Y-58812D02*
X49393Y-58812D01*
X49543Y-58962D02*
X49543Y-58662D01*
X49000Y-58962D02*
X49224Y-58962D01*
X49112Y-58962D02*
X49112Y-58568D01*
X49149Y-58625D01*
X49187Y-58662D01*
X49224Y-58681D01*
X48850Y-58606D02*
X48831Y-58587D01*
X48793Y-58568D01*
X48700Y-58568D01*
X48662Y-58587D01*
X48643Y-58606D01*
X48625Y-58643D01*
X48625Y-58681D01*
X48643Y-58737D01*
X48868Y-58962D01*
X48625Y-58962D01*
X48512Y-58568D02*
X48381Y-58962D01*
X48250Y-58568D01*
G54D11*
X63695Y-60165D02*
X63498Y-60165D01*
X63413Y-60475D02*
X63695Y-60475D01*
X63695Y-59884D01*
X63413Y-59884D01*
X62851Y-59912D02*
X62907Y-59884D01*
X62992Y-59884D01*
X63076Y-59912D01*
X63132Y-59969D01*
X63160Y-60025D01*
X63188Y-60137D01*
X63188Y-60222D01*
X63160Y-60334D01*
X63132Y-60390D01*
X63076Y-60447D01*
X62992Y-60475D01*
X62935Y-60475D01*
X62851Y-60447D01*
X62823Y-60419D01*
X62823Y-60222D01*
X62935Y-60222D01*
X62598Y-59940D02*
X62570Y-59912D01*
X62514Y-59884D01*
X62373Y-59884D01*
X62317Y-59912D01*
X62289Y-59940D01*
X62260Y-59997D01*
X62260Y-60053D01*
X62289Y-60137D01*
X62626Y-60475D01*
X62260Y-60475D01*
X47947Y-48551D02*
X47750Y-48551D01*
X47665Y-48861D02*
X47947Y-48861D01*
X47947Y-48270D01*
X47665Y-48270D01*
X47103Y-48298D02*
X47159Y-48270D01*
X47244Y-48270D01*
X47328Y-48298D01*
X47384Y-48354D01*
X47412Y-48411D01*
X47440Y-48523D01*
X47440Y-48607D01*
X47412Y-48720D01*
X47384Y-48776D01*
X47328Y-48832D01*
X47244Y-48861D01*
X47187Y-48861D01*
X47103Y-48832D01*
X47075Y-48804D01*
X47075Y-48607D01*
X47187Y-48607D01*
X46512Y-48861D02*
X46850Y-48861D01*
X46681Y-48861D02*
X46681Y-48270D01*
X46737Y-48354D01*
X46794Y-48411D01*
X46850Y-48439D01*
X62584Y-41001D02*
X62584Y-40551D01*
X62359Y-39960D02*
X62359Y-40298D01*
X62359Y-40129D02*
X62949Y-40129D01*
X62865Y-40185D01*
X62809Y-40241D01*
X62781Y-40298D01*
X62893Y-39735D02*
X62921Y-39707D01*
X62949Y-39651D01*
X62949Y-39510D01*
X62921Y-39454D01*
X62893Y-39426D01*
X62837Y-39398D01*
X62781Y-39398D01*
X62696Y-39426D01*
X62359Y-39763D01*
X62359Y-39398D01*
X62949Y-39229D02*
X62359Y-39032D01*
X62949Y-38835D01*
G54D13*
X63270Y-46300D02*
X65470Y-46300D01*
X65470Y-46300D02*
X65470Y-41100D01*
X63270Y-41100D02*
X63270Y-46300D01*
X64370Y-42200D02*
X65470Y-42200D01*
X64370Y-42200D02*
X64370Y-41100D01*
X65470Y-41100D02*
X63270Y-41100D01*
G54D14*
X62114Y-47337D02*
X61089Y-47337D01*
X61089Y-47337D02*
X61089Y-47937D01*
X61089Y-47937D02*
X62114Y-47937D01*
X62114Y-47937D02*
X62114Y-47337D01*
G54D15*
X60225Y-42133D02*
G75*
G03X60225Y-42133I-70J0D01*
G74*
G01*
G54D16*
X59980Y-41102D02*
X60173Y-41102D01*
X60173Y-41102D02*
X60173Y-41535D01*
X59980Y-41535D02*
X60173Y-41535D01*
X59980Y-41102D02*
X59980Y-41535D01*
X60480Y-41102D02*
X60673Y-41102D01*
X60673Y-41102D02*
X60673Y-41535D01*
X60480Y-41535D02*
X60673Y-41535D01*
X60480Y-41102D02*
X60480Y-41535D01*
X60979Y-41102D02*
X61172Y-41102D01*
X61172Y-41102D02*
X61172Y-41535D01*
X60979Y-41535D02*
X61172Y-41535D01*
X60979Y-41102D02*
X60979Y-41535D01*
X61479Y-41102D02*
X61672Y-41102D01*
X61672Y-41102D02*
X61672Y-41535D01*
X61479Y-41535D02*
X61672Y-41535D01*
X61479Y-41102D02*
X61479Y-41535D01*
X61479Y-43109D02*
X61672Y-43109D01*
X61672Y-43109D02*
X61672Y-43542D01*
X61479Y-43542D02*
X61672Y-43542D01*
X61479Y-43109D02*
X61479Y-43542D01*
X60979Y-43109D02*
X61172Y-43109D01*
X61172Y-43109D02*
X61172Y-43542D01*
X60979Y-43542D02*
X61172Y-43542D01*
X60979Y-43109D02*
X60979Y-43542D01*
X60480Y-43109D02*
X60673Y-43109D01*
X60673Y-43109D02*
X60673Y-43542D01*
X60480Y-43542D02*
X60673Y-43542D01*
X60480Y-43109D02*
X60480Y-43542D01*
X59980Y-43109D02*
X60173Y-43109D01*
X60173Y-43109D02*
X60173Y-43542D01*
X59980Y-43542D02*
X60173Y-43542D01*
X59980Y-43109D02*
X59980Y-43542D01*
G54D17*
X61770Y-43070D02*
X61770Y-41771D01*
X61770Y-41771D02*
X61770Y-41574D01*
X61770Y-41574D02*
X59882Y-41574D01*
X59882Y-41574D02*
X59882Y-41771D01*
X59882Y-41771D02*
X59882Y-43070D01*
X59882Y-43070D02*
X61770Y-43070D01*
X61770Y-41871D02*
X59882Y-41871D01*
G54D10*
X45278Y-41335D02*
X44878Y-41335D01*
X45278Y-41735D02*
X44878Y-41735D01*
X44878Y-41735D02*
X45078Y-41335D01*
X45078Y-41335D02*
X45278Y-41735D01*
X49800Y-45278D02*
X50200Y-45278D01*
X49800Y-44878D02*
X50200Y-44878D01*
X50200Y-44878D02*
X50000Y-45278D01*
X50000Y-45278D02*
X49800Y-44878D01*
G54D13*
X47705Y-44560D02*
G75*
G03X47705Y-44560I-70J0D01*
G74*
G01*
G54D16*
X46614Y-44706D02*
X46614Y-44513D01*
X46614Y-44513D02*
X47047Y-44513D01*
X47047Y-44706D02*
X47047Y-44513D01*
X46614Y-44706D02*
X47047Y-44706D01*
X46614Y-44206D02*
X46614Y-44013D01*
X46614Y-44013D02*
X47047Y-44013D01*
X47047Y-44206D02*
X47047Y-44013D01*
X46614Y-44206D02*
X47047Y-44206D01*
X46614Y-43706D02*
X46614Y-43513D01*
X46614Y-43513D02*
X47047Y-43513D01*
X47047Y-43706D02*
X47047Y-43513D01*
X46614Y-43706D02*
X47047Y-43706D01*
X46614Y-43206D02*
X46614Y-43014D01*
X46614Y-43014D02*
X47047Y-43014D01*
X47047Y-43206D02*
X47047Y-43014D01*
X46614Y-43206D02*
X47047Y-43206D01*
X48621Y-43206D02*
X48621Y-43014D01*
X48621Y-43014D02*
X49054Y-43014D01*
X49054Y-43206D02*
X49054Y-43014D01*
X48621Y-43206D02*
X49054Y-43206D01*
X48621Y-43706D02*
X48621Y-43513D01*
X48621Y-43513D02*
X49054Y-43513D01*
X49054Y-43706D02*
X49054Y-43513D01*
X48621Y-43706D02*
X49054Y-43706D01*
X48621Y-44206D02*
X48621Y-44013D01*
X48621Y-44013D02*
X49054Y-44013D01*
X49054Y-44206D02*
X49054Y-44013D01*
X48621Y-44206D02*
X49054Y-44206D01*
X48621Y-44706D02*
X48621Y-44513D01*
X48621Y-44513D02*
X49054Y-44513D01*
X49054Y-44706D02*
X49054Y-44513D01*
X48621Y-44706D02*
X49054Y-44706D01*
X46614Y-42707D02*
X46614Y-42514D01*
X46614Y-42514D02*
X47047Y-42514D01*
X47047Y-42707D02*
X47047Y-42514D01*
X46614Y-42707D02*
X47047Y-42707D01*
X46614Y-42207D02*
X46614Y-42014D01*
X46614Y-42014D02*
X47047Y-42014D01*
X47047Y-42207D02*
X47047Y-42014D01*
X46614Y-42207D02*
X47047Y-42207D01*
X46614Y-41707D02*
X46614Y-41514D01*
X46614Y-41514D02*
X47047Y-41514D01*
X47047Y-41707D02*
X47047Y-41514D01*
X46614Y-41707D02*
X47047Y-41707D01*
X48621Y-41707D02*
X48621Y-41514D01*
X48621Y-41514D02*
X49054Y-41514D01*
X49054Y-41707D02*
X49054Y-41514D01*
X48621Y-41707D02*
X49054Y-41707D01*
X48621Y-42207D02*
X48621Y-42014D01*
X48621Y-42014D02*
X49054Y-42014D01*
X49054Y-42207D02*
X49054Y-42014D01*
X48621Y-42207D02*
X49054Y-42207D01*
X48621Y-42707D02*
X48621Y-42514D01*
X48621Y-42514D02*
X49054Y-42514D01*
X49054Y-42707D02*
X49054Y-42514D01*
X48621Y-42707D02*
X49054Y-42707D01*
G54D17*
X47086Y-41416D02*
X47086Y-44804D01*
X47086Y-44804D02*
X47283Y-44804D01*
X47283Y-44804D02*
X48582Y-44804D01*
X47383Y-41416D02*
X47383Y-44804D01*
X48582Y-41416D02*
X47283Y-41416D01*
X47283Y-41416D02*
X47086Y-41416D01*
X48582Y-44804D02*
X48582Y-41416D01*
G54D14*
X45378Y-43027D02*
X45378Y-42627D01*
X45378Y-42627D02*
X44778Y-42627D01*
X44778Y-42627D02*
X44778Y-43027D01*
X44778Y-43587D02*
X44778Y-43987D01*
X44778Y-43987D02*
X45378Y-43987D01*
X45378Y-43987D02*
X45378Y-43587D01*
X65043Y-59158D02*
X65443Y-59158D01*
X65443Y-59158D02*
X65443Y-58558D01*
X65443Y-58558D02*
X65043Y-58558D01*
X64483Y-58558D02*
X64083Y-58558D01*
X64083Y-58558D02*
X64083Y-59158D01*
X64083Y-59158D02*
X64483Y-59158D01*
X44778Y-45752D02*
X44778Y-46152D01*
X44778Y-46152D02*
X45378Y-46152D01*
X45378Y-46152D02*
X45378Y-45752D01*
X45378Y-45192D02*
X45378Y-44792D01*
X45378Y-44792D02*
X44778Y-44792D01*
X44778Y-44792D02*
X44778Y-45192D01*
X45378Y-46767D02*
X45378Y-46367D01*
X45378Y-46367D02*
X44778Y-46367D01*
X44778Y-46367D02*
X44778Y-46767D01*
X44778Y-47327D02*
X44778Y-47727D01*
X44778Y-47727D02*
X45378Y-47727D01*
X45378Y-47727D02*
X45378Y-47327D01*
X46156Y-47327D02*
X46156Y-47727D01*
X46156Y-47727D02*
X46756Y-47727D01*
X46756Y-47727D02*
X46756Y-47327D01*
X46756Y-46767D02*
X46756Y-46367D01*
X46756Y-46367D02*
X46156Y-46367D01*
X46156Y-46367D02*
X46156Y-46767D01*
X49295Y-50103D02*
X49695Y-50103D01*
X49695Y-50103D02*
X49695Y-49503D01*
X49695Y-49503D02*
X49295Y-49503D01*
X48735Y-49503D02*
X48335Y-49503D01*
X48335Y-49503D02*
X48335Y-50103D01*
X48335Y-50103D02*
X48735Y-50103D01*
X60349Y-39660D02*
X59949Y-39660D01*
X59949Y-39660D02*
X59949Y-40260D01*
X59949Y-40260D02*
X60349Y-40260D01*
X60909Y-40260D02*
X61309Y-40260D01*
X61309Y-40260D02*
X61309Y-39660D01*
X61309Y-39660D02*
X60909Y-39660D01*
X58755Y-42602D02*
X58755Y-43002D01*
X58755Y-43002D02*
X59355Y-43002D01*
X59355Y-43002D02*
X59355Y-42602D01*
X59355Y-42042D02*
X59355Y-41642D01*
X59355Y-41642D02*
X58755Y-41642D01*
X58755Y-41642D02*
X58755Y-42042D01*
X55398Y-62504D02*
X55798Y-62504D01*
X55798Y-62504D02*
X55798Y-61904D01*
X55798Y-61904D02*
X55398Y-61904D01*
X54838Y-61904D02*
X54438Y-61904D01*
X54438Y-61904D02*
X54438Y-62504D01*
X54438Y-62504D02*
X54838Y-62504D01*
X55418Y-57397D02*
X55418Y-56997D01*
X55418Y-56997D02*
X54818Y-56997D01*
X54818Y-56997D02*
X54818Y-57397D01*
X54818Y-57957D02*
X54818Y-58357D01*
X54818Y-58357D02*
X55418Y-58357D01*
X55418Y-58357D02*
X55418Y-57957D01*
X50290Y-43193D02*
X50290Y-43593D01*
X50290Y-43593D02*
X50890Y-43593D01*
X50890Y-43593D02*
X50890Y-43193D01*
X50890Y-42633D02*
X50890Y-42233D01*
X50890Y-42233D02*
X50290Y-42233D01*
X50290Y-42233D02*
X50290Y-42633D01*
X50890Y-41058D02*
X50890Y-40658D01*
X50890Y-40658D02*
X50290Y-40658D01*
X50290Y-40658D02*
X50290Y-41058D01*
X50290Y-41618D02*
X50290Y-42018D01*
X50290Y-42018D02*
X50890Y-42018D01*
X50890Y-42018D02*
X50890Y-41618D01*
X50290Y-40043D02*
X50290Y-40443D01*
X50290Y-40443D02*
X50890Y-40443D01*
X50890Y-40443D02*
X50890Y-40043D01*
X50890Y-39483D02*
X50890Y-39083D01*
X50890Y-39083D02*
X50290Y-39083D01*
X50290Y-39083D02*
X50290Y-39483D01*
X49709Y-39483D02*
X49709Y-39083D01*
X49709Y-39083D02*
X49109Y-39083D01*
X49109Y-39083D02*
X49109Y-39483D01*
X49109Y-40043D02*
X49109Y-40443D01*
X49109Y-40443D02*
X49709Y-40443D01*
X49709Y-40443D02*
X49709Y-40043D01*
X54818Y-47720D02*
X54818Y-48120D01*
X54818Y-48120D02*
X55418Y-48120D01*
X55418Y-48120D02*
X55418Y-47720D01*
X55418Y-47160D02*
X55418Y-46760D01*
X55418Y-46760D02*
X54818Y-46760D01*
X54818Y-46760D02*
X54818Y-47160D01*
X57169Y-39670D02*
X57569Y-39670D01*
X57569Y-39670D02*
X57569Y-39070D01*
X57569Y-39070D02*
X57169Y-39070D01*
X56609Y-39070D02*
X56209Y-39070D01*
X56209Y-39070D02*
X56209Y-39670D01*
X56209Y-39670D02*
X56609Y-39670D01*
X61334Y-44385D02*
X60934Y-44385D01*
X60934Y-44385D02*
X60934Y-44985D01*
X60934Y-44985D02*
X61334Y-44985D01*
X61894Y-44985D02*
X62294Y-44985D01*
X62294Y-44985D02*
X62294Y-44385D01*
X62294Y-44385D02*
X61894Y-44385D01*
X61894Y-46362D02*
X62294Y-46362D01*
X62294Y-46362D02*
X62294Y-45762D01*
X62294Y-45762D02*
X61894Y-45762D01*
X61334Y-45762D02*
X60934Y-45762D01*
X60934Y-45762D02*
X60934Y-46362D01*
X60934Y-46362D02*
X61334Y-46362D01*
G54D13*
X63592Y-49230D02*
X63592Y-59430D01*
X62392Y-49230D02*
X62392Y-59430D01*
X62392Y-59430D02*
X63592Y-59430D01*
X62392Y-50330D02*
X63592Y-50330D01*
X62392Y-49230D02*
X63592Y-49230D01*
X46644Y-59430D02*
X46644Y-49230D01*
X47844Y-59430D02*
X47844Y-49230D01*
X47844Y-49230D02*
X46644Y-49230D01*
X47844Y-58330D02*
X46644Y-58330D01*
X47844Y-59430D02*
X46644Y-59430D01*
G54D10*
X63582Y-39173D02*
X63582Y-40354D01*
X65354Y-38779D02*
X64960Y-38779D01*
X65157Y-38976D02*
X65157Y-38582D01*
X65354Y-39763D02*
G75*
G03X65354Y-39763I-984J0D01*
G74*
G01*
X65157Y-48228D02*
X65157Y-47047D01*
X63385Y-48622D02*
X63779Y-48622D01*
X63582Y-48425D02*
X63582Y-48818D01*
X65354Y-47637D02*
G75*
G03X65354Y-47637I-984J0D01*
G74*
G01*
G54D18*
X57480Y-54232D02*
G75*
G03X57480Y-54232I-2362J0D01*
G74*
G01*
G54D19*
X60857Y-47500D02*
X60537Y-47500D01*
X60537Y-47576D01*
X60553Y-47621D01*
X60583Y-47652D01*
X60614Y-47667D01*
X60675Y-47682D01*
X60720Y-47682D01*
X60781Y-47667D01*
X60812Y-47652D01*
X60842Y-47621D01*
X60857Y-47576D01*
X60857Y-47500D01*
X60857Y-47987D02*
X60857Y-47804D01*
X60857Y-47896D02*
X60537Y-47896D01*
X60583Y-47865D01*
X60614Y-47835D01*
X60629Y-47804D01*
X59136Y-42579D02*
X59395Y-42579D01*
X59425Y-42594D01*
X59441Y-42609D01*
X59456Y-42639D01*
X59456Y-42700D01*
X59441Y-42731D01*
X59425Y-42746D01*
X59395Y-42761D01*
X59136Y-42761D01*
X59456Y-43081D02*
X59456Y-42899D01*
X59456Y-42990D02*
X59136Y-42990D01*
X59182Y-42959D01*
X59212Y-42929D01*
X59227Y-42899D01*
X45808Y-41299D02*
X45488Y-41299D01*
X45488Y-41375D01*
X45503Y-41421D01*
X45533Y-41451D01*
X45564Y-41466D01*
X45625Y-41482D01*
X45671Y-41482D01*
X45732Y-41466D01*
X45762Y-41451D01*
X45793Y-41421D01*
X45808Y-41375D01*
X45808Y-41299D01*
X45518Y-41604D02*
X45503Y-41619D01*
X45488Y-41649D01*
X45488Y-41725D01*
X45503Y-41756D01*
X45518Y-41771D01*
X45549Y-41786D01*
X45579Y-41786D01*
X45625Y-41771D01*
X45808Y-41588D01*
X45808Y-41786D01*
X50621Y-44842D02*
X50301Y-44842D01*
X50301Y-44918D01*
X50316Y-44964D01*
X50347Y-44994D01*
X50377Y-45010D01*
X50438Y-45025D01*
X50484Y-45025D01*
X50545Y-45010D01*
X50575Y-44994D01*
X50606Y-44964D01*
X50621Y-44918D01*
X50621Y-44842D01*
X50408Y-45299D02*
X50621Y-45299D01*
X50286Y-45223D02*
X50514Y-45147D01*
X50514Y-45345D01*
X48078Y-44986D02*
X48078Y-45245D01*
X48063Y-45276D01*
X48047Y-45291D01*
X48017Y-45306D01*
X47956Y-45306D01*
X47926Y-45291D01*
X47910Y-45276D01*
X47895Y-45245D01*
X47895Y-44986D01*
X47758Y-45017D02*
X47743Y-45001D01*
X47712Y-44986D01*
X47636Y-44986D01*
X47606Y-45001D01*
X47590Y-45017D01*
X47575Y-45047D01*
X47575Y-45078D01*
X47590Y-45123D01*
X47773Y-45306D01*
X47575Y-45306D01*
X44658Y-43253D02*
X44505Y-43147D01*
X44658Y-43070D02*
X44338Y-43070D01*
X44338Y-43192D01*
X44353Y-43223D01*
X44368Y-43238D01*
X44399Y-43253D01*
X44444Y-43253D01*
X44475Y-43238D01*
X44490Y-43223D01*
X44505Y-43192D01*
X44505Y-43070D01*
X44338Y-43360D02*
X44338Y-43573D01*
X44658Y-43436D01*
X64969Y-59775D02*
X65076Y-59622D01*
X65152Y-59775D02*
X65152Y-59455D01*
X65030Y-59455D01*
X64999Y-59470D01*
X64984Y-59485D01*
X64969Y-59516D01*
X64969Y-59561D01*
X64984Y-59592D01*
X64999Y-59607D01*
X65030Y-59622D01*
X65152Y-59622D01*
X64664Y-59775D02*
X64847Y-59775D01*
X64756Y-59775D02*
X64756Y-59455D01*
X64786Y-59500D01*
X64817Y-59531D01*
X64847Y-59546D01*
X64542Y-59485D02*
X64527Y-59470D01*
X64497Y-59455D01*
X64420Y-59455D01*
X64390Y-59470D01*
X64375Y-59485D01*
X64359Y-59516D01*
X64359Y-59546D01*
X64375Y-59592D01*
X64558Y-59775D01*
X64359Y-59775D01*
X44617Y-45419D02*
X44465Y-45312D01*
X44617Y-45236D02*
X44297Y-45236D01*
X44297Y-45358D01*
X44312Y-45388D01*
X44328Y-45403D01*
X44358Y-45419D01*
X44404Y-45419D01*
X44434Y-45403D01*
X44450Y-45388D01*
X44465Y-45358D01*
X44465Y-45236D01*
X44297Y-45693D02*
X44297Y-45632D01*
X44312Y-45601D01*
X44328Y-45586D01*
X44373Y-45556D01*
X44434Y-45541D01*
X44556Y-45541D01*
X44587Y-45556D01*
X44602Y-45571D01*
X44617Y-45601D01*
X44617Y-45662D01*
X44602Y-45693D01*
X44587Y-45708D01*
X44556Y-45723D01*
X44480Y-45723D01*
X44450Y-45708D01*
X44434Y-45693D01*
X44419Y-45662D01*
X44419Y-45601D01*
X44434Y-45571D01*
X44450Y-45556D01*
X44480Y-45541D01*
X44658Y-46993D02*
X44505Y-46887D01*
X44658Y-46811D02*
X44338Y-46811D01*
X44338Y-46932D01*
X44353Y-46963D01*
X44368Y-46978D01*
X44399Y-46993D01*
X44444Y-46993D01*
X44475Y-46978D01*
X44490Y-46963D01*
X44505Y-46932D01*
X44505Y-46811D01*
X44368Y-47115D02*
X44353Y-47131D01*
X44338Y-47161D01*
X44338Y-47237D01*
X44353Y-47268D01*
X44368Y-47283D01*
X44399Y-47298D01*
X44429Y-47298D01*
X44475Y-47283D01*
X44658Y-47100D01*
X44658Y-47298D01*
X45897Y-46993D02*
X45744Y-46887D01*
X45897Y-46811D02*
X45577Y-46811D01*
X45577Y-46932D01*
X45592Y-46963D01*
X45607Y-46978D01*
X45638Y-46993D01*
X45683Y-46993D01*
X45714Y-46978D01*
X45729Y-46963D01*
X45744Y-46932D01*
X45744Y-46811D01*
X45577Y-47100D02*
X45577Y-47298D01*
X45699Y-47192D01*
X45699Y-47237D01*
X45714Y-47268D01*
X45729Y-47283D01*
X45760Y-47298D01*
X45836Y-47298D01*
X45866Y-47283D01*
X45882Y-47268D01*
X45897Y-47237D01*
X45897Y-47146D01*
X45882Y-47115D01*
X45866Y-47100D01*
X49069Y-49382D02*
X49175Y-49230D01*
X49251Y-49382D02*
X49251Y-49062D01*
X49130Y-49062D01*
X49099Y-49077D01*
X49084Y-49093D01*
X49069Y-49123D01*
X49069Y-49169D01*
X49084Y-49199D01*
X49099Y-49215D01*
X49130Y-49230D01*
X49251Y-49230D01*
X48779Y-49062D02*
X48931Y-49062D01*
X48947Y-49215D01*
X48931Y-49199D01*
X48901Y-49184D01*
X48825Y-49184D01*
X48794Y-49199D01*
X48779Y-49215D01*
X48764Y-49245D01*
X48764Y-49321D01*
X48779Y-49352D01*
X48794Y-49367D01*
X48825Y-49382D01*
X48901Y-49382D01*
X48931Y-49367D01*
X48947Y-49352D01*
X59646Y-39907D02*
X59661Y-39892D01*
X59676Y-39846D01*
X59676Y-39815D01*
X59661Y-39770D01*
X59631Y-39739D01*
X59600Y-39724D01*
X59539Y-39709D01*
X59493Y-39709D01*
X59432Y-39724D01*
X59402Y-39739D01*
X59372Y-39770D01*
X59356Y-39815D01*
X59356Y-39846D01*
X59372Y-39892D01*
X59387Y-39907D01*
X59387Y-40029D02*
X59372Y-40044D01*
X59356Y-40074D01*
X59356Y-40151D01*
X59372Y-40181D01*
X59387Y-40196D01*
X59417Y-40212D01*
X59448Y-40212D01*
X59493Y-40196D01*
X59676Y-40013D01*
X59676Y-40212D01*
X58465Y-42269D02*
X58480Y-42254D01*
X58495Y-42208D01*
X58495Y-42178D01*
X58480Y-42132D01*
X58449Y-42101D01*
X58419Y-42086D01*
X58358Y-42071D01*
X58312Y-42071D01*
X58251Y-42086D01*
X58221Y-42101D01*
X58190Y-42132D01*
X58175Y-42178D01*
X58175Y-42208D01*
X58190Y-42254D01*
X58206Y-42269D01*
X58175Y-42376D02*
X58175Y-42574D01*
X58297Y-42467D01*
X58297Y-42513D01*
X58312Y-42543D01*
X58328Y-42559D01*
X58358Y-42574D01*
X58434Y-42574D01*
X58465Y-42559D01*
X58480Y-42543D01*
X58495Y-42513D01*
X58495Y-42421D01*
X58480Y-42391D01*
X58465Y-42376D01*
X55323Y-61743D02*
X55430Y-61591D01*
X55506Y-61743D02*
X55506Y-61423D01*
X55384Y-61423D01*
X55354Y-61438D01*
X55339Y-61454D01*
X55323Y-61484D01*
X55323Y-61530D01*
X55339Y-61560D01*
X55354Y-61576D01*
X55384Y-61591D01*
X55506Y-61591D01*
X55019Y-61743D02*
X55201Y-61743D01*
X55110Y-61743D02*
X55110Y-61423D01*
X55140Y-61469D01*
X55171Y-61499D01*
X55201Y-61515D01*
X54714Y-61743D02*
X54897Y-61743D01*
X54805Y-61743D02*
X54805Y-61423D01*
X54836Y-61469D01*
X54866Y-61499D01*
X54897Y-61515D01*
X55936Y-57471D02*
X55784Y-57364D01*
X55936Y-57288D02*
X55616Y-57288D01*
X55616Y-57410D01*
X55631Y-57440D01*
X55647Y-57456D01*
X55677Y-57471D01*
X55723Y-57471D01*
X55753Y-57456D01*
X55768Y-57440D01*
X55784Y-57410D01*
X55784Y-57288D01*
X55936Y-57776D02*
X55936Y-57593D01*
X55936Y-57684D02*
X55616Y-57684D01*
X55662Y-57654D01*
X55692Y-57623D01*
X55708Y-57593D01*
X55616Y-58065D02*
X55616Y-57913D01*
X55768Y-57898D01*
X55753Y-57913D01*
X55738Y-57943D01*
X55738Y-58020D01*
X55753Y-58050D01*
X55768Y-58065D01*
X55799Y-58080D01*
X55875Y-58080D01*
X55906Y-58065D01*
X55921Y-58050D01*
X55936Y-58020D01*
X55936Y-57943D01*
X55921Y-57913D01*
X55906Y-57898D01*
X51310Y-42707D02*
X51158Y-42601D01*
X51310Y-42524D02*
X50990Y-42524D01*
X50990Y-42646D01*
X51005Y-42677D01*
X51021Y-42692D01*
X51051Y-42707D01*
X51097Y-42707D01*
X51127Y-42692D01*
X51143Y-42677D01*
X51158Y-42646D01*
X51158Y-42524D01*
X51310Y-43012D02*
X51310Y-42829D01*
X51310Y-42921D02*
X50990Y-42921D01*
X51036Y-42890D01*
X51066Y-42860D01*
X51082Y-42829D01*
X51097Y-43286D02*
X51310Y-43286D01*
X50975Y-43210D02*
X51203Y-43134D01*
X51203Y-43332D01*
X51310Y-41132D02*
X51158Y-41026D01*
X51310Y-40950D02*
X50990Y-40950D01*
X50990Y-41071D01*
X51005Y-41102D01*
X51021Y-41117D01*
X51051Y-41132D01*
X51097Y-41132D01*
X51127Y-41117D01*
X51143Y-41102D01*
X51158Y-41071D01*
X51158Y-40950D01*
X51310Y-41437D02*
X51310Y-41254D01*
X51310Y-41346D02*
X50990Y-41346D01*
X51036Y-41315D01*
X51066Y-41285D01*
X51082Y-41254D01*
X50990Y-41544D02*
X50990Y-41742D01*
X51112Y-41635D01*
X51112Y-41681D01*
X51127Y-41711D01*
X51143Y-41727D01*
X51173Y-41742D01*
X51249Y-41742D01*
X51280Y-41727D01*
X51295Y-41711D01*
X51310Y-41681D01*
X51310Y-41590D01*
X51295Y-41559D01*
X51280Y-41544D01*
X51270Y-39710D02*
X51117Y-39603D01*
X51270Y-39527D02*
X50950Y-39527D01*
X50950Y-39649D01*
X50965Y-39679D01*
X50980Y-39695D01*
X51011Y-39710D01*
X51056Y-39710D01*
X51087Y-39695D01*
X51102Y-39679D01*
X51117Y-39649D01*
X51117Y-39527D01*
X51270Y-39862D02*
X51270Y-39923D01*
X51254Y-39954D01*
X51239Y-39969D01*
X51193Y-39999D01*
X51132Y-40015D01*
X51011Y-40015D01*
X50980Y-39999D01*
X50965Y-39984D01*
X50950Y-39954D01*
X50950Y-39893D01*
X50965Y-39862D01*
X50980Y-39847D01*
X51011Y-39832D01*
X51087Y-39832D01*
X51117Y-39847D01*
X51132Y-39862D01*
X51148Y-39893D01*
X51148Y-39954D01*
X51132Y-39984D01*
X51117Y-39999D01*
X51087Y-40015D01*
X48988Y-39558D02*
X48836Y-39451D01*
X48988Y-39375D02*
X48668Y-39375D01*
X48668Y-39497D01*
X48684Y-39527D01*
X48699Y-39542D01*
X48729Y-39558D01*
X48775Y-39558D01*
X48806Y-39542D01*
X48821Y-39527D01*
X48836Y-39497D01*
X48836Y-39375D01*
X48988Y-39862D02*
X48988Y-39679D01*
X48988Y-39771D02*
X48668Y-39771D01*
X48714Y-39740D01*
X48745Y-39710D01*
X48760Y-39679D01*
X48668Y-40060D02*
X48668Y-40091D01*
X48684Y-40121D01*
X48699Y-40137D01*
X48729Y-40152D01*
X48790Y-40167D01*
X48867Y-40167D01*
X48928Y-40152D01*
X48958Y-40137D01*
X48973Y-40121D01*
X48988Y-40091D01*
X48988Y-40060D01*
X48973Y-40030D01*
X48958Y-40015D01*
X48928Y-39999D01*
X48867Y-39984D01*
X48790Y-39984D01*
X48729Y-39999D01*
X48699Y-40015D01*
X48684Y-40030D01*
X48668Y-40060D01*
X55797Y-47387D02*
X55645Y-47280D01*
X55797Y-47204D02*
X55477Y-47204D01*
X55477Y-47326D01*
X55492Y-47357D01*
X55508Y-47372D01*
X55538Y-47387D01*
X55584Y-47387D01*
X55614Y-47372D01*
X55630Y-47357D01*
X55645Y-47326D01*
X55645Y-47204D01*
X55584Y-47661D02*
X55797Y-47661D01*
X55462Y-47585D02*
X55690Y-47509D01*
X55690Y-47707D01*
X58101Y-39316D02*
X57949Y-39210D01*
X58101Y-39133D02*
X57781Y-39133D01*
X57781Y-39255D01*
X57797Y-39286D01*
X57812Y-39301D01*
X57842Y-39316D01*
X57888Y-39316D01*
X57919Y-39301D01*
X57934Y-39286D01*
X57949Y-39255D01*
X57949Y-39133D01*
X57919Y-39499D02*
X57903Y-39469D01*
X57888Y-39453D01*
X57858Y-39438D01*
X57842Y-39438D01*
X57812Y-39453D01*
X57797Y-39469D01*
X57781Y-39499D01*
X57781Y-39560D01*
X57797Y-39591D01*
X57812Y-39606D01*
X57842Y-39621D01*
X57858Y-39621D01*
X57888Y-39606D01*
X57903Y-39591D01*
X57919Y-39560D01*
X57919Y-39499D01*
X57934Y-39469D01*
X57949Y-39453D01*
X57980Y-39438D01*
X58041Y-39438D01*
X58071Y-39453D01*
X58086Y-39469D01*
X58101Y-39499D01*
X58101Y-39560D01*
X58086Y-39591D01*
X58071Y-39606D01*
X58041Y-39621D01*
X57980Y-39621D01*
X57949Y-39606D01*
X57934Y-39591D01*
X57919Y-39560D01*
X60728Y-44631D02*
X60744Y-44616D01*
X60759Y-44570D01*
X60759Y-44540D01*
X60744Y-44494D01*
X60713Y-44464D01*
X60683Y-44448D01*
X60622Y-44433D01*
X60576Y-44433D01*
X60515Y-44448D01*
X60485Y-44464D01*
X60454Y-44494D01*
X60439Y-44540D01*
X60439Y-44570D01*
X60454Y-44616D01*
X60469Y-44631D01*
X60759Y-44936D02*
X60759Y-44753D01*
X60759Y-44845D02*
X60439Y-44845D01*
X60485Y-44814D01*
X60515Y-44784D01*
X60530Y-44753D01*
X60759Y-46009D02*
X60607Y-45902D01*
X60759Y-45826D02*
X60439Y-45826D01*
X60439Y-45948D01*
X60454Y-45979D01*
X60469Y-45994D01*
X60500Y-46009D01*
X60546Y-46009D01*
X60576Y-45994D01*
X60591Y-45979D01*
X60607Y-45948D01*
X60607Y-45826D01*
X60759Y-46314D02*
X60759Y-46131D01*
X60759Y-46222D02*
X60439Y-46222D01*
X60485Y-46192D01*
X60515Y-46162D01*
X60530Y-46131D01*
G54D10*
X65813Y-40673D02*
X65832Y-40691D01*
X65888Y-40710D01*
X65926Y-40710D01*
X65982Y-40691D01*
X66019Y-40654D01*
X66038Y-40616D01*
X66057Y-40541D01*
X66057Y-40485D01*
X66038Y-40410D01*
X66019Y-40373D01*
X65982Y-40335D01*
X65926Y-40316D01*
X65888Y-40316D01*
X65832Y-40335D01*
X65813Y-40354D01*
X65457Y-40316D02*
X65644Y-40316D01*
X65663Y-40504D01*
X65644Y-40485D01*
X65607Y-40466D01*
X65513Y-40466D01*
X65476Y-40485D01*
X65457Y-40504D01*
X65438Y-40541D01*
X65438Y-40635D01*
X65457Y-40673D01*
X65476Y-40691D01*
X65513Y-40710D01*
X65607Y-40710D01*
X65644Y-40691D01*
X65663Y-40673D01*
X65813Y-46972D02*
X65832Y-46991D01*
X65888Y-47009D01*
X65926Y-47009D01*
X65982Y-46991D01*
X66019Y-46953D01*
X66038Y-46916D01*
X66057Y-46841D01*
X66057Y-46784D01*
X66038Y-46709D01*
X66019Y-46672D01*
X65982Y-46634D01*
X65926Y-46616D01*
X65888Y-46616D01*
X65832Y-46634D01*
X65813Y-46653D01*
X65476Y-46747D02*
X65476Y-47009D01*
X65569Y-46597D02*
X65663Y-46878D01*
X65419Y-46878D01*
G54D18*
X56613Y-52985D02*
X55300Y-52985D01*
X56144Y-55741D01*
X54457Y-55741D02*
X54082Y-55741D01*
X53894Y-55610D01*
X53801Y-55479D01*
X53613Y-55085D01*
X53519Y-54560D01*
X53519Y-53510D01*
X53613Y-53248D01*
X53707Y-53116D01*
X53894Y-52985D01*
X54269Y-52985D01*
X54457Y-53116D01*
X54550Y-53248D01*
X54644Y-53510D01*
X54644Y-54166D01*
X54550Y-54429D01*
X54457Y-54560D01*
X54269Y-54691D01*
X53894Y-54691D01*
X53707Y-54560D01*
X53613Y-54429D01*
X53519Y-54166D01*
%LPC*%
G54D20*
X64870Y-44700D03*
X64870Y-43700D03*
X64870Y-45700D03*
X64870Y-42700D03*
G54D21*
X64870Y-41700D03*
G54D20*
X63870Y-41700D03*
X63870Y-42700D03*
X63870Y-43700D03*
X63870Y-44700D03*
X63870Y-45700D03*
G54D22*
X61614Y-48137D03*
X61989Y-47137D03*
X61239Y-47137D03*
G54D23*
X60076Y-41299D03*
X60576Y-41299D03*
X61076Y-41299D03*
X61576Y-41299D03*
X61576Y-43345D03*
X61076Y-43345D03*
X60576Y-43345D03*
X60076Y-43345D03*
G54D24*
X45078Y-42025D03*
X45078Y-41045D03*
X50000Y-44588D03*
X50000Y-45568D03*
G54D25*
X46811Y-44610D03*
X46811Y-44110D03*
X46811Y-43610D03*
X46811Y-43110D03*
X46811Y-42610D03*
X46811Y-42110D03*
X46811Y-41610D03*
X48857Y-41610D03*
X48857Y-42110D03*
X48857Y-42610D03*
X48857Y-43110D03*
X48857Y-43610D03*
X48857Y-44110D03*
X48857Y-44610D03*
G54D26*
X45078Y-42882D03*
X45078Y-43732D03*
G54D27*
X65188Y-58858D03*
X64338Y-58858D03*
G54D26*
X45078Y-45897D03*
X45078Y-45047D03*
X45078Y-46622D03*
X45078Y-47472D03*
X46456Y-47472D03*
X46456Y-46622D03*
G54D27*
X49440Y-49803D03*
X48590Y-49803D03*
X60204Y-39960D03*
X61054Y-39960D03*
G54D26*
X59055Y-42747D03*
X59055Y-41897D03*
G54D27*
X55543Y-62204D03*
X54693Y-62204D03*
G54D26*
X55118Y-57252D03*
X55118Y-58102D03*
X50590Y-43338D03*
X50590Y-42488D03*
X50590Y-40913D03*
X50590Y-41763D03*
X50590Y-40188D03*
X50590Y-39338D03*
X49409Y-39338D03*
X49409Y-40188D03*
X55118Y-47865D03*
X55118Y-47015D03*
G54D27*
X57314Y-39370D03*
X56464Y-39370D03*
X61189Y-44685D03*
X62039Y-44685D03*
X62039Y-46062D03*
X61189Y-46062D03*
G54D28*
X56220Y-75590D03*
G54D29*
X59921Y-75590D03*
G54D30*
X58070Y-73661D03*
X58070Y-76889D03*
G54D28*
X61929Y-75590D03*
G54D29*
X65629Y-75590D03*
G54D30*
X63779Y-73661D03*
X63779Y-76889D03*
G54D28*
X50314Y-75590D03*
G54D29*
X54015Y-75590D03*
G54D30*
X52165Y-73661D03*
X52165Y-76889D03*
G54D28*
X44606Y-75590D03*
G54D29*
X48307Y-75590D03*
G54D30*
X46456Y-73661D03*
X46456Y-76889D03*
G54D31*
X56102Y-65354D03*
X54133Y-65354D03*
X54133Y-63385D03*
X56102Y-63385D03*
X56102Y-45669D03*
X54133Y-45669D03*
X54133Y-43700D03*
X56102Y-43700D03*
G54D21*
X62992Y-49830D03*
G54D20*
X62992Y-50830D03*
X62992Y-51830D03*
X62992Y-52830D03*
X62992Y-53830D03*
X62992Y-54830D03*
X62992Y-55830D03*
X62992Y-56830D03*
X62992Y-57830D03*
X62992Y-58830D03*
G54D21*
X47244Y-58830D03*
G54D20*
X47244Y-57830D03*
X47244Y-56830D03*
X47244Y-55830D03*
X47244Y-54830D03*
X47244Y-53830D03*
X47244Y-52830D03*
X47244Y-51830D03*
X47244Y-50830D03*
X47244Y-49830D03*
G54D32*
X64763Y-39763D03*
G54D33*
X63976Y-39763D03*
G54D32*
X63976Y-47637D03*
G54D33*
X64763Y-47637D03*
G54D20*
X57832Y-43376D03*
X58961Y-44989D03*
X56703Y-41764D03*
X56692Y-49606D03*
X56692Y-51574D03*
X56692Y-47637D03*
X56692Y-59448D03*
X56692Y-61417D03*
X56692Y-57480D03*
X56692Y-69291D03*
X56692Y-71259D03*
X56692Y-67322D03*
X53543Y-69291D03*
X53543Y-67322D03*
X53543Y-71259D03*
X53543Y-59448D03*
X53543Y-57480D03*
X53543Y-61417D03*
X53543Y-49606D03*
X53543Y-47637D03*
X53543Y-51574D03*
X52404Y-43376D03*
X53533Y-41764D03*
X51275Y-44989D03*
M02*
