G04 (created by PCBNEW (2013-07-07 BZR 4022)-stable) date 2014-05-25 10:59:23 PM*
%MOIN*%
G04 Gerber Fmt 3.4, Leading zero omitted, Abs format*
%FSLAX34Y34*%
G01*
G70*
G90*
G04 APERTURE LIST*
%ADD10C,0.00590551*%
%ADD11C,0.00787402*%
%ADD12C,0.01*%
%ADD13C,0.006*%
%ADD14C,0.0035*%
%ADD15C,0.012*%
%ADD16C,0.0787*%
%ADD17R,0.0787X0.0787*%
%ADD18O,0.137795X0.19685*%
%ADD19O,0.0787402X0.137795*%
%ADD20O,0.137795X0.137795*%
%ADD21C,0.066*%
%ADD22C,0.0885827*%
%ADD23R,0.0551181X0.0551181*%
%ADD24C,0.0551181*%
G04 APERTURE END LIST*
G54D10*
G54D11*
X55039Y-59448D02*
X55196Y-59448D01*
X55118Y-59370D02*
X55118Y-59527D01*
X55039Y-39763D02*
X55196Y-39763D01*
X55118Y-39685D02*
X55118Y-39842D01*
G54D10*
X59218Y-75590D02*
G75*
G03X59218Y-75590I-1147J0D01*
G74*
G01*
X60039Y-77559D02*
X56102Y-77559D01*
X56102Y-77559D02*
X56102Y-73228D01*
X56102Y-73228D02*
X60039Y-73228D01*
X60039Y-73228D02*
X60039Y-77559D01*
X58858Y-75590D02*
G75*
G03X58858Y-75590I-787J0D01*
G74*
G01*
X64927Y-75590D02*
G75*
G03X64927Y-75590I-1147J0D01*
G74*
G01*
X65748Y-77559D02*
X61811Y-77559D01*
X61811Y-77559D02*
X61811Y-73228D01*
X61811Y-73228D02*
X65748Y-73228D01*
X65748Y-73228D02*
X65748Y-77559D01*
X64566Y-75590D02*
G75*
G03X64566Y-75590I-787J0D01*
G74*
G01*
X53313Y-75590D02*
G75*
G03X53313Y-75590I-1147J0D01*
G74*
G01*
X54133Y-77559D02*
X50196Y-77559D01*
X50196Y-77559D02*
X50196Y-73228D01*
X50196Y-73228D02*
X54133Y-73228D01*
X54133Y-73228D02*
X54133Y-77559D01*
X52952Y-75590D02*
G75*
G03X52952Y-75590I-787J0D01*
G74*
G01*
X47604Y-75590D02*
G75*
G03X47604Y-75590I-1147J0D01*
G74*
G01*
X48425Y-77559D02*
X44488Y-77559D01*
X44488Y-77559D02*
X44488Y-73228D01*
X44488Y-73228D02*
X48425Y-73228D01*
X48425Y-73228D02*
X48425Y-77559D01*
X47244Y-75590D02*
G75*
G03X47244Y-75590I-787J0D01*
G74*
G01*
G54D12*
X55618Y-58728D02*
X54618Y-58728D01*
G54D13*
X54734Y-59809D02*
G75*
G03X55118Y-59948I384J460D01*
G74*
G01*
X55118Y-59948D02*
G75*
G03X55515Y-59796I0J599D01*
G74*
G01*
X55118Y-58749D02*
G75*
G03X54728Y-58893I0J-599D01*
G74*
G01*
X55502Y-58887D02*
G75*
G03X55118Y-58748I-384J-460D01*
G74*
G01*
X54768Y-58860D02*
G75*
G03X54518Y-59348I349J-487D01*
G74*
G01*
X54518Y-59348D02*
G75*
G03X54757Y-59828I600J0D01*
G74*
G01*
X55717Y-59348D02*
G75*
G03X55486Y-58875I-599J0D01*
G74*
G01*
X55486Y-59822D02*
G75*
G03X55718Y-59348I-368J473D01*
G74*
G01*
X54868Y-59348D02*
G75*
G03X55118Y-59598I250J0D01*
G74*
G01*
X54718Y-59348D02*
G75*
G03X55118Y-59748I400J0D01*
G74*
G01*
X55368Y-59348D02*
G75*
G03X55118Y-59098I-250J0D01*
G74*
G01*
X55518Y-59348D02*
G75*
G03X55118Y-58948I-400J0D01*
G74*
G01*
G54D12*
X54604Y-58735D02*
G75*
G03X54318Y-59348I513J-613D01*
G74*
G01*
X54319Y-59348D02*
G75*
G03X54741Y-60053I799J0D01*
G74*
G01*
X55917Y-59347D02*
G75*
G03X55633Y-58738I-798J-1D01*
G74*
G01*
X55515Y-60043D02*
G75*
G03X55918Y-59348I-397J694D01*
G74*
G01*
X54738Y-60053D02*
G75*
G03X55118Y-60148I379J704D01*
G74*
G01*
X55118Y-60148D02*
G75*
G03X55537Y-60029I0J799D01*
G74*
G01*
X55618Y-39043D02*
X54618Y-39043D01*
G54D13*
X54734Y-40124D02*
G75*
G03X55118Y-40263I384J460D01*
G74*
G01*
X55118Y-40263D02*
G75*
G03X55515Y-40111I0J599D01*
G74*
G01*
X55118Y-39064D02*
G75*
G03X54728Y-39208I0J-599D01*
G74*
G01*
X55502Y-39202D02*
G75*
G03X55118Y-39063I-384J-460D01*
G74*
G01*
X54768Y-39175D02*
G75*
G03X54518Y-39663I349J-487D01*
G74*
G01*
X54518Y-39663D02*
G75*
G03X54757Y-40143I600J0D01*
G74*
G01*
X55717Y-39663D02*
G75*
G03X55486Y-39190I-599J0D01*
G74*
G01*
X55486Y-40137D02*
G75*
G03X55718Y-39663I-368J473D01*
G74*
G01*
X54868Y-39663D02*
G75*
G03X55118Y-39913I250J0D01*
G74*
G01*
X54718Y-39663D02*
G75*
G03X55118Y-40063I400J0D01*
G74*
G01*
X55368Y-39663D02*
G75*
G03X55118Y-39413I-250J0D01*
G74*
G01*
X55518Y-39663D02*
G75*
G03X55118Y-39263I-400J0D01*
G74*
G01*
G54D12*
X54604Y-39050D02*
G75*
G03X54318Y-39663I513J-613D01*
G74*
G01*
X54319Y-39663D02*
G75*
G03X54741Y-40368I799J0D01*
G74*
G01*
X55917Y-39662D02*
G75*
G03X55633Y-39053I-798J-1D01*
G74*
G01*
X55515Y-40357D02*
G75*
G03X55918Y-39663I-397J694D01*
G74*
G01*
X54738Y-40368D02*
G75*
G03X55118Y-40463I379J704D01*
G74*
G01*
X55118Y-40463D02*
G75*
G03X55537Y-40344I0J799D01*
G74*
G01*
G54D10*
X54135Y-66536D02*
G75*
G03X57284Y-65352I982J2166D01*
G74*
G01*
X52952Y-65352D02*
G75*
G03X56100Y-66536I2166J982D01*
G74*
G01*
X54135Y-62203D02*
G75*
G03X52952Y-65352I982J-2166D01*
G74*
G01*
X57284Y-65352D02*
G75*
G03X56100Y-62203I-2166J982D01*
G74*
G01*
X54133Y-62204D02*
X56102Y-62204D01*
X56889Y-64370D02*
G75*
G03X56889Y-64370I-1771J0D01*
G74*
G01*
X54135Y-46851D02*
G75*
G03X57284Y-45667I982J2166D01*
G74*
G01*
X52952Y-45667D02*
G75*
G03X56100Y-46851I2166J982D01*
G74*
G01*
X54135Y-42518D02*
G75*
G03X52952Y-45667I982J-2166D01*
G74*
G01*
X57284Y-45667D02*
G75*
G03X56100Y-42518I-2166J982D01*
G74*
G01*
X54133Y-42519D02*
X56102Y-42519D01*
X56889Y-44685D02*
G75*
G03X56889Y-44685I-1771J0D01*
G74*
G01*
X58122Y-41731D02*
X57154Y-42409D01*
X57154Y-42409D02*
X56251Y-41119D01*
X59251Y-43344D02*
X58283Y-44021D01*
X58283Y-44021D02*
X57380Y-42731D01*
X57380Y-42731D02*
X58347Y-42054D01*
X59412Y-45634D02*
X58509Y-44344D01*
X58509Y-44344D02*
X59477Y-43666D01*
X57218Y-40441D02*
X60380Y-44956D01*
X59412Y-45634D02*
X62960Y-43150D01*
X56251Y-41119D02*
X59798Y-38635D01*
X64173Y-39763D02*
G75*
G03X64173Y-39763I-1181J0D01*
G74*
G01*
X66338Y-39763D02*
G75*
G03X66338Y-39763I-3346J0D01*
G74*
G01*
X57874Y-48425D02*
X56692Y-48425D01*
X56692Y-48425D02*
X56692Y-46850D01*
X57874Y-50393D02*
X56692Y-50393D01*
X56692Y-50393D02*
X56692Y-48818D01*
X56692Y-48818D02*
X57874Y-48818D01*
X56692Y-52362D02*
X56692Y-50787D01*
X56692Y-50787D02*
X57874Y-50787D01*
X57874Y-46850D02*
X57874Y-52362D01*
X56692Y-52362D02*
X61023Y-52362D01*
X56692Y-46850D02*
X61023Y-46850D01*
X64173Y-49606D02*
G75*
G03X64173Y-49606I-1181J0D01*
G74*
G01*
X66338Y-49606D02*
G75*
G03X66338Y-49606I-3346J0D01*
G74*
G01*
X57874Y-58267D02*
X56692Y-58267D01*
X56692Y-58267D02*
X56692Y-56692D01*
X57874Y-60236D02*
X56692Y-60236D01*
X56692Y-60236D02*
X56692Y-58661D01*
X56692Y-58661D02*
X57874Y-58661D01*
X56692Y-62204D02*
X56692Y-60629D01*
X56692Y-60629D02*
X57874Y-60629D01*
X57874Y-56692D02*
X57874Y-62204D01*
X56692Y-62204D02*
X61023Y-62204D01*
X56692Y-56692D02*
X61023Y-56692D01*
X64173Y-59448D02*
G75*
G03X64173Y-59448I-1181J0D01*
G74*
G01*
X66338Y-59448D02*
G75*
G03X66338Y-59448I-3346J0D01*
G74*
G01*
X57874Y-68110D02*
X56692Y-68110D01*
X56692Y-68110D02*
X56692Y-66535D01*
X57874Y-70078D02*
X56692Y-70078D01*
X56692Y-70078D02*
X56692Y-68503D01*
X56692Y-68503D02*
X57874Y-68503D01*
X56692Y-72047D02*
X56692Y-70472D01*
X56692Y-70472D02*
X57874Y-70472D01*
X57874Y-66535D02*
X57874Y-72047D01*
X56692Y-72047D02*
X61023Y-72047D01*
X56692Y-66535D02*
X61023Y-66535D01*
X64173Y-69291D02*
G75*
G03X64173Y-69291I-1181J0D01*
G74*
G01*
X66338Y-69291D02*
G75*
G03X66338Y-69291I-3346J0D01*
G74*
G01*
X52362Y-70472D02*
X53543Y-70472D01*
X53543Y-70472D02*
X53543Y-72047D01*
X52362Y-68503D02*
X53543Y-68503D01*
X53543Y-68503D02*
X53543Y-70078D01*
X53543Y-70078D02*
X52362Y-70078D01*
X53543Y-66535D02*
X53543Y-68110D01*
X53543Y-68110D02*
X52362Y-68110D01*
X52362Y-72047D02*
X52362Y-66535D01*
X53543Y-66535D02*
X49212Y-66535D01*
X53543Y-72047D02*
X49212Y-72047D01*
X48425Y-69291D02*
G75*
G03X48425Y-69291I-1181J0D01*
G74*
G01*
X50590Y-69291D02*
G75*
G03X50590Y-69291I-3346J0D01*
G74*
G01*
X52362Y-60629D02*
X53543Y-60629D01*
X53543Y-60629D02*
X53543Y-62204D01*
X52362Y-58661D02*
X53543Y-58661D01*
X53543Y-58661D02*
X53543Y-60236D01*
X53543Y-60236D02*
X52362Y-60236D01*
X53543Y-56692D02*
X53543Y-58267D01*
X53543Y-58267D02*
X52362Y-58267D01*
X52362Y-62204D02*
X52362Y-56692D01*
X53543Y-56692D02*
X49212Y-56692D01*
X53543Y-62204D02*
X49212Y-62204D01*
X48425Y-59448D02*
G75*
G03X48425Y-59448I-1181J0D01*
G74*
G01*
X50590Y-59448D02*
G75*
G03X50590Y-59448I-3346J0D01*
G74*
G01*
X52362Y-50787D02*
X53543Y-50787D01*
X53543Y-50787D02*
X53543Y-52362D01*
X52362Y-48818D02*
X53543Y-48818D01*
X53543Y-48818D02*
X53543Y-50393D01*
X53543Y-50393D02*
X52362Y-50393D01*
X53543Y-46850D02*
X53543Y-48425D01*
X53543Y-48425D02*
X52362Y-48425D01*
X52362Y-52362D02*
X52362Y-46850D01*
X53543Y-46850D02*
X49212Y-46850D01*
X53543Y-52362D02*
X49212Y-52362D01*
X48425Y-49606D02*
G75*
G03X48425Y-49606I-1181J0D01*
G74*
G01*
X50590Y-49606D02*
G75*
G03X50590Y-49606I-3346J0D01*
G74*
G01*
X50759Y-43666D02*
X51726Y-44344D01*
X51726Y-44344D02*
X50823Y-45634D01*
X51888Y-42054D02*
X52855Y-42731D01*
X52855Y-42731D02*
X51952Y-44021D01*
X51952Y-44021D02*
X50984Y-43344D01*
X53984Y-41119D02*
X53081Y-42409D01*
X53081Y-42409D02*
X52114Y-41731D01*
X49855Y-44956D02*
X53017Y-40441D01*
X53984Y-41119D02*
X50437Y-38635D01*
X50823Y-45634D02*
X47275Y-43150D01*
X48425Y-39763D02*
G75*
G03X48425Y-39763I-1181J0D01*
G74*
G01*
X50590Y-39763D02*
G75*
G03X50590Y-39763I-3346J0D01*
G74*
G01*
G54D14*
X54896Y-60751D02*
X54896Y-60451D01*
X54968Y-60451D01*
X55010Y-60465D01*
X55039Y-60494D01*
X55053Y-60522D01*
X55068Y-60579D01*
X55068Y-60622D01*
X55053Y-60679D01*
X55039Y-60708D01*
X55010Y-60737D01*
X54968Y-60751D01*
X54896Y-60751D01*
X55339Y-60451D02*
X55196Y-60451D01*
X55182Y-60594D01*
X55196Y-60579D01*
X55225Y-60565D01*
X55296Y-60565D01*
X55325Y-60579D01*
X55339Y-60594D01*
X55353Y-60622D01*
X55353Y-60694D01*
X55339Y-60722D01*
X55325Y-60737D01*
X55296Y-60751D01*
X55225Y-60751D01*
X55196Y-60737D01*
X55182Y-60722D01*
X54896Y-41066D02*
X54896Y-40766D01*
X54968Y-40766D01*
X55010Y-40780D01*
X55039Y-40809D01*
X55053Y-40837D01*
X55068Y-40894D01*
X55068Y-40937D01*
X55053Y-40994D01*
X55039Y-41023D01*
X55010Y-41052D01*
X54968Y-41066D01*
X54896Y-41066D01*
X55168Y-40766D02*
X55353Y-40766D01*
X55253Y-40880D01*
X55296Y-40880D01*
X55325Y-40894D01*
X55339Y-40909D01*
X55353Y-40937D01*
X55353Y-41009D01*
X55339Y-41037D01*
X55325Y-41052D01*
X55296Y-41066D01*
X55210Y-41066D01*
X55182Y-41052D01*
X55168Y-41037D01*
G54D10*
X54593Y-64412D02*
X54649Y-64431D01*
X54743Y-64431D01*
X54780Y-64412D01*
X54799Y-64393D01*
X54818Y-64356D01*
X54818Y-64318D01*
X54799Y-64281D01*
X54780Y-64262D01*
X54743Y-64243D01*
X54668Y-64224D01*
X54630Y-64206D01*
X54611Y-64187D01*
X54593Y-64149D01*
X54593Y-64112D01*
X54611Y-64074D01*
X54630Y-64056D01*
X54668Y-64037D01*
X54761Y-64037D01*
X54818Y-64056D01*
X54949Y-64037D02*
X55043Y-64431D01*
X55118Y-64149D01*
X55193Y-64431D01*
X55286Y-64037D01*
X55418Y-64074D02*
X55436Y-64056D01*
X55474Y-64037D01*
X55568Y-64037D01*
X55605Y-64056D01*
X55624Y-64074D01*
X55643Y-64112D01*
X55643Y-64149D01*
X55624Y-64206D01*
X55399Y-64431D01*
X55643Y-64431D01*
X54593Y-44825D02*
X54649Y-44844D01*
X54743Y-44844D01*
X54780Y-44825D01*
X54799Y-44806D01*
X54818Y-44769D01*
X54818Y-44731D01*
X54799Y-44694D01*
X54780Y-44675D01*
X54743Y-44656D01*
X54668Y-44638D01*
X54630Y-44619D01*
X54611Y-44600D01*
X54593Y-44563D01*
X54593Y-44525D01*
X54611Y-44488D01*
X54630Y-44469D01*
X54668Y-44450D01*
X54761Y-44450D01*
X54818Y-44469D01*
X54949Y-44450D02*
X55043Y-44844D01*
X55118Y-44563D01*
X55193Y-44844D01*
X55286Y-44450D01*
X55643Y-44844D02*
X55418Y-44844D01*
X55530Y-44844D02*
X55530Y-44450D01*
X55493Y-44506D01*
X55455Y-44544D01*
X55418Y-44563D01*
G54D15*
X58799Y-42099D02*
X59290Y-41755D01*
X59421Y-41942D01*
X59430Y-42005D01*
X59423Y-42045D01*
X59393Y-42101D01*
X59323Y-42150D01*
X59260Y-42160D01*
X59220Y-42153D01*
X59164Y-42122D01*
X59033Y-41935D01*
X59798Y-42480D02*
X59634Y-42246D01*
X59384Y-42387D01*
X59424Y-42394D01*
X59480Y-42424D01*
X59562Y-42541D01*
X59571Y-42604D01*
X59564Y-42644D01*
X59534Y-42700D01*
X59417Y-42782D01*
X59353Y-42792D01*
X59314Y-42785D01*
X59257Y-42754D01*
X59175Y-42637D01*
X59166Y-42574D01*
X59173Y-42534D01*
X58218Y-49849D02*
X58218Y-49249D01*
X58447Y-49249D01*
X58504Y-49277D01*
X58532Y-49306D01*
X58561Y-49363D01*
X58561Y-49449D01*
X58532Y-49506D01*
X58504Y-49534D01*
X58447Y-49563D01*
X58218Y-49563D01*
X59075Y-49249D02*
X58961Y-49249D01*
X58904Y-49277D01*
X58875Y-49306D01*
X58818Y-49392D01*
X58789Y-49506D01*
X58789Y-49734D01*
X58818Y-49792D01*
X58847Y-49820D01*
X58904Y-49849D01*
X59018Y-49849D01*
X59075Y-49820D01*
X59104Y-49792D01*
X59132Y-49734D01*
X59132Y-49592D01*
X59104Y-49534D01*
X59075Y-49506D01*
X59018Y-49477D01*
X58904Y-49477D01*
X58847Y-49506D01*
X58818Y-49534D01*
X58789Y-49592D01*
X58218Y-59691D02*
X58218Y-59091D01*
X58447Y-59091D01*
X58504Y-59120D01*
X58532Y-59148D01*
X58561Y-59205D01*
X58561Y-59291D01*
X58532Y-59348D01*
X58504Y-59377D01*
X58447Y-59405D01*
X58218Y-59405D01*
X58761Y-59091D02*
X59161Y-59091D01*
X58904Y-59691D01*
X58218Y-69534D02*
X58218Y-68934D01*
X58447Y-68934D01*
X58504Y-68962D01*
X58532Y-68991D01*
X58561Y-69048D01*
X58561Y-69134D01*
X58532Y-69191D01*
X58504Y-69219D01*
X58447Y-69248D01*
X58218Y-69248D01*
X58904Y-69191D02*
X58847Y-69162D01*
X58818Y-69134D01*
X58789Y-69077D01*
X58789Y-69048D01*
X58818Y-68991D01*
X58847Y-68962D01*
X58904Y-68934D01*
X59018Y-68934D01*
X59075Y-68962D01*
X59104Y-68991D01*
X59132Y-69048D01*
X59132Y-69077D01*
X59104Y-69134D01*
X59075Y-69162D01*
X59018Y-69191D01*
X58904Y-69191D01*
X58847Y-69219D01*
X58818Y-69248D01*
X58789Y-69305D01*
X58789Y-69419D01*
X58818Y-69477D01*
X58847Y-69505D01*
X58904Y-69534D01*
X59018Y-69534D01*
X59075Y-69505D01*
X59104Y-69477D01*
X59132Y-69419D01*
X59132Y-69305D01*
X59104Y-69248D01*
X59075Y-69219D01*
X59018Y-69191D01*
X50935Y-69534D02*
X50935Y-68934D01*
X51163Y-68934D01*
X51220Y-68962D01*
X51249Y-68991D01*
X51277Y-69048D01*
X51277Y-69134D01*
X51249Y-69191D01*
X51220Y-69219D01*
X51163Y-69248D01*
X50935Y-69248D01*
X51792Y-69134D02*
X51792Y-69534D01*
X51649Y-68905D02*
X51506Y-69334D01*
X51877Y-69334D01*
X50935Y-59691D02*
X50935Y-59091D01*
X51163Y-59091D01*
X51220Y-59120D01*
X51249Y-59148D01*
X51277Y-59205D01*
X51277Y-59291D01*
X51249Y-59348D01*
X51220Y-59377D01*
X51163Y-59405D01*
X50935Y-59405D01*
X51477Y-59091D02*
X51849Y-59091D01*
X51649Y-59320D01*
X51735Y-59320D01*
X51792Y-59348D01*
X51820Y-59377D01*
X51849Y-59434D01*
X51849Y-59577D01*
X51820Y-59634D01*
X51792Y-59663D01*
X51735Y-59691D01*
X51563Y-59691D01*
X51506Y-59663D01*
X51477Y-59634D01*
X51131Y-49849D02*
X51131Y-49249D01*
X51360Y-49249D01*
X51417Y-49277D01*
X51446Y-49306D01*
X51474Y-49363D01*
X51474Y-49449D01*
X51446Y-49506D01*
X51417Y-49534D01*
X51360Y-49563D01*
X51131Y-49563D01*
X51703Y-49306D02*
X51731Y-49277D01*
X51789Y-49249D01*
X51931Y-49249D01*
X51989Y-49277D01*
X52017Y-49306D01*
X52046Y-49363D01*
X52046Y-49420D01*
X52017Y-49506D01*
X51674Y-49849D01*
X52046Y-49849D01*
X50929Y-42824D02*
X50437Y-42480D01*
X50568Y-42293D01*
X50624Y-42263D01*
X50664Y-42256D01*
X50727Y-42265D01*
X50798Y-42314D01*
X50828Y-42370D01*
X50835Y-42410D01*
X50826Y-42473D01*
X50695Y-42661D01*
X51453Y-42075D02*
X51256Y-42356D01*
X51355Y-42216D02*
X50863Y-41872D01*
X50901Y-41968D01*
X50915Y-42047D01*
X50905Y-42110D01*
%LPC*%
G54D16*
X64870Y-44700D03*
X64870Y-43700D03*
X64870Y-45700D03*
X64870Y-42700D03*
G54D17*
X64870Y-41700D03*
G54D16*
X63870Y-41700D03*
X63870Y-42700D03*
X63870Y-43700D03*
X63870Y-44700D03*
X63870Y-45700D03*
G54D18*
X56220Y-75590D03*
G54D19*
X59921Y-75590D03*
G54D20*
X58070Y-73661D03*
X58070Y-76889D03*
G54D18*
X61929Y-75590D03*
G54D19*
X65629Y-75590D03*
G54D20*
X63779Y-73661D03*
X63779Y-76889D03*
G54D18*
X50314Y-75590D03*
G54D19*
X54015Y-75590D03*
G54D20*
X52165Y-73661D03*
X52165Y-76889D03*
G54D18*
X44606Y-75590D03*
G54D19*
X48307Y-75590D03*
G54D20*
X46456Y-73661D03*
X46456Y-76889D03*
G54D21*
X55118Y-59948D03*
X55118Y-58948D03*
X55118Y-40263D03*
X55118Y-39263D03*
G54D22*
X56102Y-65354D03*
X54133Y-65354D03*
X54133Y-63385D03*
X56102Y-63385D03*
X56102Y-45669D03*
X54133Y-45669D03*
X54133Y-43700D03*
X56102Y-43700D03*
G54D17*
X62992Y-49830D03*
G54D16*
X62992Y-50830D03*
X62992Y-51830D03*
X62992Y-52830D03*
X62992Y-53830D03*
X62992Y-54830D03*
X62992Y-55830D03*
X62992Y-56830D03*
X62992Y-57830D03*
X62992Y-58830D03*
G54D17*
X47244Y-58830D03*
G54D16*
X47244Y-57830D03*
X47244Y-56830D03*
X47244Y-55830D03*
X47244Y-54830D03*
X47244Y-53830D03*
X47244Y-52830D03*
X47244Y-51830D03*
X47244Y-50830D03*
X47244Y-49830D03*
G54D23*
X64763Y-39763D03*
G54D24*
X63976Y-39763D03*
G54D23*
X63976Y-47637D03*
G54D24*
X64763Y-47637D03*
G54D16*
X57832Y-43376D03*
X58961Y-44989D03*
X56703Y-41764D03*
X56692Y-49606D03*
X56692Y-51574D03*
X56692Y-47637D03*
X56692Y-59448D03*
X56692Y-61417D03*
X56692Y-57480D03*
X56692Y-69291D03*
X56692Y-71259D03*
X56692Y-67322D03*
X53543Y-69291D03*
X53543Y-67322D03*
X53543Y-71259D03*
X53543Y-59448D03*
X53543Y-57480D03*
X53543Y-61417D03*
X53543Y-49606D03*
X53543Y-47637D03*
X53543Y-51574D03*
X52404Y-43376D03*
X53533Y-41764D03*
X51275Y-44989D03*
M02*
