G04 (created by PCBNEW (2013-07-07 BZR 4022)-stable) date 2014-05-25 10:59:23 PM*
%MOIN*%
G04 Gerber Fmt 3.4, Leading zero omitted, Abs format*
%FSLAX34Y34*%
G01*
G70*
G90*
G04 APERTURE LIST*
%ADD10C,0.00590551*%
%ADD11C,0.0787*%
%ADD12R,0.0787X0.0787*%
%ADD13O,0.137795X0.19685*%
%ADD14O,0.0787402X0.137795*%
%ADD15O,0.137795X0.137795*%
%ADD16C,0.066*%
%ADD17C,0.0885827*%
%ADD18R,0.0551181X0.0551181*%
%ADD19C,0.0551181*%
G04 APERTURE END LIST*
G54D10*
G54D11*
X64870Y-44700D03*
X64870Y-43700D03*
X64870Y-45700D03*
X64870Y-42700D03*
G54D12*
X64870Y-41700D03*
G54D11*
X63870Y-41700D03*
X63870Y-42700D03*
X63870Y-43700D03*
X63870Y-44700D03*
X63870Y-45700D03*
G54D13*
X56220Y-75590D03*
G54D14*
X59921Y-75590D03*
G54D15*
X58070Y-73661D03*
X58070Y-76889D03*
G54D13*
X61929Y-75590D03*
G54D14*
X65629Y-75590D03*
G54D15*
X63779Y-73661D03*
X63779Y-76889D03*
G54D13*
X50314Y-75590D03*
G54D14*
X54015Y-75590D03*
G54D15*
X52165Y-73661D03*
X52165Y-76889D03*
G54D13*
X44606Y-75590D03*
G54D14*
X48307Y-75590D03*
G54D15*
X46456Y-73661D03*
X46456Y-76889D03*
G54D16*
X55118Y-59948D03*
X55118Y-58948D03*
X55118Y-40263D03*
X55118Y-39263D03*
G54D17*
X56102Y-65354D03*
X54133Y-65354D03*
X54133Y-63385D03*
X56102Y-63385D03*
X56102Y-45669D03*
X54133Y-45669D03*
X54133Y-43700D03*
X56102Y-43700D03*
G54D12*
X62992Y-49830D03*
G54D11*
X62992Y-50830D03*
X62992Y-51830D03*
X62992Y-52830D03*
X62992Y-53830D03*
X62992Y-54830D03*
X62992Y-55830D03*
X62992Y-56830D03*
X62992Y-57830D03*
X62992Y-58830D03*
G54D12*
X47244Y-58830D03*
G54D11*
X47244Y-57830D03*
X47244Y-56830D03*
X47244Y-55830D03*
X47244Y-54830D03*
X47244Y-53830D03*
X47244Y-52830D03*
X47244Y-51830D03*
X47244Y-50830D03*
X47244Y-49830D03*
G54D18*
X64763Y-39763D03*
G54D19*
X63976Y-39763D03*
G54D18*
X63976Y-47637D03*
G54D19*
X64763Y-47637D03*
G54D11*
X57832Y-43376D03*
X58961Y-44989D03*
X56703Y-41764D03*
X56692Y-49606D03*
X56692Y-51574D03*
X56692Y-47637D03*
X56692Y-59448D03*
X56692Y-61417D03*
X56692Y-57480D03*
X56692Y-69291D03*
X56692Y-71259D03*
X56692Y-67322D03*
X53543Y-69291D03*
X53543Y-67322D03*
X53543Y-71259D03*
X53543Y-59448D03*
X53543Y-57480D03*
X53543Y-61417D03*
X53543Y-49606D03*
X53543Y-47637D03*
X53543Y-51574D03*
X52404Y-43376D03*
X53533Y-41764D03*
X51275Y-44989D03*
M02*
