  0
SECTION
  2
HEADER
  9
$ACADVER
  1
AC1009
  9
$DWGCODEPAGE
  3
ansi_1252
  9
$INSBASE
 10
0.0
 20
0.0
 30
0.0
  9
$EXTMIN
 10
0.0
 20
0.0
 30
0.0
  9
$EXTMAX
 10
60.6
 20
128.5
 30
28.0836838781348
  9
$LIMMIN
 10
0.0
 20
0.0
  9
$LIMMAX
 10
420.0
 20
297.0
  9
$ORTHOMODE
 70
     0
  9
$REGENMODE
 70
     1
  9
$FILLMODE
 70
     1
  9
$QTEXTMODE
 70
     0
  9
$MIRRTEXT
 70
     1
  9
$DRAGMODE
 70
     2
  9
$LTSCALE
 40
1.0
  9
$OSMODE
 70
    37
  9
$ATTMODE
 70
     1
  9
$TEXTSIZE
 40
2.5
  9
$TRACEWID
 40
1.0
  9
$TEXTSTYLE
  7
STANDARD
  9
$CLAYER
  8
0
  9
$CELTYPE
  6
BYLAYER
  9
$CECOLOR
 62
   256
  9
$DIMSCALE
 40
1.0
  9
$DIMASZ
 40
2.5
  9
$DIMEXO
 40
0.625
  9
$DIMDLI
 40
3.75
  9
$DIMRND
 40
0.0
  9
$DIMDLE
 40
0.0
  9
$DIMEXE
 40
1.25
  9
$DIMTP
 40
0.0
  9
$DIMTM
 40
0.0
  9
$DIMTXT
 40
2.5
  9
$DIMCEN
 40
2.5
  9
$DIMTSZ
 40
0.0
  9
$DIMTOL
 70
     0
  9
$DIMLIM
 70
     0
  9
$DIMTIH
 70
     0
  9
$DIMTOH
 70
     0
  9
$DIMSE1
 70
     0
  9
$DIMSE2
 70
     0
  9
$DIMTAD
 70
     1
  9
$DIMZIN
 70
     8
  9
$DIMBLK
  1

  9
$DIMASO
 70
     1
  9
$DIMSHO
 70
     1
  9
$DIMPOST
  1

  9
$DIMAPOST
  1

  9
$DIMALT
 70
     0
  9
$DIMALTD
 70
     3
  9
$DIMALTF
 40
0.03937007874016
  9
$DIMLFAC
 40
1.0
  9
$DIMTOFL
 70
     1
  9
$DIMTVP
 40
0.0
  9
$DIMTIX
 70
     0
  9
$DIMSOXD
 70
     0
  9
$DIMSAH
 70
     0
  9
$DIMBLK1
  1

  9
$DIMBLK2
  1

  9
$DIMSTYLE
  2
ISO-25
  9
$DIMCLRD
 70
     0
  9
$DIMCLRE
 70
     0
  9
$DIMCLRT
 70
     0
  9
$DIMTFAC
 40
1.0
  9
$DIMGAP
 40
0.625
  9
$LUNITS
 70
     2
  9
$LUPREC
 70
     4
  9
$SKETCHINC
 40
1.0
  9
$FILLETRAD
 40
10.0
  9
$AUNITS
 70
     0
  9
$AUPREC
 70
     0
  9
$MENU
  1
.
  9
$ELEVATION
 40
0.0
  9
$PELEVATION
 40
0.0
  9
$THICKNESS
 40
0.0
  9
$LIMCHECK
 70
     0
  9
$CHAMFERA
 40
0.0
  9
$CHAMFERB
 40
0.0
  9
$SKPOLY
 70
     0
  9
$TDCREATE
 40
2305814.783969908
  9
$TDUPDATE
 40
2456786.950645335
  9
$TDINDWG
 40
0.0000000116
  9
$TDUSRTIMER
 40
0.0000000116
  9
$USRTIMER
 70
     1
  9
$ANGBASE
 50
0.0
  9
$ANGDIR
 70
     0
  9
$PDMODE
 70
     0
  9
$PDSIZE
 40
0.0
  9
$PLINEWID
 40
0.0
  9
$COORDS
 70
     1
  9
$SPLFRAME
 70
     0
  9
$SPLINETYPE
 70
     6
  9
$SPLINESEGS
 70
     8
  9
$ATTDIA
 70
     0
  9
$ATTREQ
 70
     1
  9
$HANDLING
 70
     1
  9
$HANDSEED
  5
AA
  9
$SURFTAB1
 70
     6
  9
$SURFTAB2
 70
     6
  9
$SURFTYPE
 70
     6
  9
$SURFU
 70
     6
  9
$SURFV
 70
     6
  9
$UCSNAME
  2

  9
$UCSORG
 10
0.0
 20
0.0
 30
0.0
  9
$UCSXDIR
 10
1.0
 20
0.0
 30
0.0
  9
$UCSYDIR
 10
0.0
 20
1.0
 30
0.0
  9
$PUCSNAME
  2

  9
$PUCSORG
 10
0.0
 20
0.0
 30
0.0
  9
$PUCSXDIR
 10
1.0
 20
0.0
 30
0.0
  9
$PUCSYDIR
 10
0.0
 20
1.0
 30
0.0
  9
$USERI1
 70
     0
  9
$USERI2
 70
     0
  9
$USERI3
 70
     0
  9
$USERI4
 70
     0
  9
$USERI5
 70
     0
  9
$USERR1
 40
0.0
  9
$USERR2
 40
0.0
  9
$USERR3
 40
0.0
  9
$USERR4
 40
0.0
  9
$USERR5
 40
0.0
  9
$WORLDVIEW
 70
     1
  9
$SHADEDGE
 70
     3
  9
$SHADEDIF
 70
    70
  9
$TILEMODE
 70
     1
  9
$MAXACTVP
 70
    64
  9
$PLIMCHECK
 70
     0
  9
$PEXTMIN
 10
1.000000000000000E+20
 20
1.000000000000000E+20
 30
1.000000000000000E+20
  9
$PEXTMAX
 10
-1.000000000000000E+20
 20
-1.000000000000000E+20
 30
-1.000000000000000E+20
  9
$PLIMMIN
 10
0.0
 20
0.0
  9
$PLIMMAX
 10
420.0
 20
297.0
  9
$UNITMODE
 70
     0
  9
$VISRETAIN
 70
     1
  9
$PLINEGEN
 70
     0
  9
$PSLTSCALE
 70
     1
  0
ENDSEC
  0
SECTION
  2
TABLES
  0
TABLE
  2
VPORT
 70
     1
  0
VPORT
  2
*ACTIVE
 70
     0
 10
0.0
 20
0.0
 11
1.0
 21
1.0
 12
30.30000000000001
 22
64.25
 13
0.0
 23
0.0
 14
10.0
 24
10.0
 15
10.0
 25
10.0
 16
0.0
 26
0.0
 36
1.0
 17
0.0
 27
0.0
 37
0.0
 40
131.07
 41
0.4715953307392998
 42
50.0
 43
0.0
 44
0.0
 50
0.0
 51
0.0
 71
     0
 72
   100
 73
     1
 74
     3
 75
     0
 76
     0
 77
     0
 78
     0
  0
ENDTAB
  0
TABLE
  2
LTYPE
 70
    11
  0
LTYPE
  2
CONTINUOUS
 70
     0
  3
Solid line
 72
    65
 73
     0
 40
0.0
  0
LTYPE
  2
BORDER
 70
     0
  3
__ __ . __ __ . __ 
 72
    65
 73
     6
 40
0.875
 49
0.25
 49
-0.125
 49
0.25
 49
-0.125
 49
0.0
 49
-0.125
  0
LTYPE
  2
CENTER
 70
     0
  3
___ _ ___ _ ___ _ _
 72
    65
 73
     4
 40
1.125
 49
0.75
 49
-0.125
 49
0.125
 49
-0.125
  0
LTYPE
  2
DASHDOT
 70
     0
  3
_._._._._._._._._._
 72
    65
 73
     4
 40
0.5
 49
0.25
 49
-0.125
 49
0.0
 49
-0.125
  0
LTYPE
  2
DASHED
 70
     0
  3
_ _ _ _ _ _ _ _ _ _
 72
    65
 73
     2
 40
0.375
 49
0.25
 49
-0.125
  0
LTYPE
  2
DIVIDE
 70
     0
  3
__..__..__..__..__.
 72
    65
 73
     6
 40
0.625
 49
0.25
 49
-0.125
 49
0.0
 49
-0.125
 49
0.0
 49
-0.125
  0
LTYPE
  2
DOT
 70
     0
  3
...................
 72
    65
 73
     2
 40
0.125
 49
0.0
 49
-0.125
  0
LTYPE
  2
HIDDEN
 70
     0
  3
__ __ __ __ __ __ _
 72
    65
 73
     2
 40
0.1875
 49
0.125
 49
-0.0625
  0
LTYPE
  2
PHANTOM
 70
     0
  3
___ _ _ ___ _ _ ___
 72
    65
 73
     6
 40
1.25
 49
0.625
 49
-0.125
 49
0.125
 49
-0.125
 49
0.125
 49
-0.125
  0
LTYPE
  2
CUTTING
 70
     0
  3
________ _ _ ______
 72
    65
 73
     6
 40
1.4675
 49
1.0
 49
-0.0725
 49
0.125
 49
-0.0725
 49
0.125
 49
-0.0725
  0
LTYPE
  2
STITCH
 70
     0
  3
_ _ _ _ _ _ _ _ _ _
 72
    65
 73
     2
 40
0.145
 49
0.0725
 49
-0.0725
  0
ENDTAB
  0
TABLE
  2
LAYER
 70
     6
  0
LAYER
  2
0
 70
     0
 62
     7
  6
CONTINUOUS
  0
LAYER
  2
LAYER1
 70
     0
 62
     7
  6
CONTINUOUS
  0
LAYER
  2
DXF_EG_PANEL_1_0
 70
     0
 62
     7
  6
CONTINUOUS
  0
LAYER
  2
DXF_EG_PANEL_1_0_MODEL
 70
     0
 62
     7
  6
CONTINUOUS
  0
LAYER
  2
DXF_EG_PANEL_1_0_MODEL_DXF
 70
     0
 62
     7
  6
CONTINUOUS
  0
LAYER
  2
DXF_EG_PANEL_1_0_MODEL_DX0
 70
     0
 62
     7
  6
CONTINUOUS
  0
ENDTAB
  0
TABLE
  2
STYLE
 70
     1
  0
STYLE
  2
STANDARD
 70
     0
 40
0.0
 41
1.0
 50
0.0
 71
     0
 42
2.5
  3
txt
  4

  0
ENDTAB
  0
TABLE
  2
VIEW
 70
     0
  0
ENDTAB
  0
TABLE
  2
UCS
 70
     0
  0
ENDTAB
  0
TABLE
  2
APPID
 70
     2
  0
APPID
  2
ACAD
 70
     0
  0
APPID
  2
ENCORE_SOFTWARE_VIACAD
 70
     0
  0
ENDTAB
  0
TABLE
  2
DIMSTYLE
 70
     1
  0
DIMSTYLE
  2
ISO-25
 70
     0
  3

  4

  5

  6

  7

 40
1.0
 41
2.5
 42
0.625
 43
3.75
 44
1.25
 45
0.0
 46
0.0
 47
0.0
 48
0.0
140
2.5
141
2.5
142
0.0
143
0.03937007874016
144
1.0
145
0.0
146
1.0
147
0.625
 71
     0
 72
     0
 73
     0
 74
     0
 75
     0
 76
     0
 77
     1
 78
     8
170
     0
171
     3
172
     1
173
     0
174
     0
175
     0
176
     0
177
     0
178
     0
  0
ENDTAB
  0
ENDSEC
  0
SECTION
  2
BLOCKS
  0
BLOCK
  8
0
  2
$MODEL_SPACE
 70
     0
 10
0.0
 20
0.0
 30
0.0
  3
$MODEL_SPACE
  1

  0
ENDBLK
  5
21
  8
0
  0
BLOCK
 67
     1
  8
0
  2
$PAPER_SPACE
 70
     0
 10
0.0
 20
0.0
 30
0.0
  3
$PAPER_SPACE
  1

  0
ENDBLK
  5
1D
 67
     1
  8
0
  0
ENDSEC
  0
SECTION
  2
ENTITIES
  0
LINE
  5
7A
  8
DXF_EG_PANEL_1_0_MODEL_DXF
 62
   178
 10
0.0
 20
0.0
 30
0.0
 11
60.6
 21
0.0
 31
0.0
  0
LINE
  5
7B
  8
DXF_EG_PANEL_1_0_MODEL_DXF
 62
   178
 10
0.0
 20
128.5
 30
0.0
 11
60.6
 21
128.5
 31
0.0
  0
LINE
  5
7C
  8
DXF_EG_PANEL_1_0_MODEL_DXF
 62
   178
 10
5.999999999999989
 20
4.599999999999996
 30
0.0
 11
9.000000000000005
 21
4.599999999999996
 31
0.0
  0
LINE
  5
7D
  8
DXF_EG_PANEL_1_0_MODEL_DXF
 62
   178
 10
5.999999999999989
 20
1.400000000000003
 30
0.0
 11
9.000000000000005
 21
1.400000000000003
 31
0.0
  0
ARC
  5
7E
  8
DXF_EG_PANEL_1_0_MODEL_DXF
 62
   178
 10
5.999999999999988
 20
3.0
 30
0.0
 40
1.599999999999996
 50
90.0
 51
270.0
  0
ARC
  5
7F
  8
DXF_EG_PANEL_1_0_MODEL_DXF
 62
   178
 10
9.000000000000004
 20
3.0
 30
0.0
 40
1.599999999999997
 50
270.0
 51
90.0
  0
LINE
  5
80
  8
DXF_EG_PANEL_1_0_MODEL_DXF
 62
   178
 10
5.999999999999996
 20
127.1
 30
0.0
 11
8.999999999999998
 21
127.1
 31
0.0
  0
LINE
  5
81
  8
DXF_EG_PANEL_1_0_MODEL_DXF
 62
   178
 10
5.999999999999996
 20
123.9
 30
0.0
 11
8.999999999999998
 21
123.9
 31
0.0
  0
ARC
  5
82
  8
DXF_EG_PANEL_1_0_MODEL_DXF
 62
   178
 10
6.000000000000005
 20
125.5
 30
0.0
 40
1.600000000000001
 50
90.0
 51
270.0
  0
ARC
  5
83
  8
DXF_EG_PANEL_1_0_MODEL_DXF
 62
   178
 10
8.999999999999996
 20
125.5
 30
0.0
 40
1.600000000000001
 50
270.0
 51
90.0
  0
CIRCLE
  5
84
  8
DXF_EG_PANEL_1_0_MODEL_DX0
 62
    18
 10
30.30000552709822
 20
46.00004529607578
 30
0.0
 40
5.000000000000007
  0
CIRCLE
  5
85
  8
DXF_EG_PANEL_1_0_MODEL_DX0
 62
   178
 10
30.3000055270982
 20
96.00004272115514
 30
0.0
 40
5.000000000000007
  0
LINE
  5
86
  8
DXF_EG_PANEL_1_0_MODEL_DX0
 62
   178
 10
0.0
 20
128.5
 30
0.0
 11
0.0
 21
0.0
 31
0.0
  0
LINE
  5
87
  8
DXF_EG_PANEL_1_0_MODEL_DX0
 62
   178
 10
46.64000000000001
 20
127.1
 30
0.0
 11
49.63999999999999
 21
127.1
 31
0.0
  0
LINE
  5
88
  8
DXF_EG_PANEL_1_0_MODEL_DX0
 62
   178
 10
46.64000000000001
 20
123.9
 30
0.0
 11
49.63999999999999
 21
123.9
 31
0.0
  0
ARC
  5
89
  8
DXF_EG_PANEL_1_0_MODEL_DX0
 62
   178
 10
46.64000000000001
 20
125.5
 30
0.0
 40
1.600000000000001
 50
90.0
 51
270.0
  0
ARC
  5
8A
  8
DXF_EG_PANEL_1_0_MODEL_DX0
 62
   178
 10
49.64
 20
125.5
 30
0.0
 40
1.600000000000001
 50
270.0
 51
90.0
  0
LINE
  5
8B
  8
DXF_EG_PANEL_1_0_MODEL_DX0
 62
   178
 10
46.63999999999999
 20
4.599999999999996
 30
0.0
 11
49.64000000000001
 21
4.599999999999996
 31
0.0
  0
LINE
  5
8C
  8
DXF_EG_PANEL_1_0_MODEL_DX0
 62
   178
 10
46.63999999999999
 20
1.400000000000002
 30
0.0
 11
49.64000000000001
 21
1.400000000000002
 31
0.0
  0
ARC
  5
8D
  8
DXF_EG_PANEL_1_0_MODEL_DX0
 62
   178
 10
46.63999999999999
 20
2.999999999999996
 30
0.0
 40
1.599999999999996
 50
90.0
 51
270.0
  0
ARC
  5
8E
  8
DXF_EG_PANEL_1_0_MODEL_DX0
 62
   178
 10
49.64000000000002
 20
2.999999999999999
 30
0.0
 40
1.599999999999997
 50
270.0
 51
90.0
  0
CIRCLE
  5
8F
  8
DXF_EG_PANEL_1_0_MODEL_DX0
 62
   178
 10
30.30000000000001
 20
108.5
 30
0.0
 40
1.750000000000004
  0
CIRCLE
  5
90
  8
DXF_EG_PANEL_1_0_MODEL_DX0
 62
   178
 10
30.30000000000001
 20
58.49999999999987
 30
0.0
 40
1.750000000000004
  0
LINE
  5
91
  8
DXF_EG_PANEL_1_0_MODEL_DX0
 62
   178
 10
60.6
 20
128.5
 30
0.0
 11
60.6
 21
0.0
 31
0.0
  0
LINE
  5
92
  8
LAYER1
 62
     7
 10
0.0
 20
12.00000000000001
 30
0.0
 11
1.299999999999999
 21
12.00000000000001
 31
0.0
  0
CIRCLE
  5
93
  8
LAYER1
 62
     7
 10
8.299999999999997
 20
17.49999999999997
 30
0.0
 40
3.049999999999998
  0
CIRCLE
  5
94
  8
LAYER1
 62
     7
 10
22.79999999999999
 20
17.49999999999997
 30
0.0
 40
3.050000000000004
  0
CIRCLE
  5
95
  8
LAYER1
 62
     7
 10
37.80000000000004
 20
17.49999999999997
 30
0.0
 40
3.050000000000011
  0
CIRCLE
  5
96
  8
LAYER1
 62
     7
 10
52.30000000000006
 20
17.49999999999997
 30
0.0
 40
3.050000000000006
  0
CIRCLE
  5
97
  8
LAYER1
 62
     7
 10
10.29999999999999
 20
108.5
 30
0.0
 40
3.749999999999996
  0
CIRCLE
  5
98
  8
LAYER1
 62
     7
 10
50.30000000000002
 20
108.5
 30
0.0
 40
3.749999999999995
  0
CIRCLE
  5
99
  8
LAYER1
 62
     7
 10
50.30000000000002
 20
83.49999999999991
 30
0.0
 40
3.749999999999995
  0
CIRCLE
  5
9A
  8
LAYER1
 62
     7
 10
10.29999999999999
 20
83.49999999999991
 30
0.0
 40
3.749999999999992
  0
CIRCLE
  5
9B
  8
LAYER1
 62
     7
 10
10.29999999999999
 20
58.49999999999989
 30
0.0
 40
3.749999999999996
  0
CIRCLE
  5
9C
  8
LAYER1
 62
     7
 10
50.30000000000002
 20
58.49999999999989
 30
0.0
 40
3.749999999999995
  0
CIRCLE
  5
9D
  8
LAYER1
 62
     7
 10
50.30000000000002
 20
33.5
 30
0.0
 40
3.749999999999995
  0
CIRCLE
  5
9E
  8
LAYER1
 62
     7
 10
10.29999999999999
 20
33.5
 30
0.0
 40
3.749999999999996
  0
ENDSEC
  0
EOF
