  0
SECTION
  2
HEADER
  9
$ANGBASE
  50
0.0
  9
$ANGDIR
  70
  1
  9
$MEASUREMENT
  70
0
  0
ENDSEC
  0
SECTION
  2
TABLES
  0
TABLE
  2
LTYPE
  70
1
  0
LTYPE
  2
CONTINUOUS
  70
0
  3
Solid line
  72
65
  73
0
  40
0.0
  0
ENDTAB
  0
TABLE
  2
STYLE
  70
4
  0
STYLE
  2
KICAD
  70
0
  40
0
  41
1
  42
1
  50
0
  71
0
  3
isocp.shx
  0
STYLE
  2
KICADB
  70
0
  40
0
  41
1
  42
1
  50
0
  71
0
  3
isocp.shx
  0
STYLE
  2
KICADI
  70
0
  40
0
  41
1
  42
1
  50
15
  71
0
  3
isocp.shx
  0
STYLE
  2
KICADBI
  70
0
  40
0
  41
1
  42
1
  50
15
  71
0
  3
isocp.shx
  0
ENDTAB
  0
TABLE
  2
LAYER
  70
24
  0
LAYER
  2
BLACK
  70
0
  62
250
  6
CONTINUOUS
  0
LAYER
  2
BLUE
  70
0
  62
5
  6
CONTINUOUS
  0
LAYER
  2
GREEN
  70
0
  62
3
  6
CONTINUOUS
  0
LAYER
  2
CYAN
  70
0
  62
4
  6
CONTINUOUS
  0
LAYER
  2
RED
  70
0
  62
1
  6
CONTINUOUS
  0
LAYER
  2
MAGENTA
  70
0
  62
6
  6
CONTINUOUS
  0
LAYER
  2
BROWN
  70
0
  62
54
  6
CONTINUOUS
  0
LAYER
  2
LIGHTGRAY
  70
0
  62
9
  6
CONTINUOUS
  0
LAYER
  2
DARKGRAY
  70
0
  62
8
  6
CONTINUOUS
  0
LAYER
  2
LIGHTBLUE
  70
0
  62
171
  6
CONTINUOUS
  0
LAYER
  2
LIGHTGREEN
  70
0
  62
91
  6
CONTINUOUS
  0
LAYER
  2
LIGHTCYAN
  70
0
  62
131
  6
CONTINUOUS
  0
LAYER
  2
LIGHTRED
  70
0
  62
11
  6
CONTINUOUS
  0
LAYER
  2
LIGHTMAGENTA
  70
0
  62
221
  6
CONTINUOUS
  0
LAYER
  2
YELLOW
  70
0
  62
2
  6
CONTINUOUS
  0
LAYER
  2
WHITE
  70
0
  62
7
  6
CONTINUOUS
  0
LAYER
  2
DARKDARKGRAY
  70
0
  62
251
  6
CONTINUOUS
  0
LAYER
  2
DARKBLUE
  70
0
  62
178
  6
CONTINUOUS
  0
LAYER
  2
DARKGREEN
  70
0
  62
98
  6
CONTINUOUS
  0
LAYER
  2
DARKCYAN
  70
0
  62
138
  6
CONTINUOUS
  0
LAYER
  2
DARKRED
  70
0
  62
18
  6
CONTINUOUS
  0
LAYER
  2
DARKMAGENTA
  70
0
  62
228
  6
CONTINUOUS
  0
LAYER
  2
DARKBROWN
  70
0
  62
58
  6
CONTINUOUS
  0
LAYER
  2
LIGHTYELLOW
  70
0
  62
51
  6
CONTINUOUS
  0
ENDTAB
  0
ENDSEC
  0
SECTION
  2
ENTITIES
0
LINE
8
BLACK
10
240.211
20
-121.802
11
241.227
21
-121.802
0
LINE
8
BLACK
10
240.211
20
-121.675
11
241.227
21
-121.675
0
ARC
8
BLACK
10
241.227
20
-121.738
40
0.0635
50
270
51
450
0
ARC
8
BLACK
10
240.211
20
-121.738
40
0.0635
50
90
51
270
0
LINE
8
BLACK
10
241.291
20
-123.262
11
241.291
21
-121.738
0
LINE
8
BLACK
10
241.164
20
-123.262
11
241.164
21
-121.738
0
ARC
8
BLACK
10
241.227
20
-121.738
40
0.0635
50
360
51
540
0
ARC
8
BLACK
10
241.227
20
-123.262
40
0.0635
50
180
51
360
0
LINE
8
BLACK
10
240.211
20
-123.326
11
241.227
21
-123.326
0
LINE
8
BLACK
10
240.211
20
-123.199
11
241.227
21
-123.199
0
ARC
8
BLACK
10
241.227
20
-123.262
40
0.0635
50
270
51
450
0
ARC
8
BLACK
10
240.211
20
-123.262
40
0.0635
50
90
51
270
0
LINE
8
BLACK
10
237.773
20
-123.326
11
238.789
21
-123.326
0
LINE
8
BLACK
10
237.773
20
-123.199
11
238.789
21
-123.199
0
ARC
8
BLACK
10
238.789
20
-123.262
40
0.0635
50
270
51
450
0
ARC
8
BLACK
10
237.773
20
-123.262
40
0.0635
50
90
51
270
0
LINE
8
BLACK
10
237.836
20
-123.262
11
237.836
21
-121.738
0
LINE
8
BLACK
10
237.709
20
-123.262
11
237.709
21
-121.738
0
ARC
8
BLACK
10
237.773
20
-121.738
40
0.0635
50
360
51
540
0
ARC
8
BLACK
10
237.773
20
-123.262
40
0.0635
50
180
51
360
0
LINE
8
BLACK
10
237.773
20
-121.802
11
238.789
21
-121.802
0
LINE
8
BLACK
10
237.773
20
-121.675
11
238.789
21
-121.675
0
ARC
8
BLACK
10
238.789
20
-121.738
40
0.0635
50
270
51
450
0
ARC
8
BLACK
10
237.773
20
-121.738
40
0.0635
50
90
51
270
0
LINE
8
BLACK
10
217.211
20
-121.802
11
218.227
21
-121.802
0
LINE
8
BLACK
10
217.211
20
-121.675
11
218.227
21
-121.675
0
ARC
8
BLACK
10
218.227
20
-121.738
40
0.0635
50
270
51
450
0
ARC
8
BLACK
10
217.211
20
-121.738
40
0.0635
50
90
51
270
0
LINE
8
BLACK
10
218.291
20
-123.262
11
218.291
21
-121.738
0
LINE
8
BLACK
10
218.164
20
-123.262
11
218.164
21
-121.738
0
ARC
8
BLACK
10
218.227
20
-121.738
40
0.0635
50
360
51
540
0
ARC
8
BLACK
10
218.227
20
-123.262
40
0.0635
50
180
51
360
0
LINE
8
BLACK
10
217.211
20
-123.326
11
218.227
21
-123.326
0
LINE
8
BLACK
10
217.211
20
-123.199
11
218.227
21
-123.199
0
ARC
8
BLACK
10
218.227
20
-123.262
40
0.0635
50
270
51
450
0
ARC
8
BLACK
10
217.211
20
-123.262
40
0.0635
50
90
51
270
0
LINE
8
BLACK
10
214.773
20
-123.326
11
215.789
21
-123.326
0
LINE
8
BLACK
10
214.773
20
-123.199
11
215.789
21
-123.199
0
ARC
8
BLACK
10
215.789
20
-123.262
40
0.0635
50
270
51
450
0
ARC
8
BLACK
10
214.773
20
-123.262
40
0.0635
50
90
51
270
0
LINE
8
BLACK
10
214.836
20
-123.262
11
214.836
21
-121.738
0
LINE
8
BLACK
10
214.709
20
-123.262
11
214.709
21
-121.738
0
ARC
8
BLACK
10
214.773
20
-121.738
40
0.0635
50
360
51
540
0
ARC
8
BLACK
10
214.773
20
-123.262
40
0.0635
50
180
51
360
0
LINE
8
BLACK
10
214.773
20
-121.802
11
215.789
21
-121.802
0
LINE
8
BLACK
10
214.773
20
-121.675
11
215.789
21
-121.675
0
ARC
8
BLACK
10
215.789
20
-121.738
40
0.0635
50
270
51
450
0
ARC
8
BLACK
10
214.773
20
-121.738
40
0.0635
50
90
51
270
0
CIRCLE
8
BLACK
10
234
20
-186.5
40
2.91548
0
LINE
8
BLACK
10
229
20
-191.575
11
239
21
-191.575
0
LINE
8
BLACK
10
229
20
-191.425
11
239
21
-191.425
0
ARC
8
BLACK
10
239
20
-191.5
40
0.075
50
270
51
450
0
ARC
8
BLACK
10
229
20
-191.5
40
0.075
50
90
51
270
0
LINE
8
BLACK
10
229.075
20
-191.5
11
229.075
21
-180.5
0
LINE
8
BLACK
10
228.925
20
-191.5
11
228.925
21
-180.5
0
ARC
8
BLACK
10
229
20
-180.5
40
0.075
50
360
51
540
0
ARC
8
BLACK
10
229
20
-191.5
40
0.075
50
180
51
360
0
LINE
8
BLACK
10
229
20
-180.575
11
239
21
-180.575
0
LINE
8
BLACK
10
229
20
-180.425
11
239
21
-180.425
0
ARC
8
BLACK
10
239
20
-180.5
40
0.075
50
270
51
450
0
ARC
8
BLACK
10
229
20
-180.5
40
0.075
50
90
51
270
0
LINE
8
BLACK
10
239.075
20
-191.5
11
239.075
21
-180.5
0
LINE
8
BLACK
10
238.925
20
-191.5
11
238.925
21
-180.5
0
ARC
8
BLACK
10
239
20
-180.5
40
0.075
50
360
51
540
0
ARC
8
BLACK
10
239
20
-191.5
40
0.075
50
180
51
360
0
CIRCLE
8
BLACK
10
234
20
-186.5
40
2
0
CIRCLE
8
BLACK
10
213
20
-186.5
40
2.91548
0
LINE
8
BLACK
10
208
20
-191.575
11
218
21
-191.575
0
LINE
8
BLACK
10
208
20
-191.425
11
218
21
-191.425
0
ARC
8
BLACK
10
218
20
-191.5
40
0.075
50
270
51
450
0
ARC
8
BLACK
10
208
20
-191.5
40
0.075
50
90
51
270
0
LINE
8
BLACK
10
208.075
20
-191.5
11
208.075
21
-180.5
0
LINE
8
BLACK
10
207.925
20
-191.5
11
207.925
21
-180.5
0
ARC
8
BLACK
10
208
20
-180.5
40
0.075
50
360
51
540
0
ARC
8
BLACK
10
208
20
-191.5
40
0.075
50
180
51
360
0
LINE
8
BLACK
10
208
20
-180.575
11
218
21
-180.575
0
LINE
8
BLACK
10
208
20
-180.425
11
218
21
-180.425
0
ARC
8
BLACK
10
218
20
-180.5
40
0.075
50
270
51
450
0
ARC
8
BLACK
10
208
20
-180.5
40
0.075
50
90
51
270
0
LINE
8
BLACK
10
218.075
20
-191.5
11
218.075
21
-180.5
0
LINE
8
BLACK
10
217.925
20
-191.5
11
217.925
21
-180.5
0
ARC
8
BLACK
10
218
20
-180.5
40
0.075
50
360
51
540
0
ARC
8
BLACK
10
218
20
-191.5
40
0.075
50
180
51
360
0
CIRCLE
8
BLACK
10
213
20
-186.5
40
2
0
CIRCLE
8
BLACK
10
234
20
-201.5
40
2.91548
0
LINE
8
BLACK
10
229
20
-206.575
11
239
21
-206.575
0
LINE
8
BLACK
10
229
20
-206.425
11
239
21
-206.425
0
ARC
8
BLACK
10
239
20
-206.5
40
0.075
50
270
51
450
0
ARC
8
BLACK
10
229
20
-206.5
40
0.075
50
90
51
270
0
LINE
8
BLACK
10
229.075
20
-206.5
11
229.075
21
-195.5
0
LINE
8
BLACK
10
228.925
20
-206.5
11
228.925
21
-195.5
0
ARC
8
BLACK
10
229
20
-195.5
40
0.075
50
360
51
540
0
ARC
8
BLACK
10
229
20
-206.5
40
0.075
50
180
51
360
0
LINE
8
BLACK
10
229
20
-195.575
11
239
21
-195.575
0
LINE
8
BLACK
10
229
20
-195.425
11
239
21
-195.425
0
ARC
8
BLACK
10
239
20
-195.5
40
0.075
50
270
51
450
0
ARC
8
BLACK
10
229
20
-195.5
40
0.075
50
90
51
270
0
LINE
8
BLACK
10
239.075
20
-206.5
11
239.075
21
-195.5
0
LINE
8
BLACK
10
238.925
20
-206.5
11
238.925
21
-195.5
0
ARC
8
BLACK
10
239
20
-195.5
40
0.075
50
360
51
540
0
ARC
8
BLACK
10
239
20
-206.5
40
0.075
50
180
51
360
0
CIRCLE
8
BLACK
10
234
20
-201.5
40
2
0
CIRCLE
8
BLACK
10
213
20
-201.5
40
2.91548
0
LINE
8
BLACK
10
208
20
-206.575
11
218
21
-206.575
0
LINE
8
BLACK
10
208
20
-206.425
11
218
21
-206.425
0
ARC
8
BLACK
10
218
20
-206.5
40
0.075
50
270
51
450
0
ARC
8
BLACK
10
208
20
-206.5
40
0.075
50
90
51
270
0
LINE
8
BLACK
10
208.075
20
-206.5
11
208.075
21
-195.5
0
LINE
8
BLACK
10
207.925
20
-206.5
11
207.925
21
-195.5
0
ARC
8
BLACK
10
208
20
-195.5
40
0.075
50
360
51
540
0
ARC
8
BLACK
10
208
20
-206.5
40
0.075
50
180
51
360
0
LINE
8
BLACK
10
208
20
-195.575
11
218
21
-195.575
0
LINE
8
BLACK
10
208
20
-195.425
11
218
21
-195.425
0
ARC
8
BLACK
10
218
20
-195.5
40
0.075
50
270
51
450
0
ARC
8
BLACK
10
208
20
-195.5
40
0.075
50
90
51
270
0
LINE
8
BLACK
10
218.075
20
-206.5
11
218.075
21
-195.5
0
LINE
8
BLACK
10
217.925
20
-206.5
11
217.925
21
-195.5
0
ARC
8
BLACK
10
218
20
-195.5
40
0.075
50
360
51
540
0
ARC
8
BLACK
10
218
20
-206.5
40
0.075
50
180
51
360
0
CIRCLE
8
BLACK
10
213
20
-201.5
40
2
0
CIRCLE
8
BLACK
10
213
20
-171.5
40
2.91548
0
LINE
8
BLACK
10
208
20
-176.575
11
218
21
-176.575
0
LINE
8
BLACK
10
208
20
-176.425
11
218
21
-176.425
0
ARC
8
BLACK
10
218
20
-176.5
40
0.075
50
270
51
450
0
ARC
8
BLACK
10
208
20
-176.5
40
0.075
50
90
51
270
0
LINE
8
BLACK
10
208.075
20
-176.5
11
208.075
21
-165.5
0
LINE
8
BLACK
10
207.925
20
-176.5
11
207.925
21
-165.5
0
ARC
8
BLACK
10
208
20
-165.5
40
0.075
50
360
51
540
0
ARC
8
BLACK
10
208
20
-176.5
40
0.075
50
180
51
360
0
LINE
8
BLACK
10
208
20
-165.575
11
218
21
-165.575
0
LINE
8
BLACK
10
208
20
-165.425
11
218
21
-165.425
0
ARC
8
BLACK
10
218
20
-165.5
40
0.075
50
270
51
450
0
ARC
8
BLACK
10
208
20
-165.5
40
0.075
50
90
51
270
0
LINE
8
BLACK
10
218.075
20
-176.5
11
218.075
21
-165.5
0
LINE
8
BLACK
10
217.925
20
-176.5
11
217.925
21
-165.5
0
ARC
8
BLACK
10
218
20
-165.5
40
0.075
50
360
51
540
0
ARC
8
BLACK
10
218
20
-176.5
40
0.075
50
180
51
360
0
CIRCLE
8
BLACK
10
213
20
-171.5
40
2
0
CIRCLE
8
BLACK
10
234
20
-171.5
40
2.91548
0
LINE
8
BLACK
10
229
20
-176.575
11
239
21
-176.575
0
LINE
8
BLACK
10
229
20
-176.425
11
239
21
-176.425
0
ARC
8
BLACK
10
239
20
-176.5
40
0.075
50
270
51
450
0
ARC
8
BLACK
10
229
20
-176.5
40
0.075
50
90
51
270
0
LINE
8
BLACK
10
229.075
20
-176.5
11
229.075
21
-165.5
0
LINE
8
BLACK
10
228.925
20
-176.5
11
228.925
21
-165.5
0
ARC
8
BLACK
10
229
20
-165.5
40
0.075
50
360
51
540
0
ARC
8
BLACK
10
229
20
-176.5
40
0.075
50
180
51
360
0
LINE
8
BLACK
10
229
20
-165.575
11
239
21
-165.575
0
LINE
8
BLACK
10
229
20
-165.425
11
239
21
-165.425
0
ARC
8
BLACK
10
239
20
-165.5
40
0.075
50
270
51
450
0
ARC
8
BLACK
10
229
20
-165.5
40
0.075
50
90
51
270
0
LINE
8
BLACK
10
239.075
20
-176.5
11
239.075
21
-165.5
0
LINE
8
BLACK
10
238.925
20
-176.5
11
238.925
21
-165.5
0
ARC
8
BLACK
10
239
20
-165.5
40
0.075
50
360
51
540
0
ARC
8
BLACK
10
239
20
-176.5
40
0.075
50
180
51
360
0
CIRCLE
8
BLACK
10
234
20
-171.5
40
2
0
LINE
8
BLACK
10
225.715
20
-153.586
11
225.715
21
-148.506
0
LINE
8
BLACK
10
225.334
20
-153.586
11
225.334
21
-148.506
0
ARC
8
BLACK
10
225.524
20
-148.506
40
0.1905
50
360
51
540
0
ARC
8
BLACK
10
225.524
20
-153.586
40
0.1905
50
180
51
360
0
LINE
8
BLACK
10
222.667
20
-153.586
11
222.667
21
-148.506
0
LINE
8
BLACK
10
222.286
20
-153.586
11
222.286
21
-148.506
0
ARC
8
BLACK
10
222.476
20
-148.506
40
0.1905
50
360
51
540
0
ARC
8
BLACK
10
222.476
20
-153.586
40
0.1905
50
180
51
360
0
LINE
8
BLACK
10
225.715
20
-179.494
11
225.715
21
-153.586
0
LINE
8
BLACK
10
225.334
20
-179.494
11
225.334
21
-153.586
0
ARC
8
BLACK
10
225.524
20
-153.586
40
0.1905
50
360
51
540
0
ARC
8
BLACK
10
225.524
20
-179.494
40
0.1905
50
180
51
360
0
LINE
8
BLACK
10
222.667
20
-179.494
11
222.667
21
-153.586
0
LINE
8
BLACK
10
222.286
20
-179.494
11
222.286
21
-153.586
0
ARC
8
BLACK
10
222.476
20
-153.586
40
0.1905
50
360
51
540
0
ARC
8
BLACK
10
222.476
20
-179.494
40
0.1905
50
180
51
360
0
LINE
8
BLACK
10
222.476
20
-148.697
11
225.524
21
-148.697
0
LINE
8
BLACK
10
222.476
20
-148.316
11
225.524
21
-148.316
0
ARC
8
BLACK
10
225.524
20
-148.506
40
0.1905
50
270
51
450
0
ARC
8
BLACK
10
222.476
20
-148.506
40
0.1905
50
90
51
270
0
LINE
8
BLACK
10
222.476
20
-176.891
11
225.524
21
-176.891
0
LINE
8
BLACK
10
222.476
20
-176.51
11
225.524
21
-176.51
0
ARC
8
BLACK
10
225.524
20
-176.7
40
0.1905
50
270
51
450
0
ARC
8
BLACK
10
222.476
20
-176.7
40
0.1905
50
90
51
270
0
LINE
8
BLACK
10
222.476
20
-179.685
11
225.524
21
-179.685
0
LINE
8
BLACK
10
222.476
20
-179.304
11
225.524
21
-179.304
0
ARC
8
BLACK
10
225.524
20
-179.494
40
0.1905
50
270
51
450
0
ARC
8
BLACK
10
222.476
20
-179.494
40
0.1905
50
90
51
270
0
CIRCLE
8
BLACK
10
234
20
-152
40
2.23607
0
LINE
8
BLACK
10
229.191
20
-152
11
229.191
21
-147
0
LINE
8
BLACK
10
228.81
20
-152
11
228.81
21
-147
0
ARC
8
BLACK
10
229
20
-147
40
0.1905
50
360
51
540
0
ARC
8
BLACK
10
229
20
-152
40
0.1905
50
180
51
360
0
LINE
8
BLACK
10
229
20
-147.191
11
239
21
-147.191
0
LINE
8
BLACK
10
229
20
-146.81
11
239
21
-146.81
0
ARC
8
BLACK
10
239
20
-147
40
0.1905
50
270
51
450
0
ARC
8
BLACK
10
229
20
-147
40
0.1905
50
90
51
270
0
LINE
8
BLACK
10
239.191
20
-158
11
239.191
21
-147
0
LINE
8
BLACK
10
238.81
20
-158
11
238.81
21
-147
0
ARC
8
BLACK
10
239
20
-147
40
0.1905
50
360
51
540
0
ARC
8
BLACK
10
239
20
-158
40
0.1905
50
180
51
360
0
LINE
8
BLACK
10
229
20
-158.191
11
239
21
-158.191
0
LINE
8
BLACK
10
229
20
-157.81
11
239
21
-157.81
0
ARC
8
BLACK
10
239
20
-158
40
0.1905
50
270
51
450
0
ARC
8
BLACK
10
229
20
-158
40
0.1905
50
90
51
270
0
LINE
8
BLACK
10
229.191
20
-158
11
229.191
21
-152
0
LINE
8
BLACK
10
228.81
20
-158
11
228.81
21
-152
0
ARC
8
BLACK
10
229
20
-152
40
0.1905
50
360
51
540
0
ARC
8
BLACK
10
229
20
-158
40
0.1905
50
180
51
360
0
CIRCLE
8
BLACK
10
213
20
-112
40
2.23607
0
LINE
8
BLACK
10
208.191
20
-112
11
208.191
21
-107
0
LINE
8
BLACK
10
207.81
20
-112
11
207.81
21
-107
0
ARC
8
BLACK
10
208
20
-107
40
0.1905
50
360
51
540
0
ARC
8
BLACK
10
208
20
-112
40
0.1905
50
180
51
360
0
LINE
8
BLACK
10
208
20
-107.191
11
218
21
-107.191
0
LINE
8
BLACK
10
208
20
-106.81
11
218
21
-106.81
0
ARC
8
BLACK
10
218
20
-107
40
0.1905
50
270
51
450
0
ARC
8
BLACK
10
208
20
-107
40
0.1905
50
90
51
270
0
LINE
8
BLACK
10
218.191
20
-118
11
218.191
21
-107
0
LINE
8
BLACK
10
217.81
20
-118
11
217.81
21
-107
0
ARC
8
BLACK
10
218
20
-107
40
0.1905
50
360
51
540
0
ARC
8
BLACK
10
218
20
-118
40
0.1905
50
180
51
360
0
LINE
8
BLACK
10
208
20
-118.191
11
218
21
-118.191
0
LINE
8
BLACK
10
208
20
-117.81
11
218
21
-117.81
0
ARC
8
BLACK
10
218
20
-118
40
0.1905
50
270
51
450
0
ARC
8
BLACK
10
208
20
-118
40
0.1905
50
90
51
270
0
LINE
8
BLACK
10
208.191
20
-118
11
208.191
21
-112
0
LINE
8
BLACK
10
207.81
20
-118
11
207.81
21
-112
0
ARC
8
BLACK
10
208
20
-112
40
0.1905
50
360
51
540
0
ARC
8
BLACK
10
208
20
-118
40
0.1905
50
180
51
360
0
CIRCLE
8
BLACK
10
213
20
-132
40
2.23607
0
LINE
8
BLACK
10
208.191
20
-132
11
208.191
21
-127
0
LINE
8
BLACK
10
207.81
20
-132
11
207.81
21
-127
0
ARC
8
BLACK
10
208
20
-127
40
0.1905
50
360
51
540
0
ARC
8
BLACK
10
208
20
-132
40
0.1905
50
180
51
360
0
LINE
8
BLACK
10
208
20
-127.191
11
218
21
-127.191
0
LINE
8
BLACK
10
208
20
-126.81
11
218
21
-126.81
0
ARC
8
BLACK
10
218
20
-127
40
0.1905
50
270
51
450
0
ARC
8
BLACK
10
208
20
-127
40
0.1905
50
90
51
270
0
LINE
8
BLACK
10
218.191
20
-138
11
218.191
21
-127
0
LINE
8
BLACK
10
217.81
20
-138
11
217.81
21
-127
0
ARC
8
BLACK
10
218
20
-127
40
0.1905
50
360
51
540
0
ARC
8
BLACK
10
218
20
-138
40
0.1905
50
180
51
360
0
LINE
8
BLACK
10
208
20
-138.191
11
218
21
-138.191
0
LINE
8
BLACK
10
208
20
-137.81
11
218
21
-137.81
0
ARC
8
BLACK
10
218
20
-138
40
0.1905
50
270
51
450
0
ARC
8
BLACK
10
208
20
-138
40
0.1905
50
90
51
270
0
LINE
8
BLACK
10
208.191
20
-138
11
208.191
21
-132
0
LINE
8
BLACK
10
207.81
20
-138
11
207.81
21
-132
0
ARC
8
BLACK
10
208
20
-132
40
0.1905
50
360
51
540
0
ARC
8
BLACK
10
208
20
-138
40
0.1905
50
180
51
360
0
CIRCLE
8
BLACK
10
213
20
-152
40
2.23607
0
LINE
8
BLACK
10
208.191
20
-152
11
208.191
21
-147
0
LINE
8
BLACK
10
207.81
20
-152
11
207.81
21
-147
0
ARC
8
BLACK
10
208
20
-147
40
0.1905
50
360
51
540
0
ARC
8
BLACK
10
208
20
-152
40
0.1905
50
180
51
360
0
LINE
8
BLACK
10
208
20
-147.191
11
218
21
-147.191
0
LINE
8
BLACK
10
208
20
-146.81
11
218
21
-146.81
0
ARC
8
BLACK
10
218
20
-147
40
0.1905
50
270
51
450
0
ARC
8
BLACK
10
208
20
-147
40
0.1905
50
90
51
270
0
LINE
8
BLACK
10
218.191
20
-158
11
218.191
21
-147
0
LINE
8
BLACK
10
217.81
20
-158
11
217.81
21
-147
0
ARC
8
BLACK
10
218
20
-147
40
0.1905
50
360
51
540
0
ARC
8
BLACK
10
218
20
-158
40
0.1905
50
180
51
360
0
LINE
8
BLACK
10
208
20
-158.191
11
218
21
-158.191
0
LINE
8
BLACK
10
208
20
-157.81
11
218
21
-157.81
0
ARC
8
BLACK
10
218
20
-158
40
0.1905
50
270
51
450
0
ARC
8
BLACK
10
208
20
-158
40
0.1905
50
90
51
270
0
LINE
8
BLACK
10
208.191
20
-158
11
208.191
21
-152
0
LINE
8
BLACK
10
207.81
20
-158
11
207.81
21
-152
0
ARC
8
BLACK
10
208
20
-152
40
0.1905
50
360
51
540
0
ARC
8
BLACK
10
208
20
-158
40
0.1905
50
180
51
360
0
CIRCLE
8
BLACK
10
234
20
-132
40
2.23607
0
LINE
8
BLACK
10
229.191
20
-132
11
229.191
21
-127
0
LINE
8
BLACK
10
228.81
20
-132
11
228.81
21
-127
0
ARC
8
BLACK
10
229
20
-127
40
0.1905
50
360
51
540
0
ARC
8
BLACK
10
229
20
-132
40
0.1905
50
180
51
360
0
LINE
8
BLACK
10
229
20
-127.191
11
239
21
-127.191
0
LINE
8
BLACK
10
229
20
-126.81
11
239
21
-126.81
0
ARC
8
BLACK
10
239
20
-127
40
0.1905
50
270
51
450
0
ARC
8
BLACK
10
229
20
-127
40
0.1905
50
90
51
270
0
LINE
8
BLACK
10
239.191
20
-138
11
239.191
21
-127
0
LINE
8
BLACK
10
238.81
20
-138
11
238.81
21
-127
0
ARC
8
BLACK
10
239
20
-127
40
0.1905
50
360
51
540
0
ARC
8
BLACK
10
239
20
-138
40
0.1905
50
180
51
360
0
LINE
8
BLACK
10
229
20
-138.191
11
239
21
-138.191
0
LINE
8
BLACK
10
229
20
-137.81
11
239
21
-137.81
0
ARC
8
BLACK
10
239
20
-138
40
0.1905
50
270
51
450
0
ARC
8
BLACK
10
229
20
-138
40
0.1905
50
90
51
270
0
LINE
8
BLACK
10
229.191
20
-138
11
229.191
21
-132
0
LINE
8
BLACK
10
228.81
20
-138
11
228.81
21
-132
0
ARC
8
BLACK
10
229
20
-132
40
0.1905
50
360
51
540
0
ARC
8
BLACK
10
229
20
-138
40
0.1905
50
180
51
360
0
CIRCLE
8
BLACK
10
234
20
-112
40
2.23607
0
LINE
8
BLACK
10
229.191
20
-112
11
229.191
21
-107
0
LINE
8
BLACK
10
228.81
20
-112
11
228.81
21
-107
0
ARC
8
BLACK
10
229
20
-107
40
0.1905
50
360
51
540
0
ARC
8
BLACK
10
229
20
-112
40
0.1905
50
180
51
360
0
LINE
8
BLACK
10
229
20
-107.191
11
239
21
-107.191
0
LINE
8
BLACK
10
229
20
-106.81
11
239
21
-106.81
0
ARC
8
BLACK
10
239
20
-107
40
0.1905
50
270
51
450
0
ARC
8
BLACK
10
229
20
-107
40
0.1905
50
90
51
270
0
LINE
8
BLACK
10
239.191
20
-118
11
239.191
21
-107
0
LINE
8
BLACK
10
238.81
20
-118
11
238.81
21
-107
0
ARC
8
BLACK
10
239
20
-107
40
0.1905
50
360
51
540
0
ARC
8
BLACK
10
239
20
-118
40
0.1905
50
180
51
360
0
LINE
8
BLACK
10
229
20
-118.191
11
239
21
-118.191
0
LINE
8
BLACK
10
229
20
-117.81
11
239
21
-117.81
0
ARC
8
BLACK
10
239
20
-118
40
0.1905
50
270
51
450
0
ARC
8
BLACK
10
229
20
-118
40
0.1905
50
90
51
270
0
LINE
8
BLACK
10
229.191
20
-118
11
229.191
21
-112
0
LINE
8
BLACK
10
228.81
20
-118
11
228.81
21
-112
0
ARC
8
BLACK
10
229
20
-112
40
0.1905
50
360
51
540
0
ARC
8
BLACK
10
229
20
-118
40
0.1905
50
180
51
360
0
LINE
8
BLACK
10
239.365
20
-124.226
11
239.094
21
-123.839
0
LINE
8
BLACK
10
238.9
20
-124.226
11
238.9
21
-123.413
0
LINE
8
BLACK
10
238.9
20
-123.413
11
239.21
21
-123.413
0
LINE
8
BLACK
10
239.21
20
-123.413
11
239.287
21
-123.452
0
LINE
8
BLACK
10
239.287
20
-123.452
11
239.326
21
-123.491
0
LINE
8
BLACK
10
239.326
20
-123.491
11
239.365
21
-123.568
0
LINE
8
BLACK
10
239.365
20
-123.568
11
239.365
21
-123.684
0
LINE
8
BLACK
10
239.365
20
-123.684
11
239.326
21
-123.762
0
LINE
8
BLACK
10
239.326
20
-123.762
11
239.287
21
-123.8
0
LINE
8
BLACK
10
239.287
20
-123.8
11
239.21
21
-123.839
0
LINE
8
BLACK
10
239.21
20
-123.839
11
238.9
21
-123.839
0
LINE
8
BLACK
10
239.635
20
-123.413
11
240.139
21
-123.413
0
LINE
8
BLACK
10
240.139
20
-123.413
11
239.868
21
-123.723
0
LINE
8
BLACK
10
239.868
20
-123.723
11
239.984
21
-123.723
0
LINE
8
BLACK
10
239.984
20
-123.723
11
240.061
21
-123.762
0
LINE
8
BLACK
10
240.061
20
-123.762
11
240.1
21
-123.8
0
LINE
8
BLACK
10
240.1
20
-123.8
11
240.139
21
-123.878
0
LINE
8
BLACK
10
240.139
20
-123.878
11
240.139
21
-124.071
0
LINE
8
BLACK
10
240.139
20
-124.071
11
240.1
21
-124.149
0
LINE
8
BLACK
10
240.1
20
-124.149
11
240.061
21
-124.187
0
LINE
8
BLACK
10
240.061
20
-124.187
11
239.984
21
-124.226
0
LINE
8
BLACK
10
239.984
20
-124.226
11
239.752
21
-124.226
0
LINE
8
BLACK
10
239.752
20
-124.226
11
239.674
21
-124.187
0
LINE
8
BLACK
10
239.674
20
-124.187
11
239.635
21
-124.149
0
LINE
8
BLACK
10
216.365
20
-124.226
11
216.094
21
-123.839
0
LINE
8
BLACK
10
215.9
20
-124.226
11
215.9
21
-123.413
0
LINE
8
BLACK
10
215.9
20
-123.413
11
216.21
21
-123.413
0
LINE
8
BLACK
10
216.21
20
-123.413
11
216.287
21
-123.452
0
LINE
8
BLACK
10
216.287
20
-123.452
11
216.326
21
-123.491
0
LINE
8
BLACK
10
216.326
20
-123.491
11
216.365
21
-123.568
0
LINE
8
BLACK
10
216.365
20
-123.568
11
216.365
21
-123.684
0
LINE
8
BLACK
10
216.365
20
-123.684
11
216.326
21
-123.762
0
LINE
8
BLACK
10
216.326
20
-123.762
11
216.287
21
-123.8
0
LINE
8
BLACK
10
216.287
20
-123.8
11
216.21
21
-123.839
0
LINE
8
BLACK
10
216.21
20
-123.839
11
215.9
21
-123.839
0
LINE
8
BLACK
10
217.139
20
-124.226
11
216.674
21
-124.226
0
LINE
8
BLACK
10
216.906
20
-124.226
11
216.906
21
-123.413
0
LINE
8
BLACK
10
216.906
20
-123.413
11
216.829
21
-123.529
0
LINE
8
BLACK
10
216.829
20
-123.529
11
216.752
21
-123.607
0
LINE
8
BLACK
10
216.752
20
-123.607
11
216.674
21
-123.645
0
LINE
8
BLACK
10
221.774
20
-174.257
11
221.823
21
-174.305
0
LINE
8
BLACK
10
221.823
20
-174.305
11
221.871
21
-174.45
0
LINE
8
BLACK
10
221.871
20
-174.45
11
221.871
21
-174.547
0
LINE
8
BLACK
10
221.871
20
-174.547
11
221.823
21
-174.692
0
LINE
8
BLACK
10
221.823
20
-174.692
11
221.726
21
-174.789
0
LINE
8
BLACK
10
221.726
20
-174.789
11
221.629
21
-174.837
0
LINE
8
BLACK
10
221.629
20
-174.837
11
221.436
21
-174.886
0
LINE
8
BLACK
10
221.436
20
-174.886
11
221.291
21
-174.886
0
LINE
8
BLACK
10
221.291
20
-174.886
11
221.097
21
-174.837
0
LINE
8
BLACK
10
221.097
20
-174.837
11
221
21
-174.789
0
LINE
8
BLACK
10
221
20
-174.789
11
220.904
21
-174.692
0
LINE
8
BLACK
10
220.904
20
-174.692
11
220.855
21
-174.547
0
LINE
8
BLACK
10
220.855
20
-174.547
11
220.855
21
-174.45
0
LINE
8
BLACK
10
220.855
20
-174.45
11
220.904
21
-174.305
0
LINE
8
BLACK
10
220.904
20
-174.305
11
220.952
21
-174.257
0
LINE
8
BLACK
10
220.855
20
-173.628
11
220.855
21
-173.434
0
LINE
8
BLACK
10
220.855
20
-173.434
11
220.904
21
-173.338
0
LINE
8
BLACK
10
220.904
20
-173.338
11
221
21
-173.241
0
LINE
8
BLACK
10
221
20
-173.241
11
221.194
21
-173.192
0
LINE
8
BLACK
10
221.194
20
-173.192
11
221.533
21
-173.192
0
LINE
8
BLACK
10
221.533
20
-173.192
11
221.726
21
-173.241
0
LINE
8
BLACK
10
221.726
20
-173.241
11
221.823
21
-173.338
0
LINE
8
BLACK
10
221.823
20
-173.338
11
221.871
21
-173.434
0
LINE
8
BLACK
10
221.871
20
-173.434
11
221.871
21
-173.628
0
LINE
8
BLACK
10
221.871
20
-173.628
11
221.823
21
-173.725
0
LINE
8
BLACK
10
221.823
20
-173.725
11
221.726
21
-173.821
0
LINE
8
BLACK
10
221.726
20
-173.821
11
221.533
21
-173.87
0
LINE
8
BLACK
10
221.533
20
-173.87
11
221.194
21
-173.87
0
LINE
8
BLACK
10
221.194
20
-173.87
11
221
21
-173.821
0
LINE
8
BLACK
10
221
20
-173.821
11
220.904
21
-173.725
0
LINE
8
BLACK
10
220.904
20
-173.725
11
220.855
21
-173.628
0
LINE
8
BLACK
10
221.871
20
-172.757
11
220.855
21
-172.757
0
LINE
8
BLACK
10
220.855
20
-172.757
11
221.871
21
-172.176
0
LINE
8
BLACK
10
221.871
20
-172.176
11
220.855
21
-172.176
0
LINE
8
BLACK
10
221.871
20
-171.693
11
220.855
21
-171.693
0
LINE
8
BLACK
10
220.855
20
-171.693
11
221.871
21
-171.112
0
LINE
8
BLACK
10
221.871
20
-171.112
11
220.855
21
-171.112
0
LINE
8
BLACK
10
221.968
20
-170.87
11
221.968
21
-170.096
0
LINE
8
BLACK
10
221.871
20
-169.322
11
221.871
21
-169.902
0
LINE
8
BLACK
10
221.871
20
-169.612
11
220.855
21
-169.612
0
LINE
8
BLACK
10
220.855
20
-169.612
11
221
21
-169.709
0
LINE
8
BLACK
10
221
20
-169.709
11
221.097
21
-169.806
0
LINE
8
BLACK
10
221.097
20
-169.806
11
221.146
21
-169.902
0
LINE
8
BLACK
10
220.952
20
-168.935
11
220.904
21
-168.886
0
LINE
8
BLACK
10
220.904
20
-168.886
11
220.855
21
-168.79
0
LINE
8
BLACK
10
220.855
20
-168.79
11
220.855
21
-168.548
0
LINE
8
BLACK
10
220.855
20
-168.548
11
220.904
21
-168.451
0
LINE
8
BLACK
10
220.904
20
-168.451
11
220.952
21
-168.403
0
LINE
8
BLACK
10
220.952
20
-168.403
11
221.049
21
-168.354
0
LINE
8
BLACK
10
221.049
20
-168.354
11
221.146
21
-168.354
0
LINE
8
BLACK
10
221.146
20
-168.354
11
221.291
21
-168.403
0
LINE
8
BLACK
10
221.291
20
-168.403
11
221.871
21
-168.983
0
LINE
8
BLACK
10
221.871
20
-168.983
11
221.871
21
-168.354
0
LINE
8
BLACK
10
233.262
20
-156.905
11
233.262
21
-155.905
0
LINE
8
BLACK
10
233.262
20
-155.905
11
233.643
21
-155.905
0
LINE
8
BLACK
10
233.643
20
-155.905
11
233.738
21
-155.952
0
LINE
8
BLACK
10
233.738
20
-155.952
11
233.786
21
-156
0
LINE
8
BLACK
10
233.786
20
-156
11
233.833
21
-156.095
0
LINE
8
BLACK
10
233.833
20
-156.095
11
233.833
21
-156.238
0
LINE
8
BLACK
10
233.833
20
-156.238
11
233.786
21
-156.333
0
LINE
8
BLACK
10
233.786
20
-156.333
11
233.738
21
-156.381
0
LINE
8
BLACK
10
233.738
20
-156.381
11
233.643
21
-156.429
0
LINE
8
BLACK
10
233.643
20
-156.429
11
233.262
21
-156.429
0
LINE
8
BLACK
10
234.738
20
-155.905
11
234.262
21
-155.905
0
LINE
8
BLACK
10
234.262
20
-155.905
11
234.214
21
-156.381
0
LINE
8
BLACK
10
234.214
20
-156.381
11
234.262
21
-156.333
0
LINE
8
BLACK
10
234.262
20
-156.333
11
234.357
21
-156.286
0
LINE
8
BLACK
10
234.357
20
-156.286
11
234.595
21
-156.286
0
LINE
8
BLACK
10
234.595
20
-156.286
11
234.69
21
-156.333
0
LINE
8
BLACK
10
234.69
20
-156.333
11
234.738
21
-156.381
0
LINE
8
BLACK
10
234.738
20
-156.381
11
234.786
21
-156.476
0
LINE
8
BLACK
10
234.786
20
-156.476
11
234.786
21
-156.714
0
LINE
8
BLACK
10
234.786
20
-156.714
11
234.738
21
-156.81
0
LINE
8
BLACK
10
234.738
20
-156.81
11
234.69
21
-156.857
0
LINE
8
BLACK
10
234.69
20
-156.857
11
234.595
21
-156.905
0
LINE
8
BLACK
10
234.595
20
-156.905
11
234.357
21
-156.905
0
LINE
8
BLACK
10
234.357
20
-156.905
11
234.262
21
-156.857
0
LINE
8
BLACK
10
234.262
20
-156.857
11
234.214
21
-156.81
0
LINE
8
BLACK
10
233.262
20
-155.405
11
232.786
21
-155.405
0
LINE
8
BLACK
10
232.786
20
-155.405
11
232.738
21
-155.881
0
LINE
8
BLACK
10
232.738
20
-155.881
11
232.786
21
-155.833
0
LINE
8
BLACK
10
232.786
20
-155.833
11
232.881
21
-155.786
0
LINE
8
BLACK
10
232.881
20
-155.786
11
233.119
21
-155.786
0
LINE
8
BLACK
10
233.119
20
-155.786
11
233.214
21
-155.833
0
LINE
8
BLACK
10
233.214
20
-155.833
11
233.262
21
-155.881
0
LINE
8
BLACK
10
233.262
20
-155.881
11
233.31
21
-155.976
0
LINE
8
BLACK
10
233.31
20
-155.976
11
233.31
21
-156.214
0
LINE
8
BLACK
10
233.31
20
-156.214
11
233.262
21
-156.31
0
LINE
8
BLACK
10
233.262
20
-156.31
11
233.214
21
-156.357
0
LINE
8
BLACK
10
233.214
20
-156.357
11
233.119
21
-156.405
0
LINE
8
BLACK
10
233.119
20
-156.405
11
232.881
21
-156.405
0
LINE
8
BLACK
10
232.881
20
-156.405
11
232.786
21
-156.357
0
LINE
8
BLACK
10
232.786
20
-156.357
11
232.738
21
-156.31
0
LINE
8
BLACK
10
233.929
20
-155.405
11
234.024
21
-155.405
0
LINE
8
BLACK
10
234.024
20
-155.405
11
234.119
21
-155.452
0
LINE
8
BLACK
10
234.119
20
-155.452
11
234.167
21
-155.5
0
LINE
8
BLACK
10
234.167
20
-155.5
11
234.214
21
-155.595
0
LINE
8
BLACK
10
234.214
20
-155.595
11
234.262
21
-155.786
0
LINE
8
BLACK
10
234.262
20
-155.786
11
234.262
21
-156.024
0
LINE
8
BLACK
10
234.262
20
-156.024
11
234.214
21
-156.214
0
LINE
8
BLACK
10
234.214
20
-156.214
11
234.167
21
-156.31
0
LINE
8
BLACK
10
234.167
20
-156.31
11
234.119
21
-156.357
0
LINE
8
BLACK
10
234.119
20
-156.357
11
234.024
21
-156.405
0
LINE
8
BLACK
10
234.024
20
-156.405
11
233.929
21
-156.405
0
LINE
8
BLACK
10
233.929
20
-156.405
11
233.833
21
-156.357
0
LINE
8
BLACK
10
233.833
20
-156.357
11
233.786
21
-156.31
0
LINE
8
BLACK
10
233.786
20
-156.31
11
233.738
21
-156.214
0
LINE
8
BLACK
10
233.738
20
-156.214
11
233.69
21
-156.024
0
LINE
8
BLACK
10
233.69
20
-156.024
11
233.69
21
-155.786
0
LINE
8
BLACK
10
233.69
20
-155.786
11
233.738
21
-155.595
0
LINE
8
BLACK
10
233.738
20
-155.595
11
233.786
21
-155.5
0
LINE
8
BLACK
10
233.786
20
-155.5
11
233.833
21
-155.452
0
LINE
8
BLACK
10
233.833
20
-155.452
11
233.929
21
-155.405
0
LINE
8
BLACK
10
234.69
20
-156.405
11
234.69
21
-155.405
0
LINE
8
BLACK
10
235.262
20
-156.405
11
234.833
21
-155.833
0
LINE
8
BLACK
10
235.262
20
-155.405
11
234.69
21
-155.976
0
LINE
8
BLACK
10
212.262
20
-116.405
11
212.262
21
-115.405
0
LINE
8
BLACK
10
212.262
20
-115.405
11
212.643
21
-115.405
0
LINE
8
BLACK
10
212.643
20
-115.405
11
212.738
21
-115.452
0
LINE
8
BLACK
10
212.738
20
-115.452
11
212.786
21
-115.5
0
LINE
8
BLACK
10
212.786
20
-115.5
11
212.833
21
-115.595
0
LINE
8
BLACK
10
212.833
20
-115.595
11
212.833
21
-115.738
0
LINE
8
BLACK
10
212.833
20
-115.738
11
212.786
21
-115.833
0
LINE
8
BLACK
10
212.786
20
-115.833
11
212.738
21
-115.881
0
LINE
8
BLACK
10
212.738
20
-115.881
11
212.643
21
-115.929
0
LINE
8
BLACK
10
212.643
20
-115.929
11
212.262
21
-115.929
0
LINE
8
BLACK
10
213.786
20
-116.405
11
213.214
21
-116.405
0
LINE
8
BLACK
10
213.5
20
-116.405
11
213.5
21
-115.405
0
LINE
8
BLACK
10
213.5
20
-115.405
11
213.405
21
-115.548
0
LINE
8
BLACK
10
213.405
20
-115.548
11
213.31
21
-115.643
0
LINE
8
BLACK
10
213.31
20
-115.643
11
213.214
21
-115.69
0
LINE
8
BLACK
10
212.262
20
-115.405
11
211.786
21
-115.405
0
LINE
8
BLACK
10
211.786
20
-115.405
11
211.738
21
-115.881
0
LINE
8
BLACK
10
211.738
20
-115.881
11
211.786
21
-115.833
0
LINE
8
BLACK
10
211.786
20
-115.833
11
211.881
21
-115.786
0
LINE
8
BLACK
10
211.881
20
-115.786
11
212.119
21
-115.786
0
LINE
8
BLACK
10
212.119
20
-115.786
11
212.214
21
-115.833
0
LINE
8
BLACK
10
212.214
20
-115.833
11
212.262
21
-115.881
0
LINE
8
BLACK
10
212.262
20
-115.881
11
212.31
21
-115.976
0
LINE
8
BLACK
10
212.31
20
-115.976
11
212.31
21
-116.214
0
LINE
8
BLACK
10
212.31
20
-116.214
11
212.262
21
-116.31
0
LINE
8
BLACK
10
212.262
20
-116.31
11
212.214
21
-116.357
0
LINE
8
BLACK
10
212.214
20
-116.357
11
212.119
21
-116.405
0
LINE
8
BLACK
10
212.119
20
-116.405
11
211.881
21
-116.405
0
LINE
8
BLACK
10
211.881
20
-116.405
11
211.786
21
-116.357
0
LINE
8
BLACK
10
211.786
20
-116.357
11
211.738
21
-116.31
0
LINE
8
BLACK
10
212.929
20
-115.405
11
213.024
21
-115.405
0
LINE
8
BLACK
10
213.024
20
-115.405
11
213.119
21
-115.452
0
LINE
8
BLACK
10
213.119
20
-115.452
11
213.167
21
-115.5
0
LINE
8
BLACK
10
213.167
20
-115.5
11
213.214
21
-115.595
0
LINE
8
BLACK
10
213.214
20
-115.595
11
213.262
21
-115.786
0
LINE
8
BLACK
10
213.262
20
-115.786
11
213.262
21
-116.024
0
LINE
8
BLACK
10
213.262
20
-116.024
11
213.214
21
-116.214
0
LINE
8
BLACK
10
213.214
20
-116.214
11
213.167
21
-116.31
0
LINE
8
BLACK
10
213.167
20
-116.31
11
213.119
21
-116.357
0
LINE
8
BLACK
10
213.119
20
-116.357
11
213.024
21
-116.405
0
LINE
8
BLACK
10
213.024
20
-116.405
11
212.929
21
-116.405
0
LINE
8
BLACK
10
212.929
20
-116.405
11
212.833
21
-116.357
0
LINE
8
BLACK
10
212.833
20
-116.357
11
212.786
21
-116.31
0
LINE
8
BLACK
10
212.786
20
-116.31
11
212.738
21
-116.214
0
LINE
8
BLACK
10
212.738
20
-116.214
11
212.69
21
-116.024
0
LINE
8
BLACK
10
212.69
20
-116.024
11
212.69
21
-115.786
0
LINE
8
BLACK
10
212.69
20
-115.786
11
212.738
21
-115.595
0
LINE
8
BLACK
10
212.738
20
-115.595
11
212.786
21
-115.5
0
LINE
8
BLACK
10
212.786
20
-115.5
11
212.833
21
-115.452
0
LINE
8
BLACK
10
212.833
20
-115.452
11
212.929
21
-115.405
0
LINE
8
BLACK
10
213.69
20
-116.405
11
213.69
21
-115.405
0
LINE
8
BLACK
10
214.262
20
-116.405
11
213.833
21
-115.833
0
LINE
8
BLACK
10
214.262
20
-115.405
11
213.69
21
-115.976
0
LINE
8
BLACK
10
212.262
20
-136.905
11
212.262
21
-135.905
0
LINE
8
BLACK
10
212.262
20
-135.905
11
212.643
21
-135.905
0
LINE
8
BLACK
10
212.643
20
-135.905
11
212.738
21
-135.952
0
LINE
8
BLACK
10
212.738
20
-135.952
11
212.786
21
-136
0
LINE
8
BLACK
10
212.786
20
-136
11
212.833
21
-136.095
0
LINE
8
BLACK
10
212.833
20
-136.095
11
212.833
21
-136.238
0
LINE
8
BLACK
10
212.833
20
-136.238
11
212.786
21
-136.333
0
LINE
8
BLACK
10
212.786
20
-136.333
11
212.738
21
-136.381
0
LINE
8
BLACK
10
212.738
20
-136.381
11
212.643
21
-136.429
0
LINE
8
BLACK
10
212.643
20
-136.429
11
212.262
21
-136.429
0
LINE
8
BLACK
10
213.167
20
-135.905
11
213.786
21
-135.905
0
LINE
8
BLACK
10
213.786
20
-135.905
11
213.452
21
-136.286
0
LINE
8
BLACK
10
213.452
20
-136.286
11
213.595
21
-136.286
0
LINE
8
BLACK
10
213.595
20
-136.286
11
213.69
21
-136.333
0
LINE
8
BLACK
10
213.69
20
-136.333
11
213.738
21
-136.381
0
LINE
8
BLACK
10
213.738
20
-136.381
11
213.786
21
-136.476
0
LINE
8
BLACK
10
213.786
20
-136.476
11
213.786
21
-136.714
0
LINE
8
BLACK
10
213.786
20
-136.714
11
213.738
21
-136.81
0
LINE
8
BLACK
10
213.738
20
-136.81
11
213.69
21
-136.857
0
LINE
8
BLACK
10
213.69
20
-136.857
11
213.595
21
-136.905
0
LINE
8
BLACK
10
213.595
20
-136.905
11
213.31
21
-136.905
0
LINE
8
BLACK
10
213.31
20
-136.905
11
213.214
21
-136.857
0
LINE
8
BLACK
10
213.214
20
-136.857
11
213.167
21
-136.81
0
LINE
8
BLACK
10
212.262
20
-135.405
11
211.786
21
-135.405
0
LINE
8
BLACK
10
211.786
20
-135.405
11
211.738
21
-135.881
0
LINE
8
BLACK
10
211.738
20
-135.881
11
211.786
21
-135.833
0
LINE
8
BLACK
10
211.786
20
-135.833
11
211.881
21
-135.786
0
LINE
8
BLACK
10
211.881
20
-135.786
11
212.119
21
-135.786
0
LINE
8
BLACK
10
212.119
20
-135.786
11
212.214
21
-135.833
0
LINE
8
BLACK
10
212.214
20
-135.833
11
212.262
21
-135.881
0
LINE
8
BLACK
10
212.262
20
-135.881
11
212.31
21
-135.976
0
LINE
8
BLACK
10
212.31
20
-135.976
11
212.31
21
-136.214
0
LINE
8
BLACK
10
212.31
20
-136.214
11
212.262
21
-136.31
0
LINE
8
BLACK
10
212.262
20
-136.31
11
212.214
21
-136.357
0
LINE
8
BLACK
10
212.214
20
-136.357
11
212.119
21
-136.405
0
LINE
8
BLACK
10
212.119
20
-136.405
11
211.881
21
-136.405
0
LINE
8
BLACK
10
211.881
20
-136.405
11
211.786
21
-136.357
0
LINE
8
BLACK
10
211.786
20
-136.357
11
211.738
21
-136.31
0
LINE
8
BLACK
10
212.929
20
-135.405
11
213.024
21
-135.405
0
LINE
8
BLACK
10
213.024
20
-135.405
11
213.119
21
-135.452
0
LINE
8
BLACK
10
213.119
20
-135.452
11
213.167
21
-135.5
0
LINE
8
BLACK
10
213.167
20
-135.5
11
213.214
21
-135.595
0
LINE
8
BLACK
10
213.214
20
-135.595
11
213.262
21
-135.786
0
LINE
8
BLACK
10
213.262
20
-135.786
11
213.262
21
-136.024
0
LINE
8
BLACK
10
213.262
20
-136.024
11
213.214
21
-136.214
0
LINE
8
BLACK
10
213.214
20
-136.214
11
213.167
21
-136.31
0
LINE
8
BLACK
10
213.167
20
-136.31
11
213.119
21
-136.357
0
LINE
8
BLACK
10
213.119
20
-136.357
11
213.024
21
-136.405
0
LINE
8
BLACK
10
213.024
20
-136.405
11
212.929
21
-136.405
0
LINE
8
BLACK
10
212.929
20
-136.405
11
212.833
21
-136.357
0
LINE
8
BLACK
10
212.833
20
-136.357
11
212.786
21
-136.31
0
LINE
8
BLACK
10
212.786
20
-136.31
11
212.738
21
-136.214
0
LINE
8
BLACK
10
212.738
20
-136.214
11
212.69
21
-136.024
0
LINE
8
BLACK
10
212.69
20
-136.024
11
212.69
21
-135.786
0
LINE
8
BLACK
10
212.69
20
-135.786
11
212.738
21
-135.595
0
LINE
8
BLACK
10
212.738
20
-135.595
11
212.786
21
-135.5
0
LINE
8
BLACK
10
212.786
20
-135.5
11
212.833
21
-135.452
0
LINE
8
BLACK
10
212.833
20
-135.452
11
212.929
21
-135.405
0
LINE
8
BLACK
10
213.69
20
-136.405
11
213.69
21
-135.405
0
LINE
8
BLACK
10
214.262
20
-136.405
11
213.833
21
-135.833
0
LINE
8
BLACK
10
214.262
20
-135.405
11
213.69
21
-135.976
0
LINE
8
BLACK
10
212.262
20
-156.905
11
212.262
21
-155.905
0
LINE
8
BLACK
10
212.262
20
-155.905
11
212.643
21
-155.905
0
LINE
8
BLACK
10
212.643
20
-155.905
11
212.738
21
-155.952
0
LINE
8
BLACK
10
212.738
20
-155.952
11
212.786
21
-156
0
LINE
8
BLACK
10
212.786
20
-156
11
212.833
21
-156.095
0
LINE
8
BLACK
10
212.833
20
-156.095
11
212.833
21
-156.238
0
LINE
8
BLACK
10
212.833
20
-156.238
11
212.786
21
-156.333
0
LINE
8
BLACK
10
212.786
20
-156.333
11
212.738
21
-156.381
0
LINE
8
BLACK
10
212.738
20
-156.381
11
212.643
21
-156.429
0
LINE
8
BLACK
10
212.643
20
-156.429
11
212.262
21
-156.429
0
LINE
8
BLACK
10
213.214
20
-156
11
213.262
21
-155.952
0
LINE
8
BLACK
10
213.262
20
-155.952
11
213.357
21
-155.905
0
LINE
8
BLACK
10
213.357
20
-155.905
11
213.595
21
-155.905
0
LINE
8
BLACK
10
213.595
20
-155.905
11
213.69
21
-155.952
0
LINE
8
BLACK
10
213.69
20
-155.952
11
213.738
21
-156
0
LINE
8
BLACK
10
213.738
20
-156
11
213.786
21
-156.095
0
LINE
8
BLACK
10
213.786
20
-156.095
11
213.786
21
-156.19
0
LINE
8
BLACK
10
213.786
20
-156.19
11
213.738
21
-156.333
0
LINE
8
BLACK
10
213.738
20
-156.333
11
213.167
21
-156.905
0
LINE
8
BLACK
10
213.167
20
-156.905
11
213.786
21
-156.905
0
LINE
8
BLACK
10
212.262
20
-155.405
11
211.786
21
-155.405
0
LINE
8
BLACK
10
211.786
20
-155.405
11
211.738
21
-155.881
0
LINE
8
BLACK
10
211.738
20
-155.881
11
211.786
21
-155.833
0
LINE
8
BLACK
10
211.786
20
-155.833
11
211.881
21
-155.786
0
LINE
8
BLACK
10
211.881
20
-155.786
11
212.119
21
-155.786
0
LINE
8
BLACK
10
212.119
20
-155.786
11
212.214
21
-155.833
0
LINE
8
BLACK
10
212.214
20
-155.833
11
212.262
21
-155.881
0
LINE
8
BLACK
10
212.262
20
-155.881
11
212.31
21
-155.976
0
LINE
8
BLACK
10
212.31
20
-155.976
11
212.31
21
-156.214
0
LINE
8
BLACK
10
212.31
20
-156.214
11
212.262
21
-156.31
0
LINE
8
BLACK
10
212.262
20
-156.31
11
212.214
21
-156.357
0
LINE
8
BLACK
10
212.214
20
-156.357
11
212.119
21
-156.405
0
LINE
8
BLACK
10
212.119
20
-156.405
11
211.881
21
-156.405
0
LINE
8
BLACK
10
211.881
20
-156.405
11
211.786
21
-156.357
0
LINE
8
BLACK
10
211.786
20
-156.357
11
211.738
21
-156.31
0
LINE
8
BLACK
10
212.929
20
-155.405
11
213.024
21
-155.405
0
LINE
8
BLACK
10
213.024
20
-155.405
11
213.119
21
-155.452
0
LINE
8
BLACK
10
213.119
20
-155.452
11
213.167
21
-155.5
0
LINE
8
BLACK
10
213.167
20
-155.5
11
213.214
21
-155.595
0
LINE
8
BLACK
10
213.214
20
-155.595
11
213.262
21
-155.786
0
LINE
8
BLACK
10
213.262
20
-155.786
11
213.262
21
-156.024
0
LINE
8
BLACK
10
213.262
20
-156.024
11
213.214
21
-156.214
0
LINE
8
BLACK
10
213.214
20
-156.214
11
213.167
21
-156.31
0
LINE
8
BLACK
10
213.167
20
-156.31
11
213.119
21
-156.357
0
LINE
8
BLACK
10
213.119
20
-156.357
11
213.024
21
-156.405
0
LINE
8
BLACK
10
213.024
20
-156.405
11
212.929
21
-156.405
0
LINE
8
BLACK
10
212.929
20
-156.405
11
212.833
21
-156.357
0
LINE
8
BLACK
10
212.833
20
-156.357
11
212.786
21
-156.31
0
LINE
8
BLACK
10
212.786
20
-156.31
11
212.738
21
-156.214
0
LINE
8
BLACK
10
212.738
20
-156.214
11
212.69
21
-156.024
0
LINE
8
BLACK
10
212.69
20
-156.024
11
212.69
21
-155.786
0
LINE
8
BLACK
10
212.69
20
-155.786
11
212.738
21
-155.595
0
LINE
8
BLACK
10
212.738
20
-155.595
11
212.786
21
-155.5
0
LINE
8
BLACK
10
212.786
20
-155.5
11
212.833
21
-155.452
0
LINE
8
BLACK
10
212.833
20
-155.452
11
212.929
21
-155.405
0
LINE
8
BLACK
10
213.69
20
-156.405
11
213.69
21
-155.405
0
LINE
8
BLACK
10
214.262
20
-156.405
11
213.833
21
-155.833
0
LINE
8
BLACK
10
214.262
20
-155.405
11
213.69
21
-155.976
0
LINE
8
BLACK
10
233.262
20
-136.405
11
233.262
21
-135.405
0
LINE
8
BLACK
10
233.262
20
-135.405
11
233.643
21
-135.405
0
LINE
8
BLACK
10
233.643
20
-135.405
11
233.738
21
-135.452
0
LINE
8
BLACK
10
233.738
20
-135.452
11
233.786
21
-135.5
0
LINE
8
BLACK
10
233.786
20
-135.5
11
233.833
21
-135.595
0
LINE
8
BLACK
10
233.833
20
-135.595
11
233.833
21
-135.738
0
LINE
8
BLACK
10
233.833
20
-135.738
11
233.786
21
-135.833
0
LINE
8
BLACK
10
233.786
20
-135.833
11
233.738
21
-135.881
0
LINE
8
BLACK
10
233.738
20
-135.881
11
233.643
21
-135.929
0
LINE
8
BLACK
10
233.643
20
-135.929
11
233.262
21
-135.929
0
LINE
8
BLACK
10
234.69
20
-135.405
11
234.5
21
-135.405
0
LINE
8
BLACK
10
234.5
20
-135.405
11
234.405
21
-135.452
0
LINE
8
BLACK
10
234.405
20
-135.452
11
234.357
21
-135.5
0
LINE
8
BLACK
10
234.357
20
-135.5
11
234.262
21
-135.643
0
LINE
8
BLACK
10
234.262
20
-135.643
11
234.214
21
-135.833
0
LINE
8
BLACK
10
234.214
20
-135.833
11
234.214
21
-136.214
0
LINE
8
BLACK
10
234.214
20
-136.214
11
234.262
21
-136.31
0
LINE
8
BLACK
10
234.262
20
-136.31
11
234.31
21
-136.357
0
LINE
8
BLACK
10
234.31
20
-136.357
11
234.405
21
-136.405
0
LINE
8
BLACK
10
234.405
20
-136.405
11
234.595
21
-136.405
0
LINE
8
BLACK
10
234.595
20
-136.405
11
234.69
21
-136.357
0
LINE
8
BLACK
10
234.69
20
-136.357
11
234.738
21
-136.31
0
LINE
8
BLACK
10
234.738
20
-136.31
11
234.786
21
-136.214
0
LINE
8
BLACK
10
234.786
20
-136.214
11
234.786
21
-135.976
0
LINE
8
BLACK
10
234.786
20
-135.976
11
234.738
21
-135.881
0
LINE
8
BLACK
10
234.738
20
-135.881
11
234.69
21
-135.833
0
LINE
8
BLACK
10
234.69
20
-135.833
11
234.595
21
-135.786
0
LINE
8
BLACK
10
234.595
20
-135.786
11
234.405
21
-135.786
0
LINE
8
BLACK
10
234.405
20
-135.786
11
234.31
21
-135.833
0
LINE
8
BLACK
10
234.31
20
-135.833
11
234.262
21
-135.881
0
LINE
8
BLACK
10
234.262
20
-135.881
11
234.214
21
-135.976
0
LINE
8
BLACK
10
233.262
20
-135.405
11
232.786
21
-135.405
0
LINE
8
BLACK
10
232.786
20
-135.405
11
232.738
21
-135.881
0
LINE
8
BLACK
10
232.738
20
-135.881
11
232.786
21
-135.833
0
LINE
8
BLACK
10
232.786
20
-135.833
11
232.881
21
-135.786
0
LINE
8
BLACK
10
232.881
20
-135.786
11
233.119
21
-135.786
0
LINE
8
BLACK
10
233.119
20
-135.786
11
233.214
21
-135.833
0
LINE
8
BLACK
10
233.214
20
-135.833
11
233.262
21
-135.881
0
LINE
8
BLACK
10
233.262
20
-135.881
11
233.31
21
-135.976
0
LINE
8
BLACK
10
233.31
20
-135.976
11
233.31
21
-136.214
0
LINE
8
BLACK
10
233.31
20
-136.214
11
233.262
21
-136.31
0
LINE
8
BLACK
10
233.262
20
-136.31
11
233.214
21
-136.357
0
LINE
8
BLACK
10
233.214
20
-136.357
11
233.119
21
-136.405
0
LINE
8
BLACK
10
233.119
20
-136.405
11
232.881
21
-136.405
0
LINE
8
BLACK
10
232.881
20
-136.405
11
232.786
21
-136.357
0
LINE
8
BLACK
10
232.786
20
-136.357
11
232.738
21
-136.31
0
LINE
8
BLACK
10
233.929
20
-135.405
11
234.024
21
-135.405
0
LINE
8
BLACK
10
234.024
20
-135.405
11
234.119
21
-135.452
0
LINE
8
BLACK
10
234.119
20
-135.452
11
234.167
21
-135.5
0
LINE
8
BLACK
10
234.167
20
-135.5
11
234.214
21
-135.595
0
LINE
8
BLACK
10
234.214
20
-135.595
11
234.262
21
-135.786
0
LINE
8
BLACK
10
234.262
20
-135.786
11
234.262
21
-136.024
0
LINE
8
BLACK
10
234.262
20
-136.024
11
234.214
21
-136.214
0
LINE
8
BLACK
10
234.214
20
-136.214
11
234.167
21
-136.31
0
LINE
8
BLACK
10
234.167
20
-136.31
11
234.119
21
-136.357
0
LINE
8
BLACK
10
234.119
20
-136.357
11
234.024
21
-136.405
0
LINE
8
BLACK
10
234.024
20
-136.405
11
233.929
21
-136.405
0
LINE
8
BLACK
10
233.929
20
-136.405
11
233.833
21
-136.357
0
LINE
8
BLACK
10
233.833
20
-136.357
11
233.786
21
-136.31
0
LINE
8
BLACK
10
233.786
20
-136.31
11
233.738
21
-136.214
0
LINE
8
BLACK
10
233.738
20
-136.214
11
233.69
21
-136.024
0
LINE
8
BLACK
10
233.69
20
-136.024
11
233.69
21
-135.786
0
LINE
8
BLACK
10
233.69
20
-135.786
11
233.738
21
-135.595
0
LINE
8
BLACK
10
233.738
20
-135.595
11
233.786
21
-135.5
0
LINE
8
BLACK
10
233.786
20
-135.5
11
233.833
21
-135.452
0
LINE
8
BLACK
10
233.833
20
-135.452
11
233.929
21
-135.405
0
LINE
8
BLACK
10
234.69
20
-136.405
11
234.69
21
-135.405
0
LINE
8
BLACK
10
235.262
20
-136.405
11
234.833
21
-135.833
0
LINE
8
BLACK
10
235.262
20
-135.405
11
234.69
21
-135.976
0
LINE
8
BLACK
10
233.262
20
-116.905
11
233.262
21
-115.905
0
LINE
8
BLACK
10
233.262
20
-115.905
11
233.643
21
-115.905
0
LINE
8
BLACK
10
233.643
20
-115.905
11
233.738
21
-115.952
0
LINE
8
BLACK
10
233.738
20
-115.952
11
233.786
21
-116
0
LINE
8
BLACK
10
233.786
20
-116
11
233.833
21
-116.095
0
LINE
8
BLACK
10
233.833
20
-116.095
11
233.833
21
-116.238
0
LINE
8
BLACK
10
233.833
20
-116.238
11
233.786
21
-116.333
0
LINE
8
BLACK
10
233.786
20
-116.333
11
233.738
21
-116.381
0
LINE
8
BLACK
10
233.738
20
-116.381
11
233.643
21
-116.429
0
LINE
8
BLACK
10
233.643
20
-116.429
11
233.262
21
-116.429
0
LINE
8
BLACK
10
234.69
20
-116.238
11
234.69
21
-116.905
0
LINE
8
BLACK
10
234.452
20
-115.857
11
234.214
21
-116.571
0
LINE
8
BLACK
10
234.214
20
-116.571
11
234.833
21
-116.571
0
LINE
8
BLACK
10
233.262
20
-115.405
11
232.786
21
-115.405
0
LINE
8
BLACK
10
232.786
20
-115.405
11
232.738
21
-115.881
0
LINE
8
BLACK
10
232.738
20
-115.881
11
232.786
21
-115.833
0
LINE
8
BLACK
10
232.786
20
-115.833
11
232.881
21
-115.786
0
LINE
8
BLACK
10
232.881
20
-115.786
11
233.119
21
-115.786
0
LINE
8
BLACK
10
233.119
20
-115.786
11
233.214
21
-115.833
0
LINE
8
BLACK
10
233.214
20
-115.833
11
233.262
21
-115.881
0
LINE
8
BLACK
10
233.262
20
-115.881
11
233.31
21
-115.976
0
LINE
8
BLACK
10
233.31
20
-115.976
11
233.31
21
-116.214
0
LINE
8
BLACK
10
233.31
20
-116.214
11
233.262
21
-116.31
0
LINE
8
BLACK
10
233.262
20
-116.31
11
233.214
21
-116.357
0
LINE
8
BLACK
10
233.214
20
-116.357
11
233.119
21
-116.405
0
LINE
8
BLACK
10
233.119
20
-116.405
11
232.881
21
-116.405
0
LINE
8
BLACK
10
232.881
20
-116.405
11
232.786
21
-116.357
0
LINE
8
BLACK
10
232.786
20
-116.357
11
232.738
21
-116.31
0
LINE
8
BLACK
10
233.929
20
-115.405
11
234.024
21
-115.405
0
LINE
8
BLACK
10
234.024
20
-115.405
11
234.119
21
-115.452
0
LINE
8
BLACK
10
234.119
20
-115.452
11
234.167
21
-115.5
0
LINE
8
BLACK
10
234.167
20
-115.5
11
234.214
21
-115.595
0
LINE
8
BLACK
10
234.214
20
-115.595
11
234.262
21
-115.786
0
LINE
8
BLACK
10
234.262
20
-115.786
11
234.262
21
-116.024
0
LINE
8
BLACK
10
234.262
20
-116.024
11
234.214
21
-116.214
0
LINE
8
BLACK
10
234.214
20
-116.214
11
234.167
21
-116.31
0
LINE
8
BLACK
10
234.167
20
-116.31
11
234.119
21
-116.357
0
LINE
8
BLACK
10
234.119
20
-116.357
11
234.024
21
-116.405
0
LINE
8
BLACK
10
234.024
20
-116.405
11
233.929
21
-116.405
0
LINE
8
BLACK
10
233.929
20
-116.405
11
233.833
21
-116.357
0
LINE
8
BLACK
10
233.833
20
-116.357
11
233.786
21
-116.31
0
LINE
8
BLACK
10
233.786
20
-116.31
11
233.738
21
-116.214
0
LINE
8
BLACK
10
233.738
20
-116.214
11
233.69
21
-116.024
0
LINE
8
BLACK
10
233.69
20
-116.024
11
233.69
21
-115.786
0
LINE
8
BLACK
10
233.69
20
-115.786
11
233.738
21
-115.595
0
LINE
8
BLACK
10
233.738
20
-115.595
11
233.786
21
-115.5
0
LINE
8
BLACK
10
233.786
20
-115.5
11
233.833
21
-115.452
0
LINE
8
BLACK
10
233.833
20
-115.452
11
233.929
21
-115.405
0
LINE
8
BLACK
10
234.69
20
-116.405
11
234.69
21
-115.405
0
LINE
8
BLACK
10
235.262
20
-116.405
11
234.833
21
-115.833
0
LINE
8
BLACK
10
235.262
20
-115.405
11
234.69
21
-115.976
  0
ENDSEC
  0
EOF
