  0
SECTION
  2
HEADER
  9
$ANGBASE
  50
0.0
  9
$ANGDIR
  70
  1
  9
$MEASUREMENT
  70
0
  0
ENDSEC
  0
SECTION
  2
TABLES
  0
TABLE
  2
LTYPE
  70
1
  0
LTYPE
  2
CONTINUOUS
  70
0
  3
Solid line
  72
65
  73
0
  40
0.0
  0
ENDTAB
  0
TABLE
  2
STYLE
  70
4
  0
STYLE
  2
KICAD
  70
0
  40
0
  41
1
  42
1
  50
0
  71
0
  3
isocp.shx
  0
STYLE
  2
KICADB
  70
0
  40
0
  41
1
  42
1
  50
0
  71
0
  3
isocp.shx
  0
STYLE
  2
KICADI
  70
0
  40
0
  41
1
  42
1
  50
15
  71
0
  3
isocp.shx
  0
STYLE
  2
KICADBI
  70
0
  40
0
  41
1
  42
1
  50
15
  71
0
  3
isocp.shx
  0
ENDTAB
  0
TABLE
  2
LAYER
  70
24
  0
LAYER
  2
BLACK
  70
0
  62
250
  6
CONTINUOUS
  0
LAYER
  2
BLUE
  70
0
  62
5
  6
CONTINUOUS
  0
LAYER
  2
GREEN
  70
0
  62
3
  6
CONTINUOUS
  0
LAYER
  2
CYAN
  70
0
  62
4
  6
CONTINUOUS
  0
LAYER
  2
RED
  70
0
  62
1
  6
CONTINUOUS
  0
LAYER
  2
MAGENTA
  70
0
  62
6
  6
CONTINUOUS
  0
LAYER
  2
BROWN
  70
0
  62
54
  6
CONTINUOUS
  0
LAYER
  2
LIGHTGRAY
  70
0
  62
9
  6
CONTINUOUS
  0
LAYER
  2
DARKGRAY
  70
0
  62
8
  6
CONTINUOUS
  0
LAYER
  2
LIGHTBLUE
  70
0
  62
171
  6
CONTINUOUS
  0
LAYER
  2
LIGHTGREEN
  70
0
  62
91
  6
CONTINUOUS
  0
LAYER
  2
LIGHTCYAN
  70
0
  62
131
  6
CONTINUOUS
  0
LAYER
  2
LIGHTRED
  70
0
  62
11
  6
CONTINUOUS
  0
LAYER
  2
LIGHTMAGENTA
  70
0
  62
221
  6
CONTINUOUS
  0
LAYER
  2
YELLOW
  70
0
  62
2
  6
CONTINUOUS
  0
LAYER
  2
WHITE
  70
0
  62
7
  6
CONTINUOUS
  0
LAYER
  2
DARKDARKGRAY
  70
0
  62
251
  6
CONTINUOUS
  0
LAYER
  2
DARKBLUE
  70
0
  62
178
  6
CONTINUOUS
  0
LAYER
  2
DARKGREEN
  70
0
  62
98
  6
CONTINUOUS
  0
LAYER
  2
DARKCYAN
  70
0
  62
138
  6
CONTINUOUS
  0
LAYER
  2
DARKRED
  70
0
  62
18
  6
CONTINUOUS
  0
LAYER
  2
DARKMAGENTA
  70
0
  62
228
  6
CONTINUOUS
  0
LAYER
  2
DARKBROWN
  70
0
  62
58
  6
CONTINUOUS
  0
LAYER
  2
LIGHTYELLOW
  70
0
  62
51
  6
CONTINUOUS
  0
ENDTAB
  0
ENDSEC
  0
SECTION
  2
ENTITIES
0
LINE
8
BLACK
10
79.6
20
-39.2
11
79.6
21
-37.2
0
LINE
8
BLACK
10
79.6
20
-37.2
11
77.6
21
-37.2
0
LINE
8
BLACK
10
77.6
20
-37.2
11
77.6
21
-39.2
0
LINE
8
BLACK
10
77.6
20
-39.2
11
79.6
21
-39.2
0
LINE
8
BLACK
10
79.6
20
-48.8
11
79.6
21
-46.8
0
LINE
8
BLACK
10
79.6
20
-46.8
11
77.6
21
-46.8
0
LINE
8
BLACK
10
77.6
20
-46.8
11
77.6
21
-48.8
0
LINE
8
BLACK
10
77.6
20
-48.8
11
79.6
21
-48.8
0
LINE
8
BLACK
10
94.4
20
-48.8
11
94.4
21
-46.8
0
LINE
8
BLACK
10
94.4
20
-46.8
11
92.4
21
-46.8
0
LINE
8
BLACK
10
92.4
20
-46.8
11
92.4
21
-48.8
0
LINE
8
BLACK
10
92.4
20
-48.8
11
94.4
21
-48.8
0
LINE
8
BLACK
10
94.5
20
-39.2
11
94.5
21
-37.2
0
LINE
8
BLACK
10
94.5
20
-37.2
11
92.5
21
-37.2
0
LINE
8
BLACK
10
92.5
20
-37.2
11
92.5
21
-39.2
0
LINE
8
BLACK
10
92.5
20
-39.2
11
94.5
21
-39.2
0
CIRCLE
8
BLACK
10
65
20
-40.7
40
1
0
CIRCLE
8
BLACK
10
68.7
20
-40.7
40
1
0
CIRCLE
8
BLACK
10
103.3
20
-40.7
40
1
0
CIRCLE
8
BLACK
10
107
20
-40.7
40
1
0
LINE
8
BLACK
10
97.5
20
-47
11
96.5
21
-47
0
LINE
8
BLACK
10
97.5
20
-49
11
96.5
21
-49
0
ARC
8
BLACK
10
96.5
20
-48
40
1
50
450
51
630
0
ARC
8
BLACK
10
97.5
20
-48
40
1
50
270
51
450
0
LINE
8
BLACK
10
97.5
20
-37
11
96.5
21
-37
0
LINE
8
BLACK
10
97.5
20
-39
11
96.5
21
-39
0
ARC
8
BLACK
10
96.5
20
-38
40
1
50
450
51
630
0
ARC
8
BLACK
10
97.5
20
-38
40
1
50
270
51
450
0
LINE
8
BLACK
10
75.5
20
-47
11
74.5
21
-47
0
LINE
8
BLACK
10
75.5
20
-49
11
74.5
21
-49
0
ARC
8
BLACK
10
74.5
20
-48
40
1
50
450
51
630
0
ARC
8
BLACK
10
75.5
20
-48
40
1
50
270
51
450
0
LINE
8
BLACK
10
75.5
20
-37
11
74.5
21
-37
0
LINE
8
BLACK
10
75.5
20
-39
11
74.5
21
-39
0
ARC
8
BLACK
10
74.5
20
-38
40
1
50
450
51
630
0
ARC
8
BLACK
10
75.5
20
-38
40
1
50
270
51
450
0
CIRCLE
8
WHITE
10
78.6
20
-38.2
40
0.175
0
CIRCLE
8
WHITE
10
78.6
20
-47.8
40
0.175
0
CIRCLE
8
WHITE
10
93.4
20
-47.8
40
0.175
0
CIRCLE
8
WHITE
10
93.5
20
-38.2
40
0.175
0
CIRCLE
8
WHITE
10
65
20
-40.7
40
0.175
0
CIRCLE
8
WHITE
10
68.7
20
-40.7
40
0.175
0
CIRCLE
8
WHITE
10
103.3
20
-40.7
40
0.175
0
CIRCLE
8
WHITE
10
107
20
-40.7
40
0.175
0
CIRCLE
8
WHITE
10
97
20
-48
40
0.175
0
CIRCLE
8
WHITE
10
97
20
-38
40
0.175
0
CIRCLE
8
WHITE
10
75
20
-48
40
0.175
0
CIRCLE
8
WHITE
10
75
20
-38
40
0.175
  0
ENDSEC
  0
EOF
