<?xml version="1.0" standalone="no"?>
 <!DOCTYPE svg PUBLIC "-//W3C//DTD SVG 1.1//EN" 
 "http://www.w3.org/Graphics/SVG/1.1/DTD/svg11.dtd"> 
<svg xmlns="http://www.w3.org/2000/svg" version="1.1" 
    width="29.7002cm" height="21.0007cm" viewBox="0 0 116930 82680 ">
<title>SVG Picture created as Dual AC dimmer 1.1--brd.svg date 2013/07/24 23:02:54 </title>
  <desc>Picture generated by PCBNEW </desc>
<g style="fill:#000000; fill-opacity:1;stroke:#000000; stroke-opacity:1;
stroke-linecap:round; stroke-linejoin:round; "
 transform="translate(0 0) scale(1 1)">
</g>
<g style="fill:#009F9F; fill-opacity:0.0; 
stroke:#009F9F; stroke-width:150; stroke-opacity:1; 
stroke-linecap:round; stroke-linejoin:round;">
<circle cx="33700" cy="27050" r="50" /> 
<circle cx="33700" cy="20050" r="50" /> 
</g>
<g style="fill:#009F9F; fill-opacity:0.0; 
stroke:#009F9F; stroke-width:120; stroke-opacity:1; 
stroke-linecap:round; stroke-linejoin:round;">
<path d="M23297 25573
L23697 25431
L23297 25288
" />
<path d="M23697 24745
L23697 25088
" />
<path d="M23697 24916
L23097 24916
L23183 24973
L23240 25031
L23269 25088
" />
<path d="M23640 24488
L23669 24459
L23697 24488
L23669 24516
L23640 24488
L23697 24488
" />
<path d="M23697 23888
L23697 24231
" />
<path d="M23697 24059
L23097 24059
L23183 24116
L23240 24173
L23269 24231
" />
<path d="M23097 23059
L23097 23002
L23126 22945
L23155 22916
L23212 22888
L23326 22859
L23469 22859
L23583 22888
L23640 22916
L23669 22945
L23697 23002
L23697 23059
L23669 23116
L23640 23145
L23583 23173
L23469 23202
L23326 23202
L23212 23173
L23155 23145
L23126 23116
L23097 23059
" />
<path d="M23097 22316
L23097 22602
L23383 22630
L23355 22602
L23326 22545
L23326 22402
L23355 22345
L23383 22316
L23440 22288
L23583 22288
L23640 22316
L23669 22345
L23697 22402
L23697 22545
L23669 22602
L23640 22630
" />
<path d="M23069 21602
L23840 22116
" />
<path d="M23697 21088
L23697 21430
" />
<path d="M23697 21259
L23097 21259
L23183 21316
L23240 21373
L23269 21430
" />
<path d="M23097 20888
L23097 20516
L23326 20716
L23326 20630
L23355 20573
L23383 20545
L23440 20516
L23583 20516
L23640 20545
L23669 20573
L23697 20630
L23697 20802
L23669 20859
L23640 20888
" />
</g>
<g style="fill:#009F9F; fill-opacity:0.0; 
stroke:#009F9F; stroke-width:150; stroke-opacity:1; 
stroke-linecap:round; stroke-linejoin:round;">
<path d="M9843 29528
L9843 15748
" />
<path d="M41339 29528
L9843 29528
" />
<path d="M41339 15748
L41339 29528
" />
<path d="M9843 15748
L41339 15748
" />
<circle cx="38405" cy="22353" r="34.6697" /> 
<circle cx="30787" cy="23996" r="39" /> 
<circle cx="30787" cy="17008" r="55.1539" /> 
<path d="M30551 23858
L30551 27165
" />
<path d="M30551 16850
L30551 20118
" />
</g>
<g style="fill:#009F9F; fill-opacity:0.0; 
stroke:#009F9F; stroke-width:60; stroke-opacity:1; 
stroke-linecap:round; stroke-linejoin:round;">
<path d="M36676 29161
L36676 28761
L36771 28761
L36828 28780
L36866 28819
L36885 28857
L36904 28933
L36904 28990
L36885 29066
L36866 29104
L36828 29142
L36771 29161
L36676 29161
" />
<path d="M37057 29047
L37247 29047
" />
<path d="M37019 29161
L37152 28761
L37285 29161
" />
<path d="M37361 28761
L37590 28761
" />
<path d="M37476 29161
L37476 28761
" />
<path d="M37704 29047
L37895 29047
" />
<path d="M37666 29161
L37800 28761
L37933 29161
" />
<path d="M38447 28761
L38523 28761
L38561 28780
L38600 28819
L38619 28895
L38619 29028
L38600 29104
L38561 29142
L38523 29161
L38447 29161
L38409 29142
L38371 29104
L38352 29028
L38352 28895
L38371 28819
L38409 28780
L38447 28761
" />
<path d="M38790 28761
L38790 29085
L38809 29123
L38828 29142
L38866 29161
L38942 29161
L38980 29142
L39000 29123
L39019 29085
L39019 28761
" />
<path d="M39152 28761
L39380 28761
" />
<path d="M39266 29161
L39266 28761
" />
<path d="M39049 15980
L39049 16380
L38953 16380
L38896 16361
L38858 16322
L38839 16284
L38820 16208
L38820 16151
L38839 16075
L38858 16037
L38896 15999
L38953 15980
L39049 15980
" />
<path d="M38668 16094
L38477 16094
" />
<path d="M38706 15980
L38572 16380
L38439 15980
" />
<path d="M38363 16380
L38134 16380
" />
<path d="M38249 15980
L38249 16380
" />
<path d="M38020 16094
L37830 16094
" />
<path d="M38058 15980
L37925 16380
L37792 15980
" />
<path d="M37353 15980
L37353 16380
" />
<path d="M37163 15980
L37163 16380
L36934 15980
L36934 16380
" />
<circle cx="38439" cy="22317" r="31.3209" /> 
</g>
<g style="fill:#009F9F; fill-opacity:0.0; 
stroke:#009F9F; stroke-width:120; stroke-opacity:1; 
stroke-linecap:round; stroke-linejoin:round;">
<path d="M28271 22264
L28728 22264
" />
<path d="M28500 22492
L28500 22035
" />
</g>
<g style="fill:#009F9F; fill-opacity:0.0; 
stroke:#009F9F; stroke-width:60; stroke-opacity:1; 
stroke-linecap:round; stroke-linejoin:round;">
<path d="M24661 23557
L24261 23557
L24261 23461
L24280 23404
L24319 23366
L24357 23347
L24433 23328
L24490 23328
L24566 23347
L24604 23366
L24642 23404
L24661 23461
L24661 23557
" />
<path d="M24623 22928
L24642 22947
L24661 23004
L24661 23042
L24642 23099
L24604 23138
L24566 23157
L24490 23176
L24433 23176
L24357 23157
L24319 23138
L24280 23099
L24261 23042
L24261 23004
L24280 22947
L24300 22928
" />
<path d="M24452 22319
L24471 22261
L24490 22242
L24528 22223
L24585 22223
L24623 22242
L24642 22261
L24661 22300
L24661 22452
L24261 22452
L24261 22319
L24280 22280
L24300 22261
L24338 22242
L24376 22242
L24414 22261
L24433 22280
L24452 22319
L24452 22452
" />
<path d="M24261 22052
L24585 22052
L24623 22033
L24642 22014
L24661 21976
L24661 21900
L24642 21861
L24623 21842
L24585 21823
L24261 21823
" />
<path d="M24642 21652
L24661 21595
L24661 21500
L24642 21461
L24623 21442
L24585 21423
L24547 21423
L24509 21442
L24490 21461
L24471 21500
L24452 21576
L24433 21614
L24414 21633
L24376 21652
L24338 21652
L24300 21633
L24280 21614
L24261 21576
L24261 21480
L24280 21423
" />
</g>
<g style="fill:#009F9F; fill-opacity:0.0; 
stroke:#009F9F; stroke-width:120; stroke-opacity:1; 
stroke-linecap:round; stroke-linejoin:round;">
<path d="M15785 28992
L15500 28992
L15500 28392
" />
<path d="M16100 28392
L16214 28392
L16271 28421
L16328 28478
L16357 28592
L16357 28792
L16328 28907
L16271 28964
L16214 28992
L16100 28992
L16042 28964
L15985 28907
L15957 28792
L15957 28592
L15985 28478
L16042 28421
L16100 28392
" />
<path d="M16585 28821
L16871 28821
" />
<path d="M16528 28992
L16728 28392
L16928 28992
" />
<path d="M17128 28992
L17128 28392
L17271 28392
L17357 28421
L17414 28478
L17442 28535
L17471 28650
L17471 28735
L17442 28850
L17414 28907
L17357 28964
L17271 28992
L17128 28992
" />
<path d="M18385 28678
L18471 28707
L18500 28735
L18528 28792
L18528 28878
L18500 28935
L18471 28964
L18414 28992
L18185 28992
L18185 28392
L18385 28392
L18442 28421
L18471 28450
L18500 28507
L18500 28564
L18471 28621
L18442 28650
L18385 28678
L18185 28678
" />
<path d="M15828 16992
L15542 16992
L15542 16392
" />
<path d="M16142 16392
L16257 16392
L16314 16421
L16371 16478
L16400 16592
L16400 16792
L16371 16907
L16314 16964
L16257 16992
L16142 16992
L16085 16964
L16028 16907
L16000 16792
L16000 16592
L16028 16478
L16085 16421
L16142 16392
" />
<path d="M16628 16821
L16914 16821
" />
<path d="M16571 16992
L16771 16392
L16971 16992
" />
<path d="M17171 16992
L17171 16392
L17314 16392
L17400 16421
L17457 16478
L17485 16535
L17514 16650
L17514 16735
L17485 16850
L17457 16907
L17400 16964
L17314 16992
L17171 16992
" />
<path d="M18200 16821
L18485 16821
" />
<path d="M18142 16992
L18342 16392
L18542 16992
" />
<path d="M10928 20321
L11214 20321
" />
<path d="M10871 20492
L11071 19892
L11271 20492
" />
<path d="M11814 20435
L11785 20464
L11700 20492
L11642 20492
L11557 20464
L11500 20407
L11471 20350
L11442 20235
L11442 20150
L11471 20035
L11500 19978
L11557 19921
L11642 19892
L11700 19892
L11785 19921
L11814 19950
" />
<path d="M12728 20178
L12814 20207
L12842 20235
L12871 20292
L12871 20378
L12842 20435
L12814 20464
L12757 20492
L12528 20492
L12528 19892
L12728 19892
L12785 19921
L12814 19950
L12842 20007
L12842 20064
L12814 20121
L12785 20150
L12728 20178
L12528 20178
" />
<path d="M13128 19892
L13128 20378
L13157 20435
L13185 20464
L13242 20492
L13357 20492
L13414 20464
L13442 20435
L13471 20378
L13471 19892
" />
<path d="M13728 20464
L13814 20492
L13957 20492
L14014 20464
L14042 20435
L14071 20378
L14071 20321
L14042 20264
L14014 20235
L13957 20207
L13842 20178
L13785 20150
L13757 20121
L13728 20064
L13728 20007
L13757 19950
L13785 19921
L13842 19892
L13985 19892
L14071 19921
" />
</g>
<g style="fill:#FFFF00; fill-opacity:0.0; 
stroke:#FFFF00; stroke-width:150; stroke-opacity:1; 
stroke-linecap:round; stroke-linejoin:round;">
<path d="M9843 29528
L9843 15748
" />
<path d="M41339 29528
L9843 29528
" />
<path d="M41339 15748
L41339 29528
" />
<path d="M9843 15748
L41339 15748
" />
</g>
<g style="fill:#009F9F; fill-opacity:0.0; 
stroke:#009F9F; stroke-width:60; stroke-opacity:1; 
stroke-linecap:round; stroke-linejoin:round;">
<path d="M30946 21849
L30931 21864
L30885 21879
L30855 21879
L30809 21864
L30779 21833
L30763 21803
L30748 21742
L30748 21696
L30763 21635
L30779 21605
L30809 21574
L30855 21559
L30885 21559
L30931 21574
L30946 21590
" />
<path d="M31251 21879
L31068 21879
" />
<path d="M31160 21879
L31160 21559
L31129 21605
L31099 21635
L31068 21650
" />
<path d="M11129 17053
L10977 17159
" />
<path d="M11129 17236
L10809 17236
L10809 17114
L10824 17083
L10840 17068
L10870 17053
L10916 17053
L10946 17068
L10961 17083
L10977 17114
L10977 17236
" />
<path d="M10809 16779
L10809 16839
L10824 16870
L10840 16885
L10885 16916
L10946 16931
L11068 16931
L11099 16916
L11114 16900
L11129 16870
L11129 16809
L11114 16779
L11099 16763
L11068 16748
L10992 16748
L10961 16763
L10946 16779
L10931 16809
L10931 16870
L10946 16900
L10961 16916
L10992 16931
" />
<path d="M11129 28303
L10977 28409
" />
<path d="M11129 28486
L10809 28486
L10809 28364
L10824 28333
L10840 28318
L10870 28303
L10916 28303
L10946 28318
L10961 28333
L10977 28364
L10977 28486
" />
<path d="M10809 28013
L10809 28166
L10961 28181
L10946 28166
L10931 28135
L10931 28059
L10946 28029
L10961 28013
L10992 27998
L11068 27998
L11099 28013
L11114 28029
L11129 28059
L11129 28135
L11114 28166
L11099 28181
" />
<path d="M29196 21879
L29090 21727
" />
<path d="M29013 21879
L29013 21559
L29135 21559
L29166 21574
L29181 21590
L29196 21620
L29196 21666
L29181 21696
L29166 21711
L29135 21727
L29013 21727
" />
<path d="M29470 21666
L29470 21879
" />
<path d="M29394 21544
L29318 21772
L29516 21772
" />
<path d="M30946 27879
L30840 27727
" />
<path d="M30763 27879
L30763 27559
L30885 27559
L30916 27574
L30931 27590
L30946 27620
L30946 27666
L30931 27696
L30916 27711
L30885 27727
L30763 27727
" />
<path d="M31053 27559
L31251 27559
L31144 27681
L31190 27681
L31220 27696
L31236 27711
L31251 27742
L31251 27818
L31236 27849
L31220 27864
L31190 27879
L31099 27879
L31068 27864
L31053 27849
" />
<path d="M33946 18879
L33840 18727
" />
<path d="M33763 18879
L33763 18559
L33885 18559
L33916 18574
L33931 18590
L33946 18620
L33946 18666
L33931 18696
L33916 18711
L33885 18727
L33763 18727
" />
<path d="M34068 18590
L34083 18574
L34114 18559
L34190 18559
L34220 18574
L34236 18590
L34251 18620
L34251 18650
L34236 18696
L34053 18879
L34251 18879
" />
<path d="M33946 25879
L33840 25727
" />
<path d="M33763 25879
L33763 25559
L33885 25559
L33916 25574
L33931 25590
L33946 25620
L33946 25666
L33931 25696
L33916 25711
L33885 25727
L33763 25727
" />
<path d="M34251 25879
L34068 25879
" />
<path d="M34160 25879
L34160 25559
L34129 25605
L34099 25635
L34068 25650
" />
<path d="M33963 21329
L33963 21009
L34040 21009
L34085 21024
L34116 21055
L34131 21085
L34146 21146
L34146 21192
L34131 21253
L34116 21283
L34085 21314
L34040 21329
L33963 21329
" />
<path d="M34268 21040
L34283 21024
L34314 21009
L34390 21009
L34420 21024
L34436 21040
L34451 21070
L34451 21100
L34436 21146
L34253 21329
L34451 21329
" />
<path d="M33963 28329
L33963 28009
L34040 28009
L34085 28024
L34116 28055
L34131 28085
L34146 28146
L34146 28192
L34131 28253
L34116 28283
L34085 28314
L34040 28329
L33963 28329
" />
<path d="M34451 28329
L34268 28329
" />
<path d="M34360 28329
L34360 28009
L34329 28055
L34299 28085
L34268 28100
" />
</g>
<g style="fill:#009F9F; fill-opacity:0.0; 
stroke:#009F9F; stroke-width:80; stroke-opacity:1; 
stroke-linecap:round; stroke-linejoin:round;">
<path d="M20095 22661
L20095 22985
L20114 23023
L20133 23042
L20171 23061
L20247 23061
L20285 23042
L20304 23023
L20323 22985
L20323 22661
" />
<path d="M20685 22661
L20609 22661
L20571 22680
L20552 22700
L20514 22757
L20495 22833
L20495 22985
L20514 23023
L20533 23042
L20571 23061
L20647 23061
L20685 23042
L20704 23023
L20723 22985
L20723 22890
L20704 22852
L20685 22833
L20647 22814
L20571 22814
L20533 22833
L20514 22852
L20495 22890
" />
<path d="M20219 25811
L20447 25811
" />
<path d="M20333 26211
L20333 25811
" />
<path d="M20809 26211
L20676 26021
" />
<path d="M20580 26211
L20580 25811
L20733 25811
L20771 25830
L20790 25850
L20809 25888
L20809 25945
L20790 25983
L20771 26002
L20733 26021
L20580 26021
" />
<path d="M20980 26211
L20980 25811
" />
<path d="M21152 26097
L21342 26097
" />
<path d="M21114 26211
L21247 25811
L21380 26211
" />
<path d="M21742 26173
L21723 26192
L21666 26211
L21628 26211
L21571 26192
L21533 26154
L21514 26116
L21495 26040
L21495 25983
L21514 25907
L21533 25869
L21571 25830
L21628 25811
L21666 25811
L21723 25830
L21742 25850
" />
<path d="M20195 16211
L20195 16535
L20214 16573
L20233 16592
L20271 16611
L20347 16611
L20385 16592
L20404 16573
L20423 16535
L20423 16211
" />
<path d="M20576 16211
L20842 16211
L20671 16611
" />
<path d="M20219 19311
L20447 19311
" />
<path d="M20333 19711
L20333 19311
" />
<path d="M20809 19711
L20676 19521
" />
<path d="M20580 19711
L20580 19311
L20733 19311
L20771 19330
L20790 19350
L20809 19388
L20809 19445
L20790 19483
L20771 19502
L20733 19521
L20580 19521
" />
<path d="M20980 19711
L20980 19311
" />
<path d="M21152 19597
L21342 19597
" />
<path d="M21114 19711
L21247 19311
L21380 19711
" />
<path d="M21742 19673
L21723 19692
L21666 19711
L21628 19711
L21571 19692
L21533 19654
L21514 19616
L21495 19540
L21495 19483
L21514 19407
L21533 19369
L21571 19330
L21628 19311
L21666 19311
L21723 19330
L21742 19350
" />
<path d="M25345 28461
L25345 28785
L25364 28823
L25383 28842
L25421 28861
L25497 28861
L25535 28842
L25554 28823
L25573 28785
L25573 28461
" />
<path d="M25935 28595
L25935 28861
" />
<path d="M25840 28442
L25745 28728
L25992 28728
" />
<path d="M25345 16111
L25345 16435
L25364 16473
L25383 16492
L25421 16511
L25497 16511
L25535 16492
L25554 16473
L25573 16435
L25573 16111
" />
<path d="M25954 16111
L25764 16111
L25745 16302
L25764 16283
L25802 16264
L25897 16264
L25935 16283
L25954 16302
L25973 16340
L25973 16435
L25954 16473
L25935 16492
L25897 16511
L25802 16511
L25764 16492
L25745 16473
" />
<path d="M36945 21261
L36945 21585
L36964 21623
L36983 21642
L37021 21661
L37097 21661
L37135 21642
L37154 21623
L37173 21585
L37173 21261
" />
<path d="M37573 21661
L37345 21661
" />
<path d="M37459 21661
L37459 21261
L37421 21319
L37383 21357
L37345 21376
" />
<path d="M32445 23011
L32445 23335
L32464 23373
L32483 23392
L32521 23411
L32597 23411
L32635 23392
L32654 23373
L32673 23335
L32673 23011
" />
<path d="M32845 23050
L32864 23030
L32902 23011
L32997 23011
L33035 23030
L33054 23050
L33073 23088
L33073 23126
L33054 23183
L32826 23411
L33073 23411
" />
<path d="M31945 16011
L31945 16335
L31964 16373
L31983 16392
L32021 16411
L32097 16411
L32135 16392
L32154 16373
L32173 16335
L32173 16011
" />
<path d="M32326 16011
L32573 16011
L32440 16164
L32497 16164
L32535 16183
L32554 16202
L32573 16240
L32573 16335
L32554 16373
L32535 16392
L32497 16411
L32383 16411
L32345 16392
L32326 16373
" />
</g>
<g style="fill:#009F9F; fill-opacity:0.0; 
stroke:#009F9F; stroke-width:60; stroke-opacity:1; 
stroke-linecap:round; stroke-linejoin:round;">
<path d="M39446 21599
L39431 21614
L39385 21629
L39355 21629
L39309 21614
L39279 21583
L39263 21553
L39248 21492
L39248 21446
L39263 21385
L39279 21355
L39309 21324
L39355 21309
L39385 21309
L39431 21324
L39446 21340
" />
<path d="M39568 21340
L39583 21324
L39614 21309
L39690 21309
L39720 21324
L39736 21340
L39751 21370
L39751 21400
L39736 21446
L39553 21629
L39751 21629
" />
<path d="M30946 22499
L30931 22514
L30885 22529
L30855 22529
L30809 22514
L30779 22483
L30763 22453
L30748 22392
L30748 22346
L30763 22285
L30779 22255
L30809 22224
L30855 22209
L30885 22209
L30931 22224
L30946 22240
" />
<path d="M31053 22209
L31251 22209
L31144 22331
L31190 22331
L31220 22346
L31236 22361
L31251 22392
L31251 22468
L31236 22499
L31220 22514
L31190 22529
L31099 22529
L31068 22514
L31053 22499
" />
</g>
<g style="fill:#009F9F; fill-opacity:1.0; 
stroke:#009F9F; stroke-width:1; stroke-opacity:1; 
stroke-linecap:round; stroke-linejoin:round;">
<polyline style="fill-rule:evenodd;"
points="15150,24033
13325,24041
11500,24050
11491,26792
11483,29533
11475,26775
11467,24017
13308,24025
15150,24033
15150,24033
" /> 
<polyline style="fill-rule:evenodd;"
points="14594,25906
14573,26071
14523,26239
14467,26367
14467,26333
14450,26317
14433,26333
14450,26350
14467,26333
14467,26367
14441,26427
14321,26650
14316,26658
14213,26849
14145,27005
14105,27144
14096,27192
14066,27325
14025,27450
13994,27517
13922,27657
13891,27767
13903,27838
13908,27845
13925,27894
13906,27926
13886,27977
13906,28009
13926,28057
13906,28093
13886,28144
13906,28176
13926,28223
13906,28259
13886,28311
13906,28342
13914,28394
13874,28471
13794,28564
13700,28647
13700,28596
13678,28594
13667,28600
13635,28631
13633,28637
13655,28639
13667,28633
13698,28602
13700,28596
13700,28647
13682,28664
13557,28753
13504,28786
13504,27475
13504,27335
13500,27294
13500,27100
13483,27083
13467,27100
13483,27117
13500,27100
13500,27294
13495,27243
13473,27184
13461,27168
13461,27038
13458,27033
13458,26957
13452,26896
13427,26822
13388,26758
13382,26752
13345,26727
13333,26731
13333,26412
13333,26367
13329,26236
13320,26133
13305,26074
13300,26067
13283,26087
13272,26170
13267,26312
13267,26367
13270,26525
13279,26627
13294,26667
13300,26667
13315,26626
13327,26535
13333,26412
13333,26731
13304,26743
13251,26796
13188,26870
13170,26919
13191,26960
13199,26969
13258,27001
13322,27004
13363,26980
13367,26964
13349,26921
13302,26932
13275,26954
13248,26969
13247,26929
13278,26871
13330,26859
13375,26897
13383,26915
13414,26970
13439,26983
13458,26957
13458,27033
13455,27028
13416,27024
13411,27028
13416,27047
13433,27050
13461,27038
13461,27168
13447,27151
13422,27134
13408,27152
13401,27215
13400,27335
13400,27337
13403,27457
13411,27548
13421,27594
13422,27594
13466,27616
13493,27574
13504,27475
13504,28786
13456,28817
13377,28863
13337,28883
13336,28883
13299,28867
13223,28827
13150,28786
13036,28712
12929,28628
12885,28587
12787,28483
13085,28479
13209,28476
13294,28471
13330,28464
13324,28460
13284,28434
13285,28414
13267,28396
13198,28387
13143,28386
13054,28390
13025,28400
13050,28417
13089,28437
13071,28445
13025,28447
12951,28434
12933,28398
12917,28364
12899,28367
12880,28407
12885,28419
12875,28445
12850,28450
12814,28433
12819,28413
12816,28365
12796,28343
12794,28326
12858,28323
12950,28328
13081,28333
13205,28327
13267,28318
13326,28300
13333,28288
13323,28287
13282,28269
13283,28250
13266,28230
13191,28220
13127,28220
13032,28224
12998,28231
13019,28245
13033,28250
13067,28265
13046,28274
12966,28279
12933,28279
12933,28215
12913,28195
12900,28200
12868,28230
12867,28235
12892,28249
12900,28250
12932,28224
12933,28215
12933,28279
12830,28277
12788,28267
12800,28249
12833,28218
12807,28188
12800,28184
12798,28167
12855,28156
12973,28151
13050,28150
13199,28147
13284,28138
13307,28124
13300,28117
13273,28089
13283,28082
13282,28069
13233,28044
13182,28015
13192,27996
13200,27993
13274,27970
13294,27964
13317,27943
13288,27900
13282,27894
13245,27847
13258,27815
13277,27800
13316,27752
13291,27713
13206,27684
13062,27667
13029,27665
12905,27659
12807,27655
12754,27652
12751,27652
12740,27633
12753,27617
12799,27601
12895,27588
13023,27579
13078,27578
13370,27572
13360,27361
13352,27252
13339,27176
13325,27150
13305,27178
13298,27225
13294,27275
13282,27267
13259,27217
13233,27148
13226,27114
13203,27096
13183,27094
13142,27105
13139,27114
13139,27157
13135,27238
13135,27250
13126,27319
13112,27322
13106,27310
13097,27254
13094,27148
13094,27012
13097,26927
13104,26798
13112,26708
13120,26668
13125,26675
13150,26739
13185,26740
13215,26692
13227,26622
13232,26508
13230,26373
13223,26236
13211,26119
13195,26044
13192,26037
13176,25991
13208,25987
13229,25992
13285,25995
13300,25981
13324,25964
13342,25968
13362,26000
13375,26081
13382,26218
13383,26339
13386,26514
13395,26630
13410,26692
13425,26708
13466,26692
13495,26645
13511,26621
13520,26654
13525,26748
13525,26800
13530,26961
13542,27144
13555,27283
13583,27533
13747,27533
13850,27529
13911,27507
13954,27458
13970,27433
14011,27329
14031,27213
14031,27207
14049,27109
14093,26975
14155,26827
14225,26686
14294,26572
14329,26528
14370,26472
14376,26437
14380,26418
14391,26417
14421,26391
14422,26375
14430,26322
14453,26229
14479,26138
14529,25873
14521,25603
14458,25343
14343,25105
14239,24967
14150,24867
14260,24966
14389,25120
14493,25319
14565,25542
14592,25728
14594,25906
14594,25906
" /> 
<polyline style="fill-rule:evenodd;"
points="13102,27995
13097,28008
13067,28022
13010,28049
13012,28067
13050,28084
13069,28101
13028,28110
12933,28114
12933,28048
12913,28028
12900,28033
12868,28063
12867,28068
12892,28083
12900,28083
12932,28058
12933,28048
12933,28114
12830,28111
12788,28101
12800,28083
12833,28051
12807,28021
12800,28017
12791,27998
12840,27988
12950,27986
13055,27988
13102,27995
13102,27995
" /> 
<polyline style="fill-rule:evenodd;"
points="13085,27835
13054,27855
13014,27888
13032,27916
13038,27920
13040,27938
12979,27948
12921,27949
12826,27947
12786,27935
12791,27911
12797,27903
12818,27860
12793,27839
12786,27825
12824,27819
12877,27830
12879,27867
12880,27909
12896,27917
12929,27890
12933,27867
12962,27827
13025,27818
13085,27821
13085,27835
13085,27835
" /> 
<polyline style="fill-rule:evenodd;"
points="12725,27581
12720,27583
12690,27560
12683,27550
12675,27519
12679,27517
12710,27540
12717,27550
12725,27581
12725,27581
" /> 
<polyline style="fill-rule:evenodd;"
points="12667,27467
12650,27483
12633,27467
12650,27450
12667,27467
12667,27467
" /> 
<polyline style="fill-rule:evenodd;"
points="12659,27367
12655,27372
12636,27367
12633,27350
12645,27322
12655,27328
12659,27367
12659,27367
" /> 
<polyline style="fill-rule:evenodd;"
points="13093,26567
13089,26572
13069,26567
13067,26550
13079,26522
13089,26528
13093,26567
13093,26567
" /> 
<polyline style="fill-rule:evenodd;"
points="12300,26533
12283,26550
12267,26533
12283,26517
12300,26533
12300,26533
" /> 
<polyline style="fill-rule:evenodd;"
points="13630,26183
13622,26243
13601,26339
13586,26400
13560,26483
13542,26522
13537,26517
13544,26457
13565,26360
13581,26300
13607,26217
13624,26177
13630,26183
13630,26183
" /> 
<polyline style="fill-rule:evenodd;"
points="13060,26462
13057,26470
13041,26450
13015,26384
13003,26347
12981,26260
12973,26205
12976,26196
12992,26216
13018,26282
13030,26320
13052,26406
13060,26462
13060,26462
" /> 
<polyline style="fill-rule:evenodd;"
points="12962,26132
12961,26133
12945,26110
12914,26038
12874,25931
12863,25897
12826,25778
12805,25685
12803,25634
12806,25630
12828,25631
12827,25639
12833,25682
12857,25770
12893,25884
12896,25894
12932,26006
12956,26091
12962,26132
12962,26132
" /> 
<polyline style="fill-rule:evenodd;"
points="13661,26070
13656,26089
13641,26102
13636,26069
13642,26026
13653,26026
13661,26070
13661,26070
" /> 
<polyline style="fill-rule:evenodd;"
points="13695,25937
13689,25956
13674,25969
13669,25936
13675,25893
13687,25892
13695,25937
13695,25937
" /> 
<polyline style="fill-rule:evenodd;"
points="13762,25667
13748,25754
13733,25800
13711,25847
13705,25834
13705,25800
13718,25712
13733,25667
13755,25619
13762,25632
13762,25667
13762,25667
" /> 
<polyline style="fill-rule:evenodd;"
points="12900,25600
12883,25617
12867,25600
12883,25583
12900,25600
12900,25600
" /> 
<polyline style="fill-rule:evenodd;"
points="12967,25567
12950,25583
12933,25567
12950,25550
12967,25567
12967,25567
" /> 
<polyline style="fill-rule:evenodd;"
points="13300,25567
13283,25583
13267,25567
13283,25550
13300,25567
13300,25567
" /> 
<polyline style="fill-rule:evenodd;"
points="12226,25401
12222,25405
12202,25401
12200,25383
12212,25356
12222,25361
12226,25401
12226,25401
" /> 
<polyline style="fill-rule:evenodd;"
points="13809,24671
13800,24671
13729,24675
13692,24688
13651,24701
13653,24672
13640,24631
13564,24606
13425,24598
13263,24603
12975,24647
12724,24747
12512,24901
12339,25108
12333,25117
12264,25220
12223,25272
12204,25278
12200,25255
12218,25213
12265,25140
12296,25097
12491,24874
12705,24714
12946,24611
13221,24562
13300,24558
13456,24556
13566,24565
13654,24588
13717,24616
13784,24653
13809,24671
13809,24671
" /> 
<polyline style="fill-rule:evenodd;"
points="14067,24801
14056,24815
14016,24792
13981,24765
13938,24729
13950,24730
13992,24749
14048,24782
14067,24801
14067,24801
" /> 
<polyline style="fill-rule:evenodd;"
points="13222,24671
13195,24709
13161,24717
13110,24703
13100,24687
13127,24655
13161,24642
13212,24647
13222,24671
13222,24671
" /> 
<polyline style="fill-rule:evenodd;"
points="13355,24694
13351,24714
13333,24717
13306,24704
13311,24694
13351,24690
13355,24694
13355,24694
" /> 
<polyline style="fill-rule:evenodd;"
points="13455,24694
13451,24714
13433,24717
13406,24704
13411,24694
13451,24690
13455,24694
13455,24694
" /> 
<polyline style="fill-rule:evenodd;"
points="13533,24700
13517,24717
13500,24700
13517,24683
13533,24700
13533,24700
" /> 
<polyline style="fill-rule:evenodd;"
points="13900,24700
13883,24717
13867,24700
13883,24683
13900,24700
13900,24700
" /> 
</g>
<g style="fill:#009F9F; fill-opacity:1.0; 
stroke:#009F9F; stroke-width:50; stroke-opacity:1; 
stroke-linecap:round; stroke-linejoin:round;">
<path d="M30720 21300
L30320 21300
" />
<path d="M30320 21300
L30320 20700
" />
<path d="M30320 20700
L30720 20700
" />
<path d="M31280 20700
L31680 20700
" />
<path d="M31680 20700
L31680 21300
" />
<path d="M31680 21300
L31280 21300
" />
<path d="M11450 16720
L11450 16320
" />
<path d="M11450 16320
L12050 16320
" />
<path d="M12050 16320
L12050 16720
" />
<path d="M12050 17280
L12050 17680
" />
<path d="M12050 17680
L11450 17680
" />
<path d="M11450 17680
L11450 17280
" />
<path d="M12050 28530
L12050 28930
" />
<path d="M12050 28930
L11450 28930
" />
<path d="M11450 28930
L11450 28530
" />
<path d="M11450 27970
L11450 27570
" />
<path d="M11450 27570
L12050 27570
" />
<path d="M12050 27570
L12050 27970
" />
<path d="M29530 20700
L29930 20700
" />
<path d="M29930 20700
L29930 21300
" />
<path d="M29930 21300
L29530 21300
" />
<path d="M28970 21300
L28570 21300
" />
<path d="M28570 21300
L28570 20700
" />
<path d="M28570 20700
L28970 20700
" />
<path d="M31280 28200
L31680 28200
" />
<path d="M31680 28200
L31680 28800
" />
<path d="M31680 28800
L31280 28800
" />
<path d="M30720 28800
L30320 28800
" />
<path d="M30320 28800
L30320 28200
" />
<path d="M30320 28200
L30720 28200
" />
<path d="M34280 19200
L34680 19200
" />
<path d="M34680 19200
L34680 19800
" />
<path d="M34680 19800
L34280 19800
" />
<path d="M33720 19800
L33320 19800
" />
<path d="M33320 19800
L33320 19200
" />
<path d="M33320 19200
L33720 19200
" />
<path d="M34280 26200
L34680 26200
" />
<path d="M34680 26200
L34680 26800
" />
<path d="M34680 26800
L34280 26800
" />
<path d="M33720 26800
L33320 26800
" />
<path d="M33320 26800
L33320 26200
" />
<path d="M33320 26200
L33720 26200
" />
</g>
<g style="fill:#009F9F; fill-opacity:1.0; 
stroke:#009F9F; stroke-width:26; stroke-opacity:1; 
stroke-linecap:round; stroke-linejoin:round;">
<path d="M33804 20382
L33804 20254
" />
<path d="M33804 20254
L33607 20254
" />
<path d="M33607 20382
L33607 20254
" />
<path d="M33804 20382
L33607 20382
" />
<path d="M33804 20627
L33804 20568
" />
<path d="M33804 20568
L33705 20568
" />
<path d="M33705 20627
L33705 20568
" />
<path d="M33804 20627
L33705 20627
" />
<path d="M33804 20432
L33804 20373
" />
<path d="M33804 20373
L33705 20373
" />
<path d="M33705 20432
L33705 20373
" />
<path d="M33804 20432
L33705 20432
" />
<path d="M33804 20578
L33804 20422
" />
<path d="M33804 20422
L33735 20422
" />
<path d="M33735 20578
L33735 20422
" />
<path d="M33804 20578
L33735 20578
" />
<path d="M34393 20382
L34393 20254
" />
<path d="M34393 20254
L34196 20254
" />
<path d="M34196 20382
L34196 20254
" />
<path d="M34393 20382
L34196 20382
" />
<path d="M34393 20746
L34393 20618
" />
<path d="M34393 20618
L34196 20618
" />
<path d="M34196 20746
L34196 20618
" />
<path d="M34393 20746
L34196 20746
" />
<path d="M34295 20432
L34295 20373
" />
<path d="M34295 20373
L34196 20373
" />
<path d="M34196 20432
L34196 20373
" />
<path d="M34295 20432
L34196 20432
" />
<path d="M34295 20627
L34295 20568
" />
<path d="M34295 20568
L34196 20568
" />
<path d="M34196 20627
L34196 20568
" />
<path d="M34295 20627
L34196 20627
" />
<path d="M34265 20578
L34265 20422
" />
<path d="M34265 20422
L34196 20422
" />
<path d="M34196 20578
L34196 20422
" />
<path d="M34265 20578
L34196 20578
" />
<path d="M34000 20539
L34000 20461
" />
<path d="M34000 20461
L33922 20461
" />
<path d="M33922 20539
L33922 20461
" />
<path d="M34000 20539
L33922 20539
" />
<path d="M33804 20736
L33804 20618
" />
<path d="M33804 20618
L33686 20618
" />
<path d="M33686 20736
L33686 20618
" />
<path d="M33804 20736
L33686 20736
" />
<path d="M33636 20746
L33636 20657
" />
<path d="M33636 20657
L33607 20657
" />
<path d="M33607 20746
L33607 20657
" />
<path d="M33636 20746
L33607 20746
" />
</g>
<g style="fill:#009F9F; fill-opacity:1.0; 
stroke:#009F9F; stroke-width:40; stroke-opacity:1; 
stroke-linecap:round; stroke-linejoin:round;">
<path d="M33794 20274
L34206 20274
" />
<path d="M34196 20726
L33636 20726
" />
</g>
<g style="fill:#009F9F; fill-opacity:0.0; 
stroke:#009F9F; stroke-width:20; stroke-opacity:1; 
stroke-linecap:round; stroke-linejoin:round;">
<circle cx="33666" cy="20677" r="28.2843" /> 
</g>
<g style="fill:#009F9F; fill-opacity:0.0; 
stroke:#009F9F; stroke-width:40; stroke-opacity:1; 
stroke-linecap:round; stroke-linejoin:round;">
<path d="M33607 20637 A137 137 0.0 0 0 33607 20363 " />
<path d="M34393 20363 A137 137 0.0 0 0 34393 20637 " />
</g>
<g style="fill:#009F9F; fill-opacity:0.0; 
stroke:#009F9F; stroke-width:26; stroke-opacity:1; 
stroke-linecap:round; stroke-linejoin:round;">
<path d="M33804 27382
L33804 27254
" />
<path d="M33804 27254
L33607 27254
" />
<path d="M33607 27382
L33607 27254
" />
<path d="M33804 27382
L33607 27382
" />
<path d="M33804 27627
L33804 27568
" />
<path d="M33804 27568
L33705 27568
" />
<path d="M33705 27627
L33705 27568
" />
<path d="M33804 27627
L33705 27627
" />
<path d="M33804 27432
L33804 27373
" />
<path d="M33804 27373
L33705 27373
" />
<path d="M33705 27432
L33705 27373
" />
<path d="M33804 27432
L33705 27432
" />
<path d="M33804 27578
L33804 27422
" />
<path d="M33804 27422
L33735 27422
" />
<path d="M33735 27578
L33735 27422
" />
<path d="M33804 27578
L33735 27578
" />
<path d="M34393 27382
L34393 27254
" />
<path d="M34393 27254
L34196 27254
" />
<path d="M34196 27382
L34196 27254
" />
<path d="M34393 27382
L34196 27382
" />
<path d="M34393 27746
L34393 27618
" />
<path d="M34393 27618
L34196 27618
" />
<path d="M34196 27746
L34196 27618
" />
<path d="M34393 27746
L34196 27746
" />
<path d="M34295 27432
L34295 27373
" />
<path d="M34295 27373
L34196 27373
" />
<path d="M34196 27432
L34196 27373
" />
<path d="M34295 27432
L34196 27432
" />
<path d="M34295 27627
L34295 27568
" />
<path d="M34295 27568
L34196 27568
" />
<path d="M34196 27627
L34196 27568
" />
<path d="M34295 27627
L34196 27627
" />
<path d="M34265 27578
L34265 27422
" />
<path d="M34265 27422
L34196 27422
" />
<path d="M34196 27578
L34196 27422
" />
<path d="M34265 27578
L34196 27578
" />
<path d="M34000 27539
L34000 27461
" />
<path d="M34000 27461
L33922 27461
" />
<path d="M33922 27539
L33922 27461
" />
<path d="M34000 27539
L33922 27539
" />
<path d="M33804 27736
L33804 27618
" />
<path d="M33804 27618
L33686 27618
" />
<path d="M33686 27736
L33686 27618
" />
<path d="M33804 27736
L33686 27736
" />
<path d="M33636 27746
L33636 27657
" />
<path d="M33636 27657
L33607 27657
" />
<path d="M33607 27746
L33607 27657
" />
<path d="M33636 27746
L33607 27746
" />
</g>
<g style="fill:#009F9F; fill-opacity:0.0; 
stroke:#009F9F; stroke-width:40; stroke-opacity:1; 
stroke-linecap:round; stroke-linejoin:round;">
<path d="M33794 27274
L34206 27274
" />
<path d="M34196 27726
L33636 27726
" />
</g>
<g style="fill:#009F9F; fill-opacity:0.0; 
stroke:#009F9F; stroke-width:20; stroke-opacity:1; 
stroke-linecap:round; stroke-linejoin:round;">
<circle cx="33666" cy="27677" r="28.2843" /> 
</g>
<g style="fill:#009F9F; fill-opacity:0.0; 
stroke:#009F9F; stroke-width:40; stroke-opacity:1; 
stroke-linecap:round; stroke-linejoin:round;">
<path d="M33607 27637 A137 137 0.0 0 0 33607 27363 " />
<path d="M34393 27363 A137 137 0.0 0 0 34393 27637 " />
</g>
<g style="fill:#009F9F; fill-opacity:0.0; 
stroke:#009F9F; stroke-width:50; stroke-opacity:1; 
stroke-linecap:round; stroke-linejoin:round;">
<path d="M21550 26400
L21550 27650
" />
<path d="M21550 27650
L22250 27650
" />
<path d="M22250 27650
L22250 26400
" />
<path d="M19750 26400
L19750 27650
" />
<path d="M19750 27650
L20450 27650
" />
<path d="M20450 27650
L20450 26400
" />
<path d="M22350 24000
L22350 26400
" />
<path d="M22350 26400
L19650 26400
" />
<path d="M19650 26400
L19650 23300
" />
<path d="M19650 23250
L22350 23250
" />
<path d="M22350 23300
L22350 24000
" />
<path d="M21550 19900
L21550 21150
" />
<path d="M21550 21150
L22250 21150
" />
<path d="M22250 21150
L22250 19900
" />
<path d="M19750 19900
L19750 21150
" />
<path d="M19750 21150
L20450 21150
" />
<path d="M20450 21150
L20450 19900
" />
<path d="M22350 17500
L22350 19900
" />
<path d="M22350 19900
L19650 19900
" />
<path d="M19650 19900
L19650 16800
" />
<path d="M19650 16750
L22350 16750
" />
<path d="M22350 16800
L22350 17500
" />
</g>
<g style="fill:#009F9F; fill-opacity:0.0; 
stroke:#009F9F; stroke-width:150; stroke-opacity:1; 
stroke-linecap:round; stroke-linejoin:round;">
<path d="M25319 24728
L27681 24728
" />
<path d="M25319 28272
L27681 28272
" />
<path d="M27681 28272
L27681 24728
" />
<path d="M25319 28272
L25319 24728
" />
<circle cx="27091" cy="27681" r="278.6" /> 
<path d="M25319 16728
L27681 16728
" />
<path d="M25319 20272
L27681 20272
" />
<path d="M27681 20272
L27681 16728
" />
<path d="M25319 20272
L25319 16728
" />
<circle cx="27091" cy="19681" r="278.6" /> 
</g>
<g style="fill:#009F9F; fill-opacity:0.0; 
stroke:#009F9F; stroke-width:26; stroke-opacity:1; 
stroke-linecap:round; stroke-linejoin:round;">
<path d="M38472 21949
L38275 21949
" />
<path d="M38275 21949
L38275 22186
" />
<path d="M38472 22186
L38275 22186
" />
<path d="M38472 21949
L38472 22186
" />
<path d="M38098 21949
L37902 21949
" />
<path d="M37902 21949
L37902 22186
" />
<path d="M38098 22186
L37902 22186
" />
<path d="M38098 21949
L38098 22186
" />
<path d="M37725 21949
L37528 21949
" />
<path d="M37528 21949
L37528 22186
" />
<path d="M37725 22186
L37528 22186
" />
<path d="M37725 21949
L37725 22186
" />
<path d="M37725 22814
L37528 22814
" />
<path d="M37528 22814
L37528 23051
" />
<path d="M37725 23051
L37528 23051
" />
<path d="M37725 22814
L37725 23051
" />
<path d="M38098 22814
L37902 22814
" />
<path d="M37902 22814
L37902 23051
" />
<path d="M38098 23051
L37902 23051
" />
<path d="M38098 22814
L38098 23051
" />
<path d="M38472 22814
L38275 22814
" />
<path d="M38275 22814
L38275 23051
" />
<path d="M38472 23051
L38275 23051
" />
<path d="M38472 22814
L38472 23051
" />
</g>
<g style="fill:#009F9F; fill-opacity:0.0; 
stroke:#009F9F; stroke-width:60; stroke-opacity:1; 
stroke-linecap:round; stroke-linejoin:round;">
<path d="M37441 22193
L38560 22193
" />
<path d="M38560 22193
L38560 22807
" />
<path d="M38560 22807
L37441 22807
" />
<path d="M37441 22807
L37441 22193
" />
</g>
<g style="fill:#009F9F; fill-opacity:0.0; 
stroke:#009F9F; stroke-width:1; stroke-opacity:1; 
stroke-linecap:round; stroke-linejoin:round;">
<circle cx="38452" cy="22304" r="26.8697" /> 
</g>
<g style="fill:#009F9F; fill-opacity:0.0; 
stroke:#009F9F; stroke-width:26; stroke-opacity:1; 
stroke-linecap:round; stroke-linejoin:round;">
<path d="M29780 23904
L29780 24097
" />
<path d="M29780 24097
L30213 24097
" />
<path d="M30213 23904
L30213 24097
" />
<path d="M29780 23904
L30213 23904
" />
<path d="M29780 24404
L29780 24597
" />
<path d="M29780 24597
L30213 24597
" />
<path d="M30213 24404
L30213 24597
" />
<path d="M29780 24404
L30213 24404
" />
<path d="M29780 24904
L29780 25097
" />
<path d="M29780 25097
L30213 25097
" />
<path d="M30213 24904
L30213 25097
" />
<path d="M29780 24904
L30213 24904
" />
<path d="M29780 25404
L29780 25596
" />
<path d="M29780 25596
L30213 25596
" />
<path d="M30213 25404
L30213 25596
" />
<path d="M29780 25404
L30213 25404
" />
<path d="M31787 25404
L31787 25596
" />
<path d="M31787 25596
L32220 25596
" />
<path d="M32220 25404
L32220 25596
" />
<path d="M31787 25404
L32220 25404
" />
<path d="M31787 24904
L31787 25097
" />
<path d="M31787 25097
L32220 25097
" />
<path d="M32220 24904
L32220 25097
" />
<path d="M31787 24904
L32220 24904
" />
<path d="M31787 24404
L31787 24597
" />
<path d="M31787 24597
L32220 24597
" />
<path d="M32220 24404
L32220 24597
" />
<path d="M31787 24404
L32220 24404
" />
<path d="M31787 23904
L31787 24097
" />
<path d="M31787 24097
L32220 24097
" />
<path d="M32220 23904
L32220 24097
" />
<path d="M31787 23904
L32220 23904
" />
<path d="M29780 25903
L29780 26096
" />
<path d="M29780 26096
L30213 26096
" />
<path d="M30213 25903
L30213 26096
" />
<path d="M29780 25903
L30213 25903
" />
<path d="M29780 26403
L29780 26596
" />
<path d="M29780 26596
L30213 26596
" />
<path d="M30213 26403
L30213 26596
" />
<path d="M29780 26403
L30213 26403
" />
<path d="M29780 26903
L29780 27096
" />
<path d="M29780 27096
L30213 27096
" />
<path d="M30213 26903
L30213 27096
" />
<path d="M29780 26903
L30213 26903
" />
<path d="M31787 26903
L31787 27096
" />
<path d="M31787 27096
L32220 27096
" />
<path d="M32220 26903
L32220 27096
" />
<path d="M31787 26903
L32220 26903
" />
<path d="M31787 26403
L31787 26596
" />
<path d="M31787 26596
L32220 26596
" />
<path d="M32220 26403
L32220 26596
" />
<path d="M31787 26403
L32220 26403
" />
<path d="M31787 25903
L31787 26096
" />
<path d="M31787 26096
L32220 26096
" />
<path d="M32220 25903
L32220 26096
" />
<path d="M31787 25903
L32220 25903
" />
</g>
<g style="fill:#009F9F; fill-opacity:0.0; 
stroke:#009F9F; stroke-width:78; stroke-opacity:1; 
stroke-linecap:round; stroke-linejoin:round;">
<path d="M32535 23573
L32535 27427
" />
<path d="M29465 27427
L29465 23573
" />
<path d="M29465 23573
L32535 23573
" />
</g>
<g style="fill:#009F9F; fill-opacity:0.0; 
stroke:#009F9F; stroke-width:80; stroke-opacity:1; 
stroke-linecap:round; stroke-linejoin:round;">
<path d="M30252 27194
L30252 23806
" />
<path d="M30252 23806
L30449 23806
" />
<path d="M30449 23806
L31748 23806
" />
<path d="M30449 27194
L30449 23806
" />
<path d="M31748 27194
L30449 27194
" />
<path d="M30449 27194
L30252 27194
" />
</g>
<g style="fill:#009F9F; fill-opacity:0.0; 
stroke:#009F9F; stroke-width:78; stroke-opacity:1; 
stroke-linecap:round; stroke-linejoin:round;">
<path d="M32535 27427
L29465 27427
" />
</g>
<g style="fill:#009F9F; fill-opacity:0.0; 
stroke:#009F9F; stroke-width:80; stroke-opacity:1; 
stroke-linecap:round; stroke-linejoin:round;">
<path d="M31748 23806
L31748 27194
" />
</g>
<g style="fill:#009F9F; fill-opacity:0.0; 
stroke:#009F9F; stroke-width:26; stroke-opacity:1; 
stroke-linecap:round; stroke-linejoin:round;">
<path d="M29780 16904
L29780 17097
" />
<path d="M29780 17097
L30213 17097
" />
<path d="M30213 16904
L30213 17097
" />
<path d="M29780 16904
L30213 16904
" />
<path d="M29780 17404
L29780 17597
" />
<path d="M29780 17597
L30213 17597
" />
<path d="M30213 17404
L30213 17597
" />
<path d="M29780 17404
L30213 17404
" />
<path d="M29780 17904
L29780 18097
" />
<path d="M29780 18097
L30213 18097
" />
<path d="M30213 17904
L30213 18097
" />
<path d="M29780 17904
L30213 17904
" />
<path d="M29780 18404
L29780 18596
" />
<path d="M29780 18596
L30213 18596
" />
<path d="M30213 18404
L30213 18596
" />
<path d="M29780 18404
L30213 18404
" />
<path d="M31787 18404
L31787 18596
" />
<path d="M31787 18596
L32220 18596
" />
<path d="M32220 18404
L32220 18596
" />
<path d="M31787 18404
L32220 18404
" />
<path d="M31787 17904
L31787 18097
" />
<path d="M31787 18097
L32220 18097
" />
<path d="M32220 17904
L32220 18097
" />
<path d="M31787 17904
L32220 17904
" />
<path d="M31787 17404
L31787 17597
" />
<path d="M31787 17597
L32220 17597
" />
<path d="M32220 17404
L32220 17597
" />
<path d="M31787 17404
L32220 17404
" />
<path d="M31787 16904
L31787 17097
" />
<path d="M31787 17097
L32220 17097
" />
<path d="M32220 16904
L32220 17097
" />
<path d="M31787 16904
L32220 16904
" />
<path d="M29780 18903
L29780 19096
" />
<path d="M29780 19096
L30213 19096
" />
<path d="M30213 18903
L30213 19096
" />
<path d="M29780 18903
L30213 18903
" />
<path d="M29780 19403
L29780 19596
" />
<path d="M29780 19596
L30213 19596
" />
<path d="M30213 19403
L30213 19596
" />
<path d="M29780 19403
L30213 19403
" />
<path d="M29780 19903
L29780 20096
" />
<path d="M29780 20096
L30213 20096
" />
<path d="M30213 19903
L30213 20096
" />
<path d="M29780 19903
L30213 19903
" />
<path d="M31787 19903
L31787 20096
" />
<path d="M31787 20096
L32220 20096
" />
<path d="M32220 19903
L32220 20096
" />
<path d="M31787 19903
L32220 19903
" />
<path d="M31787 19403
L31787 19596
" />
<path d="M31787 19596
L32220 19596
" />
<path d="M32220 19403
L32220 19596
" />
<path d="M31787 19403
L32220 19403
" />
<path d="M31787 18903
L31787 19096
" />
<path d="M31787 19096
L32220 19096
" />
<path d="M32220 18903
L32220 19096
" />
<path d="M31787 18903
L32220 18903
" />
</g>
<g style="fill:#009F9F; fill-opacity:0.0; 
stroke:#009F9F; stroke-width:78; stroke-opacity:1; 
stroke-linecap:round; stroke-linejoin:round;">
<path d="M32535 16573
L32535 20427
" />
<path d="M29465 20427
L29465 16573
" />
<path d="M29465 16573
L32535 16573
" />
</g>
<g style="fill:#009F9F; fill-opacity:0.0; 
stroke:#009F9F; stroke-width:80; stroke-opacity:1; 
stroke-linecap:round; stroke-linejoin:round;">
<path d="M30252 20194
L30252 16806
" />
<path d="M30252 16806
L30449 16806
" />
<path d="M30449 16806
L31748 16806
" />
<path d="M30449 20194
L30449 16806
" />
<path d="M31748 20194
L30449 20194
" />
<path d="M30449 20194
L30252 20194
" />
</g>
<g style="fill:#009F9F; fill-opacity:0.0; 
stroke:#009F9F; stroke-width:78; stroke-opacity:1; 
stroke-linecap:round; stroke-linejoin:round;">
<path d="M32535 20427
L29465 20427
" />
</g>
<g style="fill:#009F9F; fill-opacity:0.0; 
stroke:#009F9F; stroke-width:80; stroke-opacity:1; 
stroke-linecap:round; stroke-linejoin:round;">
<path d="M31748 16806
L31748 20194
" />
</g>
<g style="fill:#009F9F; fill-opacity:0.0; 
stroke:#009F9F; stroke-width:50; stroke-opacity:1; 
stroke-linecap:round; stroke-linejoin:round;">
<path d="M39800 22780
L39800 23180
" />
<path d="M39800 23180
L39200 23180
" />
<path d="M39200 23180
L39200 22780
" />
<path d="M39200 22220
L39200 21820
" />
<path d="M39200 21820
L39800 21820
" />
<path d="M39800 21820
L39800 22220
" />
</g>
<g style="fill:#009F9F; fill-opacity:0.0; 
stroke:#009F9F; stroke-width:100; stroke-opacity:1; 
stroke-linecap:round; stroke-linejoin:round;">
<path d="M26500 23050
L28100 23050
" />
<path d="M26500 23050
L24900 23050
" />
<path d="M24900 21050
L28100 21050
" />
<path d="M28100 21050
L28100 24050
" />
<path d="M28100 24050
L24900 24050
" />
<path d="M24900 24050
L24900 21050
" />
</g>
<g style="fill:#009F9F; fill-opacity:0.0; 
stroke:#009F9F; stroke-width:50; stroke-opacity:1; 
stroke-linecap:round; stroke-linejoin:round;">
<path d="M30720 23250
L30320 23250
" />
<path d="M30320 23250
L30320 22650
" />
<path d="M30320 22650
L30720 22650
" />
<path d="M31280 22650
L31680 22650
" />
<path d="M31680 22650
L31680 23250
" />
<path d="M31680 23250
L31280 23250
" />
</g>
<g style="fill:#009F9F; fill-opacity:0.0; 
stroke:#009F9F; stroke-width:150; stroke-opacity:1; 
stroke-linecap:round; stroke-linejoin:round;">
<path d="M12106 22106
L12106 22894
" />
<path d="M11319 22106
L11319 22894
" />
<path d="M13681 22106
L13681 22894
" />
<path d="M12894 22106
L12894 22894
" />
<path d="M14469 20925
L10531 20925
" />
<path d="M10531 20925
L10531 24075
" />
<path d="M10531 24075
L14469 24075
" />
<path d="M14469 24075
L14469 20925
" />
<path d="M16606 26106
L16606 26894
" />
<path d="M15819 26106
L15819 26894
" />
<path d="M18181 26106
L18181 26894
" />
<path d="M17394 26106
L17394 26894
" />
<path d="M18969 24925
L15031 24925
" />
<path d="M15031 24925
L15031 28075
" />
<path d="M15031 28075
L18969 28075
" />
<path d="M18969 28075
L18969 24925
" />
<path d="M16606 18606
L16606 19394
" />
<path d="M15819 18606
L15819 19394
" />
<path d="M18181 18606
L18181 19394
" />
<path d="M17394 18606
L17394 19394
" />
<path d="M18969 17425
L15031 17425
" />
<path d="M15031 17425
L15031 20575
" />
<path d="M15031 20575
L18969 20575
" />
<path d="M18969 20575
L18969 17425
" />
<path d="M37200 17300
L37200 16600
" />
<path d="M38800 17300
L38800 16600
" />
<path d="M36228 17319
L36228 19681
" />
<path d="M36228 19681
L39772 19681
" />
<path d="M39772 19681
L39772 17319
" />
<path d="M39772 17319
L36228 17319
" />
<path d="M40559 18500
L40559 16531
" />
<path d="M40559 16531
L35441 16531
" />
<path d="M35441 16531
L35441 20469
" />
<path d="M35441 20469
L40559 20469
" />
<path d="M40559 20469
L40559 19681
" />
<path d="M40559 19681
L40559 18500
" />
<path d="M38800 27700
L38800 28400
" />
<path d="M37200 27700
L37200 28400
" />
<path d="M39772 27681
L39772 25319
" />
<path d="M39772 25319
L36228 25319
" />
<path d="M36228 25319
L36228 27681
" />
<path d="M36228 27681
L39772 27681
" />
<path d="M35441 26500
L35441 28469
" />
<path d="M35441 28469
L40559 28469
" />
<path d="M40559 28469
L40559 24531
" />
<path d="M40559 24531
L35441 24531
" />
<path d="M35441 24531
L35441 25319
" />
<path d="M35441 25319
L35441 26500
" />
</g>
<g style="fill:#7F7F00; fill-opacity:0.0; 
stroke:#7F7F00; stroke-width:39.3701; stroke-opacity:1; 
stroke-linecap:round; stroke-linejoin:round;">
</g>
<g style="fill:#7F7F00; fill-opacity:1.0; 
stroke:#7F7F00; stroke-width:39.3701; stroke-opacity:1; 
stroke-linecap:round; stroke-linejoin:round;">
<circle cx="34500" cy="22500" r="760.315" /> 
<circle cx="17000" cy="22500" r="760.315" /> 
</g>
<g style="fill:#9F0000; fill-opacity:1.0; 
stroke:#9F0000; stroke-width:39.3701; stroke-opacity:1; 
stroke-linecap:round; stroke-linejoin:round;">
<polyline style="fill-rule:evenodd;"
points="30369,21255
30369,20744
30780,20744
30780,21255
30369,21255
" /> 
<polyline style="fill-rule:evenodd;"
points="31219,21255
31219,20744
31630,20744
31630,21255
31219,21255
" /> 
<polyline style="fill-rule:evenodd;"
points="11494,16369
12005,16369
12005,16780
11494,16780
11494,16369
" /> 
<polyline style="fill-rule:evenodd;"
points="11494,17219
12005,17219
12005,17630
11494,17630
11494,17219
" /> 
<polyline style="fill-rule:evenodd;"
points="12005,28880
11494,28880
11494,28469
12005,28469
12005,28880
" /> 
<polyline style="fill-rule:evenodd;"
points="12005,28030
11494,28030
11494,27619
12005,27619
12005,28030
" /> 
<polyline style="fill-rule:evenodd;"
points="29880,20744
29880,21255
29469,21255
29469,20744
29880,20744
" /> 
<polyline style="fill-rule:evenodd;"
points="29030,20744
29030,21255
28619,21255
28619,20744
29030,20744
" /> 
<polyline style="fill-rule:evenodd;"
points="31630,28244
31630,28755
31219,28755
31219,28244
31630,28244
" /> 
<polyline style="fill-rule:evenodd;"
points="30780,28244
30780,28755
30369,28755
30369,28244
30780,28244
" /> 
<polyline style="fill-rule:evenodd;"
points="34630,19244
34630,19755
34219,19755
34219,19244
34630,19244
" /> 
<polyline style="fill-rule:evenodd;"
points="33780,19244
33780,19755
33369,19755
33369,19244
33780,19244
" /> 
<polyline style="fill-rule:evenodd;"
points="34630,26244
34630,26755
34219,26755
34219,26244
34630,26244
" /> 
<polyline style="fill-rule:evenodd;"
points="33780,26244
33780,26755
33369,26755
33369,26244
33780,26244
" /> 
<polyline style="fill-rule:evenodd;"
points="34629,20283
34629,20716
34196,20716
34196,20283
34629,20283
" /> 
<polyline style="fill-rule:evenodd;"
points="33803,20283
33803,20716
33370,20716
33370,20283
33803,20283
" /> 
<polyline style="fill-rule:evenodd;"
points="34629,27283
34629,27716
34196,27716
34196,27283
34629,27283
" /> 
<polyline style="fill-rule:evenodd;"
points="33803,27283
33803,27716
33370,27716
33370,27283
33803,27283
" /> 
<polyline style="fill-rule:evenodd;"
points="19794,27580
19794,26419
20405,26419
20405,27580
19794,27580
" /> 
<polyline style="fill-rule:evenodd;"
points="19819,25680
19819,23319
22180,23319
22180,25680
19819,25680
" /> 
<polyline style="fill-rule:evenodd;"
points="21594,27580
21594,26419
22205,26419
22205,27580
21594,27580
" /> 
<polyline style="fill-rule:evenodd;"
points="19794,21080
19794,19919
20405,19919
20405,21080
19794,21080
" /> 
<polyline style="fill-rule:evenodd;"
points="19819,19180
19819,16819
22180,16819
22180,19180
19819,19180
" /> 
<polyline style="fill-rule:evenodd;"
points="21594,21080
21594,19919
22205,19919
22205,21080
21594,21080
" /> 
<polyline style="fill-rule:evenodd;"
points="28555,27830
27996,27830
27996,27169
28555,27169
28555,27830
" /> 
<polyline style="fill-rule:evenodd;"
points="28555,26830
27996,26830
27996,26169
28555,26169
28555,26830
" /> 
<polyline style="fill-rule:evenodd;"
points="28555,25830
27996,25830
27996,25169
28555,25169
28555,25830
" /> 
<polyline style="fill-rule:evenodd;"
points="25003,27830
24444,27830
24444,27169
25003,27169
25003,27830
" /> 
<polyline style="fill-rule:evenodd;"
points="25003,26830
24444,26830
24444,26169
25003,26169
25003,26830
" /> 
<polyline style="fill-rule:evenodd;"
points="25003,25830
24444,25830
24444,25169
25003,25169
25003,25830
" /> 
<polyline style="fill-rule:evenodd;"
points="28555,19830
27996,19830
27996,19169
28555,19169
28555,19830
" /> 
<polyline style="fill-rule:evenodd;"
points="28555,18830
27996,18830
27996,18169
28555,18169
28555,18830
" /> 
<polyline style="fill-rule:evenodd;"
points="28555,17830
27996,17830
27996,17169
28555,17169
28555,17830
" /> 
<polyline style="fill-rule:evenodd;"
points="25003,19830
24444,19830
24444,19169
25003,19169
25003,19830
" /> 
<polyline style="fill-rule:evenodd;"
points="25003,18830
24444,18830
24444,18169
25003,18169
25003,18830
" /> 
<polyline style="fill-rule:evenodd;"
points="25003,17830
24444,17830
24444,17169
25003,17169
25003,17830
" /> 
<polyline style="fill-rule:evenodd;"
points="38472,21890
38472,22205
38275,22205
38275,21890
38472,21890
" /> 
<polyline style="fill-rule:evenodd;"
points="38098,21890
38098,22205
37901,22205
37901,21890
38098,21890
" /> 
<polyline style="fill-rule:evenodd;"
points="37724,21890
37724,22205
37527,22205
37527,21890
37724,21890
" /> 
<polyline style="fill-rule:evenodd;"
points="37724,22794
37724,23109
37527,23109
37527,22794
37724,22794
" /> 
<polyline style="fill-rule:evenodd;"
points="38098,22794
38098,23109
37901,23109
37901,22794
38098,22794
" /> 
<polyline style="fill-rule:evenodd;"
points="38472,22794
38472,23109
38275,23109
38275,22794
38472,22794
" /> 
<polyline style="fill-rule:evenodd;"
points="29563,23901
30390,23901
30390,24098
29563,24098
29563,23901
" /> 
<polyline style="fill-rule:evenodd;"
points="29563,24401
30390,24401
30390,24598
29563,24598
29563,24401
" /> 
<polyline style="fill-rule:evenodd;"
points="29563,24901
30390,24901
30390,25098
29563,25098
29563,24901
" /> 
<polyline style="fill-rule:evenodd;"
points="29563,25401
30390,25401
30390,25598
29563,25598
29563,25401
" /> 
<polyline style="fill-rule:evenodd;"
points="29563,25901
30390,25901
30390,26098
29563,26098
29563,25901
" /> 
<polyline style="fill-rule:evenodd;"
points="29563,26401
30390,26401
30390,26598
29563,26598
29563,26401
" /> 
<polyline style="fill-rule:evenodd;"
points="29563,26901
30390,26901
30390,27098
29563,27098
29563,26901
" /> 
<polyline style="fill-rule:evenodd;"
points="31609,26901
32436,26901
32436,27098
31609,27098
31609,26901
" /> 
<polyline style="fill-rule:evenodd;"
points="31609,26401
32436,26401
32436,26598
31609,26598
31609,26401
" /> 
<polyline style="fill-rule:evenodd;"
points="31609,25901
32436,25901
32436,26098
31609,26098
31609,25901
" /> 
<polyline style="fill-rule:evenodd;"
points="31609,25401
32436,25401
32436,25598
31609,25598
31609,25401
" /> 
<polyline style="fill-rule:evenodd;"
points="31609,24901
32436,24901
32436,25098
31609,25098
31609,24901
" /> 
<polyline style="fill-rule:evenodd;"
points="31609,24401
32436,24401
32436,24598
31609,24598
31609,24401
" /> 
<polyline style="fill-rule:evenodd;"
points="31609,23901
32436,23901
32436,24098
31609,24098
31609,23901
" /> 
<polyline style="fill-rule:evenodd;"
points="29563,16901
30390,16901
30390,17098
29563,17098
29563,16901
" /> 
<polyline style="fill-rule:evenodd;"
points="29563,17401
30390,17401
30390,17598
29563,17598
29563,17401
" /> 
<polyline style="fill-rule:evenodd;"
points="29563,17901
30390,17901
30390,18098
29563,18098
29563,17901
" /> 
<polyline style="fill-rule:evenodd;"
points="29563,18401
30390,18401
30390,18598
29563,18598
29563,18401
" /> 
<polyline style="fill-rule:evenodd;"
points="29563,18901
30390,18901
30390,19098
29563,19098
29563,18901
" /> 
<polyline style="fill-rule:evenodd;"
points="29563,19401
30390,19401
30390,19598
29563,19598
29563,19401
" /> 
<polyline style="fill-rule:evenodd;"
points="29563,19901
30390,19901
30390,20098
29563,20098
29563,19901
" /> 
<polyline style="fill-rule:evenodd;"
points="31609,19901
32436,19901
32436,20098
31609,20098
31609,19901
" /> 
<polyline style="fill-rule:evenodd;"
points="31609,19401
32436,19401
32436,19598
31609,19598
31609,19401
" /> 
<polyline style="fill-rule:evenodd;"
points="31609,18901
32436,18901
32436,19098
31609,19098
31609,18901
" /> 
<polyline style="fill-rule:evenodd;"
points="31609,18401
32436,18401
32436,18598
31609,18598
31609,18401
" /> 
<polyline style="fill-rule:evenodd;"
points="31609,17901
32436,17901
32436,18098
31609,18098
31609,17901
" /> 
<polyline style="fill-rule:evenodd;"
points="31609,17401
32436,17401
32436,17598
31609,17598
31609,17401
" /> 
<polyline style="fill-rule:evenodd;"
points="31609,16901
32436,16901
32436,17098
31609,17098
31609,16901
" /> 
<polyline style="fill-rule:evenodd;"
points="39755,23130
39244,23130
39244,22719
39755,22719
39755,23130
" /> 
<polyline style="fill-rule:evenodd;"
points="39755,22280
39244,22280
39244,21869
39755,21869
39755,22280
" /> 
</g>
<g style="fill:#7F7F00; fill-opacity:1.0; 
stroke:#7F7F00; stroke-width:1000; stroke-opacity:1; 
stroke-linecap:round; stroke-linejoin:round;">
<path d="M27280 22625
L27280 21875
" />
<path d="M25720 22625
L25720 21875
" />
</g>
<g style="fill:#9F0000; fill-opacity:1.0; 
stroke:#9F0000; stroke-width:39.3701; stroke-opacity:1; 
stroke-linecap:round; stroke-linejoin:round;">
<polyline style="fill-rule:evenodd;"
points="30369,23205
30369,22694
30780,22694
30780,23205
30369,23205
" /> 
<polyline style="fill-rule:evenodd;"
points="31219,23205
31219,22694
31630,22694
31630,23205
31219,23205
" /> 
<polyline style="fill-rule:evenodd;"
points="12696,23989
12696,22864
13877,22864
13877,23989
12696,23989
" /> 
<polyline style="fill-rule:evenodd;"
points="11122,23989
11122,22864
12303,22864
12303,23989
11122,23989
" /> 
<polyline style="fill-rule:evenodd;"
points="11122,22135
11122,21010
12303,21010
12303,22135
11122,22135
" /> 
<polyline style="fill-rule:evenodd;"
points="12696,22135
12696,21010
13877,21010
13877,22135
12696,22135
" /> 
<polyline style="fill-rule:evenodd;"
points="17196,27989
17196,26864
18377,26864
18377,27989
17196,27989
" /> 
<polyline style="fill-rule:evenodd;"
points="15622,27989
15622,26864
16803,26864
16803,27989
15622,27989
" /> 
<polyline style="fill-rule:evenodd;"
points="15622,26135
15622,25010
16803,25010
16803,26135
15622,26135
" /> 
<polyline style="fill-rule:evenodd;"
points="17196,26135
17196,25010
18377,25010
18377,26135
17196,26135
" /> 
<polyline style="fill-rule:evenodd;"
points="17196,20489
17196,19364
18377,19364
18377,20489
17196,20489
" /> 
<polyline style="fill-rule:evenodd;"
points="15622,20489
15622,19364
16803,19364
16803,20489
15622,20489
" /> 
<polyline style="fill-rule:evenodd;"
points="15622,18635
15622,17510
16803,17510
16803,18635
15622,18635
" /> 
<polyline style="fill-rule:evenodd;"
points="17196,18635
17196,17510
18377,17510
18377,18635
17196,18635
" /> 
</g>
<g style="fill:#7F7F00; fill-opacity:1.0; 
stroke:#7F7F00; stroke-width:39.3701; stroke-opacity:1; 
stroke-linecap:round; stroke-linejoin:round;">
<circle cx="37000" cy="18000" r="380.315" /> 
<circle cx="38000" cy="18000" r="380.315" /> 
<polyline style="fill-rule:evenodd;"
points="38619,18380
38619,17619
39380,17619
39380,18380
38619,18380
" /> 
<circle cx="37000" cy="19000" r="380.315" /> 
<circle cx="38000" cy="19000" r="380.315" /> 
<circle cx="39000" cy="19000" r="380.315" /> 
<circle cx="39000" cy="27000" r="380.315" /> 
<circle cx="38000" cy="27000" r="380.315" /> 
<polyline style="fill-rule:evenodd;"
points="37380,26619
37380,27380
36619,27380
36619,26619
37380,26619
" /> 
<circle cx="39000" cy="26000" r="380.315" /> 
<circle cx="38000" cy="26000" r="380.315" /> 
<circle cx="37000" cy="26000" r="380.315" /> 
</g> 
</svg>
