G04 (created by PCBNEW (2013-03-31 BZR 4008)-stable) date 2013-07-24 10:52:05 PM*
%MOIN*%
G04 Gerber Fmt 3.4, Leading zero omitted, Abs format*
%FSLAX34Y34*%
G01*
G70*
G90*
G04 APERTURE LIST*
%ADD10C,2.3622e-006*%
%ADD11C,0.156*%
%ADD12R,0.045X0.055*%
%ADD13R,0.055X0.045*%
%ADD14R,0.0472X0.0472*%
%ADD15R,0.065X0.12*%
%ADD16R,0.24X0.24*%
%ADD17R,0.0598X0.0701*%
%ADD18R,0.0236X0.0354*%
%ADD19R,0.0866X0.0236*%
%ADD20O,0.1X0.175*%
%ADD21R,0.122X0.1165*%
%ADD22C,0.08*%
%ADD23R,0.08X0.08*%
%ADD24C,0.055*%
%ADD25C,0.08*%
%ADD26C,0.02*%
%ADD27C,0.016*%
%ADD28C,0.01*%
G04 APERTURE END LIST*
G54D10*
G54D11*
X34500Y-22500D03*
X17000Y-22500D03*
G54D12*
X30575Y-21000D03*
X31425Y-21000D03*
G54D13*
X11750Y-16575D03*
X11750Y-17425D03*
X11750Y-28675D03*
X11750Y-27825D03*
G54D12*
X29675Y-21000D03*
X28825Y-21000D03*
X31425Y-28500D03*
X30575Y-28500D03*
X34425Y-19500D03*
X33575Y-19500D03*
X34425Y-26500D03*
X33575Y-26500D03*
G54D14*
X34413Y-20500D03*
X33587Y-20500D03*
X34413Y-27500D03*
X33587Y-27500D03*
G54D15*
X20100Y-27000D03*
G54D16*
X21000Y-24500D03*
G54D15*
X21900Y-27000D03*
X20100Y-20500D03*
G54D16*
X21000Y-18000D03*
G54D15*
X21900Y-20500D03*
G54D17*
X28276Y-27500D03*
X28276Y-26500D03*
X28276Y-25500D03*
X24724Y-27500D03*
X24724Y-26500D03*
X24724Y-25500D03*
X28276Y-19500D03*
X28276Y-18500D03*
X28276Y-17500D03*
X24724Y-19500D03*
X24724Y-18500D03*
X24724Y-17500D03*
G54D18*
X38374Y-22048D03*
X38000Y-22048D03*
X37626Y-22048D03*
X37626Y-22952D03*
X38000Y-22952D03*
X38374Y-22952D03*
G54D19*
X29977Y-24000D03*
X29977Y-24500D03*
X29977Y-25000D03*
X29977Y-25500D03*
X29977Y-26000D03*
X29977Y-26500D03*
X29977Y-27000D03*
X32023Y-27000D03*
X32023Y-26500D03*
X32023Y-26000D03*
X32023Y-25500D03*
X32023Y-25000D03*
X32023Y-24500D03*
X32023Y-24000D03*
X29977Y-17000D03*
X29977Y-17500D03*
X29977Y-18000D03*
X29977Y-18500D03*
X29977Y-19000D03*
X29977Y-19500D03*
X29977Y-20000D03*
X32023Y-20000D03*
X32023Y-19500D03*
X32023Y-19000D03*
X32023Y-18500D03*
X32023Y-18000D03*
X32023Y-17500D03*
X32023Y-17000D03*
G54D13*
X39500Y-22925D03*
X39500Y-22075D03*
G54D20*
X27280Y-22250D03*
X25720Y-22250D03*
G54D12*
X30575Y-22950D03*
X31425Y-22950D03*
G54D21*
X13287Y-23427D03*
X11713Y-23427D03*
X11713Y-21573D03*
X13287Y-21573D03*
X17787Y-27427D03*
X16213Y-27427D03*
X16213Y-25573D03*
X17787Y-25573D03*
X17787Y-19927D03*
X16213Y-19927D03*
X16213Y-18073D03*
X17787Y-18073D03*
G54D22*
X37000Y-18000D03*
X38000Y-18000D03*
G54D23*
X39000Y-18000D03*
G54D22*
X37000Y-19000D03*
X38000Y-19000D03*
X39000Y-19000D03*
X39000Y-27000D03*
X38000Y-27000D03*
G54D23*
X37000Y-27000D03*
G54D22*
X39000Y-26000D03*
X38000Y-26000D03*
X37000Y-26000D03*
G54D24*
X19800Y-21800D03*
X21000Y-22600D03*
X21000Y-21800D03*
X22200Y-22600D03*
X22200Y-21800D03*
X19800Y-22600D03*
X31130Y-18500D03*
X29638Y-22540D03*
X29088Y-19025D03*
X32097Y-20796D03*
X27537Y-18350D03*
X32106Y-23163D03*
X33898Y-17480D03*
X29086Y-20012D03*
X33587Y-28197D03*
X29104Y-26794D03*
X33587Y-21174D03*
X37992Y-21102D03*
X38674Y-21429D03*
X33316Y-25724D03*
X30898Y-26534D03*
G54D25*
X18360Y-20500D02*
X20100Y-20500D01*
X17787Y-19927D02*
X18360Y-20500D01*
X17787Y-18073D02*
X17787Y-19927D01*
X17787Y-26573D02*
X17787Y-25573D01*
X18214Y-27000D02*
X17787Y-26573D01*
X20100Y-27000D02*
X18214Y-27000D01*
X18214Y-27000D02*
X17787Y-27427D01*
X20697Y-18000D02*
X19488Y-16791D01*
G54D26*
X21000Y-18000D02*
X21000Y-21800D01*
G54D25*
X19488Y-16791D02*
X14213Y-16791D01*
X21000Y-18000D02*
X20697Y-18000D01*
X12894Y-18110D02*
X11750Y-18110D01*
X14213Y-16791D02*
X12894Y-18110D01*
G54D26*
X22200Y-21800D02*
X22200Y-22600D01*
G54D25*
X11750Y-17425D02*
X11750Y-18110D01*
X11750Y-27825D02*
X11750Y-23464D01*
X11750Y-23464D02*
X11713Y-23427D01*
G54D26*
X21000Y-22600D02*
X19800Y-22600D01*
G54D25*
X11750Y-18110D02*
X11750Y-21536D01*
X11750Y-21536D02*
X11713Y-21573D01*
X11713Y-21573D02*
X11713Y-23427D01*
X13287Y-20355D02*
X13715Y-19927D01*
X14964Y-19927D02*
X16213Y-19927D01*
X13287Y-21573D02*
X13287Y-20355D01*
X14133Y-25630D02*
X13287Y-24784D01*
X15633Y-19258D02*
X16213Y-19258D01*
X14964Y-19927D02*
X15633Y-19258D01*
X16213Y-18073D02*
X16213Y-19258D01*
X13715Y-19927D02*
X14964Y-19927D01*
X16213Y-27427D02*
X16213Y-25573D01*
X13287Y-24784D02*
X13287Y-23427D01*
X16156Y-25630D02*
X14133Y-25630D01*
X13287Y-23427D02*
X13287Y-21573D01*
X16213Y-25573D02*
X16156Y-25630D01*
G54D27*
X29301Y-18000D02*
X29977Y-18000D01*
X27462Y-16787D02*
X26500Y-17749D01*
X28696Y-16787D02*
X27462Y-16787D01*
X29301Y-25000D02*
X29977Y-25000D01*
X26500Y-23345D02*
X26545Y-23390D01*
X28978Y-17069D02*
X28978Y-17677D01*
X26545Y-23390D02*
X27691Y-23390D01*
X37626Y-22048D02*
X37626Y-21628D01*
X28696Y-16787D02*
X29169Y-16314D01*
X39243Y-19000D02*
X39000Y-19000D01*
X26500Y-17749D02*
X26500Y-23345D01*
X39644Y-17413D02*
X39644Y-18599D01*
X37474Y-20526D02*
X37474Y-21476D01*
X39000Y-19000D02*
X37474Y-20526D01*
X37474Y-21476D02*
X37626Y-21628D01*
X39644Y-18599D02*
X39243Y-19000D01*
X38545Y-16314D02*
X39644Y-17413D01*
X27691Y-23390D02*
X29301Y-25000D01*
X28978Y-17677D02*
X29301Y-18000D01*
X28696Y-16787D02*
X28978Y-17069D01*
X29169Y-16314D02*
X38545Y-16314D01*
X37000Y-26000D02*
X37626Y-25374D01*
X37626Y-25374D02*
X37626Y-22952D01*
X29301Y-16641D02*
X29304Y-16638D01*
X29301Y-17500D02*
X29301Y-16641D01*
X29977Y-17500D02*
X29301Y-17500D01*
X34638Y-16638D02*
X37000Y-19000D01*
X29304Y-16638D02*
X34638Y-16638D01*
X31347Y-25306D02*
X31347Y-25000D01*
X29977Y-26000D02*
X30653Y-26000D01*
X30653Y-26000D02*
X31347Y-25306D01*
X39661Y-26000D02*
X40118Y-26457D01*
X39000Y-26000D02*
X39661Y-26000D01*
X34567Y-25000D02*
X32023Y-25000D01*
X31347Y-25000D02*
X32023Y-25000D01*
X36535Y-29055D02*
X35591Y-28111D01*
X40118Y-26457D02*
X40118Y-28504D01*
X40118Y-28504D02*
X39567Y-29055D01*
X39567Y-29055D02*
X36535Y-29055D01*
X35591Y-28111D02*
X35591Y-26024D01*
X35591Y-26024D02*
X34567Y-25000D01*
X29301Y-24500D02*
X29301Y-22877D01*
X29301Y-22877D02*
X29638Y-22540D01*
X29977Y-24500D02*
X29301Y-24500D01*
X29113Y-19000D02*
X29088Y-19025D01*
X31130Y-18500D02*
X31130Y-18425D01*
X31130Y-18425D02*
X31555Y-18000D01*
X29977Y-19000D02*
X29113Y-19000D01*
X31555Y-18000D02*
X32023Y-18000D01*
X28818Y-26500D02*
X29104Y-26786D01*
X28276Y-26500D02*
X28818Y-26500D01*
X27734Y-18500D02*
X28276Y-18500D01*
X29086Y-20012D02*
X29289Y-20012D01*
X27584Y-18350D02*
X27734Y-18500D01*
X29104Y-26786D02*
X29104Y-26794D01*
X29104Y-26794D02*
X29301Y-26991D01*
X29301Y-26991D02*
X29301Y-27000D01*
X29301Y-27000D02*
X29977Y-27000D01*
X33587Y-20500D02*
X33587Y-21174D01*
X27537Y-18350D02*
X27584Y-18350D01*
X29301Y-20000D02*
X29977Y-20000D01*
X38000Y-21110D02*
X37992Y-21102D01*
X31893Y-21000D02*
X32097Y-20796D01*
X33587Y-28197D02*
X33587Y-27500D01*
X29289Y-20012D02*
X29301Y-20000D01*
X31893Y-22950D02*
X31425Y-22950D01*
X32106Y-23163D02*
X31893Y-22950D01*
X38000Y-22048D02*
X38000Y-21110D01*
X31425Y-21000D02*
X31893Y-21000D01*
X38475Y-21628D02*
X38674Y-21429D01*
X34895Y-18500D02*
X32023Y-18500D01*
X38374Y-21628D02*
X38475Y-21628D01*
X33092Y-25500D02*
X32023Y-25500D01*
X33316Y-25724D02*
X33092Y-25500D01*
X38000Y-19000D02*
X37270Y-19730D01*
X38374Y-22048D02*
X38374Y-21628D01*
X36125Y-19730D02*
X34895Y-18500D01*
X37270Y-19730D02*
X36125Y-19730D01*
X38374Y-25626D02*
X38374Y-22952D01*
X38000Y-26000D02*
X38374Y-25626D01*
X34422Y-20021D02*
X34425Y-20018D01*
X34413Y-20021D02*
X34422Y-20021D01*
X34425Y-19500D02*
X34425Y-20018D01*
X34413Y-20500D02*
X34413Y-20021D01*
X28357Y-21000D02*
X28825Y-21000D01*
X28276Y-20919D02*
X28357Y-21000D01*
X28276Y-19500D02*
X28276Y-20919D01*
X23050Y-20500D02*
X21900Y-20500D01*
X23350Y-20200D02*
X23050Y-20500D01*
X23350Y-18250D02*
X23350Y-20200D01*
X24100Y-17500D02*
X23350Y-18250D01*
X24724Y-17500D02*
X24100Y-17500D01*
X12900Y-16100D02*
X12500Y-16500D01*
X12500Y-16500D02*
X11825Y-16500D01*
X11825Y-16500D02*
X11750Y-16575D01*
X24700Y-16100D02*
X12900Y-16100D01*
X25600Y-17000D02*
X24700Y-16100D01*
X24724Y-19500D02*
X25300Y-19500D01*
X25300Y-19500D02*
X25600Y-19200D01*
X25600Y-19200D02*
X25600Y-17000D01*
X13000Y-29000D02*
X23900Y-29000D01*
X12675Y-28675D02*
X13000Y-29000D01*
X11750Y-28675D02*
X12675Y-28675D01*
X24724Y-28176D02*
X24724Y-27500D01*
X23900Y-29000D02*
X24724Y-28176D01*
X23550Y-26600D02*
X23150Y-27000D01*
X23150Y-27000D02*
X21900Y-27000D01*
X23550Y-25900D02*
X23550Y-26600D01*
X24724Y-25500D02*
X23950Y-25500D01*
X23950Y-25500D02*
X23550Y-25900D01*
X32904Y-26500D02*
X33575Y-26500D01*
X32023Y-26500D02*
X32904Y-26500D01*
X31893Y-28500D02*
X31425Y-28500D01*
X32904Y-27489D02*
X31893Y-28500D01*
X32904Y-26500D02*
X32904Y-27489D01*
X32719Y-19500D02*
X33575Y-19500D01*
X32719Y-21225D02*
X32719Y-19500D01*
X30233Y-21558D02*
X32386Y-21558D01*
X29675Y-21000D02*
X30233Y-21558D01*
X32023Y-19500D02*
X32719Y-19500D01*
X32386Y-21558D02*
X32719Y-21225D01*
X29818Y-28500D02*
X30575Y-28500D01*
X28818Y-27500D02*
X29818Y-28500D01*
X28276Y-27500D02*
X28818Y-27500D01*
X34422Y-27021D02*
X34425Y-27018D01*
X34413Y-27021D02*
X34422Y-27021D01*
X34425Y-26500D02*
X34425Y-27018D01*
X34413Y-27500D02*
X34413Y-27021D01*
X31347Y-17316D02*
X31347Y-17000D01*
X31347Y-26000D02*
X30899Y-26448D01*
X30899Y-26448D02*
X30899Y-26534D01*
X31347Y-17551D02*
X30612Y-18286D01*
X31347Y-17500D02*
X31347Y-17551D01*
X31531Y-17500D02*
X31347Y-17500D01*
X30300Y-22469D02*
X30300Y-22950D01*
X30653Y-25500D02*
X29977Y-25500D01*
X30575Y-21000D02*
X30575Y-20525D01*
X30653Y-24186D02*
X30653Y-25500D01*
X31200Y-19900D02*
X31200Y-19300D01*
X29977Y-23653D02*
X29977Y-24000D01*
X29977Y-17000D02*
X31347Y-17000D01*
X32699Y-24500D02*
X32699Y-24250D01*
X39500Y-22925D02*
X38982Y-22925D01*
X31531Y-17500D02*
X31347Y-17316D01*
X32741Y-18958D02*
X34849Y-18958D01*
X29853Y-22022D02*
X30300Y-22469D01*
X32699Y-24250D02*
X32699Y-24000D01*
X30899Y-26534D02*
X30898Y-26534D01*
X32023Y-26000D02*
X31347Y-26000D01*
X32023Y-24000D02*
X30839Y-24000D01*
X29977Y-23273D02*
X29977Y-23653D01*
X30300Y-22950D02*
X29977Y-23273D01*
X30120Y-23653D02*
X30653Y-24186D01*
X29977Y-23653D02*
X30120Y-23653D01*
X30839Y-24000D02*
X30653Y-24186D01*
X34849Y-18958D02*
X36698Y-20807D01*
X36698Y-20807D02*
X36698Y-22467D01*
X32023Y-17500D02*
X31531Y-17500D01*
X30612Y-18714D02*
X30916Y-19018D01*
X28251Y-22022D02*
X29853Y-22022D01*
X28023Y-22250D02*
X28251Y-22022D01*
X27280Y-22250D02*
X28023Y-22250D01*
X31482Y-19018D02*
X31500Y-19000D01*
X32023Y-19000D02*
X32699Y-19000D01*
X30916Y-19018D02*
X31482Y-19018D01*
X31500Y-19000D02*
X32023Y-19000D01*
X32023Y-24500D02*
X32699Y-24500D01*
X32699Y-24000D02*
X32023Y-24000D01*
X30575Y-22950D02*
X30300Y-22950D01*
X30575Y-20525D02*
X31200Y-19900D01*
X30612Y-18286D02*
X30612Y-18500D01*
X31200Y-19300D02*
X31482Y-19018D01*
X32023Y-17000D02*
X31347Y-17000D01*
X30612Y-18500D02*
X30612Y-18714D01*
X30612Y-18500D02*
X29977Y-18500D01*
X38000Y-22532D02*
X38937Y-22532D01*
X32699Y-19000D02*
X32741Y-18958D01*
X34915Y-24250D02*
X32699Y-24250D01*
X36698Y-22467D02*
X34915Y-24250D01*
X36763Y-22532D02*
X38000Y-22532D01*
X36698Y-22467D02*
X36763Y-22532D01*
X38000Y-22952D02*
X38000Y-22613D01*
X38000Y-22613D02*
X38000Y-22532D01*
X38982Y-22577D02*
X38982Y-22925D01*
X38937Y-22532D02*
X38982Y-22577D01*
G54D10*
G36*
X22785Y-28670D02*
X20850Y-28670D01*
X20850Y-25888D01*
X20850Y-24650D01*
X20850Y-24350D01*
X20850Y-23112D01*
X20850Y-19388D01*
X20850Y-18150D01*
X20850Y-17850D01*
X20850Y-16612D01*
X20788Y-16550D01*
X19751Y-16551D01*
X19659Y-16589D01*
X19589Y-16659D01*
X19551Y-16750D01*
X19551Y-16849D01*
X19550Y-17788D01*
X19612Y-17850D01*
X20850Y-17850D01*
X20850Y-18150D01*
X19612Y-18150D01*
X19550Y-18212D01*
X19551Y-19151D01*
X19551Y-19250D01*
X19589Y-19341D01*
X19659Y-19411D01*
X19751Y-19449D01*
X20788Y-19450D01*
X20850Y-19388D01*
X20850Y-23112D01*
X20788Y-23050D01*
X19751Y-23051D01*
X19659Y-23089D01*
X19589Y-23159D01*
X19551Y-23250D01*
X19551Y-23349D01*
X19550Y-24288D01*
X19612Y-24350D01*
X20850Y-24350D01*
X20850Y-24650D01*
X19612Y-24650D01*
X19550Y-24712D01*
X19551Y-25651D01*
X19551Y-25750D01*
X19589Y-25841D01*
X19659Y-25911D01*
X19751Y-25949D01*
X20788Y-25950D01*
X20850Y-25888D01*
X20850Y-28670D01*
X18948Y-28670D01*
X18948Y-27650D01*
X19526Y-27650D01*
X19564Y-27741D01*
X19634Y-27811D01*
X19725Y-27849D01*
X19824Y-27849D01*
X20474Y-27849D01*
X20566Y-27811D01*
X20636Y-27741D01*
X20674Y-27650D01*
X20674Y-27551D01*
X20674Y-27289D01*
X20701Y-27249D01*
X20750Y-27000D01*
X20701Y-26751D01*
X20674Y-26710D01*
X20674Y-26351D01*
X20636Y-26259D01*
X20566Y-26189D01*
X20475Y-26151D01*
X20376Y-26151D01*
X19726Y-26151D01*
X19634Y-26189D01*
X19564Y-26259D01*
X19526Y-26350D01*
X18948Y-26350D01*
X18948Y-21150D01*
X19526Y-21150D01*
X19564Y-21241D01*
X19634Y-21311D01*
X19725Y-21349D01*
X19824Y-21349D01*
X20474Y-21349D01*
X20566Y-21311D01*
X20636Y-21241D01*
X20674Y-21150D01*
X20674Y-21051D01*
X20674Y-20789D01*
X20701Y-20749D01*
X20750Y-20500D01*
X20701Y-20251D01*
X20674Y-20210D01*
X20674Y-19851D01*
X20636Y-19759D01*
X20566Y-19689D01*
X20475Y-19651D01*
X20376Y-19651D01*
X19726Y-19651D01*
X19634Y-19689D01*
X19564Y-19759D01*
X19526Y-19850D01*
X18948Y-19850D01*
X18948Y-16430D01*
X22785Y-16430D01*
X22785Y-20170D01*
X22474Y-20170D01*
X22474Y-19851D01*
X22450Y-19792D01*
X22450Y-18212D01*
X22450Y-17788D01*
X22449Y-16849D01*
X22449Y-16750D01*
X22411Y-16659D01*
X22341Y-16589D01*
X22249Y-16551D01*
X21212Y-16550D01*
X21150Y-16612D01*
X21150Y-17850D01*
X22388Y-17850D01*
X22450Y-17788D01*
X22450Y-18212D01*
X22388Y-18150D01*
X21150Y-18150D01*
X21150Y-19388D01*
X21212Y-19450D01*
X22249Y-19449D01*
X22341Y-19411D01*
X22411Y-19341D01*
X22449Y-19250D01*
X22449Y-19151D01*
X22450Y-18212D01*
X22450Y-19792D01*
X22436Y-19759D01*
X22366Y-19689D01*
X22275Y-19651D01*
X22176Y-19651D01*
X21526Y-19651D01*
X21434Y-19689D01*
X21364Y-19759D01*
X21326Y-19850D01*
X21326Y-19949D01*
X21326Y-21149D01*
X21364Y-21241D01*
X21434Y-21311D01*
X21525Y-21349D01*
X21624Y-21349D01*
X22274Y-21349D01*
X22366Y-21311D01*
X22436Y-21241D01*
X22474Y-21150D01*
X22474Y-21051D01*
X22474Y-20830D01*
X22785Y-20830D01*
X22785Y-26670D01*
X22474Y-26670D01*
X22474Y-26351D01*
X22450Y-26292D01*
X22450Y-24712D01*
X22450Y-24288D01*
X22449Y-23349D01*
X22449Y-23250D01*
X22411Y-23159D01*
X22341Y-23089D01*
X22249Y-23051D01*
X21212Y-23050D01*
X21150Y-23112D01*
X21150Y-24350D01*
X22388Y-24350D01*
X22450Y-24288D01*
X22450Y-24712D01*
X22388Y-24650D01*
X21150Y-24650D01*
X21150Y-25888D01*
X21212Y-25950D01*
X22249Y-25949D01*
X22341Y-25911D01*
X22411Y-25841D01*
X22449Y-25750D01*
X22449Y-25651D01*
X22450Y-24712D01*
X22450Y-26292D01*
X22436Y-26259D01*
X22366Y-26189D01*
X22275Y-26151D01*
X22176Y-26151D01*
X21526Y-26151D01*
X21434Y-26189D01*
X21364Y-26259D01*
X21326Y-26350D01*
X21326Y-26449D01*
X21326Y-27649D01*
X21364Y-27741D01*
X21434Y-27811D01*
X21525Y-27849D01*
X21624Y-27849D01*
X22274Y-27849D01*
X22366Y-27811D01*
X22436Y-27741D01*
X22474Y-27650D01*
X22474Y-27551D01*
X22474Y-27330D01*
X22785Y-27330D01*
X22785Y-28670D01*
X22785Y-28670D01*
G37*
G54D28*
X22785Y-28670D02*
X20850Y-28670D01*
X20850Y-25888D01*
X20850Y-24650D01*
X20850Y-24350D01*
X20850Y-23112D01*
X20850Y-19388D01*
X20850Y-18150D01*
X20850Y-17850D01*
X20850Y-16612D01*
X20788Y-16550D01*
X19751Y-16551D01*
X19659Y-16589D01*
X19589Y-16659D01*
X19551Y-16750D01*
X19551Y-16849D01*
X19550Y-17788D01*
X19612Y-17850D01*
X20850Y-17850D01*
X20850Y-18150D01*
X19612Y-18150D01*
X19550Y-18212D01*
X19551Y-19151D01*
X19551Y-19250D01*
X19589Y-19341D01*
X19659Y-19411D01*
X19751Y-19449D01*
X20788Y-19450D01*
X20850Y-19388D01*
X20850Y-23112D01*
X20788Y-23050D01*
X19751Y-23051D01*
X19659Y-23089D01*
X19589Y-23159D01*
X19551Y-23250D01*
X19551Y-23349D01*
X19550Y-24288D01*
X19612Y-24350D01*
X20850Y-24350D01*
X20850Y-24650D01*
X19612Y-24650D01*
X19550Y-24712D01*
X19551Y-25651D01*
X19551Y-25750D01*
X19589Y-25841D01*
X19659Y-25911D01*
X19751Y-25949D01*
X20788Y-25950D01*
X20850Y-25888D01*
X20850Y-28670D01*
X18948Y-28670D01*
X18948Y-27650D01*
X19526Y-27650D01*
X19564Y-27741D01*
X19634Y-27811D01*
X19725Y-27849D01*
X19824Y-27849D01*
X20474Y-27849D01*
X20566Y-27811D01*
X20636Y-27741D01*
X20674Y-27650D01*
X20674Y-27551D01*
X20674Y-27289D01*
X20701Y-27249D01*
X20750Y-27000D01*
X20701Y-26751D01*
X20674Y-26710D01*
X20674Y-26351D01*
X20636Y-26259D01*
X20566Y-26189D01*
X20475Y-26151D01*
X20376Y-26151D01*
X19726Y-26151D01*
X19634Y-26189D01*
X19564Y-26259D01*
X19526Y-26350D01*
X18948Y-26350D01*
X18948Y-21150D01*
X19526Y-21150D01*
X19564Y-21241D01*
X19634Y-21311D01*
X19725Y-21349D01*
X19824Y-21349D01*
X20474Y-21349D01*
X20566Y-21311D01*
X20636Y-21241D01*
X20674Y-21150D01*
X20674Y-21051D01*
X20674Y-20789D01*
X20701Y-20749D01*
X20750Y-20500D01*
X20701Y-20251D01*
X20674Y-20210D01*
X20674Y-19851D01*
X20636Y-19759D01*
X20566Y-19689D01*
X20475Y-19651D01*
X20376Y-19651D01*
X19726Y-19651D01*
X19634Y-19689D01*
X19564Y-19759D01*
X19526Y-19850D01*
X18948Y-19850D01*
X18948Y-16430D01*
X22785Y-16430D01*
X22785Y-20170D01*
X22474Y-20170D01*
X22474Y-19851D01*
X22450Y-19792D01*
X22450Y-18212D01*
X22450Y-17788D01*
X22449Y-16849D01*
X22449Y-16750D01*
X22411Y-16659D01*
X22341Y-16589D01*
X22249Y-16551D01*
X21212Y-16550D01*
X21150Y-16612D01*
X21150Y-17850D01*
X22388Y-17850D01*
X22450Y-17788D01*
X22450Y-18212D01*
X22388Y-18150D01*
X21150Y-18150D01*
X21150Y-19388D01*
X21212Y-19450D01*
X22249Y-19449D01*
X22341Y-19411D01*
X22411Y-19341D01*
X22449Y-19250D01*
X22449Y-19151D01*
X22450Y-18212D01*
X22450Y-19792D01*
X22436Y-19759D01*
X22366Y-19689D01*
X22275Y-19651D01*
X22176Y-19651D01*
X21526Y-19651D01*
X21434Y-19689D01*
X21364Y-19759D01*
X21326Y-19850D01*
X21326Y-19949D01*
X21326Y-21149D01*
X21364Y-21241D01*
X21434Y-21311D01*
X21525Y-21349D01*
X21624Y-21349D01*
X22274Y-21349D01*
X22366Y-21311D01*
X22436Y-21241D01*
X22474Y-21150D01*
X22474Y-21051D01*
X22474Y-20830D01*
X22785Y-20830D01*
X22785Y-26670D01*
X22474Y-26670D01*
X22474Y-26351D01*
X22450Y-26292D01*
X22450Y-24712D01*
X22450Y-24288D01*
X22449Y-23349D01*
X22449Y-23250D01*
X22411Y-23159D01*
X22341Y-23089D01*
X22249Y-23051D01*
X21212Y-23050D01*
X21150Y-23112D01*
X21150Y-24350D01*
X22388Y-24350D01*
X22450Y-24288D01*
X22450Y-24712D01*
X22388Y-24650D01*
X21150Y-24650D01*
X21150Y-25888D01*
X21212Y-25950D01*
X22249Y-25949D01*
X22341Y-25911D01*
X22411Y-25841D01*
X22449Y-25750D01*
X22449Y-25651D01*
X22450Y-24712D01*
X22450Y-26292D01*
X22436Y-26259D01*
X22366Y-26189D01*
X22275Y-26151D01*
X22176Y-26151D01*
X21526Y-26151D01*
X21434Y-26189D01*
X21364Y-26259D01*
X21326Y-26350D01*
X21326Y-26449D01*
X21326Y-27649D01*
X21364Y-27741D01*
X21434Y-27811D01*
X21525Y-27849D01*
X21624Y-27849D01*
X22274Y-27849D01*
X22366Y-27811D01*
X22436Y-27741D01*
X22474Y-27650D01*
X22474Y-27551D01*
X22474Y-27330D01*
X22785Y-27330D01*
X22785Y-28670D01*
G54D10*
G36*
X29912Y-21703D02*
X29853Y-21692D01*
X28251Y-21692D01*
X28125Y-21717D01*
X28089Y-21741D01*
X28017Y-21789D01*
X28016Y-21790D01*
X28016Y-21707D01*
X27904Y-21436D01*
X27697Y-21229D01*
X27427Y-21117D01*
X27134Y-21117D01*
X26863Y-21229D01*
X26830Y-21262D01*
X26830Y-17885D01*
X27598Y-17117D01*
X27728Y-17117D01*
X27728Y-17199D01*
X27728Y-17899D01*
X27766Y-17991D01*
X27775Y-18000D01*
X27766Y-18009D01*
X27728Y-18101D01*
X27727Y-18288D01*
X27789Y-18350D01*
X28076Y-18350D01*
X28127Y-18350D01*
X28425Y-18350D01*
X28476Y-18350D01*
X28763Y-18350D01*
X28825Y-18288D01*
X28824Y-18101D01*
X28786Y-18009D01*
X28777Y-18000D01*
X28786Y-17991D01*
X28797Y-17962D01*
X29067Y-18233D01*
X29068Y-18233D01*
X29139Y-18280D01*
X29174Y-18304D01*
X29175Y-18305D01*
X29296Y-18329D01*
X29295Y-18332D01*
X29295Y-18431D01*
X29295Y-18542D01*
X29193Y-18500D01*
X28984Y-18500D01*
X28791Y-18580D01*
X28720Y-18650D01*
X28476Y-18650D01*
X28425Y-18650D01*
X28127Y-18650D01*
X28076Y-18650D01*
X27789Y-18650D01*
X27727Y-18712D01*
X27728Y-18899D01*
X27766Y-18991D01*
X27775Y-19000D01*
X27766Y-19009D01*
X27728Y-19100D01*
X27728Y-19199D01*
X27728Y-19899D01*
X27766Y-19991D01*
X27836Y-20061D01*
X27927Y-20099D01*
X27946Y-20099D01*
X27946Y-20919D01*
X27971Y-21046D01*
X28043Y-21152D01*
X28123Y-21233D01*
X28124Y-21233D01*
X28195Y-21280D01*
X28230Y-21304D01*
X28231Y-21305D01*
X28353Y-21329D01*
X28389Y-21416D01*
X28459Y-21486D01*
X28550Y-21524D01*
X28649Y-21524D01*
X29099Y-21524D01*
X29191Y-21486D01*
X29250Y-21427D01*
X29309Y-21486D01*
X29400Y-21524D01*
X29499Y-21524D01*
X29733Y-21524D01*
X29912Y-21703D01*
X29912Y-21703D01*
G37*
G54D28*
X29912Y-21703D02*
X29853Y-21692D01*
X28251Y-21692D01*
X28125Y-21717D01*
X28089Y-21741D01*
X28017Y-21789D01*
X28016Y-21790D01*
X28016Y-21707D01*
X27904Y-21436D01*
X27697Y-21229D01*
X27427Y-21117D01*
X27134Y-21117D01*
X26863Y-21229D01*
X26830Y-21262D01*
X26830Y-17885D01*
X27598Y-17117D01*
X27728Y-17117D01*
X27728Y-17199D01*
X27728Y-17899D01*
X27766Y-17991D01*
X27775Y-18000D01*
X27766Y-18009D01*
X27728Y-18101D01*
X27727Y-18288D01*
X27789Y-18350D01*
X28076Y-18350D01*
X28127Y-18350D01*
X28425Y-18350D01*
X28476Y-18350D01*
X28763Y-18350D01*
X28825Y-18288D01*
X28824Y-18101D01*
X28786Y-18009D01*
X28777Y-18000D01*
X28786Y-17991D01*
X28797Y-17962D01*
X29067Y-18233D01*
X29068Y-18233D01*
X29139Y-18280D01*
X29174Y-18304D01*
X29175Y-18305D01*
X29296Y-18329D01*
X29295Y-18332D01*
X29295Y-18431D01*
X29295Y-18542D01*
X29193Y-18500D01*
X28984Y-18500D01*
X28791Y-18580D01*
X28720Y-18650D01*
X28476Y-18650D01*
X28425Y-18650D01*
X28127Y-18650D01*
X28076Y-18650D01*
X27789Y-18650D01*
X27727Y-18712D01*
X27728Y-18899D01*
X27766Y-18991D01*
X27775Y-19000D01*
X27766Y-19009D01*
X27728Y-19100D01*
X27728Y-19199D01*
X27728Y-19899D01*
X27766Y-19991D01*
X27836Y-20061D01*
X27927Y-20099D01*
X27946Y-20099D01*
X27946Y-20919D01*
X27971Y-21046D01*
X28043Y-21152D01*
X28123Y-21233D01*
X28124Y-21233D01*
X28195Y-21280D01*
X28230Y-21304D01*
X28231Y-21305D01*
X28353Y-21329D01*
X28389Y-21416D01*
X28459Y-21486D01*
X28550Y-21524D01*
X28649Y-21524D01*
X29099Y-21524D01*
X29191Y-21486D01*
X29250Y-21427D01*
X29309Y-21486D01*
X29400Y-21524D01*
X29499Y-21524D01*
X29733Y-21524D01*
X29912Y-21703D01*
G54D10*
G36*
X30290Y-20367D02*
X30270Y-20398D01*
X30250Y-20496D01*
X30209Y-20514D01*
X30139Y-20584D01*
X30124Y-20617D01*
X30111Y-20584D01*
X30041Y-20514D01*
X29950Y-20476D01*
X29851Y-20476D01*
X29827Y-20476D01*
X29827Y-20306D01*
X29827Y-20059D01*
X29356Y-20059D01*
X29294Y-20121D01*
X29295Y-20167D01*
X29333Y-20259D01*
X29403Y-20329D01*
X29494Y-20367D01*
X29593Y-20367D01*
X29765Y-20368D01*
X29827Y-20306D01*
X29827Y-20476D01*
X29401Y-20476D01*
X29309Y-20514D01*
X29250Y-20573D01*
X29191Y-20514D01*
X29100Y-20476D01*
X29001Y-20476D01*
X28606Y-20476D01*
X28606Y-20099D01*
X28624Y-20099D01*
X28716Y-20061D01*
X28786Y-19991D01*
X28824Y-19900D01*
X28824Y-19801D01*
X28824Y-19484D01*
X28983Y-19550D01*
X29192Y-19550D01*
X29295Y-19507D01*
X29295Y-19667D01*
X29329Y-19750D01*
X29295Y-19833D01*
X29294Y-19879D01*
X29356Y-19941D01*
X29827Y-19941D01*
X29827Y-19882D01*
X30127Y-19882D01*
X30127Y-19941D01*
X30127Y-20059D01*
X30127Y-20200D01*
X30127Y-20306D01*
X30189Y-20368D01*
X30290Y-20367D01*
X30290Y-20367D01*
G37*
G54D28*
X30290Y-20367D02*
X30270Y-20398D01*
X30250Y-20496D01*
X30209Y-20514D01*
X30139Y-20584D01*
X30124Y-20617D01*
X30111Y-20584D01*
X30041Y-20514D01*
X29950Y-20476D01*
X29851Y-20476D01*
X29827Y-20476D01*
X29827Y-20306D01*
X29827Y-20059D01*
X29356Y-20059D01*
X29294Y-20121D01*
X29295Y-20167D01*
X29333Y-20259D01*
X29403Y-20329D01*
X29494Y-20367D01*
X29593Y-20367D01*
X29765Y-20368D01*
X29827Y-20306D01*
X29827Y-20476D01*
X29401Y-20476D01*
X29309Y-20514D01*
X29250Y-20573D01*
X29191Y-20514D01*
X29100Y-20476D01*
X29001Y-20476D01*
X28606Y-20476D01*
X28606Y-20099D01*
X28624Y-20099D01*
X28716Y-20061D01*
X28786Y-19991D01*
X28824Y-19900D01*
X28824Y-19801D01*
X28824Y-19484D01*
X28983Y-19550D01*
X29192Y-19550D01*
X29295Y-19507D01*
X29295Y-19667D01*
X29329Y-19750D01*
X29295Y-19833D01*
X29294Y-19879D01*
X29356Y-19941D01*
X29827Y-19941D01*
X29827Y-19882D01*
X30127Y-19882D01*
X30127Y-19941D01*
X30127Y-20059D01*
X30127Y-20200D01*
X30127Y-20306D01*
X30189Y-20368D01*
X30290Y-20367D01*
G54D10*
G36*
X32389Y-21088D02*
X32249Y-21228D01*
X31899Y-21228D01*
X31899Y-21226D01*
X31900Y-21199D01*
X31900Y-20801D01*
X31899Y-20774D01*
X31899Y-20675D01*
X31861Y-20584D01*
X31791Y-20514D01*
X31699Y-20476D01*
X31599Y-20475D01*
X31537Y-20537D01*
X31537Y-20863D01*
X31838Y-20863D01*
X31900Y-20801D01*
X31900Y-21199D01*
X31838Y-21137D01*
X31537Y-21137D01*
X31537Y-21150D01*
X31313Y-21150D01*
X31313Y-21137D01*
X31275Y-21137D01*
X31275Y-20863D01*
X31313Y-20863D01*
X31313Y-20537D01*
X31251Y-20475D01*
X31151Y-20476D01*
X31059Y-20514D01*
X31000Y-20573D01*
X30996Y-20569D01*
X31358Y-20208D01*
X31379Y-20259D01*
X31449Y-20329D01*
X31540Y-20367D01*
X31639Y-20367D01*
X32389Y-20367D01*
X32389Y-21088D01*
X32389Y-21088D01*
G37*
G54D28*
X32389Y-21088D02*
X32249Y-21228D01*
X31899Y-21228D01*
X31899Y-21226D01*
X31900Y-21199D01*
X31900Y-20801D01*
X31899Y-20774D01*
X31899Y-20675D01*
X31861Y-20584D01*
X31791Y-20514D01*
X31699Y-20476D01*
X31599Y-20475D01*
X31537Y-20537D01*
X31537Y-20863D01*
X31838Y-20863D01*
X31900Y-20801D01*
X31900Y-21199D01*
X31838Y-21137D01*
X31537Y-21137D01*
X31537Y-21150D01*
X31313Y-21150D01*
X31313Y-21137D01*
X31275Y-21137D01*
X31275Y-20863D01*
X31313Y-20863D01*
X31313Y-20537D01*
X31251Y-20475D01*
X31151Y-20476D01*
X31059Y-20514D01*
X31000Y-20573D01*
X30996Y-20569D01*
X31358Y-20208D01*
X31379Y-20259D01*
X31449Y-20329D01*
X31540Y-20367D01*
X31639Y-20367D01*
X32389Y-20367D01*
X32389Y-21088D01*
G54D10*
G36*
X36217Y-29203D02*
X25570Y-29203D01*
X25570Y-23296D01*
X25570Y-22400D01*
X25570Y-22100D01*
X25570Y-21204D01*
X25457Y-21174D01*
X25216Y-21319D01*
X25041Y-21554D01*
X24970Y-21838D01*
X24970Y-22100D01*
X25570Y-22100D01*
X25570Y-22400D01*
X24970Y-22400D01*
X24970Y-22662D01*
X25041Y-22946D01*
X25216Y-23181D01*
X25457Y-23326D01*
X25570Y-23296D01*
X25570Y-29203D01*
X24163Y-29203D01*
X24957Y-28410D01*
X24957Y-28409D01*
X25029Y-28303D01*
X25029Y-28302D01*
X25032Y-28281D01*
X25053Y-28176D01*
X25054Y-28176D01*
X25054Y-28099D01*
X25072Y-28099D01*
X25164Y-28061D01*
X25234Y-27991D01*
X25272Y-27900D01*
X25272Y-27801D01*
X25272Y-27101D01*
X25234Y-27009D01*
X25225Y-27000D01*
X25234Y-26991D01*
X25272Y-26900D01*
X25272Y-26801D01*
X25272Y-26101D01*
X25234Y-26009D01*
X25225Y-26000D01*
X25234Y-25991D01*
X25272Y-25900D01*
X25272Y-25801D01*
X25272Y-25101D01*
X25234Y-25009D01*
X25164Y-24939D01*
X25073Y-24901D01*
X24974Y-24901D01*
X24376Y-24901D01*
X24284Y-24939D01*
X24214Y-25009D01*
X24176Y-25100D01*
X24176Y-25170D01*
X24066Y-25170D01*
X24066Y-18000D01*
X24176Y-17890D01*
X24176Y-17899D01*
X24214Y-17991D01*
X24223Y-18000D01*
X24214Y-18009D01*
X24176Y-18100D01*
X24176Y-18199D01*
X24176Y-18899D01*
X24214Y-18991D01*
X24223Y-19000D01*
X24214Y-19009D01*
X24176Y-19100D01*
X24176Y-19199D01*
X24176Y-19899D01*
X24214Y-19991D01*
X24284Y-20061D01*
X24375Y-20099D01*
X24474Y-20099D01*
X25072Y-20099D01*
X25164Y-20061D01*
X25234Y-19991D01*
X25272Y-19900D01*
X25272Y-19830D01*
X25300Y-19830D01*
X25426Y-19805D01*
X25427Y-19805D01*
X25533Y-19733D01*
X25833Y-19434D01*
X25833Y-19433D01*
X25905Y-19327D01*
X25905Y-19326D01*
X25908Y-19305D01*
X25929Y-19200D01*
X25930Y-19200D01*
X25930Y-17000D01*
X25929Y-16999D01*
X25905Y-16874D01*
X25904Y-16873D01*
X25880Y-16838D01*
X25833Y-16767D01*
X25833Y-16766D01*
X25139Y-16073D01*
X28947Y-16073D01*
X28935Y-16081D01*
X28559Y-16457D01*
X27462Y-16457D01*
X27336Y-16482D01*
X27300Y-16506D01*
X27228Y-16554D01*
X26267Y-17516D01*
X26195Y-17622D01*
X26170Y-17749D01*
X26170Y-21286D01*
X25983Y-21174D01*
X25870Y-21204D01*
X25870Y-22050D01*
X25870Y-22100D01*
X25870Y-22400D01*
X25870Y-22450D01*
X25870Y-23296D01*
X25983Y-23326D01*
X26170Y-23213D01*
X26170Y-23345D01*
X26195Y-23472D01*
X26267Y-23578D01*
X26311Y-23623D01*
X26312Y-23623D01*
X26383Y-23670D01*
X26418Y-23694D01*
X26419Y-23695D01*
X26545Y-23720D01*
X27554Y-23720D01*
X29067Y-25233D01*
X29068Y-25233D01*
X29139Y-25280D01*
X29174Y-25304D01*
X29175Y-25305D01*
X29296Y-25329D01*
X29295Y-25332D01*
X29295Y-25431D01*
X29295Y-25667D01*
X29329Y-25749D01*
X29295Y-25832D01*
X29295Y-25931D01*
X29295Y-26167D01*
X29329Y-26249D01*
X29295Y-26332D01*
X29295Y-26431D01*
X29295Y-26667D01*
X29329Y-26750D01*
X29295Y-26833D01*
X29294Y-26879D01*
X29356Y-26941D01*
X29827Y-26941D01*
X29827Y-26882D01*
X30127Y-26882D01*
X30127Y-26941D01*
X30127Y-27059D01*
X30127Y-27200D01*
X30127Y-27306D01*
X30189Y-27368D01*
X30361Y-27367D01*
X30460Y-27367D01*
X30551Y-27329D01*
X30621Y-27259D01*
X30645Y-27200D01*
X30660Y-27200D01*
X30660Y-27121D01*
X30660Y-27003D01*
X30793Y-27059D01*
X31002Y-27059D01*
X31195Y-26979D01*
X31341Y-26833D01*
X31341Y-26931D01*
X31341Y-27167D01*
X31379Y-27259D01*
X31449Y-27329D01*
X31540Y-27367D01*
X31639Y-27367D01*
X32505Y-27367D01*
X32574Y-27338D01*
X32574Y-27352D01*
X31851Y-28074D01*
X31791Y-28014D01*
X31700Y-27976D01*
X31601Y-27976D01*
X31151Y-27976D01*
X31059Y-28014D01*
X31000Y-28073D01*
X30941Y-28014D01*
X30850Y-27976D01*
X30751Y-27976D01*
X30660Y-27976D01*
X30301Y-27976D01*
X30209Y-28014D01*
X30139Y-28084D01*
X30103Y-28170D01*
X29954Y-28170D01*
X29827Y-28043D01*
X29827Y-27306D01*
X29827Y-27059D01*
X29356Y-27059D01*
X29294Y-27121D01*
X29295Y-27167D01*
X29333Y-27259D01*
X29403Y-27329D01*
X29494Y-27367D01*
X29593Y-27367D01*
X29765Y-27368D01*
X29827Y-27306D01*
X29827Y-28043D01*
X29051Y-27267D01*
X28945Y-27195D01*
X28824Y-27171D01*
X28824Y-27101D01*
X28786Y-27009D01*
X28777Y-27000D01*
X28786Y-26991D01*
X28824Y-26899D01*
X28825Y-26712D01*
X28825Y-26288D01*
X28824Y-26101D01*
X28786Y-26009D01*
X28777Y-26000D01*
X28786Y-25991D01*
X28824Y-25900D01*
X28824Y-25801D01*
X28824Y-25101D01*
X28786Y-25009D01*
X28716Y-24939D01*
X28625Y-24901D01*
X28526Y-24901D01*
X27928Y-24901D01*
X27836Y-24939D01*
X27766Y-25009D01*
X27728Y-25100D01*
X27728Y-25199D01*
X27728Y-25899D01*
X27766Y-25991D01*
X27775Y-26000D01*
X27766Y-26009D01*
X27728Y-26101D01*
X27727Y-26288D01*
X27789Y-26350D01*
X28076Y-26350D01*
X28127Y-26350D01*
X28425Y-26350D01*
X28476Y-26350D01*
X28763Y-26350D01*
X28825Y-26288D01*
X28825Y-26712D01*
X28763Y-26650D01*
X28476Y-26650D01*
X28425Y-26650D01*
X28127Y-26650D01*
X28076Y-26650D01*
X27789Y-26650D01*
X27727Y-26712D01*
X27728Y-26899D01*
X27766Y-26991D01*
X27775Y-27000D01*
X27766Y-27009D01*
X27728Y-27100D01*
X27728Y-27199D01*
X27728Y-27899D01*
X27766Y-27991D01*
X27836Y-28061D01*
X27927Y-28099D01*
X28026Y-28099D01*
X28624Y-28099D01*
X28716Y-28061D01*
X28786Y-27991D01*
X28802Y-27950D01*
X29585Y-28733D01*
X29691Y-28805D01*
X29692Y-28805D01*
X29712Y-28808D01*
X29818Y-28830D01*
X30103Y-28830D01*
X30139Y-28916D01*
X30209Y-28986D01*
X30300Y-29024D01*
X30399Y-29024D01*
X30849Y-29024D01*
X30941Y-28986D01*
X31000Y-28927D01*
X31059Y-28986D01*
X31150Y-29024D01*
X31249Y-29024D01*
X31699Y-29024D01*
X31791Y-28986D01*
X31861Y-28916D01*
X31897Y-28829D01*
X32019Y-28805D01*
X32020Y-28805D01*
X32126Y-28733D01*
X33102Y-27757D01*
X33102Y-27786D01*
X33140Y-27877D01*
X33210Y-27947D01*
X33302Y-27985D01*
X33407Y-27986D01*
X33469Y-27924D01*
X33469Y-27618D01*
X33437Y-27618D01*
X33437Y-27382D01*
X33469Y-27382D01*
X33469Y-27350D01*
X33705Y-27350D01*
X33705Y-27382D01*
X33737Y-27382D01*
X33737Y-27618D01*
X33705Y-27618D01*
X33705Y-27924D01*
X33767Y-27986D01*
X33872Y-27985D01*
X33964Y-27947D01*
X34000Y-27911D01*
X34036Y-27947D01*
X34127Y-27985D01*
X34226Y-27985D01*
X34698Y-27985D01*
X34790Y-27947D01*
X34860Y-27877D01*
X34898Y-27786D01*
X34898Y-27687D01*
X34898Y-27215D01*
X34860Y-27123D01*
X34790Y-27053D01*
X34751Y-27036D01*
X34754Y-27018D01*
X34755Y-27018D01*
X34755Y-27000D01*
X34791Y-26986D01*
X34861Y-26916D01*
X34899Y-26825D01*
X34899Y-26726D01*
X34899Y-26176D01*
X34861Y-26084D01*
X34791Y-26014D01*
X34700Y-25976D01*
X34601Y-25976D01*
X34151Y-25976D01*
X34059Y-26014D01*
X34000Y-26073D01*
X33941Y-26014D01*
X33850Y-25976D01*
X33780Y-25976D01*
X33841Y-25829D01*
X33841Y-25620D01*
X33761Y-25427D01*
X33664Y-25330D01*
X34431Y-25330D01*
X35261Y-26160D01*
X35261Y-28111D01*
X35286Y-28238D01*
X35358Y-28344D01*
X36217Y-29203D01*
X36217Y-29203D01*
G37*
G54D28*
X36217Y-29203D02*
X25570Y-29203D01*
X25570Y-23296D01*
X25570Y-22400D01*
X25570Y-22100D01*
X25570Y-21204D01*
X25457Y-21174D01*
X25216Y-21319D01*
X25041Y-21554D01*
X24970Y-21838D01*
X24970Y-22100D01*
X25570Y-22100D01*
X25570Y-22400D01*
X24970Y-22400D01*
X24970Y-22662D01*
X25041Y-22946D01*
X25216Y-23181D01*
X25457Y-23326D01*
X25570Y-23296D01*
X25570Y-29203D01*
X24163Y-29203D01*
X24957Y-28410D01*
X24957Y-28409D01*
X25029Y-28303D01*
X25029Y-28302D01*
X25032Y-28281D01*
X25053Y-28176D01*
X25054Y-28176D01*
X25054Y-28099D01*
X25072Y-28099D01*
X25164Y-28061D01*
X25234Y-27991D01*
X25272Y-27900D01*
X25272Y-27801D01*
X25272Y-27101D01*
X25234Y-27009D01*
X25225Y-27000D01*
X25234Y-26991D01*
X25272Y-26900D01*
X25272Y-26801D01*
X25272Y-26101D01*
X25234Y-26009D01*
X25225Y-26000D01*
X25234Y-25991D01*
X25272Y-25900D01*
X25272Y-25801D01*
X25272Y-25101D01*
X25234Y-25009D01*
X25164Y-24939D01*
X25073Y-24901D01*
X24974Y-24901D01*
X24376Y-24901D01*
X24284Y-24939D01*
X24214Y-25009D01*
X24176Y-25100D01*
X24176Y-25170D01*
X24066Y-25170D01*
X24066Y-18000D01*
X24176Y-17890D01*
X24176Y-17899D01*
X24214Y-17991D01*
X24223Y-18000D01*
X24214Y-18009D01*
X24176Y-18100D01*
X24176Y-18199D01*
X24176Y-18899D01*
X24214Y-18991D01*
X24223Y-19000D01*
X24214Y-19009D01*
X24176Y-19100D01*
X24176Y-19199D01*
X24176Y-19899D01*
X24214Y-19991D01*
X24284Y-20061D01*
X24375Y-20099D01*
X24474Y-20099D01*
X25072Y-20099D01*
X25164Y-20061D01*
X25234Y-19991D01*
X25272Y-19900D01*
X25272Y-19830D01*
X25300Y-19830D01*
X25426Y-19805D01*
X25427Y-19805D01*
X25533Y-19733D01*
X25833Y-19434D01*
X25833Y-19433D01*
X25905Y-19327D01*
X25905Y-19326D01*
X25908Y-19305D01*
X25929Y-19200D01*
X25930Y-19200D01*
X25930Y-17000D01*
X25929Y-16999D01*
X25905Y-16874D01*
X25904Y-16873D01*
X25880Y-16838D01*
X25833Y-16767D01*
X25833Y-16766D01*
X25139Y-16073D01*
X28947Y-16073D01*
X28935Y-16081D01*
X28559Y-16457D01*
X27462Y-16457D01*
X27336Y-16482D01*
X27300Y-16506D01*
X27228Y-16554D01*
X26267Y-17516D01*
X26195Y-17622D01*
X26170Y-17749D01*
X26170Y-21286D01*
X25983Y-21174D01*
X25870Y-21204D01*
X25870Y-22050D01*
X25870Y-22100D01*
X25870Y-22400D01*
X25870Y-22450D01*
X25870Y-23296D01*
X25983Y-23326D01*
X26170Y-23213D01*
X26170Y-23345D01*
X26195Y-23472D01*
X26267Y-23578D01*
X26311Y-23623D01*
X26312Y-23623D01*
X26383Y-23670D01*
X26418Y-23694D01*
X26419Y-23695D01*
X26545Y-23720D01*
X27554Y-23720D01*
X29067Y-25233D01*
X29068Y-25233D01*
X29139Y-25280D01*
X29174Y-25304D01*
X29175Y-25305D01*
X29296Y-25329D01*
X29295Y-25332D01*
X29295Y-25431D01*
X29295Y-25667D01*
X29329Y-25749D01*
X29295Y-25832D01*
X29295Y-25931D01*
X29295Y-26167D01*
X29329Y-26249D01*
X29295Y-26332D01*
X29295Y-26431D01*
X29295Y-26667D01*
X29329Y-26750D01*
X29295Y-26833D01*
X29294Y-26879D01*
X29356Y-26941D01*
X29827Y-26941D01*
X29827Y-26882D01*
X30127Y-26882D01*
X30127Y-26941D01*
X30127Y-27059D01*
X30127Y-27200D01*
X30127Y-27306D01*
X30189Y-27368D01*
X30361Y-27367D01*
X30460Y-27367D01*
X30551Y-27329D01*
X30621Y-27259D01*
X30645Y-27200D01*
X30660Y-27200D01*
X30660Y-27121D01*
X30660Y-27003D01*
X30793Y-27059D01*
X31002Y-27059D01*
X31195Y-26979D01*
X31341Y-26833D01*
X31341Y-26931D01*
X31341Y-27167D01*
X31379Y-27259D01*
X31449Y-27329D01*
X31540Y-27367D01*
X31639Y-27367D01*
X32505Y-27367D01*
X32574Y-27338D01*
X32574Y-27352D01*
X31851Y-28074D01*
X31791Y-28014D01*
X31700Y-27976D01*
X31601Y-27976D01*
X31151Y-27976D01*
X31059Y-28014D01*
X31000Y-28073D01*
X30941Y-28014D01*
X30850Y-27976D01*
X30751Y-27976D01*
X30660Y-27976D01*
X30301Y-27976D01*
X30209Y-28014D01*
X30139Y-28084D01*
X30103Y-28170D01*
X29954Y-28170D01*
X29827Y-28043D01*
X29827Y-27306D01*
X29827Y-27059D01*
X29356Y-27059D01*
X29294Y-27121D01*
X29295Y-27167D01*
X29333Y-27259D01*
X29403Y-27329D01*
X29494Y-27367D01*
X29593Y-27367D01*
X29765Y-27368D01*
X29827Y-27306D01*
X29827Y-28043D01*
X29051Y-27267D01*
X28945Y-27195D01*
X28824Y-27171D01*
X28824Y-27101D01*
X28786Y-27009D01*
X28777Y-27000D01*
X28786Y-26991D01*
X28824Y-26899D01*
X28825Y-26712D01*
X28825Y-26288D01*
X28824Y-26101D01*
X28786Y-26009D01*
X28777Y-26000D01*
X28786Y-25991D01*
X28824Y-25900D01*
X28824Y-25801D01*
X28824Y-25101D01*
X28786Y-25009D01*
X28716Y-24939D01*
X28625Y-24901D01*
X28526Y-24901D01*
X27928Y-24901D01*
X27836Y-24939D01*
X27766Y-25009D01*
X27728Y-25100D01*
X27728Y-25199D01*
X27728Y-25899D01*
X27766Y-25991D01*
X27775Y-26000D01*
X27766Y-26009D01*
X27728Y-26101D01*
X27727Y-26288D01*
X27789Y-26350D01*
X28076Y-26350D01*
X28127Y-26350D01*
X28425Y-26350D01*
X28476Y-26350D01*
X28763Y-26350D01*
X28825Y-26288D01*
X28825Y-26712D01*
X28763Y-26650D01*
X28476Y-26650D01*
X28425Y-26650D01*
X28127Y-26650D01*
X28076Y-26650D01*
X27789Y-26650D01*
X27727Y-26712D01*
X27728Y-26899D01*
X27766Y-26991D01*
X27775Y-27000D01*
X27766Y-27009D01*
X27728Y-27100D01*
X27728Y-27199D01*
X27728Y-27899D01*
X27766Y-27991D01*
X27836Y-28061D01*
X27927Y-28099D01*
X28026Y-28099D01*
X28624Y-28099D01*
X28716Y-28061D01*
X28786Y-27991D01*
X28802Y-27950D01*
X29585Y-28733D01*
X29691Y-28805D01*
X29692Y-28805D01*
X29712Y-28808D01*
X29818Y-28830D01*
X30103Y-28830D01*
X30139Y-28916D01*
X30209Y-28986D01*
X30300Y-29024D01*
X30399Y-29024D01*
X30849Y-29024D01*
X30941Y-28986D01*
X31000Y-28927D01*
X31059Y-28986D01*
X31150Y-29024D01*
X31249Y-29024D01*
X31699Y-29024D01*
X31791Y-28986D01*
X31861Y-28916D01*
X31897Y-28829D01*
X32019Y-28805D01*
X32020Y-28805D01*
X32126Y-28733D01*
X33102Y-27757D01*
X33102Y-27786D01*
X33140Y-27877D01*
X33210Y-27947D01*
X33302Y-27985D01*
X33407Y-27986D01*
X33469Y-27924D01*
X33469Y-27618D01*
X33437Y-27618D01*
X33437Y-27382D01*
X33469Y-27382D01*
X33469Y-27350D01*
X33705Y-27350D01*
X33705Y-27382D01*
X33737Y-27382D01*
X33737Y-27618D01*
X33705Y-27618D01*
X33705Y-27924D01*
X33767Y-27986D01*
X33872Y-27985D01*
X33964Y-27947D01*
X34000Y-27911D01*
X34036Y-27947D01*
X34127Y-27985D01*
X34226Y-27985D01*
X34698Y-27985D01*
X34790Y-27947D01*
X34860Y-27877D01*
X34898Y-27786D01*
X34898Y-27687D01*
X34898Y-27215D01*
X34860Y-27123D01*
X34790Y-27053D01*
X34751Y-27036D01*
X34754Y-27018D01*
X34755Y-27018D01*
X34755Y-27000D01*
X34791Y-26986D01*
X34861Y-26916D01*
X34899Y-26825D01*
X34899Y-26726D01*
X34899Y-26176D01*
X34861Y-26084D01*
X34791Y-26014D01*
X34700Y-25976D01*
X34601Y-25976D01*
X34151Y-25976D01*
X34059Y-26014D01*
X34000Y-26073D01*
X33941Y-26014D01*
X33850Y-25976D01*
X33780Y-25976D01*
X33841Y-25829D01*
X33841Y-25620D01*
X33761Y-25427D01*
X33664Y-25330D01*
X34431Y-25330D01*
X35261Y-26160D01*
X35261Y-28111D01*
X35286Y-28238D01*
X35358Y-28344D01*
X36217Y-29203D01*
G54D10*
G36*
X36368Y-22330D02*
X35530Y-23168D01*
X35530Y-22706D01*
X35530Y-22296D01*
X35374Y-21917D01*
X35084Y-21627D01*
X34706Y-21470D01*
X34296Y-21470D01*
X33917Y-21626D01*
X33627Y-21916D01*
X33470Y-22294D01*
X33470Y-22704D01*
X33626Y-23083D01*
X33916Y-23373D01*
X34294Y-23530D01*
X34704Y-23530D01*
X35083Y-23374D01*
X35373Y-23084D01*
X35530Y-22706D01*
X35530Y-23168D01*
X34778Y-23920D01*
X33469Y-23920D01*
X33469Y-20924D01*
X33469Y-20618D01*
X33163Y-20618D01*
X33101Y-20680D01*
X33102Y-20687D01*
X33102Y-20786D01*
X33140Y-20877D01*
X33210Y-20947D01*
X33302Y-20985D01*
X33407Y-20986D01*
X33469Y-20924D01*
X33469Y-23920D01*
X33013Y-23920D01*
X33004Y-23874D01*
X32932Y-23767D01*
X32825Y-23695D01*
X32699Y-23670D01*
X32594Y-23670D01*
X32506Y-23633D01*
X32407Y-23633D01*
X31900Y-23633D01*
X31900Y-23149D01*
X31900Y-22751D01*
X31899Y-22724D01*
X31899Y-22625D01*
X31861Y-22534D01*
X31791Y-22464D01*
X31699Y-22426D01*
X31599Y-22425D01*
X31537Y-22487D01*
X31537Y-22813D01*
X31838Y-22813D01*
X31900Y-22751D01*
X31900Y-23149D01*
X31838Y-23087D01*
X31537Y-23087D01*
X31537Y-23413D01*
X31599Y-23475D01*
X31699Y-23474D01*
X31791Y-23436D01*
X31861Y-23366D01*
X31899Y-23275D01*
X31899Y-23176D01*
X31900Y-23149D01*
X31900Y-23633D01*
X31541Y-23633D01*
X31451Y-23670D01*
X30839Y-23670D01*
X30733Y-23691D01*
X30712Y-23695D01*
X30662Y-23728D01*
X30407Y-23474D01*
X30849Y-23474D01*
X30941Y-23436D01*
X31000Y-23377D01*
X31059Y-23436D01*
X31151Y-23474D01*
X31251Y-23475D01*
X31313Y-23413D01*
X31313Y-23087D01*
X31275Y-23087D01*
X31275Y-22813D01*
X31313Y-22813D01*
X31313Y-22487D01*
X31251Y-22425D01*
X31151Y-22426D01*
X31059Y-22464D01*
X31000Y-22523D01*
X30941Y-22464D01*
X30850Y-22426D01*
X30751Y-22426D01*
X30621Y-22426D01*
X30608Y-22363D01*
X30605Y-22343D01*
X30605Y-22342D01*
X30533Y-22236D01*
X30173Y-21876D01*
X30233Y-21888D01*
X32386Y-21888D01*
X32512Y-21863D01*
X32513Y-21863D01*
X32619Y-21791D01*
X32952Y-21459D01*
X32952Y-21458D01*
X32999Y-21387D01*
X33023Y-21352D01*
X33024Y-21351D01*
X33048Y-21226D01*
X33049Y-21225D01*
X33049Y-19830D01*
X33103Y-19830D01*
X33139Y-19916D01*
X33209Y-19986D01*
X33290Y-20019D01*
X33210Y-20053D01*
X33140Y-20123D01*
X33102Y-20214D01*
X33102Y-20313D01*
X33101Y-20320D01*
X33163Y-20382D01*
X33469Y-20382D01*
X33469Y-20350D01*
X33705Y-20350D01*
X33705Y-20382D01*
X33737Y-20382D01*
X33737Y-20618D01*
X33705Y-20618D01*
X33705Y-20924D01*
X33767Y-20986D01*
X33872Y-20985D01*
X33964Y-20947D01*
X34000Y-20911D01*
X34036Y-20947D01*
X34127Y-20985D01*
X34226Y-20985D01*
X34698Y-20985D01*
X34790Y-20947D01*
X34860Y-20877D01*
X34898Y-20786D01*
X34898Y-20687D01*
X34898Y-20215D01*
X34860Y-20123D01*
X34790Y-20053D01*
X34751Y-20036D01*
X34754Y-20018D01*
X34755Y-20018D01*
X34755Y-20000D01*
X34791Y-19986D01*
X34861Y-19916D01*
X34899Y-19825D01*
X34899Y-19726D01*
X34899Y-19474D01*
X36368Y-20943D01*
X36368Y-22330D01*
X36368Y-22330D01*
G37*
G54D28*
X36368Y-22330D02*
X35530Y-23168D01*
X35530Y-22706D01*
X35530Y-22296D01*
X35374Y-21917D01*
X35084Y-21627D01*
X34706Y-21470D01*
X34296Y-21470D01*
X33917Y-21626D01*
X33627Y-21916D01*
X33470Y-22294D01*
X33470Y-22704D01*
X33626Y-23083D01*
X33916Y-23373D01*
X34294Y-23530D01*
X34704Y-23530D01*
X35083Y-23374D01*
X35373Y-23084D01*
X35530Y-22706D01*
X35530Y-23168D01*
X34778Y-23920D01*
X33469Y-23920D01*
X33469Y-20924D01*
X33469Y-20618D01*
X33163Y-20618D01*
X33101Y-20680D01*
X33102Y-20687D01*
X33102Y-20786D01*
X33140Y-20877D01*
X33210Y-20947D01*
X33302Y-20985D01*
X33407Y-20986D01*
X33469Y-20924D01*
X33469Y-23920D01*
X33013Y-23920D01*
X33004Y-23874D01*
X32932Y-23767D01*
X32825Y-23695D01*
X32699Y-23670D01*
X32594Y-23670D01*
X32506Y-23633D01*
X32407Y-23633D01*
X31900Y-23633D01*
X31900Y-23149D01*
X31900Y-22751D01*
X31899Y-22724D01*
X31899Y-22625D01*
X31861Y-22534D01*
X31791Y-22464D01*
X31699Y-22426D01*
X31599Y-22425D01*
X31537Y-22487D01*
X31537Y-22813D01*
X31838Y-22813D01*
X31900Y-22751D01*
X31900Y-23149D01*
X31838Y-23087D01*
X31537Y-23087D01*
X31537Y-23413D01*
X31599Y-23475D01*
X31699Y-23474D01*
X31791Y-23436D01*
X31861Y-23366D01*
X31899Y-23275D01*
X31899Y-23176D01*
X31900Y-23149D01*
X31900Y-23633D01*
X31541Y-23633D01*
X31451Y-23670D01*
X30839Y-23670D01*
X30733Y-23691D01*
X30712Y-23695D01*
X30662Y-23728D01*
X30407Y-23474D01*
X30849Y-23474D01*
X30941Y-23436D01*
X31000Y-23377D01*
X31059Y-23436D01*
X31151Y-23474D01*
X31251Y-23475D01*
X31313Y-23413D01*
X31313Y-23087D01*
X31275Y-23087D01*
X31275Y-22813D01*
X31313Y-22813D01*
X31313Y-22487D01*
X31251Y-22425D01*
X31151Y-22426D01*
X31059Y-22464D01*
X31000Y-22523D01*
X30941Y-22464D01*
X30850Y-22426D01*
X30751Y-22426D01*
X30621Y-22426D01*
X30608Y-22363D01*
X30605Y-22343D01*
X30605Y-22342D01*
X30533Y-22236D01*
X30173Y-21876D01*
X30233Y-21888D01*
X32386Y-21888D01*
X32512Y-21863D01*
X32513Y-21863D01*
X32619Y-21791D01*
X32952Y-21459D01*
X32952Y-21458D01*
X32999Y-21387D01*
X33023Y-21352D01*
X33024Y-21351D01*
X33048Y-21226D01*
X33049Y-21225D01*
X33049Y-19830D01*
X33103Y-19830D01*
X33139Y-19916D01*
X33209Y-19986D01*
X33290Y-20019D01*
X33210Y-20053D01*
X33140Y-20123D01*
X33102Y-20214D01*
X33102Y-20313D01*
X33101Y-20320D01*
X33163Y-20382D01*
X33469Y-20382D01*
X33469Y-20350D01*
X33705Y-20350D01*
X33705Y-20382D01*
X33737Y-20382D01*
X33737Y-20618D01*
X33705Y-20618D01*
X33705Y-20924D01*
X33767Y-20986D01*
X33872Y-20985D01*
X33964Y-20947D01*
X34000Y-20911D01*
X34036Y-20947D01*
X34127Y-20985D01*
X34226Y-20985D01*
X34698Y-20985D01*
X34790Y-20947D01*
X34860Y-20877D01*
X34898Y-20786D01*
X34898Y-20687D01*
X34898Y-20215D01*
X34860Y-20123D01*
X34790Y-20053D01*
X34751Y-20036D01*
X34754Y-20018D01*
X34755Y-20018D01*
X34755Y-20000D01*
X34791Y-19986D01*
X34861Y-19916D01*
X34899Y-19825D01*
X34899Y-19726D01*
X34899Y-19474D01*
X36368Y-20943D01*
X36368Y-22330D01*
G54D10*
G36*
X36482Y-19400D02*
X36261Y-19400D01*
X35128Y-18267D01*
X35022Y-18195D01*
X34895Y-18170D01*
X32704Y-18170D01*
X32705Y-18168D01*
X32705Y-18069D01*
X32705Y-17833D01*
X32670Y-17750D01*
X32705Y-17668D01*
X32705Y-17569D01*
X32705Y-17333D01*
X32670Y-17250D01*
X32705Y-17168D01*
X32705Y-17069D01*
X32705Y-16968D01*
X34501Y-16968D01*
X36366Y-18833D01*
X36351Y-18871D01*
X36351Y-19129D01*
X36450Y-19368D01*
X36482Y-19400D01*
X36482Y-19400D01*
G37*
G54D28*
X36482Y-19400D02*
X36261Y-19400D01*
X35128Y-18267D01*
X35022Y-18195D01*
X34895Y-18170D01*
X32704Y-18170D01*
X32705Y-18168D01*
X32705Y-18069D01*
X32705Y-17833D01*
X32670Y-17750D01*
X32705Y-17668D01*
X32705Y-17569D01*
X32705Y-17333D01*
X32670Y-17250D01*
X32705Y-17168D01*
X32705Y-17069D01*
X32705Y-16968D01*
X34501Y-16968D01*
X36366Y-18833D01*
X36351Y-18871D01*
X36351Y-19129D01*
X36450Y-19368D01*
X36482Y-19400D01*
G54D10*
G36*
X39163Y-17398D02*
X39150Y-17412D01*
X39150Y-17800D01*
X39150Y-17850D01*
X39150Y-18150D01*
X38850Y-18150D01*
X38850Y-17850D01*
X38850Y-17800D01*
X38850Y-17412D01*
X38788Y-17350D01*
X38551Y-17351D01*
X38459Y-17389D01*
X38391Y-17456D01*
X38326Y-17391D01*
X38272Y-17444D01*
X38250Y-17400D01*
X38002Y-17350D01*
X37753Y-17398D01*
X37750Y-17400D01*
X37704Y-17492D01*
X37965Y-17753D01*
X38000Y-17788D01*
X38212Y-18000D01*
X38000Y-18212D01*
X37853Y-18358D01*
X37788Y-18385D01*
X37788Y-18000D01*
X37616Y-17828D01*
X37602Y-17753D01*
X37600Y-17750D01*
X37508Y-17704D01*
X37500Y-17712D01*
X37492Y-17704D01*
X37400Y-17750D01*
X37384Y-17827D01*
X37296Y-17915D01*
X37296Y-17492D01*
X37250Y-17400D01*
X37002Y-17350D01*
X36753Y-17398D01*
X36750Y-17400D01*
X36704Y-17492D01*
X37000Y-17788D01*
X37296Y-17492D01*
X37296Y-17915D01*
X37212Y-18000D01*
X37383Y-18171D01*
X37398Y-18247D01*
X37400Y-18250D01*
X37492Y-18296D01*
X37500Y-18288D01*
X37508Y-18296D01*
X37600Y-18250D01*
X37615Y-18172D01*
X37788Y-18000D01*
X37788Y-18385D01*
X37632Y-18450D01*
X37500Y-18582D01*
X37368Y-18450D01*
X37146Y-18358D01*
X37035Y-18247D01*
X37000Y-18212D01*
X36788Y-18000D01*
X36753Y-17965D01*
X36492Y-17704D01*
X36400Y-17750D01*
X36369Y-17902D01*
X35110Y-16644D01*
X38408Y-16644D01*
X39163Y-17398D01*
X39163Y-17398D01*
G37*
G54D28*
X39163Y-17398D02*
X39150Y-17412D01*
X39150Y-17800D01*
X39150Y-17850D01*
X39150Y-18150D01*
X38850Y-18150D01*
X38850Y-17850D01*
X38850Y-17800D01*
X38850Y-17412D01*
X38788Y-17350D01*
X38551Y-17351D01*
X38459Y-17389D01*
X38391Y-17456D01*
X38326Y-17391D01*
X38272Y-17444D01*
X38250Y-17400D01*
X38002Y-17350D01*
X37753Y-17398D01*
X37750Y-17400D01*
X37704Y-17492D01*
X37965Y-17753D01*
X38000Y-17788D01*
X38212Y-18000D01*
X38000Y-18212D01*
X37853Y-18358D01*
X37788Y-18385D01*
X37788Y-18000D01*
X37616Y-17828D01*
X37602Y-17753D01*
X37600Y-17750D01*
X37508Y-17704D01*
X37500Y-17712D01*
X37492Y-17704D01*
X37400Y-17750D01*
X37384Y-17827D01*
X37296Y-17915D01*
X37296Y-17492D01*
X37250Y-17400D01*
X37002Y-17350D01*
X36753Y-17398D01*
X36750Y-17400D01*
X36704Y-17492D01*
X37000Y-17788D01*
X37296Y-17492D01*
X37296Y-17915D01*
X37212Y-18000D01*
X37383Y-18171D01*
X37398Y-18247D01*
X37400Y-18250D01*
X37492Y-18296D01*
X37500Y-18288D01*
X37508Y-18296D01*
X37600Y-18250D01*
X37615Y-18172D01*
X37788Y-18000D01*
X37788Y-18385D01*
X37632Y-18450D01*
X37500Y-18582D01*
X37368Y-18450D01*
X37146Y-18358D01*
X37035Y-18247D01*
X37000Y-18212D01*
X36788Y-18000D01*
X36753Y-17965D01*
X36492Y-17704D01*
X36400Y-17750D01*
X36369Y-17902D01*
X35110Y-16644D01*
X38408Y-16644D01*
X39163Y-17398D01*
G54D10*
G36*
X39788Y-28367D02*
X39650Y-28505D01*
X39650Y-27002D01*
X39602Y-26753D01*
X39600Y-26750D01*
X39508Y-26704D01*
X39212Y-27000D01*
X39508Y-27296D01*
X39600Y-27250D01*
X39650Y-27002D01*
X39650Y-28505D01*
X39430Y-28725D01*
X39296Y-28725D01*
X39296Y-27508D01*
X39000Y-27212D01*
X38788Y-27424D01*
X38788Y-27000D01*
X38616Y-26828D01*
X38602Y-26753D01*
X38600Y-26750D01*
X38508Y-26704D01*
X38500Y-26712D01*
X38492Y-26704D01*
X38400Y-26750D01*
X38384Y-26827D01*
X38212Y-27000D01*
X38383Y-27171D01*
X38398Y-27247D01*
X38400Y-27250D01*
X38492Y-27296D01*
X38500Y-27288D01*
X38508Y-27296D01*
X38600Y-27250D01*
X38615Y-27172D01*
X38788Y-27000D01*
X38788Y-27424D01*
X38704Y-27508D01*
X38750Y-27600D01*
X38998Y-27650D01*
X39247Y-27602D01*
X39250Y-27600D01*
X39296Y-27508D01*
X39296Y-28725D01*
X38296Y-28725D01*
X36850Y-28725D01*
X36850Y-27588D01*
X36850Y-27150D01*
X36412Y-27150D01*
X36350Y-27212D01*
X36351Y-27351D01*
X36351Y-27450D01*
X36389Y-27541D01*
X36459Y-27611D01*
X36551Y-27649D01*
X36788Y-27650D01*
X36850Y-27588D01*
X36850Y-28725D01*
X36671Y-28725D01*
X35921Y-27975D01*
X35921Y-26024D01*
X35899Y-25918D01*
X35896Y-25898D01*
X35896Y-25897D01*
X35824Y-25791D01*
X34800Y-24767D01*
X34694Y-24695D01*
X34567Y-24670D01*
X32974Y-24670D01*
X33004Y-24626D01*
X33013Y-24580D01*
X34915Y-24580D01*
X35041Y-24555D01*
X35042Y-24555D01*
X35148Y-24483D01*
X36769Y-22862D01*
X37259Y-22862D01*
X37259Y-23178D01*
X37296Y-23267D01*
X37296Y-25237D01*
X37166Y-25366D01*
X37129Y-25351D01*
X36871Y-25351D01*
X36632Y-25450D01*
X36450Y-25632D01*
X36351Y-25871D01*
X36351Y-26129D01*
X36450Y-26368D01*
X36467Y-26385D01*
X36459Y-26389D01*
X36389Y-26459D01*
X36351Y-26550D01*
X36351Y-26649D01*
X36350Y-26788D01*
X36412Y-26850D01*
X36800Y-26850D01*
X36850Y-26850D01*
X37150Y-26850D01*
X37150Y-27150D01*
X37150Y-27200D01*
X37150Y-27588D01*
X37212Y-27650D01*
X37449Y-27649D01*
X37541Y-27611D01*
X37608Y-27543D01*
X37674Y-27609D01*
X37727Y-27555D01*
X37750Y-27600D01*
X37998Y-27650D01*
X38247Y-27602D01*
X38250Y-27600D01*
X38296Y-27508D01*
X38035Y-27247D01*
X38000Y-27212D01*
X37788Y-27000D01*
X38000Y-26788D01*
X38035Y-26753D01*
X38034Y-26752D01*
X38146Y-26641D01*
X38368Y-26550D01*
X38500Y-26418D01*
X38632Y-26550D01*
X38853Y-26641D01*
X39000Y-26788D01*
X39146Y-26641D01*
X39368Y-26550D01*
X39550Y-26368D01*
X39553Y-26359D01*
X39788Y-26593D01*
X39788Y-28367D01*
X39788Y-28367D01*
G37*
G54D28*
X39788Y-28367D02*
X39650Y-28505D01*
X39650Y-27002D01*
X39602Y-26753D01*
X39600Y-26750D01*
X39508Y-26704D01*
X39212Y-27000D01*
X39508Y-27296D01*
X39600Y-27250D01*
X39650Y-27002D01*
X39650Y-28505D01*
X39430Y-28725D01*
X39296Y-28725D01*
X39296Y-27508D01*
X39000Y-27212D01*
X38788Y-27424D01*
X38788Y-27000D01*
X38616Y-26828D01*
X38602Y-26753D01*
X38600Y-26750D01*
X38508Y-26704D01*
X38500Y-26712D01*
X38492Y-26704D01*
X38400Y-26750D01*
X38384Y-26827D01*
X38212Y-27000D01*
X38383Y-27171D01*
X38398Y-27247D01*
X38400Y-27250D01*
X38492Y-27296D01*
X38500Y-27288D01*
X38508Y-27296D01*
X38600Y-27250D01*
X38615Y-27172D01*
X38788Y-27000D01*
X38788Y-27424D01*
X38704Y-27508D01*
X38750Y-27600D01*
X38998Y-27650D01*
X39247Y-27602D01*
X39250Y-27600D01*
X39296Y-27508D01*
X39296Y-28725D01*
X38296Y-28725D01*
X36850Y-28725D01*
X36850Y-27588D01*
X36850Y-27150D01*
X36412Y-27150D01*
X36350Y-27212D01*
X36351Y-27351D01*
X36351Y-27450D01*
X36389Y-27541D01*
X36459Y-27611D01*
X36551Y-27649D01*
X36788Y-27650D01*
X36850Y-27588D01*
X36850Y-28725D01*
X36671Y-28725D01*
X35921Y-27975D01*
X35921Y-26024D01*
X35899Y-25918D01*
X35896Y-25898D01*
X35896Y-25897D01*
X35824Y-25791D01*
X34800Y-24767D01*
X34694Y-24695D01*
X34567Y-24670D01*
X32974Y-24670D01*
X33004Y-24626D01*
X33013Y-24580D01*
X34915Y-24580D01*
X35041Y-24555D01*
X35042Y-24555D01*
X35148Y-24483D01*
X36769Y-22862D01*
X37259Y-22862D01*
X37259Y-23178D01*
X37296Y-23267D01*
X37296Y-25237D01*
X37166Y-25366D01*
X37129Y-25351D01*
X36871Y-25351D01*
X36632Y-25450D01*
X36450Y-25632D01*
X36351Y-25871D01*
X36351Y-26129D01*
X36450Y-26368D01*
X36467Y-26385D01*
X36459Y-26389D01*
X36389Y-26459D01*
X36351Y-26550D01*
X36351Y-26649D01*
X36350Y-26788D01*
X36412Y-26850D01*
X36800Y-26850D01*
X36850Y-26850D01*
X37150Y-26850D01*
X37150Y-27150D01*
X37150Y-27200D01*
X37150Y-27588D01*
X37212Y-27650D01*
X37449Y-27649D01*
X37541Y-27611D01*
X37608Y-27543D01*
X37674Y-27609D01*
X37727Y-27555D01*
X37750Y-27600D01*
X37998Y-27650D01*
X38247Y-27602D01*
X38250Y-27600D01*
X38296Y-27508D01*
X38035Y-27247D01*
X38000Y-27212D01*
X37788Y-27000D01*
X38000Y-26788D01*
X38035Y-26753D01*
X38034Y-26752D01*
X38146Y-26641D01*
X38368Y-26550D01*
X38500Y-26418D01*
X38632Y-26550D01*
X38853Y-26641D01*
X39000Y-26788D01*
X39146Y-26641D01*
X39368Y-26550D01*
X39550Y-26368D01*
X39553Y-26359D01*
X39788Y-26593D01*
X39788Y-28367D01*
G54D10*
G36*
X41014Y-29203D02*
X39885Y-29203D01*
X40351Y-28738D01*
X40351Y-28737D01*
X40423Y-28631D01*
X40423Y-28630D01*
X40426Y-28609D01*
X40447Y-28504D01*
X40448Y-28504D01*
X40448Y-26457D01*
X40426Y-26351D01*
X40423Y-26331D01*
X40423Y-26330D01*
X40351Y-26224D01*
X40351Y-26223D01*
X39894Y-25767D01*
X39788Y-25695D01*
X39661Y-25670D01*
X39565Y-25670D01*
X39550Y-25632D01*
X39368Y-25450D01*
X39129Y-25351D01*
X38871Y-25351D01*
X38704Y-25420D01*
X38704Y-23267D01*
X38741Y-23179D01*
X38741Y-23146D01*
X38749Y-23158D01*
X38856Y-23230D01*
X38982Y-23255D01*
X38999Y-23255D01*
X39014Y-23291D01*
X39084Y-23361D01*
X39175Y-23399D01*
X39274Y-23399D01*
X39824Y-23399D01*
X39916Y-23361D01*
X39986Y-23291D01*
X40024Y-23200D01*
X40024Y-23101D01*
X40024Y-22651D01*
X39986Y-22559D01*
X39927Y-22500D01*
X39986Y-22441D01*
X40024Y-22349D01*
X40025Y-22249D01*
X40025Y-21901D01*
X40024Y-21801D01*
X39986Y-21709D01*
X39916Y-21639D01*
X39825Y-21601D01*
X39726Y-21601D01*
X39699Y-21600D01*
X39637Y-21662D01*
X39637Y-21963D01*
X39963Y-21963D01*
X40025Y-21901D01*
X40025Y-22249D01*
X39963Y-22187D01*
X39637Y-22187D01*
X39637Y-22225D01*
X39363Y-22225D01*
X39363Y-22187D01*
X39037Y-22187D01*
X39008Y-22215D01*
X38937Y-22202D01*
X38741Y-22202D01*
X38741Y-22176D01*
X38741Y-21954D01*
X38778Y-21954D01*
X38971Y-21874D01*
X38975Y-21869D01*
X38975Y-21901D01*
X39037Y-21963D01*
X39363Y-21963D01*
X39363Y-21662D01*
X39301Y-21600D01*
X39274Y-21601D01*
X39175Y-21601D01*
X39170Y-21602D01*
X39199Y-21534D01*
X39199Y-21325D01*
X39119Y-21132D01*
X38972Y-20984D01*
X38779Y-20904D01*
X38570Y-20904D01*
X38377Y-20984D01*
X38229Y-21131D01*
X38149Y-21324D01*
X38149Y-21389D01*
X38141Y-21395D01*
X38069Y-21502D01*
X38044Y-21628D01*
X38044Y-21732D01*
X38007Y-21821D01*
X38007Y-21920D01*
X38007Y-22198D01*
X37993Y-22198D01*
X37993Y-22176D01*
X37993Y-21822D01*
X37956Y-21732D01*
X37956Y-21628D01*
X37955Y-21627D01*
X37931Y-21502D01*
X37930Y-21501D01*
X37906Y-21466D01*
X37859Y-21395D01*
X37859Y-21394D01*
X37804Y-21339D01*
X37804Y-20662D01*
X38832Y-19633D01*
X38871Y-19649D01*
X39129Y-19649D01*
X39368Y-19550D01*
X39550Y-19368D01*
X39649Y-19129D01*
X39649Y-19060D01*
X39877Y-18832D01*
X39949Y-18726D01*
X39949Y-18725D01*
X39952Y-18704D01*
X39973Y-18599D01*
X39974Y-18599D01*
X39974Y-17413D01*
X39952Y-17307D01*
X39949Y-17287D01*
X39949Y-17286D01*
X39877Y-17180D01*
X39877Y-17179D01*
X38778Y-16081D01*
X38766Y-16073D01*
X41014Y-16073D01*
X41014Y-29203D01*
X41014Y-29203D01*
G37*
G54D28*
X41014Y-29203D02*
X39885Y-29203D01*
X40351Y-28738D01*
X40351Y-28737D01*
X40423Y-28631D01*
X40423Y-28630D01*
X40426Y-28609D01*
X40447Y-28504D01*
X40448Y-28504D01*
X40448Y-26457D01*
X40426Y-26351D01*
X40423Y-26331D01*
X40423Y-26330D01*
X40351Y-26224D01*
X40351Y-26223D01*
X39894Y-25767D01*
X39788Y-25695D01*
X39661Y-25670D01*
X39565Y-25670D01*
X39550Y-25632D01*
X39368Y-25450D01*
X39129Y-25351D01*
X38871Y-25351D01*
X38704Y-25420D01*
X38704Y-23267D01*
X38741Y-23179D01*
X38741Y-23146D01*
X38749Y-23158D01*
X38856Y-23230D01*
X38982Y-23255D01*
X38999Y-23255D01*
X39014Y-23291D01*
X39084Y-23361D01*
X39175Y-23399D01*
X39274Y-23399D01*
X39824Y-23399D01*
X39916Y-23361D01*
X39986Y-23291D01*
X40024Y-23200D01*
X40024Y-23101D01*
X40024Y-22651D01*
X39986Y-22559D01*
X39927Y-22500D01*
X39986Y-22441D01*
X40024Y-22349D01*
X40025Y-22249D01*
X40025Y-21901D01*
X40024Y-21801D01*
X39986Y-21709D01*
X39916Y-21639D01*
X39825Y-21601D01*
X39726Y-21601D01*
X39699Y-21600D01*
X39637Y-21662D01*
X39637Y-21963D01*
X39963Y-21963D01*
X40025Y-21901D01*
X40025Y-22249D01*
X39963Y-22187D01*
X39637Y-22187D01*
X39637Y-22225D01*
X39363Y-22225D01*
X39363Y-22187D01*
X39037Y-22187D01*
X39008Y-22215D01*
X38937Y-22202D01*
X38741Y-22202D01*
X38741Y-22176D01*
X38741Y-21954D01*
X38778Y-21954D01*
X38971Y-21874D01*
X38975Y-21869D01*
X38975Y-21901D01*
X39037Y-21963D01*
X39363Y-21963D01*
X39363Y-21662D01*
X39301Y-21600D01*
X39274Y-21601D01*
X39175Y-21601D01*
X39170Y-21602D01*
X39199Y-21534D01*
X39199Y-21325D01*
X39119Y-21132D01*
X38972Y-20984D01*
X38779Y-20904D01*
X38570Y-20904D01*
X38377Y-20984D01*
X38229Y-21131D01*
X38149Y-21324D01*
X38149Y-21389D01*
X38141Y-21395D01*
X38069Y-21502D01*
X38044Y-21628D01*
X38044Y-21732D01*
X38007Y-21821D01*
X38007Y-21920D01*
X38007Y-22198D01*
X37993Y-22198D01*
X37993Y-22176D01*
X37993Y-21822D01*
X37956Y-21732D01*
X37956Y-21628D01*
X37955Y-21627D01*
X37931Y-21502D01*
X37930Y-21501D01*
X37906Y-21466D01*
X37859Y-21395D01*
X37859Y-21394D01*
X37804Y-21339D01*
X37804Y-20662D01*
X38832Y-19633D01*
X38871Y-19649D01*
X39129Y-19649D01*
X39368Y-19550D01*
X39550Y-19368D01*
X39649Y-19129D01*
X39649Y-19060D01*
X39877Y-18832D01*
X39949Y-18726D01*
X39949Y-18725D01*
X39952Y-18704D01*
X39973Y-18599D01*
X39974Y-18599D01*
X39974Y-17413D01*
X39952Y-17307D01*
X39949Y-17287D01*
X39949Y-17286D01*
X39877Y-17180D01*
X39877Y-17179D01*
X38778Y-16081D01*
X38766Y-16073D01*
X41014Y-16073D01*
X41014Y-29203D01*
M02*
