G04 (created by PCBNEW (2013-07-07 BZR 4022)-stable) date 2014-06-17 1:34:36 PM*
%MOIN*%
G04 Gerber Fmt 3.4, Leading zero omitted, Abs format*
%FSLAX34Y34*%
G01*
G70*
G90*
G04 APERTURE LIST*
%ADD10C,0.00590551*%
%ADD11C,0.0787*%
%ADD12R,0.045X0.055*%
%ADD13R,0.0787X0.0787*%
%ADD14C,0.0787402*%
%ADD15C,0.045*%
%ADD16C,0.012*%
%ADD17C,0.014*%
%ADD18C,0.01*%
G04 APERTURE END LIST*
G54D10*
G54D11*
X13543Y-19133D03*
X11574Y-19133D03*
X15511Y-19133D03*
G54D12*
X19653Y-19291D03*
X20503Y-19291D03*
G54D13*
X19216Y-8858D03*
G54D11*
X18216Y-8858D03*
X17216Y-8858D03*
X16216Y-8858D03*
G54D14*
X23677Y-11814D03*
X24696Y-10051D03*
X26460Y-9031D03*
X28500Y-9031D03*
X30263Y-10051D03*
X31283Y-11814D03*
X29645Y-12834D03*
X25314Y-12834D03*
X23677Y-13854D03*
X24696Y-15618D03*
X26460Y-16637D03*
X28500Y-16637D03*
X30263Y-15618D03*
X31283Y-13854D03*
G54D12*
X23295Y-19291D03*
X24145Y-19291D03*
G54D11*
X18307Y-19110D03*
X17307Y-18110D03*
G54D13*
X19307Y-18110D03*
G54D11*
X21850Y-19110D03*
X20850Y-18110D03*
G54D13*
X22850Y-18110D03*
G54D11*
X25393Y-19110D03*
X24393Y-18110D03*
G54D13*
X26393Y-18110D03*
G54D11*
X11204Y-14566D03*
X12204Y-13566D03*
G54D13*
X12204Y-15566D03*
X28224Y-18996D03*
G54D11*
X29224Y-18996D03*
X30224Y-18996D03*
X31224Y-18996D03*
G54D15*
X23523Y-15797D03*
X20275Y-14862D03*
X14386Y-14399D03*
X15216Y-16416D03*
X15022Y-14483D03*
X17013Y-16423D03*
X18433Y-12520D03*
X22096Y-11251D03*
X13306Y-12652D03*
X15746Y-12543D03*
X21065Y-13304D03*
X13119Y-14669D03*
X22047Y-13385D03*
X11102Y-12677D03*
X14468Y-9547D03*
X20964Y-12598D03*
X15425Y-10958D03*
X12931Y-17151D03*
X14302Y-12709D03*
X18208Y-14271D03*
G54D16*
X23523Y-17240D02*
X24393Y-18110D01*
X23523Y-15797D02*
X23523Y-17240D01*
X19676Y-14862D02*
X20275Y-14862D01*
X16713Y-17825D02*
X19676Y-14862D01*
X16713Y-18810D02*
X16713Y-17825D01*
X15796Y-19727D02*
X16713Y-18810D01*
X12168Y-19727D02*
X15796Y-19727D01*
X11574Y-19133D02*
X12168Y-19727D01*
X24145Y-18358D02*
X24393Y-18110D01*
X24145Y-19291D02*
X24145Y-18358D01*
X25212Y-19291D02*
X25393Y-19110D01*
X24145Y-19291D02*
X25212Y-19291D01*
X14386Y-15586D02*
X15216Y-16416D01*
X14386Y-14399D02*
X14386Y-15586D01*
X17307Y-18110D02*
X18246Y-18110D01*
X18246Y-19049D02*
X18307Y-19110D01*
X18246Y-18110D02*
X18246Y-19049D01*
X15678Y-13828D02*
X15022Y-14483D01*
X19856Y-13828D02*
X15678Y-13828D01*
X20944Y-14916D02*
X19856Y-13828D01*
X20944Y-15357D02*
X20944Y-14916D01*
X23709Y-15357D02*
X20944Y-15357D01*
X24102Y-15750D02*
X23709Y-15357D01*
X24102Y-15878D02*
X24102Y-15750D01*
X24862Y-16637D02*
X24102Y-15878D01*
X26460Y-16637D02*
X24862Y-16637D01*
X18246Y-18055D02*
X18246Y-18110D01*
X20944Y-15357D02*
X18246Y-18055D01*
X15511Y-18577D02*
X15511Y-19133D01*
X17013Y-17075D02*
X15511Y-18577D01*
X17013Y-16423D02*
X17013Y-17075D01*
X20503Y-18456D02*
X20850Y-18110D01*
X20503Y-19291D02*
X20503Y-18456D01*
X21669Y-19291D02*
X21850Y-19110D01*
X20503Y-19291D02*
X21669Y-19291D01*
G54D17*
X21703Y-10858D02*
X22096Y-11251D01*
X20094Y-10858D02*
X21703Y-10858D01*
X18216Y-8980D02*
X20094Y-10858D01*
X18216Y-8858D02*
X18216Y-8980D01*
X20094Y-10858D02*
X18433Y-12520D01*
X15736Y-12454D02*
X15835Y-12454D01*
X15519Y-12238D02*
X15736Y-12454D01*
X13720Y-12238D02*
X15519Y-12238D01*
X13306Y-12652D02*
X13720Y-12238D01*
X18367Y-12454D02*
X18433Y-12520D01*
X15835Y-12454D02*
X18367Y-12454D01*
X15835Y-12454D02*
X15746Y-12543D01*
G54D16*
X14483Y-13304D02*
X13119Y-14669D01*
X21065Y-13304D02*
X14483Y-13304D01*
X24521Y-12598D02*
X20964Y-12598D01*
X24758Y-12834D02*
X24521Y-12598D01*
X25314Y-12834D02*
X24758Y-12834D01*
X12204Y-13566D02*
X11204Y-14566D01*
X12204Y-13125D02*
X12204Y-13566D01*
X14370Y-10958D02*
X12204Y-13125D01*
X15425Y-10958D02*
X14370Y-10958D01*
X12931Y-15082D02*
X12931Y-17151D01*
X12694Y-14845D02*
X12931Y-15082D01*
X12694Y-14318D02*
X12694Y-14845D01*
X14302Y-12709D02*
X12694Y-14318D01*
X13543Y-18937D02*
X13543Y-19133D01*
X18208Y-14271D02*
X13543Y-18937D01*
G54D10*
G36*
X32083Y-19879D02*
X31872Y-19879D01*
X31872Y-19100D01*
X31867Y-18966D01*
X31867Y-13738D01*
X31867Y-11699D01*
X31778Y-11484D01*
X31614Y-11320D01*
X31400Y-11231D01*
X31167Y-11231D01*
X30953Y-11319D01*
X30847Y-11425D01*
X30847Y-9935D01*
X30758Y-9720D01*
X30594Y-9556D01*
X30380Y-9467D01*
X30148Y-9467D01*
X29933Y-9556D01*
X29769Y-9720D01*
X29680Y-9934D01*
X29679Y-10166D01*
X29768Y-10381D01*
X29932Y-10545D01*
X30147Y-10634D01*
X30379Y-10634D01*
X30593Y-10546D01*
X30758Y-10382D01*
X30847Y-10167D01*
X30847Y-9935D01*
X30847Y-11425D01*
X30788Y-11483D01*
X30699Y-11698D01*
X30699Y-11930D01*
X30788Y-12145D01*
X30952Y-12309D01*
X31166Y-12398D01*
X31399Y-12398D01*
X31613Y-12310D01*
X31778Y-12146D01*
X31867Y-11931D01*
X31867Y-11699D01*
X31867Y-13738D01*
X31778Y-13524D01*
X31614Y-13359D01*
X31400Y-13270D01*
X31167Y-13270D01*
X30953Y-13359D01*
X30788Y-13523D01*
X30699Y-13737D01*
X30699Y-13969D01*
X30788Y-14184D01*
X30952Y-14348D01*
X31166Y-14437D01*
X31399Y-14438D01*
X31613Y-14349D01*
X31778Y-14185D01*
X31867Y-13970D01*
X31867Y-13738D01*
X31867Y-18966D01*
X31862Y-18844D01*
X31783Y-18651D01*
X31678Y-18613D01*
X31607Y-18683D01*
X31607Y-18542D01*
X31568Y-18437D01*
X31328Y-18348D01*
X31072Y-18357D01*
X30880Y-18437D01*
X30847Y-18526D01*
X30847Y-15502D01*
X30758Y-15287D01*
X30594Y-15123D01*
X30380Y-15034D01*
X30229Y-15034D01*
X30229Y-12719D01*
X30140Y-12504D01*
X29976Y-12340D01*
X29762Y-12251D01*
X29530Y-12250D01*
X29315Y-12339D01*
X29151Y-12503D01*
X29083Y-12665D01*
X29083Y-8915D01*
X28995Y-8701D01*
X28831Y-8536D01*
X28616Y-8447D01*
X28384Y-8447D01*
X28169Y-8536D01*
X28005Y-8700D01*
X27916Y-8914D01*
X27916Y-9147D01*
X28004Y-9361D01*
X28168Y-9526D01*
X28383Y-9615D01*
X28615Y-9615D01*
X28830Y-9526D01*
X28994Y-9362D01*
X29083Y-9148D01*
X29083Y-8915D01*
X29083Y-12665D01*
X29062Y-12718D01*
X29061Y-12950D01*
X29150Y-13164D01*
X29314Y-13329D01*
X29529Y-13418D01*
X29761Y-13418D01*
X29975Y-13329D01*
X30140Y-13165D01*
X30229Y-12951D01*
X30229Y-12719D01*
X30229Y-15034D01*
X30148Y-15034D01*
X29933Y-15122D01*
X29769Y-15287D01*
X29680Y-15501D01*
X29679Y-15733D01*
X29768Y-15948D01*
X29932Y-16112D01*
X30147Y-16201D01*
X30379Y-16201D01*
X30593Y-16113D01*
X30758Y-15949D01*
X30847Y-15734D01*
X30847Y-15502D01*
X30847Y-18526D01*
X30841Y-18542D01*
X31224Y-18925D01*
X31607Y-18542D01*
X31607Y-18683D01*
X31295Y-18996D01*
X31678Y-19378D01*
X31783Y-19340D01*
X31872Y-19100D01*
X31872Y-19879D01*
X31607Y-19879D01*
X31607Y-19449D01*
X31224Y-19066D01*
X31153Y-19137D01*
X31153Y-18996D01*
X30770Y-18613D01*
X30694Y-18641D01*
X30555Y-18501D01*
X30340Y-18412D01*
X30108Y-18412D01*
X29894Y-18501D01*
X29730Y-18665D01*
X29724Y-18678D01*
X29719Y-18665D01*
X29555Y-18501D01*
X29340Y-18412D01*
X29108Y-18412D01*
X29083Y-18422D01*
X29083Y-16522D01*
X28995Y-16307D01*
X28831Y-16143D01*
X28616Y-16054D01*
X28384Y-16053D01*
X28169Y-16142D01*
X28005Y-16306D01*
X27916Y-16521D01*
X27916Y-16753D01*
X28004Y-16968D01*
X28168Y-17132D01*
X28383Y-17221D01*
X28615Y-17221D01*
X28830Y-17132D01*
X28994Y-16968D01*
X29083Y-16754D01*
X29083Y-16522D01*
X29083Y-18422D01*
X28894Y-18501D01*
X28807Y-18587D01*
X28807Y-18564D01*
X28779Y-18495D01*
X28725Y-18441D01*
X28655Y-18412D01*
X28580Y-18412D01*
X27793Y-18412D01*
X27723Y-18441D01*
X27669Y-18494D01*
X27640Y-18564D01*
X27640Y-18640D01*
X27640Y-19427D01*
X27669Y-19497D01*
X27723Y-19550D01*
X27792Y-19579D01*
X27868Y-19579D01*
X28655Y-19579D01*
X28725Y-19550D01*
X28778Y-19497D01*
X28807Y-19427D01*
X28807Y-19404D01*
X28893Y-19490D01*
X29107Y-19579D01*
X29339Y-19579D01*
X29554Y-19491D01*
X29718Y-19327D01*
X29724Y-19313D01*
X29729Y-19326D01*
X29893Y-19490D01*
X30107Y-19579D01*
X30339Y-19579D01*
X30554Y-19491D01*
X30694Y-19350D01*
X30770Y-19378D01*
X31153Y-18996D01*
X31153Y-19137D01*
X30841Y-19449D01*
X30880Y-19554D01*
X31120Y-19643D01*
X31376Y-19634D01*
X31568Y-19554D01*
X31607Y-19449D01*
X31607Y-19879D01*
X27108Y-19879D01*
X27108Y-9135D01*
X27099Y-8879D01*
X27019Y-8687D01*
X26914Y-8648D01*
X26843Y-8719D01*
X26843Y-8577D01*
X26804Y-8472D01*
X26564Y-8383D01*
X26308Y-8392D01*
X26116Y-8472D01*
X26077Y-8577D01*
X26460Y-8960D01*
X26843Y-8577D01*
X26843Y-8719D01*
X26531Y-9031D01*
X26914Y-9414D01*
X27019Y-9375D01*
X27108Y-9135D01*
X27108Y-19879D01*
X26977Y-19879D01*
X26977Y-18466D01*
X26977Y-17679D01*
X26948Y-17609D01*
X26894Y-17555D01*
X26825Y-17526D01*
X26749Y-17526D01*
X25962Y-17526D01*
X25892Y-17555D01*
X25839Y-17608D01*
X25810Y-17678D01*
X25810Y-17754D01*
X25810Y-18541D01*
X25839Y-18611D01*
X25892Y-18664D01*
X25962Y-18693D01*
X26037Y-18693D01*
X26824Y-18693D01*
X26894Y-18664D01*
X26948Y-18611D01*
X26977Y-18541D01*
X26977Y-18466D01*
X26977Y-19879D01*
X23245Y-19879D01*
X23245Y-19753D01*
X23245Y-19341D01*
X23245Y-19241D01*
X23245Y-18828D01*
X23182Y-18766D01*
X23020Y-18766D01*
X22929Y-18804D01*
X22858Y-18874D01*
X22820Y-18966D01*
X22820Y-19065D01*
X22820Y-19178D01*
X22882Y-19241D01*
X23245Y-19241D01*
X23245Y-19341D01*
X22882Y-19341D01*
X22820Y-19403D01*
X22820Y-19516D01*
X22820Y-19616D01*
X22858Y-19708D01*
X22929Y-19778D01*
X23020Y-19816D01*
X23182Y-19816D01*
X23245Y-19753D01*
X23245Y-19879D01*
X22433Y-19879D01*
X22433Y-18994D01*
X22345Y-18780D01*
X22181Y-18615D01*
X21966Y-18526D01*
X21734Y-18526D01*
X21520Y-18615D01*
X21356Y-18779D01*
X21266Y-18993D01*
X21266Y-19041D01*
X20918Y-19041D01*
X20918Y-18978D01*
X20889Y-18908D01*
X20836Y-18855D01*
X20766Y-18826D01*
X20753Y-18826D01*
X20753Y-18693D01*
X20965Y-18693D01*
X21180Y-18605D01*
X21344Y-18441D01*
X21433Y-18226D01*
X21433Y-17994D01*
X21345Y-17780D01*
X21181Y-17615D01*
X20966Y-17526D01*
X20734Y-17526D01*
X20520Y-17615D01*
X20356Y-17779D01*
X20266Y-17993D01*
X20266Y-18225D01*
X20303Y-18314D01*
X20272Y-18361D01*
X20253Y-18456D01*
X20253Y-18826D01*
X20241Y-18826D01*
X20171Y-18855D01*
X20117Y-18908D01*
X20111Y-18924D01*
X20090Y-18874D01*
X20020Y-18804D01*
X19928Y-18766D01*
X19766Y-18766D01*
X19703Y-18828D01*
X19703Y-19241D01*
X19711Y-19241D01*
X19711Y-19341D01*
X19703Y-19341D01*
X19703Y-19753D01*
X19766Y-19816D01*
X19928Y-19816D01*
X20020Y-19778D01*
X20090Y-19708D01*
X20111Y-19658D01*
X20117Y-19673D01*
X20170Y-19727D01*
X20240Y-19756D01*
X20316Y-19756D01*
X20766Y-19756D01*
X20836Y-19727D01*
X20889Y-19674D01*
X20918Y-19604D01*
X20918Y-19541D01*
X21456Y-19541D01*
X21519Y-19604D01*
X21733Y-19693D01*
X21965Y-19693D01*
X22180Y-19605D01*
X22344Y-19441D01*
X22433Y-19226D01*
X22433Y-18994D01*
X22433Y-19879D01*
X19603Y-19879D01*
X19603Y-19753D01*
X19603Y-19341D01*
X19603Y-19241D01*
X19603Y-18828D01*
X19541Y-18766D01*
X19379Y-18766D01*
X19287Y-18804D01*
X19216Y-18874D01*
X19178Y-18966D01*
X19178Y-19065D01*
X19178Y-19178D01*
X19241Y-19241D01*
X19603Y-19241D01*
X19603Y-19341D01*
X19241Y-19341D01*
X19178Y-19403D01*
X19178Y-19516D01*
X19178Y-19616D01*
X19216Y-19708D01*
X19287Y-19778D01*
X19379Y-19816D01*
X19541Y-19816D01*
X19603Y-19753D01*
X19603Y-19879D01*
X15998Y-19879D01*
X16890Y-18987D01*
X16890Y-18987D01*
X16890Y-18987D01*
X16944Y-18906D01*
X16944Y-18906D01*
X16959Y-18829D01*
X16963Y-18810D01*
X16963Y-18810D01*
X16963Y-18810D01*
X16963Y-18592D01*
X16976Y-18604D01*
X17190Y-18693D01*
X17422Y-18693D01*
X17637Y-18605D01*
X17801Y-18441D01*
X17835Y-18360D01*
X17996Y-18360D01*
X17996Y-18607D01*
X17976Y-18615D01*
X17812Y-18779D01*
X17723Y-18993D01*
X17723Y-19225D01*
X17812Y-19440D01*
X17976Y-19604D01*
X18190Y-19693D01*
X18422Y-19693D01*
X18637Y-19605D01*
X18801Y-19441D01*
X18890Y-19226D01*
X18890Y-18994D01*
X18802Y-18780D01*
X18638Y-18615D01*
X18496Y-18557D01*
X18496Y-18158D01*
X18723Y-17931D01*
X18723Y-18541D01*
X18752Y-18611D01*
X18805Y-18664D01*
X18875Y-18693D01*
X18951Y-18693D01*
X19738Y-18693D01*
X19808Y-18664D01*
X19861Y-18611D01*
X19890Y-18541D01*
X19890Y-18466D01*
X19890Y-17679D01*
X19861Y-17609D01*
X19808Y-17555D01*
X19738Y-17526D01*
X19662Y-17526D01*
X19128Y-17526D01*
X21048Y-15607D01*
X23153Y-15607D01*
X23108Y-15715D01*
X23108Y-15880D01*
X23171Y-16032D01*
X23273Y-16134D01*
X23273Y-17240D01*
X23292Y-17335D01*
X23346Y-17416D01*
X23843Y-17913D01*
X23810Y-17993D01*
X23810Y-18225D01*
X23895Y-18432D01*
X23895Y-18826D01*
X23882Y-18826D01*
X23812Y-18855D01*
X23759Y-18908D01*
X23752Y-18924D01*
X23732Y-18874D01*
X23661Y-18804D01*
X23569Y-18766D01*
X23433Y-18766D01*
X23433Y-18466D01*
X23433Y-17679D01*
X23405Y-17609D01*
X23351Y-17555D01*
X23281Y-17526D01*
X23206Y-17526D01*
X22419Y-17526D01*
X22349Y-17555D01*
X22295Y-17608D01*
X22266Y-17678D01*
X22266Y-17754D01*
X22266Y-18541D01*
X22295Y-18611D01*
X22349Y-18664D01*
X22418Y-18693D01*
X22494Y-18693D01*
X23281Y-18693D01*
X23351Y-18664D01*
X23404Y-18611D01*
X23433Y-18541D01*
X23433Y-18466D01*
X23433Y-18766D01*
X23407Y-18766D01*
X23345Y-18828D01*
X23345Y-19241D01*
X23353Y-19241D01*
X23353Y-19341D01*
X23345Y-19341D01*
X23345Y-19753D01*
X23407Y-19816D01*
X23569Y-19816D01*
X23661Y-19778D01*
X23732Y-19708D01*
X23752Y-19658D01*
X23759Y-19673D01*
X23812Y-19727D01*
X23882Y-19756D01*
X23958Y-19756D01*
X24408Y-19756D01*
X24477Y-19727D01*
X24531Y-19674D01*
X24560Y-19604D01*
X24560Y-19541D01*
X24999Y-19541D01*
X25062Y-19604D01*
X25277Y-19693D01*
X25509Y-19693D01*
X25723Y-19605D01*
X25888Y-19441D01*
X25977Y-19226D01*
X25977Y-18994D01*
X25888Y-18780D01*
X25724Y-18615D01*
X25510Y-18526D01*
X25278Y-18526D01*
X25063Y-18615D01*
X24899Y-18779D01*
X24810Y-18993D01*
X24810Y-19041D01*
X24560Y-19041D01*
X24560Y-18978D01*
X24531Y-18908D01*
X24478Y-18855D01*
X24408Y-18826D01*
X24395Y-18826D01*
X24395Y-18693D01*
X24509Y-18693D01*
X24723Y-18605D01*
X24888Y-18441D01*
X24977Y-18226D01*
X24977Y-17994D01*
X24888Y-17780D01*
X24724Y-17615D01*
X24510Y-17526D01*
X24278Y-17526D01*
X24197Y-17560D01*
X23773Y-17136D01*
X23773Y-16134D01*
X23875Y-16033D01*
X23889Y-15999D01*
X23926Y-16055D01*
X24685Y-16814D01*
X24766Y-16868D01*
X24766Y-16868D01*
X24862Y-16887D01*
X25932Y-16887D01*
X25965Y-16968D01*
X26129Y-17132D01*
X26344Y-17221D01*
X26576Y-17221D01*
X26790Y-17132D01*
X26955Y-16968D01*
X27044Y-16754D01*
X27044Y-16522D01*
X26955Y-16307D01*
X26843Y-16195D01*
X26843Y-9485D01*
X26460Y-9102D01*
X26389Y-9172D01*
X26389Y-9031D01*
X26006Y-8648D01*
X25901Y-8687D01*
X25812Y-8927D01*
X25822Y-9183D01*
X25901Y-9375D01*
X26006Y-9414D01*
X26389Y-9031D01*
X26389Y-9172D01*
X26077Y-9485D01*
X26116Y-9590D01*
X26356Y-9679D01*
X26612Y-9670D01*
X26804Y-9590D01*
X26843Y-9485D01*
X26843Y-16195D01*
X26791Y-16143D01*
X26577Y-16054D01*
X26345Y-16053D01*
X26130Y-16142D01*
X25966Y-16306D01*
X25932Y-16387D01*
X25898Y-16387D01*
X25898Y-12719D01*
X25810Y-12504D01*
X25646Y-12340D01*
X25431Y-12251D01*
X25280Y-12250D01*
X25280Y-9935D01*
X25191Y-9720D01*
X25027Y-9556D01*
X24813Y-9467D01*
X24581Y-9467D01*
X24366Y-9556D01*
X24202Y-9720D01*
X24113Y-9934D01*
X24113Y-10166D01*
X24201Y-10381D01*
X24365Y-10545D01*
X24580Y-10634D01*
X24812Y-10634D01*
X25027Y-10546D01*
X25191Y-10382D01*
X25280Y-10167D01*
X25280Y-9935D01*
X25280Y-12250D01*
X25199Y-12250D01*
X24984Y-12339D01*
X24820Y-12503D01*
X24808Y-12531D01*
X24698Y-12421D01*
X24617Y-12367D01*
X24521Y-12348D01*
X23914Y-12348D01*
X24007Y-12310D01*
X24171Y-12146D01*
X24260Y-11931D01*
X24260Y-11699D01*
X24172Y-11484D01*
X24008Y-11320D01*
X23793Y-11231D01*
X23561Y-11231D01*
X23346Y-11319D01*
X23182Y-11483D01*
X23093Y-11698D01*
X23093Y-11930D01*
X23182Y-12145D01*
X23346Y-12309D01*
X23439Y-12348D01*
X21301Y-12348D01*
X21199Y-12246D01*
X21047Y-12183D01*
X20882Y-12183D01*
X20729Y-12246D01*
X20612Y-12363D01*
X20549Y-12515D01*
X20549Y-12680D01*
X20612Y-12833D01*
X20729Y-12950D01*
X20803Y-12980D01*
X20728Y-13054D01*
X14544Y-13054D01*
X14654Y-12945D01*
X14717Y-12792D01*
X14717Y-12627D01*
X14672Y-12518D01*
X15311Y-12518D01*
X15311Y-12629D01*
X15377Y-12789D01*
X15500Y-12912D01*
X15660Y-12978D01*
X15833Y-12978D01*
X15993Y-12912D01*
X16115Y-12790D01*
X16138Y-12734D01*
X18051Y-12734D01*
X18064Y-12766D01*
X18186Y-12888D01*
X18346Y-12954D01*
X18519Y-12955D01*
X18679Y-12889D01*
X18801Y-12766D01*
X18867Y-12606D01*
X18868Y-12480D01*
X20210Y-11138D01*
X21587Y-11138D01*
X21661Y-11212D01*
X21661Y-11337D01*
X21727Y-11497D01*
X21849Y-11620D01*
X22009Y-11686D01*
X22182Y-11686D01*
X22342Y-11620D01*
X22464Y-11498D01*
X22531Y-11338D01*
X22531Y-11165D01*
X22465Y-11005D01*
X22342Y-10883D01*
X22183Y-10816D01*
X22057Y-10816D01*
X21901Y-10660D01*
X21810Y-10600D01*
X21703Y-10578D01*
X20210Y-10578D01*
X19093Y-9461D01*
X19651Y-9461D01*
X19728Y-9429D01*
X19787Y-9370D01*
X19819Y-9293D01*
X19820Y-9210D01*
X19820Y-8423D01*
X19788Y-8345D01*
X19729Y-8286D01*
X19651Y-8254D01*
X19568Y-8254D01*
X18781Y-8254D01*
X18704Y-8286D01*
X18645Y-8345D01*
X18619Y-8407D01*
X18558Y-8346D01*
X18337Y-8254D01*
X18097Y-8254D01*
X17875Y-8346D01*
X17705Y-8515D01*
X17703Y-8520D01*
X17547Y-8363D01*
X17333Y-8274D01*
X17100Y-8274D01*
X16886Y-8363D01*
X16746Y-8503D01*
X16670Y-8475D01*
X16599Y-8546D01*
X16599Y-8404D01*
X16560Y-8299D01*
X16320Y-8210D01*
X16064Y-8219D01*
X15872Y-8299D01*
X15833Y-8404D01*
X16216Y-8787D01*
X16599Y-8404D01*
X16599Y-8546D01*
X16287Y-8858D01*
X16670Y-9241D01*
X16746Y-9213D01*
X16885Y-9352D01*
X17099Y-9441D01*
X17332Y-9441D01*
X17546Y-9353D01*
X17703Y-9196D01*
X17704Y-9199D01*
X17874Y-9369D01*
X18095Y-9461D01*
X18301Y-9461D01*
X19698Y-10858D01*
X18472Y-12085D01*
X18346Y-12084D01*
X18186Y-12151D01*
X18163Y-12174D01*
X16599Y-12174D01*
X16599Y-9311D01*
X16216Y-8928D01*
X16145Y-8999D01*
X16145Y-8858D01*
X15762Y-8475D01*
X15657Y-8514D01*
X15568Y-8754D01*
X15578Y-9009D01*
X15657Y-9202D01*
X15762Y-9241D01*
X16145Y-8858D01*
X16145Y-8999D01*
X15833Y-9311D01*
X15872Y-9416D01*
X16112Y-9506D01*
X16368Y-9496D01*
X16560Y-9416D01*
X16599Y-9311D01*
X16599Y-12174D01*
X15993Y-12174D01*
X15833Y-12108D01*
X15785Y-12108D01*
X15717Y-12040D01*
X15626Y-11979D01*
X15519Y-11958D01*
X13724Y-11958D01*
X14474Y-11208D01*
X15088Y-11208D01*
X15190Y-11310D01*
X15342Y-11373D01*
X15507Y-11373D01*
X15660Y-11310D01*
X15777Y-11194D01*
X15840Y-11041D01*
X15840Y-10876D01*
X15777Y-10724D01*
X15660Y-10607D01*
X15508Y-10543D01*
X15343Y-10543D01*
X15190Y-10606D01*
X15088Y-10708D01*
X14370Y-10708D01*
X14370Y-10708D01*
X14351Y-10712D01*
X14275Y-10727D01*
X14194Y-10782D01*
X14194Y-10782D01*
X12027Y-12948D01*
X11973Y-13029D01*
X11973Y-13031D01*
X11874Y-13071D01*
X11710Y-13235D01*
X11621Y-13450D01*
X11621Y-13682D01*
X11654Y-13763D01*
X11401Y-14016D01*
X11321Y-13983D01*
X11089Y-13983D01*
X10874Y-14071D01*
X10710Y-14235D01*
X10621Y-14450D01*
X10621Y-14682D01*
X10709Y-14897D01*
X10873Y-15061D01*
X11088Y-15150D01*
X11320Y-15150D01*
X11534Y-15061D01*
X11699Y-14897D01*
X11788Y-14683D01*
X11788Y-14451D01*
X11754Y-14370D01*
X12008Y-14117D01*
X12088Y-14150D01*
X12320Y-14150D01*
X12534Y-14061D01*
X12699Y-13897D01*
X12788Y-13683D01*
X12788Y-13451D01*
X12699Y-13236D01*
X12573Y-13110D01*
X12893Y-12790D01*
X12937Y-12898D01*
X13060Y-13020D01*
X13219Y-13087D01*
X13392Y-13087D01*
X13552Y-13021D01*
X13675Y-12899D01*
X13741Y-12739D01*
X13741Y-12613D01*
X13836Y-12518D01*
X13932Y-12518D01*
X13887Y-12626D01*
X13887Y-12771D01*
X12517Y-14141D01*
X12463Y-14222D01*
X12444Y-14318D01*
X12444Y-14845D01*
X12463Y-14940D01*
X12491Y-14983D01*
X11773Y-14983D01*
X11703Y-15012D01*
X11650Y-15065D01*
X11621Y-15135D01*
X11621Y-15211D01*
X11621Y-15998D01*
X11650Y-16067D01*
X11703Y-16121D01*
X11773Y-16150D01*
X11848Y-16150D01*
X12635Y-16150D01*
X12681Y-16131D01*
X12681Y-16814D01*
X12579Y-16916D01*
X12516Y-17068D01*
X12516Y-17233D01*
X12579Y-17386D01*
X12695Y-17503D01*
X12848Y-17566D01*
X13013Y-17566D01*
X13165Y-17503D01*
X13282Y-17386D01*
X13346Y-17234D01*
X13346Y-17069D01*
X13283Y-16916D01*
X13181Y-16814D01*
X13181Y-15084D01*
X13201Y-15084D01*
X13353Y-15021D01*
X13470Y-14904D01*
X13534Y-14752D01*
X13534Y-14607D01*
X14587Y-13554D01*
X20728Y-13554D01*
X20830Y-13656D01*
X20982Y-13719D01*
X21147Y-13720D01*
X21300Y-13656D01*
X21417Y-13540D01*
X21480Y-13387D01*
X21480Y-13222D01*
X21417Y-13070D01*
X21301Y-12953D01*
X21227Y-12922D01*
X21301Y-12848D01*
X24418Y-12848D01*
X24581Y-13011D01*
X24662Y-13065D01*
X24758Y-13084D01*
X24786Y-13084D01*
X24819Y-13164D01*
X24983Y-13329D01*
X25198Y-13418D01*
X25430Y-13418D01*
X25645Y-13329D01*
X25809Y-13165D01*
X25898Y-12951D01*
X25898Y-12719D01*
X25898Y-16387D01*
X24965Y-16387D01*
X24779Y-16201D01*
X24812Y-16201D01*
X25027Y-16113D01*
X25191Y-15949D01*
X25280Y-15734D01*
X25280Y-15502D01*
X25191Y-15287D01*
X25027Y-15123D01*
X24813Y-15034D01*
X24581Y-15034D01*
X24366Y-15122D01*
X24260Y-15228D01*
X24260Y-13738D01*
X24172Y-13524D01*
X24008Y-13359D01*
X23793Y-13270D01*
X23561Y-13270D01*
X23346Y-13359D01*
X23182Y-13523D01*
X23093Y-13737D01*
X23093Y-13969D01*
X23182Y-14184D01*
X23346Y-14348D01*
X23560Y-14437D01*
X23792Y-14438D01*
X24007Y-14349D01*
X24171Y-14185D01*
X24260Y-13970D01*
X24260Y-13738D01*
X24260Y-15228D01*
X24202Y-15287D01*
X24140Y-15434D01*
X23886Y-15180D01*
X23805Y-15126D01*
X23709Y-15107D01*
X21194Y-15107D01*
X21194Y-14916D01*
X21175Y-14820D01*
X21175Y-14820D01*
X21121Y-14739D01*
X20033Y-13651D01*
X19952Y-13597D01*
X19856Y-13578D01*
X15678Y-13578D01*
X15582Y-13597D01*
X15501Y-13651D01*
X15084Y-14068D01*
X14940Y-14068D01*
X14788Y-14131D01*
X14743Y-14176D01*
X14738Y-14164D01*
X14622Y-14047D01*
X14469Y-13984D01*
X14304Y-13984D01*
X14152Y-14047D01*
X14035Y-14163D01*
X13971Y-14316D01*
X13971Y-14481D01*
X14034Y-14633D01*
X14136Y-14736D01*
X14136Y-15586D01*
X14155Y-15682D01*
X14210Y-15763D01*
X14801Y-16354D01*
X14801Y-16498D01*
X14864Y-16651D01*
X14981Y-16767D01*
X15133Y-16831D01*
X15295Y-16831D01*
X13576Y-18550D01*
X13427Y-18550D01*
X13213Y-18638D01*
X13048Y-18802D01*
X12959Y-19017D01*
X12959Y-19249D01*
X13048Y-19463D01*
X13061Y-19477D01*
X12271Y-19477D01*
X12124Y-19330D01*
X12158Y-19250D01*
X12158Y-19018D01*
X12069Y-18803D01*
X11905Y-18639D01*
X11691Y-18550D01*
X11459Y-18550D01*
X11244Y-18638D01*
X11080Y-18802D01*
X10991Y-19017D01*
X10991Y-19249D01*
X11079Y-19463D01*
X11243Y-19628D01*
X11458Y-19717D01*
X11690Y-19717D01*
X11771Y-19683D01*
X11966Y-19879D01*
X10435Y-19879D01*
X10435Y-8073D01*
X12598Y-8073D01*
X32083Y-8073D01*
X32083Y-19879D01*
X32083Y-19879D01*
G37*
G54D18*
X32083Y-19879D02*
X31872Y-19879D01*
X31872Y-19100D01*
X31867Y-18966D01*
X31867Y-13738D01*
X31867Y-11699D01*
X31778Y-11484D01*
X31614Y-11320D01*
X31400Y-11231D01*
X31167Y-11231D01*
X30953Y-11319D01*
X30847Y-11425D01*
X30847Y-9935D01*
X30758Y-9720D01*
X30594Y-9556D01*
X30380Y-9467D01*
X30148Y-9467D01*
X29933Y-9556D01*
X29769Y-9720D01*
X29680Y-9934D01*
X29679Y-10166D01*
X29768Y-10381D01*
X29932Y-10545D01*
X30147Y-10634D01*
X30379Y-10634D01*
X30593Y-10546D01*
X30758Y-10382D01*
X30847Y-10167D01*
X30847Y-9935D01*
X30847Y-11425D01*
X30788Y-11483D01*
X30699Y-11698D01*
X30699Y-11930D01*
X30788Y-12145D01*
X30952Y-12309D01*
X31166Y-12398D01*
X31399Y-12398D01*
X31613Y-12310D01*
X31778Y-12146D01*
X31867Y-11931D01*
X31867Y-11699D01*
X31867Y-13738D01*
X31778Y-13524D01*
X31614Y-13359D01*
X31400Y-13270D01*
X31167Y-13270D01*
X30953Y-13359D01*
X30788Y-13523D01*
X30699Y-13737D01*
X30699Y-13969D01*
X30788Y-14184D01*
X30952Y-14348D01*
X31166Y-14437D01*
X31399Y-14438D01*
X31613Y-14349D01*
X31778Y-14185D01*
X31867Y-13970D01*
X31867Y-13738D01*
X31867Y-18966D01*
X31862Y-18844D01*
X31783Y-18651D01*
X31678Y-18613D01*
X31607Y-18683D01*
X31607Y-18542D01*
X31568Y-18437D01*
X31328Y-18348D01*
X31072Y-18357D01*
X30880Y-18437D01*
X30847Y-18526D01*
X30847Y-15502D01*
X30758Y-15287D01*
X30594Y-15123D01*
X30380Y-15034D01*
X30229Y-15034D01*
X30229Y-12719D01*
X30140Y-12504D01*
X29976Y-12340D01*
X29762Y-12251D01*
X29530Y-12250D01*
X29315Y-12339D01*
X29151Y-12503D01*
X29083Y-12665D01*
X29083Y-8915D01*
X28995Y-8701D01*
X28831Y-8536D01*
X28616Y-8447D01*
X28384Y-8447D01*
X28169Y-8536D01*
X28005Y-8700D01*
X27916Y-8914D01*
X27916Y-9147D01*
X28004Y-9361D01*
X28168Y-9526D01*
X28383Y-9615D01*
X28615Y-9615D01*
X28830Y-9526D01*
X28994Y-9362D01*
X29083Y-9148D01*
X29083Y-8915D01*
X29083Y-12665D01*
X29062Y-12718D01*
X29061Y-12950D01*
X29150Y-13164D01*
X29314Y-13329D01*
X29529Y-13418D01*
X29761Y-13418D01*
X29975Y-13329D01*
X30140Y-13165D01*
X30229Y-12951D01*
X30229Y-12719D01*
X30229Y-15034D01*
X30148Y-15034D01*
X29933Y-15122D01*
X29769Y-15287D01*
X29680Y-15501D01*
X29679Y-15733D01*
X29768Y-15948D01*
X29932Y-16112D01*
X30147Y-16201D01*
X30379Y-16201D01*
X30593Y-16113D01*
X30758Y-15949D01*
X30847Y-15734D01*
X30847Y-15502D01*
X30847Y-18526D01*
X30841Y-18542D01*
X31224Y-18925D01*
X31607Y-18542D01*
X31607Y-18683D01*
X31295Y-18996D01*
X31678Y-19378D01*
X31783Y-19340D01*
X31872Y-19100D01*
X31872Y-19879D01*
X31607Y-19879D01*
X31607Y-19449D01*
X31224Y-19066D01*
X31153Y-19137D01*
X31153Y-18996D01*
X30770Y-18613D01*
X30694Y-18641D01*
X30555Y-18501D01*
X30340Y-18412D01*
X30108Y-18412D01*
X29894Y-18501D01*
X29730Y-18665D01*
X29724Y-18678D01*
X29719Y-18665D01*
X29555Y-18501D01*
X29340Y-18412D01*
X29108Y-18412D01*
X29083Y-18422D01*
X29083Y-16522D01*
X28995Y-16307D01*
X28831Y-16143D01*
X28616Y-16054D01*
X28384Y-16053D01*
X28169Y-16142D01*
X28005Y-16306D01*
X27916Y-16521D01*
X27916Y-16753D01*
X28004Y-16968D01*
X28168Y-17132D01*
X28383Y-17221D01*
X28615Y-17221D01*
X28830Y-17132D01*
X28994Y-16968D01*
X29083Y-16754D01*
X29083Y-16522D01*
X29083Y-18422D01*
X28894Y-18501D01*
X28807Y-18587D01*
X28807Y-18564D01*
X28779Y-18495D01*
X28725Y-18441D01*
X28655Y-18412D01*
X28580Y-18412D01*
X27793Y-18412D01*
X27723Y-18441D01*
X27669Y-18494D01*
X27640Y-18564D01*
X27640Y-18640D01*
X27640Y-19427D01*
X27669Y-19497D01*
X27723Y-19550D01*
X27792Y-19579D01*
X27868Y-19579D01*
X28655Y-19579D01*
X28725Y-19550D01*
X28778Y-19497D01*
X28807Y-19427D01*
X28807Y-19404D01*
X28893Y-19490D01*
X29107Y-19579D01*
X29339Y-19579D01*
X29554Y-19491D01*
X29718Y-19327D01*
X29724Y-19313D01*
X29729Y-19326D01*
X29893Y-19490D01*
X30107Y-19579D01*
X30339Y-19579D01*
X30554Y-19491D01*
X30694Y-19350D01*
X30770Y-19378D01*
X31153Y-18996D01*
X31153Y-19137D01*
X30841Y-19449D01*
X30880Y-19554D01*
X31120Y-19643D01*
X31376Y-19634D01*
X31568Y-19554D01*
X31607Y-19449D01*
X31607Y-19879D01*
X27108Y-19879D01*
X27108Y-9135D01*
X27099Y-8879D01*
X27019Y-8687D01*
X26914Y-8648D01*
X26843Y-8719D01*
X26843Y-8577D01*
X26804Y-8472D01*
X26564Y-8383D01*
X26308Y-8392D01*
X26116Y-8472D01*
X26077Y-8577D01*
X26460Y-8960D01*
X26843Y-8577D01*
X26843Y-8719D01*
X26531Y-9031D01*
X26914Y-9414D01*
X27019Y-9375D01*
X27108Y-9135D01*
X27108Y-19879D01*
X26977Y-19879D01*
X26977Y-18466D01*
X26977Y-17679D01*
X26948Y-17609D01*
X26894Y-17555D01*
X26825Y-17526D01*
X26749Y-17526D01*
X25962Y-17526D01*
X25892Y-17555D01*
X25839Y-17608D01*
X25810Y-17678D01*
X25810Y-17754D01*
X25810Y-18541D01*
X25839Y-18611D01*
X25892Y-18664D01*
X25962Y-18693D01*
X26037Y-18693D01*
X26824Y-18693D01*
X26894Y-18664D01*
X26948Y-18611D01*
X26977Y-18541D01*
X26977Y-18466D01*
X26977Y-19879D01*
X23245Y-19879D01*
X23245Y-19753D01*
X23245Y-19341D01*
X23245Y-19241D01*
X23245Y-18828D01*
X23182Y-18766D01*
X23020Y-18766D01*
X22929Y-18804D01*
X22858Y-18874D01*
X22820Y-18966D01*
X22820Y-19065D01*
X22820Y-19178D01*
X22882Y-19241D01*
X23245Y-19241D01*
X23245Y-19341D01*
X22882Y-19341D01*
X22820Y-19403D01*
X22820Y-19516D01*
X22820Y-19616D01*
X22858Y-19708D01*
X22929Y-19778D01*
X23020Y-19816D01*
X23182Y-19816D01*
X23245Y-19753D01*
X23245Y-19879D01*
X22433Y-19879D01*
X22433Y-18994D01*
X22345Y-18780D01*
X22181Y-18615D01*
X21966Y-18526D01*
X21734Y-18526D01*
X21520Y-18615D01*
X21356Y-18779D01*
X21266Y-18993D01*
X21266Y-19041D01*
X20918Y-19041D01*
X20918Y-18978D01*
X20889Y-18908D01*
X20836Y-18855D01*
X20766Y-18826D01*
X20753Y-18826D01*
X20753Y-18693D01*
X20965Y-18693D01*
X21180Y-18605D01*
X21344Y-18441D01*
X21433Y-18226D01*
X21433Y-17994D01*
X21345Y-17780D01*
X21181Y-17615D01*
X20966Y-17526D01*
X20734Y-17526D01*
X20520Y-17615D01*
X20356Y-17779D01*
X20266Y-17993D01*
X20266Y-18225D01*
X20303Y-18314D01*
X20272Y-18361D01*
X20253Y-18456D01*
X20253Y-18826D01*
X20241Y-18826D01*
X20171Y-18855D01*
X20117Y-18908D01*
X20111Y-18924D01*
X20090Y-18874D01*
X20020Y-18804D01*
X19928Y-18766D01*
X19766Y-18766D01*
X19703Y-18828D01*
X19703Y-19241D01*
X19711Y-19241D01*
X19711Y-19341D01*
X19703Y-19341D01*
X19703Y-19753D01*
X19766Y-19816D01*
X19928Y-19816D01*
X20020Y-19778D01*
X20090Y-19708D01*
X20111Y-19658D01*
X20117Y-19673D01*
X20170Y-19727D01*
X20240Y-19756D01*
X20316Y-19756D01*
X20766Y-19756D01*
X20836Y-19727D01*
X20889Y-19674D01*
X20918Y-19604D01*
X20918Y-19541D01*
X21456Y-19541D01*
X21519Y-19604D01*
X21733Y-19693D01*
X21965Y-19693D01*
X22180Y-19605D01*
X22344Y-19441D01*
X22433Y-19226D01*
X22433Y-18994D01*
X22433Y-19879D01*
X19603Y-19879D01*
X19603Y-19753D01*
X19603Y-19341D01*
X19603Y-19241D01*
X19603Y-18828D01*
X19541Y-18766D01*
X19379Y-18766D01*
X19287Y-18804D01*
X19216Y-18874D01*
X19178Y-18966D01*
X19178Y-19065D01*
X19178Y-19178D01*
X19241Y-19241D01*
X19603Y-19241D01*
X19603Y-19341D01*
X19241Y-19341D01*
X19178Y-19403D01*
X19178Y-19516D01*
X19178Y-19616D01*
X19216Y-19708D01*
X19287Y-19778D01*
X19379Y-19816D01*
X19541Y-19816D01*
X19603Y-19753D01*
X19603Y-19879D01*
X15998Y-19879D01*
X16890Y-18987D01*
X16890Y-18987D01*
X16890Y-18987D01*
X16944Y-18906D01*
X16944Y-18906D01*
X16959Y-18829D01*
X16963Y-18810D01*
X16963Y-18810D01*
X16963Y-18810D01*
X16963Y-18592D01*
X16976Y-18604D01*
X17190Y-18693D01*
X17422Y-18693D01*
X17637Y-18605D01*
X17801Y-18441D01*
X17835Y-18360D01*
X17996Y-18360D01*
X17996Y-18607D01*
X17976Y-18615D01*
X17812Y-18779D01*
X17723Y-18993D01*
X17723Y-19225D01*
X17812Y-19440D01*
X17976Y-19604D01*
X18190Y-19693D01*
X18422Y-19693D01*
X18637Y-19605D01*
X18801Y-19441D01*
X18890Y-19226D01*
X18890Y-18994D01*
X18802Y-18780D01*
X18638Y-18615D01*
X18496Y-18557D01*
X18496Y-18158D01*
X18723Y-17931D01*
X18723Y-18541D01*
X18752Y-18611D01*
X18805Y-18664D01*
X18875Y-18693D01*
X18951Y-18693D01*
X19738Y-18693D01*
X19808Y-18664D01*
X19861Y-18611D01*
X19890Y-18541D01*
X19890Y-18466D01*
X19890Y-17679D01*
X19861Y-17609D01*
X19808Y-17555D01*
X19738Y-17526D01*
X19662Y-17526D01*
X19128Y-17526D01*
X21048Y-15607D01*
X23153Y-15607D01*
X23108Y-15715D01*
X23108Y-15880D01*
X23171Y-16032D01*
X23273Y-16134D01*
X23273Y-17240D01*
X23292Y-17335D01*
X23346Y-17416D01*
X23843Y-17913D01*
X23810Y-17993D01*
X23810Y-18225D01*
X23895Y-18432D01*
X23895Y-18826D01*
X23882Y-18826D01*
X23812Y-18855D01*
X23759Y-18908D01*
X23752Y-18924D01*
X23732Y-18874D01*
X23661Y-18804D01*
X23569Y-18766D01*
X23433Y-18766D01*
X23433Y-18466D01*
X23433Y-17679D01*
X23405Y-17609D01*
X23351Y-17555D01*
X23281Y-17526D01*
X23206Y-17526D01*
X22419Y-17526D01*
X22349Y-17555D01*
X22295Y-17608D01*
X22266Y-17678D01*
X22266Y-17754D01*
X22266Y-18541D01*
X22295Y-18611D01*
X22349Y-18664D01*
X22418Y-18693D01*
X22494Y-18693D01*
X23281Y-18693D01*
X23351Y-18664D01*
X23404Y-18611D01*
X23433Y-18541D01*
X23433Y-18466D01*
X23433Y-18766D01*
X23407Y-18766D01*
X23345Y-18828D01*
X23345Y-19241D01*
X23353Y-19241D01*
X23353Y-19341D01*
X23345Y-19341D01*
X23345Y-19753D01*
X23407Y-19816D01*
X23569Y-19816D01*
X23661Y-19778D01*
X23732Y-19708D01*
X23752Y-19658D01*
X23759Y-19673D01*
X23812Y-19727D01*
X23882Y-19756D01*
X23958Y-19756D01*
X24408Y-19756D01*
X24477Y-19727D01*
X24531Y-19674D01*
X24560Y-19604D01*
X24560Y-19541D01*
X24999Y-19541D01*
X25062Y-19604D01*
X25277Y-19693D01*
X25509Y-19693D01*
X25723Y-19605D01*
X25888Y-19441D01*
X25977Y-19226D01*
X25977Y-18994D01*
X25888Y-18780D01*
X25724Y-18615D01*
X25510Y-18526D01*
X25278Y-18526D01*
X25063Y-18615D01*
X24899Y-18779D01*
X24810Y-18993D01*
X24810Y-19041D01*
X24560Y-19041D01*
X24560Y-18978D01*
X24531Y-18908D01*
X24478Y-18855D01*
X24408Y-18826D01*
X24395Y-18826D01*
X24395Y-18693D01*
X24509Y-18693D01*
X24723Y-18605D01*
X24888Y-18441D01*
X24977Y-18226D01*
X24977Y-17994D01*
X24888Y-17780D01*
X24724Y-17615D01*
X24510Y-17526D01*
X24278Y-17526D01*
X24197Y-17560D01*
X23773Y-17136D01*
X23773Y-16134D01*
X23875Y-16033D01*
X23889Y-15999D01*
X23926Y-16055D01*
X24685Y-16814D01*
X24766Y-16868D01*
X24766Y-16868D01*
X24862Y-16887D01*
X25932Y-16887D01*
X25965Y-16968D01*
X26129Y-17132D01*
X26344Y-17221D01*
X26576Y-17221D01*
X26790Y-17132D01*
X26955Y-16968D01*
X27044Y-16754D01*
X27044Y-16522D01*
X26955Y-16307D01*
X26843Y-16195D01*
X26843Y-9485D01*
X26460Y-9102D01*
X26389Y-9172D01*
X26389Y-9031D01*
X26006Y-8648D01*
X25901Y-8687D01*
X25812Y-8927D01*
X25822Y-9183D01*
X25901Y-9375D01*
X26006Y-9414D01*
X26389Y-9031D01*
X26389Y-9172D01*
X26077Y-9485D01*
X26116Y-9590D01*
X26356Y-9679D01*
X26612Y-9670D01*
X26804Y-9590D01*
X26843Y-9485D01*
X26843Y-16195D01*
X26791Y-16143D01*
X26577Y-16054D01*
X26345Y-16053D01*
X26130Y-16142D01*
X25966Y-16306D01*
X25932Y-16387D01*
X25898Y-16387D01*
X25898Y-12719D01*
X25810Y-12504D01*
X25646Y-12340D01*
X25431Y-12251D01*
X25280Y-12250D01*
X25280Y-9935D01*
X25191Y-9720D01*
X25027Y-9556D01*
X24813Y-9467D01*
X24581Y-9467D01*
X24366Y-9556D01*
X24202Y-9720D01*
X24113Y-9934D01*
X24113Y-10166D01*
X24201Y-10381D01*
X24365Y-10545D01*
X24580Y-10634D01*
X24812Y-10634D01*
X25027Y-10546D01*
X25191Y-10382D01*
X25280Y-10167D01*
X25280Y-9935D01*
X25280Y-12250D01*
X25199Y-12250D01*
X24984Y-12339D01*
X24820Y-12503D01*
X24808Y-12531D01*
X24698Y-12421D01*
X24617Y-12367D01*
X24521Y-12348D01*
X23914Y-12348D01*
X24007Y-12310D01*
X24171Y-12146D01*
X24260Y-11931D01*
X24260Y-11699D01*
X24172Y-11484D01*
X24008Y-11320D01*
X23793Y-11231D01*
X23561Y-11231D01*
X23346Y-11319D01*
X23182Y-11483D01*
X23093Y-11698D01*
X23093Y-11930D01*
X23182Y-12145D01*
X23346Y-12309D01*
X23439Y-12348D01*
X21301Y-12348D01*
X21199Y-12246D01*
X21047Y-12183D01*
X20882Y-12183D01*
X20729Y-12246D01*
X20612Y-12363D01*
X20549Y-12515D01*
X20549Y-12680D01*
X20612Y-12833D01*
X20729Y-12950D01*
X20803Y-12980D01*
X20728Y-13054D01*
X14544Y-13054D01*
X14654Y-12945D01*
X14717Y-12792D01*
X14717Y-12627D01*
X14672Y-12518D01*
X15311Y-12518D01*
X15311Y-12629D01*
X15377Y-12789D01*
X15500Y-12912D01*
X15660Y-12978D01*
X15833Y-12978D01*
X15993Y-12912D01*
X16115Y-12790D01*
X16138Y-12734D01*
X18051Y-12734D01*
X18064Y-12766D01*
X18186Y-12888D01*
X18346Y-12954D01*
X18519Y-12955D01*
X18679Y-12889D01*
X18801Y-12766D01*
X18867Y-12606D01*
X18868Y-12480D01*
X20210Y-11138D01*
X21587Y-11138D01*
X21661Y-11212D01*
X21661Y-11337D01*
X21727Y-11497D01*
X21849Y-11620D01*
X22009Y-11686D01*
X22182Y-11686D01*
X22342Y-11620D01*
X22464Y-11498D01*
X22531Y-11338D01*
X22531Y-11165D01*
X22465Y-11005D01*
X22342Y-10883D01*
X22183Y-10816D01*
X22057Y-10816D01*
X21901Y-10660D01*
X21810Y-10600D01*
X21703Y-10578D01*
X20210Y-10578D01*
X19093Y-9461D01*
X19651Y-9461D01*
X19728Y-9429D01*
X19787Y-9370D01*
X19819Y-9293D01*
X19820Y-9210D01*
X19820Y-8423D01*
X19788Y-8345D01*
X19729Y-8286D01*
X19651Y-8254D01*
X19568Y-8254D01*
X18781Y-8254D01*
X18704Y-8286D01*
X18645Y-8345D01*
X18619Y-8407D01*
X18558Y-8346D01*
X18337Y-8254D01*
X18097Y-8254D01*
X17875Y-8346D01*
X17705Y-8515D01*
X17703Y-8520D01*
X17547Y-8363D01*
X17333Y-8274D01*
X17100Y-8274D01*
X16886Y-8363D01*
X16746Y-8503D01*
X16670Y-8475D01*
X16599Y-8546D01*
X16599Y-8404D01*
X16560Y-8299D01*
X16320Y-8210D01*
X16064Y-8219D01*
X15872Y-8299D01*
X15833Y-8404D01*
X16216Y-8787D01*
X16599Y-8404D01*
X16599Y-8546D01*
X16287Y-8858D01*
X16670Y-9241D01*
X16746Y-9213D01*
X16885Y-9352D01*
X17099Y-9441D01*
X17332Y-9441D01*
X17546Y-9353D01*
X17703Y-9196D01*
X17704Y-9199D01*
X17874Y-9369D01*
X18095Y-9461D01*
X18301Y-9461D01*
X19698Y-10858D01*
X18472Y-12085D01*
X18346Y-12084D01*
X18186Y-12151D01*
X18163Y-12174D01*
X16599Y-12174D01*
X16599Y-9311D01*
X16216Y-8928D01*
X16145Y-8999D01*
X16145Y-8858D01*
X15762Y-8475D01*
X15657Y-8514D01*
X15568Y-8754D01*
X15578Y-9009D01*
X15657Y-9202D01*
X15762Y-9241D01*
X16145Y-8858D01*
X16145Y-8999D01*
X15833Y-9311D01*
X15872Y-9416D01*
X16112Y-9506D01*
X16368Y-9496D01*
X16560Y-9416D01*
X16599Y-9311D01*
X16599Y-12174D01*
X15993Y-12174D01*
X15833Y-12108D01*
X15785Y-12108D01*
X15717Y-12040D01*
X15626Y-11979D01*
X15519Y-11958D01*
X13724Y-11958D01*
X14474Y-11208D01*
X15088Y-11208D01*
X15190Y-11310D01*
X15342Y-11373D01*
X15507Y-11373D01*
X15660Y-11310D01*
X15777Y-11194D01*
X15840Y-11041D01*
X15840Y-10876D01*
X15777Y-10724D01*
X15660Y-10607D01*
X15508Y-10543D01*
X15343Y-10543D01*
X15190Y-10606D01*
X15088Y-10708D01*
X14370Y-10708D01*
X14370Y-10708D01*
X14351Y-10712D01*
X14275Y-10727D01*
X14194Y-10782D01*
X14194Y-10782D01*
X12027Y-12948D01*
X11973Y-13029D01*
X11973Y-13031D01*
X11874Y-13071D01*
X11710Y-13235D01*
X11621Y-13450D01*
X11621Y-13682D01*
X11654Y-13763D01*
X11401Y-14016D01*
X11321Y-13983D01*
X11089Y-13983D01*
X10874Y-14071D01*
X10710Y-14235D01*
X10621Y-14450D01*
X10621Y-14682D01*
X10709Y-14897D01*
X10873Y-15061D01*
X11088Y-15150D01*
X11320Y-15150D01*
X11534Y-15061D01*
X11699Y-14897D01*
X11788Y-14683D01*
X11788Y-14451D01*
X11754Y-14370D01*
X12008Y-14117D01*
X12088Y-14150D01*
X12320Y-14150D01*
X12534Y-14061D01*
X12699Y-13897D01*
X12788Y-13683D01*
X12788Y-13451D01*
X12699Y-13236D01*
X12573Y-13110D01*
X12893Y-12790D01*
X12937Y-12898D01*
X13060Y-13020D01*
X13219Y-13087D01*
X13392Y-13087D01*
X13552Y-13021D01*
X13675Y-12899D01*
X13741Y-12739D01*
X13741Y-12613D01*
X13836Y-12518D01*
X13932Y-12518D01*
X13887Y-12626D01*
X13887Y-12771D01*
X12517Y-14141D01*
X12463Y-14222D01*
X12444Y-14318D01*
X12444Y-14845D01*
X12463Y-14940D01*
X12491Y-14983D01*
X11773Y-14983D01*
X11703Y-15012D01*
X11650Y-15065D01*
X11621Y-15135D01*
X11621Y-15211D01*
X11621Y-15998D01*
X11650Y-16067D01*
X11703Y-16121D01*
X11773Y-16150D01*
X11848Y-16150D01*
X12635Y-16150D01*
X12681Y-16131D01*
X12681Y-16814D01*
X12579Y-16916D01*
X12516Y-17068D01*
X12516Y-17233D01*
X12579Y-17386D01*
X12695Y-17503D01*
X12848Y-17566D01*
X13013Y-17566D01*
X13165Y-17503D01*
X13282Y-17386D01*
X13346Y-17234D01*
X13346Y-17069D01*
X13283Y-16916D01*
X13181Y-16814D01*
X13181Y-15084D01*
X13201Y-15084D01*
X13353Y-15021D01*
X13470Y-14904D01*
X13534Y-14752D01*
X13534Y-14607D01*
X14587Y-13554D01*
X20728Y-13554D01*
X20830Y-13656D01*
X20982Y-13719D01*
X21147Y-13720D01*
X21300Y-13656D01*
X21417Y-13540D01*
X21480Y-13387D01*
X21480Y-13222D01*
X21417Y-13070D01*
X21301Y-12953D01*
X21227Y-12922D01*
X21301Y-12848D01*
X24418Y-12848D01*
X24581Y-13011D01*
X24662Y-13065D01*
X24758Y-13084D01*
X24786Y-13084D01*
X24819Y-13164D01*
X24983Y-13329D01*
X25198Y-13418D01*
X25430Y-13418D01*
X25645Y-13329D01*
X25809Y-13165D01*
X25898Y-12951D01*
X25898Y-12719D01*
X25898Y-16387D01*
X24965Y-16387D01*
X24779Y-16201D01*
X24812Y-16201D01*
X25027Y-16113D01*
X25191Y-15949D01*
X25280Y-15734D01*
X25280Y-15502D01*
X25191Y-15287D01*
X25027Y-15123D01*
X24813Y-15034D01*
X24581Y-15034D01*
X24366Y-15122D01*
X24260Y-15228D01*
X24260Y-13738D01*
X24172Y-13524D01*
X24008Y-13359D01*
X23793Y-13270D01*
X23561Y-13270D01*
X23346Y-13359D01*
X23182Y-13523D01*
X23093Y-13737D01*
X23093Y-13969D01*
X23182Y-14184D01*
X23346Y-14348D01*
X23560Y-14437D01*
X23792Y-14438D01*
X24007Y-14349D01*
X24171Y-14185D01*
X24260Y-13970D01*
X24260Y-13738D01*
X24260Y-15228D01*
X24202Y-15287D01*
X24140Y-15434D01*
X23886Y-15180D01*
X23805Y-15126D01*
X23709Y-15107D01*
X21194Y-15107D01*
X21194Y-14916D01*
X21175Y-14820D01*
X21175Y-14820D01*
X21121Y-14739D01*
X20033Y-13651D01*
X19952Y-13597D01*
X19856Y-13578D01*
X15678Y-13578D01*
X15582Y-13597D01*
X15501Y-13651D01*
X15084Y-14068D01*
X14940Y-14068D01*
X14788Y-14131D01*
X14743Y-14176D01*
X14738Y-14164D01*
X14622Y-14047D01*
X14469Y-13984D01*
X14304Y-13984D01*
X14152Y-14047D01*
X14035Y-14163D01*
X13971Y-14316D01*
X13971Y-14481D01*
X14034Y-14633D01*
X14136Y-14736D01*
X14136Y-15586D01*
X14155Y-15682D01*
X14210Y-15763D01*
X14801Y-16354D01*
X14801Y-16498D01*
X14864Y-16651D01*
X14981Y-16767D01*
X15133Y-16831D01*
X15295Y-16831D01*
X13576Y-18550D01*
X13427Y-18550D01*
X13213Y-18638D01*
X13048Y-18802D01*
X12959Y-19017D01*
X12959Y-19249D01*
X13048Y-19463D01*
X13061Y-19477D01*
X12271Y-19477D01*
X12124Y-19330D01*
X12158Y-19250D01*
X12158Y-19018D01*
X12069Y-18803D01*
X11905Y-18639D01*
X11691Y-18550D01*
X11459Y-18550D01*
X11244Y-18638D01*
X11080Y-18802D01*
X10991Y-19017D01*
X10991Y-19249D01*
X11079Y-19463D01*
X11243Y-19628D01*
X11458Y-19717D01*
X11690Y-19717D01*
X11771Y-19683D01*
X11966Y-19879D01*
X10435Y-19879D01*
X10435Y-8073D01*
X12598Y-8073D01*
X32083Y-8073D01*
X32083Y-19879D01*
M02*
