M48
INCH,TZ
T1C0.025
T2C0.040
T3C0.049
T4C0.051
%
G90
G05
T1
X011102Y-012677
X012931Y-017151
X013119Y-014669
X013307Y-012652
X014303Y-012710
X014387Y-014399
X014469Y-009547
X015023Y-014484
X015217Y-016416
X015425Y-010959
X015747Y-012544
X017014Y-016423
X018209Y-014272
X018433Y-012520
X020276Y-014862
X020965Y-012598
X021066Y-013305
X022047Y-013386
X022096Y-011252
X023524Y-015798
T2
X011205Y-014567
X012205Y-013567
X012205Y-015567
X016217Y-008858
X017217Y-008858
X017307Y-018110
X018217Y-008858
X018307Y-019110
X019217Y-008858
X019307Y-018110
X020850Y-018110
X021850Y-019110
X022850Y-018110
X024394Y-018110
X025394Y-019110
X026394Y-018110
X028224Y-018996
X029224Y-018996
X030224Y-018996
X031224Y-018996
T3
X023677Y-011815
X023677Y-013854
X024697Y-010051
X024697Y-015618
X025315Y-012835
X026461Y-009031
X026461Y-016638
X028500Y-009031
X028500Y-016638
X029646Y-012835
X030264Y-010051
X030264Y-015618
X031283Y-011815
X031283Y-013854
T4
X011575Y-019134
X013543Y-019134
X015512Y-019134
T0
M30
