G04 (created by PCBNEW (2013-07-07 BZR 4022)-stable) date 2014-06-17 1:34:36 PM*
%MOIN*%
G04 Gerber Fmt 3.4, Leading zero omitted, Abs format*
%FSLAX34Y34*%
G01*
G70*
G90*
G04 APERTURE LIST*
%ADD10C,0.00590551*%
%ADD11C,0.0787*%
%ADD12R,0.0394X0.0276*%
%ADD13R,0.055X0.045*%
%ADD14R,0.045X0.055*%
%ADD15R,0.0787X0.0787*%
%ADD16R,0.0236X0.0866*%
%ADD17C,0.0787402*%
%ADD18C,0.045*%
%ADD19C,0.012*%
%ADD20C,0.014*%
%ADD21C,0.01*%
G04 APERTURE END LIST*
G54D10*
G54D11*
X13543Y-19133D03*
X11574Y-19133D03*
X15511Y-19133D03*
G54D12*
X12114Y-11712D03*
X11114Y-12087D03*
X11114Y-11337D03*
G54D13*
X16043Y-15976D03*
X16043Y-15126D03*
X16043Y-14007D03*
X16043Y-13157D03*
X17224Y-10858D03*
X17224Y-10008D03*
G54D14*
X26543Y-15157D03*
X27393Y-15157D03*
X26543Y-13976D03*
X27393Y-13976D03*
X26543Y-12795D03*
X27393Y-12795D03*
X26543Y-11614D03*
X27393Y-11614D03*
X26543Y-10433D03*
X27393Y-10433D03*
X12960Y-11515D03*
X13810Y-11515D03*
X11189Y-9547D03*
X12039Y-9547D03*
X12960Y-9547D03*
X13810Y-9547D03*
G54D13*
X18208Y-10858D03*
X18208Y-10008D03*
G54D14*
X20539Y-11909D03*
X21389Y-11909D03*
G54D13*
X14665Y-17094D03*
X14665Y-17944D03*
G54D14*
X12960Y-10531D03*
X13810Y-10531D03*
G54D13*
X13582Y-17944D03*
X13582Y-17094D03*
G54D14*
X11189Y-10531D03*
X12039Y-10531D03*
X12075Y-8562D03*
X12925Y-8562D03*
G54D15*
X19216Y-8858D03*
G54D11*
X18216Y-8858D03*
X17216Y-8858D03*
X16216Y-8858D03*
G54D16*
X17200Y-15589D03*
X17700Y-15589D03*
X18200Y-15589D03*
X18700Y-15589D03*
X19200Y-15589D03*
X19700Y-15589D03*
X20200Y-15589D03*
X20200Y-13543D03*
X19700Y-13543D03*
X19200Y-13543D03*
X18700Y-13543D03*
X18200Y-13543D03*
X17700Y-13543D03*
X17200Y-13543D03*
G54D17*
X23677Y-11814D03*
X24696Y-10051D03*
X26460Y-9031D03*
X28500Y-9031D03*
X30263Y-10051D03*
X31283Y-11814D03*
X29645Y-12834D03*
X25314Y-12834D03*
X23677Y-13854D03*
X24696Y-15618D03*
X26460Y-16637D03*
X28500Y-16637D03*
X30263Y-15618D03*
X31283Y-13854D03*
G54D12*
X23334Y-8759D03*
X22334Y-9134D03*
X22334Y-8384D03*
G54D14*
X22311Y-9940D03*
X23161Y-9940D03*
X24378Y-8661D03*
X25228Y-8661D03*
G54D13*
X22637Y-14141D03*
X22637Y-14991D03*
G54D14*
X20539Y-9940D03*
X21389Y-9940D03*
X21389Y-10925D03*
X20539Y-10925D03*
X20539Y-8858D03*
X21389Y-8858D03*
G54D16*
X14923Y-13543D03*
X14423Y-13543D03*
X13923Y-13543D03*
X13423Y-13543D03*
X13423Y-15589D03*
X13923Y-15589D03*
X14423Y-15589D03*
X14923Y-15589D03*
G54D11*
X18307Y-19110D03*
X17307Y-18110D03*
G54D15*
X19307Y-18110D03*
G54D11*
X21850Y-19110D03*
X20850Y-18110D03*
G54D15*
X22850Y-18110D03*
G54D11*
X25393Y-19110D03*
X24393Y-18110D03*
G54D15*
X26393Y-18110D03*
G54D11*
X11204Y-14566D03*
X12204Y-13566D03*
G54D15*
X12204Y-15566D03*
G54D13*
X12106Y-17944D03*
X12106Y-17094D03*
X11023Y-17944D03*
X11023Y-17094D03*
X16141Y-10858D03*
X16141Y-10008D03*
G54D15*
X28224Y-18996D03*
G54D11*
X29224Y-18996D03*
X30224Y-18996D03*
X31224Y-18996D03*
G54D13*
X21555Y-14141D03*
X21555Y-14991D03*
X16043Y-17094D03*
X16043Y-17944D03*
G54D14*
X22114Y-16929D03*
X22964Y-16929D03*
X24378Y-16929D03*
X25228Y-16929D03*
G54D18*
X23523Y-15797D03*
X20275Y-14862D03*
X14386Y-14399D03*
X15216Y-16416D03*
X15022Y-14483D03*
X17013Y-16423D03*
X18433Y-12520D03*
X22096Y-11251D03*
X13306Y-12652D03*
X15746Y-12543D03*
X21065Y-13304D03*
X13119Y-14669D03*
X22047Y-13385D03*
X11102Y-12677D03*
X14468Y-9547D03*
X20964Y-12598D03*
X15425Y-10958D03*
X12931Y-17151D03*
X14302Y-12709D03*
X18208Y-14271D03*
G54D19*
X20646Y-15797D02*
X23523Y-15797D01*
X20438Y-15589D02*
X20646Y-15797D01*
X20200Y-15589D02*
X20438Y-15589D01*
X20275Y-15515D02*
X20200Y-15589D01*
X20275Y-14862D02*
X20275Y-15515D01*
X29224Y-19089D02*
X29224Y-18996D01*
X28724Y-19589D02*
X29224Y-19089D01*
X25873Y-19589D02*
X28724Y-19589D01*
X25393Y-19110D02*
X25873Y-19589D01*
G54D20*
X15311Y-8221D02*
X14970Y-8562D01*
X18580Y-8221D02*
X15311Y-8221D01*
X19216Y-8858D02*
X18580Y-8221D01*
X14970Y-8562D02*
X12925Y-8562D01*
X18700Y-14926D02*
X18700Y-15589D01*
X16747Y-14926D02*
X18700Y-14926D01*
X16747Y-12800D02*
X16747Y-14926D01*
X15747Y-11800D02*
X16747Y-12800D01*
X15610Y-11800D02*
X15747Y-11800D01*
X14970Y-11160D02*
X15610Y-11800D01*
X14970Y-8562D02*
X14970Y-11160D01*
X16747Y-15271D02*
X16043Y-15976D01*
X16747Y-14926D02*
X16747Y-15271D01*
X15151Y-15589D02*
X15538Y-15976D01*
X14923Y-15589D02*
X15151Y-15589D01*
X16043Y-15976D02*
X15538Y-15976D01*
G54D19*
X13810Y-13431D02*
X13923Y-13543D01*
X13810Y-11515D02*
X13810Y-13431D01*
X15568Y-16767D02*
X15216Y-16416D01*
X15568Y-17094D02*
X15568Y-16767D01*
X16043Y-17094D02*
X15568Y-17094D01*
X14164Y-14177D02*
X14386Y-14399D01*
X13923Y-14177D02*
X14164Y-14177D01*
X13923Y-13543D02*
X13923Y-14177D01*
X27393Y-15704D02*
X26460Y-16637D01*
X27393Y-15157D02*
X27393Y-15704D01*
X28224Y-18401D02*
X26460Y-16637D01*
X28224Y-18996D02*
X28224Y-18401D01*
X15022Y-14276D02*
X15022Y-14483D01*
X14923Y-14177D02*
X15022Y-14276D01*
X14923Y-13543D02*
X14923Y-14177D01*
X17200Y-16236D02*
X17013Y-16423D01*
X17200Y-15589D02*
X17200Y-16236D01*
X19248Y-19712D02*
X20850Y-18110D01*
X16090Y-19712D02*
X19248Y-19712D01*
X15511Y-19133D02*
X16090Y-19712D01*
X29369Y-19850D02*
X30224Y-18996D01*
X22590Y-19850D02*
X29369Y-19850D01*
X21850Y-19110D02*
X22590Y-19850D01*
G54D20*
X18700Y-12787D02*
X18700Y-13543D01*
X18433Y-12520D02*
X18700Y-12787D01*
X21844Y-11000D02*
X22096Y-11251D01*
X21844Y-10925D02*
X21844Y-11000D01*
X21389Y-10925D02*
X21844Y-10925D01*
X13306Y-12764D02*
X13306Y-12652D01*
X13423Y-12880D02*
X13306Y-12764D01*
X13423Y-13543D02*
X13423Y-12880D01*
X15905Y-12702D02*
X16043Y-12702D01*
X15746Y-12543D02*
X15905Y-12702D01*
X16043Y-13157D02*
X16043Y-12702D01*
G54D19*
X21555Y-14141D02*
X21600Y-14141D01*
X22587Y-14991D02*
X22637Y-14991D01*
X21737Y-14141D02*
X22587Y-14991D01*
X21600Y-14141D02*
X21737Y-14141D01*
X21065Y-13606D02*
X21065Y-13304D01*
X21600Y-14141D02*
X21065Y-13606D01*
X13406Y-14956D02*
X13119Y-14669D01*
X13423Y-14956D02*
X13406Y-14956D01*
X13423Y-15589D02*
X13423Y-14956D01*
X21389Y-11909D02*
X21389Y-12304D01*
X21389Y-12304D02*
X22047Y-12962D01*
X22047Y-12962D02*
X22047Y-13385D01*
X11114Y-12665D02*
X11102Y-12677D01*
X11114Y-12087D02*
X11114Y-12665D01*
X13810Y-9547D02*
X14468Y-9547D01*
G54D20*
X12106Y-17944D02*
X13582Y-17944D01*
G54D19*
X11189Y-11262D02*
X11114Y-11337D01*
X11189Y-10531D02*
X11189Y-11262D01*
X11189Y-9547D02*
X11189Y-10531D01*
X19200Y-14096D02*
X19200Y-13543D01*
X19280Y-14176D02*
X19200Y-14096D01*
X20478Y-14176D02*
X19280Y-14176D01*
X20539Y-14116D02*
X20478Y-14176D01*
X20539Y-11909D02*
X20539Y-14116D01*
X20964Y-12334D02*
X20539Y-11909D01*
X20964Y-12598D02*
X20964Y-12334D01*
X18307Y-18110D02*
X19307Y-18110D01*
X17693Y-18723D02*
X18307Y-18110D01*
X16897Y-18723D02*
X17693Y-18723D01*
X16543Y-18369D02*
X16897Y-18723D01*
X14665Y-18369D02*
X16543Y-18369D01*
X14665Y-17944D02*
X14665Y-18369D01*
X12960Y-10531D02*
X12960Y-11515D01*
X12960Y-10531D02*
X12039Y-10531D01*
X22334Y-9917D02*
X22311Y-9940D01*
X22334Y-9134D02*
X22334Y-9917D01*
X22311Y-9940D02*
X21389Y-9940D01*
X25138Y-11814D02*
X23677Y-11814D01*
X26118Y-12795D02*
X25138Y-11814D01*
X26543Y-12795D02*
X26118Y-12795D01*
X27249Y-12089D02*
X26543Y-12795D01*
X27393Y-12089D02*
X27249Y-12089D01*
X27393Y-11614D02*
X27393Y-12089D01*
X25996Y-13854D02*
X23677Y-13854D01*
X26118Y-13976D02*
X25996Y-13854D01*
X26543Y-13976D02*
X26118Y-13976D01*
X27249Y-13270D02*
X26543Y-13976D01*
X27393Y-13270D02*
X27249Y-13270D01*
X27393Y-12795D02*
X27393Y-13270D01*
X25657Y-15618D02*
X24696Y-15618D01*
X26118Y-15157D02*
X25657Y-15618D01*
X26543Y-15157D02*
X26118Y-15157D01*
X27249Y-14451D02*
X26543Y-15157D01*
X27393Y-14451D02*
X27249Y-14451D01*
X27393Y-13976D02*
X27393Y-14451D01*
X16093Y-17944D02*
X16043Y-17944D01*
X17700Y-16337D02*
X16093Y-17944D01*
X17700Y-15589D02*
X17700Y-16337D01*
X19200Y-16142D02*
X19200Y-15589D01*
X19280Y-16222D02*
X19200Y-16142D01*
X23721Y-16222D02*
X19280Y-16222D01*
X24378Y-16879D02*
X23721Y-16222D01*
X24378Y-16929D02*
X24378Y-16879D01*
X19700Y-14807D02*
X19700Y-15589D01*
X20071Y-14437D02*
X19700Y-14807D01*
X20950Y-14437D02*
X20071Y-14437D01*
X21505Y-14991D02*
X20950Y-14437D01*
X21555Y-14991D02*
X21505Y-14991D01*
X26393Y-17596D02*
X26393Y-18110D01*
X25726Y-16929D02*
X26393Y-17596D01*
X25228Y-16929D02*
X25726Y-16929D01*
X18200Y-16142D02*
X18200Y-15589D01*
X18987Y-16929D02*
X18200Y-16142D01*
X22114Y-16929D02*
X18987Y-16929D01*
X22964Y-17996D02*
X22850Y-18110D01*
X22964Y-16929D02*
X22964Y-17996D01*
X12960Y-9547D02*
X12039Y-9547D01*
X12075Y-9511D02*
X12039Y-9547D01*
X12075Y-8562D02*
X12075Y-9511D01*
X20539Y-10925D02*
X20539Y-9940D01*
X20539Y-9940D02*
X20539Y-8858D01*
X15565Y-10958D02*
X15425Y-10958D01*
X15666Y-10858D02*
X15565Y-10958D01*
X16141Y-10858D02*
X15666Y-10858D01*
X12834Y-14197D02*
X12204Y-13566D01*
X13365Y-14197D02*
X12834Y-14197D01*
X14125Y-14956D02*
X13365Y-14197D01*
X14423Y-14956D02*
X14125Y-14956D01*
X14423Y-15589D02*
X14423Y-14956D01*
X11691Y-15566D02*
X12204Y-15566D01*
X11023Y-16234D02*
X11691Y-15566D01*
X11023Y-17094D02*
X11023Y-16234D01*
X13582Y-17094D02*
X14665Y-17094D01*
X12987Y-17094D02*
X12931Y-17151D01*
X13582Y-17094D02*
X12987Y-17094D01*
X14423Y-12830D02*
X14423Y-13543D01*
X14302Y-12709D02*
X14423Y-12830D01*
X12106Y-17094D02*
X12093Y-17094D01*
X11206Y-17944D02*
X11023Y-17944D01*
X12056Y-17094D02*
X11206Y-17944D01*
X12093Y-17094D02*
X12056Y-17094D01*
X12965Y-16223D02*
X12093Y-17094D01*
X13923Y-16223D02*
X12965Y-16223D01*
X13923Y-15589D02*
X13923Y-16223D01*
X19700Y-13543D02*
X20200Y-13543D01*
X19700Y-11955D02*
X19700Y-13543D01*
X18603Y-10858D02*
X19700Y-11955D01*
X18208Y-10858D02*
X18603Y-10858D01*
X23161Y-9928D02*
X23161Y-9940D01*
X24378Y-8711D02*
X23161Y-9928D01*
X24378Y-8661D02*
X24378Y-8711D01*
X22637Y-10514D02*
X22637Y-14141D01*
X23161Y-9990D02*
X22637Y-10514D01*
X23161Y-9940D02*
X23161Y-9990D01*
X18200Y-14263D02*
X18208Y-14271D01*
X18200Y-13543D02*
X18200Y-14263D01*
X17224Y-13520D02*
X17200Y-13543D01*
X17224Y-10858D02*
X17224Y-13520D01*
X17700Y-13543D02*
X17200Y-13543D01*
X26118Y-11472D02*
X24696Y-10051D01*
X26118Y-11614D02*
X26118Y-11472D01*
X26543Y-11614D02*
X26118Y-11614D01*
X27249Y-10908D02*
X26543Y-11614D01*
X27393Y-10908D02*
X27249Y-10908D01*
X27393Y-10433D02*
X27393Y-10908D01*
X16141Y-10008D02*
X17224Y-10008D01*
X18208Y-10008D02*
X17224Y-10008D01*
X17224Y-8866D02*
X17216Y-8858D01*
X17224Y-10008D02*
X17224Y-8866D01*
G54D10*
G36*
X16174Y-17509D02*
X16154Y-17529D01*
X15730Y-17529D01*
X15660Y-17558D01*
X15607Y-17611D01*
X15578Y-17681D01*
X15578Y-17757D01*
X15578Y-18119D01*
X15130Y-18119D01*
X15130Y-17682D01*
X15101Y-17612D01*
X15048Y-17558D01*
X14978Y-17529D01*
X14902Y-17529D01*
X14352Y-17529D01*
X14282Y-17558D01*
X14229Y-17611D01*
X14200Y-17681D01*
X14200Y-17757D01*
X14200Y-18207D01*
X14229Y-18277D01*
X14282Y-18330D01*
X14352Y-18359D01*
X14415Y-18359D01*
X14415Y-18369D01*
X14434Y-18465D01*
X14488Y-18546D01*
X14569Y-18600D01*
X14665Y-18619D01*
X15227Y-18619D01*
X15181Y-18638D01*
X15017Y-18802D01*
X14928Y-19017D01*
X14928Y-19249D01*
X15016Y-19463D01*
X15180Y-19628D01*
X15395Y-19717D01*
X15627Y-19717D01*
X15708Y-19683D01*
X15903Y-19879D01*
X14126Y-19879D01*
X14126Y-19018D01*
X14107Y-18971D01*
X14107Y-18219D01*
X14107Y-18057D01*
X14045Y-17994D01*
X13632Y-17994D01*
X13632Y-18357D01*
X13695Y-18419D01*
X13808Y-18419D01*
X13907Y-18419D01*
X13999Y-18381D01*
X14069Y-18311D01*
X14107Y-18219D01*
X14107Y-18971D01*
X14038Y-18803D01*
X13874Y-18639D01*
X13659Y-18550D01*
X13532Y-18550D01*
X13532Y-18357D01*
X13532Y-17994D01*
X13120Y-17994D01*
X13057Y-18057D01*
X13057Y-18219D01*
X13095Y-18311D01*
X13165Y-18381D01*
X13257Y-18419D01*
X13357Y-18419D01*
X13470Y-18419D01*
X13532Y-18357D01*
X13532Y-18550D01*
X13427Y-18550D01*
X13213Y-18638D01*
X13048Y-18802D01*
X12959Y-19017D01*
X12959Y-19249D01*
X13048Y-19463D01*
X13212Y-19628D01*
X13426Y-19717D01*
X13658Y-19717D01*
X13873Y-19628D01*
X14037Y-19464D01*
X14126Y-19250D01*
X14126Y-19018D01*
X14126Y-19879D01*
X12631Y-19879D01*
X12631Y-18219D01*
X12631Y-18057D01*
X12568Y-17994D01*
X12156Y-17994D01*
X12156Y-18357D01*
X12218Y-18419D01*
X12331Y-18419D01*
X12431Y-18419D01*
X12523Y-18381D01*
X12593Y-18311D01*
X12631Y-18219D01*
X12631Y-19879D01*
X12598Y-19879D01*
X12158Y-19879D01*
X12158Y-19018D01*
X12069Y-18803D01*
X12056Y-18790D01*
X12056Y-18357D01*
X12056Y-17994D01*
X11643Y-17994D01*
X11581Y-18057D01*
X11581Y-18219D01*
X11619Y-18311D01*
X11689Y-18381D01*
X11781Y-18419D01*
X11880Y-18419D01*
X11993Y-18419D01*
X12056Y-18357D01*
X12056Y-18790D01*
X11905Y-18639D01*
X11691Y-18550D01*
X11459Y-18550D01*
X11244Y-18638D01*
X11080Y-18802D01*
X10991Y-19017D01*
X10991Y-19249D01*
X11079Y-19463D01*
X11243Y-19628D01*
X11458Y-19717D01*
X11690Y-19717D01*
X11904Y-19628D01*
X12069Y-19464D01*
X12158Y-19250D01*
X12158Y-19018D01*
X12158Y-19879D01*
X10435Y-19879D01*
X10435Y-8073D01*
X12598Y-8073D01*
X15063Y-8073D01*
X14854Y-8282D01*
X13360Y-8282D01*
X13360Y-8246D01*
X13328Y-8169D01*
X13269Y-8110D01*
X13191Y-8078D01*
X13108Y-8077D01*
X12658Y-8077D01*
X12581Y-8109D01*
X12522Y-8168D01*
X12490Y-8246D01*
X12490Y-8251D01*
X12490Y-8250D01*
X12461Y-8180D01*
X12407Y-8127D01*
X12337Y-8098D01*
X12262Y-8097D01*
X11812Y-8097D01*
X11742Y-8126D01*
X11689Y-8180D01*
X11660Y-8250D01*
X11659Y-8325D01*
X11659Y-8875D01*
X11688Y-8945D01*
X11742Y-8998D01*
X11812Y-9027D01*
X11825Y-9027D01*
X11825Y-9082D01*
X11776Y-9082D01*
X11706Y-9111D01*
X11653Y-9164D01*
X11624Y-9234D01*
X11624Y-9309D01*
X11624Y-9859D01*
X11653Y-9929D01*
X11706Y-9983D01*
X11776Y-10012D01*
X11851Y-10012D01*
X12301Y-10012D01*
X12371Y-9983D01*
X12425Y-9930D01*
X12454Y-9860D01*
X12454Y-9797D01*
X12545Y-9797D01*
X12545Y-9859D01*
X12574Y-9929D01*
X12628Y-9983D01*
X12697Y-10012D01*
X12773Y-10012D01*
X13223Y-10012D01*
X13293Y-9983D01*
X13346Y-9930D01*
X13353Y-9914D01*
X13374Y-9964D01*
X13444Y-10034D01*
X13456Y-10039D01*
X13444Y-10044D01*
X13374Y-10114D01*
X13353Y-10164D01*
X13346Y-10149D01*
X13293Y-10095D01*
X13223Y-10066D01*
X13148Y-10066D01*
X12698Y-10066D01*
X12628Y-10095D01*
X12574Y-10148D01*
X12545Y-10218D01*
X12545Y-10281D01*
X12454Y-10281D01*
X12454Y-10218D01*
X12425Y-10149D01*
X12371Y-10095D01*
X12302Y-10066D01*
X12226Y-10066D01*
X11776Y-10066D01*
X11706Y-10095D01*
X11653Y-10148D01*
X11624Y-10218D01*
X11624Y-10294D01*
X11624Y-10844D01*
X11653Y-10913D01*
X11706Y-10967D01*
X11776Y-10996D01*
X11851Y-10996D01*
X12301Y-10996D01*
X12371Y-10967D01*
X12425Y-10914D01*
X12454Y-10844D01*
X12454Y-10781D01*
X12545Y-10781D01*
X12545Y-10844D01*
X12574Y-10913D01*
X12628Y-10967D01*
X12697Y-10996D01*
X12710Y-10996D01*
X12710Y-11050D01*
X12698Y-11050D01*
X12628Y-11079D01*
X12574Y-11132D01*
X12545Y-11202D01*
X12545Y-11278D01*
X12545Y-11828D01*
X12574Y-11898D01*
X12628Y-11951D01*
X12697Y-11980D01*
X12773Y-11980D01*
X13223Y-11980D01*
X13293Y-11951D01*
X13346Y-11898D01*
X13375Y-11828D01*
X13375Y-11753D01*
X13375Y-11203D01*
X13346Y-11133D01*
X13293Y-11079D01*
X13223Y-11050D01*
X13210Y-11050D01*
X13210Y-10996D01*
X13223Y-10996D01*
X13293Y-10967D01*
X13346Y-10914D01*
X13353Y-10898D01*
X13374Y-10948D01*
X13444Y-11018D01*
X13535Y-11056D01*
X13478Y-11079D01*
X13424Y-11132D01*
X13395Y-11202D01*
X13395Y-11278D01*
X13395Y-11828D01*
X13424Y-11898D01*
X13478Y-11951D01*
X13547Y-11980D01*
X13560Y-11980D01*
X13560Y-12291D01*
X13553Y-12283D01*
X13393Y-12217D01*
X13220Y-12217D01*
X13060Y-12283D01*
X12938Y-12405D01*
X12871Y-12565D01*
X12871Y-12738D01*
X12937Y-12898D01*
X13060Y-13020D01*
X13107Y-13040D01*
X13095Y-13068D01*
X13095Y-13152D01*
X13095Y-13947D01*
X12938Y-13947D01*
X12754Y-13763D01*
X12788Y-13683D01*
X12788Y-13451D01*
X12699Y-13236D01*
X12535Y-13072D01*
X12501Y-13058D01*
X12501Y-11812D01*
X12501Y-11536D01*
X12472Y-11467D01*
X12418Y-11413D01*
X12349Y-11384D01*
X12273Y-11384D01*
X11879Y-11384D01*
X11809Y-11413D01*
X11756Y-11466D01*
X11727Y-11536D01*
X11727Y-11612D01*
X11727Y-11888D01*
X11756Y-11958D01*
X11809Y-12011D01*
X11879Y-12040D01*
X11954Y-12040D01*
X12348Y-12040D01*
X12418Y-12011D01*
X12472Y-11958D01*
X12501Y-11888D01*
X12501Y-11812D01*
X12501Y-13058D01*
X12321Y-12983D01*
X12089Y-12983D01*
X11874Y-13071D01*
X11710Y-13235D01*
X11621Y-13450D01*
X11621Y-13682D01*
X11709Y-13897D01*
X11873Y-14061D01*
X12088Y-14150D01*
X12320Y-14150D01*
X12401Y-14117D01*
X12658Y-14373D01*
X12739Y-14428D01*
X12767Y-14433D01*
X12767Y-14433D01*
X12704Y-14586D01*
X12704Y-14751D01*
X12767Y-14904D01*
X12883Y-15020D01*
X13036Y-15084D01*
X13129Y-15084D01*
X13115Y-15118D01*
X13115Y-15194D01*
X13115Y-15973D01*
X12965Y-15973D01*
X12965Y-15973D01*
X12946Y-15976D01*
X12869Y-15992D01*
X12788Y-16046D01*
X12788Y-16046D01*
X12155Y-16679D01*
X11793Y-16679D01*
X11723Y-16708D01*
X11670Y-16761D01*
X11641Y-16831D01*
X11641Y-16907D01*
X11641Y-17156D01*
X11488Y-17308D01*
X11488Y-17282D01*
X11488Y-16832D01*
X11459Y-16762D01*
X11406Y-16708D01*
X11336Y-16679D01*
X11273Y-16679D01*
X11273Y-16338D01*
X11621Y-15990D01*
X11621Y-15998D01*
X11650Y-16067D01*
X11703Y-16121D01*
X11773Y-16150D01*
X11848Y-16150D01*
X12635Y-16150D01*
X12705Y-16121D01*
X12759Y-16068D01*
X12788Y-15998D01*
X12788Y-15922D01*
X12788Y-15135D01*
X12759Y-15065D01*
X12705Y-15012D01*
X12636Y-14983D01*
X12560Y-14983D01*
X11788Y-14983D01*
X11788Y-14451D01*
X11699Y-14236D01*
X11604Y-14141D01*
X11604Y-10768D01*
X11604Y-10218D01*
X11575Y-10149D01*
X11521Y-10095D01*
X11452Y-10066D01*
X11439Y-10066D01*
X11439Y-10012D01*
X11451Y-10012D01*
X11521Y-9983D01*
X11575Y-9930D01*
X11604Y-9860D01*
X11604Y-9784D01*
X11604Y-9234D01*
X11575Y-9164D01*
X11521Y-9111D01*
X11452Y-9082D01*
X11376Y-9082D01*
X10926Y-9082D01*
X10856Y-9111D01*
X10803Y-9164D01*
X10774Y-9234D01*
X10774Y-9309D01*
X10774Y-9859D01*
X10803Y-9929D01*
X10856Y-9983D01*
X10926Y-10012D01*
X10939Y-10012D01*
X10939Y-10066D01*
X10926Y-10066D01*
X10856Y-10095D01*
X10803Y-10148D01*
X10774Y-10218D01*
X10774Y-10294D01*
X10774Y-10844D01*
X10803Y-10913D01*
X10856Y-10967D01*
X10926Y-10996D01*
X10939Y-10996D01*
X10939Y-11009D01*
X10879Y-11009D01*
X10809Y-11038D01*
X10756Y-11091D01*
X10727Y-11161D01*
X10727Y-11237D01*
X10727Y-11513D01*
X10756Y-11583D01*
X10809Y-11636D01*
X10879Y-11665D01*
X10954Y-11665D01*
X11348Y-11665D01*
X11418Y-11636D01*
X11472Y-11583D01*
X11501Y-11513D01*
X11501Y-11437D01*
X11501Y-11161D01*
X11472Y-11092D01*
X11439Y-11058D01*
X11439Y-10996D01*
X11451Y-10996D01*
X11521Y-10967D01*
X11575Y-10914D01*
X11604Y-10844D01*
X11604Y-10768D01*
X11604Y-14141D01*
X11561Y-14098D01*
X11561Y-12275D01*
X11561Y-11900D01*
X11523Y-11808D01*
X11452Y-11737D01*
X11361Y-11699D01*
X11261Y-11699D01*
X11226Y-11699D01*
X11164Y-11762D01*
X11164Y-12037D01*
X11498Y-12037D01*
X11561Y-11975D01*
X11561Y-11900D01*
X11561Y-12275D01*
X11561Y-12200D01*
X11498Y-12137D01*
X11164Y-12137D01*
X11164Y-12413D01*
X11226Y-12475D01*
X11261Y-12475D01*
X11361Y-12475D01*
X11452Y-12437D01*
X11523Y-12367D01*
X11561Y-12275D01*
X11561Y-14098D01*
X11535Y-14072D01*
X11321Y-13983D01*
X11089Y-13983D01*
X11064Y-13993D01*
X11064Y-12413D01*
X11064Y-12137D01*
X11064Y-12037D01*
X11064Y-11762D01*
X11001Y-11699D01*
X10966Y-11699D01*
X10867Y-11699D01*
X10775Y-11737D01*
X10705Y-11808D01*
X10667Y-11900D01*
X10667Y-11975D01*
X10729Y-12037D01*
X11064Y-12037D01*
X11064Y-12137D01*
X10729Y-12137D01*
X10667Y-12200D01*
X10667Y-12275D01*
X10705Y-12367D01*
X10775Y-12437D01*
X10867Y-12475D01*
X10966Y-12475D01*
X11001Y-12475D01*
X11064Y-12413D01*
X11064Y-13993D01*
X10874Y-14071D01*
X10710Y-14235D01*
X10621Y-14450D01*
X10621Y-14682D01*
X10709Y-14897D01*
X10873Y-15061D01*
X11088Y-15150D01*
X11320Y-15150D01*
X11534Y-15061D01*
X11699Y-14897D01*
X11788Y-14683D01*
X11788Y-14451D01*
X11788Y-14983D01*
X11773Y-14983D01*
X11703Y-15012D01*
X11650Y-15065D01*
X11621Y-15135D01*
X11621Y-15211D01*
X11621Y-15330D01*
X11595Y-15335D01*
X11514Y-15390D01*
X11514Y-15390D01*
X10846Y-16057D01*
X10792Y-16138D01*
X10773Y-16234D01*
X10773Y-16679D01*
X10710Y-16679D01*
X10641Y-16708D01*
X10587Y-16761D01*
X10558Y-16831D01*
X10558Y-16907D01*
X10558Y-17357D01*
X10587Y-17427D01*
X10640Y-17480D01*
X10710Y-17509D01*
X10786Y-17509D01*
X11287Y-17509D01*
X11267Y-17529D01*
X11260Y-17529D01*
X10710Y-17529D01*
X10641Y-17558D01*
X10587Y-17611D01*
X10558Y-17681D01*
X10558Y-17757D01*
X10558Y-18207D01*
X10587Y-18277D01*
X10640Y-18330D01*
X10710Y-18359D01*
X10786Y-18359D01*
X11336Y-18359D01*
X11406Y-18330D01*
X11459Y-18277D01*
X11488Y-18207D01*
X11488Y-18132D01*
X11488Y-18015D01*
X11626Y-17877D01*
X11643Y-17894D01*
X12056Y-17894D01*
X12056Y-17886D01*
X12156Y-17886D01*
X12156Y-17894D01*
X12568Y-17894D01*
X12631Y-17832D01*
X12631Y-17670D01*
X12593Y-17578D01*
X12523Y-17507D01*
X12473Y-17487D01*
X12488Y-17480D01*
X12542Y-17427D01*
X12569Y-17362D01*
X12579Y-17386D01*
X12695Y-17503D01*
X12848Y-17566D01*
X13013Y-17566D01*
X13165Y-17503D01*
X13194Y-17475D01*
X13199Y-17480D01*
X13215Y-17487D01*
X13165Y-17507D01*
X13095Y-17578D01*
X13057Y-17670D01*
X13057Y-17832D01*
X13120Y-17894D01*
X13532Y-17894D01*
X13532Y-17886D01*
X13632Y-17886D01*
X13632Y-17894D01*
X14045Y-17894D01*
X14107Y-17832D01*
X14107Y-17670D01*
X14069Y-17578D01*
X13999Y-17507D01*
X13949Y-17487D01*
X13965Y-17480D01*
X14018Y-17427D01*
X14047Y-17357D01*
X14047Y-17344D01*
X14200Y-17344D01*
X14200Y-17357D01*
X14229Y-17427D01*
X14282Y-17480D01*
X14352Y-17509D01*
X14427Y-17509D01*
X14977Y-17509D01*
X15047Y-17480D01*
X15101Y-17427D01*
X15130Y-17357D01*
X15130Y-17282D01*
X15130Y-16832D01*
X15129Y-16829D01*
X15133Y-16831D01*
X15278Y-16831D01*
X15318Y-16871D01*
X15318Y-17094D01*
X15337Y-17190D01*
X15391Y-17271D01*
X15472Y-17325D01*
X15568Y-17344D01*
X15578Y-17344D01*
X15578Y-17357D01*
X15607Y-17427D01*
X15660Y-17480D01*
X15730Y-17509D01*
X15805Y-17509D01*
X16174Y-17509D01*
X16174Y-17509D01*
G37*
G54D21*
X16174Y-17509D02*
X16154Y-17529D01*
X15730Y-17529D01*
X15660Y-17558D01*
X15607Y-17611D01*
X15578Y-17681D01*
X15578Y-17757D01*
X15578Y-18119D01*
X15130Y-18119D01*
X15130Y-17682D01*
X15101Y-17612D01*
X15048Y-17558D01*
X14978Y-17529D01*
X14902Y-17529D01*
X14352Y-17529D01*
X14282Y-17558D01*
X14229Y-17611D01*
X14200Y-17681D01*
X14200Y-17757D01*
X14200Y-18207D01*
X14229Y-18277D01*
X14282Y-18330D01*
X14352Y-18359D01*
X14415Y-18359D01*
X14415Y-18369D01*
X14434Y-18465D01*
X14488Y-18546D01*
X14569Y-18600D01*
X14665Y-18619D01*
X15227Y-18619D01*
X15181Y-18638D01*
X15017Y-18802D01*
X14928Y-19017D01*
X14928Y-19249D01*
X15016Y-19463D01*
X15180Y-19628D01*
X15395Y-19717D01*
X15627Y-19717D01*
X15708Y-19683D01*
X15903Y-19879D01*
X14126Y-19879D01*
X14126Y-19018D01*
X14107Y-18971D01*
X14107Y-18219D01*
X14107Y-18057D01*
X14045Y-17994D01*
X13632Y-17994D01*
X13632Y-18357D01*
X13695Y-18419D01*
X13808Y-18419D01*
X13907Y-18419D01*
X13999Y-18381D01*
X14069Y-18311D01*
X14107Y-18219D01*
X14107Y-18971D01*
X14038Y-18803D01*
X13874Y-18639D01*
X13659Y-18550D01*
X13532Y-18550D01*
X13532Y-18357D01*
X13532Y-17994D01*
X13120Y-17994D01*
X13057Y-18057D01*
X13057Y-18219D01*
X13095Y-18311D01*
X13165Y-18381D01*
X13257Y-18419D01*
X13357Y-18419D01*
X13470Y-18419D01*
X13532Y-18357D01*
X13532Y-18550D01*
X13427Y-18550D01*
X13213Y-18638D01*
X13048Y-18802D01*
X12959Y-19017D01*
X12959Y-19249D01*
X13048Y-19463D01*
X13212Y-19628D01*
X13426Y-19717D01*
X13658Y-19717D01*
X13873Y-19628D01*
X14037Y-19464D01*
X14126Y-19250D01*
X14126Y-19018D01*
X14126Y-19879D01*
X12631Y-19879D01*
X12631Y-18219D01*
X12631Y-18057D01*
X12568Y-17994D01*
X12156Y-17994D01*
X12156Y-18357D01*
X12218Y-18419D01*
X12331Y-18419D01*
X12431Y-18419D01*
X12523Y-18381D01*
X12593Y-18311D01*
X12631Y-18219D01*
X12631Y-19879D01*
X12598Y-19879D01*
X12158Y-19879D01*
X12158Y-19018D01*
X12069Y-18803D01*
X12056Y-18790D01*
X12056Y-18357D01*
X12056Y-17994D01*
X11643Y-17994D01*
X11581Y-18057D01*
X11581Y-18219D01*
X11619Y-18311D01*
X11689Y-18381D01*
X11781Y-18419D01*
X11880Y-18419D01*
X11993Y-18419D01*
X12056Y-18357D01*
X12056Y-18790D01*
X11905Y-18639D01*
X11691Y-18550D01*
X11459Y-18550D01*
X11244Y-18638D01*
X11080Y-18802D01*
X10991Y-19017D01*
X10991Y-19249D01*
X11079Y-19463D01*
X11243Y-19628D01*
X11458Y-19717D01*
X11690Y-19717D01*
X11904Y-19628D01*
X12069Y-19464D01*
X12158Y-19250D01*
X12158Y-19018D01*
X12158Y-19879D01*
X10435Y-19879D01*
X10435Y-8073D01*
X12598Y-8073D01*
X15063Y-8073D01*
X14854Y-8282D01*
X13360Y-8282D01*
X13360Y-8246D01*
X13328Y-8169D01*
X13269Y-8110D01*
X13191Y-8078D01*
X13108Y-8077D01*
X12658Y-8077D01*
X12581Y-8109D01*
X12522Y-8168D01*
X12490Y-8246D01*
X12490Y-8251D01*
X12490Y-8250D01*
X12461Y-8180D01*
X12407Y-8127D01*
X12337Y-8098D01*
X12262Y-8097D01*
X11812Y-8097D01*
X11742Y-8126D01*
X11689Y-8180D01*
X11660Y-8250D01*
X11659Y-8325D01*
X11659Y-8875D01*
X11688Y-8945D01*
X11742Y-8998D01*
X11812Y-9027D01*
X11825Y-9027D01*
X11825Y-9082D01*
X11776Y-9082D01*
X11706Y-9111D01*
X11653Y-9164D01*
X11624Y-9234D01*
X11624Y-9309D01*
X11624Y-9859D01*
X11653Y-9929D01*
X11706Y-9983D01*
X11776Y-10012D01*
X11851Y-10012D01*
X12301Y-10012D01*
X12371Y-9983D01*
X12425Y-9930D01*
X12454Y-9860D01*
X12454Y-9797D01*
X12545Y-9797D01*
X12545Y-9859D01*
X12574Y-9929D01*
X12628Y-9983D01*
X12697Y-10012D01*
X12773Y-10012D01*
X13223Y-10012D01*
X13293Y-9983D01*
X13346Y-9930D01*
X13353Y-9914D01*
X13374Y-9964D01*
X13444Y-10034D01*
X13456Y-10039D01*
X13444Y-10044D01*
X13374Y-10114D01*
X13353Y-10164D01*
X13346Y-10149D01*
X13293Y-10095D01*
X13223Y-10066D01*
X13148Y-10066D01*
X12698Y-10066D01*
X12628Y-10095D01*
X12574Y-10148D01*
X12545Y-10218D01*
X12545Y-10281D01*
X12454Y-10281D01*
X12454Y-10218D01*
X12425Y-10149D01*
X12371Y-10095D01*
X12302Y-10066D01*
X12226Y-10066D01*
X11776Y-10066D01*
X11706Y-10095D01*
X11653Y-10148D01*
X11624Y-10218D01*
X11624Y-10294D01*
X11624Y-10844D01*
X11653Y-10913D01*
X11706Y-10967D01*
X11776Y-10996D01*
X11851Y-10996D01*
X12301Y-10996D01*
X12371Y-10967D01*
X12425Y-10914D01*
X12454Y-10844D01*
X12454Y-10781D01*
X12545Y-10781D01*
X12545Y-10844D01*
X12574Y-10913D01*
X12628Y-10967D01*
X12697Y-10996D01*
X12710Y-10996D01*
X12710Y-11050D01*
X12698Y-11050D01*
X12628Y-11079D01*
X12574Y-11132D01*
X12545Y-11202D01*
X12545Y-11278D01*
X12545Y-11828D01*
X12574Y-11898D01*
X12628Y-11951D01*
X12697Y-11980D01*
X12773Y-11980D01*
X13223Y-11980D01*
X13293Y-11951D01*
X13346Y-11898D01*
X13375Y-11828D01*
X13375Y-11753D01*
X13375Y-11203D01*
X13346Y-11133D01*
X13293Y-11079D01*
X13223Y-11050D01*
X13210Y-11050D01*
X13210Y-10996D01*
X13223Y-10996D01*
X13293Y-10967D01*
X13346Y-10914D01*
X13353Y-10898D01*
X13374Y-10948D01*
X13444Y-11018D01*
X13535Y-11056D01*
X13478Y-11079D01*
X13424Y-11132D01*
X13395Y-11202D01*
X13395Y-11278D01*
X13395Y-11828D01*
X13424Y-11898D01*
X13478Y-11951D01*
X13547Y-11980D01*
X13560Y-11980D01*
X13560Y-12291D01*
X13553Y-12283D01*
X13393Y-12217D01*
X13220Y-12217D01*
X13060Y-12283D01*
X12938Y-12405D01*
X12871Y-12565D01*
X12871Y-12738D01*
X12937Y-12898D01*
X13060Y-13020D01*
X13107Y-13040D01*
X13095Y-13068D01*
X13095Y-13152D01*
X13095Y-13947D01*
X12938Y-13947D01*
X12754Y-13763D01*
X12788Y-13683D01*
X12788Y-13451D01*
X12699Y-13236D01*
X12535Y-13072D01*
X12501Y-13058D01*
X12501Y-11812D01*
X12501Y-11536D01*
X12472Y-11467D01*
X12418Y-11413D01*
X12349Y-11384D01*
X12273Y-11384D01*
X11879Y-11384D01*
X11809Y-11413D01*
X11756Y-11466D01*
X11727Y-11536D01*
X11727Y-11612D01*
X11727Y-11888D01*
X11756Y-11958D01*
X11809Y-12011D01*
X11879Y-12040D01*
X11954Y-12040D01*
X12348Y-12040D01*
X12418Y-12011D01*
X12472Y-11958D01*
X12501Y-11888D01*
X12501Y-11812D01*
X12501Y-13058D01*
X12321Y-12983D01*
X12089Y-12983D01*
X11874Y-13071D01*
X11710Y-13235D01*
X11621Y-13450D01*
X11621Y-13682D01*
X11709Y-13897D01*
X11873Y-14061D01*
X12088Y-14150D01*
X12320Y-14150D01*
X12401Y-14117D01*
X12658Y-14373D01*
X12739Y-14428D01*
X12767Y-14433D01*
X12767Y-14433D01*
X12704Y-14586D01*
X12704Y-14751D01*
X12767Y-14904D01*
X12883Y-15020D01*
X13036Y-15084D01*
X13129Y-15084D01*
X13115Y-15118D01*
X13115Y-15194D01*
X13115Y-15973D01*
X12965Y-15973D01*
X12965Y-15973D01*
X12946Y-15976D01*
X12869Y-15992D01*
X12788Y-16046D01*
X12788Y-16046D01*
X12155Y-16679D01*
X11793Y-16679D01*
X11723Y-16708D01*
X11670Y-16761D01*
X11641Y-16831D01*
X11641Y-16907D01*
X11641Y-17156D01*
X11488Y-17308D01*
X11488Y-17282D01*
X11488Y-16832D01*
X11459Y-16762D01*
X11406Y-16708D01*
X11336Y-16679D01*
X11273Y-16679D01*
X11273Y-16338D01*
X11621Y-15990D01*
X11621Y-15998D01*
X11650Y-16067D01*
X11703Y-16121D01*
X11773Y-16150D01*
X11848Y-16150D01*
X12635Y-16150D01*
X12705Y-16121D01*
X12759Y-16068D01*
X12788Y-15998D01*
X12788Y-15922D01*
X12788Y-15135D01*
X12759Y-15065D01*
X12705Y-15012D01*
X12636Y-14983D01*
X12560Y-14983D01*
X11788Y-14983D01*
X11788Y-14451D01*
X11699Y-14236D01*
X11604Y-14141D01*
X11604Y-10768D01*
X11604Y-10218D01*
X11575Y-10149D01*
X11521Y-10095D01*
X11452Y-10066D01*
X11439Y-10066D01*
X11439Y-10012D01*
X11451Y-10012D01*
X11521Y-9983D01*
X11575Y-9930D01*
X11604Y-9860D01*
X11604Y-9784D01*
X11604Y-9234D01*
X11575Y-9164D01*
X11521Y-9111D01*
X11452Y-9082D01*
X11376Y-9082D01*
X10926Y-9082D01*
X10856Y-9111D01*
X10803Y-9164D01*
X10774Y-9234D01*
X10774Y-9309D01*
X10774Y-9859D01*
X10803Y-9929D01*
X10856Y-9983D01*
X10926Y-10012D01*
X10939Y-10012D01*
X10939Y-10066D01*
X10926Y-10066D01*
X10856Y-10095D01*
X10803Y-10148D01*
X10774Y-10218D01*
X10774Y-10294D01*
X10774Y-10844D01*
X10803Y-10913D01*
X10856Y-10967D01*
X10926Y-10996D01*
X10939Y-10996D01*
X10939Y-11009D01*
X10879Y-11009D01*
X10809Y-11038D01*
X10756Y-11091D01*
X10727Y-11161D01*
X10727Y-11237D01*
X10727Y-11513D01*
X10756Y-11583D01*
X10809Y-11636D01*
X10879Y-11665D01*
X10954Y-11665D01*
X11348Y-11665D01*
X11418Y-11636D01*
X11472Y-11583D01*
X11501Y-11513D01*
X11501Y-11437D01*
X11501Y-11161D01*
X11472Y-11092D01*
X11439Y-11058D01*
X11439Y-10996D01*
X11451Y-10996D01*
X11521Y-10967D01*
X11575Y-10914D01*
X11604Y-10844D01*
X11604Y-10768D01*
X11604Y-14141D01*
X11561Y-14098D01*
X11561Y-12275D01*
X11561Y-11900D01*
X11523Y-11808D01*
X11452Y-11737D01*
X11361Y-11699D01*
X11261Y-11699D01*
X11226Y-11699D01*
X11164Y-11762D01*
X11164Y-12037D01*
X11498Y-12037D01*
X11561Y-11975D01*
X11561Y-11900D01*
X11561Y-12275D01*
X11561Y-12200D01*
X11498Y-12137D01*
X11164Y-12137D01*
X11164Y-12413D01*
X11226Y-12475D01*
X11261Y-12475D01*
X11361Y-12475D01*
X11452Y-12437D01*
X11523Y-12367D01*
X11561Y-12275D01*
X11561Y-14098D01*
X11535Y-14072D01*
X11321Y-13983D01*
X11089Y-13983D01*
X11064Y-13993D01*
X11064Y-12413D01*
X11064Y-12137D01*
X11064Y-12037D01*
X11064Y-11762D01*
X11001Y-11699D01*
X10966Y-11699D01*
X10867Y-11699D01*
X10775Y-11737D01*
X10705Y-11808D01*
X10667Y-11900D01*
X10667Y-11975D01*
X10729Y-12037D01*
X11064Y-12037D01*
X11064Y-12137D01*
X10729Y-12137D01*
X10667Y-12200D01*
X10667Y-12275D01*
X10705Y-12367D01*
X10775Y-12437D01*
X10867Y-12475D01*
X10966Y-12475D01*
X11001Y-12475D01*
X11064Y-12413D01*
X11064Y-13993D01*
X10874Y-14071D01*
X10710Y-14235D01*
X10621Y-14450D01*
X10621Y-14682D01*
X10709Y-14897D01*
X10873Y-15061D01*
X11088Y-15150D01*
X11320Y-15150D01*
X11534Y-15061D01*
X11699Y-14897D01*
X11788Y-14683D01*
X11788Y-14451D01*
X11788Y-14983D01*
X11773Y-14983D01*
X11703Y-15012D01*
X11650Y-15065D01*
X11621Y-15135D01*
X11621Y-15211D01*
X11621Y-15330D01*
X11595Y-15335D01*
X11514Y-15390D01*
X11514Y-15390D01*
X10846Y-16057D01*
X10792Y-16138D01*
X10773Y-16234D01*
X10773Y-16679D01*
X10710Y-16679D01*
X10641Y-16708D01*
X10587Y-16761D01*
X10558Y-16831D01*
X10558Y-16907D01*
X10558Y-17357D01*
X10587Y-17427D01*
X10640Y-17480D01*
X10710Y-17509D01*
X10786Y-17509D01*
X11287Y-17509D01*
X11267Y-17529D01*
X11260Y-17529D01*
X10710Y-17529D01*
X10641Y-17558D01*
X10587Y-17611D01*
X10558Y-17681D01*
X10558Y-17757D01*
X10558Y-18207D01*
X10587Y-18277D01*
X10640Y-18330D01*
X10710Y-18359D01*
X10786Y-18359D01*
X11336Y-18359D01*
X11406Y-18330D01*
X11459Y-18277D01*
X11488Y-18207D01*
X11488Y-18132D01*
X11488Y-18015D01*
X11626Y-17877D01*
X11643Y-17894D01*
X12056Y-17894D01*
X12056Y-17886D01*
X12156Y-17886D01*
X12156Y-17894D01*
X12568Y-17894D01*
X12631Y-17832D01*
X12631Y-17670D01*
X12593Y-17578D01*
X12523Y-17507D01*
X12473Y-17487D01*
X12488Y-17480D01*
X12542Y-17427D01*
X12569Y-17362D01*
X12579Y-17386D01*
X12695Y-17503D01*
X12848Y-17566D01*
X13013Y-17566D01*
X13165Y-17503D01*
X13194Y-17475D01*
X13199Y-17480D01*
X13215Y-17487D01*
X13165Y-17507D01*
X13095Y-17578D01*
X13057Y-17670D01*
X13057Y-17832D01*
X13120Y-17894D01*
X13532Y-17894D01*
X13532Y-17886D01*
X13632Y-17886D01*
X13632Y-17894D01*
X14045Y-17894D01*
X14107Y-17832D01*
X14107Y-17670D01*
X14069Y-17578D01*
X13999Y-17507D01*
X13949Y-17487D01*
X13965Y-17480D01*
X14018Y-17427D01*
X14047Y-17357D01*
X14047Y-17344D01*
X14200Y-17344D01*
X14200Y-17357D01*
X14229Y-17427D01*
X14282Y-17480D01*
X14352Y-17509D01*
X14427Y-17509D01*
X14977Y-17509D01*
X15047Y-17480D01*
X15101Y-17427D01*
X15130Y-17357D01*
X15130Y-17282D01*
X15130Y-16832D01*
X15129Y-16829D01*
X15133Y-16831D01*
X15278Y-16831D01*
X15318Y-16871D01*
X15318Y-17094D01*
X15337Y-17190D01*
X15391Y-17271D01*
X15472Y-17325D01*
X15568Y-17344D01*
X15578Y-17344D01*
X15578Y-17357D01*
X15607Y-17427D01*
X15660Y-17480D01*
X15730Y-17509D01*
X15805Y-17509D01*
X16174Y-17509D01*
G54D10*
G36*
X16467Y-14697D02*
X16460Y-14689D01*
X16368Y-14651D01*
X16268Y-14651D01*
X16155Y-14651D01*
X16093Y-14713D01*
X16093Y-15076D01*
X16101Y-15076D01*
X16101Y-15176D01*
X16093Y-15176D01*
X16093Y-15184D01*
X15993Y-15184D01*
X15993Y-15176D01*
X15993Y-15076D01*
X15993Y-14713D01*
X15993Y-14420D01*
X15993Y-14057D01*
X15580Y-14057D01*
X15518Y-14120D01*
X15518Y-14282D01*
X15556Y-14374D01*
X15626Y-14444D01*
X15718Y-14482D01*
X15817Y-14482D01*
X15930Y-14482D01*
X15993Y-14420D01*
X15993Y-14713D01*
X15930Y-14651D01*
X15817Y-14651D01*
X15718Y-14651D01*
X15626Y-14689D01*
X15556Y-14759D01*
X15518Y-14851D01*
X15518Y-15013D01*
X15580Y-15076D01*
X15993Y-15076D01*
X15993Y-15176D01*
X15580Y-15176D01*
X15518Y-15238D01*
X15518Y-15400D01*
X15556Y-15492D01*
X15626Y-15562D01*
X15650Y-15572D01*
X15649Y-15573D01*
X15590Y-15632D01*
X15590Y-15632D01*
X15349Y-15391D01*
X15259Y-15331D01*
X15251Y-15329D01*
X15251Y-15115D01*
X15219Y-15038D01*
X15160Y-14979D01*
X15083Y-14946D01*
X14999Y-14946D01*
X14763Y-14946D01*
X14686Y-14978D01*
X14673Y-14991D01*
X14673Y-14956D01*
X14654Y-14861D01*
X14600Y-14780D01*
X14581Y-14767D01*
X14621Y-14751D01*
X14665Y-14706D01*
X14670Y-14718D01*
X14787Y-14835D01*
X14939Y-14898D01*
X15104Y-14898D01*
X15257Y-14835D01*
X15374Y-14719D01*
X15437Y-14566D01*
X15437Y-14401D01*
X15374Y-14249D01*
X15258Y-14132D01*
X15206Y-14110D01*
X15199Y-14099D01*
X15199Y-14099D01*
X15193Y-14093D01*
X15202Y-14084D01*
X15231Y-14014D01*
X15231Y-13939D01*
X15231Y-13073D01*
X15202Y-13003D01*
X15148Y-12949D01*
X15079Y-12920D01*
X15003Y-12920D01*
X14767Y-12920D01*
X14697Y-12949D01*
X14673Y-12974D01*
X14673Y-12974D01*
X14673Y-12899D01*
X14717Y-12792D01*
X14717Y-12627D01*
X14654Y-12474D01*
X14538Y-12358D01*
X14385Y-12294D01*
X14220Y-12294D01*
X14067Y-12357D01*
X14060Y-12364D01*
X14060Y-11980D01*
X14073Y-11980D01*
X14143Y-11951D01*
X14196Y-11898D01*
X14225Y-11828D01*
X14225Y-11753D01*
X14225Y-11203D01*
X14196Y-11133D01*
X14143Y-11079D01*
X14086Y-11056D01*
X14177Y-11018D01*
X14247Y-10948D01*
X14285Y-10856D01*
X14285Y-10756D01*
X14285Y-10306D01*
X14285Y-10206D01*
X14247Y-10114D01*
X14177Y-10044D01*
X14165Y-10039D01*
X14177Y-10034D01*
X14247Y-9964D01*
X14285Y-9872D01*
X14285Y-9772D01*
X14285Y-9321D01*
X14285Y-9222D01*
X14247Y-9130D01*
X14177Y-9060D01*
X14085Y-9022D01*
X13923Y-9022D01*
X13860Y-9084D01*
X13860Y-9497D01*
X14223Y-9497D01*
X14285Y-9434D01*
X14285Y-9321D01*
X14285Y-9772D01*
X14285Y-9659D01*
X14223Y-9597D01*
X13860Y-9597D01*
X13860Y-10009D01*
X13890Y-10039D01*
X13860Y-10068D01*
X13860Y-10481D01*
X14223Y-10481D01*
X14285Y-10418D01*
X14285Y-10306D01*
X14285Y-10756D01*
X14285Y-10643D01*
X14223Y-10581D01*
X13860Y-10581D01*
X13860Y-10589D01*
X13760Y-10589D01*
X13760Y-10581D01*
X13752Y-10581D01*
X13752Y-10481D01*
X13760Y-10481D01*
X13760Y-10068D01*
X13731Y-10039D01*
X13760Y-10009D01*
X13760Y-9597D01*
X13752Y-9597D01*
X13752Y-9497D01*
X13760Y-9497D01*
X13760Y-9084D01*
X13698Y-9022D01*
X13536Y-9022D01*
X13444Y-9060D01*
X13374Y-9130D01*
X13353Y-9180D01*
X13346Y-9164D01*
X13293Y-9111D01*
X13223Y-9082D01*
X13148Y-9082D01*
X12698Y-9082D01*
X12628Y-9111D01*
X12574Y-9164D01*
X12545Y-9234D01*
X12545Y-9297D01*
X12454Y-9297D01*
X12454Y-9234D01*
X12425Y-9164D01*
X12371Y-9111D01*
X12325Y-9091D01*
X12325Y-9028D01*
X12337Y-9028D01*
X12407Y-8999D01*
X12460Y-8945D01*
X12489Y-8875D01*
X12489Y-8879D01*
X12521Y-8956D01*
X12580Y-9015D01*
X12658Y-9047D01*
X12741Y-9048D01*
X13191Y-9048D01*
X13268Y-9016D01*
X13327Y-8957D01*
X13359Y-8879D01*
X13359Y-8842D01*
X14690Y-8842D01*
X14690Y-11160D01*
X14711Y-11267D01*
X14772Y-11358D01*
X15412Y-11998D01*
X15412Y-11998D01*
X15473Y-12039D01*
X15503Y-12059D01*
X15503Y-12059D01*
X15610Y-12080D01*
X15610Y-12080D01*
X15631Y-12080D01*
X15659Y-12108D01*
X15500Y-12174D01*
X15378Y-12296D01*
X15312Y-12456D01*
X15311Y-12629D01*
X15377Y-12789D01*
X15500Y-12912D01*
X15558Y-12936D01*
X15558Y-12974D01*
X15558Y-13424D01*
X15590Y-13501D01*
X15649Y-13560D01*
X15650Y-13561D01*
X15626Y-13570D01*
X15556Y-13641D01*
X15518Y-13733D01*
X15518Y-13895D01*
X15580Y-13957D01*
X15993Y-13957D01*
X15993Y-13949D01*
X16093Y-13949D01*
X16093Y-13957D01*
X16101Y-13957D01*
X16101Y-14057D01*
X16093Y-14057D01*
X16093Y-14420D01*
X16155Y-14482D01*
X16268Y-14482D01*
X16368Y-14482D01*
X16460Y-14444D01*
X16467Y-14436D01*
X16467Y-14697D01*
X16467Y-14697D01*
G37*
G54D21*
X16467Y-14697D02*
X16460Y-14689D01*
X16368Y-14651D01*
X16268Y-14651D01*
X16155Y-14651D01*
X16093Y-14713D01*
X16093Y-15076D01*
X16101Y-15076D01*
X16101Y-15176D01*
X16093Y-15176D01*
X16093Y-15184D01*
X15993Y-15184D01*
X15993Y-15176D01*
X15993Y-15076D01*
X15993Y-14713D01*
X15993Y-14420D01*
X15993Y-14057D01*
X15580Y-14057D01*
X15518Y-14120D01*
X15518Y-14282D01*
X15556Y-14374D01*
X15626Y-14444D01*
X15718Y-14482D01*
X15817Y-14482D01*
X15930Y-14482D01*
X15993Y-14420D01*
X15993Y-14713D01*
X15930Y-14651D01*
X15817Y-14651D01*
X15718Y-14651D01*
X15626Y-14689D01*
X15556Y-14759D01*
X15518Y-14851D01*
X15518Y-15013D01*
X15580Y-15076D01*
X15993Y-15076D01*
X15993Y-15176D01*
X15580Y-15176D01*
X15518Y-15238D01*
X15518Y-15400D01*
X15556Y-15492D01*
X15626Y-15562D01*
X15650Y-15572D01*
X15649Y-15573D01*
X15590Y-15632D01*
X15590Y-15632D01*
X15349Y-15391D01*
X15259Y-15331D01*
X15251Y-15329D01*
X15251Y-15115D01*
X15219Y-15038D01*
X15160Y-14979D01*
X15083Y-14946D01*
X14999Y-14946D01*
X14763Y-14946D01*
X14686Y-14978D01*
X14673Y-14991D01*
X14673Y-14956D01*
X14654Y-14861D01*
X14600Y-14780D01*
X14581Y-14767D01*
X14621Y-14751D01*
X14665Y-14706D01*
X14670Y-14718D01*
X14787Y-14835D01*
X14939Y-14898D01*
X15104Y-14898D01*
X15257Y-14835D01*
X15374Y-14719D01*
X15437Y-14566D01*
X15437Y-14401D01*
X15374Y-14249D01*
X15258Y-14132D01*
X15206Y-14110D01*
X15199Y-14099D01*
X15199Y-14099D01*
X15193Y-14093D01*
X15202Y-14084D01*
X15231Y-14014D01*
X15231Y-13939D01*
X15231Y-13073D01*
X15202Y-13003D01*
X15148Y-12949D01*
X15079Y-12920D01*
X15003Y-12920D01*
X14767Y-12920D01*
X14697Y-12949D01*
X14673Y-12974D01*
X14673Y-12974D01*
X14673Y-12899D01*
X14717Y-12792D01*
X14717Y-12627D01*
X14654Y-12474D01*
X14538Y-12358D01*
X14385Y-12294D01*
X14220Y-12294D01*
X14067Y-12357D01*
X14060Y-12364D01*
X14060Y-11980D01*
X14073Y-11980D01*
X14143Y-11951D01*
X14196Y-11898D01*
X14225Y-11828D01*
X14225Y-11753D01*
X14225Y-11203D01*
X14196Y-11133D01*
X14143Y-11079D01*
X14086Y-11056D01*
X14177Y-11018D01*
X14247Y-10948D01*
X14285Y-10856D01*
X14285Y-10756D01*
X14285Y-10306D01*
X14285Y-10206D01*
X14247Y-10114D01*
X14177Y-10044D01*
X14165Y-10039D01*
X14177Y-10034D01*
X14247Y-9964D01*
X14285Y-9872D01*
X14285Y-9772D01*
X14285Y-9321D01*
X14285Y-9222D01*
X14247Y-9130D01*
X14177Y-9060D01*
X14085Y-9022D01*
X13923Y-9022D01*
X13860Y-9084D01*
X13860Y-9497D01*
X14223Y-9497D01*
X14285Y-9434D01*
X14285Y-9321D01*
X14285Y-9772D01*
X14285Y-9659D01*
X14223Y-9597D01*
X13860Y-9597D01*
X13860Y-10009D01*
X13890Y-10039D01*
X13860Y-10068D01*
X13860Y-10481D01*
X14223Y-10481D01*
X14285Y-10418D01*
X14285Y-10306D01*
X14285Y-10756D01*
X14285Y-10643D01*
X14223Y-10581D01*
X13860Y-10581D01*
X13860Y-10589D01*
X13760Y-10589D01*
X13760Y-10581D01*
X13752Y-10581D01*
X13752Y-10481D01*
X13760Y-10481D01*
X13760Y-10068D01*
X13731Y-10039D01*
X13760Y-10009D01*
X13760Y-9597D01*
X13752Y-9597D01*
X13752Y-9497D01*
X13760Y-9497D01*
X13760Y-9084D01*
X13698Y-9022D01*
X13536Y-9022D01*
X13444Y-9060D01*
X13374Y-9130D01*
X13353Y-9180D01*
X13346Y-9164D01*
X13293Y-9111D01*
X13223Y-9082D01*
X13148Y-9082D01*
X12698Y-9082D01*
X12628Y-9111D01*
X12574Y-9164D01*
X12545Y-9234D01*
X12545Y-9297D01*
X12454Y-9297D01*
X12454Y-9234D01*
X12425Y-9164D01*
X12371Y-9111D01*
X12325Y-9091D01*
X12325Y-9028D01*
X12337Y-9028D01*
X12407Y-8999D01*
X12460Y-8945D01*
X12489Y-8875D01*
X12489Y-8879D01*
X12521Y-8956D01*
X12580Y-9015D01*
X12658Y-9047D01*
X12741Y-9048D01*
X13191Y-9048D01*
X13268Y-9016D01*
X13327Y-8957D01*
X13359Y-8879D01*
X13359Y-8842D01*
X14690Y-8842D01*
X14690Y-11160D01*
X14711Y-11267D01*
X14772Y-11358D01*
X15412Y-11998D01*
X15412Y-11998D01*
X15473Y-12039D01*
X15503Y-12059D01*
X15503Y-12059D01*
X15610Y-12080D01*
X15610Y-12080D01*
X15631Y-12080D01*
X15659Y-12108D01*
X15500Y-12174D01*
X15378Y-12296D01*
X15312Y-12456D01*
X15311Y-12629D01*
X15377Y-12789D01*
X15500Y-12912D01*
X15558Y-12936D01*
X15558Y-12974D01*
X15558Y-13424D01*
X15590Y-13501D01*
X15649Y-13560D01*
X15650Y-13561D01*
X15626Y-13570D01*
X15556Y-13641D01*
X15518Y-13733D01*
X15518Y-13895D01*
X15580Y-13957D01*
X15993Y-13957D01*
X15993Y-13949D01*
X16093Y-13949D01*
X16093Y-13957D01*
X16101Y-13957D01*
X16101Y-14057D01*
X16093Y-14057D01*
X16093Y-14420D01*
X16155Y-14482D01*
X16268Y-14482D01*
X16368Y-14482D01*
X16460Y-14444D01*
X16467Y-14436D01*
X16467Y-14697D01*
G54D10*
G36*
X22387Y-13726D02*
X22325Y-13726D01*
X22255Y-13755D01*
X22201Y-13809D01*
X22172Y-13878D01*
X22172Y-13954D01*
X22172Y-14223D01*
X22020Y-14070D01*
X22020Y-13879D01*
X21991Y-13809D01*
X21937Y-13755D01*
X21868Y-13726D01*
X21864Y-13726D01*
X21864Y-12134D01*
X21864Y-12021D01*
X21802Y-11959D01*
X21439Y-11959D01*
X21439Y-12371D01*
X21502Y-12434D01*
X21664Y-12434D01*
X21755Y-12396D01*
X21826Y-12326D01*
X21864Y-12234D01*
X21864Y-12134D01*
X21864Y-13726D01*
X21792Y-13726D01*
X21539Y-13726D01*
X21384Y-13572D01*
X21417Y-13540D01*
X21480Y-13387D01*
X21480Y-13222D01*
X21417Y-13070D01*
X21301Y-12953D01*
X21227Y-12922D01*
X21316Y-12833D01*
X21379Y-12681D01*
X21379Y-12516D01*
X21325Y-12385D01*
X21339Y-12371D01*
X21339Y-11959D01*
X21331Y-11959D01*
X21331Y-11859D01*
X21339Y-11859D01*
X21339Y-11851D01*
X21439Y-11851D01*
X21439Y-11859D01*
X21802Y-11859D01*
X21864Y-11796D01*
X21864Y-11683D01*
X21864Y-11626D01*
X22009Y-11686D01*
X22182Y-11686D01*
X22342Y-11620D01*
X22387Y-11575D01*
X22387Y-13726D01*
X22387Y-13726D01*
G37*
G54D21*
X22387Y-13726D02*
X22325Y-13726D01*
X22255Y-13755D01*
X22201Y-13809D01*
X22172Y-13878D01*
X22172Y-13954D01*
X22172Y-14223D01*
X22020Y-14070D01*
X22020Y-13879D01*
X21991Y-13809D01*
X21937Y-13755D01*
X21868Y-13726D01*
X21864Y-13726D01*
X21864Y-12134D01*
X21864Y-12021D01*
X21802Y-11959D01*
X21439Y-11959D01*
X21439Y-12371D01*
X21502Y-12434D01*
X21664Y-12434D01*
X21755Y-12396D01*
X21826Y-12326D01*
X21864Y-12234D01*
X21864Y-12134D01*
X21864Y-13726D01*
X21792Y-13726D01*
X21539Y-13726D01*
X21384Y-13572D01*
X21417Y-13540D01*
X21480Y-13387D01*
X21480Y-13222D01*
X21417Y-13070D01*
X21301Y-12953D01*
X21227Y-12922D01*
X21316Y-12833D01*
X21379Y-12681D01*
X21379Y-12516D01*
X21325Y-12385D01*
X21339Y-12371D01*
X21339Y-11959D01*
X21331Y-11959D01*
X21331Y-11859D01*
X21339Y-11859D01*
X21339Y-11851D01*
X21439Y-11851D01*
X21439Y-11859D01*
X21802Y-11859D01*
X21864Y-11796D01*
X21864Y-11683D01*
X21864Y-11626D01*
X22009Y-11686D01*
X22182Y-11686D01*
X22342Y-11620D01*
X22387Y-11575D01*
X22387Y-13726D01*
G54D10*
G36*
X32083Y-19879D02*
X31872Y-19879D01*
X31872Y-19100D01*
X31867Y-18966D01*
X31867Y-13738D01*
X31867Y-11699D01*
X31778Y-11484D01*
X31614Y-11320D01*
X31400Y-11231D01*
X31167Y-11231D01*
X30953Y-11319D01*
X30847Y-11425D01*
X30847Y-9935D01*
X30758Y-9720D01*
X30594Y-9556D01*
X30380Y-9467D01*
X30148Y-9467D01*
X29933Y-9556D01*
X29769Y-9720D01*
X29680Y-9934D01*
X29679Y-10166D01*
X29768Y-10381D01*
X29932Y-10545D01*
X30147Y-10634D01*
X30379Y-10634D01*
X30593Y-10546D01*
X30758Y-10382D01*
X30847Y-10167D01*
X30847Y-9935D01*
X30847Y-11425D01*
X30788Y-11483D01*
X30699Y-11698D01*
X30699Y-11930D01*
X30788Y-12145D01*
X30952Y-12309D01*
X31166Y-12398D01*
X31399Y-12398D01*
X31613Y-12310D01*
X31778Y-12146D01*
X31867Y-11931D01*
X31867Y-11699D01*
X31867Y-13738D01*
X31778Y-13524D01*
X31614Y-13359D01*
X31400Y-13270D01*
X31167Y-13270D01*
X30953Y-13359D01*
X30788Y-13523D01*
X30699Y-13737D01*
X30699Y-13969D01*
X30788Y-14184D01*
X30952Y-14348D01*
X31166Y-14437D01*
X31399Y-14438D01*
X31613Y-14349D01*
X31778Y-14185D01*
X31867Y-13970D01*
X31867Y-13738D01*
X31867Y-18966D01*
X31862Y-18844D01*
X31783Y-18651D01*
X31678Y-18613D01*
X31607Y-18683D01*
X31607Y-18542D01*
X31568Y-18437D01*
X31328Y-18348D01*
X31072Y-18357D01*
X30880Y-18437D01*
X30847Y-18526D01*
X30847Y-15502D01*
X30758Y-15287D01*
X30594Y-15123D01*
X30380Y-15034D01*
X30229Y-15034D01*
X30229Y-12719D01*
X30140Y-12504D01*
X29976Y-12340D01*
X29762Y-12251D01*
X29530Y-12250D01*
X29315Y-12339D01*
X29151Y-12503D01*
X29083Y-12665D01*
X29083Y-8915D01*
X28995Y-8701D01*
X28831Y-8536D01*
X28616Y-8447D01*
X28384Y-8447D01*
X28169Y-8536D01*
X28005Y-8700D01*
X27916Y-8914D01*
X27916Y-9147D01*
X28004Y-9361D01*
X28168Y-9526D01*
X28383Y-9615D01*
X28615Y-9615D01*
X28830Y-9526D01*
X28994Y-9362D01*
X29083Y-9148D01*
X29083Y-8915D01*
X29083Y-12665D01*
X29062Y-12718D01*
X29061Y-12950D01*
X29150Y-13164D01*
X29314Y-13329D01*
X29529Y-13418D01*
X29761Y-13418D01*
X29975Y-13329D01*
X30140Y-13165D01*
X30229Y-12951D01*
X30229Y-12719D01*
X30229Y-15034D01*
X30148Y-15034D01*
X29933Y-15122D01*
X29769Y-15287D01*
X29680Y-15501D01*
X29679Y-15733D01*
X29768Y-15948D01*
X29932Y-16112D01*
X30147Y-16201D01*
X30379Y-16201D01*
X30593Y-16113D01*
X30758Y-15949D01*
X30847Y-15734D01*
X30847Y-15502D01*
X30847Y-18526D01*
X30841Y-18542D01*
X31224Y-18925D01*
X31607Y-18542D01*
X31607Y-18683D01*
X31295Y-18996D01*
X31678Y-19378D01*
X31783Y-19340D01*
X31872Y-19100D01*
X31872Y-19879D01*
X31607Y-19879D01*
X31607Y-19449D01*
X31224Y-19066D01*
X30841Y-19449D01*
X30880Y-19554D01*
X31120Y-19643D01*
X31376Y-19634D01*
X31568Y-19554D01*
X31607Y-19449D01*
X31607Y-19879D01*
X29694Y-19879D01*
X30027Y-19546D01*
X30107Y-19579D01*
X30339Y-19579D01*
X30554Y-19491D01*
X30694Y-19350D01*
X30770Y-19378D01*
X31153Y-18996D01*
X30770Y-18613D01*
X30694Y-18641D01*
X30555Y-18501D01*
X30340Y-18412D01*
X30108Y-18412D01*
X29894Y-18501D01*
X29730Y-18665D01*
X29724Y-18678D01*
X29719Y-18665D01*
X29555Y-18501D01*
X29340Y-18412D01*
X29108Y-18412D01*
X29083Y-18422D01*
X29083Y-16522D01*
X28995Y-16307D01*
X28831Y-16143D01*
X28616Y-16054D01*
X28384Y-16053D01*
X28169Y-16142D01*
X28005Y-16306D01*
X27916Y-16521D01*
X27916Y-16753D01*
X28004Y-16968D01*
X28168Y-17132D01*
X28383Y-17221D01*
X28615Y-17221D01*
X28830Y-17132D01*
X28994Y-16968D01*
X29083Y-16754D01*
X29083Y-16522D01*
X29083Y-18422D01*
X28894Y-18501D01*
X28807Y-18587D01*
X28807Y-18564D01*
X28779Y-18495D01*
X28725Y-18441D01*
X28655Y-18412D01*
X28580Y-18412D01*
X28474Y-18412D01*
X28474Y-18401D01*
X28474Y-18401D01*
X28474Y-18401D01*
X28470Y-18382D01*
X28455Y-18305D01*
X28455Y-18305D01*
X28401Y-18224D01*
X28401Y-18224D01*
X27010Y-16834D01*
X27044Y-16754D01*
X27044Y-16522D01*
X27010Y-16441D01*
X27570Y-15881D01*
X27624Y-15800D01*
X27643Y-15704D01*
X27643Y-15622D01*
X27656Y-15622D01*
X27725Y-15593D01*
X27779Y-15540D01*
X27808Y-15470D01*
X27808Y-15394D01*
X27808Y-14844D01*
X27779Y-14774D01*
X27726Y-14721D01*
X27656Y-14692D01*
X27580Y-14692D01*
X27438Y-14692D01*
X27489Y-14682D01*
X27570Y-14628D01*
X27624Y-14547D01*
X27643Y-14451D01*
X27643Y-14441D01*
X27656Y-14441D01*
X27725Y-14412D01*
X27779Y-14359D01*
X27808Y-14289D01*
X27808Y-14213D01*
X27808Y-13663D01*
X27779Y-13593D01*
X27726Y-13540D01*
X27656Y-13511D01*
X27580Y-13511D01*
X27438Y-13511D01*
X27489Y-13501D01*
X27570Y-13447D01*
X27624Y-13366D01*
X27643Y-13270D01*
X27643Y-13260D01*
X27656Y-13260D01*
X27725Y-13231D01*
X27779Y-13178D01*
X27808Y-13108D01*
X27808Y-13032D01*
X27808Y-12482D01*
X27779Y-12412D01*
X27726Y-12359D01*
X27656Y-12330D01*
X27580Y-12330D01*
X27438Y-12330D01*
X27489Y-12320D01*
X27570Y-12266D01*
X27624Y-12184D01*
X27643Y-12089D01*
X27643Y-12079D01*
X27656Y-12079D01*
X27725Y-12050D01*
X27779Y-11996D01*
X27808Y-11927D01*
X27808Y-11851D01*
X27808Y-11301D01*
X27779Y-11231D01*
X27726Y-11178D01*
X27656Y-11149D01*
X27580Y-11149D01*
X27438Y-11149D01*
X27489Y-11139D01*
X27570Y-11084D01*
X27624Y-11003D01*
X27643Y-10908D01*
X27643Y-10898D01*
X27656Y-10898D01*
X27725Y-10869D01*
X27779Y-10815D01*
X27808Y-10746D01*
X27808Y-10670D01*
X27808Y-10120D01*
X27779Y-10050D01*
X27726Y-9997D01*
X27656Y-9968D01*
X27580Y-9968D01*
X27130Y-9968D01*
X27108Y-9977D01*
X27108Y-9135D01*
X27099Y-8879D01*
X27019Y-8687D01*
X26914Y-8648D01*
X26843Y-8719D01*
X26843Y-8577D01*
X26804Y-8472D01*
X26564Y-8383D01*
X26308Y-8392D01*
X26116Y-8472D01*
X26077Y-8577D01*
X26460Y-8960D01*
X26843Y-8577D01*
X26843Y-8719D01*
X26531Y-9031D01*
X26914Y-9414D01*
X27019Y-9375D01*
X27108Y-9135D01*
X27108Y-9977D01*
X27061Y-9996D01*
X27007Y-10050D01*
X27000Y-10066D01*
X26980Y-10016D01*
X26909Y-9946D01*
X26843Y-9918D01*
X26843Y-9485D01*
X26460Y-9102D01*
X26389Y-9172D01*
X26389Y-9031D01*
X26006Y-8648D01*
X25901Y-8687D01*
X25812Y-8927D01*
X25822Y-9183D01*
X25901Y-9375D01*
X26006Y-9414D01*
X26389Y-9031D01*
X26389Y-9172D01*
X26077Y-9485D01*
X26116Y-9590D01*
X26356Y-9679D01*
X26612Y-9670D01*
X26804Y-9590D01*
X26843Y-9485D01*
X26843Y-9918D01*
X26818Y-9908D01*
X26656Y-9908D01*
X26593Y-9970D01*
X26593Y-10383D01*
X26601Y-10383D01*
X26601Y-10483D01*
X26593Y-10483D01*
X26593Y-10895D01*
X26656Y-10958D01*
X26818Y-10958D01*
X26865Y-10938D01*
X26654Y-11149D01*
X26493Y-11149D01*
X26493Y-10895D01*
X26493Y-10483D01*
X26493Y-10383D01*
X26493Y-9970D01*
X26431Y-9908D01*
X26268Y-9908D01*
X26177Y-9946D01*
X26106Y-10016D01*
X26068Y-10108D01*
X26068Y-10207D01*
X26068Y-10320D01*
X26131Y-10383D01*
X26493Y-10383D01*
X26493Y-10483D01*
X26131Y-10483D01*
X26068Y-10545D01*
X26068Y-10658D01*
X26068Y-10758D01*
X26106Y-10849D01*
X26177Y-10920D01*
X26268Y-10958D01*
X26431Y-10958D01*
X26493Y-10895D01*
X26493Y-11149D01*
X26280Y-11149D01*
X26211Y-11178D01*
X26194Y-11194D01*
X25703Y-10703D01*
X25703Y-8886D01*
X25703Y-8435D01*
X25703Y-8336D01*
X25664Y-8244D01*
X25594Y-8174D01*
X25502Y-8136D01*
X25340Y-8136D01*
X25278Y-8198D01*
X25278Y-8611D01*
X25640Y-8611D01*
X25703Y-8548D01*
X25703Y-8435D01*
X25703Y-8886D01*
X25703Y-8773D01*
X25640Y-8711D01*
X25278Y-8711D01*
X25278Y-9123D01*
X25340Y-9186D01*
X25502Y-9186D01*
X25594Y-9148D01*
X25664Y-9078D01*
X25703Y-8986D01*
X25703Y-8886D01*
X25703Y-10703D01*
X25247Y-10247D01*
X25280Y-10167D01*
X25280Y-9935D01*
X25191Y-9720D01*
X25027Y-9556D01*
X24813Y-9467D01*
X24581Y-9467D01*
X24366Y-9556D01*
X24202Y-9720D01*
X24113Y-9934D01*
X24113Y-10166D01*
X24201Y-10381D01*
X24365Y-10545D01*
X24580Y-10634D01*
X24812Y-10634D01*
X24893Y-10601D01*
X25868Y-11576D01*
X25868Y-11614D01*
X25887Y-11709D01*
X25941Y-11790D01*
X26022Y-11845D01*
X26118Y-11864D01*
X26128Y-11864D01*
X26128Y-11926D01*
X26157Y-11996D01*
X26210Y-12050D01*
X26280Y-12079D01*
X26356Y-12079D01*
X26806Y-12079D01*
X26875Y-12050D01*
X26929Y-11996D01*
X26958Y-11927D01*
X26958Y-11851D01*
X26958Y-11552D01*
X26978Y-11532D01*
X26978Y-11926D01*
X27001Y-11983D01*
X26654Y-12330D01*
X26280Y-12330D01*
X26211Y-12359D01*
X26157Y-12412D01*
X26137Y-12460D01*
X25314Y-11638D01*
X25233Y-11583D01*
X25138Y-11564D01*
X24205Y-11564D01*
X24172Y-11484D01*
X24008Y-11320D01*
X23793Y-11231D01*
X23561Y-11231D01*
X23346Y-11319D01*
X23182Y-11483D01*
X23093Y-11698D01*
X23093Y-11930D01*
X23182Y-12145D01*
X23346Y-12309D01*
X23560Y-12398D01*
X23792Y-12398D01*
X24007Y-12310D01*
X24171Y-12146D01*
X24205Y-12064D01*
X25034Y-12064D01*
X25220Y-12250D01*
X25199Y-12250D01*
X24984Y-12339D01*
X24820Y-12503D01*
X24731Y-12718D01*
X24731Y-12950D01*
X24819Y-13164D01*
X24983Y-13329D01*
X25198Y-13418D01*
X25430Y-13418D01*
X25645Y-13329D01*
X25809Y-13165D01*
X25898Y-12951D01*
X25898Y-12929D01*
X25941Y-12972D01*
X25941Y-12972D01*
X26022Y-13026D01*
X26022Y-13026D01*
X26099Y-13041D01*
X26118Y-13045D01*
X26118Y-13045D01*
X26118Y-13045D01*
X26128Y-13045D01*
X26128Y-13107D01*
X26157Y-13177D01*
X26210Y-13231D01*
X26280Y-13260D01*
X26356Y-13260D01*
X26806Y-13260D01*
X26875Y-13231D01*
X26929Y-13178D01*
X26958Y-13108D01*
X26958Y-13032D01*
X26958Y-12733D01*
X26978Y-12713D01*
X26978Y-13107D01*
X27001Y-13164D01*
X26654Y-13511D01*
X26280Y-13511D01*
X26211Y-13540D01*
X26157Y-13593D01*
X26133Y-13651D01*
X26092Y-13623D01*
X25996Y-13604D01*
X24205Y-13604D01*
X24172Y-13524D01*
X24008Y-13359D01*
X23793Y-13270D01*
X23561Y-13270D01*
X23346Y-13359D01*
X23182Y-13523D01*
X23093Y-13737D01*
X23093Y-13856D01*
X23073Y-13809D01*
X23020Y-13755D01*
X22950Y-13726D01*
X22887Y-13726D01*
X22887Y-10617D01*
X23099Y-10405D01*
X23423Y-10405D01*
X23493Y-10377D01*
X23547Y-10323D01*
X23576Y-10253D01*
X23576Y-10178D01*
X23576Y-9866D01*
X24316Y-9126D01*
X24640Y-9126D01*
X24710Y-9097D01*
X24764Y-9044D01*
X24770Y-9028D01*
X24791Y-9078D01*
X24861Y-9148D01*
X24953Y-9186D01*
X25115Y-9186D01*
X25178Y-9123D01*
X25178Y-8711D01*
X25170Y-8711D01*
X25170Y-8611D01*
X25178Y-8611D01*
X25178Y-8198D01*
X25115Y-8136D01*
X24953Y-8136D01*
X24861Y-8174D01*
X24791Y-8244D01*
X24770Y-8294D01*
X24764Y-8278D01*
X24710Y-8225D01*
X24641Y-8196D01*
X24565Y-8196D01*
X24115Y-8196D01*
X24045Y-8225D01*
X23992Y-8278D01*
X23963Y-8348D01*
X23963Y-8424D01*
X23963Y-8772D01*
X23721Y-9014D01*
X23721Y-8860D01*
X23721Y-8584D01*
X23692Y-8514D01*
X23639Y-8460D01*
X23569Y-8431D01*
X23494Y-8431D01*
X23100Y-8431D01*
X23030Y-8460D01*
X22976Y-8514D01*
X22947Y-8583D01*
X22947Y-8659D01*
X22947Y-8935D01*
X22976Y-9005D01*
X23029Y-9058D01*
X23099Y-9087D01*
X23175Y-9087D01*
X23569Y-9087D01*
X23639Y-9059D01*
X23692Y-9005D01*
X23721Y-8935D01*
X23721Y-8860D01*
X23721Y-9014D01*
X23260Y-9475D01*
X22898Y-9475D01*
X22828Y-9504D01*
X22781Y-9551D01*
X22781Y-8572D01*
X22781Y-8497D01*
X22719Y-8434D01*
X22384Y-8434D01*
X22384Y-8710D01*
X22447Y-8772D01*
X22482Y-8772D01*
X22581Y-8772D01*
X22673Y-8734D01*
X22743Y-8664D01*
X22781Y-8572D01*
X22781Y-9551D01*
X22775Y-9558D01*
X22746Y-9627D01*
X22746Y-9703D01*
X22746Y-10052D01*
X22726Y-10072D01*
X22726Y-9628D01*
X22697Y-9558D01*
X22643Y-9504D01*
X22584Y-9480D01*
X22584Y-9456D01*
X22639Y-9434D01*
X22692Y-9380D01*
X22721Y-9310D01*
X22721Y-9235D01*
X22721Y-8959D01*
X22692Y-8889D01*
X22639Y-8835D01*
X22569Y-8806D01*
X22494Y-8806D01*
X22284Y-8806D01*
X22284Y-8710D01*
X22284Y-8434D01*
X21950Y-8434D01*
X21887Y-8497D01*
X21887Y-8572D01*
X21925Y-8664D01*
X21995Y-8734D01*
X22087Y-8772D01*
X22187Y-8772D01*
X22222Y-8772D01*
X22284Y-8710D01*
X22284Y-8806D01*
X22100Y-8806D01*
X22030Y-8835D01*
X21976Y-8889D01*
X21947Y-8958D01*
X21947Y-9034D01*
X21947Y-9310D01*
X21976Y-9380D01*
X22029Y-9433D01*
X22084Y-9456D01*
X22084Y-9475D01*
X22048Y-9475D01*
X21978Y-9504D01*
X21925Y-9558D01*
X21896Y-9627D01*
X21896Y-9690D01*
X21864Y-9690D01*
X21864Y-9083D01*
X21864Y-8632D01*
X21864Y-8533D01*
X21826Y-8441D01*
X21755Y-8371D01*
X21664Y-8333D01*
X21502Y-8333D01*
X21439Y-8395D01*
X21439Y-8808D01*
X21802Y-8808D01*
X21864Y-8745D01*
X21864Y-8632D01*
X21864Y-9083D01*
X21864Y-8970D01*
X21802Y-8908D01*
X21439Y-8908D01*
X21439Y-9320D01*
X21502Y-9383D01*
X21664Y-9383D01*
X21755Y-9345D01*
X21826Y-9275D01*
X21864Y-9183D01*
X21864Y-9083D01*
X21864Y-9690D01*
X21804Y-9690D01*
X21804Y-9628D01*
X21775Y-9558D01*
X21722Y-9504D01*
X21652Y-9475D01*
X21576Y-9475D01*
X21126Y-9475D01*
X21057Y-9504D01*
X21003Y-9558D01*
X20974Y-9627D01*
X20974Y-9703D01*
X20974Y-10253D01*
X21003Y-10323D01*
X21056Y-10376D01*
X21126Y-10405D01*
X21202Y-10405D01*
X21652Y-10405D01*
X21722Y-10377D01*
X21775Y-10323D01*
X21804Y-10253D01*
X21804Y-10190D01*
X21896Y-10190D01*
X21896Y-10253D01*
X21925Y-10323D01*
X21978Y-10376D01*
X22048Y-10405D01*
X22123Y-10405D01*
X22415Y-10405D01*
X22406Y-10418D01*
X22387Y-10514D01*
X22387Y-10928D01*
X22342Y-10883D01*
X22183Y-10816D01*
X22102Y-10816D01*
X22042Y-10727D01*
X21951Y-10666D01*
X21844Y-10645D01*
X21824Y-10645D01*
X21824Y-10608D01*
X21792Y-10531D01*
X21733Y-10472D01*
X21656Y-10440D01*
X21572Y-10440D01*
X21122Y-10440D01*
X21045Y-10472D01*
X20986Y-10531D01*
X20954Y-10608D01*
X20954Y-10613D01*
X20954Y-10612D01*
X20925Y-10542D01*
X20872Y-10489D01*
X20802Y-10460D01*
X20789Y-10460D01*
X20789Y-10405D01*
X20802Y-10405D01*
X20872Y-10377D01*
X20925Y-10323D01*
X20954Y-10253D01*
X20954Y-10178D01*
X20954Y-9628D01*
X20925Y-9558D01*
X20872Y-9504D01*
X20802Y-9475D01*
X20789Y-9475D01*
X20789Y-9323D01*
X20802Y-9323D01*
X20872Y-9294D01*
X20925Y-9241D01*
X20932Y-9225D01*
X20952Y-9275D01*
X21023Y-9345D01*
X21115Y-9383D01*
X21277Y-9383D01*
X21339Y-9320D01*
X21339Y-8908D01*
X21331Y-8908D01*
X21331Y-8808D01*
X21339Y-8808D01*
X21339Y-8395D01*
X21277Y-8333D01*
X21115Y-8333D01*
X21023Y-8371D01*
X20952Y-8441D01*
X20932Y-8491D01*
X20925Y-8475D01*
X20872Y-8422D01*
X20802Y-8393D01*
X20726Y-8393D01*
X20276Y-8393D01*
X20207Y-8422D01*
X20153Y-8475D01*
X20124Y-8545D01*
X20124Y-8620D01*
X20124Y-9170D01*
X20153Y-9240D01*
X20206Y-9294D01*
X20276Y-9323D01*
X20289Y-9323D01*
X20289Y-9475D01*
X20276Y-9475D01*
X20207Y-9504D01*
X20153Y-9558D01*
X20124Y-9627D01*
X20124Y-9703D01*
X20124Y-10253D01*
X20153Y-10323D01*
X20206Y-10376D01*
X20276Y-10405D01*
X20289Y-10405D01*
X20289Y-10460D01*
X20276Y-10460D01*
X20207Y-10489D01*
X20153Y-10542D01*
X20124Y-10612D01*
X20124Y-10687D01*
X20124Y-11237D01*
X20153Y-11307D01*
X20206Y-11361D01*
X20276Y-11390D01*
X20352Y-11390D01*
X20802Y-11390D01*
X20872Y-11361D01*
X20925Y-11307D01*
X20954Y-11238D01*
X20954Y-11241D01*
X20986Y-11318D01*
X21045Y-11378D01*
X21087Y-11395D01*
X21023Y-11422D01*
X20952Y-11492D01*
X20932Y-11542D01*
X20925Y-11526D01*
X20872Y-11473D01*
X20802Y-11444D01*
X20726Y-11444D01*
X20276Y-11444D01*
X20207Y-11473D01*
X20153Y-11526D01*
X20124Y-11596D01*
X20124Y-11672D01*
X20124Y-12222D01*
X20153Y-12291D01*
X20206Y-12345D01*
X20276Y-12374D01*
X20289Y-12374D01*
X20289Y-12920D01*
X20281Y-12920D01*
X20045Y-12920D01*
X19975Y-12949D01*
X19950Y-12974D01*
X19950Y-12974D01*
X19950Y-11955D01*
X19950Y-11955D01*
X19950Y-11955D01*
X19947Y-11936D01*
X19931Y-11859D01*
X19931Y-11859D01*
X19877Y-11778D01*
X19877Y-11778D01*
X18780Y-10681D01*
X18699Y-10627D01*
X18673Y-10622D01*
X18673Y-10595D01*
X18644Y-10525D01*
X18591Y-10472D01*
X18521Y-10443D01*
X18446Y-10443D01*
X17896Y-10443D01*
X17826Y-10471D01*
X17772Y-10525D01*
X17743Y-10595D01*
X17743Y-10670D01*
X17743Y-11120D01*
X17772Y-11190D01*
X17825Y-11244D01*
X17895Y-11273D01*
X17971Y-11273D01*
X18521Y-11273D01*
X18591Y-11244D01*
X18613Y-11221D01*
X19450Y-12058D01*
X19450Y-12974D01*
X19426Y-12949D01*
X19356Y-12920D01*
X19281Y-12920D01*
X19045Y-12920D01*
X18980Y-12947D01*
X18980Y-12787D01*
X18959Y-12680D01*
X18959Y-12680D01*
X18939Y-12650D01*
X18898Y-12589D01*
X18898Y-12589D01*
X18867Y-12559D01*
X18868Y-12433D01*
X18802Y-12273D01*
X18679Y-12151D01*
X18519Y-12085D01*
X18346Y-12084D01*
X18186Y-12151D01*
X18064Y-12273D01*
X17998Y-12433D01*
X17997Y-12606D01*
X18064Y-12766D01*
X18186Y-12888D01*
X18264Y-12920D01*
X18045Y-12920D01*
X17975Y-12949D01*
X17950Y-12974D01*
X17926Y-12949D01*
X17856Y-12920D01*
X17781Y-12920D01*
X17545Y-12920D01*
X17475Y-12949D01*
X17474Y-12950D01*
X17474Y-11273D01*
X17537Y-11273D01*
X17606Y-11244D01*
X17660Y-11190D01*
X17689Y-11121D01*
X17689Y-11045D01*
X17689Y-10595D01*
X17660Y-10525D01*
X17607Y-10472D01*
X17537Y-10443D01*
X17461Y-10443D01*
X16911Y-10443D01*
X16841Y-10471D01*
X16788Y-10525D01*
X16759Y-10595D01*
X16759Y-10670D01*
X16759Y-11120D01*
X16788Y-11190D01*
X16841Y-11244D01*
X16911Y-11273D01*
X16974Y-11273D01*
X16974Y-12645D01*
X16945Y-12602D01*
X16945Y-12602D01*
X15945Y-11602D01*
X15854Y-11542D01*
X15747Y-11520D01*
X15726Y-11520D01*
X15558Y-11352D01*
X15660Y-11310D01*
X15743Y-11228D01*
X15758Y-11244D01*
X15828Y-11273D01*
X15904Y-11273D01*
X16454Y-11273D01*
X16524Y-11244D01*
X16577Y-11190D01*
X16606Y-11121D01*
X16606Y-11045D01*
X16606Y-10595D01*
X16577Y-10525D01*
X16524Y-10472D01*
X16454Y-10443D01*
X16379Y-10443D01*
X15829Y-10443D01*
X15759Y-10471D01*
X15705Y-10525D01*
X15676Y-10595D01*
X15676Y-10608D01*
X15666Y-10608D01*
X15666Y-10608D01*
X15662Y-10608D01*
X15660Y-10607D01*
X15508Y-10543D01*
X15343Y-10543D01*
X15250Y-10582D01*
X15250Y-8678D01*
X15427Y-8501D01*
X15691Y-8501D01*
X15657Y-8514D01*
X15568Y-8754D01*
X15578Y-9009D01*
X15657Y-9202D01*
X15762Y-9241D01*
X16145Y-8858D01*
X16140Y-8852D01*
X16210Y-8781D01*
X16216Y-8787D01*
X16222Y-8781D01*
X16292Y-8852D01*
X16287Y-8858D01*
X16670Y-9241D01*
X16746Y-9213D01*
X16885Y-9352D01*
X16974Y-9389D01*
X16974Y-9593D01*
X16911Y-9593D01*
X16841Y-9621D01*
X16788Y-9675D01*
X16759Y-9745D01*
X16759Y-9758D01*
X16606Y-9758D01*
X16606Y-9745D01*
X16599Y-9727D01*
X16599Y-9311D01*
X16216Y-8928D01*
X15833Y-9311D01*
X15872Y-9416D01*
X16112Y-9506D01*
X16368Y-9496D01*
X16560Y-9416D01*
X16599Y-9311D01*
X16599Y-9727D01*
X16577Y-9675D01*
X16524Y-9622D01*
X16454Y-9593D01*
X16379Y-9593D01*
X15829Y-9593D01*
X15759Y-9621D01*
X15705Y-9675D01*
X15676Y-9745D01*
X15676Y-9820D01*
X15676Y-10270D01*
X15705Y-10340D01*
X15758Y-10394D01*
X15828Y-10423D01*
X15904Y-10423D01*
X16454Y-10423D01*
X16524Y-10394D01*
X16577Y-10340D01*
X16606Y-10271D01*
X16606Y-10258D01*
X16759Y-10258D01*
X16759Y-10270D01*
X16788Y-10340D01*
X16841Y-10394D01*
X16911Y-10423D01*
X16987Y-10423D01*
X17537Y-10423D01*
X17606Y-10394D01*
X17660Y-10340D01*
X17689Y-10271D01*
X17689Y-10258D01*
X17743Y-10258D01*
X17743Y-10270D01*
X17772Y-10340D01*
X17825Y-10394D01*
X17895Y-10423D01*
X17971Y-10423D01*
X18521Y-10423D01*
X18591Y-10394D01*
X18644Y-10340D01*
X18673Y-10271D01*
X18673Y-10195D01*
X18673Y-9745D01*
X18644Y-9675D01*
X18591Y-9622D01*
X18521Y-9593D01*
X18446Y-9593D01*
X17896Y-9593D01*
X17826Y-9621D01*
X17772Y-9675D01*
X17743Y-9745D01*
X17743Y-9758D01*
X17689Y-9758D01*
X17689Y-9745D01*
X17660Y-9675D01*
X17607Y-9622D01*
X17537Y-9593D01*
X17474Y-9593D01*
X17474Y-9383D01*
X17546Y-9353D01*
X17703Y-9196D01*
X17704Y-9199D01*
X17874Y-9369D01*
X18095Y-9461D01*
X18336Y-9461D01*
X18557Y-9370D01*
X18619Y-9308D01*
X18644Y-9370D01*
X18703Y-9429D01*
X18781Y-9461D01*
X18864Y-9461D01*
X19651Y-9461D01*
X19728Y-9429D01*
X19787Y-9370D01*
X19819Y-9293D01*
X19820Y-9210D01*
X19820Y-8423D01*
X19788Y-8345D01*
X19729Y-8286D01*
X19651Y-8254D01*
X19568Y-8254D01*
X19008Y-8254D01*
X18827Y-8073D01*
X21957Y-8073D01*
X21925Y-8105D01*
X21887Y-8197D01*
X21887Y-8272D01*
X21950Y-8334D01*
X22284Y-8334D01*
X22284Y-8326D01*
X22384Y-8326D01*
X22384Y-8334D01*
X22719Y-8334D01*
X22781Y-8272D01*
X22781Y-8197D01*
X22743Y-8105D01*
X22711Y-8073D01*
X32083Y-8073D01*
X32083Y-19879D01*
X32083Y-19879D01*
G37*
G54D21*
X32083Y-19879D02*
X31872Y-19879D01*
X31872Y-19100D01*
X31867Y-18966D01*
X31867Y-13738D01*
X31867Y-11699D01*
X31778Y-11484D01*
X31614Y-11320D01*
X31400Y-11231D01*
X31167Y-11231D01*
X30953Y-11319D01*
X30847Y-11425D01*
X30847Y-9935D01*
X30758Y-9720D01*
X30594Y-9556D01*
X30380Y-9467D01*
X30148Y-9467D01*
X29933Y-9556D01*
X29769Y-9720D01*
X29680Y-9934D01*
X29679Y-10166D01*
X29768Y-10381D01*
X29932Y-10545D01*
X30147Y-10634D01*
X30379Y-10634D01*
X30593Y-10546D01*
X30758Y-10382D01*
X30847Y-10167D01*
X30847Y-9935D01*
X30847Y-11425D01*
X30788Y-11483D01*
X30699Y-11698D01*
X30699Y-11930D01*
X30788Y-12145D01*
X30952Y-12309D01*
X31166Y-12398D01*
X31399Y-12398D01*
X31613Y-12310D01*
X31778Y-12146D01*
X31867Y-11931D01*
X31867Y-11699D01*
X31867Y-13738D01*
X31778Y-13524D01*
X31614Y-13359D01*
X31400Y-13270D01*
X31167Y-13270D01*
X30953Y-13359D01*
X30788Y-13523D01*
X30699Y-13737D01*
X30699Y-13969D01*
X30788Y-14184D01*
X30952Y-14348D01*
X31166Y-14437D01*
X31399Y-14438D01*
X31613Y-14349D01*
X31778Y-14185D01*
X31867Y-13970D01*
X31867Y-13738D01*
X31867Y-18966D01*
X31862Y-18844D01*
X31783Y-18651D01*
X31678Y-18613D01*
X31607Y-18683D01*
X31607Y-18542D01*
X31568Y-18437D01*
X31328Y-18348D01*
X31072Y-18357D01*
X30880Y-18437D01*
X30847Y-18526D01*
X30847Y-15502D01*
X30758Y-15287D01*
X30594Y-15123D01*
X30380Y-15034D01*
X30229Y-15034D01*
X30229Y-12719D01*
X30140Y-12504D01*
X29976Y-12340D01*
X29762Y-12251D01*
X29530Y-12250D01*
X29315Y-12339D01*
X29151Y-12503D01*
X29083Y-12665D01*
X29083Y-8915D01*
X28995Y-8701D01*
X28831Y-8536D01*
X28616Y-8447D01*
X28384Y-8447D01*
X28169Y-8536D01*
X28005Y-8700D01*
X27916Y-8914D01*
X27916Y-9147D01*
X28004Y-9361D01*
X28168Y-9526D01*
X28383Y-9615D01*
X28615Y-9615D01*
X28830Y-9526D01*
X28994Y-9362D01*
X29083Y-9148D01*
X29083Y-8915D01*
X29083Y-12665D01*
X29062Y-12718D01*
X29061Y-12950D01*
X29150Y-13164D01*
X29314Y-13329D01*
X29529Y-13418D01*
X29761Y-13418D01*
X29975Y-13329D01*
X30140Y-13165D01*
X30229Y-12951D01*
X30229Y-12719D01*
X30229Y-15034D01*
X30148Y-15034D01*
X29933Y-15122D01*
X29769Y-15287D01*
X29680Y-15501D01*
X29679Y-15733D01*
X29768Y-15948D01*
X29932Y-16112D01*
X30147Y-16201D01*
X30379Y-16201D01*
X30593Y-16113D01*
X30758Y-15949D01*
X30847Y-15734D01*
X30847Y-15502D01*
X30847Y-18526D01*
X30841Y-18542D01*
X31224Y-18925D01*
X31607Y-18542D01*
X31607Y-18683D01*
X31295Y-18996D01*
X31678Y-19378D01*
X31783Y-19340D01*
X31872Y-19100D01*
X31872Y-19879D01*
X31607Y-19879D01*
X31607Y-19449D01*
X31224Y-19066D01*
X30841Y-19449D01*
X30880Y-19554D01*
X31120Y-19643D01*
X31376Y-19634D01*
X31568Y-19554D01*
X31607Y-19449D01*
X31607Y-19879D01*
X29694Y-19879D01*
X30027Y-19546D01*
X30107Y-19579D01*
X30339Y-19579D01*
X30554Y-19491D01*
X30694Y-19350D01*
X30770Y-19378D01*
X31153Y-18996D01*
X30770Y-18613D01*
X30694Y-18641D01*
X30555Y-18501D01*
X30340Y-18412D01*
X30108Y-18412D01*
X29894Y-18501D01*
X29730Y-18665D01*
X29724Y-18678D01*
X29719Y-18665D01*
X29555Y-18501D01*
X29340Y-18412D01*
X29108Y-18412D01*
X29083Y-18422D01*
X29083Y-16522D01*
X28995Y-16307D01*
X28831Y-16143D01*
X28616Y-16054D01*
X28384Y-16053D01*
X28169Y-16142D01*
X28005Y-16306D01*
X27916Y-16521D01*
X27916Y-16753D01*
X28004Y-16968D01*
X28168Y-17132D01*
X28383Y-17221D01*
X28615Y-17221D01*
X28830Y-17132D01*
X28994Y-16968D01*
X29083Y-16754D01*
X29083Y-16522D01*
X29083Y-18422D01*
X28894Y-18501D01*
X28807Y-18587D01*
X28807Y-18564D01*
X28779Y-18495D01*
X28725Y-18441D01*
X28655Y-18412D01*
X28580Y-18412D01*
X28474Y-18412D01*
X28474Y-18401D01*
X28474Y-18401D01*
X28474Y-18401D01*
X28470Y-18382D01*
X28455Y-18305D01*
X28455Y-18305D01*
X28401Y-18224D01*
X28401Y-18224D01*
X27010Y-16834D01*
X27044Y-16754D01*
X27044Y-16522D01*
X27010Y-16441D01*
X27570Y-15881D01*
X27624Y-15800D01*
X27643Y-15704D01*
X27643Y-15622D01*
X27656Y-15622D01*
X27725Y-15593D01*
X27779Y-15540D01*
X27808Y-15470D01*
X27808Y-15394D01*
X27808Y-14844D01*
X27779Y-14774D01*
X27726Y-14721D01*
X27656Y-14692D01*
X27580Y-14692D01*
X27438Y-14692D01*
X27489Y-14682D01*
X27570Y-14628D01*
X27624Y-14547D01*
X27643Y-14451D01*
X27643Y-14441D01*
X27656Y-14441D01*
X27725Y-14412D01*
X27779Y-14359D01*
X27808Y-14289D01*
X27808Y-14213D01*
X27808Y-13663D01*
X27779Y-13593D01*
X27726Y-13540D01*
X27656Y-13511D01*
X27580Y-13511D01*
X27438Y-13511D01*
X27489Y-13501D01*
X27570Y-13447D01*
X27624Y-13366D01*
X27643Y-13270D01*
X27643Y-13260D01*
X27656Y-13260D01*
X27725Y-13231D01*
X27779Y-13178D01*
X27808Y-13108D01*
X27808Y-13032D01*
X27808Y-12482D01*
X27779Y-12412D01*
X27726Y-12359D01*
X27656Y-12330D01*
X27580Y-12330D01*
X27438Y-12330D01*
X27489Y-12320D01*
X27570Y-12266D01*
X27624Y-12184D01*
X27643Y-12089D01*
X27643Y-12079D01*
X27656Y-12079D01*
X27725Y-12050D01*
X27779Y-11996D01*
X27808Y-11927D01*
X27808Y-11851D01*
X27808Y-11301D01*
X27779Y-11231D01*
X27726Y-11178D01*
X27656Y-11149D01*
X27580Y-11149D01*
X27438Y-11149D01*
X27489Y-11139D01*
X27570Y-11084D01*
X27624Y-11003D01*
X27643Y-10908D01*
X27643Y-10898D01*
X27656Y-10898D01*
X27725Y-10869D01*
X27779Y-10815D01*
X27808Y-10746D01*
X27808Y-10670D01*
X27808Y-10120D01*
X27779Y-10050D01*
X27726Y-9997D01*
X27656Y-9968D01*
X27580Y-9968D01*
X27130Y-9968D01*
X27108Y-9977D01*
X27108Y-9135D01*
X27099Y-8879D01*
X27019Y-8687D01*
X26914Y-8648D01*
X26843Y-8719D01*
X26843Y-8577D01*
X26804Y-8472D01*
X26564Y-8383D01*
X26308Y-8392D01*
X26116Y-8472D01*
X26077Y-8577D01*
X26460Y-8960D01*
X26843Y-8577D01*
X26843Y-8719D01*
X26531Y-9031D01*
X26914Y-9414D01*
X27019Y-9375D01*
X27108Y-9135D01*
X27108Y-9977D01*
X27061Y-9996D01*
X27007Y-10050D01*
X27000Y-10066D01*
X26980Y-10016D01*
X26909Y-9946D01*
X26843Y-9918D01*
X26843Y-9485D01*
X26460Y-9102D01*
X26389Y-9172D01*
X26389Y-9031D01*
X26006Y-8648D01*
X25901Y-8687D01*
X25812Y-8927D01*
X25822Y-9183D01*
X25901Y-9375D01*
X26006Y-9414D01*
X26389Y-9031D01*
X26389Y-9172D01*
X26077Y-9485D01*
X26116Y-9590D01*
X26356Y-9679D01*
X26612Y-9670D01*
X26804Y-9590D01*
X26843Y-9485D01*
X26843Y-9918D01*
X26818Y-9908D01*
X26656Y-9908D01*
X26593Y-9970D01*
X26593Y-10383D01*
X26601Y-10383D01*
X26601Y-10483D01*
X26593Y-10483D01*
X26593Y-10895D01*
X26656Y-10958D01*
X26818Y-10958D01*
X26865Y-10938D01*
X26654Y-11149D01*
X26493Y-11149D01*
X26493Y-10895D01*
X26493Y-10483D01*
X26493Y-10383D01*
X26493Y-9970D01*
X26431Y-9908D01*
X26268Y-9908D01*
X26177Y-9946D01*
X26106Y-10016D01*
X26068Y-10108D01*
X26068Y-10207D01*
X26068Y-10320D01*
X26131Y-10383D01*
X26493Y-10383D01*
X26493Y-10483D01*
X26131Y-10483D01*
X26068Y-10545D01*
X26068Y-10658D01*
X26068Y-10758D01*
X26106Y-10849D01*
X26177Y-10920D01*
X26268Y-10958D01*
X26431Y-10958D01*
X26493Y-10895D01*
X26493Y-11149D01*
X26280Y-11149D01*
X26211Y-11178D01*
X26194Y-11194D01*
X25703Y-10703D01*
X25703Y-8886D01*
X25703Y-8435D01*
X25703Y-8336D01*
X25664Y-8244D01*
X25594Y-8174D01*
X25502Y-8136D01*
X25340Y-8136D01*
X25278Y-8198D01*
X25278Y-8611D01*
X25640Y-8611D01*
X25703Y-8548D01*
X25703Y-8435D01*
X25703Y-8886D01*
X25703Y-8773D01*
X25640Y-8711D01*
X25278Y-8711D01*
X25278Y-9123D01*
X25340Y-9186D01*
X25502Y-9186D01*
X25594Y-9148D01*
X25664Y-9078D01*
X25703Y-8986D01*
X25703Y-8886D01*
X25703Y-10703D01*
X25247Y-10247D01*
X25280Y-10167D01*
X25280Y-9935D01*
X25191Y-9720D01*
X25027Y-9556D01*
X24813Y-9467D01*
X24581Y-9467D01*
X24366Y-9556D01*
X24202Y-9720D01*
X24113Y-9934D01*
X24113Y-10166D01*
X24201Y-10381D01*
X24365Y-10545D01*
X24580Y-10634D01*
X24812Y-10634D01*
X24893Y-10601D01*
X25868Y-11576D01*
X25868Y-11614D01*
X25887Y-11709D01*
X25941Y-11790D01*
X26022Y-11845D01*
X26118Y-11864D01*
X26128Y-11864D01*
X26128Y-11926D01*
X26157Y-11996D01*
X26210Y-12050D01*
X26280Y-12079D01*
X26356Y-12079D01*
X26806Y-12079D01*
X26875Y-12050D01*
X26929Y-11996D01*
X26958Y-11927D01*
X26958Y-11851D01*
X26958Y-11552D01*
X26978Y-11532D01*
X26978Y-11926D01*
X27001Y-11983D01*
X26654Y-12330D01*
X26280Y-12330D01*
X26211Y-12359D01*
X26157Y-12412D01*
X26137Y-12460D01*
X25314Y-11638D01*
X25233Y-11583D01*
X25138Y-11564D01*
X24205Y-11564D01*
X24172Y-11484D01*
X24008Y-11320D01*
X23793Y-11231D01*
X23561Y-11231D01*
X23346Y-11319D01*
X23182Y-11483D01*
X23093Y-11698D01*
X23093Y-11930D01*
X23182Y-12145D01*
X23346Y-12309D01*
X23560Y-12398D01*
X23792Y-12398D01*
X24007Y-12310D01*
X24171Y-12146D01*
X24205Y-12064D01*
X25034Y-12064D01*
X25220Y-12250D01*
X25199Y-12250D01*
X24984Y-12339D01*
X24820Y-12503D01*
X24731Y-12718D01*
X24731Y-12950D01*
X24819Y-13164D01*
X24983Y-13329D01*
X25198Y-13418D01*
X25430Y-13418D01*
X25645Y-13329D01*
X25809Y-13165D01*
X25898Y-12951D01*
X25898Y-12929D01*
X25941Y-12972D01*
X25941Y-12972D01*
X26022Y-13026D01*
X26022Y-13026D01*
X26099Y-13041D01*
X26118Y-13045D01*
X26118Y-13045D01*
X26118Y-13045D01*
X26128Y-13045D01*
X26128Y-13107D01*
X26157Y-13177D01*
X26210Y-13231D01*
X26280Y-13260D01*
X26356Y-13260D01*
X26806Y-13260D01*
X26875Y-13231D01*
X26929Y-13178D01*
X26958Y-13108D01*
X26958Y-13032D01*
X26958Y-12733D01*
X26978Y-12713D01*
X26978Y-13107D01*
X27001Y-13164D01*
X26654Y-13511D01*
X26280Y-13511D01*
X26211Y-13540D01*
X26157Y-13593D01*
X26133Y-13651D01*
X26092Y-13623D01*
X25996Y-13604D01*
X24205Y-13604D01*
X24172Y-13524D01*
X24008Y-13359D01*
X23793Y-13270D01*
X23561Y-13270D01*
X23346Y-13359D01*
X23182Y-13523D01*
X23093Y-13737D01*
X23093Y-13856D01*
X23073Y-13809D01*
X23020Y-13755D01*
X22950Y-13726D01*
X22887Y-13726D01*
X22887Y-10617D01*
X23099Y-10405D01*
X23423Y-10405D01*
X23493Y-10377D01*
X23547Y-10323D01*
X23576Y-10253D01*
X23576Y-10178D01*
X23576Y-9866D01*
X24316Y-9126D01*
X24640Y-9126D01*
X24710Y-9097D01*
X24764Y-9044D01*
X24770Y-9028D01*
X24791Y-9078D01*
X24861Y-9148D01*
X24953Y-9186D01*
X25115Y-9186D01*
X25178Y-9123D01*
X25178Y-8711D01*
X25170Y-8711D01*
X25170Y-8611D01*
X25178Y-8611D01*
X25178Y-8198D01*
X25115Y-8136D01*
X24953Y-8136D01*
X24861Y-8174D01*
X24791Y-8244D01*
X24770Y-8294D01*
X24764Y-8278D01*
X24710Y-8225D01*
X24641Y-8196D01*
X24565Y-8196D01*
X24115Y-8196D01*
X24045Y-8225D01*
X23992Y-8278D01*
X23963Y-8348D01*
X23963Y-8424D01*
X23963Y-8772D01*
X23721Y-9014D01*
X23721Y-8860D01*
X23721Y-8584D01*
X23692Y-8514D01*
X23639Y-8460D01*
X23569Y-8431D01*
X23494Y-8431D01*
X23100Y-8431D01*
X23030Y-8460D01*
X22976Y-8514D01*
X22947Y-8583D01*
X22947Y-8659D01*
X22947Y-8935D01*
X22976Y-9005D01*
X23029Y-9058D01*
X23099Y-9087D01*
X23175Y-9087D01*
X23569Y-9087D01*
X23639Y-9059D01*
X23692Y-9005D01*
X23721Y-8935D01*
X23721Y-8860D01*
X23721Y-9014D01*
X23260Y-9475D01*
X22898Y-9475D01*
X22828Y-9504D01*
X22781Y-9551D01*
X22781Y-8572D01*
X22781Y-8497D01*
X22719Y-8434D01*
X22384Y-8434D01*
X22384Y-8710D01*
X22447Y-8772D01*
X22482Y-8772D01*
X22581Y-8772D01*
X22673Y-8734D01*
X22743Y-8664D01*
X22781Y-8572D01*
X22781Y-9551D01*
X22775Y-9558D01*
X22746Y-9627D01*
X22746Y-9703D01*
X22746Y-10052D01*
X22726Y-10072D01*
X22726Y-9628D01*
X22697Y-9558D01*
X22643Y-9504D01*
X22584Y-9480D01*
X22584Y-9456D01*
X22639Y-9434D01*
X22692Y-9380D01*
X22721Y-9310D01*
X22721Y-9235D01*
X22721Y-8959D01*
X22692Y-8889D01*
X22639Y-8835D01*
X22569Y-8806D01*
X22494Y-8806D01*
X22284Y-8806D01*
X22284Y-8710D01*
X22284Y-8434D01*
X21950Y-8434D01*
X21887Y-8497D01*
X21887Y-8572D01*
X21925Y-8664D01*
X21995Y-8734D01*
X22087Y-8772D01*
X22187Y-8772D01*
X22222Y-8772D01*
X22284Y-8710D01*
X22284Y-8806D01*
X22100Y-8806D01*
X22030Y-8835D01*
X21976Y-8889D01*
X21947Y-8958D01*
X21947Y-9034D01*
X21947Y-9310D01*
X21976Y-9380D01*
X22029Y-9433D01*
X22084Y-9456D01*
X22084Y-9475D01*
X22048Y-9475D01*
X21978Y-9504D01*
X21925Y-9558D01*
X21896Y-9627D01*
X21896Y-9690D01*
X21864Y-9690D01*
X21864Y-9083D01*
X21864Y-8632D01*
X21864Y-8533D01*
X21826Y-8441D01*
X21755Y-8371D01*
X21664Y-8333D01*
X21502Y-8333D01*
X21439Y-8395D01*
X21439Y-8808D01*
X21802Y-8808D01*
X21864Y-8745D01*
X21864Y-8632D01*
X21864Y-9083D01*
X21864Y-8970D01*
X21802Y-8908D01*
X21439Y-8908D01*
X21439Y-9320D01*
X21502Y-9383D01*
X21664Y-9383D01*
X21755Y-9345D01*
X21826Y-9275D01*
X21864Y-9183D01*
X21864Y-9083D01*
X21864Y-9690D01*
X21804Y-9690D01*
X21804Y-9628D01*
X21775Y-9558D01*
X21722Y-9504D01*
X21652Y-9475D01*
X21576Y-9475D01*
X21126Y-9475D01*
X21057Y-9504D01*
X21003Y-9558D01*
X20974Y-9627D01*
X20974Y-9703D01*
X20974Y-10253D01*
X21003Y-10323D01*
X21056Y-10376D01*
X21126Y-10405D01*
X21202Y-10405D01*
X21652Y-10405D01*
X21722Y-10377D01*
X21775Y-10323D01*
X21804Y-10253D01*
X21804Y-10190D01*
X21896Y-10190D01*
X21896Y-10253D01*
X21925Y-10323D01*
X21978Y-10376D01*
X22048Y-10405D01*
X22123Y-10405D01*
X22415Y-10405D01*
X22406Y-10418D01*
X22387Y-10514D01*
X22387Y-10928D01*
X22342Y-10883D01*
X22183Y-10816D01*
X22102Y-10816D01*
X22042Y-10727D01*
X21951Y-10666D01*
X21844Y-10645D01*
X21824Y-10645D01*
X21824Y-10608D01*
X21792Y-10531D01*
X21733Y-10472D01*
X21656Y-10440D01*
X21572Y-10440D01*
X21122Y-10440D01*
X21045Y-10472D01*
X20986Y-10531D01*
X20954Y-10608D01*
X20954Y-10613D01*
X20954Y-10612D01*
X20925Y-10542D01*
X20872Y-10489D01*
X20802Y-10460D01*
X20789Y-10460D01*
X20789Y-10405D01*
X20802Y-10405D01*
X20872Y-10377D01*
X20925Y-10323D01*
X20954Y-10253D01*
X20954Y-10178D01*
X20954Y-9628D01*
X20925Y-9558D01*
X20872Y-9504D01*
X20802Y-9475D01*
X20789Y-9475D01*
X20789Y-9323D01*
X20802Y-9323D01*
X20872Y-9294D01*
X20925Y-9241D01*
X20932Y-9225D01*
X20952Y-9275D01*
X21023Y-9345D01*
X21115Y-9383D01*
X21277Y-9383D01*
X21339Y-9320D01*
X21339Y-8908D01*
X21331Y-8908D01*
X21331Y-8808D01*
X21339Y-8808D01*
X21339Y-8395D01*
X21277Y-8333D01*
X21115Y-8333D01*
X21023Y-8371D01*
X20952Y-8441D01*
X20932Y-8491D01*
X20925Y-8475D01*
X20872Y-8422D01*
X20802Y-8393D01*
X20726Y-8393D01*
X20276Y-8393D01*
X20207Y-8422D01*
X20153Y-8475D01*
X20124Y-8545D01*
X20124Y-8620D01*
X20124Y-9170D01*
X20153Y-9240D01*
X20206Y-9294D01*
X20276Y-9323D01*
X20289Y-9323D01*
X20289Y-9475D01*
X20276Y-9475D01*
X20207Y-9504D01*
X20153Y-9558D01*
X20124Y-9627D01*
X20124Y-9703D01*
X20124Y-10253D01*
X20153Y-10323D01*
X20206Y-10376D01*
X20276Y-10405D01*
X20289Y-10405D01*
X20289Y-10460D01*
X20276Y-10460D01*
X20207Y-10489D01*
X20153Y-10542D01*
X20124Y-10612D01*
X20124Y-10687D01*
X20124Y-11237D01*
X20153Y-11307D01*
X20206Y-11361D01*
X20276Y-11390D01*
X20352Y-11390D01*
X20802Y-11390D01*
X20872Y-11361D01*
X20925Y-11307D01*
X20954Y-11238D01*
X20954Y-11241D01*
X20986Y-11318D01*
X21045Y-11378D01*
X21087Y-11395D01*
X21023Y-11422D01*
X20952Y-11492D01*
X20932Y-11542D01*
X20925Y-11526D01*
X20872Y-11473D01*
X20802Y-11444D01*
X20726Y-11444D01*
X20276Y-11444D01*
X20207Y-11473D01*
X20153Y-11526D01*
X20124Y-11596D01*
X20124Y-11672D01*
X20124Y-12222D01*
X20153Y-12291D01*
X20206Y-12345D01*
X20276Y-12374D01*
X20289Y-12374D01*
X20289Y-12920D01*
X20281Y-12920D01*
X20045Y-12920D01*
X19975Y-12949D01*
X19950Y-12974D01*
X19950Y-12974D01*
X19950Y-11955D01*
X19950Y-11955D01*
X19950Y-11955D01*
X19947Y-11936D01*
X19931Y-11859D01*
X19931Y-11859D01*
X19877Y-11778D01*
X19877Y-11778D01*
X18780Y-10681D01*
X18699Y-10627D01*
X18673Y-10622D01*
X18673Y-10595D01*
X18644Y-10525D01*
X18591Y-10472D01*
X18521Y-10443D01*
X18446Y-10443D01*
X17896Y-10443D01*
X17826Y-10471D01*
X17772Y-10525D01*
X17743Y-10595D01*
X17743Y-10670D01*
X17743Y-11120D01*
X17772Y-11190D01*
X17825Y-11244D01*
X17895Y-11273D01*
X17971Y-11273D01*
X18521Y-11273D01*
X18591Y-11244D01*
X18613Y-11221D01*
X19450Y-12058D01*
X19450Y-12974D01*
X19426Y-12949D01*
X19356Y-12920D01*
X19281Y-12920D01*
X19045Y-12920D01*
X18980Y-12947D01*
X18980Y-12787D01*
X18959Y-12680D01*
X18959Y-12680D01*
X18939Y-12650D01*
X18898Y-12589D01*
X18898Y-12589D01*
X18867Y-12559D01*
X18868Y-12433D01*
X18802Y-12273D01*
X18679Y-12151D01*
X18519Y-12085D01*
X18346Y-12084D01*
X18186Y-12151D01*
X18064Y-12273D01*
X17998Y-12433D01*
X17997Y-12606D01*
X18064Y-12766D01*
X18186Y-12888D01*
X18264Y-12920D01*
X18045Y-12920D01*
X17975Y-12949D01*
X17950Y-12974D01*
X17926Y-12949D01*
X17856Y-12920D01*
X17781Y-12920D01*
X17545Y-12920D01*
X17475Y-12949D01*
X17474Y-12950D01*
X17474Y-11273D01*
X17537Y-11273D01*
X17606Y-11244D01*
X17660Y-11190D01*
X17689Y-11121D01*
X17689Y-11045D01*
X17689Y-10595D01*
X17660Y-10525D01*
X17607Y-10472D01*
X17537Y-10443D01*
X17461Y-10443D01*
X16911Y-10443D01*
X16841Y-10471D01*
X16788Y-10525D01*
X16759Y-10595D01*
X16759Y-10670D01*
X16759Y-11120D01*
X16788Y-11190D01*
X16841Y-11244D01*
X16911Y-11273D01*
X16974Y-11273D01*
X16974Y-12645D01*
X16945Y-12602D01*
X16945Y-12602D01*
X15945Y-11602D01*
X15854Y-11542D01*
X15747Y-11520D01*
X15726Y-11520D01*
X15558Y-11352D01*
X15660Y-11310D01*
X15743Y-11228D01*
X15758Y-11244D01*
X15828Y-11273D01*
X15904Y-11273D01*
X16454Y-11273D01*
X16524Y-11244D01*
X16577Y-11190D01*
X16606Y-11121D01*
X16606Y-11045D01*
X16606Y-10595D01*
X16577Y-10525D01*
X16524Y-10472D01*
X16454Y-10443D01*
X16379Y-10443D01*
X15829Y-10443D01*
X15759Y-10471D01*
X15705Y-10525D01*
X15676Y-10595D01*
X15676Y-10608D01*
X15666Y-10608D01*
X15666Y-10608D01*
X15662Y-10608D01*
X15660Y-10607D01*
X15508Y-10543D01*
X15343Y-10543D01*
X15250Y-10582D01*
X15250Y-8678D01*
X15427Y-8501D01*
X15691Y-8501D01*
X15657Y-8514D01*
X15568Y-8754D01*
X15578Y-9009D01*
X15657Y-9202D01*
X15762Y-9241D01*
X16145Y-8858D01*
X16140Y-8852D01*
X16210Y-8781D01*
X16216Y-8787D01*
X16222Y-8781D01*
X16292Y-8852D01*
X16287Y-8858D01*
X16670Y-9241D01*
X16746Y-9213D01*
X16885Y-9352D01*
X16974Y-9389D01*
X16974Y-9593D01*
X16911Y-9593D01*
X16841Y-9621D01*
X16788Y-9675D01*
X16759Y-9745D01*
X16759Y-9758D01*
X16606Y-9758D01*
X16606Y-9745D01*
X16599Y-9727D01*
X16599Y-9311D01*
X16216Y-8928D01*
X15833Y-9311D01*
X15872Y-9416D01*
X16112Y-9506D01*
X16368Y-9496D01*
X16560Y-9416D01*
X16599Y-9311D01*
X16599Y-9727D01*
X16577Y-9675D01*
X16524Y-9622D01*
X16454Y-9593D01*
X16379Y-9593D01*
X15829Y-9593D01*
X15759Y-9621D01*
X15705Y-9675D01*
X15676Y-9745D01*
X15676Y-9820D01*
X15676Y-10270D01*
X15705Y-10340D01*
X15758Y-10394D01*
X15828Y-10423D01*
X15904Y-10423D01*
X16454Y-10423D01*
X16524Y-10394D01*
X16577Y-10340D01*
X16606Y-10271D01*
X16606Y-10258D01*
X16759Y-10258D01*
X16759Y-10270D01*
X16788Y-10340D01*
X16841Y-10394D01*
X16911Y-10423D01*
X16987Y-10423D01*
X17537Y-10423D01*
X17606Y-10394D01*
X17660Y-10340D01*
X17689Y-10271D01*
X17689Y-10258D01*
X17743Y-10258D01*
X17743Y-10270D01*
X17772Y-10340D01*
X17825Y-10394D01*
X17895Y-10423D01*
X17971Y-10423D01*
X18521Y-10423D01*
X18591Y-10394D01*
X18644Y-10340D01*
X18673Y-10271D01*
X18673Y-10195D01*
X18673Y-9745D01*
X18644Y-9675D01*
X18591Y-9622D01*
X18521Y-9593D01*
X18446Y-9593D01*
X17896Y-9593D01*
X17826Y-9621D01*
X17772Y-9675D01*
X17743Y-9745D01*
X17743Y-9758D01*
X17689Y-9758D01*
X17689Y-9745D01*
X17660Y-9675D01*
X17607Y-9622D01*
X17537Y-9593D01*
X17474Y-9593D01*
X17474Y-9383D01*
X17546Y-9353D01*
X17703Y-9196D01*
X17704Y-9199D01*
X17874Y-9369D01*
X18095Y-9461D01*
X18336Y-9461D01*
X18557Y-9370D01*
X18619Y-9308D01*
X18644Y-9370D01*
X18703Y-9429D01*
X18781Y-9461D01*
X18864Y-9461D01*
X19651Y-9461D01*
X19728Y-9429D01*
X19787Y-9370D01*
X19819Y-9293D01*
X19820Y-9210D01*
X19820Y-8423D01*
X19788Y-8345D01*
X19729Y-8286D01*
X19651Y-8254D01*
X19568Y-8254D01*
X19008Y-8254D01*
X18827Y-8073D01*
X21957Y-8073D01*
X21925Y-8105D01*
X21887Y-8197D01*
X21887Y-8272D01*
X21950Y-8334D01*
X22284Y-8334D01*
X22284Y-8326D01*
X22384Y-8326D01*
X22384Y-8334D01*
X22719Y-8334D01*
X22781Y-8272D01*
X22781Y-8197D01*
X22743Y-8105D01*
X22711Y-8073D01*
X32083Y-8073D01*
X32083Y-19879D01*
M02*
