G04 (created by PCBNEW (2013-07-07 BZR 4022)-stable) date 2014-06-17 1:34:36 PM*
%MOIN*%
G04 Gerber Fmt 3.4, Leading zero omitted, Abs format*
%FSLAX34Y34*%
G01*
G70*
G90*
G04 APERTURE LIST*
%ADD10C,0.00590551*%
%ADD11C,0.0802748*%
%ADD12R,0.0409748X0.0291748*%
%ADD13R,0.0565748X0.0465748*%
%ADD14R,0.0465748X0.0565748*%
%ADD15R,0.0802748X0.0802748*%
%ADD16R,0.0251748X0.0881748*%
%ADD17C,0.080315*%
G04 APERTURE END LIST*
G54D10*
G54D11*
X13543Y-19133D03*
X11574Y-19133D03*
X15511Y-19133D03*
G54D12*
X12114Y-11712D03*
X11114Y-12087D03*
X11114Y-11337D03*
G54D13*
X16043Y-15976D03*
X16043Y-15126D03*
X16043Y-14007D03*
X16043Y-13157D03*
X17224Y-10858D03*
X17224Y-10008D03*
G54D14*
X26543Y-15157D03*
X27393Y-15157D03*
X26543Y-13976D03*
X27393Y-13976D03*
X26543Y-12795D03*
X27393Y-12795D03*
X26543Y-11614D03*
X27393Y-11614D03*
X26543Y-10433D03*
X27393Y-10433D03*
X12960Y-11515D03*
X13810Y-11515D03*
X11189Y-9547D03*
X12039Y-9547D03*
X12960Y-9547D03*
X13810Y-9547D03*
G54D13*
X18208Y-10858D03*
X18208Y-10008D03*
G54D14*
X20539Y-11909D03*
X21389Y-11909D03*
G54D13*
X14665Y-17094D03*
X14665Y-17944D03*
G54D14*
X12960Y-10531D03*
X13810Y-10531D03*
G54D13*
X13582Y-17944D03*
X13582Y-17094D03*
G54D14*
X11189Y-10531D03*
X12039Y-10531D03*
X12075Y-8562D03*
X12925Y-8562D03*
G54D15*
X19216Y-8858D03*
G54D11*
X18216Y-8858D03*
X17216Y-8858D03*
X16216Y-8858D03*
G54D16*
X17200Y-15589D03*
X17700Y-15589D03*
X18200Y-15589D03*
X18700Y-15589D03*
X19200Y-15589D03*
X19700Y-15589D03*
X20200Y-15589D03*
X20200Y-13543D03*
X19700Y-13543D03*
X19200Y-13543D03*
X18700Y-13543D03*
X18200Y-13543D03*
X17700Y-13543D03*
X17200Y-13543D03*
G54D17*
X23677Y-11814D03*
X24696Y-10051D03*
X26460Y-9031D03*
X28500Y-9031D03*
X30263Y-10051D03*
X31283Y-11814D03*
X29645Y-12834D03*
X25314Y-12834D03*
X23677Y-13854D03*
X24696Y-15618D03*
X26460Y-16637D03*
X28500Y-16637D03*
X30263Y-15618D03*
X31283Y-13854D03*
G54D12*
X23334Y-8759D03*
X22334Y-9134D03*
X22334Y-8384D03*
G54D14*
X22311Y-9940D03*
X23161Y-9940D03*
X24378Y-8661D03*
X25228Y-8661D03*
G54D13*
X22637Y-14141D03*
X22637Y-14991D03*
G54D14*
X20539Y-9940D03*
X21389Y-9940D03*
X21389Y-10925D03*
X20539Y-10925D03*
X20539Y-8858D03*
X21389Y-8858D03*
G54D16*
X14923Y-13543D03*
X14423Y-13543D03*
X13923Y-13543D03*
X13423Y-13543D03*
X13423Y-15589D03*
X13923Y-15589D03*
X14423Y-15589D03*
X14923Y-15589D03*
G54D11*
X18307Y-19110D03*
X17307Y-18110D03*
G54D15*
X19307Y-18110D03*
G54D11*
X21850Y-19110D03*
X20850Y-18110D03*
G54D15*
X22850Y-18110D03*
G54D11*
X25393Y-19110D03*
X24393Y-18110D03*
G54D15*
X26393Y-18110D03*
G54D11*
X11204Y-14566D03*
X12204Y-13566D03*
G54D15*
X12204Y-15566D03*
G54D13*
X12106Y-17944D03*
X12106Y-17094D03*
X11023Y-17944D03*
X11023Y-17094D03*
X16141Y-10858D03*
X16141Y-10008D03*
G54D15*
X28224Y-18996D03*
G54D11*
X29224Y-18996D03*
X30224Y-18996D03*
X31224Y-18996D03*
G54D13*
X21555Y-14141D03*
X21555Y-14991D03*
X16043Y-17094D03*
X16043Y-17944D03*
G54D14*
X22114Y-16929D03*
X22964Y-16929D03*
X24378Y-16929D03*
X25228Y-16929D03*
M02*
