M48
INCH,TZ
T1C0.015
T2C0.040
%
G90
G05
T1
X022502Y-044724
X022541Y-042083
X023710Y-040620
X023744Y-043654
X023924Y-045122
X024835Y-043895
X024906Y-042721
X024924Y-044973
X025000Y-040610
X025109Y-041366
X025591Y-044882
X026073Y-042077
X027087Y-044823
X028333Y-044119
X028335Y-042045
X028465Y-046339
X029811Y-045158
X030006Y-041221
X030184Y-046441
X031081Y-041121
X031161Y-040630
X031179Y-045225
X031201Y-046299
X032193Y-041366
X032283Y-043453
X032382Y-046491
X033484Y-040610
X033555Y-046288
X034055Y-044882
X034541Y-043762
X034748Y-042933
X034750Y-041366
X037205Y-043307
T2
X036220Y-041126
X036220Y-043126
X036220Y-044669
X036220Y-046669
X037220Y-042126
X037220Y-045669
T0
M30
