%FSLAX34Y34*%
G04 Gerber Fmt 3.4, Leading zero omitted, Abs format*
G04 (created by PCBNEW (2014-02-02 BZR 4653)-product) date 2014-03-02 10:39:36 PM*
%MOIN*%
G01*
G70*
G90*
G04 APERTURE LIST*
%ADD10C,0.005906*%
%ADD11C,0.010000*%
%ADD12C,0.006000*%
%ADD13R,0.045000X0.032000*%
%ADD14O,0.053150X0.157480*%
%ADD15C,0.078700*%
%ADD16R,0.078700X0.078700*%
G04 APERTURE END LIST*
G54D10*
G54D11*
X30157Y-43070D02*
X30157Y-41968D01*
X30157Y-41968D02*
X30866Y-41968D01*
X30866Y-41968D02*
X30866Y-43070D01*
X30866Y-43070D02*
X30157Y-43070D01*
X25236Y-44645D02*
X25236Y-43543D01*
X25236Y-43543D02*
X25944Y-43543D01*
X25944Y-43543D02*
X25944Y-44645D01*
X25944Y-44645D02*
X25236Y-44645D01*
X27125Y-43543D02*
X27125Y-44645D01*
X27125Y-44645D02*
X26417Y-44645D01*
X26417Y-44645D02*
X26417Y-43543D01*
X26417Y-43543D02*
X27125Y-43543D01*
X25236Y-43070D02*
X25236Y-41968D01*
X25236Y-41968D02*
X25944Y-41968D01*
X25944Y-41968D02*
X25944Y-43070D01*
X25944Y-43070D02*
X25236Y-43070D01*
X34409Y-45118D02*
X34409Y-46220D01*
X34409Y-46220D02*
X33700Y-46220D01*
X33700Y-46220D02*
X33700Y-45118D01*
X33700Y-45118D02*
X34409Y-45118D01*
X34409Y-43543D02*
X34409Y-44645D01*
X34409Y-44645D02*
X33700Y-44645D01*
X33700Y-44645D02*
X33700Y-43543D01*
X33700Y-43543D02*
X34409Y-43543D01*
X33700Y-41496D02*
X33700Y-40393D01*
X33700Y-40393D02*
X34409Y-40393D01*
X34409Y-40393D02*
X34409Y-41496D01*
X34409Y-41496D02*
X33700Y-41496D01*
X32519Y-41496D02*
X32519Y-40393D01*
X32519Y-40393D02*
X33228Y-40393D01*
X33228Y-40393D02*
X33228Y-41496D01*
X33228Y-41496D02*
X32519Y-41496D01*
X34409Y-41968D02*
X34409Y-43070D01*
X34409Y-43070D02*
X33700Y-43070D01*
X33700Y-43070D02*
X33700Y-41968D01*
X33700Y-41968D02*
X34409Y-41968D01*
X21692Y-46220D02*
X21692Y-45118D01*
X21692Y-45118D02*
X22401Y-45118D01*
X22401Y-45118D02*
X22401Y-46220D01*
X22401Y-46220D02*
X21692Y-46220D01*
X31338Y-43070D02*
X31338Y-41968D01*
X31338Y-41968D02*
X32047Y-41968D01*
X32047Y-41968D02*
X32047Y-43070D01*
X32047Y-43070D02*
X31338Y-43070D01*
X31338Y-41496D02*
X31338Y-40393D01*
X31338Y-40393D02*
X32047Y-40393D01*
X32047Y-40393D02*
X32047Y-41496D01*
X32047Y-41496D02*
X31338Y-41496D01*
X25236Y-46220D02*
X25236Y-45118D01*
X25236Y-45118D02*
X25944Y-45118D01*
X25944Y-45118D02*
X25944Y-46220D01*
X25944Y-46220D02*
X25236Y-46220D01*
X27125Y-45118D02*
X27125Y-46220D01*
X27125Y-46220D02*
X26417Y-46220D01*
X26417Y-46220D02*
X26417Y-45118D01*
X26417Y-45118D02*
X27125Y-45118D01*
X24055Y-46220D02*
X24055Y-45118D01*
X24055Y-45118D02*
X24763Y-45118D01*
X24763Y-45118D02*
X24763Y-46220D01*
X24763Y-46220D02*
X24055Y-46220D01*
X22874Y-46220D02*
X22874Y-45118D01*
X22874Y-45118D02*
X23582Y-45118D01*
X23582Y-45118D02*
X23582Y-46220D01*
X23582Y-46220D02*
X22874Y-46220D01*
X35590Y-42755D02*
X35590Y-43858D01*
X35590Y-43858D02*
X34881Y-43858D01*
X34881Y-43858D02*
X34881Y-42755D01*
X34881Y-42755D02*
X35590Y-42755D01*
X28976Y-44645D02*
X28976Y-43543D01*
X28976Y-43543D02*
X29685Y-43543D01*
X29685Y-43543D02*
X29685Y-44645D01*
X29685Y-44645D02*
X28976Y-44645D01*
X28976Y-41496D02*
X28976Y-40393D01*
X28976Y-40393D02*
X29685Y-40393D01*
X29685Y-40393D02*
X29685Y-41496D01*
X29685Y-41496D02*
X28976Y-41496D01*
X30866Y-45118D02*
X30866Y-46220D01*
X30866Y-46220D02*
X30157Y-46220D01*
X30157Y-46220D02*
X30157Y-45118D01*
X30157Y-45118D02*
X30866Y-45118D01*
X29685Y-45118D02*
X29685Y-46220D01*
X29685Y-46220D02*
X28976Y-46220D01*
X28976Y-46220D02*
X28976Y-45118D01*
X28976Y-45118D02*
X29685Y-45118D01*
X31338Y-46220D02*
X31338Y-45118D01*
X31338Y-45118D02*
X32047Y-45118D01*
X32047Y-45118D02*
X32047Y-46220D01*
X32047Y-46220D02*
X31338Y-46220D01*
X30866Y-43543D02*
X30866Y-44645D01*
X30866Y-44645D02*
X30157Y-44645D01*
X30157Y-44645D02*
X30157Y-43543D01*
X30157Y-43543D02*
X30866Y-43543D01*
X29685Y-41968D02*
X29685Y-43070D01*
X29685Y-43070D02*
X28976Y-43070D01*
X28976Y-43070D02*
X28976Y-41968D01*
X28976Y-41968D02*
X29685Y-41968D01*
X32519Y-43070D02*
X32519Y-41968D01*
X32519Y-41968D02*
X33228Y-41968D01*
X33228Y-41968D02*
X33228Y-43070D01*
X33228Y-43070D02*
X32519Y-43070D01*
X33228Y-45118D02*
X33228Y-46220D01*
X33228Y-46220D02*
X32519Y-46220D01*
X32519Y-46220D02*
X32519Y-45118D01*
X32519Y-45118D02*
X33228Y-45118D01*
X32519Y-44645D02*
X32519Y-43543D01*
X32519Y-43543D02*
X33228Y-43543D01*
X33228Y-43543D02*
X33228Y-44645D01*
X33228Y-44645D02*
X32519Y-44645D01*
X34881Y-41496D02*
X34881Y-40393D01*
X34881Y-40393D02*
X35590Y-40393D01*
X35590Y-40393D02*
X35590Y-41496D01*
X35590Y-41496D02*
X34881Y-41496D01*
X35590Y-45118D02*
X35590Y-46220D01*
X35590Y-46220D02*
X34881Y-46220D01*
X34881Y-46220D02*
X34881Y-45118D01*
X34881Y-45118D02*
X35590Y-45118D01*
X22401Y-43543D02*
X22401Y-44645D01*
X22401Y-44645D02*
X21692Y-44645D01*
X21692Y-44645D02*
X21692Y-43543D01*
X21692Y-43543D02*
X22401Y-43543D01*
X22874Y-43070D02*
X22874Y-41968D01*
X22874Y-41968D02*
X23582Y-41968D01*
X23582Y-41968D02*
X23582Y-43070D01*
X23582Y-43070D02*
X22874Y-43070D01*
X22401Y-41968D02*
X22401Y-43070D01*
X22401Y-43070D02*
X21692Y-43070D01*
X21692Y-43070D02*
X21692Y-41968D01*
X21692Y-41968D02*
X22401Y-41968D01*
X22401Y-40393D02*
X22401Y-41496D01*
X22401Y-41496D02*
X21692Y-41496D01*
X21692Y-41496D02*
X21692Y-40393D01*
X21692Y-40393D02*
X22401Y-40393D01*
X22874Y-41496D02*
X22874Y-40393D01*
X22874Y-40393D02*
X23582Y-40393D01*
X23582Y-40393D02*
X23582Y-41496D01*
X23582Y-41496D02*
X22874Y-41496D01*
X27125Y-40393D02*
X27125Y-41496D01*
X27125Y-41496D02*
X26417Y-41496D01*
X26417Y-41496D02*
X26417Y-40393D01*
X26417Y-40393D02*
X27125Y-40393D01*
X25236Y-41496D02*
X25236Y-40393D01*
X25236Y-40393D02*
X25944Y-40393D01*
X25944Y-40393D02*
X25944Y-41496D01*
X25944Y-41496D02*
X25236Y-41496D01*
X24055Y-41496D02*
X24055Y-40393D01*
X24055Y-40393D02*
X24763Y-40393D01*
X24763Y-40393D02*
X24763Y-41496D01*
X24763Y-41496D02*
X24055Y-41496D01*
X31338Y-44645D02*
X31338Y-43543D01*
X31338Y-43543D02*
X32047Y-43543D01*
X32047Y-43543D02*
X32047Y-44645D01*
X32047Y-44645D02*
X31338Y-44645D01*
X30157Y-41496D02*
X30157Y-40393D01*
X30157Y-40393D02*
X30866Y-40393D01*
X30866Y-40393D02*
X30866Y-41496D01*
X30866Y-41496D02*
X30157Y-41496D01*
G54D12*
X30666Y-41840D02*
X30746Y-41726D01*
X30803Y-41840D02*
X30803Y-41600D01*
X30711Y-41600D01*
X30688Y-41612D01*
X30677Y-41623D01*
X30666Y-41646D01*
X30666Y-41680D01*
X30677Y-41703D01*
X30688Y-41715D01*
X30711Y-41726D01*
X30803Y-41726D01*
X30437Y-41840D02*
X30574Y-41840D01*
X30506Y-41840D02*
X30506Y-41600D01*
X30528Y-41635D01*
X30551Y-41657D01*
X30574Y-41669D01*
X30288Y-41600D02*
X30266Y-41600D01*
X30243Y-41612D01*
X30231Y-41623D01*
X30220Y-41646D01*
X30208Y-41692D01*
X30208Y-41749D01*
X30220Y-41795D01*
X30231Y-41817D01*
X30243Y-41829D01*
X30266Y-41840D01*
X30288Y-41840D01*
X30311Y-41829D01*
X30323Y-41817D01*
X30334Y-41795D01*
X30346Y-41749D01*
X30346Y-41692D01*
X30334Y-41646D01*
X30323Y-41623D01*
X30311Y-41612D01*
X30288Y-41600D01*
X25744Y-43415D02*
X25824Y-43301D01*
X25881Y-43415D02*
X25881Y-43175D01*
X25790Y-43175D01*
X25767Y-43187D01*
X25756Y-43198D01*
X25744Y-43221D01*
X25744Y-43255D01*
X25756Y-43278D01*
X25767Y-43289D01*
X25790Y-43301D01*
X25881Y-43301D01*
X25653Y-43198D02*
X25641Y-43187D01*
X25619Y-43175D01*
X25561Y-43175D01*
X25539Y-43187D01*
X25527Y-43198D01*
X25516Y-43221D01*
X25516Y-43244D01*
X25527Y-43278D01*
X25664Y-43415D01*
X25516Y-43415D01*
X25367Y-43175D02*
X25344Y-43175D01*
X25321Y-43187D01*
X25310Y-43198D01*
X25299Y-43221D01*
X25287Y-43267D01*
X25287Y-43324D01*
X25299Y-43369D01*
X25310Y-43392D01*
X25321Y-43404D01*
X25344Y-43415D01*
X25367Y-43415D01*
X25390Y-43404D01*
X25401Y-43392D01*
X25413Y-43369D01*
X25424Y-43324D01*
X25424Y-43267D01*
X25413Y-43221D01*
X25401Y-43198D01*
X25390Y-43187D01*
X25367Y-43175D01*
X26811Y-43392D02*
X26823Y-43404D01*
X26857Y-43415D01*
X26880Y-43415D01*
X26914Y-43404D01*
X26937Y-43381D01*
X26948Y-43358D01*
X26960Y-43312D01*
X26960Y-43278D01*
X26948Y-43232D01*
X26937Y-43209D01*
X26914Y-43187D01*
X26880Y-43175D01*
X26857Y-43175D01*
X26823Y-43187D01*
X26811Y-43198D01*
X26731Y-43175D02*
X26583Y-43175D01*
X26663Y-43267D01*
X26628Y-43267D01*
X26605Y-43278D01*
X26594Y-43289D01*
X26583Y-43312D01*
X26583Y-43369D01*
X26594Y-43392D01*
X26605Y-43404D01*
X26628Y-43415D01*
X26697Y-43415D01*
X26720Y-43404D01*
X26731Y-43392D01*
X25744Y-41840D02*
X25824Y-41726D01*
X25881Y-41840D02*
X25881Y-41600D01*
X25790Y-41600D01*
X25767Y-41612D01*
X25756Y-41623D01*
X25744Y-41646D01*
X25744Y-41680D01*
X25756Y-41703D01*
X25767Y-41715D01*
X25790Y-41726D01*
X25881Y-41726D01*
X25653Y-41623D02*
X25641Y-41612D01*
X25619Y-41600D01*
X25561Y-41600D01*
X25539Y-41612D01*
X25527Y-41623D01*
X25516Y-41646D01*
X25516Y-41669D01*
X25527Y-41703D01*
X25664Y-41840D01*
X25516Y-41840D01*
X25436Y-41600D02*
X25287Y-41600D01*
X25367Y-41692D01*
X25333Y-41692D01*
X25310Y-41703D01*
X25299Y-41715D01*
X25287Y-41737D01*
X25287Y-41795D01*
X25299Y-41817D01*
X25310Y-41829D01*
X25333Y-41840D01*
X25401Y-41840D01*
X25424Y-41829D01*
X25436Y-41817D01*
X34406Y-46565D02*
X34486Y-46450D01*
X34543Y-46565D02*
X34543Y-46325D01*
X34451Y-46325D01*
X34429Y-46336D01*
X34417Y-46348D01*
X34406Y-46370D01*
X34406Y-46405D01*
X34417Y-46428D01*
X34429Y-46439D01*
X34451Y-46450D01*
X34543Y-46450D01*
X34326Y-46325D02*
X34177Y-46325D01*
X34257Y-46416D01*
X34223Y-46416D01*
X34200Y-46428D01*
X34189Y-46439D01*
X34177Y-46462D01*
X34177Y-46519D01*
X34189Y-46542D01*
X34200Y-46553D01*
X34223Y-46565D01*
X34291Y-46565D01*
X34314Y-46553D01*
X34326Y-46542D01*
X33949Y-46565D02*
X34086Y-46565D01*
X34017Y-46565D02*
X34017Y-46325D01*
X34040Y-46359D01*
X34063Y-46382D01*
X34086Y-46393D01*
X34209Y-43415D02*
X34289Y-43301D01*
X34346Y-43415D02*
X34346Y-43175D01*
X34255Y-43175D01*
X34232Y-43187D01*
X34220Y-43198D01*
X34209Y-43221D01*
X34209Y-43255D01*
X34220Y-43278D01*
X34232Y-43289D01*
X34255Y-43301D01*
X34346Y-43301D01*
X34117Y-43198D02*
X34106Y-43187D01*
X34083Y-43175D01*
X34026Y-43175D01*
X34003Y-43187D01*
X33992Y-43198D01*
X33980Y-43221D01*
X33980Y-43244D01*
X33992Y-43278D01*
X34129Y-43415D01*
X33980Y-43415D01*
X33866Y-43415D02*
X33820Y-43415D01*
X33797Y-43404D01*
X33786Y-43392D01*
X33763Y-43358D01*
X33752Y-43312D01*
X33752Y-43221D01*
X33763Y-43198D01*
X33775Y-43187D01*
X33797Y-43175D01*
X33843Y-43175D01*
X33866Y-43187D01*
X33877Y-43198D01*
X33889Y-43221D01*
X33889Y-43278D01*
X33877Y-43301D01*
X33866Y-43312D01*
X33843Y-43324D01*
X33797Y-43324D01*
X33775Y-43312D01*
X33763Y-43301D01*
X33752Y-43278D01*
X34209Y-40266D02*
X34289Y-40151D01*
X34346Y-40266D02*
X34346Y-40026D01*
X34255Y-40026D01*
X34232Y-40037D01*
X34220Y-40048D01*
X34209Y-40071D01*
X34209Y-40106D01*
X34220Y-40128D01*
X34232Y-40140D01*
X34255Y-40151D01*
X34346Y-40151D01*
X34117Y-40048D02*
X34106Y-40037D01*
X34083Y-40026D01*
X34026Y-40026D01*
X34003Y-40037D01*
X33992Y-40048D01*
X33980Y-40071D01*
X33980Y-40094D01*
X33992Y-40128D01*
X34129Y-40266D01*
X33980Y-40266D01*
X33763Y-40026D02*
X33877Y-40026D01*
X33889Y-40140D01*
X33877Y-40128D01*
X33855Y-40117D01*
X33797Y-40117D01*
X33775Y-40128D01*
X33763Y-40140D01*
X33752Y-40163D01*
X33752Y-40220D01*
X33763Y-40243D01*
X33775Y-40254D01*
X33797Y-40266D01*
X33855Y-40266D01*
X33877Y-40254D01*
X33889Y-40243D01*
X32914Y-40243D02*
X32925Y-40254D01*
X32959Y-40266D01*
X32982Y-40266D01*
X33016Y-40254D01*
X33039Y-40231D01*
X33051Y-40208D01*
X33062Y-40163D01*
X33062Y-40128D01*
X33051Y-40083D01*
X33039Y-40060D01*
X33016Y-40037D01*
X32982Y-40026D01*
X32959Y-40026D01*
X32925Y-40037D01*
X32914Y-40048D01*
X32708Y-40026D02*
X32754Y-40026D01*
X32776Y-40037D01*
X32788Y-40048D01*
X32811Y-40083D01*
X32822Y-40128D01*
X32822Y-40220D01*
X32811Y-40243D01*
X32799Y-40254D01*
X32776Y-40266D01*
X32731Y-40266D01*
X32708Y-40254D01*
X32696Y-40243D01*
X32685Y-40220D01*
X32685Y-40163D01*
X32696Y-40140D01*
X32708Y-40128D01*
X32731Y-40117D01*
X32776Y-40117D01*
X32799Y-40128D01*
X32811Y-40140D01*
X32822Y-40163D01*
X34209Y-41840D02*
X34289Y-41726D01*
X34346Y-41840D02*
X34346Y-41600D01*
X34255Y-41600D01*
X34232Y-41612D01*
X34220Y-41623D01*
X34209Y-41646D01*
X34209Y-41680D01*
X34220Y-41703D01*
X34232Y-41715D01*
X34255Y-41726D01*
X34346Y-41726D01*
X34117Y-41623D02*
X34106Y-41612D01*
X34083Y-41600D01*
X34026Y-41600D01*
X34003Y-41612D01*
X33992Y-41623D01*
X33980Y-41646D01*
X33980Y-41669D01*
X33992Y-41703D01*
X34129Y-41840D01*
X33980Y-41840D01*
X33900Y-41600D02*
X33740Y-41600D01*
X33843Y-41840D01*
X22087Y-44990D02*
X22167Y-44876D01*
X22224Y-44990D02*
X22224Y-44750D01*
X22132Y-44750D01*
X22110Y-44761D01*
X22098Y-44773D01*
X22087Y-44796D01*
X22087Y-44830D01*
X22098Y-44853D01*
X22110Y-44864D01*
X22132Y-44876D01*
X22224Y-44876D01*
X21870Y-44750D02*
X21984Y-44750D01*
X21995Y-44864D01*
X21984Y-44853D01*
X21961Y-44841D01*
X21904Y-44841D01*
X21881Y-44853D01*
X21870Y-44864D01*
X21858Y-44887D01*
X21858Y-44944D01*
X21870Y-44967D01*
X21881Y-44979D01*
X21904Y-44990D01*
X21961Y-44990D01*
X21984Y-44979D01*
X21995Y-44967D01*
X31732Y-41840D02*
X31812Y-41726D01*
X31870Y-41840D02*
X31870Y-41600D01*
X31778Y-41600D01*
X31755Y-41612D01*
X31744Y-41623D01*
X31732Y-41646D01*
X31732Y-41680D01*
X31744Y-41703D01*
X31755Y-41715D01*
X31778Y-41726D01*
X31870Y-41726D01*
X31618Y-41840D02*
X31572Y-41840D01*
X31550Y-41829D01*
X31538Y-41817D01*
X31515Y-41783D01*
X31504Y-41737D01*
X31504Y-41646D01*
X31515Y-41623D01*
X31527Y-41612D01*
X31550Y-41600D01*
X31595Y-41600D01*
X31618Y-41612D01*
X31630Y-41623D01*
X31641Y-41646D01*
X31641Y-41703D01*
X31630Y-41726D01*
X31618Y-41737D01*
X31595Y-41749D01*
X31550Y-41749D01*
X31527Y-41737D01*
X31515Y-41726D01*
X31504Y-41703D01*
X31847Y-40266D02*
X31927Y-40151D01*
X31984Y-40266D02*
X31984Y-40026D01*
X31892Y-40026D01*
X31870Y-40037D01*
X31858Y-40048D01*
X31847Y-40071D01*
X31847Y-40106D01*
X31858Y-40128D01*
X31870Y-40140D01*
X31892Y-40151D01*
X31984Y-40151D01*
X31618Y-40266D02*
X31755Y-40266D01*
X31687Y-40266D02*
X31687Y-40026D01*
X31710Y-40060D01*
X31732Y-40083D01*
X31755Y-40094D01*
X31412Y-40106D02*
X31412Y-40266D01*
X31470Y-40014D02*
X31527Y-40186D01*
X31378Y-40186D01*
X25744Y-46565D02*
X25824Y-46450D01*
X25881Y-46565D02*
X25881Y-46325D01*
X25790Y-46325D01*
X25767Y-46336D01*
X25756Y-46348D01*
X25744Y-46370D01*
X25744Y-46405D01*
X25756Y-46428D01*
X25767Y-46439D01*
X25790Y-46450D01*
X25881Y-46450D01*
X25516Y-46565D02*
X25653Y-46565D01*
X25584Y-46565D02*
X25584Y-46325D01*
X25607Y-46359D01*
X25630Y-46382D01*
X25653Y-46393D01*
X25436Y-46325D02*
X25287Y-46325D01*
X25367Y-46416D01*
X25333Y-46416D01*
X25310Y-46428D01*
X25299Y-46439D01*
X25287Y-46462D01*
X25287Y-46519D01*
X25299Y-46542D01*
X25310Y-46553D01*
X25333Y-46565D01*
X25401Y-46565D01*
X25424Y-46553D01*
X25436Y-46542D01*
X26811Y-46565D02*
X26891Y-46450D01*
X26948Y-46565D02*
X26948Y-46325D01*
X26857Y-46325D01*
X26834Y-46336D01*
X26823Y-46348D01*
X26811Y-46370D01*
X26811Y-46405D01*
X26823Y-46428D01*
X26834Y-46439D01*
X26857Y-46450D01*
X26948Y-46450D01*
X26731Y-46325D02*
X26571Y-46325D01*
X26674Y-46565D01*
X24449Y-44990D02*
X24529Y-44876D01*
X24586Y-44990D02*
X24586Y-44750D01*
X24495Y-44750D01*
X24472Y-44761D01*
X24460Y-44773D01*
X24449Y-44796D01*
X24449Y-44830D01*
X24460Y-44853D01*
X24472Y-44864D01*
X24495Y-44876D01*
X24586Y-44876D01*
X24220Y-44990D02*
X24358Y-44990D01*
X24289Y-44990D02*
X24289Y-44750D01*
X24312Y-44784D01*
X24335Y-44807D01*
X24358Y-44819D01*
X23268Y-44990D02*
X23348Y-44876D01*
X23405Y-44990D02*
X23405Y-44750D01*
X23314Y-44750D01*
X23291Y-44761D01*
X23279Y-44773D01*
X23268Y-44796D01*
X23268Y-44830D01*
X23279Y-44853D01*
X23291Y-44864D01*
X23314Y-44876D01*
X23405Y-44876D01*
X23176Y-44773D02*
X23165Y-44761D01*
X23142Y-44750D01*
X23085Y-44750D01*
X23062Y-44761D01*
X23051Y-44773D01*
X23039Y-44796D01*
X23039Y-44819D01*
X23051Y-44853D01*
X23188Y-44990D01*
X23039Y-44990D01*
X35276Y-42605D02*
X35287Y-42616D01*
X35321Y-42628D01*
X35344Y-42628D01*
X35379Y-42616D01*
X35401Y-42593D01*
X35413Y-42571D01*
X35424Y-42525D01*
X35424Y-42491D01*
X35413Y-42445D01*
X35401Y-42422D01*
X35379Y-42399D01*
X35344Y-42388D01*
X35321Y-42388D01*
X35287Y-42399D01*
X35276Y-42411D01*
X35161Y-42628D02*
X35116Y-42628D01*
X35093Y-42616D01*
X35081Y-42605D01*
X35059Y-42571D01*
X35047Y-42525D01*
X35047Y-42433D01*
X35059Y-42411D01*
X35070Y-42399D01*
X35093Y-42388D01*
X35139Y-42388D01*
X35161Y-42399D01*
X35173Y-42411D01*
X35184Y-42433D01*
X35184Y-42491D01*
X35173Y-42513D01*
X35161Y-42525D01*
X35139Y-42536D01*
X35093Y-42536D01*
X35070Y-42525D01*
X35059Y-42513D01*
X35047Y-42491D01*
X29370Y-43392D02*
X29382Y-43404D01*
X29416Y-43415D01*
X29439Y-43415D01*
X29473Y-43404D01*
X29496Y-43381D01*
X29507Y-43358D01*
X29519Y-43312D01*
X29519Y-43278D01*
X29507Y-43232D01*
X29496Y-43209D01*
X29473Y-43187D01*
X29439Y-43175D01*
X29416Y-43175D01*
X29382Y-43187D01*
X29370Y-43198D01*
X29279Y-43198D02*
X29267Y-43187D01*
X29244Y-43175D01*
X29187Y-43175D01*
X29164Y-43187D01*
X29153Y-43198D01*
X29142Y-43221D01*
X29142Y-43244D01*
X29153Y-43278D01*
X29290Y-43415D01*
X29142Y-43415D01*
X29484Y-40266D02*
X29564Y-40151D01*
X29622Y-40266D02*
X29622Y-40026D01*
X29530Y-40026D01*
X29507Y-40037D01*
X29496Y-40048D01*
X29484Y-40071D01*
X29484Y-40106D01*
X29496Y-40128D01*
X29507Y-40140D01*
X29530Y-40151D01*
X29622Y-40151D01*
X29256Y-40266D02*
X29393Y-40266D01*
X29324Y-40266D02*
X29324Y-40026D01*
X29347Y-40060D01*
X29370Y-40083D01*
X29393Y-40094D01*
X29176Y-40026D02*
X29016Y-40026D01*
X29119Y-40266D01*
X30666Y-44990D02*
X30746Y-44876D01*
X30803Y-44990D02*
X30803Y-44750D01*
X30711Y-44750D01*
X30688Y-44761D01*
X30677Y-44773D01*
X30666Y-44796D01*
X30666Y-44830D01*
X30677Y-44853D01*
X30688Y-44864D01*
X30711Y-44876D01*
X30803Y-44876D01*
X30574Y-44773D02*
X30563Y-44761D01*
X30540Y-44750D01*
X30483Y-44750D01*
X30460Y-44761D01*
X30448Y-44773D01*
X30437Y-44796D01*
X30437Y-44819D01*
X30448Y-44853D01*
X30586Y-44990D01*
X30437Y-44990D01*
X30208Y-44990D02*
X30346Y-44990D01*
X30277Y-44990D02*
X30277Y-44750D01*
X30300Y-44784D01*
X30323Y-44807D01*
X30346Y-44819D01*
X29484Y-44990D02*
X29564Y-44876D01*
X29622Y-44990D02*
X29622Y-44750D01*
X29530Y-44750D01*
X29507Y-44761D01*
X29496Y-44773D01*
X29484Y-44796D01*
X29484Y-44830D01*
X29496Y-44853D01*
X29507Y-44864D01*
X29530Y-44876D01*
X29622Y-44876D01*
X29256Y-44990D02*
X29393Y-44990D01*
X29324Y-44990D02*
X29324Y-44750D01*
X29347Y-44784D01*
X29370Y-44807D01*
X29393Y-44819D01*
X29119Y-44853D02*
X29142Y-44841D01*
X29153Y-44830D01*
X29164Y-44807D01*
X29164Y-44796D01*
X29153Y-44773D01*
X29142Y-44761D01*
X29119Y-44750D01*
X29073Y-44750D01*
X29050Y-44761D01*
X29039Y-44773D01*
X29027Y-44796D01*
X29027Y-44807D01*
X29039Y-44830D01*
X29050Y-44841D01*
X29073Y-44853D01*
X29119Y-44853D01*
X29142Y-44864D01*
X29153Y-44876D01*
X29164Y-44899D01*
X29164Y-44944D01*
X29153Y-44967D01*
X29142Y-44979D01*
X29119Y-44990D01*
X29073Y-44990D01*
X29050Y-44979D01*
X29039Y-44967D01*
X29027Y-44944D01*
X29027Y-44899D01*
X29039Y-44876D01*
X29050Y-44864D01*
X29073Y-44853D01*
X31847Y-44990D02*
X31927Y-44876D01*
X31984Y-44990D02*
X31984Y-44750D01*
X31892Y-44750D01*
X31870Y-44761D01*
X31858Y-44773D01*
X31847Y-44796D01*
X31847Y-44830D01*
X31858Y-44853D01*
X31870Y-44864D01*
X31892Y-44876D01*
X31984Y-44876D01*
X31618Y-44990D02*
X31755Y-44990D01*
X31687Y-44990D02*
X31687Y-44750D01*
X31710Y-44784D01*
X31732Y-44807D01*
X31755Y-44819D01*
X31412Y-44750D02*
X31458Y-44750D01*
X31481Y-44761D01*
X31492Y-44773D01*
X31515Y-44807D01*
X31527Y-44853D01*
X31527Y-44944D01*
X31515Y-44967D01*
X31504Y-44979D01*
X31481Y-44990D01*
X31435Y-44990D01*
X31412Y-44979D01*
X31401Y-44967D01*
X31390Y-44944D01*
X31390Y-44887D01*
X31401Y-44864D01*
X31412Y-44853D01*
X31435Y-44841D01*
X31481Y-44841D01*
X31504Y-44853D01*
X31515Y-44864D01*
X31527Y-44887D01*
X30666Y-43415D02*
X30746Y-43301D01*
X30803Y-43415D02*
X30803Y-43175D01*
X30711Y-43175D01*
X30688Y-43187D01*
X30677Y-43198D01*
X30666Y-43221D01*
X30666Y-43255D01*
X30677Y-43278D01*
X30688Y-43289D01*
X30711Y-43301D01*
X30803Y-43301D01*
X30437Y-43415D02*
X30574Y-43415D01*
X30506Y-43415D02*
X30506Y-43175D01*
X30528Y-43209D01*
X30551Y-43232D01*
X30574Y-43244D01*
X30208Y-43415D02*
X30346Y-43415D01*
X30277Y-43415D02*
X30277Y-43175D01*
X30300Y-43209D01*
X30323Y-43232D01*
X30346Y-43244D01*
X29484Y-41840D02*
X29564Y-41726D01*
X29622Y-41840D02*
X29622Y-41600D01*
X29530Y-41600D01*
X29507Y-41612D01*
X29496Y-41623D01*
X29484Y-41646D01*
X29484Y-41680D01*
X29496Y-41703D01*
X29507Y-41715D01*
X29530Y-41726D01*
X29622Y-41726D01*
X29256Y-41840D02*
X29393Y-41840D01*
X29324Y-41840D02*
X29324Y-41600D01*
X29347Y-41635D01*
X29370Y-41657D01*
X29393Y-41669D01*
X29164Y-41623D02*
X29153Y-41612D01*
X29130Y-41600D01*
X29073Y-41600D01*
X29050Y-41612D01*
X29039Y-41623D01*
X29027Y-41646D01*
X29027Y-41669D01*
X29039Y-41703D01*
X29176Y-41840D01*
X29027Y-41840D01*
X33028Y-41840D02*
X33108Y-41726D01*
X33165Y-41840D02*
X33165Y-41600D01*
X33074Y-41600D01*
X33051Y-41612D01*
X33039Y-41623D01*
X33028Y-41646D01*
X33028Y-41680D01*
X33039Y-41703D01*
X33051Y-41715D01*
X33074Y-41726D01*
X33165Y-41726D01*
X32936Y-41623D02*
X32925Y-41612D01*
X32902Y-41600D01*
X32845Y-41600D01*
X32822Y-41612D01*
X32811Y-41623D01*
X32799Y-41646D01*
X32799Y-41669D01*
X32811Y-41703D01*
X32948Y-41840D01*
X32799Y-41840D01*
X32662Y-41703D02*
X32685Y-41692D01*
X32696Y-41680D01*
X32708Y-41657D01*
X32708Y-41646D01*
X32696Y-41623D01*
X32685Y-41612D01*
X32662Y-41600D01*
X32616Y-41600D01*
X32594Y-41612D01*
X32582Y-41623D01*
X32571Y-41646D01*
X32571Y-41657D01*
X32582Y-41680D01*
X32594Y-41692D01*
X32616Y-41703D01*
X32662Y-41703D01*
X32685Y-41715D01*
X32696Y-41726D01*
X32708Y-41749D01*
X32708Y-41795D01*
X32696Y-41817D01*
X32685Y-41829D01*
X32662Y-41840D01*
X32616Y-41840D01*
X32594Y-41829D01*
X32582Y-41817D01*
X32571Y-41795D01*
X32571Y-41749D01*
X32582Y-41726D01*
X32594Y-41715D01*
X32616Y-41703D01*
X32914Y-44967D02*
X32925Y-44979D01*
X32959Y-44990D01*
X32982Y-44990D01*
X33016Y-44979D01*
X33039Y-44956D01*
X33051Y-44933D01*
X33062Y-44887D01*
X33062Y-44853D01*
X33051Y-44807D01*
X33039Y-44784D01*
X33016Y-44761D01*
X32982Y-44750D01*
X32959Y-44750D01*
X32925Y-44761D01*
X32914Y-44773D01*
X32834Y-44750D02*
X32674Y-44750D01*
X32776Y-44990D01*
X33028Y-43415D02*
X33108Y-43301D01*
X33165Y-43415D02*
X33165Y-43175D01*
X33074Y-43175D01*
X33051Y-43187D01*
X33039Y-43198D01*
X33028Y-43221D01*
X33028Y-43255D01*
X33039Y-43278D01*
X33051Y-43289D01*
X33074Y-43301D01*
X33165Y-43301D01*
X32936Y-43198D02*
X32925Y-43187D01*
X32902Y-43175D01*
X32845Y-43175D01*
X32822Y-43187D01*
X32811Y-43198D01*
X32799Y-43221D01*
X32799Y-43244D01*
X32811Y-43278D01*
X32948Y-43415D01*
X32799Y-43415D01*
X32594Y-43175D02*
X32639Y-43175D01*
X32662Y-43187D01*
X32674Y-43198D01*
X32696Y-43232D01*
X32708Y-43278D01*
X32708Y-43369D01*
X32696Y-43392D01*
X32685Y-43404D01*
X32662Y-43415D01*
X32616Y-43415D01*
X32594Y-43404D01*
X32582Y-43392D01*
X32571Y-43369D01*
X32571Y-43312D01*
X32582Y-43289D01*
X32594Y-43278D01*
X32616Y-43267D01*
X32662Y-43267D01*
X32685Y-43278D01*
X32696Y-43289D01*
X32708Y-43312D01*
X35390Y-40266D02*
X35470Y-40151D01*
X35527Y-40266D02*
X35527Y-40026D01*
X35436Y-40026D01*
X35413Y-40037D01*
X35401Y-40048D01*
X35390Y-40071D01*
X35390Y-40106D01*
X35401Y-40128D01*
X35413Y-40140D01*
X35436Y-40151D01*
X35527Y-40151D01*
X35310Y-40026D02*
X35161Y-40026D01*
X35241Y-40117D01*
X35207Y-40117D01*
X35184Y-40128D01*
X35173Y-40140D01*
X35161Y-40163D01*
X35161Y-40220D01*
X35173Y-40243D01*
X35184Y-40254D01*
X35207Y-40266D01*
X35276Y-40266D01*
X35299Y-40254D01*
X35310Y-40243D01*
X35013Y-40026D02*
X34990Y-40026D01*
X34967Y-40037D01*
X34956Y-40048D01*
X34944Y-40071D01*
X34933Y-40117D01*
X34933Y-40174D01*
X34944Y-40220D01*
X34956Y-40243D01*
X34967Y-40254D01*
X34990Y-40266D01*
X35013Y-40266D01*
X35036Y-40254D01*
X35047Y-40243D01*
X35059Y-40220D01*
X35070Y-40174D01*
X35070Y-40117D01*
X35059Y-40071D01*
X35047Y-40048D01*
X35036Y-40037D01*
X35013Y-40026D01*
X35390Y-44990D02*
X35470Y-44876D01*
X35527Y-44990D02*
X35527Y-44750D01*
X35436Y-44750D01*
X35413Y-44761D01*
X35401Y-44773D01*
X35390Y-44796D01*
X35390Y-44830D01*
X35401Y-44853D01*
X35413Y-44864D01*
X35436Y-44876D01*
X35527Y-44876D01*
X35310Y-44750D02*
X35161Y-44750D01*
X35241Y-44841D01*
X35207Y-44841D01*
X35184Y-44853D01*
X35173Y-44864D01*
X35161Y-44887D01*
X35161Y-44944D01*
X35173Y-44967D01*
X35184Y-44979D01*
X35207Y-44990D01*
X35276Y-44990D01*
X35299Y-44979D01*
X35310Y-44967D01*
X35070Y-44773D02*
X35059Y-44761D01*
X35036Y-44750D01*
X34979Y-44750D01*
X34956Y-44761D01*
X34944Y-44773D01*
X34933Y-44796D01*
X34933Y-44819D01*
X34944Y-44853D01*
X35081Y-44990D01*
X34933Y-44990D01*
X22201Y-43415D02*
X22281Y-43301D01*
X22338Y-43415D02*
X22338Y-43175D01*
X22247Y-43175D01*
X22224Y-43187D01*
X22212Y-43198D01*
X22201Y-43221D01*
X22201Y-43255D01*
X22212Y-43278D01*
X22224Y-43289D01*
X22247Y-43301D01*
X22338Y-43301D01*
X22110Y-43198D02*
X22098Y-43187D01*
X22075Y-43175D01*
X22018Y-43175D01*
X21995Y-43187D01*
X21984Y-43198D01*
X21972Y-43221D01*
X21972Y-43244D01*
X21984Y-43278D01*
X22121Y-43415D01*
X21972Y-43415D01*
X21767Y-43255D02*
X21767Y-43415D01*
X21824Y-43164D02*
X21881Y-43335D01*
X21732Y-43335D01*
X23268Y-41817D02*
X23279Y-41829D01*
X23314Y-41840D01*
X23336Y-41840D01*
X23371Y-41829D01*
X23394Y-41806D01*
X23405Y-41783D01*
X23416Y-41737D01*
X23416Y-41703D01*
X23405Y-41657D01*
X23394Y-41635D01*
X23371Y-41612D01*
X23336Y-41600D01*
X23314Y-41600D01*
X23279Y-41612D01*
X23268Y-41623D01*
X23062Y-41680D02*
X23062Y-41840D01*
X23119Y-41589D02*
X23176Y-41760D01*
X23028Y-41760D01*
X22201Y-41840D02*
X22281Y-41726D01*
X22338Y-41840D02*
X22338Y-41600D01*
X22247Y-41600D01*
X22224Y-41612D01*
X22212Y-41623D01*
X22201Y-41646D01*
X22201Y-41680D01*
X22212Y-41703D01*
X22224Y-41715D01*
X22247Y-41726D01*
X22338Y-41726D01*
X22110Y-41623D02*
X22098Y-41612D01*
X22075Y-41600D01*
X22018Y-41600D01*
X21995Y-41612D01*
X21984Y-41623D01*
X21972Y-41646D01*
X21972Y-41669D01*
X21984Y-41703D01*
X22121Y-41840D01*
X21972Y-41840D01*
X21881Y-41623D02*
X21870Y-41612D01*
X21847Y-41600D01*
X21790Y-41600D01*
X21767Y-41612D01*
X21755Y-41623D01*
X21744Y-41646D01*
X21744Y-41669D01*
X21755Y-41703D01*
X21892Y-41840D01*
X21744Y-41840D01*
X22201Y-40266D02*
X22281Y-40151D01*
X22338Y-40266D02*
X22338Y-40026D01*
X22247Y-40026D01*
X22224Y-40037D01*
X22212Y-40048D01*
X22201Y-40071D01*
X22201Y-40106D01*
X22212Y-40128D01*
X22224Y-40140D01*
X22247Y-40151D01*
X22338Y-40151D01*
X21972Y-40266D02*
X22110Y-40266D01*
X22041Y-40266D02*
X22041Y-40026D01*
X22064Y-40060D01*
X22087Y-40083D01*
X22110Y-40094D01*
X21755Y-40026D02*
X21870Y-40026D01*
X21881Y-40140D01*
X21870Y-40128D01*
X21847Y-40117D01*
X21790Y-40117D01*
X21767Y-40128D01*
X21755Y-40140D01*
X21744Y-40163D01*
X21744Y-40220D01*
X21755Y-40243D01*
X21767Y-40254D01*
X21790Y-40266D01*
X21847Y-40266D01*
X21870Y-40254D01*
X21881Y-40243D01*
X23268Y-40266D02*
X23348Y-40151D01*
X23405Y-40266D02*
X23405Y-40026D01*
X23314Y-40026D01*
X23291Y-40037D01*
X23279Y-40048D01*
X23268Y-40071D01*
X23268Y-40106D01*
X23279Y-40128D01*
X23291Y-40140D01*
X23314Y-40151D01*
X23405Y-40151D01*
X23131Y-40128D02*
X23154Y-40117D01*
X23165Y-40106D01*
X23176Y-40083D01*
X23176Y-40071D01*
X23165Y-40048D01*
X23154Y-40037D01*
X23131Y-40026D01*
X23085Y-40026D01*
X23062Y-40037D01*
X23051Y-40048D01*
X23039Y-40071D01*
X23039Y-40083D01*
X23051Y-40106D01*
X23062Y-40117D01*
X23085Y-40128D01*
X23131Y-40128D01*
X23154Y-40140D01*
X23165Y-40151D01*
X23176Y-40174D01*
X23176Y-40220D01*
X23165Y-40243D01*
X23154Y-40254D01*
X23131Y-40266D01*
X23085Y-40266D01*
X23062Y-40254D01*
X23051Y-40243D01*
X23039Y-40220D01*
X23039Y-40174D01*
X23051Y-40151D01*
X23062Y-40140D01*
X23085Y-40128D01*
X26811Y-40266D02*
X26891Y-40151D01*
X26948Y-40266D02*
X26948Y-40026D01*
X26857Y-40026D01*
X26834Y-40037D01*
X26823Y-40048D01*
X26811Y-40071D01*
X26811Y-40106D01*
X26823Y-40128D01*
X26834Y-40140D01*
X26857Y-40151D01*
X26948Y-40151D01*
X26605Y-40026D02*
X26651Y-40026D01*
X26674Y-40037D01*
X26685Y-40048D01*
X26708Y-40083D01*
X26720Y-40128D01*
X26720Y-40220D01*
X26708Y-40243D01*
X26697Y-40254D01*
X26674Y-40266D01*
X26628Y-40266D01*
X26605Y-40254D01*
X26594Y-40243D01*
X26583Y-40220D01*
X26583Y-40163D01*
X26594Y-40140D01*
X26605Y-40128D01*
X26628Y-40117D01*
X26674Y-40117D01*
X26697Y-40128D01*
X26708Y-40140D01*
X26720Y-40163D01*
X25630Y-40266D02*
X25710Y-40151D01*
X25767Y-40266D02*
X25767Y-40026D01*
X25676Y-40026D01*
X25653Y-40037D01*
X25641Y-40048D01*
X25630Y-40071D01*
X25630Y-40106D01*
X25641Y-40128D01*
X25653Y-40140D01*
X25676Y-40151D01*
X25767Y-40151D01*
X25550Y-40026D02*
X25401Y-40026D01*
X25481Y-40117D01*
X25447Y-40117D01*
X25424Y-40128D01*
X25413Y-40140D01*
X25401Y-40163D01*
X25401Y-40220D01*
X25413Y-40243D01*
X25424Y-40254D01*
X25447Y-40266D01*
X25516Y-40266D01*
X25539Y-40254D01*
X25550Y-40243D01*
X24449Y-40266D02*
X24529Y-40151D01*
X24586Y-40266D02*
X24586Y-40026D01*
X24495Y-40026D01*
X24472Y-40037D01*
X24460Y-40048D01*
X24449Y-40071D01*
X24449Y-40106D01*
X24460Y-40128D01*
X24472Y-40140D01*
X24495Y-40151D01*
X24586Y-40151D01*
X24243Y-40106D02*
X24243Y-40266D01*
X24300Y-40014D02*
X24358Y-40186D01*
X24209Y-40186D01*
X31732Y-43392D02*
X31744Y-43404D01*
X31778Y-43415D01*
X31801Y-43415D01*
X31835Y-43404D01*
X31858Y-43381D01*
X31870Y-43358D01*
X31881Y-43312D01*
X31881Y-43278D01*
X31870Y-43232D01*
X31858Y-43209D01*
X31835Y-43187D01*
X31801Y-43175D01*
X31778Y-43175D01*
X31744Y-43187D01*
X31732Y-43198D01*
X31504Y-43415D02*
X31641Y-43415D01*
X31572Y-43415D02*
X31572Y-43175D01*
X31595Y-43209D01*
X31618Y-43232D01*
X31641Y-43244D01*
X30666Y-40266D02*
X30746Y-40151D01*
X30803Y-40266D02*
X30803Y-40026D01*
X30711Y-40026D01*
X30688Y-40037D01*
X30677Y-40048D01*
X30666Y-40071D01*
X30666Y-40106D01*
X30677Y-40128D01*
X30688Y-40140D01*
X30711Y-40151D01*
X30803Y-40151D01*
X30437Y-40266D02*
X30574Y-40266D01*
X30506Y-40266D02*
X30506Y-40026D01*
X30528Y-40060D01*
X30551Y-40083D01*
X30574Y-40094D01*
X30323Y-40266D02*
X30277Y-40266D01*
X30254Y-40254D01*
X30243Y-40243D01*
X30220Y-40208D01*
X30208Y-40163D01*
X30208Y-40071D01*
X30220Y-40048D01*
X30231Y-40037D01*
X30254Y-40026D01*
X30300Y-40026D01*
X30323Y-40037D01*
X30334Y-40048D01*
X30346Y-40071D01*
X30346Y-40128D01*
X30334Y-40151D01*
X30323Y-40163D01*
X30300Y-40174D01*
X30254Y-40174D01*
X30231Y-40163D01*
X30220Y-40151D01*
X30208Y-40128D01*
%LPC*%
G54D13*
X30511Y-42854D03*
X30511Y-42184D03*
X25590Y-44429D03*
X25590Y-43759D03*
X26771Y-43759D03*
X26771Y-44429D03*
X25590Y-42854D03*
X25590Y-42184D03*
X34055Y-45334D03*
X34055Y-46004D03*
X34055Y-43759D03*
X34055Y-44429D03*
X34055Y-41279D03*
X34055Y-40609D03*
X32874Y-41279D03*
X32874Y-40609D03*
X34055Y-42184D03*
X34055Y-42854D03*
X22047Y-46004D03*
X22047Y-45334D03*
X31692Y-42854D03*
X31692Y-42184D03*
X31692Y-41279D03*
X31692Y-40609D03*
X25590Y-46004D03*
X25590Y-45334D03*
X26771Y-45334D03*
X26771Y-46004D03*
X24409Y-46004D03*
X24409Y-45334D03*
X23228Y-46004D03*
X23228Y-45334D03*
X35236Y-42972D03*
X35236Y-43642D03*
X29330Y-44429D03*
X29330Y-43759D03*
X29330Y-41279D03*
X29330Y-40609D03*
X30511Y-45334D03*
X30511Y-46004D03*
X29330Y-45334D03*
X29330Y-46004D03*
X31692Y-46004D03*
X31692Y-45334D03*
X30511Y-43759D03*
X30511Y-44429D03*
X29330Y-42184D03*
X29330Y-42854D03*
X32874Y-42854D03*
X32874Y-42184D03*
X32874Y-45334D03*
X32874Y-46004D03*
X32874Y-44429D03*
X32874Y-43759D03*
X35236Y-41279D03*
X35236Y-40609D03*
X35236Y-45334D03*
X35236Y-46004D03*
X22047Y-43759D03*
X22047Y-44429D03*
X23228Y-42854D03*
X23228Y-42184D03*
X22047Y-42184D03*
X22047Y-42854D03*
X22047Y-40609D03*
X22047Y-41279D03*
X23228Y-41279D03*
X23228Y-40609D03*
X26771Y-40609D03*
X26771Y-41279D03*
X25590Y-41279D03*
X25590Y-40609D03*
X24409Y-41279D03*
X24409Y-40609D03*
X31692Y-44429D03*
X31692Y-43759D03*
X30511Y-41279D03*
X30511Y-40609D03*
G54D14*
X34921Y-47519D03*
X33921Y-47519D03*
X32921Y-47519D03*
X31921Y-47519D03*
X30921Y-47519D03*
X29921Y-47519D03*
X28921Y-47519D03*
X27921Y-47519D03*
X26921Y-47519D03*
X25921Y-47519D03*
X24921Y-47519D03*
X23921Y-47519D03*
G54D15*
X37220Y-42125D03*
X36220Y-43125D03*
G54D16*
X36220Y-41125D03*
G54D15*
X37220Y-45669D03*
X36220Y-46669D03*
G54D16*
X36220Y-44669D03*
M02*
