%FSLAX34Y34*%
G04 Gerber Fmt 3.4, Leading zero omitted, Abs format*
G04 (created by PCBNEW (2014-02-02 BZR 4653)-product) date 2014-03-02 10:39:36 PM*
%MOIN*%
G01*
G70*
G90*
G04 APERTURE LIST*
%ADD10C,0.005906*%
%ADD11R,0.011800X0.051200*%
%ADD12R,0.027600X0.039400*%
%ADD13R,0.023600X0.086600*%
%ADD14R,0.045000X0.032000*%
%ADD15C,0.078700*%
%ADD16R,0.078700X0.078700*%
%ADD17C,0.035000*%
%ADD18C,0.010000*%
G04 APERTURE END LIST*
G54D10*
G54D11*
X34663Y-44367D03*
X34913Y-44367D03*
X35173Y-44367D03*
X35423Y-44367D03*
X35423Y-42167D03*
X35168Y-42167D03*
X34913Y-42167D03*
X34658Y-42167D03*
G54D12*
X27559Y-44988D03*
X27184Y-43988D03*
X27934Y-43988D03*
X27559Y-43019D03*
X27184Y-42019D03*
X27934Y-42019D03*
G54D13*
X28958Y-44330D03*
X29458Y-44330D03*
X29958Y-44330D03*
X30458Y-44330D03*
X30958Y-44330D03*
X31458Y-44330D03*
X31958Y-44330D03*
X32458Y-44330D03*
X32458Y-42284D03*
X31958Y-42284D03*
X31458Y-42284D03*
X30958Y-42284D03*
X30458Y-42284D03*
X29958Y-42284D03*
X29458Y-42284D03*
X28958Y-42284D03*
G54D14*
X33464Y-42972D03*
X33464Y-43642D03*
X31889Y-46201D03*
X31889Y-45531D03*
X34251Y-45531D03*
X34251Y-46201D03*
X33070Y-45531D03*
X33070Y-46201D03*
X30708Y-45531D03*
X30708Y-46201D03*
X22834Y-43642D03*
X22834Y-42972D03*
G54D15*
X37220Y-42125D03*
X36220Y-43125D03*
G54D16*
X36220Y-41125D03*
G54D15*
X37220Y-45669D03*
X36220Y-46669D03*
G54D16*
X36220Y-44669D03*
G54D11*
X23649Y-44407D03*
X23899Y-44407D03*
X24159Y-44407D03*
X24409Y-44407D03*
X24669Y-44407D03*
X24924Y-44407D03*
X25179Y-44407D03*
X25179Y-42207D03*
X24924Y-42207D03*
X24669Y-42207D03*
X24409Y-42207D03*
X24154Y-42207D03*
X23899Y-42207D03*
X23644Y-42207D03*
G54D17*
X37204Y-43307D03*
X31200Y-46299D03*
X27086Y-44822D03*
X28464Y-46338D03*
X33484Y-40610D03*
X31161Y-40629D03*
X28334Y-42044D03*
X32381Y-46491D03*
X24835Y-43894D03*
X24905Y-42721D03*
X28332Y-44118D03*
X34748Y-42932D03*
X25000Y-40609D03*
X25108Y-41365D03*
X30183Y-46440D03*
X33554Y-46287D03*
X23710Y-40620D03*
X32283Y-43453D03*
X31179Y-45224D03*
X29811Y-45157D03*
X26073Y-42076D03*
X23924Y-45122D03*
X22540Y-42083D03*
X22502Y-44724D03*
X32193Y-41365D03*
X24924Y-44972D03*
X25590Y-44881D03*
X34055Y-44881D03*
X34541Y-43761D03*
X34749Y-41365D03*
X30005Y-41220D03*
X31081Y-41121D03*
X23743Y-43654D03*
G54D18*
X24409Y-44407D02*
X24409Y-44020D01*
X24409Y-43881D02*
X24409Y-44020D01*
X24707Y-43583D02*
X24409Y-43881D01*
X25162Y-43583D02*
X24707Y-43583D01*
X27436Y-45857D02*
X25162Y-43583D01*
X31465Y-45857D02*
X27436Y-45857D01*
X31519Y-45911D02*
X31465Y-45857D01*
X33070Y-45821D02*
X33070Y-45531D01*
X31608Y-45821D02*
X33070Y-45821D01*
X31519Y-45911D02*
X31608Y-45821D01*
X35893Y-41125D02*
X36220Y-41125D01*
X35827Y-41059D02*
X35893Y-41125D01*
X34600Y-41059D02*
X35827Y-41059D01*
X34439Y-41220D02*
X34600Y-41059D01*
X34439Y-41562D02*
X34439Y-41220D01*
X34658Y-41781D02*
X34439Y-41562D01*
X34658Y-42167D02*
X34658Y-41781D01*
X36220Y-41125D02*
X36417Y-41125D01*
X34239Y-42972D02*
X33464Y-42972D01*
X34658Y-42553D02*
X34239Y-42972D01*
X34658Y-42167D02*
X34658Y-42553D01*
X33464Y-42972D02*
X33464Y-42972D01*
X22923Y-44020D02*
X24409Y-44020D01*
X22834Y-43932D02*
X22923Y-44020D01*
X22834Y-43642D02*
X22834Y-43932D01*
X22834Y-43642D02*
X22834Y-43642D01*
X33070Y-45531D02*
X34251Y-45531D01*
X33070Y-45531D02*
X33070Y-45531D01*
X34251Y-45531D02*
X34251Y-45531D01*
X34251Y-45531D02*
X34251Y-45531D01*
X31458Y-42847D02*
X31458Y-42284D01*
X32984Y-42847D02*
X31458Y-42847D01*
X33109Y-42972D02*
X32984Y-42847D01*
X33464Y-42972D02*
X33109Y-42972D01*
X31458Y-42284D02*
X31458Y-42284D01*
X31519Y-46403D02*
X31519Y-45911D01*
X31918Y-46802D02*
X31519Y-46403D01*
X34221Y-46802D02*
X31918Y-46802D01*
X35831Y-45192D02*
X34221Y-46802D01*
X36220Y-45192D02*
X35831Y-45192D01*
X36220Y-44669D02*
X36220Y-45192D01*
X31889Y-45531D02*
X31506Y-45531D01*
X24409Y-42207D02*
X24409Y-42972D01*
X31458Y-44893D02*
X31458Y-44330D01*
X31506Y-44940D02*
X31458Y-44893D01*
X31506Y-45531D02*
X31506Y-44940D01*
X22834Y-42972D02*
X22834Y-42972D01*
X24409Y-42972D02*
X22834Y-42972D01*
X22834Y-42972D02*
X22834Y-42972D01*
X30708Y-45531D02*
X30708Y-45531D01*
X30206Y-45029D02*
X30708Y-45531D01*
X30206Y-43826D02*
X30206Y-45029D01*
X29881Y-43501D02*
X30206Y-43826D01*
X27452Y-43501D02*
X29881Y-43501D01*
X26984Y-43033D02*
X27452Y-43501D01*
X24470Y-43033D02*
X26984Y-43033D01*
X24409Y-42972D02*
X24470Y-43033D01*
X30708Y-45531D02*
X31506Y-45531D01*
X31889Y-45531D02*
X31889Y-45531D01*
X33464Y-43642D02*
X33464Y-43642D01*
X33109Y-43642D02*
X33464Y-43642D01*
X32984Y-43766D02*
X33109Y-43642D01*
X31458Y-43766D02*
X32984Y-43766D01*
X31458Y-44330D02*
X31458Y-43766D01*
X36203Y-43125D02*
X35423Y-43906D01*
X36220Y-43125D02*
X36203Y-43125D01*
X34953Y-43436D02*
X35423Y-43906D01*
X34025Y-43436D02*
X34953Y-43436D01*
X33819Y-43642D02*
X34025Y-43436D01*
X33464Y-43642D02*
X33819Y-43642D01*
X35423Y-43906D02*
X35423Y-44367D01*
X35423Y-42167D02*
X36487Y-42167D01*
X36487Y-42167D02*
X37204Y-42885D01*
X37204Y-42885D02*
X37204Y-43307D01*
X28227Y-42044D02*
X28334Y-42044D01*
X28202Y-42019D02*
X28227Y-42044D01*
X27934Y-42019D02*
X28202Y-42019D01*
X24669Y-44793D02*
X24669Y-44407D01*
X24159Y-44793D02*
X24669Y-44793D01*
X24159Y-44407D02*
X24159Y-44793D01*
X31889Y-46491D02*
X31889Y-46201D01*
X32381Y-46491D02*
X31889Y-46491D01*
X24154Y-41820D02*
X24154Y-42207D01*
X24669Y-41820D02*
X24154Y-41820D01*
X24669Y-42207D02*
X24669Y-41820D01*
X24669Y-44020D02*
X24669Y-44407D01*
X24708Y-44020D02*
X24669Y-44020D01*
X24835Y-43894D02*
X24708Y-44020D01*
X34251Y-46201D02*
X34251Y-46201D01*
X34074Y-46201D02*
X34251Y-46201D01*
X33682Y-46592D02*
X34074Y-46201D01*
X32483Y-46592D02*
X33682Y-46592D01*
X32381Y-46491D02*
X32483Y-46592D01*
X35173Y-45207D02*
X35173Y-44367D01*
X34469Y-45911D02*
X35173Y-45207D01*
X34251Y-45911D02*
X34469Y-45911D01*
X34251Y-46201D02*
X34251Y-45911D01*
X24669Y-42593D02*
X24669Y-42207D01*
X24777Y-42593D02*
X24669Y-42593D01*
X24905Y-42721D02*
X24777Y-42593D01*
X28202Y-43988D02*
X27934Y-43988D01*
X28332Y-44118D02*
X28202Y-43988D01*
X35423Y-42553D02*
X35423Y-42167D01*
X35720Y-42553D02*
X35423Y-42553D01*
X34913Y-42768D02*
X34748Y-42932D01*
X34913Y-42167D02*
X34913Y-42768D01*
X24793Y-40816D02*
X25000Y-40609D01*
X24793Y-41605D02*
X24793Y-40816D01*
X24924Y-41736D02*
X24793Y-41605D01*
X24924Y-42207D02*
X24924Y-41736D01*
X25179Y-41436D02*
X25108Y-41365D01*
X25179Y-42207D02*
X25179Y-41436D01*
X30708Y-46201D02*
X30708Y-46201D01*
X30353Y-46270D02*
X30183Y-46440D01*
X30353Y-46201D02*
X30353Y-46270D01*
X30708Y-46201D02*
X30353Y-46201D01*
X30708Y-46201D02*
X30708Y-46201D01*
X33070Y-46201D02*
X33070Y-46201D01*
X33512Y-46287D02*
X33554Y-46287D01*
X33425Y-46201D02*
X33512Y-46287D01*
X33070Y-46201D02*
X33425Y-46201D01*
X33070Y-46201D02*
X33070Y-46201D01*
X23899Y-40809D02*
X23710Y-40620D01*
X23899Y-42207D02*
X23899Y-40809D01*
X31272Y-43453D02*
X32283Y-43453D01*
X30958Y-43766D02*
X31272Y-43453D01*
X30958Y-44329D02*
X30958Y-43766D01*
X30958Y-44329D02*
X30958Y-44330D01*
X30458Y-44893D02*
X30458Y-44330D01*
X30790Y-45224D02*
X30458Y-44893D01*
X31179Y-45224D02*
X30790Y-45224D01*
X30458Y-44329D02*
X30458Y-44330D01*
X29958Y-45010D02*
X29958Y-44330D01*
X29811Y-45157D02*
X29958Y-45010D01*
X29958Y-44330D02*
X29958Y-44329D01*
X26858Y-42076D02*
X26073Y-42076D01*
X26915Y-42019D02*
X26858Y-42076D01*
X27184Y-42019D02*
X26915Y-42019D01*
X23924Y-44817D02*
X23924Y-45122D01*
X23899Y-44793D02*
X23924Y-44817D01*
X23899Y-44407D02*
X23899Y-44793D01*
X22803Y-41820D02*
X22540Y-42083D01*
X23644Y-41820D02*
X22803Y-41820D01*
X23644Y-42207D02*
X23644Y-41820D01*
X22571Y-44793D02*
X22502Y-44724D01*
X23649Y-44793D02*
X22571Y-44793D01*
X23649Y-44407D02*
X23649Y-44793D01*
X30958Y-41720D02*
X30958Y-42284D01*
X31838Y-41720D02*
X30958Y-41720D01*
X32193Y-41365D02*
X31838Y-41720D01*
X30958Y-42284D02*
X30958Y-42284D01*
X24924Y-44972D02*
X24924Y-44407D01*
X25501Y-44793D02*
X25590Y-44881D01*
X25179Y-44793D02*
X25501Y-44793D01*
X25179Y-44407D02*
X25179Y-44793D01*
X28958Y-42847D02*
X28958Y-42284D01*
X27999Y-42847D02*
X28958Y-42847D01*
X27827Y-43019D02*
X27999Y-42847D01*
X27559Y-43019D02*
X27827Y-43019D01*
X28958Y-42284D02*
X28958Y-42284D01*
X34535Y-44881D02*
X34055Y-44881D01*
X34663Y-44753D02*
X34535Y-44881D01*
X34663Y-44367D02*
X34663Y-44753D01*
X28958Y-44893D02*
X28958Y-44330D01*
X27922Y-44893D02*
X28958Y-44893D01*
X27827Y-44988D02*
X27922Y-44893D01*
X27559Y-44988D02*
X27827Y-44988D01*
X28958Y-44330D02*
X28958Y-44329D01*
X34693Y-43761D02*
X34541Y-43761D01*
X34913Y-43981D02*
X34693Y-43761D01*
X34913Y-44367D02*
X34913Y-43981D01*
X35165Y-41781D02*
X34749Y-41365D01*
X35168Y-41781D02*
X35165Y-41781D01*
X35168Y-42167D02*
X35168Y-41781D01*
X29958Y-41267D02*
X29958Y-42284D01*
X30005Y-41220D02*
X29958Y-41267D01*
X29958Y-42284D02*
X29958Y-42284D01*
X30458Y-41720D02*
X30458Y-42284D01*
X30481Y-41720D02*
X30458Y-41720D01*
X31081Y-41121D02*
X30481Y-41720D01*
X30458Y-42284D02*
X30458Y-42284D01*
X23994Y-43403D02*
X23743Y-43654D01*
X26331Y-43403D02*
X23994Y-43403D01*
X26915Y-43988D02*
X26331Y-43403D01*
X27184Y-43988D02*
X26915Y-43988D01*
G54D10*
G36*
X24200Y-44457D02*
X24188Y-44457D01*
X24188Y-44464D01*
X24129Y-44464D01*
X24129Y-44457D01*
X24108Y-44457D01*
X24108Y-44357D01*
X24129Y-44357D01*
X24129Y-44349D01*
X24188Y-44349D01*
X24188Y-44357D01*
X24200Y-44357D01*
X24200Y-44457D01*
X24200Y-44457D01*
G37*
G54D18*
X24200Y-44457D02*
X24188Y-44457D01*
X24188Y-44464D01*
X24129Y-44464D01*
X24129Y-44457D01*
X24108Y-44457D01*
X24108Y-44357D01*
X24129Y-44357D01*
X24129Y-44349D01*
X24188Y-44349D01*
X24188Y-44357D01*
X24200Y-44357D01*
X24200Y-44457D01*
G54D10*
G36*
X24715Y-44457D02*
X24698Y-44457D01*
X24698Y-44464D01*
X24639Y-44464D01*
X24639Y-44457D01*
X24618Y-44457D01*
X24618Y-44357D01*
X24639Y-44357D01*
X24639Y-44349D01*
X24698Y-44349D01*
X24698Y-44357D01*
X24715Y-44357D01*
X24715Y-44457D01*
X24715Y-44457D01*
G37*
G54D18*
X24715Y-44457D02*
X24698Y-44457D01*
X24698Y-44464D01*
X24639Y-44464D01*
X24639Y-44457D01*
X24618Y-44457D01*
X24618Y-44357D01*
X24639Y-44357D01*
X24639Y-44349D01*
X24698Y-44349D01*
X24698Y-44357D01*
X24715Y-44357D01*
X24715Y-44457D01*
G54D10*
G36*
X25317Y-44021D02*
X25268Y-44001D01*
X25208Y-44001D01*
X25090Y-44001D01*
X25051Y-44017D01*
X25013Y-44001D01*
X24953Y-44001D01*
X24932Y-44001D01*
X24870Y-43939D01*
X24778Y-43901D01*
X24761Y-43901D01*
X24719Y-43943D01*
X24719Y-43901D01*
X24672Y-43901D01*
X24789Y-43783D01*
X25080Y-43783D01*
X25317Y-44021D01*
X25317Y-44021D01*
G37*
G54D18*
X25317Y-44021D02*
X25268Y-44001D01*
X25208Y-44001D01*
X25090Y-44001D01*
X25051Y-44017D01*
X25013Y-44001D01*
X24953Y-44001D01*
X24932Y-44001D01*
X24870Y-43939D01*
X24778Y-43901D01*
X24761Y-43901D01*
X24719Y-43943D01*
X24719Y-43901D01*
X24672Y-43901D01*
X24789Y-43783D01*
X25080Y-43783D01*
X25317Y-44021D01*
G54D10*
G36*
X30333Y-45657D02*
X27519Y-45657D01*
X25465Y-43603D01*
X26248Y-43603D01*
X26774Y-44129D01*
X26774Y-44129D01*
X26774Y-44129D01*
X26805Y-44150D01*
X26839Y-44172D01*
X26839Y-44172D01*
X26839Y-44172D01*
X26878Y-44180D01*
X26896Y-44184D01*
X26896Y-44215D01*
X26918Y-44270D01*
X26961Y-44312D01*
X27016Y-44335D01*
X27075Y-44335D01*
X27351Y-44335D01*
X27407Y-44312D01*
X27449Y-44270D01*
X27472Y-44215D01*
X27472Y-44155D01*
X27472Y-43761D01*
X27449Y-43706D01*
X27442Y-43699D01*
X27452Y-43701D01*
X27452Y-43701D01*
X27452Y-43701D01*
X27562Y-43701D01*
X27546Y-43741D01*
X27546Y-43840D01*
X27546Y-43875D01*
X27608Y-43938D01*
X27884Y-43938D01*
X27884Y-43930D01*
X27984Y-43930D01*
X27984Y-43938D01*
X28259Y-43938D01*
X28322Y-43875D01*
X28322Y-43840D01*
X28322Y-43741D01*
X28305Y-43701D01*
X29798Y-43701D01*
X29844Y-43747D01*
X29810Y-43747D01*
X29755Y-43769D01*
X29713Y-43812D01*
X29708Y-43823D01*
X29703Y-43812D01*
X29661Y-43769D01*
X29606Y-43747D01*
X29546Y-43747D01*
X29310Y-43747D01*
X29255Y-43769D01*
X29213Y-43812D01*
X29208Y-43823D01*
X29203Y-43812D01*
X29161Y-43769D01*
X29106Y-43747D01*
X29046Y-43747D01*
X28810Y-43747D01*
X28755Y-43769D01*
X28713Y-43812D01*
X28690Y-43867D01*
X28690Y-43926D01*
X28690Y-44693D01*
X28322Y-44693D01*
X28322Y-44234D01*
X28322Y-44135D01*
X28322Y-44100D01*
X28259Y-44038D01*
X27984Y-44038D01*
X27984Y-44372D01*
X28046Y-44435D01*
X28121Y-44435D01*
X28213Y-44397D01*
X28283Y-44326D01*
X28322Y-44234D01*
X28322Y-44693D01*
X27922Y-44693D01*
X27922Y-44693D01*
X27884Y-44700D01*
X27884Y-44372D01*
X27884Y-44038D01*
X27608Y-44038D01*
X27546Y-44100D01*
X27546Y-44135D01*
X27546Y-44234D01*
X27584Y-44326D01*
X27654Y-44397D01*
X27746Y-44435D01*
X27821Y-44435D01*
X27884Y-44372D01*
X27884Y-44700D01*
X27884Y-44700D01*
X27845Y-44708D01*
X27845Y-44708D01*
X27845Y-44708D01*
X27829Y-44719D01*
X27824Y-44706D01*
X27782Y-44664D01*
X27726Y-44641D01*
X27667Y-44641D01*
X27391Y-44641D01*
X27336Y-44664D01*
X27293Y-44706D01*
X27271Y-44761D01*
X27271Y-44821D01*
X27271Y-45215D01*
X27293Y-45270D01*
X27336Y-45312D01*
X27391Y-45335D01*
X27450Y-45335D01*
X27726Y-45335D01*
X27782Y-45312D01*
X27824Y-45270D01*
X27847Y-45215D01*
X27847Y-45184D01*
X27865Y-45180D01*
X27903Y-45173D01*
X27903Y-45172D01*
X27903Y-45172D01*
X27935Y-45151D01*
X27968Y-45129D01*
X27968Y-45129D01*
X28004Y-45093D01*
X28958Y-45093D01*
X29035Y-45078D01*
X29100Y-45034D01*
X29143Y-44969D01*
X29158Y-44893D01*
X29158Y-44891D01*
X29161Y-44890D01*
X29203Y-44848D01*
X29208Y-44836D01*
X29213Y-44848D01*
X29255Y-44890D01*
X29310Y-44913D01*
X29370Y-44913D01*
X29596Y-44913D01*
X29536Y-44973D01*
X29486Y-45092D01*
X29486Y-45222D01*
X29535Y-45341D01*
X29627Y-45433D01*
X29746Y-45482D01*
X29875Y-45482D01*
X29995Y-45433D01*
X30086Y-45342D01*
X30130Y-45236D01*
X30333Y-45438D01*
X30333Y-45657D01*
X30333Y-45657D01*
G37*
G54D18*
X30333Y-45657D02*
X27519Y-45657D01*
X25465Y-43603D01*
X26248Y-43603D01*
X26774Y-44129D01*
X26774Y-44129D01*
X26774Y-44129D01*
X26805Y-44150D01*
X26839Y-44172D01*
X26839Y-44172D01*
X26839Y-44172D01*
X26878Y-44180D01*
X26896Y-44184D01*
X26896Y-44215D01*
X26918Y-44270D01*
X26961Y-44312D01*
X27016Y-44335D01*
X27075Y-44335D01*
X27351Y-44335D01*
X27407Y-44312D01*
X27449Y-44270D01*
X27472Y-44215D01*
X27472Y-44155D01*
X27472Y-43761D01*
X27449Y-43706D01*
X27442Y-43699D01*
X27452Y-43701D01*
X27452Y-43701D01*
X27452Y-43701D01*
X27562Y-43701D01*
X27546Y-43741D01*
X27546Y-43840D01*
X27546Y-43875D01*
X27608Y-43938D01*
X27884Y-43938D01*
X27884Y-43930D01*
X27984Y-43930D01*
X27984Y-43938D01*
X28259Y-43938D01*
X28322Y-43875D01*
X28322Y-43840D01*
X28322Y-43741D01*
X28305Y-43701D01*
X29798Y-43701D01*
X29844Y-43747D01*
X29810Y-43747D01*
X29755Y-43769D01*
X29713Y-43812D01*
X29708Y-43823D01*
X29703Y-43812D01*
X29661Y-43769D01*
X29606Y-43747D01*
X29546Y-43747D01*
X29310Y-43747D01*
X29255Y-43769D01*
X29213Y-43812D01*
X29208Y-43823D01*
X29203Y-43812D01*
X29161Y-43769D01*
X29106Y-43747D01*
X29046Y-43747D01*
X28810Y-43747D01*
X28755Y-43769D01*
X28713Y-43812D01*
X28690Y-43867D01*
X28690Y-43926D01*
X28690Y-44693D01*
X28322Y-44693D01*
X28322Y-44234D01*
X28322Y-44135D01*
X28322Y-44100D01*
X28259Y-44038D01*
X27984Y-44038D01*
X27984Y-44372D01*
X28046Y-44435D01*
X28121Y-44435D01*
X28213Y-44397D01*
X28283Y-44326D01*
X28322Y-44234D01*
X28322Y-44693D01*
X27922Y-44693D01*
X27922Y-44693D01*
X27884Y-44700D01*
X27884Y-44372D01*
X27884Y-44038D01*
X27608Y-44038D01*
X27546Y-44100D01*
X27546Y-44135D01*
X27546Y-44234D01*
X27584Y-44326D01*
X27654Y-44397D01*
X27746Y-44435D01*
X27821Y-44435D01*
X27884Y-44372D01*
X27884Y-44700D01*
X27884Y-44700D01*
X27845Y-44708D01*
X27845Y-44708D01*
X27845Y-44708D01*
X27829Y-44719D01*
X27824Y-44706D01*
X27782Y-44664D01*
X27726Y-44641D01*
X27667Y-44641D01*
X27391Y-44641D01*
X27336Y-44664D01*
X27293Y-44706D01*
X27271Y-44761D01*
X27271Y-44821D01*
X27271Y-45215D01*
X27293Y-45270D01*
X27336Y-45312D01*
X27391Y-45335D01*
X27450Y-45335D01*
X27726Y-45335D01*
X27782Y-45312D01*
X27824Y-45270D01*
X27847Y-45215D01*
X27847Y-45184D01*
X27865Y-45180D01*
X27903Y-45173D01*
X27903Y-45172D01*
X27903Y-45172D01*
X27935Y-45151D01*
X27968Y-45129D01*
X27968Y-45129D01*
X28004Y-45093D01*
X28958Y-45093D01*
X29035Y-45078D01*
X29100Y-45034D01*
X29143Y-44969D01*
X29158Y-44893D01*
X29158Y-44891D01*
X29161Y-44890D01*
X29203Y-44848D01*
X29208Y-44836D01*
X29213Y-44848D01*
X29255Y-44890D01*
X29310Y-44913D01*
X29370Y-44913D01*
X29596Y-44913D01*
X29536Y-44973D01*
X29486Y-45092D01*
X29486Y-45222D01*
X29535Y-45341D01*
X29627Y-45433D01*
X29746Y-45482D01*
X29875Y-45482D01*
X29995Y-45433D01*
X30086Y-45342D01*
X30130Y-45236D01*
X30333Y-45438D01*
X30333Y-45657D01*
G54D10*
G36*
X33464Y-46602D02*
X32185Y-46602D01*
X32256Y-46573D01*
X32326Y-46502D01*
X32364Y-46410D01*
X32364Y-46313D01*
X32302Y-46251D01*
X31939Y-46251D01*
X31939Y-46259D01*
X31839Y-46259D01*
X31839Y-46251D01*
X31831Y-46251D01*
X31831Y-46151D01*
X31839Y-46151D01*
X31839Y-46143D01*
X31939Y-46143D01*
X31939Y-46151D01*
X32302Y-46151D01*
X32364Y-46088D01*
X32364Y-46021D01*
X32695Y-46021D01*
X32695Y-46070D01*
X32695Y-46390D01*
X32718Y-46446D01*
X32760Y-46488D01*
X32816Y-46511D01*
X32875Y-46511D01*
X33318Y-46511D01*
X33370Y-46563D01*
X33464Y-46602D01*
X33464Y-46602D01*
G37*
G54D18*
X33464Y-46602D02*
X32185Y-46602D01*
X32256Y-46573D01*
X32326Y-46502D01*
X32364Y-46410D01*
X32364Y-46313D01*
X32302Y-46251D01*
X31939Y-46251D01*
X31939Y-46259D01*
X31839Y-46259D01*
X31839Y-46251D01*
X31831Y-46251D01*
X31831Y-46151D01*
X31839Y-46151D01*
X31839Y-46143D01*
X31939Y-46143D01*
X31939Y-46151D01*
X32302Y-46151D01*
X32364Y-46088D01*
X32364Y-46021D01*
X32695Y-46021D01*
X32695Y-46070D01*
X32695Y-46390D01*
X32718Y-46446D01*
X32760Y-46488D01*
X32816Y-46511D01*
X32875Y-46511D01*
X33318Y-46511D01*
X33370Y-46563D01*
X33464Y-46602D01*
G54D10*
G36*
X33956Y-46602D02*
X33644Y-46602D01*
X33738Y-46563D01*
X33810Y-46491D01*
X33815Y-46502D01*
X33885Y-46573D01*
X33956Y-46602D01*
X33956Y-46602D01*
G37*
G54D18*
X33956Y-46602D02*
X33644Y-46602D01*
X33738Y-46563D01*
X33810Y-46491D01*
X33815Y-46502D01*
X33885Y-46573D01*
X33956Y-46602D01*
G54D10*
G36*
X34309Y-46251D02*
X34301Y-46251D01*
X34301Y-46259D01*
X34201Y-46259D01*
X34201Y-46251D01*
X34194Y-46251D01*
X34194Y-46151D01*
X34201Y-46151D01*
X34201Y-46143D01*
X34301Y-46143D01*
X34301Y-46151D01*
X34309Y-46151D01*
X34309Y-46251D01*
X34309Y-46251D01*
G37*
G54D18*
X34309Y-46251D02*
X34301Y-46251D01*
X34301Y-46259D01*
X34201Y-46259D01*
X34201Y-46251D01*
X34194Y-46251D01*
X34194Y-46151D01*
X34201Y-46151D01*
X34201Y-46143D01*
X34301Y-46143D01*
X34301Y-46151D01*
X34309Y-46151D01*
X34309Y-46251D01*
G54D10*
G36*
X38019Y-48255D02*
X37764Y-48255D01*
X37764Y-45561D01*
X37764Y-42018D01*
X37681Y-41818D01*
X37528Y-41665D01*
X37329Y-41582D01*
X37112Y-41582D01*
X36913Y-41664D01*
X36759Y-41817D01*
X36677Y-42017D01*
X36676Y-42233D01*
X36759Y-42433D01*
X36912Y-42586D01*
X37111Y-42669D01*
X37328Y-42669D01*
X37527Y-42587D01*
X37680Y-42434D01*
X37763Y-42234D01*
X37764Y-42018D01*
X37764Y-45561D01*
X37681Y-45361D01*
X37528Y-45208D01*
X37329Y-45125D01*
X37112Y-45125D01*
X36913Y-45208D01*
X36764Y-45356D01*
X36764Y-43018D01*
X36681Y-42818D01*
X36528Y-42665D01*
X36329Y-42582D01*
X36112Y-42582D01*
X35913Y-42664D01*
X35759Y-42817D01*
X35732Y-42884D01*
X35732Y-42473D01*
X35732Y-42373D01*
X35732Y-42280D01*
X35732Y-42055D01*
X35732Y-41961D01*
X35732Y-41861D01*
X35694Y-41770D01*
X35623Y-41699D01*
X35531Y-41661D01*
X35515Y-41661D01*
X35452Y-41724D01*
X35452Y-42117D01*
X35669Y-42117D01*
X35732Y-42055D01*
X35732Y-42280D01*
X35669Y-42217D01*
X35452Y-42217D01*
X35452Y-42611D01*
X35515Y-42673D01*
X35531Y-42673D01*
X35623Y-42635D01*
X35694Y-42565D01*
X35732Y-42473D01*
X35732Y-42884D01*
X35677Y-43017D01*
X35676Y-43233D01*
X35716Y-43329D01*
X35423Y-43623D01*
X35095Y-43295D01*
X35095Y-43295D01*
X35095Y-43295D01*
X35063Y-43273D01*
X35030Y-43251D01*
X35030Y-43251D01*
X35030Y-43251D01*
X34992Y-43244D01*
X34953Y-43236D01*
X34953Y-43236D01*
X34953Y-43236D01*
X34863Y-43236D01*
X34932Y-43208D01*
X35023Y-43117D01*
X35073Y-42997D01*
X35073Y-42881D01*
X35076Y-42877D01*
X35097Y-42844D01*
X35097Y-42844D01*
X35098Y-42844D01*
X35105Y-42806D01*
X35113Y-42768D01*
X35113Y-42768D01*
X35113Y-42768D01*
X35113Y-42573D01*
X35139Y-42573D01*
X35160Y-42573D01*
X35222Y-42635D01*
X35314Y-42673D01*
X35331Y-42673D01*
X35393Y-42611D01*
X35393Y-42217D01*
X35377Y-42217D01*
X35377Y-42117D01*
X35393Y-42117D01*
X35393Y-41724D01*
X35331Y-41661D01*
X35324Y-41661D01*
X35309Y-41640D01*
X35301Y-41634D01*
X35074Y-41407D01*
X35074Y-41301D01*
X35057Y-41259D01*
X35676Y-41259D01*
X35676Y-41549D01*
X35699Y-41604D01*
X35742Y-41646D01*
X35797Y-41669D01*
X35856Y-41669D01*
X36643Y-41669D01*
X36698Y-41646D01*
X36741Y-41604D01*
X36763Y-41549D01*
X36763Y-41489D01*
X36763Y-40702D01*
X36741Y-40647D01*
X36698Y-40605D01*
X36643Y-40582D01*
X36584Y-40582D01*
X35797Y-40582D01*
X35742Y-40605D01*
X35699Y-40647D01*
X35676Y-40702D01*
X35676Y-40762D01*
X35676Y-40859D01*
X34600Y-40859D01*
X34562Y-40867D01*
X34524Y-40874D01*
X34523Y-40874D01*
X34523Y-40874D01*
X34491Y-40896D01*
X34459Y-40917D01*
X34298Y-41078D01*
X34298Y-41078D01*
X34298Y-41078D01*
X34276Y-41111D01*
X34254Y-41143D01*
X34254Y-41143D01*
X34254Y-41143D01*
X34247Y-41181D01*
X34239Y-41219D01*
X34239Y-41219D01*
X34239Y-41220D01*
X34239Y-41562D01*
X34239Y-41563D01*
X34239Y-41563D01*
X34247Y-41601D01*
X34254Y-41639D01*
X34254Y-41639D01*
X34254Y-41639D01*
X34276Y-41672D01*
X34298Y-41704D01*
X34298Y-41704D01*
X34298Y-41704D01*
X34456Y-41863D01*
X34449Y-41881D01*
X34449Y-41941D01*
X34449Y-42453D01*
X34456Y-42472D01*
X34157Y-42772D01*
X33835Y-42772D01*
X33816Y-42727D01*
X33774Y-42684D01*
X33719Y-42662D01*
X33659Y-42662D01*
X33209Y-42662D01*
X33154Y-42684D01*
X33129Y-42709D01*
X33125Y-42705D01*
X33093Y-42683D01*
X33061Y-42662D01*
X33061Y-42662D01*
X33061Y-42662D01*
X33022Y-42654D01*
X32984Y-42647D01*
X32984Y-42647D01*
X32726Y-42647D01*
X32726Y-41821D01*
X32703Y-41766D01*
X32661Y-41723D01*
X32606Y-41701D01*
X32546Y-41701D01*
X32310Y-41701D01*
X32255Y-41723D01*
X32213Y-41766D01*
X32208Y-41777D01*
X32203Y-41766D01*
X32161Y-41723D01*
X32130Y-41711D01*
X32151Y-41690D01*
X32257Y-41690D01*
X32377Y-41641D01*
X32468Y-41550D01*
X32518Y-41430D01*
X32518Y-41301D01*
X32469Y-41181D01*
X32377Y-41090D01*
X32258Y-41040D01*
X32129Y-41040D01*
X32009Y-41090D01*
X31918Y-41181D01*
X31868Y-41300D01*
X31868Y-41407D01*
X31755Y-41520D01*
X30964Y-41520D01*
X31038Y-41446D01*
X31145Y-41446D01*
X31264Y-41396D01*
X31356Y-41305D01*
X31405Y-41186D01*
X31406Y-41056D01*
X31356Y-40937D01*
X31265Y-40845D01*
X31145Y-40796D01*
X31016Y-40796D01*
X30897Y-40845D01*
X30805Y-40936D01*
X30756Y-41056D01*
X30755Y-41163D01*
X30383Y-41535D01*
X30382Y-41536D01*
X30317Y-41579D01*
X30273Y-41644D01*
X30258Y-41720D01*
X30258Y-41722D01*
X30255Y-41723D01*
X30213Y-41766D01*
X30208Y-41777D01*
X30203Y-41766D01*
X30161Y-41723D01*
X30158Y-41722D01*
X30158Y-41509D01*
X30189Y-41496D01*
X30280Y-41405D01*
X30330Y-41285D01*
X30330Y-41156D01*
X30281Y-41037D01*
X30189Y-40945D01*
X30070Y-40895D01*
X29941Y-40895D01*
X29821Y-40945D01*
X29730Y-41036D01*
X29680Y-41155D01*
X29680Y-41285D01*
X29729Y-41404D01*
X29758Y-41433D01*
X29758Y-41722D01*
X29755Y-41723D01*
X29713Y-41766D01*
X29708Y-41777D01*
X29703Y-41766D01*
X29661Y-41723D01*
X29606Y-41701D01*
X29546Y-41701D01*
X29310Y-41701D01*
X29255Y-41723D01*
X29213Y-41766D01*
X29208Y-41777D01*
X29203Y-41766D01*
X29161Y-41723D01*
X29106Y-41701D01*
X29046Y-41701D01*
X28810Y-41701D01*
X28755Y-41723D01*
X28713Y-41766D01*
X28690Y-41821D01*
X28690Y-41880D01*
X28690Y-42647D01*
X28322Y-42647D01*
X28322Y-42266D01*
X28322Y-42166D01*
X28322Y-42132D01*
X28322Y-41907D01*
X28322Y-41872D01*
X28322Y-41772D01*
X28283Y-41681D01*
X28213Y-41610D01*
X28121Y-41572D01*
X28046Y-41572D01*
X27984Y-41635D01*
X27984Y-41969D01*
X28259Y-41969D01*
X28322Y-41907D01*
X28322Y-42132D01*
X28259Y-42069D01*
X27984Y-42069D01*
X27984Y-42404D01*
X28046Y-42466D01*
X28121Y-42466D01*
X28213Y-42428D01*
X28283Y-42358D01*
X28322Y-42266D01*
X28322Y-42647D01*
X27999Y-42647D01*
X27959Y-42655D01*
X27923Y-42662D01*
X27923Y-42662D01*
X27923Y-42662D01*
X27890Y-42683D01*
X27884Y-42688D01*
X27884Y-42404D01*
X27884Y-42069D01*
X27884Y-41969D01*
X27884Y-41635D01*
X27821Y-41572D01*
X27746Y-41572D01*
X27654Y-41610D01*
X27584Y-41681D01*
X27546Y-41772D01*
X27546Y-41872D01*
X27546Y-41907D01*
X27608Y-41969D01*
X27884Y-41969D01*
X27884Y-42069D01*
X27608Y-42069D01*
X27546Y-42132D01*
X27546Y-42166D01*
X27546Y-42266D01*
X27584Y-42358D01*
X27654Y-42428D01*
X27746Y-42466D01*
X27821Y-42466D01*
X27884Y-42404D01*
X27884Y-42688D01*
X27858Y-42705D01*
X27824Y-42739D01*
X27824Y-42737D01*
X27782Y-42695D01*
X27726Y-42672D01*
X27667Y-42672D01*
X27472Y-42672D01*
X27472Y-42246D01*
X27472Y-42186D01*
X27472Y-41792D01*
X27449Y-41737D01*
X27407Y-41695D01*
X27351Y-41672D01*
X27292Y-41672D01*
X27016Y-41672D01*
X26961Y-41695D01*
X26918Y-41737D01*
X26896Y-41792D01*
X26896Y-41823D01*
X26878Y-41827D01*
X26839Y-41834D01*
X26839Y-41834D01*
X26839Y-41834D01*
X26806Y-41856D01*
X26776Y-41876D01*
X26332Y-41876D01*
X26257Y-41801D01*
X26137Y-41751D01*
X26008Y-41751D01*
X25889Y-41801D01*
X25797Y-41892D01*
X25748Y-42011D01*
X25747Y-42141D01*
X25797Y-42260D01*
X25888Y-42352D01*
X26008Y-42401D01*
X26137Y-42401D01*
X26256Y-42352D01*
X26332Y-42276D01*
X26858Y-42276D01*
X26858Y-42276D01*
X26858Y-42276D01*
X26897Y-42269D01*
X26904Y-42267D01*
X26918Y-42301D01*
X26961Y-42343D01*
X27016Y-42366D01*
X27075Y-42366D01*
X27351Y-42366D01*
X27407Y-42343D01*
X27449Y-42301D01*
X27472Y-42246D01*
X27472Y-42672D01*
X27391Y-42672D01*
X27336Y-42695D01*
X27293Y-42737D01*
X27271Y-42792D01*
X27271Y-42852D01*
X27271Y-43037D01*
X27125Y-42892D01*
X27125Y-42892D01*
X27125Y-42892D01*
X27093Y-42870D01*
X27060Y-42848D01*
X27060Y-42848D01*
X27060Y-42848D01*
X27022Y-42841D01*
X26984Y-42833D01*
X26984Y-42833D01*
X26984Y-42833D01*
X25433Y-42833D01*
X24609Y-42833D01*
X24609Y-42681D01*
X24639Y-42650D01*
X24639Y-42257D01*
X24618Y-42257D01*
X24618Y-42157D01*
X24639Y-42157D01*
X24639Y-42149D01*
X24698Y-42149D01*
X24698Y-42157D01*
X24715Y-42157D01*
X24715Y-42257D01*
X24698Y-42257D01*
X24698Y-42650D01*
X24761Y-42713D01*
X24778Y-42713D01*
X24870Y-42675D01*
X24932Y-42613D01*
X25013Y-42613D01*
X25051Y-42597D01*
X25090Y-42613D01*
X25150Y-42613D01*
X25268Y-42613D01*
X25323Y-42590D01*
X25365Y-42548D01*
X25388Y-42492D01*
X25388Y-42433D01*
X25388Y-41921D01*
X25379Y-41899D01*
X25379Y-41554D01*
X25384Y-41550D01*
X25433Y-41430D01*
X25433Y-41301D01*
X25384Y-41181D01*
X25293Y-41090D01*
X25173Y-41040D01*
X25044Y-41040D01*
X24993Y-41061D01*
X24993Y-40934D01*
X25064Y-40934D01*
X25183Y-40885D01*
X25275Y-40794D01*
X25324Y-40674D01*
X25325Y-40545D01*
X25275Y-40425D01*
X25184Y-40334D01*
X25064Y-40284D01*
X24935Y-40284D01*
X24816Y-40334D01*
X24724Y-40425D01*
X24675Y-40544D01*
X24674Y-40651D01*
X24651Y-40675D01*
X24651Y-40675D01*
X24651Y-40675D01*
X24630Y-40707D01*
X24608Y-40739D01*
X24608Y-40739D01*
X24608Y-40739D01*
X24600Y-40778D01*
X24593Y-40816D01*
X24593Y-40816D01*
X24593Y-40816D01*
X24593Y-41605D01*
X24593Y-41605D01*
X24593Y-41605D01*
X24600Y-41643D01*
X24608Y-41682D01*
X24608Y-41682D01*
X24608Y-41682D01*
X24620Y-41701D01*
X24619Y-41701D01*
X24619Y-41743D01*
X24577Y-41701D01*
X24560Y-41701D01*
X24468Y-41739D01*
X24411Y-41796D01*
X24355Y-41739D01*
X24263Y-41701D01*
X24246Y-41701D01*
X24183Y-41763D01*
X24183Y-42157D01*
X24200Y-42157D01*
X24200Y-42257D01*
X24183Y-42257D01*
X24183Y-42650D01*
X24209Y-42676D01*
X24209Y-42772D01*
X24124Y-42772D01*
X24124Y-42650D01*
X24124Y-42257D01*
X24108Y-42257D01*
X24108Y-42157D01*
X24124Y-42157D01*
X24124Y-41763D01*
X24099Y-41738D01*
X24099Y-40809D01*
X24084Y-40732D01*
X24040Y-40668D01*
X24035Y-40662D01*
X24035Y-40555D01*
X23985Y-40436D01*
X23894Y-40344D01*
X23775Y-40295D01*
X23645Y-40295D01*
X23526Y-40344D01*
X23434Y-40435D01*
X23385Y-40555D01*
X23385Y-40684D01*
X23434Y-40803D01*
X23525Y-40895D01*
X23645Y-40945D01*
X23699Y-40945D01*
X23699Y-41631D01*
X23644Y-41620D01*
X22803Y-41620D01*
X22803Y-41620D01*
X22803Y-41620D01*
X22766Y-41628D01*
X22726Y-41636D01*
X22726Y-41636D01*
X22726Y-41636D01*
X22695Y-41657D01*
X22661Y-41679D01*
X22661Y-41679D01*
X22661Y-41679D01*
X22582Y-41758D01*
X22476Y-41758D01*
X22356Y-41807D01*
X22265Y-41899D01*
X22215Y-42018D01*
X22215Y-42147D01*
X22265Y-42267D01*
X22356Y-42358D01*
X22475Y-42408D01*
X22605Y-42408D01*
X22724Y-42359D01*
X22816Y-42267D01*
X22865Y-42148D01*
X22865Y-42041D01*
X22886Y-42020D01*
X23435Y-42020D01*
X23435Y-42492D01*
X23458Y-42548D01*
X23500Y-42590D01*
X23555Y-42613D01*
X23615Y-42613D01*
X23733Y-42613D01*
X23771Y-42597D01*
X23810Y-42613D01*
X23870Y-42613D01*
X23891Y-42613D01*
X23953Y-42675D01*
X24045Y-42713D01*
X24062Y-42713D01*
X24124Y-42650D01*
X24124Y-42772D01*
X23205Y-42772D01*
X23186Y-42727D01*
X23144Y-42684D01*
X23089Y-42662D01*
X23029Y-42662D01*
X22579Y-42662D01*
X22524Y-42684D01*
X22482Y-42727D01*
X22459Y-42782D01*
X22459Y-42841D01*
X22459Y-43161D01*
X22482Y-43217D01*
X22524Y-43259D01*
X22579Y-43282D01*
X22639Y-43282D01*
X23089Y-43282D01*
X23144Y-43259D01*
X23186Y-43217D01*
X23205Y-43172D01*
X24326Y-43172D01*
X24329Y-43174D01*
X24329Y-43175D01*
X24362Y-43196D01*
X24372Y-43203D01*
X23994Y-43203D01*
X23994Y-43203D01*
X23994Y-43203D01*
X23956Y-43211D01*
X23917Y-43218D01*
X23917Y-43218D01*
X23917Y-43218D01*
X23885Y-43240D01*
X23852Y-43262D01*
X23852Y-43262D01*
X23852Y-43262D01*
X23785Y-43329D01*
X23679Y-43329D01*
X23559Y-43378D01*
X23468Y-43469D01*
X23418Y-43589D01*
X23418Y-43718D01*
X23460Y-43820D01*
X23209Y-43820D01*
X23209Y-43772D01*
X23209Y-43452D01*
X23186Y-43397D01*
X23144Y-43354D01*
X23089Y-43332D01*
X23029Y-43332D01*
X22579Y-43332D01*
X22524Y-43354D01*
X22482Y-43397D01*
X22459Y-43452D01*
X22459Y-43511D01*
X22459Y-43831D01*
X22482Y-43887D01*
X22524Y-43929D01*
X22579Y-43952D01*
X22638Y-43952D01*
X22642Y-43970D01*
X22649Y-44008D01*
X22649Y-44008D01*
X22649Y-44009D01*
X22671Y-44041D01*
X22693Y-44073D01*
X22693Y-44073D01*
X22693Y-44073D01*
X22782Y-44162D01*
X22782Y-44162D01*
X22814Y-44184D01*
X22846Y-44205D01*
X22846Y-44205D01*
X22847Y-44205D01*
X22885Y-44213D01*
X22923Y-44220D01*
X23440Y-44220D01*
X23440Y-44593D01*
X22800Y-44593D01*
X22778Y-44540D01*
X22686Y-44448D01*
X22567Y-44399D01*
X22438Y-44398D01*
X22318Y-44448D01*
X22227Y-44539D01*
X22177Y-44659D01*
X22177Y-44788D01*
X22226Y-44907D01*
X22318Y-44999D01*
X22437Y-45048D01*
X22566Y-45049D01*
X22686Y-44999D01*
X22692Y-44993D01*
X23625Y-44993D01*
X23599Y-45057D01*
X23599Y-45186D01*
X23648Y-45306D01*
X23739Y-45397D01*
X23859Y-45447D01*
X23988Y-45447D01*
X24107Y-45398D01*
X24199Y-45306D01*
X24249Y-45187D01*
X24249Y-45058D01*
X24199Y-44938D01*
X24174Y-44913D01*
X24209Y-44913D01*
X24209Y-44871D01*
X24251Y-44913D01*
X24268Y-44913D01*
X24360Y-44875D01*
X24414Y-44820D01*
X24468Y-44875D01*
X24560Y-44913D01*
X24577Y-44913D01*
X24611Y-44879D01*
X24599Y-44907D01*
X24599Y-45037D01*
X24648Y-45156D01*
X24740Y-45248D01*
X24859Y-45297D01*
X24988Y-45297D01*
X25108Y-45248D01*
X25199Y-45157D01*
X25249Y-45037D01*
X25249Y-44993D01*
X25284Y-44993D01*
X25314Y-45065D01*
X25406Y-45157D01*
X25525Y-45206D01*
X25654Y-45206D01*
X25774Y-45157D01*
X25865Y-45066D01*
X25915Y-44946D01*
X25915Y-44817D01*
X25866Y-44698D01*
X25774Y-44606D01*
X25655Y-44556D01*
X25526Y-44556D01*
X25437Y-44593D01*
X25388Y-44593D01*
X25388Y-44121D01*
X25367Y-44071D01*
X27294Y-45998D01*
X27294Y-45998D01*
X27327Y-46020D01*
X27359Y-46041D01*
X27359Y-46041D01*
X27359Y-46041D01*
X27396Y-46049D01*
X27436Y-46057D01*
X27436Y-46057D01*
X30216Y-46057D01*
X30212Y-46059D01*
X30174Y-46115D01*
X30119Y-46115D01*
X30000Y-46164D01*
X29908Y-46256D01*
X29858Y-46375D01*
X29858Y-46504D01*
X29908Y-46624D01*
X29999Y-46715D01*
X30118Y-46765D01*
X30248Y-46765D01*
X30367Y-46716D01*
X30459Y-46624D01*
X30506Y-46511D01*
X30513Y-46511D01*
X30963Y-46511D01*
X31018Y-46488D01*
X31060Y-46446D01*
X31083Y-46390D01*
X31083Y-46331D01*
X31083Y-46057D01*
X31319Y-46057D01*
X31319Y-46403D01*
X31319Y-46403D01*
X31327Y-46443D01*
X31334Y-46479D01*
X31334Y-46479D01*
X31334Y-46479D01*
X31355Y-46511D01*
X31377Y-46544D01*
X31776Y-46943D01*
X31776Y-46943D01*
X31776Y-46943D01*
X31808Y-46964D01*
X31841Y-46987D01*
X31841Y-46987D01*
X31841Y-46987D01*
X31881Y-46995D01*
X31918Y-47002D01*
X31918Y-47002D01*
X31918Y-47002D01*
X34221Y-47002D01*
X34298Y-46987D01*
X34362Y-46943D01*
X35913Y-45392D01*
X36220Y-45392D01*
X36297Y-45377D01*
X36361Y-45334D01*
X36405Y-45269D01*
X36416Y-45212D01*
X36643Y-45212D01*
X36698Y-45189D01*
X36741Y-45147D01*
X36763Y-45092D01*
X36763Y-45032D01*
X36763Y-44245D01*
X36741Y-44190D01*
X36698Y-44148D01*
X36643Y-44125D01*
X36584Y-44125D01*
X35797Y-44125D01*
X35742Y-44148D01*
X35699Y-44190D01*
X35676Y-44245D01*
X35676Y-44305D01*
X35676Y-45064D01*
X34726Y-46014D01*
X34726Y-45991D01*
X34688Y-45899D01*
X34618Y-45829D01*
X34570Y-45809D01*
X34604Y-45776D01*
X34626Y-45720D01*
X34626Y-45661D01*
X34626Y-45341D01*
X34604Y-45286D01*
X34561Y-45243D01*
X34506Y-45221D01*
X34447Y-45221D01*
X33997Y-45221D01*
X33942Y-45243D01*
X33899Y-45286D01*
X33881Y-45331D01*
X33441Y-45331D01*
X33423Y-45286D01*
X33380Y-45243D01*
X33325Y-45221D01*
X33266Y-45221D01*
X32816Y-45221D01*
X32760Y-45243D01*
X32718Y-45286D01*
X32695Y-45341D01*
X32695Y-45400D01*
X32695Y-45621D01*
X32264Y-45621D01*
X32264Y-45341D01*
X32241Y-45286D01*
X32199Y-45243D01*
X32144Y-45221D01*
X32084Y-45221D01*
X31706Y-45221D01*
X31706Y-44940D01*
X31691Y-44864D01*
X31689Y-44862D01*
X31703Y-44848D01*
X31708Y-44836D01*
X31713Y-44848D01*
X31755Y-44890D01*
X31810Y-44913D01*
X31870Y-44913D01*
X32106Y-44913D01*
X32161Y-44890D01*
X32203Y-44848D01*
X32208Y-44836D01*
X32213Y-44848D01*
X32255Y-44890D01*
X32310Y-44913D01*
X32370Y-44913D01*
X32606Y-44913D01*
X32661Y-44890D01*
X32703Y-44848D01*
X32726Y-44792D01*
X32726Y-44733D01*
X32726Y-43966D01*
X32984Y-43966D01*
X32984Y-43966D01*
X33022Y-43959D01*
X33061Y-43951D01*
X33061Y-43951D01*
X33061Y-43951D01*
X33093Y-43930D01*
X33125Y-43908D01*
X33125Y-43908D01*
X33129Y-43904D01*
X33154Y-43929D01*
X33209Y-43952D01*
X33269Y-43952D01*
X33719Y-43952D01*
X33774Y-43929D01*
X33816Y-43887D01*
X33836Y-43838D01*
X33857Y-43834D01*
X33896Y-43826D01*
X33896Y-43826D01*
X33896Y-43826D01*
X33928Y-43805D01*
X33961Y-43783D01*
X33961Y-43783D01*
X33961Y-43783D01*
X34107Y-43636D01*
X34241Y-43636D01*
X34216Y-43696D01*
X34216Y-43826D01*
X34265Y-43945D01*
X34356Y-44037D01*
X34455Y-44078D01*
X34454Y-44081D01*
X34454Y-44141D01*
X34454Y-44653D01*
X34461Y-44672D01*
X34452Y-44681D01*
X34314Y-44681D01*
X34239Y-44606D01*
X34120Y-44556D01*
X33990Y-44556D01*
X33871Y-44606D01*
X33779Y-44697D01*
X33730Y-44816D01*
X33730Y-44946D01*
X33779Y-45065D01*
X33870Y-45157D01*
X33990Y-45206D01*
X34119Y-45206D01*
X34238Y-45157D01*
X34314Y-45081D01*
X34535Y-45081D01*
X34535Y-45081D01*
X34573Y-45074D01*
X34611Y-45066D01*
X34611Y-45066D01*
X34611Y-45066D01*
X34644Y-45044D01*
X34676Y-45023D01*
X34676Y-45023D01*
X34804Y-44895D01*
X34804Y-44895D01*
X34804Y-44895D01*
X34826Y-44863D01*
X34847Y-44830D01*
X34847Y-44830D01*
X34848Y-44830D01*
X34855Y-44792D01*
X34859Y-44773D01*
X34884Y-44773D01*
X34910Y-44773D01*
X34972Y-44835D01*
X35064Y-44873D01*
X35081Y-44873D01*
X35143Y-44811D01*
X35143Y-44417D01*
X35122Y-44417D01*
X35122Y-44317D01*
X35143Y-44317D01*
X35143Y-44309D01*
X35202Y-44309D01*
X35202Y-44317D01*
X35214Y-44317D01*
X35214Y-44417D01*
X35202Y-44417D01*
X35202Y-44811D01*
X35265Y-44873D01*
X35281Y-44873D01*
X35373Y-44835D01*
X35435Y-44773D01*
X35512Y-44773D01*
X35567Y-44750D01*
X35609Y-44708D01*
X35632Y-44653D01*
X35632Y-44593D01*
X35632Y-44081D01*
X35623Y-44060D01*
X35623Y-43989D01*
X35992Y-43619D01*
X36111Y-43669D01*
X36328Y-43669D01*
X36527Y-43587D01*
X36680Y-43434D01*
X36763Y-43234D01*
X36764Y-43018D01*
X36764Y-45356D01*
X36759Y-45361D01*
X36677Y-45560D01*
X36676Y-45776D01*
X36759Y-45976D01*
X36912Y-46129D01*
X37111Y-46212D01*
X37328Y-46212D01*
X37527Y-46130D01*
X37680Y-45977D01*
X37763Y-45777D01*
X37764Y-45561D01*
X37764Y-48255D01*
X36764Y-48255D01*
X36764Y-46561D01*
X36681Y-46361D01*
X36528Y-46208D01*
X36329Y-46125D01*
X36112Y-46125D01*
X35913Y-46208D01*
X35759Y-46361D01*
X35677Y-46560D01*
X35676Y-46776D01*
X35759Y-46976D01*
X35912Y-47129D01*
X36111Y-47212D01*
X36328Y-47212D01*
X36527Y-47130D01*
X36680Y-46977D01*
X36763Y-46777D01*
X36764Y-46561D01*
X36764Y-48255D01*
X21429Y-48255D01*
X21429Y-39933D01*
X38019Y-39933D01*
X38019Y-48255D01*
X38019Y-48255D01*
G37*
G54D18*
X38019Y-48255D02*
X37764Y-48255D01*
X37764Y-45561D01*
X37764Y-42018D01*
X37681Y-41818D01*
X37528Y-41665D01*
X37329Y-41582D01*
X37112Y-41582D01*
X36913Y-41664D01*
X36759Y-41817D01*
X36677Y-42017D01*
X36676Y-42233D01*
X36759Y-42433D01*
X36912Y-42586D01*
X37111Y-42669D01*
X37328Y-42669D01*
X37527Y-42587D01*
X37680Y-42434D01*
X37763Y-42234D01*
X37764Y-42018D01*
X37764Y-45561D01*
X37681Y-45361D01*
X37528Y-45208D01*
X37329Y-45125D01*
X37112Y-45125D01*
X36913Y-45208D01*
X36764Y-45356D01*
X36764Y-43018D01*
X36681Y-42818D01*
X36528Y-42665D01*
X36329Y-42582D01*
X36112Y-42582D01*
X35913Y-42664D01*
X35759Y-42817D01*
X35732Y-42884D01*
X35732Y-42473D01*
X35732Y-42373D01*
X35732Y-42280D01*
X35732Y-42055D01*
X35732Y-41961D01*
X35732Y-41861D01*
X35694Y-41770D01*
X35623Y-41699D01*
X35531Y-41661D01*
X35515Y-41661D01*
X35452Y-41724D01*
X35452Y-42117D01*
X35669Y-42117D01*
X35732Y-42055D01*
X35732Y-42280D01*
X35669Y-42217D01*
X35452Y-42217D01*
X35452Y-42611D01*
X35515Y-42673D01*
X35531Y-42673D01*
X35623Y-42635D01*
X35694Y-42565D01*
X35732Y-42473D01*
X35732Y-42884D01*
X35677Y-43017D01*
X35676Y-43233D01*
X35716Y-43329D01*
X35423Y-43623D01*
X35095Y-43295D01*
X35095Y-43295D01*
X35095Y-43295D01*
X35063Y-43273D01*
X35030Y-43251D01*
X35030Y-43251D01*
X35030Y-43251D01*
X34992Y-43244D01*
X34953Y-43236D01*
X34953Y-43236D01*
X34953Y-43236D01*
X34863Y-43236D01*
X34932Y-43208D01*
X35023Y-43117D01*
X35073Y-42997D01*
X35073Y-42881D01*
X35076Y-42877D01*
X35097Y-42844D01*
X35097Y-42844D01*
X35098Y-42844D01*
X35105Y-42806D01*
X35113Y-42768D01*
X35113Y-42768D01*
X35113Y-42768D01*
X35113Y-42573D01*
X35139Y-42573D01*
X35160Y-42573D01*
X35222Y-42635D01*
X35314Y-42673D01*
X35331Y-42673D01*
X35393Y-42611D01*
X35393Y-42217D01*
X35377Y-42217D01*
X35377Y-42117D01*
X35393Y-42117D01*
X35393Y-41724D01*
X35331Y-41661D01*
X35324Y-41661D01*
X35309Y-41640D01*
X35301Y-41634D01*
X35074Y-41407D01*
X35074Y-41301D01*
X35057Y-41259D01*
X35676Y-41259D01*
X35676Y-41549D01*
X35699Y-41604D01*
X35742Y-41646D01*
X35797Y-41669D01*
X35856Y-41669D01*
X36643Y-41669D01*
X36698Y-41646D01*
X36741Y-41604D01*
X36763Y-41549D01*
X36763Y-41489D01*
X36763Y-40702D01*
X36741Y-40647D01*
X36698Y-40605D01*
X36643Y-40582D01*
X36584Y-40582D01*
X35797Y-40582D01*
X35742Y-40605D01*
X35699Y-40647D01*
X35676Y-40702D01*
X35676Y-40762D01*
X35676Y-40859D01*
X34600Y-40859D01*
X34562Y-40867D01*
X34524Y-40874D01*
X34523Y-40874D01*
X34523Y-40874D01*
X34491Y-40896D01*
X34459Y-40917D01*
X34298Y-41078D01*
X34298Y-41078D01*
X34298Y-41078D01*
X34276Y-41111D01*
X34254Y-41143D01*
X34254Y-41143D01*
X34254Y-41143D01*
X34247Y-41181D01*
X34239Y-41219D01*
X34239Y-41219D01*
X34239Y-41220D01*
X34239Y-41562D01*
X34239Y-41563D01*
X34239Y-41563D01*
X34247Y-41601D01*
X34254Y-41639D01*
X34254Y-41639D01*
X34254Y-41639D01*
X34276Y-41672D01*
X34298Y-41704D01*
X34298Y-41704D01*
X34298Y-41704D01*
X34456Y-41863D01*
X34449Y-41881D01*
X34449Y-41941D01*
X34449Y-42453D01*
X34456Y-42472D01*
X34157Y-42772D01*
X33835Y-42772D01*
X33816Y-42727D01*
X33774Y-42684D01*
X33719Y-42662D01*
X33659Y-42662D01*
X33209Y-42662D01*
X33154Y-42684D01*
X33129Y-42709D01*
X33125Y-42705D01*
X33093Y-42683D01*
X33061Y-42662D01*
X33061Y-42662D01*
X33061Y-42662D01*
X33022Y-42654D01*
X32984Y-42647D01*
X32984Y-42647D01*
X32726Y-42647D01*
X32726Y-41821D01*
X32703Y-41766D01*
X32661Y-41723D01*
X32606Y-41701D01*
X32546Y-41701D01*
X32310Y-41701D01*
X32255Y-41723D01*
X32213Y-41766D01*
X32208Y-41777D01*
X32203Y-41766D01*
X32161Y-41723D01*
X32130Y-41711D01*
X32151Y-41690D01*
X32257Y-41690D01*
X32377Y-41641D01*
X32468Y-41550D01*
X32518Y-41430D01*
X32518Y-41301D01*
X32469Y-41181D01*
X32377Y-41090D01*
X32258Y-41040D01*
X32129Y-41040D01*
X32009Y-41090D01*
X31918Y-41181D01*
X31868Y-41300D01*
X31868Y-41407D01*
X31755Y-41520D01*
X30964Y-41520D01*
X31038Y-41446D01*
X31145Y-41446D01*
X31264Y-41396D01*
X31356Y-41305D01*
X31405Y-41186D01*
X31406Y-41056D01*
X31356Y-40937D01*
X31265Y-40845D01*
X31145Y-40796D01*
X31016Y-40796D01*
X30897Y-40845D01*
X30805Y-40936D01*
X30756Y-41056D01*
X30755Y-41163D01*
X30383Y-41535D01*
X30382Y-41536D01*
X30317Y-41579D01*
X30273Y-41644D01*
X30258Y-41720D01*
X30258Y-41722D01*
X30255Y-41723D01*
X30213Y-41766D01*
X30208Y-41777D01*
X30203Y-41766D01*
X30161Y-41723D01*
X30158Y-41722D01*
X30158Y-41509D01*
X30189Y-41496D01*
X30280Y-41405D01*
X30330Y-41285D01*
X30330Y-41156D01*
X30281Y-41037D01*
X30189Y-40945D01*
X30070Y-40895D01*
X29941Y-40895D01*
X29821Y-40945D01*
X29730Y-41036D01*
X29680Y-41155D01*
X29680Y-41285D01*
X29729Y-41404D01*
X29758Y-41433D01*
X29758Y-41722D01*
X29755Y-41723D01*
X29713Y-41766D01*
X29708Y-41777D01*
X29703Y-41766D01*
X29661Y-41723D01*
X29606Y-41701D01*
X29546Y-41701D01*
X29310Y-41701D01*
X29255Y-41723D01*
X29213Y-41766D01*
X29208Y-41777D01*
X29203Y-41766D01*
X29161Y-41723D01*
X29106Y-41701D01*
X29046Y-41701D01*
X28810Y-41701D01*
X28755Y-41723D01*
X28713Y-41766D01*
X28690Y-41821D01*
X28690Y-41880D01*
X28690Y-42647D01*
X28322Y-42647D01*
X28322Y-42266D01*
X28322Y-42166D01*
X28322Y-42132D01*
X28322Y-41907D01*
X28322Y-41872D01*
X28322Y-41772D01*
X28283Y-41681D01*
X28213Y-41610D01*
X28121Y-41572D01*
X28046Y-41572D01*
X27984Y-41635D01*
X27984Y-41969D01*
X28259Y-41969D01*
X28322Y-41907D01*
X28322Y-42132D01*
X28259Y-42069D01*
X27984Y-42069D01*
X27984Y-42404D01*
X28046Y-42466D01*
X28121Y-42466D01*
X28213Y-42428D01*
X28283Y-42358D01*
X28322Y-42266D01*
X28322Y-42647D01*
X27999Y-42647D01*
X27959Y-42655D01*
X27923Y-42662D01*
X27923Y-42662D01*
X27923Y-42662D01*
X27890Y-42683D01*
X27884Y-42688D01*
X27884Y-42404D01*
X27884Y-42069D01*
X27884Y-41969D01*
X27884Y-41635D01*
X27821Y-41572D01*
X27746Y-41572D01*
X27654Y-41610D01*
X27584Y-41681D01*
X27546Y-41772D01*
X27546Y-41872D01*
X27546Y-41907D01*
X27608Y-41969D01*
X27884Y-41969D01*
X27884Y-42069D01*
X27608Y-42069D01*
X27546Y-42132D01*
X27546Y-42166D01*
X27546Y-42266D01*
X27584Y-42358D01*
X27654Y-42428D01*
X27746Y-42466D01*
X27821Y-42466D01*
X27884Y-42404D01*
X27884Y-42688D01*
X27858Y-42705D01*
X27824Y-42739D01*
X27824Y-42737D01*
X27782Y-42695D01*
X27726Y-42672D01*
X27667Y-42672D01*
X27472Y-42672D01*
X27472Y-42246D01*
X27472Y-42186D01*
X27472Y-41792D01*
X27449Y-41737D01*
X27407Y-41695D01*
X27351Y-41672D01*
X27292Y-41672D01*
X27016Y-41672D01*
X26961Y-41695D01*
X26918Y-41737D01*
X26896Y-41792D01*
X26896Y-41823D01*
X26878Y-41827D01*
X26839Y-41834D01*
X26839Y-41834D01*
X26839Y-41834D01*
X26806Y-41856D01*
X26776Y-41876D01*
X26332Y-41876D01*
X26257Y-41801D01*
X26137Y-41751D01*
X26008Y-41751D01*
X25889Y-41801D01*
X25797Y-41892D01*
X25748Y-42011D01*
X25747Y-42141D01*
X25797Y-42260D01*
X25888Y-42352D01*
X26008Y-42401D01*
X26137Y-42401D01*
X26256Y-42352D01*
X26332Y-42276D01*
X26858Y-42276D01*
X26858Y-42276D01*
X26858Y-42276D01*
X26897Y-42269D01*
X26904Y-42267D01*
X26918Y-42301D01*
X26961Y-42343D01*
X27016Y-42366D01*
X27075Y-42366D01*
X27351Y-42366D01*
X27407Y-42343D01*
X27449Y-42301D01*
X27472Y-42246D01*
X27472Y-42672D01*
X27391Y-42672D01*
X27336Y-42695D01*
X27293Y-42737D01*
X27271Y-42792D01*
X27271Y-42852D01*
X27271Y-43037D01*
X27125Y-42892D01*
X27125Y-42892D01*
X27125Y-42892D01*
X27093Y-42870D01*
X27060Y-42848D01*
X27060Y-42848D01*
X27060Y-42848D01*
X27022Y-42841D01*
X26984Y-42833D01*
X26984Y-42833D01*
X26984Y-42833D01*
X25433Y-42833D01*
X24609Y-42833D01*
X24609Y-42681D01*
X24639Y-42650D01*
X24639Y-42257D01*
X24618Y-42257D01*
X24618Y-42157D01*
X24639Y-42157D01*
X24639Y-42149D01*
X24698Y-42149D01*
X24698Y-42157D01*
X24715Y-42157D01*
X24715Y-42257D01*
X24698Y-42257D01*
X24698Y-42650D01*
X24761Y-42713D01*
X24778Y-42713D01*
X24870Y-42675D01*
X24932Y-42613D01*
X25013Y-42613D01*
X25051Y-42597D01*
X25090Y-42613D01*
X25150Y-42613D01*
X25268Y-42613D01*
X25323Y-42590D01*
X25365Y-42548D01*
X25388Y-42492D01*
X25388Y-42433D01*
X25388Y-41921D01*
X25379Y-41899D01*
X25379Y-41554D01*
X25384Y-41550D01*
X25433Y-41430D01*
X25433Y-41301D01*
X25384Y-41181D01*
X25293Y-41090D01*
X25173Y-41040D01*
X25044Y-41040D01*
X24993Y-41061D01*
X24993Y-40934D01*
X25064Y-40934D01*
X25183Y-40885D01*
X25275Y-40794D01*
X25324Y-40674D01*
X25325Y-40545D01*
X25275Y-40425D01*
X25184Y-40334D01*
X25064Y-40284D01*
X24935Y-40284D01*
X24816Y-40334D01*
X24724Y-40425D01*
X24675Y-40544D01*
X24674Y-40651D01*
X24651Y-40675D01*
X24651Y-40675D01*
X24651Y-40675D01*
X24630Y-40707D01*
X24608Y-40739D01*
X24608Y-40739D01*
X24608Y-40739D01*
X24600Y-40778D01*
X24593Y-40816D01*
X24593Y-40816D01*
X24593Y-40816D01*
X24593Y-41605D01*
X24593Y-41605D01*
X24593Y-41605D01*
X24600Y-41643D01*
X24608Y-41682D01*
X24608Y-41682D01*
X24608Y-41682D01*
X24620Y-41701D01*
X24619Y-41701D01*
X24619Y-41743D01*
X24577Y-41701D01*
X24560Y-41701D01*
X24468Y-41739D01*
X24411Y-41796D01*
X24355Y-41739D01*
X24263Y-41701D01*
X24246Y-41701D01*
X24183Y-41763D01*
X24183Y-42157D01*
X24200Y-42157D01*
X24200Y-42257D01*
X24183Y-42257D01*
X24183Y-42650D01*
X24209Y-42676D01*
X24209Y-42772D01*
X24124Y-42772D01*
X24124Y-42650D01*
X24124Y-42257D01*
X24108Y-42257D01*
X24108Y-42157D01*
X24124Y-42157D01*
X24124Y-41763D01*
X24099Y-41738D01*
X24099Y-40809D01*
X24084Y-40732D01*
X24040Y-40668D01*
X24035Y-40662D01*
X24035Y-40555D01*
X23985Y-40436D01*
X23894Y-40344D01*
X23775Y-40295D01*
X23645Y-40295D01*
X23526Y-40344D01*
X23434Y-40435D01*
X23385Y-40555D01*
X23385Y-40684D01*
X23434Y-40803D01*
X23525Y-40895D01*
X23645Y-40945D01*
X23699Y-40945D01*
X23699Y-41631D01*
X23644Y-41620D01*
X22803Y-41620D01*
X22803Y-41620D01*
X22803Y-41620D01*
X22766Y-41628D01*
X22726Y-41636D01*
X22726Y-41636D01*
X22726Y-41636D01*
X22695Y-41657D01*
X22661Y-41679D01*
X22661Y-41679D01*
X22661Y-41679D01*
X22582Y-41758D01*
X22476Y-41758D01*
X22356Y-41807D01*
X22265Y-41899D01*
X22215Y-42018D01*
X22215Y-42147D01*
X22265Y-42267D01*
X22356Y-42358D01*
X22475Y-42408D01*
X22605Y-42408D01*
X22724Y-42359D01*
X22816Y-42267D01*
X22865Y-42148D01*
X22865Y-42041D01*
X22886Y-42020D01*
X23435Y-42020D01*
X23435Y-42492D01*
X23458Y-42548D01*
X23500Y-42590D01*
X23555Y-42613D01*
X23615Y-42613D01*
X23733Y-42613D01*
X23771Y-42597D01*
X23810Y-42613D01*
X23870Y-42613D01*
X23891Y-42613D01*
X23953Y-42675D01*
X24045Y-42713D01*
X24062Y-42713D01*
X24124Y-42650D01*
X24124Y-42772D01*
X23205Y-42772D01*
X23186Y-42727D01*
X23144Y-42684D01*
X23089Y-42662D01*
X23029Y-42662D01*
X22579Y-42662D01*
X22524Y-42684D01*
X22482Y-42727D01*
X22459Y-42782D01*
X22459Y-42841D01*
X22459Y-43161D01*
X22482Y-43217D01*
X22524Y-43259D01*
X22579Y-43282D01*
X22639Y-43282D01*
X23089Y-43282D01*
X23144Y-43259D01*
X23186Y-43217D01*
X23205Y-43172D01*
X24326Y-43172D01*
X24329Y-43174D01*
X24329Y-43175D01*
X24362Y-43196D01*
X24372Y-43203D01*
X23994Y-43203D01*
X23994Y-43203D01*
X23994Y-43203D01*
X23956Y-43211D01*
X23917Y-43218D01*
X23917Y-43218D01*
X23917Y-43218D01*
X23885Y-43240D01*
X23852Y-43262D01*
X23852Y-43262D01*
X23852Y-43262D01*
X23785Y-43329D01*
X23679Y-43329D01*
X23559Y-43378D01*
X23468Y-43469D01*
X23418Y-43589D01*
X23418Y-43718D01*
X23460Y-43820D01*
X23209Y-43820D01*
X23209Y-43772D01*
X23209Y-43452D01*
X23186Y-43397D01*
X23144Y-43354D01*
X23089Y-43332D01*
X23029Y-43332D01*
X22579Y-43332D01*
X22524Y-43354D01*
X22482Y-43397D01*
X22459Y-43452D01*
X22459Y-43511D01*
X22459Y-43831D01*
X22482Y-43887D01*
X22524Y-43929D01*
X22579Y-43952D01*
X22638Y-43952D01*
X22642Y-43970D01*
X22649Y-44008D01*
X22649Y-44008D01*
X22649Y-44009D01*
X22671Y-44041D01*
X22693Y-44073D01*
X22693Y-44073D01*
X22693Y-44073D01*
X22782Y-44162D01*
X22782Y-44162D01*
X22814Y-44184D01*
X22846Y-44205D01*
X22846Y-44205D01*
X22847Y-44205D01*
X22885Y-44213D01*
X22923Y-44220D01*
X23440Y-44220D01*
X23440Y-44593D01*
X22800Y-44593D01*
X22778Y-44540D01*
X22686Y-44448D01*
X22567Y-44399D01*
X22438Y-44398D01*
X22318Y-44448D01*
X22227Y-44539D01*
X22177Y-44659D01*
X22177Y-44788D01*
X22226Y-44907D01*
X22318Y-44999D01*
X22437Y-45048D01*
X22566Y-45049D01*
X22686Y-44999D01*
X22692Y-44993D01*
X23625Y-44993D01*
X23599Y-45057D01*
X23599Y-45186D01*
X23648Y-45306D01*
X23739Y-45397D01*
X23859Y-45447D01*
X23988Y-45447D01*
X24107Y-45398D01*
X24199Y-45306D01*
X24249Y-45187D01*
X24249Y-45058D01*
X24199Y-44938D01*
X24174Y-44913D01*
X24209Y-44913D01*
X24209Y-44871D01*
X24251Y-44913D01*
X24268Y-44913D01*
X24360Y-44875D01*
X24414Y-44820D01*
X24468Y-44875D01*
X24560Y-44913D01*
X24577Y-44913D01*
X24611Y-44879D01*
X24599Y-44907D01*
X24599Y-45037D01*
X24648Y-45156D01*
X24740Y-45248D01*
X24859Y-45297D01*
X24988Y-45297D01*
X25108Y-45248D01*
X25199Y-45157D01*
X25249Y-45037D01*
X25249Y-44993D01*
X25284Y-44993D01*
X25314Y-45065D01*
X25406Y-45157D01*
X25525Y-45206D01*
X25654Y-45206D01*
X25774Y-45157D01*
X25865Y-45066D01*
X25915Y-44946D01*
X25915Y-44817D01*
X25866Y-44698D01*
X25774Y-44606D01*
X25655Y-44556D01*
X25526Y-44556D01*
X25437Y-44593D01*
X25388Y-44593D01*
X25388Y-44121D01*
X25367Y-44071D01*
X27294Y-45998D01*
X27294Y-45998D01*
X27327Y-46020D01*
X27359Y-46041D01*
X27359Y-46041D01*
X27359Y-46041D01*
X27396Y-46049D01*
X27436Y-46057D01*
X27436Y-46057D01*
X30216Y-46057D01*
X30212Y-46059D01*
X30174Y-46115D01*
X30119Y-46115D01*
X30000Y-46164D01*
X29908Y-46256D01*
X29858Y-46375D01*
X29858Y-46504D01*
X29908Y-46624D01*
X29999Y-46715D01*
X30118Y-46765D01*
X30248Y-46765D01*
X30367Y-46716D01*
X30459Y-46624D01*
X30506Y-46511D01*
X30513Y-46511D01*
X30963Y-46511D01*
X31018Y-46488D01*
X31060Y-46446D01*
X31083Y-46390D01*
X31083Y-46331D01*
X31083Y-46057D01*
X31319Y-46057D01*
X31319Y-46403D01*
X31319Y-46403D01*
X31327Y-46443D01*
X31334Y-46479D01*
X31334Y-46479D01*
X31334Y-46479D01*
X31355Y-46511D01*
X31377Y-46544D01*
X31776Y-46943D01*
X31776Y-46943D01*
X31776Y-46943D01*
X31808Y-46964D01*
X31841Y-46987D01*
X31841Y-46987D01*
X31841Y-46987D01*
X31881Y-46995D01*
X31918Y-47002D01*
X31918Y-47002D01*
X31918Y-47002D01*
X34221Y-47002D01*
X34298Y-46987D01*
X34362Y-46943D01*
X35913Y-45392D01*
X36220Y-45392D01*
X36297Y-45377D01*
X36361Y-45334D01*
X36405Y-45269D01*
X36416Y-45212D01*
X36643Y-45212D01*
X36698Y-45189D01*
X36741Y-45147D01*
X36763Y-45092D01*
X36763Y-45032D01*
X36763Y-44245D01*
X36741Y-44190D01*
X36698Y-44148D01*
X36643Y-44125D01*
X36584Y-44125D01*
X35797Y-44125D01*
X35742Y-44148D01*
X35699Y-44190D01*
X35676Y-44245D01*
X35676Y-44305D01*
X35676Y-45064D01*
X34726Y-46014D01*
X34726Y-45991D01*
X34688Y-45899D01*
X34618Y-45829D01*
X34570Y-45809D01*
X34604Y-45776D01*
X34626Y-45720D01*
X34626Y-45661D01*
X34626Y-45341D01*
X34604Y-45286D01*
X34561Y-45243D01*
X34506Y-45221D01*
X34447Y-45221D01*
X33997Y-45221D01*
X33942Y-45243D01*
X33899Y-45286D01*
X33881Y-45331D01*
X33441Y-45331D01*
X33423Y-45286D01*
X33380Y-45243D01*
X33325Y-45221D01*
X33266Y-45221D01*
X32816Y-45221D01*
X32760Y-45243D01*
X32718Y-45286D01*
X32695Y-45341D01*
X32695Y-45400D01*
X32695Y-45621D01*
X32264Y-45621D01*
X32264Y-45341D01*
X32241Y-45286D01*
X32199Y-45243D01*
X32144Y-45221D01*
X32084Y-45221D01*
X31706Y-45221D01*
X31706Y-44940D01*
X31691Y-44864D01*
X31689Y-44862D01*
X31703Y-44848D01*
X31708Y-44836D01*
X31713Y-44848D01*
X31755Y-44890D01*
X31810Y-44913D01*
X31870Y-44913D01*
X32106Y-44913D01*
X32161Y-44890D01*
X32203Y-44848D01*
X32208Y-44836D01*
X32213Y-44848D01*
X32255Y-44890D01*
X32310Y-44913D01*
X32370Y-44913D01*
X32606Y-44913D01*
X32661Y-44890D01*
X32703Y-44848D01*
X32726Y-44792D01*
X32726Y-44733D01*
X32726Y-43966D01*
X32984Y-43966D01*
X32984Y-43966D01*
X33022Y-43959D01*
X33061Y-43951D01*
X33061Y-43951D01*
X33061Y-43951D01*
X33093Y-43930D01*
X33125Y-43908D01*
X33125Y-43908D01*
X33129Y-43904D01*
X33154Y-43929D01*
X33209Y-43952D01*
X33269Y-43952D01*
X33719Y-43952D01*
X33774Y-43929D01*
X33816Y-43887D01*
X33836Y-43838D01*
X33857Y-43834D01*
X33896Y-43826D01*
X33896Y-43826D01*
X33896Y-43826D01*
X33928Y-43805D01*
X33961Y-43783D01*
X33961Y-43783D01*
X33961Y-43783D01*
X34107Y-43636D01*
X34241Y-43636D01*
X34216Y-43696D01*
X34216Y-43826D01*
X34265Y-43945D01*
X34356Y-44037D01*
X34455Y-44078D01*
X34454Y-44081D01*
X34454Y-44141D01*
X34454Y-44653D01*
X34461Y-44672D01*
X34452Y-44681D01*
X34314Y-44681D01*
X34239Y-44606D01*
X34120Y-44556D01*
X33990Y-44556D01*
X33871Y-44606D01*
X33779Y-44697D01*
X33730Y-44816D01*
X33730Y-44946D01*
X33779Y-45065D01*
X33870Y-45157D01*
X33990Y-45206D01*
X34119Y-45206D01*
X34238Y-45157D01*
X34314Y-45081D01*
X34535Y-45081D01*
X34535Y-45081D01*
X34573Y-45074D01*
X34611Y-45066D01*
X34611Y-45066D01*
X34611Y-45066D01*
X34644Y-45044D01*
X34676Y-45023D01*
X34676Y-45023D01*
X34804Y-44895D01*
X34804Y-44895D01*
X34804Y-44895D01*
X34826Y-44863D01*
X34847Y-44830D01*
X34847Y-44830D01*
X34848Y-44830D01*
X34855Y-44792D01*
X34859Y-44773D01*
X34884Y-44773D01*
X34910Y-44773D01*
X34972Y-44835D01*
X35064Y-44873D01*
X35081Y-44873D01*
X35143Y-44811D01*
X35143Y-44417D01*
X35122Y-44417D01*
X35122Y-44317D01*
X35143Y-44317D01*
X35143Y-44309D01*
X35202Y-44309D01*
X35202Y-44317D01*
X35214Y-44317D01*
X35214Y-44417D01*
X35202Y-44417D01*
X35202Y-44811D01*
X35265Y-44873D01*
X35281Y-44873D01*
X35373Y-44835D01*
X35435Y-44773D01*
X35512Y-44773D01*
X35567Y-44750D01*
X35609Y-44708D01*
X35632Y-44653D01*
X35632Y-44593D01*
X35632Y-44081D01*
X35623Y-44060D01*
X35623Y-43989D01*
X35992Y-43619D01*
X36111Y-43669D01*
X36328Y-43669D01*
X36527Y-43587D01*
X36680Y-43434D01*
X36763Y-43234D01*
X36764Y-43018D01*
X36764Y-45356D01*
X36759Y-45361D01*
X36677Y-45560D01*
X36676Y-45776D01*
X36759Y-45976D01*
X36912Y-46129D01*
X37111Y-46212D01*
X37328Y-46212D01*
X37527Y-46130D01*
X37680Y-45977D01*
X37763Y-45777D01*
X37764Y-45561D01*
X37764Y-48255D01*
X36764Y-48255D01*
X36764Y-46561D01*
X36681Y-46361D01*
X36528Y-46208D01*
X36329Y-46125D01*
X36112Y-46125D01*
X35913Y-46208D01*
X35759Y-46361D01*
X35677Y-46560D01*
X35676Y-46776D01*
X35759Y-46976D01*
X35912Y-47129D01*
X36111Y-47212D01*
X36328Y-47212D01*
X36527Y-47130D01*
X36680Y-46977D01*
X36763Y-46777D01*
X36764Y-46561D01*
X36764Y-48255D01*
X21429Y-48255D01*
X21429Y-39933D01*
X38019Y-39933D01*
X38019Y-48255D01*
M02*
