%FSLAX34Y34*%
G04 Gerber Fmt 3.4, Leading zero omitted, Abs format*
G04 (created by PCBNEW (2014-02-02 BZR 4653)-product) date 2014-03-02 10:39:36 PM*
%MOIN*%
G01*
G70*
G90*
G04 APERTURE LIST*
%ADD10C,0.005906*%
%ADD11R,0.045000X0.032000*%
%ADD12O,0.053150X0.157480*%
%ADD13C,0.078700*%
%ADD14R,0.078700X0.078700*%
%ADD15C,0.035000*%
%ADD16C,0.010000*%
G04 APERTURE END LIST*
G54D10*
G54D11*
X30511Y-42854D03*
X30511Y-42184D03*
X25590Y-44429D03*
X25590Y-43759D03*
X26771Y-43759D03*
X26771Y-44429D03*
X25590Y-42854D03*
X25590Y-42184D03*
X34055Y-45334D03*
X34055Y-46004D03*
X34055Y-43759D03*
X34055Y-44429D03*
X34055Y-41279D03*
X34055Y-40609D03*
X32874Y-41279D03*
X32874Y-40609D03*
X34055Y-42184D03*
X34055Y-42854D03*
X22047Y-46004D03*
X22047Y-45334D03*
X31692Y-42854D03*
X31692Y-42184D03*
X31692Y-41279D03*
X31692Y-40609D03*
X25590Y-46004D03*
X25590Y-45334D03*
X26771Y-45334D03*
X26771Y-46004D03*
X24409Y-46004D03*
X24409Y-45334D03*
X23228Y-46004D03*
X23228Y-45334D03*
X35236Y-42972D03*
X35236Y-43642D03*
X29330Y-44429D03*
X29330Y-43759D03*
X29330Y-41279D03*
X29330Y-40609D03*
X30511Y-45334D03*
X30511Y-46004D03*
X29330Y-45334D03*
X29330Y-46004D03*
X31692Y-46004D03*
X31692Y-45334D03*
X30511Y-43759D03*
X30511Y-44429D03*
X29330Y-42184D03*
X29330Y-42854D03*
X32874Y-42854D03*
X32874Y-42184D03*
X32874Y-45334D03*
X32874Y-46004D03*
X32874Y-44429D03*
X32874Y-43759D03*
X35236Y-41279D03*
X35236Y-40609D03*
X35236Y-45334D03*
X35236Y-46004D03*
X22047Y-43759D03*
X22047Y-44429D03*
X23228Y-42854D03*
X23228Y-42184D03*
X22047Y-42184D03*
X22047Y-42854D03*
X22047Y-40609D03*
X22047Y-41279D03*
X23228Y-41279D03*
X23228Y-40609D03*
X26771Y-40609D03*
X26771Y-41279D03*
X25590Y-41279D03*
X25590Y-40609D03*
X24409Y-41279D03*
X24409Y-40609D03*
X31692Y-44429D03*
X31692Y-43759D03*
X30511Y-41279D03*
X30511Y-40609D03*
G54D12*
X34921Y-47519D03*
X33921Y-47519D03*
X32921Y-47519D03*
X31921Y-47519D03*
X30921Y-47519D03*
X29921Y-47519D03*
X28921Y-47519D03*
X27921Y-47519D03*
X26921Y-47519D03*
X25921Y-47519D03*
X24921Y-47519D03*
X23921Y-47519D03*
G54D13*
X37220Y-42125D03*
X36220Y-43125D03*
G54D14*
X36220Y-41125D03*
G54D13*
X37220Y-45669D03*
X36220Y-46669D03*
G54D14*
X36220Y-44669D03*
G54D15*
X37204Y-43307D03*
X31200Y-46299D03*
X27086Y-44822D03*
X28464Y-46338D03*
X33484Y-40610D03*
X31161Y-40629D03*
X28334Y-42044D03*
X32381Y-46491D03*
X24835Y-43894D03*
X24905Y-42721D03*
X28332Y-44118D03*
X34748Y-42932D03*
X25000Y-40609D03*
X25108Y-41365D03*
X30183Y-46440D03*
X33554Y-46287D03*
X23710Y-40620D03*
X32283Y-43453D03*
X31179Y-45224D03*
X29811Y-45157D03*
X26073Y-42076D03*
X23924Y-45122D03*
X22540Y-42083D03*
X22502Y-44724D03*
X32193Y-41365D03*
X24924Y-44972D03*
X25590Y-44881D03*
X34055Y-44881D03*
X34541Y-43761D03*
X34749Y-41365D03*
X30005Y-41220D03*
X31081Y-41121D03*
X23743Y-43654D03*
G54D16*
X36220Y-41125D02*
X36220Y-41649D01*
X35236Y-42598D02*
X35236Y-42972D01*
X36184Y-41649D02*
X35236Y-42598D01*
X36220Y-41649D02*
X36184Y-41649D01*
X36220Y-41866D02*
X36220Y-41649D01*
X36761Y-42407D02*
X36220Y-41866D01*
X36761Y-43604D02*
X36761Y-42407D01*
X36220Y-44145D02*
X36761Y-43604D01*
X36220Y-44669D02*
X36220Y-44145D01*
X35676Y-46125D02*
X35676Y-43642D01*
X36220Y-46669D02*
X35676Y-46125D01*
X35704Y-43642D02*
X35676Y-43642D01*
X36220Y-43125D02*
X35704Y-43642D01*
X35676Y-43642D02*
X35236Y-43642D01*
X24409Y-46294D02*
X24409Y-46004D01*
X24717Y-46602D02*
X24409Y-46294D01*
X24921Y-46602D02*
X24717Y-46602D01*
X24921Y-47519D02*
X24921Y-46602D01*
X24409Y-46004D02*
X24409Y-46004D01*
X23921Y-46602D02*
X23921Y-47519D01*
X23536Y-46602D02*
X23921Y-46602D01*
X23228Y-46294D02*
X23536Y-46602D01*
X23228Y-46004D02*
X23228Y-46294D01*
X23228Y-46004D02*
X23228Y-46004D01*
X25590Y-41279D02*
X25590Y-41279D01*
X25915Y-41279D02*
X25590Y-41279D01*
X27571Y-42935D02*
X25915Y-41279D01*
X27571Y-46347D02*
X27571Y-42935D01*
X26921Y-46998D02*
X27571Y-46347D01*
X26921Y-47519D02*
X26921Y-46998D01*
X25590Y-41279D02*
X25590Y-41279D01*
X24409Y-41607D02*
X24409Y-41279D01*
X25366Y-42564D02*
X24409Y-41607D01*
X26159Y-42564D02*
X25366Y-42564D01*
X27391Y-43796D02*
X26159Y-42564D01*
X27391Y-45963D02*
X27391Y-43796D01*
X26752Y-46602D02*
X27391Y-45963D01*
X26317Y-46602D02*
X26752Y-46602D01*
X25921Y-46998D02*
X26317Y-46602D01*
X25921Y-47519D02*
X25921Y-46998D01*
X24409Y-41279D02*
X24409Y-41279D01*
X30871Y-46299D02*
X31200Y-46299D01*
X30576Y-46004D02*
X30871Y-46299D01*
X30511Y-46004D02*
X30576Y-46004D01*
X26905Y-44822D02*
X27086Y-44822D01*
X26771Y-44689D02*
X26905Y-44822D01*
X26771Y-44429D02*
X26771Y-44689D01*
X28798Y-46004D02*
X28464Y-46338D01*
X29330Y-46004D02*
X28798Y-46004D01*
X33199Y-40610D02*
X33484Y-40610D01*
X33199Y-40609D02*
X33199Y-40610D01*
X32874Y-40609D02*
X33199Y-40609D01*
X31141Y-40609D02*
X29330Y-40609D01*
X31161Y-40629D02*
X31141Y-40609D01*
X29870Y-47468D02*
X29921Y-47519D01*
X29870Y-45990D02*
X29870Y-47468D01*
X30116Y-45744D02*
X29870Y-45990D01*
X30116Y-45156D02*
X30116Y-45744D01*
X30553Y-44719D02*
X30116Y-45156D01*
X31692Y-44719D02*
X30553Y-44719D01*
X31692Y-44429D02*
X31692Y-44719D01*
X31692Y-44429D02*
X31692Y-44429D01*
X27921Y-46129D02*
X27921Y-47519D01*
X29330Y-44719D02*
X27921Y-46129D01*
X29330Y-44429D02*
X29330Y-44719D01*
X29330Y-44429D02*
X29330Y-44429D01*
X34748Y-42932D02*
X34838Y-42932D01*
X35236Y-40900D02*
X35236Y-40609D01*
X35453Y-40900D02*
X35236Y-40900D01*
X35591Y-41037D02*
X35453Y-40900D01*
X35591Y-41828D02*
X35591Y-41037D01*
X34838Y-42580D02*
X35591Y-41828D01*
X34838Y-42932D02*
X34838Y-42580D01*
X35236Y-40609D02*
X35236Y-40609D01*
X34862Y-42955D02*
X34838Y-42932D01*
X34862Y-44670D02*
X34862Y-42955D01*
X35236Y-45044D02*
X34862Y-44670D01*
X35236Y-45334D02*
X35236Y-45044D01*
X35236Y-45334D02*
X35236Y-45334D01*
X25000Y-40609D02*
X24409Y-40609D01*
X25590Y-40609D02*
X25590Y-40609D01*
X25000Y-40609D02*
X25000Y-40609D01*
X25000Y-40609D02*
X25000Y-40609D01*
X25000Y-40609D02*
X25590Y-40609D01*
X25590Y-40609D02*
X25590Y-40609D01*
X25590Y-40609D02*
X25590Y-40609D01*
X24409Y-40609D02*
X24409Y-40609D01*
X25590Y-40609D02*
X26771Y-40609D01*
X26771Y-40609D02*
X26771Y-40609D01*
X25108Y-41365D02*
X25108Y-40989D01*
X23228Y-40989D02*
X23228Y-41279D01*
X25108Y-40989D02*
X23228Y-40989D01*
X23228Y-41279D02*
X23228Y-41279D01*
X26771Y-41279D02*
X26771Y-41279D01*
X26771Y-40989D02*
X25108Y-40989D01*
X26771Y-41279D02*
X26771Y-40989D01*
X30345Y-46602D02*
X30183Y-46440D01*
X30921Y-46602D02*
X30345Y-46602D01*
X30921Y-47519D02*
X30921Y-46602D01*
X33240Y-46602D02*
X33554Y-46287D01*
X32921Y-46602D02*
X33240Y-46602D01*
X32921Y-47519D02*
X32921Y-46602D01*
X23228Y-40609D02*
X23228Y-40609D01*
X23228Y-40609D02*
X23228Y-40609D01*
X23228Y-40609D02*
X23228Y-40609D01*
X23593Y-40620D02*
X23710Y-40620D01*
X23583Y-40609D02*
X23593Y-40620D01*
X23228Y-40609D02*
X23583Y-40609D01*
X23228Y-40609D02*
X23228Y-40609D01*
X23228Y-40609D02*
X22047Y-40609D01*
X22047Y-40609D02*
X22047Y-40609D01*
X32285Y-43454D02*
X32283Y-43453D01*
X32518Y-43454D02*
X32285Y-43454D01*
X32874Y-44139D02*
X32874Y-44429D01*
X32675Y-44139D02*
X32874Y-44139D01*
X32518Y-43983D02*
X32675Y-44139D01*
X32518Y-43454D02*
X32518Y-43983D01*
X32874Y-44429D02*
X32874Y-45334D01*
X32874Y-45334D02*
X32874Y-45334D01*
X32563Y-43454D02*
X32518Y-43454D01*
X32874Y-43144D02*
X32563Y-43454D01*
X32874Y-42854D02*
X32874Y-43144D01*
X32874Y-42854D02*
X32874Y-42854D01*
X30511Y-43759D02*
X30511Y-43759D01*
X29330Y-43759D02*
X30511Y-43759D01*
X29330Y-43759D02*
X29330Y-43759D01*
X37751Y-45137D02*
X37220Y-45669D01*
X37751Y-41422D02*
X37751Y-45137D01*
X36435Y-40106D02*
X37751Y-41422D01*
X28983Y-40106D02*
X36435Y-40106D01*
X28773Y-40315D02*
X28983Y-40106D01*
X28773Y-41591D02*
X28773Y-40315D01*
X29076Y-41894D02*
X28773Y-41591D01*
X29330Y-41894D02*
X29076Y-41894D01*
X29330Y-42184D02*
X29330Y-41894D01*
X31692Y-45714D02*
X31692Y-46004D01*
X31910Y-45714D02*
X31692Y-45714D01*
X32048Y-45576D02*
X31910Y-45714D01*
X32048Y-44191D02*
X32048Y-45576D01*
X31920Y-44063D02*
X32048Y-44191D01*
X30929Y-44063D02*
X31920Y-44063D01*
X30866Y-44001D02*
X30929Y-44063D01*
X31692Y-46004D02*
X31692Y-46004D01*
X30511Y-44139D02*
X30511Y-44429D01*
X30729Y-44139D02*
X30511Y-44139D01*
X30866Y-44001D02*
X30729Y-44139D01*
X30511Y-44429D02*
X30511Y-44429D01*
X30866Y-43529D02*
X30866Y-44001D01*
X30481Y-43144D02*
X30866Y-43529D01*
X29330Y-43144D02*
X30481Y-43144D01*
X29330Y-42854D02*
X29330Y-43144D01*
X29330Y-42854D02*
X29330Y-42854D01*
X31179Y-45257D02*
X31179Y-45224D01*
X31102Y-45334D02*
X31179Y-45257D01*
X31692Y-45334D02*
X31692Y-45334D01*
X31692Y-45334D02*
X31102Y-45334D01*
X31692Y-45334D02*
X31692Y-45334D01*
X31102Y-45334D02*
X30511Y-45334D01*
X30511Y-45334D02*
X30511Y-45334D01*
X29330Y-45334D02*
X29330Y-45334D01*
X29685Y-45283D02*
X29811Y-45157D01*
X29685Y-45334D02*
X29685Y-45283D01*
X29330Y-45334D02*
X29685Y-45334D01*
X29330Y-45334D02*
X29330Y-45334D01*
X25590Y-43759D02*
X26771Y-43759D01*
X25590Y-42854D02*
X25590Y-43351D01*
X25590Y-42854D02*
X25590Y-42854D01*
X25590Y-43351D02*
X25590Y-43555D01*
X25590Y-43555D02*
X25590Y-43759D01*
X25590Y-43759D02*
X25590Y-43759D01*
X25590Y-43351D02*
X25590Y-43555D01*
X25590Y-43555D02*
X25590Y-43759D01*
X26771Y-43759D02*
X26771Y-43759D01*
X25590Y-42184D02*
X25590Y-42184D01*
X26053Y-42076D02*
X26073Y-42076D01*
X25945Y-42184D02*
X26053Y-42076D01*
X25590Y-42184D02*
X25945Y-42184D01*
X25590Y-42184D02*
X25590Y-42184D01*
X23924Y-45252D02*
X23924Y-45122D01*
X22047Y-46004D02*
X22047Y-46004D01*
X23228Y-45624D02*
X23228Y-45334D01*
X22137Y-45624D02*
X23228Y-45624D01*
X22047Y-45714D02*
X22137Y-45624D01*
X22047Y-46004D02*
X22047Y-45714D01*
X23665Y-45252D02*
X23924Y-45252D01*
X23583Y-45334D02*
X23665Y-45252D01*
X23228Y-45334D02*
X23583Y-45334D01*
X23228Y-45334D02*
X23228Y-45334D01*
X24409Y-45334D02*
X24409Y-45334D01*
X23972Y-45252D02*
X23924Y-45252D01*
X24054Y-45334D02*
X23972Y-45252D01*
X24409Y-45334D02*
X24054Y-45334D01*
X24409Y-45334D02*
X24409Y-45334D01*
X22047Y-41279D02*
X22047Y-41279D01*
X22047Y-41732D02*
X22047Y-42184D01*
X22047Y-41279D02*
X22047Y-41732D01*
X22503Y-42083D02*
X22540Y-42083D01*
X22402Y-42184D02*
X22503Y-42083D01*
X22047Y-42184D02*
X22402Y-42184D01*
X22047Y-41732D02*
X22047Y-42184D01*
X24615Y-44724D02*
X22502Y-44724D01*
X25200Y-44139D02*
X24615Y-44724D01*
X25877Y-44139D02*
X25200Y-44139D01*
X26771Y-45033D02*
X25877Y-44139D01*
X26771Y-45334D02*
X26771Y-45033D01*
X26771Y-45334D02*
X26771Y-45334D01*
X22047Y-45044D02*
X22047Y-45334D01*
X22367Y-44724D02*
X22047Y-45044D01*
X22502Y-44724D02*
X22367Y-44724D01*
X22047Y-45334D02*
X22047Y-45334D01*
X31692Y-43759D02*
X31692Y-43759D01*
X31692Y-43759D02*
X31692Y-42854D01*
X31692Y-42854D02*
X31692Y-42854D01*
X34055Y-41732D02*
X34055Y-41279D01*
X34055Y-41732D02*
X34055Y-41279D01*
X34055Y-42184D02*
X34055Y-41732D01*
X34055Y-42184D02*
X34055Y-42184D01*
X32279Y-41279D02*
X32874Y-41279D01*
X32193Y-41365D02*
X32279Y-41279D01*
X32874Y-41279D02*
X32874Y-41279D01*
X32874Y-41279D02*
X34055Y-41279D01*
X34055Y-41279D02*
X34055Y-41279D01*
X34055Y-41279D02*
X34055Y-41279D01*
X30299Y-42564D02*
X30511Y-42564D01*
X29342Y-41607D02*
X30299Y-42564D01*
X29075Y-41607D02*
X29342Y-41607D01*
X28957Y-41489D02*
X29075Y-41607D01*
X28957Y-40406D02*
X28957Y-41489D01*
X29067Y-40296D02*
X28957Y-40406D01*
X36366Y-40296D02*
X29067Y-40296D01*
X37220Y-41151D02*
X36366Y-40296D01*
X37220Y-42125D02*
X37220Y-41151D01*
X30511Y-42854D02*
X30511Y-42564D01*
X31692Y-41279D02*
X31692Y-41882D01*
X31692Y-41279D02*
X31692Y-41279D01*
X31692Y-41882D02*
X31692Y-42033D01*
X31692Y-42033D02*
X31692Y-42184D01*
X31692Y-42184D02*
X31692Y-42184D01*
X31692Y-41882D02*
X31692Y-42033D01*
X31692Y-42033D02*
X31692Y-42184D01*
X31692Y-42184D02*
X30511Y-42184D01*
X30511Y-42184D02*
X30511Y-42184D01*
X25590Y-46004D02*
X25590Y-46004D01*
X25590Y-46004D02*
X25590Y-46004D01*
X25590Y-45714D02*
X25590Y-46004D01*
X25372Y-45714D02*
X25590Y-45714D01*
X24924Y-45265D02*
X25372Y-45714D01*
X24924Y-44972D02*
X24924Y-45265D01*
X25590Y-46004D02*
X25590Y-46004D01*
X25590Y-46004D02*
X26771Y-46004D01*
X26771Y-46004D02*
X26771Y-46004D01*
X25590Y-44881D02*
X25590Y-45334D01*
X25590Y-45334D02*
X25590Y-45334D01*
X25590Y-44429D02*
X25590Y-44881D01*
X25590Y-44429D02*
X25590Y-44429D01*
X34055Y-44429D02*
X34055Y-44881D01*
X34055Y-44429D02*
X34055Y-44429D01*
X34055Y-44881D02*
X34055Y-45334D01*
X34055Y-45334D02*
X34055Y-45334D01*
X34055Y-42854D02*
X34055Y-42854D01*
X34055Y-43453D02*
X34055Y-43759D01*
X34055Y-42854D02*
X34055Y-43453D01*
X34538Y-43759D02*
X34541Y-43761D01*
X34055Y-43759D02*
X34538Y-43759D01*
X34055Y-43453D02*
X34055Y-43759D01*
X32874Y-42474D02*
X32874Y-42184D01*
X34342Y-42474D02*
X32874Y-42474D01*
X34749Y-42067D02*
X34342Y-42474D01*
X34749Y-41365D02*
X34749Y-42067D01*
X32874Y-42184D02*
X32874Y-42184D01*
X34881Y-41279D02*
X35236Y-41279D01*
X34795Y-41365D02*
X34881Y-41279D01*
X34749Y-41365D02*
X34795Y-41365D01*
X35236Y-41279D02*
X35236Y-41279D01*
X35236Y-41279D02*
X35236Y-41279D01*
X29330Y-41279D02*
X29330Y-41279D01*
X29946Y-41279D02*
X30005Y-41220D01*
X29330Y-41279D02*
X29946Y-41279D01*
X29330Y-41279D02*
X29330Y-41279D01*
X31081Y-40989D02*
X31081Y-41121D01*
X31692Y-40900D02*
X31692Y-40609D01*
X31603Y-40989D02*
X31692Y-40900D01*
X31081Y-40989D02*
X31603Y-40989D01*
X31692Y-40609D02*
X31692Y-40609D01*
X30511Y-41279D02*
X30511Y-41279D01*
X30511Y-40989D02*
X31081Y-40989D01*
X30511Y-41279D02*
X30511Y-40989D01*
X22047Y-43307D02*
X22047Y-42854D01*
X22047Y-43307D02*
X22047Y-42854D01*
X22047Y-43759D02*
X22047Y-43307D01*
X22047Y-43759D02*
X22047Y-43759D01*
X23228Y-42854D02*
X23228Y-42854D01*
X22047Y-42854D02*
X22047Y-42854D01*
X22047Y-42854D02*
X23228Y-42854D01*
X22047Y-42854D02*
X22047Y-42854D01*
X22047Y-44139D02*
X22047Y-44429D01*
X23258Y-44139D02*
X22047Y-44139D01*
X23743Y-43654D02*
X23258Y-44139D01*
X22047Y-44429D02*
X22047Y-44429D01*
X33921Y-46428D02*
X33921Y-47519D01*
X34055Y-46294D02*
X33921Y-46428D01*
X34055Y-46004D02*
X34055Y-46294D01*
X34055Y-46004D02*
X34055Y-46004D01*
X34921Y-46602D02*
X34921Y-47519D01*
X35229Y-46294D02*
X34921Y-46602D01*
X35236Y-46294D02*
X35229Y-46294D01*
X35236Y-46004D02*
X35236Y-46294D01*
X35236Y-46004D02*
X35236Y-46004D01*
G54D10*
G36*
X26829Y-44479D02*
X26821Y-44479D01*
X26821Y-44487D01*
X26721Y-44487D01*
X26721Y-44479D01*
X26713Y-44479D01*
X26713Y-44379D01*
X26721Y-44379D01*
X26721Y-44371D01*
X26821Y-44371D01*
X26821Y-44379D01*
X26829Y-44379D01*
X26829Y-44479D01*
X26829Y-44479D01*
G37*
G54D16*
X26829Y-44479D02*
X26821Y-44479D01*
X26821Y-44487D01*
X26721Y-44487D01*
X26721Y-44479D01*
X26713Y-44479D01*
X26713Y-44379D01*
X26721Y-44379D01*
X26721Y-44371D01*
X26821Y-44371D01*
X26821Y-44379D01*
X26829Y-44379D01*
X26829Y-44479D01*
G54D10*
G36*
X27191Y-45880D02*
X27146Y-45925D01*
X27146Y-45814D01*
X27123Y-45759D01*
X27081Y-45717D01*
X27026Y-45694D01*
X26966Y-45694D01*
X26516Y-45694D01*
X26461Y-45717D01*
X26419Y-45759D01*
X26400Y-45804D01*
X25961Y-45804D01*
X25942Y-45759D01*
X25900Y-45717D01*
X25845Y-45694D01*
X25786Y-45694D01*
X25776Y-45644D01*
X25845Y-45644D01*
X25900Y-45621D01*
X25942Y-45579D01*
X25965Y-45524D01*
X25965Y-45464D01*
X25965Y-45144D01*
X25942Y-45089D01*
X25900Y-45047D01*
X25877Y-45037D01*
X25915Y-44946D01*
X25915Y-44817D01*
X25877Y-44726D01*
X25900Y-44716D01*
X25942Y-44674D01*
X25965Y-44619D01*
X25965Y-44559D01*
X25965Y-44510D01*
X26490Y-45035D01*
X26461Y-45047D01*
X26419Y-45089D01*
X26396Y-45144D01*
X26396Y-45204D01*
X26396Y-45524D01*
X26419Y-45579D01*
X26461Y-45621D01*
X26516Y-45644D01*
X26576Y-45644D01*
X27026Y-45644D01*
X27081Y-45621D01*
X27123Y-45579D01*
X27146Y-45524D01*
X27146Y-45464D01*
X27146Y-45144D01*
X27123Y-45089D01*
X27081Y-45047D01*
X27026Y-45024D01*
X26969Y-45024D01*
X26964Y-44998D01*
X26956Y-44957D01*
X26956Y-44957D01*
X26956Y-44957D01*
X26934Y-44924D01*
X26913Y-44892D01*
X26913Y-44892D01*
X26913Y-44892D01*
X26821Y-44801D01*
X26821Y-44776D01*
X26884Y-44839D01*
X26946Y-44839D01*
X27046Y-44839D01*
X27138Y-44801D01*
X27191Y-44748D01*
X27191Y-45880D01*
X27191Y-45880D01*
G37*
G54D16*
X27191Y-45880D02*
X27146Y-45925D01*
X27146Y-45814D01*
X27123Y-45759D01*
X27081Y-45717D01*
X27026Y-45694D01*
X26966Y-45694D01*
X26516Y-45694D01*
X26461Y-45717D01*
X26419Y-45759D01*
X26400Y-45804D01*
X25961Y-45804D01*
X25942Y-45759D01*
X25900Y-45717D01*
X25845Y-45694D01*
X25786Y-45694D01*
X25776Y-45644D01*
X25845Y-45644D01*
X25900Y-45621D01*
X25942Y-45579D01*
X25965Y-45524D01*
X25965Y-45464D01*
X25965Y-45144D01*
X25942Y-45089D01*
X25900Y-45047D01*
X25877Y-45037D01*
X25915Y-44946D01*
X25915Y-44817D01*
X25877Y-44726D01*
X25900Y-44716D01*
X25942Y-44674D01*
X25965Y-44619D01*
X25965Y-44559D01*
X25965Y-44510D01*
X26490Y-45035D01*
X26461Y-45047D01*
X26419Y-45089D01*
X26396Y-45144D01*
X26396Y-45204D01*
X26396Y-45524D01*
X26419Y-45579D01*
X26461Y-45621D01*
X26516Y-45644D01*
X26576Y-45644D01*
X27026Y-45644D01*
X27081Y-45621D01*
X27123Y-45579D01*
X27146Y-45524D01*
X27146Y-45464D01*
X27146Y-45144D01*
X27123Y-45089D01*
X27081Y-45047D01*
X27026Y-45024D01*
X26969Y-45024D01*
X26964Y-44998D01*
X26956Y-44957D01*
X26956Y-44957D01*
X26956Y-44957D01*
X26934Y-44924D01*
X26913Y-44892D01*
X26913Y-44892D01*
X26913Y-44892D01*
X26821Y-44801D01*
X26821Y-44776D01*
X26884Y-44839D01*
X26946Y-44839D01*
X27046Y-44839D01*
X27138Y-44801D01*
X27191Y-44748D01*
X27191Y-45880D01*
G54D10*
G36*
X29670Y-46656D02*
X29627Y-46685D01*
X29537Y-46820D01*
X29505Y-46979D01*
X29505Y-48059D01*
X29537Y-48218D01*
X29561Y-48255D01*
X29387Y-48255D01*
X29437Y-48091D01*
X29437Y-47569D01*
X29437Y-47469D01*
X29437Y-46948D01*
X29378Y-46754D01*
X29280Y-46634D01*
X29280Y-46351D01*
X29280Y-46054D01*
X28918Y-46054D01*
X28855Y-46116D01*
X28855Y-46214D01*
X28893Y-46305D01*
X28964Y-46376D01*
X29055Y-46414D01*
X29155Y-46414D01*
X29218Y-46414D01*
X29280Y-46351D01*
X29280Y-46634D01*
X29250Y-46597D01*
X29072Y-46502D01*
X29050Y-46498D01*
X28971Y-46547D01*
X28971Y-47469D01*
X29437Y-47469D01*
X29437Y-47569D01*
X28971Y-47569D01*
X28971Y-47577D01*
X28871Y-47577D01*
X28871Y-47569D01*
X28871Y-47469D01*
X28871Y-46547D01*
X28791Y-46498D01*
X28770Y-46502D01*
X28591Y-46597D01*
X28463Y-46754D01*
X28405Y-46948D01*
X28405Y-47469D01*
X28871Y-47469D01*
X28871Y-47569D01*
X28405Y-47569D01*
X28405Y-48091D01*
X28455Y-48255D01*
X28280Y-48255D01*
X28305Y-48218D01*
X28337Y-48059D01*
X28337Y-46979D01*
X28305Y-46820D01*
X28215Y-46685D01*
X28121Y-46622D01*
X28121Y-46211D01*
X28955Y-45377D01*
X28955Y-45524D01*
X28978Y-45579D01*
X29011Y-45612D01*
X28964Y-45632D01*
X28893Y-45702D01*
X28855Y-45794D01*
X28855Y-45891D01*
X28918Y-45954D01*
X29280Y-45954D01*
X29280Y-45946D01*
X29380Y-45946D01*
X29380Y-45954D01*
X29388Y-45954D01*
X29388Y-46054D01*
X29380Y-46054D01*
X29380Y-46351D01*
X29443Y-46414D01*
X29505Y-46414D01*
X29605Y-46414D01*
X29670Y-46387D01*
X29670Y-46656D01*
X29670Y-46656D01*
G37*
G54D16*
X29670Y-46656D02*
X29627Y-46685D01*
X29537Y-46820D01*
X29505Y-46979D01*
X29505Y-48059D01*
X29537Y-48218D01*
X29561Y-48255D01*
X29387Y-48255D01*
X29437Y-48091D01*
X29437Y-47569D01*
X29437Y-47469D01*
X29437Y-46948D01*
X29378Y-46754D01*
X29280Y-46634D01*
X29280Y-46351D01*
X29280Y-46054D01*
X28918Y-46054D01*
X28855Y-46116D01*
X28855Y-46214D01*
X28893Y-46305D01*
X28964Y-46376D01*
X29055Y-46414D01*
X29155Y-46414D01*
X29218Y-46414D01*
X29280Y-46351D01*
X29280Y-46634D01*
X29250Y-46597D01*
X29072Y-46502D01*
X29050Y-46498D01*
X28971Y-46547D01*
X28971Y-47469D01*
X29437Y-47469D01*
X29437Y-47569D01*
X28971Y-47569D01*
X28971Y-47577D01*
X28871Y-47577D01*
X28871Y-47569D01*
X28871Y-47469D01*
X28871Y-46547D01*
X28791Y-46498D01*
X28770Y-46502D01*
X28591Y-46597D01*
X28463Y-46754D01*
X28405Y-46948D01*
X28405Y-47469D01*
X28871Y-47469D01*
X28871Y-47569D01*
X28405Y-47569D01*
X28405Y-48091D01*
X28455Y-48255D01*
X28280Y-48255D01*
X28305Y-48218D01*
X28337Y-48059D01*
X28337Y-46979D01*
X28305Y-46820D01*
X28215Y-46685D01*
X28121Y-46622D01*
X28121Y-46211D01*
X28955Y-45377D01*
X28955Y-45524D01*
X28978Y-45579D01*
X29011Y-45612D01*
X28964Y-45632D01*
X28893Y-45702D01*
X28855Y-45794D01*
X28855Y-45891D01*
X28918Y-45954D01*
X29280Y-45954D01*
X29280Y-45946D01*
X29380Y-45946D01*
X29380Y-45954D01*
X29388Y-45954D01*
X29388Y-46054D01*
X29380Y-46054D01*
X29380Y-46351D01*
X29443Y-46414D01*
X29505Y-46414D01*
X29605Y-46414D01*
X29670Y-46387D01*
X29670Y-46656D01*
G54D10*
G36*
X30503Y-43449D02*
X30256Y-43449D01*
X30201Y-43472D01*
X30159Y-43514D01*
X30141Y-43559D01*
X29701Y-43559D01*
X29682Y-43514D01*
X29640Y-43472D01*
X29585Y-43449D01*
X29525Y-43449D01*
X29075Y-43449D01*
X29020Y-43472D01*
X28978Y-43514D01*
X28955Y-43569D01*
X28955Y-43629D01*
X28955Y-43949D01*
X28978Y-44004D01*
X29020Y-44046D01*
X29075Y-44069D01*
X29135Y-44069D01*
X29585Y-44069D01*
X29640Y-44046D01*
X29682Y-44004D01*
X29701Y-43959D01*
X30141Y-43959D01*
X30159Y-44004D01*
X30201Y-44046D01*
X30256Y-44069D01*
X30316Y-44069D01*
X30325Y-44069D01*
X30315Y-44119D01*
X30256Y-44119D01*
X30201Y-44142D01*
X30159Y-44184D01*
X30136Y-44239D01*
X30136Y-44299D01*
X30136Y-44619D01*
X30159Y-44674D01*
X30201Y-44716D01*
X30252Y-44737D01*
X30051Y-44938D01*
X29995Y-44882D01*
X29876Y-44832D01*
X29747Y-44832D01*
X29627Y-44882D01*
X29536Y-44973D01*
X29515Y-45024D01*
X29308Y-45024D01*
X29472Y-44861D01*
X29472Y-44861D01*
X29515Y-44796D01*
X29526Y-44739D01*
X29585Y-44739D01*
X29640Y-44716D01*
X29682Y-44674D01*
X29705Y-44619D01*
X29705Y-44559D01*
X29705Y-44239D01*
X29682Y-44184D01*
X29640Y-44142D01*
X29585Y-44119D01*
X29525Y-44119D01*
X29075Y-44119D01*
X29020Y-44142D01*
X28978Y-44184D01*
X28955Y-44239D01*
X28955Y-44299D01*
X28955Y-44619D01*
X28978Y-44674D01*
X29020Y-44716D01*
X29042Y-44725D01*
X27779Y-45987D01*
X27771Y-46000D01*
X27771Y-42935D01*
X27771Y-42935D01*
X27771Y-42935D01*
X27763Y-42896D01*
X27756Y-42859D01*
X27756Y-42859D01*
X27756Y-42859D01*
X27733Y-42824D01*
X27713Y-42794D01*
X27713Y-42794D01*
X27713Y-42794D01*
X26502Y-41583D01*
X26516Y-41589D01*
X26576Y-41589D01*
X27026Y-41589D01*
X27081Y-41567D01*
X27123Y-41524D01*
X27146Y-41469D01*
X27146Y-41410D01*
X27146Y-41090D01*
X27123Y-41034D01*
X27081Y-40992D01*
X27026Y-40969D01*
X26967Y-40969D01*
X26957Y-40919D01*
X27026Y-40919D01*
X27081Y-40897D01*
X27123Y-40854D01*
X27146Y-40799D01*
X27146Y-40740D01*
X27146Y-40420D01*
X27123Y-40364D01*
X27081Y-40322D01*
X27026Y-40299D01*
X26966Y-40299D01*
X26516Y-40299D01*
X26461Y-40322D01*
X26419Y-40364D01*
X26400Y-40409D01*
X25961Y-40409D01*
X25942Y-40364D01*
X25900Y-40322D01*
X25845Y-40299D01*
X25785Y-40299D01*
X25335Y-40299D01*
X25280Y-40322D01*
X25238Y-40364D01*
X25231Y-40381D01*
X25184Y-40334D01*
X25064Y-40284D01*
X24935Y-40284D01*
X24816Y-40334D01*
X24768Y-40381D01*
X24761Y-40364D01*
X24719Y-40322D01*
X24664Y-40299D01*
X24604Y-40299D01*
X24154Y-40299D01*
X24099Y-40322D01*
X24057Y-40364D01*
X24034Y-40420D01*
X24034Y-40479D01*
X24034Y-40554D01*
X23985Y-40436D01*
X23894Y-40344D01*
X23775Y-40295D01*
X23645Y-40295D01*
X23550Y-40334D01*
X23538Y-40322D01*
X23483Y-40299D01*
X23423Y-40299D01*
X22973Y-40299D01*
X22918Y-40322D01*
X22876Y-40364D01*
X22857Y-40409D01*
X22418Y-40409D01*
X22399Y-40364D01*
X22357Y-40322D01*
X22302Y-40299D01*
X22242Y-40299D01*
X21792Y-40299D01*
X21737Y-40322D01*
X21695Y-40364D01*
X21672Y-40420D01*
X21672Y-40479D01*
X21672Y-40799D01*
X21695Y-40854D01*
X21737Y-40897D01*
X21792Y-40919D01*
X21852Y-40919D01*
X22302Y-40919D01*
X22357Y-40897D01*
X22399Y-40854D01*
X22418Y-40809D01*
X22857Y-40809D01*
X22876Y-40854D01*
X22918Y-40897D01*
X22973Y-40919D01*
X23033Y-40919D01*
X23042Y-40919D01*
X23032Y-40969D01*
X22973Y-40969D01*
X22918Y-40992D01*
X22876Y-41034D01*
X22853Y-41090D01*
X22853Y-41149D01*
X22853Y-41469D01*
X22876Y-41524D01*
X22918Y-41567D01*
X22973Y-41589D01*
X23033Y-41589D01*
X23483Y-41589D01*
X23538Y-41567D01*
X23580Y-41524D01*
X23603Y-41469D01*
X23603Y-41410D01*
X23603Y-41189D01*
X24034Y-41189D01*
X24034Y-41469D01*
X24057Y-41524D01*
X24099Y-41567D01*
X24154Y-41589D01*
X24209Y-41589D01*
X24209Y-41607D01*
X24209Y-41607D01*
X24209Y-41607D01*
X24217Y-41645D01*
X24224Y-41684D01*
X24224Y-41684D01*
X24224Y-41684D01*
X24246Y-41717D01*
X24268Y-41749D01*
X24268Y-41749D01*
X24268Y-41749D01*
X25215Y-42696D01*
X25215Y-42724D01*
X25215Y-43044D01*
X25238Y-43099D01*
X25280Y-43141D01*
X25335Y-43164D01*
X25390Y-43164D01*
X25390Y-43351D01*
X25390Y-43449D01*
X25335Y-43449D01*
X25280Y-43472D01*
X25238Y-43514D01*
X25215Y-43569D01*
X25215Y-43629D01*
X25215Y-43939D01*
X25200Y-43939D01*
X25123Y-43954D01*
X25059Y-43997D01*
X24532Y-44524D01*
X22761Y-44524D01*
X22686Y-44448D01*
X22567Y-44399D01*
X22438Y-44398D01*
X22422Y-44405D01*
X22422Y-44339D01*
X23258Y-44339D01*
X23258Y-44339D01*
X23297Y-44331D01*
X23335Y-44324D01*
X23335Y-44324D01*
X23335Y-44324D01*
X23367Y-44302D01*
X23399Y-44280D01*
X23399Y-44280D01*
X23701Y-43979D01*
X23808Y-43979D01*
X23927Y-43930D01*
X24019Y-43838D01*
X24068Y-43719D01*
X24068Y-43589D01*
X24019Y-43470D01*
X23928Y-43378D01*
X23808Y-43329D01*
X23679Y-43329D01*
X23559Y-43378D01*
X23468Y-43469D01*
X23418Y-43589D01*
X23418Y-43696D01*
X23175Y-43939D01*
X22422Y-43939D01*
X22422Y-43889D01*
X22422Y-43569D01*
X22399Y-43514D01*
X22357Y-43472D01*
X22302Y-43449D01*
X22247Y-43449D01*
X22247Y-43307D01*
X22247Y-43164D01*
X22302Y-43164D01*
X22357Y-43141D01*
X22399Y-43099D01*
X22418Y-43054D01*
X22857Y-43054D01*
X22876Y-43099D01*
X22918Y-43141D01*
X22973Y-43164D01*
X23033Y-43164D01*
X23483Y-43164D01*
X23538Y-43141D01*
X23580Y-43099D01*
X23603Y-43044D01*
X23603Y-42984D01*
X23603Y-42664D01*
X23580Y-42609D01*
X23547Y-42576D01*
X23594Y-42556D01*
X23665Y-42486D01*
X23703Y-42394D01*
X23703Y-42297D01*
X23703Y-42072D01*
X23703Y-41974D01*
X23665Y-41883D01*
X23594Y-41812D01*
X23503Y-41774D01*
X23403Y-41774D01*
X23340Y-41774D01*
X23278Y-41837D01*
X23278Y-42134D01*
X23640Y-42134D01*
X23703Y-42072D01*
X23703Y-42297D01*
X23640Y-42234D01*
X23278Y-42234D01*
X23278Y-42242D01*
X23178Y-42242D01*
X23178Y-42234D01*
X23170Y-42234D01*
X23170Y-42134D01*
X23178Y-42134D01*
X23178Y-41837D01*
X23115Y-41774D01*
X23053Y-41774D01*
X22953Y-41774D01*
X22861Y-41812D01*
X22795Y-41878D01*
X22725Y-41808D01*
X22605Y-41758D01*
X22476Y-41758D01*
X22356Y-41807D01*
X22289Y-41874D01*
X22247Y-41874D01*
X22247Y-41732D01*
X22247Y-41589D01*
X22302Y-41589D01*
X22357Y-41567D01*
X22399Y-41524D01*
X22422Y-41469D01*
X22422Y-41410D01*
X22422Y-41090D01*
X22399Y-41034D01*
X22357Y-40992D01*
X22302Y-40969D01*
X22242Y-40969D01*
X21792Y-40969D01*
X21737Y-40992D01*
X21695Y-41034D01*
X21672Y-41090D01*
X21672Y-41149D01*
X21672Y-41469D01*
X21695Y-41524D01*
X21737Y-41567D01*
X21792Y-41589D01*
X21847Y-41589D01*
X21847Y-41732D01*
X21847Y-41874D01*
X21792Y-41874D01*
X21737Y-41897D01*
X21695Y-41939D01*
X21672Y-41994D01*
X21672Y-42054D01*
X21672Y-42374D01*
X21695Y-42429D01*
X21737Y-42471D01*
X21792Y-42494D01*
X21852Y-42494D01*
X22302Y-42494D01*
X22357Y-42471D01*
X22399Y-42429D01*
X22418Y-42384D01*
X22475Y-42408D01*
X22605Y-42408D01*
X22724Y-42359D01*
X22753Y-42330D01*
X22753Y-42394D01*
X22791Y-42486D01*
X22861Y-42556D01*
X22909Y-42576D01*
X22876Y-42609D01*
X22857Y-42654D01*
X22418Y-42654D01*
X22399Y-42609D01*
X22357Y-42567D01*
X22302Y-42544D01*
X22242Y-42544D01*
X21792Y-42544D01*
X21737Y-42567D01*
X21695Y-42609D01*
X21672Y-42664D01*
X21672Y-42724D01*
X21672Y-43044D01*
X21695Y-43099D01*
X21737Y-43141D01*
X21792Y-43164D01*
X21847Y-43164D01*
X21847Y-43307D01*
X21847Y-43449D01*
X21792Y-43449D01*
X21737Y-43472D01*
X21695Y-43514D01*
X21672Y-43569D01*
X21672Y-43629D01*
X21672Y-43949D01*
X21695Y-44004D01*
X21737Y-44046D01*
X21792Y-44069D01*
X21852Y-44069D01*
X21861Y-44069D01*
X21851Y-44119D01*
X21792Y-44119D01*
X21737Y-44142D01*
X21695Y-44184D01*
X21672Y-44239D01*
X21672Y-44299D01*
X21672Y-44619D01*
X21695Y-44674D01*
X21737Y-44716D01*
X21792Y-44739D01*
X21852Y-44739D01*
X22069Y-44739D01*
X21905Y-44902D01*
X21905Y-44902D01*
X21905Y-44902D01*
X21884Y-44934D01*
X21862Y-44967D01*
X21862Y-44967D01*
X21862Y-44967D01*
X21854Y-45005D01*
X21851Y-45024D01*
X21792Y-45024D01*
X21737Y-45047D01*
X21695Y-45089D01*
X21672Y-45144D01*
X21672Y-45204D01*
X21672Y-45524D01*
X21695Y-45579D01*
X21737Y-45621D01*
X21792Y-45644D01*
X21852Y-45644D01*
X21861Y-45644D01*
X21851Y-45694D01*
X21792Y-45694D01*
X21737Y-45717D01*
X21695Y-45759D01*
X21672Y-45814D01*
X21672Y-45874D01*
X21672Y-46194D01*
X21695Y-46249D01*
X21737Y-46291D01*
X21792Y-46314D01*
X21852Y-46314D01*
X22302Y-46314D01*
X22357Y-46291D01*
X22399Y-46249D01*
X22422Y-46194D01*
X22422Y-46134D01*
X22422Y-45824D01*
X22853Y-45824D01*
X22853Y-45874D01*
X22853Y-46194D01*
X22876Y-46249D01*
X22918Y-46291D01*
X22973Y-46314D01*
X23032Y-46314D01*
X23035Y-46332D01*
X23043Y-46370D01*
X23043Y-46371D01*
X23043Y-46371D01*
X23065Y-46403D01*
X23086Y-46435D01*
X23086Y-46435D01*
X23394Y-46743D01*
X23394Y-46743D01*
X23394Y-46743D01*
X23426Y-46765D01*
X23459Y-46787D01*
X23459Y-46787D01*
X23459Y-46787D01*
X23497Y-46794D01*
X23536Y-46802D01*
X23536Y-46802D01*
X23536Y-46802D01*
X23549Y-46802D01*
X23537Y-46820D01*
X23505Y-46979D01*
X23505Y-48059D01*
X23537Y-48218D01*
X23561Y-48255D01*
X21429Y-48255D01*
X21429Y-39933D01*
X28888Y-39933D01*
X28841Y-39964D01*
X28632Y-40174D01*
X28588Y-40239D01*
X28573Y-40315D01*
X28573Y-41591D01*
X28588Y-41667D01*
X28632Y-41732D01*
X28935Y-42035D01*
X28955Y-42049D01*
X28955Y-42054D01*
X28955Y-42374D01*
X28978Y-42429D01*
X29020Y-42471D01*
X29075Y-42494D01*
X29135Y-42494D01*
X29585Y-42494D01*
X29640Y-42471D01*
X29682Y-42429D01*
X29705Y-42374D01*
X29705Y-42314D01*
X29705Y-42253D01*
X30136Y-42684D01*
X30136Y-42724D01*
X30136Y-42944D01*
X29705Y-42944D01*
X29705Y-42664D01*
X29682Y-42609D01*
X29640Y-42567D01*
X29585Y-42544D01*
X29525Y-42544D01*
X29075Y-42544D01*
X29020Y-42567D01*
X28978Y-42609D01*
X28955Y-42664D01*
X28955Y-42724D01*
X28955Y-43044D01*
X28978Y-43099D01*
X29020Y-43141D01*
X29075Y-43164D01*
X29134Y-43164D01*
X29145Y-43221D01*
X29189Y-43286D01*
X29254Y-43329D01*
X29330Y-43344D01*
X30399Y-43344D01*
X30503Y-43449D01*
X30503Y-43449D01*
G37*
G54D16*
X30503Y-43449D02*
X30256Y-43449D01*
X30201Y-43472D01*
X30159Y-43514D01*
X30141Y-43559D01*
X29701Y-43559D01*
X29682Y-43514D01*
X29640Y-43472D01*
X29585Y-43449D01*
X29525Y-43449D01*
X29075Y-43449D01*
X29020Y-43472D01*
X28978Y-43514D01*
X28955Y-43569D01*
X28955Y-43629D01*
X28955Y-43949D01*
X28978Y-44004D01*
X29020Y-44046D01*
X29075Y-44069D01*
X29135Y-44069D01*
X29585Y-44069D01*
X29640Y-44046D01*
X29682Y-44004D01*
X29701Y-43959D01*
X30141Y-43959D01*
X30159Y-44004D01*
X30201Y-44046D01*
X30256Y-44069D01*
X30316Y-44069D01*
X30325Y-44069D01*
X30315Y-44119D01*
X30256Y-44119D01*
X30201Y-44142D01*
X30159Y-44184D01*
X30136Y-44239D01*
X30136Y-44299D01*
X30136Y-44619D01*
X30159Y-44674D01*
X30201Y-44716D01*
X30252Y-44737D01*
X30051Y-44938D01*
X29995Y-44882D01*
X29876Y-44832D01*
X29747Y-44832D01*
X29627Y-44882D01*
X29536Y-44973D01*
X29515Y-45024D01*
X29308Y-45024D01*
X29472Y-44861D01*
X29472Y-44861D01*
X29515Y-44796D01*
X29526Y-44739D01*
X29585Y-44739D01*
X29640Y-44716D01*
X29682Y-44674D01*
X29705Y-44619D01*
X29705Y-44559D01*
X29705Y-44239D01*
X29682Y-44184D01*
X29640Y-44142D01*
X29585Y-44119D01*
X29525Y-44119D01*
X29075Y-44119D01*
X29020Y-44142D01*
X28978Y-44184D01*
X28955Y-44239D01*
X28955Y-44299D01*
X28955Y-44619D01*
X28978Y-44674D01*
X29020Y-44716D01*
X29042Y-44725D01*
X27779Y-45987D01*
X27771Y-46000D01*
X27771Y-42935D01*
X27771Y-42935D01*
X27771Y-42935D01*
X27763Y-42896D01*
X27756Y-42859D01*
X27756Y-42859D01*
X27756Y-42859D01*
X27733Y-42824D01*
X27713Y-42794D01*
X27713Y-42794D01*
X27713Y-42794D01*
X26502Y-41583D01*
X26516Y-41589D01*
X26576Y-41589D01*
X27026Y-41589D01*
X27081Y-41567D01*
X27123Y-41524D01*
X27146Y-41469D01*
X27146Y-41410D01*
X27146Y-41090D01*
X27123Y-41034D01*
X27081Y-40992D01*
X27026Y-40969D01*
X26967Y-40969D01*
X26957Y-40919D01*
X27026Y-40919D01*
X27081Y-40897D01*
X27123Y-40854D01*
X27146Y-40799D01*
X27146Y-40740D01*
X27146Y-40420D01*
X27123Y-40364D01*
X27081Y-40322D01*
X27026Y-40299D01*
X26966Y-40299D01*
X26516Y-40299D01*
X26461Y-40322D01*
X26419Y-40364D01*
X26400Y-40409D01*
X25961Y-40409D01*
X25942Y-40364D01*
X25900Y-40322D01*
X25845Y-40299D01*
X25785Y-40299D01*
X25335Y-40299D01*
X25280Y-40322D01*
X25238Y-40364D01*
X25231Y-40381D01*
X25184Y-40334D01*
X25064Y-40284D01*
X24935Y-40284D01*
X24816Y-40334D01*
X24768Y-40381D01*
X24761Y-40364D01*
X24719Y-40322D01*
X24664Y-40299D01*
X24604Y-40299D01*
X24154Y-40299D01*
X24099Y-40322D01*
X24057Y-40364D01*
X24034Y-40420D01*
X24034Y-40479D01*
X24034Y-40554D01*
X23985Y-40436D01*
X23894Y-40344D01*
X23775Y-40295D01*
X23645Y-40295D01*
X23550Y-40334D01*
X23538Y-40322D01*
X23483Y-40299D01*
X23423Y-40299D01*
X22973Y-40299D01*
X22918Y-40322D01*
X22876Y-40364D01*
X22857Y-40409D01*
X22418Y-40409D01*
X22399Y-40364D01*
X22357Y-40322D01*
X22302Y-40299D01*
X22242Y-40299D01*
X21792Y-40299D01*
X21737Y-40322D01*
X21695Y-40364D01*
X21672Y-40420D01*
X21672Y-40479D01*
X21672Y-40799D01*
X21695Y-40854D01*
X21737Y-40897D01*
X21792Y-40919D01*
X21852Y-40919D01*
X22302Y-40919D01*
X22357Y-40897D01*
X22399Y-40854D01*
X22418Y-40809D01*
X22857Y-40809D01*
X22876Y-40854D01*
X22918Y-40897D01*
X22973Y-40919D01*
X23033Y-40919D01*
X23042Y-40919D01*
X23032Y-40969D01*
X22973Y-40969D01*
X22918Y-40992D01*
X22876Y-41034D01*
X22853Y-41090D01*
X22853Y-41149D01*
X22853Y-41469D01*
X22876Y-41524D01*
X22918Y-41567D01*
X22973Y-41589D01*
X23033Y-41589D01*
X23483Y-41589D01*
X23538Y-41567D01*
X23580Y-41524D01*
X23603Y-41469D01*
X23603Y-41410D01*
X23603Y-41189D01*
X24034Y-41189D01*
X24034Y-41469D01*
X24057Y-41524D01*
X24099Y-41567D01*
X24154Y-41589D01*
X24209Y-41589D01*
X24209Y-41607D01*
X24209Y-41607D01*
X24209Y-41607D01*
X24217Y-41645D01*
X24224Y-41684D01*
X24224Y-41684D01*
X24224Y-41684D01*
X24246Y-41717D01*
X24268Y-41749D01*
X24268Y-41749D01*
X24268Y-41749D01*
X25215Y-42696D01*
X25215Y-42724D01*
X25215Y-43044D01*
X25238Y-43099D01*
X25280Y-43141D01*
X25335Y-43164D01*
X25390Y-43164D01*
X25390Y-43351D01*
X25390Y-43449D01*
X25335Y-43449D01*
X25280Y-43472D01*
X25238Y-43514D01*
X25215Y-43569D01*
X25215Y-43629D01*
X25215Y-43939D01*
X25200Y-43939D01*
X25123Y-43954D01*
X25059Y-43997D01*
X24532Y-44524D01*
X22761Y-44524D01*
X22686Y-44448D01*
X22567Y-44399D01*
X22438Y-44398D01*
X22422Y-44405D01*
X22422Y-44339D01*
X23258Y-44339D01*
X23258Y-44339D01*
X23297Y-44331D01*
X23335Y-44324D01*
X23335Y-44324D01*
X23335Y-44324D01*
X23367Y-44302D01*
X23399Y-44280D01*
X23399Y-44280D01*
X23701Y-43979D01*
X23808Y-43979D01*
X23927Y-43930D01*
X24019Y-43838D01*
X24068Y-43719D01*
X24068Y-43589D01*
X24019Y-43470D01*
X23928Y-43378D01*
X23808Y-43329D01*
X23679Y-43329D01*
X23559Y-43378D01*
X23468Y-43469D01*
X23418Y-43589D01*
X23418Y-43696D01*
X23175Y-43939D01*
X22422Y-43939D01*
X22422Y-43889D01*
X22422Y-43569D01*
X22399Y-43514D01*
X22357Y-43472D01*
X22302Y-43449D01*
X22247Y-43449D01*
X22247Y-43307D01*
X22247Y-43164D01*
X22302Y-43164D01*
X22357Y-43141D01*
X22399Y-43099D01*
X22418Y-43054D01*
X22857Y-43054D01*
X22876Y-43099D01*
X22918Y-43141D01*
X22973Y-43164D01*
X23033Y-43164D01*
X23483Y-43164D01*
X23538Y-43141D01*
X23580Y-43099D01*
X23603Y-43044D01*
X23603Y-42984D01*
X23603Y-42664D01*
X23580Y-42609D01*
X23547Y-42576D01*
X23594Y-42556D01*
X23665Y-42486D01*
X23703Y-42394D01*
X23703Y-42297D01*
X23703Y-42072D01*
X23703Y-41974D01*
X23665Y-41883D01*
X23594Y-41812D01*
X23503Y-41774D01*
X23403Y-41774D01*
X23340Y-41774D01*
X23278Y-41837D01*
X23278Y-42134D01*
X23640Y-42134D01*
X23703Y-42072D01*
X23703Y-42297D01*
X23640Y-42234D01*
X23278Y-42234D01*
X23278Y-42242D01*
X23178Y-42242D01*
X23178Y-42234D01*
X23170Y-42234D01*
X23170Y-42134D01*
X23178Y-42134D01*
X23178Y-41837D01*
X23115Y-41774D01*
X23053Y-41774D01*
X22953Y-41774D01*
X22861Y-41812D01*
X22795Y-41878D01*
X22725Y-41808D01*
X22605Y-41758D01*
X22476Y-41758D01*
X22356Y-41807D01*
X22289Y-41874D01*
X22247Y-41874D01*
X22247Y-41732D01*
X22247Y-41589D01*
X22302Y-41589D01*
X22357Y-41567D01*
X22399Y-41524D01*
X22422Y-41469D01*
X22422Y-41410D01*
X22422Y-41090D01*
X22399Y-41034D01*
X22357Y-40992D01*
X22302Y-40969D01*
X22242Y-40969D01*
X21792Y-40969D01*
X21737Y-40992D01*
X21695Y-41034D01*
X21672Y-41090D01*
X21672Y-41149D01*
X21672Y-41469D01*
X21695Y-41524D01*
X21737Y-41567D01*
X21792Y-41589D01*
X21847Y-41589D01*
X21847Y-41732D01*
X21847Y-41874D01*
X21792Y-41874D01*
X21737Y-41897D01*
X21695Y-41939D01*
X21672Y-41994D01*
X21672Y-42054D01*
X21672Y-42374D01*
X21695Y-42429D01*
X21737Y-42471D01*
X21792Y-42494D01*
X21852Y-42494D01*
X22302Y-42494D01*
X22357Y-42471D01*
X22399Y-42429D01*
X22418Y-42384D01*
X22475Y-42408D01*
X22605Y-42408D01*
X22724Y-42359D01*
X22753Y-42330D01*
X22753Y-42394D01*
X22791Y-42486D01*
X22861Y-42556D01*
X22909Y-42576D01*
X22876Y-42609D01*
X22857Y-42654D01*
X22418Y-42654D01*
X22399Y-42609D01*
X22357Y-42567D01*
X22302Y-42544D01*
X22242Y-42544D01*
X21792Y-42544D01*
X21737Y-42567D01*
X21695Y-42609D01*
X21672Y-42664D01*
X21672Y-42724D01*
X21672Y-43044D01*
X21695Y-43099D01*
X21737Y-43141D01*
X21792Y-43164D01*
X21847Y-43164D01*
X21847Y-43307D01*
X21847Y-43449D01*
X21792Y-43449D01*
X21737Y-43472D01*
X21695Y-43514D01*
X21672Y-43569D01*
X21672Y-43629D01*
X21672Y-43949D01*
X21695Y-44004D01*
X21737Y-44046D01*
X21792Y-44069D01*
X21852Y-44069D01*
X21861Y-44069D01*
X21851Y-44119D01*
X21792Y-44119D01*
X21737Y-44142D01*
X21695Y-44184D01*
X21672Y-44239D01*
X21672Y-44299D01*
X21672Y-44619D01*
X21695Y-44674D01*
X21737Y-44716D01*
X21792Y-44739D01*
X21852Y-44739D01*
X22069Y-44739D01*
X21905Y-44902D01*
X21905Y-44902D01*
X21905Y-44902D01*
X21884Y-44934D01*
X21862Y-44967D01*
X21862Y-44967D01*
X21862Y-44967D01*
X21854Y-45005D01*
X21851Y-45024D01*
X21792Y-45024D01*
X21737Y-45047D01*
X21695Y-45089D01*
X21672Y-45144D01*
X21672Y-45204D01*
X21672Y-45524D01*
X21695Y-45579D01*
X21737Y-45621D01*
X21792Y-45644D01*
X21852Y-45644D01*
X21861Y-45644D01*
X21851Y-45694D01*
X21792Y-45694D01*
X21737Y-45717D01*
X21695Y-45759D01*
X21672Y-45814D01*
X21672Y-45874D01*
X21672Y-46194D01*
X21695Y-46249D01*
X21737Y-46291D01*
X21792Y-46314D01*
X21852Y-46314D01*
X22302Y-46314D01*
X22357Y-46291D01*
X22399Y-46249D01*
X22422Y-46194D01*
X22422Y-46134D01*
X22422Y-45824D01*
X22853Y-45824D01*
X22853Y-45874D01*
X22853Y-46194D01*
X22876Y-46249D01*
X22918Y-46291D01*
X22973Y-46314D01*
X23032Y-46314D01*
X23035Y-46332D01*
X23043Y-46370D01*
X23043Y-46371D01*
X23043Y-46371D01*
X23065Y-46403D01*
X23086Y-46435D01*
X23086Y-46435D01*
X23394Y-46743D01*
X23394Y-46743D01*
X23394Y-46743D01*
X23426Y-46765D01*
X23459Y-46787D01*
X23459Y-46787D01*
X23459Y-46787D01*
X23497Y-46794D01*
X23536Y-46802D01*
X23536Y-46802D01*
X23536Y-46802D01*
X23549Y-46802D01*
X23537Y-46820D01*
X23505Y-46979D01*
X23505Y-48059D01*
X23537Y-48218D01*
X23561Y-48255D01*
X21429Y-48255D01*
X21429Y-39933D01*
X28888Y-39933D01*
X28841Y-39964D01*
X28632Y-40174D01*
X28588Y-40239D01*
X28573Y-40315D01*
X28573Y-41591D01*
X28588Y-41667D01*
X28632Y-41732D01*
X28935Y-42035D01*
X28955Y-42049D01*
X28955Y-42054D01*
X28955Y-42374D01*
X28978Y-42429D01*
X29020Y-42471D01*
X29075Y-42494D01*
X29135Y-42494D01*
X29585Y-42494D01*
X29640Y-42471D01*
X29682Y-42429D01*
X29705Y-42374D01*
X29705Y-42314D01*
X29705Y-42253D01*
X30136Y-42684D01*
X30136Y-42724D01*
X30136Y-42944D01*
X29705Y-42944D01*
X29705Y-42664D01*
X29682Y-42609D01*
X29640Y-42567D01*
X29585Y-42544D01*
X29525Y-42544D01*
X29075Y-42544D01*
X29020Y-42567D01*
X28978Y-42609D01*
X28955Y-42664D01*
X28955Y-42724D01*
X28955Y-43044D01*
X28978Y-43099D01*
X29020Y-43141D01*
X29075Y-43164D01*
X29134Y-43164D01*
X29145Y-43221D01*
X29189Y-43286D01*
X29254Y-43329D01*
X29330Y-43344D01*
X30399Y-43344D01*
X30503Y-43449D01*
G54D10*
G36*
X31317Y-40789D02*
X31081Y-40789D01*
X30986Y-40789D01*
X30986Y-40722D01*
X30924Y-40659D01*
X30561Y-40659D01*
X30561Y-40667D01*
X30461Y-40667D01*
X30461Y-40659D01*
X30099Y-40659D01*
X30036Y-40722D01*
X30036Y-40819D01*
X30068Y-40895D01*
X29941Y-40895D01*
X29821Y-40945D01*
X29730Y-41036D01*
X29712Y-41079D01*
X29701Y-41079D01*
X29682Y-41034D01*
X29649Y-41001D01*
X29697Y-40981D01*
X29767Y-40911D01*
X29805Y-40819D01*
X29805Y-40722D01*
X29743Y-40659D01*
X29380Y-40659D01*
X29380Y-40667D01*
X29280Y-40667D01*
X29280Y-40659D01*
X29272Y-40659D01*
X29272Y-40559D01*
X29280Y-40559D01*
X29280Y-40552D01*
X29380Y-40552D01*
X29380Y-40559D01*
X29743Y-40559D01*
X29805Y-40497D01*
X29805Y-40496D01*
X30036Y-40496D01*
X30036Y-40497D01*
X30099Y-40559D01*
X30461Y-40559D01*
X30461Y-40552D01*
X30561Y-40552D01*
X30561Y-40559D01*
X30924Y-40559D01*
X30986Y-40497D01*
X30986Y-40496D01*
X31317Y-40496D01*
X31317Y-40789D01*
X31317Y-40789D01*
G37*
G54D16*
X31317Y-40789D02*
X31081Y-40789D01*
X30986Y-40789D01*
X30986Y-40722D01*
X30924Y-40659D01*
X30561Y-40659D01*
X30561Y-40667D01*
X30461Y-40667D01*
X30461Y-40659D01*
X30099Y-40659D01*
X30036Y-40722D01*
X30036Y-40819D01*
X30068Y-40895D01*
X29941Y-40895D01*
X29821Y-40945D01*
X29730Y-41036D01*
X29712Y-41079D01*
X29701Y-41079D01*
X29682Y-41034D01*
X29649Y-41001D01*
X29697Y-40981D01*
X29767Y-40911D01*
X29805Y-40819D01*
X29805Y-40722D01*
X29743Y-40659D01*
X29380Y-40659D01*
X29380Y-40667D01*
X29280Y-40667D01*
X29280Y-40659D01*
X29272Y-40659D01*
X29272Y-40559D01*
X29280Y-40559D01*
X29280Y-40552D01*
X29380Y-40552D01*
X29380Y-40559D01*
X29743Y-40559D01*
X29805Y-40497D01*
X29805Y-40496D01*
X30036Y-40496D01*
X30036Y-40497D01*
X30099Y-40559D01*
X30461Y-40559D01*
X30461Y-40552D01*
X30561Y-40552D01*
X30561Y-40559D01*
X30924Y-40559D01*
X30986Y-40497D01*
X30986Y-40496D01*
X31317Y-40496D01*
X31317Y-40789D01*
G54D10*
G36*
X35050Y-40969D02*
X34981Y-40969D01*
X34926Y-40992D01*
X34884Y-41034D01*
X34871Y-41064D01*
X34814Y-41040D01*
X34685Y-41040D01*
X34565Y-41090D01*
X34474Y-41181D01*
X34430Y-41288D01*
X34430Y-41090D01*
X34407Y-41034D01*
X34373Y-41001D01*
X34421Y-40981D01*
X34492Y-40911D01*
X34530Y-40819D01*
X34530Y-40722D01*
X34467Y-40659D01*
X34105Y-40659D01*
X34105Y-40667D01*
X34005Y-40667D01*
X34005Y-40659D01*
X33642Y-40659D01*
X33580Y-40722D01*
X33580Y-40819D01*
X33618Y-40911D01*
X33688Y-40981D01*
X33736Y-41001D01*
X33702Y-41034D01*
X33684Y-41079D01*
X33244Y-41079D01*
X33226Y-41034D01*
X33192Y-41001D01*
X33240Y-40981D01*
X33310Y-40911D01*
X33349Y-40819D01*
X33349Y-40722D01*
X33286Y-40659D01*
X32924Y-40659D01*
X32924Y-40667D01*
X32824Y-40667D01*
X32824Y-40659D01*
X32461Y-40659D01*
X32399Y-40722D01*
X32399Y-40819D01*
X32437Y-40911D01*
X32507Y-40981D01*
X32555Y-41001D01*
X32521Y-41034D01*
X32503Y-41079D01*
X32352Y-41079D01*
X32258Y-41040D01*
X32129Y-41040D01*
X32059Y-41069D01*
X32045Y-41034D01*
X32002Y-40992D01*
X31947Y-40969D01*
X31888Y-40969D01*
X31879Y-40969D01*
X31888Y-40919D01*
X31947Y-40919D01*
X32002Y-40897D01*
X32045Y-40854D01*
X32067Y-40799D01*
X32067Y-40740D01*
X32067Y-40496D01*
X32399Y-40496D01*
X32399Y-40497D01*
X32461Y-40559D01*
X32824Y-40559D01*
X32824Y-40552D01*
X32924Y-40552D01*
X32924Y-40559D01*
X33286Y-40559D01*
X33349Y-40497D01*
X33349Y-40496D01*
X33580Y-40496D01*
X33580Y-40497D01*
X33642Y-40559D01*
X34005Y-40559D01*
X34005Y-40552D01*
X34105Y-40552D01*
X34105Y-40559D01*
X34467Y-40559D01*
X34530Y-40497D01*
X34530Y-40496D01*
X34861Y-40496D01*
X34861Y-40799D01*
X34884Y-40854D01*
X34926Y-40897D01*
X34981Y-40919D01*
X35040Y-40919D01*
X35050Y-40969D01*
X35050Y-40969D01*
G37*
G54D16*
X35050Y-40969D02*
X34981Y-40969D01*
X34926Y-40992D01*
X34884Y-41034D01*
X34871Y-41064D01*
X34814Y-41040D01*
X34685Y-41040D01*
X34565Y-41090D01*
X34474Y-41181D01*
X34430Y-41288D01*
X34430Y-41090D01*
X34407Y-41034D01*
X34373Y-41001D01*
X34421Y-40981D01*
X34492Y-40911D01*
X34530Y-40819D01*
X34530Y-40722D01*
X34467Y-40659D01*
X34105Y-40659D01*
X34105Y-40667D01*
X34005Y-40667D01*
X34005Y-40659D01*
X33642Y-40659D01*
X33580Y-40722D01*
X33580Y-40819D01*
X33618Y-40911D01*
X33688Y-40981D01*
X33736Y-41001D01*
X33702Y-41034D01*
X33684Y-41079D01*
X33244Y-41079D01*
X33226Y-41034D01*
X33192Y-41001D01*
X33240Y-40981D01*
X33310Y-40911D01*
X33349Y-40819D01*
X33349Y-40722D01*
X33286Y-40659D01*
X32924Y-40659D01*
X32924Y-40667D01*
X32824Y-40667D01*
X32824Y-40659D01*
X32461Y-40659D01*
X32399Y-40722D01*
X32399Y-40819D01*
X32437Y-40911D01*
X32507Y-40981D01*
X32555Y-41001D01*
X32521Y-41034D01*
X32503Y-41079D01*
X32352Y-41079D01*
X32258Y-41040D01*
X32129Y-41040D01*
X32059Y-41069D01*
X32045Y-41034D01*
X32002Y-40992D01*
X31947Y-40969D01*
X31888Y-40969D01*
X31879Y-40969D01*
X31888Y-40919D01*
X31947Y-40919D01*
X32002Y-40897D01*
X32045Y-40854D01*
X32067Y-40799D01*
X32067Y-40740D01*
X32067Y-40496D01*
X32399Y-40496D01*
X32399Y-40497D01*
X32461Y-40559D01*
X32824Y-40559D01*
X32824Y-40552D01*
X32924Y-40552D01*
X32924Y-40559D01*
X33286Y-40559D01*
X33349Y-40497D01*
X33349Y-40496D01*
X33580Y-40496D01*
X33580Y-40497D01*
X33642Y-40559D01*
X34005Y-40559D01*
X34005Y-40552D01*
X34105Y-40552D01*
X34105Y-40559D01*
X34467Y-40559D01*
X34530Y-40497D01*
X34530Y-40496D01*
X34861Y-40496D01*
X34861Y-40799D01*
X34884Y-40854D01*
X34926Y-40897D01*
X34981Y-40919D01*
X35040Y-40919D01*
X35050Y-40969D01*
G54D10*
G36*
X35476Y-45694D02*
X35431Y-45694D01*
X34981Y-45694D01*
X34926Y-45717D01*
X34884Y-45759D01*
X34861Y-45814D01*
X34861Y-45874D01*
X34861Y-46194D01*
X34884Y-46249D01*
X34926Y-46291D01*
X34942Y-46298D01*
X34779Y-46460D01*
X34758Y-46493D01*
X34736Y-46525D01*
X34736Y-46525D01*
X34736Y-46525D01*
X34728Y-46563D01*
X34721Y-46602D01*
X34721Y-46602D01*
X34721Y-46622D01*
X34627Y-46685D01*
X34537Y-46820D01*
X34505Y-46979D01*
X34505Y-48059D01*
X34537Y-48218D01*
X34561Y-48255D01*
X34280Y-48255D01*
X34305Y-48218D01*
X34337Y-48059D01*
X34337Y-46979D01*
X34305Y-46820D01*
X34215Y-46685D01*
X34121Y-46622D01*
X34121Y-46511D01*
X34196Y-46435D01*
X34196Y-46435D01*
X34239Y-46371D01*
X34251Y-46314D01*
X34309Y-46314D01*
X34365Y-46291D01*
X34407Y-46249D01*
X34430Y-46194D01*
X34430Y-46134D01*
X34430Y-45814D01*
X34430Y-45524D01*
X34430Y-45464D01*
X34430Y-45144D01*
X34407Y-45089D01*
X34365Y-45047D01*
X34342Y-45037D01*
X34380Y-44946D01*
X34380Y-44817D01*
X34342Y-44726D01*
X34365Y-44716D01*
X34407Y-44674D01*
X34430Y-44619D01*
X34430Y-44559D01*
X34430Y-44239D01*
X34407Y-44184D01*
X34365Y-44142D01*
X34309Y-44119D01*
X34250Y-44119D01*
X33800Y-44119D01*
X33745Y-44142D01*
X33702Y-44184D01*
X33680Y-44239D01*
X33680Y-44299D01*
X33680Y-44619D01*
X33702Y-44674D01*
X33745Y-44716D01*
X33767Y-44726D01*
X33730Y-44816D01*
X33730Y-44946D01*
X33767Y-45037D01*
X33745Y-45047D01*
X33702Y-45089D01*
X33680Y-45144D01*
X33680Y-45204D01*
X33680Y-45524D01*
X33702Y-45579D01*
X33745Y-45621D01*
X33800Y-45644D01*
X33859Y-45644D01*
X34309Y-45644D01*
X34365Y-45621D01*
X34407Y-45579D01*
X34430Y-45524D01*
X34430Y-45814D01*
X34407Y-45759D01*
X34365Y-45717D01*
X34309Y-45694D01*
X34250Y-45694D01*
X33800Y-45694D01*
X33745Y-45717D01*
X33702Y-45759D01*
X33680Y-45814D01*
X33680Y-45874D01*
X33680Y-45987D01*
X33619Y-45962D01*
X33490Y-45962D01*
X33370Y-46012D01*
X33307Y-46075D01*
X33286Y-46054D01*
X32924Y-46054D01*
X32924Y-46062D01*
X32824Y-46062D01*
X32824Y-46054D01*
X32461Y-46054D01*
X32399Y-46116D01*
X32399Y-46214D01*
X32437Y-46305D01*
X32507Y-46376D01*
X32599Y-46414D01*
X32698Y-46414D01*
X32761Y-46414D01*
X32824Y-46351D01*
X32824Y-46414D01*
X32824Y-46414D01*
X32861Y-46414D01*
X32844Y-46417D01*
X32824Y-46431D01*
X32779Y-46460D01*
X32736Y-46525D01*
X32721Y-46602D01*
X32721Y-46622D01*
X32627Y-46685D01*
X32537Y-46820D01*
X32505Y-46979D01*
X32505Y-48059D01*
X32537Y-48218D01*
X32561Y-48255D01*
X32387Y-48255D01*
X32437Y-48091D01*
X32437Y-47569D01*
X32437Y-47469D01*
X32437Y-46948D01*
X32378Y-46754D01*
X32250Y-46597D01*
X32072Y-46502D01*
X32050Y-46498D01*
X31971Y-46547D01*
X31971Y-47469D01*
X32437Y-47469D01*
X32437Y-47569D01*
X31971Y-47569D01*
X31971Y-47577D01*
X31871Y-47577D01*
X31871Y-47569D01*
X31871Y-47469D01*
X31871Y-46547D01*
X31791Y-46498D01*
X31770Y-46502D01*
X31591Y-46597D01*
X31463Y-46754D01*
X31405Y-46948D01*
X31405Y-47469D01*
X31871Y-47469D01*
X31871Y-47569D01*
X31405Y-47569D01*
X31405Y-48091D01*
X31455Y-48255D01*
X31280Y-48255D01*
X31305Y-48218D01*
X31337Y-48059D01*
X31337Y-46979D01*
X31305Y-46820D01*
X31215Y-46685D01*
X31121Y-46622D01*
X31121Y-46602D01*
X31106Y-46525D01*
X31062Y-46460D01*
X30997Y-46417D01*
X30921Y-46402D01*
X30815Y-46402D01*
X30878Y-46376D01*
X30948Y-46305D01*
X30986Y-46214D01*
X30986Y-46116D01*
X30924Y-46054D01*
X30561Y-46054D01*
X30561Y-46062D01*
X30461Y-46062D01*
X30461Y-46054D01*
X30453Y-46054D01*
X30453Y-45954D01*
X30461Y-45954D01*
X30461Y-45946D01*
X30561Y-45946D01*
X30561Y-45954D01*
X30924Y-45954D01*
X30986Y-45891D01*
X30986Y-45794D01*
X30948Y-45702D01*
X30878Y-45632D01*
X30830Y-45612D01*
X30863Y-45579D01*
X30882Y-45534D01*
X31077Y-45534D01*
X31114Y-45549D01*
X31243Y-45549D01*
X31281Y-45534D01*
X31322Y-45534D01*
X31340Y-45579D01*
X31382Y-45621D01*
X31438Y-45644D01*
X31497Y-45644D01*
X31506Y-45644D01*
X31496Y-45694D01*
X31438Y-45694D01*
X31382Y-45717D01*
X31340Y-45759D01*
X31317Y-45814D01*
X31317Y-45874D01*
X31317Y-46194D01*
X31340Y-46249D01*
X31382Y-46291D01*
X31438Y-46314D01*
X31497Y-46314D01*
X31947Y-46314D01*
X32002Y-46291D01*
X32045Y-46249D01*
X32067Y-46194D01*
X32067Y-46134D01*
X32067Y-45839D01*
X32189Y-45718D01*
X32189Y-45718D01*
X32189Y-45718D01*
X32211Y-45685D01*
X32232Y-45653D01*
X32232Y-45653D01*
X32232Y-45653D01*
X32240Y-45614D01*
X32248Y-45576D01*
X32248Y-45576D01*
X32248Y-45576D01*
X32248Y-44191D01*
X32240Y-44153D01*
X32232Y-44114D01*
X32232Y-44114D01*
X32232Y-44114D01*
X32211Y-44082D01*
X32189Y-44050D01*
X32189Y-44049D01*
X32067Y-43928D01*
X32067Y-43889D01*
X32067Y-43697D01*
X32099Y-43728D01*
X32218Y-43778D01*
X32318Y-43778D01*
X32318Y-43982D01*
X32318Y-43983D01*
X32326Y-44021D01*
X32334Y-44059D01*
X32334Y-44059D01*
X32334Y-44059D01*
X32355Y-44091D01*
X32377Y-44124D01*
X32377Y-44124D01*
X32499Y-44246D01*
X32499Y-44299D01*
X32499Y-44619D01*
X32521Y-44674D01*
X32564Y-44716D01*
X32619Y-44739D01*
X32674Y-44739D01*
X32674Y-45024D01*
X32619Y-45024D01*
X32564Y-45047D01*
X32521Y-45089D01*
X32499Y-45144D01*
X32499Y-45204D01*
X32499Y-45524D01*
X32521Y-45579D01*
X32555Y-45612D01*
X32507Y-45632D01*
X32437Y-45702D01*
X32399Y-45794D01*
X32399Y-45891D01*
X32461Y-45954D01*
X32824Y-45954D01*
X32824Y-45946D01*
X32924Y-45946D01*
X32924Y-45954D01*
X33286Y-45954D01*
X33349Y-45891D01*
X33349Y-45794D01*
X33310Y-45702D01*
X33240Y-45632D01*
X33192Y-45612D01*
X33226Y-45579D01*
X33249Y-45524D01*
X33249Y-45464D01*
X33249Y-45144D01*
X33226Y-45089D01*
X33183Y-45047D01*
X33128Y-45024D01*
X33074Y-45024D01*
X33074Y-44739D01*
X33128Y-44739D01*
X33183Y-44716D01*
X33226Y-44674D01*
X33249Y-44619D01*
X33249Y-44559D01*
X33249Y-44239D01*
X33226Y-44184D01*
X33192Y-44151D01*
X33240Y-44131D01*
X33310Y-44061D01*
X33349Y-43969D01*
X33349Y-43871D01*
X33286Y-43809D01*
X32924Y-43809D01*
X32924Y-43817D01*
X32824Y-43817D01*
X32824Y-43809D01*
X32816Y-43809D01*
X32816Y-43709D01*
X32824Y-43709D01*
X32824Y-43701D01*
X32924Y-43701D01*
X32924Y-43709D01*
X33286Y-43709D01*
X33349Y-43646D01*
X33349Y-43549D01*
X33310Y-43457D01*
X33240Y-43387D01*
X33148Y-43349D01*
X33049Y-43349D01*
X32986Y-43349D01*
X32924Y-43411D01*
X32924Y-43377D01*
X33015Y-43286D01*
X33015Y-43286D01*
X33015Y-43286D01*
X33037Y-43253D01*
X33058Y-43221D01*
X33058Y-43221D01*
X33058Y-43221D01*
X33066Y-43182D01*
X33070Y-43164D01*
X33128Y-43164D01*
X33183Y-43141D01*
X33226Y-43099D01*
X33249Y-43044D01*
X33249Y-42984D01*
X33249Y-42674D01*
X33680Y-42674D01*
X33680Y-42724D01*
X33680Y-43044D01*
X33702Y-43099D01*
X33745Y-43141D01*
X33800Y-43164D01*
X33855Y-43164D01*
X33855Y-43449D01*
X33800Y-43449D01*
X33745Y-43472D01*
X33702Y-43514D01*
X33680Y-43569D01*
X33680Y-43629D01*
X33680Y-43949D01*
X33702Y-44004D01*
X33745Y-44046D01*
X33800Y-44069D01*
X33859Y-44069D01*
X34309Y-44069D01*
X34365Y-44046D01*
X34369Y-44042D01*
X34476Y-44086D01*
X34605Y-44086D01*
X34662Y-44063D01*
X34662Y-44670D01*
X34662Y-44670D01*
X34662Y-44670D01*
X34669Y-44708D01*
X34677Y-44746D01*
X34677Y-44746D01*
X34677Y-44746D01*
X34699Y-44779D01*
X34720Y-44811D01*
X34720Y-44811D01*
X34720Y-44811D01*
X34947Y-45038D01*
X34926Y-45047D01*
X34884Y-45089D01*
X34861Y-45144D01*
X34861Y-45204D01*
X34861Y-45524D01*
X34884Y-45579D01*
X34926Y-45621D01*
X34981Y-45644D01*
X35041Y-45644D01*
X35476Y-45644D01*
X35476Y-45694D01*
X35476Y-45694D01*
G37*
G54D16*
X35476Y-45694D02*
X35431Y-45694D01*
X34981Y-45694D01*
X34926Y-45717D01*
X34884Y-45759D01*
X34861Y-45814D01*
X34861Y-45874D01*
X34861Y-46194D01*
X34884Y-46249D01*
X34926Y-46291D01*
X34942Y-46298D01*
X34779Y-46460D01*
X34758Y-46493D01*
X34736Y-46525D01*
X34736Y-46525D01*
X34736Y-46525D01*
X34728Y-46563D01*
X34721Y-46602D01*
X34721Y-46602D01*
X34721Y-46622D01*
X34627Y-46685D01*
X34537Y-46820D01*
X34505Y-46979D01*
X34505Y-48059D01*
X34537Y-48218D01*
X34561Y-48255D01*
X34280Y-48255D01*
X34305Y-48218D01*
X34337Y-48059D01*
X34337Y-46979D01*
X34305Y-46820D01*
X34215Y-46685D01*
X34121Y-46622D01*
X34121Y-46511D01*
X34196Y-46435D01*
X34196Y-46435D01*
X34239Y-46371D01*
X34251Y-46314D01*
X34309Y-46314D01*
X34365Y-46291D01*
X34407Y-46249D01*
X34430Y-46194D01*
X34430Y-46134D01*
X34430Y-45814D01*
X34430Y-45524D01*
X34430Y-45464D01*
X34430Y-45144D01*
X34407Y-45089D01*
X34365Y-45047D01*
X34342Y-45037D01*
X34380Y-44946D01*
X34380Y-44817D01*
X34342Y-44726D01*
X34365Y-44716D01*
X34407Y-44674D01*
X34430Y-44619D01*
X34430Y-44559D01*
X34430Y-44239D01*
X34407Y-44184D01*
X34365Y-44142D01*
X34309Y-44119D01*
X34250Y-44119D01*
X33800Y-44119D01*
X33745Y-44142D01*
X33702Y-44184D01*
X33680Y-44239D01*
X33680Y-44299D01*
X33680Y-44619D01*
X33702Y-44674D01*
X33745Y-44716D01*
X33767Y-44726D01*
X33730Y-44816D01*
X33730Y-44946D01*
X33767Y-45037D01*
X33745Y-45047D01*
X33702Y-45089D01*
X33680Y-45144D01*
X33680Y-45204D01*
X33680Y-45524D01*
X33702Y-45579D01*
X33745Y-45621D01*
X33800Y-45644D01*
X33859Y-45644D01*
X34309Y-45644D01*
X34365Y-45621D01*
X34407Y-45579D01*
X34430Y-45524D01*
X34430Y-45814D01*
X34407Y-45759D01*
X34365Y-45717D01*
X34309Y-45694D01*
X34250Y-45694D01*
X33800Y-45694D01*
X33745Y-45717D01*
X33702Y-45759D01*
X33680Y-45814D01*
X33680Y-45874D01*
X33680Y-45987D01*
X33619Y-45962D01*
X33490Y-45962D01*
X33370Y-46012D01*
X33307Y-46075D01*
X33286Y-46054D01*
X32924Y-46054D01*
X32924Y-46062D01*
X32824Y-46062D01*
X32824Y-46054D01*
X32461Y-46054D01*
X32399Y-46116D01*
X32399Y-46214D01*
X32437Y-46305D01*
X32507Y-46376D01*
X32599Y-46414D01*
X32698Y-46414D01*
X32761Y-46414D01*
X32824Y-46351D01*
X32824Y-46414D01*
X32824Y-46414D01*
X32861Y-46414D01*
X32844Y-46417D01*
X32824Y-46431D01*
X32779Y-46460D01*
X32736Y-46525D01*
X32721Y-46602D01*
X32721Y-46622D01*
X32627Y-46685D01*
X32537Y-46820D01*
X32505Y-46979D01*
X32505Y-48059D01*
X32537Y-48218D01*
X32561Y-48255D01*
X32387Y-48255D01*
X32437Y-48091D01*
X32437Y-47569D01*
X32437Y-47469D01*
X32437Y-46948D01*
X32378Y-46754D01*
X32250Y-46597D01*
X32072Y-46502D01*
X32050Y-46498D01*
X31971Y-46547D01*
X31971Y-47469D01*
X32437Y-47469D01*
X32437Y-47569D01*
X31971Y-47569D01*
X31971Y-47577D01*
X31871Y-47577D01*
X31871Y-47569D01*
X31871Y-47469D01*
X31871Y-46547D01*
X31791Y-46498D01*
X31770Y-46502D01*
X31591Y-46597D01*
X31463Y-46754D01*
X31405Y-46948D01*
X31405Y-47469D01*
X31871Y-47469D01*
X31871Y-47569D01*
X31405Y-47569D01*
X31405Y-48091D01*
X31455Y-48255D01*
X31280Y-48255D01*
X31305Y-48218D01*
X31337Y-48059D01*
X31337Y-46979D01*
X31305Y-46820D01*
X31215Y-46685D01*
X31121Y-46622D01*
X31121Y-46602D01*
X31106Y-46525D01*
X31062Y-46460D01*
X30997Y-46417D01*
X30921Y-46402D01*
X30815Y-46402D01*
X30878Y-46376D01*
X30948Y-46305D01*
X30986Y-46214D01*
X30986Y-46116D01*
X30924Y-46054D01*
X30561Y-46054D01*
X30561Y-46062D01*
X30461Y-46062D01*
X30461Y-46054D01*
X30453Y-46054D01*
X30453Y-45954D01*
X30461Y-45954D01*
X30461Y-45946D01*
X30561Y-45946D01*
X30561Y-45954D01*
X30924Y-45954D01*
X30986Y-45891D01*
X30986Y-45794D01*
X30948Y-45702D01*
X30878Y-45632D01*
X30830Y-45612D01*
X30863Y-45579D01*
X30882Y-45534D01*
X31077Y-45534D01*
X31114Y-45549D01*
X31243Y-45549D01*
X31281Y-45534D01*
X31322Y-45534D01*
X31340Y-45579D01*
X31382Y-45621D01*
X31438Y-45644D01*
X31497Y-45644D01*
X31506Y-45644D01*
X31496Y-45694D01*
X31438Y-45694D01*
X31382Y-45717D01*
X31340Y-45759D01*
X31317Y-45814D01*
X31317Y-45874D01*
X31317Y-46194D01*
X31340Y-46249D01*
X31382Y-46291D01*
X31438Y-46314D01*
X31497Y-46314D01*
X31947Y-46314D01*
X32002Y-46291D01*
X32045Y-46249D01*
X32067Y-46194D01*
X32067Y-46134D01*
X32067Y-45839D01*
X32189Y-45718D01*
X32189Y-45718D01*
X32189Y-45718D01*
X32211Y-45685D01*
X32232Y-45653D01*
X32232Y-45653D01*
X32232Y-45653D01*
X32240Y-45614D01*
X32248Y-45576D01*
X32248Y-45576D01*
X32248Y-45576D01*
X32248Y-44191D01*
X32240Y-44153D01*
X32232Y-44114D01*
X32232Y-44114D01*
X32232Y-44114D01*
X32211Y-44082D01*
X32189Y-44050D01*
X32189Y-44049D01*
X32067Y-43928D01*
X32067Y-43889D01*
X32067Y-43697D01*
X32099Y-43728D01*
X32218Y-43778D01*
X32318Y-43778D01*
X32318Y-43982D01*
X32318Y-43983D01*
X32326Y-44021D01*
X32334Y-44059D01*
X32334Y-44059D01*
X32334Y-44059D01*
X32355Y-44091D01*
X32377Y-44124D01*
X32377Y-44124D01*
X32499Y-44246D01*
X32499Y-44299D01*
X32499Y-44619D01*
X32521Y-44674D01*
X32564Y-44716D01*
X32619Y-44739D01*
X32674Y-44739D01*
X32674Y-45024D01*
X32619Y-45024D01*
X32564Y-45047D01*
X32521Y-45089D01*
X32499Y-45144D01*
X32499Y-45204D01*
X32499Y-45524D01*
X32521Y-45579D01*
X32555Y-45612D01*
X32507Y-45632D01*
X32437Y-45702D01*
X32399Y-45794D01*
X32399Y-45891D01*
X32461Y-45954D01*
X32824Y-45954D01*
X32824Y-45946D01*
X32924Y-45946D01*
X32924Y-45954D01*
X33286Y-45954D01*
X33349Y-45891D01*
X33349Y-45794D01*
X33310Y-45702D01*
X33240Y-45632D01*
X33192Y-45612D01*
X33226Y-45579D01*
X33249Y-45524D01*
X33249Y-45464D01*
X33249Y-45144D01*
X33226Y-45089D01*
X33183Y-45047D01*
X33128Y-45024D01*
X33074Y-45024D01*
X33074Y-44739D01*
X33128Y-44739D01*
X33183Y-44716D01*
X33226Y-44674D01*
X33249Y-44619D01*
X33249Y-44559D01*
X33249Y-44239D01*
X33226Y-44184D01*
X33192Y-44151D01*
X33240Y-44131D01*
X33310Y-44061D01*
X33349Y-43969D01*
X33349Y-43871D01*
X33286Y-43809D01*
X32924Y-43809D01*
X32924Y-43817D01*
X32824Y-43817D01*
X32824Y-43809D01*
X32816Y-43809D01*
X32816Y-43709D01*
X32824Y-43709D01*
X32824Y-43701D01*
X32924Y-43701D01*
X32924Y-43709D01*
X33286Y-43709D01*
X33349Y-43646D01*
X33349Y-43549D01*
X33310Y-43457D01*
X33240Y-43387D01*
X33148Y-43349D01*
X33049Y-43349D01*
X32986Y-43349D01*
X32924Y-43411D01*
X32924Y-43377D01*
X33015Y-43286D01*
X33015Y-43286D01*
X33015Y-43286D01*
X33037Y-43253D01*
X33058Y-43221D01*
X33058Y-43221D01*
X33058Y-43221D01*
X33066Y-43182D01*
X33070Y-43164D01*
X33128Y-43164D01*
X33183Y-43141D01*
X33226Y-43099D01*
X33249Y-43044D01*
X33249Y-42984D01*
X33249Y-42674D01*
X33680Y-42674D01*
X33680Y-42724D01*
X33680Y-43044D01*
X33702Y-43099D01*
X33745Y-43141D01*
X33800Y-43164D01*
X33855Y-43164D01*
X33855Y-43449D01*
X33800Y-43449D01*
X33745Y-43472D01*
X33702Y-43514D01*
X33680Y-43569D01*
X33680Y-43629D01*
X33680Y-43949D01*
X33702Y-44004D01*
X33745Y-44046D01*
X33800Y-44069D01*
X33859Y-44069D01*
X34309Y-44069D01*
X34365Y-44046D01*
X34369Y-44042D01*
X34476Y-44086D01*
X34605Y-44086D01*
X34662Y-44063D01*
X34662Y-44670D01*
X34662Y-44670D01*
X34662Y-44670D01*
X34669Y-44708D01*
X34677Y-44746D01*
X34677Y-44746D01*
X34677Y-44746D01*
X34699Y-44779D01*
X34720Y-44811D01*
X34720Y-44811D01*
X34720Y-44811D01*
X34947Y-45038D01*
X34926Y-45047D01*
X34884Y-45089D01*
X34861Y-45144D01*
X34861Y-45204D01*
X34861Y-45524D01*
X34884Y-45579D01*
X34926Y-45621D01*
X34981Y-45644D01*
X35041Y-45644D01*
X35476Y-45644D01*
X35476Y-45694D01*
G54D10*
G36*
X38019Y-48255D02*
X35280Y-48255D01*
X35305Y-48218D01*
X35337Y-48059D01*
X35337Y-46979D01*
X35305Y-46820D01*
X35215Y-46685D01*
X35158Y-46647D01*
X35355Y-46450D01*
X35377Y-46435D01*
X35420Y-46371D01*
X35432Y-46314D01*
X35491Y-46314D01*
X35546Y-46291D01*
X35552Y-46284D01*
X35721Y-46453D01*
X35677Y-46560D01*
X35676Y-46776D01*
X35759Y-46976D01*
X35912Y-47129D01*
X36111Y-47212D01*
X36328Y-47212D01*
X36527Y-47130D01*
X36680Y-46977D01*
X36763Y-46777D01*
X36764Y-46561D01*
X36681Y-46361D01*
X36528Y-46208D01*
X36329Y-46125D01*
X36112Y-46125D01*
X36004Y-46170D01*
X35876Y-46042D01*
X35876Y-45212D01*
X36643Y-45212D01*
X36698Y-45189D01*
X36741Y-45147D01*
X36763Y-45092D01*
X36763Y-45032D01*
X36763Y-44245D01*
X36741Y-44190D01*
X36698Y-44148D01*
X36643Y-44125D01*
X36584Y-44125D01*
X36523Y-44125D01*
X36903Y-43745D01*
X36946Y-43681D01*
X36961Y-43604D01*
X36961Y-42607D01*
X37111Y-42669D01*
X37328Y-42669D01*
X37527Y-42587D01*
X37551Y-42563D01*
X37551Y-45055D01*
X37436Y-45170D01*
X37329Y-45125D01*
X37112Y-45125D01*
X36913Y-45208D01*
X36759Y-45361D01*
X36677Y-45560D01*
X36676Y-45776D01*
X36759Y-45976D01*
X36912Y-46129D01*
X37111Y-46212D01*
X37328Y-46212D01*
X37527Y-46130D01*
X37680Y-45977D01*
X37763Y-45777D01*
X37764Y-45561D01*
X37719Y-45453D01*
X37893Y-45279D01*
X37936Y-45214D01*
X37951Y-45137D01*
X37951Y-41422D01*
X37936Y-41346D01*
X37893Y-41281D01*
X36576Y-39964D01*
X36529Y-39933D01*
X38019Y-39933D01*
X38019Y-48255D01*
X38019Y-48255D01*
G37*
G54D16*
X38019Y-48255D02*
X35280Y-48255D01*
X35305Y-48218D01*
X35337Y-48059D01*
X35337Y-46979D01*
X35305Y-46820D01*
X35215Y-46685D01*
X35158Y-46647D01*
X35355Y-46450D01*
X35377Y-46435D01*
X35420Y-46371D01*
X35432Y-46314D01*
X35491Y-46314D01*
X35546Y-46291D01*
X35552Y-46284D01*
X35721Y-46453D01*
X35677Y-46560D01*
X35676Y-46776D01*
X35759Y-46976D01*
X35912Y-47129D01*
X36111Y-47212D01*
X36328Y-47212D01*
X36527Y-47130D01*
X36680Y-46977D01*
X36763Y-46777D01*
X36764Y-46561D01*
X36681Y-46361D01*
X36528Y-46208D01*
X36329Y-46125D01*
X36112Y-46125D01*
X36004Y-46170D01*
X35876Y-46042D01*
X35876Y-45212D01*
X36643Y-45212D01*
X36698Y-45189D01*
X36741Y-45147D01*
X36763Y-45092D01*
X36763Y-45032D01*
X36763Y-44245D01*
X36741Y-44190D01*
X36698Y-44148D01*
X36643Y-44125D01*
X36584Y-44125D01*
X36523Y-44125D01*
X36903Y-43745D01*
X36946Y-43681D01*
X36961Y-43604D01*
X36961Y-42607D01*
X37111Y-42669D01*
X37328Y-42669D01*
X37527Y-42587D01*
X37551Y-42563D01*
X37551Y-45055D01*
X37436Y-45170D01*
X37329Y-45125D01*
X37112Y-45125D01*
X36913Y-45208D01*
X36759Y-45361D01*
X36677Y-45560D01*
X36676Y-45776D01*
X36759Y-45976D01*
X36912Y-46129D01*
X37111Y-46212D01*
X37328Y-46212D01*
X37527Y-46130D01*
X37680Y-45977D01*
X37763Y-45777D01*
X37764Y-45561D01*
X37719Y-45453D01*
X37893Y-45279D01*
X37936Y-45214D01*
X37951Y-45137D01*
X37951Y-41422D01*
X37936Y-41346D01*
X37893Y-41281D01*
X36576Y-39964D01*
X36529Y-39933D01*
X38019Y-39933D01*
X38019Y-48255D01*
M02*
