%FSLAX34Y34*%
G04 Gerber Fmt 3.4, Leading zero omitted, Abs format*
G04 (created by PCBNEW (2014-02-02 BZR 4653)-product) date 2014-03-02 10:39:36 PM*
%MOIN*%
G01*
G70*
G90*
G04 APERTURE LIST*
%ADD10C,0.005906*%
%ADD11C,0.007874*%
%ADD12C,0.009843*%
%ADD13C,0.006000*%
%ADD14C,0.005000*%
%ADD15C,0.015000*%
%ADD16C,0.002600*%
%ADD17C,0.008000*%
%ADD18C,0.010000*%
%ADD19C,0.011811*%
%ADD20R,0.011800X0.051200*%
%ADD21R,0.027600X0.039400*%
%ADD22R,0.023600X0.086600*%
%ADD23R,0.045000X0.032000*%
%ADD24C,0.078700*%
%ADD25R,0.078700X0.078700*%
G04 APERTURE END LIST*
G54D10*
G54D11*
X23248Y-47244D02*
G75*
G03X23248Y-47244I-807J0D01*
G74*
G01*
G54D12*
X21962Y-46871D02*
X22356Y-46871D01*
X22103Y-47659D01*
X22609Y-47659D02*
X22722Y-47659D01*
X22778Y-47621D01*
X22806Y-47584D01*
X22862Y-47471D01*
X22890Y-47321D01*
X22890Y-47021D01*
X22862Y-46946D01*
X22834Y-46909D01*
X22778Y-46871D01*
X22665Y-46871D01*
X22609Y-46909D01*
X22581Y-46946D01*
X22553Y-47021D01*
X22553Y-47209D01*
X22581Y-47284D01*
X22609Y-47321D01*
X22665Y-47359D01*
X22778Y-47359D01*
X22834Y-47321D01*
X22862Y-47284D01*
X22890Y-47209D01*
G54D13*
X31729Y-48078D02*
X31714Y-48108D01*
X31714Y-48154D01*
X31729Y-48200D01*
X31760Y-48230D01*
X31790Y-48246D01*
X31851Y-48261D01*
X31897Y-48261D01*
X31958Y-48246D01*
X31988Y-48230D01*
X32019Y-48200D01*
X32034Y-48154D01*
X32034Y-48124D01*
X32019Y-48078D01*
X32004Y-48063D01*
X31897Y-48063D01*
X31897Y-48124D01*
X32034Y-47926D02*
X31714Y-47926D01*
X32034Y-47743D01*
X31714Y-47743D01*
X32034Y-47590D02*
X31714Y-47590D01*
X31714Y-47514D01*
X31729Y-47468D01*
X31760Y-47438D01*
X31790Y-47423D01*
X31851Y-47407D01*
X31897Y-47407D01*
X31958Y-47423D01*
X31988Y-47438D01*
X32019Y-47468D01*
X32034Y-47514D01*
X32034Y-47590D01*
X28777Y-48078D02*
X28761Y-48108D01*
X28761Y-48154D01*
X28777Y-48200D01*
X28807Y-48230D01*
X28837Y-48246D01*
X28898Y-48261D01*
X28944Y-48261D01*
X29005Y-48246D01*
X29036Y-48230D01*
X29066Y-48200D01*
X29081Y-48154D01*
X29081Y-48124D01*
X29066Y-48078D01*
X29051Y-48063D01*
X28944Y-48063D01*
X28944Y-48124D01*
X29081Y-47926D02*
X28761Y-47926D01*
X29081Y-47743D01*
X28761Y-47743D01*
X29081Y-47590D02*
X28761Y-47590D01*
X28761Y-47514D01*
X28777Y-47468D01*
X28807Y-47438D01*
X28837Y-47423D01*
X28898Y-47407D01*
X28944Y-47407D01*
X29005Y-47423D01*
X29036Y-47438D01*
X29066Y-47468D01*
X29081Y-47514D01*
X29081Y-47590D01*
X30928Y-48201D02*
X30928Y-47957D01*
X31050Y-47637D02*
X31050Y-47820D01*
X31050Y-47729D02*
X30730Y-47729D01*
X30775Y-47759D01*
X30806Y-47790D01*
X30821Y-47820D01*
X30760Y-47515D02*
X30745Y-47500D01*
X30730Y-47470D01*
X30730Y-47393D01*
X30745Y-47363D01*
X30760Y-47348D01*
X30791Y-47333D01*
X30821Y-47333D01*
X30867Y-47348D01*
X31050Y-47531D01*
X31050Y-47333D01*
X30730Y-47241D02*
X31050Y-47134D01*
X30730Y-47028D01*
X32995Y-48201D02*
X32995Y-47957D01*
X33117Y-48079D02*
X32873Y-48079D01*
X33117Y-47637D02*
X33117Y-47820D01*
X33117Y-47729D02*
X32797Y-47729D01*
X32842Y-47759D01*
X32873Y-47790D01*
X32888Y-47820D01*
X32827Y-47515D02*
X32812Y-47500D01*
X32797Y-47470D01*
X32797Y-47393D01*
X32812Y-47363D01*
X32827Y-47348D01*
X32858Y-47333D01*
X32888Y-47333D01*
X32934Y-47348D01*
X33117Y-47531D01*
X33117Y-47333D01*
X32797Y-47241D02*
X33117Y-47134D01*
X32797Y-47028D01*
X33781Y-48110D02*
X33781Y-48049D01*
X33796Y-48018D01*
X33827Y-47988D01*
X33888Y-47973D01*
X33994Y-47973D01*
X34055Y-47988D01*
X34086Y-48018D01*
X34101Y-48049D01*
X34101Y-48110D01*
X34086Y-48140D01*
X34055Y-48171D01*
X33994Y-48186D01*
X33888Y-48186D01*
X33827Y-48171D01*
X33796Y-48140D01*
X33781Y-48110D01*
X33781Y-47835D02*
X34040Y-47835D01*
X34070Y-47820D01*
X34086Y-47805D01*
X34101Y-47774D01*
X34101Y-47713D01*
X34086Y-47683D01*
X34070Y-47668D01*
X34040Y-47653D01*
X33781Y-47653D01*
X33781Y-47546D02*
X33781Y-47363D01*
X34101Y-47454D02*
X33781Y-47454D01*
X34101Y-47089D02*
X34101Y-47272D01*
X34101Y-47180D02*
X33781Y-47180D01*
X33827Y-47211D01*
X33857Y-47241D01*
X33872Y-47272D01*
X34765Y-48110D02*
X34765Y-48049D01*
X34780Y-48018D01*
X34811Y-47988D01*
X34872Y-47973D01*
X34979Y-47973D01*
X35039Y-47988D01*
X35070Y-48018D01*
X35085Y-48049D01*
X35085Y-48110D01*
X35070Y-48140D01*
X35039Y-48171D01*
X34979Y-48186D01*
X34872Y-48186D01*
X34811Y-48171D01*
X34780Y-48140D01*
X34765Y-48110D01*
X34765Y-47835D02*
X35024Y-47835D01*
X35055Y-47820D01*
X35070Y-47805D01*
X35085Y-47774D01*
X35085Y-47713D01*
X35070Y-47683D01*
X35055Y-47668D01*
X35024Y-47653D01*
X34765Y-47653D01*
X34765Y-47546D02*
X34765Y-47363D01*
X35085Y-47454D02*
X34765Y-47454D01*
X34796Y-47272D02*
X34780Y-47256D01*
X34765Y-47226D01*
X34765Y-47150D01*
X34780Y-47119D01*
X34796Y-47104D01*
X34826Y-47089D01*
X34857Y-47089D01*
X34902Y-47104D01*
X35085Y-47287D01*
X35085Y-47089D01*
X30066Y-48154D02*
X29746Y-48154D01*
X30066Y-48002D02*
X29746Y-48002D01*
X30066Y-47819D01*
X29746Y-47819D01*
X30066Y-47499D02*
X30066Y-47682D01*
X30066Y-47590D02*
X29746Y-47590D01*
X29791Y-47621D01*
X29822Y-47651D01*
X29837Y-47682D01*
X28097Y-48154D02*
X27777Y-48154D01*
X28097Y-48002D02*
X27777Y-48002D01*
X28097Y-47819D01*
X27777Y-47819D01*
X27807Y-47682D02*
X27792Y-47667D01*
X27777Y-47636D01*
X27777Y-47560D01*
X27792Y-47529D01*
X27807Y-47514D01*
X27838Y-47499D01*
X27868Y-47499D01*
X27914Y-47514D01*
X28097Y-47697D01*
X28097Y-47499D01*
X26984Y-48065D02*
X26999Y-48080D01*
X27014Y-48126D01*
X27014Y-48156D01*
X26999Y-48202D01*
X26969Y-48232D01*
X26938Y-48247D01*
X26877Y-48263D01*
X26831Y-48263D01*
X26771Y-48247D01*
X26740Y-48232D01*
X26710Y-48202D01*
X26694Y-48156D01*
X26694Y-48126D01*
X26710Y-48080D01*
X26725Y-48065D01*
X26694Y-47973D02*
X27014Y-47866D01*
X26694Y-47760D01*
X26725Y-47668D02*
X26710Y-47653D01*
X26694Y-47623D01*
X26694Y-47546D01*
X26710Y-47516D01*
X26725Y-47501D01*
X26755Y-47486D01*
X26786Y-47486D01*
X26831Y-47501D01*
X27014Y-47684D01*
X27014Y-47486D01*
X26892Y-47348D02*
X26892Y-47105D01*
X26923Y-46967D02*
X26923Y-46815D01*
X27014Y-46998D02*
X26694Y-46891D01*
X27014Y-46785D01*
X26000Y-48087D02*
X26015Y-48103D01*
X26030Y-48148D01*
X26030Y-48179D01*
X26015Y-48225D01*
X25984Y-48255D01*
X25954Y-48270D01*
X25893Y-48286D01*
X25847Y-48286D01*
X25786Y-48270D01*
X25756Y-48255D01*
X25725Y-48225D01*
X25710Y-48179D01*
X25710Y-48148D01*
X25725Y-48103D01*
X25741Y-48087D01*
X25710Y-47996D02*
X26030Y-47889D01*
X25710Y-47783D01*
X25741Y-47691D02*
X25725Y-47676D01*
X25710Y-47646D01*
X25710Y-47569D01*
X25725Y-47539D01*
X25741Y-47524D01*
X25771Y-47508D01*
X25802Y-47508D01*
X25847Y-47524D01*
X26030Y-47706D01*
X26030Y-47508D01*
X25908Y-47371D02*
X25908Y-47127D01*
X25862Y-46868D02*
X25878Y-46823D01*
X25893Y-46807D01*
X25923Y-46792D01*
X25969Y-46792D01*
X26000Y-46807D01*
X26015Y-46823D01*
X26030Y-46853D01*
X26030Y-46975D01*
X25710Y-46975D01*
X25710Y-46868D01*
X25725Y-46838D01*
X25741Y-46823D01*
X25771Y-46807D01*
X25802Y-46807D01*
X25832Y-46823D01*
X25847Y-46838D01*
X25862Y-46868D01*
X25862Y-46975D01*
X25015Y-48065D02*
X25031Y-48080D01*
X25046Y-48126D01*
X25046Y-48156D01*
X25031Y-48202D01*
X25000Y-48232D01*
X24970Y-48247D01*
X24909Y-48263D01*
X24863Y-48263D01*
X24802Y-48247D01*
X24772Y-48232D01*
X24741Y-48202D01*
X24726Y-48156D01*
X24726Y-48126D01*
X24741Y-48080D01*
X24756Y-48065D01*
X24726Y-47973D02*
X25046Y-47866D01*
X24726Y-47760D01*
X25046Y-47486D02*
X25046Y-47668D01*
X25046Y-47577D02*
X24726Y-47577D01*
X24772Y-47607D01*
X24802Y-47638D01*
X24817Y-47668D01*
X24924Y-47348D02*
X24924Y-47105D01*
X24954Y-46967D02*
X24954Y-46815D01*
X25046Y-46998D02*
X24726Y-46891D01*
X25046Y-46785D01*
X24031Y-48087D02*
X24046Y-48103D01*
X24062Y-48148D01*
X24062Y-48179D01*
X24046Y-48225D01*
X24016Y-48255D01*
X23985Y-48270D01*
X23924Y-48286D01*
X23879Y-48286D01*
X23818Y-48270D01*
X23787Y-48255D01*
X23757Y-48225D01*
X23742Y-48179D01*
X23742Y-48148D01*
X23757Y-48103D01*
X23772Y-48087D01*
X23742Y-47996D02*
X24062Y-47889D01*
X23742Y-47783D01*
X24062Y-47508D02*
X24062Y-47691D01*
X24062Y-47600D02*
X23742Y-47600D01*
X23787Y-47630D01*
X23818Y-47661D01*
X23833Y-47691D01*
X23940Y-47371D02*
X23940Y-47127D01*
X23894Y-46868D02*
X23909Y-46823D01*
X23924Y-46807D01*
X23955Y-46792D01*
X24001Y-46792D01*
X24031Y-46807D01*
X24046Y-46823D01*
X24062Y-46853D01*
X24062Y-46975D01*
X23742Y-46975D01*
X23742Y-46868D01*
X23757Y-46838D01*
X23772Y-46823D01*
X23803Y-46807D01*
X23833Y-46807D01*
X23863Y-46823D01*
X23879Y-46838D01*
X23894Y-46868D01*
X23894Y-46975D01*
X26660Y-41163D02*
X26690Y-41163D01*
X26720Y-41178D01*
X26736Y-41193D01*
X26751Y-41224D01*
X26766Y-41285D01*
X26766Y-41361D01*
X26751Y-41422D01*
X26736Y-41452D01*
X26720Y-41468D01*
X26690Y-41483D01*
X26660Y-41483D01*
X26629Y-41468D01*
X26614Y-41452D01*
X26599Y-41422D01*
X26583Y-41361D01*
X26583Y-41285D01*
X26599Y-41224D01*
X26614Y-41193D01*
X26629Y-41178D01*
X26660Y-41163D01*
X26873Y-41163D02*
X27071Y-41163D01*
X26964Y-41285D01*
X27010Y-41285D01*
X27040Y-41300D01*
X27056Y-41315D01*
X27071Y-41346D01*
X27071Y-41422D01*
X27056Y-41452D01*
X27040Y-41468D01*
X27010Y-41483D01*
X26919Y-41483D01*
X26888Y-41468D01*
X26873Y-41452D01*
X27437Y-41193D02*
X27452Y-41178D01*
X27482Y-41163D01*
X27559Y-41163D01*
X27589Y-41178D01*
X27604Y-41193D01*
X27620Y-41224D01*
X27620Y-41254D01*
X27604Y-41300D01*
X27421Y-41483D01*
X27620Y-41483D01*
X27818Y-41163D02*
X27848Y-41163D01*
X27879Y-41178D01*
X27894Y-41193D01*
X27909Y-41224D01*
X27924Y-41285D01*
X27924Y-41361D01*
X27909Y-41422D01*
X27894Y-41452D01*
X27879Y-41468D01*
X27848Y-41483D01*
X27818Y-41483D01*
X27787Y-41468D01*
X27772Y-41452D01*
X27757Y-41422D01*
X27741Y-41361D01*
X27741Y-41285D01*
X27757Y-41224D01*
X27772Y-41193D01*
X27787Y-41178D01*
X27818Y-41163D01*
X28229Y-41483D02*
X28046Y-41483D01*
X28138Y-41483D02*
X28138Y-41163D01*
X28107Y-41209D01*
X28077Y-41239D01*
X28046Y-41254D01*
X28503Y-41270D02*
X28503Y-41483D01*
X28427Y-41148D02*
X28351Y-41376D01*
X28549Y-41376D01*
X25860Y-40892D02*
X25860Y-40572D01*
X25936Y-40572D01*
X25981Y-40588D01*
X26012Y-40618D01*
X26027Y-40648D01*
X26042Y-40709D01*
X26042Y-40755D01*
X26027Y-40816D01*
X26012Y-40847D01*
X25981Y-40877D01*
X25936Y-40892D01*
X25860Y-40892D01*
X26180Y-40572D02*
X26180Y-40831D01*
X26195Y-40862D01*
X26210Y-40877D01*
X26240Y-40892D01*
X26301Y-40892D01*
X26332Y-40877D01*
X26347Y-40862D01*
X26362Y-40831D01*
X26362Y-40572D01*
X26500Y-40801D02*
X26652Y-40801D01*
X26469Y-40892D02*
X26576Y-40572D01*
X26682Y-40892D01*
X26941Y-40892D02*
X26789Y-40892D01*
X26789Y-40572D01*
X27246Y-40572D02*
X27353Y-40892D01*
X27460Y-40572D01*
X27749Y-40862D02*
X27734Y-40877D01*
X27688Y-40892D01*
X27658Y-40892D01*
X27612Y-40877D01*
X27581Y-40847D01*
X27566Y-40816D01*
X27551Y-40755D01*
X27551Y-40709D01*
X27566Y-40648D01*
X27581Y-40618D01*
X27612Y-40588D01*
X27658Y-40572D01*
X27688Y-40572D01*
X27734Y-40588D01*
X27749Y-40603D01*
X27871Y-40801D02*
X28023Y-40801D01*
X27840Y-40892D02*
X27947Y-40572D01*
X28054Y-40892D01*
X28374Y-40679D02*
X28450Y-40892D01*
X28526Y-40679D01*
X28816Y-40892D02*
X28633Y-40892D01*
X28724Y-40892D02*
X28724Y-40572D01*
X28694Y-40618D01*
X28663Y-40648D01*
X28633Y-40664D01*
X28953Y-40862D02*
X28968Y-40877D01*
X28953Y-40892D01*
X28938Y-40877D01*
X28953Y-40862D01*
X28953Y-40892D01*
X29166Y-40572D02*
X29197Y-40572D01*
X29227Y-40588D01*
X29242Y-40603D01*
X29258Y-40633D01*
X29273Y-40694D01*
X29273Y-40770D01*
X29258Y-40831D01*
X29242Y-40862D01*
X29227Y-40877D01*
X29197Y-40892D01*
X29166Y-40892D01*
X29136Y-40877D01*
X29120Y-40862D01*
X29105Y-40831D01*
X29090Y-40770D01*
X29090Y-40694D01*
X29105Y-40633D01*
X29120Y-40603D01*
X29136Y-40588D01*
X29166Y-40572D01*
X35459Y-47309D02*
X35505Y-47309D01*
X35528Y-47320D01*
X35551Y-47343D01*
X35562Y-47389D01*
X35562Y-47469D01*
X35551Y-47515D01*
X35528Y-47538D01*
X35505Y-47549D01*
X35459Y-47549D01*
X35437Y-47538D01*
X35414Y-47515D01*
X35402Y-47469D01*
X35402Y-47389D01*
X35414Y-47343D01*
X35437Y-47320D01*
X35459Y-47309D01*
X35745Y-47423D02*
X35665Y-47423D01*
X35665Y-47549D02*
X35665Y-47309D01*
X35779Y-47309D01*
X35951Y-47423D02*
X35871Y-47423D01*
X35871Y-47549D02*
X35871Y-47309D01*
X35985Y-47309D01*
X36065Y-47538D02*
X36099Y-47549D01*
X36157Y-47549D01*
X36179Y-47538D01*
X36191Y-47526D01*
X36202Y-47503D01*
X36202Y-47480D01*
X36191Y-47458D01*
X36179Y-47446D01*
X36157Y-47435D01*
X36111Y-47423D01*
X36088Y-47412D01*
X36077Y-47400D01*
X36065Y-47378D01*
X36065Y-47355D01*
X36077Y-47332D01*
X36088Y-47320D01*
X36111Y-47309D01*
X36168Y-47309D01*
X36202Y-47320D01*
X36305Y-47423D02*
X36385Y-47423D01*
X36419Y-47549D02*
X36305Y-47549D01*
X36305Y-47309D01*
X36419Y-47309D01*
X36488Y-47309D02*
X36625Y-47309D01*
X36557Y-47549D02*
X36557Y-47309D01*
X36877Y-47480D02*
X36991Y-47480D01*
X36854Y-47549D02*
X36934Y-47309D01*
X37014Y-47549D01*
X37094Y-47549D02*
X37094Y-47309D01*
X37151Y-47309D01*
X37185Y-47320D01*
X37208Y-47343D01*
X37219Y-47366D01*
X37231Y-47412D01*
X37231Y-47446D01*
X37219Y-47492D01*
X37208Y-47515D01*
X37185Y-47538D01*
X37151Y-47549D01*
X37094Y-47549D01*
X37402Y-47309D02*
X37402Y-47480D01*
X37391Y-47515D01*
X37368Y-47538D01*
X37334Y-47549D01*
X37311Y-47549D01*
X37688Y-47332D02*
X37699Y-47320D01*
X37722Y-47309D01*
X37779Y-47309D01*
X37802Y-47320D01*
X37814Y-47332D01*
X37825Y-47355D01*
X37825Y-47378D01*
X37814Y-47412D01*
X37677Y-47549D01*
X37825Y-47549D01*
X35459Y-40222D02*
X35505Y-40222D01*
X35528Y-40234D01*
X35551Y-40257D01*
X35562Y-40302D01*
X35562Y-40382D01*
X35551Y-40428D01*
X35528Y-40451D01*
X35505Y-40462D01*
X35459Y-40462D01*
X35437Y-40451D01*
X35414Y-40428D01*
X35402Y-40382D01*
X35402Y-40302D01*
X35414Y-40257D01*
X35437Y-40234D01*
X35459Y-40222D01*
X35745Y-40337D02*
X35665Y-40337D01*
X35665Y-40462D02*
X35665Y-40222D01*
X35779Y-40222D01*
X35951Y-40337D02*
X35871Y-40337D01*
X35871Y-40462D02*
X35871Y-40222D01*
X35985Y-40222D01*
X36065Y-40451D02*
X36099Y-40462D01*
X36157Y-40462D01*
X36179Y-40451D01*
X36191Y-40440D01*
X36202Y-40417D01*
X36202Y-40394D01*
X36191Y-40371D01*
X36179Y-40360D01*
X36157Y-40348D01*
X36111Y-40337D01*
X36088Y-40325D01*
X36077Y-40314D01*
X36065Y-40291D01*
X36065Y-40268D01*
X36077Y-40245D01*
X36088Y-40234D01*
X36111Y-40222D01*
X36168Y-40222D01*
X36202Y-40234D01*
X36305Y-40337D02*
X36385Y-40337D01*
X36419Y-40462D02*
X36305Y-40462D01*
X36305Y-40222D01*
X36419Y-40222D01*
X36488Y-40222D02*
X36625Y-40222D01*
X36557Y-40462D02*
X36557Y-40222D01*
X36877Y-40394D02*
X36991Y-40394D01*
X36854Y-40462D02*
X36934Y-40222D01*
X37014Y-40462D01*
X37094Y-40462D02*
X37094Y-40222D01*
X37151Y-40222D01*
X37185Y-40234D01*
X37208Y-40257D01*
X37219Y-40280D01*
X37231Y-40325D01*
X37231Y-40360D01*
X37219Y-40405D01*
X37208Y-40428D01*
X37185Y-40451D01*
X37151Y-40462D01*
X37094Y-40462D01*
X37402Y-40222D02*
X37402Y-40394D01*
X37391Y-40428D01*
X37368Y-40451D01*
X37334Y-40462D01*
X37311Y-40462D01*
X37825Y-40462D02*
X37688Y-40462D01*
X37757Y-40462D02*
X37757Y-40222D01*
X37734Y-40257D01*
X37711Y-40280D01*
X37688Y-40291D01*
G54D11*
X34476Y-42559D02*
X35602Y-42559D01*
X35602Y-42559D02*
X35602Y-43976D01*
X35602Y-43976D02*
X34476Y-43976D01*
X34473Y-43967D02*
X34473Y-42567D01*
X34873Y-43717D02*
G75*
G03X34873Y-43717I-150J0D01*
G74*
G01*
G54D14*
X27059Y-44188D02*
X28084Y-44188D01*
X28084Y-44188D02*
X28084Y-44788D01*
X28084Y-44788D02*
X27059Y-44788D01*
X27059Y-44788D02*
X27059Y-44188D01*
X27059Y-42219D02*
X28084Y-42219D01*
X28084Y-42219D02*
X28084Y-42819D01*
X28084Y-42819D02*
X27059Y-42819D01*
X27059Y-42819D02*
X27059Y-42219D01*
G54D15*
X29071Y-43503D02*
G75*
G03X29071Y-43503I-55J0D01*
G74*
G01*
G54D16*
X28862Y-44527D02*
X29055Y-44527D01*
X29055Y-44527D02*
X29055Y-44094D01*
X28862Y-44094D02*
X29055Y-44094D01*
X28862Y-44527D02*
X28862Y-44094D01*
X29362Y-44527D02*
X29555Y-44527D01*
X29555Y-44527D02*
X29555Y-44094D01*
X29362Y-44094D02*
X29555Y-44094D01*
X29362Y-44527D02*
X29362Y-44094D01*
X29862Y-44527D02*
X30055Y-44527D01*
X30055Y-44527D02*
X30055Y-44094D01*
X29862Y-44094D02*
X30055Y-44094D01*
X29862Y-44527D02*
X29862Y-44094D01*
X30362Y-44527D02*
X30555Y-44527D01*
X30555Y-44527D02*
X30555Y-44094D01*
X30362Y-44094D02*
X30555Y-44094D01*
X30362Y-44527D02*
X30362Y-44094D01*
X31361Y-42520D02*
X31554Y-42520D01*
X31554Y-42520D02*
X31554Y-42087D01*
X31361Y-42087D02*
X31554Y-42087D01*
X31361Y-42520D02*
X31361Y-42087D01*
X30861Y-42520D02*
X31054Y-42520D01*
X31054Y-42520D02*
X31054Y-42087D01*
X30861Y-42087D02*
X31054Y-42087D01*
X30861Y-42520D02*
X30861Y-42087D01*
X30362Y-42520D02*
X30555Y-42520D01*
X30555Y-42520D02*
X30555Y-42087D01*
X30362Y-42087D02*
X30555Y-42087D01*
X30362Y-42520D02*
X30362Y-42087D01*
X29862Y-42520D02*
X30055Y-42520D01*
X30055Y-42520D02*
X30055Y-42087D01*
X29862Y-42087D02*
X30055Y-42087D01*
X29862Y-42520D02*
X29862Y-42087D01*
X30861Y-44527D02*
X31054Y-44527D01*
X31054Y-44527D02*
X31054Y-44094D01*
X30861Y-44094D02*
X31054Y-44094D01*
X30861Y-44527D02*
X30861Y-44094D01*
X31361Y-44527D02*
X31554Y-44527D01*
X31554Y-44527D02*
X31554Y-44094D01*
X31361Y-44094D02*
X31554Y-44094D01*
X31361Y-44527D02*
X31361Y-44094D01*
X31861Y-44527D02*
X32054Y-44527D01*
X32054Y-44527D02*
X32054Y-44094D01*
X31861Y-44094D02*
X32054Y-44094D01*
X31861Y-44527D02*
X31861Y-44094D01*
X32361Y-44527D02*
X32554Y-44527D01*
X32554Y-44527D02*
X32554Y-44094D01*
X32361Y-44094D02*
X32554Y-44094D01*
X32361Y-44527D02*
X32361Y-44094D01*
X32361Y-42520D02*
X32554Y-42520D01*
X32554Y-42520D02*
X32554Y-42087D01*
X32361Y-42087D02*
X32554Y-42087D01*
X32361Y-42520D02*
X32361Y-42087D01*
X31861Y-42520D02*
X32054Y-42520D01*
X32054Y-42520D02*
X32054Y-42087D01*
X31861Y-42087D02*
X32054Y-42087D01*
X31861Y-42520D02*
X31861Y-42087D01*
X29362Y-42520D02*
X29555Y-42520D01*
X29555Y-42520D02*
X29555Y-42087D01*
X29362Y-42087D02*
X29555Y-42087D01*
X29362Y-42520D02*
X29362Y-42087D01*
X28862Y-42520D02*
X29055Y-42520D01*
X29055Y-42520D02*
X29055Y-42087D01*
X28862Y-42087D02*
X29055Y-42087D01*
X28862Y-42520D02*
X28862Y-42087D01*
G54D17*
X32652Y-44055D02*
X28764Y-44055D01*
X28764Y-44055D02*
X28764Y-43858D01*
X28764Y-43858D02*
X28764Y-42559D01*
X28764Y-42559D02*
X32652Y-42559D01*
X32652Y-43759D02*
X28764Y-43759D01*
X32652Y-42559D02*
X32652Y-43858D01*
X32652Y-43858D02*
X32652Y-44055D01*
G54D18*
X33110Y-42755D02*
X33110Y-43858D01*
X33110Y-43858D02*
X33818Y-43858D01*
X33818Y-43858D02*
X33818Y-42755D01*
X33818Y-42755D02*
X33110Y-42755D01*
X32244Y-46417D02*
X32244Y-45314D01*
X32244Y-45314D02*
X31535Y-45314D01*
X31535Y-45314D02*
X31535Y-46417D01*
X31535Y-46417D02*
X32244Y-46417D01*
X33897Y-45314D02*
X33897Y-46417D01*
X33897Y-46417D02*
X34606Y-46417D01*
X34606Y-46417D02*
X34606Y-45314D01*
X34606Y-45314D02*
X33897Y-45314D01*
X32716Y-45314D02*
X32716Y-46417D01*
X32716Y-46417D02*
X33425Y-46417D01*
X33425Y-46417D02*
X33425Y-45314D01*
X33425Y-45314D02*
X32716Y-45314D01*
X30354Y-45314D02*
X30354Y-46417D01*
X30354Y-46417D02*
X31062Y-46417D01*
X31062Y-46417D02*
X31062Y-45314D01*
X31062Y-45314D02*
X30354Y-45314D01*
X23188Y-43858D02*
X23188Y-42755D01*
X23188Y-42755D02*
X22480Y-42755D01*
X22480Y-42755D02*
X22480Y-43858D01*
X22480Y-43858D02*
X23188Y-43858D01*
G54D19*
X37578Y-41299D02*
X36870Y-41299D01*
X37578Y-41299D02*
G75*
G03X37578Y-41299I-354J0D01*
G74*
G01*
X37795Y-43503D02*
X37795Y-40748D01*
X37795Y-40748D02*
X36141Y-40748D01*
X36141Y-43503D02*
X37795Y-43503D01*
X36141Y-43503D02*
X36141Y-40748D01*
X37578Y-44842D02*
X36870Y-44842D01*
X37578Y-44842D02*
G75*
G03X37578Y-44842I-354J0D01*
G74*
G01*
X37795Y-47047D02*
X37795Y-44291D01*
X37795Y-44291D02*
X36141Y-44291D01*
X36141Y-47047D02*
X37795Y-47047D01*
X36141Y-47047D02*
X36141Y-44291D01*
G54D17*
X23459Y-42607D02*
X25359Y-42607D01*
X25359Y-42607D02*
X25359Y-44007D01*
X25359Y-44007D02*
X23459Y-44007D01*
X23459Y-44007D02*
X23459Y-42607D01*
X23859Y-43757D02*
G75*
G03X23859Y-43757I-149J0D01*
G74*
G01*
G54D13*
X34120Y-43489D02*
X34314Y-43489D01*
X34337Y-43478D01*
X34349Y-43467D01*
X34360Y-43444D01*
X34360Y-43398D01*
X34349Y-43375D01*
X34337Y-43364D01*
X34314Y-43352D01*
X34120Y-43352D01*
X34120Y-43261D02*
X34120Y-43112D01*
X34211Y-43192D01*
X34211Y-43158D01*
X34223Y-43135D01*
X34234Y-43124D01*
X34257Y-43112D01*
X34314Y-43112D01*
X34337Y-43124D01*
X34349Y-43135D01*
X34360Y-43158D01*
X34360Y-43227D01*
X34349Y-43249D01*
X34337Y-43261D01*
X26903Y-44550D02*
X26892Y-44572D01*
X26869Y-44595D01*
X26834Y-44630D01*
X26823Y-44652D01*
X26823Y-44675D01*
X26880Y-44664D02*
X26869Y-44687D01*
X26846Y-44710D01*
X26800Y-44721D01*
X26720Y-44721D01*
X26674Y-44710D01*
X26652Y-44687D01*
X26640Y-44664D01*
X26640Y-44618D01*
X26652Y-44595D01*
X26674Y-44572D01*
X26720Y-44561D01*
X26800Y-44561D01*
X26846Y-44572D01*
X26869Y-44595D01*
X26880Y-44618D01*
X26880Y-44664D01*
X26663Y-44470D02*
X26652Y-44458D01*
X26640Y-44435D01*
X26640Y-44378D01*
X26652Y-44355D01*
X26663Y-44344D01*
X26686Y-44332D01*
X26709Y-44332D01*
X26743Y-44344D01*
X26880Y-44481D01*
X26880Y-44332D01*
X26903Y-42581D02*
X26892Y-42604D01*
X26869Y-42627D01*
X26834Y-42661D01*
X26823Y-42684D01*
X26823Y-42707D01*
X26880Y-42695D02*
X26869Y-42718D01*
X26846Y-42741D01*
X26800Y-42752D01*
X26720Y-42752D01*
X26674Y-42741D01*
X26652Y-42718D01*
X26640Y-42695D01*
X26640Y-42650D01*
X26652Y-42627D01*
X26674Y-42604D01*
X26720Y-42592D01*
X26800Y-42592D01*
X26846Y-42604D01*
X26869Y-42627D01*
X26880Y-42650D01*
X26880Y-42695D01*
X26880Y-42364D02*
X26880Y-42501D01*
X26880Y-42432D02*
X26640Y-42432D01*
X26674Y-42455D01*
X26697Y-42478D01*
X26709Y-42501D01*
X28411Y-43489D02*
X28606Y-43489D01*
X28629Y-43478D01*
X28640Y-43467D01*
X28651Y-43444D01*
X28651Y-43398D01*
X28640Y-43375D01*
X28629Y-43364D01*
X28606Y-43352D01*
X28411Y-43352D01*
X28434Y-43249D02*
X28423Y-43238D01*
X28411Y-43215D01*
X28411Y-43158D01*
X28423Y-43135D01*
X28434Y-43124D01*
X28457Y-43112D01*
X28480Y-43112D01*
X28514Y-43124D01*
X28651Y-43261D01*
X28651Y-43112D01*
X33424Y-42605D02*
X33413Y-42616D01*
X33378Y-42628D01*
X33355Y-42628D01*
X33321Y-42616D01*
X33298Y-42593D01*
X33287Y-42571D01*
X33275Y-42525D01*
X33275Y-42491D01*
X33287Y-42445D01*
X33298Y-42422D01*
X33321Y-42399D01*
X33355Y-42388D01*
X33378Y-42388D01*
X33413Y-42399D01*
X33424Y-42411D01*
X33641Y-42388D02*
X33527Y-42388D01*
X33515Y-42502D01*
X33527Y-42491D01*
X33550Y-42479D01*
X33607Y-42479D01*
X33630Y-42491D01*
X33641Y-42502D01*
X33653Y-42525D01*
X33653Y-42582D01*
X33641Y-42605D01*
X33630Y-42616D01*
X33607Y-42628D01*
X33550Y-42628D01*
X33527Y-42616D01*
X33515Y-42605D01*
X31735Y-46739D02*
X31724Y-46750D01*
X31689Y-46762D01*
X31666Y-46762D01*
X31632Y-46750D01*
X31609Y-46727D01*
X31598Y-46704D01*
X31586Y-46659D01*
X31586Y-46624D01*
X31598Y-46579D01*
X31609Y-46556D01*
X31632Y-46533D01*
X31666Y-46522D01*
X31689Y-46522D01*
X31724Y-46533D01*
X31735Y-46544D01*
X31964Y-46762D02*
X31826Y-46762D01*
X31895Y-46762D02*
X31895Y-46522D01*
X31872Y-46556D01*
X31849Y-46579D01*
X31826Y-46590D01*
X32112Y-46522D02*
X32135Y-46522D01*
X32158Y-46533D01*
X32169Y-46544D01*
X32181Y-46567D01*
X32192Y-46613D01*
X32192Y-46670D01*
X32181Y-46716D01*
X32169Y-46739D01*
X32158Y-46750D01*
X32135Y-46762D01*
X32112Y-46762D01*
X32089Y-46750D01*
X32078Y-46739D01*
X32066Y-46716D01*
X32055Y-46670D01*
X32055Y-46613D01*
X32066Y-46567D01*
X32078Y-46544D01*
X32089Y-46533D01*
X32112Y-46522D01*
X34097Y-46739D02*
X34086Y-46750D01*
X34051Y-46762D01*
X34029Y-46762D01*
X33994Y-46750D01*
X33971Y-46727D01*
X33960Y-46704D01*
X33949Y-46659D01*
X33949Y-46624D01*
X33960Y-46579D01*
X33971Y-46556D01*
X33994Y-46533D01*
X34029Y-46522D01*
X34051Y-46522D01*
X34086Y-46533D01*
X34097Y-46544D01*
X34326Y-46762D02*
X34189Y-46762D01*
X34257Y-46762D02*
X34257Y-46522D01*
X34234Y-46556D01*
X34211Y-46579D01*
X34189Y-46590D01*
X34554Y-46762D02*
X34417Y-46762D01*
X34486Y-46762D02*
X34486Y-46522D01*
X34463Y-46556D01*
X34440Y-46579D01*
X34417Y-46590D01*
X32916Y-46762D02*
X32836Y-46647D01*
X32779Y-46762D02*
X32779Y-46522D01*
X32870Y-46522D01*
X32893Y-46533D01*
X32905Y-46544D01*
X32916Y-46567D01*
X32916Y-46602D01*
X32905Y-46624D01*
X32893Y-46636D01*
X32870Y-46647D01*
X32779Y-46647D01*
X32996Y-46522D02*
X33145Y-46522D01*
X33065Y-46613D01*
X33099Y-46613D01*
X33122Y-46624D01*
X33133Y-46636D01*
X33145Y-46659D01*
X33145Y-46716D01*
X33133Y-46739D01*
X33122Y-46750D01*
X33099Y-46762D01*
X33030Y-46762D01*
X33008Y-46750D01*
X32996Y-46739D01*
X33225Y-46522D02*
X33373Y-46522D01*
X33293Y-46613D01*
X33328Y-46613D01*
X33350Y-46624D01*
X33362Y-46636D01*
X33373Y-46659D01*
X33373Y-46716D01*
X33362Y-46739D01*
X33350Y-46750D01*
X33328Y-46762D01*
X33259Y-46762D01*
X33236Y-46750D01*
X33225Y-46739D01*
X30554Y-46762D02*
X30474Y-46647D01*
X30417Y-46762D02*
X30417Y-46522D01*
X30508Y-46522D01*
X30531Y-46533D01*
X30542Y-46544D01*
X30554Y-46567D01*
X30554Y-46602D01*
X30542Y-46624D01*
X30531Y-46636D01*
X30508Y-46647D01*
X30417Y-46647D01*
X30634Y-46522D02*
X30782Y-46522D01*
X30702Y-46613D01*
X30737Y-46613D01*
X30760Y-46624D01*
X30771Y-46636D01*
X30782Y-46659D01*
X30782Y-46716D01*
X30771Y-46739D01*
X30760Y-46750D01*
X30737Y-46762D01*
X30668Y-46762D01*
X30645Y-46750D01*
X30634Y-46739D01*
X30988Y-46602D02*
X30988Y-46762D01*
X30931Y-46510D02*
X30874Y-46682D01*
X31022Y-46682D01*
X22794Y-42605D02*
X22783Y-42616D01*
X22748Y-42628D01*
X22726Y-42628D01*
X22691Y-42616D01*
X22668Y-42593D01*
X22657Y-42571D01*
X22646Y-42525D01*
X22646Y-42491D01*
X22657Y-42445D01*
X22668Y-42422D01*
X22691Y-42399D01*
X22726Y-42388D01*
X22748Y-42388D01*
X22783Y-42399D01*
X22794Y-42411D01*
X22931Y-42491D02*
X22908Y-42479D01*
X22897Y-42468D01*
X22886Y-42445D01*
X22886Y-42433D01*
X22897Y-42411D01*
X22908Y-42399D01*
X22931Y-42388D01*
X22977Y-42388D01*
X23000Y-42399D01*
X23011Y-42411D01*
X23023Y-42433D01*
X23023Y-42445D01*
X23011Y-42468D01*
X23000Y-42479D01*
X22977Y-42491D01*
X22931Y-42491D01*
X22908Y-42502D01*
X22897Y-42513D01*
X22886Y-42536D01*
X22886Y-42582D01*
X22897Y-42605D01*
X22908Y-42616D01*
X22931Y-42628D01*
X22977Y-42628D01*
X23000Y-42616D01*
X23011Y-42605D01*
X23023Y-42582D01*
X23023Y-42536D01*
X23011Y-42513D01*
X23000Y-42502D01*
X22977Y-42491D01*
X25459Y-43489D02*
X25653Y-43489D01*
X25676Y-43478D01*
X25687Y-43467D01*
X25699Y-43444D01*
X25699Y-43398D01*
X25687Y-43375D01*
X25676Y-43364D01*
X25653Y-43352D01*
X25459Y-43352D01*
X25699Y-43112D02*
X25699Y-43249D01*
X25699Y-43181D02*
X25459Y-43181D01*
X25493Y-43204D01*
X25516Y-43227D01*
X25527Y-43249D01*
%LPC*%
G54D20*
X34663Y-44367D03*
X34913Y-44367D03*
X35173Y-44367D03*
X35423Y-44367D03*
X35423Y-42167D03*
X35168Y-42167D03*
X34913Y-42167D03*
X34658Y-42167D03*
G54D21*
X27559Y-44988D03*
X27184Y-43988D03*
X27934Y-43988D03*
X27559Y-43019D03*
X27184Y-42019D03*
X27934Y-42019D03*
G54D22*
X28958Y-44330D03*
X29458Y-44330D03*
X29958Y-44330D03*
X30458Y-44330D03*
X30958Y-44330D03*
X31458Y-44330D03*
X31958Y-44330D03*
X32458Y-44330D03*
X32458Y-42284D03*
X31958Y-42284D03*
X31458Y-42284D03*
X30958Y-42284D03*
X30458Y-42284D03*
X29958Y-42284D03*
X29458Y-42284D03*
X28958Y-42284D03*
G54D23*
X33464Y-42972D03*
X33464Y-43642D03*
X31889Y-46201D03*
X31889Y-45531D03*
X34251Y-45531D03*
X34251Y-46201D03*
X33070Y-45531D03*
X33070Y-46201D03*
X30708Y-45531D03*
X30708Y-46201D03*
X22834Y-43642D03*
X22834Y-42972D03*
G54D24*
X37220Y-42125D03*
X36220Y-43125D03*
G54D25*
X36220Y-41125D03*
G54D24*
X37220Y-45669D03*
X36220Y-46669D03*
G54D25*
X36220Y-44669D03*
G54D20*
X23649Y-44407D03*
X23899Y-44407D03*
X24159Y-44407D03*
X24409Y-44407D03*
X24669Y-44407D03*
X24924Y-44407D03*
X25179Y-44407D03*
X25179Y-42207D03*
X24924Y-42207D03*
X24669Y-42207D03*
X24409Y-42207D03*
X24154Y-42207D03*
X23899Y-42207D03*
X23644Y-42207D03*
M02*
