M48
INCH,TZ
T1C0.025
T2C0.040
T3C0.049
T4C0.051
%
G90
G05
T1
X011114Y-012614
X012787Y-018032
X012986Y-015227
X013090Y-012531
X014423Y-010519
X014781Y-016447
X014814Y-012719
X015244Y-011004
X015673Y-012568
X016281Y-016601
X016297Y-012547
X018160Y-012674
X018507Y-016419
X018933Y-014725
X019427Y-012398
X021358Y-015602
T2
X011205Y-014567
X012205Y-013567
X012205Y-015567
X016217Y-008858
X017217Y-008858
X017307Y-018110
X018217Y-008858
X018307Y-019110
X019217Y-008858
X019307Y-018110
X020850Y-018110
X021850Y-019110
X022850Y-018110
X024394Y-018110
X025394Y-019110
X026394Y-018110
X028224Y-018996
X029224Y-018996
X030224Y-018996
X031224Y-018996
T3
X023677Y-011815
X023677Y-013854
X024697Y-010051
X024697Y-015618
X025315Y-012835
X026461Y-009031
X026461Y-016638
X028500Y-009031
X028500Y-016638
X029646Y-012835
X030264Y-010051
X030264Y-015618
X031283Y-011815
X031283Y-013854
T4
X011575Y-019134
X013543Y-019134
X015512Y-019134
T0
M30
