G04 (created by PCBNEW (2013-03-31 BZR 4008)-stable) date 2013-10-21 1:47:18 PM*
%MOIN*%
G04 Gerber Fmt 3.4, Leading zero omitted, Abs format*
%FSLAX34Y34*%
G01*
G70*
G90*
G04 APERTURE LIST*
%ADD10C,0.006*%
%ADD11C,0.0787*%
%ADD12R,0.0394X0.0276*%
%ADD13R,0.055X0.045*%
%ADD14R,0.045X0.055*%
%ADD15R,0.0787X0.0787*%
%ADD16R,0.0236X0.0866*%
%ADD17C,0.0787402*%
%ADD18C,0.045*%
%ADD19C,0.012*%
%ADD20C,0.014*%
%ADD21C,0.01*%
G04 APERTURE END LIST*
G54D10*
G54D11*
X13543Y-19133D03*
X11574Y-19133D03*
X15511Y-19133D03*
G54D12*
X12114Y-11712D03*
X11114Y-12087D03*
X11114Y-11337D03*
G54D13*
X16141Y-15126D03*
X16141Y-15976D03*
X16141Y-13157D03*
X16141Y-14007D03*
X17224Y-10858D03*
X17224Y-10008D03*
G54D14*
X26543Y-15157D03*
X27393Y-15157D03*
X26543Y-13976D03*
X27393Y-13976D03*
X26543Y-12795D03*
X27393Y-12795D03*
X26543Y-11614D03*
X27393Y-11614D03*
X26543Y-10433D03*
X27393Y-10433D03*
X12960Y-11515D03*
X13810Y-11515D03*
X11189Y-9547D03*
X12039Y-9547D03*
X12960Y-9547D03*
X13810Y-9547D03*
G54D13*
X18208Y-10858D03*
X18208Y-10008D03*
X21358Y-14141D03*
X21358Y-14991D03*
X14665Y-17094D03*
X14665Y-17944D03*
G54D14*
X12960Y-10531D03*
X13810Y-10531D03*
G54D13*
X13582Y-17944D03*
X13582Y-17094D03*
G54D14*
X11189Y-10531D03*
X12039Y-10531D03*
X12075Y-8562D03*
X12925Y-8562D03*
G54D15*
X19216Y-8858D03*
G54D11*
X18216Y-8858D03*
X17216Y-8858D03*
X16216Y-8858D03*
G54D16*
X17200Y-15589D03*
X17700Y-15589D03*
X18200Y-15589D03*
X18700Y-15589D03*
X19200Y-15589D03*
X19700Y-15589D03*
X20200Y-15589D03*
X20200Y-13543D03*
X19700Y-13543D03*
X19200Y-13543D03*
X18700Y-13543D03*
X18200Y-13543D03*
X17700Y-13543D03*
X17200Y-13543D03*
G54D17*
X23677Y-11814D03*
X24696Y-10051D03*
X26460Y-9031D03*
X28500Y-9031D03*
X30263Y-10051D03*
X31283Y-11814D03*
X29645Y-12834D03*
X25314Y-12834D03*
X23677Y-13854D03*
X24696Y-15618D03*
X26460Y-16637D03*
X28500Y-16637D03*
X30263Y-15618D03*
X31283Y-13854D03*
G54D12*
X23334Y-8759D03*
X22334Y-9134D03*
X22334Y-8384D03*
G54D14*
X22311Y-9940D03*
X23161Y-9940D03*
X24378Y-8661D03*
X25228Y-8661D03*
X21389Y-12007D03*
X20539Y-12007D03*
X20539Y-9940D03*
X21389Y-9940D03*
X21389Y-10925D03*
X20539Y-10925D03*
X20539Y-8858D03*
X21389Y-8858D03*
G54D16*
X15316Y-13543D03*
X14816Y-13543D03*
X14316Y-13543D03*
X13816Y-13543D03*
X13816Y-15589D03*
X14316Y-15589D03*
X14816Y-15589D03*
X15316Y-15589D03*
G54D11*
X18307Y-19110D03*
X17307Y-18110D03*
G54D15*
X19307Y-18110D03*
G54D11*
X21850Y-19110D03*
X20850Y-18110D03*
G54D15*
X22850Y-18110D03*
G54D11*
X25393Y-19110D03*
X24393Y-18110D03*
G54D15*
X26393Y-18110D03*
G54D11*
X11204Y-14566D03*
X12204Y-13566D03*
G54D15*
X12204Y-15566D03*
G54D13*
X12106Y-17944D03*
X12106Y-17094D03*
X11023Y-17944D03*
X11023Y-17094D03*
X16141Y-10858D03*
X16141Y-10008D03*
G54D15*
X28224Y-18996D03*
G54D11*
X29224Y-18996D03*
X30224Y-18996D03*
X31224Y-18996D03*
G54D18*
X18933Y-14725D03*
X15673Y-12567D03*
X13090Y-12531D03*
X19427Y-12397D03*
X12986Y-15227D03*
X18506Y-16418D03*
X16296Y-12547D03*
X21358Y-15602D03*
X14422Y-10518D03*
X16280Y-16601D03*
X12787Y-18032D03*
X11114Y-12614D03*
X15243Y-11004D03*
X18160Y-12674D03*
X14813Y-12718D03*
X14781Y-16446D03*
G54D19*
X29224Y-19089D02*
X29224Y-18996D01*
X28724Y-19589D02*
X29224Y-19089D01*
X25873Y-19589D02*
X28724Y-19589D01*
X25393Y-19110D02*
X25873Y-19589D01*
X12169Y-19728D02*
X11574Y-19133D01*
X24775Y-19728D02*
X12169Y-19728D01*
X25393Y-19110D02*
X24775Y-19728D01*
G54D20*
X15316Y-15194D02*
X15316Y-15589D01*
X15385Y-15126D02*
X15316Y-15194D01*
X16141Y-15126D02*
X15385Y-15126D01*
X13721Y-8221D02*
X13380Y-8562D01*
X18580Y-8221D02*
X13721Y-8221D01*
X19216Y-8858D02*
X18580Y-8221D01*
X12925Y-8562D02*
X13380Y-8562D01*
G54D19*
X18503Y-14763D02*
X18533Y-14793D01*
X16535Y-14763D02*
X18503Y-14763D01*
X16173Y-15126D02*
X16535Y-14763D01*
X16141Y-15126D02*
X16173Y-15126D01*
X18700Y-14960D02*
X18700Y-15589D01*
X18533Y-14793D02*
X18700Y-14960D01*
G54D20*
X18864Y-14793D02*
X18933Y-14725D01*
X18533Y-14793D02*
X18864Y-14793D01*
G54D19*
X13614Y-12038D02*
X13810Y-11842D01*
X12891Y-12038D02*
X13614Y-12038D01*
X10543Y-14386D02*
X12891Y-12038D01*
X10543Y-18253D02*
X10543Y-14386D01*
X10770Y-18480D02*
X10543Y-18253D01*
X15983Y-18480D02*
X10770Y-18480D01*
X16950Y-17513D02*
X15983Y-18480D01*
X17637Y-17513D02*
X16950Y-17513D01*
X18853Y-18729D02*
X17637Y-17513D01*
X21250Y-18729D02*
X18853Y-18729D01*
X21466Y-18514D02*
X21250Y-18729D01*
X22122Y-18514D02*
X21466Y-18514D01*
X22311Y-18703D02*
X22122Y-18514D01*
X23332Y-18703D02*
X22311Y-18703D01*
X23449Y-18586D02*
X23332Y-18703D01*
X23449Y-17632D02*
X23449Y-18586D01*
X22791Y-16973D02*
X23449Y-17632D01*
X19951Y-16973D02*
X22791Y-16973D01*
X19200Y-16223D02*
X19951Y-16973D01*
X14316Y-12348D02*
X13810Y-11842D01*
X14316Y-13543D02*
X14316Y-12348D01*
X13810Y-11842D02*
X13810Y-11515D01*
X19200Y-15589D02*
X19200Y-16223D01*
X27393Y-15704D02*
X27393Y-15157D01*
X26460Y-16637D02*
X27393Y-15704D01*
X15316Y-13543D02*
X15316Y-12910D01*
X15659Y-12567D02*
X15673Y-12567D01*
X15316Y-12910D02*
X15659Y-12567D01*
X18700Y-14074D02*
X18700Y-13543D01*
X18405Y-14370D02*
X18700Y-14074D01*
X16633Y-14370D02*
X18405Y-14370D01*
X16271Y-14007D02*
X16633Y-14370D01*
X16141Y-14007D02*
X16271Y-14007D01*
G54D20*
X20884Y-11430D02*
X21389Y-10925D01*
X20195Y-11430D02*
X20884Y-11430D01*
X19741Y-10976D02*
X20195Y-11430D01*
X19741Y-10522D02*
X19741Y-10976D01*
X18216Y-8997D02*
X19741Y-10522D01*
X18216Y-8858D02*
X18216Y-8997D01*
G54D19*
X13816Y-14210D02*
X13816Y-13543D01*
X14074Y-14468D02*
X13816Y-14210D01*
X15551Y-14468D02*
X14074Y-14468D01*
X16012Y-14007D02*
X15551Y-14468D01*
X16141Y-14007D02*
X16012Y-14007D01*
G54D20*
X13440Y-12880D02*
X13090Y-12531D01*
X13816Y-12880D02*
X13440Y-12880D01*
X13816Y-13543D02*
X13816Y-12880D01*
G54D19*
X19724Y-12397D02*
X20114Y-12007D01*
X19427Y-12397D02*
X19724Y-12397D01*
X20539Y-12007D02*
X20114Y-12007D01*
X13349Y-15589D02*
X12986Y-15227D01*
X13816Y-15589D02*
X13349Y-15589D01*
X18311Y-16223D02*
X18506Y-16418D01*
X18200Y-16223D02*
X18311Y-16223D01*
X18200Y-15589D02*
X18200Y-16223D01*
G54D20*
X21907Y-8795D02*
X21844Y-8858D01*
X21907Y-8384D02*
X21907Y-8795D01*
X21389Y-8858D02*
X21844Y-8858D01*
X22334Y-8384D02*
X21907Y-8384D01*
X13810Y-10531D02*
X14265Y-10531D01*
X13810Y-9547D02*
X13810Y-10052D01*
X16141Y-13157D02*
X16141Y-12702D01*
X16296Y-12547D02*
X16141Y-12702D01*
X21358Y-14991D02*
X21358Y-15602D01*
X14277Y-10520D02*
X14277Y-10518D01*
X14265Y-10531D02*
X14277Y-10520D01*
X14277Y-10518D02*
X13810Y-10052D01*
X16141Y-15976D02*
X16141Y-16431D01*
X16280Y-16570D02*
X16141Y-16431D01*
X16280Y-16601D02*
X16280Y-16570D01*
X26543Y-10433D02*
X26543Y-9927D01*
X22990Y-8156D02*
X22761Y-8384D01*
X24722Y-8156D02*
X22990Y-8156D01*
X25228Y-8661D02*
X24722Y-8156D01*
X22334Y-8384D02*
X22761Y-8384D01*
X26460Y-9845D02*
X26543Y-9927D01*
X26460Y-9031D02*
X26460Y-9845D01*
X26053Y-9031D02*
X25683Y-8661D01*
X26460Y-9031D02*
X26053Y-9031D01*
X25228Y-8661D02*
X25683Y-8661D01*
X12106Y-17944D02*
X12611Y-17944D01*
X13582Y-17944D02*
X13077Y-17944D01*
X12699Y-18032D02*
X12787Y-18032D01*
X12611Y-17944D02*
X12699Y-18032D01*
X12989Y-18032D02*
X13077Y-17944D01*
X12787Y-18032D02*
X12989Y-18032D01*
X14277Y-10518D02*
X14422Y-10518D01*
X11114Y-12614D02*
X11114Y-12087D01*
G54D19*
X17200Y-13543D02*
X17200Y-12910D01*
X17700Y-13543D02*
X17700Y-12910D01*
X17224Y-10858D02*
X17224Y-12910D01*
X17200Y-12910D02*
X17224Y-12910D01*
X17224Y-12910D02*
X17700Y-12910D01*
X12039Y-10531D02*
X12960Y-10531D01*
X12960Y-10531D02*
X12960Y-11515D01*
X25996Y-13854D02*
X26118Y-13976D01*
X23677Y-13854D02*
X25996Y-13854D01*
X26543Y-13976D02*
X26118Y-13976D01*
X27249Y-13270D02*
X26543Y-13976D01*
X27393Y-13270D02*
X27249Y-13270D01*
X27393Y-12795D02*
X27393Y-13270D01*
X27249Y-14451D02*
X26543Y-15157D01*
X27393Y-14451D02*
X27249Y-14451D01*
X27393Y-13976D02*
X27393Y-14451D01*
X25657Y-15618D02*
X26118Y-15157D01*
X24696Y-15618D02*
X25657Y-15618D01*
X26543Y-15157D02*
X26118Y-15157D01*
X13594Y-14956D02*
X14816Y-14956D01*
X12204Y-13566D02*
X13594Y-14956D01*
X14816Y-15589D02*
X14816Y-14956D01*
X16141Y-10858D02*
X15666Y-10858D01*
X15520Y-11004D02*
X15243Y-11004D01*
X15666Y-10858D02*
X15520Y-11004D01*
X11611Y-16082D02*
X11611Y-15566D01*
X11023Y-16669D02*
X11611Y-16082D01*
X11023Y-17094D02*
X11023Y-16669D01*
X12204Y-15566D02*
X11611Y-15566D01*
X20200Y-15589D02*
X20200Y-15906D01*
X19700Y-15589D02*
X19700Y-16223D01*
X26393Y-18110D02*
X25800Y-18110D01*
X23860Y-16170D02*
X20200Y-16170D01*
X25800Y-18110D02*
X23860Y-16170D01*
X20200Y-15906D02*
X20200Y-16170D01*
X20148Y-16223D02*
X19700Y-16223D01*
X20200Y-16170D02*
X20148Y-16223D01*
X19700Y-13543D02*
X20013Y-13543D01*
X20013Y-13543D02*
X20200Y-13543D01*
X18208Y-11780D02*
X18208Y-10858D01*
X19329Y-12901D02*
X18208Y-11780D01*
X19402Y-12901D02*
X19329Y-12901D01*
X20013Y-13512D02*
X19402Y-12901D01*
X20013Y-13543D02*
X20013Y-13512D01*
X17700Y-15589D02*
X17200Y-15589D01*
X22850Y-18110D02*
X22256Y-18110D01*
X17700Y-15589D02*
X17700Y-16223D01*
X21459Y-17312D02*
X22256Y-18110D01*
X18790Y-17312D02*
X21459Y-17312D01*
X17700Y-16223D02*
X18790Y-17312D01*
X21389Y-9940D02*
X21850Y-9940D01*
X21850Y-9940D02*
X22311Y-9940D01*
X22318Y-9472D02*
X22334Y-9472D01*
X21850Y-9940D02*
X22318Y-9472D01*
X22334Y-9134D02*
X22334Y-9472D01*
X23161Y-10661D02*
X23161Y-9940D01*
X21814Y-12007D02*
X23161Y-10661D01*
X21389Y-12007D02*
X21814Y-12007D01*
X23953Y-9574D02*
X23586Y-9940D01*
X23953Y-8661D02*
X23953Y-9574D01*
X24378Y-8661D02*
X23953Y-8661D01*
X23161Y-9940D02*
X23586Y-9940D01*
X18200Y-13543D02*
X18200Y-12910D01*
X18160Y-12870D02*
X18160Y-12674D01*
X18200Y-12910D02*
X18160Y-12870D01*
X22240Y-12834D02*
X21358Y-13716D01*
X25314Y-12834D02*
X22240Y-12834D01*
X21358Y-14141D02*
X21358Y-13716D01*
X20848Y-14177D02*
X20883Y-14141D01*
X19200Y-14177D02*
X20848Y-14177D01*
X19200Y-13543D02*
X19200Y-14177D01*
X21358Y-14141D02*
X20883Y-14141D01*
X20539Y-8858D02*
X20539Y-9940D01*
X20539Y-10925D02*
X20539Y-9940D01*
X26118Y-11472D02*
X26118Y-11614D01*
X24696Y-10051D02*
X26118Y-11472D01*
X26543Y-11614D02*
X26118Y-11614D01*
X27249Y-10908D02*
X26543Y-11614D01*
X27393Y-10908D02*
X27249Y-10908D01*
X27393Y-10433D02*
X27393Y-10908D01*
X14813Y-12907D02*
X14813Y-12718D01*
X14816Y-12910D02*
X14813Y-12907D01*
X14781Y-16553D02*
X14665Y-16669D01*
X14781Y-16446D02*
X14781Y-16553D01*
X14816Y-13543D02*
X14816Y-12910D01*
X14665Y-17094D02*
X14665Y-16882D01*
X14665Y-16882D02*
X14665Y-16669D01*
X14270Y-16882D02*
X14057Y-17094D01*
X14665Y-16882D02*
X14270Y-16882D01*
X13582Y-17094D02*
X14057Y-17094D01*
X11023Y-17944D02*
X11498Y-17944D01*
X11498Y-17702D02*
X12106Y-17094D01*
X11498Y-17944D02*
X11498Y-17702D01*
X12552Y-16223D02*
X12106Y-16669D01*
X14316Y-16223D02*
X12552Y-16223D01*
X14316Y-15589D02*
X14316Y-16223D01*
X12106Y-17094D02*
X12106Y-16669D01*
X25138Y-11814D02*
X26118Y-12795D01*
X23677Y-11814D02*
X25138Y-11814D01*
X26543Y-12795D02*
X26118Y-12795D01*
X27249Y-12089D02*
X26543Y-12795D01*
X27393Y-12089D02*
X27249Y-12089D01*
X27393Y-11614D02*
X27393Y-12089D01*
X11189Y-9547D02*
X11189Y-10531D01*
X11114Y-10606D02*
X11114Y-11337D01*
X11189Y-10531D02*
X11114Y-10606D01*
X12075Y-8562D02*
X12075Y-9219D01*
X12110Y-9547D02*
X12960Y-9547D01*
X12075Y-9511D02*
X12110Y-9547D01*
X12075Y-9219D02*
X12075Y-9511D01*
X12039Y-9255D02*
X12039Y-9547D01*
X12075Y-9219D02*
X12039Y-9255D01*
X19307Y-18110D02*
X18713Y-18110D01*
X15357Y-17252D02*
X14665Y-17944D01*
X17855Y-17252D02*
X15357Y-17252D01*
X18713Y-18110D02*
X17855Y-17252D01*
X18208Y-10008D02*
X17224Y-10008D01*
X17224Y-10008D02*
X17220Y-10004D01*
X17216Y-10000D02*
X17216Y-8858D01*
X17220Y-10004D02*
X17216Y-10000D01*
X16620Y-10004D02*
X16616Y-10008D01*
X17220Y-10004D02*
X16620Y-10004D01*
X16141Y-10008D02*
X16616Y-10008D01*
G54D10*
G36*
X13473Y-8073D02*
X13342Y-8204D01*
X13328Y-8169D01*
X13269Y-8110D01*
X13191Y-8078D01*
X13108Y-8077D01*
X12658Y-8077D01*
X12581Y-8109D01*
X12522Y-8168D01*
X12490Y-8246D01*
X12490Y-8251D01*
X12490Y-8250D01*
X12461Y-8180D01*
X12407Y-8127D01*
X12337Y-8098D01*
X12262Y-8097D01*
X11812Y-8097D01*
X11742Y-8126D01*
X11689Y-8180D01*
X11660Y-8250D01*
X11659Y-8325D01*
X11659Y-8875D01*
X11688Y-8945D01*
X11742Y-8998D01*
X11812Y-9027D01*
X11825Y-9027D01*
X11825Y-9082D01*
X11776Y-9082D01*
X11706Y-9111D01*
X11653Y-9164D01*
X11624Y-9234D01*
X11624Y-9309D01*
X11624Y-9859D01*
X11653Y-9929D01*
X11706Y-9983D01*
X11776Y-10012D01*
X11851Y-10012D01*
X12301Y-10012D01*
X12371Y-9983D01*
X12425Y-9930D01*
X12454Y-9860D01*
X12454Y-9797D01*
X12545Y-9797D01*
X12545Y-9859D01*
X12574Y-9929D01*
X12628Y-9983D01*
X12697Y-10012D01*
X12773Y-10012D01*
X13223Y-10012D01*
X13293Y-9983D01*
X13346Y-9930D01*
X13353Y-9914D01*
X13374Y-9964D01*
X13444Y-10034D01*
X13456Y-10039D01*
X13444Y-10044D01*
X13374Y-10114D01*
X13353Y-10164D01*
X13346Y-10149D01*
X13293Y-10095D01*
X13223Y-10066D01*
X13148Y-10066D01*
X12698Y-10066D01*
X12628Y-10095D01*
X12574Y-10148D01*
X12545Y-10218D01*
X12545Y-10281D01*
X12454Y-10281D01*
X12454Y-10218D01*
X12425Y-10149D01*
X12371Y-10095D01*
X12302Y-10066D01*
X12226Y-10066D01*
X11776Y-10066D01*
X11706Y-10095D01*
X11653Y-10148D01*
X11624Y-10218D01*
X11624Y-10294D01*
X11624Y-10844D01*
X11653Y-10913D01*
X11706Y-10967D01*
X11776Y-10996D01*
X11851Y-10996D01*
X12301Y-10996D01*
X12371Y-10967D01*
X12425Y-10914D01*
X12454Y-10844D01*
X12454Y-10781D01*
X12545Y-10781D01*
X12545Y-10844D01*
X12574Y-10913D01*
X12628Y-10967D01*
X12697Y-10996D01*
X12710Y-10996D01*
X12710Y-11050D01*
X12698Y-11050D01*
X12628Y-11079D01*
X12574Y-11132D01*
X12545Y-11202D01*
X12545Y-11278D01*
X12545Y-11828D01*
X12574Y-11898D01*
X12626Y-11950D01*
X12501Y-12075D01*
X12501Y-11812D01*
X12501Y-11536D01*
X12472Y-11467D01*
X12418Y-11413D01*
X12349Y-11384D01*
X12273Y-11384D01*
X11879Y-11384D01*
X11809Y-11413D01*
X11756Y-11466D01*
X11727Y-11536D01*
X11727Y-11612D01*
X11727Y-11888D01*
X11756Y-11958D01*
X11809Y-12011D01*
X11879Y-12040D01*
X11954Y-12040D01*
X12348Y-12040D01*
X12418Y-12011D01*
X12472Y-11958D01*
X12501Y-11888D01*
X12501Y-11812D01*
X12501Y-12075D01*
X11604Y-12972D01*
X11604Y-10768D01*
X11604Y-10218D01*
X11575Y-10149D01*
X11521Y-10095D01*
X11452Y-10066D01*
X11439Y-10066D01*
X11439Y-10012D01*
X11451Y-10012D01*
X11521Y-9983D01*
X11575Y-9930D01*
X11604Y-9860D01*
X11604Y-9784D01*
X11604Y-9234D01*
X11575Y-9164D01*
X11521Y-9111D01*
X11452Y-9082D01*
X11376Y-9082D01*
X10926Y-9082D01*
X10856Y-9111D01*
X10803Y-9164D01*
X10774Y-9234D01*
X10774Y-9309D01*
X10774Y-9859D01*
X10803Y-9929D01*
X10856Y-9983D01*
X10926Y-10012D01*
X10939Y-10012D01*
X10939Y-10066D01*
X10926Y-10066D01*
X10856Y-10095D01*
X10803Y-10148D01*
X10774Y-10218D01*
X10774Y-10294D01*
X10774Y-10844D01*
X10803Y-10913D01*
X10856Y-10967D01*
X10864Y-10970D01*
X10864Y-11015D01*
X10809Y-11038D01*
X10756Y-11091D01*
X10727Y-11161D01*
X10727Y-11237D01*
X10727Y-11513D01*
X10756Y-11583D01*
X10809Y-11636D01*
X10879Y-11665D01*
X10954Y-11665D01*
X11348Y-11665D01*
X11418Y-11636D01*
X11472Y-11583D01*
X11501Y-11513D01*
X11501Y-11437D01*
X11501Y-11161D01*
X11472Y-11092D01*
X11418Y-11038D01*
X11364Y-11015D01*
X11364Y-10996D01*
X11451Y-10996D01*
X11521Y-10967D01*
X11575Y-10914D01*
X11604Y-10844D01*
X11604Y-10768D01*
X11604Y-12972D01*
X11561Y-13015D01*
X11561Y-12275D01*
X11561Y-11900D01*
X11523Y-11808D01*
X11452Y-11737D01*
X11361Y-11699D01*
X11261Y-11699D01*
X11226Y-11699D01*
X11164Y-11762D01*
X11164Y-12037D01*
X11498Y-12037D01*
X11561Y-11975D01*
X11561Y-11900D01*
X11561Y-12275D01*
X11561Y-12200D01*
X11498Y-12137D01*
X11164Y-12137D01*
X11164Y-12413D01*
X11226Y-12475D01*
X11261Y-12475D01*
X11361Y-12475D01*
X11452Y-12437D01*
X11523Y-12367D01*
X11561Y-12275D01*
X11561Y-13015D01*
X11064Y-13512D01*
X11064Y-12413D01*
X11064Y-12137D01*
X11064Y-12037D01*
X11064Y-11762D01*
X11001Y-11699D01*
X10966Y-11699D01*
X10867Y-11699D01*
X10775Y-11737D01*
X10705Y-11808D01*
X10667Y-11900D01*
X10667Y-11975D01*
X10729Y-12037D01*
X11064Y-12037D01*
X11064Y-12137D01*
X10729Y-12137D01*
X10667Y-12200D01*
X10667Y-12275D01*
X10705Y-12367D01*
X10775Y-12437D01*
X10867Y-12475D01*
X10966Y-12475D01*
X11001Y-12475D01*
X11064Y-12413D01*
X11064Y-13512D01*
X10435Y-14140D01*
X10435Y-8073D01*
X12598Y-8073D01*
X13473Y-8073D01*
X13473Y-8073D01*
G37*
G54D21*
X13473Y-8073D02*
X13342Y-8204D01*
X13328Y-8169D01*
X13269Y-8110D01*
X13191Y-8078D01*
X13108Y-8077D01*
X12658Y-8077D01*
X12581Y-8109D01*
X12522Y-8168D01*
X12490Y-8246D01*
X12490Y-8251D01*
X12490Y-8250D01*
X12461Y-8180D01*
X12407Y-8127D01*
X12337Y-8098D01*
X12262Y-8097D01*
X11812Y-8097D01*
X11742Y-8126D01*
X11689Y-8180D01*
X11660Y-8250D01*
X11659Y-8325D01*
X11659Y-8875D01*
X11688Y-8945D01*
X11742Y-8998D01*
X11812Y-9027D01*
X11825Y-9027D01*
X11825Y-9082D01*
X11776Y-9082D01*
X11706Y-9111D01*
X11653Y-9164D01*
X11624Y-9234D01*
X11624Y-9309D01*
X11624Y-9859D01*
X11653Y-9929D01*
X11706Y-9983D01*
X11776Y-10012D01*
X11851Y-10012D01*
X12301Y-10012D01*
X12371Y-9983D01*
X12425Y-9930D01*
X12454Y-9860D01*
X12454Y-9797D01*
X12545Y-9797D01*
X12545Y-9859D01*
X12574Y-9929D01*
X12628Y-9983D01*
X12697Y-10012D01*
X12773Y-10012D01*
X13223Y-10012D01*
X13293Y-9983D01*
X13346Y-9930D01*
X13353Y-9914D01*
X13374Y-9964D01*
X13444Y-10034D01*
X13456Y-10039D01*
X13444Y-10044D01*
X13374Y-10114D01*
X13353Y-10164D01*
X13346Y-10149D01*
X13293Y-10095D01*
X13223Y-10066D01*
X13148Y-10066D01*
X12698Y-10066D01*
X12628Y-10095D01*
X12574Y-10148D01*
X12545Y-10218D01*
X12545Y-10281D01*
X12454Y-10281D01*
X12454Y-10218D01*
X12425Y-10149D01*
X12371Y-10095D01*
X12302Y-10066D01*
X12226Y-10066D01*
X11776Y-10066D01*
X11706Y-10095D01*
X11653Y-10148D01*
X11624Y-10218D01*
X11624Y-10294D01*
X11624Y-10844D01*
X11653Y-10913D01*
X11706Y-10967D01*
X11776Y-10996D01*
X11851Y-10996D01*
X12301Y-10996D01*
X12371Y-10967D01*
X12425Y-10914D01*
X12454Y-10844D01*
X12454Y-10781D01*
X12545Y-10781D01*
X12545Y-10844D01*
X12574Y-10913D01*
X12628Y-10967D01*
X12697Y-10996D01*
X12710Y-10996D01*
X12710Y-11050D01*
X12698Y-11050D01*
X12628Y-11079D01*
X12574Y-11132D01*
X12545Y-11202D01*
X12545Y-11278D01*
X12545Y-11828D01*
X12574Y-11898D01*
X12626Y-11950D01*
X12501Y-12075D01*
X12501Y-11812D01*
X12501Y-11536D01*
X12472Y-11467D01*
X12418Y-11413D01*
X12349Y-11384D01*
X12273Y-11384D01*
X11879Y-11384D01*
X11809Y-11413D01*
X11756Y-11466D01*
X11727Y-11536D01*
X11727Y-11612D01*
X11727Y-11888D01*
X11756Y-11958D01*
X11809Y-12011D01*
X11879Y-12040D01*
X11954Y-12040D01*
X12348Y-12040D01*
X12418Y-12011D01*
X12472Y-11958D01*
X12501Y-11888D01*
X12501Y-11812D01*
X12501Y-12075D01*
X11604Y-12972D01*
X11604Y-10768D01*
X11604Y-10218D01*
X11575Y-10149D01*
X11521Y-10095D01*
X11452Y-10066D01*
X11439Y-10066D01*
X11439Y-10012D01*
X11451Y-10012D01*
X11521Y-9983D01*
X11575Y-9930D01*
X11604Y-9860D01*
X11604Y-9784D01*
X11604Y-9234D01*
X11575Y-9164D01*
X11521Y-9111D01*
X11452Y-9082D01*
X11376Y-9082D01*
X10926Y-9082D01*
X10856Y-9111D01*
X10803Y-9164D01*
X10774Y-9234D01*
X10774Y-9309D01*
X10774Y-9859D01*
X10803Y-9929D01*
X10856Y-9983D01*
X10926Y-10012D01*
X10939Y-10012D01*
X10939Y-10066D01*
X10926Y-10066D01*
X10856Y-10095D01*
X10803Y-10148D01*
X10774Y-10218D01*
X10774Y-10294D01*
X10774Y-10844D01*
X10803Y-10913D01*
X10856Y-10967D01*
X10864Y-10970D01*
X10864Y-11015D01*
X10809Y-11038D01*
X10756Y-11091D01*
X10727Y-11161D01*
X10727Y-11237D01*
X10727Y-11513D01*
X10756Y-11583D01*
X10809Y-11636D01*
X10879Y-11665D01*
X10954Y-11665D01*
X11348Y-11665D01*
X11418Y-11636D01*
X11472Y-11583D01*
X11501Y-11513D01*
X11501Y-11437D01*
X11501Y-11161D01*
X11472Y-11092D01*
X11418Y-11038D01*
X11364Y-11015D01*
X11364Y-10996D01*
X11451Y-10996D01*
X11521Y-10967D01*
X11575Y-10914D01*
X11604Y-10844D01*
X11604Y-10768D01*
X11604Y-12972D01*
X11561Y-13015D01*
X11561Y-12275D01*
X11561Y-11900D01*
X11523Y-11808D01*
X11452Y-11737D01*
X11361Y-11699D01*
X11261Y-11699D01*
X11226Y-11699D01*
X11164Y-11762D01*
X11164Y-12037D01*
X11498Y-12037D01*
X11561Y-11975D01*
X11561Y-11900D01*
X11561Y-12275D01*
X11561Y-12200D01*
X11498Y-12137D01*
X11164Y-12137D01*
X11164Y-12413D01*
X11226Y-12475D01*
X11261Y-12475D01*
X11361Y-12475D01*
X11452Y-12437D01*
X11523Y-12367D01*
X11561Y-12275D01*
X11561Y-13015D01*
X11064Y-13512D01*
X11064Y-12413D01*
X11064Y-12137D01*
X11064Y-12037D01*
X11064Y-11762D01*
X11001Y-11699D01*
X10966Y-11699D01*
X10867Y-11699D01*
X10775Y-11737D01*
X10705Y-11808D01*
X10667Y-11900D01*
X10667Y-11975D01*
X10729Y-12037D01*
X11064Y-12037D01*
X11064Y-12137D01*
X10729Y-12137D01*
X10667Y-12200D01*
X10667Y-12275D01*
X10705Y-12367D01*
X10775Y-12437D01*
X10867Y-12475D01*
X10966Y-12475D01*
X11001Y-12475D01*
X11064Y-12413D01*
X11064Y-13512D01*
X10435Y-14140D01*
X10435Y-8073D01*
X12598Y-8073D01*
X13473Y-8073D01*
G54D10*
G36*
X14746Y-17509D02*
X14726Y-17529D01*
X14352Y-17529D01*
X14282Y-17558D01*
X14229Y-17611D01*
X14200Y-17681D01*
X14200Y-17757D01*
X14200Y-18207D01*
X14209Y-18230D01*
X14103Y-18230D01*
X14107Y-18219D01*
X14107Y-18057D01*
X14045Y-17994D01*
X13632Y-17994D01*
X13632Y-18002D01*
X13532Y-18002D01*
X13532Y-17994D01*
X13120Y-17994D01*
X13057Y-18057D01*
X13057Y-18219D01*
X13062Y-18230D01*
X12626Y-18230D01*
X12631Y-18219D01*
X12631Y-18057D01*
X12568Y-17994D01*
X12156Y-17994D01*
X12156Y-18002D01*
X12056Y-18002D01*
X12056Y-17994D01*
X12048Y-17994D01*
X12048Y-17894D01*
X12056Y-17894D01*
X12056Y-17886D01*
X12156Y-17886D01*
X12156Y-17894D01*
X12568Y-17894D01*
X12631Y-17832D01*
X12631Y-17670D01*
X12593Y-17578D01*
X12523Y-17507D01*
X12473Y-17487D01*
X12488Y-17480D01*
X12542Y-17427D01*
X12571Y-17357D01*
X12571Y-17282D01*
X12571Y-16832D01*
X12542Y-16762D01*
X12489Y-16708D01*
X12440Y-16688D01*
X12656Y-16473D01*
X14316Y-16473D01*
X14366Y-16463D01*
X14366Y-16528D01*
X14408Y-16632D01*
X14270Y-16632D01*
X14270Y-16632D01*
X14251Y-16635D01*
X14174Y-16651D01*
X14093Y-16705D01*
X14093Y-16705D01*
X14024Y-16774D01*
X14018Y-16762D01*
X13965Y-16708D01*
X13895Y-16679D01*
X13820Y-16679D01*
X13270Y-16679D01*
X13200Y-16708D01*
X13146Y-16761D01*
X13117Y-16831D01*
X13117Y-16907D01*
X13117Y-17357D01*
X13146Y-17427D01*
X13199Y-17480D01*
X13215Y-17487D01*
X13165Y-17507D01*
X13095Y-17578D01*
X13057Y-17670D01*
X13057Y-17832D01*
X13120Y-17894D01*
X13532Y-17894D01*
X13532Y-17886D01*
X13632Y-17886D01*
X13632Y-17894D01*
X14045Y-17894D01*
X14107Y-17832D01*
X14107Y-17670D01*
X14069Y-17578D01*
X13999Y-17507D01*
X13949Y-17487D01*
X13965Y-17480D01*
X14018Y-17427D01*
X14047Y-17357D01*
X14047Y-17344D01*
X14057Y-17344D01*
X14153Y-17325D01*
X14200Y-17294D01*
X14200Y-17357D01*
X14229Y-17427D01*
X14282Y-17480D01*
X14352Y-17509D01*
X14427Y-17509D01*
X14746Y-17509D01*
X14746Y-17509D01*
G37*
G54D21*
X14746Y-17509D02*
X14726Y-17529D01*
X14352Y-17529D01*
X14282Y-17558D01*
X14229Y-17611D01*
X14200Y-17681D01*
X14200Y-17757D01*
X14200Y-18207D01*
X14209Y-18230D01*
X14103Y-18230D01*
X14107Y-18219D01*
X14107Y-18057D01*
X14045Y-17994D01*
X13632Y-17994D01*
X13632Y-18002D01*
X13532Y-18002D01*
X13532Y-17994D01*
X13120Y-17994D01*
X13057Y-18057D01*
X13057Y-18219D01*
X13062Y-18230D01*
X12626Y-18230D01*
X12631Y-18219D01*
X12631Y-18057D01*
X12568Y-17994D01*
X12156Y-17994D01*
X12156Y-18002D01*
X12056Y-18002D01*
X12056Y-17994D01*
X12048Y-17994D01*
X12048Y-17894D01*
X12056Y-17894D01*
X12056Y-17886D01*
X12156Y-17886D01*
X12156Y-17894D01*
X12568Y-17894D01*
X12631Y-17832D01*
X12631Y-17670D01*
X12593Y-17578D01*
X12523Y-17507D01*
X12473Y-17487D01*
X12488Y-17480D01*
X12542Y-17427D01*
X12571Y-17357D01*
X12571Y-17282D01*
X12571Y-16832D01*
X12542Y-16762D01*
X12489Y-16708D01*
X12440Y-16688D01*
X12656Y-16473D01*
X14316Y-16473D01*
X14366Y-16463D01*
X14366Y-16528D01*
X14408Y-16632D01*
X14270Y-16632D01*
X14270Y-16632D01*
X14251Y-16635D01*
X14174Y-16651D01*
X14093Y-16705D01*
X14093Y-16705D01*
X14024Y-16774D01*
X14018Y-16762D01*
X13965Y-16708D01*
X13895Y-16679D01*
X13820Y-16679D01*
X13270Y-16679D01*
X13200Y-16708D01*
X13146Y-16761D01*
X13117Y-16831D01*
X13117Y-16907D01*
X13117Y-17357D01*
X13146Y-17427D01*
X13199Y-17480D01*
X13215Y-17487D01*
X13165Y-17507D01*
X13095Y-17578D01*
X13057Y-17670D01*
X13057Y-17832D01*
X13120Y-17894D01*
X13532Y-17894D01*
X13532Y-17886D01*
X13632Y-17886D01*
X13632Y-17894D01*
X14045Y-17894D01*
X14107Y-17832D01*
X14107Y-17670D01*
X14069Y-17578D01*
X13999Y-17507D01*
X13949Y-17487D01*
X13965Y-17480D01*
X14018Y-17427D01*
X14047Y-17357D01*
X14047Y-17344D01*
X14057Y-17344D01*
X14153Y-17325D01*
X14200Y-17294D01*
X14200Y-17357D01*
X14229Y-17427D01*
X14282Y-17480D01*
X14352Y-17509D01*
X14427Y-17509D01*
X14746Y-17509D01*
G54D10*
G36*
X18798Y-17562D02*
X18752Y-17608D01*
X18723Y-17678D01*
X18723Y-17754D01*
X18723Y-17766D01*
X18032Y-17075D01*
X17951Y-17021D01*
X17855Y-17002D01*
X16666Y-17002D01*
X16666Y-16250D01*
X16666Y-16088D01*
X16604Y-16026D01*
X16191Y-16026D01*
X16191Y-16388D01*
X16254Y-16451D01*
X16367Y-16451D01*
X16466Y-16451D01*
X16558Y-16412D01*
X16628Y-16342D01*
X16666Y-16250D01*
X16666Y-17002D01*
X15357Y-17002D01*
X15261Y-17021D01*
X15180Y-17075D01*
X15130Y-17126D01*
X15130Y-16832D01*
X15101Y-16762D01*
X15077Y-16737D01*
X15132Y-16682D01*
X15196Y-16529D01*
X15196Y-16364D01*
X15138Y-16225D01*
X15156Y-16232D01*
X15240Y-16232D01*
X15476Y-16232D01*
X15553Y-16201D01*
X15612Y-16142D01*
X15616Y-16132D01*
X15616Y-16250D01*
X15654Y-16342D01*
X15724Y-16412D01*
X15816Y-16451D01*
X15916Y-16451D01*
X16029Y-16451D01*
X16091Y-16388D01*
X16091Y-16026D01*
X16083Y-16026D01*
X16083Y-15926D01*
X16091Y-15926D01*
X16091Y-15918D01*
X16191Y-15918D01*
X16191Y-15926D01*
X16604Y-15926D01*
X16666Y-15863D01*
X16666Y-15701D01*
X16628Y-15609D01*
X16558Y-15539D01*
X16534Y-15529D01*
X16535Y-15529D01*
X16594Y-15470D01*
X16626Y-15393D01*
X16626Y-15309D01*
X16626Y-15054D01*
X16647Y-15033D01*
X16937Y-15033D01*
X16921Y-15049D01*
X16892Y-15118D01*
X16892Y-15194D01*
X16892Y-16060D01*
X16921Y-16130D01*
X16975Y-16183D01*
X17044Y-16212D01*
X17120Y-16212D01*
X17356Y-16212D01*
X17426Y-16184D01*
X17450Y-16159D01*
X17450Y-16159D01*
X17450Y-16223D01*
X17469Y-16318D01*
X17524Y-16399D01*
X18613Y-17489D01*
X18613Y-17489D01*
X18694Y-17543D01*
X18694Y-17543D01*
X18771Y-17559D01*
X18790Y-17562D01*
X18790Y-17562D01*
X18790Y-17562D01*
X18798Y-17562D01*
X18798Y-17562D01*
G37*
G54D21*
X18798Y-17562D02*
X18752Y-17608D01*
X18723Y-17678D01*
X18723Y-17754D01*
X18723Y-17766D01*
X18032Y-17075D01*
X17951Y-17021D01*
X17855Y-17002D01*
X16666Y-17002D01*
X16666Y-16250D01*
X16666Y-16088D01*
X16604Y-16026D01*
X16191Y-16026D01*
X16191Y-16388D01*
X16254Y-16451D01*
X16367Y-16451D01*
X16466Y-16451D01*
X16558Y-16412D01*
X16628Y-16342D01*
X16666Y-16250D01*
X16666Y-17002D01*
X15357Y-17002D01*
X15261Y-17021D01*
X15180Y-17075D01*
X15130Y-17126D01*
X15130Y-16832D01*
X15101Y-16762D01*
X15077Y-16737D01*
X15132Y-16682D01*
X15196Y-16529D01*
X15196Y-16364D01*
X15138Y-16225D01*
X15156Y-16232D01*
X15240Y-16232D01*
X15476Y-16232D01*
X15553Y-16201D01*
X15612Y-16142D01*
X15616Y-16132D01*
X15616Y-16250D01*
X15654Y-16342D01*
X15724Y-16412D01*
X15816Y-16451D01*
X15916Y-16451D01*
X16029Y-16451D01*
X16091Y-16388D01*
X16091Y-16026D01*
X16083Y-16026D01*
X16083Y-15926D01*
X16091Y-15926D01*
X16091Y-15918D01*
X16191Y-15918D01*
X16191Y-15926D01*
X16604Y-15926D01*
X16666Y-15863D01*
X16666Y-15701D01*
X16628Y-15609D01*
X16558Y-15539D01*
X16534Y-15529D01*
X16535Y-15529D01*
X16594Y-15470D01*
X16626Y-15393D01*
X16626Y-15309D01*
X16626Y-15054D01*
X16647Y-15033D01*
X16937Y-15033D01*
X16921Y-15049D01*
X16892Y-15118D01*
X16892Y-15194D01*
X16892Y-16060D01*
X16921Y-16130D01*
X16975Y-16183D01*
X17044Y-16212D01*
X17120Y-16212D01*
X17356Y-16212D01*
X17426Y-16184D01*
X17450Y-16159D01*
X17450Y-16159D01*
X17450Y-16223D01*
X17469Y-16318D01*
X17524Y-16399D01*
X18613Y-17489D01*
X18613Y-17489D01*
X18694Y-17543D01*
X18694Y-17543D01*
X18771Y-17559D01*
X18790Y-17562D01*
X18790Y-17562D01*
X18790Y-17562D01*
X18798Y-17562D01*
G54D10*
G36*
X20124Y-11696D02*
X20124Y-11757D01*
X20114Y-11757D01*
X20114Y-11757D01*
X20095Y-11761D01*
X20018Y-11776D01*
X19937Y-11831D01*
X19937Y-11831D01*
X19692Y-12076D01*
X19662Y-12046D01*
X19510Y-11982D01*
X19345Y-11982D01*
X19192Y-12045D01*
X19075Y-12162D01*
X19037Y-12255D01*
X18458Y-11676D01*
X18458Y-11273D01*
X18521Y-11273D01*
X18591Y-11244D01*
X18644Y-11190D01*
X18673Y-11121D01*
X18673Y-11045D01*
X18673Y-10595D01*
X18644Y-10525D01*
X18591Y-10472D01*
X18521Y-10443D01*
X18446Y-10443D01*
X17896Y-10443D01*
X17826Y-10471D01*
X17772Y-10525D01*
X17743Y-10595D01*
X17743Y-10670D01*
X17743Y-11120D01*
X17772Y-11190D01*
X17825Y-11244D01*
X17895Y-11273D01*
X17958Y-11273D01*
X17958Y-11780D01*
X17977Y-11875D01*
X18031Y-11957D01*
X19010Y-12935D01*
X18975Y-12949D01*
X18964Y-12960D01*
X18937Y-12933D01*
X18860Y-12900D01*
X18777Y-12900D01*
X18541Y-12900D01*
X18506Y-12915D01*
X18511Y-12909D01*
X18575Y-12757D01*
X18575Y-12592D01*
X18512Y-12439D01*
X18395Y-12322D01*
X18243Y-12259D01*
X18078Y-12259D01*
X17925Y-12322D01*
X17808Y-12438D01*
X17745Y-12591D01*
X17745Y-12669D01*
X17700Y-12660D01*
X17474Y-12660D01*
X17474Y-11273D01*
X17537Y-11273D01*
X17606Y-11244D01*
X17660Y-11190D01*
X17689Y-11121D01*
X17689Y-11045D01*
X17689Y-10595D01*
X17660Y-10525D01*
X17607Y-10472D01*
X17537Y-10443D01*
X17461Y-10443D01*
X16911Y-10443D01*
X16841Y-10471D01*
X16788Y-10525D01*
X16759Y-10595D01*
X16759Y-10670D01*
X16759Y-11120D01*
X16788Y-11190D01*
X16841Y-11244D01*
X16911Y-11273D01*
X16974Y-11273D01*
X16974Y-12808D01*
X16969Y-12815D01*
X16950Y-12910D01*
X16950Y-12974D01*
X16921Y-13003D01*
X16892Y-13072D01*
X16892Y-13148D01*
X16892Y-14014D01*
X16921Y-14084D01*
X16937Y-14100D01*
X16745Y-14100D01*
X16626Y-13981D01*
X16626Y-13741D01*
X16594Y-13663D01*
X16535Y-13604D01*
X16534Y-13604D01*
X16558Y-13594D01*
X16628Y-13524D01*
X16666Y-13432D01*
X16666Y-12883D01*
X16628Y-12791D01*
X16606Y-12769D01*
X16606Y-11045D01*
X16606Y-10595D01*
X16577Y-10525D01*
X16524Y-10472D01*
X16454Y-10443D01*
X16379Y-10443D01*
X15829Y-10443D01*
X15759Y-10471D01*
X15705Y-10525D01*
X15676Y-10595D01*
X15676Y-10608D01*
X15666Y-10608D01*
X15666Y-10608D01*
X15647Y-10611D01*
X15570Y-10627D01*
X15500Y-10674D01*
X15500Y-10674D01*
X15479Y-10652D01*
X15326Y-10589D01*
X15161Y-10589D01*
X15008Y-10652D01*
X14892Y-10768D01*
X14828Y-10921D01*
X14828Y-11086D01*
X14891Y-11239D01*
X15008Y-11355D01*
X15160Y-11419D01*
X15325Y-11419D01*
X15478Y-11356D01*
X15595Y-11239D01*
X15595Y-11239D01*
X15615Y-11235D01*
X15697Y-11181D01*
X15700Y-11177D01*
X15705Y-11190D01*
X15758Y-11244D01*
X15828Y-11273D01*
X15904Y-11273D01*
X16454Y-11273D01*
X16524Y-11244D01*
X16577Y-11190D01*
X16606Y-11121D01*
X16606Y-11045D01*
X16606Y-12769D01*
X16558Y-12720D01*
X16466Y-12682D01*
X16367Y-12682D01*
X16254Y-12682D01*
X16191Y-12745D01*
X16191Y-13107D01*
X16604Y-13107D01*
X16666Y-13045D01*
X16666Y-12883D01*
X16666Y-13432D01*
X16666Y-13270D01*
X16604Y-13207D01*
X16191Y-13207D01*
X16191Y-13215D01*
X16091Y-13215D01*
X16091Y-13207D01*
X16083Y-13207D01*
X16083Y-13107D01*
X16091Y-13107D01*
X16091Y-12745D01*
X16061Y-12715D01*
X16088Y-12650D01*
X16088Y-12485D01*
X16025Y-12333D01*
X15908Y-12216D01*
X15756Y-12153D01*
X15591Y-12152D01*
X15438Y-12215D01*
X15321Y-12332D01*
X15258Y-12485D01*
X15258Y-12615D01*
X15228Y-12645D01*
X15228Y-12636D01*
X15165Y-12484D01*
X15048Y-12367D01*
X14896Y-12303D01*
X14731Y-12303D01*
X14578Y-12366D01*
X14566Y-12378D01*
X14566Y-12348D01*
X14547Y-12252D01*
X14547Y-12252D01*
X14493Y-12171D01*
X14493Y-12171D01*
X14203Y-11881D01*
X14225Y-11828D01*
X14225Y-11753D01*
X14225Y-11203D01*
X14196Y-11133D01*
X14143Y-11079D01*
X14086Y-11056D01*
X14177Y-11018D01*
X14247Y-10948D01*
X14285Y-10856D01*
X14285Y-10756D01*
X14285Y-10306D01*
X14285Y-10206D01*
X14247Y-10114D01*
X14177Y-10044D01*
X14165Y-10039D01*
X14177Y-10034D01*
X14247Y-9964D01*
X14285Y-9872D01*
X14285Y-9772D01*
X14285Y-9321D01*
X14285Y-9222D01*
X14247Y-9130D01*
X14177Y-9060D01*
X14085Y-9022D01*
X13923Y-9022D01*
X13860Y-9084D01*
X13860Y-9497D01*
X14223Y-9497D01*
X14285Y-9434D01*
X14285Y-9321D01*
X14285Y-9772D01*
X14285Y-9659D01*
X14223Y-9597D01*
X13860Y-9597D01*
X13860Y-10009D01*
X13890Y-10039D01*
X13860Y-10068D01*
X13860Y-10481D01*
X14223Y-10481D01*
X14285Y-10418D01*
X14285Y-10306D01*
X14285Y-10756D01*
X14285Y-10643D01*
X14223Y-10581D01*
X13860Y-10581D01*
X13860Y-10589D01*
X13760Y-10589D01*
X13760Y-10581D01*
X13752Y-10581D01*
X13752Y-10481D01*
X13760Y-10481D01*
X13760Y-10068D01*
X13731Y-10039D01*
X13760Y-10009D01*
X13760Y-9597D01*
X13752Y-9597D01*
X13752Y-9497D01*
X13760Y-9497D01*
X13760Y-9084D01*
X13698Y-9022D01*
X13536Y-9022D01*
X13444Y-9060D01*
X13374Y-9130D01*
X13353Y-9180D01*
X13346Y-9164D01*
X13293Y-9111D01*
X13223Y-9082D01*
X13148Y-9082D01*
X12698Y-9082D01*
X12628Y-9111D01*
X12574Y-9164D01*
X12545Y-9234D01*
X12545Y-9297D01*
X12454Y-9297D01*
X12454Y-9234D01*
X12425Y-9164D01*
X12371Y-9111D01*
X12325Y-9091D01*
X12325Y-9028D01*
X12337Y-9028D01*
X12407Y-8999D01*
X12460Y-8945D01*
X12489Y-8875D01*
X12489Y-8879D01*
X12521Y-8956D01*
X12580Y-9015D01*
X12658Y-9047D01*
X12741Y-9048D01*
X13191Y-9048D01*
X13268Y-9016D01*
X13327Y-8957D01*
X13359Y-8879D01*
X13359Y-8842D01*
X13380Y-8842D01*
X13487Y-8821D01*
X13487Y-8821D01*
X13578Y-8760D01*
X13837Y-8501D01*
X15691Y-8501D01*
X15657Y-8514D01*
X15568Y-8754D01*
X15578Y-9009D01*
X15657Y-9202D01*
X15762Y-9241D01*
X16145Y-8858D01*
X16140Y-8852D01*
X16210Y-8781D01*
X16216Y-8787D01*
X16222Y-8781D01*
X16292Y-8852D01*
X16287Y-8858D01*
X16670Y-9241D01*
X16746Y-9213D01*
X16885Y-9352D01*
X16966Y-9386D01*
X16966Y-9593D01*
X16911Y-9593D01*
X16841Y-9621D01*
X16788Y-9675D01*
X16759Y-9745D01*
X16759Y-9754D01*
X16620Y-9754D01*
X16606Y-9756D01*
X16606Y-9745D01*
X16599Y-9727D01*
X16599Y-9311D01*
X16216Y-8928D01*
X15833Y-9311D01*
X15872Y-9416D01*
X16112Y-9506D01*
X16368Y-9496D01*
X16560Y-9416D01*
X16599Y-9311D01*
X16599Y-9727D01*
X16577Y-9675D01*
X16524Y-9622D01*
X16454Y-9593D01*
X16379Y-9593D01*
X15829Y-9593D01*
X15759Y-9621D01*
X15705Y-9675D01*
X15676Y-9745D01*
X15676Y-9820D01*
X15676Y-10270D01*
X15705Y-10340D01*
X15758Y-10394D01*
X15828Y-10423D01*
X15904Y-10423D01*
X16454Y-10423D01*
X16524Y-10394D01*
X16577Y-10340D01*
X16606Y-10271D01*
X16606Y-10258D01*
X16616Y-10258D01*
X16636Y-10254D01*
X16759Y-10254D01*
X16759Y-10270D01*
X16788Y-10340D01*
X16841Y-10394D01*
X16911Y-10423D01*
X16987Y-10423D01*
X17537Y-10423D01*
X17606Y-10394D01*
X17660Y-10340D01*
X17689Y-10271D01*
X17689Y-10258D01*
X17743Y-10258D01*
X17743Y-10270D01*
X17772Y-10340D01*
X17825Y-10394D01*
X17895Y-10423D01*
X17971Y-10423D01*
X18521Y-10423D01*
X18591Y-10394D01*
X18644Y-10340D01*
X18673Y-10271D01*
X18673Y-10195D01*
X18673Y-9850D01*
X19461Y-10638D01*
X19461Y-10976D01*
X19483Y-11083D01*
X19543Y-11174D01*
X19997Y-11628D01*
X19997Y-11628D01*
X20088Y-11689D01*
X20088Y-11689D01*
X20106Y-11692D01*
X20124Y-11696D01*
X20124Y-11696D01*
G37*
G54D21*
X20124Y-11696D02*
X20124Y-11757D01*
X20114Y-11757D01*
X20114Y-11757D01*
X20095Y-11761D01*
X20018Y-11776D01*
X19937Y-11831D01*
X19937Y-11831D01*
X19692Y-12076D01*
X19662Y-12046D01*
X19510Y-11982D01*
X19345Y-11982D01*
X19192Y-12045D01*
X19075Y-12162D01*
X19037Y-12255D01*
X18458Y-11676D01*
X18458Y-11273D01*
X18521Y-11273D01*
X18591Y-11244D01*
X18644Y-11190D01*
X18673Y-11121D01*
X18673Y-11045D01*
X18673Y-10595D01*
X18644Y-10525D01*
X18591Y-10472D01*
X18521Y-10443D01*
X18446Y-10443D01*
X17896Y-10443D01*
X17826Y-10471D01*
X17772Y-10525D01*
X17743Y-10595D01*
X17743Y-10670D01*
X17743Y-11120D01*
X17772Y-11190D01*
X17825Y-11244D01*
X17895Y-11273D01*
X17958Y-11273D01*
X17958Y-11780D01*
X17977Y-11875D01*
X18031Y-11957D01*
X19010Y-12935D01*
X18975Y-12949D01*
X18964Y-12960D01*
X18937Y-12933D01*
X18860Y-12900D01*
X18777Y-12900D01*
X18541Y-12900D01*
X18506Y-12915D01*
X18511Y-12909D01*
X18575Y-12757D01*
X18575Y-12592D01*
X18512Y-12439D01*
X18395Y-12322D01*
X18243Y-12259D01*
X18078Y-12259D01*
X17925Y-12322D01*
X17808Y-12438D01*
X17745Y-12591D01*
X17745Y-12669D01*
X17700Y-12660D01*
X17474Y-12660D01*
X17474Y-11273D01*
X17537Y-11273D01*
X17606Y-11244D01*
X17660Y-11190D01*
X17689Y-11121D01*
X17689Y-11045D01*
X17689Y-10595D01*
X17660Y-10525D01*
X17607Y-10472D01*
X17537Y-10443D01*
X17461Y-10443D01*
X16911Y-10443D01*
X16841Y-10471D01*
X16788Y-10525D01*
X16759Y-10595D01*
X16759Y-10670D01*
X16759Y-11120D01*
X16788Y-11190D01*
X16841Y-11244D01*
X16911Y-11273D01*
X16974Y-11273D01*
X16974Y-12808D01*
X16969Y-12815D01*
X16950Y-12910D01*
X16950Y-12974D01*
X16921Y-13003D01*
X16892Y-13072D01*
X16892Y-13148D01*
X16892Y-14014D01*
X16921Y-14084D01*
X16937Y-14100D01*
X16745Y-14100D01*
X16626Y-13981D01*
X16626Y-13741D01*
X16594Y-13663D01*
X16535Y-13604D01*
X16534Y-13604D01*
X16558Y-13594D01*
X16628Y-13524D01*
X16666Y-13432D01*
X16666Y-12883D01*
X16628Y-12791D01*
X16606Y-12769D01*
X16606Y-11045D01*
X16606Y-10595D01*
X16577Y-10525D01*
X16524Y-10472D01*
X16454Y-10443D01*
X16379Y-10443D01*
X15829Y-10443D01*
X15759Y-10471D01*
X15705Y-10525D01*
X15676Y-10595D01*
X15676Y-10608D01*
X15666Y-10608D01*
X15666Y-10608D01*
X15647Y-10611D01*
X15570Y-10627D01*
X15500Y-10674D01*
X15500Y-10674D01*
X15479Y-10652D01*
X15326Y-10589D01*
X15161Y-10589D01*
X15008Y-10652D01*
X14892Y-10768D01*
X14828Y-10921D01*
X14828Y-11086D01*
X14891Y-11239D01*
X15008Y-11355D01*
X15160Y-11419D01*
X15325Y-11419D01*
X15478Y-11356D01*
X15595Y-11239D01*
X15595Y-11239D01*
X15615Y-11235D01*
X15697Y-11181D01*
X15700Y-11177D01*
X15705Y-11190D01*
X15758Y-11244D01*
X15828Y-11273D01*
X15904Y-11273D01*
X16454Y-11273D01*
X16524Y-11244D01*
X16577Y-11190D01*
X16606Y-11121D01*
X16606Y-11045D01*
X16606Y-12769D01*
X16558Y-12720D01*
X16466Y-12682D01*
X16367Y-12682D01*
X16254Y-12682D01*
X16191Y-12745D01*
X16191Y-13107D01*
X16604Y-13107D01*
X16666Y-13045D01*
X16666Y-12883D01*
X16666Y-13432D01*
X16666Y-13270D01*
X16604Y-13207D01*
X16191Y-13207D01*
X16191Y-13215D01*
X16091Y-13215D01*
X16091Y-13207D01*
X16083Y-13207D01*
X16083Y-13107D01*
X16091Y-13107D01*
X16091Y-12745D01*
X16061Y-12715D01*
X16088Y-12650D01*
X16088Y-12485D01*
X16025Y-12333D01*
X15908Y-12216D01*
X15756Y-12153D01*
X15591Y-12152D01*
X15438Y-12215D01*
X15321Y-12332D01*
X15258Y-12485D01*
X15258Y-12615D01*
X15228Y-12645D01*
X15228Y-12636D01*
X15165Y-12484D01*
X15048Y-12367D01*
X14896Y-12303D01*
X14731Y-12303D01*
X14578Y-12366D01*
X14566Y-12378D01*
X14566Y-12348D01*
X14547Y-12252D01*
X14547Y-12252D01*
X14493Y-12171D01*
X14493Y-12171D01*
X14203Y-11881D01*
X14225Y-11828D01*
X14225Y-11753D01*
X14225Y-11203D01*
X14196Y-11133D01*
X14143Y-11079D01*
X14086Y-11056D01*
X14177Y-11018D01*
X14247Y-10948D01*
X14285Y-10856D01*
X14285Y-10756D01*
X14285Y-10306D01*
X14285Y-10206D01*
X14247Y-10114D01*
X14177Y-10044D01*
X14165Y-10039D01*
X14177Y-10034D01*
X14247Y-9964D01*
X14285Y-9872D01*
X14285Y-9772D01*
X14285Y-9321D01*
X14285Y-9222D01*
X14247Y-9130D01*
X14177Y-9060D01*
X14085Y-9022D01*
X13923Y-9022D01*
X13860Y-9084D01*
X13860Y-9497D01*
X14223Y-9497D01*
X14285Y-9434D01*
X14285Y-9321D01*
X14285Y-9772D01*
X14285Y-9659D01*
X14223Y-9597D01*
X13860Y-9597D01*
X13860Y-10009D01*
X13890Y-10039D01*
X13860Y-10068D01*
X13860Y-10481D01*
X14223Y-10481D01*
X14285Y-10418D01*
X14285Y-10306D01*
X14285Y-10756D01*
X14285Y-10643D01*
X14223Y-10581D01*
X13860Y-10581D01*
X13860Y-10589D01*
X13760Y-10589D01*
X13760Y-10581D01*
X13752Y-10581D01*
X13752Y-10481D01*
X13760Y-10481D01*
X13760Y-10068D01*
X13731Y-10039D01*
X13760Y-10009D01*
X13760Y-9597D01*
X13752Y-9597D01*
X13752Y-9497D01*
X13760Y-9497D01*
X13760Y-9084D01*
X13698Y-9022D01*
X13536Y-9022D01*
X13444Y-9060D01*
X13374Y-9130D01*
X13353Y-9180D01*
X13346Y-9164D01*
X13293Y-9111D01*
X13223Y-9082D01*
X13148Y-9082D01*
X12698Y-9082D01*
X12628Y-9111D01*
X12574Y-9164D01*
X12545Y-9234D01*
X12545Y-9297D01*
X12454Y-9297D01*
X12454Y-9234D01*
X12425Y-9164D01*
X12371Y-9111D01*
X12325Y-9091D01*
X12325Y-9028D01*
X12337Y-9028D01*
X12407Y-8999D01*
X12460Y-8945D01*
X12489Y-8875D01*
X12489Y-8879D01*
X12521Y-8956D01*
X12580Y-9015D01*
X12658Y-9047D01*
X12741Y-9048D01*
X13191Y-9048D01*
X13268Y-9016D01*
X13327Y-8957D01*
X13359Y-8879D01*
X13359Y-8842D01*
X13380Y-8842D01*
X13487Y-8821D01*
X13487Y-8821D01*
X13578Y-8760D01*
X13837Y-8501D01*
X15691Y-8501D01*
X15657Y-8514D01*
X15568Y-8754D01*
X15578Y-9009D01*
X15657Y-9202D01*
X15762Y-9241D01*
X16145Y-8858D01*
X16140Y-8852D01*
X16210Y-8781D01*
X16216Y-8787D01*
X16222Y-8781D01*
X16292Y-8852D01*
X16287Y-8858D01*
X16670Y-9241D01*
X16746Y-9213D01*
X16885Y-9352D01*
X16966Y-9386D01*
X16966Y-9593D01*
X16911Y-9593D01*
X16841Y-9621D01*
X16788Y-9675D01*
X16759Y-9745D01*
X16759Y-9754D01*
X16620Y-9754D01*
X16606Y-9756D01*
X16606Y-9745D01*
X16599Y-9727D01*
X16599Y-9311D01*
X16216Y-8928D01*
X15833Y-9311D01*
X15872Y-9416D01*
X16112Y-9506D01*
X16368Y-9496D01*
X16560Y-9416D01*
X16599Y-9311D01*
X16599Y-9727D01*
X16577Y-9675D01*
X16524Y-9622D01*
X16454Y-9593D01*
X16379Y-9593D01*
X15829Y-9593D01*
X15759Y-9621D01*
X15705Y-9675D01*
X15676Y-9745D01*
X15676Y-9820D01*
X15676Y-10270D01*
X15705Y-10340D01*
X15758Y-10394D01*
X15828Y-10423D01*
X15904Y-10423D01*
X16454Y-10423D01*
X16524Y-10394D01*
X16577Y-10340D01*
X16606Y-10271D01*
X16606Y-10258D01*
X16616Y-10258D01*
X16636Y-10254D01*
X16759Y-10254D01*
X16759Y-10270D01*
X16788Y-10340D01*
X16841Y-10394D01*
X16911Y-10423D01*
X16987Y-10423D01*
X17537Y-10423D01*
X17606Y-10394D01*
X17660Y-10340D01*
X17689Y-10271D01*
X17689Y-10258D01*
X17743Y-10258D01*
X17743Y-10270D01*
X17772Y-10340D01*
X17825Y-10394D01*
X17895Y-10423D01*
X17971Y-10423D01*
X18521Y-10423D01*
X18591Y-10394D01*
X18644Y-10340D01*
X18673Y-10271D01*
X18673Y-10195D01*
X18673Y-9850D01*
X19461Y-10638D01*
X19461Y-10976D01*
X19483Y-11083D01*
X19543Y-11174D01*
X19997Y-11628D01*
X19997Y-11628D01*
X20088Y-11689D01*
X20088Y-11689D01*
X20106Y-11692D01*
X20124Y-11696D01*
G54D10*
G36*
X22057Y-18264D02*
X21479Y-18264D01*
X21498Y-18214D01*
X21488Y-17958D01*
X21409Y-17766D01*
X21304Y-17727D01*
X20921Y-18110D01*
X20926Y-18115D01*
X20855Y-18186D01*
X20850Y-18180D01*
X20844Y-18186D01*
X20774Y-18115D01*
X20779Y-18110D01*
X20396Y-17727D01*
X20291Y-17766D01*
X20202Y-18006D01*
X20212Y-18261D01*
X20291Y-18454D01*
X20360Y-18479D01*
X19890Y-18479D01*
X19890Y-18466D01*
X19890Y-17679D01*
X19861Y-17609D01*
X19815Y-17562D01*
X20502Y-17562D01*
X20467Y-17656D01*
X20850Y-18039D01*
X21233Y-17656D01*
X21198Y-17562D01*
X21355Y-17562D01*
X22057Y-18264D01*
X22057Y-18264D01*
G37*
G54D21*
X22057Y-18264D02*
X21479Y-18264D01*
X21498Y-18214D01*
X21488Y-17958D01*
X21409Y-17766D01*
X21304Y-17727D01*
X20921Y-18110D01*
X20926Y-18115D01*
X20855Y-18186D01*
X20850Y-18180D01*
X20844Y-18186D01*
X20774Y-18115D01*
X20779Y-18110D01*
X20396Y-17727D01*
X20291Y-17766D01*
X20202Y-18006D01*
X20212Y-18261D01*
X20291Y-18454D01*
X20360Y-18479D01*
X19890Y-18479D01*
X19890Y-18466D01*
X19890Y-17679D01*
X19861Y-17609D01*
X19815Y-17562D01*
X20502Y-17562D01*
X20467Y-17656D01*
X20850Y-18039D01*
X21233Y-17656D01*
X21198Y-17562D01*
X21355Y-17562D01*
X22057Y-18264D01*
G54D10*
G36*
X32083Y-19879D02*
X31872Y-19879D01*
X31872Y-19100D01*
X31867Y-18966D01*
X31867Y-13738D01*
X31867Y-11699D01*
X31778Y-11484D01*
X31614Y-11320D01*
X31400Y-11231D01*
X31167Y-11231D01*
X30953Y-11319D01*
X30847Y-11425D01*
X30847Y-9935D01*
X30758Y-9720D01*
X30594Y-9556D01*
X30380Y-9467D01*
X30148Y-9467D01*
X29933Y-9556D01*
X29769Y-9720D01*
X29680Y-9934D01*
X29679Y-10166D01*
X29768Y-10381D01*
X29932Y-10545D01*
X30147Y-10634D01*
X30379Y-10634D01*
X30593Y-10546D01*
X30758Y-10382D01*
X30847Y-10167D01*
X30847Y-9935D01*
X30847Y-11425D01*
X30788Y-11483D01*
X30699Y-11698D01*
X30699Y-11930D01*
X30788Y-12145D01*
X30952Y-12309D01*
X31166Y-12398D01*
X31399Y-12398D01*
X31613Y-12310D01*
X31778Y-12146D01*
X31867Y-11931D01*
X31867Y-11699D01*
X31867Y-13738D01*
X31778Y-13524D01*
X31614Y-13359D01*
X31400Y-13270D01*
X31167Y-13270D01*
X30953Y-13359D01*
X30788Y-13523D01*
X30699Y-13737D01*
X30699Y-13969D01*
X30788Y-14184D01*
X30952Y-14348D01*
X31166Y-14437D01*
X31399Y-14438D01*
X31613Y-14349D01*
X31778Y-14185D01*
X31867Y-13970D01*
X31867Y-13738D01*
X31867Y-18966D01*
X31862Y-18844D01*
X31783Y-18651D01*
X31678Y-18613D01*
X31607Y-18683D01*
X31607Y-18542D01*
X31568Y-18437D01*
X31328Y-18348D01*
X31072Y-18357D01*
X30880Y-18437D01*
X30847Y-18526D01*
X30847Y-15502D01*
X30758Y-15287D01*
X30594Y-15123D01*
X30380Y-15034D01*
X30229Y-15034D01*
X30229Y-12719D01*
X30140Y-12504D01*
X29976Y-12340D01*
X29762Y-12251D01*
X29530Y-12250D01*
X29315Y-12339D01*
X29151Y-12503D01*
X29083Y-12665D01*
X29083Y-8915D01*
X28995Y-8701D01*
X28831Y-8536D01*
X28616Y-8447D01*
X28384Y-8447D01*
X28169Y-8536D01*
X28005Y-8700D01*
X27916Y-8914D01*
X27916Y-9147D01*
X28004Y-9361D01*
X28168Y-9526D01*
X28383Y-9615D01*
X28615Y-9615D01*
X28830Y-9526D01*
X28994Y-9362D01*
X29083Y-9148D01*
X29083Y-8915D01*
X29083Y-12665D01*
X29062Y-12718D01*
X29061Y-12950D01*
X29150Y-13164D01*
X29314Y-13329D01*
X29529Y-13418D01*
X29761Y-13418D01*
X29975Y-13329D01*
X30140Y-13165D01*
X30229Y-12951D01*
X30229Y-12719D01*
X30229Y-15034D01*
X30148Y-15034D01*
X29933Y-15122D01*
X29769Y-15287D01*
X29680Y-15501D01*
X29679Y-15733D01*
X29768Y-15948D01*
X29932Y-16112D01*
X30147Y-16201D01*
X30379Y-16201D01*
X30593Y-16113D01*
X30758Y-15949D01*
X30847Y-15734D01*
X30847Y-15502D01*
X30847Y-18526D01*
X30841Y-18542D01*
X31224Y-18925D01*
X31607Y-18542D01*
X31607Y-18683D01*
X31295Y-18996D01*
X31678Y-19378D01*
X31783Y-19340D01*
X31872Y-19100D01*
X31872Y-19879D01*
X31607Y-19879D01*
X31607Y-19449D01*
X31224Y-19066D01*
X30841Y-19449D01*
X30880Y-19554D01*
X31120Y-19643D01*
X31376Y-19634D01*
X31568Y-19554D01*
X31607Y-19449D01*
X31607Y-19879D01*
X24978Y-19879D01*
X25197Y-19660D01*
X25277Y-19693D01*
X25509Y-19693D01*
X25590Y-19660D01*
X25696Y-19766D01*
X25696Y-19766D01*
X25777Y-19820D01*
X25777Y-19820D01*
X25873Y-19839D01*
X28724Y-19839D01*
X28820Y-19820D01*
X28901Y-19766D01*
X29093Y-19573D01*
X29107Y-19579D01*
X29339Y-19579D01*
X29554Y-19491D01*
X29718Y-19327D01*
X29724Y-19313D01*
X29729Y-19326D01*
X29893Y-19490D01*
X30107Y-19579D01*
X30339Y-19579D01*
X30554Y-19491D01*
X30694Y-19350D01*
X30770Y-19378D01*
X31153Y-18996D01*
X30770Y-18613D01*
X30694Y-18641D01*
X30555Y-18501D01*
X30340Y-18412D01*
X30108Y-18412D01*
X29894Y-18501D01*
X29730Y-18665D01*
X29724Y-18678D01*
X29719Y-18665D01*
X29555Y-18501D01*
X29340Y-18412D01*
X29108Y-18412D01*
X29083Y-18422D01*
X29083Y-16522D01*
X28995Y-16307D01*
X28831Y-16143D01*
X28616Y-16054D01*
X28384Y-16053D01*
X28169Y-16142D01*
X28005Y-16306D01*
X27916Y-16521D01*
X27916Y-16753D01*
X28004Y-16968D01*
X28168Y-17132D01*
X28383Y-17221D01*
X28615Y-17221D01*
X28830Y-17132D01*
X28994Y-16968D01*
X29083Y-16754D01*
X29083Y-16522D01*
X29083Y-18422D01*
X28894Y-18501D01*
X28807Y-18587D01*
X28807Y-18564D01*
X28779Y-18495D01*
X28725Y-18441D01*
X28655Y-18412D01*
X28580Y-18412D01*
X27793Y-18412D01*
X27723Y-18441D01*
X27669Y-18494D01*
X27640Y-18564D01*
X27640Y-18640D01*
X27640Y-19339D01*
X25976Y-19339D01*
X25943Y-19306D01*
X25977Y-19226D01*
X25977Y-18994D01*
X25888Y-18780D01*
X25724Y-18615D01*
X25510Y-18526D01*
X25278Y-18526D01*
X25063Y-18615D01*
X25041Y-18637D01*
X25041Y-18214D01*
X25032Y-17958D01*
X24952Y-17766D01*
X24847Y-17727D01*
X24776Y-17798D01*
X24776Y-17656D01*
X24737Y-17551D01*
X24497Y-17462D01*
X24241Y-17471D01*
X24049Y-17551D01*
X24010Y-17656D01*
X24393Y-18039D01*
X24776Y-17656D01*
X24776Y-17798D01*
X24464Y-18110D01*
X24847Y-18493D01*
X24952Y-18454D01*
X25041Y-18214D01*
X25041Y-18637D01*
X24899Y-18779D01*
X24810Y-18993D01*
X24810Y-19225D01*
X24843Y-19306D01*
X24776Y-19373D01*
X24776Y-18563D01*
X24393Y-18180D01*
X24322Y-18251D01*
X24322Y-18110D01*
X23940Y-17727D01*
X23835Y-17766D01*
X23745Y-18006D01*
X23755Y-18261D01*
X23835Y-18454D01*
X23940Y-18493D01*
X24322Y-18110D01*
X24322Y-18251D01*
X24010Y-18563D01*
X24049Y-18668D01*
X24289Y-18758D01*
X24545Y-18748D01*
X24737Y-18668D01*
X24776Y-18563D01*
X24776Y-19373D01*
X24672Y-19478D01*
X22307Y-19478D01*
X22344Y-19441D01*
X22433Y-19226D01*
X22433Y-18994D01*
X22417Y-18953D01*
X23332Y-18953D01*
X23427Y-18934D01*
X23509Y-18880D01*
X23626Y-18763D01*
X23626Y-18763D01*
X23626Y-18763D01*
X23680Y-18682D01*
X23680Y-18682D01*
X23699Y-18586D01*
X23699Y-17632D01*
X23680Y-17536D01*
X23680Y-17536D01*
X23658Y-17504D01*
X23626Y-17455D01*
X23626Y-17455D01*
X22967Y-16797D01*
X22886Y-16742D01*
X22791Y-16723D01*
X20055Y-16723D01*
X19804Y-16473D01*
X20148Y-16473D01*
X20244Y-16454D01*
X20293Y-16420D01*
X23757Y-16420D01*
X25623Y-18287D01*
X25704Y-18341D01*
X25800Y-18360D01*
X25810Y-18360D01*
X25810Y-18541D01*
X25839Y-18611D01*
X25892Y-18664D01*
X25962Y-18693D01*
X26037Y-18693D01*
X26824Y-18693D01*
X26894Y-18664D01*
X26948Y-18611D01*
X26977Y-18541D01*
X26977Y-18466D01*
X26977Y-17679D01*
X26948Y-17609D01*
X26894Y-17555D01*
X26825Y-17526D01*
X26749Y-17526D01*
X25962Y-17526D01*
X25892Y-17555D01*
X25839Y-17608D01*
X25810Y-17678D01*
X25810Y-17754D01*
X25810Y-17766D01*
X24037Y-15994D01*
X23956Y-15939D01*
X23860Y-15920D01*
X21883Y-15920D01*
X21883Y-15266D01*
X21883Y-15104D01*
X21820Y-15041D01*
X21408Y-15041D01*
X21408Y-15404D01*
X21470Y-15466D01*
X21583Y-15466D01*
X21683Y-15466D01*
X21775Y-15428D01*
X21845Y-15358D01*
X21883Y-15266D01*
X21883Y-15920D01*
X21308Y-15920D01*
X21308Y-15404D01*
X21308Y-15041D01*
X20895Y-15041D01*
X20833Y-15104D01*
X20833Y-15266D01*
X20871Y-15358D01*
X20941Y-15428D01*
X21033Y-15466D01*
X21132Y-15466D01*
X21245Y-15466D01*
X21308Y-15404D01*
X21308Y-15920D01*
X20508Y-15920D01*
X20508Y-15119D01*
X20479Y-15049D01*
X20426Y-14995D01*
X20356Y-14966D01*
X20281Y-14966D01*
X20045Y-14966D01*
X19975Y-14995D01*
X19950Y-15020D01*
X19926Y-14995D01*
X19856Y-14966D01*
X19781Y-14966D01*
X19545Y-14966D01*
X19475Y-14995D01*
X19450Y-15020D01*
X19426Y-14995D01*
X19356Y-14966D01*
X19303Y-14966D01*
X19367Y-14812D01*
X19368Y-14639D01*
X19302Y-14479D01*
X19249Y-14427D01*
X20848Y-14427D01*
X20898Y-14417D01*
X20922Y-14474D01*
X20975Y-14527D01*
X20991Y-14534D01*
X20941Y-14555D01*
X20871Y-14625D01*
X20833Y-14717D01*
X20833Y-14879D01*
X20895Y-14941D01*
X21308Y-14941D01*
X21308Y-14934D01*
X21408Y-14934D01*
X21408Y-14941D01*
X21820Y-14941D01*
X21883Y-14879D01*
X21883Y-14717D01*
X21845Y-14625D01*
X21775Y-14555D01*
X21725Y-14534D01*
X21740Y-14528D01*
X21794Y-14474D01*
X21823Y-14404D01*
X21823Y-14329D01*
X21823Y-13879D01*
X21794Y-13809D01*
X21741Y-13755D01*
X21692Y-13735D01*
X22343Y-13084D01*
X24786Y-13084D01*
X24819Y-13164D01*
X24983Y-13329D01*
X25198Y-13418D01*
X25430Y-13418D01*
X25645Y-13329D01*
X25809Y-13165D01*
X25898Y-12951D01*
X25898Y-12929D01*
X25941Y-12972D01*
X25941Y-12972D01*
X26022Y-13026D01*
X26022Y-13026D01*
X26099Y-13041D01*
X26118Y-13045D01*
X26118Y-13045D01*
X26118Y-13045D01*
X26128Y-13045D01*
X26128Y-13107D01*
X26157Y-13177D01*
X26210Y-13231D01*
X26280Y-13260D01*
X26356Y-13260D01*
X26806Y-13260D01*
X26875Y-13231D01*
X26929Y-13178D01*
X26958Y-13108D01*
X26958Y-13032D01*
X26958Y-12733D01*
X26978Y-12713D01*
X26978Y-13107D01*
X27001Y-13164D01*
X26654Y-13511D01*
X26280Y-13511D01*
X26211Y-13540D01*
X26157Y-13593D01*
X26133Y-13651D01*
X26092Y-13623D01*
X25996Y-13604D01*
X24205Y-13604D01*
X24172Y-13524D01*
X24008Y-13359D01*
X23793Y-13270D01*
X23561Y-13270D01*
X23346Y-13359D01*
X23182Y-13523D01*
X23093Y-13737D01*
X23093Y-13969D01*
X23182Y-14184D01*
X23346Y-14348D01*
X23560Y-14437D01*
X23792Y-14438D01*
X24007Y-14349D01*
X24171Y-14185D01*
X24205Y-14104D01*
X25892Y-14104D01*
X25941Y-14153D01*
X26022Y-14207D01*
X26118Y-14226D01*
X26128Y-14226D01*
X26128Y-14289D01*
X26157Y-14358D01*
X26210Y-14412D01*
X26280Y-14441D01*
X26356Y-14441D01*
X26806Y-14441D01*
X26875Y-14412D01*
X26929Y-14359D01*
X26958Y-14289D01*
X26958Y-14213D01*
X26958Y-13914D01*
X26978Y-13894D01*
X26978Y-14289D01*
X27001Y-14345D01*
X26654Y-14692D01*
X26280Y-14692D01*
X26211Y-14721D01*
X26157Y-14774D01*
X26128Y-14844D01*
X26128Y-14907D01*
X26118Y-14907D01*
X26118Y-14907D01*
X26099Y-14911D01*
X26022Y-14926D01*
X25941Y-14980D01*
X25941Y-14980D01*
X25554Y-15368D01*
X25225Y-15368D01*
X25191Y-15287D01*
X25027Y-15123D01*
X24813Y-15034D01*
X24581Y-15034D01*
X24366Y-15122D01*
X24202Y-15287D01*
X24113Y-15501D01*
X24113Y-15733D01*
X24201Y-15948D01*
X24365Y-16112D01*
X24580Y-16201D01*
X24812Y-16201D01*
X25027Y-16113D01*
X25191Y-15949D01*
X25225Y-15868D01*
X25657Y-15868D01*
X25753Y-15849D01*
X25834Y-15794D01*
X26137Y-15491D01*
X26157Y-15539D01*
X26210Y-15593D01*
X26280Y-15622D01*
X26356Y-15622D01*
X26806Y-15622D01*
X26875Y-15593D01*
X26929Y-15540D01*
X26958Y-15470D01*
X26958Y-15394D01*
X26958Y-15096D01*
X26978Y-15076D01*
X26978Y-15470D01*
X27007Y-15539D01*
X27060Y-15593D01*
X27124Y-15620D01*
X26657Y-16087D01*
X26577Y-16054D01*
X26345Y-16053D01*
X26130Y-16142D01*
X25966Y-16306D01*
X25877Y-16521D01*
X25876Y-16753D01*
X25965Y-16968D01*
X26129Y-17132D01*
X26344Y-17221D01*
X26576Y-17221D01*
X26790Y-17132D01*
X26955Y-16968D01*
X27044Y-16754D01*
X27044Y-16522D01*
X27010Y-16441D01*
X27570Y-15881D01*
X27624Y-15800D01*
X27643Y-15704D01*
X27643Y-15622D01*
X27656Y-15622D01*
X27725Y-15593D01*
X27779Y-15540D01*
X27808Y-15470D01*
X27808Y-15394D01*
X27808Y-14844D01*
X27779Y-14774D01*
X27726Y-14721D01*
X27656Y-14692D01*
X27580Y-14692D01*
X27438Y-14692D01*
X27489Y-14682D01*
X27570Y-14628D01*
X27624Y-14547D01*
X27643Y-14451D01*
X27643Y-14441D01*
X27656Y-14441D01*
X27725Y-14412D01*
X27779Y-14359D01*
X27808Y-14289D01*
X27808Y-14213D01*
X27808Y-13663D01*
X27779Y-13593D01*
X27726Y-13540D01*
X27656Y-13511D01*
X27580Y-13511D01*
X27438Y-13511D01*
X27489Y-13501D01*
X27570Y-13447D01*
X27624Y-13366D01*
X27643Y-13270D01*
X27643Y-13260D01*
X27656Y-13260D01*
X27725Y-13231D01*
X27779Y-13178D01*
X27808Y-13108D01*
X27808Y-13032D01*
X27808Y-12482D01*
X27779Y-12412D01*
X27726Y-12359D01*
X27656Y-12330D01*
X27580Y-12330D01*
X27438Y-12330D01*
X27489Y-12320D01*
X27570Y-12266D01*
X27624Y-12184D01*
X27643Y-12089D01*
X27643Y-12079D01*
X27656Y-12079D01*
X27725Y-12050D01*
X27779Y-11996D01*
X27808Y-11927D01*
X27808Y-11851D01*
X27808Y-11301D01*
X27779Y-11231D01*
X27726Y-11178D01*
X27656Y-11149D01*
X27580Y-11149D01*
X27438Y-11149D01*
X27489Y-11139D01*
X27570Y-11084D01*
X27624Y-11003D01*
X27643Y-10908D01*
X27643Y-10898D01*
X27656Y-10898D01*
X27725Y-10869D01*
X27779Y-10815D01*
X27808Y-10746D01*
X27808Y-10670D01*
X27808Y-10120D01*
X27779Y-10050D01*
X27726Y-9997D01*
X27656Y-9968D01*
X27580Y-9968D01*
X27130Y-9968D01*
X27108Y-9977D01*
X27108Y-9135D01*
X27099Y-8879D01*
X27019Y-8687D01*
X26914Y-8648D01*
X26843Y-8719D01*
X26843Y-8577D01*
X26804Y-8472D01*
X26564Y-8383D01*
X26308Y-8392D01*
X26116Y-8472D01*
X26077Y-8577D01*
X26460Y-8960D01*
X26843Y-8577D01*
X26843Y-8719D01*
X26531Y-9031D01*
X26914Y-9414D01*
X27019Y-9375D01*
X27108Y-9135D01*
X27108Y-9977D01*
X27061Y-9996D01*
X27007Y-10050D01*
X27000Y-10066D01*
X26980Y-10016D01*
X26909Y-9946D01*
X26843Y-9918D01*
X26843Y-9485D01*
X26460Y-9102D01*
X26389Y-9172D01*
X26389Y-9031D01*
X26006Y-8648D01*
X25901Y-8687D01*
X25812Y-8927D01*
X25822Y-9183D01*
X25901Y-9375D01*
X26006Y-9414D01*
X26389Y-9031D01*
X26389Y-9172D01*
X26077Y-9485D01*
X26116Y-9590D01*
X26356Y-9679D01*
X26612Y-9670D01*
X26804Y-9590D01*
X26843Y-9485D01*
X26843Y-9918D01*
X26818Y-9908D01*
X26656Y-9908D01*
X26593Y-9970D01*
X26593Y-10383D01*
X26601Y-10383D01*
X26601Y-10483D01*
X26593Y-10483D01*
X26593Y-10895D01*
X26656Y-10958D01*
X26818Y-10958D01*
X26865Y-10938D01*
X26654Y-11149D01*
X26493Y-11149D01*
X26493Y-10895D01*
X26493Y-10483D01*
X26493Y-10383D01*
X26493Y-9970D01*
X26431Y-9908D01*
X26268Y-9908D01*
X26177Y-9946D01*
X26106Y-10016D01*
X26068Y-10108D01*
X26068Y-10207D01*
X26068Y-10320D01*
X26131Y-10383D01*
X26493Y-10383D01*
X26493Y-10483D01*
X26131Y-10483D01*
X26068Y-10545D01*
X26068Y-10658D01*
X26068Y-10758D01*
X26106Y-10849D01*
X26177Y-10920D01*
X26268Y-10958D01*
X26431Y-10958D01*
X26493Y-10895D01*
X26493Y-11149D01*
X26280Y-11149D01*
X26211Y-11178D01*
X26194Y-11194D01*
X25703Y-10703D01*
X25703Y-8886D01*
X25703Y-8435D01*
X25703Y-8336D01*
X25664Y-8244D01*
X25594Y-8174D01*
X25502Y-8136D01*
X25340Y-8136D01*
X25278Y-8198D01*
X25278Y-8611D01*
X25640Y-8611D01*
X25703Y-8548D01*
X25703Y-8435D01*
X25703Y-8886D01*
X25703Y-8773D01*
X25640Y-8711D01*
X25278Y-8711D01*
X25278Y-9123D01*
X25340Y-9186D01*
X25502Y-9186D01*
X25594Y-9148D01*
X25664Y-9078D01*
X25703Y-8986D01*
X25703Y-8886D01*
X25703Y-10703D01*
X25247Y-10247D01*
X25280Y-10167D01*
X25280Y-9935D01*
X25191Y-9720D01*
X25027Y-9556D01*
X24813Y-9467D01*
X24581Y-9467D01*
X24366Y-9556D01*
X24202Y-9720D01*
X24113Y-9934D01*
X24113Y-10166D01*
X24201Y-10381D01*
X24365Y-10545D01*
X24580Y-10634D01*
X24812Y-10634D01*
X24893Y-10601D01*
X25868Y-11576D01*
X25868Y-11614D01*
X25887Y-11709D01*
X25941Y-11790D01*
X26022Y-11845D01*
X26118Y-11864D01*
X26128Y-11864D01*
X26128Y-11926D01*
X26157Y-11996D01*
X26210Y-12050D01*
X26280Y-12079D01*
X26356Y-12079D01*
X26806Y-12079D01*
X26875Y-12050D01*
X26929Y-11996D01*
X26958Y-11927D01*
X26958Y-11851D01*
X26958Y-11552D01*
X26978Y-11532D01*
X26978Y-11926D01*
X27001Y-11983D01*
X26654Y-12330D01*
X26280Y-12330D01*
X26211Y-12359D01*
X26157Y-12412D01*
X26137Y-12460D01*
X25314Y-11638D01*
X25233Y-11583D01*
X25138Y-11564D01*
X24205Y-11564D01*
X24172Y-11484D01*
X24008Y-11320D01*
X23793Y-11231D01*
X23561Y-11231D01*
X23346Y-11319D01*
X23182Y-11483D01*
X23093Y-11698D01*
X23093Y-11930D01*
X23182Y-12145D01*
X23346Y-12309D01*
X23560Y-12398D01*
X23792Y-12398D01*
X24007Y-12310D01*
X24171Y-12146D01*
X24205Y-12064D01*
X25034Y-12064D01*
X25220Y-12250D01*
X25199Y-12250D01*
X24984Y-12339D01*
X24820Y-12503D01*
X24786Y-12584D01*
X22240Y-12584D01*
X22144Y-12603D01*
X22063Y-12657D01*
X21181Y-13540D01*
X21127Y-13621D01*
X21108Y-13716D01*
X21108Y-13726D01*
X21045Y-13726D01*
X20975Y-13755D01*
X20922Y-13809D01*
X20893Y-13878D01*
X20893Y-13891D01*
X20883Y-13891D01*
X20883Y-13891D01*
X20864Y-13895D01*
X20787Y-13910D01*
X20763Y-13927D01*
X20508Y-13927D01*
X20508Y-13073D01*
X20479Y-13003D01*
X20426Y-12949D01*
X20356Y-12920D01*
X20281Y-12920D01*
X20045Y-12920D01*
X19975Y-12949D01*
X19950Y-12974D01*
X19926Y-12949D01*
X19856Y-12920D01*
X19781Y-12920D01*
X19775Y-12920D01*
X19621Y-12766D01*
X19662Y-12749D01*
X19774Y-12637D01*
X19820Y-12628D01*
X19901Y-12574D01*
X20133Y-12342D01*
X20153Y-12390D01*
X20206Y-12443D01*
X20276Y-12472D01*
X20352Y-12472D01*
X20802Y-12472D01*
X20872Y-12444D01*
X20925Y-12390D01*
X20954Y-12320D01*
X20954Y-12245D01*
X20954Y-11696D01*
X20975Y-11692D01*
X20974Y-11694D01*
X20974Y-11770D01*
X20974Y-12320D01*
X21003Y-12390D01*
X21056Y-12443D01*
X21126Y-12472D01*
X21202Y-12472D01*
X21652Y-12472D01*
X21722Y-12444D01*
X21775Y-12390D01*
X21804Y-12320D01*
X21804Y-12257D01*
X21814Y-12257D01*
X21910Y-12238D01*
X21991Y-12184D01*
X23337Y-10838D01*
X23392Y-10757D01*
X23411Y-10661D01*
X23411Y-10405D01*
X23423Y-10405D01*
X23493Y-10377D01*
X23547Y-10323D01*
X23576Y-10253D01*
X23576Y-10190D01*
X23586Y-10190D01*
X23682Y-10171D01*
X23763Y-10117D01*
X24129Y-9751D01*
X24129Y-9751D01*
X24129Y-9751D01*
X24162Y-9702D01*
X24184Y-9669D01*
X24184Y-9669D01*
X24203Y-9574D01*
X24203Y-9126D01*
X24640Y-9126D01*
X24710Y-9097D01*
X24764Y-9044D01*
X24770Y-9028D01*
X24791Y-9078D01*
X24861Y-9148D01*
X24953Y-9186D01*
X25115Y-9186D01*
X25178Y-9123D01*
X25178Y-8711D01*
X25170Y-8711D01*
X25170Y-8611D01*
X25178Y-8611D01*
X25178Y-8198D01*
X25115Y-8136D01*
X24953Y-8136D01*
X24861Y-8174D01*
X24791Y-8244D01*
X24770Y-8294D01*
X24764Y-8278D01*
X24710Y-8225D01*
X24641Y-8196D01*
X24565Y-8196D01*
X24115Y-8196D01*
X24045Y-8225D01*
X23992Y-8278D01*
X23963Y-8348D01*
X23963Y-8411D01*
X23953Y-8411D01*
X23857Y-8430D01*
X23776Y-8484D01*
X23722Y-8565D01*
X23719Y-8578D01*
X23692Y-8514D01*
X23639Y-8460D01*
X23569Y-8431D01*
X23494Y-8431D01*
X23100Y-8431D01*
X23030Y-8460D01*
X22976Y-8514D01*
X22947Y-8583D01*
X22947Y-8659D01*
X22947Y-8935D01*
X22976Y-9005D01*
X23029Y-9058D01*
X23099Y-9087D01*
X23175Y-9087D01*
X23569Y-9087D01*
X23639Y-9059D01*
X23692Y-9005D01*
X23703Y-8980D01*
X23703Y-9470D01*
X23567Y-9606D01*
X23547Y-9558D01*
X23493Y-9504D01*
X23424Y-9475D01*
X23348Y-9475D01*
X22898Y-9475D01*
X22828Y-9504D01*
X22781Y-9551D01*
X22781Y-8572D01*
X22781Y-8497D01*
X22719Y-8434D01*
X22384Y-8434D01*
X22384Y-8710D01*
X22447Y-8772D01*
X22482Y-8772D01*
X22581Y-8772D01*
X22673Y-8734D01*
X22743Y-8664D01*
X22781Y-8572D01*
X22781Y-9551D01*
X22775Y-9558D01*
X22746Y-9627D01*
X22746Y-9703D01*
X22746Y-10253D01*
X22775Y-10323D01*
X22828Y-10376D01*
X22898Y-10405D01*
X22911Y-10405D01*
X22911Y-10557D01*
X22726Y-10742D01*
X22726Y-10178D01*
X22726Y-9628D01*
X22697Y-9558D01*
X22643Y-9504D01*
X22583Y-9479D01*
X22584Y-9472D01*
X22584Y-9456D01*
X22639Y-9434D01*
X22692Y-9380D01*
X22721Y-9310D01*
X22721Y-9235D01*
X22721Y-8959D01*
X22692Y-8889D01*
X22639Y-8835D01*
X22569Y-8806D01*
X22494Y-8806D01*
X22284Y-8806D01*
X22284Y-8710D01*
X22284Y-8434D01*
X21950Y-8434D01*
X21887Y-8497D01*
X21887Y-8572D01*
X21925Y-8664D01*
X21995Y-8734D01*
X22087Y-8772D01*
X22187Y-8772D01*
X22222Y-8772D01*
X22284Y-8710D01*
X22284Y-8806D01*
X22100Y-8806D01*
X22030Y-8835D01*
X21976Y-8889D01*
X21947Y-8958D01*
X21947Y-9034D01*
X21947Y-9310D01*
X21976Y-9380D01*
X22016Y-9420D01*
X21864Y-9573D01*
X21864Y-9083D01*
X21864Y-8632D01*
X21864Y-8533D01*
X21826Y-8441D01*
X21755Y-8371D01*
X21664Y-8333D01*
X21502Y-8333D01*
X21439Y-8395D01*
X21439Y-8808D01*
X21802Y-8808D01*
X21864Y-8745D01*
X21864Y-8632D01*
X21864Y-9083D01*
X21864Y-8970D01*
X21802Y-8908D01*
X21439Y-8908D01*
X21439Y-9320D01*
X21502Y-9383D01*
X21664Y-9383D01*
X21755Y-9345D01*
X21826Y-9275D01*
X21864Y-9183D01*
X21864Y-9083D01*
X21864Y-9573D01*
X21804Y-9633D01*
X21804Y-9628D01*
X21775Y-9558D01*
X21722Y-9504D01*
X21652Y-9475D01*
X21576Y-9475D01*
X21126Y-9475D01*
X21057Y-9504D01*
X21003Y-9558D01*
X20974Y-9627D01*
X20974Y-9703D01*
X20974Y-10253D01*
X21003Y-10323D01*
X21056Y-10376D01*
X21126Y-10405D01*
X21202Y-10405D01*
X21652Y-10405D01*
X21722Y-10377D01*
X21775Y-10323D01*
X21804Y-10253D01*
X21804Y-10190D01*
X21850Y-10190D01*
X21896Y-10190D01*
X21896Y-10253D01*
X21925Y-10323D01*
X21978Y-10376D01*
X22048Y-10405D01*
X22123Y-10405D01*
X22573Y-10405D01*
X22643Y-10377D01*
X22697Y-10323D01*
X22726Y-10253D01*
X22726Y-10178D01*
X22726Y-10742D01*
X21795Y-11673D01*
X21775Y-11625D01*
X21722Y-11571D01*
X21652Y-11542D01*
X21576Y-11542D01*
X21167Y-11542D01*
X21300Y-11410D01*
X21656Y-11410D01*
X21733Y-11378D01*
X21792Y-11319D01*
X21824Y-11242D01*
X21824Y-11158D01*
X21824Y-10608D01*
X21792Y-10531D01*
X21733Y-10472D01*
X21656Y-10440D01*
X21572Y-10440D01*
X21122Y-10440D01*
X21045Y-10472D01*
X20986Y-10531D01*
X20954Y-10608D01*
X20954Y-10613D01*
X20954Y-10612D01*
X20925Y-10542D01*
X20872Y-10489D01*
X20802Y-10460D01*
X20789Y-10460D01*
X20789Y-10405D01*
X20802Y-10405D01*
X20872Y-10377D01*
X20925Y-10323D01*
X20954Y-10253D01*
X20954Y-10178D01*
X20954Y-9628D01*
X20925Y-9558D01*
X20872Y-9504D01*
X20802Y-9475D01*
X20789Y-9475D01*
X20789Y-9323D01*
X20802Y-9323D01*
X20872Y-9294D01*
X20925Y-9241D01*
X20932Y-9225D01*
X20952Y-9275D01*
X21023Y-9345D01*
X21115Y-9383D01*
X21277Y-9383D01*
X21339Y-9320D01*
X21339Y-8908D01*
X21331Y-8908D01*
X21331Y-8808D01*
X21339Y-8808D01*
X21339Y-8395D01*
X21277Y-8333D01*
X21115Y-8333D01*
X21023Y-8371D01*
X20952Y-8441D01*
X20932Y-8491D01*
X20925Y-8475D01*
X20872Y-8422D01*
X20802Y-8393D01*
X20726Y-8393D01*
X20276Y-8393D01*
X20207Y-8422D01*
X20153Y-8475D01*
X20124Y-8545D01*
X20124Y-8620D01*
X20124Y-9170D01*
X20153Y-9240D01*
X20206Y-9294D01*
X20276Y-9323D01*
X20289Y-9323D01*
X20289Y-9475D01*
X20276Y-9475D01*
X20207Y-9504D01*
X20153Y-9558D01*
X20124Y-9627D01*
X20124Y-9703D01*
X20124Y-10253D01*
X20153Y-10323D01*
X20206Y-10376D01*
X20276Y-10405D01*
X20289Y-10405D01*
X20289Y-10460D01*
X20276Y-10460D01*
X20207Y-10489D01*
X20153Y-10542D01*
X20124Y-10612D01*
X20124Y-10687D01*
X20124Y-10963D01*
X20021Y-10860D01*
X20021Y-10522D01*
X20021Y-10522D01*
X20000Y-10415D01*
X20000Y-10415D01*
X19980Y-10385D01*
X19939Y-10324D01*
X19939Y-10324D01*
X19076Y-9461D01*
X19651Y-9461D01*
X19728Y-9429D01*
X19787Y-9370D01*
X19819Y-9293D01*
X19820Y-9210D01*
X19820Y-8423D01*
X19788Y-8345D01*
X19729Y-8286D01*
X19651Y-8254D01*
X19568Y-8254D01*
X19008Y-8254D01*
X18827Y-8073D01*
X21957Y-8073D01*
X21925Y-8105D01*
X21887Y-8197D01*
X21887Y-8272D01*
X21950Y-8334D01*
X22284Y-8334D01*
X22284Y-8326D01*
X22384Y-8326D01*
X22384Y-8334D01*
X22719Y-8334D01*
X22781Y-8272D01*
X22781Y-8197D01*
X22743Y-8105D01*
X22711Y-8073D01*
X32083Y-8073D01*
X32083Y-19879D01*
X32083Y-19879D01*
G37*
G54D21*
X32083Y-19879D02*
X31872Y-19879D01*
X31872Y-19100D01*
X31867Y-18966D01*
X31867Y-13738D01*
X31867Y-11699D01*
X31778Y-11484D01*
X31614Y-11320D01*
X31400Y-11231D01*
X31167Y-11231D01*
X30953Y-11319D01*
X30847Y-11425D01*
X30847Y-9935D01*
X30758Y-9720D01*
X30594Y-9556D01*
X30380Y-9467D01*
X30148Y-9467D01*
X29933Y-9556D01*
X29769Y-9720D01*
X29680Y-9934D01*
X29679Y-10166D01*
X29768Y-10381D01*
X29932Y-10545D01*
X30147Y-10634D01*
X30379Y-10634D01*
X30593Y-10546D01*
X30758Y-10382D01*
X30847Y-10167D01*
X30847Y-9935D01*
X30847Y-11425D01*
X30788Y-11483D01*
X30699Y-11698D01*
X30699Y-11930D01*
X30788Y-12145D01*
X30952Y-12309D01*
X31166Y-12398D01*
X31399Y-12398D01*
X31613Y-12310D01*
X31778Y-12146D01*
X31867Y-11931D01*
X31867Y-11699D01*
X31867Y-13738D01*
X31778Y-13524D01*
X31614Y-13359D01*
X31400Y-13270D01*
X31167Y-13270D01*
X30953Y-13359D01*
X30788Y-13523D01*
X30699Y-13737D01*
X30699Y-13969D01*
X30788Y-14184D01*
X30952Y-14348D01*
X31166Y-14437D01*
X31399Y-14438D01*
X31613Y-14349D01*
X31778Y-14185D01*
X31867Y-13970D01*
X31867Y-13738D01*
X31867Y-18966D01*
X31862Y-18844D01*
X31783Y-18651D01*
X31678Y-18613D01*
X31607Y-18683D01*
X31607Y-18542D01*
X31568Y-18437D01*
X31328Y-18348D01*
X31072Y-18357D01*
X30880Y-18437D01*
X30847Y-18526D01*
X30847Y-15502D01*
X30758Y-15287D01*
X30594Y-15123D01*
X30380Y-15034D01*
X30229Y-15034D01*
X30229Y-12719D01*
X30140Y-12504D01*
X29976Y-12340D01*
X29762Y-12251D01*
X29530Y-12250D01*
X29315Y-12339D01*
X29151Y-12503D01*
X29083Y-12665D01*
X29083Y-8915D01*
X28995Y-8701D01*
X28831Y-8536D01*
X28616Y-8447D01*
X28384Y-8447D01*
X28169Y-8536D01*
X28005Y-8700D01*
X27916Y-8914D01*
X27916Y-9147D01*
X28004Y-9361D01*
X28168Y-9526D01*
X28383Y-9615D01*
X28615Y-9615D01*
X28830Y-9526D01*
X28994Y-9362D01*
X29083Y-9148D01*
X29083Y-8915D01*
X29083Y-12665D01*
X29062Y-12718D01*
X29061Y-12950D01*
X29150Y-13164D01*
X29314Y-13329D01*
X29529Y-13418D01*
X29761Y-13418D01*
X29975Y-13329D01*
X30140Y-13165D01*
X30229Y-12951D01*
X30229Y-12719D01*
X30229Y-15034D01*
X30148Y-15034D01*
X29933Y-15122D01*
X29769Y-15287D01*
X29680Y-15501D01*
X29679Y-15733D01*
X29768Y-15948D01*
X29932Y-16112D01*
X30147Y-16201D01*
X30379Y-16201D01*
X30593Y-16113D01*
X30758Y-15949D01*
X30847Y-15734D01*
X30847Y-15502D01*
X30847Y-18526D01*
X30841Y-18542D01*
X31224Y-18925D01*
X31607Y-18542D01*
X31607Y-18683D01*
X31295Y-18996D01*
X31678Y-19378D01*
X31783Y-19340D01*
X31872Y-19100D01*
X31872Y-19879D01*
X31607Y-19879D01*
X31607Y-19449D01*
X31224Y-19066D01*
X30841Y-19449D01*
X30880Y-19554D01*
X31120Y-19643D01*
X31376Y-19634D01*
X31568Y-19554D01*
X31607Y-19449D01*
X31607Y-19879D01*
X24978Y-19879D01*
X25197Y-19660D01*
X25277Y-19693D01*
X25509Y-19693D01*
X25590Y-19660D01*
X25696Y-19766D01*
X25696Y-19766D01*
X25777Y-19820D01*
X25777Y-19820D01*
X25873Y-19839D01*
X28724Y-19839D01*
X28820Y-19820D01*
X28901Y-19766D01*
X29093Y-19573D01*
X29107Y-19579D01*
X29339Y-19579D01*
X29554Y-19491D01*
X29718Y-19327D01*
X29724Y-19313D01*
X29729Y-19326D01*
X29893Y-19490D01*
X30107Y-19579D01*
X30339Y-19579D01*
X30554Y-19491D01*
X30694Y-19350D01*
X30770Y-19378D01*
X31153Y-18996D01*
X30770Y-18613D01*
X30694Y-18641D01*
X30555Y-18501D01*
X30340Y-18412D01*
X30108Y-18412D01*
X29894Y-18501D01*
X29730Y-18665D01*
X29724Y-18678D01*
X29719Y-18665D01*
X29555Y-18501D01*
X29340Y-18412D01*
X29108Y-18412D01*
X29083Y-18422D01*
X29083Y-16522D01*
X28995Y-16307D01*
X28831Y-16143D01*
X28616Y-16054D01*
X28384Y-16053D01*
X28169Y-16142D01*
X28005Y-16306D01*
X27916Y-16521D01*
X27916Y-16753D01*
X28004Y-16968D01*
X28168Y-17132D01*
X28383Y-17221D01*
X28615Y-17221D01*
X28830Y-17132D01*
X28994Y-16968D01*
X29083Y-16754D01*
X29083Y-16522D01*
X29083Y-18422D01*
X28894Y-18501D01*
X28807Y-18587D01*
X28807Y-18564D01*
X28779Y-18495D01*
X28725Y-18441D01*
X28655Y-18412D01*
X28580Y-18412D01*
X27793Y-18412D01*
X27723Y-18441D01*
X27669Y-18494D01*
X27640Y-18564D01*
X27640Y-18640D01*
X27640Y-19339D01*
X25976Y-19339D01*
X25943Y-19306D01*
X25977Y-19226D01*
X25977Y-18994D01*
X25888Y-18780D01*
X25724Y-18615D01*
X25510Y-18526D01*
X25278Y-18526D01*
X25063Y-18615D01*
X25041Y-18637D01*
X25041Y-18214D01*
X25032Y-17958D01*
X24952Y-17766D01*
X24847Y-17727D01*
X24776Y-17798D01*
X24776Y-17656D01*
X24737Y-17551D01*
X24497Y-17462D01*
X24241Y-17471D01*
X24049Y-17551D01*
X24010Y-17656D01*
X24393Y-18039D01*
X24776Y-17656D01*
X24776Y-17798D01*
X24464Y-18110D01*
X24847Y-18493D01*
X24952Y-18454D01*
X25041Y-18214D01*
X25041Y-18637D01*
X24899Y-18779D01*
X24810Y-18993D01*
X24810Y-19225D01*
X24843Y-19306D01*
X24776Y-19373D01*
X24776Y-18563D01*
X24393Y-18180D01*
X24322Y-18251D01*
X24322Y-18110D01*
X23940Y-17727D01*
X23835Y-17766D01*
X23745Y-18006D01*
X23755Y-18261D01*
X23835Y-18454D01*
X23940Y-18493D01*
X24322Y-18110D01*
X24322Y-18251D01*
X24010Y-18563D01*
X24049Y-18668D01*
X24289Y-18758D01*
X24545Y-18748D01*
X24737Y-18668D01*
X24776Y-18563D01*
X24776Y-19373D01*
X24672Y-19478D01*
X22307Y-19478D01*
X22344Y-19441D01*
X22433Y-19226D01*
X22433Y-18994D01*
X22417Y-18953D01*
X23332Y-18953D01*
X23427Y-18934D01*
X23509Y-18880D01*
X23626Y-18763D01*
X23626Y-18763D01*
X23626Y-18763D01*
X23680Y-18682D01*
X23680Y-18682D01*
X23699Y-18586D01*
X23699Y-17632D01*
X23680Y-17536D01*
X23680Y-17536D01*
X23658Y-17504D01*
X23626Y-17455D01*
X23626Y-17455D01*
X22967Y-16797D01*
X22886Y-16742D01*
X22791Y-16723D01*
X20055Y-16723D01*
X19804Y-16473D01*
X20148Y-16473D01*
X20244Y-16454D01*
X20293Y-16420D01*
X23757Y-16420D01*
X25623Y-18287D01*
X25704Y-18341D01*
X25800Y-18360D01*
X25810Y-18360D01*
X25810Y-18541D01*
X25839Y-18611D01*
X25892Y-18664D01*
X25962Y-18693D01*
X26037Y-18693D01*
X26824Y-18693D01*
X26894Y-18664D01*
X26948Y-18611D01*
X26977Y-18541D01*
X26977Y-18466D01*
X26977Y-17679D01*
X26948Y-17609D01*
X26894Y-17555D01*
X26825Y-17526D01*
X26749Y-17526D01*
X25962Y-17526D01*
X25892Y-17555D01*
X25839Y-17608D01*
X25810Y-17678D01*
X25810Y-17754D01*
X25810Y-17766D01*
X24037Y-15994D01*
X23956Y-15939D01*
X23860Y-15920D01*
X21883Y-15920D01*
X21883Y-15266D01*
X21883Y-15104D01*
X21820Y-15041D01*
X21408Y-15041D01*
X21408Y-15404D01*
X21470Y-15466D01*
X21583Y-15466D01*
X21683Y-15466D01*
X21775Y-15428D01*
X21845Y-15358D01*
X21883Y-15266D01*
X21883Y-15920D01*
X21308Y-15920D01*
X21308Y-15404D01*
X21308Y-15041D01*
X20895Y-15041D01*
X20833Y-15104D01*
X20833Y-15266D01*
X20871Y-15358D01*
X20941Y-15428D01*
X21033Y-15466D01*
X21132Y-15466D01*
X21245Y-15466D01*
X21308Y-15404D01*
X21308Y-15920D01*
X20508Y-15920D01*
X20508Y-15119D01*
X20479Y-15049D01*
X20426Y-14995D01*
X20356Y-14966D01*
X20281Y-14966D01*
X20045Y-14966D01*
X19975Y-14995D01*
X19950Y-15020D01*
X19926Y-14995D01*
X19856Y-14966D01*
X19781Y-14966D01*
X19545Y-14966D01*
X19475Y-14995D01*
X19450Y-15020D01*
X19426Y-14995D01*
X19356Y-14966D01*
X19303Y-14966D01*
X19367Y-14812D01*
X19368Y-14639D01*
X19302Y-14479D01*
X19249Y-14427D01*
X20848Y-14427D01*
X20898Y-14417D01*
X20922Y-14474D01*
X20975Y-14527D01*
X20991Y-14534D01*
X20941Y-14555D01*
X20871Y-14625D01*
X20833Y-14717D01*
X20833Y-14879D01*
X20895Y-14941D01*
X21308Y-14941D01*
X21308Y-14934D01*
X21408Y-14934D01*
X21408Y-14941D01*
X21820Y-14941D01*
X21883Y-14879D01*
X21883Y-14717D01*
X21845Y-14625D01*
X21775Y-14555D01*
X21725Y-14534D01*
X21740Y-14528D01*
X21794Y-14474D01*
X21823Y-14404D01*
X21823Y-14329D01*
X21823Y-13879D01*
X21794Y-13809D01*
X21741Y-13755D01*
X21692Y-13735D01*
X22343Y-13084D01*
X24786Y-13084D01*
X24819Y-13164D01*
X24983Y-13329D01*
X25198Y-13418D01*
X25430Y-13418D01*
X25645Y-13329D01*
X25809Y-13165D01*
X25898Y-12951D01*
X25898Y-12929D01*
X25941Y-12972D01*
X25941Y-12972D01*
X26022Y-13026D01*
X26022Y-13026D01*
X26099Y-13041D01*
X26118Y-13045D01*
X26118Y-13045D01*
X26118Y-13045D01*
X26128Y-13045D01*
X26128Y-13107D01*
X26157Y-13177D01*
X26210Y-13231D01*
X26280Y-13260D01*
X26356Y-13260D01*
X26806Y-13260D01*
X26875Y-13231D01*
X26929Y-13178D01*
X26958Y-13108D01*
X26958Y-13032D01*
X26958Y-12733D01*
X26978Y-12713D01*
X26978Y-13107D01*
X27001Y-13164D01*
X26654Y-13511D01*
X26280Y-13511D01*
X26211Y-13540D01*
X26157Y-13593D01*
X26133Y-13651D01*
X26092Y-13623D01*
X25996Y-13604D01*
X24205Y-13604D01*
X24172Y-13524D01*
X24008Y-13359D01*
X23793Y-13270D01*
X23561Y-13270D01*
X23346Y-13359D01*
X23182Y-13523D01*
X23093Y-13737D01*
X23093Y-13969D01*
X23182Y-14184D01*
X23346Y-14348D01*
X23560Y-14437D01*
X23792Y-14438D01*
X24007Y-14349D01*
X24171Y-14185D01*
X24205Y-14104D01*
X25892Y-14104D01*
X25941Y-14153D01*
X26022Y-14207D01*
X26118Y-14226D01*
X26128Y-14226D01*
X26128Y-14289D01*
X26157Y-14358D01*
X26210Y-14412D01*
X26280Y-14441D01*
X26356Y-14441D01*
X26806Y-14441D01*
X26875Y-14412D01*
X26929Y-14359D01*
X26958Y-14289D01*
X26958Y-14213D01*
X26958Y-13914D01*
X26978Y-13894D01*
X26978Y-14289D01*
X27001Y-14345D01*
X26654Y-14692D01*
X26280Y-14692D01*
X26211Y-14721D01*
X26157Y-14774D01*
X26128Y-14844D01*
X26128Y-14907D01*
X26118Y-14907D01*
X26118Y-14907D01*
X26099Y-14911D01*
X26022Y-14926D01*
X25941Y-14980D01*
X25941Y-14980D01*
X25554Y-15368D01*
X25225Y-15368D01*
X25191Y-15287D01*
X25027Y-15123D01*
X24813Y-15034D01*
X24581Y-15034D01*
X24366Y-15122D01*
X24202Y-15287D01*
X24113Y-15501D01*
X24113Y-15733D01*
X24201Y-15948D01*
X24365Y-16112D01*
X24580Y-16201D01*
X24812Y-16201D01*
X25027Y-16113D01*
X25191Y-15949D01*
X25225Y-15868D01*
X25657Y-15868D01*
X25753Y-15849D01*
X25834Y-15794D01*
X26137Y-15491D01*
X26157Y-15539D01*
X26210Y-15593D01*
X26280Y-15622D01*
X26356Y-15622D01*
X26806Y-15622D01*
X26875Y-15593D01*
X26929Y-15540D01*
X26958Y-15470D01*
X26958Y-15394D01*
X26958Y-15096D01*
X26978Y-15076D01*
X26978Y-15470D01*
X27007Y-15539D01*
X27060Y-15593D01*
X27124Y-15620D01*
X26657Y-16087D01*
X26577Y-16054D01*
X26345Y-16053D01*
X26130Y-16142D01*
X25966Y-16306D01*
X25877Y-16521D01*
X25876Y-16753D01*
X25965Y-16968D01*
X26129Y-17132D01*
X26344Y-17221D01*
X26576Y-17221D01*
X26790Y-17132D01*
X26955Y-16968D01*
X27044Y-16754D01*
X27044Y-16522D01*
X27010Y-16441D01*
X27570Y-15881D01*
X27624Y-15800D01*
X27643Y-15704D01*
X27643Y-15622D01*
X27656Y-15622D01*
X27725Y-15593D01*
X27779Y-15540D01*
X27808Y-15470D01*
X27808Y-15394D01*
X27808Y-14844D01*
X27779Y-14774D01*
X27726Y-14721D01*
X27656Y-14692D01*
X27580Y-14692D01*
X27438Y-14692D01*
X27489Y-14682D01*
X27570Y-14628D01*
X27624Y-14547D01*
X27643Y-14451D01*
X27643Y-14441D01*
X27656Y-14441D01*
X27725Y-14412D01*
X27779Y-14359D01*
X27808Y-14289D01*
X27808Y-14213D01*
X27808Y-13663D01*
X27779Y-13593D01*
X27726Y-13540D01*
X27656Y-13511D01*
X27580Y-13511D01*
X27438Y-13511D01*
X27489Y-13501D01*
X27570Y-13447D01*
X27624Y-13366D01*
X27643Y-13270D01*
X27643Y-13260D01*
X27656Y-13260D01*
X27725Y-13231D01*
X27779Y-13178D01*
X27808Y-13108D01*
X27808Y-13032D01*
X27808Y-12482D01*
X27779Y-12412D01*
X27726Y-12359D01*
X27656Y-12330D01*
X27580Y-12330D01*
X27438Y-12330D01*
X27489Y-12320D01*
X27570Y-12266D01*
X27624Y-12184D01*
X27643Y-12089D01*
X27643Y-12079D01*
X27656Y-12079D01*
X27725Y-12050D01*
X27779Y-11996D01*
X27808Y-11927D01*
X27808Y-11851D01*
X27808Y-11301D01*
X27779Y-11231D01*
X27726Y-11178D01*
X27656Y-11149D01*
X27580Y-11149D01*
X27438Y-11149D01*
X27489Y-11139D01*
X27570Y-11084D01*
X27624Y-11003D01*
X27643Y-10908D01*
X27643Y-10898D01*
X27656Y-10898D01*
X27725Y-10869D01*
X27779Y-10815D01*
X27808Y-10746D01*
X27808Y-10670D01*
X27808Y-10120D01*
X27779Y-10050D01*
X27726Y-9997D01*
X27656Y-9968D01*
X27580Y-9968D01*
X27130Y-9968D01*
X27108Y-9977D01*
X27108Y-9135D01*
X27099Y-8879D01*
X27019Y-8687D01*
X26914Y-8648D01*
X26843Y-8719D01*
X26843Y-8577D01*
X26804Y-8472D01*
X26564Y-8383D01*
X26308Y-8392D01*
X26116Y-8472D01*
X26077Y-8577D01*
X26460Y-8960D01*
X26843Y-8577D01*
X26843Y-8719D01*
X26531Y-9031D01*
X26914Y-9414D01*
X27019Y-9375D01*
X27108Y-9135D01*
X27108Y-9977D01*
X27061Y-9996D01*
X27007Y-10050D01*
X27000Y-10066D01*
X26980Y-10016D01*
X26909Y-9946D01*
X26843Y-9918D01*
X26843Y-9485D01*
X26460Y-9102D01*
X26389Y-9172D01*
X26389Y-9031D01*
X26006Y-8648D01*
X25901Y-8687D01*
X25812Y-8927D01*
X25822Y-9183D01*
X25901Y-9375D01*
X26006Y-9414D01*
X26389Y-9031D01*
X26389Y-9172D01*
X26077Y-9485D01*
X26116Y-9590D01*
X26356Y-9679D01*
X26612Y-9670D01*
X26804Y-9590D01*
X26843Y-9485D01*
X26843Y-9918D01*
X26818Y-9908D01*
X26656Y-9908D01*
X26593Y-9970D01*
X26593Y-10383D01*
X26601Y-10383D01*
X26601Y-10483D01*
X26593Y-10483D01*
X26593Y-10895D01*
X26656Y-10958D01*
X26818Y-10958D01*
X26865Y-10938D01*
X26654Y-11149D01*
X26493Y-11149D01*
X26493Y-10895D01*
X26493Y-10483D01*
X26493Y-10383D01*
X26493Y-9970D01*
X26431Y-9908D01*
X26268Y-9908D01*
X26177Y-9946D01*
X26106Y-10016D01*
X26068Y-10108D01*
X26068Y-10207D01*
X26068Y-10320D01*
X26131Y-10383D01*
X26493Y-10383D01*
X26493Y-10483D01*
X26131Y-10483D01*
X26068Y-10545D01*
X26068Y-10658D01*
X26068Y-10758D01*
X26106Y-10849D01*
X26177Y-10920D01*
X26268Y-10958D01*
X26431Y-10958D01*
X26493Y-10895D01*
X26493Y-11149D01*
X26280Y-11149D01*
X26211Y-11178D01*
X26194Y-11194D01*
X25703Y-10703D01*
X25703Y-8886D01*
X25703Y-8435D01*
X25703Y-8336D01*
X25664Y-8244D01*
X25594Y-8174D01*
X25502Y-8136D01*
X25340Y-8136D01*
X25278Y-8198D01*
X25278Y-8611D01*
X25640Y-8611D01*
X25703Y-8548D01*
X25703Y-8435D01*
X25703Y-8886D01*
X25703Y-8773D01*
X25640Y-8711D01*
X25278Y-8711D01*
X25278Y-9123D01*
X25340Y-9186D01*
X25502Y-9186D01*
X25594Y-9148D01*
X25664Y-9078D01*
X25703Y-8986D01*
X25703Y-8886D01*
X25703Y-10703D01*
X25247Y-10247D01*
X25280Y-10167D01*
X25280Y-9935D01*
X25191Y-9720D01*
X25027Y-9556D01*
X24813Y-9467D01*
X24581Y-9467D01*
X24366Y-9556D01*
X24202Y-9720D01*
X24113Y-9934D01*
X24113Y-10166D01*
X24201Y-10381D01*
X24365Y-10545D01*
X24580Y-10634D01*
X24812Y-10634D01*
X24893Y-10601D01*
X25868Y-11576D01*
X25868Y-11614D01*
X25887Y-11709D01*
X25941Y-11790D01*
X26022Y-11845D01*
X26118Y-11864D01*
X26128Y-11864D01*
X26128Y-11926D01*
X26157Y-11996D01*
X26210Y-12050D01*
X26280Y-12079D01*
X26356Y-12079D01*
X26806Y-12079D01*
X26875Y-12050D01*
X26929Y-11996D01*
X26958Y-11927D01*
X26958Y-11851D01*
X26958Y-11552D01*
X26978Y-11532D01*
X26978Y-11926D01*
X27001Y-11983D01*
X26654Y-12330D01*
X26280Y-12330D01*
X26211Y-12359D01*
X26157Y-12412D01*
X26137Y-12460D01*
X25314Y-11638D01*
X25233Y-11583D01*
X25138Y-11564D01*
X24205Y-11564D01*
X24172Y-11484D01*
X24008Y-11320D01*
X23793Y-11231D01*
X23561Y-11231D01*
X23346Y-11319D01*
X23182Y-11483D01*
X23093Y-11698D01*
X23093Y-11930D01*
X23182Y-12145D01*
X23346Y-12309D01*
X23560Y-12398D01*
X23792Y-12398D01*
X24007Y-12310D01*
X24171Y-12146D01*
X24205Y-12064D01*
X25034Y-12064D01*
X25220Y-12250D01*
X25199Y-12250D01*
X24984Y-12339D01*
X24820Y-12503D01*
X24786Y-12584D01*
X22240Y-12584D01*
X22144Y-12603D01*
X22063Y-12657D01*
X21181Y-13540D01*
X21127Y-13621D01*
X21108Y-13716D01*
X21108Y-13726D01*
X21045Y-13726D01*
X20975Y-13755D01*
X20922Y-13809D01*
X20893Y-13878D01*
X20893Y-13891D01*
X20883Y-13891D01*
X20883Y-13891D01*
X20864Y-13895D01*
X20787Y-13910D01*
X20763Y-13927D01*
X20508Y-13927D01*
X20508Y-13073D01*
X20479Y-13003D01*
X20426Y-12949D01*
X20356Y-12920D01*
X20281Y-12920D01*
X20045Y-12920D01*
X19975Y-12949D01*
X19950Y-12974D01*
X19926Y-12949D01*
X19856Y-12920D01*
X19781Y-12920D01*
X19775Y-12920D01*
X19621Y-12766D01*
X19662Y-12749D01*
X19774Y-12637D01*
X19820Y-12628D01*
X19901Y-12574D01*
X20133Y-12342D01*
X20153Y-12390D01*
X20206Y-12443D01*
X20276Y-12472D01*
X20352Y-12472D01*
X20802Y-12472D01*
X20872Y-12444D01*
X20925Y-12390D01*
X20954Y-12320D01*
X20954Y-12245D01*
X20954Y-11696D01*
X20975Y-11692D01*
X20974Y-11694D01*
X20974Y-11770D01*
X20974Y-12320D01*
X21003Y-12390D01*
X21056Y-12443D01*
X21126Y-12472D01*
X21202Y-12472D01*
X21652Y-12472D01*
X21722Y-12444D01*
X21775Y-12390D01*
X21804Y-12320D01*
X21804Y-12257D01*
X21814Y-12257D01*
X21910Y-12238D01*
X21991Y-12184D01*
X23337Y-10838D01*
X23392Y-10757D01*
X23411Y-10661D01*
X23411Y-10405D01*
X23423Y-10405D01*
X23493Y-10377D01*
X23547Y-10323D01*
X23576Y-10253D01*
X23576Y-10190D01*
X23586Y-10190D01*
X23682Y-10171D01*
X23763Y-10117D01*
X24129Y-9751D01*
X24129Y-9751D01*
X24129Y-9751D01*
X24162Y-9702D01*
X24184Y-9669D01*
X24184Y-9669D01*
X24203Y-9574D01*
X24203Y-9126D01*
X24640Y-9126D01*
X24710Y-9097D01*
X24764Y-9044D01*
X24770Y-9028D01*
X24791Y-9078D01*
X24861Y-9148D01*
X24953Y-9186D01*
X25115Y-9186D01*
X25178Y-9123D01*
X25178Y-8711D01*
X25170Y-8711D01*
X25170Y-8611D01*
X25178Y-8611D01*
X25178Y-8198D01*
X25115Y-8136D01*
X24953Y-8136D01*
X24861Y-8174D01*
X24791Y-8244D01*
X24770Y-8294D01*
X24764Y-8278D01*
X24710Y-8225D01*
X24641Y-8196D01*
X24565Y-8196D01*
X24115Y-8196D01*
X24045Y-8225D01*
X23992Y-8278D01*
X23963Y-8348D01*
X23963Y-8411D01*
X23953Y-8411D01*
X23857Y-8430D01*
X23776Y-8484D01*
X23722Y-8565D01*
X23719Y-8578D01*
X23692Y-8514D01*
X23639Y-8460D01*
X23569Y-8431D01*
X23494Y-8431D01*
X23100Y-8431D01*
X23030Y-8460D01*
X22976Y-8514D01*
X22947Y-8583D01*
X22947Y-8659D01*
X22947Y-8935D01*
X22976Y-9005D01*
X23029Y-9058D01*
X23099Y-9087D01*
X23175Y-9087D01*
X23569Y-9087D01*
X23639Y-9059D01*
X23692Y-9005D01*
X23703Y-8980D01*
X23703Y-9470D01*
X23567Y-9606D01*
X23547Y-9558D01*
X23493Y-9504D01*
X23424Y-9475D01*
X23348Y-9475D01*
X22898Y-9475D01*
X22828Y-9504D01*
X22781Y-9551D01*
X22781Y-8572D01*
X22781Y-8497D01*
X22719Y-8434D01*
X22384Y-8434D01*
X22384Y-8710D01*
X22447Y-8772D01*
X22482Y-8772D01*
X22581Y-8772D01*
X22673Y-8734D01*
X22743Y-8664D01*
X22781Y-8572D01*
X22781Y-9551D01*
X22775Y-9558D01*
X22746Y-9627D01*
X22746Y-9703D01*
X22746Y-10253D01*
X22775Y-10323D01*
X22828Y-10376D01*
X22898Y-10405D01*
X22911Y-10405D01*
X22911Y-10557D01*
X22726Y-10742D01*
X22726Y-10178D01*
X22726Y-9628D01*
X22697Y-9558D01*
X22643Y-9504D01*
X22583Y-9479D01*
X22584Y-9472D01*
X22584Y-9456D01*
X22639Y-9434D01*
X22692Y-9380D01*
X22721Y-9310D01*
X22721Y-9235D01*
X22721Y-8959D01*
X22692Y-8889D01*
X22639Y-8835D01*
X22569Y-8806D01*
X22494Y-8806D01*
X22284Y-8806D01*
X22284Y-8710D01*
X22284Y-8434D01*
X21950Y-8434D01*
X21887Y-8497D01*
X21887Y-8572D01*
X21925Y-8664D01*
X21995Y-8734D01*
X22087Y-8772D01*
X22187Y-8772D01*
X22222Y-8772D01*
X22284Y-8710D01*
X22284Y-8806D01*
X22100Y-8806D01*
X22030Y-8835D01*
X21976Y-8889D01*
X21947Y-8958D01*
X21947Y-9034D01*
X21947Y-9310D01*
X21976Y-9380D01*
X22016Y-9420D01*
X21864Y-9573D01*
X21864Y-9083D01*
X21864Y-8632D01*
X21864Y-8533D01*
X21826Y-8441D01*
X21755Y-8371D01*
X21664Y-8333D01*
X21502Y-8333D01*
X21439Y-8395D01*
X21439Y-8808D01*
X21802Y-8808D01*
X21864Y-8745D01*
X21864Y-8632D01*
X21864Y-9083D01*
X21864Y-8970D01*
X21802Y-8908D01*
X21439Y-8908D01*
X21439Y-9320D01*
X21502Y-9383D01*
X21664Y-9383D01*
X21755Y-9345D01*
X21826Y-9275D01*
X21864Y-9183D01*
X21864Y-9083D01*
X21864Y-9573D01*
X21804Y-9633D01*
X21804Y-9628D01*
X21775Y-9558D01*
X21722Y-9504D01*
X21652Y-9475D01*
X21576Y-9475D01*
X21126Y-9475D01*
X21057Y-9504D01*
X21003Y-9558D01*
X20974Y-9627D01*
X20974Y-9703D01*
X20974Y-10253D01*
X21003Y-10323D01*
X21056Y-10376D01*
X21126Y-10405D01*
X21202Y-10405D01*
X21652Y-10405D01*
X21722Y-10377D01*
X21775Y-10323D01*
X21804Y-10253D01*
X21804Y-10190D01*
X21850Y-10190D01*
X21896Y-10190D01*
X21896Y-10253D01*
X21925Y-10323D01*
X21978Y-10376D01*
X22048Y-10405D01*
X22123Y-10405D01*
X22573Y-10405D01*
X22643Y-10377D01*
X22697Y-10323D01*
X22726Y-10253D01*
X22726Y-10178D01*
X22726Y-10742D01*
X21795Y-11673D01*
X21775Y-11625D01*
X21722Y-11571D01*
X21652Y-11542D01*
X21576Y-11542D01*
X21167Y-11542D01*
X21300Y-11410D01*
X21656Y-11410D01*
X21733Y-11378D01*
X21792Y-11319D01*
X21824Y-11242D01*
X21824Y-11158D01*
X21824Y-10608D01*
X21792Y-10531D01*
X21733Y-10472D01*
X21656Y-10440D01*
X21572Y-10440D01*
X21122Y-10440D01*
X21045Y-10472D01*
X20986Y-10531D01*
X20954Y-10608D01*
X20954Y-10613D01*
X20954Y-10612D01*
X20925Y-10542D01*
X20872Y-10489D01*
X20802Y-10460D01*
X20789Y-10460D01*
X20789Y-10405D01*
X20802Y-10405D01*
X20872Y-10377D01*
X20925Y-10323D01*
X20954Y-10253D01*
X20954Y-10178D01*
X20954Y-9628D01*
X20925Y-9558D01*
X20872Y-9504D01*
X20802Y-9475D01*
X20789Y-9475D01*
X20789Y-9323D01*
X20802Y-9323D01*
X20872Y-9294D01*
X20925Y-9241D01*
X20932Y-9225D01*
X20952Y-9275D01*
X21023Y-9345D01*
X21115Y-9383D01*
X21277Y-9383D01*
X21339Y-9320D01*
X21339Y-8908D01*
X21331Y-8908D01*
X21331Y-8808D01*
X21339Y-8808D01*
X21339Y-8395D01*
X21277Y-8333D01*
X21115Y-8333D01*
X21023Y-8371D01*
X20952Y-8441D01*
X20932Y-8491D01*
X20925Y-8475D01*
X20872Y-8422D01*
X20802Y-8393D01*
X20726Y-8393D01*
X20276Y-8393D01*
X20207Y-8422D01*
X20153Y-8475D01*
X20124Y-8545D01*
X20124Y-8620D01*
X20124Y-9170D01*
X20153Y-9240D01*
X20206Y-9294D01*
X20276Y-9323D01*
X20289Y-9323D01*
X20289Y-9475D01*
X20276Y-9475D01*
X20207Y-9504D01*
X20153Y-9558D01*
X20124Y-9627D01*
X20124Y-9703D01*
X20124Y-10253D01*
X20153Y-10323D01*
X20206Y-10376D01*
X20276Y-10405D01*
X20289Y-10405D01*
X20289Y-10460D01*
X20276Y-10460D01*
X20207Y-10489D01*
X20153Y-10542D01*
X20124Y-10612D01*
X20124Y-10687D01*
X20124Y-10963D01*
X20021Y-10860D01*
X20021Y-10522D01*
X20021Y-10522D01*
X20000Y-10415D01*
X20000Y-10415D01*
X19980Y-10385D01*
X19939Y-10324D01*
X19939Y-10324D01*
X19076Y-9461D01*
X19651Y-9461D01*
X19728Y-9429D01*
X19787Y-9370D01*
X19819Y-9293D01*
X19820Y-9210D01*
X19820Y-8423D01*
X19788Y-8345D01*
X19729Y-8286D01*
X19651Y-8254D01*
X19568Y-8254D01*
X19008Y-8254D01*
X18827Y-8073D01*
X21957Y-8073D01*
X21925Y-8105D01*
X21887Y-8197D01*
X21887Y-8272D01*
X21950Y-8334D01*
X22284Y-8334D01*
X22284Y-8326D01*
X22384Y-8326D01*
X22384Y-8334D01*
X22719Y-8334D01*
X22781Y-8272D01*
X22781Y-8197D01*
X22743Y-8105D01*
X22711Y-8073D01*
X32083Y-8073D01*
X32083Y-19879D01*
M02*
