G04 (created by PCBNEW (2013-03-31 BZR 4008)-stable) date 2013-10-21 1:47:18 PM*
%MOIN*%
G04 Gerber Fmt 3.4, Leading zero omitted, Abs format*
%FSLAX34Y34*%
G01*
G70*
G90*
G04 APERTURE LIST*
%ADD10C,0.006*%
%ADD11C,0.011811*%
%ADD12C,0.00590551*%
%ADD13C,0.005*%
%ADD14C,0.0802748*%
%ADD15R,0.0465748X0.0565748*%
%ADD16R,0.0802748X0.0802748*%
%ADD17C,0.080315*%
G04 APERTURE END LIST*
G54D10*
G54D11*
X15818Y-9983D02*
X15790Y-9926D01*
X15790Y-9842D01*
X15818Y-9758D01*
X15874Y-9701D01*
X15930Y-9673D01*
X16043Y-9645D01*
X16127Y-9645D01*
X16240Y-9673D01*
X16296Y-9701D01*
X16352Y-9758D01*
X16380Y-9842D01*
X16380Y-9898D01*
X16352Y-9983D01*
X16324Y-10011D01*
X16127Y-10011D01*
X16127Y-9898D01*
X16380Y-10264D02*
X15790Y-10264D01*
X16380Y-10601D01*
X15790Y-10601D01*
X16380Y-10883D02*
X15790Y-10883D01*
X15790Y-11023D01*
X15818Y-11107D01*
X15874Y-11164D01*
X15930Y-11192D01*
X16043Y-11220D01*
X16127Y-11220D01*
X16240Y-11192D01*
X16296Y-11164D01*
X16352Y-11107D01*
X16380Y-11023D01*
X16380Y-10883D01*
X17533Y-9715D02*
X17561Y-9800D01*
X17561Y-9940D01*
X17533Y-9997D01*
X17505Y-10025D01*
X17449Y-10053D01*
X17393Y-10053D01*
X17336Y-10025D01*
X17308Y-9997D01*
X17280Y-9940D01*
X17252Y-9828D01*
X17224Y-9772D01*
X17196Y-9744D01*
X17140Y-9715D01*
X17083Y-9715D01*
X17027Y-9744D01*
X16999Y-9772D01*
X16971Y-9828D01*
X16971Y-9969D01*
X16999Y-10053D01*
X16971Y-10306D02*
X17449Y-10306D01*
X17505Y-10334D01*
X17533Y-10362D01*
X17561Y-10419D01*
X17561Y-10531D01*
X17533Y-10587D01*
X17505Y-10615D01*
X17449Y-10643D01*
X16971Y-10643D01*
X17561Y-10925D02*
X16971Y-10925D01*
X17393Y-11122D01*
X16971Y-11318D01*
X17561Y-11318D01*
X18321Y-9687D02*
X18321Y-10137D01*
X18546Y-10728D02*
X18546Y-10390D01*
X18546Y-10559D02*
X17955Y-10559D01*
X18039Y-10503D01*
X18096Y-10447D01*
X18124Y-10390D01*
X18011Y-10953D02*
X17983Y-10981D01*
X17955Y-11037D01*
X17955Y-11178D01*
X17983Y-11234D01*
X18011Y-11262D01*
X18068Y-11290D01*
X18124Y-11290D01*
X18208Y-11262D01*
X18546Y-10925D01*
X18546Y-11290D01*
X17955Y-11459D02*
X18546Y-11656D01*
X17955Y-11853D01*
X19305Y-9687D02*
X19305Y-10137D01*
X19530Y-9912D02*
X19080Y-9912D01*
X19530Y-10728D02*
X19530Y-10390D01*
X19530Y-10559D02*
X18939Y-10559D01*
X19024Y-10503D01*
X19080Y-10447D01*
X19108Y-10390D01*
X18996Y-10953D02*
X18967Y-10981D01*
X18939Y-11037D01*
X18939Y-11178D01*
X18967Y-11234D01*
X18996Y-11262D01*
X19052Y-11290D01*
X19108Y-11290D01*
X19192Y-11262D01*
X19530Y-10925D01*
X19530Y-11290D01*
X18939Y-11459D02*
X19530Y-11656D01*
X18939Y-11853D01*
X20219Y-8450D02*
X20219Y-8562D01*
X20247Y-8619D01*
X20303Y-8675D01*
X20416Y-8703D01*
X20613Y-8703D01*
X20725Y-8675D01*
X20781Y-8619D01*
X20809Y-8562D01*
X20809Y-8450D01*
X20781Y-8394D01*
X20725Y-8338D01*
X20613Y-8309D01*
X20416Y-8309D01*
X20303Y-8338D01*
X20247Y-8394D01*
X20219Y-8450D01*
X20753Y-9294D02*
X20781Y-9266D01*
X20809Y-9181D01*
X20809Y-9125D01*
X20781Y-9041D01*
X20725Y-8984D01*
X20669Y-8956D01*
X20556Y-8928D01*
X20472Y-8928D01*
X20359Y-8956D01*
X20303Y-8984D01*
X20247Y-9041D01*
X20219Y-9125D01*
X20219Y-9181D01*
X20247Y-9266D01*
X20275Y-9294D01*
X20219Y-9462D02*
X20219Y-9800D01*
X20809Y-9631D02*
X20219Y-9631D01*
X20641Y-9969D02*
X20641Y-10250D01*
X20809Y-9912D02*
X20219Y-10109D01*
X20809Y-10306D01*
X20219Y-10419D02*
X20809Y-10615D01*
X20219Y-10812D01*
X20500Y-11009D02*
X20500Y-11206D01*
X20809Y-11290D02*
X20809Y-11009D01*
X20219Y-11009D01*
X20219Y-11290D01*
X20781Y-11965D02*
X20809Y-12050D01*
X20809Y-12190D01*
X20781Y-12246D01*
X20753Y-12275D01*
X20697Y-12303D01*
X20641Y-12303D01*
X20584Y-12275D01*
X20556Y-12246D01*
X20528Y-12190D01*
X20500Y-12078D01*
X20472Y-12021D01*
X20444Y-11993D01*
X20388Y-11965D01*
X20331Y-11965D01*
X20275Y-11993D01*
X20247Y-12021D01*
X20219Y-12078D01*
X20219Y-12218D01*
X20247Y-12303D01*
X20219Y-12500D02*
X20809Y-12640D01*
X20388Y-12753D01*
X20809Y-12865D01*
X20219Y-13006D01*
X20809Y-13231D02*
X20219Y-13231D01*
X20219Y-13428D02*
X20219Y-13765D01*
X20809Y-13596D02*
X20219Y-13596D01*
X20753Y-14299D02*
X20781Y-14271D01*
X20809Y-14187D01*
X20809Y-14131D01*
X20781Y-14046D01*
X20725Y-13990D01*
X20669Y-13962D01*
X20556Y-13934D01*
X20472Y-13934D01*
X20359Y-13962D01*
X20303Y-13990D01*
X20247Y-14046D01*
X20219Y-14131D01*
X20219Y-14187D01*
X20247Y-14271D01*
X20275Y-14299D01*
X20809Y-14552D02*
X20219Y-14552D01*
X20500Y-14552D02*
X20500Y-14890D01*
X20809Y-14890D02*
X20219Y-14890D01*
G54D12*
X14724Y-17952D02*
X14724Y-19133D01*
X14724Y-19133D02*
X16299Y-19133D01*
X12755Y-17952D02*
X12755Y-19133D01*
X12755Y-19133D02*
X14330Y-19133D01*
X14330Y-19133D02*
X14330Y-17952D01*
X10787Y-19133D02*
X12362Y-19133D01*
X12362Y-19133D02*
X12362Y-17952D01*
X16299Y-17952D02*
X10787Y-17952D01*
X10787Y-19133D02*
X10787Y-14803D01*
X16299Y-19133D02*
X16299Y-14803D01*
X14724Y-12834D02*
G75*
G03X14724Y-12834I-1181J0D01*
G74*
G01*
X16889Y-12834D02*
G75*
G03X16889Y-12834I-3346J0D01*
G74*
G01*
G54D13*
X19798Y-18991D02*
X19398Y-18991D01*
X19398Y-18991D02*
X19398Y-19591D01*
X19398Y-19591D02*
X19798Y-19591D01*
X20358Y-19591D02*
X20758Y-19591D01*
X20758Y-19591D02*
X20758Y-18991D01*
X20758Y-18991D02*
X20358Y-18991D01*
G54D12*
X32775Y-10874D02*
X32775Y-14811D01*
X32775Y-10874D02*
X31988Y-10874D01*
X32775Y-14811D02*
X31988Y-14811D01*
X32775Y-14614D02*
G75*
G03X32775Y-11070I-1771J1771D01*
G74*
G01*
X26080Y-17566D02*
G75*
G03X32380Y-14813I1773J4526D01*
G74*
G01*
X26080Y-8142D02*
G75*
G02X32380Y-10895I1773J-4526D01*
G74*
G01*
X28864Y-8103D02*
G75*
G03X22563Y-10855I-1773J-4526D01*
G74*
G01*
X28860Y-17558D02*
G75*
G02X22559Y-14805I-1773J4526D01*
G74*
G01*
X22165Y-14606D02*
G75*
G02X22165Y-11062I1771J1771D01*
G74*
G01*
X22165Y-14803D02*
X22952Y-14803D01*
X22165Y-10866D02*
X22952Y-10866D01*
X22165Y-10866D02*
X22165Y-14803D01*
X32401Y-12834D02*
G75*
G03X32401Y-12834I-4921J0D01*
G74*
G01*
X31417Y-12834D02*
G75*
G03X31417Y-12834I-3937J0D01*
G74*
G01*
G54D13*
X23440Y-18991D02*
X23040Y-18991D01*
X23040Y-18991D02*
X23040Y-19591D01*
X23040Y-19591D02*
X23440Y-19591D01*
X24000Y-19591D02*
X24400Y-19591D01*
X24400Y-19591D02*
X24400Y-18991D01*
X24400Y-18991D02*
X24000Y-18991D01*
G54D10*
X19193Y-19238D02*
X19208Y-19222D01*
X19224Y-19177D01*
X19224Y-19146D01*
X19208Y-19100D01*
X19178Y-19070D01*
X19147Y-19055D01*
X19086Y-19039D01*
X19041Y-19039D01*
X18980Y-19055D01*
X18949Y-19070D01*
X18919Y-19100D01*
X18904Y-19146D01*
X18904Y-19177D01*
X18919Y-19222D01*
X18934Y-19238D01*
X18904Y-19344D02*
X18904Y-19542D01*
X19025Y-19436D01*
X19025Y-19481D01*
X19041Y-19512D01*
X19056Y-19527D01*
X19086Y-19542D01*
X19163Y-19542D01*
X19193Y-19527D01*
X19208Y-19512D01*
X19224Y-19481D01*
X19224Y-19390D01*
X19208Y-19359D01*
X19193Y-19344D01*
G54D12*
X25947Y-9966D02*
X25947Y-9628D01*
X25947Y-9797D02*
X25357Y-9797D01*
X25441Y-9741D01*
X25497Y-9685D01*
X25525Y-9628D01*
X25413Y-10191D02*
X25385Y-10219D01*
X25357Y-10275D01*
X25357Y-10416D01*
X25385Y-10472D01*
X25413Y-10500D01*
X25469Y-10528D01*
X25525Y-10528D01*
X25610Y-10500D01*
X25947Y-10163D01*
X25947Y-10528D01*
X24766Y-11625D02*
X24766Y-11287D01*
X24766Y-11456D02*
X24176Y-11456D01*
X24260Y-11400D01*
X24316Y-11344D01*
X24344Y-11287D01*
X30278Y-13467D02*
X29687Y-13467D01*
X29687Y-13607D01*
X29715Y-13692D01*
X29772Y-13748D01*
X29828Y-13776D01*
X29940Y-13804D01*
X30025Y-13804D01*
X30137Y-13776D01*
X30194Y-13748D01*
X30250Y-13692D01*
X30278Y-13607D01*
X30278Y-13467D01*
X24991Y-13481D02*
X24991Y-13762D01*
X25160Y-13425D02*
X24569Y-13622D01*
X25160Y-13818D01*
G54D10*
X22736Y-19238D02*
X22752Y-19222D01*
X22767Y-19177D01*
X22767Y-19146D01*
X22752Y-19100D01*
X22721Y-19070D01*
X22691Y-19055D01*
X22630Y-19039D01*
X22584Y-19039D01*
X22523Y-19055D01*
X22493Y-19070D01*
X22462Y-19100D01*
X22447Y-19146D01*
X22447Y-19177D01*
X22462Y-19222D01*
X22477Y-19238D01*
X22584Y-19420D02*
X22569Y-19390D01*
X22553Y-19375D01*
X22523Y-19359D01*
X22508Y-19359D01*
X22477Y-19375D01*
X22462Y-19390D01*
X22447Y-19420D01*
X22447Y-19481D01*
X22462Y-19512D01*
X22477Y-19527D01*
X22508Y-19542D01*
X22523Y-19542D01*
X22553Y-19527D01*
X22569Y-19512D01*
X22584Y-19481D01*
X22584Y-19420D01*
X22599Y-19390D01*
X22614Y-19375D01*
X22645Y-19359D01*
X22706Y-19359D01*
X22736Y-19375D01*
X22752Y-19390D01*
X22767Y-19420D01*
X22767Y-19481D01*
X22752Y-19512D01*
X22736Y-19527D01*
X22706Y-19542D01*
X22645Y-19542D01*
X22614Y-19527D01*
X22599Y-19512D01*
X22584Y-19481D01*
%LPC*%
G54D14*
X13543Y-19133D03*
X11574Y-19133D03*
X15511Y-19133D03*
G54D15*
X19653Y-19291D03*
X20503Y-19291D03*
G54D16*
X19216Y-8858D03*
G54D14*
X18216Y-8858D03*
X17216Y-8858D03*
X16216Y-8858D03*
G54D17*
X23677Y-11814D03*
X24696Y-10051D03*
X26460Y-9031D03*
X28500Y-9031D03*
X30263Y-10051D03*
X31283Y-11814D03*
X29645Y-12834D03*
X25314Y-12834D03*
X23677Y-13854D03*
X24696Y-15618D03*
X26460Y-16637D03*
X28500Y-16637D03*
X30263Y-15618D03*
X31283Y-13854D03*
G54D15*
X23295Y-19291D03*
X24145Y-19291D03*
G54D14*
X18307Y-19110D03*
X17307Y-18110D03*
G54D16*
X19307Y-18110D03*
G54D14*
X21850Y-19110D03*
X20850Y-18110D03*
G54D16*
X22850Y-18110D03*
G54D14*
X25393Y-19110D03*
X24393Y-18110D03*
G54D16*
X26393Y-18110D03*
G54D14*
X11204Y-14566D03*
X12204Y-13566D03*
G54D16*
X12204Y-15566D03*
X28224Y-18996D03*
G54D14*
X29224Y-18996D03*
X30224Y-18996D03*
X31224Y-18996D03*
M02*
