G04 (created by PCBNEW (2013-03-31 BZR 4008)-stable) date 2013-10-21 1:47:18 PM*
%MOIN*%
G04 Gerber Fmt 3.4, Leading zero omitted, Abs format*
%FSLAX34Y34*%
G01*
G70*
G90*
G04 APERTURE LIST*
%ADD10C,0.006*%
%ADD11C,0.00984252*%
%ADD12C,0.00787402*%
%ADD13C,0.011811*%
%ADD14C,0.005*%
%ADD15C,0.015*%
%ADD16C,0.0026*%
%ADD17C,0.0078*%
%ADD18C,0.008*%
%ADD19C,0.0802748*%
%ADD20R,0.0409748X0.0291748*%
%ADD21R,0.0565748X0.0465748*%
%ADD22R,0.0465748X0.0565748*%
%ADD23R,0.0802748X0.0802748*%
%ADD24R,0.0251748X0.0881748*%
%ADD25C,0.080315*%
G04 APERTURE END LIST*
G54D10*
X31025Y-17960D02*
X31010Y-17990D01*
X31010Y-18036D01*
X31025Y-18082D01*
X31056Y-18112D01*
X31086Y-18127D01*
X31147Y-18143D01*
X31193Y-18143D01*
X31254Y-18127D01*
X31284Y-18112D01*
X31315Y-18082D01*
X31330Y-18036D01*
X31330Y-18006D01*
X31315Y-17960D01*
X31299Y-17945D01*
X31193Y-17945D01*
X31193Y-18006D01*
X31330Y-17807D02*
X31010Y-17807D01*
X31330Y-17625D01*
X31010Y-17625D01*
X31330Y-17472D02*
X31010Y-17472D01*
X31010Y-17396D01*
X31025Y-17350D01*
X31056Y-17320D01*
X31086Y-17305D01*
X31147Y-17289D01*
X31193Y-17289D01*
X31254Y-17305D01*
X31284Y-17320D01*
X31315Y-17350D01*
X31330Y-17396D01*
X31330Y-17472D01*
X30322Y-18169D02*
X30322Y-17925D01*
X30124Y-17712D02*
X30124Y-17681D01*
X30139Y-17651D01*
X30154Y-17635D01*
X30185Y-17620D01*
X30246Y-17605D01*
X30322Y-17605D01*
X30383Y-17620D01*
X30414Y-17635D01*
X30429Y-17651D01*
X30444Y-17681D01*
X30444Y-17712D01*
X30429Y-17742D01*
X30414Y-17757D01*
X30383Y-17772D01*
X30322Y-17788D01*
X30246Y-17788D01*
X30185Y-17772D01*
X30154Y-17757D01*
X30139Y-17742D01*
X30124Y-17712D01*
X30414Y-17468D02*
X30429Y-17452D01*
X30444Y-17468D01*
X30429Y-17483D01*
X30414Y-17468D01*
X30444Y-17468D01*
X30124Y-17163D02*
X30124Y-17315D01*
X30276Y-17331D01*
X30261Y-17315D01*
X30246Y-17285D01*
X30246Y-17209D01*
X30261Y-17178D01*
X30276Y-17163D01*
X30307Y-17148D01*
X30383Y-17148D01*
X30414Y-17163D01*
X30429Y-17178D01*
X30444Y-17209D01*
X30444Y-17285D01*
X30429Y-17315D01*
X30414Y-17331D01*
X30124Y-16950D02*
X30124Y-16919D01*
X30139Y-16889D01*
X30154Y-16873D01*
X30185Y-16858D01*
X30246Y-16843D01*
X30322Y-16843D01*
X30383Y-16858D01*
X30414Y-16873D01*
X30429Y-16889D01*
X30444Y-16919D01*
X30444Y-16950D01*
X30429Y-16980D01*
X30414Y-16995D01*
X30383Y-17011D01*
X30322Y-17026D01*
X30246Y-17026D01*
X30185Y-17011D01*
X30154Y-16995D01*
X30139Y-16980D01*
X30124Y-16950D01*
X30124Y-16645D02*
X30124Y-16614D01*
X30139Y-16584D01*
X30154Y-16569D01*
X30185Y-16553D01*
X30246Y-16538D01*
X30322Y-16538D01*
X30383Y-16553D01*
X30414Y-16569D01*
X30429Y-16584D01*
X30444Y-16614D01*
X30444Y-16645D01*
X30429Y-16675D01*
X30414Y-16691D01*
X30383Y-16706D01*
X30322Y-16721D01*
X30246Y-16721D01*
X30185Y-16706D01*
X30154Y-16691D01*
X30139Y-16675D01*
X30124Y-16645D01*
X30124Y-16447D02*
X30444Y-16340D01*
X30124Y-16233D01*
X29338Y-18169D02*
X29338Y-17925D01*
X29460Y-18047D02*
X29216Y-18047D01*
X29140Y-17712D02*
X29140Y-17681D01*
X29155Y-17651D01*
X29170Y-17635D01*
X29201Y-17620D01*
X29262Y-17605D01*
X29338Y-17605D01*
X29399Y-17620D01*
X29429Y-17635D01*
X29444Y-17651D01*
X29460Y-17681D01*
X29460Y-17712D01*
X29444Y-17742D01*
X29429Y-17757D01*
X29399Y-17772D01*
X29338Y-17788D01*
X29262Y-17788D01*
X29201Y-17772D01*
X29170Y-17757D01*
X29155Y-17742D01*
X29140Y-17712D01*
X29429Y-17468D02*
X29444Y-17452D01*
X29460Y-17468D01*
X29444Y-17483D01*
X29429Y-17468D01*
X29460Y-17468D01*
X29140Y-17163D02*
X29140Y-17315D01*
X29292Y-17331D01*
X29277Y-17315D01*
X29262Y-17285D01*
X29262Y-17209D01*
X29277Y-17178D01*
X29292Y-17163D01*
X29323Y-17148D01*
X29399Y-17148D01*
X29429Y-17163D01*
X29444Y-17178D01*
X29460Y-17209D01*
X29460Y-17285D01*
X29444Y-17315D01*
X29429Y-17331D01*
X29140Y-16950D02*
X29140Y-16919D01*
X29155Y-16889D01*
X29170Y-16873D01*
X29201Y-16858D01*
X29262Y-16843D01*
X29338Y-16843D01*
X29399Y-16858D01*
X29429Y-16873D01*
X29444Y-16889D01*
X29460Y-16919D01*
X29460Y-16950D01*
X29444Y-16980D01*
X29429Y-16995D01*
X29399Y-17011D01*
X29338Y-17026D01*
X29262Y-17026D01*
X29201Y-17011D01*
X29170Y-16995D01*
X29155Y-16980D01*
X29140Y-16950D01*
X29140Y-16645D02*
X29140Y-16614D01*
X29155Y-16584D01*
X29170Y-16569D01*
X29201Y-16553D01*
X29262Y-16538D01*
X29338Y-16538D01*
X29399Y-16553D01*
X29429Y-16569D01*
X29444Y-16584D01*
X29460Y-16614D01*
X29460Y-16645D01*
X29444Y-16675D01*
X29429Y-16691D01*
X29399Y-16706D01*
X29338Y-16721D01*
X29262Y-16721D01*
X29201Y-16706D01*
X29170Y-16691D01*
X29155Y-16675D01*
X29140Y-16645D01*
X29140Y-16447D02*
X29460Y-16340D01*
X29140Y-16233D01*
X27665Y-18169D02*
X27665Y-17925D01*
X27787Y-18047D02*
X27543Y-18047D01*
X27467Y-17620D02*
X27467Y-17772D01*
X27619Y-17788D01*
X27604Y-17772D01*
X27588Y-17742D01*
X27588Y-17666D01*
X27604Y-17635D01*
X27619Y-17620D01*
X27649Y-17605D01*
X27726Y-17605D01*
X27756Y-17620D01*
X27771Y-17635D01*
X27787Y-17666D01*
X27787Y-17742D01*
X27771Y-17772D01*
X27756Y-17788D01*
X27756Y-17468D02*
X27771Y-17452D01*
X27787Y-17468D01*
X27771Y-17483D01*
X27756Y-17468D01*
X27787Y-17468D01*
X27467Y-17254D02*
X27467Y-17224D01*
X27482Y-17193D01*
X27497Y-17178D01*
X27527Y-17163D01*
X27588Y-17148D01*
X27665Y-17148D01*
X27726Y-17163D01*
X27756Y-17178D01*
X27771Y-17193D01*
X27787Y-17224D01*
X27787Y-17254D01*
X27771Y-17285D01*
X27756Y-17300D01*
X27726Y-17315D01*
X27665Y-17331D01*
X27588Y-17331D01*
X27527Y-17315D01*
X27497Y-17300D01*
X27482Y-17285D01*
X27467Y-17254D01*
X27467Y-16950D02*
X27467Y-16919D01*
X27482Y-16889D01*
X27497Y-16873D01*
X27527Y-16858D01*
X27588Y-16843D01*
X27665Y-16843D01*
X27726Y-16858D01*
X27756Y-16873D01*
X27771Y-16889D01*
X27787Y-16919D01*
X27787Y-16950D01*
X27771Y-16980D01*
X27756Y-16995D01*
X27726Y-17011D01*
X27665Y-17026D01*
X27588Y-17026D01*
X27527Y-17011D01*
X27497Y-16995D01*
X27482Y-16980D01*
X27467Y-16950D01*
X27467Y-16645D02*
X27467Y-16614D01*
X27482Y-16584D01*
X27497Y-16569D01*
X27527Y-16553D01*
X27588Y-16538D01*
X27665Y-16538D01*
X27726Y-16553D01*
X27756Y-16569D01*
X27771Y-16584D01*
X27787Y-16614D01*
X27787Y-16645D01*
X27771Y-16675D01*
X27756Y-16691D01*
X27726Y-16706D01*
X27665Y-16721D01*
X27588Y-16721D01*
X27527Y-16706D01*
X27497Y-16691D01*
X27482Y-16675D01*
X27467Y-16645D01*
X27467Y-16447D02*
X27787Y-16340D01*
X27467Y-16233D01*
X12506Y-14810D02*
X12506Y-14627D01*
X12826Y-14719D02*
X12506Y-14719D01*
X12613Y-14384D02*
X12826Y-14384D01*
X12491Y-14460D02*
X12719Y-14536D01*
X12719Y-14338D01*
X21508Y-17526D02*
X21691Y-17526D01*
X21599Y-17846D02*
X21599Y-17526D01*
X21767Y-17526D02*
X21965Y-17526D01*
X21858Y-17647D01*
X21904Y-17647D01*
X21934Y-17663D01*
X21950Y-17678D01*
X21965Y-17708D01*
X21965Y-17785D01*
X21950Y-17815D01*
X21934Y-17830D01*
X21904Y-17846D01*
X21812Y-17846D01*
X21782Y-17830D01*
X21767Y-17815D01*
X25051Y-17526D02*
X25234Y-17526D01*
X25142Y-17846D02*
X25142Y-17526D01*
X25325Y-17556D02*
X25340Y-17541D01*
X25371Y-17526D01*
X25447Y-17526D01*
X25478Y-17541D01*
X25493Y-17556D01*
X25508Y-17587D01*
X25508Y-17617D01*
X25493Y-17663D01*
X25310Y-17846D01*
X25508Y-17846D01*
X16291Y-19297D02*
X16474Y-19297D01*
X16383Y-19617D02*
X16383Y-19297D01*
X16748Y-19617D02*
X16565Y-19617D01*
X16657Y-19617D02*
X16657Y-19297D01*
X16626Y-19343D01*
X16596Y-19373D01*
X16565Y-19389D01*
G54D11*
X27984Y-12834D02*
G75*
G03X27984Y-12834I-504J0D01*
G74*
G01*
X13543Y-12637D02*
X13543Y-13031D01*
X13740Y-12834D02*
X13346Y-12834D01*
X14727Y-12834D02*
G75*
G03X14727Y-12834I-1184J0D01*
G74*
G01*
G54D12*
X25944Y-9586D02*
X25944Y-9744D01*
X25944Y-9586D02*
X25787Y-9586D01*
X25748Y-9783D02*
X25748Y-10019D01*
X25944Y-9586D02*
X25748Y-9783D01*
G54D13*
X25513Y-11404D02*
X25489Y-11452D01*
X25489Y-11523D01*
X25513Y-11595D01*
X25561Y-11642D01*
X25608Y-11666D01*
X25704Y-11690D01*
X25775Y-11690D01*
X25870Y-11666D01*
X25918Y-11642D01*
X25965Y-11595D01*
X25989Y-11523D01*
X25989Y-11476D01*
X25965Y-11404D01*
X25942Y-11380D01*
X25775Y-11380D01*
X25775Y-11476D01*
X25989Y-11166D02*
X25489Y-11166D01*
X25989Y-10880D01*
X25489Y-10880D01*
X25989Y-10642D02*
X25489Y-10642D01*
X25489Y-10523D01*
X25513Y-10452D01*
X25561Y-10404D01*
X25608Y-10380D01*
X25704Y-10356D01*
X25775Y-10356D01*
X25870Y-10380D01*
X25918Y-10404D01*
X25965Y-10452D01*
X25989Y-10523D01*
X25989Y-10642D01*
X15227Y-16971D02*
X15368Y-17365D01*
X15508Y-16971D01*
X15705Y-16830D02*
X15733Y-16802D01*
X15790Y-16774D01*
X15930Y-16774D01*
X15987Y-16802D01*
X16015Y-16830D01*
X16043Y-16886D01*
X16043Y-16943D01*
X16015Y-17027D01*
X15677Y-17365D01*
X16043Y-17365D01*
X16296Y-17308D02*
X16324Y-17336D01*
X16296Y-17365D01*
X16268Y-17336D01*
X16296Y-17308D01*
X16296Y-17365D01*
X16690Y-16774D02*
X16746Y-16774D01*
X16802Y-16802D01*
X16830Y-16830D01*
X16858Y-16886D01*
X16886Y-16999D01*
X16886Y-17140D01*
X16858Y-17252D01*
X16830Y-17308D01*
X16802Y-17336D01*
X16746Y-17365D01*
X16690Y-17365D01*
X16633Y-17336D01*
X16605Y-17308D01*
X16577Y-17252D01*
X16549Y-17140D01*
X16549Y-16999D01*
X16577Y-16886D01*
X16605Y-16830D01*
X16633Y-16802D01*
X16690Y-16774D01*
X17899Y-17365D02*
X17561Y-17365D01*
X17730Y-17365D02*
X17730Y-16774D01*
X17674Y-16858D01*
X17618Y-16915D01*
X17561Y-16943D01*
X18264Y-16774D02*
X18321Y-16774D01*
X18377Y-16802D01*
X18405Y-16830D01*
X18433Y-16886D01*
X18461Y-16999D01*
X18461Y-17140D01*
X18433Y-17252D01*
X18405Y-17308D01*
X18377Y-17336D01*
X18321Y-17365D01*
X18264Y-17365D01*
X18208Y-17336D01*
X18180Y-17308D01*
X18152Y-17252D01*
X18124Y-17140D01*
X18124Y-16999D01*
X18152Y-16886D01*
X18180Y-16830D01*
X18208Y-16802D01*
X18264Y-16774D01*
X19136Y-16830D02*
X19164Y-16802D01*
X19221Y-16774D01*
X19361Y-16774D01*
X19417Y-16802D01*
X19446Y-16830D01*
X19474Y-16886D01*
X19474Y-16943D01*
X19446Y-17027D01*
X19108Y-17365D01*
X19474Y-17365D01*
X19839Y-16774D02*
X19895Y-16774D01*
X19952Y-16802D01*
X19980Y-16830D01*
X20008Y-16886D01*
X20036Y-16999D01*
X20036Y-17140D01*
X20008Y-17252D01*
X19980Y-17308D01*
X19952Y-17336D01*
X19895Y-17365D01*
X19839Y-17365D01*
X19783Y-17336D01*
X19755Y-17308D01*
X19727Y-17252D01*
X19699Y-17140D01*
X19699Y-16999D01*
X19727Y-16886D01*
X19755Y-16830D01*
X19783Y-16802D01*
X19839Y-16774D01*
X20598Y-17365D02*
X20261Y-17365D01*
X20430Y-17365D02*
X20430Y-16774D01*
X20374Y-16858D01*
X20317Y-16915D01*
X20261Y-16943D01*
X20795Y-16774D02*
X21161Y-16774D01*
X20964Y-16999D01*
X21048Y-16999D01*
X21105Y-17027D01*
X21133Y-17055D01*
X21161Y-17111D01*
X21161Y-17252D01*
X21133Y-17308D01*
X21105Y-17336D01*
X21048Y-17365D01*
X20880Y-17365D01*
X20823Y-17336D01*
X20795Y-17308D01*
X28852Y-15818D02*
X28880Y-15762D01*
X28880Y-15649D01*
X28852Y-15593D01*
X28796Y-15565D01*
X28768Y-15565D01*
X28712Y-15593D01*
X28683Y-15649D01*
X28683Y-15733D01*
X28655Y-15790D01*
X28599Y-15818D01*
X28571Y-15818D01*
X28515Y-15790D01*
X28487Y-15733D01*
X28487Y-15649D01*
X28515Y-15593D01*
X28487Y-15368D02*
X28880Y-15227D01*
X28487Y-15087D02*
X28880Y-15227D01*
X29021Y-15284D01*
X29049Y-15312D01*
X29077Y-15368D01*
X28852Y-14890D02*
X28880Y-14834D01*
X28880Y-14721D01*
X28852Y-14665D01*
X28796Y-14637D01*
X28768Y-14637D01*
X28712Y-14665D01*
X28683Y-14721D01*
X28683Y-14805D01*
X28655Y-14862D01*
X28599Y-14890D01*
X28571Y-14890D01*
X28515Y-14862D01*
X28487Y-14805D01*
X28487Y-14721D01*
X28515Y-14665D01*
X28487Y-14468D02*
X28487Y-14243D01*
X28290Y-14384D02*
X28796Y-14384D01*
X28852Y-14356D01*
X28880Y-14299D01*
X28880Y-14243D01*
X28852Y-13821D02*
X28880Y-13877D01*
X28880Y-13990D01*
X28852Y-14046D01*
X28796Y-14074D01*
X28571Y-14074D01*
X28515Y-14046D01*
X28487Y-13990D01*
X28487Y-13877D01*
X28515Y-13821D01*
X28571Y-13793D01*
X28627Y-13793D01*
X28683Y-14074D01*
X28880Y-13540D02*
X28487Y-13540D01*
X28543Y-13540D02*
X28515Y-13512D01*
X28487Y-13456D01*
X28487Y-13371D01*
X28515Y-13315D01*
X28571Y-13287D01*
X28880Y-13287D01*
X28571Y-13287D02*
X28515Y-13259D01*
X28487Y-13203D01*
X28487Y-13118D01*
X28515Y-13062D01*
X28571Y-13034D01*
X28880Y-13034D01*
X28290Y-12809D02*
X28290Y-12415D01*
X28880Y-12668D01*
X28880Y-12162D02*
X28880Y-12050D01*
X28852Y-11993D01*
X28824Y-11965D01*
X28740Y-11909D01*
X28627Y-11881D01*
X28402Y-11881D01*
X28346Y-11909D01*
X28318Y-11937D01*
X28290Y-11993D01*
X28290Y-12106D01*
X28318Y-12162D01*
X28346Y-12190D01*
X28402Y-12218D01*
X28543Y-12218D01*
X28599Y-12190D01*
X28627Y-12162D01*
X28655Y-12106D01*
X28655Y-11993D01*
X28627Y-11937D01*
X28599Y-11909D01*
X28543Y-11881D01*
X28824Y-11628D02*
X28852Y-11600D01*
X28880Y-11628D01*
X28852Y-11656D01*
X28824Y-11628D01*
X28880Y-11628D01*
X28852Y-11093D02*
X28880Y-11150D01*
X28880Y-11262D01*
X28852Y-11318D01*
X28824Y-11347D01*
X28768Y-11375D01*
X28599Y-11375D01*
X28543Y-11347D01*
X28515Y-11318D01*
X28487Y-11262D01*
X28487Y-11150D01*
X28515Y-11093D01*
X28880Y-10756D02*
X28852Y-10812D01*
X28824Y-10840D01*
X28768Y-10868D01*
X28599Y-10868D01*
X28543Y-10840D01*
X28515Y-10812D01*
X28487Y-10756D01*
X28487Y-10672D01*
X28515Y-10615D01*
X28543Y-10587D01*
X28599Y-10559D01*
X28768Y-10559D01*
X28824Y-10587D01*
X28852Y-10615D01*
X28880Y-10672D01*
X28880Y-10756D01*
X28880Y-10306D02*
X28487Y-10306D01*
X28543Y-10306D02*
X28515Y-10278D01*
X28487Y-10222D01*
X28487Y-10137D01*
X28515Y-10081D01*
X28571Y-10053D01*
X28880Y-10053D01*
X28571Y-10053D02*
X28515Y-10025D01*
X28487Y-9969D01*
X28487Y-9884D01*
X28515Y-9828D01*
X28571Y-9800D01*
X28880Y-9800D01*
G54D12*
X24041Y-16161D02*
G75*
G03X24041Y-16161I-1147J0D01*
G74*
G01*
G54D11*
X22335Y-15673D02*
X22795Y-15673D01*
X22500Y-16658D01*
X23090Y-16658D02*
X23221Y-16658D01*
X23287Y-16611D01*
X23320Y-16564D01*
X23385Y-16423D01*
X23418Y-16236D01*
X23418Y-15861D01*
X23385Y-15767D01*
X23353Y-15720D01*
X23287Y-15673D01*
X23156Y-15673D01*
X23090Y-15720D01*
X23057Y-15767D01*
X23024Y-15861D01*
X23024Y-16095D01*
X23057Y-16189D01*
X23090Y-16236D01*
X23156Y-16283D01*
X23287Y-16283D01*
X23353Y-16236D01*
X23385Y-16189D01*
X23418Y-16095D01*
G54D14*
X11314Y-11512D02*
X11514Y-11212D01*
X11314Y-12212D02*
X11314Y-11187D01*
X11314Y-11187D02*
X11914Y-11187D01*
X11914Y-11187D02*
X11914Y-12212D01*
X11914Y-12212D02*
X11314Y-12212D01*
X15841Y-15271D02*
X15841Y-14871D01*
X15841Y-14871D02*
X16441Y-14871D01*
X16441Y-14871D02*
X16441Y-15271D01*
X16441Y-15831D02*
X16441Y-16231D01*
X16441Y-16231D02*
X15841Y-16231D01*
X15841Y-16231D02*
X15841Y-15831D01*
X15841Y-13302D02*
X15841Y-12902D01*
X15841Y-12902D02*
X16441Y-12902D01*
X16441Y-12902D02*
X16441Y-13302D01*
X16441Y-13862D02*
X16441Y-14262D01*
X16441Y-14262D02*
X15841Y-14262D01*
X15841Y-14262D02*
X15841Y-13862D01*
X17524Y-10713D02*
X17524Y-11113D01*
X17524Y-11113D02*
X16924Y-11113D01*
X16924Y-11113D02*
X16924Y-10713D01*
X16924Y-10153D02*
X16924Y-9753D01*
X16924Y-9753D02*
X17524Y-9753D01*
X17524Y-9753D02*
X17524Y-10153D01*
X26688Y-15457D02*
X26288Y-15457D01*
X26288Y-15457D02*
X26288Y-14857D01*
X26288Y-14857D02*
X26688Y-14857D01*
X27248Y-14857D02*
X27648Y-14857D01*
X27648Y-14857D02*
X27648Y-15457D01*
X27648Y-15457D02*
X27248Y-15457D01*
X26688Y-14276D02*
X26288Y-14276D01*
X26288Y-14276D02*
X26288Y-13676D01*
X26288Y-13676D02*
X26688Y-13676D01*
X27248Y-13676D02*
X27648Y-13676D01*
X27648Y-13676D02*
X27648Y-14276D01*
X27648Y-14276D02*
X27248Y-14276D01*
X26688Y-13095D02*
X26288Y-13095D01*
X26288Y-13095D02*
X26288Y-12495D01*
X26288Y-12495D02*
X26688Y-12495D01*
X27248Y-12495D02*
X27648Y-12495D01*
X27648Y-12495D02*
X27648Y-13095D01*
X27648Y-13095D02*
X27248Y-13095D01*
X26688Y-11914D02*
X26288Y-11914D01*
X26288Y-11914D02*
X26288Y-11314D01*
X26288Y-11314D02*
X26688Y-11314D01*
X27248Y-11314D02*
X27648Y-11314D01*
X27648Y-11314D02*
X27648Y-11914D01*
X27648Y-11914D02*
X27248Y-11914D01*
X26688Y-10733D02*
X26288Y-10733D01*
X26288Y-10733D02*
X26288Y-10133D01*
X26288Y-10133D02*
X26688Y-10133D01*
X27248Y-10133D02*
X27648Y-10133D01*
X27648Y-10133D02*
X27648Y-10733D01*
X27648Y-10733D02*
X27248Y-10733D01*
X13105Y-11815D02*
X12705Y-11815D01*
X12705Y-11815D02*
X12705Y-11215D01*
X12705Y-11215D02*
X13105Y-11215D01*
X13665Y-11215D02*
X14065Y-11215D01*
X14065Y-11215D02*
X14065Y-11815D01*
X14065Y-11815D02*
X13665Y-11815D01*
X11334Y-9847D02*
X10934Y-9847D01*
X10934Y-9847D02*
X10934Y-9247D01*
X10934Y-9247D02*
X11334Y-9247D01*
X11894Y-9247D02*
X12294Y-9247D01*
X12294Y-9247D02*
X12294Y-9847D01*
X12294Y-9847D02*
X11894Y-9847D01*
X13105Y-9847D02*
X12705Y-9847D01*
X12705Y-9847D02*
X12705Y-9247D01*
X12705Y-9247D02*
X13105Y-9247D01*
X13665Y-9247D02*
X14065Y-9247D01*
X14065Y-9247D02*
X14065Y-9847D01*
X14065Y-9847D02*
X13665Y-9847D01*
X18508Y-10713D02*
X18508Y-11113D01*
X18508Y-11113D02*
X17908Y-11113D01*
X17908Y-11113D02*
X17908Y-10713D01*
X17908Y-10153D02*
X17908Y-9753D01*
X17908Y-9753D02*
X18508Y-9753D01*
X18508Y-9753D02*
X18508Y-10153D01*
X21058Y-14286D02*
X21058Y-13886D01*
X21058Y-13886D02*
X21658Y-13886D01*
X21658Y-13886D02*
X21658Y-14286D01*
X21658Y-14846D02*
X21658Y-15246D01*
X21658Y-15246D02*
X21058Y-15246D01*
X21058Y-15246D02*
X21058Y-14846D01*
X14365Y-17239D02*
X14365Y-16839D01*
X14365Y-16839D02*
X14965Y-16839D01*
X14965Y-16839D02*
X14965Y-17239D01*
X14965Y-17799D02*
X14965Y-18199D01*
X14965Y-18199D02*
X14365Y-18199D01*
X14365Y-18199D02*
X14365Y-17799D01*
X13105Y-10831D02*
X12705Y-10831D01*
X12705Y-10831D02*
X12705Y-10231D01*
X12705Y-10231D02*
X13105Y-10231D01*
X13665Y-10231D02*
X14065Y-10231D01*
X14065Y-10231D02*
X14065Y-10831D01*
X14065Y-10831D02*
X13665Y-10831D01*
X13882Y-17799D02*
X13882Y-18199D01*
X13882Y-18199D02*
X13282Y-18199D01*
X13282Y-18199D02*
X13282Y-17799D01*
X13282Y-17239D02*
X13282Y-16839D01*
X13282Y-16839D02*
X13882Y-16839D01*
X13882Y-16839D02*
X13882Y-17239D01*
X11334Y-10831D02*
X10934Y-10831D01*
X10934Y-10831D02*
X10934Y-10231D01*
X10934Y-10231D02*
X11334Y-10231D01*
X11894Y-10231D02*
X12294Y-10231D01*
X12294Y-10231D02*
X12294Y-10831D01*
X12294Y-10831D02*
X11894Y-10831D01*
X12220Y-8862D02*
X11820Y-8862D01*
X11820Y-8862D02*
X11820Y-8262D01*
X11820Y-8262D02*
X12220Y-8262D01*
X12780Y-8262D02*
X13180Y-8262D01*
X13180Y-8262D02*
X13180Y-8862D01*
X13180Y-8862D02*
X12780Y-8862D01*
G54D15*
X18716Y-9458D02*
X18716Y-8258D01*
X19816Y-9458D02*
X19816Y-8258D01*
X19816Y-8258D02*
X15616Y-8258D01*
X15616Y-8258D02*
X15616Y-9458D01*
X15616Y-9458D02*
X19816Y-9458D01*
G54D16*
X17104Y-15786D02*
X17297Y-15786D01*
X17297Y-15786D02*
X17297Y-15353D01*
X17104Y-15353D02*
X17297Y-15353D01*
X17104Y-15786D02*
X17104Y-15353D01*
X17604Y-15786D02*
X17797Y-15786D01*
X17797Y-15786D02*
X17797Y-15353D01*
X17604Y-15353D02*
X17797Y-15353D01*
X17604Y-15786D02*
X17604Y-15353D01*
X18104Y-15786D02*
X18297Y-15786D01*
X18297Y-15786D02*
X18297Y-15353D01*
X18104Y-15353D02*
X18297Y-15353D01*
X18104Y-15786D02*
X18104Y-15353D01*
X18604Y-15786D02*
X18796Y-15786D01*
X18796Y-15786D02*
X18796Y-15353D01*
X18604Y-15353D02*
X18796Y-15353D01*
X18604Y-15786D02*
X18604Y-15353D01*
X18604Y-13779D02*
X18796Y-13779D01*
X18796Y-13779D02*
X18796Y-13346D01*
X18604Y-13346D02*
X18796Y-13346D01*
X18604Y-13779D02*
X18604Y-13346D01*
X18104Y-13779D02*
X18297Y-13779D01*
X18297Y-13779D02*
X18297Y-13346D01*
X18104Y-13346D02*
X18297Y-13346D01*
X18104Y-13779D02*
X18104Y-13346D01*
X17604Y-13779D02*
X17797Y-13779D01*
X17797Y-13779D02*
X17797Y-13346D01*
X17604Y-13346D02*
X17797Y-13346D01*
X17604Y-13779D02*
X17604Y-13346D01*
X17104Y-13779D02*
X17297Y-13779D01*
X17297Y-13779D02*
X17297Y-13346D01*
X17104Y-13346D02*
X17297Y-13346D01*
X17104Y-13779D02*
X17104Y-13346D01*
X19103Y-15786D02*
X19296Y-15786D01*
X19296Y-15786D02*
X19296Y-15353D01*
X19103Y-15353D02*
X19296Y-15353D01*
X19103Y-15786D02*
X19103Y-15353D01*
X19603Y-15786D02*
X19796Y-15786D01*
X19796Y-15786D02*
X19796Y-15353D01*
X19603Y-15353D02*
X19796Y-15353D01*
X19603Y-15786D02*
X19603Y-15353D01*
X20103Y-15786D02*
X20296Y-15786D01*
X20296Y-15786D02*
X20296Y-15353D01*
X20103Y-15353D02*
X20296Y-15353D01*
X20103Y-15786D02*
X20103Y-15353D01*
X20103Y-13779D02*
X20296Y-13779D01*
X20296Y-13779D02*
X20296Y-13346D01*
X20103Y-13346D02*
X20296Y-13346D01*
X20103Y-13779D02*
X20103Y-13346D01*
X19603Y-13779D02*
X19796Y-13779D01*
X19796Y-13779D02*
X19796Y-13346D01*
X19603Y-13346D02*
X19796Y-13346D01*
X19603Y-13779D02*
X19603Y-13346D01*
X19103Y-13779D02*
X19296Y-13779D01*
X19296Y-13779D02*
X19296Y-13346D01*
X19103Y-13346D02*
X19296Y-13346D01*
X19103Y-13779D02*
X19103Y-13346D01*
G54D17*
X16773Y-13031D02*
X20627Y-13031D01*
X20627Y-16101D02*
X16773Y-16101D01*
X16773Y-16101D02*
X16773Y-13031D01*
G54D18*
X20394Y-15314D02*
X17006Y-15314D01*
X17006Y-15314D02*
X17006Y-15117D01*
X17006Y-15117D02*
X17006Y-13818D01*
X20394Y-15117D02*
X17006Y-15117D01*
X20394Y-13818D02*
X20394Y-15117D01*
X20394Y-15117D02*
X20394Y-15314D01*
G54D17*
X20627Y-13031D02*
X20627Y-16101D01*
G54D18*
X17006Y-13818D02*
X20394Y-13818D01*
G54D14*
X22534Y-8559D02*
X22734Y-8259D01*
X22534Y-9259D02*
X22534Y-8234D01*
X22534Y-8234D02*
X23134Y-8234D01*
X23134Y-8234D02*
X23134Y-9259D01*
X23134Y-9259D02*
X22534Y-9259D01*
X22456Y-10240D02*
X22056Y-10240D01*
X22056Y-10240D02*
X22056Y-9640D01*
X22056Y-9640D02*
X22456Y-9640D01*
X23016Y-9640D02*
X23416Y-9640D01*
X23416Y-9640D02*
X23416Y-10240D01*
X23416Y-10240D02*
X23016Y-10240D01*
X24523Y-8961D02*
X24123Y-8961D01*
X24123Y-8961D02*
X24123Y-8361D01*
X24123Y-8361D02*
X24523Y-8361D01*
X25083Y-8361D02*
X25483Y-8361D01*
X25483Y-8361D02*
X25483Y-8961D01*
X25483Y-8961D02*
X25083Y-8961D01*
X21244Y-11707D02*
X21644Y-11707D01*
X21644Y-11707D02*
X21644Y-12307D01*
X21644Y-12307D02*
X21244Y-12307D01*
X20684Y-12307D02*
X20284Y-12307D01*
X20284Y-12307D02*
X20284Y-11707D01*
X20284Y-11707D02*
X20684Y-11707D01*
X20684Y-10240D02*
X20284Y-10240D01*
X20284Y-10240D02*
X20284Y-9640D01*
X20284Y-9640D02*
X20684Y-9640D01*
X21244Y-9640D02*
X21644Y-9640D01*
X21644Y-9640D02*
X21644Y-10240D01*
X21644Y-10240D02*
X21244Y-10240D01*
X21244Y-10625D02*
X21644Y-10625D01*
X21644Y-10625D02*
X21644Y-11225D01*
X21644Y-11225D02*
X21244Y-11225D01*
X20684Y-11225D02*
X20284Y-11225D01*
X20284Y-11225D02*
X20284Y-10625D01*
X20284Y-10625D02*
X20684Y-10625D01*
X20684Y-9158D02*
X20284Y-9158D01*
X20284Y-9158D02*
X20284Y-8558D01*
X20284Y-8558D02*
X20684Y-8558D01*
X21244Y-8558D02*
X21644Y-8558D01*
X21644Y-8558D02*
X21644Y-9158D01*
X21644Y-9158D02*
X21244Y-9158D01*
G54D16*
X15412Y-13346D02*
X15219Y-13346D01*
X15219Y-13346D02*
X15219Y-13779D01*
X15412Y-13779D02*
X15219Y-13779D01*
X15412Y-13346D02*
X15412Y-13779D01*
X14912Y-13346D02*
X14719Y-13346D01*
X14719Y-13346D02*
X14719Y-13779D01*
X14912Y-13779D02*
X14719Y-13779D01*
X14912Y-13346D02*
X14912Y-13779D01*
X14413Y-13346D02*
X14220Y-13346D01*
X14220Y-13346D02*
X14220Y-13779D01*
X14413Y-13779D02*
X14220Y-13779D01*
X14413Y-13346D02*
X14413Y-13779D01*
X13913Y-13346D02*
X13720Y-13346D01*
X13720Y-13346D02*
X13720Y-13779D01*
X13913Y-13779D02*
X13720Y-13779D01*
X13913Y-13346D02*
X13913Y-13779D01*
X13913Y-15353D02*
X13720Y-15353D01*
X13720Y-15353D02*
X13720Y-15786D01*
X13913Y-15786D02*
X13720Y-15786D01*
X13913Y-15353D02*
X13913Y-15786D01*
X14413Y-15353D02*
X14220Y-15353D01*
X14220Y-15353D02*
X14220Y-15786D01*
X14413Y-15786D02*
X14220Y-15786D01*
X14413Y-15353D02*
X14413Y-15786D01*
X14912Y-15353D02*
X14719Y-15353D01*
X14719Y-15353D02*
X14719Y-15786D01*
X14912Y-15786D02*
X14719Y-15786D01*
X14912Y-15353D02*
X14912Y-15786D01*
X15412Y-15353D02*
X15219Y-15353D01*
X15219Y-15353D02*
X15219Y-15786D01*
X15412Y-15786D02*
X15219Y-15786D01*
X15412Y-15353D02*
X15412Y-15786D01*
G54D18*
X13622Y-15314D02*
X13622Y-14015D01*
X13622Y-14015D02*
X13622Y-13818D01*
X13622Y-13818D02*
X15510Y-13818D01*
X15510Y-13818D02*
X15510Y-14015D01*
X15510Y-14015D02*
X15510Y-15314D01*
X15510Y-15314D02*
X13622Y-15314D01*
X13622Y-14015D02*
X15510Y-14015D01*
G54D13*
X19133Y-19468D02*
X19133Y-18759D01*
X19488Y-19114D02*
G75*
G03X19488Y-19114I-354J0D01*
G74*
G01*
X16929Y-19685D02*
X19685Y-19685D01*
X19685Y-19685D02*
X19685Y-18031D01*
X16929Y-18031D02*
X16929Y-19685D01*
X16929Y-18031D02*
X19685Y-18031D01*
X22677Y-19468D02*
X22677Y-18759D01*
X23031Y-19114D02*
G75*
G03X23031Y-19114I-354J0D01*
G74*
G01*
X20472Y-19685D02*
X23228Y-19685D01*
X23228Y-19685D02*
X23228Y-18031D01*
X20472Y-18031D02*
X20472Y-19685D01*
X20472Y-18031D02*
X23228Y-18031D01*
X26220Y-19468D02*
X26220Y-18759D01*
X26574Y-19114D02*
G75*
G03X26574Y-19114I-354J0D01*
G74*
G01*
X24015Y-19685D02*
X26771Y-19685D01*
X26771Y-19685D02*
X26771Y-18031D01*
X24015Y-18031D02*
X24015Y-19685D01*
X24015Y-18031D02*
X26771Y-18031D01*
X10846Y-15393D02*
X11555Y-15393D01*
X11555Y-15393D02*
G75*
G03X11555Y-15393I-354J0D01*
G74*
G01*
X10629Y-13188D02*
X10629Y-15944D01*
X10629Y-15944D02*
X12283Y-15944D01*
X12283Y-13188D02*
X10629Y-13188D01*
X12283Y-13188D02*
X12283Y-15944D01*
G54D14*
X12406Y-17799D02*
X12406Y-18199D01*
X12406Y-18199D02*
X11806Y-18199D01*
X11806Y-18199D02*
X11806Y-17799D01*
X11806Y-17239D02*
X11806Y-16839D01*
X11806Y-16839D02*
X12406Y-16839D01*
X12406Y-16839D02*
X12406Y-17239D01*
X11323Y-17799D02*
X11323Y-18199D01*
X11323Y-18199D02*
X10723Y-18199D01*
X10723Y-18199D02*
X10723Y-17799D01*
X10723Y-17239D02*
X10723Y-16839D01*
X10723Y-16839D02*
X11323Y-16839D01*
X11323Y-16839D02*
X11323Y-17239D01*
X16441Y-10713D02*
X16441Y-11113D01*
X16441Y-11113D02*
X15841Y-11113D01*
X15841Y-11113D02*
X15841Y-10713D01*
X15841Y-10153D02*
X15841Y-9753D01*
X15841Y-9753D02*
X16441Y-9753D01*
X16441Y-9753D02*
X16441Y-10153D01*
G54D15*
X28724Y-18396D02*
X28724Y-19596D01*
X27624Y-18396D02*
X27624Y-19596D01*
X27624Y-19596D02*
X31824Y-19596D01*
X31824Y-19596D02*
X31824Y-18396D01*
X31824Y-18396D02*
X27624Y-18396D01*
G54D10*
X11574Y-12727D02*
X11574Y-12407D01*
X11651Y-12407D01*
X11696Y-12423D01*
X11727Y-12453D01*
X11742Y-12484D01*
X11757Y-12545D01*
X11757Y-12590D01*
X11742Y-12651D01*
X11727Y-12682D01*
X11696Y-12712D01*
X11651Y-12727D01*
X11574Y-12727D01*
X12062Y-12727D02*
X11879Y-12727D01*
X11971Y-12727D02*
X11971Y-12407D01*
X11940Y-12453D01*
X11910Y-12484D01*
X11879Y-12499D01*
X16875Y-16536D02*
X16860Y-16551D01*
X16814Y-16566D01*
X16784Y-16566D01*
X16738Y-16551D01*
X16708Y-16520D01*
X16692Y-16490D01*
X16677Y-16429D01*
X16677Y-16383D01*
X16692Y-16322D01*
X16708Y-16292D01*
X16738Y-16261D01*
X16784Y-16246D01*
X16814Y-16246D01*
X16860Y-16261D01*
X16875Y-16277D01*
X17150Y-16246D02*
X17089Y-16246D01*
X17058Y-16261D01*
X17043Y-16277D01*
X17012Y-16322D01*
X16997Y-16383D01*
X16997Y-16505D01*
X17012Y-16536D01*
X17028Y-16551D01*
X17058Y-16566D01*
X17119Y-16566D01*
X17150Y-16551D01*
X17165Y-16536D01*
X17180Y-16505D01*
X17180Y-16429D01*
X17165Y-16398D01*
X17150Y-16383D01*
X17119Y-16368D01*
X17058Y-16368D01*
X17028Y-16383D01*
X17012Y-16398D01*
X16997Y-16429D01*
X16875Y-12697D02*
X16860Y-12712D01*
X16814Y-12727D01*
X16784Y-12727D01*
X16738Y-12712D01*
X16708Y-12682D01*
X16692Y-12651D01*
X16677Y-12590D01*
X16677Y-12545D01*
X16692Y-12484D01*
X16708Y-12453D01*
X16738Y-12423D01*
X16784Y-12407D01*
X16814Y-12407D01*
X16860Y-12423D01*
X16875Y-12438D01*
X17150Y-12514D02*
X17150Y-12727D01*
X17073Y-12392D02*
X16997Y-12621D01*
X17195Y-12621D01*
X17018Y-11645D02*
X16912Y-11492D01*
X16835Y-11645D02*
X16835Y-11325D01*
X16957Y-11325D01*
X16988Y-11340D01*
X17003Y-11355D01*
X17018Y-11386D01*
X17018Y-11431D01*
X17003Y-11462D01*
X16988Y-11477D01*
X16957Y-11492D01*
X16835Y-11492D01*
X17323Y-11645D02*
X17140Y-11645D01*
X17232Y-11645D02*
X17232Y-11325D01*
X17201Y-11370D01*
X17171Y-11401D01*
X17140Y-11416D01*
X17430Y-11325D02*
X17628Y-11325D01*
X17521Y-11447D01*
X17567Y-11447D01*
X17597Y-11462D01*
X17612Y-11477D01*
X17628Y-11508D01*
X17628Y-11584D01*
X17612Y-11614D01*
X17597Y-11630D01*
X17567Y-11645D01*
X17475Y-11645D01*
X17445Y-11630D01*
X17430Y-11614D01*
X26762Y-14737D02*
X26656Y-14584D01*
X26579Y-14737D02*
X26579Y-14417D01*
X26701Y-14417D01*
X26732Y-14432D01*
X26747Y-14447D01*
X26762Y-14477D01*
X26762Y-14523D01*
X26747Y-14554D01*
X26732Y-14569D01*
X26701Y-14584D01*
X26579Y-14584D01*
X27067Y-14737D02*
X26884Y-14737D01*
X26976Y-14737D02*
X26976Y-14417D01*
X26945Y-14462D01*
X26915Y-14493D01*
X26884Y-14508D01*
X27372Y-14737D02*
X27189Y-14737D01*
X27280Y-14737D02*
X27280Y-14417D01*
X27250Y-14462D01*
X27219Y-14493D01*
X27189Y-14508D01*
X26762Y-13555D02*
X26656Y-13403D01*
X26579Y-13555D02*
X26579Y-13235D01*
X26701Y-13235D01*
X26732Y-13251D01*
X26747Y-13266D01*
X26762Y-13296D01*
X26762Y-13342D01*
X26747Y-13373D01*
X26732Y-13388D01*
X26701Y-13403D01*
X26579Y-13403D01*
X27067Y-13555D02*
X26884Y-13555D01*
X26976Y-13555D02*
X26976Y-13235D01*
X26945Y-13281D01*
X26915Y-13312D01*
X26884Y-13327D01*
X27265Y-13235D02*
X27296Y-13235D01*
X27326Y-13251D01*
X27341Y-13266D01*
X27357Y-13296D01*
X27372Y-13357D01*
X27372Y-13433D01*
X27357Y-13494D01*
X27341Y-13525D01*
X27326Y-13540D01*
X27296Y-13555D01*
X27265Y-13555D01*
X27235Y-13540D01*
X27219Y-13525D01*
X27204Y-13494D01*
X27189Y-13433D01*
X27189Y-13357D01*
X27204Y-13296D01*
X27219Y-13266D01*
X27235Y-13251D01*
X27265Y-13235D01*
X26915Y-12374D02*
X26808Y-12222D01*
X26732Y-12374D02*
X26732Y-12054D01*
X26854Y-12054D01*
X26884Y-12070D01*
X26899Y-12085D01*
X26915Y-12115D01*
X26915Y-12161D01*
X26899Y-12191D01*
X26884Y-12207D01*
X26854Y-12222D01*
X26732Y-12222D01*
X27098Y-12191D02*
X27067Y-12176D01*
X27052Y-12161D01*
X27037Y-12130D01*
X27037Y-12115D01*
X27052Y-12085D01*
X27067Y-12070D01*
X27098Y-12054D01*
X27158Y-12054D01*
X27189Y-12070D01*
X27204Y-12085D01*
X27219Y-12115D01*
X27219Y-12130D01*
X27204Y-12161D01*
X27189Y-12176D01*
X27158Y-12191D01*
X27098Y-12191D01*
X27067Y-12207D01*
X27052Y-12222D01*
X27037Y-12252D01*
X27037Y-12313D01*
X27052Y-12344D01*
X27067Y-12359D01*
X27098Y-12374D01*
X27158Y-12374D01*
X27189Y-12359D01*
X27204Y-12344D01*
X27219Y-12313D01*
X27219Y-12252D01*
X27204Y-12222D01*
X27189Y-12207D01*
X27158Y-12191D01*
X26915Y-11193D02*
X26808Y-11041D01*
X26732Y-11193D02*
X26732Y-10873D01*
X26854Y-10873D01*
X26884Y-10888D01*
X26899Y-10904D01*
X26915Y-10934D01*
X26915Y-10980D01*
X26899Y-11010D01*
X26884Y-11026D01*
X26854Y-11041D01*
X26732Y-11041D01*
X27204Y-10873D02*
X27052Y-10873D01*
X27037Y-11026D01*
X27052Y-11010D01*
X27082Y-10995D01*
X27158Y-10995D01*
X27189Y-11010D01*
X27204Y-11026D01*
X27219Y-11056D01*
X27219Y-11132D01*
X27204Y-11163D01*
X27189Y-11178D01*
X27158Y-11193D01*
X27082Y-11193D01*
X27052Y-11178D01*
X27037Y-11163D01*
X26915Y-10012D02*
X26808Y-9860D01*
X26732Y-10012D02*
X26732Y-9692D01*
X26854Y-9692D01*
X26884Y-9707D01*
X26899Y-9723D01*
X26915Y-9753D01*
X26915Y-9799D01*
X26899Y-9829D01*
X26884Y-9844D01*
X26854Y-9860D01*
X26732Y-9860D01*
X27021Y-9692D02*
X27219Y-9692D01*
X27113Y-9814D01*
X27158Y-9814D01*
X27189Y-9829D01*
X27204Y-9844D01*
X27219Y-9875D01*
X27219Y-9951D01*
X27204Y-9982D01*
X27189Y-9997D01*
X27158Y-10012D01*
X27067Y-10012D01*
X27037Y-9997D01*
X27021Y-9982D01*
X14696Y-11569D02*
X14544Y-11675D01*
X14696Y-11751D02*
X14376Y-11751D01*
X14376Y-11630D01*
X14391Y-11599D01*
X14406Y-11584D01*
X14437Y-11569D01*
X14483Y-11569D01*
X14513Y-11584D01*
X14528Y-11599D01*
X14544Y-11630D01*
X14544Y-11751D01*
X14376Y-11462D02*
X14376Y-11249D01*
X14696Y-11386D01*
X10759Y-9600D02*
X10607Y-9707D01*
X10759Y-9783D02*
X10439Y-9783D01*
X10439Y-9661D01*
X10454Y-9631D01*
X10469Y-9615D01*
X10500Y-9600D01*
X10546Y-9600D01*
X10576Y-9615D01*
X10591Y-9631D01*
X10607Y-9661D01*
X10607Y-9783D01*
X10469Y-9478D02*
X10454Y-9463D01*
X10439Y-9432D01*
X10439Y-9356D01*
X10454Y-9326D01*
X10469Y-9311D01*
X10500Y-9295D01*
X10530Y-9295D01*
X10576Y-9311D01*
X10759Y-9493D01*
X10759Y-9295D01*
X14665Y-9600D02*
X14681Y-9615D01*
X14696Y-9661D01*
X14696Y-9692D01*
X14681Y-9737D01*
X14650Y-9768D01*
X14620Y-9783D01*
X14559Y-9798D01*
X14513Y-9798D01*
X14452Y-9783D01*
X14422Y-9768D01*
X14391Y-9737D01*
X14376Y-9692D01*
X14376Y-9661D01*
X14391Y-9615D01*
X14406Y-9600D01*
X14696Y-9295D02*
X14696Y-9478D01*
X14696Y-9387D02*
X14376Y-9387D01*
X14422Y-9417D01*
X14452Y-9448D01*
X14467Y-9478D01*
X18002Y-11645D02*
X17896Y-11492D01*
X17820Y-11645D02*
X17820Y-11325D01*
X17941Y-11325D01*
X17972Y-11340D01*
X17987Y-11355D01*
X18002Y-11386D01*
X18002Y-11431D01*
X17987Y-11462D01*
X17972Y-11477D01*
X17941Y-11492D01*
X17820Y-11492D01*
X18307Y-11645D02*
X18124Y-11645D01*
X18216Y-11645D02*
X18216Y-11325D01*
X18185Y-11370D01*
X18155Y-11401D01*
X18124Y-11416D01*
X18429Y-11355D02*
X18444Y-11340D01*
X18475Y-11325D01*
X18551Y-11325D01*
X18581Y-11340D01*
X18597Y-11355D01*
X18612Y-11386D01*
X18612Y-11416D01*
X18597Y-11462D01*
X18414Y-11645D01*
X18612Y-11645D01*
X22146Y-14620D02*
X22161Y-14635D01*
X22176Y-14681D01*
X22176Y-14711D01*
X22161Y-14757D01*
X22131Y-14787D01*
X22100Y-14803D01*
X22039Y-14818D01*
X21993Y-14818D01*
X21932Y-14803D01*
X21902Y-14787D01*
X21872Y-14757D01*
X21856Y-14711D01*
X21856Y-14681D01*
X21872Y-14635D01*
X21887Y-14620D01*
X21856Y-14330D02*
X21856Y-14483D01*
X22009Y-14498D01*
X21993Y-14483D01*
X21978Y-14452D01*
X21978Y-14376D01*
X21993Y-14345D01*
X22009Y-14330D01*
X22039Y-14315D01*
X22115Y-14315D01*
X22146Y-14330D01*
X22161Y-14345D01*
X22176Y-14376D01*
X22176Y-14452D01*
X22161Y-14483D01*
X22146Y-14498D01*
X14612Y-18731D02*
X14505Y-18579D01*
X14429Y-18731D02*
X14429Y-18411D01*
X14551Y-18411D01*
X14581Y-18427D01*
X14596Y-18442D01*
X14612Y-18472D01*
X14612Y-18518D01*
X14596Y-18549D01*
X14581Y-18564D01*
X14551Y-18579D01*
X14429Y-18579D01*
X14764Y-18731D02*
X14825Y-18731D01*
X14855Y-18716D01*
X14871Y-18701D01*
X14901Y-18655D01*
X14916Y-18594D01*
X14916Y-18472D01*
X14901Y-18442D01*
X14886Y-18427D01*
X14855Y-18411D01*
X14794Y-18411D01*
X14764Y-18427D01*
X14749Y-18442D01*
X14733Y-18472D01*
X14733Y-18549D01*
X14749Y-18579D01*
X14764Y-18594D01*
X14794Y-18609D01*
X14855Y-18609D01*
X14886Y-18594D01*
X14901Y-18579D01*
X14916Y-18549D01*
X15059Y-10584D02*
X15074Y-10600D01*
X15090Y-10645D01*
X15090Y-10676D01*
X15074Y-10721D01*
X15044Y-10752D01*
X15013Y-10767D01*
X14953Y-10782D01*
X14907Y-10782D01*
X14846Y-10767D01*
X14815Y-10752D01*
X14785Y-10721D01*
X14770Y-10676D01*
X14770Y-10645D01*
X14785Y-10600D01*
X14800Y-10584D01*
X14800Y-10462D02*
X14785Y-10447D01*
X14770Y-10417D01*
X14770Y-10341D01*
X14785Y-10310D01*
X14800Y-10295D01*
X14831Y-10280D01*
X14861Y-10280D01*
X14907Y-10295D01*
X15090Y-10478D01*
X15090Y-10280D01*
X13529Y-16566D02*
X13422Y-16414D01*
X13346Y-16566D02*
X13346Y-16246D01*
X13468Y-16246D01*
X13498Y-16261D01*
X13514Y-16277D01*
X13529Y-16307D01*
X13529Y-16353D01*
X13514Y-16383D01*
X13498Y-16398D01*
X13468Y-16414D01*
X13346Y-16414D01*
X13803Y-16246D02*
X13742Y-16246D01*
X13712Y-16261D01*
X13696Y-16277D01*
X13666Y-16322D01*
X13651Y-16383D01*
X13651Y-16505D01*
X13666Y-16536D01*
X13681Y-16551D01*
X13712Y-16566D01*
X13773Y-16566D01*
X13803Y-16551D01*
X13818Y-16536D01*
X13834Y-16505D01*
X13834Y-16429D01*
X13818Y-16398D01*
X13803Y-16383D01*
X13773Y-16368D01*
X13712Y-16368D01*
X13681Y-16383D01*
X13666Y-16398D01*
X13651Y-16429D01*
X10759Y-10584D02*
X10607Y-10691D01*
X10759Y-10767D02*
X10439Y-10767D01*
X10439Y-10645D01*
X10454Y-10615D01*
X10469Y-10600D01*
X10500Y-10584D01*
X10546Y-10584D01*
X10576Y-10600D01*
X10591Y-10615D01*
X10607Y-10645D01*
X10607Y-10767D01*
X10546Y-10310D02*
X10759Y-10310D01*
X10424Y-10386D02*
X10652Y-10462D01*
X10652Y-10264D01*
X13627Y-8692D02*
X13521Y-8540D01*
X13444Y-8692D02*
X13444Y-8372D01*
X13566Y-8372D01*
X13597Y-8387D01*
X13612Y-8402D01*
X13627Y-8433D01*
X13627Y-8479D01*
X13612Y-8509D01*
X13597Y-8524D01*
X13566Y-8540D01*
X13444Y-8540D01*
X13932Y-8692D02*
X13749Y-8692D01*
X13841Y-8692D02*
X13841Y-8372D01*
X13810Y-8418D01*
X13780Y-8448D01*
X13749Y-8463D01*
X20774Y-13531D02*
X21033Y-13531D01*
X21063Y-13515D01*
X21078Y-13500D01*
X21094Y-13470D01*
X21094Y-13409D01*
X21078Y-13378D01*
X21063Y-13363D01*
X21033Y-13348D01*
X20774Y-13348D01*
X21094Y-13028D02*
X21094Y-13211D01*
X21094Y-13119D02*
X20774Y-13119D01*
X20819Y-13150D01*
X20850Y-13180D01*
X20865Y-13211D01*
X23287Y-8397D02*
X23287Y-8077D01*
X23363Y-8077D01*
X23409Y-8092D01*
X23439Y-8122D01*
X23455Y-8153D01*
X23470Y-8214D01*
X23470Y-8260D01*
X23455Y-8321D01*
X23439Y-8351D01*
X23409Y-8382D01*
X23363Y-8397D01*
X23287Y-8397D01*
X23592Y-8107D02*
X23607Y-8092D01*
X23637Y-8077D01*
X23714Y-8077D01*
X23744Y-8092D01*
X23759Y-8107D01*
X23775Y-8138D01*
X23775Y-8168D01*
X23759Y-8214D01*
X23576Y-8397D01*
X23775Y-8397D01*
X22530Y-10857D02*
X22423Y-10705D01*
X22347Y-10857D02*
X22347Y-10537D01*
X22469Y-10537D01*
X22500Y-10553D01*
X22515Y-10568D01*
X22530Y-10598D01*
X22530Y-10644D01*
X22515Y-10675D01*
X22500Y-10690D01*
X22469Y-10705D01*
X22347Y-10705D01*
X22835Y-10857D02*
X22652Y-10857D01*
X22743Y-10857D02*
X22743Y-10537D01*
X22713Y-10583D01*
X22682Y-10614D01*
X22652Y-10629D01*
X23109Y-10537D02*
X23048Y-10537D01*
X23018Y-10553D01*
X23002Y-10568D01*
X22972Y-10614D01*
X22957Y-10675D01*
X22957Y-10796D01*
X22972Y-10827D01*
X22987Y-10842D01*
X23018Y-10857D01*
X23079Y-10857D01*
X23109Y-10842D01*
X23124Y-10827D01*
X23140Y-10796D01*
X23140Y-10720D01*
X23124Y-10690D01*
X23109Y-10675D01*
X23079Y-10659D01*
X23018Y-10659D01*
X22987Y-10675D01*
X22972Y-10690D01*
X22957Y-10720D01*
X25143Y-9449D02*
X25128Y-9464D01*
X25082Y-9479D01*
X25052Y-9479D01*
X25006Y-9464D01*
X24975Y-9434D01*
X24960Y-9403D01*
X24945Y-9342D01*
X24945Y-9297D01*
X24960Y-9236D01*
X24975Y-9205D01*
X25006Y-9175D01*
X25052Y-9159D01*
X25082Y-9159D01*
X25128Y-9175D01*
X25143Y-9190D01*
X25295Y-9479D02*
X25356Y-9479D01*
X25387Y-9464D01*
X25402Y-9449D01*
X25433Y-9403D01*
X25448Y-9342D01*
X25448Y-9220D01*
X25433Y-9190D01*
X25417Y-9175D01*
X25387Y-9159D01*
X25326Y-9159D01*
X25295Y-9175D01*
X25280Y-9190D01*
X25265Y-9220D01*
X25265Y-9297D01*
X25280Y-9327D01*
X25295Y-9342D01*
X25326Y-9358D01*
X25387Y-9358D01*
X25417Y-9342D01*
X25433Y-9327D01*
X25448Y-9297D01*
X19479Y-11940D02*
X19372Y-11788D01*
X19296Y-11940D02*
X19296Y-11620D01*
X19418Y-11620D01*
X19448Y-11635D01*
X19464Y-11651D01*
X19479Y-11681D01*
X19479Y-11727D01*
X19464Y-11757D01*
X19448Y-11772D01*
X19418Y-11788D01*
X19296Y-11788D01*
X19784Y-11940D02*
X19601Y-11940D01*
X19692Y-11940D02*
X19692Y-11620D01*
X19662Y-11666D01*
X19631Y-11696D01*
X19601Y-11711D01*
X19890Y-11620D02*
X20104Y-11620D01*
X19966Y-11940D01*
X19479Y-10070D02*
X19372Y-9918D01*
X19296Y-10070D02*
X19296Y-9750D01*
X19418Y-9750D01*
X19448Y-9765D01*
X19464Y-9780D01*
X19479Y-9811D01*
X19479Y-9857D01*
X19464Y-9887D01*
X19448Y-9902D01*
X19418Y-9918D01*
X19296Y-9918D01*
X19784Y-10070D02*
X19601Y-10070D01*
X19692Y-10070D02*
X19692Y-9750D01*
X19662Y-9796D01*
X19631Y-9826D01*
X19601Y-9841D01*
X20058Y-9857D02*
X20058Y-10070D01*
X19982Y-9735D02*
X19905Y-9963D01*
X20104Y-9963D01*
X19479Y-11054D02*
X19372Y-10902D01*
X19296Y-11054D02*
X19296Y-10734D01*
X19418Y-10734D01*
X19448Y-10749D01*
X19464Y-10765D01*
X19479Y-10795D01*
X19479Y-10841D01*
X19464Y-10871D01*
X19448Y-10887D01*
X19418Y-10902D01*
X19296Y-10902D01*
X19784Y-11054D02*
X19601Y-11054D01*
X19692Y-11054D02*
X19692Y-10734D01*
X19662Y-10780D01*
X19631Y-10810D01*
X19601Y-10826D01*
X20073Y-10734D02*
X19921Y-10734D01*
X19905Y-10887D01*
X19921Y-10871D01*
X19951Y-10856D01*
X20027Y-10856D01*
X20058Y-10871D01*
X20073Y-10887D01*
X20088Y-10917D01*
X20088Y-10993D01*
X20073Y-11024D01*
X20058Y-11039D01*
X20027Y-11054D01*
X19951Y-11054D01*
X19921Y-11039D01*
X19905Y-11024D01*
X20911Y-8407D02*
X20895Y-8422D01*
X20850Y-8437D01*
X20819Y-8437D01*
X20774Y-8422D01*
X20743Y-8392D01*
X20728Y-8361D01*
X20713Y-8300D01*
X20713Y-8254D01*
X20728Y-8193D01*
X20743Y-8163D01*
X20774Y-8133D01*
X20819Y-8117D01*
X20850Y-8117D01*
X20895Y-8133D01*
X20911Y-8148D01*
X21017Y-8117D02*
X21231Y-8117D01*
X21094Y-8437D01*
X13096Y-14810D02*
X13355Y-14810D01*
X13386Y-14795D01*
X13401Y-14780D01*
X13416Y-14749D01*
X13416Y-14688D01*
X13401Y-14658D01*
X13386Y-14643D01*
X13355Y-14627D01*
X13096Y-14627D01*
X13127Y-14490D02*
X13112Y-14475D01*
X13096Y-14445D01*
X13096Y-14368D01*
X13112Y-14338D01*
X13127Y-14323D01*
X13157Y-14307D01*
X13188Y-14307D01*
X13234Y-14323D01*
X13416Y-14505D01*
X13416Y-14307D01*
X11900Y-16566D02*
X11793Y-16414D01*
X11717Y-16566D02*
X11717Y-16246D01*
X11839Y-16246D01*
X11870Y-16261D01*
X11885Y-16277D01*
X11900Y-16307D01*
X11900Y-16353D01*
X11885Y-16383D01*
X11870Y-16398D01*
X11839Y-16414D01*
X11717Y-16414D01*
X12205Y-16566D02*
X12022Y-16566D01*
X12113Y-16566D02*
X12113Y-16246D01*
X12083Y-16292D01*
X12052Y-16322D01*
X12022Y-16337D01*
X12388Y-16383D02*
X12357Y-16368D01*
X12342Y-16353D01*
X12327Y-16322D01*
X12327Y-16307D01*
X12342Y-16277D01*
X12357Y-16261D01*
X12388Y-16246D01*
X12449Y-16246D01*
X12479Y-16261D01*
X12494Y-16277D01*
X12510Y-16307D01*
X12510Y-16322D01*
X12494Y-16353D01*
X12479Y-16368D01*
X12449Y-16383D01*
X12388Y-16383D01*
X12357Y-16398D01*
X12342Y-16414D01*
X12327Y-16444D01*
X12327Y-16505D01*
X12342Y-16536D01*
X12357Y-16551D01*
X12388Y-16566D01*
X12449Y-16566D01*
X12479Y-16551D01*
X12494Y-16536D01*
X12510Y-16505D01*
X12510Y-16444D01*
X12494Y-16414D01*
X12479Y-16398D01*
X12449Y-16383D01*
X10817Y-16566D02*
X10711Y-16414D01*
X10635Y-16566D02*
X10635Y-16246D01*
X10756Y-16246D01*
X10787Y-16261D01*
X10802Y-16277D01*
X10817Y-16307D01*
X10817Y-16353D01*
X10802Y-16383D01*
X10787Y-16398D01*
X10756Y-16414D01*
X10635Y-16414D01*
X11122Y-16566D02*
X10939Y-16566D01*
X11031Y-16566D02*
X11031Y-16246D01*
X11000Y-16292D01*
X10970Y-16322D01*
X10939Y-16337D01*
X11275Y-16566D02*
X11336Y-16566D01*
X11366Y-16551D01*
X11381Y-16536D01*
X11412Y-16490D01*
X11427Y-16429D01*
X11427Y-16307D01*
X11412Y-16277D01*
X11396Y-16261D01*
X11366Y-16246D01*
X11305Y-16246D01*
X11275Y-16261D01*
X11259Y-16277D01*
X11244Y-16307D01*
X11244Y-16383D01*
X11259Y-16414D01*
X11275Y-16429D01*
X11305Y-16444D01*
X11366Y-16444D01*
X11396Y-16429D01*
X11412Y-16414D01*
X11427Y-16383D01*
X15837Y-11645D02*
X15730Y-11492D01*
X15654Y-11645D02*
X15654Y-11325D01*
X15776Y-11325D01*
X15807Y-11340D01*
X15822Y-11355D01*
X15837Y-11386D01*
X15837Y-11431D01*
X15822Y-11462D01*
X15807Y-11477D01*
X15776Y-11492D01*
X15654Y-11492D01*
X15959Y-11355D02*
X15974Y-11340D01*
X16005Y-11325D01*
X16081Y-11325D01*
X16111Y-11340D01*
X16127Y-11355D01*
X16142Y-11386D01*
X16142Y-11416D01*
X16127Y-11462D01*
X15944Y-11645D01*
X16142Y-11645D01*
X16340Y-11325D02*
X16370Y-11325D01*
X16401Y-11340D01*
X16416Y-11355D01*
X16431Y-11386D01*
X16447Y-11447D01*
X16447Y-11523D01*
X16431Y-11584D01*
X16416Y-11614D01*
X16401Y-11630D01*
X16370Y-11645D01*
X16340Y-11645D01*
X16309Y-11630D01*
X16294Y-11614D01*
X16279Y-11584D01*
X16264Y-11523D01*
X16264Y-11447D01*
X16279Y-11386D01*
X16294Y-11355D01*
X16309Y-11340D01*
X16340Y-11325D01*
%LPC*%
G54D19*
X13543Y-19133D03*
X11574Y-19133D03*
X15511Y-19133D03*
G54D20*
X12114Y-11712D03*
X11114Y-12087D03*
X11114Y-11337D03*
G54D21*
X16141Y-15126D03*
X16141Y-15976D03*
X16141Y-13157D03*
X16141Y-14007D03*
X17224Y-10858D03*
X17224Y-10008D03*
G54D22*
X26543Y-15157D03*
X27393Y-15157D03*
X26543Y-13976D03*
X27393Y-13976D03*
X26543Y-12795D03*
X27393Y-12795D03*
X26543Y-11614D03*
X27393Y-11614D03*
X26543Y-10433D03*
X27393Y-10433D03*
X12960Y-11515D03*
X13810Y-11515D03*
X11189Y-9547D03*
X12039Y-9547D03*
X12960Y-9547D03*
X13810Y-9547D03*
G54D21*
X18208Y-10858D03*
X18208Y-10008D03*
X21358Y-14141D03*
X21358Y-14991D03*
X14665Y-17094D03*
X14665Y-17944D03*
G54D22*
X12960Y-10531D03*
X13810Y-10531D03*
G54D21*
X13582Y-17944D03*
X13582Y-17094D03*
G54D22*
X11189Y-10531D03*
X12039Y-10531D03*
X12075Y-8562D03*
X12925Y-8562D03*
G54D23*
X19216Y-8858D03*
G54D19*
X18216Y-8858D03*
X17216Y-8858D03*
X16216Y-8858D03*
G54D24*
X17200Y-15589D03*
X17700Y-15589D03*
X18200Y-15589D03*
X18700Y-15589D03*
X19200Y-15589D03*
X19700Y-15589D03*
X20200Y-15589D03*
X20200Y-13543D03*
X19700Y-13543D03*
X19200Y-13543D03*
X18700Y-13543D03*
X18200Y-13543D03*
X17700Y-13543D03*
X17200Y-13543D03*
G54D25*
X23677Y-11814D03*
X24696Y-10051D03*
X26460Y-9031D03*
X28500Y-9031D03*
X30263Y-10051D03*
X31283Y-11814D03*
X29645Y-12834D03*
X25314Y-12834D03*
X23677Y-13854D03*
X24696Y-15618D03*
X26460Y-16637D03*
X28500Y-16637D03*
X30263Y-15618D03*
X31283Y-13854D03*
G54D20*
X23334Y-8759D03*
X22334Y-9134D03*
X22334Y-8384D03*
G54D22*
X22311Y-9940D03*
X23161Y-9940D03*
X24378Y-8661D03*
X25228Y-8661D03*
X21389Y-12007D03*
X20539Y-12007D03*
X20539Y-9940D03*
X21389Y-9940D03*
X21389Y-10925D03*
X20539Y-10925D03*
X20539Y-8858D03*
X21389Y-8858D03*
G54D24*
X15316Y-13543D03*
X14816Y-13543D03*
X14316Y-13543D03*
X13816Y-13543D03*
X13816Y-15589D03*
X14316Y-15589D03*
X14816Y-15589D03*
X15316Y-15589D03*
G54D19*
X18307Y-19110D03*
X17307Y-18110D03*
G54D23*
X19307Y-18110D03*
G54D19*
X21850Y-19110D03*
X20850Y-18110D03*
G54D23*
X22850Y-18110D03*
G54D19*
X25393Y-19110D03*
X24393Y-18110D03*
G54D23*
X26393Y-18110D03*
G54D19*
X11204Y-14566D03*
X12204Y-13566D03*
G54D23*
X12204Y-15566D03*
G54D21*
X12106Y-17944D03*
X12106Y-17094D03*
X11023Y-17944D03*
X11023Y-17094D03*
X16141Y-10858D03*
X16141Y-10008D03*
G54D23*
X28224Y-18996D03*
G54D19*
X29224Y-18996D03*
X30224Y-18996D03*
X31224Y-18996D03*
M02*
