G04 (created by PCBNEW (2013-03-31 BZR 4008)-stable) date 2013-10-21 1:47:18 PM*
%MOIN*%
G04 Gerber Fmt 3.4, Leading zero omitted, Abs format*
%FSLAX34Y34*%
G01*
G70*
G90*
G04 APERTURE LIST*
%ADD10C,0.006*%
%ADD11C,0.0787*%
%ADD12R,0.045X0.055*%
%ADD13R,0.0787X0.0787*%
%ADD14C,0.0787402*%
%ADD15C,0.045*%
%ADD16C,0.012*%
%ADD17C,0.014*%
%ADD18C,0.01*%
G04 APERTURE END LIST*
G54D10*
G54D11*
X13543Y-19133D03*
X11574Y-19133D03*
X15511Y-19133D03*
G54D12*
X19653Y-19291D03*
X20503Y-19291D03*
G54D13*
X19216Y-8858D03*
G54D11*
X18216Y-8858D03*
X17216Y-8858D03*
X16216Y-8858D03*
G54D14*
X23677Y-11814D03*
X24696Y-10051D03*
X26460Y-9031D03*
X28500Y-9031D03*
X30263Y-10051D03*
X31283Y-11814D03*
X29645Y-12834D03*
X25314Y-12834D03*
X23677Y-13854D03*
X24696Y-15618D03*
X26460Y-16637D03*
X28500Y-16637D03*
X30263Y-15618D03*
X31283Y-13854D03*
G54D12*
X23295Y-19291D03*
X24145Y-19291D03*
G54D11*
X18307Y-19110D03*
X17307Y-18110D03*
G54D13*
X19307Y-18110D03*
G54D11*
X21850Y-19110D03*
X20850Y-18110D03*
G54D13*
X22850Y-18110D03*
G54D11*
X25393Y-19110D03*
X24393Y-18110D03*
G54D13*
X26393Y-18110D03*
G54D11*
X11204Y-14566D03*
X12204Y-13566D03*
G54D13*
X12204Y-15566D03*
X28224Y-18996D03*
G54D11*
X29224Y-18996D03*
X30224Y-18996D03*
X31224Y-18996D03*
G54D15*
X18933Y-14725D03*
X15673Y-12567D03*
X13090Y-12531D03*
X19427Y-12397D03*
X12986Y-15227D03*
X18506Y-16418D03*
X16296Y-12547D03*
X21358Y-15602D03*
X14422Y-10518D03*
X16280Y-16601D03*
X12787Y-18032D03*
X11114Y-12614D03*
X15243Y-11004D03*
X18160Y-12674D03*
X14813Y-12718D03*
X14781Y-16446D03*
G54D16*
X24751Y-19110D02*
X24570Y-19291D01*
X25393Y-19110D02*
X24751Y-19110D01*
X24145Y-19291D02*
X24570Y-19291D01*
G54D17*
X19895Y-10160D02*
X19216Y-9481D01*
X19895Y-13763D02*
X19895Y-10160D01*
X18933Y-14725D02*
X19895Y-13763D01*
X19216Y-8858D02*
X19216Y-9481D01*
G54D16*
X18307Y-19110D02*
X17307Y-18110D01*
X28224Y-18996D02*
X28224Y-18402D01*
X17307Y-18110D02*
X17307Y-16858D01*
X17307Y-14201D02*
X15673Y-12567D01*
X17307Y-16858D02*
X17307Y-14201D01*
X26460Y-16638D02*
X28224Y-18402D01*
X26240Y-16858D02*
X26460Y-16638D01*
X17307Y-16858D02*
X26240Y-16858D01*
X26460Y-16638D02*
X26460Y-16637D01*
X21109Y-19110D02*
X20928Y-19291D01*
X21850Y-19110D02*
X21109Y-19110D01*
X22526Y-19786D02*
X21850Y-19110D01*
X29433Y-19786D02*
X22526Y-19786D01*
X30224Y-18996D02*
X29433Y-19786D01*
X20503Y-19291D02*
X20716Y-19291D01*
X20716Y-19291D02*
X20928Y-19291D01*
X16179Y-19801D02*
X15511Y-19133D01*
X20205Y-19801D02*
X16179Y-19801D01*
X20716Y-19291D02*
X20205Y-19801D01*
G54D17*
X17304Y-9770D02*
X18216Y-8858D01*
X15817Y-9770D02*
X17304Y-9770D01*
X13090Y-12497D02*
X15817Y-9770D01*
X13090Y-12531D02*
X13090Y-12497D01*
G54D16*
X19427Y-12397D02*
X18962Y-12862D01*
X18506Y-14928D02*
X18506Y-16418D01*
X18487Y-14909D02*
X18506Y-14928D01*
X18487Y-14541D02*
X18487Y-14909D01*
X18506Y-14522D02*
X18487Y-14541D01*
X18506Y-13318D02*
X18506Y-14522D01*
X18962Y-12862D02*
X18506Y-13318D01*
X13795Y-14417D02*
X12986Y-15227D01*
X13795Y-12765D02*
X13795Y-14417D01*
X14766Y-11794D02*
X13795Y-12765D01*
X17893Y-11794D02*
X14766Y-11794D01*
X18962Y-12862D02*
X17893Y-11794D01*
X11204Y-14566D02*
X12204Y-13566D01*
X15183Y-11004D02*
X15243Y-11004D01*
X13535Y-12652D02*
X15183Y-11004D01*
X13535Y-12715D02*
X13535Y-12652D01*
X12684Y-13566D02*
X13535Y-12715D01*
X12204Y-13566D02*
X12684Y-13566D01*
X14055Y-18621D02*
X13543Y-19133D01*
X14055Y-12875D02*
X14055Y-18621D01*
X14864Y-12067D02*
X14055Y-12875D01*
X17553Y-12067D02*
X14864Y-12067D01*
X18160Y-12674D02*
X17553Y-12067D01*
X14813Y-16414D02*
X14781Y-16446D01*
X14813Y-12718D02*
X14813Y-16414D01*
G54D10*
G36*
X18608Y-12862D02*
X18329Y-13141D01*
X18275Y-13222D01*
X18256Y-13318D01*
X18256Y-14447D01*
X18237Y-14541D01*
X18237Y-14909D01*
X18256Y-15003D01*
X18256Y-16081D01*
X18154Y-16183D01*
X18091Y-16335D01*
X18091Y-16500D01*
X18135Y-16608D01*
X17557Y-16608D01*
X17557Y-14201D01*
X17557Y-14201D01*
X17557Y-14201D01*
X17553Y-14182D01*
X17538Y-14106D01*
X17538Y-14106D01*
X17483Y-14025D01*
X17483Y-14025D01*
X16088Y-12629D01*
X16088Y-12485D01*
X16025Y-12333D01*
X16009Y-12317D01*
X17449Y-12317D01*
X17745Y-12612D01*
X17745Y-12756D01*
X17808Y-12909D01*
X17924Y-13025D01*
X18077Y-13089D01*
X18242Y-13089D01*
X18394Y-13026D01*
X18511Y-12909D01*
X18553Y-12808D01*
X18608Y-12862D01*
X18608Y-12862D01*
G37*
G54D18*
X18608Y-12862D02*
X18329Y-13141D01*
X18275Y-13222D01*
X18256Y-13318D01*
X18256Y-14447D01*
X18237Y-14541D01*
X18237Y-14909D01*
X18256Y-15003D01*
X18256Y-16081D01*
X18154Y-16183D01*
X18091Y-16335D01*
X18091Y-16500D01*
X18135Y-16608D01*
X17557Y-16608D01*
X17557Y-14201D01*
X17557Y-14201D01*
X17557Y-14201D01*
X17553Y-14182D01*
X17538Y-14106D01*
X17538Y-14106D01*
X17483Y-14025D01*
X17483Y-14025D01*
X16088Y-12629D01*
X16088Y-12485D01*
X16025Y-12333D01*
X16009Y-12317D01*
X17449Y-12317D01*
X17745Y-12612D01*
X17745Y-12756D01*
X17808Y-12909D01*
X17924Y-13025D01*
X18077Y-13089D01*
X18242Y-13089D01*
X18394Y-13026D01*
X18511Y-12909D01*
X18553Y-12808D01*
X18608Y-12862D01*
G54D10*
G36*
X27880Y-18412D02*
X27793Y-18412D01*
X27723Y-18441D01*
X27669Y-18494D01*
X27640Y-18564D01*
X27640Y-18640D01*
X27640Y-19427D01*
X27669Y-19497D01*
X27709Y-19536D01*
X26977Y-19536D01*
X26977Y-18466D01*
X26977Y-17679D01*
X26948Y-17609D01*
X26894Y-17555D01*
X26825Y-17526D01*
X26749Y-17526D01*
X25962Y-17526D01*
X25892Y-17555D01*
X25839Y-17608D01*
X25810Y-17678D01*
X25810Y-17754D01*
X25810Y-18541D01*
X25839Y-18611D01*
X25892Y-18664D01*
X25962Y-18693D01*
X26037Y-18693D01*
X26824Y-18693D01*
X26894Y-18664D01*
X26948Y-18611D01*
X26977Y-18541D01*
X26977Y-18466D01*
X26977Y-19536D01*
X25792Y-19536D01*
X25888Y-19441D01*
X25977Y-19226D01*
X25977Y-18994D01*
X25888Y-18780D01*
X25724Y-18615D01*
X25510Y-18526D01*
X25278Y-18526D01*
X25063Y-18615D01*
X25041Y-18637D01*
X25041Y-18214D01*
X25032Y-17958D01*
X24952Y-17766D01*
X24847Y-17727D01*
X24776Y-17798D01*
X24776Y-17656D01*
X24737Y-17551D01*
X24497Y-17462D01*
X24241Y-17471D01*
X24049Y-17551D01*
X24010Y-17656D01*
X24393Y-18039D01*
X24776Y-17656D01*
X24776Y-17798D01*
X24464Y-18110D01*
X24847Y-18493D01*
X24952Y-18454D01*
X25041Y-18214D01*
X25041Y-18637D01*
X24899Y-18779D01*
X24865Y-18860D01*
X24776Y-18860D01*
X24776Y-18563D01*
X24393Y-18180D01*
X24322Y-18251D01*
X24322Y-18110D01*
X23940Y-17727D01*
X23835Y-17766D01*
X23745Y-18006D01*
X23755Y-18261D01*
X23835Y-18454D01*
X23940Y-18493D01*
X24322Y-18110D01*
X24322Y-18251D01*
X24010Y-18563D01*
X24049Y-18668D01*
X24289Y-18758D01*
X24545Y-18748D01*
X24737Y-18668D01*
X24776Y-18563D01*
X24776Y-18860D01*
X24751Y-18860D01*
X24656Y-18879D01*
X24574Y-18933D01*
X24551Y-18956D01*
X24531Y-18908D01*
X24478Y-18855D01*
X24408Y-18826D01*
X24332Y-18826D01*
X23882Y-18826D01*
X23812Y-18855D01*
X23759Y-18908D01*
X23752Y-18924D01*
X23732Y-18874D01*
X23661Y-18804D01*
X23569Y-18766D01*
X23433Y-18766D01*
X23433Y-18466D01*
X23433Y-17679D01*
X23405Y-17609D01*
X23351Y-17555D01*
X23281Y-17526D01*
X23206Y-17526D01*
X22419Y-17526D01*
X22349Y-17555D01*
X22295Y-17608D01*
X22266Y-17678D01*
X22266Y-17754D01*
X22266Y-18541D01*
X22295Y-18611D01*
X22349Y-18664D01*
X22418Y-18693D01*
X22494Y-18693D01*
X23281Y-18693D01*
X23351Y-18664D01*
X23404Y-18611D01*
X23433Y-18541D01*
X23433Y-18466D01*
X23433Y-18766D01*
X23407Y-18766D01*
X23345Y-18828D01*
X23345Y-19241D01*
X23353Y-19241D01*
X23353Y-19341D01*
X23345Y-19341D01*
X23345Y-19349D01*
X23245Y-19349D01*
X23245Y-19341D01*
X23245Y-19241D01*
X23245Y-18828D01*
X23182Y-18766D01*
X23020Y-18766D01*
X22929Y-18804D01*
X22858Y-18874D01*
X22820Y-18966D01*
X22820Y-19065D01*
X22820Y-19178D01*
X22882Y-19241D01*
X23245Y-19241D01*
X23245Y-19341D01*
X22882Y-19341D01*
X22820Y-19403D01*
X22820Y-19516D01*
X22820Y-19536D01*
X22630Y-19536D01*
X22400Y-19306D01*
X22433Y-19226D01*
X22433Y-18994D01*
X22345Y-18780D01*
X22181Y-18615D01*
X21966Y-18526D01*
X21734Y-18526D01*
X21520Y-18615D01*
X21498Y-18637D01*
X21498Y-18214D01*
X21488Y-17958D01*
X21409Y-17766D01*
X21304Y-17727D01*
X21233Y-17798D01*
X21233Y-17656D01*
X21194Y-17551D01*
X20954Y-17462D01*
X20698Y-17471D01*
X20506Y-17551D01*
X20467Y-17656D01*
X20850Y-18039D01*
X21233Y-17656D01*
X21233Y-17798D01*
X20921Y-18110D01*
X21304Y-18493D01*
X21409Y-18454D01*
X21498Y-18214D01*
X21498Y-18637D01*
X21356Y-18779D01*
X21322Y-18860D01*
X21233Y-18860D01*
X21233Y-18563D01*
X20850Y-18180D01*
X20779Y-18251D01*
X20779Y-18110D01*
X20396Y-17727D01*
X20291Y-17766D01*
X20202Y-18006D01*
X20212Y-18261D01*
X20291Y-18454D01*
X20396Y-18493D01*
X20779Y-18110D01*
X20779Y-18251D01*
X20467Y-18563D01*
X20506Y-18668D01*
X20746Y-18758D01*
X21002Y-18748D01*
X21194Y-18668D01*
X21233Y-18563D01*
X21233Y-18860D01*
X21109Y-18860D01*
X21014Y-18879D01*
X20933Y-18933D01*
X20909Y-18956D01*
X20889Y-18908D01*
X20836Y-18855D01*
X20766Y-18826D01*
X20691Y-18826D01*
X20241Y-18826D01*
X20171Y-18855D01*
X20117Y-18908D01*
X20111Y-18924D01*
X20090Y-18874D01*
X20020Y-18804D01*
X19928Y-18766D01*
X19890Y-18766D01*
X19890Y-18466D01*
X19890Y-17679D01*
X19861Y-17609D01*
X19808Y-17555D01*
X19738Y-17526D01*
X19662Y-17526D01*
X18875Y-17526D01*
X18806Y-17555D01*
X18752Y-17608D01*
X18723Y-17678D01*
X18723Y-17754D01*
X18723Y-18541D01*
X18752Y-18611D01*
X18805Y-18664D01*
X18875Y-18693D01*
X18951Y-18693D01*
X19738Y-18693D01*
X19808Y-18664D01*
X19861Y-18611D01*
X19890Y-18541D01*
X19890Y-18466D01*
X19890Y-18766D01*
X19766Y-18766D01*
X19703Y-18828D01*
X19703Y-19241D01*
X19711Y-19241D01*
X19711Y-19341D01*
X19703Y-19341D01*
X19703Y-19349D01*
X19603Y-19349D01*
X19603Y-19341D01*
X19603Y-19241D01*
X19603Y-18828D01*
X19541Y-18766D01*
X19379Y-18766D01*
X19287Y-18804D01*
X19216Y-18874D01*
X19178Y-18966D01*
X19178Y-19065D01*
X19178Y-19178D01*
X19241Y-19241D01*
X19603Y-19241D01*
X19603Y-19341D01*
X19241Y-19341D01*
X19178Y-19403D01*
X19178Y-19516D01*
X19178Y-19551D01*
X18690Y-19551D01*
X18801Y-19441D01*
X18890Y-19226D01*
X18890Y-18994D01*
X18802Y-18780D01*
X18638Y-18615D01*
X18423Y-18526D01*
X18191Y-18526D01*
X18110Y-18560D01*
X17857Y-18306D01*
X17890Y-18226D01*
X17890Y-17994D01*
X17802Y-17780D01*
X17638Y-17615D01*
X17557Y-17582D01*
X17557Y-17108D01*
X26105Y-17108D01*
X26129Y-17132D01*
X26344Y-17221D01*
X26576Y-17221D01*
X26656Y-17188D01*
X27880Y-18412D01*
X27880Y-18412D01*
G37*
G54D18*
X27880Y-18412D02*
X27793Y-18412D01*
X27723Y-18441D01*
X27669Y-18494D01*
X27640Y-18564D01*
X27640Y-18640D01*
X27640Y-19427D01*
X27669Y-19497D01*
X27709Y-19536D01*
X26977Y-19536D01*
X26977Y-18466D01*
X26977Y-17679D01*
X26948Y-17609D01*
X26894Y-17555D01*
X26825Y-17526D01*
X26749Y-17526D01*
X25962Y-17526D01*
X25892Y-17555D01*
X25839Y-17608D01*
X25810Y-17678D01*
X25810Y-17754D01*
X25810Y-18541D01*
X25839Y-18611D01*
X25892Y-18664D01*
X25962Y-18693D01*
X26037Y-18693D01*
X26824Y-18693D01*
X26894Y-18664D01*
X26948Y-18611D01*
X26977Y-18541D01*
X26977Y-18466D01*
X26977Y-19536D01*
X25792Y-19536D01*
X25888Y-19441D01*
X25977Y-19226D01*
X25977Y-18994D01*
X25888Y-18780D01*
X25724Y-18615D01*
X25510Y-18526D01*
X25278Y-18526D01*
X25063Y-18615D01*
X25041Y-18637D01*
X25041Y-18214D01*
X25032Y-17958D01*
X24952Y-17766D01*
X24847Y-17727D01*
X24776Y-17798D01*
X24776Y-17656D01*
X24737Y-17551D01*
X24497Y-17462D01*
X24241Y-17471D01*
X24049Y-17551D01*
X24010Y-17656D01*
X24393Y-18039D01*
X24776Y-17656D01*
X24776Y-17798D01*
X24464Y-18110D01*
X24847Y-18493D01*
X24952Y-18454D01*
X25041Y-18214D01*
X25041Y-18637D01*
X24899Y-18779D01*
X24865Y-18860D01*
X24776Y-18860D01*
X24776Y-18563D01*
X24393Y-18180D01*
X24322Y-18251D01*
X24322Y-18110D01*
X23940Y-17727D01*
X23835Y-17766D01*
X23745Y-18006D01*
X23755Y-18261D01*
X23835Y-18454D01*
X23940Y-18493D01*
X24322Y-18110D01*
X24322Y-18251D01*
X24010Y-18563D01*
X24049Y-18668D01*
X24289Y-18758D01*
X24545Y-18748D01*
X24737Y-18668D01*
X24776Y-18563D01*
X24776Y-18860D01*
X24751Y-18860D01*
X24656Y-18879D01*
X24574Y-18933D01*
X24551Y-18956D01*
X24531Y-18908D01*
X24478Y-18855D01*
X24408Y-18826D01*
X24332Y-18826D01*
X23882Y-18826D01*
X23812Y-18855D01*
X23759Y-18908D01*
X23752Y-18924D01*
X23732Y-18874D01*
X23661Y-18804D01*
X23569Y-18766D01*
X23433Y-18766D01*
X23433Y-18466D01*
X23433Y-17679D01*
X23405Y-17609D01*
X23351Y-17555D01*
X23281Y-17526D01*
X23206Y-17526D01*
X22419Y-17526D01*
X22349Y-17555D01*
X22295Y-17608D01*
X22266Y-17678D01*
X22266Y-17754D01*
X22266Y-18541D01*
X22295Y-18611D01*
X22349Y-18664D01*
X22418Y-18693D01*
X22494Y-18693D01*
X23281Y-18693D01*
X23351Y-18664D01*
X23404Y-18611D01*
X23433Y-18541D01*
X23433Y-18466D01*
X23433Y-18766D01*
X23407Y-18766D01*
X23345Y-18828D01*
X23345Y-19241D01*
X23353Y-19241D01*
X23353Y-19341D01*
X23345Y-19341D01*
X23345Y-19349D01*
X23245Y-19349D01*
X23245Y-19341D01*
X23245Y-19241D01*
X23245Y-18828D01*
X23182Y-18766D01*
X23020Y-18766D01*
X22929Y-18804D01*
X22858Y-18874D01*
X22820Y-18966D01*
X22820Y-19065D01*
X22820Y-19178D01*
X22882Y-19241D01*
X23245Y-19241D01*
X23245Y-19341D01*
X22882Y-19341D01*
X22820Y-19403D01*
X22820Y-19516D01*
X22820Y-19536D01*
X22630Y-19536D01*
X22400Y-19306D01*
X22433Y-19226D01*
X22433Y-18994D01*
X22345Y-18780D01*
X22181Y-18615D01*
X21966Y-18526D01*
X21734Y-18526D01*
X21520Y-18615D01*
X21498Y-18637D01*
X21498Y-18214D01*
X21488Y-17958D01*
X21409Y-17766D01*
X21304Y-17727D01*
X21233Y-17798D01*
X21233Y-17656D01*
X21194Y-17551D01*
X20954Y-17462D01*
X20698Y-17471D01*
X20506Y-17551D01*
X20467Y-17656D01*
X20850Y-18039D01*
X21233Y-17656D01*
X21233Y-17798D01*
X20921Y-18110D01*
X21304Y-18493D01*
X21409Y-18454D01*
X21498Y-18214D01*
X21498Y-18637D01*
X21356Y-18779D01*
X21322Y-18860D01*
X21233Y-18860D01*
X21233Y-18563D01*
X20850Y-18180D01*
X20779Y-18251D01*
X20779Y-18110D01*
X20396Y-17727D01*
X20291Y-17766D01*
X20202Y-18006D01*
X20212Y-18261D01*
X20291Y-18454D01*
X20396Y-18493D01*
X20779Y-18110D01*
X20779Y-18251D01*
X20467Y-18563D01*
X20506Y-18668D01*
X20746Y-18758D01*
X21002Y-18748D01*
X21194Y-18668D01*
X21233Y-18563D01*
X21233Y-18860D01*
X21109Y-18860D01*
X21014Y-18879D01*
X20933Y-18933D01*
X20909Y-18956D01*
X20889Y-18908D01*
X20836Y-18855D01*
X20766Y-18826D01*
X20691Y-18826D01*
X20241Y-18826D01*
X20171Y-18855D01*
X20117Y-18908D01*
X20111Y-18924D01*
X20090Y-18874D01*
X20020Y-18804D01*
X19928Y-18766D01*
X19890Y-18766D01*
X19890Y-18466D01*
X19890Y-17679D01*
X19861Y-17609D01*
X19808Y-17555D01*
X19738Y-17526D01*
X19662Y-17526D01*
X18875Y-17526D01*
X18806Y-17555D01*
X18752Y-17608D01*
X18723Y-17678D01*
X18723Y-17754D01*
X18723Y-18541D01*
X18752Y-18611D01*
X18805Y-18664D01*
X18875Y-18693D01*
X18951Y-18693D01*
X19738Y-18693D01*
X19808Y-18664D01*
X19861Y-18611D01*
X19890Y-18541D01*
X19890Y-18466D01*
X19890Y-18766D01*
X19766Y-18766D01*
X19703Y-18828D01*
X19703Y-19241D01*
X19711Y-19241D01*
X19711Y-19341D01*
X19703Y-19341D01*
X19703Y-19349D01*
X19603Y-19349D01*
X19603Y-19341D01*
X19603Y-19241D01*
X19603Y-18828D01*
X19541Y-18766D01*
X19379Y-18766D01*
X19287Y-18804D01*
X19216Y-18874D01*
X19178Y-18966D01*
X19178Y-19065D01*
X19178Y-19178D01*
X19241Y-19241D01*
X19603Y-19241D01*
X19603Y-19341D01*
X19241Y-19341D01*
X19178Y-19403D01*
X19178Y-19516D01*
X19178Y-19551D01*
X18690Y-19551D01*
X18801Y-19441D01*
X18890Y-19226D01*
X18890Y-18994D01*
X18802Y-18780D01*
X18638Y-18615D01*
X18423Y-18526D01*
X18191Y-18526D01*
X18110Y-18560D01*
X17857Y-18306D01*
X17890Y-18226D01*
X17890Y-17994D01*
X17802Y-17780D01*
X17638Y-17615D01*
X17557Y-17582D01*
X17557Y-17108D01*
X26105Y-17108D01*
X26129Y-17132D01*
X26344Y-17221D01*
X26576Y-17221D01*
X26656Y-17188D01*
X27880Y-18412D01*
G54D10*
G36*
X32083Y-19879D02*
X31872Y-19879D01*
X31872Y-19100D01*
X31867Y-18966D01*
X31867Y-13738D01*
X31867Y-11699D01*
X31778Y-11484D01*
X31614Y-11320D01*
X31400Y-11231D01*
X31167Y-11231D01*
X30953Y-11319D01*
X30847Y-11425D01*
X30847Y-9935D01*
X30758Y-9720D01*
X30594Y-9556D01*
X30380Y-9467D01*
X30148Y-9467D01*
X29933Y-9556D01*
X29769Y-9720D01*
X29680Y-9934D01*
X29679Y-10166D01*
X29768Y-10381D01*
X29932Y-10545D01*
X30147Y-10634D01*
X30379Y-10634D01*
X30593Y-10546D01*
X30758Y-10382D01*
X30847Y-10167D01*
X30847Y-9935D01*
X30847Y-11425D01*
X30788Y-11483D01*
X30699Y-11698D01*
X30699Y-11930D01*
X30788Y-12145D01*
X30952Y-12309D01*
X31166Y-12398D01*
X31399Y-12398D01*
X31613Y-12310D01*
X31778Y-12146D01*
X31867Y-11931D01*
X31867Y-11699D01*
X31867Y-13738D01*
X31778Y-13524D01*
X31614Y-13359D01*
X31400Y-13270D01*
X31167Y-13270D01*
X30953Y-13359D01*
X30788Y-13523D01*
X30699Y-13737D01*
X30699Y-13969D01*
X30788Y-14184D01*
X30952Y-14348D01*
X31166Y-14437D01*
X31399Y-14438D01*
X31613Y-14349D01*
X31778Y-14185D01*
X31867Y-13970D01*
X31867Y-13738D01*
X31867Y-18966D01*
X31862Y-18844D01*
X31783Y-18651D01*
X31678Y-18613D01*
X31607Y-18683D01*
X31607Y-18542D01*
X31568Y-18437D01*
X31328Y-18348D01*
X31072Y-18357D01*
X30880Y-18437D01*
X30847Y-18526D01*
X30847Y-15502D01*
X30758Y-15287D01*
X30594Y-15123D01*
X30380Y-15034D01*
X30229Y-15034D01*
X30229Y-12719D01*
X30140Y-12504D01*
X29976Y-12340D01*
X29762Y-12251D01*
X29530Y-12250D01*
X29315Y-12339D01*
X29151Y-12503D01*
X29083Y-12665D01*
X29083Y-8915D01*
X28995Y-8701D01*
X28831Y-8536D01*
X28616Y-8447D01*
X28384Y-8447D01*
X28169Y-8536D01*
X28005Y-8700D01*
X27916Y-8914D01*
X27916Y-9147D01*
X28004Y-9361D01*
X28168Y-9526D01*
X28383Y-9615D01*
X28615Y-9615D01*
X28830Y-9526D01*
X28994Y-9362D01*
X29083Y-9148D01*
X29083Y-8915D01*
X29083Y-12665D01*
X29062Y-12718D01*
X29061Y-12950D01*
X29150Y-13164D01*
X29314Y-13329D01*
X29529Y-13418D01*
X29761Y-13418D01*
X29975Y-13329D01*
X30140Y-13165D01*
X30229Y-12951D01*
X30229Y-12719D01*
X30229Y-15034D01*
X30148Y-15034D01*
X29933Y-15122D01*
X29769Y-15287D01*
X29680Y-15501D01*
X29679Y-15733D01*
X29768Y-15948D01*
X29932Y-16112D01*
X30147Y-16201D01*
X30379Y-16201D01*
X30593Y-16113D01*
X30758Y-15949D01*
X30847Y-15734D01*
X30847Y-15502D01*
X30847Y-18526D01*
X30841Y-18542D01*
X31224Y-18925D01*
X31607Y-18542D01*
X31607Y-18683D01*
X31295Y-18996D01*
X31678Y-19378D01*
X31783Y-19340D01*
X31872Y-19100D01*
X31872Y-19879D01*
X31607Y-19879D01*
X31607Y-19449D01*
X31224Y-19066D01*
X30841Y-19449D01*
X30880Y-19554D01*
X31120Y-19643D01*
X31376Y-19634D01*
X31568Y-19554D01*
X31607Y-19449D01*
X31607Y-19879D01*
X29694Y-19879D01*
X30027Y-19546D01*
X30107Y-19579D01*
X30339Y-19579D01*
X30554Y-19491D01*
X30694Y-19350D01*
X30770Y-19378D01*
X31153Y-18996D01*
X30770Y-18613D01*
X30694Y-18641D01*
X30555Y-18501D01*
X30340Y-18412D01*
X30108Y-18412D01*
X29894Y-18501D01*
X29730Y-18665D01*
X29724Y-18678D01*
X29719Y-18665D01*
X29555Y-18501D01*
X29340Y-18412D01*
X29108Y-18412D01*
X29083Y-18422D01*
X29083Y-16522D01*
X28995Y-16307D01*
X28831Y-16143D01*
X28616Y-16054D01*
X28384Y-16053D01*
X28169Y-16142D01*
X28005Y-16306D01*
X27916Y-16521D01*
X27916Y-16753D01*
X28004Y-16968D01*
X28168Y-17132D01*
X28383Y-17221D01*
X28615Y-17221D01*
X28830Y-17132D01*
X28994Y-16968D01*
X29083Y-16754D01*
X29083Y-16522D01*
X29083Y-18422D01*
X28894Y-18501D01*
X28807Y-18587D01*
X28807Y-18564D01*
X28779Y-18495D01*
X28725Y-18441D01*
X28655Y-18412D01*
X28580Y-18412D01*
X28474Y-18412D01*
X28474Y-18402D01*
X28455Y-18306D01*
X28455Y-18306D01*
X28401Y-18225D01*
X27108Y-16933D01*
X27108Y-9135D01*
X27099Y-8879D01*
X27019Y-8687D01*
X26914Y-8648D01*
X26843Y-8719D01*
X26843Y-8577D01*
X26804Y-8472D01*
X26564Y-8383D01*
X26308Y-8392D01*
X26116Y-8472D01*
X26077Y-8577D01*
X26460Y-8960D01*
X26843Y-8577D01*
X26843Y-8719D01*
X26531Y-9031D01*
X26914Y-9414D01*
X27019Y-9375D01*
X27108Y-9135D01*
X27108Y-16933D01*
X27010Y-16835D01*
X27044Y-16754D01*
X27044Y-16522D01*
X26955Y-16307D01*
X26843Y-16195D01*
X26843Y-9485D01*
X26460Y-9102D01*
X26389Y-9172D01*
X26389Y-9031D01*
X26006Y-8648D01*
X25901Y-8687D01*
X25812Y-8927D01*
X25822Y-9183D01*
X25901Y-9375D01*
X26006Y-9414D01*
X26389Y-9031D01*
X26389Y-9172D01*
X26077Y-9485D01*
X26116Y-9590D01*
X26356Y-9679D01*
X26612Y-9670D01*
X26804Y-9590D01*
X26843Y-9485D01*
X26843Y-16195D01*
X26791Y-16143D01*
X26577Y-16054D01*
X26345Y-16053D01*
X26130Y-16142D01*
X25966Y-16306D01*
X25898Y-16468D01*
X25898Y-12719D01*
X25810Y-12504D01*
X25646Y-12340D01*
X25431Y-12251D01*
X25280Y-12250D01*
X25280Y-9935D01*
X25191Y-9720D01*
X25027Y-9556D01*
X24813Y-9467D01*
X24581Y-9467D01*
X24366Y-9556D01*
X24202Y-9720D01*
X24113Y-9934D01*
X24113Y-10166D01*
X24201Y-10381D01*
X24365Y-10545D01*
X24580Y-10634D01*
X24812Y-10634D01*
X25027Y-10546D01*
X25191Y-10382D01*
X25280Y-10167D01*
X25280Y-9935D01*
X25280Y-12250D01*
X25199Y-12250D01*
X24984Y-12339D01*
X24820Y-12503D01*
X24731Y-12718D01*
X24731Y-12950D01*
X24819Y-13164D01*
X24983Y-13329D01*
X25198Y-13418D01*
X25430Y-13418D01*
X25645Y-13329D01*
X25809Y-13165D01*
X25898Y-12951D01*
X25898Y-12719D01*
X25898Y-16468D01*
X25877Y-16521D01*
X25876Y-16608D01*
X25280Y-16608D01*
X25280Y-15502D01*
X25191Y-15287D01*
X25027Y-15123D01*
X24813Y-15034D01*
X24581Y-15034D01*
X24366Y-15122D01*
X24260Y-15228D01*
X24260Y-13738D01*
X24260Y-11699D01*
X24172Y-11484D01*
X24008Y-11320D01*
X23793Y-11231D01*
X23561Y-11231D01*
X23346Y-11319D01*
X23182Y-11483D01*
X23093Y-11698D01*
X23093Y-11930D01*
X23182Y-12145D01*
X23346Y-12309D01*
X23560Y-12398D01*
X23792Y-12398D01*
X24007Y-12310D01*
X24171Y-12146D01*
X24260Y-11931D01*
X24260Y-11699D01*
X24260Y-13738D01*
X24172Y-13524D01*
X24008Y-13359D01*
X23793Y-13270D01*
X23561Y-13270D01*
X23346Y-13359D01*
X23182Y-13523D01*
X23093Y-13737D01*
X23093Y-13969D01*
X23182Y-14184D01*
X23346Y-14348D01*
X23560Y-14437D01*
X23792Y-14438D01*
X24007Y-14349D01*
X24171Y-14185D01*
X24260Y-13970D01*
X24260Y-13738D01*
X24260Y-15228D01*
X24202Y-15287D01*
X24113Y-15501D01*
X24113Y-15733D01*
X24201Y-15948D01*
X24365Y-16112D01*
X24580Y-16201D01*
X24812Y-16201D01*
X25027Y-16113D01*
X25191Y-15949D01*
X25280Y-15734D01*
X25280Y-15502D01*
X25280Y-16608D01*
X18877Y-16608D01*
X18921Y-16501D01*
X18921Y-16336D01*
X18858Y-16183D01*
X18756Y-16081D01*
X18756Y-15123D01*
X18846Y-15160D01*
X19019Y-15160D01*
X19179Y-15094D01*
X19301Y-14972D01*
X19367Y-14812D01*
X19368Y-14686D01*
X20093Y-13961D01*
X20154Y-13870D01*
X20154Y-13870D01*
X20157Y-13852D01*
X20175Y-13763D01*
X20175Y-13763D01*
X20175Y-10160D01*
X20157Y-10071D01*
X20154Y-10053D01*
X20154Y-10053D01*
X20093Y-9962D01*
X19592Y-9461D01*
X19651Y-9461D01*
X19728Y-9429D01*
X19787Y-9370D01*
X19819Y-9293D01*
X19820Y-9210D01*
X19820Y-8423D01*
X19788Y-8345D01*
X19729Y-8286D01*
X19651Y-8254D01*
X19568Y-8254D01*
X18781Y-8254D01*
X18704Y-8286D01*
X18645Y-8345D01*
X18619Y-8407D01*
X18558Y-8346D01*
X18337Y-8254D01*
X18097Y-8254D01*
X17875Y-8346D01*
X17705Y-8515D01*
X17703Y-8520D01*
X17547Y-8363D01*
X17333Y-8274D01*
X17100Y-8274D01*
X16886Y-8363D01*
X16746Y-8503D01*
X16670Y-8475D01*
X16599Y-8546D01*
X16599Y-8404D01*
X16560Y-8299D01*
X16320Y-8210D01*
X16064Y-8219D01*
X15872Y-8299D01*
X15833Y-8404D01*
X16216Y-8787D01*
X16599Y-8404D01*
X16599Y-8546D01*
X16287Y-8858D01*
X16670Y-9241D01*
X16746Y-9213D01*
X16885Y-9352D01*
X17099Y-9441D01*
X17237Y-9441D01*
X17188Y-9490D01*
X16383Y-9490D01*
X16560Y-9416D01*
X16599Y-9311D01*
X16216Y-8928D01*
X16145Y-8999D01*
X16145Y-8858D01*
X15762Y-8475D01*
X15657Y-8514D01*
X15568Y-8754D01*
X15578Y-9009D01*
X15657Y-9202D01*
X15762Y-9241D01*
X16145Y-8858D01*
X16145Y-8999D01*
X15833Y-9311D01*
X15872Y-9416D01*
X16069Y-9490D01*
X15817Y-9490D01*
X15710Y-9511D01*
X15679Y-9531D01*
X15619Y-9572D01*
X13095Y-12096D01*
X13004Y-12096D01*
X12844Y-12162D01*
X12721Y-12284D01*
X12655Y-12444D01*
X12655Y-12617D01*
X12721Y-12777D01*
X12843Y-12899D01*
X12952Y-12944D01*
X12680Y-13217D01*
X12535Y-13072D01*
X12321Y-12983D01*
X12089Y-12983D01*
X11874Y-13071D01*
X11710Y-13235D01*
X11621Y-13450D01*
X11621Y-13682D01*
X11654Y-13763D01*
X11401Y-14016D01*
X11321Y-13983D01*
X11089Y-13983D01*
X10874Y-14071D01*
X10710Y-14235D01*
X10621Y-14450D01*
X10621Y-14682D01*
X10709Y-14897D01*
X10873Y-15061D01*
X11088Y-15150D01*
X11320Y-15150D01*
X11534Y-15061D01*
X11699Y-14897D01*
X11788Y-14683D01*
X11788Y-14451D01*
X11754Y-14370D01*
X12008Y-14117D01*
X12088Y-14150D01*
X12320Y-14150D01*
X12534Y-14061D01*
X12699Y-13897D01*
X12737Y-13806D01*
X12779Y-13797D01*
X12860Y-13743D01*
X13545Y-13058D01*
X13545Y-14314D01*
X13047Y-14812D01*
X12904Y-14812D01*
X12751Y-14875D01*
X12641Y-14985D01*
X12636Y-14983D01*
X12560Y-14983D01*
X11773Y-14983D01*
X11703Y-15012D01*
X11650Y-15065D01*
X11621Y-15135D01*
X11621Y-15211D01*
X11621Y-15998D01*
X11650Y-16067D01*
X11703Y-16121D01*
X11773Y-16150D01*
X11848Y-16150D01*
X12635Y-16150D01*
X12705Y-16121D01*
X12759Y-16068D01*
X12788Y-15998D01*
X12788Y-15922D01*
X12788Y-15594D01*
X12903Y-15642D01*
X13068Y-15642D01*
X13221Y-15579D01*
X13337Y-15462D01*
X13401Y-15310D01*
X13401Y-15165D01*
X13805Y-14761D01*
X13805Y-18517D01*
X13739Y-18583D01*
X13659Y-18550D01*
X13427Y-18550D01*
X13213Y-18638D01*
X13048Y-18802D01*
X12959Y-19017D01*
X12959Y-19249D01*
X13048Y-19463D01*
X13212Y-19628D01*
X13426Y-19717D01*
X13658Y-19717D01*
X13873Y-19628D01*
X14037Y-19464D01*
X14126Y-19250D01*
X14126Y-19018D01*
X14093Y-18937D01*
X14232Y-18798D01*
X14286Y-18717D01*
X14286Y-18717D01*
X14305Y-18621D01*
X14305Y-12979D01*
X14423Y-12861D01*
X14461Y-12953D01*
X14563Y-13055D01*
X14563Y-16087D01*
X14546Y-16094D01*
X14429Y-16211D01*
X14366Y-16363D01*
X14366Y-16528D01*
X14429Y-16681D01*
X14545Y-16798D01*
X14698Y-16861D01*
X14863Y-16861D01*
X15015Y-16798D01*
X15132Y-16682D01*
X15196Y-16529D01*
X15196Y-16364D01*
X15133Y-16211D01*
X15063Y-16142D01*
X15063Y-13055D01*
X15165Y-12954D01*
X15228Y-12801D01*
X15228Y-12636D01*
X15165Y-12484D01*
X15048Y-12367D01*
X14956Y-12328D01*
X14967Y-12317D01*
X15337Y-12317D01*
X15321Y-12332D01*
X15258Y-12485D01*
X15258Y-12650D01*
X15321Y-12802D01*
X15437Y-12919D01*
X15590Y-12982D01*
X15734Y-12983D01*
X17057Y-14305D01*
X17057Y-16858D01*
X17057Y-17582D01*
X16976Y-17615D01*
X16812Y-17779D01*
X16723Y-17993D01*
X16723Y-18225D01*
X16812Y-18440D01*
X16976Y-18604D01*
X17190Y-18693D01*
X17422Y-18693D01*
X17503Y-18660D01*
X17756Y-18913D01*
X17723Y-18993D01*
X17723Y-19225D01*
X17812Y-19440D01*
X17923Y-19551D01*
X16283Y-19551D01*
X16061Y-19330D01*
X16095Y-19250D01*
X16095Y-19018D01*
X16006Y-18803D01*
X15842Y-18639D01*
X15628Y-18550D01*
X15396Y-18550D01*
X15181Y-18638D01*
X15017Y-18802D01*
X14928Y-19017D01*
X14928Y-19249D01*
X15016Y-19463D01*
X15180Y-19628D01*
X15395Y-19717D01*
X15627Y-19717D01*
X15708Y-19683D01*
X15903Y-19879D01*
X12598Y-19879D01*
X12158Y-19879D01*
X12158Y-19018D01*
X12069Y-18803D01*
X11905Y-18639D01*
X11691Y-18550D01*
X11459Y-18550D01*
X11244Y-18638D01*
X11080Y-18802D01*
X10991Y-19017D01*
X10991Y-19249D01*
X11079Y-19463D01*
X11243Y-19628D01*
X11458Y-19717D01*
X11690Y-19717D01*
X11904Y-19628D01*
X12069Y-19464D01*
X12158Y-19250D01*
X12158Y-19018D01*
X12158Y-19879D01*
X10435Y-19879D01*
X10435Y-8073D01*
X12598Y-8073D01*
X32083Y-8073D01*
X32083Y-19879D01*
X32083Y-19879D01*
G37*
G54D18*
X32083Y-19879D02*
X31872Y-19879D01*
X31872Y-19100D01*
X31867Y-18966D01*
X31867Y-13738D01*
X31867Y-11699D01*
X31778Y-11484D01*
X31614Y-11320D01*
X31400Y-11231D01*
X31167Y-11231D01*
X30953Y-11319D01*
X30847Y-11425D01*
X30847Y-9935D01*
X30758Y-9720D01*
X30594Y-9556D01*
X30380Y-9467D01*
X30148Y-9467D01*
X29933Y-9556D01*
X29769Y-9720D01*
X29680Y-9934D01*
X29679Y-10166D01*
X29768Y-10381D01*
X29932Y-10545D01*
X30147Y-10634D01*
X30379Y-10634D01*
X30593Y-10546D01*
X30758Y-10382D01*
X30847Y-10167D01*
X30847Y-9935D01*
X30847Y-11425D01*
X30788Y-11483D01*
X30699Y-11698D01*
X30699Y-11930D01*
X30788Y-12145D01*
X30952Y-12309D01*
X31166Y-12398D01*
X31399Y-12398D01*
X31613Y-12310D01*
X31778Y-12146D01*
X31867Y-11931D01*
X31867Y-11699D01*
X31867Y-13738D01*
X31778Y-13524D01*
X31614Y-13359D01*
X31400Y-13270D01*
X31167Y-13270D01*
X30953Y-13359D01*
X30788Y-13523D01*
X30699Y-13737D01*
X30699Y-13969D01*
X30788Y-14184D01*
X30952Y-14348D01*
X31166Y-14437D01*
X31399Y-14438D01*
X31613Y-14349D01*
X31778Y-14185D01*
X31867Y-13970D01*
X31867Y-13738D01*
X31867Y-18966D01*
X31862Y-18844D01*
X31783Y-18651D01*
X31678Y-18613D01*
X31607Y-18683D01*
X31607Y-18542D01*
X31568Y-18437D01*
X31328Y-18348D01*
X31072Y-18357D01*
X30880Y-18437D01*
X30847Y-18526D01*
X30847Y-15502D01*
X30758Y-15287D01*
X30594Y-15123D01*
X30380Y-15034D01*
X30229Y-15034D01*
X30229Y-12719D01*
X30140Y-12504D01*
X29976Y-12340D01*
X29762Y-12251D01*
X29530Y-12250D01*
X29315Y-12339D01*
X29151Y-12503D01*
X29083Y-12665D01*
X29083Y-8915D01*
X28995Y-8701D01*
X28831Y-8536D01*
X28616Y-8447D01*
X28384Y-8447D01*
X28169Y-8536D01*
X28005Y-8700D01*
X27916Y-8914D01*
X27916Y-9147D01*
X28004Y-9361D01*
X28168Y-9526D01*
X28383Y-9615D01*
X28615Y-9615D01*
X28830Y-9526D01*
X28994Y-9362D01*
X29083Y-9148D01*
X29083Y-8915D01*
X29083Y-12665D01*
X29062Y-12718D01*
X29061Y-12950D01*
X29150Y-13164D01*
X29314Y-13329D01*
X29529Y-13418D01*
X29761Y-13418D01*
X29975Y-13329D01*
X30140Y-13165D01*
X30229Y-12951D01*
X30229Y-12719D01*
X30229Y-15034D01*
X30148Y-15034D01*
X29933Y-15122D01*
X29769Y-15287D01*
X29680Y-15501D01*
X29679Y-15733D01*
X29768Y-15948D01*
X29932Y-16112D01*
X30147Y-16201D01*
X30379Y-16201D01*
X30593Y-16113D01*
X30758Y-15949D01*
X30847Y-15734D01*
X30847Y-15502D01*
X30847Y-18526D01*
X30841Y-18542D01*
X31224Y-18925D01*
X31607Y-18542D01*
X31607Y-18683D01*
X31295Y-18996D01*
X31678Y-19378D01*
X31783Y-19340D01*
X31872Y-19100D01*
X31872Y-19879D01*
X31607Y-19879D01*
X31607Y-19449D01*
X31224Y-19066D01*
X30841Y-19449D01*
X30880Y-19554D01*
X31120Y-19643D01*
X31376Y-19634D01*
X31568Y-19554D01*
X31607Y-19449D01*
X31607Y-19879D01*
X29694Y-19879D01*
X30027Y-19546D01*
X30107Y-19579D01*
X30339Y-19579D01*
X30554Y-19491D01*
X30694Y-19350D01*
X30770Y-19378D01*
X31153Y-18996D01*
X30770Y-18613D01*
X30694Y-18641D01*
X30555Y-18501D01*
X30340Y-18412D01*
X30108Y-18412D01*
X29894Y-18501D01*
X29730Y-18665D01*
X29724Y-18678D01*
X29719Y-18665D01*
X29555Y-18501D01*
X29340Y-18412D01*
X29108Y-18412D01*
X29083Y-18422D01*
X29083Y-16522D01*
X28995Y-16307D01*
X28831Y-16143D01*
X28616Y-16054D01*
X28384Y-16053D01*
X28169Y-16142D01*
X28005Y-16306D01*
X27916Y-16521D01*
X27916Y-16753D01*
X28004Y-16968D01*
X28168Y-17132D01*
X28383Y-17221D01*
X28615Y-17221D01*
X28830Y-17132D01*
X28994Y-16968D01*
X29083Y-16754D01*
X29083Y-16522D01*
X29083Y-18422D01*
X28894Y-18501D01*
X28807Y-18587D01*
X28807Y-18564D01*
X28779Y-18495D01*
X28725Y-18441D01*
X28655Y-18412D01*
X28580Y-18412D01*
X28474Y-18412D01*
X28474Y-18402D01*
X28455Y-18306D01*
X28455Y-18306D01*
X28401Y-18225D01*
X27108Y-16933D01*
X27108Y-9135D01*
X27099Y-8879D01*
X27019Y-8687D01*
X26914Y-8648D01*
X26843Y-8719D01*
X26843Y-8577D01*
X26804Y-8472D01*
X26564Y-8383D01*
X26308Y-8392D01*
X26116Y-8472D01*
X26077Y-8577D01*
X26460Y-8960D01*
X26843Y-8577D01*
X26843Y-8719D01*
X26531Y-9031D01*
X26914Y-9414D01*
X27019Y-9375D01*
X27108Y-9135D01*
X27108Y-16933D01*
X27010Y-16835D01*
X27044Y-16754D01*
X27044Y-16522D01*
X26955Y-16307D01*
X26843Y-16195D01*
X26843Y-9485D01*
X26460Y-9102D01*
X26389Y-9172D01*
X26389Y-9031D01*
X26006Y-8648D01*
X25901Y-8687D01*
X25812Y-8927D01*
X25822Y-9183D01*
X25901Y-9375D01*
X26006Y-9414D01*
X26389Y-9031D01*
X26389Y-9172D01*
X26077Y-9485D01*
X26116Y-9590D01*
X26356Y-9679D01*
X26612Y-9670D01*
X26804Y-9590D01*
X26843Y-9485D01*
X26843Y-16195D01*
X26791Y-16143D01*
X26577Y-16054D01*
X26345Y-16053D01*
X26130Y-16142D01*
X25966Y-16306D01*
X25898Y-16468D01*
X25898Y-12719D01*
X25810Y-12504D01*
X25646Y-12340D01*
X25431Y-12251D01*
X25280Y-12250D01*
X25280Y-9935D01*
X25191Y-9720D01*
X25027Y-9556D01*
X24813Y-9467D01*
X24581Y-9467D01*
X24366Y-9556D01*
X24202Y-9720D01*
X24113Y-9934D01*
X24113Y-10166D01*
X24201Y-10381D01*
X24365Y-10545D01*
X24580Y-10634D01*
X24812Y-10634D01*
X25027Y-10546D01*
X25191Y-10382D01*
X25280Y-10167D01*
X25280Y-9935D01*
X25280Y-12250D01*
X25199Y-12250D01*
X24984Y-12339D01*
X24820Y-12503D01*
X24731Y-12718D01*
X24731Y-12950D01*
X24819Y-13164D01*
X24983Y-13329D01*
X25198Y-13418D01*
X25430Y-13418D01*
X25645Y-13329D01*
X25809Y-13165D01*
X25898Y-12951D01*
X25898Y-12719D01*
X25898Y-16468D01*
X25877Y-16521D01*
X25876Y-16608D01*
X25280Y-16608D01*
X25280Y-15502D01*
X25191Y-15287D01*
X25027Y-15123D01*
X24813Y-15034D01*
X24581Y-15034D01*
X24366Y-15122D01*
X24260Y-15228D01*
X24260Y-13738D01*
X24260Y-11699D01*
X24172Y-11484D01*
X24008Y-11320D01*
X23793Y-11231D01*
X23561Y-11231D01*
X23346Y-11319D01*
X23182Y-11483D01*
X23093Y-11698D01*
X23093Y-11930D01*
X23182Y-12145D01*
X23346Y-12309D01*
X23560Y-12398D01*
X23792Y-12398D01*
X24007Y-12310D01*
X24171Y-12146D01*
X24260Y-11931D01*
X24260Y-11699D01*
X24260Y-13738D01*
X24172Y-13524D01*
X24008Y-13359D01*
X23793Y-13270D01*
X23561Y-13270D01*
X23346Y-13359D01*
X23182Y-13523D01*
X23093Y-13737D01*
X23093Y-13969D01*
X23182Y-14184D01*
X23346Y-14348D01*
X23560Y-14437D01*
X23792Y-14438D01*
X24007Y-14349D01*
X24171Y-14185D01*
X24260Y-13970D01*
X24260Y-13738D01*
X24260Y-15228D01*
X24202Y-15287D01*
X24113Y-15501D01*
X24113Y-15733D01*
X24201Y-15948D01*
X24365Y-16112D01*
X24580Y-16201D01*
X24812Y-16201D01*
X25027Y-16113D01*
X25191Y-15949D01*
X25280Y-15734D01*
X25280Y-15502D01*
X25280Y-16608D01*
X18877Y-16608D01*
X18921Y-16501D01*
X18921Y-16336D01*
X18858Y-16183D01*
X18756Y-16081D01*
X18756Y-15123D01*
X18846Y-15160D01*
X19019Y-15160D01*
X19179Y-15094D01*
X19301Y-14972D01*
X19367Y-14812D01*
X19368Y-14686D01*
X20093Y-13961D01*
X20154Y-13870D01*
X20154Y-13870D01*
X20157Y-13852D01*
X20175Y-13763D01*
X20175Y-13763D01*
X20175Y-10160D01*
X20157Y-10071D01*
X20154Y-10053D01*
X20154Y-10053D01*
X20093Y-9962D01*
X19592Y-9461D01*
X19651Y-9461D01*
X19728Y-9429D01*
X19787Y-9370D01*
X19819Y-9293D01*
X19820Y-9210D01*
X19820Y-8423D01*
X19788Y-8345D01*
X19729Y-8286D01*
X19651Y-8254D01*
X19568Y-8254D01*
X18781Y-8254D01*
X18704Y-8286D01*
X18645Y-8345D01*
X18619Y-8407D01*
X18558Y-8346D01*
X18337Y-8254D01*
X18097Y-8254D01*
X17875Y-8346D01*
X17705Y-8515D01*
X17703Y-8520D01*
X17547Y-8363D01*
X17333Y-8274D01*
X17100Y-8274D01*
X16886Y-8363D01*
X16746Y-8503D01*
X16670Y-8475D01*
X16599Y-8546D01*
X16599Y-8404D01*
X16560Y-8299D01*
X16320Y-8210D01*
X16064Y-8219D01*
X15872Y-8299D01*
X15833Y-8404D01*
X16216Y-8787D01*
X16599Y-8404D01*
X16599Y-8546D01*
X16287Y-8858D01*
X16670Y-9241D01*
X16746Y-9213D01*
X16885Y-9352D01*
X17099Y-9441D01*
X17237Y-9441D01*
X17188Y-9490D01*
X16383Y-9490D01*
X16560Y-9416D01*
X16599Y-9311D01*
X16216Y-8928D01*
X16145Y-8999D01*
X16145Y-8858D01*
X15762Y-8475D01*
X15657Y-8514D01*
X15568Y-8754D01*
X15578Y-9009D01*
X15657Y-9202D01*
X15762Y-9241D01*
X16145Y-8858D01*
X16145Y-8999D01*
X15833Y-9311D01*
X15872Y-9416D01*
X16069Y-9490D01*
X15817Y-9490D01*
X15710Y-9511D01*
X15679Y-9531D01*
X15619Y-9572D01*
X13095Y-12096D01*
X13004Y-12096D01*
X12844Y-12162D01*
X12721Y-12284D01*
X12655Y-12444D01*
X12655Y-12617D01*
X12721Y-12777D01*
X12843Y-12899D01*
X12952Y-12944D01*
X12680Y-13217D01*
X12535Y-13072D01*
X12321Y-12983D01*
X12089Y-12983D01*
X11874Y-13071D01*
X11710Y-13235D01*
X11621Y-13450D01*
X11621Y-13682D01*
X11654Y-13763D01*
X11401Y-14016D01*
X11321Y-13983D01*
X11089Y-13983D01*
X10874Y-14071D01*
X10710Y-14235D01*
X10621Y-14450D01*
X10621Y-14682D01*
X10709Y-14897D01*
X10873Y-15061D01*
X11088Y-15150D01*
X11320Y-15150D01*
X11534Y-15061D01*
X11699Y-14897D01*
X11788Y-14683D01*
X11788Y-14451D01*
X11754Y-14370D01*
X12008Y-14117D01*
X12088Y-14150D01*
X12320Y-14150D01*
X12534Y-14061D01*
X12699Y-13897D01*
X12737Y-13806D01*
X12779Y-13797D01*
X12860Y-13743D01*
X13545Y-13058D01*
X13545Y-14314D01*
X13047Y-14812D01*
X12904Y-14812D01*
X12751Y-14875D01*
X12641Y-14985D01*
X12636Y-14983D01*
X12560Y-14983D01*
X11773Y-14983D01*
X11703Y-15012D01*
X11650Y-15065D01*
X11621Y-15135D01*
X11621Y-15211D01*
X11621Y-15998D01*
X11650Y-16067D01*
X11703Y-16121D01*
X11773Y-16150D01*
X11848Y-16150D01*
X12635Y-16150D01*
X12705Y-16121D01*
X12759Y-16068D01*
X12788Y-15998D01*
X12788Y-15922D01*
X12788Y-15594D01*
X12903Y-15642D01*
X13068Y-15642D01*
X13221Y-15579D01*
X13337Y-15462D01*
X13401Y-15310D01*
X13401Y-15165D01*
X13805Y-14761D01*
X13805Y-18517D01*
X13739Y-18583D01*
X13659Y-18550D01*
X13427Y-18550D01*
X13213Y-18638D01*
X13048Y-18802D01*
X12959Y-19017D01*
X12959Y-19249D01*
X13048Y-19463D01*
X13212Y-19628D01*
X13426Y-19717D01*
X13658Y-19717D01*
X13873Y-19628D01*
X14037Y-19464D01*
X14126Y-19250D01*
X14126Y-19018D01*
X14093Y-18937D01*
X14232Y-18798D01*
X14286Y-18717D01*
X14286Y-18717D01*
X14305Y-18621D01*
X14305Y-12979D01*
X14423Y-12861D01*
X14461Y-12953D01*
X14563Y-13055D01*
X14563Y-16087D01*
X14546Y-16094D01*
X14429Y-16211D01*
X14366Y-16363D01*
X14366Y-16528D01*
X14429Y-16681D01*
X14545Y-16798D01*
X14698Y-16861D01*
X14863Y-16861D01*
X15015Y-16798D01*
X15132Y-16682D01*
X15196Y-16529D01*
X15196Y-16364D01*
X15133Y-16211D01*
X15063Y-16142D01*
X15063Y-13055D01*
X15165Y-12954D01*
X15228Y-12801D01*
X15228Y-12636D01*
X15165Y-12484D01*
X15048Y-12367D01*
X14956Y-12328D01*
X14967Y-12317D01*
X15337Y-12317D01*
X15321Y-12332D01*
X15258Y-12485D01*
X15258Y-12650D01*
X15321Y-12802D01*
X15437Y-12919D01*
X15590Y-12982D01*
X15734Y-12983D01*
X17057Y-14305D01*
X17057Y-16858D01*
X17057Y-17582D01*
X16976Y-17615D01*
X16812Y-17779D01*
X16723Y-17993D01*
X16723Y-18225D01*
X16812Y-18440D01*
X16976Y-18604D01*
X17190Y-18693D01*
X17422Y-18693D01*
X17503Y-18660D01*
X17756Y-18913D01*
X17723Y-18993D01*
X17723Y-19225D01*
X17812Y-19440D01*
X17923Y-19551D01*
X16283Y-19551D01*
X16061Y-19330D01*
X16095Y-19250D01*
X16095Y-19018D01*
X16006Y-18803D01*
X15842Y-18639D01*
X15628Y-18550D01*
X15396Y-18550D01*
X15181Y-18638D01*
X15017Y-18802D01*
X14928Y-19017D01*
X14928Y-19249D01*
X15016Y-19463D01*
X15180Y-19628D01*
X15395Y-19717D01*
X15627Y-19717D01*
X15708Y-19683D01*
X15903Y-19879D01*
X12598Y-19879D01*
X12158Y-19879D01*
X12158Y-19018D01*
X12069Y-18803D01*
X11905Y-18639D01*
X11691Y-18550D01*
X11459Y-18550D01*
X11244Y-18638D01*
X11080Y-18802D01*
X10991Y-19017D01*
X10991Y-19249D01*
X11079Y-19463D01*
X11243Y-19628D01*
X11458Y-19717D01*
X11690Y-19717D01*
X11904Y-19628D01*
X12069Y-19464D01*
X12158Y-19250D01*
X12158Y-19018D01*
X12158Y-19879D01*
X10435Y-19879D01*
X10435Y-8073D01*
X12598Y-8073D01*
X32083Y-8073D01*
X32083Y-19879D01*
M02*
