G04 (created by PCBNEW (2013-03-31 BZR 4008)-stable) date 2013-10-21 1:47:18 PM*
%MOIN*%
G04 Gerber Fmt 3.4, Leading zero omitted, Abs format*
%FSLAX34Y34*%
G01*
G70*
G90*
G04 APERTURE LIST*
%ADD10C,0.006*%
%ADD11C,0.0802748*%
%ADD12R,0.0465748X0.0565748*%
%ADD13R,0.0802748X0.0802748*%
%ADD14C,0.080315*%
G04 APERTURE END LIST*
G54D10*
G54D11*
X13543Y-19133D03*
X11574Y-19133D03*
X15511Y-19133D03*
G54D12*
X19653Y-19291D03*
X20503Y-19291D03*
G54D13*
X19216Y-8858D03*
G54D11*
X18216Y-8858D03*
X17216Y-8858D03*
X16216Y-8858D03*
G54D14*
X23677Y-11814D03*
X24696Y-10051D03*
X26460Y-9031D03*
X28500Y-9031D03*
X30263Y-10051D03*
X31283Y-11814D03*
X29645Y-12834D03*
X25314Y-12834D03*
X23677Y-13854D03*
X24696Y-15618D03*
X26460Y-16637D03*
X28500Y-16637D03*
X30263Y-15618D03*
X31283Y-13854D03*
G54D12*
X23295Y-19291D03*
X24145Y-19291D03*
G54D11*
X18307Y-19110D03*
X17307Y-18110D03*
G54D13*
X19307Y-18110D03*
G54D11*
X21850Y-19110D03*
X20850Y-18110D03*
G54D13*
X22850Y-18110D03*
G54D11*
X25393Y-19110D03*
X24393Y-18110D03*
G54D13*
X26393Y-18110D03*
G54D11*
X11204Y-14566D03*
X12204Y-13566D03*
G54D13*
X12204Y-15566D03*
X28224Y-18996D03*
G54D11*
X29224Y-18996D03*
X30224Y-18996D03*
X31224Y-18996D03*
M02*
