G04 (created by PCBNEW (2013-07-07 BZR 4022)-stable) date 2014-08-04 10:27:05 PM*
%MOIN*%
G04 Gerber Fmt 3.4, Leading zero omitted, Abs format*
%FSLAX34Y34*%
G01*
G70*
G90*
G04 APERTURE LIST*
%ADD10C,0.00590551*%
%ADD11C,0.0802748*%
%ADD12R,0.0565748X0.0465748*%
%ADD13R,0.0802748X0.0802748*%
%ADD14C,0.080315*%
%ADD15C,0.0212598*%
G04 APERTURE END LIST*
G54D10*
G54D11*
X13543Y-44330D03*
X11574Y-44330D03*
X15511Y-44330D03*
G54D12*
X17125Y-41074D03*
X17125Y-40224D03*
X17125Y-39106D03*
X17125Y-38256D03*
X15846Y-42291D03*
X15846Y-43141D03*
G54D13*
X19216Y-34547D03*
G54D11*
X18216Y-34547D03*
X17216Y-34547D03*
X16216Y-34547D03*
G54D14*
X23677Y-37011D03*
X24696Y-35248D03*
X26460Y-34228D03*
X28500Y-34228D03*
X30263Y-35248D03*
X31283Y-37011D03*
X29645Y-38031D03*
X25314Y-38031D03*
X23677Y-39051D03*
X24696Y-40814D03*
X26460Y-41834D03*
X28500Y-41834D03*
X30263Y-40814D03*
X31283Y-39051D03*
G54D12*
X12795Y-43141D03*
X12795Y-42291D03*
G54D11*
X18307Y-44307D03*
X17307Y-43307D03*
G54D13*
X19307Y-43307D03*
G54D11*
X21850Y-44307D03*
X20850Y-43307D03*
G54D13*
X22850Y-43307D03*
G54D11*
X25393Y-44307D03*
X24393Y-43307D03*
G54D13*
X26393Y-43307D03*
G54D11*
X11204Y-39763D03*
X12204Y-38763D03*
G54D13*
X12204Y-40763D03*
X28224Y-44192D03*
G54D11*
X29224Y-44192D03*
X30224Y-44192D03*
X31224Y-44192D03*
G54D13*
X28224Y-31594D03*
G54D11*
X29224Y-31594D03*
X30224Y-31594D03*
X31224Y-31594D03*
X11204Y-27165D03*
X12204Y-26165D03*
G54D13*
X12204Y-28165D03*
G54D11*
X25393Y-31708D03*
X24393Y-30708D03*
G54D13*
X26393Y-30708D03*
G54D11*
X21850Y-31708D03*
X20850Y-30708D03*
G54D13*
X22850Y-30708D03*
G54D11*
X18307Y-31708D03*
X17307Y-30708D03*
G54D13*
X19307Y-30708D03*
G54D12*
X12795Y-30543D03*
X12795Y-29693D03*
G54D14*
X23677Y-24413D03*
X24696Y-22649D03*
X26460Y-21629D03*
X28500Y-21629D03*
X30263Y-22649D03*
X31283Y-24413D03*
X29645Y-25433D03*
X25314Y-25433D03*
X23677Y-26452D03*
X24696Y-28216D03*
X26460Y-29236D03*
X28500Y-29236D03*
X30263Y-28216D03*
X31283Y-26452D03*
G54D13*
X19216Y-21948D03*
G54D11*
X18216Y-21948D03*
X17216Y-21948D03*
X16216Y-21948D03*
G54D12*
X15846Y-29693D03*
X15846Y-30543D03*
X17125Y-26507D03*
X17125Y-25657D03*
X17125Y-28476D03*
X17125Y-27626D03*
G54D11*
X13543Y-31732D03*
X11574Y-31732D03*
X15511Y-31732D03*
X13543Y-19133D03*
X11574Y-19133D03*
X15511Y-19133D03*
G54D12*
X17125Y-15877D03*
X17125Y-15027D03*
X17125Y-13909D03*
X17125Y-13059D03*
X15846Y-17094D03*
X15846Y-17944D03*
G54D13*
X19216Y-9350D03*
G54D11*
X18216Y-9350D03*
X17216Y-9350D03*
X16216Y-9350D03*
G54D14*
X23677Y-11814D03*
X24696Y-10051D03*
X26460Y-9031D03*
X28500Y-9031D03*
X30263Y-10051D03*
X31283Y-11814D03*
X29645Y-12834D03*
X25314Y-12834D03*
X23677Y-13854D03*
X24696Y-15618D03*
X26460Y-16637D03*
X28500Y-16637D03*
X30263Y-15618D03*
X31283Y-13854D03*
G54D12*
X12795Y-17944D03*
X12795Y-17094D03*
G54D11*
X18307Y-19110D03*
X17307Y-18110D03*
G54D13*
X19307Y-18110D03*
G54D11*
X21850Y-19110D03*
X20850Y-18110D03*
G54D13*
X22850Y-18110D03*
G54D11*
X25393Y-19110D03*
X24393Y-18110D03*
G54D13*
X26393Y-18110D03*
G54D11*
X11204Y-14566D03*
X12204Y-13566D03*
G54D13*
X12204Y-15566D03*
X28224Y-18996D03*
G54D11*
X29224Y-18996D03*
X30224Y-18996D03*
X31224Y-18996D03*
G54D15*
X14370Y-20275D03*
X14763Y-20275D03*
X15157Y-20275D03*
X15551Y-20275D03*
X15944Y-20275D03*
X26574Y-20275D03*
X26968Y-20275D03*
X27362Y-20275D03*
X27755Y-20275D03*
X28149Y-20275D03*
X14370Y-32874D03*
X14763Y-32874D03*
X15157Y-32874D03*
X15551Y-32874D03*
X15944Y-32874D03*
X26574Y-32874D03*
X26968Y-32874D03*
X27362Y-32874D03*
X27755Y-32874D03*
X28149Y-32874D03*
M02*
