%FSLAX34Y34*%
G04 Gerber Fmt 3.4, Leading zero omitted, Abs format*
G04 (created by PCBNEW (2014-02-02 BZR 4653)-product) date 2014-02-04 11:29:01 PM*
%MOIN*%
G01*
G70*
G90*
G04 APERTURE LIST*
%ADD10C,0.005906*%
%ADD11R,0.011800X0.051200*%
%ADD12R,0.015000X0.050000*%
%ADD13R,0.039400X0.027600*%
%ADD14R,0.045000X0.032000*%
%ADD15R,0.078700X0.078700*%
%ADD16C,0.078700*%
G04 APERTURE END LIST*
G54D10*
G54D11*
X47423Y-31419D03*
X47173Y-31419D03*
X46913Y-31419D03*
X46663Y-31419D03*
X46663Y-33619D03*
X46918Y-33619D03*
X47173Y-33619D03*
X47428Y-33619D03*
G54D12*
X43001Y-33779D03*
X43257Y-33779D03*
X43513Y-33779D03*
X43769Y-33779D03*
X44025Y-33779D03*
X44281Y-33779D03*
X44537Y-33779D03*
X44793Y-33779D03*
X44793Y-31575D03*
X44537Y-31575D03*
X44281Y-31575D03*
X44025Y-31575D03*
X43769Y-31575D03*
X43513Y-31575D03*
X43257Y-31575D03*
X43001Y-31575D03*
G54D13*
X45169Y-30314D03*
X46169Y-29939D03*
X46169Y-30689D03*
G54D14*
X50393Y-30570D03*
X50393Y-31240D03*
X48228Y-31240D03*
X48228Y-30570D03*
X49409Y-31240D03*
X49409Y-30570D03*
X45866Y-32815D03*
X45866Y-32145D03*
X48228Y-32815D03*
X48228Y-32145D03*
X51377Y-32145D03*
X51377Y-32815D03*
X51377Y-30570D03*
X51377Y-31240D03*
X49409Y-32145D03*
X49409Y-32815D03*
X43307Y-29979D03*
X43307Y-30649D03*
G54D15*
X41169Y-36220D03*
G54D16*
X42169Y-36220D03*
X43169Y-36220D03*
X44169Y-36220D03*
X45169Y-36220D03*
X46169Y-36220D03*
X47169Y-36220D03*
X48169Y-36220D03*
X49169Y-36220D03*
X50169Y-36220D03*
G54D14*
X41141Y-35177D03*
X41141Y-34507D03*
X43110Y-34507D03*
X43110Y-35177D03*
M02*
