%FSLAX34Y34*%
G04 Gerber Fmt 3.4, Leading zero omitted, Abs format*
G04 (created by PCBNEW (2014-02-02 BZR 4653)-product) date 2014-02-04 11:29:01 PM*
%MOIN*%
G01*
G70*
G90*
G04 APERTURE LIST*
%ADD10C,0.005906*%
%ADD11R,0.051200X0.011800*%
%ADD12R,0.031400X0.015700*%
%ADD13R,0.032000X0.045000*%
%ADD14R,0.078700X0.078700*%
%ADD15C,0.078700*%
%ADD16C,0.045000*%
%ADD17C,0.035000*%
%ADD18C,0.014000*%
%ADD19C,0.010000*%
G04 APERTURE END LIST*
G54D10*
G54D11*
X41222Y-33437D03*
X41222Y-33187D03*
X41222Y-32927D03*
X41222Y-32677D03*
X41222Y-32417D03*
X41222Y-32162D03*
X41222Y-31907D03*
X43422Y-31907D03*
X43422Y-32162D03*
X43422Y-32417D03*
X43422Y-32677D03*
X43422Y-32932D03*
X43422Y-33187D03*
X43422Y-33442D03*
G54D12*
X46770Y-33209D03*
X46770Y-33464D03*
X46770Y-33719D03*
X46142Y-33719D03*
X46142Y-33464D03*
X46142Y-33209D03*
X46770Y-31831D03*
X46770Y-32086D03*
X46770Y-32341D03*
X46142Y-32341D03*
X46142Y-32086D03*
X46142Y-31831D03*
G54D13*
X48483Y-34645D03*
X49153Y-34645D03*
X42460Y-34645D03*
X41790Y-34645D03*
X40098Y-34645D03*
X39428Y-34645D03*
X49153Y-33661D03*
X48483Y-33661D03*
X49153Y-32677D03*
X48483Y-32677D03*
X49153Y-31692D03*
X48483Y-31692D03*
X49153Y-30708D03*
X48483Y-30708D03*
X44429Y-34645D03*
X43759Y-34645D03*
X46121Y-34645D03*
X46791Y-34645D03*
X46121Y-30708D03*
X46791Y-30708D03*
X40098Y-30708D03*
X39428Y-30708D03*
X39428Y-32677D03*
X40098Y-32677D03*
X39428Y-33661D03*
X40098Y-33661D03*
X40098Y-31692D03*
X39428Y-31692D03*
X42460Y-30708D03*
X41790Y-30708D03*
X50531Y-34645D03*
X49861Y-34645D03*
X44429Y-30708D03*
X43759Y-30708D03*
G54D14*
X41169Y-36220D03*
G54D15*
X42169Y-36220D03*
X43169Y-36220D03*
X44169Y-36220D03*
X45169Y-36220D03*
X46169Y-36220D03*
X47169Y-36220D03*
X48169Y-36220D03*
X49169Y-36220D03*
X50169Y-36220D03*
G54D16*
X42407Y-33263D03*
X50272Y-31975D03*
X42457Y-32657D03*
G54D17*
X39429Y-35452D03*
X47141Y-32086D03*
X47972Y-33759D03*
X49909Y-32952D03*
X47677Y-32519D03*
X47972Y-34980D03*
X44311Y-32874D03*
X45405Y-32145D03*
X51377Y-33275D03*
X41137Y-34102D03*
X45098Y-33791D03*
X46562Y-29937D03*
X43915Y-30071D03*
X47764Y-34528D03*
X45172Y-35312D03*
X45721Y-35694D03*
G54D18*
X41820Y-32677D02*
X41222Y-32677D01*
X42407Y-33263D02*
X41820Y-32677D01*
X49153Y-30708D02*
X49484Y-30708D01*
X49484Y-31186D02*
X50272Y-31975D01*
X49484Y-30708D02*
X49484Y-31186D01*
X49153Y-33661D02*
X49484Y-33661D01*
X50272Y-33425D02*
X50272Y-31975D01*
X51075Y-34227D02*
X50272Y-33425D01*
X51075Y-36128D02*
X51075Y-34227D01*
X50415Y-36788D02*
X51075Y-36128D01*
X43737Y-36788D02*
X50415Y-36788D01*
X43169Y-36220D02*
X43737Y-36788D01*
X49720Y-33425D02*
X49484Y-33661D01*
X50272Y-33425D02*
X49720Y-33425D01*
X42976Y-32657D02*
X42996Y-32677D01*
X42457Y-32657D02*
X42976Y-32657D01*
X43422Y-32677D02*
X42996Y-32677D01*
G54D19*
X48843Y-33972D02*
X48843Y-32677D01*
X48984Y-34113D02*
X48843Y-33972D01*
X50600Y-34113D02*
X48984Y-34113D01*
X50842Y-34354D02*
X50600Y-34113D01*
X50842Y-34943D02*
X50842Y-34354D01*
X50362Y-35422D02*
X50842Y-34943D01*
X49966Y-35422D02*
X50362Y-35422D01*
X49169Y-36220D02*
X49966Y-35422D01*
X49153Y-32677D02*
X48843Y-32677D01*
X43759Y-35810D02*
X44169Y-36220D01*
X43759Y-35020D02*
X43759Y-35810D01*
X43759Y-34645D02*
X43759Y-35020D01*
X44136Y-32699D02*
X44311Y-32874D01*
X43905Y-32468D02*
X44136Y-32699D01*
X43590Y-32468D02*
X43905Y-32468D01*
X43539Y-32417D02*
X43590Y-32468D01*
X43422Y-32417D02*
X43539Y-32417D01*
X39428Y-34645D02*
X39428Y-34970D01*
X39428Y-34970D02*
X39429Y-34971D01*
X39429Y-34971D02*
X39429Y-35452D01*
X47677Y-33464D02*
X47972Y-33759D01*
X47677Y-32519D02*
X47677Y-33464D01*
X49153Y-31692D02*
X49413Y-31692D01*
X49413Y-31692D02*
X49909Y-32188D01*
X49909Y-32188D02*
X49909Y-32952D01*
X47244Y-32086D02*
X47141Y-32086D01*
X47677Y-32519D02*
X47244Y-32086D01*
X48483Y-34645D02*
X48483Y-34710D01*
X48483Y-34710D02*
X48214Y-34980D01*
X48214Y-34980D02*
X47972Y-34980D01*
X43422Y-32932D02*
X43778Y-32932D01*
X43778Y-32932D02*
X43836Y-32874D01*
X43836Y-32874D02*
X44311Y-32874D01*
X47141Y-32964D02*
X47141Y-32086D01*
X47137Y-32968D02*
X47141Y-32964D01*
X47137Y-33099D02*
X47137Y-32968D01*
X47027Y-33209D02*
X47137Y-33099D01*
X46770Y-33209D02*
X47027Y-33209D01*
X46770Y-32086D02*
X47141Y-32086D01*
X45922Y-32086D02*
X46142Y-32086D01*
X45833Y-31998D02*
X45922Y-32086D01*
X45833Y-31666D02*
X45833Y-31998D01*
X46481Y-31018D02*
X45833Y-31666D01*
X46481Y-30708D02*
X46481Y-31018D01*
X46791Y-30708D02*
X46481Y-30708D01*
X46014Y-33464D02*
X46142Y-33464D01*
X46142Y-33464D02*
X46142Y-33592D01*
X46014Y-33464D02*
X46142Y-33464D01*
X46142Y-33592D02*
X46142Y-33719D01*
X46142Y-33592D02*
X46142Y-33719D01*
X46142Y-33592D02*
X46142Y-33592D01*
X46142Y-32086D02*
X46142Y-32231D01*
X46142Y-32230D02*
X46142Y-32086D01*
X46142Y-32231D02*
X46142Y-32230D01*
X46142Y-32231D02*
X46142Y-32375D01*
X45885Y-33464D02*
X46014Y-33464D01*
X45835Y-33414D02*
X45885Y-33464D01*
X45835Y-32827D02*
X45835Y-33414D01*
X46142Y-32520D02*
X45835Y-32827D01*
X46142Y-32375D02*
X46142Y-32520D01*
X46142Y-32375D02*
X46142Y-32341D01*
X46142Y-32375D02*
X46142Y-32375D01*
X48483Y-31692D02*
X48483Y-32677D01*
X48483Y-30708D02*
X48483Y-31692D01*
X46909Y-31692D02*
X46770Y-31831D01*
X48483Y-31692D02*
X46909Y-31692D01*
X40098Y-34645D02*
X40408Y-34645D01*
X41155Y-34645D02*
X40782Y-34272D01*
X41790Y-34645D02*
X41155Y-34645D01*
X40408Y-34645D02*
X40782Y-34272D01*
X40782Y-33221D02*
X40816Y-33187D01*
X40782Y-34272D02*
X40782Y-33221D01*
X41222Y-33187D02*
X40816Y-33187D01*
X46142Y-31831D02*
X46142Y-31831D01*
X46142Y-33209D02*
X46142Y-33120D01*
X46142Y-33120D02*
X46142Y-33209D01*
X46142Y-33120D02*
X46142Y-33120D01*
X43422Y-32162D02*
X43016Y-32162D01*
X43016Y-30708D02*
X43016Y-32162D01*
X43016Y-30708D02*
X42460Y-30708D01*
X43016Y-30708D02*
X43759Y-30708D01*
X46399Y-31831D02*
X46271Y-31831D01*
X46449Y-31881D02*
X46399Y-31831D01*
X46449Y-32724D02*
X46449Y-31881D01*
X46142Y-33031D02*
X46449Y-32724D01*
X46142Y-33120D02*
X46142Y-33031D01*
X46271Y-31831D02*
X46142Y-31831D01*
X44069Y-30471D02*
X44069Y-30708D01*
X44225Y-30315D02*
X44069Y-30471D01*
X47016Y-30315D02*
X44225Y-30315D01*
X47101Y-30401D02*
X47016Y-30315D01*
X47101Y-31000D02*
X47101Y-30401D01*
X46271Y-31831D02*
X47101Y-31000D01*
X43759Y-30708D02*
X44069Y-30708D01*
X46121Y-30708D02*
X45811Y-30708D01*
X45811Y-30708D02*
X44429Y-30708D01*
X44429Y-31306D02*
X43828Y-31907D01*
X44429Y-31083D02*
X44429Y-31306D01*
X44429Y-30708D02*
X44429Y-31083D01*
X43422Y-31907D02*
X43828Y-31907D01*
X40866Y-32162D02*
X41222Y-32162D01*
X40828Y-32162D02*
X40866Y-32162D01*
X40358Y-31692D02*
X40828Y-32162D01*
X40098Y-31692D02*
X40358Y-31692D01*
X39738Y-31643D02*
X39788Y-31692D01*
X39738Y-30708D02*
X39738Y-31643D01*
X39428Y-30708D02*
X39738Y-30708D01*
X40098Y-31692D02*
X39788Y-31692D01*
X39170Y-30071D02*
X43915Y-30071D01*
X38910Y-30330D02*
X39170Y-30071D01*
X38910Y-32468D02*
X38910Y-30330D01*
X39118Y-32677D02*
X38910Y-32468D01*
X39428Y-32677D02*
X39118Y-32677D01*
X41222Y-31748D02*
X41222Y-31907D01*
X41222Y-31572D02*
X41222Y-31748D01*
X40358Y-30708D02*
X41222Y-31572D01*
X40098Y-30708D02*
X40358Y-30708D01*
X41790Y-31745D02*
X41628Y-31907D01*
X41790Y-30708D02*
X41790Y-31745D01*
X41222Y-31907D02*
X41628Y-31907D01*
X45904Y-33951D02*
X45151Y-33199D01*
X46642Y-33951D02*
X45904Y-33951D01*
X45151Y-33199D02*
X43790Y-33199D01*
X43790Y-33199D02*
X43778Y-33187D01*
X43778Y-33187D02*
X43422Y-33187D01*
X46770Y-32513D02*
X46770Y-32341D01*
X46770Y-32513D02*
X46770Y-32341D01*
X46770Y-32513D02*
X46770Y-32513D01*
X46770Y-33719D02*
X46770Y-33719D01*
X46770Y-33719D02*
X46642Y-33719D01*
X46770Y-32685D02*
X46770Y-32513D01*
X46463Y-32992D02*
X46770Y-32685D01*
X46463Y-33669D02*
X46463Y-32992D01*
X46513Y-33719D02*
X46463Y-33669D01*
X46642Y-33719D02*
X46513Y-33719D01*
X46791Y-34645D02*
X46791Y-34270D01*
X46642Y-33719D02*
X46642Y-33951D01*
X46642Y-34121D02*
X46791Y-34270D01*
X46642Y-33951D02*
X46642Y-34121D01*
X44429Y-34042D02*
X43828Y-33442D01*
X44429Y-34270D02*
X44429Y-34042D01*
X44429Y-34458D02*
X44429Y-34270D01*
X45624Y-34458D02*
X45811Y-34645D01*
X44429Y-34458D02*
X45624Y-34458D01*
X46121Y-34645D02*
X45811Y-34645D01*
X43486Y-33442D02*
X43828Y-33442D01*
X43486Y-33442D02*
X43449Y-33442D01*
X44429Y-34645D02*
X44429Y-34458D01*
X43436Y-33442D02*
X43449Y-33442D01*
X43436Y-33442D02*
X43422Y-33442D01*
X41628Y-33043D02*
X41628Y-32927D01*
X42236Y-33651D02*
X41628Y-33043D01*
X42807Y-33651D02*
X42236Y-33651D01*
X43016Y-33442D02*
X42807Y-33651D01*
X43422Y-33442D02*
X43016Y-33442D01*
X41222Y-32927D02*
X41628Y-32927D01*
X40816Y-32787D02*
X40816Y-32927D01*
X40300Y-32271D02*
X40816Y-32787D01*
X40007Y-32271D02*
X40300Y-32271D01*
X39428Y-31692D02*
X40007Y-32271D01*
X41222Y-32927D02*
X40816Y-32927D01*
X41222Y-33437D02*
X41628Y-33437D01*
X42460Y-34645D02*
X42460Y-34270D01*
X42460Y-34269D02*
X41628Y-33437D01*
X42460Y-34270D02*
X42460Y-34269D01*
X43981Y-34270D02*
X42460Y-34270D01*
X44069Y-34358D02*
X43981Y-34270D01*
X44069Y-34896D02*
X44069Y-34358D01*
X44193Y-35020D02*
X44069Y-34896D01*
X45003Y-35020D02*
X44193Y-35020D01*
X45037Y-34986D02*
X45003Y-35020D01*
X45306Y-34986D02*
X45037Y-34986D01*
X45340Y-35020D02*
X45306Y-34986D01*
X47272Y-35020D02*
X45340Y-35020D01*
X47764Y-34528D02*
X47272Y-35020D01*
X39788Y-32926D02*
X39788Y-32677D01*
X39428Y-33286D02*
X39788Y-32926D01*
X39428Y-33661D02*
X39428Y-33286D01*
X40098Y-32677D02*
X39866Y-32677D01*
X39866Y-32677D02*
X39788Y-32677D01*
X42104Y-31941D02*
X41628Y-32417D01*
X42104Y-30418D02*
X42104Y-31941D01*
X42019Y-30333D02*
X42104Y-30418D01*
X39198Y-30333D02*
X42019Y-30333D01*
X39118Y-30412D02*
X39198Y-30333D01*
X39118Y-31980D02*
X39118Y-30412D01*
X39206Y-32068D02*
X39118Y-31980D01*
X39421Y-32068D02*
X39206Y-32068D01*
X39866Y-32512D02*
X39421Y-32068D01*
X39866Y-32677D02*
X39866Y-32512D01*
X41222Y-32417D02*
X41628Y-32417D01*
X48483Y-33661D02*
X48483Y-33726D01*
X48483Y-33726D02*
X48125Y-34084D01*
X48125Y-34084D02*
X47816Y-34084D01*
X47816Y-34084D02*
X47196Y-33464D01*
X47196Y-33464D02*
X46770Y-33464D01*
X48483Y-33661D02*
X48483Y-34036D01*
X49153Y-34645D02*
X49861Y-34645D01*
X48843Y-34396D02*
X48483Y-34036D01*
X48843Y-34645D02*
X48843Y-34396D01*
X49153Y-34645D02*
X48843Y-34645D01*
X49792Y-35312D02*
X45172Y-35312D01*
X50221Y-34883D02*
X49792Y-35312D01*
X50221Y-34645D02*
X50221Y-34883D01*
X50531Y-34645D02*
X50221Y-34645D01*
X45739Y-35676D02*
X45721Y-35694D01*
X46625Y-35676D02*
X45739Y-35676D01*
X47169Y-36220D02*
X46625Y-35676D01*
G54D10*
G36*
X45245Y-36226D02*
X45174Y-36296D01*
X45169Y-36291D01*
X45163Y-36296D01*
X45093Y-36226D01*
X45098Y-36220D01*
X44715Y-35837D01*
X44610Y-35876D01*
X44606Y-35888D01*
X44477Y-35759D01*
X44277Y-35677D01*
X44061Y-35676D01*
X43959Y-35719D01*
X43959Y-35069D01*
X44052Y-35162D01*
X44117Y-35205D01*
X44193Y-35220D01*
X44858Y-35220D01*
X44847Y-35247D01*
X44847Y-35376D01*
X44896Y-35495D01*
X44987Y-35587D01*
X44996Y-35590D01*
X44825Y-35661D01*
X44786Y-35766D01*
X45169Y-36149D01*
X45174Y-36144D01*
X45245Y-36214D01*
X45240Y-36220D01*
X45245Y-36226D01*
X45245Y-36226D01*
G37*
G54D19*
X45245Y-36226D02*
X45174Y-36296D01*
X45169Y-36291D01*
X45163Y-36296D01*
X45093Y-36226D01*
X45098Y-36220D01*
X44715Y-35837D01*
X44610Y-35876D01*
X44606Y-35888D01*
X44477Y-35759D01*
X44277Y-35677D01*
X44061Y-35676D01*
X43959Y-35719D01*
X43959Y-35069D01*
X44052Y-35162D01*
X44117Y-35205D01*
X44193Y-35220D01*
X44858Y-35220D01*
X44847Y-35247D01*
X44847Y-35376D01*
X44896Y-35495D01*
X44987Y-35587D01*
X44996Y-35590D01*
X44825Y-35661D01*
X44786Y-35766D01*
X45169Y-36149D01*
X45174Y-36144D01*
X45245Y-36214D01*
X45240Y-36220D01*
X45245Y-36226D01*
G54D10*
G36*
X46133Y-31083D02*
X45692Y-31525D01*
X45648Y-31590D01*
X45633Y-31666D01*
X45633Y-31998D01*
X45648Y-32074D01*
X45692Y-32139D01*
X45780Y-32228D01*
X45835Y-32264D01*
X45835Y-32292D01*
X45835Y-32449D01*
X45858Y-32505D01*
X45866Y-32513D01*
X45694Y-32685D01*
X45672Y-32718D01*
X45651Y-32750D01*
X45651Y-32750D01*
X45651Y-32750D01*
X45643Y-32789D01*
X45635Y-32827D01*
X45635Y-32827D01*
X45635Y-33400D01*
X45293Y-33057D01*
X45228Y-33014D01*
X45151Y-32999D01*
X43903Y-32999D01*
X43866Y-32961D01*
X43472Y-32961D01*
X43472Y-32978D01*
X43372Y-32978D01*
X43372Y-32961D01*
X42979Y-32961D01*
X42916Y-33024D01*
X42916Y-33040D01*
X42954Y-33132D01*
X43016Y-33194D01*
X43016Y-33242D01*
X43016Y-33242D01*
X42940Y-33257D01*
X42875Y-33300D01*
X42743Y-33432D01*
X42782Y-33338D01*
X42782Y-33189D01*
X42725Y-33051D01*
X42655Y-32981D01*
X42669Y-32975D01*
X42767Y-32877D01*
X42907Y-32877D01*
X42907Y-32877D01*
X42912Y-32880D01*
X42912Y-32880D01*
X42968Y-32891D01*
X42979Y-32902D01*
X43372Y-32902D01*
X43372Y-32897D01*
X43422Y-32897D01*
X43472Y-32887D01*
X43472Y-32902D01*
X43866Y-32902D01*
X43928Y-32840D01*
X43928Y-32823D01*
X43890Y-32731D01*
X43833Y-32674D01*
X43890Y-32617D01*
X43928Y-32525D01*
X43928Y-32509D01*
X43866Y-32446D01*
X43472Y-32446D01*
X43472Y-32467D01*
X43422Y-32457D01*
X43372Y-32457D01*
X43372Y-32446D01*
X43024Y-32446D01*
X42976Y-32437D01*
X42767Y-32437D01*
X42669Y-32339D01*
X42531Y-32282D01*
X42382Y-32282D01*
X42244Y-32339D01*
X42139Y-32444D01*
X42082Y-32582D01*
X42082Y-32627D01*
X41976Y-32521D01*
X41905Y-32473D01*
X41863Y-32465D01*
X42246Y-32082D01*
X42289Y-32018D01*
X42304Y-31941D01*
X42304Y-31083D01*
X42330Y-31083D01*
X42650Y-31083D01*
X42705Y-31060D01*
X42748Y-31018D01*
X42770Y-30963D01*
X42770Y-30908D01*
X42816Y-30908D01*
X42816Y-32162D01*
X42831Y-32238D01*
X42875Y-32303D01*
X42935Y-32343D01*
X42979Y-32387D01*
X43372Y-32387D01*
X43372Y-32371D01*
X43472Y-32371D01*
X43472Y-32387D01*
X43866Y-32387D01*
X43928Y-32325D01*
X43928Y-32308D01*
X43890Y-32216D01*
X43828Y-32154D01*
X43828Y-32107D01*
X43828Y-32107D01*
X43905Y-32091D01*
X43970Y-32048D01*
X44570Y-31448D01*
X44570Y-31448D01*
X44614Y-31383D01*
X44614Y-31383D01*
X44616Y-31370D01*
X44629Y-31306D01*
X44629Y-31306D01*
X44629Y-31083D01*
X44629Y-31079D01*
X44674Y-31060D01*
X44716Y-31018D01*
X44739Y-30963D01*
X44739Y-30908D01*
X45811Y-30908D01*
X45811Y-30908D01*
X45811Y-30963D01*
X45834Y-31018D01*
X45876Y-31060D01*
X45931Y-31083D01*
X45991Y-31083D01*
X46133Y-31083D01*
X46133Y-31083D01*
G37*
G54D19*
X46133Y-31083D02*
X45692Y-31525D01*
X45648Y-31590D01*
X45633Y-31666D01*
X45633Y-31998D01*
X45648Y-32074D01*
X45692Y-32139D01*
X45780Y-32228D01*
X45835Y-32264D01*
X45835Y-32292D01*
X45835Y-32449D01*
X45858Y-32505D01*
X45866Y-32513D01*
X45694Y-32685D01*
X45672Y-32718D01*
X45651Y-32750D01*
X45651Y-32750D01*
X45651Y-32750D01*
X45643Y-32789D01*
X45635Y-32827D01*
X45635Y-32827D01*
X45635Y-33400D01*
X45293Y-33057D01*
X45228Y-33014D01*
X45151Y-32999D01*
X43903Y-32999D01*
X43866Y-32961D01*
X43472Y-32961D01*
X43472Y-32978D01*
X43372Y-32978D01*
X43372Y-32961D01*
X42979Y-32961D01*
X42916Y-33024D01*
X42916Y-33040D01*
X42954Y-33132D01*
X43016Y-33194D01*
X43016Y-33242D01*
X43016Y-33242D01*
X42940Y-33257D01*
X42875Y-33300D01*
X42743Y-33432D01*
X42782Y-33338D01*
X42782Y-33189D01*
X42725Y-33051D01*
X42655Y-32981D01*
X42669Y-32975D01*
X42767Y-32877D01*
X42907Y-32877D01*
X42907Y-32877D01*
X42912Y-32880D01*
X42912Y-32880D01*
X42968Y-32891D01*
X42979Y-32902D01*
X43372Y-32902D01*
X43372Y-32897D01*
X43422Y-32897D01*
X43472Y-32887D01*
X43472Y-32902D01*
X43866Y-32902D01*
X43928Y-32840D01*
X43928Y-32823D01*
X43890Y-32731D01*
X43833Y-32674D01*
X43890Y-32617D01*
X43928Y-32525D01*
X43928Y-32509D01*
X43866Y-32446D01*
X43472Y-32446D01*
X43472Y-32467D01*
X43422Y-32457D01*
X43372Y-32457D01*
X43372Y-32446D01*
X43024Y-32446D01*
X42976Y-32437D01*
X42767Y-32437D01*
X42669Y-32339D01*
X42531Y-32282D01*
X42382Y-32282D01*
X42244Y-32339D01*
X42139Y-32444D01*
X42082Y-32582D01*
X42082Y-32627D01*
X41976Y-32521D01*
X41905Y-32473D01*
X41863Y-32465D01*
X42246Y-32082D01*
X42289Y-32018D01*
X42304Y-31941D01*
X42304Y-31083D01*
X42330Y-31083D01*
X42650Y-31083D01*
X42705Y-31060D01*
X42748Y-31018D01*
X42770Y-30963D01*
X42770Y-30908D01*
X42816Y-30908D01*
X42816Y-32162D01*
X42831Y-32238D01*
X42875Y-32303D01*
X42935Y-32343D01*
X42979Y-32387D01*
X43372Y-32387D01*
X43372Y-32371D01*
X43472Y-32371D01*
X43472Y-32387D01*
X43866Y-32387D01*
X43928Y-32325D01*
X43928Y-32308D01*
X43890Y-32216D01*
X43828Y-32154D01*
X43828Y-32107D01*
X43828Y-32107D01*
X43905Y-32091D01*
X43970Y-32048D01*
X44570Y-31448D01*
X44570Y-31448D01*
X44614Y-31383D01*
X44614Y-31383D01*
X44616Y-31370D01*
X44629Y-31306D01*
X44629Y-31306D01*
X44629Y-31083D01*
X44629Y-31079D01*
X44674Y-31060D01*
X44716Y-31018D01*
X44739Y-30963D01*
X44739Y-30908D01*
X45811Y-30908D01*
X45811Y-30908D01*
X45811Y-30963D01*
X45834Y-31018D01*
X45876Y-31060D01*
X45931Y-31083D01*
X45991Y-31083D01*
X46133Y-31083D01*
G54D10*
G36*
X46539Y-34300D02*
X46504Y-34335D01*
X46481Y-34390D01*
X46481Y-34450D01*
X46481Y-34820D01*
X46431Y-34820D01*
X46431Y-34390D01*
X46408Y-34335D01*
X46366Y-34293D01*
X46311Y-34270D01*
X46251Y-34270D01*
X45931Y-34270D01*
X45876Y-34293D01*
X45834Y-34335D01*
X45819Y-34371D01*
X45765Y-34316D01*
X45700Y-34273D01*
X45624Y-34258D01*
X44629Y-34258D01*
X44629Y-34042D01*
X44616Y-33978D01*
X44614Y-33966D01*
X44614Y-33966D01*
X44570Y-33901D01*
X44570Y-33901D01*
X44068Y-33399D01*
X45068Y-33399D01*
X45762Y-34092D01*
X45827Y-34136D01*
X45904Y-34151D01*
X46448Y-34151D01*
X46457Y-34197D01*
X46500Y-34262D01*
X46539Y-34300D01*
X46539Y-34300D01*
G37*
G54D19*
X46539Y-34300D02*
X46504Y-34335D01*
X46481Y-34390D01*
X46481Y-34450D01*
X46481Y-34820D01*
X46431Y-34820D01*
X46431Y-34390D01*
X46408Y-34335D01*
X46366Y-34293D01*
X46311Y-34270D01*
X46251Y-34270D01*
X45931Y-34270D01*
X45876Y-34293D01*
X45834Y-34335D01*
X45819Y-34371D01*
X45765Y-34316D01*
X45700Y-34273D01*
X45624Y-34258D01*
X44629Y-34258D01*
X44629Y-34042D01*
X44616Y-33978D01*
X44614Y-33966D01*
X44614Y-33966D01*
X44570Y-33901D01*
X44570Y-33901D01*
X44068Y-33399D01*
X45068Y-33399D01*
X45762Y-34092D01*
X45827Y-34136D01*
X45904Y-34151D01*
X46448Y-34151D01*
X46457Y-34197D01*
X46500Y-34262D01*
X46539Y-34300D01*
G54D10*
G36*
X48541Y-34695D02*
X48533Y-34695D01*
X48533Y-34703D01*
X48433Y-34703D01*
X48433Y-34695D01*
X48136Y-34695D01*
X48073Y-34758D01*
X48073Y-34820D01*
X48073Y-34920D01*
X48111Y-35012D01*
X48182Y-35082D01*
X48253Y-35112D01*
X47463Y-35112D01*
X47722Y-34853D01*
X47828Y-34853D01*
X47948Y-34804D01*
X48039Y-34713D01*
X48089Y-34593D01*
X48089Y-34548D01*
X48136Y-34595D01*
X48433Y-34595D01*
X48433Y-34587D01*
X48533Y-34587D01*
X48533Y-34595D01*
X48541Y-34595D01*
X48541Y-34695D01*
X48541Y-34695D01*
G37*
G54D19*
X48541Y-34695D02*
X48533Y-34695D01*
X48533Y-34703D01*
X48433Y-34703D01*
X48433Y-34695D01*
X48136Y-34695D01*
X48073Y-34758D01*
X48073Y-34820D01*
X48073Y-34920D01*
X48111Y-35012D01*
X48182Y-35082D01*
X48253Y-35112D01*
X47463Y-35112D01*
X47722Y-34853D01*
X47828Y-34853D01*
X47948Y-34804D01*
X48039Y-34713D01*
X48089Y-34593D01*
X48089Y-34548D01*
X48136Y-34595D01*
X48433Y-34595D01*
X48433Y-34587D01*
X48533Y-34587D01*
X48533Y-34595D01*
X48541Y-34595D01*
X48541Y-34695D01*
G54D10*
G36*
X48643Y-33286D02*
X48614Y-33286D01*
X48294Y-33286D01*
X48238Y-33309D01*
X48196Y-33351D01*
X48173Y-33406D01*
X48173Y-33466D01*
X48173Y-33753D01*
X48042Y-33884D01*
X47899Y-33884D01*
X47337Y-33323D01*
X47272Y-33279D01*
X47196Y-33264D01*
X47177Y-33264D01*
X47130Y-33264D01*
X47115Y-33248D01*
X46988Y-33248D01*
X46957Y-33236D01*
X46897Y-33236D01*
X46712Y-33236D01*
X46712Y-33170D01*
X46720Y-33170D01*
X46720Y-33151D01*
X46820Y-33151D01*
X46820Y-33170D01*
X47115Y-33170D01*
X47177Y-33107D01*
X47177Y-33081D01*
X47139Y-32989D01*
X47069Y-32919D01*
X46977Y-32881D01*
X46883Y-32881D01*
X46820Y-32943D01*
X46820Y-32918D01*
X46912Y-32827D01*
X46912Y-32827D01*
X46912Y-32827D01*
X46933Y-32795D01*
X46955Y-32762D01*
X46955Y-32762D01*
X46955Y-32762D01*
X46963Y-32724D01*
X46970Y-32685D01*
X46970Y-32685D01*
X46970Y-32685D01*
X46970Y-32564D01*
X47012Y-32547D01*
X47054Y-32505D01*
X47077Y-32449D01*
X47077Y-32390D01*
X47077Y-32368D01*
X47139Y-32306D01*
X47177Y-32214D01*
X47177Y-32188D01*
X47115Y-32125D01*
X46988Y-32125D01*
X46957Y-32113D01*
X46897Y-32113D01*
X46712Y-32113D01*
X46712Y-32060D01*
X46957Y-32060D01*
X46988Y-32047D01*
X47115Y-32047D01*
X47177Y-31984D01*
X47177Y-31958D01*
X47150Y-31892D01*
X48173Y-31892D01*
X48173Y-31947D01*
X48196Y-32002D01*
X48238Y-32045D01*
X48283Y-32063D01*
X48283Y-32306D01*
X48238Y-32325D01*
X48196Y-32367D01*
X48173Y-32422D01*
X48173Y-32482D01*
X48173Y-32932D01*
X48196Y-32987D01*
X48238Y-33029D01*
X48294Y-33052D01*
X48353Y-33052D01*
X48643Y-33052D01*
X48643Y-33286D01*
X48643Y-33286D01*
G37*
G54D19*
X48643Y-33286D02*
X48614Y-33286D01*
X48294Y-33286D01*
X48238Y-33309D01*
X48196Y-33351D01*
X48173Y-33406D01*
X48173Y-33466D01*
X48173Y-33753D01*
X48042Y-33884D01*
X47899Y-33884D01*
X47337Y-33323D01*
X47272Y-33279D01*
X47196Y-33264D01*
X47177Y-33264D01*
X47130Y-33264D01*
X47115Y-33248D01*
X46988Y-33248D01*
X46957Y-33236D01*
X46897Y-33236D01*
X46712Y-33236D01*
X46712Y-33170D01*
X46720Y-33170D01*
X46720Y-33151D01*
X46820Y-33151D01*
X46820Y-33170D01*
X47115Y-33170D01*
X47177Y-33107D01*
X47177Y-33081D01*
X47139Y-32989D01*
X47069Y-32919D01*
X46977Y-32881D01*
X46883Y-32881D01*
X46820Y-32943D01*
X46820Y-32918D01*
X46912Y-32827D01*
X46912Y-32827D01*
X46912Y-32827D01*
X46933Y-32795D01*
X46955Y-32762D01*
X46955Y-32762D01*
X46955Y-32762D01*
X46963Y-32724D01*
X46970Y-32685D01*
X46970Y-32685D01*
X46970Y-32685D01*
X46970Y-32564D01*
X47012Y-32547D01*
X47054Y-32505D01*
X47077Y-32449D01*
X47077Y-32390D01*
X47077Y-32368D01*
X47139Y-32306D01*
X47177Y-32214D01*
X47177Y-32188D01*
X47115Y-32125D01*
X46988Y-32125D01*
X46957Y-32113D01*
X46897Y-32113D01*
X46712Y-32113D01*
X46712Y-32060D01*
X46957Y-32060D01*
X46988Y-32047D01*
X47115Y-32047D01*
X47177Y-31984D01*
X47177Y-31958D01*
X47150Y-31892D01*
X48173Y-31892D01*
X48173Y-31947D01*
X48196Y-32002D01*
X48238Y-32045D01*
X48283Y-32063D01*
X48283Y-32306D01*
X48238Y-32325D01*
X48196Y-32367D01*
X48173Y-32422D01*
X48173Y-32482D01*
X48173Y-32932D01*
X48196Y-32987D01*
X48238Y-33029D01*
X48294Y-33052D01*
X48353Y-33052D01*
X48643Y-33052D01*
X48643Y-33286D01*
G54D10*
G36*
X49594Y-35512D02*
X49385Y-35721D01*
X49277Y-35677D01*
X49061Y-35676D01*
X48861Y-35759D01*
X48732Y-35888D01*
X48727Y-35876D01*
X48622Y-35837D01*
X48552Y-35908D01*
X48552Y-35766D01*
X48513Y-35661D01*
X48273Y-35572D01*
X48017Y-35582D01*
X47825Y-35661D01*
X47786Y-35766D01*
X48169Y-36149D01*
X48552Y-35766D01*
X48552Y-35908D01*
X48240Y-36220D01*
X48245Y-36226D01*
X48174Y-36296D01*
X48169Y-36291D01*
X48163Y-36296D01*
X48093Y-36226D01*
X48098Y-36220D01*
X47715Y-35837D01*
X47610Y-35876D01*
X47606Y-35888D01*
X47477Y-35759D01*
X47277Y-35677D01*
X47061Y-35676D01*
X46953Y-35721D01*
X46767Y-35535D01*
X46732Y-35512D01*
X49594Y-35512D01*
X49594Y-35512D01*
G37*
G54D19*
X49594Y-35512D02*
X49385Y-35721D01*
X49277Y-35677D01*
X49061Y-35676D01*
X48861Y-35759D01*
X48732Y-35888D01*
X48727Y-35876D01*
X48622Y-35837D01*
X48552Y-35908D01*
X48552Y-35766D01*
X48513Y-35661D01*
X48273Y-35572D01*
X48017Y-35582D01*
X47825Y-35661D01*
X47786Y-35766D01*
X48169Y-36149D01*
X48552Y-35766D01*
X48552Y-35908D01*
X48240Y-36220D01*
X48245Y-36226D01*
X48174Y-36296D01*
X48169Y-36291D01*
X48163Y-36296D01*
X48093Y-36226D01*
X48098Y-36220D01*
X47715Y-35837D01*
X47610Y-35876D01*
X47606Y-35888D01*
X47477Y-35759D01*
X47277Y-35677D01*
X47061Y-35676D01*
X46953Y-35721D01*
X46767Y-35535D01*
X46732Y-35512D01*
X49594Y-35512D01*
G54D10*
G36*
X52192Y-37035D02*
X39378Y-37035D01*
X39378Y-35058D01*
X39378Y-34695D01*
X39378Y-34595D01*
X39378Y-34233D01*
X39316Y-34170D01*
X39219Y-34170D01*
X39127Y-34208D01*
X39056Y-34279D01*
X39018Y-34370D01*
X39018Y-34470D01*
X39018Y-34533D01*
X39081Y-34595D01*
X39378Y-34595D01*
X39378Y-34695D01*
X39081Y-34695D01*
X39018Y-34758D01*
X39018Y-34820D01*
X39018Y-34920D01*
X39056Y-35012D01*
X39127Y-35082D01*
X39219Y-35120D01*
X39316Y-35120D01*
X39378Y-35058D01*
X39378Y-37035D01*
X38752Y-37035D01*
X38752Y-32585D01*
X38768Y-32610D01*
X38977Y-32818D01*
X39042Y-32861D01*
X39118Y-32877D01*
X39118Y-32877D01*
X39118Y-32932D01*
X39141Y-32987D01*
X39183Y-33029D01*
X39238Y-33052D01*
X39298Y-33052D01*
X39380Y-33052D01*
X39287Y-33144D01*
X39244Y-33209D01*
X39228Y-33286D01*
X39228Y-33290D01*
X39183Y-33309D01*
X39141Y-33351D01*
X39118Y-33406D01*
X39118Y-33466D01*
X39118Y-33916D01*
X39141Y-33971D01*
X39183Y-34013D01*
X39238Y-34036D01*
X39298Y-34036D01*
X39618Y-34036D01*
X39673Y-34013D01*
X39707Y-33980D01*
X39726Y-34028D01*
X39797Y-34098D01*
X39889Y-34136D01*
X39986Y-34136D01*
X40048Y-34073D01*
X40048Y-33711D01*
X40040Y-33711D01*
X40040Y-33611D01*
X40048Y-33611D01*
X40048Y-33248D01*
X39986Y-33186D01*
X39889Y-33186D01*
X39797Y-33224D01*
X39726Y-33294D01*
X39707Y-33342D01*
X39681Y-33316D01*
X39930Y-33067D01*
X39930Y-33067D01*
X39940Y-33052D01*
X39940Y-33052D01*
X39968Y-33052D01*
X40288Y-33052D01*
X40343Y-33029D01*
X40385Y-32987D01*
X40408Y-32932D01*
X40408Y-32872D01*
X40408Y-32662D01*
X40616Y-32870D01*
X40616Y-32927D01*
X40631Y-33003D01*
X40666Y-33054D01*
X40640Y-33080D01*
X40597Y-33145D01*
X40582Y-33221D01*
X40582Y-34189D01*
X40508Y-34262D01*
X40508Y-33936D01*
X40508Y-33836D01*
X40508Y-33773D01*
X40508Y-33548D01*
X40508Y-33486D01*
X40508Y-33386D01*
X40470Y-33294D01*
X40400Y-33224D01*
X40308Y-33186D01*
X40211Y-33186D01*
X40148Y-33248D01*
X40148Y-33611D01*
X40446Y-33611D01*
X40508Y-33548D01*
X40508Y-33773D01*
X40446Y-33711D01*
X40148Y-33711D01*
X40148Y-34073D01*
X40211Y-34136D01*
X40308Y-34136D01*
X40400Y-34098D01*
X40470Y-34028D01*
X40508Y-33936D01*
X40508Y-34262D01*
X40400Y-34371D01*
X40385Y-34335D01*
X40343Y-34293D01*
X40288Y-34270D01*
X40228Y-34270D01*
X39908Y-34270D01*
X39853Y-34293D01*
X39820Y-34326D01*
X39800Y-34279D01*
X39730Y-34208D01*
X39638Y-34170D01*
X39541Y-34170D01*
X39478Y-34233D01*
X39478Y-34595D01*
X39486Y-34595D01*
X39486Y-34695D01*
X39478Y-34695D01*
X39478Y-35058D01*
X39541Y-35120D01*
X39638Y-35120D01*
X39730Y-35082D01*
X39800Y-35012D01*
X39820Y-34964D01*
X39853Y-34997D01*
X39908Y-35020D01*
X39968Y-35020D01*
X40288Y-35020D01*
X40343Y-34997D01*
X40385Y-34955D01*
X40408Y-34900D01*
X40408Y-34845D01*
X40408Y-34845D01*
X40485Y-34830D01*
X40550Y-34787D01*
X40782Y-34555D01*
X41014Y-34787D01*
X41079Y-34830D01*
X41155Y-34845D01*
X41480Y-34845D01*
X41480Y-34900D01*
X41503Y-34955D01*
X41546Y-34997D01*
X41601Y-35020D01*
X41660Y-35020D01*
X41980Y-35020D01*
X42035Y-34997D01*
X42078Y-34955D01*
X42100Y-34900D01*
X42100Y-34840D01*
X42100Y-34390D01*
X42078Y-34335D01*
X42035Y-34293D01*
X41980Y-34270D01*
X41921Y-34270D01*
X41601Y-34270D01*
X41546Y-34293D01*
X41503Y-34335D01*
X41480Y-34390D01*
X41480Y-34445D01*
X41238Y-34445D01*
X40982Y-34189D01*
X40982Y-33646D01*
X40996Y-33646D01*
X41508Y-33646D01*
X41530Y-33637D01*
X41546Y-33637D01*
X42209Y-34300D01*
X42173Y-34335D01*
X42150Y-34390D01*
X42150Y-34450D01*
X42150Y-34900D01*
X42173Y-34955D01*
X42216Y-34997D01*
X42271Y-35020D01*
X42330Y-35020D01*
X42650Y-35020D01*
X42705Y-34997D01*
X42748Y-34955D01*
X42770Y-34900D01*
X42770Y-34840D01*
X42770Y-34470D01*
X43449Y-34470D01*
X43449Y-34900D01*
X43472Y-34955D01*
X43514Y-34997D01*
X43559Y-35016D01*
X43559Y-35020D01*
X43559Y-35810D01*
X43567Y-35849D01*
X43477Y-35759D01*
X43277Y-35677D01*
X43061Y-35676D01*
X42861Y-35759D01*
X42708Y-35912D01*
X42669Y-36007D01*
X42630Y-35913D01*
X42477Y-35759D01*
X42277Y-35677D01*
X42061Y-35676D01*
X41861Y-35759D01*
X41712Y-35908D01*
X41712Y-35797D01*
X41689Y-35742D01*
X41647Y-35699D01*
X41592Y-35676D01*
X41532Y-35676D01*
X40745Y-35676D01*
X40690Y-35699D01*
X40648Y-35742D01*
X40625Y-35797D01*
X40625Y-35856D01*
X40625Y-36643D01*
X40648Y-36698D01*
X40690Y-36741D01*
X40745Y-36763D01*
X40805Y-36763D01*
X41592Y-36763D01*
X41647Y-36741D01*
X41689Y-36698D01*
X41712Y-36643D01*
X41712Y-36584D01*
X41712Y-36532D01*
X41861Y-36680D01*
X42060Y-36763D01*
X42276Y-36764D01*
X42476Y-36681D01*
X42629Y-36528D01*
X42669Y-36433D01*
X42708Y-36527D01*
X42861Y-36680D01*
X43060Y-36763D01*
X43276Y-36764D01*
X43365Y-36727D01*
X43581Y-36943D01*
X43653Y-36991D01*
X43653Y-36991D01*
X43737Y-37008D01*
X50415Y-37008D01*
X50499Y-36991D01*
X50499Y-36991D01*
X50570Y-36943D01*
X51230Y-36283D01*
X51278Y-36212D01*
X51278Y-36212D01*
X51295Y-36128D01*
X51295Y-34227D01*
X51278Y-34143D01*
X51278Y-34143D01*
X51230Y-34072D01*
X50492Y-33333D01*
X50492Y-32285D01*
X50590Y-32187D01*
X50647Y-32050D01*
X50647Y-31900D01*
X50590Y-31763D01*
X50485Y-31657D01*
X50347Y-31600D01*
X50208Y-31600D01*
X49704Y-31095D01*
X49704Y-30708D01*
X49687Y-30624D01*
X49639Y-30553D01*
X49568Y-30505D01*
X49484Y-30488D01*
X49463Y-30488D01*
X49463Y-30453D01*
X49441Y-30398D01*
X49398Y-30356D01*
X49343Y-30333D01*
X49284Y-30333D01*
X48964Y-30333D01*
X48908Y-30356D01*
X48866Y-30398D01*
X48843Y-30453D01*
X48843Y-30513D01*
X48843Y-30963D01*
X48866Y-31018D01*
X48908Y-31060D01*
X48964Y-31083D01*
X49023Y-31083D01*
X49264Y-31083D01*
X49264Y-31186D01*
X49270Y-31217D01*
X49266Y-31217D01*
X49203Y-31280D01*
X49203Y-31642D01*
X49501Y-31642D01*
X49563Y-31580D01*
X49563Y-31577D01*
X49897Y-31911D01*
X49897Y-32049D01*
X49954Y-32187D01*
X50052Y-32285D01*
X50052Y-33205D01*
X49720Y-33205D01*
X49636Y-33221D01*
X49564Y-33269D01*
X49563Y-33270D01*
X49563Y-31967D01*
X49563Y-31868D01*
X49563Y-31805D01*
X49501Y-31742D01*
X49203Y-31742D01*
X49203Y-32105D01*
X49266Y-32167D01*
X49363Y-32167D01*
X49455Y-32129D01*
X49525Y-32059D01*
X49563Y-31967D01*
X49563Y-33270D01*
X49453Y-33381D01*
X49441Y-33351D01*
X49398Y-33309D01*
X49343Y-33286D01*
X49284Y-33286D01*
X49043Y-33286D01*
X49043Y-33052D01*
X49343Y-33052D01*
X49398Y-33029D01*
X49441Y-32987D01*
X49463Y-32932D01*
X49463Y-32872D01*
X49463Y-32422D01*
X49441Y-32367D01*
X49398Y-32325D01*
X49343Y-32302D01*
X49284Y-32302D01*
X48964Y-32302D01*
X48908Y-32325D01*
X48866Y-32367D01*
X48843Y-32422D01*
X48843Y-32477D01*
X48843Y-32477D01*
X48793Y-32487D01*
X48793Y-32422D01*
X48771Y-32367D01*
X48728Y-32325D01*
X48683Y-32306D01*
X48683Y-32063D01*
X48728Y-32045D01*
X48762Y-32011D01*
X48781Y-32059D01*
X48852Y-32129D01*
X48944Y-32167D01*
X49041Y-32167D01*
X49103Y-32105D01*
X49103Y-31742D01*
X49096Y-31742D01*
X49096Y-31642D01*
X49103Y-31642D01*
X49103Y-31280D01*
X49041Y-31217D01*
X48944Y-31217D01*
X48852Y-31255D01*
X48781Y-31326D01*
X48762Y-31374D01*
X48728Y-31340D01*
X48683Y-31322D01*
X48683Y-31079D01*
X48728Y-31060D01*
X48771Y-31018D01*
X48793Y-30963D01*
X48793Y-30903D01*
X48793Y-30453D01*
X48771Y-30398D01*
X48728Y-30356D01*
X48673Y-30333D01*
X48614Y-30333D01*
X48294Y-30333D01*
X48238Y-30356D01*
X48196Y-30398D01*
X48173Y-30453D01*
X48173Y-30513D01*
X48173Y-30963D01*
X48196Y-31018D01*
X48238Y-31060D01*
X48283Y-31079D01*
X48283Y-31322D01*
X48238Y-31340D01*
X48196Y-31382D01*
X48173Y-31438D01*
X48173Y-31492D01*
X46909Y-31492D01*
X46888Y-31497D01*
X47243Y-31142D01*
X47243Y-31142D01*
X47286Y-31077D01*
X47301Y-31000D01*
X47301Y-30401D01*
X47289Y-30337D01*
X47286Y-30324D01*
X47286Y-30324D01*
X47243Y-30259D01*
X47157Y-30173D01*
X47092Y-30130D01*
X47016Y-30115D01*
X44240Y-30115D01*
X44240Y-30006D01*
X44190Y-29887D01*
X44099Y-29795D01*
X43980Y-29746D01*
X43850Y-29746D01*
X43731Y-29795D01*
X43655Y-29871D01*
X39170Y-29871D01*
X39106Y-29883D01*
X39093Y-29886D01*
X39028Y-29929D01*
X38768Y-30189D01*
X38752Y-30214D01*
X38752Y-29500D01*
X52192Y-29500D01*
X52192Y-37035D01*
X52192Y-37035D01*
G37*
G54D19*
X52192Y-37035D02*
X39378Y-37035D01*
X39378Y-35058D01*
X39378Y-34695D01*
X39378Y-34595D01*
X39378Y-34233D01*
X39316Y-34170D01*
X39219Y-34170D01*
X39127Y-34208D01*
X39056Y-34279D01*
X39018Y-34370D01*
X39018Y-34470D01*
X39018Y-34533D01*
X39081Y-34595D01*
X39378Y-34595D01*
X39378Y-34695D01*
X39081Y-34695D01*
X39018Y-34758D01*
X39018Y-34820D01*
X39018Y-34920D01*
X39056Y-35012D01*
X39127Y-35082D01*
X39219Y-35120D01*
X39316Y-35120D01*
X39378Y-35058D01*
X39378Y-37035D01*
X38752Y-37035D01*
X38752Y-32585D01*
X38768Y-32610D01*
X38977Y-32818D01*
X39042Y-32861D01*
X39118Y-32877D01*
X39118Y-32877D01*
X39118Y-32932D01*
X39141Y-32987D01*
X39183Y-33029D01*
X39238Y-33052D01*
X39298Y-33052D01*
X39380Y-33052D01*
X39287Y-33144D01*
X39244Y-33209D01*
X39228Y-33286D01*
X39228Y-33290D01*
X39183Y-33309D01*
X39141Y-33351D01*
X39118Y-33406D01*
X39118Y-33466D01*
X39118Y-33916D01*
X39141Y-33971D01*
X39183Y-34013D01*
X39238Y-34036D01*
X39298Y-34036D01*
X39618Y-34036D01*
X39673Y-34013D01*
X39707Y-33980D01*
X39726Y-34028D01*
X39797Y-34098D01*
X39889Y-34136D01*
X39986Y-34136D01*
X40048Y-34073D01*
X40048Y-33711D01*
X40040Y-33711D01*
X40040Y-33611D01*
X40048Y-33611D01*
X40048Y-33248D01*
X39986Y-33186D01*
X39889Y-33186D01*
X39797Y-33224D01*
X39726Y-33294D01*
X39707Y-33342D01*
X39681Y-33316D01*
X39930Y-33067D01*
X39930Y-33067D01*
X39940Y-33052D01*
X39940Y-33052D01*
X39968Y-33052D01*
X40288Y-33052D01*
X40343Y-33029D01*
X40385Y-32987D01*
X40408Y-32932D01*
X40408Y-32872D01*
X40408Y-32662D01*
X40616Y-32870D01*
X40616Y-32927D01*
X40631Y-33003D01*
X40666Y-33054D01*
X40640Y-33080D01*
X40597Y-33145D01*
X40582Y-33221D01*
X40582Y-34189D01*
X40508Y-34262D01*
X40508Y-33936D01*
X40508Y-33836D01*
X40508Y-33773D01*
X40508Y-33548D01*
X40508Y-33486D01*
X40508Y-33386D01*
X40470Y-33294D01*
X40400Y-33224D01*
X40308Y-33186D01*
X40211Y-33186D01*
X40148Y-33248D01*
X40148Y-33611D01*
X40446Y-33611D01*
X40508Y-33548D01*
X40508Y-33773D01*
X40446Y-33711D01*
X40148Y-33711D01*
X40148Y-34073D01*
X40211Y-34136D01*
X40308Y-34136D01*
X40400Y-34098D01*
X40470Y-34028D01*
X40508Y-33936D01*
X40508Y-34262D01*
X40400Y-34371D01*
X40385Y-34335D01*
X40343Y-34293D01*
X40288Y-34270D01*
X40228Y-34270D01*
X39908Y-34270D01*
X39853Y-34293D01*
X39820Y-34326D01*
X39800Y-34279D01*
X39730Y-34208D01*
X39638Y-34170D01*
X39541Y-34170D01*
X39478Y-34233D01*
X39478Y-34595D01*
X39486Y-34595D01*
X39486Y-34695D01*
X39478Y-34695D01*
X39478Y-35058D01*
X39541Y-35120D01*
X39638Y-35120D01*
X39730Y-35082D01*
X39800Y-35012D01*
X39820Y-34964D01*
X39853Y-34997D01*
X39908Y-35020D01*
X39968Y-35020D01*
X40288Y-35020D01*
X40343Y-34997D01*
X40385Y-34955D01*
X40408Y-34900D01*
X40408Y-34845D01*
X40408Y-34845D01*
X40485Y-34830D01*
X40550Y-34787D01*
X40782Y-34555D01*
X41014Y-34787D01*
X41079Y-34830D01*
X41155Y-34845D01*
X41480Y-34845D01*
X41480Y-34900D01*
X41503Y-34955D01*
X41546Y-34997D01*
X41601Y-35020D01*
X41660Y-35020D01*
X41980Y-35020D01*
X42035Y-34997D01*
X42078Y-34955D01*
X42100Y-34900D01*
X42100Y-34840D01*
X42100Y-34390D01*
X42078Y-34335D01*
X42035Y-34293D01*
X41980Y-34270D01*
X41921Y-34270D01*
X41601Y-34270D01*
X41546Y-34293D01*
X41503Y-34335D01*
X41480Y-34390D01*
X41480Y-34445D01*
X41238Y-34445D01*
X40982Y-34189D01*
X40982Y-33646D01*
X40996Y-33646D01*
X41508Y-33646D01*
X41530Y-33637D01*
X41546Y-33637D01*
X42209Y-34300D01*
X42173Y-34335D01*
X42150Y-34390D01*
X42150Y-34450D01*
X42150Y-34900D01*
X42173Y-34955D01*
X42216Y-34997D01*
X42271Y-35020D01*
X42330Y-35020D01*
X42650Y-35020D01*
X42705Y-34997D01*
X42748Y-34955D01*
X42770Y-34900D01*
X42770Y-34840D01*
X42770Y-34470D01*
X43449Y-34470D01*
X43449Y-34900D01*
X43472Y-34955D01*
X43514Y-34997D01*
X43559Y-35016D01*
X43559Y-35020D01*
X43559Y-35810D01*
X43567Y-35849D01*
X43477Y-35759D01*
X43277Y-35677D01*
X43061Y-35676D01*
X42861Y-35759D01*
X42708Y-35912D01*
X42669Y-36007D01*
X42630Y-35913D01*
X42477Y-35759D01*
X42277Y-35677D01*
X42061Y-35676D01*
X41861Y-35759D01*
X41712Y-35908D01*
X41712Y-35797D01*
X41689Y-35742D01*
X41647Y-35699D01*
X41592Y-35676D01*
X41532Y-35676D01*
X40745Y-35676D01*
X40690Y-35699D01*
X40648Y-35742D01*
X40625Y-35797D01*
X40625Y-35856D01*
X40625Y-36643D01*
X40648Y-36698D01*
X40690Y-36741D01*
X40745Y-36763D01*
X40805Y-36763D01*
X41592Y-36763D01*
X41647Y-36741D01*
X41689Y-36698D01*
X41712Y-36643D01*
X41712Y-36584D01*
X41712Y-36532D01*
X41861Y-36680D01*
X42060Y-36763D01*
X42276Y-36764D01*
X42476Y-36681D01*
X42629Y-36528D01*
X42669Y-36433D01*
X42708Y-36527D01*
X42861Y-36680D01*
X43060Y-36763D01*
X43276Y-36764D01*
X43365Y-36727D01*
X43581Y-36943D01*
X43653Y-36991D01*
X43653Y-36991D01*
X43737Y-37008D01*
X50415Y-37008D01*
X50499Y-36991D01*
X50499Y-36991D01*
X50570Y-36943D01*
X51230Y-36283D01*
X51278Y-36212D01*
X51278Y-36212D01*
X51295Y-36128D01*
X51295Y-34227D01*
X51278Y-34143D01*
X51278Y-34143D01*
X51230Y-34072D01*
X50492Y-33333D01*
X50492Y-32285D01*
X50590Y-32187D01*
X50647Y-32050D01*
X50647Y-31900D01*
X50590Y-31763D01*
X50485Y-31657D01*
X50347Y-31600D01*
X50208Y-31600D01*
X49704Y-31095D01*
X49704Y-30708D01*
X49687Y-30624D01*
X49639Y-30553D01*
X49568Y-30505D01*
X49484Y-30488D01*
X49463Y-30488D01*
X49463Y-30453D01*
X49441Y-30398D01*
X49398Y-30356D01*
X49343Y-30333D01*
X49284Y-30333D01*
X48964Y-30333D01*
X48908Y-30356D01*
X48866Y-30398D01*
X48843Y-30453D01*
X48843Y-30513D01*
X48843Y-30963D01*
X48866Y-31018D01*
X48908Y-31060D01*
X48964Y-31083D01*
X49023Y-31083D01*
X49264Y-31083D01*
X49264Y-31186D01*
X49270Y-31217D01*
X49266Y-31217D01*
X49203Y-31280D01*
X49203Y-31642D01*
X49501Y-31642D01*
X49563Y-31580D01*
X49563Y-31577D01*
X49897Y-31911D01*
X49897Y-32049D01*
X49954Y-32187D01*
X50052Y-32285D01*
X50052Y-33205D01*
X49720Y-33205D01*
X49636Y-33221D01*
X49564Y-33269D01*
X49563Y-33270D01*
X49563Y-31967D01*
X49563Y-31868D01*
X49563Y-31805D01*
X49501Y-31742D01*
X49203Y-31742D01*
X49203Y-32105D01*
X49266Y-32167D01*
X49363Y-32167D01*
X49455Y-32129D01*
X49525Y-32059D01*
X49563Y-31967D01*
X49563Y-33270D01*
X49453Y-33381D01*
X49441Y-33351D01*
X49398Y-33309D01*
X49343Y-33286D01*
X49284Y-33286D01*
X49043Y-33286D01*
X49043Y-33052D01*
X49343Y-33052D01*
X49398Y-33029D01*
X49441Y-32987D01*
X49463Y-32932D01*
X49463Y-32872D01*
X49463Y-32422D01*
X49441Y-32367D01*
X49398Y-32325D01*
X49343Y-32302D01*
X49284Y-32302D01*
X48964Y-32302D01*
X48908Y-32325D01*
X48866Y-32367D01*
X48843Y-32422D01*
X48843Y-32477D01*
X48843Y-32477D01*
X48793Y-32487D01*
X48793Y-32422D01*
X48771Y-32367D01*
X48728Y-32325D01*
X48683Y-32306D01*
X48683Y-32063D01*
X48728Y-32045D01*
X48762Y-32011D01*
X48781Y-32059D01*
X48852Y-32129D01*
X48944Y-32167D01*
X49041Y-32167D01*
X49103Y-32105D01*
X49103Y-31742D01*
X49096Y-31742D01*
X49096Y-31642D01*
X49103Y-31642D01*
X49103Y-31280D01*
X49041Y-31217D01*
X48944Y-31217D01*
X48852Y-31255D01*
X48781Y-31326D01*
X48762Y-31374D01*
X48728Y-31340D01*
X48683Y-31322D01*
X48683Y-31079D01*
X48728Y-31060D01*
X48771Y-31018D01*
X48793Y-30963D01*
X48793Y-30903D01*
X48793Y-30453D01*
X48771Y-30398D01*
X48728Y-30356D01*
X48673Y-30333D01*
X48614Y-30333D01*
X48294Y-30333D01*
X48238Y-30356D01*
X48196Y-30398D01*
X48173Y-30453D01*
X48173Y-30513D01*
X48173Y-30963D01*
X48196Y-31018D01*
X48238Y-31060D01*
X48283Y-31079D01*
X48283Y-31322D01*
X48238Y-31340D01*
X48196Y-31382D01*
X48173Y-31438D01*
X48173Y-31492D01*
X46909Y-31492D01*
X46888Y-31497D01*
X47243Y-31142D01*
X47243Y-31142D01*
X47286Y-31077D01*
X47301Y-31000D01*
X47301Y-30401D01*
X47289Y-30337D01*
X47286Y-30324D01*
X47286Y-30324D01*
X47243Y-30259D01*
X47157Y-30173D01*
X47092Y-30130D01*
X47016Y-30115D01*
X44240Y-30115D01*
X44240Y-30006D01*
X44190Y-29887D01*
X44099Y-29795D01*
X43980Y-29746D01*
X43850Y-29746D01*
X43731Y-29795D01*
X43655Y-29871D01*
X39170Y-29871D01*
X39106Y-29883D01*
X39093Y-29886D01*
X39028Y-29929D01*
X38768Y-30189D01*
X38752Y-30214D01*
X38752Y-29500D01*
X52192Y-29500D01*
X52192Y-37035D01*
M02*
