%FSLAX34Y34*%
G04 Gerber Fmt 3.4, Leading zero omitted, Abs format*
G04 (created by PCBNEW (2014-02-02 BZR 4653)-product) date 2014-02-04 11:29:01 PM*
%MOIN*%
G01*
G70*
G90*
G04 APERTURE LIST*
%ADD10C,0.005906*%
%ADD11R,0.011800X0.051200*%
%ADD12R,0.015000X0.050000*%
%ADD13R,0.039400X0.027600*%
%ADD14R,0.045000X0.032000*%
%ADD15R,0.078700X0.078700*%
%ADD16C,0.078700*%
%ADD17C,0.045000*%
%ADD18C,0.035000*%
%ADD19C,0.014000*%
%ADD20C,0.010000*%
G04 APERTURE END LIST*
G54D10*
G54D11*
X47423Y-31419D03*
X47173Y-31419D03*
X46913Y-31419D03*
X46663Y-31419D03*
X46663Y-33619D03*
X46918Y-33619D03*
X47173Y-33619D03*
X47428Y-33619D03*
G54D12*
X43001Y-33779D03*
X43257Y-33779D03*
X43513Y-33779D03*
X43769Y-33779D03*
X44025Y-33779D03*
X44281Y-33779D03*
X44537Y-33779D03*
X44793Y-33779D03*
X44793Y-31575D03*
X44537Y-31575D03*
X44281Y-31575D03*
X44025Y-31575D03*
X43769Y-31575D03*
X43513Y-31575D03*
X43257Y-31575D03*
X43001Y-31575D03*
G54D13*
X45169Y-30314D03*
X46169Y-29939D03*
X46169Y-30689D03*
G54D14*
X50393Y-30570D03*
X50393Y-31240D03*
X48228Y-31240D03*
X48228Y-30570D03*
X49409Y-31240D03*
X49409Y-30570D03*
X45866Y-32815D03*
X45866Y-32145D03*
X48228Y-32815D03*
X48228Y-32145D03*
X51377Y-32145D03*
X51377Y-32815D03*
X51377Y-30570D03*
X51377Y-31240D03*
X49409Y-32145D03*
X49409Y-32815D03*
X43307Y-29979D03*
X43307Y-30649D03*
G54D15*
X41169Y-36220D03*
G54D16*
X42169Y-36220D03*
X43169Y-36220D03*
X44169Y-36220D03*
X45169Y-36220D03*
X46169Y-36220D03*
X47169Y-36220D03*
X48169Y-36220D03*
X49169Y-36220D03*
X50169Y-36220D03*
G54D14*
X41141Y-35177D03*
X41141Y-34507D03*
X43110Y-34507D03*
X43110Y-35177D03*
G54D17*
X42407Y-33263D03*
X50272Y-31975D03*
X42457Y-32657D03*
G54D18*
X39429Y-35452D03*
X47141Y-32086D03*
X47972Y-33759D03*
X49909Y-32952D03*
X47677Y-32519D03*
X47972Y-34980D03*
X44311Y-32874D03*
X45405Y-32145D03*
X51377Y-33275D03*
X41137Y-34102D03*
X45098Y-33791D03*
X46562Y-29937D03*
X43915Y-30071D03*
X47764Y-34528D03*
X45172Y-35312D03*
X45721Y-35694D03*
G54D19*
X46464Y-31023D02*
X45905Y-31023D01*
X45905Y-31023D02*
X45802Y-30920D01*
X45802Y-30920D02*
X45802Y-30368D01*
X46663Y-31419D02*
X46663Y-31222D01*
X46663Y-31222D02*
X46464Y-31023D01*
X47428Y-33619D02*
X47428Y-33193D01*
X47476Y-33145D02*
X47428Y-33193D01*
X48228Y-33145D02*
X47476Y-33145D01*
X48228Y-32815D02*
X48228Y-33145D01*
X49491Y-31570D02*
X49409Y-31570D01*
X49805Y-31884D02*
X49491Y-31570D01*
X49805Y-32377D02*
X49805Y-31884D01*
X49698Y-32485D02*
X49805Y-32377D01*
X49409Y-32485D02*
X49698Y-32485D01*
X49409Y-32815D02*
X49409Y-32693D01*
X49409Y-32693D02*
X49409Y-32485D01*
X48744Y-32693D02*
X48623Y-32815D01*
X49409Y-32693D02*
X48744Y-32693D01*
X48228Y-32815D02*
X48623Y-32815D01*
X41169Y-36220D02*
X41169Y-35656D01*
X41141Y-35629D02*
X41141Y-35177D01*
X41169Y-35656D02*
X41141Y-35629D01*
X41141Y-35177D02*
X41141Y-34847D01*
X42407Y-33870D02*
X42407Y-33263D01*
X41430Y-34847D02*
X42407Y-33870D01*
X41141Y-34847D02*
X41430Y-34847D01*
X43001Y-32708D02*
X43001Y-31575D01*
X42445Y-33263D02*
X43001Y-32708D01*
X42407Y-33263D02*
X42445Y-33263D01*
X42911Y-31065D02*
X43001Y-31155D01*
X42911Y-30416D02*
X42911Y-31065D01*
X43018Y-30310D02*
X42911Y-30416D01*
X43307Y-30310D02*
X43018Y-30310D01*
X43307Y-29979D02*
X43307Y-30310D01*
X43001Y-31575D02*
X43001Y-31155D01*
X49409Y-31240D02*
X49409Y-31570D01*
X49409Y-31240D02*
X49409Y-30910D01*
X51689Y-30910D02*
X49409Y-30910D01*
X51773Y-30827D02*
X51689Y-30910D01*
X51773Y-30312D02*
X51773Y-30827D01*
X51482Y-30022D02*
X51773Y-30312D01*
X47007Y-30022D02*
X51482Y-30022D01*
X46660Y-30368D02*
X47007Y-30022D01*
X45802Y-30368D02*
X46660Y-30368D01*
X43594Y-29692D02*
X43307Y-29979D01*
X45125Y-29692D02*
X43594Y-29692D01*
X45802Y-30368D02*
X45125Y-29692D01*
X50272Y-31691D02*
X50272Y-31975D01*
X50393Y-31570D02*
X50272Y-31691D01*
X50393Y-31240D02*
X50393Y-31570D01*
X42089Y-32657D02*
X42457Y-32657D01*
X40604Y-34142D02*
X42089Y-32657D01*
X40604Y-36691D02*
X40604Y-34142D01*
X40697Y-36784D02*
X40604Y-36691D01*
X42487Y-36784D02*
X40697Y-36784D01*
X43110Y-36161D02*
X42487Y-36784D01*
X43169Y-36220D02*
X43110Y-36161D01*
X43110Y-36161D02*
X43110Y-35177D01*
G54D20*
X42832Y-34179D02*
X43001Y-34179D01*
X42169Y-34842D02*
X42832Y-34179D01*
X42169Y-36220D02*
X42169Y-34842D01*
X43001Y-33779D02*
X43001Y-34179D01*
X51377Y-31240D02*
X51377Y-32145D01*
X51140Y-32455D02*
X51377Y-32455D01*
X50169Y-33426D02*
X51140Y-32455D01*
X50169Y-36220D02*
X50169Y-33426D01*
X51377Y-32145D02*
X51377Y-32455D01*
X43513Y-32076D02*
X44311Y-32874D01*
X43513Y-31575D02*
X43513Y-32076D01*
X43257Y-33429D02*
X43257Y-33779D01*
X43307Y-33379D02*
X43257Y-33429D01*
X43805Y-33379D02*
X43307Y-33379D01*
X44311Y-32874D02*
X43805Y-33379D01*
X49909Y-32952D02*
X49862Y-32952D01*
X48228Y-32145D02*
X48051Y-32145D01*
X48051Y-32145D02*
X47677Y-32519D01*
X47972Y-36023D02*
X48169Y-36220D01*
X47972Y-34980D02*
X47972Y-36023D01*
X45067Y-32204D02*
X45126Y-32145D01*
X44561Y-32204D02*
X45067Y-32204D01*
X44281Y-31925D02*
X44561Y-32204D01*
X44281Y-31575D02*
X44281Y-31925D01*
X45126Y-32145D02*
X45405Y-32145D01*
X44537Y-33100D02*
X44537Y-33779D01*
X44311Y-32874D02*
X44537Y-33100D01*
X47423Y-31804D02*
X47141Y-32086D01*
X47423Y-31419D02*
X47423Y-31804D01*
X45405Y-32145D02*
X45405Y-32145D01*
X45866Y-32145D02*
X45405Y-32145D01*
X51377Y-32815D02*
X51377Y-33275D01*
X41137Y-34243D02*
X41137Y-34102D01*
X41141Y-34247D02*
X41137Y-34243D01*
X41141Y-34507D02*
X41141Y-34247D01*
X43257Y-34360D02*
X43110Y-34507D01*
X43257Y-33779D02*
X43257Y-34360D01*
X45086Y-33779D02*
X45098Y-33791D01*
X44793Y-33779D02*
X45086Y-33779D01*
X46559Y-29939D02*
X46562Y-29937D01*
X46169Y-29939D02*
X46559Y-29939D01*
X44281Y-33779D02*
X44281Y-33779D01*
X44281Y-33779D02*
X44537Y-33779D01*
X44537Y-33779D02*
X44793Y-33779D01*
X44537Y-31225D02*
X44537Y-31575D01*
X44537Y-31184D02*
X44537Y-31225D01*
X45169Y-30552D02*
X44537Y-31184D01*
X45169Y-30314D02*
X45169Y-30552D01*
X44537Y-31858D02*
X44537Y-31575D01*
X44669Y-31990D02*
X44537Y-31858D01*
X44669Y-32004D02*
X44669Y-31990D01*
X46852Y-32476D02*
X46196Y-31820D01*
X47227Y-32476D02*
X46852Y-32476D01*
X46196Y-31820D02*
X45168Y-31820D01*
X48228Y-31475D02*
X47227Y-32476D01*
X45168Y-31820D02*
X44984Y-32004D01*
X44984Y-32004D02*
X44669Y-32004D01*
X48439Y-31550D02*
X48228Y-31550D01*
X49034Y-32145D02*
X48439Y-31550D01*
X49409Y-32145D02*
X49034Y-32145D01*
X48228Y-31240D02*
X48228Y-31395D01*
X48228Y-31475D02*
X48228Y-31550D01*
X48228Y-31395D02*
X48228Y-31475D01*
X46575Y-33125D02*
X46663Y-33213D01*
X45866Y-33125D02*
X46575Y-33125D01*
X45866Y-32815D02*
X45866Y-33125D01*
X46663Y-33619D02*
X46663Y-33213D01*
X49409Y-30570D02*
X48228Y-30570D01*
X47616Y-30570D02*
X47173Y-31013D01*
X48228Y-30570D02*
X47616Y-30570D01*
X47173Y-31419D02*
X47173Y-31013D01*
X43769Y-30216D02*
X43769Y-31575D01*
X43915Y-30071D02*
X43769Y-30216D01*
X43257Y-31009D02*
X43257Y-31575D01*
X43307Y-30960D02*
X43257Y-31009D01*
X43307Y-30649D02*
X43307Y-30960D01*
X47421Y-34528D02*
X46918Y-34025D01*
X47764Y-34528D02*
X47421Y-34528D01*
X46918Y-33619D02*
X46918Y-34025D01*
X44793Y-31575D02*
X46233Y-31575D01*
X46233Y-31575D02*
X46484Y-31825D01*
X46913Y-31775D02*
X46913Y-31419D01*
X46484Y-31825D02*
X46863Y-31825D01*
X46863Y-31825D02*
X46913Y-31775D01*
X43513Y-34215D02*
X43513Y-33779D01*
X44610Y-35312D02*
X43513Y-34215D01*
X45172Y-35312D02*
X44610Y-35312D01*
X51377Y-30570D02*
X50393Y-30570D01*
X46835Y-30689D02*
X46169Y-30689D01*
X47264Y-30260D02*
X46835Y-30689D01*
X50393Y-30260D02*
X47264Y-30260D01*
X50393Y-30570D02*
X50393Y-30260D01*
X44025Y-33779D02*
X44025Y-33979D01*
X43769Y-33779D02*
X43769Y-34179D01*
X44025Y-34079D02*
X44025Y-34179D01*
X44025Y-33979D02*
X44025Y-34079D01*
X43925Y-34179D02*
X43769Y-34179D01*
X44025Y-34079D02*
X43925Y-34179D01*
X44499Y-34179D02*
X44025Y-34179D01*
X45721Y-35401D02*
X44499Y-34179D01*
X45721Y-35694D02*
X45721Y-35401D01*
X44025Y-32019D02*
X44025Y-31575D01*
X46169Y-34163D02*
X44025Y-32019D01*
X46169Y-36220D02*
X46169Y-34163D01*
G54D10*
G36*
X42209Y-32939D02*
X42195Y-32945D01*
X42089Y-33051D01*
X42032Y-33188D01*
X42032Y-33338D01*
X42089Y-33475D01*
X42187Y-33574D01*
X42187Y-33779D01*
X41616Y-34350D01*
X41616Y-34297D01*
X41578Y-34205D01*
X41508Y-34135D01*
X41416Y-34097D01*
X41317Y-34097D01*
X41254Y-34097D01*
X41191Y-34160D01*
X41191Y-34457D01*
X41199Y-34457D01*
X41199Y-34557D01*
X41191Y-34557D01*
X41191Y-34565D01*
X41091Y-34565D01*
X41091Y-34557D01*
X41083Y-34557D01*
X41083Y-34457D01*
X41091Y-34457D01*
X41091Y-34160D01*
X41029Y-34097D01*
X40966Y-34097D01*
X40960Y-34097D01*
X42163Y-32894D01*
X42209Y-32939D01*
X42209Y-32939D01*
G37*
G54D20*
X42209Y-32939D02*
X42195Y-32945D01*
X42089Y-33051D01*
X42032Y-33188D01*
X42032Y-33338D01*
X42089Y-33475D01*
X42187Y-33574D01*
X42187Y-33779D01*
X41616Y-34350D01*
X41616Y-34297D01*
X41578Y-34205D01*
X41508Y-34135D01*
X41416Y-34097D01*
X41317Y-34097D01*
X41254Y-34097D01*
X41191Y-34160D01*
X41191Y-34457D01*
X41199Y-34457D01*
X41199Y-34557D01*
X41191Y-34557D01*
X41191Y-34565D01*
X41091Y-34565D01*
X41091Y-34557D01*
X41083Y-34557D01*
X41083Y-34457D01*
X41091Y-34457D01*
X41091Y-34160D01*
X41029Y-34097D01*
X40966Y-34097D01*
X40960Y-34097D01*
X42163Y-32894D01*
X42209Y-32939D01*
G54D10*
G36*
X43168Y-34557D02*
X43160Y-34557D01*
X43160Y-34565D01*
X43060Y-34565D01*
X43060Y-34557D01*
X43052Y-34557D01*
X43052Y-34457D01*
X43060Y-34457D01*
X43060Y-34449D01*
X43160Y-34449D01*
X43160Y-34457D01*
X43168Y-34457D01*
X43168Y-34557D01*
X43168Y-34557D01*
G37*
G54D20*
X43168Y-34557D02*
X43160Y-34557D01*
X43160Y-34565D01*
X43060Y-34565D01*
X43060Y-34557D01*
X43052Y-34557D01*
X43052Y-34457D01*
X43060Y-34457D01*
X43060Y-34449D01*
X43160Y-34449D01*
X43160Y-34457D01*
X43168Y-34457D01*
X43168Y-34557D01*
G54D10*
G36*
X45149Y-30026D02*
X44942Y-30026D01*
X44887Y-30049D01*
X44845Y-30091D01*
X44822Y-30147D01*
X44822Y-30206D01*
X44822Y-30482D01*
X44845Y-30537D01*
X44873Y-30566D01*
X44396Y-31043D01*
X44361Y-31095D01*
X44319Y-31137D01*
X44319Y-31279D01*
X44312Y-31295D01*
X44312Y-31355D01*
X44312Y-31633D01*
X44250Y-31633D01*
X44250Y-31295D01*
X44244Y-31279D01*
X44244Y-31137D01*
X44181Y-31075D01*
X44156Y-31075D01*
X44065Y-31113D01*
X44003Y-31175D01*
X43969Y-31175D01*
X43969Y-30396D01*
X43979Y-30396D01*
X44099Y-30346D01*
X44190Y-30255D01*
X44240Y-30136D01*
X44240Y-30006D01*
X44201Y-29912D01*
X45034Y-29912D01*
X45149Y-30026D01*
X45149Y-30026D01*
G37*
G54D20*
X45149Y-30026D02*
X44942Y-30026D01*
X44887Y-30049D01*
X44845Y-30091D01*
X44822Y-30147D01*
X44822Y-30206D01*
X44822Y-30482D01*
X44845Y-30537D01*
X44873Y-30566D01*
X44396Y-31043D01*
X44361Y-31095D01*
X44319Y-31137D01*
X44319Y-31279D01*
X44312Y-31295D01*
X44312Y-31355D01*
X44312Y-31633D01*
X44250Y-31633D01*
X44250Y-31295D01*
X44244Y-31279D01*
X44244Y-31137D01*
X44181Y-31075D01*
X44156Y-31075D01*
X44065Y-31113D01*
X44003Y-31175D01*
X43969Y-31175D01*
X43969Y-30396D01*
X43979Y-30396D01*
X44099Y-30346D01*
X44190Y-30255D01*
X44240Y-30136D01*
X44240Y-30006D01*
X44201Y-29912D01*
X45034Y-29912D01*
X45149Y-30026D01*
G54D10*
G36*
X45969Y-35482D02*
X45921Y-35434D01*
X45921Y-35401D01*
X45906Y-35325D01*
X45863Y-35260D01*
X44843Y-34240D01*
X44843Y-34229D01*
X44893Y-34279D01*
X44918Y-34279D01*
X45010Y-34241D01*
X45080Y-34170D01*
X45118Y-34078D01*
X45118Y-33979D01*
X45118Y-33891D01*
X45056Y-33829D01*
X44831Y-33829D01*
X44831Y-33837D01*
X44808Y-33837D01*
X44800Y-33829D01*
X44756Y-33829D01*
X44575Y-33829D01*
X44544Y-33829D01*
X44531Y-33829D01*
X44500Y-33829D01*
X44479Y-33829D01*
X44479Y-33729D01*
X44500Y-33729D01*
X44531Y-33729D01*
X44544Y-33729D01*
X44575Y-33729D01*
X44756Y-33729D01*
X44800Y-33729D01*
X44831Y-33698D01*
X44831Y-33729D01*
X45056Y-33729D01*
X45118Y-33666D01*
X45118Y-33578D01*
X45118Y-33479D01*
X45080Y-33387D01*
X45010Y-33317D01*
X44918Y-33279D01*
X44893Y-33279D01*
X44831Y-33341D01*
X44831Y-33403D01*
X44824Y-33387D01*
X44754Y-33317D01*
X44715Y-33301D01*
X44693Y-33279D01*
X44668Y-33279D01*
X44665Y-33280D01*
X44662Y-33279D01*
X44637Y-33279D01*
X44615Y-33301D01*
X44577Y-33317D01*
X44537Y-33356D01*
X44498Y-33317D01*
X44459Y-33301D01*
X44437Y-33279D01*
X44412Y-33279D01*
X44409Y-33280D01*
X44406Y-33279D01*
X44381Y-33279D01*
X44359Y-33301D01*
X44321Y-33317D01*
X44250Y-33387D01*
X44244Y-33403D01*
X44244Y-33341D01*
X44181Y-33279D01*
X44156Y-33279D01*
X44065Y-33317D01*
X44003Y-33379D01*
X43920Y-33379D01*
X43897Y-33388D01*
X43874Y-33379D01*
X43814Y-33379D01*
X43664Y-33379D01*
X43641Y-33388D01*
X43618Y-33379D01*
X43558Y-33379D01*
X43536Y-33379D01*
X43474Y-33317D01*
X43382Y-33279D01*
X43357Y-33279D01*
X43295Y-33341D01*
X43295Y-33483D01*
X43288Y-33499D01*
X43288Y-33559D01*
X43288Y-33837D01*
X43226Y-33837D01*
X43226Y-33499D01*
X43220Y-33483D01*
X43220Y-33341D01*
X43157Y-33279D01*
X43132Y-33279D01*
X43041Y-33317D01*
X42979Y-33379D01*
X42896Y-33379D01*
X42841Y-33402D01*
X42799Y-33444D01*
X42776Y-33499D01*
X42776Y-33559D01*
X42776Y-33990D01*
X42756Y-33994D01*
X42691Y-34037D01*
X42027Y-34701D01*
X41984Y-34766D01*
X41969Y-34842D01*
X41969Y-35715D01*
X41861Y-35759D01*
X41712Y-35908D01*
X41712Y-35797D01*
X41689Y-35742D01*
X41647Y-35699D01*
X41592Y-35676D01*
X41532Y-35676D01*
X41389Y-35676D01*
X41389Y-35656D01*
X41372Y-35572D01*
X41372Y-35572D01*
X41361Y-35556D01*
X41361Y-35556D01*
X41361Y-35487D01*
X41396Y-35487D01*
X41451Y-35464D01*
X41493Y-35422D01*
X41516Y-35367D01*
X41516Y-35307D01*
X41516Y-35049D01*
X41516Y-35049D01*
X41586Y-35002D01*
X42563Y-34026D01*
X42563Y-34026D01*
X42610Y-33954D01*
X42610Y-33954D01*
X42627Y-33870D01*
X42627Y-33573D01*
X42725Y-33476D01*
X42782Y-33338D01*
X42782Y-33238D01*
X43157Y-32863D01*
X43157Y-32863D01*
X43204Y-32792D01*
X43221Y-32708D01*
X43221Y-32708D01*
X43221Y-31975D01*
X43235Y-31975D01*
X43297Y-32037D01*
X43388Y-32075D01*
X43413Y-32075D01*
X43476Y-32012D01*
X43476Y-31870D01*
X43482Y-31855D01*
X43482Y-31795D01*
X43482Y-31295D01*
X43476Y-31279D01*
X43476Y-31137D01*
X43457Y-31119D01*
X43457Y-31087D01*
X43457Y-31087D01*
X43491Y-31036D01*
X43491Y-31036D01*
X43494Y-31023D01*
X43507Y-30960D01*
X43507Y-30960D01*
X43507Y-30959D01*
X43561Y-30959D01*
X43569Y-30956D01*
X43569Y-31119D01*
X43551Y-31137D01*
X43551Y-31279D01*
X43544Y-31295D01*
X43544Y-31355D01*
X43544Y-31855D01*
X43551Y-31870D01*
X43551Y-32012D01*
X43613Y-32075D01*
X43638Y-32075D01*
X43730Y-32037D01*
X43792Y-31975D01*
X43825Y-31975D01*
X43825Y-32019D01*
X43840Y-32096D01*
X43884Y-32161D01*
X45969Y-34246D01*
X45969Y-35482D01*
X45969Y-35482D01*
G37*
G54D20*
X45969Y-35482D02*
X45921Y-35434D01*
X45921Y-35401D01*
X45906Y-35325D01*
X45863Y-35260D01*
X44843Y-34240D01*
X44843Y-34229D01*
X44893Y-34279D01*
X44918Y-34279D01*
X45010Y-34241D01*
X45080Y-34170D01*
X45118Y-34078D01*
X45118Y-33979D01*
X45118Y-33891D01*
X45056Y-33829D01*
X44831Y-33829D01*
X44831Y-33837D01*
X44808Y-33837D01*
X44800Y-33829D01*
X44756Y-33829D01*
X44575Y-33829D01*
X44544Y-33829D01*
X44531Y-33829D01*
X44500Y-33829D01*
X44479Y-33829D01*
X44479Y-33729D01*
X44500Y-33729D01*
X44531Y-33729D01*
X44544Y-33729D01*
X44575Y-33729D01*
X44756Y-33729D01*
X44800Y-33729D01*
X44831Y-33698D01*
X44831Y-33729D01*
X45056Y-33729D01*
X45118Y-33666D01*
X45118Y-33578D01*
X45118Y-33479D01*
X45080Y-33387D01*
X45010Y-33317D01*
X44918Y-33279D01*
X44893Y-33279D01*
X44831Y-33341D01*
X44831Y-33403D01*
X44824Y-33387D01*
X44754Y-33317D01*
X44715Y-33301D01*
X44693Y-33279D01*
X44668Y-33279D01*
X44665Y-33280D01*
X44662Y-33279D01*
X44637Y-33279D01*
X44615Y-33301D01*
X44577Y-33317D01*
X44537Y-33356D01*
X44498Y-33317D01*
X44459Y-33301D01*
X44437Y-33279D01*
X44412Y-33279D01*
X44409Y-33280D01*
X44406Y-33279D01*
X44381Y-33279D01*
X44359Y-33301D01*
X44321Y-33317D01*
X44250Y-33387D01*
X44244Y-33403D01*
X44244Y-33341D01*
X44181Y-33279D01*
X44156Y-33279D01*
X44065Y-33317D01*
X44003Y-33379D01*
X43920Y-33379D01*
X43897Y-33388D01*
X43874Y-33379D01*
X43814Y-33379D01*
X43664Y-33379D01*
X43641Y-33388D01*
X43618Y-33379D01*
X43558Y-33379D01*
X43536Y-33379D01*
X43474Y-33317D01*
X43382Y-33279D01*
X43357Y-33279D01*
X43295Y-33341D01*
X43295Y-33483D01*
X43288Y-33499D01*
X43288Y-33559D01*
X43288Y-33837D01*
X43226Y-33837D01*
X43226Y-33499D01*
X43220Y-33483D01*
X43220Y-33341D01*
X43157Y-33279D01*
X43132Y-33279D01*
X43041Y-33317D01*
X42979Y-33379D01*
X42896Y-33379D01*
X42841Y-33402D01*
X42799Y-33444D01*
X42776Y-33499D01*
X42776Y-33559D01*
X42776Y-33990D01*
X42756Y-33994D01*
X42691Y-34037D01*
X42027Y-34701D01*
X41984Y-34766D01*
X41969Y-34842D01*
X41969Y-35715D01*
X41861Y-35759D01*
X41712Y-35908D01*
X41712Y-35797D01*
X41689Y-35742D01*
X41647Y-35699D01*
X41592Y-35676D01*
X41532Y-35676D01*
X41389Y-35676D01*
X41389Y-35656D01*
X41372Y-35572D01*
X41372Y-35572D01*
X41361Y-35556D01*
X41361Y-35556D01*
X41361Y-35487D01*
X41396Y-35487D01*
X41451Y-35464D01*
X41493Y-35422D01*
X41516Y-35367D01*
X41516Y-35307D01*
X41516Y-35049D01*
X41516Y-35049D01*
X41586Y-35002D01*
X42563Y-34026D01*
X42563Y-34026D01*
X42610Y-33954D01*
X42610Y-33954D01*
X42627Y-33870D01*
X42627Y-33573D01*
X42725Y-33476D01*
X42782Y-33338D01*
X42782Y-33238D01*
X43157Y-32863D01*
X43157Y-32863D01*
X43204Y-32792D01*
X43221Y-32708D01*
X43221Y-32708D01*
X43221Y-31975D01*
X43235Y-31975D01*
X43297Y-32037D01*
X43388Y-32075D01*
X43413Y-32075D01*
X43476Y-32012D01*
X43476Y-31870D01*
X43482Y-31855D01*
X43482Y-31795D01*
X43482Y-31295D01*
X43476Y-31279D01*
X43476Y-31137D01*
X43457Y-31119D01*
X43457Y-31087D01*
X43457Y-31087D01*
X43491Y-31036D01*
X43491Y-31036D01*
X43494Y-31023D01*
X43507Y-30960D01*
X43507Y-30960D01*
X43507Y-30959D01*
X43561Y-30959D01*
X43569Y-30956D01*
X43569Y-31119D01*
X43551Y-31137D01*
X43551Y-31279D01*
X43544Y-31295D01*
X43544Y-31355D01*
X43544Y-31855D01*
X43551Y-31870D01*
X43551Y-32012D01*
X43613Y-32075D01*
X43638Y-32075D01*
X43730Y-32037D01*
X43792Y-31975D01*
X43825Y-31975D01*
X43825Y-32019D01*
X43840Y-32096D01*
X43884Y-32161D01*
X45969Y-34246D01*
X45969Y-35482D01*
G54D10*
G36*
X47909Y-32537D02*
X47876Y-32570D01*
X47853Y-32625D01*
X47853Y-32685D01*
X47853Y-32925D01*
X47476Y-32925D01*
X47392Y-32942D01*
X47320Y-32989D01*
X47272Y-33038D01*
X47225Y-33109D01*
X47208Y-33193D01*
X47208Y-33213D01*
X47202Y-33213D01*
X47084Y-33213D01*
X47045Y-33229D01*
X47007Y-33213D01*
X46947Y-33213D01*
X46863Y-33213D01*
X46863Y-33213D01*
X46850Y-33149D01*
X46848Y-33137D01*
X46848Y-33137D01*
X46804Y-33072D01*
X46804Y-33072D01*
X46716Y-32984D01*
X46651Y-32940D01*
X46575Y-32925D01*
X46241Y-32925D01*
X46241Y-32625D01*
X46218Y-32570D01*
X46184Y-32537D01*
X46232Y-32517D01*
X46303Y-32446D01*
X46341Y-32355D01*
X46341Y-32257D01*
X46278Y-32195D01*
X46288Y-32195D01*
X46710Y-32617D01*
X46775Y-32661D01*
X46852Y-32676D01*
X47227Y-32676D01*
X47304Y-32661D01*
X47368Y-32617D01*
X47791Y-32195D01*
X47815Y-32195D01*
X47753Y-32257D01*
X47753Y-32355D01*
X47791Y-32446D01*
X47861Y-32517D01*
X47909Y-32537D01*
X47909Y-32537D01*
G37*
G54D20*
X47909Y-32537D02*
X47876Y-32570D01*
X47853Y-32625D01*
X47853Y-32685D01*
X47853Y-32925D01*
X47476Y-32925D01*
X47392Y-32942D01*
X47320Y-32989D01*
X47272Y-33038D01*
X47225Y-33109D01*
X47208Y-33193D01*
X47208Y-33213D01*
X47202Y-33213D01*
X47084Y-33213D01*
X47045Y-33229D01*
X47007Y-33213D01*
X46947Y-33213D01*
X46863Y-33213D01*
X46863Y-33213D01*
X46850Y-33149D01*
X46848Y-33137D01*
X46848Y-33137D01*
X46804Y-33072D01*
X46804Y-33072D01*
X46716Y-32984D01*
X46651Y-32940D01*
X46575Y-32925D01*
X46241Y-32925D01*
X46241Y-32625D01*
X46218Y-32570D01*
X46184Y-32537D01*
X46232Y-32517D01*
X46303Y-32446D01*
X46341Y-32355D01*
X46341Y-32257D01*
X46278Y-32195D01*
X46288Y-32195D01*
X46710Y-32617D01*
X46775Y-32661D01*
X46852Y-32676D01*
X47227Y-32676D01*
X47304Y-32661D01*
X47368Y-32617D01*
X47791Y-32195D01*
X47815Y-32195D01*
X47753Y-32257D01*
X47753Y-32355D01*
X47791Y-32446D01*
X47861Y-32517D01*
X47909Y-32537D01*
G54D10*
G36*
X49195Y-32455D02*
X49191Y-32473D01*
X48744Y-32473D01*
X48660Y-32490D01*
X48589Y-32538D01*
X48568Y-32558D01*
X48547Y-32537D01*
X48594Y-32517D01*
X48665Y-32446D01*
X48703Y-32355D01*
X48703Y-32257D01*
X48640Y-32195D01*
X48278Y-32195D01*
X48278Y-32203D01*
X48178Y-32203D01*
X48178Y-32195D01*
X48170Y-32195D01*
X48170Y-32095D01*
X48178Y-32095D01*
X48178Y-32087D01*
X48278Y-32087D01*
X48278Y-32095D01*
X48640Y-32095D01*
X48671Y-32064D01*
X48892Y-32286D01*
X48957Y-32330D01*
X49034Y-32345D01*
X49038Y-32345D01*
X49057Y-32390D01*
X49099Y-32432D01*
X49154Y-32455D01*
X49195Y-32455D01*
X49195Y-32455D01*
G37*
G54D20*
X49195Y-32455D02*
X49191Y-32473D01*
X48744Y-32473D01*
X48660Y-32490D01*
X48589Y-32538D01*
X48568Y-32558D01*
X48547Y-32537D01*
X48594Y-32517D01*
X48665Y-32446D01*
X48703Y-32355D01*
X48703Y-32257D01*
X48640Y-32195D01*
X48278Y-32195D01*
X48278Y-32203D01*
X48178Y-32203D01*
X48178Y-32195D01*
X48170Y-32195D01*
X48170Y-32095D01*
X48178Y-32095D01*
X48178Y-32087D01*
X48278Y-32087D01*
X48278Y-32095D01*
X48640Y-32095D01*
X48671Y-32064D01*
X48892Y-32286D01*
X48957Y-32330D01*
X49034Y-32345D01*
X49038Y-32345D01*
X49057Y-32390D01*
X49099Y-32432D01*
X49154Y-32455D01*
X49195Y-32455D01*
G54D10*
G36*
X49445Y-31835D02*
X49154Y-31835D01*
X49099Y-31858D01*
X49064Y-31892D01*
X48603Y-31431D01*
X48603Y-31430D01*
X48603Y-31370D01*
X48603Y-31050D01*
X48580Y-30995D01*
X48538Y-30953D01*
X48483Y-30930D01*
X48423Y-30930D01*
X47973Y-30930D01*
X47918Y-30953D01*
X47876Y-30995D01*
X47853Y-31050D01*
X47853Y-31110D01*
X47853Y-31430D01*
X47876Y-31485D01*
X47905Y-31515D01*
X47732Y-31688D01*
X47732Y-31625D01*
X47732Y-31532D01*
X47669Y-31469D01*
X47452Y-31469D01*
X47452Y-31863D01*
X47505Y-31915D01*
X47144Y-32276D01*
X46935Y-32276D01*
X46684Y-32025D01*
X46863Y-32025D01*
X46939Y-32010D01*
X47004Y-31967D01*
X47054Y-31917D01*
X47098Y-31852D01*
X47103Y-31825D01*
X47144Y-31825D01*
X47160Y-31825D01*
X47222Y-31887D01*
X47314Y-31925D01*
X47331Y-31925D01*
X47393Y-31863D01*
X47393Y-31469D01*
X47382Y-31469D01*
X47382Y-31369D01*
X47393Y-31369D01*
X47393Y-31361D01*
X47452Y-31361D01*
X47452Y-31369D01*
X47669Y-31369D01*
X47732Y-31307D01*
X47732Y-31213D01*
X47732Y-31113D01*
X47694Y-31022D01*
X47623Y-30951D01*
X47549Y-30920D01*
X47699Y-30770D01*
X47857Y-30770D01*
X47876Y-30815D01*
X47918Y-30857D01*
X47973Y-30880D01*
X48033Y-30880D01*
X48483Y-30880D01*
X48538Y-30857D01*
X48580Y-30815D01*
X48599Y-30770D01*
X49038Y-30770D01*
X49057Y-30815D01*
X49099Y-30857D01*
X49154Y-30880D01*
X49195Y-30880D01*
X49189Y-30910D01*
X49189Y-30930D01*
X49154Y-30930D01*
X49099Y-30953D01*
X49057Y-30995D01*
X49034Y-31050D01*
X49034Y-31110D01*
X49034Y-31430D01*
X49057Y-31485D01*
X49099Y-31527D01*
X49154Y-31550D01*
X49189Y-31550D01*
X49189Y-31570D01*
X49206Y-31654D01*
X49253Y-31726D01*
X49325Y-31773D01*
X49398Y-31788D01*
X49445Y-31835D01*
X49445Y-31835D01*
G37*
G54D20*
X49445Y-31835D02*
X49154Y-31835D01*
X49099Y-31858D01*
X49064Y-31892D01*
X48603Y-31431D01*
X48603Y-31430D01*
X48603Y-31370D01*
X48603Y-31050D01*
X48580Y-30995D01*
X48538Y-30953D01*
X48483Y-30930D01*
X48423Y-30930D01*
X47973Y-30930D01*
X47918Y-30953D01*
X47876Y-30995D01*
X47853Y-31050D01*
X47853Y-31110D01*
X47853Y-31430D01*
X47876Y-31485D01*
X47905Y-31515D01*
X47732Y-31688D01*
X47732Y-31625D01*
X47732Y-31532D01*
X47669Y-31469D01*
X47452Y-31469D01*
X47452Y-31863D01*
X47505Y-31915D01*
X47144Y-32276D01*
X46935Y-32276D01*
X46684Y-32025D01*
X46863Y-32025D01*
X46939Y-32010D01*
X47004Y-31967D01*
X47054Y-31917D01*
X47098Y-31852D01*
X47103Y-31825D01*
X47144Y-31825D01*
X47160Y-31825D01*
X47222Y-31887D01*
X47314Y-31925D01*
X47331Y-31925D01*
X47393Y-31863D01*
X47393Y-31469D01*
X47382Y-31469D01*
X47382Y-31369D01*
X47393Y-31369D01*
X47393Y-31361D01*
X47452Y-31361D01*
X47452Y-31369D01*
X47669Y-31369D01*
X47732Y-31307D01*
X47732Y-31213D01*
X47732Y-31113D01*
X47694Y-31022D01*
X47623Y-30951D01*
X47549Y-30920D01*
X47699Y-30770D01*
X47857Y-30770D01*
X47876Y-30815D01*
X47918Y-30857D01*
X47973Y-30880D01*
X48033Y-30880D01*
X48483Y-30880D01*
X48538Y-30857D01*
X48580Y-30815D01*
X48599Y-30770D01*
X49038Y-30770D01*
X49057Y-30815D01*
X49099Y-30857D01*
X49154Y-30880D01*
X49195Y-30880D01*
X49189Y-30910D01*
X49189Y-30930D01*
X49154Y-30930D01*
X49099Y-30953D01*
X49057Y-30995D01*
X49034Y-31050D01*
X49034Y-31110D01*
X49034Y-31430D01*
X49057Y-31485D01*
X49099Y-31527D01*
X49154Y-31550D01*
X49189Y-31550D01*
X49189Y-31570D01*
X49206Y-31654D01*
X49253Y-31726D01*
X49325Y-31773D01*
X49398Y-31788D01*
X49445Y-31835D01*
G54D10*
G36*
X52192Y-37035D02*
X51852Y-37035D01*
X51852Y-33025D01*
X51852Y-32927D01*
X51790Y-32865D01*
X51427Y-32865D01*
X51427Y-33162D01*
X51490Y-33225D01*
X51553Y-33225D01*
X51652Y-33225D01*
X51744Y-33187D01*
X51814Y-33116D01*
X51852Y-33025D01*
X51852Y-37035D01*
X48552Y-37035D01*
X48552Y-36674D01*
X48169Y-36291D01*
X47786Y-36674D01*
X47825Y-36779D01*
X48065Y-36868D01*
X48321Y-36858D01*
X48513Y-36779D01*
X48552Y-36674D01*
X48552Y-37035D01*
X45552Y-37035D01*
X45552Y-36674D01*
X45169Y-36291D01*
X44786Y-36674D01*
X44825Y-36779D01*
X45065Y-36868D01*
X45321Y-36858D01*
X45513Y-36779D01*
X45552Y-36674D01*
X45552Y-37035D01*
X38752Y-37035D01*
X38752Y-29500D01*
X43493Y-29500D01*
X43438Y-29536D01*
X43305Y-29669D01*
X43052Y-29669D01*
X42997Y-29692D01*
X42954Y-29734D01*
X42932Y-29790D01*
X42932Y-29849D01*
X42932Y-30108D01*
X42862Y-30154D01*
X42756Y-30260D01*
X42708Y-30332D01*
X42691Y-30416D01*
X42691Y-31065D01*
X42708Y-31149D01*
X42756Y-31220D01*
X42781Y-31246D01*
X42781Y-31283D01*
X42776Y-31295D01*
X42776Y-31355D01*
X42776Y-31855D01*
X42781Y-31867D01*
X42781Y-32460D01*
X42775Y-32445D01*
X42669Y-32339D01*
X42531Y-32282D01*
X42382Y-32282D01*
X42244Y-32339D01*
X42146Y-32437D01*
X42089Y-32437D01*
X42005Y-32453D01*
X41934Y-32501D01*
X40448Y-33987D01*
X40400Y-34058D01*
X40384Y-34142D01*
X40384Y-36691D01*
X40400Y-36775D01*
X40448Y-36846D01*
X40541Y-36939D01*
X40612Y-36987D01*
X40612Y-36987D01*
X40697Y-37004D01*
X42487Y-37004D01*
X42571Y-36987D01*
X42571Y-36987D01*
X42643Y-36939D01*
X42889Y-36692D01*
X43060Y-36763D01*
X43276Y-36764D01*
X43476Y-36681D01*
X43629Y-36528D01*
X43669Y-36433D01*
X43708Y-36527D01*
X43861Y-36680D01*
X44060Y-36763D01*
X44276Y-36764D01*
X44476Y-36681D01*
X44605Y-36552D01*
X44610Y-36564D01*
X44715Y-36603D01*
X45098Y-36220D01*
X44715Y-35837D01*
X44610Y-35876D01*
X44606Y-35888D01*
X44477Y-35759D01*
X44277Y-35677D01*
X44061Y-35676D01*
X43861Y-35759D01*
X43708Y-35912D01*
X43669Y-36007D01*
X43630Y-35913D01*
X43477Y-35759D01*
X43330Y-35698D01*
X43330Y-35487D01*
X43365Y-35487D01*
X43420Y-35464D01*
X43462Y-35422D01*
X43485Y-35367D01*
X43485Y-35307D01*
X43485Y-34987D01*
X43462Y-34932D01*
X43429Y-34899D01*
X43476Y-34879D01*
X43547Y-34809D01*
X43585Y-34717D01*
X43585Y-34620D01*
X43522Y-34557D01*
X43572Y-34557D01*
X44468Y-35453D01*
X44533Y-35496D01*
X44533Y-35496D01*
X44546Y-35499D01*
X44610Y-35512D01*
X44912Y-35512D01*
X44987Y-35587D01*
X44996Y-35590D01*
X44825Y-35661D01*
X44786Y-35766D01*
X45169Y-36149D01*
X45174Y-36144D01*
X45245Y-36214D01*
X45240Y-36220D01*
X45622Y-36603D01*
X45727Y-36564D01*
X45732Y-36552D01*
X45861Y-36680D01*
X46060Y-36763D01*
X46276Y-36764D01*
X46476Y-36681D01*
X46629Y-36528D01*
X46669Y-36433D01*
X46708Y-36527D01*
X46861Y-36680D01*
X47060Y-36763D01*
X47276Y-36764D01*
X47476Y-36681D01*
X47605Y-36552D01*
X47610Y-36564D01*
X47715Y-36603D01*
X48098Y-36220D01*
X47715Y-35837D01*
X47610Y-35876D01*
X47606Y-35888D01*
X47477Y-35759D01*
X47277Y-35677D01*
X47061Y-35676D01*
X46861Y-35759D01*
X46708Y-35912D01*
X46669Y-36007D01*
X46630Y-35913D01*
X46477Y-35759D01*
X46369Y-35715D01*
X46369Y-34163D01*
X46356Y-34099D01*
X46354Y-34086D01*
X46354Y-34086D01*
X46310Y-34021D01*
X46310Y-34021D01*
X44331Y-32042D01*
X44331Y-32025D01*
X44381Y-32075D01*
X44406Y-32075D01*
X44452Y-32056D01*
X44499Y-32103D01*
X44528Y-32146D01*
X44592Y-32189D01*
X44669Y-32204D01*
X44984Y-32204D01*
X45060Y-32189D01*
X45125Y-32146D01*
X45251Y-32020D01*
X45391Y-32020D01*
X45391Y-32032D01*
X45453Y-32095D01*
X45816Y-32095D01*
X45816Y-32087D01*
X45916Y-32087D01*
X45916Y-32095D01*
X45924Y-32095D01*
X45924Y-32195D01*
X45916Y-32195D01*
X45916Y-32203D01*
X45816Y-32203D01*
X45816Y-32195D01*
X45453Y-32195D01*
X45391Y-32257D01*
X45391Y-32355D01*
X45429Y-32446D01*
X45499Y-32517D01*
X45547Y-32537D01*
X45513Y-32570D01*
X45491Y-32625D01*
X45491Y-32685D01*
X45491Y-33005D01*
X45513Y-33060D01*
X45556Y-33102D01*
X45611Y-33125D01*
X45666Y-33125D01*
X45666Y-33125D01*
X45681Y-33201D01*
X45724Y-33266D01*
X45789Y-33310D01*
X45866Y-33325D01*
X46457Y-33325D01*
X46454Y-33333D01*
X46454Y-33393D01*
X46454Y-33905D01*
X46477Y-33960D01*
X46519Y-34002D01*
X46574Y-34025D01*
X46634Y-34025D01*
X46718Y-34025D01*
X46718Y-34025D01*
X46733Y-34102D01*
X46776Y-34167D01*
X47279Y-34670D01*
X47279Y-34670D01*
X47344Y-34713D01*
X47344Y-34713D01*
X47357Y-34716D01*
X47421Y-34728D01*
X47504Y-34728D01*
X47579Y-34804D01*
X47699Y-34853D01*
X47828Y-34853D01*
X47948Y-34804D01*
X48039Y-34713D01*
X48089Y-34593D01*
X48089Y-34464D01*
X48040Y-34344D01*
X47948Y-34253D01*
X47829Y-34203D01*
X47699Y-34203D01*
X47580Y-34253D01*
X47504Y-34328D01*
X47504Y-34328D01*
X47201Y-34025D01*
X47262Y-34025D01*
X47300Y-34009D01*
X47339Y-34025D01*
X47399Y-34025D01*
X47517Y-34025D01*
X47572Y-34002D01*
X47614Y-33960D01*
X47637Y-33905D01*
X47637Y-33845D01*
X47637Y-33674D01*
X47648Y-33619D01*
X47648Y-33365D01*
X48228Y-33365D01*
X48312Y-33348D01*
X48383Y-33300D01*
X48431Y-33229D01*
X48448Y-33145D01*
X48448Y-33125D01*
X48483Y-33125D01*
X48538Y-33102D01*
X48580Y-33060D01*
X48590Y-33035D01*
X48623Y-33035D01*
X48707Y-33018D01*
X48707Y-33018D01*
X48779Y-32970D01*
X48836Y-32913D01*
X49034Y-32913D01*
X49034Y-33005D01*
X49057Y-33060D01*
X49099Y-33102D01*
X49154Y-33125D01*
X49214Y-33125D01*
X49664Y-33125D01*
X49719Y-33102D01*
X49761Y-33060D01*
X49784Y-33005D01*
X49784Y-32945D01*
X49784Y-32687D01*
X49784Y-32687D01*
X49853Y-32640D01*
X49961Y-32533D01*
X49961Y-32533D01*
X49984Y-32497D01*
X50008Y-32462D01*
X50008Y-32462D01*
X50025Y-32377D01*
X50025Y-32377D01*
X50025Y-32258D01*
X50059Y-32292D01*
X50197Y-32350D01*
X50346Y-32350D01*
X50484Y-32293D01*
X50590Y-32187D01*
X50647Y-32050D01*
X50647Y-31900D01*
X50590Y-31763D01*
X50551Y-31723D01*
X50596Y-31654D01*
X50596Y-31654D01*
X50613Y-31570D01*
X50613Y-31570D01*
X50613Y-31550D01*
X50648Y-31550D01*
X50703Y-31527D01*
X50745Y-31485D01*
X50768Y-31430D01*
X50768Y-31370D01*
X50768Y-31130D01*
X51002Y-31130D01*
X51002Y-31430D01*
X51025Y-31485D01*
X51067Y-31527D01*
X51123Y-31550D01*
X51177Y-31550D01*
X51177Y-31835D01*
X51123Y-31835D01*
X51067Y-31858D01*
X51025Y-31900D01*
X51002Y-31955D01*
X51002Y-32015D01*
X51002Y-32311D01*
X50999Y-32314D01*
X50027Y-33285D01*
X49984Y-33350D01*
X49969Y-33426D01*
X49969Y-35715D01*
X49861Y-35759D01*
X49708Y-35912D01*
X49669Y-36007D01*
X49630Y-35913D01*
X49477Y-35759D01*
X49277Y-35677D01*
X49061Y-35676D01*
X48861Y-35759D01*
X48732Y-35888D01*
X48727Y-35876D01*
X48622Y-35837D01*
X48552Y-35908D01*
X48552Y-35766D01*
X48513Y-35661D01*
X48273Y-35572D01*
X48017Y-35582D01*
X47825Y-35661D01*
X47786Y-35766D01*
X48169Y-36149D01*
X48552Y-35766D01*
X48552Y-35908D01*
X48240Y-36220D01*
X48622Y-36603D01*
X48727Y-36564D01*
X48732Y-36552D01*
X48861Y-36680D01*
X49060Y-36763D01*
X49276Y-36764D01*
X49476Y-36681D01*
X49629Y-36528D01*
X49669Y-36433D01*
X49708Y-36527D01*
X49861Y-36680D01*
X50060Y-36763D01*
X50276Y-36764D01*
X50476Y-36681D01*
X50629Y-36528D01*
X50712Y-36329D01*
X50712Y-36112D01*
X50630Y-35913D01*
X50477Y-35759D01*
X50369Y-35715D01*
X50369Y-33509D01*
X50902Y-32975D01*
X50902Y-33025D01*
X50941Y-33116D01*
X51011Y-33187D01*
X51103Y-33225D01*
X51202Y-33225D01*
X51265Y-33225D01*
X51327Y-33162D01*
X51327Y-32865D01*
X51320Y-32865D01*
X51320Y-32765D01*
X51327Y-32765D01*
X51327Y-32757D01*
X51427Y-32757D01*
X51427Y-32765D01*
X51790Y-32765D01*
X51852Y-32702D01*
X51852Y-32605D01*
X51814Y-32513D01*
X51744Y-32443D01*
X51696Y-32423D01*
X51730Y-32390D01*
X51752Y-32335D01*
X51752Y-32275D01*
X51752Y-31955D01*
X51730Y-31900D01*
X51687Y-31858D01*
X51632Y-31835D01*
X51577Y-31835D01*
X51577Y-31550D01*
X51632Y-31550D01*
X51687Y-31527D01*
X51730Y-31485D01*
X51752Y-31430D01*
X51752Y-31370D01*
X51752Y-31117D01*
X51774Y-31113D01*
X51774Y-31113D01*
X51845Y-31065D01*
X51928Y-30982D01*
X51976Y-30911D01*
X51976Y-30911D01*
X51993Y-30827D01*
X51993Y-30827D01*
X51993Y-30312D01*
X51976Y-30228D01*
X51976Y-30228D01*
X51928Y-30157D01*
X51637Y-29866D01*
X51566Y-29818D01*
X51482Y-29802D01*
X47007Y-29802D01*
X46923Y-29818D01*
X46851Y-29866D01*
X46616Y-30102D01*
X46616Y-30052D01*
X46616Y-29827D01*
X46616Y-29752D01*
X46578Y-29660D01*
X46507Y-29590D01*
X46416Y-29551D01*
X46316Y-29551D01*
X46281Y-29551D01*
X46219Y-29614D01*
X46219Y-29889D01*
X46553Y-29889D01*
X46616Y-29827D01*
X46616Y-30052D01*
X46553Y-29989D01*
X46219Y-29989D01*
X46219Y-29997D01*
X46119Y-29997D01*
X46119Y-29989D01*
X46119Y-29889D01*
X46119Y-29614D01*
X46056Y-29551D01*
X46022Y-29551D01*
X45922Y-29551D01*
X45830Y-29590D01*
X45760Y-29660D01*
X45722Y-29752D01*
X45722Y-29827D01*
X45784Y-29889D01*
X46119Y-29889D01*
X46119Y-29989D01*
X45784Y-29989D01*
X45759Y-30015D01*
X45281Y-29536D01*
X45226Y-29500D01*
X52192Y-29500D01*
X52192Y-37035D01*
X52192Y-37035D01*
G37*
G54D20*
X52192Y-37035D02*
X51852Y-37035D01*
X51852Y-33025D01*
X51852Y-32927D01*
X51790Y-32865D01*
X51427Y-32865D01*
X51427Y-33162D01*
X51490Y-33225D01*
X51553Y-33225D01*
X51652Y-33225D01*
X51744Y-33187D01*
X51814Y-33116D01*
X51852Y-33025D01*
X51852Y-37035D01*
X48552Y-37035D01*
X48552Y-36674D01*
X48169Y-36291D01*
X47786Y-36674D01*
X47825Y-36779D01*
X48065Y-36868D01*
X48321Y-36858D01*
X48513Y-36779D01*
X48552Y-36674D01*
X48552Y-37035D01*
X45552Y-37035D01*
X45552Y-36674D01*
X45169Y-36291D01*
X44786Y-36674D01*
X44825Y-36779D01*
X45065Y-36868D01*
X45321Y-36858D01*
X45513Y-36779D01*
X45552Y-36674D01*
X45552Y-37035D01*
X38752Y-37035D01*
X38752Y-29500D01*
X43493Y-29500D01*
X43438Y-29536D01*
X43305Y-29669D01*
X43052Y-29669D01*
X42997Y-29692D01*
X42954Y-29734D01*
X42932Y-29790D01*
X42932Y-29849D01*
X42932Y-30108D01*
X42862Y-30154D01*
X42756Y-30260D01*
X42708Y-30332D01*
X42691Y-30416D01*
X42691Y-31065D01*
X42708Y-31149D01*
X42756Y-31220D01*
X42781Y-31246D01*
X42781Y-31283D01*
X42776Y-31295D01*
X42776Y-31355D01*
X42776Y-31855D01*
X42781Y-31867D01*
X42781Y-32460D01*
X42775Y-32445D01*
X42669Y-32339D01*
X42531Y-32282D01*
X42382Y-32282D01*
X42244Y-32339D01*
X42146Y-32437D01*
X42089Y-32437D01*
X42005Y-32453D01*
X41934Y-32501D01*
X40448Y-33987D01*
X40400Y-34058D01*
X40384Y-34142D01*
X40384Y-36691D01*
X40400Y-36775D01*
X40448Y-36846D01*
X40541Y-36939D01*
X40612Y-36987D01*
X40612Y-36987D01*
X40697Y-37004D01*
X42487Y-37004D01*
X42571Y-36987D01*
X42571Y-36987D01*
X42643Y-36939D01*
X42889Y-36692D01*
X43060Y-36763D01*
X43276Y-36764D01*
X43476Y-36681D01*
X43629Y-36528D01*
X43669Y-36433D01*
X43708Y-36527D01*
X43861Y-36680D01*
X44060Y-36763D01*
X44276Y-36764D01*
X44476Y-36681D01*
X44605Y-36552D01*
X44610Y-36564D01*
X44715Y-36603D01*
X45098Y-36220D01*
X44715Y-35837D01*
X44610Y-35876D01*
X44606Y-35888D01*
X44477Y-35759D01*
X44277Y-35677D01*
X44061Y-35676D01*
X43861Y-35759D01*
X43708Y-35912D01*
X43669Y-36007D01*
X43630Y-35913D01*
X43477Y-35759D01*
X43330Y-35698D01*
X43330Y-35487D01*
X43365Y-35487D01*
X43420Y-35464D01*
X43462Y-35422D01*
X43485Y-35367D01*
X43485Y-35307D01*
X43485Y-34987D01*
X43462Y-34932D01*
X43429Y-34899D01*
X43476Y-34879D01*
X43547Y-34809D01*
X43585Y-34717D01*
X43585Y-34620D01*
X43522Y-34557D01*
X43572Y-34557D01*
X44468Y-35453D01*
X44533Y-35496D01*
X44533Y-35496D01*
X44546Y-35499D01*
X44610Y-35512D01*
X44912Y-35512D01*
X44987Y-35587D01*
X44996Y-35590D01*
X44825Y-35661D01*
X44786Y-35766D01*
X45169Y-36149D01*
X45174Y-36144D01*
X45245Y-36214D01*
X45240Y-36220D01*
X45622Y-36603D01*
X45727Y-36564D01*
X45732Y-36552D01*
X45861Y-36680D01*
X46060Y-36763D01*
X46276Y-36764D01*
X46476Y-36681D01*
X46629Y-36528D01*
X46669Y-36433D01*
X46708Y-36527D01*
X46861Y-36680D01*
X47060Y-36763D01*
X47276Y-36764D01*
X47476Y-36681D01*
X47605Y-36552D01*
X47610Y-36564D01*
X47715Y-36603D01*
X48098Y-36220D01*
X47715Y-35837D01*
X47610Y-35876D01*
X47606Y-35888D01*
X47477Y-35759D01*
X47277Y-35677D01*
X47061Y-35676D01*
X46861Y-35759D01*
X46708Y-35912D01*
X46669Y-36007D01*
X46630Y-35913D01*
X46477Y-35759D01*
X46369Y-35715D01*
X46369Y-34163D01*
X46356Y-34099D01*
X46354Y-34086D01*
X46354Y-34086D01*
X46310Y-34021D01*
X46310Y-34021D01*
X44331Y-32042D01*
X44331Y-32025D01*
X44381Y-32075D01*
X44406Y-32075D01*
X44452Y-32056D01*
X44499Y-32103D01*
X44528Y-32146D01*
X44592Y-32189D01*
X44669Y-32204D01*
X44984Y-32204D01*
X45060Y-32189D01*
X45125Y-32146D01*
X45251Y-32020D01*
X45391Y-32020D01*
X45391Y-32032D01*
X45453Y-32095D01*
X45816Y-32095D01*
X45816Y-32087D01*
X45916Y-32087D01*
X45916Y-32095D01*
X45924Y-32095D01*
X45924Y-32195D01*
X45916Y-32195D01*
X45916Y-32203D01*
X45816Y-32203D01*
X45816Y-32195D01*
X45453Y-32195D01*
X45391Y-32257D01*
X45391Y-32355D01*
X45429Y-32446D01*
X45499Y-32517D01*
X45547Y-32537D01*
X45513Y-32570D01*
X45491Y-32625D01*
X45491Y-32685D01*
X45491Y-33005D01*
X45513Y-33060D01*
X45556Y-33102D01*
X45611Y-33125D01*
X45666Y-33125D01*
X45666Y-33125D01*
X45681Y-33201D01*
X45724Y-33266D01*
X45789Y-33310D01*
X45866Y-33325D01*
X46457Y-33325D01*
X46454Y-33333D01*
X46454Y-33393D01*
X46454Y-33905D01*
X46477Y-33960D01*
X46519Y-34002D01*
X46574Y-34025D01*
X46634Y-34025D01*
X46718Y-34025D01*
X46718Y-34025D01*
X46733Y-34102D01*
X46776Y-34167D01*
X47279Y-34670D01*
X47279Y-34670D01*
X47344Y-34713D01*
X47344Y-34713D01*
X47357Y-34716D01*
X47421Y-34728D01*
X47504Y-34728D01*
X47579Y-34804D01*
X47699Y-34853D01*
X47828Y-34853D01*
X47948Y-34804D01*
X48039Y-34713D01*
X48089Y-34593D01*
X48089Y-34464D01*
X48040Y-34344D01*
X47948Y-34253D01*
X47829Y-34203D01*
X47699Y-34203D01*
X47580Y-34253D01*
X47504Y-34328D01*
X47504Y-34328D01*
X47201Y-34025D01*
X47262Y-34025D01*
X47300Y-34009D01*
X47339Y-34025D01*
X47399Y-34025D01*
X47517Y-34025D01*
X47572Y-34002D01*
X47614Y-33960D01*
X47637Y-33905D01*
X47637Y-33845D01*
X47637Y-33674D01*
X47648Y-33619D01*
X47648Y-33365D01*
X48228Y-33365D01*
X48312Y-33348D01*
X48383Y-33300D01*
X48431Y-33229D01*
X48448Y-33145D01*
X48448Y-33125D01*
X48483Y-33125D01*
X48538Y-33102D01*
X48580Y-33060D01*
X48590Y-33035D01*
X48623Y-33035D01*
X48707Y-33018D01*
X48707Y-33018D01*
X48779Y-32970D01*
X48836Y-32913D01*
X49034Y-32913D01*
X49034Y-33005D01*
X49057Y-33060D01*
X49099Y-33102D01*
X49154Y-33125D01*
X49214Y-33125D01*
X49664Y-33125D01*
X49719Y-33102D01*
X49761Y-33060D01*
X49784Y-33005D01*
X49784Y-32945D01*
X49784Y-32687D01*
X49784Y-32687D01*
X49853Y-32640D01*
X49961Y-32533D01*
X49961Y-32533D01*
X49984Y-32497D01*
X50008Y-32462D01*
X50008Y-32462D01*
X50025Y-32377D01*
X50025Y-32377D01*
X50025Y-32258D01*
X50059Y-32292D01*
X50197Y-32350D01*
X50346Y-32350D01*
X50484Y-32293D01*
X50590Y-32187D01*
X50647Y-32050D01*
X50647Y-31900D01*
X50590Y-31763D01*
X50551Y-31723D01*
X50596Y-31654D01*
X50596Y-31654D01*
X50613Y-31570D01*
X50613Y-31570D01*
X50613Y-31550D01*
X50648Y-31550D01*
X50703Y-31527D01*
X50745Y-31485D01*
X50768Y-31430D01*
X50768Y-31370D01*
X50768Y-31130D01*
X51002Y-31130D01*
X51002Y-31430D01*
X51025Y-31485D01*
X51067Y-31527D01*
X51123Y-31550D01*
X51177Y-31550D01*
X51177Y-31835D01*
X51123Y-31835D01*
X51067Y-31858D01*
X51025Y-31900D01*
X51002Y-31955D01*
X51002Y-32015D01*
X51002Y-32311D01*
X50999Y-32314D01*
X50027Y-33285D01*
X49984Y-33350D01*
X49969Y-33426D01*
X49969Y-35715D01*
X49861Y-35759D01*
X49708Y-35912D01*
X49669Y-36007D01*
X49630Y-35913D01*
X49477Y-35759D01*
X49277Y-35677D01*
X49061Y-35676D01*
X48861Y-35759D01*
X48732Y-35888D01*
X48727Y-35876D01*
X48622Y-35837D01*
X48552Y-35908D01*
X48552Y-35766D01*
X48513Y-35661D01*
X48273Y-35572D01*
X48017Y-35582D01*
X47825Y-35661D01*
X47786Y-35766D01*
X48169Y-36149D01*
X48552Y-35766D01*
X48552Y-35908D01*
X48240Y-36220D01*
X48622Y-36603D01*
X48727Y-36564D01*
X48732Y-36552D01*
X48861Y-36680D01*
X49060Y-36763D01*
X49276Y-36764D01*
X49476Y-36681D01*
X49629Y-36528D01*
X49669Y-36433D01*
X49708Y-36527D01*
X49861Y-36680D01*
X50060Y-36763D01*
X50276Y-36764D01*
X50476Y-36681D01*
X50629Y-36528D01*
X50712Y-36329D01*
X50712Y-36112D01*
X50630Y-35913D01*
X50477Y-35759D01*
X50369Y-35715D01*
X50369Y-33509D01*
X50902Y-32975D01*
X50902Y-33025D01*
X50941Y-33116D01*
X51011Y-33187D01*
X51103Y-33225D01*
X51202Y-33225D01*
X51265Y-33225D01*
X51327Y-33162D01*
X51327Y-32865D01*
X51320Y-32865D01*
X51320Y-32765D01*
X51327Y-32765D01*
X51327Y-32757D01*
X51427Y-32757D01*
X51427Y-32765D01*
X51790Y-32765D01*
X51852Y-32702D01*
X51852Y-32605D01*
X51814Y-32513D01*
X51744Y-32443D01*
X51696Y-32423D01*
X51730Y-32390D01*
X51752Y-32335D01*
X51752Y-32275D01*
X51752Y-31955D01*
X51730Y-31900D01*
X51687Y-31858D01*
X51632Y-31835D01*
X51577Y-31835D01*
X51577Y-31550D01*
X51632Y-31550D01*
X51687Y-31527D01*
X51730Y-31485D01*
X51752Y-31430D01*
X51752Y-31370D01*
X51752Y-31117D01*
X51774Y-31113D01*
X51774Y-31113D01*
X51845Y-31065D01*
X51928Y-30982D01*
X51976Y-30911D01*
X51976Y-30911D01*
X51993Y-30827D01*
X51993Y-30827D01*
X51993Y-30312D01*
X51976Y-30228D01*
X51976Y-30228D01*
X51928Y-30157D01*
X51637Y-29866D01*
X51566Y-29818D01*
X51482Y-29802D01*
X47007Y-29802D01*
X46923Y-29818D01*
X46851Y-29866D01*
X46616Y-30102D01*
X46616Y-30052D01*
X46616Y-29827D01*
X46616Y-29752D01*
X46578Y-29660D01*
X46507Y-29590D01*
X46416Y-29551D01*
X46316Y-29551D01*
X46281Y-29551D01*
X46219Y-29614D01*
X46219Y-29889D01*
X46553Y-29889D01*
X46616Y-29827D01*
X46616Y-30052D01*
X46553Y-29989D01*
X46219Y-29989D01*
X46219Y-29997D01*
X46119Y-29997D01*
X46119Y-29989D01*
X46119Y-29889D01*
X46119Y-29614D01*
X46056Y-29551D01*
X46022Y-29551D01*
X45922Y-29551D01*
X45830Y-29590D01*
X45760Y-29660D01*
X45722Y-29752D01*
X45722Y-29827D01*
X45784Y-29889D01*
X46119Y-29889D01*
X46119Y-29989D01*
X45784Y-29989D01*
X45759Y-30015D01*
X45281Y-29536D01*
X45226Y-29500D01*
X52192Y-29500D01*
X52192Y-37035D01*
M02*
