%FSLAX34Y34*%
G04 Gerber Fmt 3.4, Leading zero omitted, Abs format*
G04 (created by PCBNEW (2014-02-02 BZR 4653)-product) date 2014-02-04 11:29:01 PM*
%MOIN*%
G01*
G70*
G90*
G04 APERTURE LIST*
%ADD10C,0.005906*%
%ADD11C,0.007500*%
%ADD12C,0.006000*%
%ADD13C,0.008000*%
%ADD14C,0.002600*%
%ADD15C,0.010000*%
%ADD16C,0.006250*%
%ADD17C,0.006300*%
%ADD18R,0.051200X0.011800*%
%ADD19R,0.031400X0.015700*%
%ADD20R,0.032000X0.045000*%
%ADD21R,0.078700X0.078700*%
%ADD22C,0.078700*%
G04 APERTURE END LIST*
G54D10*
G54D11*
X41465Y-35461D02*
X41160Y-35461D01*
X41313Y-35614D02*
X41313Y-35309D01*
X41027Y-35214D02*
X40894Y-35614D01*
X40760Y-35214D01*
X43434Y-35461D02*
X43129Y-35461D01*
X42995Y-35214D02*
X42862Y-35614D01*
X42729Y-35214D01*
G54D12*
X44512Y-35257D02*
X44451Y-35257D01*
X44421Y-35273D01*
X44391Y-35303D01*
X44375Y-35364D01*
X44375Y-35471D01*
X44391Y-35532D01*
X44421Y-35562D01*
X44451Y-35577D01*
X44512Y-35577D01*
X44543Y-35562D01*
X44573Y-35532D01*
X44589Y-35471D01*
X44589Y-35364D01*
X44573Y-35303D01*
X44543Y-35273D01*
X44512Y-35257D01*
X44238Y-35257D02*
X44238Y-35516D01*
X44223Y-35547D01*
X44208Y-35562D01*
X44177Y-35577D01*
X44116Y-35577D01*
X44086Y-35562D01*
X44071Y-35547D01*
X44055Y-35516D01*
X44055Y-35257D01*
X43949Y-35257D02*
X43766Y-35257D01*
X43857Y-35577D02*
X43857Y-35257D01*
X50516Y-35174D02*
X50547Y-35159D01*
X50593Y-35159D01*
X50638Y-35174D01*
X50669Y-35205D01*
X50684Y-35235D01*
X50699Y-35296D01*
X50699Y-35342D01*
X50684Y-35403D01*
X50669Y-35433D01*
X50638Y-35464D01*
X50593Y-35479D01*
X50562Y-35479D01*
X50516Y-35464D01*
X50501Y-35448D01*
X50501Y-35342D01*
X50562Y-35342D01*
X50379Y-35387D02*
X50227Y-35387D01*
X50410Y-35479D02*
X50303Y-35159D01*
X50196Y-35479D01*
X50135Y-35159D02*
X49953Y-35159D01*
X50044Y-35479D02*
X50044Y-35159D01*
X49846Y-35311D02*
X49739Y-35311D01*
X49693Y-35479D02*
X49846Y-35479D01*
X49846Y-35159D01*
X49693Y-35159D01*
G54D11*
X49209Y-35401D02*
X49018Y-35401D01*
X49247Y-35515D02*
X49114Y-35115D01*
X48980Y-35515D01*
X47021Y-35515D02*
X47155Y-35325D01*
X47250Y-35515D02*
X47250Y-35115D01*
X47098Y-35115D01*
X47059Y-35134D01*
X47040Y-35153D01*
X47021Y-35191D01*
X47021Y-35248D01*
X47040Y-35287D01*
X47059Y-35306D01*
X47098Y-35325D01*
X47250Y-35325D01*
X46275Y-35496D02*
X46218Y-35515D01*
X46123Y-35515D01*
X46085Y-35496D01*
X46066Y-35477D01*
X46047Y-35439D01*
X46047Y-35401D01*
X46066Y-35363D01*
X46085Y-35344D01*
X46123Y-35325D01*
X46199Y-35306D01*
X46237Y-35287D01*
X46256Y-35267D01*
X46275Y-35229D01*
X46275Y-35191D01*
X46256Y-35153D01*
X46237Y-35134D01*
X46199Y-35115D01*
X46104Y-35115D01*
X46047Y-35134D01*
X42230Y-35614D02*
X42230Y-35214D01*
X42135Y-35214D01*
X42078Y-35233D01*
X42040Y-35271D01*
X42021Y-35309D01*
X42002Y-35385D01*
X42002Y-35442D01*
X42021Y-35518D01*
X42040Y-35556D01*
X42078Y-35594D01*
X42135Y-35614D01*
X42230Y-35614D01*
G54D13*
X43022Y-33627D02*
X43022Y-31727D01*
X43022Y-31727D02*
X41622Y-31727D01*
X41622Y-31727D02*
X41622Y-33627D01*
X41622Y-33627D02*
X43022Y-33627D01*
X42022Y-33377D02*
G75*
G03X42022Y-33377I-150J0D01*
G74*
G01*
G54D14*
X46889Y-33150D02*
X46889Y-33268D01*
X46889Y-33268D02*
X46692Y-33268D01*
X46692Y-33150D02*
X46692Y-33268D01*
X46889Y-33150D02*
X46692Y-33150D01*
X46889Y-33405D02*
X46889Y-33523D01*
X46889Y-33523D02*
X46692Y-33523D01*
X46692Y-33405D02*
X46692Y-33523D01*
X46889Y-33405D02*
X46692Y-33405D01*
X46889Y-33660D02*
X46889Y-33778D01*
X46889Y-33778D02*
X46692Y-33778D01*
X46692Y-33660D02*
X46692Y-33778D01*
X46889Y-33660D02*
X46692Y-33660D01*
X46220Y-33660D02*
X46220Y-33778D01*
X46220Y-33778D02*
X46023Y-33778D01*
X46023Y-33660D02*
X46023Y-33778D01*
X46220Y-33660D02*
X46023Y-33660D01*
X46220Y-33405D02*
X46220Y-33523D01*
X46220Y-33523D02*
X46023Y-33523D01*
X46023Y-33405D02*
X46023Y-33523D01*
X46220Y-33405D02*
X46023Y-33405D01*
X46220Y-33150D02*
X46220Y-33268D01*
X46220Y-33268D02*
X46023Y-33268D01*
X46023Y-33150D02*
X46023Y-33268D01*
X46220Y-33150D02*
X46023Y-33150D01*
G54D13*
X46240Y-33071D02*
X46240Y-33857D01*
X46240Y-33857D02*
X46672Y-33857D01*
X46672Y-33857D02*
X46672Y-33071D01*
X46672Y-33071D02*
X46240Y-33071D01*
G54D12*
X46595Y-33189D02*
G75*
G03X46595Y-33189I-41J0D01*
G74*
G01*
G54D14*
X46889Y-31772D02*
X46889Y-31890D01*
X46889Y-31890D02*
X46692Y-31890D01*
X46692Y-31772D02*
X46692Y-31890D01*
X46889Y-31772D02*
X46692Y-31772D01*
X46889Y-32027D02*
X46889Y-32145D01*
X46889Y-32145D02*
X46692Y-32145D01*
X46692Y-32027D02*
X46692Y-32145D01*
X46889Y-32027D02*
X46692Y-32027D01*
X46889Y-32282D02*
X46889Y-32400D01*
X46889Y-32400D02*
X46692Y-32400D01*
X46692Y-32282D02*
X46692Y-32400D01*
X46889Y-32282D02*
X46692Y-32282D01*
X46220Y-32282D02*
X46220Y-32400D01*
X46220Y-32400D02*
X46023Y-32400D01*
X46023Y-32282D02*
X46023Y-32400D01*
X46220Y-32282D02*
X46023Y-32282D01*
X46220Y-32027D02*
X46220Y-32145D01*
X46220Y-32145D02*
X46023Y-32145D01*
X46023Y-32027D02*
X46023Y-32145D01*
X46220Y-32027D02*
X46023Y-32027D01*
X46220Y-31772D02*
X46220Y-31890D01*
X46220Y-31890D02*
X46023Y-31890D01*
X46023Y-31772D02*
X46023Y-31890D01*
X46220Y-31772D02*
X46023Y-31772D01*
G54D13*
X46240Y-31693D02*
X46240Y-32479D01*
X46240Y-32479D02*
X46672Y-32479D01*
X46672Y-32479D02*
X46672Y-31693D01*
X46672Y-31693D02*
X46240Y-31693D01*
G54D12*
X46595Y-31811D02*
G75*
G03X46595Y-31811I-41J0D01*
G74*
G01*
G54D15*
X48267Y-34291D02*
X49370Y-34291D01*
X49370Y-34291D02*
X49370Y-35000D01*
X49370Y-35000D02*
X48267Y-35000D01*
X48267Y-35000D02*
X48267Y-34291D01*
X42677Y-35000D02*
X41574Y-35000D01*
X41574Y-35000D02*
X41574Y-34291D01*
X41574Y-34291D02*
X42677Y-34291D01*
X42677Y-34291D02*
X42677Y-35000D01*
X40314Y-35000D02*
X39212Y-35000D01*
X39212Y-35000D02*
X39212Y-34291D01*
X39212Y-34291D02*
X40314Y-34291D01*
X40314Y-34291D02*
X40314Y-35000D01*
X49370Y-34015D02*
X48267Y-34015D01*
X48267Y-34015D02*
X48267Y-33307D01*
X48267Y-33307D02*
X49370Y-33307D01*
X49370Y-33307D02*
X49370Y-34015D01*
X49370Y-33031D02*
X48267Y-33031D01*
X48267Y-33031D02*
X48267Y-32322D01*
X48267Y-32322D02*
X49370Y-32322D01*
X49370Y-32322D02*
X49370Y-33031D01*
X49370Y-32047D02*
X48267Y-32047D01*
X48267Y-32047D02*
X48267Y-31338D01*
X48267Y-31338D02*
X49370Y-31338D01*
X49370Y-31338D02*
X49370Y-32047D01*
X49370Y-31062D02*
X48267Y-31062D01*
X48267Y-31062D02*
X48267Y-30354D01*
X48267Y-30354D02*
X49370Y-30354D01*
X49370Y-30354D02*
X49370Y-31062D01*
X44645Y-35000D02*
X43543Y-35000D01*
X43543Y-35000D02*
X43543Y-34291D01*
X43543Y-34291D02*
X44645Y-34291D01*
X44645Y-34291D02*
X44645Y-35000D01*
X45905Y-34291D02*
X47007Y-34291D01*
X47007Y-34291D02*
X47007Y-35000D01*
X47007Y-35000D02*
X45905Y-35000D01*
X45905Y-35000D02*
X45905Y-34291D01*
X45905Y-30354D02*
X47007Y-30354D01*
X47007Y-30354D02*
X47007Y-31062D01*
X47007Y-31062D02*
X45905Y-31062D01*
X45905Y-31062D02*
X45905Y-30354D01*
X40314Y-31062D02*
X39212Y-31062D01*
X39212Y-31062D02*
X39212Y-30354D01*
X39212Y-30354D02*
X40314Y-30354D01*
X40314Y-30354D02*
X40314Y-31062D01*
X39212Y-32322D02*
X40314Y-32322D01*
X40314Y-32322D02*
X40314Y-33031D01*
X40314Y-33031D02*
X39212Y-33031D01*
X39212Y-33031D02*
X39212Y-32322D01*
X39212Y-33307D02*
X40314Y-33307D01*
X40314Y-33307D02*
X40314Y-34015D01*
X40314Y-34015D02*
X39212Y-34015D01*
X39212Y-34015D02*
X39212Y-33307D01*
X40314Y-32047D02*
X39212Y-32047D01*
X39212Y-32047D02*
X39212Y-31338D01*
X39212Y-31338D02*
X40314Y-31338D01*
X40314Y-31338D02*
X40314Y-32047D01*
X42677Y-31062D02*
X41574Y-31062D01*
X41574Y-31062D02*
X41574Y-30354D01*
X41574Y-30354D02*
X42677Y-30354D01*
X42677Y-30354D02*
X42677Y-31062D01*
X50748Y-35000D02*
X49645Y-35000D01*
X49645Y-35000D02*
X49645Y-34291D01*
X49645Y-34291D02*
X50748Y-34291D01*
X50748Y-34291D02*
X50748Y-35000D01*
X44645Y-31062D02*
X43543Y-31062D01*
X43543Y-31062D02*
X43543Y-30354D01*
X43543Y-30354D02*
X44645Y-30354D01*
X44645Y-30354D02*
X44645Y-31062D01*
G54D16*
X42453Y-31896D02*
X42696Y-31896D01*
X42725Y-31908D01*
X42739Y-31919D01*
X42753Y-31943D01*
X42753Y-31991D01*
X42739Y-32015D01*
X42725Y-32027D01*
X42696Y-32038D01*
X42453Y-32038D01*
X42453Y-32134D02*
X42453Y-32288D01*
X42568Y-32205D01*
X42568Y-32241D01*
X42582Y-32265D01*
X42596Y-32277D01*
X42625Y-32288D01*
X42696Y-32288D01*
X42725Y-32277D01*
X42739Y-32265D01*
X42753Y-32241D01*
X42753Y-32169D01*
X42739Y-32146D01*
X42725Y-32134D01*
G54D17*
G54D12*
X45746Y-33040D02*
X45730Y-33009D01*
X45700Y-32979D01*
X45654Y-32933D01*
X45639Y-32903D01*
X45639Y-32872D01*
X45715Y-32888D02*
X45700Y-32857D01*
X45669Y-32827D01*
X45608Y-32811D01*
X45502Y-32811D01*
X45441Y-32827D01*
X45410Y-32857D01*
X45395Y-32888D01*
X45395Y-32948D01*
X45410Y-32979D01*
X45441Y-33009D01*
X45502Y-33025D01*
X45608Y-33025D01*
X45669Y-33009D01*
X45700Y-32979D01*
X45715Y-32948D01*
X45715Y-32888D01*
X45395Y-33131D02*
X45395Y-33329D01*
X45517Y-33223D01*
X45517Y-33268D01*
X45532Y-33299D01*
X45548Y-33314D01*
X45578Y-33329D01*
X45654Y-33329D01*
X45685Y-33314D01*
X45700Y-33299D01*
X45715Y-33268D01*
X45715Y-33177D01*
X45700Y-33147D01*
X45685Y-33131D01*
X45746Y-31662D02*
X45730Y-31631D01*
X45700Y-31601D01*
X45654Y-31555D01*
X45639Y-31525D01*
X45639Y-31494D01*
X45715Y-31510D02*
X45700Y-31479D01*
X45669Y-31449D01*
X45608Y-31433D01*
X45502Y-31433D01*
X45441Y-31449D01*
X45410Y-31479D01*
X45395Y-31510D01*
X45395Y-31571D01*
X45410Y-31601D01*
X45441Y-31631D01*
X45502Y-31647D01*
X45608Y-31647D01*
X45669Y-31631D01*
X45700Y-31601D01*
X45715Y-31571D01*
X45715Y-31510D01*
X45426Y-31769D02*
X45410Y-31784D01*
X45395Y-31814D01*
X45395Y-31891D01*
X45410Y-31921D01*
X45426Y-31936D01*
X45456Y-31951D01*
X45487Y-31951D01*
X45532Y-31936D01*
X45715Y-31753D01*
X45715Y-31951D01*
X48140Y-34507D02*
X48025Y-34427D01*
X48140Y-34370D02*
X47900Y-34370D01*
X47900Y-34461D01*
X47911Y-34484D01*
X47922Y-34495D01*
X47945Y-34507D01*
X47980Y-34507D01*
X48002Y-34495D01*
X48014Y-34484D01*
X48025Y-34461D01*
X48025Y-34370D01*
X48140Y-34621D02*
X48140Y-34667D01*
X48128Y-34690D01*
X48117Y-34701D01*
X48082Y-34724D01*
X48037Y-34735D01*
X47945Y-34735D01*
X47922Y-34724D01*
X47911Y-34712D01*
X47900Y-34690D01*
X47900Y-34644D01*
X47911Y-34621D01*
X47922Y-34610D01*
X47945Y-34598D01*
X48002Y-34598D01*
X48025Y-34610D01*
X48037Y-34621D01*
X48048Y-34644D01*
X48048Y-34690D01*
X48037Y-34712D01*
X48025Y-34724D01*
X48002Y-34735D01*
X43021Y-34491D02*
X42907Y-34411D01*
X43021Y-34354D02*
X42781Y-34354D01*
X42781Y-34445D01*
X42793Y-34468D01*
X42804Y-34479D01*
X42827Y-34491D01*
X42861Y-34491D01*
X42884Y-34479D01*
X42896Y-34468D01*
X42907Y-34445D01*
X42907Y-34354D01*
X43021Y-34719D02*
X43021Y-34582D01*
X43021Y-34651D02*
X42781Y-34651D01*
X42816Y-34628D01*
X42839Y-34605D01*
X42850Y-34582D01*
X42861Y-34925D02*
X43021Y-34925D01*
X42770Y-34868D02*
X42941Y-34811D01*
X42941Y-34959D01*
X40659Y-34491D02*
X40545Y-34411D01*
X40659Y-34354D02*
X40419Y-34354D01*
X40419Y-34445D01*
X40431Y-34468D01*
X40442Y-34479D01*
X40465Y-34491D01*
X40499Y-34491D01*
X40522Y-34479D01*
X40534Y-34468D01*
X40545Y-34445D01*
X40545Y-34354D01*
X40659Y-34719D02*
X40659Y-34582D01*
X40659Y-34651D02*
X40419Y-34651D01*
X40454Y-34628D01*
X40476Y-34605D01*
X40488Y-34582D01*
X40522Y-34857D02*
X40511Y-34834D01*
X40499Y-34822D01*
X40476Y-34811D01*
X40465Y-34811D01*
X40442Y-34822D01*
X40431Y-34834D01*
X40419Y-34857D01*
X40419Y-34902D01*
X40431Y-34925D01*
X40442Y-34937D01*
X40465Y-34948D01*
X40476Y-34948D01*
X40499Y-34937D01*
X40511Y-34925D01*
X40522Y-34902D01*
X40522Y-34857D01*
X40534Y-34834D01*
X40545Y-34822D01*
X40568Y-34811D01*
X40614Y-34811D01*
X40636Y-34822D01*
X40648Y-34834D01*
X40659Y-34857D01*
X40659Y-34902D01*
X40648Y-34925D01*
X40636Y-34937D01*
X40614Y-34948D01*
X40568Y-34948D01*
X40545Y-34937D01*
X40534Y-34925D01*
X40522Y-34902D01*
X49714Y-33507D02*
X49600Y-33427D01*
X49714Y-33369D02*
X49474Y-33369D01*
X49474Y-33461D01*
X49486Y-33484D01*
X49497Y-33495D01*
X49520Y-33507D01*
X49554Y-33507D01*
X49577Y-33495D01*
X49589Y-33484D01*
X49600Y-33461D01*
X49600Y-33369D01*
X49714Y-33735D02*
X49714Y-33598D01*
X49714Y-33667D02*
X49474Y-33667D01*
X49509Y-33644D01*
X49532Y-33621D01*
X49543Y-33598D01*
X49474Y-33884D02*
X49474Y-33907D01*
X49486Y-33929D01*
X49497Y-33941D01*
X49520Y-33952D01*
X49566Y-33964D01*
X49623Y-33964D01*
X49669Y-33952D01*
X49692Y-33941D01*
X49703Y-33929D01*
X49714Y-33907D01*
X49714Y-33884D01*
X49703Y-33861D01*
X49692Y-33849D01*
X49669Y-33838D01*
X49623Y-33827D01*
X49566Y-33827D01*
X49520Y-33838D01*
X49497Y-33849D01*
X49486Y-33861D01*
X49474Y-33884D01*
X48140Y-32637D02*
X48025Y-32557D01*
X48140Y-32500D02*
X47900Y-32500D01*
X47900Y-32591D01*
X47911Y-32614D01*
X47922Y-32625D01*
X47945Y-32637D01*
X47980Y-32637D01*
X48002Y-32625D01*
X48014Y-32614D01*
X48025Y-32591D01*
X48025Y-32500D01*
X47900Y-32717D02*
X47900Y-32877D01*
X48140Y-32774D01*
X48140Y-31538D02*
X48025Y-31458D01*
X48140Y-31401D02*
X47900Y-31401D01*
X47900Y-31492D01*
X47911Y-31515D01*
X47922Y-31527D01*
X47945Y-31538D01*
X47980Y-31538D01*
X48002Y-31527D01*
X48014Y-31515D01*
X48025Y-31492D01*
X48025Y-31401D01*
X48140Y-31767D02*
X48140Y-31630D01*
X48140Y-31698D02*
X47900Y-31698D01*
X47934Y-31675D01*
X47957Y-31652D01*
X47968Y-31630D01*
X48140Y-31995D02*
X48140Y-31858D01*
X48140Y-31927D02*
X47900Y-31927D01*
X47934Y-31904D01*
X47957Y-31881D01*
X47968Y-31858D01*
X48140Y-30554D02*
X48025Y-30474D01*
X48140Y-30417D02*
X47900Y-30417D01*
X47900Y-30508D01*
X47911Y-30531D01*
X47922Y-30542D01*
X47945Y-30554D01*
X47980Y-30554D01*
X48002Y-30542D01*
X48014Y-30531D01*
X48025Y-30508D01*
X48025Y-30417D01*
X48140Y-30782D02*
X48140Y-30645D01*
X48140Y-30714D02*
X47900Y-30714D01*
X47934Y-30691D01*
X47957Y-30668D01*
X47968Y-30645D01*
X47922Y-30874D02*
X47911Y-30885D01*
X47900Y-30908D01*
X47900Y-30965D01*
X47911Y-30988D01*
X47922Y-31000D01*
X47945Y-31011D01*
X47968Y-31011D01*
X48002Y-31000D01*
X48140Y-30862D01*
X48140Y-31011D01*
X44990Y-34491D02*
X44876Y-34411D01*
X44990Y-34354D02*
X44750Y-34354D01*
X44750Y-34445D01*
X44761Y-34468D01*
X44773Y-34479D01*
X44796Y-34491D01*
X44830Y-34491D01*
X44853Y-34479D01*
X44864Y-34468D01*
X44876Y-34445D01*
X44876Y-34354D01*
X44773Y-34582D02*
X44761Y-34594D01*
X44750Y-34617D01*
X44750Y-34674D01*
X44761Y-34697D01*
X44773Y-34708D01*
X44796Y-34719D01*
X44819Y-34719D01*
X44853Y-34708D01*
X44990Y-34571D01*
X44990Y-34719D01*
X44990Y-34948D02*
X44990Y-34811D01*
X44990Y-34879D02*
X44750Y-34879D01*
X44784Y-34857D01*
X44807Y-34834D01*
X44819Y-34811D01*
X47329Y-34605D02*
X47341Y-34594D01*
X47352Y-34559D01*
X47352Y-34537D01*
X47341Y-34502D01*
X47318Y-34479D01*
X47295Y-34468D01*
X47249Y-34457D01*
X47215Y-34457D01*
X47169Y-34468D01*
X47146Y-34479D01*
X47124Y-34502D01*
X47112Y-34537D01*
X47112Y-34559D01*
X47124Y-34594D01*
X47135Y-34605D01*
X47112Y-34822D02*
X47112Y-34708D01*
X47226Y-34697D01*
X47215Y-34708D01*
X47204Y-34731D01*
X47204Y-34788D01*
X47215Y-34811D01*
X47226Y-34822D01*
X47249Y-34834D01*
X47306Y-34834D01*
X47329Y-34822D01*
X47341Y-34811D01*
X47352Y-34788D01*
X47352Y-34731D01*
X47341Y-34708D01*
X47329Y-34697D01*
X45777Y-30554D02*
X45663Y-30474D01*
X45777Y-30417D02*
X45537Y-30417D01*
X45537Y-30508D01*
X45549Y-30531D01*
X45560Y-30542D01*
X45583Y-30554D01*
X45617Y-30554D01*
X45640Y-30542D01*
X45652Y-30531D01*
X45663Y-30508D01*
X45663Y-30417D01*
X45777Y-30782D02*
X45777Y-30645D01*
X45777Y-30714D02*
X45537Y-30714D01*
X45572Y-30691D01*
X45595Y-30668D01*
X45606Y-30645D01*
X45537Y-31000D02*
X45537Y-30885D01*
X45652Y-30874D01*
X45640Y-30885D01*
X45629Y-30908D01*
X45629Y-30965D01*
X45640Y-30988D01*
X45652Y-31000D01*
X45675Y-31011D01*
X45732Y-31011D01*
X45755Y-31000D01*
X45766Y-30988D01*
X45777Y-30965D01*
X45777Y-30908D01*
X45766Y-30885D01*
X45755Y-30874D01*
X40659Y-30554D02*
X40545Y-30474D01*
X40659Y-30417D02*
X40419Y-30417D01*
X40419Y-30508D01*
X40431Y-30531D01*
X40442Y-30542D01*
X40465Y-30554D01*
X40499Y-30554D01*
X40522Y-30542D01*
X40534Y-30531D01*
X40545Y-30508D01*
X40545Y-30417D01*
X40659Y-30782D02*
X40659Y-30645D01*
X40659Y-30714D02*
X40419Y-30714D01*
X40454Y-30691D01*
X40476Y-30668D01*
X40488Y-30645D01*
X40419Y-30988D02*
X40419Y-30942D01*
X40431Y-30920D01*
X40442Y-30908D01*
X40476Y-30885D01*
X40522Y-30874D01*
X40614Y-30874D01*
X40636Y-30885D01*
X40648Y-30897D01*
X40659Y-30920D01*
X40659Y-30965D01*
X40648Y-30988D01*
X40636Y-31000D01*
X40614Y-31011D01*
X40556Y-31011D01*
X40534Y-31000D01*
X40522Y-30988D01*
X40511Y-30965D01*
X40511Y-30920D01*
X40522Y-30897D01*
X40534Y-30885D01*
X40556Y-30874D01*
X40659Y-32522D02*
X40545Y-32442D01*
X40659Y-32385D02*
X40419Y-32385D01*
X40419Y-32477D01*
X40431Y-32500D01*
X40442Y-32511D01*
X40465Y-32522D01*
X40499Y-32522D01*
X40522Y-32511D01*
X40534Y-32500D01*
X40545Y-32477D01*
X40545Y-32385D01*
X40659Y-32751D02*
X40659Y-32614D01*
X40659Y-32682D02*
X40419Y-32682D01*
X40454Y-32660D01*
X40476Y-32637D01*
X40488Y-32614D01*
X40419Y-32831D02*
X40419Y-32991D01*
X40659Y-32888D01*
X40659Y-33507D02*
X40545Y-33427D01*
X40659Y-33369D02*
X40419Y-33369D01*
X40419Y-33461D01*
X40431Y-33484D01*
X40442Y-33495D01*
X40465Y-33507D01*
X40499Y-33507D01*
X40522Y-33495D01*
X40534Y-33484D01*
X40545Y-33461D01*
X40545Y-33369D01*
X40442Y-33598D02*
X40431Y-33609D01*
X40419Y-33632D01*
X40419Y-33689D01*
X40431Y-33712D01*
X40442Y-33724D01*
X40465Y-33735D01*
X40488Y-33735D01*
X40522Y-33724D01*
X40659Y-33587D01*
X40659Y-33735D01*
X40419Y-33884D02*
X40419Y-33907D01*
X40431Y-33929D01*
X40442Y-33941D01*
X40465Y-33952D01*
X40511Y-33964D01*
X40568Y-33964D01*
X40614Y-33952D01*
X40636Y-33941D01*
X40648Y-33929D01*
X40659Y-33907D01*
X40659Y-33884D01*
X40648Y-33861D01*
X40636Y-33849D01*
X40614Y-33838D01*
X40568Y-33827D01*
X40511Y-33827D01*
X40465Y-33838D01*
X40442Y-33849D01*
X40431Y-33861D01*
X40419Y-33884D01*
X40659Y-31538D02*
X40545Y-31458D01*
X40659Y-31401D02*
X40419Y-31401D01*
X40419Y-31492D01*
X40431Y-31515D01*
X40442Y-31527D01*
X40465Y-31538D01*
X40499Y-31538D01*
X40522Y-31527D01*
X40534Y-31515D01*
X40545Y-31492D01*
X40545Y-31401D01*
X40659Y-31767D02*
X40659Y-31630D01*
X40659Y-31698D02*
X40419Y-31698D01*
X40454Y-31675D01*
X40476Y-31652D01*
X40488Y-31630D01*
X40659Y-31881D02*
X40659Y-31927D01*
X40648Y-31950D01*
X40636Y-31961D01*
X40602Y-31984D01*
X40556Y-31995D01*
X40465Y-31995D01*
X40442Y-31984D01*
X40431Y-31972D01*
X40419Y-31950D01*
X40419Y-31904D01*
X40431Y-31881D01*
X40442Y-31870D01*
X40465Y-31858D01*
X40522Y-31858D01*
X40545Y-31870D01*
X40556Y-31881D01*
X40568Y-31904D01*
X40568Y-31950D01*
X40556Y-31972D01*
X40545Y-31984D01*
X40522Y-31995D01*
X41447Y-30554D02*
X41332Y-30474D01*
X41447Y-30417D02*
X41207Y-30417D01*
X41207Y-30508D01*
X41218Y-30531D01*
X41230Y-30542D01*
X41252Y-30554D01*
X41287Y-30554D01*
X41310Y-30542D01*
X41321Y-30531D01*
X41332Y-30508D01*
X41332Y-30417D01*
X41447Y-30782D02*
X41447Y-30645D01*
X41447Y-30714D02*
X41207Y-30714D01*
X41241Y-30691D01*
X41264Y-30668D01*
X41275Y-30645D01*
X41207Y-30862D02*
X41207Y-31011D01*
X41298Y-30931D01*
X41298Y-30965D01*
X41310Y-30988D01*
X41321Y-31000D01*
X41344Y-31011D01*
X41401Y-31011D01*
X41424Y-31000D01*
X41435Y-30988D01*
X41447Y-30965D01*
X41447Y-30897D01*
X41435Y-30874D01*
X41424Y-30862D01*
X51191Y-34605D02*
X51076Y-34525D01*
X51191Y-34468D02*
X50951Y-34468D01*
X50951Y-34559D01*
X50962Y-34582D01*
X50974Y-34594D01*
X50996Y-34605D01*
X51031Y-34605D01*
X51054Y-34594D01*
X51065Y-34582D01*
X51076Y-34559D01*
X51076Y-34468D01*
X51054Y-34742D02*
X51042Y-34719D01*
X51031Y-34708D01*
X51008Y-34697D01*
X50996Y-34697D01*
X50974Y-34708D01*
X50962Y-34719D01*
X50951Y-34742D01*
X50951Y-34788D01*
X50962Y-34811D01*
X50974Y-34822D01*
X50996Y-34834D01*
X51008Y-34834D01*
X51031Y-34822D01*
X51042Y-34811D01*
X51054Y-34788D01*
X51054Y-34742D01*
X51065Y-34719D01*
X51076Y-34708D01*
X51099Y-34697D01*
X51145Y-34697D01*
X51168Y-34708D01*
X51179Y-34719D01*
X51191Y-34742D01*
X51191Y-34788D01*
X51179Y-34811D01*
X51168Y-34822D01*
X51145Y-34834D01*
X51099Y-34834D01*
X51076Y-34822D01*
X51065Y-34811D01*
X51054Y-34788D01*
X43392Y-30570D02*
X43404Y-30558D01*
X43415Y-30524D01*
X43415Y-30501D01*
X43404Y-30467D01*
X43381Y-30444D01*
X43358Y-30433D01*
X43312Y-30421D01*
X43278Y-30421D01*
X43232Y-30433D01*
X43209Y-30444D01*
X43187Y-30467D01*
X43175Y-30501D01*
X43175Y-30524D01*
X43187Y-30558D01*
X43198Y-30570D01*
X43255Y-30775D02*
X43415Y-30775D01*
X43164Y-30718D02*
X43335Y-30661D01*
X43335Y-30810D01*
%LPC*%
G54D18*
X41222Y-33437D03*
X41222Y-33187D03*
X41222Y-32927D03*
X41222Y-32677D03*
X41222Y-32417D03*
X41222Y-32162D03*
X41222Y-31907D03*
X43422Y-31907D03*
X43422Y-32162D03*
X43422Y-32417D03*
X43422Y-32677D03*
X43422Y-32932D03*
X43422Y-33187D03*
X43422Y-33442D03*
G54D19*
X46770Y-33209D03*
X46770Y-33464D03*
X46770Y-33719D03*
X46142Y-33719D03*
X46142Y-33464D03*
X46142Y-33209D03*
X46770Y-31831D03*
X46770Y-32086D03*
X46770Y-32341D03*
X46142Y-32341D03*
X46142Y-32086D03*
X46142Y-31831D03*
G54D20*
X48483Y-34645D03*
X49153Y-34645D03*
X42460Y-34645D03*
X41790Y-34645D03*
X40098Y-34645D03*
X39428Y-34645D03*
X49153Y-33661D03*
X48483Y-33661D03*
X49153Y-32677D03*
X48483Y-32677D03*
X49153Y-31692D03*
X48483Y-31692D03*
X49153Y-30708D03*
X48483Y-30708D03*
X44429Y-34645D03*
X43759Y-34645D03*
X46121Y-34645D03*
X46791Y-34645D03*
X46121Y-30708D03*
X46791Y-30708D03*
X40098Y-30708D03*
X39428Y-30708D03*
X39428Y-32677D03*
X40098Y-32677D03*
X39428Y-33661D03*
X40098Y-33661D03*
X40098Y-31692D03*
X39428Y-31692D03*
X42460Y-30708D03*
X41790Y-30708D03*
X50531Y-34645D03*
X49861Y-34645D03*
X44429Y-30708D03*
X43759Y-30708D03*
G54D21*
X41169Y-36220D03*
G54D22*
X42169Y-36220D03*
X43169Y-36220D03*
X44169Y-36220D03*
X45169Y-36220D03*
X46169Y-36220D03*
X47169Y-36220D03*
X48169Y-36220D03*
X49169Y-36220D03*
X50169Y-36220D03*
M02*
