%FSLAX34Y34*%
G04 Gerber Fmt 3.4, Leading zero omitted, Abs format*
G04 (created by PCBNEW (2014-02-02 BZR 4653)-product) date 2014-02-04 11:29:01 PM*
%MOIN*%
G01*
G70*
G90*
G04 APERTURE LIST*
%ADD10C,0.005906*%
%ADD11R,0.051200X0.011800*%
%ADD12R,0.031400X0.015700*%
%ADD13R,0.032000X0.045000*%
%ADD14R,0.078700X0.078700*%
%ADD15C,0.078700*%
G04 APERTURE END LIST*
G54D10*
G54D11*
X41222Y-33437D03*
X41222Y-33187D03*
X41222Y-32927D03*
X41222Y-32677D03*
X41222Y-32417D03*
X41222Y-32162D03*
X41222Y-31907D03*
X43422Y-31907D03*
X43422Y-32162D03*
X43422Y-32417D03*
X43422Y-32677D03*
X43422Y-32932D03*
X43422Y-33187D03*
X43422Y-33442D03*
G54D12*
X46770Y-33209D03*
X46770Y-33464D03*
X46770Y-33719D03*
X46142Y-33719D03*
X46142Y-33464D03*
X46142Y-33209D03*
X46770Y-31831D03*
X46770Y-32086D03*
X46770Y-32341D03*
X46142Y-32341D03*
X46142Y-32086D03*
X46142Y-31831D03*
G54D13*
X48483Y-34645D03*
X49153Y-34645D03*
X42460Y-34645D03*
X41790Y-34645D03*
X40098Y-34645D03*
X39428Y-34645D03*
X49153Y-33661D03*
X48483Y-33661D03*
X49153Y-32677D03*
X48483Y-32677D03*
X49153Y-31692D03*
X48483Y-31692D03*
X49153Y-30708D03*
X48483Y-30708D03*
X44429Y-34645D03*
X43759Y-34645D03*
X46121Y-34645D03*
X46791Y-34645D03*
X46121Y-30708D03*
X46791Y-30708D03*
X40098Y-30708D03*
X39428Y-30708D03*
X39428Y-32677D03*
X40098Y-32677D03*
X39428Y-33661D03*
X40098Y-33661D03*
X40098Y-31692D03*
X39428Y-31692D03*
X42460Y-30708D03*
X41790Y-30708D03*
X50531Y-34645D03*
X49861Y-34645D03*
X44429Y-30708D03*
X43759Y-30708D03*
G54D14*
X41169Y-36220D03*
G54D15*
X42169Y-36220D03*
X43169Y-36220D03*
X44169Y-36220D03*
X45169Y-36220D03*
X46169Y-36220D03*
X47169Y-36220D03*
X48169Y-36220D03*
X49169Y-36220D03*
X50169Y-36220D03*
M02*
