%FSLAX34Y34*%
G04 Gerber Fmt 3.4, Leading zero omitted, Abs format*
G04 (created by PCBNEW (2014-02-02 BZR 4653)-product) date 2014-02-04 11:29:01 PM*
%MOIN*%
G01*
G70*
G90*
G04 APERTURE LIST*
%ADD10C,0.005906*%
%ADD11C,0.006000*%
%ADD12C,0.007874*%
%ADD13C,0.011811*%
%ADD14C,0.007500*%
%ADD15C,0.010000*%
%ADD16C,0.005000*%
%ADD17C,0.015000*%
%ADD18R,0.011800X0.051200*%
%ADD19R,0.015000X0.050000*%
%ADD20R,0.039400X0.027600*%
%ADD21R,0.045000X0.032000*%
%ADD22R,0.078700X0.078700*%
%ADD23C,0.078700*%
G04 APERTURE END LIST*
G54D10*
G54D11*
X51604Y-36851D02*
X51817Y-36775D01*
X51604Y-36699D01*
X51817Y-36409D02*
X51817Y-36592D01*
X51817Y-36500D02*
X51497Y-36500D01*
X51543Y-36531D01*
X51574Y-36561D01*
X51589Y-36592D01*
X51787Y-36272D02*
X51802Y-36257D01*
X51817Y-36272D01*
X51802Y-36287D01*
X51787Y-36272D01*
X51817Y-36272D01*
X51497Y-36059D02*
X51497Y-36028D01*
X51513Y-35998D01*
X51528Y-35982D01*
X51558Y-35967D01*
X51619Y-35952D01*
X51696Y-35952D01*
X51757Y-35967D01*
X51787Y-35982D01*
X51802Y-35998D01*
X51817Y-36028D01*
X51817Y-36059D01*
X51802Y-36089D01*
X51787Y-36104D01*
X51757Y-36120D01*
X51696Y-36135D01*
X51619Y-36135D01*
X51558Y-36120D01*
X51528Y-36104D01*
X51513Y-36089D01*
X51497Y-36059D01*
X51497Y-35510D02*
X51497Y-35480D01*
X51513Y-35449D01*
X51528Y-35434D01*
X51558Y-35419D01*
X51619Y-35403D01*
X51696Y-35403D01*
X51757Y-35419D01*
X51787Y-35434D01*
X51802Y-35449D01*
X51817Y-35480D01*
X51817Y-35510D01*
X51802Y-35540D01*
X51787Y-35556D01*
X51757Y-35571D01*
X51696Y-35586D01*
X51619Y-35586D01*
X51558Y-35571D01*
X51528Y-35556D01*
X51513Y-35540D01*
X51497Y-35510D01*
X51528Y-35281D02*
X51513Y-35266D01*
X51497Y-35236D01*
X51497Y-35160D01*
X51513Y-35129D01*
X51528Y-35114D01*
X51558Y-35099D01*
X51589Y-35099D01*
X51635Y-35114D01*
X51817Y-35297D01*
X51817Y-35099D01*
X51528Y-34733D02*
X51513Y-34718D01*
X51497Y-34687D01*
X51497Y-34611D01*
X51513Y-34580D01*
X51528Y-34565D01*
X51558Y-34550D01*
X51589Y-34550D01*
X51635Y-34565D01*
X51817Y-34748D01*
X51817Y-34550D01*
X51497Y-34352D02*
X51497Y-34321D01*
X51513Y-34291D01*
X51528Y-34276D01*
X51558Y-34260D01*
X51619Y-34245D01*
X51696Y-34245D01*
X51757Y-34260D01*
X51787Y-34276D01*
X51802Y-34291D01*
X51817Y-34321D01*
X51817Y-34352D01*
X51802Y-34382D01*
X51787Y-34398D01*
X51757Y-34413D01*
X51696Y-34428D01*
X51619Y-34428D01*
X51558Y-34413D01*
X51528Y-34398D01*
X51513Y-34382D01*
X51497Y-34352D01*
X51817Y-33940D02*
X51817Y-34123D01*
X51817Y-34032D02*
X51497Y-34032D01*
X51543Y-34062D01*
X51574Y-34093D01*
X51589Y-34123D01*
X51604Y-33666D02*
X51817Y-33666D01*
X51482Y-33742D02*
X51711Y-33819D01*
X51711Y-33620D01*
X39356Y-29746D02*
X39462Y-30066D01*
X39569Y-29746D01*
X39859Y-30035D02*
X39843Y-30050D01*
X39798Y-30066D01*
X39767Y-30066D01*
X39721Y-30050D01*
X39691Y-30020D01*
X39676Y-29989D01*
X39660Y-29928D01*
X39660Y-29883D01*
X39676Y-29822D01*
X39691Y-29791D01*
X39721Y-29761D01*
X39767Y-29746D01*
X39798Y-29746D01*
X39843Y-29761D01*
X39859Y-29776D01*
X40224Y-29974D02*
X40377Y-29974D01*
X40194Y-30066D02*
X40300Y-29746D01*
X40407Y-30066D01*
X40514Y-30066D02*
X40514Y-29746D01*
X40590Y-29746D01*
X40636Y-29761D01*
X40666Y-29791D01*
X40681Y-29822D01*
X40697Y-29883D01*
X40697Y-29928D01*
X40681Y-29989D01*
X40666Y-30020D01*
X40636Y-30050D01*
X40590Y-30066D01*
X40514Y-30066D01*
X40819Y-30050D02*
X40864Y-30066D01*
X40940Y-30066D01*
X40971Y-30050D01*
X40986Y-30035D01*
X41001Y-30005D01*
X41001Y-29974D01*
X40986Y-29944D01*
X40971Y-29928D01*
X40940Y-29913D01*
X40880Y-29898D01*
X40849Y-29883D01*
X40834Y-29867D01*
X40819Y-29837D01*
X40819Y-29806D01*
X40834Y-29776D01*
X40849Y-29761D01*
X40880Y-29746D01*
X40956Y-29746D01*
X41001Y-29761D01*
X41321Y-30066D02*
X41215Y-29913D01*
X41139Y-30066D02*
X41139Y-29746D01*
X41260Y-29746D01*
X41291Y-29761D01*
X41306Y-29776D01*
X41321Y-29806D01*
X41321Y-29852D01*
X41306Y-29883D01*
X41291Y-29898D01*
X41260Y-29913D01*
X41139Y-29913D01*
G54D12*
X41817Y-31791D02*
G75*
G03X41817Y-31791I-1463J0D01*
G74*
G01*
G54D13*
X39544Y-31068D02*
X40211Y-31068D01*
X39782Y-32568D01*
X40640Y-32568D02*
X40830Y-32568D01*
X40925Y-32496D01*
X40973Y-32425D01*
X41068Y-32211D01*
X41116Y-31925D01*
X41116Y-31354D01*
X41068Y-31211D01*
X41020Y-31139D01*
X40925Y-31068D01*
X40735Y-31068D01*
X40640Y-31139D01*
X40592Y-31211D01*
X40544Y-31354D01*
X40544Y-31711D01*
X40592Y-31854D01*
X40640Y-31925D01*
X40735Y-31996D01*
X40925Y-31996D01*
X41020Y-31925D01*
X41068Y-31854D01*
X41116Y-31711D01*
G54D11*
X50036Y-35162D02*
X50021Y-35192D01*
X50021Y-35238D01*
X50036Y-35284D01*
X50067Y-35314D01*
X50097Y-35330D01*
X50158Y-35345D01*
X50204Y-35345D01*
X50265Y-35330D01*
X50295Y-35314D01*
X50326Y-35284D01*
X50341Y-35238D01*
X50341Y-35208D01*
X50326Y-35162D01*
X50311Y-35147D01*
X50204Y-35147D01*
X50204Y-35208D01*
X50250Y-35025D02*
X50250Y-34872D01*
X50341Y-35055D02*
X50021Y-34949D01*
X50341Y-34842D01*
X50021Y-34781D02*
X50021Y-34598D01*
X50341Y-34690D02*
X50021Y-34690D01*
X50173Y-34492D02*
X50173Y-34385D01*
X50341Y-34339D02*
X50341Y-34492D01*
X50021Y-34492D01*
X50021Y-34339D01*
X44214Y-35359D02*
X44214Y-35298D01*
X44229Y-35267D01*
X44260Y-35237D01*
X44321Y-35222D01*
X44427Y-35222D01*
X44488Y-35237D01*
X44519Y-35267D01*
X44534Y-35298D01*
X44534Y-35359D01*
X44519Y-35389D01*
X44488Y-35420D01*
X44427Y-35435D01*
X44321Y-35435D01*
X44260Y-35420D01*
X44229Y-35389D01*
X44214Y-35359D01*
X44214Y-35085D02*
X44473Y-35085D01*
X44504Y-35069D01*
X44519Y-35054D01*
X44534Y-35024D01*
X44534Y-34963D01*
X44519Y-34932D01*
X44504Y-34917D01*
X44473Y-34902D01*
X44214Y-34902D01*
X44214Y-34795D02*
X44214Y-34612D01*
X44534Y-34704D02*
X44214Y-34704D01*
X43874Y-35412D02*
X43874Y-35306D01*
X44042Y-35260D02*
X44042Y-35412D01*
X43722Y-35412D01*
X43722Y-35260D01*
X44042Y-35123D02*
X43722Y-35123D01*
X44042Y-34940D01*
X43722Y-34940D01*
X43722Y-34833D02*
X44042Y-34726D01*
X43722Y-34620D01*
G54D14*
X42021Y-35318D02*
X42021Y-34918D01*
X42116Y-34918D01*
X42173Y-34937D01*
X42211Y-34975D01*
X42230Y-35013D01*
X42249Y-35090D01*
X42249Y-35147D01*
X42230Y-35223D01*
X42211Y-35261D01*
X42173Y-35299D01*
X42116Y-35318D01*
X42021Y-35318D01*
X46047Y-35299D02*
X46104Y-35318D01*
X46199Y-35318D01*
X46237Y-35299D01*
X46256Y-35280D01*
X46275Y-35242D01*
X46275Y-35204D01*
X46256Y-35166D01*
X46237Y-35147D01*
X46199Y-35128D01*
X46123Y-35109D01*
X46085Y-35090D01*
X46066Y-35071D01*
X46047Y-35033D01*
X46047Y-34994D01*
X46066Y-34956D01*
X46085Y-34937D01*
X46123Y-34918D01*
X46218Y-34918D01*
X46275Y-34937D01*
X47269Y-35318D02*
X47136Y-35128D01*
X47040Y-35318D02*
X47040Y-34918D01*
X47193Y-34918D01*
X47231Y-34937D01*
X47250Y-34956D01*
X47269Y-34994D01*
X47269Y-35052D01*
X47250Y-35090D01*
X47231Y-35109D01*
X47193Y-35128D01*
X47040Y-35128D01*
X49018Y-35204D02*
X49209Y-35204D01*
X48980Y-35318D02*
X49114Y-34918D01*
X49247Y-35318D01*
G54D12*
X47610Y-33228D02*
X46484Y-33228D01*
X46484Y-33228D02*
X46484Y-31811D01*
X46484Y-31811D02*
X47610Y-31811D01*
X47613Y-31819D02*
X47613Y-33219D01*
X47513Y-32069D02*
G75*
G03X47513Y-32069I-150J0D01*
G74*
G01*
G54D15*
X42797Y-31927D02*
X44897Y-31927D01*
X44897Y-31927D02*
X44897Y-33377D01*
X44897Y-33377D02*
X42797Y-33377D01*
X42797Y-33377D02*
X42797Y-31927D01*
X43158Y-33133D02*
G75*
G03X43158Y-33133I-128J0D01*
G74*
G01*
G54D16*
X45969Y-29814D02*
X45969Y-30839D01*
X45969Y-30839D02*
X45369Y-30839D01*
X45369Y-30839D02*
X45369Y-29814D01*
X45369Y-29814D02*
X45969Y-29814D01*
G54D15*
X50039Y-30354D02*
X50039Y-31456D01*
X50039Y-31456D02*
X50748Y-31456D01*
X50748Y-31456D02*
X50748Y-30354D01*
X50748Y-30354D02*
X50039Y-30354D01*
X48582Y-31456D02*
X48582Y-30354D01*
X48582Y-30354D02*
X47874Y-30354D01*
X47874Y-30354D02*
X47874Y-31456D01*
X47874Y-31456D02*
X48582Y-31456D01*
X49763Y-31456D02*
X49763Y-30354D01*
X49763Y-30354D02*
X49055Y-30354D01*
X49055Y-30354D02*
X49055Y-31456D01*
X49055Y-31456D02*
X49763Y-31456D01*
X46220Y-33031D02*
X46220Y-31929D01*
X46220Y-31929D02*
X45511Y-31929D01*
X45511Y-31929D02*
X45511Y-33031D01*
X45511Y-33031D02*
X46220Y-33031D01*
X48582Y-33031D02*
X48582Y-31929D01*
X48582Y-31929D02*
X47874Y-31929D01*
X47874Y-31929D02*
X47874Y-33031D01*
X47874Y-33031D02*
X48582Y-33031D01*
X51023Y-31929D02*
X51023Y-33031D01*
X51023Y-33031D02*
X51732Y-33031D01*
X51732Y-33031D02*
X51732Y-31929D01*
X51732Y-31929D02*
X51023Y-31929D01*
X51023Y-30354D02*
X51023Y-31456D01*
X51023Y-31456D02*
X51732Y-31456D01*
X51732Y-31456D02*
X51732Y-30354D01*
X51732Y-30354D02*
X51023Y-30354D01*
X49055Y-31929D02*
X49055Y-33031D01*
X49055Y-33031D02*
X49763Y-33031D01*
X49763Y-33031D02*
X49763Y-31929D01*
X49763Y-31929D02*
X49055Y-31929D01*
X42952Y-29763D02*
X42952Y-30866D01*
X42952Y-30866D02*
X43661Y-30866D01*
X43661Y-30866D02*
X43661Y-29763D01*
X43661Y-29763D02*
X42952Y-29763D01*
G54D17*
X40569Y-36820D02*
X50769Y-36820D01*
X40569Y-35620D02*
X50769Y-35620D01*
X50769Y-35620D02*
X50769Y-36820D01*
X41669Y-35620D02*
X41669Y-36820D01*
X40569Y-35620D02*
X40569Y-36820D01*
G54D15*
X41496Y-35393D02*
X41496Y-34291D01*
X41496Y-34291D02*
X40787Y-34291D01*
X40787Y-34291D02*
X40787Y-35393D01*
X40787Y-35393D02*
X41496Y-35393D01*
X42755Y-34291D02*
X42755Y-35393D01*
X42755Y-35393D02*
X43464Y-35393D01*
X43464Y-35393D02*
X43464Y-34291D01*
X43464Y-34291D02*
X42755Y-34291D01*
G54D14*
X45917Y-33289D02*
X45917Y-33548D01*
X45932Y-33578D01*
X45948Y-33594D01*
X45978Y-33609D01*
X46039Y-33609D01*
X46069Y-33594D01*
X46085Y-33578D01*
X46100Y-33548D01*
X46100Y-33289D01*
X46237Y-33319D02*
X46252Y-33304D01*
X46283Y-33289D01*
X46359Y-33289D01*
X46389Y-33304D01*
X46405Y-33319D01*
X46420Y-33350D01*
X46420Y-33380D01*
X46405Y-33426D01*
X46222Y-33609D01*
X46420Y-33609D01*
X42177Y-31911D02*
X42177Y-32170D01*
X42192Y-32200D01*
X42207Y-32216D01*
X42238Y-32231D01*
X42299Y-32231D01*
X42329Y-32216D01*
X42345Y-32200D01*
X42360Y-32170D01*
X42360Y-31911D01*
X42680Y-32231D02*
X42497Y-32231D01*
X42588Y-32231D02*
X42588Y-31911D01*
X42558Y-31957D01*
X42527Y-31987D01*
X42497Y-32002D01*
G54D11*
X45646Y-31233D02*
X45623Y-31222D01*
X45600Y-31199D01*
X45566Y-31165D01*
X45543Y-31153D01*
X45520Y-31153D01*
X45532Y-31210D02*
X45509Y-31199D01*
X45486Y-31176D01*
X45475Y-31130D01*
X45475Y-31050D01*
X45486Y-31005D01*
X45509Y-30982D01*
X45532Y-30970D01*
X45577Y-30970D01*
X45600Y-30982D01*
X45623Y-31005D01*
X45635Y-31050D01*
X45635Y-31130D01*
X45623Y-31176D01*
X45600Y-31199D01*
X45577Y-31210D01*
X45532Y-31210D01*
X45863Y-31210D02*
X45726Y-31210D01*
X45795Y-31210D02*
X45795Y-30970D01*
X45772Y-31005D01*
X45749Y-31028D01*
X45726Y-31039D01*
X50353Y-30226D02*
X50273Y-30112D01*
X50216Y-30226D02*
X50216Y-29986D01*
X50307Y-29986D01*
X50330Y-29998D01*
X50342Y-30009D01*
X50353Y-30032D01*
X50353Y-30066D01*
X50342Y-30089D01*
X50330Y-30100D01*
X50307Y-30112D01*
X50216Y-30112D01*
X50559Y-30066D02*
X50559Y-30226D01*
X50502Y-29975D02*
X50445Y-30146D01*
X50593Y-30146D01*
X48188Y-30203D02*
X48176Y-30215D01*
X48142Y-30226D01*
X48119Y-30226D01*
X48085Y-30215D01*
X48062Y-30192D01*
X48051Y-30169D01*
X48039Y-30123D01*
X48039Y-30089D01*
X48051Y-30043D01*
X48062Y-30020D01*
X48085Y-29998D01*
X48119Y-29986D01*
X48142Y-29986D01*
X48176Y-29998D01*
X48188Y-30009D01*
X48416Y-30226D02*
X48279Y-30226D01*
X48348Y-30226D02*
X48348Y-29986D01*
X48325Y-30020D01*
X48302Y-30043D01*
X48279Y-30055D01*
X49369Y-30226D02*
X49289Y-30112D01*
X49232Y-30226D02*
X49232Y-29986D01*
X49323Y-29986D01*
X49346Y-29998D01*
X49358Y-30009D01*
X49369Y-30032D01*
X49369Y-30066D01*
X49358Y-30089D01*
X49346Y-30100D01*
X49323Y-30112D01*
X49232Y-30112D01*
X49575Y-29986D02*
X49529Y-29986D01*
X49506Y-29998D01*
X49495Y-30009D01*
X49472Y-30043D01*
X49460Y-30089D01*
X49460Y-30180D01*
X49472Y-30203D01*
X49483Y-30215D01*
X49506Y-30226D01*
X49552Y-30226D01*
X49575Y-30215D01*
X49586Y-30203D01*
X49598Y-30180D01*
X49598Y-30123D01*
X49586Y-30100D01*
X49575Y-30089D01*
X49552Y-30078D01*
X49506Y-30078D01*
X49483Y-30089D01*
X49472Y-30100D01*
X49460Y-30123D01*
X45826Y-31778D02*
X45814Y-31790D01*
X45780Y-31801D01*
X45757Y-31801D01*
X45723Y-31790D01*
X45700Y-31767D01*
X45688Y-31744D01*
X45677Y-31698D01*
X45677Y-31664D01*
X45688Y-31618D01*
X45700Y-31595D01*
X45723Y-31572D01*
X45757Y-31561D01*
X45780Y-31561D01*
X45814Y-31572D01*
X45826Y-31584D01*
X45917Y-31584D02*
X45928Y-31572D01*
X45951Y-31561D01*
X46008Y-31561D01*
X46031Y-31572D01*
X46043Y-31584D01*
X46054Y-31607D01*
X46054Y-31630D01*
X46043Y-31664D01*
X45906Y-31801D01*
X46054Y-31801D01*
X48188Y-33353D02*
X48176Y-33364D01*
X48142Y-33376D01*
X48119Y-33376D01*
X48085Y-33364D01*
X48062Y-33342D01*
X48051Y-33319D01*
X48039Y-33273D01*
X48039Y-33239D01*
X48051Y-33193D01*
X48062Y-33170D01*
X48085Y-33147D01*
X48119Y-33136D01*
X48142Y-33136D01*
X48176Y-33147D01*
X48188Y-33159D01*
X48268Y-33136D02*
X48416Y-33136D01*
X48336Y-33227D01*
X48371Y-33227D01*
X48394Y-33239D01*
X48405Y-33250D01*
X48416Y-33273D01*
X48416Y-33330D01*
X48405Y-33353D01*
X48394Y-33364D01*
X48371Y-33376D01*
X48302Y-33376D01*
X48279Y-33364D01*
X48268Y-33353D01*
X50845Y-33376D02*
X50765Y-33262D01*
X50708Y-33376D02*
X50708Y-33136D01*
X50800Y-33136D01*
X50822Y-33147D01*
X50834Y-33159D01*
X50845Y-33182D01*
X50845Y-33216D01*
X50834Y-33239D01*
X50822Y-33250D01*
X50800Y-33262D01*
X50708Y-33262D01*
X50937Y-33159D02*
X50948Y-33147D01*
X50971Y-33136D01*
X51028Y-33136D01*
X51051Y-33147D01*
X51062Y-33159D01*
X51074Y-33182D01*
X51074Y-33204D01*
X51062Y-33239D01*
X50925Y-33376D01*
X51074Y-33376D01*
X51337Y-30226D02*
X51257Y-30112D01*
X51200Y-30226D02*
X51200Y-29986D01*
X51292Y-29986D01*
X51315Y-29998D01*
X51326Y-30009D01*
X51337Y-30032D01*
X51337Y-30066D01*
X51326Y-30089D01*
X51315Y-30100D01*
X51292Y-30112D01*
X51200Y-30112D01*
X51417Y-29986D02*
X51566Y-29986D01*
X51486Y-30078D01*
X51520Y-30078D01*
X51543Y-30089D01*
X51555Y-30100D01*
X51566Y-30123D01*
X51566Y-30180D01*
X51555Y-30203D01*
X51543Y-30215D01*
X51520Y-30226D01*
X51452Y-30226D01*
X51429Y-30215D01*
X51417Y-30203D01*
X49369Y-33376D02*
X49289Y-33262D01*
X49232Y-33376D02*
X49232Y-33136D01*
X49323Y-33136D01*
X49346Y-33147D01*
X49358Y-33159D01*
X49369Y-33182D01*
X49369Y-33216D01*
X49358Y-33239D01*
X49346Y-33250D01*
X49323Y-33262D01*
X49232Y-33262D01*
X49586Y-33136D02*
X49472Y-33136D01*
X49460Y-33250D01*
X49472Y-33239D01*
X49495Y-33227D01*
X49552Y-33227D01*
X49575Y-33239D01*
X49586Y-33250D01*
X49598Y-33273D01*
X49598Y-33330D01*
X49586Y-33353D01*
X49575Y-33364D01*
X49552Y-33376D01*
X49495Y-33376D01*
X49472Y-33364D01*
X49460Y-33353D01*
X42578Y-30128D02*
X42498Y-30013D01*
X42440Y-30128D02*
X42440Y-29888D01*
X42532Y-29888D01*
X42555Y-29899D01*
X42566Y-29911D01*
X42578Y-29933D01*
X42578Y-29968D01*
X42566Y-29991D01*
X42555Y-30002D01*
X42532Y-30013D01*
X42440Y-30013D01*
X42806Y-30128D02*
X42669Y-30128D01*
X42738Y-30128D02*
X42738Y-29888D01*
X42715Y-29922D01*
X42692Y-29945D01*
X42669Y-29956D01*
X40412Y-34534D02*
X40401Y-34545D01*
X40367Y-34557D01*
X40344Y-34557D01*
X40309Y-34545D01*
X40287Y-34523D01*
X40275Y-34500D01*
X40264Y-34454D01*
X40264Y-34420D01*
X40275Y-34374D01*
X40287Y-34351D01*
X40309Y-34328D01*
X40344Y-34317D01*
X40367Y-34317D01*
X40401Y-34328D01*
X40412Y-34340D01*
X40618Y-34317D02*
X40572Y-34317D01*
X40549Y-34328D01*
X40538Y-34340D01*
X40515Y-34374D01*
X40504Y-34420D01*
X40504Y-34511D01*
X40515Y-34534D01*
X40527Y-34545D01*
X40549Y-34557D01*
X40595Y-34557D01*
X40618Y-34545D01*
X40629Y-34534D01*
X40641Y-34511D01*
X40641Y-34454D01*
X40629Y-34431D01*
X40618Y-34420D01*
X40595Y-34408D01*
X40549Y-34408D01*
X40527Y-34420D01*
X40515Y-34431D01*
X40504Y-34454D01*
X42381Y-34534D02*
X42369Y-34545D01*
X42335Y-34557D01*
X42312Y-34557D01*
X42278Y-34545D01*
X42255Y-34523D01*
X42244Y-34500D01*
X42232Y-34454D01*
X42232Y-34420D01*
X42244Y-34374D01*
X42255Y-34351D01*
X42278Y-34328D01*
X42312Y-34317D01*
X42335Y-34317D01*
X42369Y-34328D01*
X42381Y-34340D01*
X42461Y-34317D02*
X42621Y-34317D01*
X42518Y-34557D01*
%LPC*%
G54D18*
X47423Y-31419D03*
X47173Y-31419D03*
X46913Y-31419D03*
X46663Y-31419D03*
X46663Y-33619D03*
X46918Y-33619D03*
X47173Y-33619D03*
X47428Y-33619D03*
G54D19*
X43001Y-33779D03*
X43257Y-33779D03*
X43513Y-33779D03*
X43769Y-33779D03*
X44025Y-33779D03*
X44281Y-33779D03*
X44537Y-33779D03*
X44793Y-33779D03*
X44793Y-31575D03*
X44537Y-31575D03*
X44281Y-31575D03*
X44025Y-31575D03*
X43769Y-31575D03*
X43513Y-31575D03*
X43257Y-31575D03*
X43001Y-31575D03*
G54D20*
X45169Y-30314D03*
X46169Y-29939D03*
X46169Y-30689D03*
G54D21*
X50393Y-30570D03*
X50393Y-31240D03*
X48228Y-31240D03*
X48228Y-30570D03*
X49409Y-31240D03*
X49409Y-30570D03*
X45866Y-32815D03*
X45866Y-32145D03*
X48228Y-32815D03*
X48228Y-32145D03*
X51377Y-32145D03*
X51377Y-32815D03*
X51377Y-30570D03*
X51377Y-31240D03*
X49409Y-32145D03*
X49409Y-32815D03*
X43307Y-29979D03*
X43307Y-30649D03*
G54D22*
X41169Y-36220D03*
G54D23*
X42169Y-36220D03*
X43169Y-36220D03*
X44169Y-36220D03*
X45169Y-36220D03*
X46169Y-36220D03*
X47169Y-36220D03*
X48169Y-36220D03*
X49169Y-36220D03*
X50169Y-36220D03*
G54D21*
X41141Y-35177D03*
X41141Y-34507D03*
X43110Y-34507D03*
X43110Y-35177D03*
M02*
