M48
INCH,TZ
T1C0.015
T2C0.024
T3C0.040
%
G90
G05
T1
X039429Y-035453
X041138Y-034102
X043915Y-030071
X044311Y-032874
X045098Y-033791
X045172Y-035312
X045406Y-032146
X045722Y-035694
X046563Y-029937
X047142Y-032087
X047677Y-032520
X047764Y-034529
X047972Y-033760
X047972Y-034980
X049909Y-032953
X051378Y-033276
T2
X042408Y-033264
X042457Y-032657
X050272Y-031975
T3
X041169Y-036220
X042169Y-036220
X043169Y-036220
X044169Y-036220
X045169Y-036220
X046169Y-036220
X047169Y-036220
X048169Y-036220
X049169Y-036220
X050169Y-036220
T0
M30
