G04 (created by PCBNEW (2013-07-07 BZR 4022)-stable) date 2014-06-17 1:27:57 PM*
%MOIN*%
G04 Gerber Fmt 3.4, Leading zero omitted, Abs format*
%FSLAX34Y34*%
G01*
G70*
G90*
G04 APERTURE LIST*
%ADD10C,0.00590551*%
%ADD11R,0.0512X0.0118*%
%ADD12R,0.0314X0.0157*%
%ADD13R,0.032X0.045*%
%ADD14R,0.045X0.032*%
%ADD15R,0.0393701X0.0492126*%
%ADD16R,0.0472441X0.0492126*%
%ADD17C,0.045*%
%ADD18C,0.035*%
%ADD19C,0.014*%
%ADD20C,0.01*%
G04 APERTURE END LIST*
G54D10*
G54D11*
X41222Y-33437D03*
X41222Y-33187D03*
X41222Y-32927D03*
X41222Y-32677D03*
X41222Y-32417D03*
X41222Y-32162D03*
X41222Y-31907D03*
X43422Y-31907D03*
X43422Y-32162D03*
X43422Y-32417D03*
X43422Y-32677D03*
X43422Y-32932D03*
X43422Y-33187D03*
X43422Y-33442D03*
G54D12*
X46770Y-33209D03*
X46770Y-33464D03*
X46770Y-33719D03*
X46142Y-33719D03*
X46142Y-33464D03*
X46142Y-33209D03*
X46770Y-31831D03*
X46770Y-32086D03*
X46770Y-32341D03*
X46142Y-32341D03*
X46142Y-32086D03*
X46142Y-31831D03*
G54D13*
X48483Y-34645D03*
X49153Y-34645D03*
X42460Y-34645D03*
X41790Y-34645D03*
X40098Y-34645D03*
X39428Y-34645D03*
X49153Y-33661D03*
X48483Y-33661D03*
X48483Y-32677D03*
X49153Y-32677D03*
X48483Y-31692D03*
X49153Y-31692D03*
X49153Y-30708D03*
X48483Y-30708D03*
X44429Y-34645D03*
X43759Y-34645D03*
X46121Y-34645D03*
X46791Y-34645D03*
X46121Y-30708D03*
X46791Y-30708D03*
X40098Y-30708D03*
X39428Y-30708D03*
X39428Y-32677D03*
X40098Y-32677D03*
X39428Y-33661D03*
X40098Y-33661D03*
X40098Y-31692D03*
X39428Y-31692D03*
X42460Y-30708D03*
X41790Y-30708D03*
G54D14*
X51377Y-36161D03*
X51377Y-35491D03*
G54D13*
X44429Y-30708D03*
X43759Y-30708D03*
G54D15*
X50531Y-31633D03*
X51437Y-31633D03*
G54D16*
X50984Y-30177D03*
G54D15*
X51437Y-32736D03*
X50531Y-32736D03*
G54D16*
X50984Y-34192D03*
G54D17*
X42407Y-33263D03*
X42457Y-32657D03*
X42682Y-35203D03*
X41347Y-34171D03*
X49962Y-32909D03*
G54D18*
X48790Y-33169D03*
X43893Y-35158D03*
X50984Y-34842D03*
X39763Y-35393D03*
X47637Y-32716D03*
X47874Y-34685D03*
X45196Y-34960D03*
X40708Y-33897D03*
X47141Y-32086D03*
X44311Y-32874D03*
X45405Y-32145D03*
X45098Y-33791D03*
X46562Y-29937D03*
X47497Y-34324D03*
X43915Y-30148D03*
X44655Y-35195D03*
X46669Y-35190D03*
X45795Y-35151D03*
G54D19*
X41820Y-32677D02*
X41222Y-32677D01*
X42407Y-33263D02*
X41820Y-32677D01*
X42976Y-32657D02*
X42457Y-32657D01*
X42996Y-32677D02*
X42976Y-32657D01*
X43422Y-32677D02*
X42996Y-32677D01*
X41965Y-34171D02*
X41347Y-34171D01*
X42130Y-34336D02*
X41965Y-34171D01*
X42130Y-34941D02*
X42130Y-34336D01*
X42393Y-35203D02*
X42130Y-34941D01*
X42682Y-35203D02*
X42393Y-35203D01*
X49484Y-33388D02*
X49484Y-33661D01*
X49962Y-32909D02*
X49484Y-33388D01*
X49153Y-33661D02*
X49484Y-33661D01*
X50292Y-30708D02*
X49153Y-30708D01*
X50922Y-31338D02*
X50292Y-30708D01*
X50922Y-32320D02*
X50922Y-31338D01*
X51730Y-32320D02*
X50922Y-32320D01*
X51990Y-32579D02*
X51730Y-32320D01*
X51990Y-36485D02*
X51990Y-32579D01*
X51783Y-36692D02*
X51990Y-36485D01*
X44170Y-36692D02*
X51783Y-36692D01*
X42682Y-35203D02*
X44170Y-36692D01*
X49962Y-32622D02*
X49962Y-32909D01*
X50264Y-32320D02*
X49962Y-32622D01*
X50922Y-32320D02*
X50264Y-32320D01*
G54D20*
X48673Y-33052D02*
X48483Y-33052D01*
X48790Y-33169D02*
X48673Y-33052D01*
X48483Y-32677D02*
X48483Y-33052D01*
X43759Y-35024D02*
X43759Y-34645D01*
X43893Y-35158D02*
X43759Y-35024D01*
X39763Y-35393D02*
X39763Y-34980D01*
X39763Y-34980D02*
X39428Y-34645D01*
X45405Y-32145D02*
X45039Y-32145D01*
X45039Y-32145D02*
X44311Y-32874D01*
X47637Y-32716D02*
X47637Y-32582D01*
X47637Y-32582D02*
X47141Y-32086D01*
X48483Y-31692D02*
X47535Y-31692D01*
X47535Y-31692D02*
X47141Y-32086D01*
X40472Y-33661D02*
X40708Y-33897D01*
X40098Y-33661D02*
X40472Y-33661D01*
X44136Y-32699D02*
X44311Y-32874D01*
X43905Y-32468D02*
X44136Y-32699D01*
X43590Y-32468D02*
X43905Y-32468D01*
X43539Y-32417D02*
X43590Y-32468D01*
X43422Y-32417D02*
X43539Y-32417D01*
X47244Y-32086D02*
X47141Y-32086D01*
X43837Y-32874D02*
X44311Y-32874D01*
X43778Y-32932D02*
X43837Y-32874D01*
X43422Y-32932D02*
X43778Y-32932D01*
X47141Y-32964D02*
X47141Y-32086D01*
X47137Y-32968D02*
X47141Y-32964D01*
X47137Y-33099D02*
X47137Y-32968D01*
X47027Y-33209D02*
X47137Y-33099D01*
X46770Y-33209D02*
X47027Y-33209D01*
X46770Y-32086D02*
X47141Y-32086D01*
X44429Y-31306D02*
X44429Y-31007D01*
X43829Y-31907D02*
X44429Y-31306D01*
X43422Y-31907D02*
X43829Y-31907D01*
X44429Y-31007D02*
X44429Y-30708D01*
X44429Y-31007D02*
X44429Y-31007D01*
X44429Y-30708D02*
X46121Y-30708D01*
X44429Y-31007D02*
X44429Y-30708D01*
X46121Y-30708D02*
X46121Y-30708D01*
X43016Y-32162D02*
X43422Y-32162D01*
X43016Y-30708D02*
X43016Y-32162D01*
X43016Y-30708D02*
X43759Y-30708D01*
X44069Y-30708D02*
X43759Y-30708D01*
X44069Y-30471D02*
X44069Y-30708D01*
X44225Y-30315D02*
X44069Y-30471D01*
X47016Y-30315D02*
X44225Y-30315D01*
X47101Y-30401D02*
X47016Y-30315D01*
X47101Y-31000D02*
X47101Y-30401D01*
X46271Y-31831D02*
X47101Y-31000D01*
X46271Y-31831D02*
X46142Y-31831D01*
X46142Y-31831D02*
X46142Y-31831D01*
X43016Y-30708D02*
X42461Y-30708D01*
X42461Y-30708D02*
X42460Y-30708D01*
X46142Y-33031D02*
X46142Y-33075D01*
X46449Y-32724D02*
X46142Y-33031D01*
X46449Y-31881D02*
X46449Y-32724D01*
X46399Y-31831D02*
X46449Y-31881D01*
X46271Y-31831D02*
X46399Y-31831D01*
X46142Y-33075D02*
X46142Y-33120D01*
X46142Y-33075D02*
X46142Y-33209D01*
X46142Y-33075D02*
X46142Y-33075D01*
X43016Y-33442D02*
X43422Y-33442D01*
X42807Y-33651D02*
X43016Y-33442D01*
X42236Y-33651D02*
X42807Y-33651D01*
X41629Y-33043D02*
X42236Y-33651D01*
X41629Y-32927D02*
X41629Y-33043D01*
X41222Y-32927D02*
X41629Y-32927D01*
X40007Y-32271D02*
X39428Y-31692D01*
X40300Y-32271D02*
X40007Y-32271D01*
X40816Y-32787D02*
X40300Y-32271D01*
X40816Y-32927D02*
X40816Y-32787D01*
X41222Y-32927D02*
X40816Y-32927D01*
X39428Y-31692D02*
X39428Y-31692D01*
X43829Y-33442D02*
X43422Y-33442D01*
X44429Y-34042D02*
X44429Y-34645D01*
X43829Y-33442D02*
X44429Y-34042D01*
X44764Y-34620D02*
X44739Y-34645D01*
X45786Y-34620D02*
X44764Y-34620D01*
X45811Y-34645D02*
X45786Y-34620D01*
X46121Y-34645D02*
X45811Y-34645D01*
X44429Y-34645D02*
X44739Y-34645D01*
X46770Y-33719D02*
X46770Y-33719D01*
X46770Y-32599D02*
X46770Y-32513D01*
X46770Y-32599D02*
X46770Y-32341D01*
X46770Y-32599D02*
X46770Y-32599D01*
X43778Y-33187D02*
X43422Y-33187D01*
X43790Y-33199D02*
X43778Y-33187D01*
X45151Y-33199D02*
X43790Y-33199D01*
X46513Y-33719D02*
X46463Y-33669D01*
X46770Y-33719D02*
X46513Y-33719D01*
X46770Y-32685D02*
X46770Y-32599D01*
X46463Y-32992D02*
X46770Y-32685D01*
X46463Y-33669D02*
X46463Y-32992D01*
X46791Y-34645D02*
X46791Y-34270D01*
X46436Y-33915D02*
X46791Y-34270D01*
X46385Y-33965D02*
X46436Y-33915D01*
X45918Y-33965D02*
X46385Y-33965D01*
X45151Y-33199D02*
X45918Y-33965D01*
X46463Y-33887D02*
X46463Y-33669D01*
X46436Y-33915D02*
X46463Y-33887D01*
X51370Y-31171D02*
X51437Y-31237D01*
X51370Y-30177D02*
X51370Y-31171D01*
X51437Y-31633D02*
X51437Y-31237D01*
X51177Y-30177D02*
X51370Y-30177D01*
X50984Y-30177D02*
X51177Y-30177D01*
X50984Y-30177D02*
X50597Y-30177D01*
X46770Y-31831D02*
X46770Y-31831D01*
X46909Y-31692D02*
X46863Y-31739D01*
X47564Y-31317D02*
X48173Y-30708D01*
X47284Y-31317D02*
X47564Y-31317D01*
X46863Y-31739D02*
X47284Y-31317D01*
X46863Y-31739D02*
X46770Y-31831D01*
X48483Y-30708D02*
X48173Y-30708D01*
X48794Y-30471D02*
X48794Y-30708D01*
X49088Y-30177D02*
X48794Y-30471D01*
X50597Y-30177D02*
X49088Y-30177D01*
X48483Y-30708D02*
X48638Y-30708D01*
X48638Y-30708D02*
X48794Y-30708D01*
X48843Y-30913D02*
X48843Y-31692D01*
X48638Y-30708D02*
X48843Y-30913D01*
X49153Y-31692D02*
X48843Y-31692D01*
X45922Y-32086D02*
X46142Y-32086D01*
X45833Y-31998D02*
X45922Y-32086D01*
X45833Y-31666D02*
X45833Y-31998D01*
X46481Y-31018D02*
X45833Y-31666D01*
X46481Y-30708D02*
X46481Y-31018D01*
X46791Y-30708D02*
X46481Y-30708D01*
X46014Y-33464D02*
X46142Y-33464D01*
X46014Y-33464D02*
X46142Y-33464D01*
X46142Y-32231D02*
X46142Y-32230D01*
X45885Y-33464D02*
X46014Y-33464D01*
X45835Y-33414D02*
X45885Y-33464D01*
X45835Y-32827D02*
X45835Y-33414D01*
X46142Y-32520D02*
X45835Y-32827D01*
X46142Y-32375D02*
X46142Y-32520D01*
X46142Y-32375D02*
X46142Y-32375D01*
X46142Y-32375D02*
X46142Y-32375D01*
X46142Y-32231D02*
X46142Y-32341D01*
X46142Y-32230D02*
X46142Y-32231D01*
X46791Y-30708D02*
X46791Y-30708D01*
X46142Y-32158D02*
X46142Y-32230D01*
X46142Y-32230D02*
X46142Y-32158D01*
X46142Y-32358D02*
X46142Y-32375D01*
X46142Y-32375D02*
X46142Y-32358D01*
X46142Y-32358D02*
X46142Y-32350D01*
X46142Y-32350D02*
X46142Y-32358D01*
X46142Y-32158D02*
X46142Y-32122D01*
X46142Y-32122D02*
X46142Y-32158D01*
X46142Y-32345D02*
X46142Y-32350D01*
X46142Y-32350D02*
X46142Y-32345D01*
X46142Y-32104D02*
X46142Y-32122D01*
X46142Y-32122D02*
X46142Y-32104D01*
X46142Y-33552D02*
X46142Y-33592D01*
X46142Y-33552D02*
X46142Y-33719D01*
X46142Y-33552D02*
X46142Y-33552D01*
X46142Y-33464D02*
X46142Y-33508D01*
X46142Y-33508D02*
X46142Y-33552D01*
X46142Y-33508D02*
X46142Y-33464D01*
X46142Y-33508D02*
X46142Y-33508D01*
X46142Y-32345D02*
X46142Y-32343D01*
X46142Y-32343D02*
X46142Y-32345D01*
X46142Y-32104D02*
X46142Y-32095D01*
X46142Y-32095D02*
X46142Y-32104D01*
X46142Y-32342D02*
X46142Y-32343D01*
X46142Y-32343D02*
X46142Y-32342D01*
X46142Y-32091D02*
X46142Y-32095D01*
X46142Y-32095D02*
X46142Y-32091D01*
X46142Y-32342D02*
X46142Y-32342D01*
X46142Y-32342D02*
X46142Y-32342D01*
X46142Y-32091D02*
X46142Y-32088D01*
X46142Y-32088D02*
X46142Y-32091D01*
X46142Y-32341D02*
X46142Y-32342D01*
X46142Y-32342D02*
X46142Y-32341D01*
X46142Y-32087D02*
X46142Y-32088D01*
X46142Y-32088D02*
X46142Y-32087D01*
X46142Y-32341D02*
X46142Y-32341D01*
X46142Y-32341D02*
X46142Y-32341D01*
X46142Y-32087D02*
X46142Y-32087D01*
X46142Y-32087D02*
X46142Y-32087D01*
X46142Y-32341D02*
X46142Y-32341D01*
X46142Y-32341D02*
X46142Y-32341D01*
X46142Y-32341D02*
X46142Y-32341D01*
X46142Y-32341D02*
X46142Y-32341D01*
X46142Y-32086D02*
X46142Y-32087D01*
X46142Y-32087D02*
X46142Y-32086D01*
X46142Y-32341D02*
X46142Y-32341D01*
X46142Y-32086D02*
X46142Y-32086D01*
X46142Y-32086D02*
X46142Y-32086D01*
X46142Y-32086D02*
X46142Y-32086D01*
X46142Y-32086D02*
X46142Y-32086D01*
X46142Y-32086D02*
X46142Y-32086D01*
X46142Y-32086D02*
X46142Y-32086D01*
X46142Y-32086D02*
X46142Y-32086D01*
X46770Y-33464D02*
X46770Y-33464D01*
X50531Y-32736D02*
X50531Y-33132D01*
X50984Y-34192D02*
X50791Y-34192D01*
X48483Y-33661D02*
X48483Y-34036D01*
X48843Y-34396D02*
X48483Y-34036D01*
X48843Y-34645D02*
X48843Y-34396D01*
X50791Y-34192D02*
X50531Y-33933D01*
X50531Y-33933D02*
X50531Y-33132D01*
X49076Y-34645D02*
X48843Y-34645D01*
X49076Y-34645D02*
X49153Y-34645D01*
X49819Y-34645D02*
X50531Y-33933D01*
X49153Y-34645D02*
X49819Y-34645D01*
X47196Y-33464D02*
X46770Y-33464D01*
X47976Y-33464D02*
X48173Y-33661D01*
X47196Y-33464D02*
X47976Y-33464D01*
X48483Y-33661D02*
X48173Y-33661D01*
X41790Y-31745D02*
X41790Y-31226D01*
X41629Y-31907D02*
X41790Y-31745D01*
X41222Y-31907D02*
X41629Y-31907D01*
X41790Y-31226D02*
X41790Y-30708D01*
X41790Y-31226D02*
X41790Y-30708D01*
X41790Y-31226D02*
X41790Y-31226D01*
X41222Y-31572D02*
X41222Y-31907D01*
X40358Y-30708D02*
X41222Y-31572D01*
X40098Y-30708D02*
X40358Y-30708D01*
X40098Y-30708D02*
X40098Y-30708D01*
X47497Y-34769D02*
X47497Y-34324D01*
X48579Y-35851D02*
X47497Y-34769D01*
X51683Y-35851D02*
X48579Y-35851D01*
X51753Y-35921D02*
X51683Y-35851D01*
X51753Y-36411D02*
X51753Y-35921D01*
X51692Y-36471D02*
X51753Y-36411D01*
X44597Y-36471D02*
X51692Y-36471D01*
X42771Y-34645D02*
X44597Y-36471D01*
X42460Y-34645D02*
X42771Y-34645D01*
X41222Y-33437D02*
X41542Y-33437D01*
X41542Y-33437D02*
X41629Y-33437D01*
X42375Y-34270D02*
X42460Y-34270D01*
X41542Y-33437D02*
X42375Y-34270D01*
X42460Y-34645D02*
X42460Y-34270D01*
X41790Y-34645D02*
X41480Y-34645D01*
X40098Y-34645D02*
X40408Y-34645D01*
X40816Y-33187D02*
X40799Y-33204D01*
X41222Y-33187D02*
X40816Y-33187D01*
X40799Y-33204D02*
X40782Y-33221D01*
X39788Y-33345D02*
X39788Y-34645D01*
X39930Y-33204D02*
X39788Y-33345D01*
X40799Y-33204D02*
X39930Y-33204D01*
X40098Y-34645D02*
X39788Y-34645D01*
X40720Y-34645D02*
X40408Y-34645D01*
X40743Y-34621D02*
X40720Y-34645D01*
X41054Y-34621D02*
X40743Y-34621D01*
X41078Y-34645D02*
X41054Y-34621D01*
X41480Y-34645D02*
X41078Y-34645D01*
X40827Y-32162D02*
X41222Y-32162D01*
X40358Y-31692D02*
X40827Y-32162D01*
X40098Y-31692D02*
X40358Y-31692D01*
X39788Y-31692D02*
X40098Y-31692D01*
X39738Y-31643D02*
X39788Y-31692D01*
X39738Y-30708D02*
X39738Y-31643D01*
X39428Y-30708D02*
X39738Y-30708D01*
X39428Y-30708D02*
X39428Y-30708D01*
X39268Y-29973D02*
X43740Y-29973D01*
X38910Y-32093D02*
X38910Y-30330D01*
X39428Y-32612D02*
X38910Y-32093D01*
X39428Y-32677D02*
X39428Y-32612D01*
X38910Y-30330D02*
X39268Y-29973D01*
X43740Y-29973D02*
X43915Y-30148D01*
X39866Y-32512D02*
X39866Y-32677D01*
X39422Y-32068D02*
X39866Y-32512D01*
X39206Y-32068D02*
X39422Y-32068D01*
X39118Y-31980D02*
X39206Y-32068D01*
X39118Y-30412D02*
X39118Y-31980D01*
X39198Y-30333D02*
X39118Y-30412D01*
X42019Y-30333D02*
X39198Y-30333D01*
X42104Y-30418D02*
X42019Y-30333D01*
X42104Y-31941D02*
X42104Y-30418D01*
X41629Y-32417D02*
X42104Y-31941D01*
X41222Y-32417D02*
X41629Y-32417D01*
X40098Y-32677D02*
X40098Y-32677D01*
X40098Y-32677D02*
X39866Y-32677D01*
X39428Y-33286D02*
X39428Y-33473D01*
X39788Y-32926D02*
X39428Y-33286D01*
X39788Y-32677D02*
X39788Y-32926D01*
X39866Y-32677D02*
X39788Y-32677D01*
X39428Y-33473D02*
X39428Y-33661D01*
X39428Y-33473D02*
X39428Y-33661D01*
X39428Y-33473D02*
X39428Y-33473D01*
X50184Y-31956D02*
X49464Y-32677D01*
X50184Y-31633D02*
X50184Y-31956D01*
X50531Y-31633D02*
X50184Y-31633D01*
X49153Y-32677D02*
X49464Y-32677D01*
X51377Y-36161D02*
X45621Y-36161D01*
X45621Y-36161D02*
X44655Y-35195D01*
X51723Y-34836D02*
X51377Y-35181D01*
X51723Y-33347D02*
X51723Y-34836D01*
X51508Y-33132D02*
X51723Y-33347D01*
X51437Y-33132D02*
X51508Y-33132D01*
X51437Y-32736D02*
X51437Y-33132D01*
X51377Y-35491D02*
X51377Y-35181D01*
X46669Y-35190D02*
X46630Y-35151D01*
X46630Y-35151D02*
X45795Y-35151D01*
G54D10*
G36*
X41773Y-33951D02*
X41658Y-33951D01*
X41560Y-33853D01*
X41422Y-33796D01*
X41273Y-33796D01*
X41135Y-33853D01*
X41030Y-33958D01*
X40972Y-34096D01*
X40972Y-34245D01*
X41029Y-34383D01*
X41071Y-34425D01*
X41054Y-34421D01*
X40743Y-34421D01*
X40667Y-34437D01*
X40654Y-34445D01*
X40508Y-34445D01*
X40508Y-33836D01*
X40508Y-33773D01*
X40446Y-33711D01*
X40148Y-33711D01*
X40148Y-34073D01*
X40211Y-34136D01*
X40308Y-34136D01*
X40400Y-34098D01*
X40470Y-34028D01*
X40508Y-33936D01*
X40508Y-33836D01*
X40508Y-34445D01*
X40408Y-34445D01*
X40408Y-34445D01*
X40408Y-34390D01*
X40386Y-34335D01*
X40343Y-34293D01*
X40288Y-34270D01*
X40229Y-34270D01*
X39988Y-34270D01*
X39988Y-34134D01*
X40048Y-34073D01*
X40048Y-33711D01*
X40040Y-33711D01*
X40040Y-33611D01*
X40048Y-33611D01*
X40048Y-33603D01*
X40148Y-33603D01*
X40148Y-33611D01*
X40446Y-33611D01*
X40508Y-33548D01*
X40508Y-33485D01*
X40508Y-33404D01*
X40702Y-33404D01*
X40706Y-33406D01*
X40782Y-33421D01*
X40816Y-33414D01*
X40816Y-33525D01*
X40839Y-33581D01*
X40881Y-33623D01*
X40936Y-33646D01*
X40996Y-33646D01*
X41468Y-33646D01*
X41773Y-33951D01*
X41773Y-33951D01*
G37*
G54D20*
X41773Y-33951D02*
X41658Y-33951D01*
X41560Y-33853D01*
X41422Y-33796D01*
X41273Y-33796D01*
X41135Y-33853D01*
X41030Y-33958D01*
X40972Y-34096D01*
X40972Y-34245D01*
X41029Y-34383D01*
X41071Y-34425D01*
X41054Y-34421D01*
X40743Y-34421D01*
X40667Y-34437D01*
X40654Y-34445D01*
X40508Y-34445D01*
X40508Y-33836D01*
X40508Y-33773D01*
X40446Y-33711D01*
X40148Y-33711D01*
X40148Y-34073D01*
X40211Y-34136D01*
X40308Y-34136D01*
X40400Y-34098D01*
X40470Y-34028D01*
X40508Y-33936D01*
X40508Y-33836D01*
X40508Y-34445D01*
X40408Y-34445D01*
X40408Y-34445D01*
X40408Y-34390D01*
X40386Y-34335D01*
X40343Y-34293D01*
X40288Y-34270D01*
X40229Y-34270D01*
X39988Y-34270D01*
X39988Y-34134D01*
X40048Y-34073D01*
X40048Y-33711D01*
X40040Y-33711D01*
X40040Y-33611D01*
X40048Y-33611D01*
X40048Y-33603D01*
X40148Y-33603D01*
X40148Y-33611D01*
X40446Y-33611D01*
X40508Y-33548D01*
X40508Y-33485D01*
X40508Y-33404D01*
X40702Y-33404D01*
X40706Y-33406D01*
X40782Y-33421D01*
X40816Y-33414D01*
X40816Y-33525D01*
X40839Y-33581D01*
X40881Y-33623D01*
X40936Y-33646D01*
X40996Y-33646D01*
X41468Y-33646D01*
X41773Y-33951D01*
G54D10*
G36*
X46133Y-31083D02*
X45692Y-31525D01*
X45649Y-31590D01*
X45633Y-31666D01*
X45633Y-31998D01*
X45641Y-32036D01*
X45648Y-32074D01*
X45649Y-32074D01*
X45649Y-32074D01*
X45670Y-32106D01*
X45692Y-32139D01*
X45780Y-32227D01*
X45780Y-32227D01*
X45780Y-32228D01*
X45815Y-32251D01*
X45835Y-32264D01*
X45835Y-32292D01*
X45835Y-32449D01*
X45858Y-32504D01*
X45866Y-32513D01*
X45694Y-32685D01*
X45651Y-32750D01*
X45635Y-32827D01*
X45635Y-33400D01*
X45292Y-33057D01*
X45228Y-33014D01*
X45151Y-32999D01*
X43903Y-32999D01*
X43866Y-32961D01*
X43472Y-32961D01*
X43472Y-32978D01*
X43372Y-32978D01*
X43372Y-32961D01*
X42979Y-32961D01*
X42916Y-33024D01*
X42916Y-33040D01*
X42954Y-33132D01*
X43016Y-33194D01*
X43016Y-33242D01*
X43016Y-33242D01*
X42939Y-33257D01*
X42875Y-33300D01*
X42874Y-33301D01*
X42743Y-33432D01*
X42782Y-33338D01*
X42782Y-33189D01*
X42725Y-33051D01*
X42655Y-32981D01*
X42669Y-32975D01*
X42767Y-32877D01*
X42907Y-32877D01*
X42912Y-32880D01*
X42912Y-32880D01*
X42913Y-32880D01*
X42957Y-32889D01*
X42968Y-32891D01*
X42979Y-32902D01*
X43372Y-32902D01*
X43372Y-32897D01*
X43422Y-32897D01*
X43472Y-32887D01*
X43472Y-32902D01*
X43866Y-32902D01*
X43928Y-32840D01*
X43928Y-32823D01*
X43890Y-32731D01*
X43833Y-32674D01*
X43890Y-32617D01*
X43928Y-32525D01*
X43928Y-32509D01*
X43866Y-32446D01*
X43472Y-32446D01*
X43472Y-32467D01*
X43422Y-32457D01*
X43372Y-32457D01*
X43372Y-32446D01*
X43024Y-32446D01*
X43018Y-32445D01*
X42976Y-32437D01*
X42767Y-32437D01*
X42669Y-32339D01*
X42532Y-32282D01*
X42382Y-32282D01*
X42244Y-32339D01*
X42139Y-32444D01*
X42082Y-32582D01*
X42082Y-32627D01*
X41976Y-32521D01*
X41905Y-32473D01*
X41863Y-32465D01*
X42246Y-32082D01*
X42289Y-32018D01*
X42304Y-31941D01*
X42304Y-31941D01*
X42304Y-31083D01*
X42330Y-31083D01*
X42650Y-31083D01*
X42705Y-31060D01*
X42748Y-31018D01*
X42770Y-30963D01*
X42771Y-30908D01*
X42816Y-30908D01*
X42816Y-32162D01*
X42831Y-32238D01*
X42875Y-32303D01*
X42935Y-32344D01*
X42979Y-32387D01*
X43372Y-32387D01*
X43372Y-32371D01*
X43472Y-32371D01*
X43472Y-32387D01*
X43866Y-32387D01*
X43928Y-32325D01*
X43928Y-32308D01*
X43890Y-32216D01*
X43828Y-32154D01*
X43828Y-32107D01*
X43829Y-32107D01*
X43905Y-32091D01*
X43970Y-32048D01*
X44571Y-31448D01*
X44614Y-31383D01*
X44629Y-31306D01*
X44629Y-31306D01*
X44629Y-31079D01*
X44674Y-31060D01*
X44716Y-31018D01*
X44739Y-30963D01*
X44739Y-30908D01*
X45811Y-30908D01*
X45811Y-30963D01*
X45834Y-31018D01*
X45876Y-31060D01*
X45931Y-31083D01*
X45991Y-31083D01*
X46133Y-31083D01*
X46133Y-31083D01*
G37*
G54D20*
X46133Y-31083D02*
X45692Y-31525D01*
X45649Y-31590D01*
X45633Y-31666D01*
X45633Y-31998D01*
X45641Y-32036D01*
X45648Y-32074D01*
X45649Y-32074D01*
X45649Y-32074D01*
X45670Y-32106D01*
X45692Y-32139D01*
X45780Y-32227D01*
X45780Y-32227D01*
X45780Y-32228D01*
X45815Y-32251D01*
X45835Y-32264D01*
X45835Y-32292D01*
X45835Y-32449D01*
X45858Y-32504D01*
X45866Y-32513D01*
X45694Y-32685D01*
X45651Y-32750D01*
X45635Y-32827D01*
X45635Y-33400D01*
X45292Y-33057D01*
X45228Y-33014D01*
X45151Y-32999D01*
X43903Y-32999D01*
X43866Y-32961D01*
X43472Y-32961D01*
X43472Y-32978D01*
X43372Y-32978D01*
X43372Y-32961D01*
X42979Y-32961D01*
X42916Y-33024D01*
X42916Y-33040D01*
X42954Y-33132D01*
X43016Y-33194D01*
X43016Y-33242D01*
X43016Y-33242D01*
X42939Y-33257D01*
X42875Y-33300D01*
X42874Y-33301D01*
X42743Y-33432D01*
X42782Y-33338D01*
X42782Y-33189D01*
X42725Y-33051D01*
X42655Y-32981D01*
X42669Y-32975D01*
X42767Y-32877D01*
X42907Y-32877D01*
X42912Y-32880D01*
X42912Y-32880D01*
X42913Y-32880D01*
X42957Y-32889D01*
X42968Y-32891D01*
X42979Y-32902D01*
X43372Y-32902D01*
X43372Y-32897D01*
X43422Y-32897D01*
X43472Y-32887D01*
X43472Y-32902D01*
X43866Y-32902D01*
X43928Y-32840D01*
X43928Y-32823D01*
X43890Y-32731D01*
X43833Y-32674D01*
X43890Y-32617D01*
X43928Y-32525D01*
X43928Y-32509D01*
X43866Y-32446D01*
X43472Y-32446D01*
X43472Y-32467D01*
X43422Y-32457D01*
X43372Y-32457D01*
X43372Y-32446D01*
X43024Y-32446D01*
X43018Y-32445D01*
X42976Y-32437D01*
X42767Y-32437D01*
X42669Y-32339D01*
X42532Y-32282D01*
X42382Y-32282D01*
X42244Y-32339D01*
X42139Y-32444D01*
X42082Y-32582D01*
X42082Y-32627D01*
X41976Y-32521D01*
X41905Y-32473D01*
X41863Y-32465D01*
X42246Y-32082D01*
X42289Y-32018D01*
X42304Y-31941D01*
X42304Y-31941D01*
X42304Y-31083D01*
X42330Y-31083D01*
X42650Y-31083D01*
X42705Y-31060D01*
X42748Y-31018D01*
X42770Y-30963D01*
X42771Y-30908D01*
X42816Y-30908D01*
X42816Y-32162D01*
X42831Y-32238D01*
X42875Y-32303D01*
X42935Y-32344D01*
X42979Y-32387D01*
X43372Y-32387D01*
X43372Y-32371D01*
X43472Y-32371D01*
X43472Y-32387D01*
X43866Y-32387D01*
X43928Y-32325D01*
X43928Y-32308D01*
X43890Y-32216D01*
X43828Y-32154D01*
X43828Y-32107D01*
X43829Y-32107D01*
X43905Y-32091D01*
X43970Y-32048D01*
X44571Y-31448D01*
X44614Y-31383D01*
X44629Y-31306D01*
X44629Y-31306D01*
X44629Y-31079D01*
X44674Y-31060D01*
X44716Y-31018D01*
X44739Y-30963D01*
X44739Y-30908D01*
X45811Y-30908D01*
X45811Y-30963D01*
X45834Y-31018D01*
X45876Y-31060D01*
X45931Y-31083D01*
X45991Y-31083D01*
X46133Y-31083D01*
G54D10*
G36*
X46539Y-34300D02*
X46504Y-34335D01*
X46481Y-34390D01*
X46481Y-34450D01*
X46481Y-34900D01*
X46487Y-34914D01*
X46485Y-34915D01*
X46448Y-34951D01*
X46410Y-34951D01*
X46431Y-34900D01*
X46431Y-34840D01*
X46431Y-34390D01*
X46408Y-34335D01*
X46366Y-34293D01*
X46311Y-34270D01*
X46251Y-34270D01*
X45931Y-34270D01*
X45876Y-34293D01*
X45834Y-34335D01*
X45811Y-34390D01*
X45811Y-34425D01*
X45786Y-34420D01*
X44764Y-34420D01*
X44739Y-34425D01*
X44739Y-34390D01*
X44716Y-34335D01*
X44674Y-34293D01*
X44629Y-34274D01*
X44629Y-34042D01*
X44616Y-33978D01*
X44614Y-33965D01*
X44614Y-33965D01*
X44570Y-33901D01*
X44068Y-33399D01*
X45068Y-33399D01*
X45776Y-34106D01*
X45776Y-34106D01*
X45841Y-34150D01*
X45841Y-34150D01*
X45854Y-34152D01*
X45918Y-34165D01*
X46385Y-34165D01*
X46400Y-34162D01*
X46539Y-34300D01*
X46539Y-34300D01*
G37*
G54D20*
X46539Y-34300D02*
X46504Y-34335D01*
X46481Y-34390D01*
X46481Y-34450D01*
X46481Y-34900D01*
X46487Y-34914D01*
X46485Y-34915D01*
X46448Y-34951D01*
X46410Y-34951D01*
X46431Y-34900D01*
X46431Y-34840D01*
X46431Y-34390D01*
X46408Y-34335D01*
X46366Y-34293D01*
X46311Y-34270D01*
X46251Y-34270D01*
X45931Y-34270D01*
X45876Y-34293D01*
X45834Y-34335D01*
X45811Y-34390D01*
X45811Y-34425D01*
X45786Y-34420D01*
X44764Y-34420D01*
X44739Y-34425D01*
X44739Y-34390D01*
X44716Y-34335D01*
X44674Y-34293D01*
X44629Y-34274D01*
X44629Y-34042D01*
X44616Y-33978D01*
X44614Y-33965D01*
X44614Y-33965D01*
X44570Y-33901D01*
X44068Y-33399D01*
X45068Y-33399D01*
X45776Y-34106D01*
X45776Y-34106D01*
X45841Y-34150D01*
X45841Y-34150D01*
X45854Y-34152D01*
X45918Y-34165D01*
X46385Y-34165D01*
X46400Y-34162D01*
X46539Y-34300D01*
G54D10*
G36*
X50510Y-31237D02*
X50304Y-31237D01*
X50249Y-31260D01*
X50207Y-31302D01*
X50184Y-31357D01*
X50184Y-31417D01*
X50184Y-31433D01*
X50184Y-31433D01*
X50107Y-31449D01*
X50043Y-31492D01*
X49999Y-31557D01*
X49984Y-31633D01*
X49984Y-31873D01*
X49455Y-32402D01*
X49441Y-32367D01*
X49398Y-32325D01*
X49343Y-32302D01*
X49284Y-32302D01*
X48964Y-32302D01*
X48909Y-32324D01*
X48866Y-32367D01*
X48843Y-32422D01*
X48843Y-32481D01*
X48843Y-32844D01*
X48793Y-32844D01*
X48793Y-32422D01*
X48771Y-32367D01*
X48728Y-32325D01*
X48673Y-32302D01*
X48614Y-32302D01*
X48433Y-32302D01*
X48433Y-32105D01*
X48433Y-31742D01*
X48433Y-31642D01*
X48433Y-31280D01*
X48371Y-31217D01*
X48274Y-31217D01*
X48182Y-31255D01*
X48112Y-31326D01*
X48073Y-31417D01*
X48073Y-31517D01*
X48073Y-31580D01*
X48136Y-31642D01*
X48433Y-31642D01*
X48433Y-31742D01*
X48136Y-31742D01*
X48073Y-31805D01*
X48073Y-31868D01*
X48073Y-31967D01*
X48112Y-32059D01*
X48182Y-32129D01*
X48274Y-32167D01*
X48371Y-32167D01*
X48433Y-32105D01*
X48433Y-32302D01*
X48294Y-32302D01*
X48239Y-32324D01*
X48196Y-32367D01*
X48173Y-32422D01*
X48173Y-32481D01*
X48173Y-32931D01*
X48196Y-32987D01*
X48238Y-33029D01*
X48283Y-33047D01*
X48283Y-33052D01*
X48299Y-33128D01*
X48342Y-33193D01*
X48407Y-33237D01*
X48472Y-33249D01*
X48487Y-33286D01*
X48294Y-33286D01*
X48239Y-33309D01*
X48196Y-33351D01*
X48182Y-33386D01*
X48118Y-33323D01*
X48053Y-33279D01*
X47976Y-33264D01*
X47196Y-33264D01*
X47177Y-33264D01*
X47130Y-33264D01*
X47115Y-33248D01*
X46988Y-33248D01*
X46957Y-33236D01*
X46897Y-33236D01*
X46712Y-33236D01*
X46712Y-33170D01*
X46720Y-33170D01*
X46720Y-33151D01*
X46820Y-33151D01*
X46820Y-33170D01*
X47115Y-33170D01*
X47177Y-33107D01*
X47177Y-33081D01*
X47139Y-32989D01*
X47069Y-32919D01*
X46977Y-32881D01*
X46878Y-32881D01*
X46883Y-32881D01*
X46820Y-32943D01*
X46820Y-32918D01*
X46912Y-32827D01*
X46912Y-32827D01*
X46955Y-32762D01*
X46970Y-32685D01*
X46970Y-32599D01*
X46970Y-32564D01*
X47012Y-32547D01*
X47054Y-32505D01*
X47077Y-32450D01*
X47077Y-32390D01*
X47077Y-32368D01*
X47139Y-32306D01*
X47177Y-32214D01*
X47177Y-32188D01*
X47115Y-32125D01*
X46988Y-32125D01*
X46957Y-32113D01*
X46897Y-32113D01*
X46712Y-32113D01*
X46712Y-32060D01*
X46957Y-32060D01*
X46988Y-32047D01*
X47115Y-32047D01*
X47177Y-31984D01*
X47177Y-31958D01*
X47139Y-31866D01*
X47079Y-31806D01*
X47367Y-31517D01*
X47564Y-31517D01*
X47641Y-31502D01*
X47706Y-31459D01*
X48182Y-30983D01*
X48196Y-31018D01*
X48238Y-31060D01*
X48293Y-31083D01*
X48353Y-31083D01*
X48643Y-31083D01*
X48643Y-31217D01*
X48596Y-31217D01*
X48533Y-31280D01*
X48533Y-31642D01*
X48541Y-31642D01*
X48541Y-31742D01*
X48533Y-31742D01*
X48533Y-32105D01*
X48596Y-32167D01*
X48693Y-32167D01*
X48785Y-32129D01*
X48855Y-32059D01*
X48875Y-32011D01*
X48908Y-32045D01*
X48963Y-32067D01*
X49023Y-32067D01*
X49343Y-32067D01*
X49398Y-32045D01*
X49440Y-32002D01*
X49463Y-31947D01*
X49463Y-31888D01*
X49463Y-31438D01*
X49441Y-31383D01*
X49398Y-31340D01*
X49343Y-31317D01*
X49284Y-31317D01*
X49043Y-31317D01*
X49043Y-31083D01*
X49343Y-31083D01*
X49398Y-31060D01*
X49440Y-31018D01*
X49463Y-30963D01*
X49463Y-30928D01*
X50201Y-30928D01*
X50510Y-31237D01*
X50510Y-31237D01*
G37*
G54D20*
X50510Y-31237D02*
X50304Y-31237D01*
X50249Y-31260D01*
X50207Y-31302D01*
X50184Y-31357D01*
X50184Y-31417D01*
X50184Y-31433D01*
X50184Y-31433D01*
X50107Y-31449D01*
X50043Y-31492D01*
X49999Y-31557D01*
X49984Y-31633D01*
X49984Y-31873D01*
X49455Y-32402D01*
X49441Y-32367D01*
X49398Y-32325D01*
X49343Y-32302D01*
X49284Y-32302D01*
X48964Y-32302D01*
X48909Y-32324D01*
X48866Y-32367D01*
X48843Y-32422D01*
X48843Y-32481D01*
X48843Y-32844D01*
X48793Y-32844D01*
X48793Y-32422D01*
X48771Y-32367D01*
X48728Y-32325D01*
X48673Y-32302D01*
X48614Y-32302D01*
X48433Y-32302D01*
X48433Y-32105D01*
X48433Y-31742D01*
X48433Y-31642D01*
X48433Y-31280D01*
X48371Y-31217D01*
X48274Y-31217D01*
X48182Y-31255D01*
X48112Y-31326D01*
X48073Y-31417D01*
X48073Y-31517D01*
X48073Y-31580D01*
X48136Y-31642D01*
X48433Y-31642D01*
X48433Y-31742D01*
X48136Y-31742D01*
X48073Y-31805D01*
X48073Y-31868D01*
X48073Y-31967D01*
X48112Y-32059D01*
X48182Y-32129D01*
X48274Y-32167D01*
X48371Y-32167D01*
X48433Y-32105D01*
X48433Y-32302D01*
X48294Y-32302D01*
X48239Y-32324D01*
X48196Y-32367D01*
X48173Y-32422D01*
X48173Y-32481D01*
X48173Y-32931D01*
X48196Y-32987D01*
X48238Y-33029D01*
X48283Y-33047D01*
X48283Y-33052D01*
X48299Y-33128D01*
X48342Y-33193D01*
X48407Y-33237D01*
X48472Y-33249D01*
X48487Y-33286D01*
X48294Y-33286D01*
X48239Y-33309D01*
X48196Y-33351D01*
X48182Y-33386D01*
X48118Y-33323D01*
X48053Y-33279D01*
X47976Y-33264D01*
X47196Y-33264D01*
X47177Y-33264D01*
X47130Y-33264D01*
X47115Y-33248D01*
X46988Y-33248D01*
X46957Y-33236D01*
X46897Y-33236D01*
X46712Y-33236D01*
X46712Y-33170D01*
X46720Y-33170D01*
X46720Y-33151D01*
X46820Y-33151D01*
X46820Y-33170D01*
X47115Y-33170D01*
X47177Y-33107D01*
X47177Y-33081D01*
X47139Y-32989D01*
X47069Y-32919D01*
X46977Y-32881D01*
X46878Y-32881D01*
X46883Y-32881D01*
X46820Y-32943D01*
X46820Y-32918D01*
X46912Y-32827D01*
X46912Y-32827D01*
X46955Y-32762D01*
X46970Y-32685D01*
X46970Y-32599D01*
X46970Y-32564D01*
X47012Y-32547D01*
X47054Y-32505D01*
X47077Y-32450D01*
X47077Y-32390D01*
X47077Y-32368D01*
X47139Y-32306D01*
X47177Y-32214D01*
X47177Y-32188D01*
X47115Y-32125D01*
X46988Y-32125D01*
X46957Y-32113D01*
X46897Y-32113D01*
X46712Y-32113D01*
X46712Y-32060D01*
X46957Y-32060D01*
X46988Y-32047D01*
X47115Y-32047D01*
X47177Y-31984D01*
X47177Y-31958D01*
X47139Y-31866D01*
X47079Y-31806D01*
X47367Y-31517D01*
X47564Y-31517D01*
X47641Y-31502D01*
X47706Y-31459D01*
X48182Y-30983D01*
X48196Y-31018D01*
X48238Y-31060D01*
X48293Y-31083D01*
X48353Y-31083D01*
X48643Y-31083D01*
X48643Y-31217D01*
X48596Y-31217D01*
X48533Y-31280D01*
X48533Y-31642D01*
X48541Y-31642D01*
X48541Y-31742D01*
X48533Y-31742D01*
X48533Y-32105D01*
X48596Y-32167D01*
X48693Y-32167D01*
X48785Y-32129D01*
X48855Y-32059D01*
X48875Y-32011D01*
X48908Y-32045D01*
X48963Y-32067D01*
X49023Y-32067D01*
X49343Y-32067D01*
X49398Y-32045D01*
X49440Y-32002D01*
X49463Y-31947D01*
X49463Y-31888D01*
X49463Y-31438D01*
X49441Y-31383D01*
X49398Y-31340D01*
X49343Y-31317D01*
X49284Y-31317D01*
X49043Y-31317D01*
X49043Y-31083D01*
X49343Y-31083D01*
X49398Y-31060D01*
X49440Y-31018D01*
X49463Y-30963D01*
X49463Y-30928D01*
X50201Y-30928D01*
X50510Y-31237D01*
G54D10*
G36*
X51523Y-34753D02*
X51236Y-35040D01*
X51193Y-35105D01*
X51177Y-35181D01*
X51177Y-35181D01*
X51123Y-35181D01*
X51068Y-35204D01*
X51025Y-35246D01*
X51002Y-35301D01*
X51002Y-35361D01*
X51002Y-35651D01*
X48662Y-35651D01*
X48433Y-35422D01*
X48433Y-35058D01*
X48433Y-34695D01*
X48136Y-34695D01*
X48073Y-34758D01*
X48073Y-34821D01*
X48073Y-34920D01*
X48112Y-35012D01*
X48182Y-35082D01*
X48274Y-35120D01*
X48371Y-35120D01*
X48433Y-35058D01*
X48433Y-35422D01*
X47697Y-34686D01*
X47697Y-34584D01*
X47772Y-34509D01*
X47822Y-34389D01*
X47822Y-34260D01*
X47773Y-34141D01*
X47681Y-34049D01*
X47562Y-34000D01*
X47433Y-33999D01*
X47313Y-34049D01*
X47222Y-34140D01*
X47172Y-34260D01*
X47172Y-34389D01*
X47221Y-34508D01*
X47297Y-34584D01*
X47297Y-34769D01*
X47312Y-34846D01*
X47356Y-34910D01*
X48407Y-35961D01*
X45704Y-35961D01*
X44980Y-35237D01*
X44980Y-35131D01*
X44930Y-35011D01*
X44839Y-34920D01*
X44739Y-34878D01*
X44739Y-34845D01*
X44739Y-34845D01*
X44816Y-34830D01*
X44831Y-34820D01*
X45719Y-34820D01*
X45730Y-34827D01*
X45612Y-34876D01*
X45520Y-34967D01*
X45470Y-35086D01*
X45470Y-35216D01*
X45520Y-35335D01*
X45611Y-35427D01*
X45730Y-35476D01*
X45860Y-35476D01*
X45979Y-35427D01*
X46055Y-35351D01*
X46384Y-35351D01*
X46393Y-35374D01*
X46484Y-35466D01*
X46604Y-35515D01*
X46733Y-35515D01*
X46853Y-35466D01*
X46944Y-35375D01*
X46994Y-35255D01*
X46994Y-35126D01*
X46950Y-35020D01*
X46981Y-35020D01*
X47036Y-34997D01*
X47078Y-34955D01*
X47101Y-34900D01*
X47101Y-34840D01*
X47101Y-34390D01*
X47078Y-34335D01*
X47036Y-34293D01*
X46991Y-34274D01*
X46991Y-34270D01*
X46991Y-34270D01*
X46976Y-34193D01*
X46933Y-34129D01*
X46752Y-33948D01*
X46957Y-33948D01*
X47012Y-33925D01*
X47054Y-33883D01*
X47077Y-33828D01*
X47077Y-33768D01*
X47077Y-33664D01*
X47196Y-33664D01*
X47894Y-33664D01*
X48032Y-33802D01*
X48032Y-33802D01*
X48075Y-33831D01*
X48097Y-33846D01*
X48097Y-33846D01*
X48173Y-33861D01*
X48173Y-33861D01*
X48173Y-33861D01*
X48173Y-33916D01*
X48196Y-33971D01*
X48238Y-34013D01*
X48283Y-34032D01*
X48283Y-34036D01*
X48299Y-34113D01*
X48337Y-34170D01*
X48274Y-34170D01*
X48182Y-34208D01*
X48112Y-34278D01*
X48073Y-34370D01*
X48073Y-34470D01*
X48073Y-34533D01*
X48136Y-34595D01*
X48433Y-34595D01*
X48433Y-34587D01*
X48533Y-34587D01*
X48533Y-34595D01*
X48541Y-34595D01*
X48541Y-34695D01*
X48533Y-34695D01*
X48533Y-35058D01*
X48596Y-35120D01*
X48693Y-35120D01*
X48785Y-35082D01*
X48855Y-35012D01*
X48875Y-34964D01*
X48908Y-34997D01*
X48963Y-35020D01*
X49023Y-35020D01*
X49343Y-35020D01*
X49398Y-34997D01*
X49440Y-34955D01*
X49463Y-34900D01*
X49463Y-34845D01*
X49819Y-34845D01*
X49895Y-34830D01*
X49960Y-34787D01*
X50531Y-34216D01*
X50598Y-34282D01*
X50598Y-34468D01*
X50620Y-34523D01*
X50662Y-34566D01*
X50718Y-34588D01*
X50777Y-34589D01*
X51250Y-34589D01*
X51305Y-34566D01*
X51347Y-34524D01*
X51370Y-34468D01*
X51370Y-34409D01*
X51370Y-33917D01*
X51347Y-33861D01*
X51305Y-33819D01*
X51250Y-33796D01*
X51190Y-33796D01*
X50731Y-33796D01*
X50731Y-33132D01*
X50731Y-33132D01*
X50758Y-33132D01*
X50813Y-33109D01*
X50855Y-33067D01*
X50878Y-33012D01*
X50878Y-32952D01*
X50878Y-32540D01*
X50922Y-32540D01*
X51090Y-32540D01*
X51090Y-33011D01*
X51112Y-33067D01*
X51155Y-33109D01*
X51210Y-33132D01*
X51237Y-33132D01*
X51237Y-33132D01*
X51252Y-33208D01*
X51295Y-33273D01*
X51360Y-33317D01*
X51422Y-33329D01*
X51523Y-33429D01*
X51523Y-34753D01*
X51523Y-34753D01*
G37*
G54D20*
X51523Y-34753D02*
X51236Y-35040D01*
X51193Y-35105D01*
X51177Y-35181D01*
X51177Y-35181D01*
X51123Y-35181D01*
X51068Y-35204D01*
X51025Y-35246D01*
X51002Y-35301D01*
X51002Y-35361D01*
X51002Y-35651D01*
X48662Y-35651D01*
X48433Y-35422D01*
X48433Y-35058D01*
X48433Y-34695D01*
X48136Y-34695D01*
X48073Y-34758D01*
X48073Y-34821D01*
X48073Y-34920D01*
X48112Y-35012D01*
X48182Y-35082D01*
X48274Y-35120D01*
X48371Y-35120D01*
X48433Y-35058D01*
X48433Y-35422D01*
X47697Y-34686D01*
X47697Y-34584D01*
X47772Y-34509D01*
X47822Y-34389D01*
X47822Y-34260D01*
X47773Y-34141D01*
X47681Y-34049D01*
X47562Y-34000D01*
X47433Y-33999D01*
X47313Y-34049D01*
X47222Y-34140D01*
X47172Y-34260D01*
X47172Y-34389D01*
X47221Y-34508D01*
X47297Y-34584D01*
X47297Y-34769D01*
X47312Y-34846D01*
X47356Y-34910D01*
X48407Y-35961D01*
X45704Y-35961D01*
X44980Y-35237D01*
X44980Y-35131D01*
X44930Y-35011D01*
X44839Y-34920D01*
X44739Y-34878D01*
X44739Y-34845D01*
X44739Y-34845D01*
X44816Y-34830D01*
X44831Y-34820D01*
X45719Y-34820D01*
X45730Y-34827D01*
X45612Y-34876D01*
X45520Y-34967D01*
X45470Y-35086D01*
X45470Y-35216D01*
X45520Y-35335D01*
X45611Y-35427D01*
X45730Y-35476D01*
X45860Y-35476D01*
X45979Y-35427D01*
X46055Y-35351D01*
X46384Y-35351D01*
X46393Y-35374D01*
X46484Y-35466D01*
X46604Y-35515D01*
X46733Y-35515D01*
X46853Y-35466D01*
X46944Y-35375D01*
X46994Y-35255D01*
X46994Y-35126D01*
X46950Y-35020D01*
X46981Y-35020D01*
X47036Y-34997D01*
X47078Y-34955D01*
X47101Y-34900D01*
X47101Y-34840D01*
X47101Y-34390D01*
X47078Y-34335D01*
X47036Y-34293D01*
X46991Y-34274D01*
X46991Y-34270D01*
X46991Y-34270D01*
X46976Y-34193D01*
X46933Y-34129D01*
X46752Y-33948D01*
X46957Y-33948D01*
X47012Y-33925D01*
X47054Y-33883D01*
X47077Y-33828D01*
X47077Y-33768D01*
X47077Y-33664D01*
X47196Y-33664D01*
X47894Y-33664D01*
X48032Y-33802D01*
X48032Y-33802D01*
X48075Y-33831D01*
X48097Y-33846D01*
X48097Y-33846D01*
X48173Y-33861D01*
X48173Y-33861D01*
X48173Y-33861D01*
X48173Y-33916D01*
X48196Y-33971D01*
X48238Y-34013D01*
X48283Y-34032D01*
X48283Y-34036D01*
X48299Y-34113D01*
X48337Y-34170D01*
X48274Y-34170D01*
X48182Y-34208D01*
X48112Y-34278D01*
X48073Y-34370D01*
X48073Y-34470D01*
X48073Y-34533D01*
X48136Y-34595D01*
X48433Y-34595D01*
X48433Y-34587D01*
X48533Y-34587D01*
X48533Y-34595D01*
X48541Y-34595D01*
X48541Y-34695D01*
X48533Y-34695D01*
X48533Y-35058D01*
X48596Y-35120D01*
X48693Y-35120D01*
X48785Y-35082D01*
X48855Y-35012D01*
X48875Y-34964D01*
X48908Y-34997D01*
X48963Y-35020D01*
X49023Y-35020D01*
X49343Y-35020D01*
X49398Y-34997D01*
X49440Y-34955D01*
X49463Y-34900D01*
X49463Y-34845D01*
X49819Y-34845D01*
X49895Y-34830D01*
X49960Y-34787D01*
X50531Y-34216D01*
X50598Y-34282D01*
X50598Y-34468D01*
X50620Y-34523D01*
X50662Y-34566D01*
X50718Y-34588D01*
X50777Y-34589D01*
X51250Y-34589D01*
X51305Y-34566D01*
X51347Y-34524D01*
X51370Y-34468D01*
X51370Y-34409D01*
X51370Y-33917D01*
X51347Y-33861D01*
X51305Y-33819D01*
X51250Y-33796D01*
X51190Y-33796D01*
X50731Y-33796D01*
X50731Y-33132D01*
X50731Y-33132D01*
X50758Y-33132D01*
X50813Y-33109D01*
X50855Y-33067D01*
X50878Y-33012D01*
X50878Y-32952D01*
X50878Y-32540D01*
X50922Y-32540D01*
X51090Y-32540D01*
X51090Y-33011D01*
X51112Y-33067D01*
X51155Y-33109D01*
X51210Y-33132D01*
X51237Y-33132D01*
X51237Y-33132D01*
X51252Y-33208D01*
X51295Y-33273D01*
X51360Y-33317D01*
X51422Y-33329D01*
X51523Y-33429D01*
X51523Y-34753D01*
G54D10*
G36*
X52192Y-32494D02*
X52145Y-32423D01*
X51886Y-32164D01*
X51814Y-32116D01*
X51730Y-32100D01*
X51142Y-32100D01*
X51142Y-31994D01*
X51155Y-32007D01*
X51210Y-32029D01*
X51269Y-32029D01*
X51663Y-32029D01*
X51718Y-32007D01*
X51760Y-31965D01*
X51783Y-31909D01*
X51783Y-31850D01*
X51783Y-31358D01*
X51761Y-31302D01*
X51718Y-31260D01*
X51663Y-31237D01*
X51637Y-31237D01*
X51637Y-31237D01*
X51637Y-31237D01*
X51621Y-31161D01*
X51621Y-31161D01*
X51607Y-31139D01*
X51578Y-31096D01*
X51578Y-31096D01*
X51570Y-31088D01*
X51570Y-30177D01*
X51555Y-30100D01*
X51512Y-30035D01*
X51447Y-29992D01*
X51370Y-29977D01*
X51370Y-29977D01*
X51370Y-29901D01*
X51347Y-29846D01*
X51305Y-29804D01*
X51250Y-29781D01*
X51190Y-29781D01*
X50718Y-29781D01*
X50663Y-29803D01*
X50620Y-29846D01*
X50598Y-29901D01*
X50598Y-29960D01*
X50598Y-29977D01*
X50597Y-29977D01*
X49088Y-29977D01*
X49011Y-29992D01*
X48946Y-30035D01*
X48652Y-30329D01*
X48650Y-30333D01*
X48614Y-30333D01*
X48294Y-30333D01*
X48239Y-30356D01*
X48196Y-30398D01*
X48173Y-30453D01*
X48173Y-30508D01*
X48173Y-30508D01*
X48097Y-30523D01*
X48075Y-30538D01*
X48032Y-30567D01*
X47481Y-31117D01*
X47284Y-31117D01*
X47256Y-31123D01*
X47272Y-31098D01*
X47286Y-31077D01*
X47286Y-31077D01*
X47301Y-31000D01*
X47301Y-31000D01*
X47301Y-30401D01*
X47286Y-30324D01*
X47243Y-30259D01*
X47243Y-30259D01*
X47157Y-30173D01*
X47092Y-30130D01*
X47016Y-30115D01*
X44240Y-30115D01*
X44240Y-30083D01*
X44191Y-29964D01*
X44099Y-29872D01*
X43980Y-29823D01*
X43868Y-29823D01*
X43816Y-29788D01*
X43740Y-29773D01*
X39268Y-29773D01*
X39191Y-29788D01*
X39169Y-29802D01*
X39126Y-29831D01*
X38768Y-30189D01*
X38752Y-30214D01*
X38752Y-29500D01*
X52192Y-29500D01*
X52192Y-32494D01*
X52192Y-32494D01*
G37*
G54D20*
X52192Y-32494D02*
X52145Y-32423D01*
X51886Y-32164D01*
X51814Y-32116D01*
X51730Y-32100D01*
X51142Y-32100D01*
X51142Y-31994D01*
X51155Y-32007D01*
X51210Y-32029D01*
X51269Y-32029D01*
X51663Y-32029D01*
X51718Y-32007D01*
X51760Y-31965D01*
X51783Y-31909D01*
X51783Y-31850D01*
X51783Y-31358D01*
X51761Y-31302D01*
X51718Y-31260D01*
X51663Y-31237D01*
X51637Y-31237D01*
X51637Y-31237D01*
X51637Y-31237D01*
X51621Y-31161D01*
X51621Y-31161D01*
X51607Y-31139D01*
X51578Y-31096D01*
X51578Y-31096D01*
X51570Y-31088D01*
X51570Y-30177D01*
X51555Y-30100D01*
X51512Y-30035D01*
X51447Y-29992D01*
X51370Y-29977D01*
X51370Y-29977D01*
X51370Y-29901D01*
X51347Y-29846D01*
X51305Y-29804D01*
X51250Y-29781D01*
X51190Y-29781D01*
X50718Y-29781D01*
X50663Y-29803D01*
X50620Y-29846D01*
X50598Y-29901D01*
X50598Y-29960D01*
X50598Y-29977D01*
X50597Y-29977D01*
X49088Y-29977D01*
X49011Y-29992D01*
X48946Y-30035D01*
X48652Y-30329D01*
X48650Y-30333D01*
X48614Y-30333D01*
X48294Y-30333D01*
X48239Y-30356D01*
X48196Y-30398D01*
X48173Y-30453D01*
X48173Y-30508D01*
X48173Y-30508D01*
X48097Y-30523D01*
X48075Y-30538D01*
X48032Y-30567D01*
X47481Y-31117D01*
X47284Y-31117D01*
X47256Y-31123D01*
X47272Y-31098D01*
X47286Y-31077D01*
X47286Y-31077D01*
X47301Y-31000D01*
X47301Y-31000D01*
X47301Y-30401D01*
X47286Y-30324D01*
X47243Y-30259D01*
X47243Y-30259D01*
X47157Y-30173D01*
X47092Y-30130D01*
X47016Y-30115D01*
X44240Y-30115D01*
X44240Y-30083D01*
X44191Y-29964D01*
X44099Y-29872D01*
X43980Y-29823D01*
X43868Y-29823D01*
X43816Y-29788D01*
X43740Y-29773D01*
X39268Y-29773D01*
X39191Y-29788D01*
X39169Y-29802D01*
X39126Y-29831D01*
X38768Y-30189D01*
X38752Y-30214D01*
X38752Y-29500D01*
X52192Y-29500D01*
X52192Y-32494D01*
G54D10*
G36*
X52192Y-37035D02*
X39378Y-37035D01*
X39378Y-35058D01*
X39378Y-34695D01*
X39378Y-34595D01*
X39378Y-34233D01*
X39316Y-34170D01*
X39219Y-34170D01*
X39127Y-34208D01*
X39056Y-34278D01*
X39018Y-34370D01*
X39018Y-34470D01*
X39018Y-34533D01*
X39081Y-34595D01*
X39378Y-34595D01*
X39378Y-34695D01*
X39081Y-34695D01*
X39018Y-34758D01*
X39018Y-34821D01*
X39018Y-34920D01*
X39056Y-35012D01*
X39127Y-35082D01*
X39219Y-35120D01*
X39316Y-35120D01*
X39378Y-35058D01*
X39378Y-37035D01*
X38752Y-37035D01*
X38752Y-32210D01*
X38768Y-32235D01*
X39118Y-32584D01*
X39118Y-32931D01*
X39141Y-32987D01*
X39183Y-33029D01*
X39238Y-33052D01*
X39298Y-33052D01*
X39380Y-33052D01*
X39287Y-33144D01*
X39243Y-33209D01*
X39228Y-33286D01*
X39228Y-33290D01*
X39183Y-33309D01*
X39141Y-33351D01*
X39118Y-33406D01*
X39118Y-33466D01*
X39118Y-33916D01*
X39141Y-33971D01*
X39183Y-34013D01*
X39238Y-34036D01*
X39298Y-34036D01*
X39588Y-34036D01*
X39588Y-34170D01*
X39541Y-34170D01*
X39478Y-34233D01*
X39478Y-34595D01*
X39486Y-34595D01*
X39486Y-34695D01*
X39478Y-34695D01*
X39478Y-35058D01*
X39541Y-35120D01*
X39638Y-35120D01*
X39730Y-35082D01*
X39800Y-35012D01*
X39820Y-34964D01*
X39853Y-34997D01*
X39908Y-35020D01*
X39968Y-35020D01*
X40288Y-35020D01*
X40343Y-34997D01*
X40385Y-34955D01*
X40408Y-34900D01*
X40408Y-34845D01*
X40408Y-34845D01*
X40720Y-34845D01*
X40796Y-34830D01*
X40809Y-34821D01*
X40989Y-34821D01*
X41001Y-34830D01*
X41001Y-34830D01*
X41078Y-34845D01*
X41078Y-34845D01*
X41480Y-34845D01*
X41480Y-34845D01*
X41480Y-34900D01*
X41503Y-34955D01*
X41545Y-34997D01*
X41601Y-35020D01*
X41660Y-35020D01*
X41926Y-35020D01*
X41927Y-35025D01*
X41975Y-35096D01*
X42237Y-35359D01*
X42237Y-35359D01*
X42309Y-35406D01*
X42366Y-35418D01*
X42469Y-35521D01*
X42607Y-35578D01*
X42745Y-35578D01*
X44015Y-36848D01*
X44086Y-36895D01*
X44086Y-36895D01*
X44170Y-36912D01*
X51783Y-36912D01*
X51867Y-36895D01*
X51867Y-36895D01*
X51938Y-36848D01*
X52145Y-36641D01*
X52192Y-36571D01*
X52192Y-37035D01*
X52192Y-37035D01*
G37*
G54D20*
X52192Y-37035D02*
X39378Y-37035D01*
X39378Y-35058D01*
X39378Y-34695D01*
X39378Y-34595D01*
X39378Y-34233D01*
X39316Y-34170D01*
X39219Y-34170D01*
X39127Y-34208D01*
X39056Y-34278D01*
X39018Y-34370D01*
X39018Y-34470D01*
X39018Y-34533D01*
X39081Y-34595D01*
X39378Y-34595D01*
X39378Y-34695D01*
X39081Y-34695D01*
X39018Y-34758D01*
X39018Y-34821D01*
X39018Y-34920D01*
X39056Y-35012D01*
X39127Y-35082D01*
X39219Y-35120D01*
X39316Y-35120D01*
X39378Y-35058D01*
X39378Y-37035D01*
X38752Y-37035D01*
X38752Y-32210D01*
X38768Y-32235D01*
X39118Y-32584D01*
X39118Y-32931D01*
X39141Y-32987D01*
X39183Y-33029D01*
X39238Y-33052D01*
X39298Y-33052D01*
X39380Y-33052D01*
X39287Y-33144D01*
X39243Y-33209D01*
X39228Y-33286D01*
X39228Y-33290D01*
X39183Y-33309D01*
X39141Y-33351D01*
X39118Y-33406D01*
X39118Y-33466D01*
X39118Y-33916D01*
X39141Y-33971D01*
X39183Y-34013D01*
X39238Y-34036D01*
X39298Y-34036D01*
X39588Y-34036D01*
X39588Y-34170D01*
X39541Y-34170D01*
X39478Y-34233D01*
X39478Y-34595D01*
X39486Y-34595D01*
X39486Y-34695D01*
X39478Y-34695D01*
X39478Y-35058D01*
X39541Y-35120D01*
X39638Y-35120D01*
X39730Y-35082D01*
X39800Y-35012D01*
X39820Y-34964D01*
X39853Y-34997D01*
X39908Y-35020D01*
X39968Y-35020D01*
X40288Y-35020D01*
X40343Y-34997D01*
X40385Y-34955D01*
X40408Y-34900D01*
X40408Y-34845D01*
X40408Y-34845D01*
X40720Y-34845D01*
X40796Y-34830D01*
X40809Y-34821D01*
X40989Y-34821D01*
X41001Y-34830D01*
X41001Y-34830D01*
X41078Y-34845D01*
X41078Y-34845D01*
X41480Y-34845D01*
X41480Y-34845D01*
X41480Y-34900D01*
X41503Y-34955D01*
X41545Y-34997D01*
X41601Y-35020D01*
X41660Y-35020D01*
X41926Y-35020D01*
X41927Y-35025D01*
X41975Y-35096D01*
X42237Y-35359D01*
X42237Y-35359D01*
X42309Y-35406D01*
X42366Y-35418D01*
X42469Y-35521D01*
X42607Y-35578D01*
X42745Y-35578D01*
X44015Y-36848D01*
X44086Y-36895D01*
X44086Y-36895D01*
X44170Y-36912D01*
X51783Y-36912D01*
X51867Y-36895D01*
X51867Y-36895D01*
X51938Y-36848D01*
X52145Y-36641D01*
X52192Y-36571D01*
X52192Y-37035D01*
M02*
