M48
INCH,TZ
T1C0.015
T2C0.024
%
G90
G05
T1
X039764Y-035394
X040709Y-033898
X043893Y-035158
X043915Y-030148
X044311Y-032874
X044655Y-035195
X045098Y-033791
X045197Y-034961
X045406Y-032146
X045796Y-035152
X046563Y-029937
X046669Y-035191
X047142Y-032087
X047498Y-034325
X047638Y-032717
X047874Y-034685
X048790Y-033169
X050984Y-034843
T2
X041348Y-034171
X042407Y-033264
X042457Y-032657
X042682Y-035204
X049962Y-032910
T0
M30
