G04 (created by PCBNEW (2013-07-07 BZR 4022)-stable) date 2014-06-17 1:27:57 PM*
%MOIN*%
G04 Gerber Fmt 3.4, Leading zero omitted, Abs format*
%FSLAX34Y34*%
G01*
G70*
G90*
G04 APERTURE LIST*
%ADD10C,0.00590551*%
%ADD11R,0.0118X0.0512*%
%ADD12R,0.015X0.05*%
%ADD13R,0.0394X0.0276*%
%ADD14R,0.045X0.032*%
%ADD15R,0.032X0.045*%
%ADD16O,0.0531496X0.15748*%
%ADD17C,0.045*%
%ADD18C,0.035*%
%ADD19C,0.014*%
%ADD20C,0.01*%
G04 APERTURE END LIST*
G54D10*
G54D11*
X47423Y-31419D03*
X47173Y-31419D03*
X46913Y-31419D03*
X46663Y-31419D03*
X46663Y-33619D03*
X46918Y-33619D03*
X47173Y-33619D03*
X47428Y-33619D03*
G54D12*
X43001Y-33779D03*
X43257Y-33779D03*
X43513Y-33779D03*
X43769Y-33779D03*
X44025Y-33779D03*
X44281Y-33779D03*
X44537Y-33779D03*
X44793Y-33779D03*
X44793Y-31575D03*
X44537Y-31575D03*
X44281Y-31575D03*
X44025Y-31575D03*
X43769Y-31575D03*
X43513Y-31575D03*
X43257Y-31575D03*
X43001Y-31575D03*
G54D13*
X45169Y-30314D03*
X46169Y-29939D03*
X46169Y-30689D03*
G54D14*
X50393Y-30570D03*
X50393Y-31240D03*
X48228Y-31240D03*
X48228Y-30570D03*
X49409Y-31240D03*
X49409Y-30570D03*
X45866Y-32815D03*
X45866Y-32145D03*
X48228Y-32815D03*
X48228Y-32145D03*
X51377Y-32145D03*
X51377Y-32815D03*
X51377Y-30570D03*
X51377Y-31240D03*
X49409Y-32145D03*
X49409Y-32815D03*
X43307Y-29979D03*
X43307Y-30649D03*
G54D15*
X40098Y-36023D03*
X39428Y-36023D03*
X39428Y-34842D03*
X40098Y-34842D03*
G54D16*
X41169Y-36220D03*
X42169Y-36220D03*
X43169Y-36220D03*
X44169Y-36220D03*
X45169Y-36220D03*
X46169Y-36220D03*
X47169Y-36220D03*
X48169Y-36220D03*
X49169Y-36220D03*
X50169Y-36220D03*
G54D17*
X42407Y-33263D03*
X42457Y-32657D03*
X42682Y-35203D03*
X41347Y-34171D03*
X49962Y-32909D03*
G54D18*
X48790Y-33169D03*
X43893Y-35158D03*
X50984Y-34842D03*
X39763Y-35393D03*
X47637Y-32716D03*
X47874Y-34685D03*
X45196Y-34960D03*
X40708Y-33897D03*
X47141Y-32086D03*
X44311Y-32874D03*
X45405Y-32145D03*
X45098Y-33791D03*
X46562Y-29937D03*
X47497Y-34324D03*
X43915Y-30148D03*
X44655Y-35195D03*
X46669Y-35190D03*
X45795Y-35151D03*
G54D19*
X43483Y-29803D02*
X43307Y-29979D01*
X45802Y-30368D02*
X45236Y-29803D01*
X45236Y-29803D02*
X43483Y-29803D01*
X47817Y-33161D02*
X47460Y-33161D01*
X48163Y-32815D02*
X47817Y-33161D01*
X48228Y-32815D02*
X48163Y-32815D01*
X45802Y-30920D02*
X45802Y-30368D01*
X45905Y-31023D02*
X45802Y-30920D01*
X46464Y-31023D02*
X45905Y-31023D01*
X46663Y-31222D02*
X46464Y-31023D01*
X46663Y-31419D02*
X46663Y-31222D01*
X46989Y-30040D02*
X47007Y-30022D01*
X46661Y-30368D02*
X46989Y-30040D01*
X45802Y-30368D02*
X46661Y-30368D01*
X49409Y-31240D02*
X49409Y-30910D01*
X51147Y-30040D02*
X46989Y-30040D01*
X51347Y-30240D02*
X51147Y-30040D01*
X51673Y-30240D02*
X51347Y-30240D01*
X51773Y-30340D02*
X51673Y-30240D01*
X51773Y-30830D02*
X51773Y-30340D01*
X51703Y-30900D02*
X51773Y-30830D01*
X50798Y-30900D02*
X51703Y-30900D01*
X50788Y-30910D02*
X50798Y-30900D01*
X49409Y-30910D02*
X50788Y-30910D01*
X43307Y-30310D02*
X43307Y-29979D01*
X43018Y-30310D02*
X43307Y-30310D01*
X42911Y-30416D02*
X43018Y-30310D01*
X42911Y-31065D02*
X42911Y-30416D01*
X43001Y-31155D02*
X42911Y-31065D01*
X43001Y-31768D02*
X43001Y-31155D01*
X43001Y-31768D02*
X43001Y-31575D01*
X43001Y-31768D02*
X43001Y-31768D01*
X42407Y-33263D02*
X42426Y-33263D01*
X43001Y-32708D02*
X43001Y-31768D01*
X42446Y-33263D02*
X43001Y-32708D01*
X42426Y-33263D02*
X42446Y-33263D01*
X42426Y-34005D02*
X41169Y-35262D01*
X42426Y-33263D02*
X42426Y-34005D01*
X41169Y-36220D02*
X41169Y-35741D01*
X41169Y-35741D02*
X41169Y-35262D01*
X40710Y-35741D02*
X40428Y-36023D01*
X41169Y-35741D02*
X40710Y-35741D01*
X40098Y-36023D02*
X40428Y-36023D01*
X47428Y-33406D02*
X47428Y-33619D01*
X47428Y-33406D02*
X47428Y-33619D01*
X47428Y-33406D02*
X47428Y-33406D01*
X49409Y-31240D02*
X49409Y-31570D01*
X49491Y-31570D02*
X49409Y-31570D01*
X49804Y-31883D02*
X49491Y-31570D01*
X49804Y-32378D02*
X49804Y-31883D01*
X49698Y-32485D02*
X49804Y-32378D01*
X49409Y-32485D02*
X49698Y-32485D01*
X49409Y-32815D02*
X49409Y-32485D01*
X48228Y-32815D02*
X49409Y-32815D01*
X47476Y-33145D02*
X47460Y-33161D01*
X47428Y-33193D02*
X47428Y-33406D01*
X47460Y-33161D02*
X47428Y-33193D01*
X42741Y-35262D02*
X43169Y-35262D01*
X42682Y-35203D02*
X42741Y-35262D01*
X43169Y-36220D02*
X43169Y-35262D01*
X42089Y-32657D02*
X42457Y-32657D01*
X40098Y-34842D02*
X40428Y-34842D01*
X41099Y-34171D02*
X40428Y-34842D01*
X41347Y-34171D02*
X41099Y-34171D01*
X41347Y-33399D02*
X41347Y-34171D01*
X42089Y-32657D02*
X41347Y-33399D01*
X50393Y-32478D02*
X50393Y-31240D01*
X49962Y-32909D02*
X50393Y-32478D01*
G54D20*
X48790Y-33169D02*
X48790Y-33169D01*
X48790Y-34904D02*
X48790Y-33169D01*
X49169Y-35282D02*
X48790Y-34904D01*
X49169Y-36220D02*
X49169Y-35282D01*
X42169Y-35011D02*
X43001Y-34179D01*
X42169Y-36220D02*
X42169Y-35011D01*
X43001Y-33779D02*
X43001Y-34179D01*
X44017Y-35282D02*
X43893Y-35158D01*
X44169Y-35282D02*
X44017Y-35282D01*
X44169Y-36220D02*
X44169Y-35282D01*
X51377Y-32145D02*
X51377Y-32455D01*
X51377Y-31240D02*
X51377Y-32145D01*
X50169Y-36220D02*
X50169Y-35282D01*
X51140Y-32455D02*
X51377Y-32455D01*
X50340Y-33255D02*
X51140Y-32455D01*
X50340Y-35112D02*
X50340Y-33255D01*
X50169Y-35282D02*
X50340Y-35112D01*
X51377Y-33464D02*
X51377Y-34448D01*
X51377Y-32815D02*
X51377Y-33464D01*
X51377Y-34448D02*
X50984Y-34842D01*
X45866Y-32145D02*
X46191Y-32145D01*
X46191Y-32145D02*
X46762Y-32716D01*
X46762Y-32716D02*
X47390Y-32716D01*
X47390Y-32716D02*
X47637Y-32716D01*
X39428Y-34842D02*
X39428Y-35058D01*
X39428Y-35058D02*
X39763Y-35393D01*
X48228Y-32145D02*
X48209Y-32145D01*
X48209Y-32145D02*
X47637Y-32716D01*
X47874Y-35037D02*
X47874Y-34685D01*
X48169Y-35333D02*
X47874Y-35037D01*
X48169Y-36220D02*
X48169Y-35333D01*
X45196Y-35305D02*
X45196Y-34960D01*
X45169Y-35333D02*
X45196Y-35305D01*
X45169Y-36220D02*
X45169Y-35333D01*
X43513Y-32076D02*
X44311Y-32874D01*
X43513Y-31575D02*
X43513Y-32076D01*
X43257Y-33429D02*
X43257Y-33779D01*
X43307Y-33379D02*
X43257Y-33429D01*
X43805Y-33379D02*
X43307Y-33379D01*
X44311Y-32874D02*
X43805Y-33379D01*
X45126Y-32145D02*
X45405Y-32145D01*
X45067Y-32204D02*
X45126Y-32145D01*
X44561Y-32204D02*
X45067Y-32204D01*
X44281Y-31925D02*
X44561Y-32204D01*
X44281Y-31575D02*
X44281Y-31925D01*
X44537Y-33100D02*
X44537Y-33779D01*
X44311Y-32874D02*
X44537Y-33100D01*
X47423Y-31804D02*
X47141Y-32086D01*
X47423Y-31419D02*
X47423Y-31804D01*
X45405Y-32145D02*
X45405Y-32145D01*
X45866Y-32145D02*
X45405Y-32145D01*
X45086Y-33779D02*
X45098Y-33791D01*
X44793Y-33779D02*
X45086Y-33779D01*
X46559Y-29939D02*
X46562Y-29937D01*
X46169Y-29939D02*
X46559Y-29939D01*
X44537Y-33779D02*
X44793Y-33779D01*
X44537Y-33779D02*
X44537Y-33779D01*
X44281Y-33779D02*
X44281Y-33779D01*
X44281Y-33779D02*
X44537Y-33779D01*
X45169Y-30552D02*
X45169Y-30314D01*
X44537Y-31184D02*
X45169Y-30552D01*
X44537Y-31521D02*
X44537Y-31184D01*
X44537Y-31521D02*
X44537Y-31575D01*
X44537Y-31521D02*
X44537Y-31521D01*
X44537Y-31858D02*
X44537Y-31521D01*
X44669Y-31990D02*
X44537Y-31858D01*
X44669Y-32004D02*
X44669Y-31990D01*
X44984Y-32004D02*
X44669Y-32004D01*
X45168Y-31820D02*
X44984Y-32004D01*
X46196Y-31820D02*
X45168Y-31820D01*
X46852Y-32476D02*
X46196Y-31820D01*
X47227Y-32476D02*
X46852Y-32476D01*
X48153Y-31550D02*
X48228Y-31550D01*
X47227Y-32476D02*
X48153Y-31550D01*
X48228Y-31240D02*
X48228Y-31550D01*
X48512Y-31835D02*
X48228Y-31550D01*
X49409Y-31835D02*
X48512Y-31835D01*
X49409Y-32145D02*
X49409Y-31835D01*
X47173Y-31419D02*
X47173Y-31225D01*
X47173Y-31013D02*
X47616Y-30570D01*
X47173Y-31225D02*
X47173Y-31013D01*
X47173Y-31225D02*
X47173Y-31419D01*
X47173Y-31225D02*
X47173Y-31225D01*
X47616Y-30570D02*
X48228Y-30570D01*
X48228Y-30570D02*
X49409Y-30570D01*
X45866Y-33125D02*
X45866Y-32815D01*
X46575Y-33125D02*
X45866Y-33125D01*
X46663Y-33213D02*
X46575Y-33125D01*
X46663Y-33619D02*
X46663Y-33213D01*
X51377Y-30570D02*
X50393Y-30570D01*
X47264Y-30260D02*
X47264Y-30260D01*
X49708Y-30260D02*
X50018Y-30570D01*
X49696Y-30260D02*
X49708Y-30260D01*
X49696Y-30260D02*
X49696Y-30260D01*
X47941Y-30260D02*
X49696Y-30260D01*
X47941Y-30260D02*
X47941Y-30260D01*
X47264Y-30260D02*
X47941Y-30260D01*
X46835Y-30689D02*
X46169Y-30689D01*
X47264Y-30260D02*
X46835Y-30689D01*
X50393Y-30570D02*
X50018Y-30570D01*
X43257Y-31009D02*
X43257Y-31292D01*
X43307Y-30960D02*
X43257Y-31009D01*
X43307Y-30649D02*
X43307Y-30960D01*
X43257Y-31292D02*
X43257Y-31575D01*
X43257Y-31292D02*
X43257Y-31575D01*
X43257Y-31292D02*
X43257Y-31292D01*
X47217Y-34324D02*
X46918Y-34025D01*
X47497Y-34324D02*
X47217Y-34324D01*
X46918Y-33619D02*
X46918Y-34025D01*
X43915Y-30750D02*
X43915Y-30395D01*
X43769Y-30895D02*
X43915Y-30750D01*
X43915Y-30395D02*
X43915Y-30148D01*
X43769Y-30895D02*
X43769Y-31575D01*
X43769Y-30895D02*
X43769Y-31575D01*
X43769Y-30895D02*
X43769Y-30895D01*
X43513Y-33779D02*
X43513Y-34179D01*
X44655Y-35195D02*
X44529Y-35195D01*
X44529Y-35195D02*
X43513Y-34179D01*
X46913Y-31775D02*
X46913Y-31419D01*
X46863Y-31825D02*
X46913Y-31775D01*
X46484Y-31825D02*
X46863Y-31825D01*
X46233Y-31575D02*
X46484Y-31825D01*
X44793Y-31575D02*
X46233Y-31575D01*
X44793Y-31575D02*
X44793Y-31575D01*
X47169Y-36220D02*
X47169Y-35282D01*
X44025Y-33779D02*
X44025Y-34179D01*
X45795Y-35151D02*
X45795Y-35054D01*
X45795Y-35054D02*
X44920Y-34179D01*
X44920Y-34179D02*
X44025Y-34179D01*
X47169Y-35282D02*
X46761Y-35282D01*
X46761Y-35282D02*
X46669Y-35190D01*
X44025Y-33779D02*
X43769Y-33779D01*
X44025Y-32019D02*
X44025Y-31997D01*
X46169Y-34141D02*
X46169Y-36220D01*
X44025Y-31997D02*
X46169Y-34141D01*
X44025Y-31997D02*
X44025Y-31786D01*
X44025Y-31786D02*
X44025Y-31575D01*
X44025Y-31786D02*
X44025Y-31575D01*
X44025Y-31786D02*
X44025Y-31786D01*
G54D10*
G36*
X45149Y-30026D02*
X44942Y-30026D01*
X44887Y-30049D01*
X44845Y-30091D01*
X44822Y-30146D01*
X44822Y-30206D01*
X44822Y-30482D01*
X44845Y-30537D01*
X44873Y-30566D01*
X44396Y-31043D01*
X44361Y-31095D01*
X44319Y-31137D01*
X44319Y-31279D01*
X44312Y-31295D01*
X44312Y-31354D01*
X44312Y-31633D01*
X44250Y-31633D01*
X44250Y-31295D01*
X44244Y-31279D01*
X44244Y-31137D01*
X44181Y-31075D01*
X44157Y-31075D01*
X44065Y-31113D01*
X44003Y-31175D01*
X43969Y-31175D01*
X43969Y-30978D01*
X44056Y-30891D01*
X44100Y-30826D01*
X44115Y-30750D01*
X44115Y-30407D01*
X44190Y-30332D01*
X44240Y-30213D01*
X44240Y-30083D01*
X44215Y-30023D01*
X45145Y-30023D01*
X45149Y-30026D01*
X45149Y-30026D01*
G37*
G54D20*
X45149Y-30026D02*
X44942Y-30026D01*
X44887Y-30049D01*
X44845Y-30091D01*
X44822Y-30146D01*
X44822Y-30206D01*
X44822Y-30482D01*
X44845Y-30537D01*
X44873Y-30566D01*
X44396Y-31043D01*
X44361Y-31095D01*
X44319Y-31137D01*
X44319Y-31279D01*
X44312Y-31295D01*
X44312Y-31354D01*
X44312Y-31633D01*
X44250Y-31633D01*
X44250Y-31295D01*
X44244Y-31279D01*
X44244Y-31137D01*
X44181Y-31075D01*
X44157Y-31075D01*
X44065Y-31113D01*
X44003Y-31175D01*
X43969Y-31175D01*
X43969Y-30978D01*
X44056Y-30891D01*
X44100Y-30826D01*
X44115Y-30750D01*
X44115Y-30407D01*
X44190Y-30332D01*
X44240Y-30213D01*
X44240Y-30083D01*
X44215Y-30023D01*
X45145Y-30023D01*
X45149Y-30026D01*
G54D10*
G36*
X45862Y-37035D02*
X45586Y-37035D01*
X45626Y-36985D01*
X45685Y-36792D01*
X45685Y-36270D01*
X45219Y-36270D01*
X45219Y-36278D01*
X45119Y-36278D01*
X45119Y-36270D01*
X44653Y-36270D01*
X44653Y-36792D01*
X44711Y-36985D01*
X44752Y-37035D01*
X44476Y-37035D01*
X44553Y-36919D01*
X44585Y-36760D01*
X44585Y-35680D01*
X44553Y-35521D01*
X44538Y-35498D01*
X44590Y-35520D01*
X44692Y-35520D01*
X44653Y-35648D01*
X44653Y-36170D01*
X45119Y-36170D01*
X45119Y-35248D01*
X45039Y-35199D01*
X45018Y-35203D01*
X44980Y-35223D01*
X44980Y-35131D01*
X44930Y-35011D01*
X44839Y-34920D01*
X44720Y-34870D01*
X44590Y-34870D01*
X44517Y-34900D01*
X43989Y-34372D01*
X44025Y-34379D01*
X44837Y-34379D01*
X45492Y-35034D01*
X45470Y-35086D01*
X45470Y-35216D01*
X45511Y-35314D01*
X45498Y-35298D01*
X45320Y-35203D01*
X45298Y-35199D01*
X45219Y-35248D01*
X45219Y-36170D01*
X45685Y-36170D01*
X45685Y-35648D01*
X45626Y-35455D01*
X45568Y-35383D01*
X45611Y-35427D01*
X45730Y-35476D01*
X45814Y-35476D01*
X45785Y-35521D01*
X45753Y-35680D01*
X45753Y-36760D01*
X45785Y-36919D01*
X45862Y-37035D01*
X45862Y-37035D01*
G37*
G54D20*
X45862Y-37035D02*
X45586Y-37035D01*
X45626Y-36985D01*
X45685Y-36792D01*
X45685Y-36270D01*
X45219Y-36270D01*
X45219Y-36278D01*
X45119Y-36278D01*
X45119Y-36270D01*
X44653Y-36270D01*
X44653Y-36792D01*
X44711Y-36985D01*
X44752Y-37035D01*
X44476Y-37035D01*
X44553Y-36919D01*
X44585Y-36760D01*
X44585Y-35680D01*
X44553Y-35521D01*
X44538Y-35498D01*
X44590Y-35520D01*
X44692Y-35520D01*
X44653Y-35648D01*
X44653Y-36170D01*
X45119Y-36170D01*
X45119Y-35248D01*
X45039Y-35199D01*
X45018Y-35203D01*
X44980Y-35223D01*
X44980Y-35131D01*
X44930Y-35011D01*
X44839Y-34920D01*
X44720Y-34870D01*
X44590Y-34870D01*
X44517Y-34900D01*
X43989Y-34372D01*
X44025Y-34379D01*
X44837Y-34379D01*
X45492Y-35034D01*
X45470Y-35086D01*
X45470Y-35216D01*
X45511Y-35314D01*
X45498Y-35298D01*
X45320Y-35203D01*
X45298Y-35199D01*
X45219Y-35248D01*
X45219Y-36170D01*
X45685Y-36170D01*
X45685Y-35648D01*
X45626Y-35455D01*
X45568Y-35383D01*
X45611Y-35427D01*
X45730Y-35476D01*
X45814Y-35476D01*
X45785Y-35521D01*
X45753Y-35680D01*
X45753Y-36760D01*
X45785Y-36919D01*
X45862Y-37035D01*
G54D10*
G36*
X45969Y-34871D02*
X45860Y-34826D01*
X45850Y-34826D01*
X45114Y-34090D01*
X45118Y-34079D01*
X45118Y-33979D01*
X45118Y-33891D01*
X45056Y-33829D01*
X44831Y-33829D01*
X44831Y-33837D01*
X44808Y-33837D01*
X44800Y-33829D01*
X44756Y-33829D01*
X44575Y-33829D01*
X44544Y-33829D01*
X44531Y-33829D01*
X44500Y-33829D01*
X44479Y-33829D01*
X44479Y-33729D01*
X44500Y-33729D01*
X44531Y-33729D01*
X44544Y-33729D01*
X44575Y-33729D01*
X44756Y-33729D01*
X44800Y-33729D01*
X44831Y-33698D01*
X44831Y-33729D01*
X45056Y-33729D01*
X45118Y-33666D01*
X45118Y-33578D01*
X45118Y-33479D01*
X45080Y-33387D01*
X45010Y-33317D01*
X44918Y-33279D01*
X44893Y-33279D01*
X44831Y-33341D01*
X44831Y-33403D01*
X44824Y-33387D01*
X44754Y-33317D01*
X44715Y-33301D01*
X44693Y-33279D01*
X44669Y-33279D01*
X44665Y-33280D01*
X44662Y-33279D01*
X44637Y-33279D01*
X44615Y-33301D01*
X44577Y-33317D01*
X44537Y-33356D01*
X44498Y-33317D01*
X44459Y-33301D01*
X44437Y-33279D01*
X44413Y-33279D01*
X44409Y-33280D01*
X44406Y-33279D01*
X44381Y-33279D01*
X44359Y-33301D01*
X44321Y-33317D01*
X44250Y-33387D01*
X44244Y-33403D01*
X44244Y-33341D01*
X44181Y-33279D01*
X44157Y-33279D01*
X44065Y-33317D01*
X44003Y-33379D01*
X43920Y-33379D01*
X43897Y-33388D01*
X43874Y-33379D01*
X43814Y-33379D01*
X43664Y-33379D01*
X43641Y-33388D01*
X43618Y-33379D01*
X43558Y-33379D01*
X43536Y-33379D01*
X43474Y-33317D01*
X43382Y-33279D01*
X43357Y-33279D01*
X43295Y-33341D01*
X43295Y-33483D01*
X43288Y-33499D01*
X43288Y-33558D01*
X43288Y-34058D01*
X43295Y-34074D01*
X43295Y-34216D01*
X43327Y-34249D01*
X43328Y-34255D01*
X43372Y-34320D01*
X43884Y-34833D01*
X43828Y-34833D01*
X43709Y-34882D01*
X43617Y-34973D01*
X43568Y-35093D01*
X43568Y-35222D01*
X43617Y-35342D01*
X43708Y-35433D01*
X43814Y-35477D01*
X43785Y-35521D01*
X43753Y-35680D01*
X43753Y-36760D01*
X43785Y-36919D01*
X43862Y-37035D01*
X43476Y-37035D01*
X43553Y-36919D01*
X43585Y-36760D01*
X43585Y-35680D01*
X43553Y-35521D01*
X43463Y-35386D01*
X43389Y-35337D01*
X43389Y-35262D01*
X43372Y-35178D01*
X43324Y-35107D01*
X43253Y-35059D01*
X43169Y-35042D01*
X43021Y-35042D01*
X43000Y-34991D01*
X42894Y-34885D01*
X42756Y-34828D01*
X42635Y-34828D01*
X43143Y-34320D01*
X43186Y-34255D01*
X43186Y-34255D01*
X43187Y-34249D01*
X43187Y-34249D01*
X43220Y-34216D01*
X43220Y-34074D01*
X43226Y-34059D01*
X43226Y-33999D01*
X43226Y-33499D01*
X43220Y-33483D01*
X43220Y-33341D01*
X43157Y-33279D01*
X43133Y-33279D01*
X43041Y-33317D01*
X42979Y-33379D01*
X42896Y-33379D01*
X42841Y-33401D01*
X42799Y-33444D01*
X42776Y-33499D01*
X42776Y-33558D01*
X42776Y-34058D01*
X42794Y-34103D01*
X42027Y-34870D01*
X41984Y-34935D01*
X41969Y-35011D01*
X41969Y-35323D01*
X41875Y-35386D01*
X41785Y-35521D01*
X41753Y-35680D01*
X41753Y-36760D01*
X41785Y-36919D01*
X41862Y-37035D01*
X41476Y-37035D01*
X41553Y-36919D01*
X41585Y-36760D01*
X41585Y-35680D01*
X41553Y-35521D01*
X41463Y-35386D01*
X41399Y-35343D01*
X42582Y-34161D01*
X42630Y-34089D01*
X42630Y-34089D01*
X42646Y-34005D01*
X42646Y-33554D01*
X42725Y-33476D01*
X42782Y-33338D01*
X42782Y-33238D01*
X43157Y-32863D01*
X43204Y-32792D01*
X43221Y-32708D01*
X43221Y-32707D01*
X43221Y-31975D01*
X43235Y-31975D01*
X43297Y-32037D01*
X43389Y-32075D01*
X43413Y-32075D01*
X43476Y-32012D01*
X43476Y-31870D01*
X43482Y-31855D01*
X43482Y-31795D01*
X43482Y-31295D01*
X43476Y-31279D01*
X43476Y-31137D01*
X43457Y-31119D01*
X43457Y-31088D01*
X43466Y-31074D01*
X43491Y-31036D01*
X43491Y-31036D01*
X43491Y-31036D01*
X43498Y-31003D01*
X43507Y-30960D01*
X43507Y-30960D01*
X43507Y-30960D01*
X43507Y-30959D01*
X43561Y-30959D01*
X43569Y-30956D01*
X43569Y-31119D01*
X43551Y-31137D01*
X43551Y-31279D01*
X43544Y-31295D01*
X43544Y-31354D01*
X43544Y-31854D01*
X43551Y-31870D01*
X43551Y-32012D01*
X43613Y-32075D01*
X43638Y-32075D01*
X43730Y-32037D01*
X43792Y-31975D01*
X43825Y-31975D01*
X43825Y-31997D01*
X43825Y-32019D01*
X43840Y-32096D01*
X43884Y-32161D01*
X43949Y-32204D01*
X43949Y-32204D01*
X45969Y-34224D01*
X45969Y-34871D01*
X45969Y-34871D01*
G37*
G54D20*
X45969Y-34871D02*
X45860Y-34826D01*
X45850Y-34826D01*
X45114Y-34090D01*
X45118Y-34079D01*
X45118Y-33979D01*
X45118Y-33891D01*
X45056Y-33829D01*
X44831Y-33829D01*
X44831Y-33837D01*
X44808Y-33837D01*
X44800Y-33829D01*
X44756Y-33829D01*
X44575Y-33829D01*
X44544Y-33829D01*
X44531Y-33829D01*
X44500Y-33829D01*
X44479Y-33829D01*
X44479Y-33729D01*
X44500Y-33729D01*
X44531Y-33729D01*
X44544Y-33729D01*
X44575Y-33729D01*
X44756Y-33729D01*
X44800Y-33729D01*
X44831Y-33698D01*
X44831Y-33729D01*
X45056Y-33729D01*
X45118Y-33666D01*
X45118Y-33578D01*
X45118Y-33479D01*
X45080Y-33387D01*
X45010Y-33317D01*
X44918Y-33279D01*
X44893Y-33279D01*
X44831Y-33341D01*
X44831Y-33403D01*
X44824Y-33387D01*
X44754Y-33317D01*
X44715Y-33301D01*
X44693Y-33279D01*
X44669Y-33279D01*
X44665Y-33280D01*
X44662Y-33279D01*
X44637Y-33279D01*
X44615Y-33301D01*
X44577Y-33317D01*
X44537Y-33356D01*
X44498Y-33317D01*
X44459Y-33301D01*
X44437Y-33279D01*
X44413Y-33279D01*
X44409Y-33280D01*
X44406Y-33279D01*
X44381Y-33279D01*
X44359Y-33301D01*
X44321Y-33317D01*
X44250Y-33387D01*
X44244Y-33403D01*
X44244Y-33341D01*
X44181Y-33279D01*
X44157Y-33279D01*
X44065Y-33317D01*
X44003Y-33379D01*
X43920Y-33379D01*
X43897Y-33388D01*
X43874Y-33379D01*
X43814Y-33379D01*
X43664Y-33379D01*
X43641Y-33388D01*
X43618Y-33379D01*
X43558Y-33379D01*
X43536Y-33379D01*
X43474Y-33317D01*
X43382Y-33279D01*
X43357Y-33279D01*
X43295Y-33341D01*
X43295Y-33483D01*
X43288Y-33499D01*
X43288Y-33558D01*
X43288Y-34058D01*
X43295Y-34074D01*
X43295Y-34216D01*
X43327Y-34249D01*
X43328Y-34255D01*
X43372Y-34320D01*
X43884Y-34833D01*
X43828Y-34833D01*
X43709Y-34882D01*
X43617Y-34973D01*
X43568Y-35093D01*
X43568Y-35222D01*
X43617Y-35342D01*
X43708Y-35433D01*
X43814Y-35477D01*
X43785Y-35521D01*
X43753Y-35680D01*
X43753Y-36760D01*
X43785Y-36919D01*
X43862Y-37035D01*
X43476Y-37035D01*
X43553Y-36919D01*
X43585Y-36760D01*
X43585Y-35680D01*
X43553Y-35521D01*
X43463Y-35386D01*
X43389Y-35337D01*
X43389Y-35262D01*
X43372Y-35178D01*
X43324Y-35107D01*
X43253Y-35059D01*
X43169Y-35042D01*
X43021Y-35042D01*
X43000Y-34991D01*
X42894Y-34885D01*
X42756Y-34828D01*
X42635Y-34828D01*
X43143Y-34320D01*
X43186Y-34255D01*
X43186Y-34255D01*
X43187Y-34249D01*
X43187Y-34249D01*
X43220Y-34216D01*
X43220Y-34074D01*
X43226Y-34059D01*
X43226Y-33999D01*
X43226Y-33499D01*
X43220Y-33483D01*
X43220Y-33341D01*
X43157Y-33279D01*
X43133Y-33279D01*
X43041Y-33317D01*
X42979Y-33379D01*
X42896Y-33379D01*
X42841Y-33401D01*
X42799Y-33444D01*
X42776Y-33499D01*
X42776Y-33558D01*
X42776Y-34058D01*
X42794Y-34103D01*
X42027Y-34870D01*
X41984Y-34935D01*
X41969Y-35011D01*
X41969Y-35323D01*
X41875Y-35386D01*
X41785Y-35521D01*
X41753Y-35680D01*
X41753Y-36760D01*
X41785Y-36919D01*
X41862Y-37035D01*
X41476Y-37035D01*
X41553Y-36919D01*
X41585Y-36760D01*
X41585Y-35680D01*
X41553Y-35521D01*
X41463Y-35386D01*
X41399Y-35343D01*
X42582Y-34161D01*
X42630Y-34089D01*
X42630Y-34089D01*
X42646Y-34005D01*
X42646Y-33554D01*
X42725Y-33476D01*
X42782Y-33338D01*
X42782Y-33238D01*
X43157Y-32863D01*
X43204Y-32792D01*
X43221Y-32708D01*
X43221Y-32707D01*
X43221Y-31975D01*
X43235Y-31975D01*
X43297Y-32037D01*
X43389Y-32075D01*
X43413Y-32075D01*
X43476Y-32012D01*
X43476Y-31870D01*
X43482Y-31855D01*
X43482Y-31795D01*
X43482Y-31295D01*
X43476Y-31279D01*
X43476Y-31137D01*
X43457Y-31119D01*
X43457Y-31088D01*
X43466Y-31074D01*
X43491Y-31036D01*
X43491Y-31036D01*
X43491Y-31036D01*
X43498Y-31003D01*
X43507Y-30960D01*
X43507Y-30960D01*
X43507Y-30960D01*
X43507Y-30959D01*
X43561Y-30959D01*
X43569Y-30956D01*
X43569Y-31119D01*
X43551Y-31137D01*
X43551Y-31279D01*
X43544Y-31295D01*
X43544Y-31354D01*
X43544Y-31854D01*
X43551Y-31870D01*
X43551Y-32012D01*
X43613Y-32075D01*
X43638Y-32075D01*
X43730Y-32037D01*
X43792Y-31975D01*
X43825Y-31975D01*
X43825Y-31997D01*
X43825Y-32019D01*
X43840Y-32096D01*
X43884Y-32161D01*
X43949Y-32204D01*
X43949Y-32204D01*
X45969Y-34224D01*
X45969Y-34871D01*
G54D10*
G36*
X47909Y-32537D02*
X47876Y-32570D01*
X47853Y-32625D01*
X47853Y-32685D01*
X47853Y-32814D01*
X47726Y-32941D01*
X47557Y-32941D01*
X47475Y-32925D01*
X47391Y-32942D01*
X47320Y-32990D01*
X47304Y-33006D01*
X47304Y-33006D01*
X47272Y-33038D01*
X47248Y-33073D01*
X47225Y-33109D01*
X47225Y-33109D01*
X47224Y-33109D01*
X47216Y-33151D01*
X47208Y-33193D01*
X47208Y-33213D01*
X47202Y-33213D01*
X47084Y-33213D01*
X47045Y-33229D01*
X47007Y-33213D01*
X46947Y-33213D01*
X46863Y-33213D01*
X46863Y-33213D01*
X46848Y-33137D01*
X46804Y-33072D01*
X46804Y-33072D01*
X46716Y-32984D01*
X46651Y-32940D01*
X46575Y-32925D01*
X46241Y-32925D01*
X46241Y-32625D01*
X46218Y-32570D01*
X46185Y-32537D01*
X46232Y-32517D01*
X46303Y-32446D01*
X46341Y-32354D01*
X46341Y-32257D01*
X46278Y-32195D01*
X46288Y-32195D01*
X46710Y-32617D01*
X46775Y-32661D01*
X46852Y-32676D01*
X46852Y-32676D01*
X47227Y-32676D01*
X47304Y-32661D01*
X47368Y-32617D01*
X47791Y-32195D01*
X47815Y-32195D01*
X47753Y-32257D01*
X47753Y-32354D01*
X47791Y-32446D01*
X47861Y-32517D01*
X47909Y-32537D01*
X47909Y-32537D01*
G37*
G54D20*
X47909Y-32537D02*
X47876Y-32570D01*
X47853Y-32625D01*
X47853Y-32685D01*
X47853Y-32814D01*
X47726Y-32941D01*
X47557Y-32941D01*
X47475Y-32925D01*
X47391Y-32942D01*
X47320Y-32990D01*
X47304Y-33006D01*
X47304Y-33006D01*
X47272Y-33038D01*
X47248Y-33073D01*
X47225Y-33109D01*
X47225Y-33109D01*
X47224Y-33109D01*
X47216Y-33151D01*
X47208Y-33193D01*
X47208Y-33213D01*
X47202Y-33213D01*
X47084Y-33213D01*
X47045Y-33229D01*
X47007Y-33213D01*
X46947Y-33213D01*
X46863Y-33213D01*
X46863Y-33213D01*
X46848Y-33137D01*
X46804Y-33072D01*
X46804Y-33072D01*
X46716Y-32984D01*
X46651Y-32940D01*
X46575Y-32925D01*
X46241Y-32925D01*
X46241Y-32625D01*
X46218Y-32570D01*
X46185Y-32537D01*
X46232Y-32517D01*
X46303Y-32446D01*
X46341Y-32354D01*
X46341Y-32257D01*
X46278Y-32195D01*
X46288Y-32195D01*
X46710Y-32617D01*
X46775Y-32661D01*
X46852Y-32676D01*
X46852Y-32676D01*
X47227Y-32676D01*
X47304Y-32661D01*
X47368Y-32617D01*
X47791Y-32195D01*
X47815Y-32195D01*
X47753Y-32257D01*
X47753Y-32354D01*
X47791Y-32446D01*
X47861Y-32517D01*
X47909Y-32537D01*
G54D10*
G36*
X48944Y-35340D02*
X48875Y-35386D01*
X48785Y-35521D01*
X48753Y-35680D01*
X48753Y-36760D01*
X48785Y-36919D01*
X48862Y-37035D01*
X48586Y-37035D01*
X48626Y-36985D01*
X48685Y-36792D01*
X48685Y-36270D01*
X48685Y-36170D01*
X48685Y-35648D01*
X48626Y-35455D01*
X48498Y-35298D01*
X48320Y-35203D01*
X48298Y-35199D01*
X48219Y-35248D01*
X48219Y-36170D01*
X48685Y-36170D01*
X48685Y-36270D01*
X48219Y-36270D01*
X48219Y-36278D01*
X48119Y-36278D01*
X48119Y-36270D01*
X48119Y-36170D01*
X48119Y-35248D01*
X48039Y-35199D01*
X48018Y-35203D01*
X47839Y-35298D01*
X47711Y-35455D01*
X47653Y-35648D01*
X47653Y-36170D01*
X48119Y-36170D01*
X48119Y-36270D01*
X47653Y-36270D01*
X47653Y-36792D01*
X47711Y-36985D01*
X47752Y-37035D01*
X47476Y-37035D01*
X47553Y-36919D01*
X47585Y-36760D01*
X47585Y-35680D01*
X47553Y-35521D01*
X47463Y-35386D01*
X47369Y-35323D01*
X47369Y-35282D01*
X47354Y-35206D01*
X47310Y-35141D01*
X47245Y-35098D01*
X47169Y-35082D01*
X46976Y-35082D01*
X46944Y-35006D01*
X46853Y-34915D01*
X46734Y-34865D01*
X46604Y-34865D01*
X46485Y-34915D01*
X46393Y-35006D01*
X46369Y-35065D01*
X46369Y-34141D01*
X46369Y-34141D01*
X46354Y-34064D01*
X46354Y-34064D01*
X46339Y-34043D01*
X46310Y-33999D01*
X46310Y-33999D01*
X44386Y-32075D01*
X44406Y-32075D01*
X44452Y-32056D01*
X44499Y-32103D01*
X44527Y-32146D01*
X44592Y-32189D01*
X44669Y-32204D01*
X44984Y-32204D01*
X45060Y-32189D01*
X45125Y-32146D01*
X45251Y-32020D01*
X45391Y-32020D01*
X45391Y-32032D01*
X45453Y-32095D01*
X45816Y-32095D01*
X45816Y-32087D01*
X45916Y-32087D01*
X45916Y-32095D01*
X45924Y-32095D01*
X45924Y-32195D01*
X45916Y-32195D01*
X45916Y-32203D01*
X45816Y-32203D01*
X45816Y-32195D01*
X45453Y-32195D01*
X45391Y-32257D01*
X45391Y-32354D01*
X45429Y-32446D01*
X45499Y-32517D01*
X45547Y-32537D01*
X45514Y-32570D01*
X45491Y-32625D01*
X45491Y-32685D01*
X45491Y-33005D01*
X45513Y-33060D01*
X45556Y-33102D01*
X45611Y-33125D01*
X45666Y-33125D01*
X45666Y-33125D01*
X45681Y-33201D01*
X45724Y-33266D01*
X45789Y-33310D01*
X45866Y-33325D01*
X46457Y-33325D01*
X46454Y-33333D01*
X46454Y-33393D01*
X46454Y-33905D01*
X46477Y-33960D01*
X46519Y-34002D01*
X46574Y-34025D01*
X46634Y-34025D01*
X46718Y-34025D01*
X46718Y-34025D01*
X46733Y-34102D01*
X46776Y-34167D01*
X47076Y-34466D01*
X47076Y-34466D01*
X47119Y-34495D01*
X47141Y-34509D01*
X47141Y-34509D01*
X47217Y-34524D01*
X47217Y-34524D01*
X47238Y-34524D01*
X47313Y-34600D01*
X47432Y-34649D01*
X47561Y-34650D01*
X47681Y-34600D01*
X47772Y-34509D01*
X47822Y-34389D01*
X47822Y-34260D01*
X47773Y-34141D01*
X47681Y-34049D01*
X47570Y-34003D01*
X47572Y-34002D01*
X47614Y-33960D01*
X47637Y-33905D01*
X47637Y-33845D01*
X47637Y-33674D01*
X47648Y-33619D01*
X47648Y-33406D01*
X47648Y-33406D01*
X47648Y-33406D01*
X47648Y-33381D01*
X47817Y-33381D01*
X47901Y-33364D01*
X47901Y-33364D01*
X47972Y-33317D01*
X48164Y-33125D01*
X48465Y-33125D01*
X48465Y-33233D01*
X48514Y-33353D01*
X48590Y-33429D01*
X48590Y-34904D01*
X48605Y-34980D01*
X48649Y-35045D01*
X48944Y-35340D01*
X48944Y-35340D01*
G37*
G54D20*
X48944Y-35340D02*
X48875Y-35386D01*
X48785Y-35521D01*
X48753Y-35680D01*
X48753Y-36760D01*
X48785Y-36919D01*
X48862Y-37035D01*
X48586Y-37035D01*
X48626Y-36985D01*
X48685Y-36792D01*
X48685Y-36270D01*
X48685Y-36170D01*
X48685Y-35648D01*
X48626Y-35455D01*
X48498Y-35298D01*
X48320Y-35203D01*
X48298Y-35199D01*
X48219Y-35248D01*
X48219Y-36170D01*
X48685Y-36170D01*
X48685Y-36270D01*
X48219Y-36270D01*
X48219Y-36278D01*
X48119Y-36278D01*
X48119Y-36270D01*
X48119Y-36170D01*
X48119Y-35248D01*
X48039Y-35199D01*
X48018Y-35203D01*
X47839Y-35298D01*
X47711Y-35455D01*
X47653Y-35648D01*
X47653Y-36170D01*
X48119Y-36170D01*
X48119Y-36270D01*
X47653Y-36270D01*
X47653Y-36792D01*
X47711Y-36985D01*
X47752Y-37035D01*
X47476Y-37035D01*
X47553Y-36919D01*
X47585Y-36760D01*
X47585Y-35680D01*
X47553Y-35521D01*
X47463Y-35386D01*
X47369Y-35323D01*
X47369Y-35282D01*
X47354Y-35206D01*
X47310Y-35141D01*
X47245Y-35098D01*
X47169Y-35082D01*
X46976Y-35082D01*
X46944Y-35006D01*
X46853Y-34915D01*
X46734Y-34865D01*
X46604Y-34865D01*
X46485Y-34915D01*
X46393Y-35006D01*
X46369Y-35065D01*
X46369Y-34141D01*
X46369Y-34141D01*
X46354Y-34064D01*
X46354Y-34064D01*
X46339Y-34043D01*
X46310Y-33999D01*
X46310Y-33999D01*
X44386Y-32075D01*
X44406Y-32075D01*
X44452Y-32056D01*
X44499Y-32103D01*
X44527Y-32146D01*
X44592Y-32189D01*
X44669Y-32204D01*
X44984Y-32204D01*
X45060Y-32189D01*
X45125Y-32146D01*
X45251Y-32020D01*
X45391Y-32020D01*
X45391Y-32032D01*
X45453Y-32095D01*
X45816Y-32095D01*
X45816Y-32087D01*
X45916Y-32087D01*
X45916Y-32095D01*
X45924Y-32095D01*
X45924Y-32195D01*
X45916Y-32195D01*
X45916Y-32203D01*
X45816Y-32203D01*
X45816Y-32195D01*
X45453Y-32195D01*
X45391Y-32257D01*
X45391Y-32354D01*
X45429Y-32446D01*
X45499Y-32517D01*
X45547Y-32537D01*
X45514Y-32570D01*
X45491Y-32625D01*
X45491Y-32685D01*
X45491Y-33005D01*
X45513Y-33060D01*
X45556Y-33102D01*
X45611Y-33125D01*
X45666Y-33125D01*
X45666Y-33125D01*
X45681Y-33201D01*
X45724Y-33266D01*
X45789Y-33310D01*
X45866Y-33325D01*
X46457Y-33325D01*
X46454Y-33333D01*
X46454Y-33393D01*
X46454Y-33905D01*
X46477Y-33960D01*
X46519Y-34002D01*
X46574Y-34025D01*
X46634Y-34025D01*
X46718Y-34025D01*
X46718Y-34025D01*
X46733Y-34102D01*
X46776Y-34167D01*
X47076Y-34466D01*
X47076Y-34466D01*
X47119Y-34495D01*
X47141Y-34509D01*
X47141Y-34509D01*
X47217Y-34524D01*
X47217Y-34524D01*
X47238Y-34524D01*
X47313Y-34600D01*
X47432Y-34649D01*
X47561Y-34650D01*
X47681Y-34600D01*
X47772Y-34509D01*
X47822Y-34389D01*
X47822Y-34260D01*
X47773Y-34141D01*
X47681Y-34049D01*
X47570Y-34003D01*
X47572Y-34002D01*
X47614Y-33960D01*
X47637Y-33905D01*
X47637Y-33845D01*
X47637Y-33674D01*
X47648Y-33619D01*
X47648Y-33406D01*
X47648Y-33406D01*
X47648Y-33406D01*
X47648Y-33381D01*
X47817Y-33381D01*
X47901Y-33364D01*
X47901Y-33364D01*
X47972Y-33317D01*
X48164Y-33125D01*
X48465Y-33125D01*
X48465Y-33233D01*
X48514Y-33353D01*
X48590Y-33429D01*
X48590Y-34904D01*
X48605Y-34980D01*
X48649Y-35045D01*
X48944Y-35340D01*
G54D10*
G36*
X49195Y-32455D02*
X49189Y-32485D01*
X49189Y-32505D01*
X49154Y-32505D01*
X49099Y-32528D01*
X49057Y-32570D01*
X49046Y-32595D01*
X48590Y-32595D01*
X48580Y-32570D01*
X48547Y-32537D01*
X48595Y-32517D01*
X48665Y-32446D01*
X48703Y-32354D01*
X48703Y-32257D01*
X48640Y-32195D01*
X48278Y-32195D01*
X48278Y-32203D01*
X48178Y-32203D01*
X48178Y-32195D01*
X48170Y-32195D01*
X48170Y-32095D01*
X48178Y-32095D01*
X48178Y-32087D01*
X48278Y-32087D01*
X48278Y-32095D01*
X48640Y-32095D01*
X48700Y-32035D01*
X49034Y-32035D01*
X49034Y-32335D01*
X49057Y-32390D01*
X49099Y-32432D01*
X49154Y-32455D01*
X49195Y-32455D01*
X49195Y-32455D01*
G37*
G54D20*
X49195Y-32455D02*
X49189Y-32485D01*
X49189Y-32505D01*
X49154Y-32505D01*
X49099Y-32528D01*
X49057Y-32570D01*
X49046Y-32595D01*
X48590Y-32595D01*
X48580Y-32570D01*
X48547Y-32537D01*
X48595Y-32517D01*
X48665Y-32446D01*
X48703Y-32354D01*
X48703Y-32257D01*
X48640Y-32195D01*
X48278Y-32195D01*
X48278Y-32203D01*
X48178Y-32203D01*
X48178Y-32195D01*
X48170Y-32195D01*
X48170Y-32095D01*
X48178Y-32095D01*
X48178Y-32087D01*
X48278Y-32087D01*
X48278Y-32095D01*
X48640Y-32095D01*
X48700Y-32035D01*
X49034Y-32035D01*
X49034Y-32335D01*
X49057Y-32390D01*
X49099Y-32432D01*
X49154Y-32455D01*
X49195Y-32455D01*
G54D10*
G36*
X49202Y-31635D02*
X48595Y-31635D01*
X48502Y-31542D01*
X48538Y-31527D01*
X48580Y-31485D01*
X48603Y-31430D01*
X48603Y-31370D01*
X48603Y-31050D01*
X48580Y-30995D01*
X48538Y-30953D01*
X48483Y-30930D01*
X48423Y-30930D01*
X47973Y-30930D01*
X47918Y-30953D01*
X47876Y-30995D01*
X47853Y-31050D01*
X47853Y-31110D01*
X47853Y-31430D01*
X47876Y-31485D01*
X47905Y-31515D01*
X47732Y-31688D01*
X47732Y-31626D01*
X47732Y-31532D01*
X47669Y-31469D01*
X47452Y-31469D01*
X47452Y-31863D01*
X47505Y-31915D01*
X47144Y-32276D01*
X46935Y-32276D01*
X46684Y-32025D01*
X46863Y-32025D01*
X46863Y-32025D01*
X46863Y-32025D01*
X46901Y-32018D01*
X46939Y-32010D01*
X46940Y-32010D01*
X46940Y-32010D01*
X46972Y-31988D01*
X47004Y-31967D01*
X47004Y-31967D01*
X47005Y-31966D01*
X47054Y-31917D01*
X47054Y-31917D01*
X47054Y-31916D01*
X47055Y-31916D01*
X47064Y-31903D01*
X47098Y-31852D01*
X47098Y-31851D01*
X47098Y-31851D01*
X47102Y-31832D01*
X47103Y-31825D01*
X47144Y-31825D01*
X47160Y-31825D01*
X47222Y-31887D01*
X47314Y-31925D01*
X47331Y-31925D01*
X47393Y-31863D01*
X47393Y-31469D01*
X47382Y-31469D01*
X47382Y-31369D01*
X47393Y-31369D01*
X47393Y-31361D01*
X47452Y-31361D01*
X47452Y-31369D01*
X47669Y-31369D01*
X47732Y-31307D01*
X47732Y-31213D01*
X47732Y-31113D01*
X47694Y-31021D01*
X47623Y-30951D01*
X47548Y-30920D01*
X47699Y-30770D01*
X47857Y-30770D01*
X47876Y-30815D01*
X47918Y-30857D01*
X47973Y-30880D01*
X48033Y-30880D01*
X48483Y-30880D01*
X48538Y-30857D01*
X48580Y-30815D01*
X48599Y-30770D01*
X49038Y-30770D01*
X49057Y-30815D01*
X49099Y-30857D01*
X49154Y-30880D01*
X49195Y-30880D01*
X49189Y-30910D01*
X49189Y-30930D01*
X49154Y-30930D01*
X49099Y-30953D01*
X49057Y-30995D01*
X49034Y-31050D01*
X49034Y-31110D01*
X49034Y-31430D01*
X49057Y-31485D01*
X49099Y-31527D01*
X49154Y-31550D01*
X49189Y-31550D01*
X49189Y-31570D01*
X49202Y-31635D01*
X49202Y-31635D01*
G37*
G54D20*
X49202Y-31635D02*
X48595Y-31635D01*
X48502Y-31542D01*
X48538Y-31527D01*
X48580Y-31485D01*
X48603Y-31430D01*
X48603Y-31370D01*
X48603Y-31050D01*
X48580Y-30995D01*
X48538Y-30953D01*
X48483Y-30930D01*
X48423Y-30930D01*
X47973Y-30930D01*
X47918Y-30953D01*
X47876Y-30995D01*
X47853Y-31050D01*
X47853Y-31110D01*
X47853Y-31430D01*
X47876Y-31485D01*
X47905Y-31515D01*
X47732Y-31688D01*
X47732Y-31626D01*
X47732Y-31532D01*
X47669Y-31469D01*
X47452Y-31469D01*
X47452Y-31863D01*
X47505Y-31915D01*
X47144Y-32276D01*
X46935Y-32276D01*
X46684Y-32025D01*
X46863Y-32025D01*
X46863Y-32025D01*
X46863Y-32025D01*
X46901Y-32018D01*
X46939Y-32010D01*
X46940Y-32010D01*
X46940Y-32010D01*
X46972Y-31988D01*
X47004Y-31967D01*
X47004Y-31967D01*
X47005Y-31966D01*
X47054Y-31917D01*
X47054Y-31917D01*
X47054Y-31916D01*
X47055Y-31916D01*
X47064Y-31903D01*
X47098Y-31852D01*
X47098Y-31851D01*
X47098Y-31851D01*
X47102Y-31832D01*
X47103Y-31825D01*
X47144Y-31825D01*
X47160Y-31825D01*
X47222Y-31887D01*
X47314Y-31925D01*
X47331Y-31925D01*
X47393Y-31863D01*
X47393Y-31469D01*
X47382Y-31469D01*
X47382Y-31369D01*
X47393Y-31369D01*
X47393Y-31361D01*
X47452Y-31361D01*
X47452Y-31369D01*
X47669Y-31369D01*
X47732Y-31307D01*
X47732Y-31213D01*
X47732Y-31113D01*
X47694Y-31021D01*
X47623Y-30951D01*
X47548Y-30920D01*
X47699Y-30770D01*
X47857Y-30770D01*
X47876Y-30815D01*
X47918Y-30857D01*
X47973Y-30880D01*
X48033Y-30880D01*
X48483Y-30880D01*
X48538Y-30857D01*
X48580Y-30815D01*
X48599Y-30770D01*
X49038Y-30770D01*
X49057Y-30815D01*
X49099Y-30857D01*
X49154Y-30880D01*
X49195Y-30880D01*
X49189Y-30910D01*
X49189Y-30930D01*
X49154Y-30930D01*
X49099Y-30953D01*
X49057Y-30995D01*
X49034Y-31050D01*
X49034Y-31110D01*
X49034Y-31430D01*
X49057Y-31485D01*
X49099Y-31527D01*
X49154Y-31550D01*
X49189Y-31550D01*
X49189Y-31570D01*
X49202Y-31635D01*
G54D10*
G36*
X52192Y-37035D02*
X51852Y-37035D01*
X51852Y-33024D01*
X51852Y-32927D01*
X51790Y-32865D01*
X51427Y-32865D01*
X51427Y-33162D01*
X51490Y-33225D01*
X51553Y-33225D01*
X51652Y-33225D01*
X51744Y-33187D01*
X51815Y-33116D01*
X51852Y-33024D01*
X51852Y-37035D01*
X50476Y-37035D01*
X50553Y-36919D01*
X50585Y-36760D01*
X50585Y-35680D01*
X50553Y-35521D01*
X50463Y-35386D01*
X50394Y-35340D01*
X50481Y-35253D01*
X50481Y-35253D01*
X50524Y-35188D01*
X50524Y-35188D01*
X50527Y-35176D01*
X50540Y-35112D01*
X50540Y-35112D01*
X50540Y-33338D01*
X50902Y-32975D01*
X50902Y-33024D01*
X50940Y-33116D01*
X51011Y-33187D01*
X51103Y-33225D01*
X51202Y-33225D01*
X51265Y-33225D01*
X51327Y-33162D01*
X51327Y-32865D01*
X51320Y-32865D01*
X51320Y-32765D01*
X51327Y-32765D01*
X51327Y-32757D01*
X51427Y-32757D01*
X51427Y-32765D01*
X51790Y-32765D01*
X51852Y-32702D01*
X51852Y-32605D01*
X51815Y-32513D01*
X51744Y-32443D01*
X51696Y-32423D01*
X51730Y-32390D01*
X51752Y-32335D01*
X51752Y-32275D01*
X51752Y-31955D01*
X51730Y-31900D01*
X51688Y-31858D01*
X51632Y-31835D01*
X51577Y-31835D01*
X51577Y-31550D01*
X51632Y-31550D01*
X51687Y-31527D01*
X51730Y-31485D01*
X51752Y-31430D01*
X51752Y-31370D01*
X51752Y-31110D01*
X51787Y-31103D01*
X51787Y-31103D01*
X51858Y-31056D01*
X51928Y-30986D01*
X51976Y-30914D01*
X51976Y-30914D01*
X51993Y-30830D01*
X51993Y-30340D01*
X51976Y-30255D01*
X51976Y-30255D01*
X51928Y-30184D01*
X51828Y-30084D01*
X51757Y-30037D01*
X51673Y-30020D01*
X51438Y-30020D01*
X51303Y-29884D01*
X51231Y-29836D01*
X51147Y-29820D01*
X47093Y-29820D01*
X47091Y-29818D01*
X47007Y-29802D01*
X46923Y-29818D01*
X46851Y-29866D01*
X46833Y-29884D01*
X46833Y-29884D01*
X46616Y-30102D01*
X46616Y-29752D01*
X46578Y-29660D01*
X46508Y-29590D01*
X46416Y-29552D01*
X46316Y-29551D01*
X46281Y-29551D01*
X46219Y-29614D01*
X46219Y-29889D01*
X46553Y-29889D01*
X46616Y-29827D01*
X46616Y-29752D01*
X46616Y-30102D01*
X46616Y-30102D01*
X46616Y-30052D01*
X46553Y-29989D01*
X46219Y-29989D01*
X46219Y-29997D01*
X46119Y-29997D01*
X46119Y-29989D01*
X46119Y-29889D01*
X46119Y-29614D01*
X46056Y-29551D01*
X46021Y-29551D01*
X45922Y-29552D01*
X45830Y-29590D01*
X45760Y-29660D01*
X45722Y-29752D01*
X45722Y-29827D01*
X45784Y-29889D01*
X46119Y-29889D01*
X46119Y-29989D01*
X45784Y-29989D01*
X45759Y-30015D01*
X45392Y-29647D01*
X45320Y-29599D01*
X45236Y-29583D01*
X43483Y-29583D01*
X43399Y-29599D01*
X43328Y-29647D01*
X43305Y-29669D01*
X43052Y-29669D01*
X42997Y-29692D01*
X42954Y-29734D01*
X42932Y-29789D01*
X42932Y-29849D01*
X42932Y-30108D01*
X42862Y-30154D01*
X42756Y-30260D01*
X42708Y-30332D01*
X42691Y-30416D01*
X42691Y-31065D01*
X42708Y-31149D01*
X42756Y-31220D01*
X42781Y-31246D01*
X42781Y-31283D01*
X42776Y-31295D01*
X42776Y-31354D01*
X42776Y-31854D01*
X42781Y-31866D01*
X42781Y-32460D01*
X42775Y-32445D01*
X42669Y-32339D01*
X42532Y-32282D01*
X42382Y-32282D01*
X42244Y-32339D01*
X42146Y-32437D01*
X42089Y-32437D01*
X42005Y-32453D01*
X41934Y-32501D01*
X41192Y-33243D01*
X41144Y-33314D01*
X41127Y-33399D01*
X41127Y-33861D01*
X41030Y-33958D01*
X41027Y-33965D01*
X41015Y-33968D01*
X40944Y-34015D01*
X40398Y-34562D01*
X40386Y-34532D01*
X40343Y-34490D01*
X40288Y-34467D01*
X40229Y-34467D01*
X39909Y-34467D01*
X39853Y-34490D01*
X39820Y-34523D01*
X39800Y-34475D01*
X39730Y-34405D01*
X39638Y-34367D01*
X39541Y-34367D01*
X39478Y-34430D01*
X39478Y-34792D01*
X39486Y-34792D01*
X39486Y-34892D01*
X39478Y-34892D01*
X39478Y-35255D01*
X39541Y-35317D01*
X39638Y-35317D01*
X39730Y-35279D01*
X39800Y-35209D01*
X39820Y-35161D01*
X39853Y-35194D01*
X39908Y-35217D01*
X39968Y-35217D01*
X40288Y-35217D01*
X40343Y-35194D01*
X40385Y-35152D01*
X40408Y-35097D01*
X40408Y-35062D01*
X40428Y-35062D01*
X40513Y-35045D01*
X40513Y-35045D01*
X40584Y-34998D01*
X41114Y-34468D01*
X41135Y-34489D01*
X41272Y-34546D01*
X41422Y-34546D01*
X41559Y-34489D01*
X41665Y-34384D01*
X41722Y-34246D01*
X41722Y-34097D01*
X41665Y-33959D01*
X41567Y-33861D01*
X41567Y-33490D01*
X42163Y-32894D01*
X42209Y-32939D01*
X42195Y-32945D01*
X42089Y-33051D01*
X42032Y-33188D01*
X42032Y-33338D01*
X42089Y-33475D01*
X42194Y-33581D01*
X42206Y-33586D01*
X42206Y-33914D01*
X41013Y-35107D01*
X40966Y-35178D01*
X40949Y-35262D01*
X40949Y-35337D01*
X40875Y-35386D01*
X40785Y-35521D01*
X40785Y-35521D01*
X40710Y-35521D01*
X40626Y-35538D01*
X40590Y-35562D01*
X40555Y-35586D01*
X40398Y-35743D01*
X40386Y-35713D01*
X40343Y-35671D01*
X40288Y-35648D01*
X40229Y-35648D01*
X39909Y-35648D01*
X39853Y-35671D01*
X39820Y-35704D01*
X39800Y-35656D01*
X39730Y-35586D01*
X39638Y-35548D01*
X39541Y-35548D01*
X39478Y-35611D01*
X39478Y-35973D01*
X39486Y-35973D01*
X39486Y-36073D01*
X39478Y-36073D01*
X39478Y-36436D01*
X39541Y-36498D01*
X39638Y-36498D01*
X39730Y-36460D01*
X39800Y-36390D01*
X39820Y-36342D01*
X39853Y-36375D01*
X39908Y-36398D01*
X39968Y-36398D01*
X40288Y-36398D01*
X40343Y-36375D01*
X40385Y-36333D01*
X40408Y-36278D01*
X40408Y-36243D01*
X40428Y-36243D01*
X40513Y-36226D01*
X40513Y-36226D01*
X40584Y-36179D01*
X40753Y-36010D01*
X40753Y-36760D01*
X40785Y-36919D01*
X40862Y-37035D01*
X39378Y-37035D01*
X39378Y-36436D01*
X39378Y-36073D01*
X39378Y-35973D01*
X39378Y-35611D01*
X39378Y-35255D01*
X39378Y-34892D01*
X39378Y-34792D01*
X39378Y-34430D01*
X39316Y-34367D01*
X39219Y-34367D01*
X39127Y-34405D01*
X39056Y-34475D01*
X39018Y-34567D01*
X39018Y-34667D01*
X39018Y-34730D01*
X39081Y-34792D01*
X39378Y-34792D01*
X39378Y-34892D01*
X39081Y-34892D01*
X39018Y-34955D01*
X39018Y-35018D01*
X39018Y-35117D01*
X39056Y-35209D01*
X39127Y-35279D01*
X39219Y-35317D01*
X39316Y-35317D01*
X39378Y-35255D01*
X39378Y-35611D01*
X39316Y-35548D01*
X39219Y-35548D01*
X39127Y-35586D01*
X39056Y-35656D01*
X39018Y-35748D01*
X39018Y-35848D01*
X39018Y-35911D01*
X39081Y-35973D01*
X39378Y-35973D01*
X39378Y-36073D01*
X39081Y-36073D01*
X39018Y-36136D01*
X39018Y-36199D01*
X39018Y-36298D01*
X39056Y-36390D01*
X39127Y-36460D01*
X39219Y-36498D01*
X39316Y-36498D01*
X39378Y-36436D01*
X39378Y-37035D01*
X38752Y-37035D01*
X38752Y-29500D01*
X52192Y-29500D01*
X52192Y-37035D01*
X52192Y-37035D01*
G37*
G54D20*
X52192Y-37035D02*
X51852Y-37035D01*
X51852Y-33024D01*
X51852Y-32927D01*
X51790Y-32865D01*
X51427Y-32865D01*
X51427Y-33162D01*
X51490Y-33225D01*
X51553Y-33225D01*
X51652Y-33225D01*
X51744Y-33187D01*
X51815Y-33116D01*
X51852Y-33024D01*
X51852Y-37035D01*
X50476Y-37035D01*
X50553Y-36919D01*
X50585Y-36760D01*
X50585Y-35680D01*
X50553Y-35521D01*
X50463Y-35386D01*
X50394Y-35340D01*
X50481Y-35253D01*
X50481Y-35253D01*
X50524Y-35188D01*
X50524Y-35188D01*
X50527Y-35176D01*
X50540Y-35112D01*
X50540Y-35112D01*
X50540Y-33338D01*
X50902Y-32975D01*
X50902Y-33024D01*
X50940Y-33116D01*
X51011Y-33187D01*
X51103Y-33225D01*
X51202Y-33225D01*
X51265Y-33225D01*
X51327Y-33162D01*
X51327Y-32865D01*
X51320Y-32865D01*
X51320Y-32765D01*
X51327Y-32765D01*
X51327Y-32757D01*
X51427Y-32757D01*
X51427Y-32765D01*
X51790Y-32765D01*
X51852Y-32702D01*
X51852Y-32605D01*
X51815Y-32513D01*
X51744Y-32443D01*
X51696Y-32423D01*
X51730Y-32390D01*
X51752Y-32335D01*
X51752Y-32275D01*
X51752Y-31955D01*
X51730Y-31900D01*
X51688Y-31858D01*
X51632Y-31835D01*
X51577Y-31835D01*
X51577Y-31550D01*
X51632Y-31550D01*
X51687Y-31527D01*
X51730Y-31485D01*
X51752Y-31430D01*
X51752Y-31370D01*
X51752Y-31110D01*
X51787Y-31103D01*
X51787Y-31103D01*
X51858Y-31056D01*
X51928Y-30986D01*
X51976Y-30914D01*
X51976Y-30914D01*
X51993Y-30830D01*
X51993Y-30340D01*
X51976Y-30255D01*
X51976Y-30255D01*
X51928Y-30184D01*
X51828Y-30084D01*
X51757Y-30037D01*
X51673Y-30020D01*
X51438Y-30020D01*
X51303Y-29884D01*
X51231Y-29836D01*
X51147Y-29820D01*
X47093Y-29820D01*
X47091Y-29818D01*
X47007Y-29802D01*
X46923Y-29818D01*
X46851Y-29866D01*
X46833Y-29884D01*
X46833Y-29884D01*
X46616Y-30102D01*
X46616Y-29752D01*
X46578Y-29660D01*
X46508Y-29590D01*
X46416Y-29552D01*
X46316Y-29551D01*
X46281Y-29551D01*
X46219Y-29614D01*
X46219Y-29889D01*
X46553Y-29889D01*
X46616Y-29827D01*
X46616Y-29752D01*
X46616Y-30102D01*
X46616Y-30102D01*
X46616Y-30052D01*
X46553Y-29989D01*
X46219Y-29989D01*
X46219Y-29997D01*
X46119Y-29997D01*
X46119Y-29989D01*
X46119Y-29889D01*
X46119Y-29614D01*
X46056Y-29551D01*
X46021Y-29551D01*
X45922Y-29552D01*
X45830Y-29590D01*
X45760Y-29660D01*
X45722Y-29752D01*
X45722Y-29827D01*
X45784Y-29889D01*
X46119Y-29889D01*
X46119Y-29989D01*
X45784Y-29989D01*
X45759Y-30015D01*
X45392Y-29647D01*
X45320Y-29599D01*
X45236Y-29583D01*
X43483Y-29583D01*
X43399Y-29599D01*
X43328Y-29647D01*
X43305Y-29669D01*
X43052Y-29669D01*
X42997Y-29692D01*
X42954Y-29734D01*
X42932Y-29789D01*
X42932Y-29849D01*
X42932Y-30108D01*
X42862Y-30154D01*
X42756Y-30260D01*
X42708Y-30332D01*
X42691Y-30416D01*
X42691Y-31065D01*
X42708Y-31149D01*
X42756Y-31220D01*
X42781Y-31246D01*
X42781Y-31283D01*
X42776Y-31295D01*
X42776Y-31354D01*
X42776Y-31854D01*
X42781Y-31866D01*
X42781Y-32460D01*
X42775Y-32445D01*
X42669Y-32339D01*
X42532Y-32282D01*
X42382Y-32282D01*
X42244Y-32339D01*
X42146Y-32437D01*
X42089Y-32437D01*
X42005Y-32453D01*
X41934Y-32501D01*
X41192Y-33243D01*
X41144Y-33314D01*
X41127Y-33399D01*
X41127Y-33861D01*
X41030Y-33958D01*
X41027Y-33965D01*
X41015Y-33968D01*
X40944Y-34015D01*
X40398Y-34562D01*
X40386Y-34532D01*
X40343Y-34490D01*
X40288Y-34467D01*
X40229Y-34467D01*
X39909Y-34467D01*
X39853Y-34490D01*
X39820Y-34523D01*
X39800Y-34475D01*
X39730Y-34405D01*
X39638Y-34367D01*
X39541Y-34367D01*
X39478Y-34430D01*
X39478Y-34792D01*
X39486Y-34792D01*
X39486Y-34892D01*
X39478Y-34892D01*
X39478Y-35255D01*
X39541Y-35317D01*
X39638Y-35317D01*
X39730Y-35279D01*
X39800Y-35209D01*
X39820Y-35161D01*
X39853Y-35194D01*
X39908Y-35217D01*
X39968Y-35217D01*
X40288Y-35217D01*
X40343Y-35194D01*
X40385Y-35152D01*
X40408Y-35097D01*
X40408Y-35062D01*
X40428Y-35062D01*
X40513Y-35045D01*
X40513Y-35045D01*
X40584Y-34998D01*
X41114Y-34468D01*
X41135Y-34489D01*
X41272Y-34546D01*
X41422Y-34546D01*
X41559Y-34489D01*
X41665Y-34384D01*
X41722Y-34246D01*
X41722Y-34097D01*
X41665Y-33959D01*
X41567Y-33861D01*
X41567Y-33490D01*
X42163Y-32894D01*
X42209Y-32939D01*
X42195Y-32945D01*
X42089Y-33051D01*
X42032Y-33188D01*
X42032Y-33338D01*
X42089Y-33475D01*
X42194Y-33581D01*
X42206Y-33586D01*
X42206Y-33914D01*
X41013Y-35107D01*
X40966Y-35178D01*
X40949Y-35262D01*
X40949Y-35337D01*
X40875Y-35386D01*
X40785Y-35521D01*
X40785Y-35521D01*
X40710Y-35521D01*
X40626Y-35538D01*
X40590Y-35562D01*
X40555Y-35586D01*
X40398Y-35743D01*
X40386Y-35713D01*
X40343Y-35671D01*
X40288Y-35648D01*
X40229Y-35648D01*
X39909Y-35648D01*
X39853Y-35671D01*
X39820Y-35704D01*
X39800Y-35656D01*
X39730Y-35586D01*
X39638Y-35548D01*
X39541Y-35548D01*
X39478Y-35611D01*
X39478Y-35973D01*
X39486Y-35973D01*
X39486Y-36073D01*
X39478Y-36073D01*
X39478Y-36436D01*
X39541Y-36498D01*
X39638Y-36498D01*
X39730Y-36460D01*
X39800Y-36390D01*
X39820Y-36342D01*
X39853Y-36375D01*
X39908Y-36398D01*
X39968Y-36398D01*
X40288Y-36398D01*
X40343Y-36375D01*
X40385Y-36333D01*
X40408Y-36278D01*
X40408Y-36243D01*
X40428Y-36243D01*
X40513Y-36226D01*
X40513Y-36226D01*
X40584Y-36179D01*
X40753Y-36010D01*
X40753Y-36760D01*
X40785Y-36919D01*
X40862Y-37035D01*
X39378Y-37035D01*
X39378Y-36436D01*
X39378Y-36073D01*
X39378Y-35973D01*
X39378Y-35611D01*
X39378Y-35255D01*
X39378Y-34892D01*
X39378Y-34792D01*
X39378Y-34430D01*
X39316Y-34367D01*
X39219Y-34367D01*
X39127Y-34405D01*
X39056Y-34475D01*
X39018Y-34567D01*
X39018Y-34667D01*
X39018Y-34730D01*
X39081Y-34792D01*
X39378Y-34792D01*
X39378Y-34892D01*
X39081Y-34892D01*
X39018Y-34955D01*
X39018Y-35018D01*
X39018Y-35117D01*
X39056Y-35209D01*
X39127Y-35279D01*
X39219Y-35317D01*
X39316Y-35317D01*
X39378Y-35255D01*
X39378Y-35611D01*
X39316Y-35548D01*
X39219Y-35548D01*
X39127Y-35586D01*
X39056Y-35656D01*
X39018Y-35748D01*
X39018Y-35848D01*
X39018Y-35911D01*
X39081Y-35973D01*
X39378Y-35973D01*
X39378Y-36073D01*
X39081Y-36073D01*
X39018Y-36136D01*
X39018Y-36199D01*
X39018Y-36298D01*
X39056Y-36390D01*
X39127Y-36460D01*
X39219Y-36498D01*
X39316Y-36498D01*
X39378Y-36436D01*
X39378Y-37035D01*
X38752Y-37035D01*
X38752Y-29500D01*
X52192Y-29500D01*
X52192Y-37035D01*
M02*
