M48
INCH,TZ
T1C0.035
T2C0.040
T3C0.070
T4C0.156
%
G90
G05
T1
X019800Y-021800
X019800Y-022600
X021000Y-021800
X021000Y-022600
X022200Y-021800
X022200Y-022600
X027537Y-018350
X029086Y-020012
X029088Y-019025
X029104Y-026794
X029638Y-022540
X030898Y-026534
X031130Y-018500
X032097Y-020796
X032106Y-023163
X033587Y-021174
X033587Y-028197
X037953Y-020432
X038000Y-021264
X040227Y-022798
T2
X037000Y-018000
X037000Y-019000
X037000Y-026000
X037000Y-027000
X038000Y-018000
X038000Y-019000
X038000Y-026000
X038000Y-027000
X039000Y-018000
X039000Y-019000
X039000Y-026000
X039000Y-027000
T3
X025720Y-022250
X027280Y-022250
T4
X017000Y-022500
X034500Y-022500
T0
M30
